<svg width="48" height="49" viewBox="0 0 48 49" fill="none" xmlns="http://www.w3.org/2000/svg">
<g clip-path="url(#clip0_0_539)">
<path d="M23.8291 48.0795C36.9783 48.0795 47.6379 37.4199 47.6379 24.2707C47.6379 11.1214 36.9783 0.461853 23.8291 0.461853C10.6798 0.461853 0.0202637 11.1214 0.0202637 24.2707C0.0202637 37.4199 10.6798 48.0795 23.8291 48.0795Z" fill="url(#paint0_linear_0_539)"/>
<path d="M23.7264 27.0812C18.7488 29.4688 14.5118 29.4869 11.5149 28.9261V33.7376C14.374 34.2983 17.9737 34.3525 21.9351 32.9417L26.9989 30.8797C30.9948 29.6135 34.0607 30.0114 36.1447 30.753V25.6522C34.9218 25.3085 33.5095 25.0915 31.9421 25.0915C29.548 25.0915 26.7923 25.6161 23.7264 27.0812Z" fill="white"/>
<path d="M23.7264 17.2372C18.7488 19.6337 14.5118 19.6519 11.5149 19.0891V23.9003C14.8735 24.5539 19.2311 24.5357 24.0364 22.23C29.4963 19.5974 33.5611 19.9969 36.1447 20.9228V15.8029C34.9218 15.4579 33.5095 15.2401 31.9421 15.2401C29.548 15.2219 26.7923 15.7665 23.7264 17.2372Z" fill="white"/>
</g>
<defs>
<linearGradient id="paint0_linear_0_539" x1="19.6841" y1="31.2967" x2="36.6794" y2="4.32136" gradientUnits="userSpaceOnUse">
<stop stop-color="#01AAC9"/>
<stop offset="1" stop-color="#01AAC9"/>
</linearGradient>
<clipPath id="clip0_0_539">
<rect width="48" height="48.8" fill="white"/>
</clipPath>
</defs>
</svg>
