<svg width="49" height="48" viewBox="0 0 49 48" fill="none" xmlns="http://www.w3.org/2000/svg">
<g clip-path="url(#clip0_0_556)">
<path d="M24.3573 46.9689C37.3122 46.9689 47.8143 36.4668 47.8143 23.5119C47.8143 10.5569 37.3122 0.0548706 24.3573 0.0548706C11.4023 0.0548706 0.900269 10.5569 0.900269 23.5119C0.900269 36.4668 11.4023 46.9689 24.3573 46.9689Z" fill="#0084AC"/>
<path d="M25.5172 11.5543L24.0694 9.53778L22.6217 11.5543C22.4665 11.7611 22.2597 12.0713 22.0012 12.4333L24.1212 15.7425C26.8616 19.7756 30.119 25.3598 30.119 27.6348C30.119 30.944 27.4303 33.6328 24.1212 33.6328C20.812 33.6328 18.1232 30.944 18.1232 27.6348C18.1232 25.7217 20.3983 21.4819 22.7768 17.8107L20.7085 14.3464C18.2266 18.0692 14.5038 24.1705 14.5038 27.6348C14.5038 32.9089 18.7954 37.2522 24.1212 37.2522C29.4469 37.2522 33.7385 32.9606 33.7385 27.6348C33.6867 22.9813 26.8616 13.4157 25.5172 11.5543Z" fill="white"/>
</g>
<defs>
<clipPath id="clip0_0_556">
<rect width="48" height="47.2381" fill="white" transform="translate(0.5 -0.00402832)"/>
</clipPath>
</defs>
</svg>
