<svg width="48" height="49" viewBox="0 0 48 49" fill="none" xmlns="http://www.w3.org/2000/svg">
<g clip-path="url(#clip0_0_572)">
<path d="M23.8319 47.8677C36.7656 47.8677 47.2504 37.2385 47.2504 24.1266C47.2504 11.0148 36.7656 0.385498 23.8319 0.385498C10.8983 0.385498 0.413452 11.0148 0.413452 24.1266C0.413452 37.2385 10.8983 47.8677 23.8319 47.8677Z" fill="#F1C773"/>
<path d="M28.8679 13.6687C26.8773 13.6687 25.0624 14.4403 23.7158 15.7461C21.7838 18.1795 21.8423 20.0788 21.8423 20.0788H25.5893C26.1162 18.7137 27.4043 17.8235 28.8679 17.8235C30.8585 17.8235 32.4392 19.4259 32.4392 21.4439C32.4392 26.0735 26.7602 29.9907 23.7158 31.5932C20.6714 29.9907 14.9923 26.0735 14.9923 21.4439C14.9923 19.4259 16.5731 17.8235 18.5637 17.8235C19.0321 17.8235 19.4419 17.8828 19.8518 18.0609C20.1445 17.1706 20.6714 15.7461 21.6082 14.381C20.6714 13.9655 19.6175 13.7281 18.5637 13.7281C14.3484 13.7281 10.9526 17.1706 10.9526 21.4439C10.9526 30.2281 22.4278 35.5106 22.8961 35.748H24.5355C25.0038 35.5106 36.479 30.2875 36.479 21.4439C36.479 17.1112 33.0247 13.6687 28.8679 13.6687Z" fill="white"/>
</g>
<defs>
<clipPath id="clip0_0_572">
<rect width="48" height="48" fill="white" transform="translate(0 0.0799561)"/>
</clipPath>
</defs>
</svg>
