<svg width="49" height="49" viewBox="0 0 49 49" fill="none" xmlns="http://www.w3.org/2000/svg">
<g clip-path="url(#clip0_0_588)">
<path d="M24.395 48.1956C37.5589 48.1956 48.2304 37.5241 48.2304 24.3602C48.2304 11.1963 37.5589 0.524902 24.395 0.524902C11.2311 0.524902 0.559692 11.1963 0.559692 24.3602C0.559692 37.5241 11.2311 48.1956 24.395 48.1956Z" fill="#0084AC"/>
<path d="M20.6578 24.9552L18.4185 22.4492C16.6057 20.5298 15.9126 18.3971 16.4457 16.6376C16.8722 15.2513 18.0986 14.2916 19.4848 14.1317L17.5121 11.5723C15.6993 12.2655 14.2064 13.7584 13.5665 15.7311C12.8201 18.0772 13.3533 20.743 15.1128 23.1423L17.3521 25.6483C19.1649 27.5678 19.9113 29.7005 19.3249 31.46C18.845 32.8996 17.512 34.0192 15.5926 34.6591L17.672 37.0584C19.9113 36.0454 21.5109 34.3925 22.1508 32.3664C22.9505 30.0204 22.4173 27.3545 20.6578 24.9552Z" fill="white"/>
<path d="M27.643 25.1154L25.4036 22.6095C23.5908 20.69 22.8977 18.5573 23.4309 16.7978C23.8574 15.4115 25.0837 14.4518 26.47 14.2919L24.4972 11.7326C22.6844 12.4257 21.1915 13.9186 20.5517 15.8913C19.8052 18.2374 20.3384 20.9032 22.0979 23.3026L24.3373 25.8085C26.15 27.728 26.8966 29.8607 26.3101 31.6202C25.8302 33.0598 24.4973 34.1794 22.5778 34.8193L24.6571 37.2186C26.8965 36.2056 28.4961 34.5527 29.1359 32.5266C29.9357 30.1806 29.3491 27.5147 27.643 25.1154Z" fill="white"/>
<path d="M34.4679 25.2221L32.2285 22.7162C30.4157 20.7967 29.7225 18.664 30.2557 16.9045C30.6823 15.5182 31.9086 14.5585 33.2949 14.3985L31.3221 11.8393C29.5093 12.5324 28.0164 14.0253 27.3766 15.9981C26.6302 18.3441 27.1633 21.01 28.9228 23.4093L31.1621 25.9152C32.975 27.8347 33.7214 29.9674 33.1349 31.7269C32.655 33.1665 31.3221 34.2862 29.4026 34.926L31.482 37.3253C33.7214 36.3122 35.321 34.6594 35.9608 32.6333C36.7606 30.3407 36.174 27.6747 34.4679 25.2221Z" fill="white"/>
</g>
<defs>
<clipPath id="clip0_0_588">
<rect width="48" height="48.7742" fill="white" transform="translate(0.5 0.0778809)"/>
</clipPath>
</defs>
</svg>
