<svg width="26" height="25" viewBox="0 0 26 25" fill="none" xmlns="http://www.w3.org/2000/svg">
<path fill-rule="evenodd" clip-rule="evenodd" d="M4.47881 11.6961C9.27709 9.63219 12.4767 8.27153 14.0776 7.61412C18.6486 5.73709 19.5984 5.41103 20.2175 5.40026C20.3536 5.3979 20.6581 5.43121 20.8553 5.58919C21.0218 5.72259 21.0676 5.90279 21.0895 6.02926C21.1115 6.15574 21.1388 6.44385 21.1171 6.66897C20.8694 9.23848 19.7975 15.4741 19.2523 18.3519C19.0215 19.5697 18.5672 19.978 18.1274 20.018C17.1716 20.1047 16.4458 19.3943 15.52 18.7952C14.0714 17.8577 13.253 17.2739 11.8468 16.3591C10.2217 15.3019 11.2752 14.7208 12.2013 13.7712C12.4437 13.5226 16.6551 9.74074 16.7366 9.39766C16.7468 9.35475 16.7563 9.19482 16.66 9.11036C16.5638 9.02591 16.4217 9.05479 16.3192 9.07776C16.1739 9.11032 13.8597 10.6205 9.37653 13.6083C8.71965 14.0536 8.12466 14.2706 7.59157 14.2592C7.00388 14.2467 5.8734 13.9312 5.03301 13.6615C4.00223 13.3307 3.18299 13.1558 3.25433 12.594C3.29149 12.3013 3.69965 12.002 4.47881 11.6961Z" fill="url(#paint0_linear_0_732)"/>
<defs>
<linearGradient id="paint0_linear_0_732" x1="12.1875" y1="5.40015" x2="12.1875" y2="19.9166" gradientUnits="userSpaceOnUse">
<stop stop-color="#2AABEE"/>
<stop offset="1" stop-color="#229ED9"/>
</linearGradient>
</defs>
</svg>
