<svg width="26" height="25" viewBox="0 0 26 25" fill="none" xmlns="http://www.w3.org/2000/svg">
<path fill-rule="evenodd" clip-rule="evenodd" d="M5.27128 16.5303L3.99902 21.1503L8.74418 19.9055C10.0551 20.6156 11.5294 20.992 13.0294 20.992H13.0337C17.9766 20.992 21.9997 16.9923 21.9997 12.073C22.004 9.69031 21.0713 7.44878 19.3778 5.76335C17.6886 4.07793 15.4364 3.14966 13.038 3.14966C8.09946 3.14966 4.07639 7.14934 4.07639 12.0687C4.07209 13.6386 4.48471 15.1743 5.27128 16.5303ZM10.2957 7.95345C10.4547 7.95773 10.6309 7.96628 10.7986 8.33845C10.906 8.5778 11.0844 9.01282 11.234 9.37743C11.3597 9.684 11.465 9.9408 11.4906 9.98965C11.5464 10.1009 11.5808 10.2292 11.5078 10.3789C11.4991 10.3966 11.491 10.4135 11.4831 10.4297C11.4245 10.5513 11.3828 10.6379 11.2843 10.751C11.2439 10.7974 11.2019 10.8481 11.16 10.8987C11.0859 10.9884 11.0122 11.0774 10.949 11.1403C10.8372 11.2515 10.7212 11.3713 10.8501 11.5937C10.9791 11.8162 11.4304 12.5477 12.0966 13.138C12.8128 13.7756 13.4356 14.0443 13.7505 14.1801C13.8116 14.2065 13.8612 14.2278 13.8975 14.2459C14.121 14.3572 14.2543 14.34 14.3832 14.1903C14.5122 14.0406 14.942 13.5401 15.0924 13.3177C15.2386 13.0952 15.389 13.1337 15.5953 13.2064C15.8016 13.2834 16.9019 13.8224 17.1254 13.9337C17.1695 13.9556 17.2107 13.9753 17.2489 13.9937C17.4046 14.0683 17.5104 14.119 17.5553 14.1946C17.6111 14.2887 17.6111 14.7336 17.4263 15.2555C17.2372 15.7774 16.3217 16.2779 15.9134 16.3164C15.8743 16.32 15.8354 16.3247 15.7954 16.3296C15.4173 16.3753 14.9373 16.4334 13.227 15.7603C11.1199 14.9317 9.72894 12.8762 9.44744 12.4602C9.42518 12.4273 9.40986 12.4047 9.40167 12.3937L9.39691 12.3873C9.26895 12.2161 8.48616 11.1687 8.48616 10.088C8.48616 9.05417 8.99552 8.5159 9.2278 8.27042C9.24252 8.25486 9.25613 8.24048 9.26842 8.22723C9.47474 8.00478 9.71543 7.94917 9.86587 7.94917C10.0163 7.94917 10.1667 7.94917 10.2957 7.95345Z" fill="url(#paint0_linear_0_744)"/>
<defs>
<linearGradient id="paint0_linear_0_744" x1="12.9989" y1="21.1494" x2="12.9989" y2="3.14903" gradientUnits="userSpaceOnUse">
<stop stop-color="#20B038"/>
<stop offset="1" stop-color="#60D66A"/>
</linearGradient>
</defs>
</svg>
