<svg width="151" height="200" viewBox="0 0 151 200" fill="none" xmlns="http://www.w3.org/2000/svg">
<path d="M101.25 100C101.25 85.9167 89.8333 74.5 75.75 74.5C61.6667 74.5 50.25 85.9167 50.25 100C50.25 114.083 61.6667 125.5 75.75 125.5C89.8333 125.5 101.25 114.083 101.25 100Z" fill="white"/>
<path d="M83.898 98.4413C84.7845 98.9528 85.227 99.2086 85.3763 99.5425C85.506 99.8338 85.506 100.167 85.3763 100.458C85.227 100.791 84.7845 101.048 83.898 101.559L72.6644 108.045C71.7783 108.557 71.3353 108.813 70.9718 108.774C70.6547 108.741 70.3666 108.574 70.1792 108.317C69.9644 108.021 69.9644 107.509 69.9644 106.486V93.5142C69.9644 92.4911 69.9644 91.9795 70.1792 91.6838C70.3666 91.4259 70.6547 91.2595 70.9718 91.2262C71.3353 91.188 71.7783 91.4438 72.6644 91.9554L83.898 98.4413Z" fill="#F1C773"/>
<path d="M127.82 133.869C128.161 133.348 128.563 132.913 129.024 132.564C129.486 132.216 130 131.989 130.569 131.885C131.137 131.781 131.758 131.81 132.431 131.972C133.108 132.147 133.832 132.488 134.605 132.995L134.848 133.155C135.589 133.64 136.159 134.154 136.561 134.696C136.969 135.243 137.236 135.795 137.358 136.353C137.476 136.918 137.47 137.478 137.338 138.032C137.203 138.594 136.967 139.132 136.631 139.644C136.322 140.116 135.973 140.516 135.584 140.842C135.204 141.175 134.797 141.414 134.363 141.561C133.925 141.715 133.469 141.771 132.997 141.729C132.519 141.694 132.031 141.543 131.533 141.275L132.541 139.737C132.841 139.864 133.124 139.928 133.391 139.929C133.662 139.943 133.914 139.905 134.147 139.814C134.376 139.731 134.591 139.598 134.792 139.416C134.996 139.248 135.178 139.041 135.338 138.797C135.514 138.528 135.638 138.231 135.711 137.907C135.784 137.583 135.776 137.241 135.688 136.88C135.592 136.527 135.401 136.163 135.112 135.787C134.818 135.42 134.394 135.055 133.84 134.692L133.597 134.532C133.011 134.148 132.48 133.893 132.004 133.768C131.524 133.65 131.095 133.62 130.72 133.677C130.346 133.734 130.027 133.856 129.764 134.044C129.496 134.241 129.279 134.465 129.114 134.717C128.922 135.01 128.784 135.291 128.699 135.561C128.624 135.837 128.6 136.095 128.629 136.335C128.66 136.589 128.737 136.826 128.861 137.046C128.983 137.266 129.153 137.469 129.367 137.658L128.359 139.195C127.887 138.816 127.536 138.41 127.306 137.981C127.076 137.551 126.949 137.107 126.924 136.648C126.901 136.203 126.97 135.743 127.131 135.267C127.287 134.798 127.516 134.332 127.82 133.869Z" fill="white"/>
<path d="M124.031 139.812L129.596 145.182L128.34 146.485L123.373 145.117L124.915 150.033L123.719 151.272L118.155 145.902L119.27 144.747L123.102 148.446L121.843 144.392L122.653 143.552L126.749 144.666L122.918 140.967L124.031 139.812Z" fill="white"/>
<path d="M112.765 150.143C113.2 149.831 113.655 149.606 114.131 149.468C114.605 149.343 115.076 149.316 115.545 149.386C116.015 149.455 116.47 149.631 116.912 149.913C117.359 150.203 117.773 150.611 118.154 151.14L118.324 151.378C118.682 151.875 118.918 152.37 119.033 152.864C119.153 153.364 119.168 153.843 119.079 154.303C118.995 154.77 118.816 155.205 118.541 155.606C118.259 156.012 117.9 156.372 117.466 156.684C117.032 156.996 116.58 157.219 116.113 157.351C115.637 157.49 115.164 157.523 114.695 157.454C114.23 157.391 113.781 157.224 113.345 156.951C112.914 156.685 112.52 156.303 112.163 155.806L111.992 155.568C111.612 155.04 111.356 154.517 111.225 154C111.099 153.491 111.078 153.003 111.161 152.536C111.245 152.069 111.425 151.628 111.701 151.213C111.976 150.812 112.331 150.455 112.765 150.143ZM113.583 151.28C113.354 151.445 113.165 151.641 113.016 151.869C112.86 152.1 112.762 152.355 112.724 152.635C112.677 152.921 112.7 153.228 112.793 153.556C112.883 153.899 113.058 154.251 113.32 154.615L113.49 154.852C113.734 155.192 113.995 155.447 114.274 155.618C114.545 155.795 114.82 155.903 115.099 155.941C115.376 155.993 115.647 155.979 115.912 155.897C116.174 155.828 116.42 155.711 116.648 155.546C116.87 155.387 117.058 155.192 117.215 154.96C117.377 154.735 117.482 154.481 117.528 154.196C117.573 153.924 117.558 153.629 117.485 153.311C117.404 152.997 117.241 152.671 116.997 152.331L116.827 152.094C116.566 151.731 116.291 151.449 116.003 151.248C115.713 151.061 115.43 150.942 115.153 150.89C114.867 150.843 114.59 150.857 114.32 150.932C114.05 151.006 113.804 151.121 113.583 151.28Z" fill="white"/>
<path d="M105.353 155.125L108.226 160.801L110.504 159.647L111.124 160.872L105.134 163.902L104.515 162.679L106.794 161.525L103.922 155.85L105.353 155.125Z" fill="white"/>
<path d="M98.1525 155.493L101.457 165.62L100.042 166.082L99.639 164.847C99.5977 165.096 99.5205 165.331 99.4087 165.552C99.2992 165.782 99.1582 165.991 98.985 166.181C98.802 166.374 98.5965 166.543 98.3677 166.689C98.139 166.836 97.8862 166.954 97.6087 167.045C97.128 167.202 96.6735 167.268 96.246 167.244C95.8095 167.223 95.4075 167.103 95.04 166.884C94.6747 166.677 94.3492 166.368 94.0627 165.96C93.7665 165.555 93.5197 165.048 93.3202 164.438L93.2295 164.16C93.024 163.532 92.919 162.957 92.913 162.437C92.9062 161.917 92.9917 161.455 93.1665 161.05C93.3352 160.657 93.5835 160.32 93.9112 160.04C94.239 159.759 94.6387 159.541 95.1105 159.387C95.3692 159.303 95.634 159.252 95.9047 159.235C96.1635 159.212 96.417 159.222 96.666 159.264C96.9052 159.308 97.1362 159.387 97.3567 159.498C97.5682 159.614 97.7535 159.758 97.9125 159.931L96.6262 155.991L98.1525 155.493ZM95.9055 160.602C95.6182 160.695 95.3745 160.825 95.1735 160.994C94.9657 161.174 94.8127 161.392 94.713 161.651C94.6125 161.908 94.5645 162.2 94.569 162.526C94.5757 162.861 94.647 163.237 94.7835 163.654L94.8735 163.932C95.0002 164.319 95.157 164.642 95.343 164.898C95.5192 165.157 95.7217 165.353 95.9482 165.483C96.1785 165.623 96.429 165.7 96.6982 165.714C96.96 165.732 97.239 165.691 97.5352 165.595C97.794 165.51 98.0302 165.387 98.2432 165.226C98.457 165.064 98.6325 164.868 98.7727 164.638C98.907 164.421 98.9895 164.173 99.0217 163.897C99.0547 163.62 99.0187 163.32 98.9122 162.996L98.5957 162.026C98.481 161.674 98.3265 161.387 98.1307 161.164C97.935 160.941 97.716 160.773 97.4737 160.657C97.2315 160.542 96.9765 160.482 96.7087 160.477C96.4327 160.475 96.1642 160.516 95.9055 160.602Z" fill="white"/>
<path d="M85.7213 161.742C86.2215 161.664 86.7135 161.666 87.1988 161.747C87.6765 161.84 88.113 162.017 88.509 162.281C88.896 162.555 89.229 162.921 89.5073 163.379C89.7863 163.838 89.9775 164.399 90.0818 165.062L90.1268 165.35C90.2265 165.985 90.216 166.552 90.0983 167.054C89.9798 167.554 89.781 167.984 89.502 168.343C89.2155 168.713 88.8683 169.008 88.4595 169.23C88.0515 169.451 87.6023 169.601 87.1125 169.677C85.9493 169.86 85.011 169.686 84.2985 169.158C83.5763 168.631 83.1233 167.786 82.941 166.624L82.815 165.817L88.4078 164.94C88.3373 164.547 88.221 164.221 88.0628 163.961C87.8955 163.711 87.702 163.514 87.483 163.372C87.2558 163.24 87.0105 163.155 86.7495 163.117C86.478 163.081 86.2073 163.084 85.938 163.127C85.3905 163.212 85.005 163.361 84.7823 163.574C84.5498 163.787 84.4073 164.041 84.3548 164.334L82.7693 164.583C82.788 164.196 82.869 163.838 83.0153 163.511C83.1623 163.192 83.364 162.915 83.6228 162.678C83.8815 162.439 84.1905 162.243 84.5505 162.089C84.8985 161.925 85.2893 161.81 85.7213 161.742ZM86.823 168.305C87.0923 168.263 87.3465 168.188 87.5858 168.082C87.8153 167.977 88.014 167.833 88.1828 167.648C88.3425 167.476 88.4618 167.26 88.539 167.003C88.6185 166.753 88.6365 166.46 88.5938 166.122L84.5858 166.75C84.6525 167.114 84.7575 167.402 84.8985 167.616C85.0328 167.841 85.1978 168.014 85.3928 168.13C85.5885 168.247 85.806 168.317 86.0453 168.338C86.286 168.359 86.5448 168.348 86.823 168.305Z" fill="white"/>
<path d="M77.6182 162.767L77.6505 169.129L80.2035 169.116L80.2102 170.487L73.4986 170.522L73.4918 169.149L76.0455 169.137L76.0132 162.775L77.6182 162.767Z" fill="white"/>
<path d="M70.4042 162.719L69.2954 170.373L67.7067 170.142L68.0956 167.457L66.363 167.205C65.8723 167.134 65.4559 167.02 65.1153 166.863C64.7645 166.704 64.4844 166.5 64.275 166.254C64.0631 166.017 63.9227 165.731 63.8535 165.396C63.7822 165.072 63.7764 164.707 63.8346 164.303C63.8907 163.917 63.9987 163.58 64.1588 163.289C64.3095 162.996 64.5204 162.761 64.7919 162.584C65.0533 162.405 65.3756 162.285 65.7585 162.222C66.1405 162.16 66.5825 162.165 67.0826 162.238L70.4042 162.719ZM68.619 163.847L67.0308 163.616C66.5008 163.539 66.1173 163.578 65.8785 163.729C65.6297 163.89 65.4775 164.158 65.4232 164.533C65.3685 164.909 65.4393 165.204 65.6337 165.419C65.8182 165.642 66.1747 165.792 66.7043 165.869L68.2929 166.099L68.619 163.847Z" fill="white"/>
<path d="M55.9794 159.847L53.085 167.018L49.7022 165.653C49.2513 165.471 48.8829 165.264 48.5982 165.034C48.3103 164.813 48.0986 164.571 47.964 164.306C47.8257 164.051 47.7539 163.786 47.7495 163.511C47.7448 163.237 47.8013 162.955 47.9175 162.666C47.9832 162.504 48.0735 162.357 48.1897 162.226C48.297 162.09 48.423 161.973 48.5676 161.874C48.7122 161.776 48.8742 161.7 49.0533 161.646C49.2284 161.601 49.4131 161.587 49.6059 161.602C49.2081 161.315 48.9582 160.973 48.8562 160.575C48.7417 160.183 48.7665 159.783 48.9305 159.378C49.1814 158.756 49.5894 158.343 50.1534 158.14C50.7176 157.938 51.4416 158.015 52.3258 158.373L55.9794 159.847ZM53.9777 160.518L52.0155 159.726C51.5285 159.529 51.1637 159.471 50.921 159.552C50.6661 159.638 50.4803 159.825 50.3641 160.113C50.2476 160.402 50.2548 160.657 50.3859 160.878C50.5042 161.104 50.8073 161.316 51.2947 161.512L53.2569 162.304L53.9777 160.518ZM52.7865 163.467L51.0277 162.758C50.8025 162.666 50.6055 162.608 50.4381 162.582C50.2605 162.552 50.1128 162.557 49.9935 162.591C49.8655 162.624 49.7628 162.683 49.6869 162.767C49.5977 162.857 49.5266 162.969 49.4719 163.105C49.4172 163.24 49.3921 163.367 49.3971 163.484C49.3896 163.607 49.4211 163.725 49.4911 163.837C49.5522 163.945 49.6566 164.051 49.8046 164.152C49.9434 164.25 50.1253 164.344 50.3505 164.436L52.1093 165.146L52.7865 163.467Z" fill="white"/>
<path d="M46.8308 156.056L42.8179 162.666L41.4457 161.834L44.2852 157.156L38.2654 159.903L36.9553 159.108L40.9682 152.497L42.3404 153.33L39.5009 158.008L45.5211 155.261L46.8308 156.056Z" fill="white"/>
<path d="M39.7196 149.648L37.6353 152.069L36.9715 151.499C36.8026 151.546 36.5937 151.655 36.3441 151.826C36.0876 151.989 35.8164 152.192 35.5311 152.435C35.2392 152.684 34.9428 152.962 34.6415 153.267C34.3338 153.58 34.0374 153.902 33.7518 154.234L32.3241 155.893L27.9557 152.133L32.1054 147.311L31.3311 146.645L33.4155 144.222L34.5436 145.193L33.354 146.576L37.4019 150.059L38.5915 148.677L39.7196 149.648ZM35.733 150.433L33.3219 148.358L30.0668 152.14L32.0466 153.844L32.7697 153.004C33.0175 152.716 33.2657 152.442 33.5153 152.182C33.765 151.922 34.0191 151.679 34.2779 151.452C34.5306 151.233 34.778 151.035 35.0201 150.858C35.2617 150.682 35.4996 150.539 35.733 150.433Z" fill="white"/>
<path d="M28.1332 140.963C28.4578 141.351 28.7109 141.773 28.8915 142.231C29.0584 142.688 29.1316 143.153 29.1107 143.627C29.0756 144.101 28.9338 144.575 28.6852 145.05C28.4362 145.526 28.0544 145.979 27.5398 146.411L27.3165 146.598C26.8246 147.01 26.3335 147.295 25.8433 147.452C25.3526 147.61 24.882 147.662 24.4312 147.608C23.9665 147.553 23.5336 147.408 23.1333 147.173C22.7329 146.937 22.3732 146.629 22.0546 146.249C21.2982 145.347 20.9624 144.455 21.0469 143.571C21.1253 142.68 21.6155 141.857 22.5176 141.101L23.1438 140.576L26.7808 144.914C27.0803 144.65 27.3006 144.383 27.4415 144.113C27.5691 143.841 27.6376 143.574 27.6466 143.312C27.6423 143.049 27.5884 142.796 27.4855 142.553C27.3766 142.301 27.2344 142.072 27.0594 141.863C26.7034 141.437 26.377 141.185 26.0801 141.104C25.7773 141.014 25.4866 141.023 25.2077 141.131L24.1768 139.9C24.5173 139.716 24.8659 139.601 25.2219 139.557C25.5705 139.519 25.9129 139.549 26.2498 139.647C26.5863 139.746 26.9138 139.909 27.2322 140.138C27.5514 140.352 27.8519 140.627 28.1332 140.963ZM23.081 145.293C23.256 145.502 23.451 145.681 23.6656 145.831C23.8739 145.974 24.1003 146.07 24.3446 146.119C24.5751 146.167 24.8209 146.158 25.0823 146.09C25.3363 146.03 25.5968 145.894 25.864 145.683L23.2577 142.575C22.9808 142.82 22.7873 143.057 22.6769 143.29C22.5531 143.521 22.4916 143.75 22.4923 143.978C22.4929 144.206 22.5458 144.428 22.6512 144.644C22.7565 144.86 22.8996 145.077 23.081 145.293Z" fill="white"/>
<path d="M22.4678 133.247C22.7423 133.705 22.928 134.178 23.0254 134.664C23.1091 135.147 23.0966 135.618 22.987 136.08C22.8776 136.542 22.6639 136.981 22.3461 137.397C22.0196 137.819 21.5766 138.197 21.0172 138.53L20.7664 138.681C20.2403 138.994 19.7268 139.188 19.2261 139.26C18.7173 139.337 18.2376 139.311 17.7876 139.184C17.3289 139.061 16.9115 138.846 16.535 138.538C16.154 138.222 15.8264 137.834 15.5518 137.375C15.2777 136.915 15.0945 136.446 15.0021 135.969C14.9048 135.483 14.911 135.009 15.0203 134.548C15.1214 134.091 15.3269 133.657 15.6365 133.245C15.9378 132.839 16.3514 132.479 16.8778 132.165L17.1282 132.015C17.6879 131.681 18.2303 131.471 18.756 131.384C19.2735 131.301 19.7614 131.322 20.2201 131.444C20.6783 131.568 21.1023 131.784 21.4921 132.096C21.8686 132.403 22.1936 132.787 22.4678 133.247ZM21.2652 133.964C21.1206 133.722 20.9416 133.518 20.7286 133.35C20.5106 133.174 20.2637 133.056 19.9889 132.993C19.7086 132.922 19.4008 132.919 19.0652 132.984C18.7166 133.044 18.3499 133.19 17.9657 133.419L17.7152 133.568C17.3562 133.782 17.0793 134.022 16.8854 134.284C16.6859 134.54 16.5554 134.805 16.493 135.079C16.4175 135.351 16.4093 135.622 16.4686 135.893C16.5146 136.16 16.6101 136.414 16.7548 136.656C16.8944 136.89 17.0734 137.095 17.2914 137.271C17.5012 137.451 17.7461 137.577 18.0263 137.648C18.293 137.715 18.588 137.726 18.9119 137.68C19.2307 137.625 19.5698 137.491 19.9289 137.277L20.1793 137.127C20.5638 136.898 20.8679 136.648 21.092 136.379C21.3029 136.106 21.4462 135.833 21.5218 135.561C21.5924 135.282 21.6024 135.003 21.5514 134.728C21.5003 134.452 21.4049 134.198 21.2652 133.964Z" fill="white"/>
<path d="M13.4297 116.626C13.5032 116.878 13.5259 117.13 13.4978 117.381C13.4697 117.633 13.4009 117.866 13.291 118.08C13.1692 118.288 13.0099 118.471 12.8129 118.63C12.616 118.788 12.3913 118.905 12.1392 118.978C11.887 119.052 11.6355 119.074 11.3838 119.047C11.1324 119.019 10.9045 118.948 10.6992 118.836C10.4824 118.716 10.2945 118.558 10.1356 118.362C9.9771 118.164 9.86092 117.94 9.78735 117.688C9.71385 117.436 9.6912 117.184 9.71932 116.933C9.74737 116.681 9.82215 116.452 9.94395 116.244C10.0538 116.03 10.2072 115.843 10.4041 115.684C10.601 115.526 10.8254 115.41 11.0775 115.336C11.3296 115.263 11.5816 115.24 11.8329 115.268C12.0842 115.296 12.3185 115.37 12.5358 115.488C12.7407 115.601 12.9226 115.756 13.0811 115.953C13.24 116.15 13.3562 116.374 13.4297 116.626Z" fill="white"/>
<path d="M13.6524 98.5708C13.6288 99.1928 13.5092 99.7818 13.2933 100.338C13.0776 100.895 12.7574 101.379 12.3329 101.791C11.8986 102.203 11.3508 102.523 10.6901 102.751C10.0194 102.979 9.21754 103.075 8.28431 103.04L7.99266 103.029C7.09853 102.994 6.34016 102.839 5.71795 102.562C5.08586 102.285 4.57389 101.925 4.18199 101.481C3.79014 101.038 3.5123 100.532 3.34898 99.9607C3.17621 99.3892 3.10137 98.7928 3.12497 98.1708C3.14891 97.5482 3.26846 96.9591 3.48448 96.4024C3.69022 95.8463 4.00589 95.3612 4.43033 94.9491C4.85478 94.5371 5.3927 94.2168 6.04362 93.9888C6.68507 93.7601 7.45302 93.6624 8.34724 93.6966L8.63884 93.7077C9.57214 93.743 10.3642 93.8999 11.0157 94.1777C11.6577 94.4547 12.1791 94.8156 12.5808 95.2592C12.9732 95.7019 13.2555 96.2094 13.4283 96.7809C13.6015 97.3518 13.6764 97.9482 13.6524 98.5708ZM12.107 98.5116C12.1204 98.1525 12.0707 97.7999 11.9574 97.4547C11.8437 97.11 11.6513 96.8005 11.3793 96.5274C11.0975 96.2542 10.7264 96.0306 10.2657 95.8573C9.80561 95.6741 9.23981 95.5702 8.56931 95.5444L8.27771 95.5333C7.63606 95.5092 7.09345 95.5713 6.64949 95.7202C6.19666 95.8584 5.82919 96.0535 5.5468 96.306C5.25494 96.5578 5.03957 96.8509 4.89998 97.1869C4.76081 97.5222 4.68448 97.8693 4.67072 98.2293C4.65677 98.5984 4.70644 98.9556 4.81973 99.3009C4.93301 99.6462 5.12585 99.9551 5.39782 100.228C5.65992 100.501 6.01162 100.724 6.45292 100.896C6.88434 101.069 7.42089 101.167 8.06256 101.191L8.35421 101.202C9.02516 101.227 9.59651 101.172 10.0692 101.034C10.5414 100.896 10.9286 100.701 11.2303 100.449C11.5222 100.198 11.7375 99.9046 11.8767 99.5694C12.0163 99.2334 12.0927 98.8816 12.107 98.5116Z" fill="white"/>
<path d="M14.953 85.8768L7.55786 83.6141L8.02779 82.0788L11.0274 82.9973L11.2839 82.1597L9.07826 78.6463L9.60776 76.9161L12.1767 81.1363L17.045 79.0403L16.473 80.9097L12.5396 82.544L12.2831 83.3815L15.4225 84.3423L14.953 85.8768Z" fill="white"/>
<path d="M19.3732 73.9264C19.1382 74.4076 18.8443 74.8211 18.4908 75.1683C18.1327 75.5026 17.7307 75.7497 17.2837 75.9111C16.8373 76.0718 16.3529 76.1328 15.8305 76.0942C15.2992 76.0514 14.7408 75.8872 14.155 75.6014L13.8928 75.4734C13.3423 75.2042 12.8995 74.8803 12.5656 74.5003C12.2227 74.1161 11.9816 73.7007 11.8423 73.2543C11.6946 72.803 11.6464 72.3362 11.6986 71.8525C11.7547 71.3606 11.9004 70.8738 12.1349 70.3933C12.3699 69.9121 12.6616 69.503 13.0108 69.1646C13.3642 68.8175 13.7643 68.5635 14.2108 68.4027C14.6487 68.2376 15.1245 68.1722 15.6382 68.2064C16.1431 68.2364 16.6709 68.3858 17.2216 68.6548L17.4838 68.7827C18.0695 69.0687 18.5426 69.4079 18.9031 69.8003C19.2548 70.1885 19.5046 70.6082 19.6525 71.0592C19.8003 71.5103 19.8505 71.984 19.8029 72.4805C19.751 72.9638 19.6077 73.4459 19.3732 73.9264ZM18.1144 73.312C18.238 73.0586 18.3117 72.7969 18.3352 72.5269C18.3629 72.2483 18.3277 71.9768 18.2295 71.7123C18.1355 71.4392 17.9699 71.1796 17.7327 70.9339C17.491 70.6751 17.1691 70.4477 16.7669 70.2513L16.5047 70.1234C16.1287 69.9398 15.7776 69.8387 15.4511 69.8201C15.1289 69.7927 14.8356 69.8281 14.5711 69.9263C14.3023 70.0115 14.0709 70.1528 13.8769 70.3507C13.6787 70.5349 13.5174 70.7543 13.3937 71.0078C13.2743 71.2524 13.2007 71.5141 13.1728 71.7929C13.1362 72.0675 13.1648 72.3414 13.2587 72.6146C13.3486 72.8743 13.5007 73.1279 13.7166 73.3733C13.9363 73.6106 14.2341 73.8209 14.6101 74.0042L14.8723 74.1323C15.2743 74.3288 15.6495 74.4471 15.9979 74.4872C16.3419 74.5145 16.6483 74.4855 16.9173 74.4002C17.1905 74.3062 17.4283 74.1627 17.6311 73.9691C17.8336 73.7761 17.9945 73.5573 18.1144 73.312Z" fill="white"/>
<path d="M22.4661 67.3275L16.2419 62.7379L17.3158 61.2816L22.4198 61.9815L20.2428 57.3123L21.2646 55.9265L27.4889 60.5163L26.5363 61.808L22.2498 58.6472L24.032 62.4996L23.3393 63.4391L19.1322 62.8749L23.4187 66.0358L22.4661 67.3275Z" fill="white"/>
<path d="M29.6723 57.8148L24.3667 52.1883L29.2501 47.5834L34.5556 53.21L33.3878 54.3111L29.0233 49.6824L26.4754 52.085L30.8399 56.7135L29.6723 57.8148Z" fill="white"/>
<path d="M37.2457 51.0031C37.2134 51.0249 37.1772 51.0494 37.1368 51.0767C37.1046 51.0985 37.0657 51.119 37.0199 51.1382C36.9877 51.16 36.9487 51.1805 36.903 51.1997C36.8707 51.2216 36.8358 51.2393 36.7981 51.2531L35.9476 49.9963C35.9773 49.988 36.0403 49.9511 36.1371 49.8857C36.3063 49.7712 36.4186 49.6247 36.474 49.4463C36.5239 49.2598 36.5007 49.0172 36.4042 48.7184C36.3103 48.406 36.139 48.0227 35.8903 47.5685C35.6417 47.1143 35.2965 46.5608 34.8549 45.9083L33.5465 43.9748L38.3803 40.7036L42.7145 47.1084L41.3852 48.008L37.8197 42.7391L35.5961 44.2439L36.2995 45.2831C36.8773 46.1371 37.3128 46.8761 37.6058 47.4999C37.9069 48.1184 38.0846 48.65 38.1389 49.0948C38.1933 49.5396 38.1419 49.915 37.9849 50.2209C37.8223 50.5189 37.5759 50.7796 37.2457 51.0031Z" fill="white"/>
<path d="M48.7219 44.0081C48.2635 44.2219 47.7899 44.357 47.3009 44.4135C46.8167 44.4569 46.348 44.4073 45.895 44.2643C45.4465 44.1086 45.0249 43.8492 44.63 43.4859C44.2351 43.1228 43.8958 42.6371 43.612 42.0288L43.4886 41.7644C43.2171 41.1826 43.0687 40.6346 43.0435 40.1204C43.0183 39.6061 43.0897 39.138 43.2577 38.7161C43.4305 38.2812 43.6824 37.9008 44.0133 37.5746C44.3442 37.2485 44.7343 36.9805 45.1839 36.7707C46.2506 36.2731 47.1997 36.179 48.0312 36.4888C48.8715 36.7944 49.5406 37.4806 50.0383 38.5472L50.3838 39.2876L45.2533 41.6816C45.4308 42.0389 45.6321 42.3207 45.8572 42.527C46.0869 42.7204 46.3269 42.8552 46.5773 42.9316C46.8323 42.995 47.0909 43.0086 47.353 42.9722C47.6239 42.9317 47.8828 42.8538 48.1296 42.7387C48.6321 42.5042 48.9609 42.2541 49.1161 41.9885C49.28 41.7188 49.3465 41.4356 49.3153 41.1387L50.7698 40.46C50.8597 40.8368 50.8803 41.2029 50.8315 41.5584C50.7786 41.9052 50.661 42.2284 50.4788 42.528C50.2966 42.8278 50.0542 43.1019 49.7515 43.3505C49.4618 43.6037 49.1187 43.8229 48.7219 44.0081ZM45.8424 38.0093C45.5956 38.1245 45.3719 38.2664 45.1715 38.435C44.98 38.5996 44.8288 38.7935 44.7184 39.0167C44.6126 39.2271 44.5583 39.4672 44.5553 39.737C44.5483 39.9979 44.6123 40.2847 44.7474 40.5974L48.4234 38.8821C48.2582 38.5512 48.0778 38.3027 47.8822 38.1363C47.6911 37.9571 47.4855 37.8383 47.2651 37.7801C47.0447 37.722 46.8164 37.7158 46.5802 37.7617C46.3439 37.8074 46.098 37.89 45.8424 38.0093Z" fill="white"/>
<path d="M54.3114 41.309L52.1475 33.8844L53.6884 33.4353L54.5663 36.4472L55.4067 36.2022L57.1345 32.4309L58.8716 31.9246L56.7526 36.3874L61.1756 39.3083L59.2984 39.8555L55.7742 37.4629L54.9337 37.7079L55.8523 40.8598L54.3114 41.309Z" fill="white"/>
<path d="M66.6913 38.4437C66.1705 38.5122 65.6775 38.4938 65.2122 38.3882C64.7567 38.2813 64.344 38.0903 63.9742 37.8152C63.6128 37.5292 63.3081 37.1523 63.0601 36.6845C62.8121 36.2168 62.645 35.655 62.5587 34.9991L62.5206 34.7099C62.4381 34.0829 62.4629 33.5253 62.5949 33.037C62.7256 32.5391 62.9339 32.1094 63.2199 31.748C63.5156 31.3853 63.8703 31.0982 64.284 30.8868C64.7061 30.6645 65.1582 30.5216 65.6404 30.4581C66.1516 30.3908 66.609 30.3994 67.0124 30.4836C67.416 30.5678 67.7687 30.7128 68.0705 30.9184C68.3806 31.1131 68.6386 31.3587 68.8445 31.6554C69.0503 31.9521 69.2062 32.2799 69.3123 32.6387L67.6921 32.852C67.621 32.6847 67.532 32.5296 67.4249 32.3867C67.3274 32.2426 67.2041 32.1263 67.0552 32.038C66.9062 31.9496 66.7314 31.8893 66.5309 31.8568C66.3291 31.8147 66.0933 31.8114 65.8232 31.8469C65.5532 31.8825 65.3039 31.9643 65.0754 32.0925C64.8458 32.2111 64.652 32.3788 64.4942 32.5958C64.3363 32.8127 64.224 33.0777 64.1573 33.3906C64.0905 33.7036 64.0851 34.0723 64.1409 34.4966L64.1789 34.786C64.2386 35.2392 64.343 35.6228 64.4923 35.9368C64.6403 36.2411 64.8192 36.4825 65.0291 36.6609C65.239 36.8393 65.4709 36.9609 65.7246 37.0256C65.9772 37.0806 66.2385 37.0904 66.5085 37.0549C66.9618 36.9953 67.315 36.8457 67.568 36.6065C67.8211 36.3671 67.983 36.0318 68.0538 35.6006L69.674 35.3873C69.6503 35.8026 69.5634 36.1869 69.4136 36.5402C69.2723 36.8825 69.0722 37.1885 68.8133 37.4581C68.5532 37.718 68.2433 37.9354 67.8836 38.1102C67.5324 38.2742 67.1349 38.3854 66.6913 38.4437Z" fill="white"/>
<path d="M76.362 37.7515C75.8557 37.7397 75.3717 37.6506 74.9085 37.4842C74.4553 37.3083 74.0573 37.0558 73.7146 36.7268C73.3819 36.3882 73.1193 35.9686 72.9265 35.4679C72.7338 34.9671 72.6452 34.3812 72.6608 33.7104L72.6676 33.4185C72.6825 32.7767 72.7927 32.2197 72.9982 31.7478C73.2038 31.2757 73.4755 30.888 73.8134 30.5844C74.1612 30.2714 74.5558 30.0422 74.9969 29.8967C75.4382 29.7512 75.9067 29.6843 76.4025 29.6958C77.5792 29.7231 78.4717 30.06 79.0792 30.7066C79.6972 31.3533 79.992 32.2651 79.965 33.4419L79.9455 34.2588L74.2858 34.1274C74.2863 34.5264 74.3416 34.8682 74.4517 35.153C74.5718 35.4282 74.7271 35.6556 74.9176 35.8352C75.1179 36.0052 75.3436 36.1321 75.5947 36.2157C75.8557 36.2997 76.122 36.3447 76.3942 36.3511C76.9485 36.3639 77.3542 36.2858 77.6115 36.1166C77.8777 35.9476 78.063 35.7233 78.1665 35.4435L79.7715 35.4807C79.6845 35.8582 79.5405 36.1954 79.3395 36.4924C79.1377 36.7797 78.8895 37.0171 78.5932 37.2048C78.297 37.3926 77.958 37.5307 77.5762 37.6191C77.2042 37.7175 76.7992 37.7616 76.362 37.7515ZM76.443 31.0979C76.1707 31.0916 75.9075 31.1195 75.6531 31.1817C75.4084 31.2442 75.187 31.3509 74.9889 31.502C74.8008 31.6436 74.6455 31.8347 74.5231 32.075C74.401 32.3057 74.3311 32.5912 74.3136 32.9313L78.369 33.0254C78.3675 32.6556 78.3165 32.3528 78.2145 32.1169C78.123 31.8715 77.9917 31.6739 77.82 31.5239C77.6482 31.374 77.4465 31.2671 77.214 31.2034C76.9822 31.1396 76.725 31.1044 76.443 31.0979Z" fill="white"/>
<path d="M90.5843 39.3058L92.9063 30.9252L89.6018 30.0094L90.0076 28.5471L98.3033 30.8463L97.8983 32.3086L94.5938 31.3929L92.2711 39.7734L90.5843 39.3058Z" fill="white"/>
<path d="M100.944 43.0086C100.484 42.7972 100.076 42.5233 99.7163 42.1869C99.3698 41.8455 99.1043 41.456 98.9205 41.0181C98.7495 40.5753 98.6745 40.0859 98.6963 39.5498C98.718 39.0137 98.8695 38.4408 99.1493 37.8309L99.2715 37.5658C99.54 36.9825 99.8618 36.515 100.238 36.1632C100.614 35.8114 101.017 35.5632 101.447 35.4186C101.891 35.2692 102.344 35.2153 102.807 35.2568C103.27 35.2983 103.727 35.4227 104.177 35.63C105.246 36.1218 105.932 36.7849 106.233 37.6195C106.544 38.4582 106.453 39.4122 105.961 40.4816L105.62 41.2239L100.476 38.8584C100.318 39.2248 100.233 39.5606 100.222 39.8656C100.223 40.166 100.275 40.4363 100.379 40.6767C100.495 40.9122 100.652 41.1183 100.849 41.2947C101.055 41.475 101.282 41.6222 101.53 41.736C102.033 41.9676 102.437 42.0568 102.74 42.0034C103.052 41.9541 103.31 41.8215 103.517 41.6058L104.975 42.2766C104.746 42.5886 104.48 42.8412 104.177 43.0338C103.878 43.2177 103.556 43.3369 103.209 43.3918C102.863 43.4466 102.497 43.439 102.112 43.3688C101.731 43.3116 101.342 43.1916 100.944 43.0086ZM103.658 36.9331C103.411 36.8193 103.158 36.7405 102.899 36.6966C102.65 36.6569 102.404 36.6671 102.163 36.7272C101.934 36.7826 101.716 36.8964 101.508 37.0685C101.304 37.2318 101.127 37.4661 100.976 37.7714L104.661 39.4662C104.807 39.1264 104.88 38.828 104.88 38.5712C104.894 38.3096 104.851 38.076 104.753 37.8702C104.655 37.6645 104.512 37.4863 104.324 37.3358C104.136 37.1852 103.914 37.0509 103.658 36.9331Z" fill="white"/>
<path d="M106.988 45.8051L111.161 39.2939L112.414 40.0969L111.705 41.2026C111.881 41.0726 112.07 40.968 112.271 40.8888C112.471 40.8096 112.682 40.7598 112.903 40.7397C113.124 40.7195 113.35 40.737 113.58 40.7922C113.81 40.8474 114.036 40.9458 114.257 41.0876C114.462 41.2188 114.608 41.3241 114.696 41.4034C114.792 41.4881 114.855 41.5517 114.886 41.5943L114.098 42.8228C113.985 42.6926 113.877 42.5826 113.773 42.4928C113.674 42.3947 113.543 42.2932 113.378 42.1882C113.108 42.015 112.844 41.9146 112.584 41.8869C112.337 41.8563 112.103 41.8794 111.881 41.9563C111.664 42.025 111.456 42.1407 111.26 42.3035C111.077 42.4633 110.917 42.6497 110.78 42.8626L108.339 46.671L106.988 45.8051Z" fill="white"/>
<path d="M113.188 49.496L118.417 43.7985L119.513 44.8048L118.625 45.7722C118.822 45.6883 119.032 45.631 119.259 45.6009C119.491 45.5633 119.722 45.5568 119.95 45.5814C120.185 45.6128 120.412 45.6751 120.629 45.7694C120.847 45.8632 121.048 45.9956 121.235 46.1668C121.471 46.3836 121.653 46.6034 121.78 46.8252C121.92 47.0462 122.014 47.2657 122.065 47.484C122.116 47.7023 122.122 47.919 122.083 48.134C122.058 48.3484 121.995 48.5613 121.894 48.7721C122.354 48.6006 122.824 48.5495 123.302 48.6189C123.787 48.6945 124.227 48.9129 124.621 49.2746C125.216 49.8209 125.513 50.4171 125.513 51.0646C125.513 51.7116 125.175 52.4045 124.498 53.1424L121.142 56.7972L119.96 55.7121L123.068 52.326C123.535 51.8172 123.767 51.3699 123.764 50.9844C123.775 50.5985 123.619 50.2574 123.298 49.9614C123.104 49.7838 122.903 49.6653 122.693 49.6051C122.491 49.5379 122.281 49.523 122.062 49.5599C121.857 49.5964 121.65 49.6773 121.441 49.8031C121.248 49.9287 121.055 50.0952 120.865 50.3033L117.757 53.6894L116.574 52.6038L119.682 49.2177C120.149 48.7089 120.381 48.2617 120.379 47.8765C120.389 47.4903 120.234 47.1495 119.911 46.8536C119.718 46.6757 119.517 46.557 119.308 46.4973C119.105 46.4301 118.894 46.4151 118.675 46.452C118.471 46.4882 118.264 46.5692 118.056 46.6953C117.862 46.8208 117.67 46.9873 117.478 47.195L114.37 50.5811L113.188 49.496Z" fill="white"/>
<path d="M125.249 61.9946C124.934 61.5629 124.704 61.1101 124.562 60.6356C124.433 60.1633 124.401 59.6918 124.466 59.2217C124.532 58.7519 124.704 58.2946 124.982 57.8501C125.267 57.3999 125.672 56.9825 126.198 56.5973L126.434 56.4248C126.928 56.0627 127.421 55.8224 127.913 55.7036C128.412 55.5785 128.892 55.559 129.353 55.644C129.821 55.7233 130.256 55.8983 130.66 56.1696C131.069 56.4485 131.432 56.804 131.748 57.2356C132.064 57.6673 132.29 58.116 132.427 58.5826C132.569 59.0571 132.608 59.5292 132.542 59.9994C132.485 60.4639 132.32 60.9152 132.051 61.3539C131.789 61.7867 131.411 62.1845 130.917 62.5465L130.682 62.719C130.155 63.1037 129.635 63.3645 129.12 63.5009C128.612 63.6311 128.125 63.6568 127.657 63.5775C127.189 63.4982 126.746 63.3221 126.329 63.0485C125.926 62.7776 125.566 62.4263 125.249 61.9946ZM126.38 61.167C126.546 61.3944 126.743 61.5814 126.971 61.728C127.205 61.8824 127.462 61.9778 127.742 62.0139C128.027 62.0584 128.333 62.0324 128.662 61.937C129.003 61.8435 129.355 61.6647 129.716 61.4004L129.951 61.228C130.289 60.9808 130.542 60.7172 130.71 60.4369C130.884 60.1645 130.99 59.8883 131.027 59.609C131.076 59.3312 131.059 59.0603 130.974 58.7968C130.903 58.5353 130.784 58.2906 130.618 58.0632C130.457 57.8432 130.259 57.6563 130.025 57.5018C129.8 57.3416 129.544 57.2396 129.259 57.1955C128.987 57.1533 128.692 57.1706 128.374 57.2467C128.061 57.3305 127.736 57.4961 127.399 57.7433L127.163 57.9158C126.803 58.1804 126.524 58.4573 126.326 58.7468C126.141 59.0384 126.024 59.3233 125.975 59.6009C125.93 59.8865 125.946 60.1637 126.023 60.4331C126.1 60.7024 126.218 60.947 126.38 61.167Z" fill="white"/>
<path d="M130.578 70.0256C130.379 69.6577 130.247 69.3201 130.181 69.0132C130.115 68.7063 130.118 68.4166 130.193 68.1447C130.28 67.8761 130.442 67.623 130.677 67.3848C130.927 67.1505 131.257 66.9225 131.668 66.7005L138.485 63.0184L139.247 64.4307L132.533 68.0575C132.328 68.1685 132.159 68.276 132.028 68.3804C131.909 68.4885 131.828 68.6043 131.784 68.7276C131.741 68.8509 131.729 68.9838 131.751 69.1269C131.786 69.2737 131.852 69.4369 131.95 69.6168C132 69.7108 132.044 69.792 132.081 69.8607C132.127 69.9245 132.172 69.9883 132.218 70.0521L130.998 70.7108C130.971 70.6812 130.941 70.6366 130.909 70.5765C130.868 70.5216 130.829 70.4596 130.792 70.391C130.747 70.3272 130.705 70.261 130.668 70.1925C130.636 70.1327 130.606 70.0768 130.578 70.0256Z" fill="white"/>
<path d="M133.334 75.8643C133.186 75.4734 133.107 75.1029 133.098 74.7521C133.103 74.4072 133.165 74.0921 133.286 73.807C133.415 73.5182 133.595 73.2674 133.826 73.0546C134.057 72.8415 134.337 72.673 134.664 72.5481C135.019 72.4134 135.349 72.3505 135.654 72.3591C135.968 72.3644 136.252 72.4389 136.504 72.5823C136.765 72.722 136.997 72.9356 137.201 73.2227C137.412 73.5062 137.596 73.8525 137.752 74.2618L138.608 76.5117L139.004 76.3613C139.276 76.2573 139.491 76.1391 139.649 76.0065C139.811 75.8829 139.921 75.7365 139.982 75.5678C140.054 75.4044 140.078 75.2187 140.051 75.0107C140.027 74.8112 139.964 74.5799 139.865 74.3165C139.778 74.089 139.684 73.8959 139.582 73.737C139.479 73.5782 139.37 73.4536 139.252 73.3629C139.138 73.2816 139.018 73.2278 138.894 73.2024C138.773 73.186 138.646 73.1929 138.512 73.2231L137.957 71.7639C138.272 71.6644 138.584 71.6344 138.89 71.674C139.209 71.7192 139.511 71.8281 139.796 72.0011C140.083 72.1828 140.345 72.432 140.579 72.7484C140.823 73.0616 141.03 73.4409 141.2 73.8864C141.369 74.332 141.471 74.7507 141.506 75.1436C141.545 75.5454 141.503 75.9148 141.382 76.2525C141.269 76.5866 141.071 76.886 140.787 77.1504C140.505 77.4236 140.129 77.6507 139.656 77.8302L136.779 78.9255C136.397 79.0704 136.062 79.2033 135.774 79.3229C135.497 79.4394 135.227 79.5677 134.969 79.7079L134.45 78.3439C134.555 78.2934 134.645 78.2433 134.72 78.1941C134.799 78.1539 134.877 78.1137 134.956 78.0735C135.038 78.0423 135.117 78.0064 135.196 77.9662C135.287 77.9316 135.387 77.8939 135.496 77.852C135.301 77.8325 135.097 77.7751 134.884 77.6793C134.683 77.5893 134.483 77.4619 134.286 77.298C134.097 77.1303 133.921 76.9268 133.757 76.6872C133.592 76.4478 133.452 76.1738 133.334 75.8643ZM134.799 75.7752C134.897 76.03 135.02 76.2588 135.17 76.4621C135.332 76.6706 135.51 76.8372 135.704 76.9615C135.905 77.0822 136.121 77.1563 136.35 77.1839C136.592 77.2167 136.839 77.1846 137.095 77.088L137.489 76.9373L136.737 74.9601C136.592 74.5782 136.392 74.3 136.139 74.126C135.889 73.961 135.605 73.9391 135.287 74.0603C134.987 74.1745 134.786 74.3707 134.683 74.6488C134.584 74.9364 134.623 75.3118 134.799 75.7752Z" fill="white"/>
<path d="M136.085 82.7658L143.659 81.2016L143.96 82.6594L142.688 82.9218C142.897 82.9682 143.101 83.0451 143.302 83.1527C143.505 83.2696 143.695 83.4148 143.869 83.5873C144.046 83.7693 144.199 83.9859 144.331 84.2368C144.462 84.4878 144.561 84.7752 144.628 85.099C144.819 86.0231 144.715 86.7696 144.316 87.3387C143.917 87.908 143.231 88.2927 142.26 88.4936L137.472 89.4819L137.148 87.9102L141.577 86.9952C142.216 86.8636 142.669 86.6309 142.938 86.2971C143.207 85.9638 143.278 85.4919 143.153 84.8824C143.086 84.5582 142.971 84.289 142.807 84.0745C142.653 83.8579 142.47 83.6922 142.258 83.5771C142.057 83.4696 141.829 83.4026 141.575 83.3755C141.333 83.356 141.088 83.3719 140.84 83.4231L136.41 84.3376L136.085 82.7658Z" fill="white"/>
<path d="M138.077 96.0297C138.06 95.5341 138.127 95.0838 138.277 94.6794C138.428 94.275 138.659 93.921 138.97 93.6181C139.29 93.3243 139.696 93.0908 140.185 92.9176C140.676 92.7444 141.251 92.6459 141.913 92.6223L142.204 92.6119C142.826 92.5897 143.373 92.6478 143.845 92.7866C144.328 92.9254 144.734 93.1298 145.065 93.4001C145.396 93.6804 145.651 94.0167 145.831 94.4094C146.011 94.8021 146.109 95.2413 146.126 95.7277C146.147 96.311 146.033 96.8161 145.786 97.2438C145.539 97.6807 145.216 98.0282 144.816 98.2858L148.534 98.1527L148.592 99.7569L138.384 100.122L138.331 98.6343L139.629 98.588C139.432 98.5074 139.242 98.3877 139.062 98.2287C138.88 98.0694 138.718 97.8758 138.574 97.6475C138.429 97.4287 138.313 97.1799 138.226 96.9008C138.138 96.6312 138.088 96.3408 138.077 96.0297ZM139.49 96.3444C139.501 96.6265 139.553 96.8919 139.651 97.1419C139.747 97.401 139.891 97.6246 140.083 97.8126C140.275 98.0002 140.509 98.1476 140.785 98.2545C141.062 98.3617 141.384 98.4083 141.754 98.3952L142.789 98.3581C143.119 98.3464 143.41 98.2777 143.658 98.152C143.906 98.0262 144.11 97.8585 144.268 97.6484C144.436 97.4478 144.559 97.2192 144.637 96.9633C144.715 96.7074 144.75 96.4386 144.739 96.1566C144.729 95.8554 144.671 95.5802 144.565 95.331C144.459 95.0914 144.301 94.8876 144.09 94.72C143.89 94.552 143.636 94.4246 143.332 94.3381C143.027 94.2616 142.671 94.2305 142.263 94.2452L141.97 94.2553C141.543 94.2708 141.171 94.3326 140.853 94.4413C140.536 94.55 140.274 94.6959 140.065 94.8782C139.867 95.0604 139.72 95.2753 139.621 95.5221C139.524 95.7789 139.48 96.0528 139.49 96.3444Z" fill="white"/>
<path d="M138.383 116.336C138.454 116.083 138.569 115.857 138.725 115.659C138.882 115.46 139.064 115.3 139.271 115.176C139.484 115.064 139.716 114.993 139.967 114.962C140.219 114.932 140.47 114.952 140.723 115.023C140.975 115.094 141.202 115.208 141.4 115.365C141.598 115.522 141.755 115.703 141.869 115.907C141.99 116.123 142.066 116.356 142.096 116.607C142.127 116.858 142.107 117.11 142.036 117.363C141.965 117.616 141.851 117.842 141.694 118.04C141.537 118.238 141.351 118.393 141.139 118.505C140.932 118.629 140.702 118.706 140.452 118.736C140.201 118.767 139.949 118.747 139.696 118.676C139.443 118.604 139.217 118.49 139.019 118.334C138.821 118.177 138.661 117.99 138.54 117.775C138.425 117.571 138.353 117.343 138.322 117.092C138.292 116.84 138.312 116.588 138.383 116.336Z" fill="white"/>
</svg>
