<svg width="20" height="21" viewBox="0 0 20 21" fill="none" xmlns="http://www.w3.org/2000/svg">
<path d="M2.5 4.73323C2.5 11.8669 8.28299 17.6499 15.4167 17.6499C15.7385 17.6499 16.0576 17.6382 16.3736 17.615C16.7362 17.5885 16.9174 17.5752 17.0825 17.4802C17.2192 17.4015 17.3488 17.262 17.4173 17.12C17.5 16.9484 17.5 16.7484 17.5 16.3483V14.0005C17.5 13.664 17.5 13.4958 17.4446 13.3516C17.3957 13.2242 17.3163 13.1108 17.2133 13.0213C17.0966 12.9199 16.9385 12.8624 16.6223 12.7474L13.95 11.7757C13.5821 11.6419 13.3981 11.575 13.2236 11.5864C13.0697 11.5964 12.9216 11.6489 12.7958 11.7381C12.6531 11.8392 12.5524 12.0071 12.351 12.3427L11.6667 13.4833C9.45845 12.4832 7.66825 10.6907 6.66667 8.48323L7.80719 7.79892C8.14288 7.59751 8.31072 7.4968 8.41186 7.35411C8.50104 7.2283 8.55356 7.0802 8.56357 6.92631C8.57493 6.75179 8.50804 6.56784 8.37426 6.19993L7.40249 3.52757C7.2875 3.21137 7.23001 3.05326 7.12868 2.93664C7.03918 2.83364 6.92575 2.75419 6.79835 2.70527C6.65413 2.6499 6.4859 2.6499 6.14943 2.6499H3.80168C3.40157 2.6499 3.20151 2.6499 3.02998 2.73261C2.88792 2.80111 2.74845 2.93074 2.66975 3.06742C2.57474 3.23245 2.56146 3.41375 2.53491 3.77634C2.51177 4.09228 2.5 4.41138 2.5 4.73323Z" fill="#006E91"/>
</svg>
