<svg width="18" height="19" viewBox="0 0 18 19" fill="none" xmlns="http://www.w3.org/2000/svg">
<path fill-rule="evenodd" clip-rule="evenodd" d="M11.8417 15.1975C11.0759 15.8816 10.2629 16.6079 9.44995 17.425C8.63698 16.6079 7.82401 15.8816 7.05822 15.1975C4.64484 13.0415 2.69995 11.3041 2.69995 8.45967C2.69995 4.71263 5.72203 1.67505 9.44995 1.67505C13.1779 1.67505 16.2 4.71263 16.2 8.45967C16.2 11.3041 14.2551 13.0415 11.8417 15.1975ZM12.3428 8.27121C12.3428 9.83248 11.0477 11.0981 9.44997 11.0981C7.85229 11.0981 6.55711 9.83248 6.55711 8.27121C6.55711 6.70994 7.85229 5.44429 9.44997 5.44429C11.0477 5.44429 12.3428 6.70994 12.3428 8.27121Z" fill="#006E91"/>
</svg>
