<svg width="29" height="28" viewBox="0 0 29 28" fill="none" xmlns="http://www.w3.org/2000/svg">
<path fill-rule="evenodd" clip-rule="evenodd" d="M4.55861 13.4703C10.1566 11.0624 13.8894 9.47497 15.7572 8.708C21.09 6.5181 22.1981 6.13769 22.9204 6.12513C23.0792 6.12237 23.4344 6.16124 23.6645 6.34555C23.8588 6.50118 23.9122 6.71141 23.9378 6.85897C23.9634 7.00652 23.9952 7.34265 23.9699 7.60529C23.6809 10.6031 22.4305 17.8778 21.7943 21.2354C21.5251 22.656 20.9951 23.1324 20.482 23.179C19.3669 23.2804 18.5201 22.4515 17.44 21.7525C15.7499 20.6587 14.7951 19.9778 13.1546 18.9105C11.2587 17.677 12.4877 16.9991 13.5682 15.8912C13.8509 15.6012 18.7643 11.189 18.8594 10.7888C18.8713 10.7387 18.8823 10.5521 18.77 10.4536C18.6578 10.355 18.492 10.3888 18.3725 10.4155C18.2029 10.4535 15.503 12.2154 10.2726 15.7011C9.50628 16.2206 8.81211 16.4738 8.19016 16.4605C7.50452 16.4459 6.18563 16.0778 5.20518 15.7631C4.0026 15.3772 3.04682 15.1731 3.13005 14.5177C3.1734 14.1763 3.64958 13.8272 4.55861 13.4703Z" fill="white"/>
</svg>
