<svg width="29" height="28" viewBox="0 0 29 28" fill="none" xmlns="http://www.w3.org/2000/svg">
<path d="M5.92641 7H3.18867C2.40645 7 2.25 7.36638 2.25 7.77039C2.25 8.49186 3.17816 12.0704 6.57165 16.8033C8.83397 20.0354 12.0214 21.7875 14.9219 21.7875C16.6621 21.7875 16.8774 21.3984 16.8774 20.7281V18.2852C16.8774 17.5069 17.0422 17.3516 17.5933 17.3516C17.9994 17.3516 18.6955 17.5536 20.3198 19.1119C22.176 20.9589 22.4821 21.7875 23.5262 21.7875H26.264C27.0462 21.7875 27.4372 21.3984 27.2116 20.6304C26.9647 19.865 26.0785 18.7546 24.9025 17.4382C24.2644 16.6878 23.3072 15.8798 23.0171 15.4757C22.6111 14.9563 22.7271 14.7254 23.0171 14.2637L23.0659 14.195C23.4784 13.6116 26.3775 9.47512 26.7008 8.00131C26.8747 7.42412 26.7008 7 25.8728 7H23.1351C22.439 7 22.118 7.36638 21.944 7.77039C21.944 7.77039 20.5517 11.1469 18.5794 13.3402C17.9414 13.975 17.6513 14.1771 17.3033 14.1771C17.1293 14.1771 16.8774 13.975 16.8774 13.3979V8.00131C16.8774 7.30868 16.6753 7 16.0951 7H11.793C11.358 7 11.0964 7.32146 11.0964 7.62613C11.0964 8.28271 12.0824 8.43414 12.1841 10.2811V14.2925C12.1841 15.172 12.0245 15.3315 11.6764 15.3315C10.7483 15.3315 8.49066 11.9399 7.1517 8.05902C6.88929 7.3047 6.6261 7 5.92641 7Z" fill="white"/>
</svg>
