<svg width="29" height="28" viewBox="0 0 29 28" fill="none" xmlns="http://www.w3.org/2000/svg">
<path fill-rule="evenodd" clip-rule="evenodd" d="M5.48356 19.1101L3.99927 24.5L9.53532 23.0477C11.0647 23.8762 12.7847 24.3154 14.5347 24.3154H14.5398C20.3065 24.3154 25 19.6491 25 13.9098C25.0051 11.13 23.9169 8.51488 21.9412 6.54855C19.9705 4.58222 17.3429 3.49924 14.5448 3.49924C8.78313 3.49924 4.08953 8.1655 4.08953 13.9048C4.08452 15.7364 4.56591 17.5281 5.48356 19.1101ZM11.3454 9.10366C11.5309 9.10863 11.7365 9.11867 11.932 9.55282C12.0573 9.83204 12.2656 10.3396 12.44 10.765C12.5868 11.1226 12.7097 11.4222 12.7394 11.4792C12.8046 11.609 12.8447 11.7587 12.7594 11.9334C12.7494 11.954 12.7399 11.9737 12.7307 11.9927C12.6624 12.1346 12.6137 12.2355 12.4987 12.3676C12.4517 12.4216 12.4027 12.4808 12.3538 12.5399C12.2673 12.6444 12.1813 12.7484 12.1076 12.8217C11.9772 12.9515 11.8418 13.0912 11.9922 13.3507C12.1427 13.6103 12.6692 14.4636 13.4465 15.1524C14.282 15.8962 15.0086 16.2097 15.376 16.3682C15.4474 16.3989 15.5052 16.4239 15.5475 16.4449C15.8083 16.5747 15.9637 16.5548 16.1142 16.3801C16.2646 16.2054 16.7661 15.6215 16.9416 15.362C17.112 15.1024 17.2876 15.1474 17.5282 15.2322C17.769 15.3221 19.0527 15.9509 19.3135 16.0806C19.3648 16.1062 19.4129 16.1292 19.4574 16.1506C19.639 16.2377 19.7626 16.2969 19.8149 16.3851C19.8801 16.4949 19.8801 17.0139 19.6645 17.6227C19.4438 18.2317 18.3757 18.8155 17.8993 18.8604C17.8538 18.8648 17.8085 18.8702 17.7618 18.8759C17.3206 18.9292 16.7606 18.997 14.7653 18.2117C12.307 17.245 10.6842 14.8469 10.3558 14.3616C10.3298 14.3232 10.3119 14.2968 10.3024 14.284L10.2968 14.2766C10.1475 14.0768 9.23424 12.8549 9.23424 11.594C9.23424 10.3878 9.82854 9.75987 10.0995 9.47349C10.1167 9.45529 10.1326 9.43857 10.1469 9.42309C10.3876 9.16354 10.6684 9.09868 10.8439 9.09868C11.0194 9.09868 11.1949 9.09868 11.3454 9.10366Z" fill="white"/>
</svg>
