<svg width="141" height="60" viewBox="0 0 141 60" fill="none" xmlns="http://www.w3.org/2000/svg">
<path d="M0.5 0.142578H140.5V51.1426C140.5 51.1426 98.0146 59.1426 70.5 59.1426C42.9854 59.1426 0.5 51.1426 0.5 51.1426V0.142578Z" fill="#D8BA9B"/>
<path d="M56.75 34.8807V21.6807H64.57V23.0807H58.31V27.0807H61.21C62.5433 27.0807 63.61 27.4474 64.41 28.1807C65.21 28.9007 65.61 29.8274 65.61 30.9607C65.61 32.1207 65.21 33.0674 64.41 33.8007C63.61 34.5207 62.5433 34.8807 61.21 34.8807H56.75ZM58.31 33.4807H61.19C62.0567 33.4807 62.7367 33.254 63.23 32.8007C63.7367 32.334 63.99 31.7274 63.99 30.9807C63.99 30.234 63.7367 29.634 63.23 29.1807C62.7367 28.714 62.0567 28.4807 61.19 28.4807H58.31V33.4807ZM67.4925 30.0007C67.4658 28.614 67.9592 27.414 68.9725 26.4007C69.9992 25.3874 71.2058 24.894 72.5925 24.9207C73.9925 24.894 75.1992 25.3874 76.2125 26.4007C77.2258 27.414 77.7192 28.614 77.6925 30.0007C77.7192 31.374 77.2192 32.574 76.1925 33.6007C75.1658 34.614 73.9592 35.1074 72.5725 35.0807C71.1858 35.1074 69.9858 34.614 68.9725 33.6007C67.9592 32.574 67.4658 31.374 67.4925 30.0007ZM76.1125 30.0207C76.1125 28.9807 75.7725 28.1074 75.0925 27.4007C74.4258 26.694 73.5925 26.3407 72.5925 26.3407C71.5925 26.3407 70.7525 26.694 70.0725 27.4007C69.4058 28.094 69.0725 28.9674 69.0725 30.0207C69.0725 31.0474 69.4058 31.914 70.0725 32.6207C70.7525 33.314 71.5858 33.6607 72.5725 33.6607C73.5592 33.6607 74.3925 33.3074 75.0725 32.6007C75.7658 31.894 76.1125 31.034 76.1125 30.0207ZM80.3995 34.8807V25.1407H81.9395V29.0207H86.7195V25.1407H88.2595V34.8807H86.7195V30.3807H81.9395V34.8807H80.3995ZM98.55 25.1407H100.19L95.39 36.2407C94.67 37.8807 93.57 38.7007 92.09 38.7007C91.57 38.7007 91.07 38.634 90.59 38.5007V37.2007C91.15 37.2674 91.5433 37.3007 91.77 37.3007C92.3033 37.3007 92.7433 37.1807 93.09 36.9407C93.4367 36.714 93.73 36.314 93.97 35.7407L94.49 34.5807L90.45 25.1407H92.11L95.33 32.9007L98.55 25.1407ZM101.321 30.0007C101.294 28.614 101.787 27.414 102.801 26.4007C103.814 25.3874 105.021 24.894 106.421 24.9207C107.261 24.9207 108.027 25.1074 108.721 25.4807C109.414 25.854 109.987 26.374 110.441 27.0407L109.341 27.9207C108.567 26.8674 107.601 26.3407 106.441 26.3407C105.441 26.3407 104.601 26.7007 103.921 27.4207C103.241 28.1274 102.901 28.9874 102.901 30.0007C102.901 31.0274 103.241 31.9007 103.921 32.6207C104.601 33.3274 105.441 33.6807 106.441 33.6807C107.587 33.6807 108.547 33.1607 109.321 32.1207L110.421 32.9807C109.461 34.394 108.127 35.1007 106.421 35.1007C105.007 35.1007 103.801 34.6074 102.801 33.6207C101.814 32.6207 101.321 31.414 101.321 30.0007Z" fill="#523B24"/>
<path d="M31.75 34.1306C31.75 34.7936 32.0134 35.4295 32.4822 35.8983C32.9511 36.3672 33.587 36.6306 34.25 36.6306H37.8438C37.8852 36.6306 37.9249 36.6141 37.9542 36.5848C37.9835 36.5555 38 36.5157 38 36.4743V29.2868C38 29.2454 37.9835 29.2056 37.9542 29.1763C37.9249 29.147 37.8852 29.1306 37.8438 29.1306H32.0625C31.9796 29.1306 31.9001 29.1635 31.8415 29.2221C31.7829 29.2807 31.75 29.3602 31.75 29.4431V34.1306ZM38 27.7243V23.5056H39.25V27.7243C39.25 27.7657 39.2665 27.8055 39.2958 27.8348C39.3251 27.8641 39.3648 27.8806 39.4062 27.8806H44.875C45.0879 27.8805 45.2993 27.8442 45.5 27.7731C45.8652 27.6435 46.1814 27.404 46.4052 27.0875C46.629 26.7711 46.7494 26.3931 46.75 26.0056V25.3806C46.75 24.8833 46.5525 24.4064 46.2008 24.0547C45.8492 23.7031 45.3723 23.5056 44.875 23.5056H43.2914C43.2778 23.5053 43.2645 23.5016 43.2528 23.4946C43.2411 23.4877 43.2314 23.4778 43.2247 23.466C43.218 23.4541 43.2145 23.4407 43.2145 23.4271C43.2146 23.4135 43.2182 23.4002 43.225 23.3884C43.5867 22.7778 43.7041 22.053 43.5538 21.3595C43.4035 20.6659 42.9966 20.0548 42.4147 19.6487C41.8327 19.2425 41.1187 19.0714 40.4159 19.1696C39.7131 19.2678 39.0733 19.6281 38.625 20.1782C38.1767 19.6281 37.5369 19.2678 36.8341 19.1696C36.1313 19.0714 35.4173 19.2425 34.8353 19.6487C34.2534 20.0548 33.8465 20.6659 33.6962 21.3595C33.5459 22.053 33.6633 22.7778 34.025 23.3884C34.0318 23.4002 34.0354 23.4135 34.0355 23.4271C34.0355 23.4407 34.032 23.4541 34.0253 23.466C34.0186 23.4778 34.0089 23.4877 33.9972 23.4946C33.9855 23.5016 33.9722 23.5053 33.9586 23.5056H32.375C31.8777 23.5056 31.4008 23.7031 31.0492 24.0547C30.6975 24.4064 30.5 24.8833 30.5 25.3806V26.0056C30.5006 26.3931 30.621 26.7711 30.8448 27.0875C31.0686 27.404 31.3848 27.6435 31.75 27.7731C31.9507 27.8442 32.1621 27.8805 32.375 27.8806H37.8438C37.8852 27.8806 37.9249 27.8641 37.9542 27.8348C37.9835 27.8055 38 27.7657 38 27.7243ZM39.25 21.9431C39.25 21.634 39.3416 21.3319 39.5133 21.075C39.685 20.818 39.929 20.6178 40.2146 20.4995C40.5001 20.3812 40.8142 20.3503 41.1173 20.4106C41.4204 20.4709 41.6988 20.6197 41.9174 20.8382C42.1359 21.0567 42.2847 21.3351 42.345 21.6382C42.4053 21.9413 42.3743 22.2555 42.2561 22.541C42.1378 22.8265 41.9375 23.0705 41.6806 23.2422C41.4236 23.4139 41.1215 23.5056 40.8125 23.5056H39.25V21.9431ZM36.3258 20.3845C36.5398 20.3691 36.7548 20.398 36.9572 20.4694C37.1596 20.5408 37.3451 20.6531 37.5022 20.7993C37.6592 20.9456 37.7845 21.1226 37.8702 21.3194C37.9558 21.5161 38 21.7284 38 21.9431V23.5056H36.4375C36.0335 23.5045 35.6456 23.347 35.3552 23.0661C35.0648 22.7852 34.8945 22.4027 34.88 21.999C34.8656 21.5952 35.0081 21.2015 35.2776 20.9006C35.5472 20.5996 35.9229 20.4144 36.3258 20.3845ZM39.4062 36.6306H43C43.663 36.6306 44.2989 36.3672 44.7678 35.8983C45.2366 35.4295 45.5 34.7936 45.5 34.1306V29.4431C45.5 29.3602 45.4671 29.2807 45.4085 29.2221C45.3499 29.1635 45.2704 29.1306 45.1875 29.1306H39.4062C39.3648 29.1306 39.3251 29.147 39.2958 29.1763C39.2665 29.2056 39.25 29.2454 39.25 29.2868V36.4743C39.25 36.5157 39.2665 36.5555 39.2958 36.5848C39.3251 36.6141 39.3648 36.6306 39.4062 36.6306Z" fill="#523B24"/>
</svg>
