<svg width="41" height="41" viewBox="0 0 41 41" fill="none" xmlns="http://www.w3.org/2000/svg">
<rect x="0.5" y="0.142578" width="40" height="40" rx="20" fill="#1F1F1F"/>
<path d="M17.2761 24.6226C17.2761 23.6226 17.4361 22.7692 17.7561 22.0626C18.0761 21.3426 18.6494 20.5492 19.4761 19.6826C20.2894 18.8159 20.8494 18.0759 21.1561 17.4626C21.4761 16.8492 21.6361 16.2092 21.6361 15.5426C21.6361 14.9426 21.5361 14.5292 21.3361 14.3026C21.1494 14.0626 20.8694 13.9426 20.4961 13.9426C19.7361 13.9426 19.3561 14.4026 19.3561 15.3226V16.8226H17.2761V15.4626C17.2761 14.3292 17.5561 13.4626 18.1161 12.8626C18.6761 12.2492 19.4894 11.9426 20.5561 11.9426C21.6228 11.9426 22.4361 12.2492 22.9961 12.8626C23.5561 13.4626 23.8361 14.3292 23.8361 15.4626C23.8361 16.3159 23.6294 17.1492 23.2161 17.9626C22.8161 18.7759 22.1161 19.7092 21.1161 20.7626C20.4628 21.4559 20.0228 22.0226 19.7961 22.4626C19.5694 22.8892 19.4561 23.3492 19.4561 23.8426V24.1426H23.6361V26.1426H17.2761V24.6226Z" fill="url(#paint0_linear_1_520)"/>
<defs>
<linearGradient id="paint0_linear_1_520" x1="20.5" y1="32.1426" x2="20.5" y2="8.14258" gradientUnits="userSpaceOnUse">
<stop stop-color="#D8BA9B"/>
<stop offset="1" stop-color="#C39C72"/>
</linearGradient>
</defs>
</svg>
