<svg width="41" height="41" viewBox="0 0 41 41" fill="none" xmlns="http://www.w3.org/2000/svg">
<rect x="0.5" y="0.142578" width="40" height="40" rx="20" fill="#1F1F1F"/>
<path d="M20.4361 26.3426C19.3561 26.3426 18.5361 26.0426 17.9761 25.4426C17.4294 24.8426 17.1561 23.9826 17.1561 22.8626V21.7226H19.2361V22.9626C19.2361 23.8826 19.6161 24.3426 20.3761 24.3426C20.7494 24.3426 21.0294 24.2292 21.2161 24.0026C21.4161 23.7626 21.5161 23.3492 21.5161 22.7626V21.6226C21.5161 20.9826 21.4028 20.5292 21.1761 20.2626C20.9494 19.9826 20.5828 19.8426 20.0761 19.8426H19.3361V17.8426H20.1361C20.5761 17.8426 20.9028 17.7292 21.1161 17.5026C21.3428 17.2759 21.4561 16.8959 21.4561 16.3626V15.3426C21.4561 14.8626 21.3561 14.5092 21.1561 14.2826C20.9561 14.0559 20.6894 13.9426 20.3561 13.9426C19.6494 13.9426 19.2961 14.3759 19.2961 15.2426V16.1626H17.2161V15.4226C17.2161 14.3026 17.4894 13.4426 18.0361 12.8426C18.5961 12.2426 19.3961 11.9426 20.4361 11.9426C21.4894 11.9426 22.2894 12.2426 22.8361 12.8426C23.3828 13.4292 23.6561 14.2826 23.6561 15.4026V15.9026C23.6561 16.6626 23.5294 17.2759 23.2761 17.7426C23.0228 18.1959 22.6294 18.5226 22.0961 18.7226V18.7626C22.6694 18.9759 23.0828 19.3226 23.3361 19.8026C23.5894 20.2826 23.7161 20.8959 23.7161 21.6426V22.8826C23.7161 24.0026 23.4361 24.8626 22.8761 25.4626C22.3294 26.0492 21.5161 26.3426 20.4361 26.3426Z" fill="url(#paint0_linear_1_524)"/>
<defs>
<linearGradient id="paint0_linear_1_524" x1="20.5" y1="32.1426" x2="20.5" y2="8.14258" gradientUnits="userSpaceOnUse">
<stop stop-color="#D8BA9B"/>
<stop offset="1" stop-color="#C39C72"/>
</linearGradient>
</defs>
</svg>
