<svg width="179" height="15" viewBox="0 0 179 15" fill="none" xmlns="http://www.w3.org/2000/svg">
<path d="M8.17228 10.6326H6.80794L4.13438 6.55331L1.48838 10.6326H0.124031L3.39019 5.57484L0.372094 0.985687H1.73644L4.14816 4.66528L6.53231 0.985687H7.89666L4.89234 5.61619L8.17228 10.6326Z" fill="#1F1F1F"/>
<path d="M17.1761 9.37847C16.2206 10.3248 15.0124 10.7979 13.5516 10.7979C12.1 10.7979 10.8964 10.3248 9.94091 9.37847C8.98541 8.43216 8.50766 7.24697 8.50766 5.82291C8.50766 4.38966 8.98541 3.19987 9.94091 2.25356C10.8964 1.29806 12.1 0.820312 13.5516 0.820312C15.0124 0.820312 16.2206 1.29347 17.1761 2.23978C18.1316 3.18609 18.6093 4.37587 18.6093 5.80912C18.6093 7.24238 18.1316 8.43216 17.1761 9.37847ZM10.8229 8.52403C11.5487 9.24984 12.4583 9.61275 13.5516 9.61275C14.6541 9.61275 15.5637 9.25444 16.2803 8.53781C17.0061 7.812 17.369 6.90244 17.369 5.80912C17.369 4.71581 17.0061 3.81084 16.2803 3.09422C15.5637 2.36841 14.6541 2.0055 13.5516 2.0055C12.4583 2.0055 11.5487 2.36841 10.8229 3.09422C10.1063 3.82003 9.74797 4.725 9.74797 5.80912C9.74797 6.89325 10.1063 7.79822 10.8229 8.52403Z" fill="#1F1F1F"/>
<path d="M25.5427 0.985687H26.7554V10.6326H25.5427V6.80137C24.7709 7.10456 24.0313 7.25616 23.3239 7.25616C22.3041 7.25616 21.4818 6.95297 20.8571 6.34659C20.2415 5.73103 19.9337 4.88578 19.9337 3.81084V0.985687H21.1465V3.72816C21.1465 4.48153 21.344 5.06034 21.7391 5.46459C22.1341 5.86884 22.6992 6.07097 23.4342 6.07097C24.0405 6.07097 24.7434 5.901 25.5427 5.56106V0.985687Z" fill="#1F1F1F"/>
<path d="M34.9921 0.985687H36.2875L33.3108 7.65581C32.7963 8.83181 32.291 9.62653 31.7949 10.04C31.2987 10.4534 30.6143 10.6601 29.7414 10.6601H29.2867V9.53006H29.8379C30.3616 9.53006 30.7613 9.42441 31.0369 9.21309C31.3125 8.99259 31.6111 8.55159 31.9327 7.89009L28.2531 0.985687H29.645L32.5666 6.48441L34.9921 0.985687Z" fill="#1F1F1F"/>
<path d="M46.5258 0.985687H47.8213L44.8445 7.65581C44.33 8.83181 43.8247 9.62653 43.3286 10.04C42.8324 10.4534 42.148 10.6601 41.2752 10.6601H40.8204V9.53006H41.3716C41.8953 9.53006 42.295 9.42441 42.5706 9.21309C42.8462 8.99259 43.1448 8.55159 43.4664 7.89009L39.7868 0.985687H41.1787L44.1003 6.48441L46.5258 0.985687Z" fill="#1F1F1F"/>
<path d="M54.1953 0.985687H55.4081V10.6326H54.1953V6.80137C53.4236 7.10456 52.684 7.25616 51.9765 7.25616C50.9567 7.25616 50.1344 6.95297 49.5097 6.34659C48.8941 5.73103 48.5863 4.88578 48.5863 3.81084V0.985687H49.7991V3.72816C49.7991 4.48153 49.9966 5.06034 50.3917 5.46459C50.7867 5.86884 51.3518 6.07097 52.0868 6.07097C52.6931 6.07097 53.396 5.901 54.1953 5.56106V0.985687Z" fill="#1F1F1F"/>
<path d="M64.7886 10.6326L63.8239 8.31731H59.1934L58.2425 10.6326H56.9608L60.9023 0.985687H62.0323L66.0978 10.6326H64.7886ZM61.4948 2.65322L59.6482 7.21481H63.3691L61.4948 2.65322Z" fill="#1F1F1F"/>
<path d="M71.6082 10.7842C70.175 10.7842 68.9898 10.3156 68.0527 9.37847C67.1247 8.44134 66.6608 7.25156 66.6608 5.80912C66.6608 4.36669 67.1247 3.17691 68.0527 2.23978C68.9898 1.30266 70.175 0.834094 71.6082 0.834094C72.3432 0.834094 73.0231 0.9765 73.6479 1.26131C74.2818 1.53694 74.8147 1.932 75.2465 2.4465C75.6875 2.961 75.9953 3.56278 76.1698 4.25184H74.9433C74.686 3.55359 74.2634 3.00694 73.6754 2.61187C73.0874 2.21681 72.3984 2.01928 71.6082 2.01928C70.5241 2.01928 69.6329 2.37759 68.9347 3.09422C68.2456 3.80166 67.9011 4.71122 67.9011 5.82291C67.9011 6.92541 68.2456 7.83038 68.9347 8.53781C69.6329 9.24525 70.5241 9.59897 71.6082 9.59897C72.4167 9.59897 73.1196 9.39225 73.7168 8.97881C74.314 8.55619 74.7366 7.97278 74.9846 7.22859H76.225C75.9493 8.32191 75.3935 9.19012 74.5574 9.83325C73.7306 10.4672 72.7475 10.7842 71.6082 10.7842Z" fill="#1F1F1F"/>
<path d="M83.9235 0.985687V2.11575H80.9881V10.6326H79.7754V2.11575H76.8399V0.985687H83.9235Z" fill="#1F1F1F"/>
<path d="M90.8646 5.62997C91.3148 5.82291 91.6685 6.13069 91.9258 6.55331C92.183 6.97594 92.3117 7.44909 92.3117 7.97278C92.3117 8.72616 92.0314 9.36009 91.471 9.87459C90.9106 10.3799 90.2169 10.6326 89.39 10.6326H85.5313V0.985687H89.3349C90.125 0.985687 90.7727 1.21997 91.2781 1.68853C91.7926 2.15709 92.0498 2.74509 92.0498 3.45253C92.0498 3.88434 91.9396 4.30237 91.7191 4.70662C91.5078 5.11087 91.2229 5.41866 90.8646 5.62997ZM90.8233 3.61791C90.8233 3.34228 90.7544 3.09422 90.6166 2.87372C90.4879 2.65322 90.3088 2.48325 90.0791 2.36381C89.8494 2.23519 89.5922 2.17087 89.3073 2.17087H86.7165V5.06494H89.3211C89.7438 5.06494 90.0975 4.92713 90.3823 4.6515C90.6763 4.36669 90.8233 4.02216 90.8233 3.61791ZM89.3763 9.43359C89.854 9.43359 90.2537 9.282 90.5752 8.97881C90.8968 8.67562 91.0576 8.29434 91.0576 7.83497C91.0576 7.38478 90.8968 7.00809 90.5752 6.70491C90.2537 6.40172 89.854 6.25012 89.3763 6.25012H86.7165V9.43359H89.3763Z" fill="#1F1F1F"/>
<path d="M102.421 9.37847C101.465 10.3248 100.257 10.7979 98.7962 10.7979C97.3445 10.7979 96.141 10.3248 95.1855 9.37847C94.23 8.43216 93.7522 7.24697 93.7522 5.82291C93.7522 4.38966 94.23 3.19987 95.1855 2.25356C96.141 1.29806 97.3445 0.820312 98.7962 0.820312C100.257 0.820312 101.465 1.29347 102.421 2.23978C103.376 3.18609 103.854 4.37587 103.854 5.80912C103.854 7.24238 103.376 8.43216 102.421 9.37847ZM96.0675 8.52403C96.7933 9.24984 97.7029 9.61275 98.7962 9.61275C99.8987 9.61275 100.808 9.25444 101.525 8.53781C102.251 7.812 102.614 6.90244 102.614 5.80912C102.614 4.71581 102.251 3.81084 101.525 3.09422C100.808 2.36841 99.8987 2.0055 98.7962 2.0055C97.7029 2.0055 96.7933 2.36841 96.0675 3.09422C95.3509 3.82003 94.9925 4.725 94.9925 5.80912C94.9925 6.89325 95.3509 7.79822 96.0675 8.52403Z" fill="#1F1F1F"/>
<path d="M111.173 5.62997C111.623 5.82291 111.977 6.13069 112.234 6.55331C112.492 6.97594 112.62 7.44909 112.62 7.97278C112.62 8.72616 112.34 9.36009 111.78 9.87459C111.219 10.3799 110.525 10.6326 109.699 10.6326H105.84V0.985687H109.643C110.434 0.985687 111.081 1.21997 111.587 1.68853C112.101 2.15709 112.358 2.74509 112.358 3.45253C112.358 3.88434 112.248 4.30237 112.028 4.70662C111.816 5.11087 111.531 5.41866 111.173 5.62997ZM111.132 3.61791C111.132 3.34228 111.063 3.09422 110.925 2.87372C110.796 2.65322 110.617 2.48325 110.388 2.36381C110.158 2.23519 109.901 2.17087 109.616 2.17087H107.025V5.06494H109.63C110.052 5.06494 110.406 4.92713 110.691 4.6515C110.985 4.36669 111.132 4.02216 111.132 3.61791ZM109.685 9.43359C110.163 9.43359 110.562 9.282 110.884 8.97881C111.205 8.67562 111.366 8.29434 111.366 7.83497C111.366 7.38478 111.205 7.00809 110.884 6.70491C110.562 6.40172 110.163 6.25012 109.685 6.25012H107.025V9.43359H109.685Z" fill="#1F1F1F"/>
<path d="M121.313 10.6326L120.349 8.31731H115.718L114.767 10.6326H113.485L117.427 0.985687H118.557L122.622 10.6326H121.313ZM118.02 2.65322L116.173 7.21481H119.894L118.02 2.65322Z" fill="#1F1F1F"/>
<path d="M129.332 0.985687V2.11575H126.396V10.6326H125.183V2.11575H122.248V0.985687H129.332Z" fill="#1F1F1F"/>
<path d="M134.467 4.41722C135.083 4.41722 135.639 4.55044 136.135 4.81687C136.631 5.08331 137.017 5.45541 137.293 5.93316C137.568 6.40172 137.706 6.93459 137.706 7.53178C137.706 8.42297 137.398 9.16256 136.783 9.75056C136.176 10.3386 135.405 10.6326 134.467 10.6326H130.939V0.985687H132.138V4.41722H134.467ZM134.371 9.5025C134.987 9.5025 135.487 9.31416 135.873 8.93747C136.268 8.56078 136.466 8.08763 136.466 7.518C136.466 6.93919 136.268 6.46603 135.873 6.09853C135.487 5.72184 134.987 5.5335 134.371 5.5335H132.138V9.5025H134.371Z" fill="#1F1F1F"/>
<path d="M0 13.3888H138.147V14.0779H0V13.3888Z" fill="#1F1F1F"/>
<path d="M146 6.06871H177.737V7.39178H146V6.06871Z" fill="#523B24"/>
<path d="M174.596 9.69701L178.06 6.06874L179 6.73044L175.489 10.6326L174.596 9.69701Z" fill="#523B24"/>
<path d="M175.349 2.63256L179 6.73044L178.06 7.34297L174.456 3.56811L175.349 2.63256Z" fill="#523B24"/>
</svg>
