<svg width="181" height="60" viewBox="0 0 181 60" fill="none" xmlns="http://www.w3.org/2000/svg">
<path d="M0.5 0.142578H180.5V51.1426C180.5 51.1426 125.909 59.1426 90.5 59.1426C55.0913 59.1426 0.5 51.1426 0.5 51.1426V0.142578Z" fill="#D8BA9B"/>
<path d="M54.5017 28.5426C54.4617 26.6626 55.1217 25.0493 56.4817 23.7026C57.8417 22.3559 59.4617 21.6959 61.3417 21.7226C63.2084 21.6959 64.8284 22.3559 66.2017 23.7026C67.575 25.0493 68.2417 26.6626 68.2017 28.5426C68.2417 30.4226 67.575 32.0359 66.2017 33.3826C64.8284 34.7293 63.2084 35.3893 61.3417 35.3626C59.475 35.4026 57.855 34.7426 56.4817 33.3826C55.1217 32.0226 54.4617 30.4093 54.5017 28.5426ZM66.5817 28.5226C66.6084 27.0293 66.1084 25.7559 65.0817 24.7026C64.055 23.6493 62.815 23.1359 61.3617 23.1626C59.8684 23.1626 58.6217 23.6759 57.6217 24.7026C56.6217 25.7159 56.1217 26.9893 56.1217 28.5226C56.1217 30.0559 56.6217 31.3426 57.6217 32.3826C58.6217 33.4093 59.8684 33.9226 61.3617 33.9226C62.815 33.9493 64.055 33.4359 65.0817 32.3826C66.1084 31.3159 66.6084 30.0293 66.5817 28.5226ZM75.7722 30.2626C75.7455 28.8759 76.2388 27.6759 77.2522 26.6626C78.2655 25.6493 79.4722 25.1559 80.8722 25.1826C81.7122 25.1826 82.4788 25.3693 83.1722 25.7426C83.8655 26.1159 84.4388 26.6359 84.8922 27.3026L83.7922 28.1826C83.0188 27.1293 82.0522 26.6026 80.8922 26.6026C79.8922 26.6026 79.0522 26.9626 78.3722 27.6826C77.6922 28.3893 77.3522 29.2493 77.3522 30.2626C77.3522 31.2893 77.6922 32.1626 78.3722 32.8826C79.0522 33.5893 79.8922 33.9426 80.8922 33.9426C82.0388 33.9426 82.9988 33.4226 83.7722 32.3826L84.8722 33.2426C83.9122 34.6559 82.5788 35.3626 80.8722 35.3626C79.4588 35.3626 78.2522 34.8693 77.2522 33.8826C76.2655 32.8826 75.7722 31.6759 75.7722 30.2626ZM87.4878 35.1426V25.4026H95.2678V35.1426H93.7078V26.7826H89.0278V35.1426H87.4878ZM106.12 25.1826H106.68V35.1426H105.14V28.2626L99.1997 35.3626H98.6397V25.4026H100.18V32.3026L106.12 25.1826ZM110.066 35.1426V25.4026H111.606V35.1426H110.066ZM113.686 29.8226L118.266 35.1426H116.326L111.806 29.8626L115.906 25.4026H117.826L113.686 29.8226ZM128.666 30.7426H120.966C121.06 31.7026 121.44 32.4759 122.106 33.0626C122.773 33.6493 123.586 33.9426 124.546 33.9426C125.653 33.9426 126.646 33.5026 127.526 32.6226L128.426 33.6626C127.333 34.7959 126.033 35.3626 124.526 35.3626C123.073 35.3626 121.846 34.8759 120.846 33.9026C119.86 32.9159 119.366 31.7093 119.366 30.2826C119.366 28.8693 119.846 27.6693 120.806 26.6826C121.78 25.6826 122.96 25.1826 124.346 25.1826C125.613 25.1826 126.666 25.5959 127.506 26.4226C128.36 27.2493 128.786 28.3026 128.786 29.5826C128.786 29.9559 128.746 30.3426 128.666 30.7426ZM121.026 29.3826H127.206C127.193 28.5293 126.913 27.8493 126.366 27.3426C125.82 26.8359 125.133 26.5826 124.306 26.5826C123.493 26.5826 122.786 26.8426 122.186 27.3626C121.586 27.8693 121.2 28.5426 121.026 29.3826ZM140.052 26.6426C140.972 27.6159 141.432 28.8226 141.432 30.2626C141.432 31.7026 140.965 32.9159 140.032 33.9026C139.112 34.8759 137.972 35.3626 136.612 35.3626C135.079 35.3626 133.885 34.8226 133.032 33.7426V38.7426H131.492V25.4026H132.932V26.9626C133.305 26.4026 133.819 25.9693 134.472 25.6626C135.125 25.3426 135.839 25.1826 136.612 25.1826C137.999 25.1826 139.145 25.6693 140.052 26.6426ZM138.852 32.9026C139.519 32.2093 139.852 31.3359 139.852 30.2826C139.852 29.2293 139.519 28.3559 138.852 27.6626C138.199 26.9559 137.379 26.6026 136.392 26.6026C135.459 26.6026 134.659 26.9226 133.992 27.5626C133.339 28.2026 133.012 29.1026 133.012 30.2626C133.012 31.4493 133.332 32.3626 133.972 33.0026C134.625 33.6293 135.432 33.9426 136.392 33.9426C137.379 33.9426 138.199 33.5959 138.852 32.9026ZM152.729 30.7426H145.029C145.122 31.7026 145.502 32.4759 146.169 33.0626C146.835 33.6493 147.649 33.9426 148.609 33.9426C149.715 33.9426 150.709 33.5026 151.589 32.6226L152.489 33.6626C151.395 34.7959 150.095 35.3626 148.589 35.3626C147.135 35.3626 145.909 34.8759 144.909 33.9026C143.922 32.9159 143.429 31.7093 143.429 30.2826C143.429 28.8693 143.909 27.6693 144.869 26.6826C145.842 25.6826 147.022 25.1826 148.409 25.1826C149.675 25.1826 150.729 25.5959 151.569 26.4226C152.422 27.2493 152.849 28.3026 152.849 29.5826C152.849 29.9559 152.809 30.3426 152.729 30.7426ZM145.089 29.3826H151.269C151.255 28.5293 150.975 27.8493 150.429 27.3426C149.882 26.8359 149.195 26.5826 148.369 26.5826C147.555 26.5826 146.849 26.8426 146.249 27.3626C145.649 27.8693 145.262 28.5426 145.089 29.3826Z" fill="#523B24"/>
<path d="M36.5003 28.1426C35.4723 28.1426 34.4784 27.7253 33.7004 26.968C32.944 26.2294 32.482 25.2444 32.4005 24.1953C32.3135 23.0762 32.689 22.0471 33.4575 21.2971C34.2259 20.5471 35.3004 20.1426 36.5003 20.1426C37.6917 20.1426 38.7691 20.5544 39.5351 21.3026C40.3086 22.0581 40.685 23.0853 40.598 24.1949C40.5145 25.2453 40.0531 26.2299 39.2981 26.9676C38.5222 27.7253 37.5287 28.1426 36.5003 28.1426ZM43.0914 36.1426H29.9097C29.6977 36.1436 29.4884 36.1004 29.2977 36.0163C29.107 35.9323 28.9401 35.8095 28.8097 35.6576C28.6715 35.4929 28.576 35.3019 28.5305 35.0988C28.4849 34.8958 28.4905 34.6861 28.5467 34.4853C28.9677 32.9485 30.0107 31.674 31.5626 30.7999C32.94 30.0244 34.6934 29.5971 36.5003 29.5971C38.3427 29.5971 40.0501 30.0062 41.4355 30.7812C42.9909 31.6508 44.0353 32.9326 44.4543 34.488C44.5099 34.689 44.5148 34.8987 44.4688 35.1016C44.4227 35.3045 44.3268 35.4953 44.1883 35.6599C44.0581 35.8111 43.8916 35.9332 43.7015 36.0169C43.5113 36.1006 43.3026 36.1436 43.0914 36.1426Z" fill="#523B24"/>
</svg>
