<svg width="41" height="41" viewBox="0 0 41 41" fill="none" xmlns="http://www.w3.org/2000/svg">
<g clip-path="url(#clip0_1_501)">
<path d="M40.5 20.1426C40.5 9.09688 31.5457 0.142578 20.5 0.142578C9.4543 0.142578 0.5 9.09688 0.5 20.1426C0.5 31.1883 9.4543 40.1426 20.5 40.1426C31.5457 40.1426 40.5 31.1883 40.5 20.1426Z" fill="#1F1F1F"/>
<mask id="mask0_1_501" style="mask-type:alpha" maskUnits="userSpaceOnUse" x="8" y="8" width="25" height="25">
<path d="M32.5 8.14258H8.5V32.1426H32.5V8.14258Z" fill="#D9D9D9"/>
</mask>
<g mask="url(#mask0_1_501)">
<path d="M14.625 20.2925C15.0583 19.1925 15.5792 18.1342 16.1875 17.1175C16.7958 16.1008 17.4833 15.1425 18.25 14.2425L16.95 13.9675C16.6167 13.9008 16.2917 13.9175 15.975 14.0175C15.6583 14.1175 15.3833 14.2842 15.15 14.5175L12 17.6675C11.75 17.9175 11.6542 18.2175 11.7125 18.5675C11.7708 18.9175 11.9667 19.1592 12.3 19.2925L14.625 20.2925ZM29.325 10.5425C27.5583 10.4592 25.8792 10.8008 24.2875 11.5675C22.6958 12.3342 21.275 13.3425 20.025 14.5925C19.225 15.3925 18.5208 16.2592 17.9125 17.1925C17.3042 18.1258 16.775 19.1092 16.325 20.1425C16.2417 20.3592 16.2 20.58 16.2 20.805C16.2 21.03 16.2833 21.2258 16.45 21.3925L19.575 24.5175C19.7417 24.6842 19.9375 24.7675 20.1625 24.7675C20.3875 24.7675 20.6083 24.7258 20.825 24.6425C21.8583 24.1925 22.8417 23.6633 23.775 23.055C24.7083 22.4467 25.575 21.7425 26.375 20.9425C27.625 19.6925 28.6333 18.2717 29.4 16.68C30.1667 15.0883 30.5083 13.4092 30.425 11.6425C30.425 11.5092 30.3917 11.3758 30.325 11.2425C30.2583 11.1092 30.175 10.9925 30.075 10.8925C29.975 10.7925 29.8583 10.7092 29.725 10.6425C29.5917 10.5758 29.4583 10.5425 29.325 10.5425ZM22.975 17.9925C22.5917 17.6092 22.4 17.1383 22.4 16.58C22.4 16.0217 22.5917 15.5508 22.975 15.1675C23.3583 14.7842 23.8292 14.5925 24.3875 14.5925C24.9458 14.5925 25.4167 14.7842 25.8 15.1675C26.1833 15.5508 26.375 16.0217 26.375 16.58C26.375 17.1383 26.1833 17.6092 25.8 17.9925C25.4167 18.3758 24.9458 18.5675 24.3875 18.5675C23.8292 18.5675 23.3583 18.3758 22.975 17.9925ZM20.675 26.3425L21.675 28.6675C21.8083 29.0008 22.05 29.2008 22.4 29.2675C22.75 29.3342 23.05 29.2425 23.3 28.9925L26.45 25.8425C26.6833 25.6092 26.85 25.33 26.95 25.005C27.05 24.68 27.0667 24.3508 27 24.0175L26.75 22.7175C25.8333 23.4842 24.8708 24.1717 23.8625 24.78C22.8542 25.3883 21.7917 25.9092 20.675 26.3425ZM12.55 24.1925C13.1333 23.6092 13.8417 23.3133 14.675 23.305C15.5083 23.2967 16.2167 23.5842 16.8 24.1675C17.3833 24.7508 17.675 25.4592 17.675 26.2925C17.675 27.1258 17.3833 27.8342 16.8 28.4175C16 29.2175 15.0542 29.6925 13.9625 29.8425C12.8708 29.9925 11.775 30.1425 10.675 30.2925C10.825 29.1925 10.9792 28.0967 11.1375 27.005C11.2958 25.9133 11.7667 24.9758 12.55 24.1925Z" fill="url(#paint0_linear_1_501)"/>
</g>
</g>
<defs>
<linearGradient id="paint0_linear_1_501" x1="20.5561" y1="30.2925" x2="20.5561" y2="10.5303" gradientUnits="userSpaceOnUse">
<stop stop-color="#D8BA9B"/>
<stop offset="1" stop-color="#C39C72"/>
</linearGradient>
<clipPath id="clip0_1_501">
<rect width="40" height="40" fill="white" transform="translate(0.5 0.142578)"/>
</clipPath>
</defs>
</svg>
