<svg width="41" height="41" viewBox="0 0 41 41" fill="none" xmlns="http://www.w3.org/2000/svg">
<g clip-path="url(#clip0_1_479)">
<path d="M40.5 20.1426C40.5 9.09688 31.5457 0.142578 20.5 0.142578C9.4543 0.142578 0.5 9.09688 0.5 20.1426C0.5 31.1883 9.4543 40.1426 20.5 40.1426C31.5457 40.1426 40.5 31.1883 40.5 20.1426Z" fill="#1F1F1F"/>
<mask id="mask0_1_479" style="mask-type:alpha" maskUnits="userSpaceOnUse" x="8" y="8" width="25" height="25">
<path d="M32.5 8.14258H8.5V32.1426H32.5V8.14258Z" fill="#D9D9D9"/>
</mask>
<g mask="url(#mask0_1_479)">
<path d="M20.5 20.1426C19.4 20.1426 18.4583 19.7509 17.675 18.9676C16.8917 18.1843 16.5 17.2426 16.5 16.1426C16.5 15.0426 16.8917 14.1009 17.675 13.3176C18.4583 12.5343 19.4 12.1426 20.5 12.1426C21.6 12.1426 22.5417 12.5343 23.325 13.3176C24.1083 14.1009 24.5 15.0426 24.5 16.1426C24.5 17.2426 24.1083 18.1843 23.325 18.9676C22.5417 19.7509 21.6 20.1426 20.5 20.1426ZM12.5 26.1426V25.3426C12.5 24.7759 12.6458 24.2551 12.9375 23.7801C13.2292 23.3051 13.6167 22.9426 14.1 22.6926C15.1333 22.1759 16.1833 21.7884 17.25 21.5301C18.3167 21.2718 19.4 21.1426 20.5 21.1426C21.6 21.1426 22.6833 21.2718 23.75 21.5301C24.8167 21.7884 25.8667 22.1759 26.9 22.6926C27.3833 22.9426 27.7708 23.3051 28.0625 23.7801C28.3542 24.2551 28.5 24.7759 28.5 25.3426V26.1426C28.5 26.6926 28.3042 27.1634 27.9125 27.5551C27.5208 27.9468 27.05 28.1426 26.5 28.1426H14.5C13.95 28.1426 13.4792 27.9468 13.0875 27.5551C12.6958 27.1634 12.5 26.6926 12.5 26.1426Z" fill="url(#paint0_linear_1_479)"/>
</g>
</g>
<defs>
<linearGradient id="paint0_linear_1_479" x1="20.5" y1="28.1426" x2="20.5" y2="12.1426" gradientUnits="userSpaceOnUse">
<stop stop-color="#D8BA9B"/>
<stop offset="1" stop-color="#C39C72"/>
</linearGradient>
<clipPath id="clip0_1_479">
<rect width="40" height="40" fill="white" transform="translate(0.5 0.142578)"/>
</clipPath>
</defs>
</svg>
