<svg width="41" height="41" viewBox="0 0 41 41" fill="none" xmlns="http://www.w3.org/2000/svg">
<g clip-path="url(#clip0_1_490)">
<path d="M40.5 20.1426C40.5 9.09688 31.5457 0.142578 20.5 0.142578C9.4543 0.142578 0.5 9.09688 0.5 20.1426C0.5 31.1883 9.4543 40.1426 20.5 40.1426C31.5457 40.1426 40.5 31.1883 40.5 20.1426Z" fill="#1F1F1F"/>
<mask id="mask0_1_490" style="mask-type:alpha" maskUnits="userSpaceOnUse" x="8" y="8" width="25" height="25">
<path d="M32.5 8.14258H8.5V32.1426H32.5V8.14258Z" fill="#D9D9D9"/>
</mask>
<g mask="url(#mask0_1_490)">
<path d="M9.5 26.1426C9.21667 26.1426 8.97917 26.0468 8.7875 25.8551C8.59583 25.6634 8.5 25.4259 8.5 25.1426V24.5676C8.5 23.8509 8.86667 23.2676 9.6 22.8176C10.3333 22.3676 11.3 22.1426 12.5 22.1426C12.7167 22.1426 12.925 22.1468 13.125 22.1551C13.325 22.1634 13.5167 22.1843 13.7 22.2176C13.4667 22.5676 13.2917 22.9343 13.175 23.3176C13.0583 23.7009 13 24.1009 13 24.5176V26.1426H9.5ZM15.5 26.1426C15.2167 26.1426 14.9792 26.0468 14.7875 25.8551C14.5958 25.6634 14.5 25.4259 14.5 25.1426V24.5176C14.5 23.9843 14.6458 23.4968 14.9375 23.0551C15.2292 22.6134 15.6417 22.2259 16.175 21.8926C16.7083 21.5593 17.3458 21.3093 18.0875 21.1426C18.8292 20.9759 19.6333 20.8926 20.5 20.8926C21.3833 20.8926 22.1958 20.9759 22.9375 21.1426C23.6792 21.3093 24.3167 21.5593 24.85 21.8926C25.3833 22.2259 25.7917 22.6134 26.075 23.0551C26.3583 23.4968 26.5 23.9843 26.5 24.5176V25.1426C26.5 25.4259 26.4042 25.6634 26.2125 25.8551C26.0208 26.0468 25.7833 26.1426 25.5 26.1426H15.5ZM28 26.1426V24.5176C28 24.0843 27.9458 23.6759 27.8375 23.2926C27.7292 22.9093 27.5667 22.5509 27.35 22.2176C27.5333 22.1843 27.7208 22.1634 27.9125 22.1551C28.1042 22.1468 28.3 22.1426 28.5 22.1426C29.7 22.1426 30.6667 22.3634 31.4 22.8051C32.1333 23.2468 32.5 23.8343 32.5 24.5676V25.1426C32.5 25.4259 32.4042 25.6634 32.2125 25.8551C32.0208 26.0468 31.7833 26.1426 31.5 26.1426H28ZM12.5 21.1426C11.95 21.1426 11.4792 20.9468 11.0875 20.5551C10.6958 20.1634 10.5 19.6926 10.5 19.1426C10.5 18.5759 10.6958 18.1009 11.0875 17.7176C11.4792 17.3343 11.95 17.1426 12.5 17.1426C13.0667 17.1426 13.5417 17.3343 13.925 17.7176C14.3083 18.1009 14.5 18.5759 14.5 19.1426C14.5 19.6926 14.3083 20.1634 13.925 20.5551C13.5417 20.9468 13.0667 21.1426 12.5 21.1426ZM28.5 21.1426C27.95 21.1426 27.4792 20.9468 27.0875 20.5551C26.6958 20.1634 26.5 19.6926 26.5 19.1426C26.5 18.5759 26.6958 18.1009 27.0875 17.7176C27.4792 17.3343 27.95 17.1426 28.5 17.1426C29.0667 17.1426 29.5417 17.3343 29.925 17.7176C30.3083 18.1009 30.5 18.5759 30.5 19.1426C30.5 19.6926 30.3083 20.1634 29.925 20.5551C29.5417 20.9468 29.0667 21.1426 28.5 21.1426ZM20.5 20.1426C19.6667 20.1426 18.9583 19.8509 18.375 19.2676C17.7917 18.6843 17.5 17.9759 17.5 17.1426C17.5 16.2926 17.7917 15.5801 18.375 15.0051C18.9583 14.4301 19.6667 14.1426 20.5 14.1426C21.35 14.1426 22.0625 14.4301 22.6375 15.0051C23.2125 15.5801 23.5 16.2926 23.5 17.1426C23.5 17.9759 23.2125 18.6843 22.6375 19.2676C22.0625 19.8509 21.35 20.1426 20.5 20.1426Z" fill="url(#paint0_linear_1_490)"/>
</g>
</g>
<defs>
<linearGradient id="paint0_linear_1_490" x1="20.5" y1="26.1426" x2="20.5" y2="14.1426" gradientUnits="userSpaceOnUse">
<stop stop-color="#D8BA9B"/>
<stop offset="1" stop-color="#C39C72"/>
</linearGradient>
<clipPath id="clip0_1_490">
<rect width="40" height="40" fill="white" transform="translate(0.5 0.142578)"/>
</clipPath>
</defs>
</svg>
