<svg width="22" height="30" viewBox="0 0 22 30" fill="none" xmlns="http://www.w3.org/2000/svg">
<path fill-rule="evenodd" clip-rule="evenodd" d="M10.9396 27.0308C8.87069 25.5855 6.80179 24.14 4.73293 22.6947V23.7716C4.73293 24.4801 5.04468 25.0753 5.6115 25.4721C7.39699 26.7191 9.15412 27.9661 10.9396 29.2131C12.6967 27.9661 14.4822 26.7474 16.2394 25.5004C16.8062 25.1037 17.1179 24.5085 17.1179 23.7999V22.723L16.4094 23.2048C14.5956 24.4801 12.7818 25.7555 10.9396 27.0308ZM21.5958 0.787109C14.4822 0.787109 7.36865 0.787109 0.255061 0.787109V3.50784H2.04054V2.57259C7.96378 2.57259 13.8587 2.57259 19.782 2.57259V3.50784H21.5958V0.787109Z" fill="#C6A37E"/>
<path fill-rule="evenodd" clip-rule="evenodd" d="M10.3443 24.6139C10.3443 18.2089 10.3443 11.8321 10.3443 5.42708C6.97182 5.42708 3.59924 5.42708 0.255005 5.42708V14.5528L2.06881 16.6217V7.2409H8.5872C8.5872 11.8888 8.5872 16.5367 8.5872 21.1847C6.40496 19.6542 4.25105 18.1522 2.06881 16.6217L0.255005 14.5528V16.4517C0.255005 17.1602 0.566709 17.7554 1.13357 18.1522C4.22271 20.3061 7.28352 22.46 10.3443 24.6139Z" fill="#C6A37E"/>
<path fill-rule="evenodd" clip-rule="evenodd" d="M11.5972 24.6139C11.5972 18.2089 11.5972 11.8321 11.5972 5.42708C14.9697 5.42708 18.3423 5.42708 21.6865 5.42708V14.5528L19.8727 16.6217V7.2409H13.3543C13.3543 11.8888 13.3543 16.5367 13.3543 21.1847C15.5366 19.6542 17.6905 18.1522 19.8727 16.6217L21.6865 14.5528V16.4517C21.6865 17.1602 21.3748 17.7554 20.808 18.1522C17.7188 20.3061 14.658 22.46 11.5972 24.6139Z" fill="#C6A37E"/>
</svg>
