<svg width="41" height="41" viewBox="0 0 41 41" fill="none" xmlns="http://www.w3.org/2000/svg">
<g clip-path="url(#clip0_1_552)">
<path d="M40.5 20.1426C40.5 9.09688 31.5457 0.142578 20.5 0.142578C9.4543 0.142578 0.5 9.09688 0.5 20.1426C0.5 31.1883 9.4543 40.1426 20.5 40.1426C31.5457 40.1426 40.5 31.1883 40.5 20.1426Z" fill="#1F1F1F"/>
<mask id="mask0_1_552" style="mask-type:alpha" maskUnits="userSpaceOnUse" x="8" y="8" width="25" height="25">
<path d="M32.5 8.14258H8.5V32.1426H32.5V8.14258Z" fill="#D9D9D9"/>
</mask>
<g mask="url(#mask0_1_552)">
<path d="M13.5 19.1426C12.95 19.1426 12.4792 18.9468 12.0875 18.5551C11.6958 18.1634 11.5 17.6926 11.5 17.1426V13.1426C11.5 12.5926 11.6958 12.1218 12.0875 11.7301C12.4792 11.3384 12.95 11.1426 13.5 11.1426H17.5C18.05 11.1426 18.5208 11.3384 18.9125 11.7301C19.3042 12.1218 19.5 12.5926 19.5 13.1426V17.1426C19.5 17.6926 19.3042 18.1634 18.9125 18.5551C18.5208 18.9468 18.05 19.1426 17.5 19.1426H13.5ZM13.5 29.1426C12.95 29.1426 12.4792 28.9468 12.0875 28.5551C11.6958 28.1634 11.5 27.6926 11.5 27.1426V23.1426C11.5 22.5926 11.6958 22.1218 12.0875 21.7301C12.4792 21.3384 12.95 21.1426 13.5 21.1426H17.5C18.05 21.1426 18.5208 21.3384 18.9125 21.7301C19.3042 22.1218 19.5 22.5926 19.5 23.1426V27.1426C19.5 27.6926 19.3042 28.1634 18.9125 28.5551C18.5208 28.9468 18.05 29.1426 17.5 29.1426H13.5ZM23.5 19.1426C22.95 19.1426 22.4792 18.9468 22.0875 18.5551C21.6958 18.1634 21.5 17.6926 21.5 17.1426V13.1426C21.5 12.5926 21.6958 12.1218 22.0875 11.7301C22.4792 11.3384 22.95 11.1426 23.5 11.1426H27.5C28.05 11.1426 28.5208 11.3384 28.9125 11.7301C29.3042 12.1218 29.5 12.5926 29.5 13.1426V17.1426C29.5 17.6926 29.3042 18.1634 28.9125 18.5551C28.5208 18.9468 28.05 19.1426 27.5 19.1426H23.5ZM23.5 29.1426C22.95 29.1426 22.4792 28.9468 22.0875 28.5551C21.6958 28.1634 21.5 27.6926 21.5 27.1426V23.1426C21.5 22.5926 21.6958 22.1218 22.0875 21.7301C22.4792 21.3384 22.95 21.1426 23.5 21.1426H27.5C28.05 21.1426 28.5208 21.3384 28.9125 21.7301C29.3042 22.1218 29.5 22.5926 29.5 23.1426V27.1426C29.5 27.6926 29.3042 28.1634 28.9125 28.5551C28.5208 28.9468 28.05 29.1426 27.5 29.1426H23.5Z" fill="url(#paint0_linear_1_552)"/>
</g>
</g>
<defs>
<linearGradient id="paint0_linear_1_552" x1="20.5" y1="29.1426" x2="20.5" y2="11.1426" gradientUnits="userSpaceOnUse">
<stop stop-color="#D8BA9B"/>
<stop offset="1" stop-color="#C39C72"/>
</linearGradient>
<clipPath id="clip0_1_552">
<rect width="40" height="40" fill="white" transform="translate(0.5 0.142578)"/>
</clipPath>
</defs>
</svg>
