<svg width="41" height="41" viewBox="0 0 41 41" fill="none" xmlns="http://www.w3.org/2000/svg">
<g clip-path="url(#clip0_1_563)">
<path d="M40.5 20.1426C40.5 9.09688 31.5457 0.142578 20.5 0.142578C9.4543 0.142578 0.5 9.09688 0.5 20.1426C0.5 31.1883 9.4543 40.1426 20.5 40.1426C31.5457 40.1426 40.5 31.1883 40.5 20.1426Z" fill="#1F1F1F"/>
<path d="M29.0407 16.2012V22.3254C29.0407 23.976 27.6978 25.3189 26.0472 25.3189H12.9942V27.3137C12.9942 28.3224 13.8148 29.143 14.8234 29.143H28.5414C29.55 29.143 30.3707 28.3224 30.3707 27.3137V17.9606C30.3706 17.1251 29.8073 16.4191 29.0407 16.2012Z" fill="url(#paint0_linear_1_563)"/>
<path d="M27.8765 22.3247V16.0479H10.5V22.3247C10.5 23.3349 11.319 24.1539 12.3292 24.1539H26.0472C27.0575 24.1539 27.8765 23.3349 27.8765 22.3247ZM25.3409 21.577H22.8467C22.5252 21.577 22.2645 21.3163 22.2645 20.9948C22.2645 20.6733 22.5252 20.4127 22.8467 20.4127H25.3409C25.6624 20.4127 25.923 20.6733 25.923 20.9948C25.923 21.3163 25.6624 21.577 25.3409 21.577Z" fill="url(#paint1_linear_1_563)"/>
<path d="M27.8765 12.9718C27.8765 11.9615 27.0575 11.1426 26.0472 11.1426H12.3293C11.319 11.1426 10.5 11.9616 10.5 12.9718V14.8838H27.8765V12.9718Z" fill="url(#paint2_linear_1_563)"/>
</g>
<defs>
<linearGradient id="paint0_linear_1_563" x1="21.6824" y1="29.143" x2="21.6824" y2="16.2012" gradientUnits="userSpaceOnUse">
<stop stop-color="#D8BA9B"/>
<stop offset="1" stop-color="#C39C72"/>
</linearGradient>
<linearGradient id="paint1_linear_1_563" x1="19.1882" y1="24.1539" x2="19.1882" y2="16.0479" gradientUnits="userSpaceOnUse">
<stop stop-color="#D8BA9B"/>
<stop offset="1" stop-color="#C39C72"/>
</linearGradient>
<linearGradient id="paint2_linear_1_563" x1="19.1882" y1="14.8838" x2="19.1882" y2="11.1426" gradientUnits="userSpaceOnUse">
<stop stop-color="#D8BA9B"/>
<stop offset="1" stop-color="#C39C72"/>
</linearGradient>
<clipPath id="clip0_1_563">
<rect width="40" height="40" fill="white" transform="translate(0.5 0.142578)"/>
</clipPath>
</defs>
</svg>
