<svg width="41" height="41" viewBox="0 0 41 41" fill="none" xmlns="http://www.w3.org/2000/svg">
<g clip-path="url(#clip0_1_572)">
<path d="M40.5 20.1426C40.5 9.09688 31.5457 0.142578 20.5 0.142578C9.4543 0.142578 0.5 9.09688 0.5 20.1426C0.5 31.1883 9.4543 40.1426 20.5 40.1426C31.5457 40.1426 40.5 31.1883 40.5 20.1426Z" fill="#1F1F1F"/>
<path d="M20.8866 19.8132C22.0764 19.8132 23.1066 19.386 23.9485 18.543C24.7903 17.7003 25.217 16.6691 25.217 15.4778C25.217 14.2868 24.7903 13.2555 23.9483 12.4125C23.1064 11.5698 22.0762 11.1426 20.8866 11.1426C19.6966 11.1426 18.6666 11.5698 17.8248 12.4126C16.983 13.2554 16.5561 14.2867 16.5561 15.4778C16.5561 16.6691 16.983 17.7004 17.8249 18.5432C18.6669 19.3858 19.697 19.8132 20.8866 19.8132Z" fill="url(#paint0_linear_1_572)"/>
<path d="M28.4636 24.9836C28.4394 24.6329 28.3903 24.2503 28.318 23.8462C28.245 23.4392 28.151 23.0544 28.0386 22.7027C27.9224 22.3392 27.7644 21.9802 27.569 21.6362C27.3663 21.2792 27.1282 20.9683 26.861 20.7124C26.5816 20.4448 26.2395 20.2296 25.8439 20.0726C25.4496 19.9165 25.0127 19.8374 24.5454 19.8374C24.3619 19.8374 24.1844 19.9128 23.8416 20.1362C23.6306 20.2739 23.3839 20.4332 23.1084 20.6094C22.8729 20.7597 22.5539 20.9004 22.1598 21.0279C21.7753 21.1524 21.3849 21.2156 20.9996 21.2156C20.6143 21.2156 20.224 21.1524 19.8391 21.0279C19.4455 20.9006 19.1264 20.7598 18.8912 20.6096C18.6183 20.435 18.3714 20.2757 18.1573 20.1361C17.8149 19.9126 17.6373 19.8372 17.4538 19.8372C16.9863 19.8372 16.5495 19.9165 16.1555 20.0727C15.7601 20.2294 15.4179 20.4446 15.1382 20.7126C14.8711 20.9685 14.6329 21.2793 14.4304 21.6362C14.2352 21.9802 14.0772 22.3391 13.9609 22.7029C13.8485 23.0546 13.7546 23.4392 13.6816 23.8462C13.6093 24.2497 13.5602 24.6324 13.5359 24.984C13.5121 25.3284 13.5 25.6859 13.5 26.0469C13.5 26.9865 13.7983 27.7472 14.3867 28.3082C14.9677 28.8617 15.7365 29.1426 16.6715 29.1426H25.3285C26.2635 29.1426 27.032 28.8619 27.6132 28.3082C28.2017 27.7476 28.5 26.9868 28.5 26.0468C28.4999 25.6841 28.4877 25.3264 28.4636 24.9836Z" fill="url(#paint1_linear_1_572)"/>
</g>
<defs>
<linearGradient id="paint0_linear_1_572" x1="21" y1="29.1426" x2="21" y2="11.1426" gradientUnits="userSpaceOnUse">
<stop stop-color="#D8BA9B"/>
<stop offset="1" stop-color="#C39C72"/>
</linearGradient>
<linearGradient id="paint1_linear_1_572" x1="21" y1="29.1426" x2="21" y2="11.1426" gradientUnits="userSpaceOnUse">
<stop stop-color="#D8BA9B"/>
<stop offset="1" stop-color="#C39C72"/>
</linearGradient>
<clipPath id="clip0_1_572">
<rect width="40" height="40" fill="white" transform="translate(0.5 0.142578)"/>
</clipPath>
</defs>
</svg>
