<svg width="33" height="32" viewBox="0 0 33 32" fill="none" xmlns="http://www.w3.org/2000/svg">
<rect x="0.5" width="32" height="32" rx="16" fill="#0079C4"/>
<path fill-rule="evenodd" clip-rule="evenodd" d="M4.5 16C4.5 22.6245 9.86759 28 16.4824 28C23.0973 28 28.4649 22.6245 28.4649 16C28.4649 9.37546 23.0973 4 16.4824 4C9.86759 4 4.5 9.37546 4.5 16ZM4.92317 16C4.92317 9.59851 10.1126 4.40149 16.5047 4.40149C22.8968 4.40149 28.0862 9.59851 28.0862 16C28.0862 22.3792 22.8968 27.5762 16.5047 27.5762C10.1126 27.5985 4.92317 22.4015 4.92317 16Z" fill="white"/>
<path fill-rule="evenodd" clip-rule="evenodd" d="M8.24125 12.7211C11.3148 10.7137 14.7002 9.53153 20.4464 10.5352C20.7582 10.3568 20.9364 10.1784 21.0255 9.79919C19.6001 9.28618 18.041 9.10774 16.0365 9.13004C14.2325 9.17465 10.9807 9.8438 9.2435 10.8698L9.77803 10.2007C11.003 9.48692 14.1657 8.55012 16.5265 8.4832C18.1969 8.4609 19.0655 8.55012 21.0478 9.08543C20.8696 8.75086 20.4687 8.57242 19.8673 8.30476C17.9519 7.43488 14.3438 7.36796 11.4039 8.66164C11.7825 8.41629 12.1389 8.19324 12.6289 7.97019C13.6088 7.5241 15.1902 7.1003 17.1724 7.12261C18.7537 7.14491 20.6469 7.70253 21.805 8.84008C22.0055 9.06313 22.1168 9.30848 22.1614 9.50923C23.0745 9.97763 23.6091 10.4014 23.8986 10.9144C24.01 11.1821 24.0768 11.4721 24.01 11.7843C24.3886 12.0074 24.5668 12.2081 24.7672 12.4535C24.9008 12.6542 25.0122 12.8996 25.0345 13.1226C25.079 13.4126 25.1013 13.7248 24.8118 14.104C25.1236 14.2602 25.3686 14.6839 25.4131 14.8847C25.5467 15.5761 25.1236 16.2453 24.5222 16.7806C23.854 17.3828 22.3618 18.0743 21.1591 18.3865C18.7537 18.9888 16.6379 19.2564 14.9452 19.5687C15.7024 19.7471 16.727 19.9925 18.4196 19.9925C22.0055 19.9925 25.1681 18.2973 25.1681 18.2973C25.1681 18.2973 25.1013 18.5204 25.0345 18.7211C22.7627 20.104 19.1323 20.6839 17.5956 20.617C16.0142 20.5501 14.7002 20.3048 13.4084 19.9033C13.0075 20.0148 12.6289 20.1263 12.2502 20.3048C14.2102 21.197 15.7024 21.3977 17.3951 21.5315C19.1101 21.6654 21.9386 21.2416 24.344 20.3717C24.2327 20.4832 24.1881 20.6616 24.0768 20.7509C22.8518 21.3977 20.246 22.0445 18.9542 22.0892C17.6624 22.1338 16.0811 22.0892 14.7002 21.8438C13.5198 21.6207 12.5398 21.2416 11.5375 20.7955C11.3594 20.9293 11.2703 21.1077 11.2257 21.3085C15.0788 23.3605 18.776 23.4051 22.9854 22.0892L22.6068 22.4683C17.9742 24.3419 14.3661 23.6059 11.5598 22.2676C11.4707 22.223 11.3594 22.1784 11.2703 22.1338C11.5375 22.5799 13.6757 24.1412 16.0588 24.3419C17.7069 24.4758 19.7114 24.1858 20.9141 23.7174L20.2014 24.0743C19.6223 24.3642 18.0856 25.0111 15.9474 24.8549C13.0966 24.6542 11.493 23.4051 10.758 22.736C10.4239 22.4237 10.268 22.0668 10.1567 21.6207C9.51077 21.2862 9.10987 20.9293 8.77579 20.4163C8.57534 20.104 8.61988 19.7695 8.66443 19.4795L8.73124 19.2118C8.41943 18.9888 8.10762 18.7434 7.97399 18.4981C7.68445 17.9851 7.86263 17.5613 8.06308 17.2044C7.8849 17.0036 7.72899 16.8252 7.66218 16.6245C7.59536 16.3791 7.57309 16.1561 7.59536 15.9107C7.63991 15.4869 7.8849 15.0854 8.17444 14.7509C8.79806 14.0371 9.77803 13.4795 11.4707 12.9219C13.1189 12.3865 13.7648 12.2973 15.012 12.0074C16.4597 11.6728 18.1969 11.5613 19.6446 11.0483C15.6133 10.3345 11.4039 10.9813 7.99626 13.3457L8.24125 12.7211ZM21.9832 10.223C21.9386 10.4237 21.7159 10.6468 21.5823 10.8029C22.0277 10.9144 22.4732 11.0706 22.8963 11.249C22.8295 10.8475 22.3841 10.4683 21.9832 10.223ZM9.55531 18.2973C9.28805 18.1412 9.10987 18.052 8.90942 17.8958C8.79806 18.1412 9.02078 18.4312 9.2435 18.565C9.33259 18.4758 9.44395 18.3865 9.55531 18.2973ZM23.1636 13.0111C23.4531 13.1449 23.7204 13.2564 23.9654 13.4349C24.1436 13.078 24.0322 12.855 23.6536 12.5427C23.52 12.7211 23.3418 12.8773 23.1636 13.0111ZM22.295 13.5464C21.7159 13.8141 20.8473 14.104 19.6446 14.4163C18.6646 14.6616 16.237 15.0185 13.6311 15.5761C12.8071 15.7546 10.5798 16.2899 9.4885 17.2044C9.80031 17.4497 9.97848 17.5167 10.3348 17.6951C10.7803 17.4051 11.4039 17.1375 12.3171 16.8921C13.9207 16.4683 15.1011 16.2899 16.5488 16.0445C17.9742 15.8215 20.6469 15.2639 22.1391 14.7286C22.6291 14.5501 23.0745 14.3271 23.4086 14.0594C23.2972 13.9702 22.3395 13.5018 22.295 13.5464ZM11.0698 19.7694C11.2925 19.6356 11.5598 19.5018 11.8493 19.3903C11.4262 19.2118 11.003 19.0334 10.5798 18.8326C10.3794 18.9442 10.2012 19.078 10.0676 19.2118C10.4017 19.3903 10.7135 19.591 11.0698 19.7694ZM9.68895 19.9033C9.68895 20.1709 9.84485 20.4163 10.2012 20.7063C10.2458 20.5501 10.3126 20.4609 10.4239 20.3271C10.1567 20.1932 9.93394 20.0371 9.68895 19.9033ZM11.7157 14.9516C14.6334 14.104 17.7069 13.8364 20.825 13.0111C19.6001 12.6765 18.9542 12.5427 17.6624 12.6988C15.7915 12.9219 13.7425 13.3234 11.983 13.8364C11.2925 14.0371 7.66218 15.0631 8.70897 16.5129C8.70897 16.5352 9.33259 15.6654 11.7157 14.9516ZM22.6736 11.9628C22.2059 11.7397 21.6046 11.539 20.9587 11.3605C20.6691 11.5836 20.3573 11.7843 19.8673 11.9628C20.6469 12.0966 21.2482 12.3196 21.9164 12.5204C22.05 12.5873 22.5845 12.0743 22.6736 11.9628ZM24.1213 14.7732C24.0322 14.8401 23.9431 14.9293 23.8318 14.9962C23.1636 15.5092 22.1168 15.9107 20.6691 16.3122C17.6624 17.1152 15.4797 17.249 12.9852 17.8512C12.4952 17.9628 12.0053 18.1412 11.5375 18.3196C12.0053 18.565 12.4952 18.7657 13.0075 18.9665C14.0097 18.6765 14.4997 18.5427 15.9697 18.2973C16.5265 18.2081 18.2415 17.8958 19.4887 17.6282C21.7159 17.1821 24.9899 16.1338 24.1213 14.7732Z" fill="white"/>
</svg>
