<svg width="17" height="16" viewBox="0 0 17 16" fill="none" xmlns="http://www.w3.org/2000/svg">
<g clip-path="url(#clip0_0_125)">
<path d="M15.9678 8C15.9678 8.64 15.1815 9.1675 15.024 9.7575C14.8615 10.3675 15.2728 11.2175 14.964 11.7513C14.6503 12.2938 13.7065 12.3588 13.2665 12.7987C12.8265 13.2387 12.7615 14.1825 12.219 14.4963C11.6853 14.805 10.8353 14.3937 10.2253 14.5562C9.63527 14.7137 9.10777 15.5 8.46777 15.5C7.82777 15.5 7.30027 14.7137 6.71027 14.5562C6.10027 14.3937 5.25027 14.805 4.71652 14.4963C4.17402 14.1825 4.10902 13.2387 3.66902 12.7987C3.22902 12.3588 2.28527 12.2938 1.97152 11.7513C1.66277 11.2175 2.07402 10.3675 1.91152 9.7575C1.75402 9.1675 0.967773 8.64 0.967773 8C0.967773 7.36 1.75402 6.8325 1.91152 6.2425C2.07402 5.6325 1.66277 4.7825 1.97152 4.24875C2.28527 3.70625 3.22902 3.64125 3.66902 3.20125C4.10902 2.76125 4.17402 1.8175 4.71652 1.50375C5.25027 1.195 6.10027 1.60625 6.71027 1.44375C7.30027 1.28625 7.82777 0.5 8.46777 0.5C9.10777 0.5 9.63527 1.28625 10.2253 1.44375C10.8353 1.60625 11.6853 1.195 12.219 1.50375C12.7615 1.8175 12.8265 2.76125 13.2665 3.20125C13.7065 3.64125 14.6503 3.70625 14.964 4.24875C15.2728 4.7825 14.8615 5.6325 15.024 6.2425C15.1815 6.8325 15.9678 7.36 15.9678 8Z" fill="white"/>
<path d="M10.6353 5.765L7.78029 8.62L6.30029 7.14125C5.97904 6.82 5.45779 6.82 5.13654 7.14125C4.81529 7.4625 4.81529 7.98375 5.13654 8.305L7.21279 10.3813C7.52529 10.6938 8.03279 10.6938 8.34529 10.3813L11.7978 6.92875C12.119 6.6075 12.119 6.08625 11.7978 5.765C11.4765 5.44375 10.9565 5.44375 10.6353 5.765Z" fill="#0079C4"/>
</g>
<defs>
<clipPath id="clip0_0_125">
<rect width="16" height="16" fill="white" transform="translate(0.467773)"/>
</clipPath>
</defs>
</svg>
