<svg width="45" height="45" viewBox="0 0 45 45" fill="none" xmlns="http://www.w3.org/2000/svg">
<path fill-rule="evenodd" clip-rule="evenodd" d="M0.532211 22.5C0.532211 34.645 10.3728 44.5 22.5 44.5C34.6272 44.5 44.4678 34.645 44.4678 22.5C44.4678 10.355 34.6272 0.5 22.5 0.5C10.3728 0.5 0.532211 10.355 0.532211 22.5ZM1.30803 22.5C1.30803 10.7639 10.822 1.23606 22.5408 1.23606C34.2597 1.23606 43.7736 10.7639 43.7736 22.5C43.7736 34.1952 34.2597 43.723 22.5408 43.723C10.822 43.7639 1.30803 34.2361 1.30803 22.5Z" fill="white"/>
<path fill-rule="evenodd" clip-rule="evenodd" d="M7.39116 16.4887C13.026 12.8084 19.2325 10.6411 29.7673 12.4813C30.3389 12.1542 30.6656 11.827 30.8289 11.1318C28.2156 10.1913 25.3574 9.86419 21.6825 9.90508C18.3751 9.98686 12.4135 11.2136 9.22862 13.0947L10.2086 11.8679C12.4544 10.5594 18.2526 8.84188 22.5808 8.71921C25.6432 8.67831 27.2357 8.84188 30.8697 9.82329C30.5431 9.20991 29.8081 8.88277 28.7056 8.39207C25.1941 6.79727 18.5792 6.6746 13.1894 9.04634C13.8835 8.59653 14.5368 8.18761 15.4351 7.77868C17.2318 6.96084 20.1308 6.18389 23.7649 6.22478C26.664 6.26567 30.1348 7.28798 32.258 9.37348C32.6255 9.7824 32.8297 10.2322 32.9114 10.6002C34.5855 11.459 35.5655 12.2359 36.0963 13.1765C36.3004 13.6672 36.4229 14.1988 36.3004 14.7713C36.9946 15.1802 37.3213 15.5482 37.6887 15.998C37.9337 16.366 38.1379 16.8159 38.1787 17.2248C38.2604 17.7564 38.3012 18.3289 37.7704 19.024C38.3421 19.3103 38.7912 20.0872 38.8729 20.4553C39.1179 21.7229 38.3421 22.9497 37.2396 23.9311C36.0146 25.0352 33.2789 26.3029 31.0739 26.8753C26.664 27.9794 22.7849 28.4701 19.6817 29.0426C21.07 29.3698 22.9483 29.8196 26.0515 29.8196C32.6255 29.8196 38.4237 26.7118 38.4237 26.7118C38.4237 26.7118 38.3012 27.1207 38.1787 27.4887C34.0138 30.024 27.3582 31.0872 24.5407 30.9646C21.6416 30.8419 19.2325 30.3921 16.8643 29.656C16.1293 29.8605 15.4351 30.0649 14.741 30.3921C18.3342 32.0278 21.07 32.3958 24.1732 32.6411C27.3173 32.8865 32.503 32.1095 36.9129 30.5147C36.7088 30.7192 36.6271 31.0463 36.4229 31.2099C34.1772 32.3958 29.3998 33.5817 27.0315 33.6634C24.6632 33.7452 21.7641 33.6634 19.2325 33.2136C17.0684 32.8047 15.2718 32.1095 13.4343 31.2917C13.1077 31.5371 12.9444 31.8642 12.8627 32.2322C19.9267 35.9943 26.7048 36.0761 34.4222 33.6634L33.728 34.3586C25.2349 37.7936 18.62 36.4441 13.4752 33.9906C13.3118 33.9088 13.1077 33.827 12.9444 33.7452C13.4343 34.5631 17.3542 37.4255 21.7233 37.7936C24.7449 38.0389 28.4198 37.5073 30.6248 36.6486L29.3181 37.3028C28.2565 37.8344 25.439 39.0203 21.5191 38.7341C16.2926 38.366 13.3527 36.0761 12.0052 34.8493C11.3927 34.2768 11.1069 33.6226 10.9027 32.8047C9.7186 32.1913 8.98362 31.5371 8.37114 30.5965C8.00365 30.024 8.08531 29.4107 8.16698 28.8791L8.28947 28.3884C7.71782 27.9794 7.14617 27.5296 6.90117 27.0798C6.37035 26.1393 6.69701 25.3623 7.0645 24.7081C6.73784 24.34 6.45202 24.0129 6.32952 23.6449C6.20702 23.195 6.16619 22.7861 6.20702 22.3363C6.28869 21.5594 6.73784 20.8233 7.26866 20.2099C8.41197 18.9014 10.2086 17.8791 13.3118 16.8568C16.3334 15.8753 17.5176 15.7118 19.8042 15.1802C22.4583 14.5668 25.6432 14.3623 28.2973 13.4218C20.9067 12.1133 13.1894 13.2991 6.94201 17.6337L7.39116 16.4887ZM32.5847 11.9088C32.503 12.2768 32.0947 12.6857 31.8497 12.972C32.6664 13.1765 33.483 13.4627 34.2588 13.7898C34.1363 13.0538 33.3197 12.3586 32.5847 11.9088ZM9.80027 26.7118C9.31028 26.4255 8.98362 26.262 8.61613 25.9757C8.41197 26.4255 8.82029 26.9571 9.22862 27.2025C9.39194 27.0389 9.59611 26.8753 9.80027 26.7118ZM34.7488 17.0203C35.2796 17.2657 35.7696 17.4701 36.2188 17.7973C36.5454 17.143 36.3413 16.7341 35.6471 16.1616C35.4021 16.4887 35.0755 16.775 34.7488 17.0203ZM33.1564 18.0017C32.0947 18.4924 30.5023 19.024 28.2973 19.5965C26.5007 20.0463 22.05 20.7006 17.2726 21.7229C15.7618 22.0501 11.6786 23.0315 9.67777 24.7081C10.2494 25.1579 10.5761 25.2805 11.2294 25.6077C12.046 25.0761 13.1894 24.5854 14.8635 24.1356C17.8034 23.3586 19.9675 23.0315 22.6216 22.5817C25.2349 22.1727 30.1348 21.1504 32.8705 20.169C33.7688 19.8419 34.5855 19.433 35.198 18.9423C34.9938 18.7787 33.238 17.9199 33.1564 18.0017ZM12.5769 29.4107C12.9852 29.1653 13.4752 28.92 14.006 28.7155C13.2302 28.3884 12.4544 28.0612 11.6786 27.6932C11.3111 27.8976 10.9844 28.143 10.7394 28.3884C11.3519 28.7155 11.9235 29.0835 12.5769 29.4107ZM10.0453 29.656C10.0453 30.1467 10.3311 30.5965 10.9844 31.1281C11.0661 30.8419 11.1886 30.6783 11.3927 30.433C10.9027 30.1876 10.4944 29.9014 10.0453 29.656ZM13.761 20.5779C19.11 19.024 24.7449 18.5333 30.4614 17.0203C28.2156 16.4069 27.0315 16.1616 24.6632 16.4478C21.2333 16.8568 17.4767 17.5928 14.251 18.5333C12.9852 18.9014 6.32952 20.7824 8.24864 23.4404C8.24864 23.4813 9.39195 21.8865 13.761 20.5779ZM33.8505 15.0984C32.993 14.6895 31.8906 14.3214 30.7064 13.9943C30.1756 14.4032 29.6039 14.7713 28.7056 15.0984C30.1348 15.3437 31.2372 15.7527 32.4622 16.1207C32.7072 16.2434 33.6872 15.3028 33.8505 15.0984ZM36.5046 20.2508C36.3413 20.3735 36.1779 20.5371 35.9738 20.6597C34.7488 21.6002 32.8297 22.3363 30.1756 23.0724C24.6632 24.5445 20.6617 24.7898 16.0884 25.8939C15.1901 26.0984 14.2918 26.4255 13.4343 26.7527C14.2918 27.2025 15.1901 27.5705 16.1293 27.9385C17.9667 27.4069 18.865 27.1616 21.56 26.7118C22.5808 26.5482 25.7249 25.9757 28.0115 25.485C32.0947 24.6672 38.0971 22.7452 36.5046 20.2508Z" fill="white"/>
</svg>
