<svg width="332" height="107" viewBox="0 0 332 107" fill="none" xmlns="http://www.w3.org/2000/svg">
<g clip-path="url(#clip0_1_403)">
<path d="M21.1005 75.6497H127.612C132.363 75.6497 136.872 73.8402 140.309 70.5587L160.649 51.1351C164.321 47.6286 166.341 42.9022 166.341 37.8248C166.341 32.7475 164.321 28.0211 160.649 24.5146L140.309 5.09102C136.872 1.80946 132.363 0 127.612 0H21.1005C10.0107 0 0.988281 9.02685 0.988281 20.1221V55.5275C0.988281 66.6228 10.0107 75.6497 21.1005 75.6497ZM5.07543 20.1221C5.07543 11.2827 12.2654 4.08917 21.1005 4.08917H127.612C131.307 4.08917 134.815 5.49653 137.489 8.04885L157.826 27.4724C160.683 30.1985 162.254 33.8754 162.254 37.8248C162.254 41.7743 160.683 45.4511 157.826 48.1773L137.489 67.6008C134.815 70.1532 131.307 71.5605 127.612 71.5605H21.1005C12.2654 71.5605 5.07543 64.367 5.07543 55.5275V20.1221Z" fill="#3A4B41"/>
<path d="M29.4657 53.5H33.9037C38.6652 53.5 42.5412 49.6221 42.5412 44.8582V44.422C42.5412 41.7777 41.3491 39.4128 39.4724 37.8248C41.3457 36.2369 42.5412 33.8685 42.5412 31.2276V30.7914C42.5412 26.0276 38.6652 22.1497 33.9037 22.1497H29.4657C25.7839 22.1497 22.7866 25.1484 22.7866 28.832V46.8176C22.7866 50.5013 25.7839 53.5 29.4657 53.5ZM26.8738 28.832C26.8738 27.4008 28.0386 26.2388 29.4657 26.2388H33.9037C36.4139 26.2388 38.454 28.28 38.454 30.7914V31.2276C38.454 33.7391 36.4139 35.7802 33.9037 35.7802H26.8738V28.832ZM26.8738 39.8694H33.9037C36.4139 39.8694 38.454 41.9106 38.454 44.422V44.8582C38.454 47.3696 36.4139 49.4108 33.9037 49.4108H29.4657C28.0352 49.4108 26.8738 48.2454 26.8738 46.8176V39.8694Z" fill="#3A4B41"/>
<path d="M61.2738 53.0025C66.7199 53.0025 71.151 48.5691 71.151 43.1203V24.1942C71.151 23.0663 70.2348 22.1497 69.1075 22.1497C67.9801 22.1497 67.0639 23.0663 67.0639 24.1942V43.1203C67.0639 46.3133 64.4651 48.9133 61.2738 48.9133C58.0824 48.9133 55.4836 46.3133 55.4836 43.1203V24.1942C55.4836 23.0663 54.5674 22.1497 53.4401 22.1497C52.3127 22.1497 51.3965 23.0663 51.3965 24.1942V43.1203C51.3965 48.5691 55.8276 53.0025 61.2738 53.0025Z" fill="#3A4B41"/>
<path d="M87.1591 38.7177V51.4554C87.1591 52.5834 88.0719 53.5 89.2026 53.5C90.3334 53.5 91.2462 52.5834 91.2462 51.4554V38.7177L98.879 25.6391C99.4478 24.6645 99.1208 23.4105 98.1433 22.8414C97.1692 22.2724 95.9158 22.5995 95.347 23.5775L89.1992 34.1105L83.0515 23.5775C82.4827 22.6029 81.2293 22.2724 80.2552 22.8414C79.2811 23.4105 78.9507 24.6645 79.5195 25.6391L87.1523 38.7177H87.1591Z" fill="#3A4B41"/>
<path d="M109.856 53.8408H128.736C131.443 53.8408 133.868 52.4403 135.224 50.0924C136.579 47.7445 136.579 44.9434 135.224 42.5956L125.786 26.2389C124.43 23.891 122.005 22.4905 119.294 22.4905C116.583 22.4905 114.161 23.891 112.806 26.2389L103.368 42.5956C102.012 44.9434 102.012 47.7445 103.368 50.0924C104.72 52.4403 107.149 53.8408 109.856 53.8408Z" fill="#3A4B41"/>
<path d="M310.89 31.3503H204.326C199.572 31.3503 195.06 33.1598 191.622 36.4414L171.272 55.8649C167.602 59.3714 165.577 64.0978 165.577 69.1752C165.577 74.2526 167.602 78.979 171.272 82.4854L191.622 101.909C195.06 105.191 199.572 107 204.326 107H310.89C321.985 107 331.012 97.9732 331.012 86.8779V51.4725C331.012 40.3772 321.985 31.3503 310.89 31.3503ZM201.722 83.4873H198.178C194.406 83.4873 191.336 80.417 191.336 76.6447C191.336 75.5168 192.252 74.6002 193.38 74.6002C194.508 74.6002 195.425 75.5168 195.425 76.6447C195.425 78.1646 196.662 79.3981 198.178 79.3981H201.722C203.982 79.3981 205.822 77.5648 205.822 75.3089C205.822 73.0531 203.982 71.2198 201.722 71.2198H199.456C194.941 71.2198 191.268 67.5497 191.268 63.0414C191.268 58.5331 194.941 54.8631 199.456 54.8631H203C206.772 54.8631 209.843 57.9334 209.843 61.7056C209.843 62.8336 208.926 63.7502 207.798 63.7502C206.67 63.7502 205.754 62.8336 205.754 61.7056C205.754 60.1858 204.517 58.9523 203 58.9523H199.456C197.197 58.9523 195.357 60.7856 195.357 63.0414C195.357 65.2973 197.197 67.1306 199.456 67.1306H201.722C206.237 67.1306 209.911 70.8006 209.911 75.3089C209.911 79.8173 206.237 83.4873 201.722 83.4873ZM233.73 67.1306C234.858 67.1306 235.775 68.0473 235.775 69.1752C235.775 70.3031 234.858 71.2198 233.73 71.2198H221.122V75.9564C221.122 77.4796 222.359 78.7166 223.882 78.7166H233.73C234.858 78.7166 235.775 79.6332 235.775 80.7612C235.775 81.8891 234.858 82.8058 233.73 82.8058H223.882C220.106 82.8058 217.033 79.7321 217.033 75.9564V61.7056C217.033 57.9334 220.103 54.8631 223.875 54.8631H233.73C234.858 54.8631 235.775 55.7797 235.775 56.9077C235.775 58.0356 234.858 58.9523 233.73 58.9523H223.875C222.356 58.9523 221.122 60.1858 221.122 61.7056V67.1306H233.73ZM258.947 83.1465H248.513C245.057 83.1465 242.249 80.3386 242.249 76.8833V57.2484C242.249 56.1205 243.166 55.2038 244.294 55.2038C245.422 55.2038 246.339 56.1205 246.339 57.2484V76.8833C246.339 78.0828 247.313 79.0574 248.513 79.0574H258.947C260.075 79.0574 260.991 79.974 260.991 81.1019C260.991 82.2299 260.075 83.1465 258.947 83.1465ZM284.504 83.1465H274.07C270.615 83.1465 267.807 80.3386 267.807 76.8833V57.2484C267.807 56.1205 268.723 55.2038 269.851 55.2038C270.979 55.2038 271.896 56.1205 271.896 57.2484V76.8833C271.896 78.0828 272.87 79.0574 274.07 79.0574H284.504C285.632 79.0574 286.549 79.974 286.549 81.1019C286.549 82.2299 285.632 83.1465 284.504 83.1465ZM315.742 63.4674L306.988 78.6314C305.042 82.0016 300.179 82.0016 298.234 78.6314L289.479 63.4674C287.534 60.0972 289.967 55.8854 293.858 55.8854H311.367C315.258 55.8854 317.691 60.0972 315.745 63.4674H315.742Z" fill="#3A4B41"/>
</g>
<defs>
<clipPath id="clip0_1_403">
<rect width="330.024" height="107" fill="white" transform="translate(0.988281)"/>
</clipPath>
</defs>
</svg>
