<svg width="126" height="113" viewBox="0 0 126 113" fill="none" xmlns="http://www.w3.org/2000/svg">
<path d="M95.845 57C95.845 72.1878 83.5328 84.5 68.345 84.5C53.1571 84.5 40.845 72.1878 40.845 57C40.845 41.8122 53.1571 29.5 68.345 29.5C83.5328 29.5 95.845 41.8122 95.845 57Z" fill="#3A4B41"/>
<path fill-rule="evenodd" clip-rule="evenodd" d="M124.836 57.5034L124.336 57.4946C124.342 57.1638 124.345 56.8322 124.345 56.5C124.345 56.1678 124.342 55.8362 124.336 55.5054L124.836 55.4966C124.842 55.8304 124.845 56.1648 124.845 56.5C124.845 56.8352 124.842 57.1696 124.836 57.5034ZM124.766 53.5016L124.267 53.5279C124.232 52.8651 124.185 52.2054 124.127 51.549L124.625 51.505C124.684 52.1673 124.731 52.8329 124.766 53.5016ZM124.414 49.5164L123.918 49.5781C123.836 48.9212 123.743 48.2677 123.638 47.6181L124.132 47.5387C124.237 48.1942 124.331 48.8535 124.414 49.5164ZM123.779 45.5709L123.289 45.668C123.16 45.0179 123.02 44.372 122.869 43.7304L123.356 43.6158C123.508 44.2632 123.649 44.915 123.779 45.5709ZM122.863 41.6787L122.38 41.8107C122.206 41.1728 122.02 40.5394 121.823 39.9109L122.301 39.7616C122.499 40.3958 122.686 41.035 122.863 41.6787ZM121.669 37.8634L121.198 38.0298C120.977 37.4057 120.746 36.7868 120.505 36.1732L120.97 35.99C121.214 36.6092 121.447 37.2337 121.669 37.8634ZM120.204 34.1437L119.746 34.3435C119.482 33.7374 119.207 33.1369 118.922 32.5423L119.373 32.3262C119.661 32.9262 119.938 33.5321 120.204 34.1437ZM118.476 30.5384L118.033 30.7705C117.727 30.1849 117.409 29.6054 117.082 29.0323L117.517 28.7845C117.847 29.3627 118.167 29.9474 118.476 30.5384ZM116.495 27.0663C116.144 26.4992 115.783 25.9389 115.413 25.3855L114.997 25.6637C115.364 26.2121 115.722 26.7675 116.07 27.3295L116.495 27.0663ZM114.271 23.744L113.865 24.0368C113.479 23.5011 113.082 22.9725 112.677 22.4514L113.071 22.1444C113.48 22.6702 113.88 23.2035 114.271 23.744ZM111.816 20.5886L111.433 20.9094C111.009 20.4026 110.576 19.9035 110.134 19.4124L110.506 19.0781C110.952 19.5737 111.388 20.0773 111.816 20.5886ZM109.144 17.6151L108.784 17.9623C108.325 17.4871 107.858 17.0199 107.383 16.5612L107.73 16.2014C108.209 16.6643 108.681 17.1356 109.144 17.6151ZM106.267 14.8387L105.933 15.2106C105.441 14.7691 104.942 14.3363 104.436 13.9123L104.756 13.5288C105.268 13.9566 105.771 14.3933 106.267 14.8387ZM103.201 12.2735L102.894 12.6681C102.372 12.2628 101.844 11.8665 101.308 11.4795L101.601 11.0742C102.141 11.4646 102.675 11.8645 103.201 12.2735ZM99.9594 9.93233L99.6813 10.3478C99.1328 9.98064 98.5775 9.62298 98.0155 9.27508L98.2786 8.84995C98.8457 9.20098 99.4061 9.56185 99.9594 9.93233ZM96.5605 7.82835L96.3127 8.26262C95.7396 7.93557 95.1601 7.61844 94.5744 7.31147L94.8066 6.86862C95.3975 7.17837 95.9822 7.49835 96.5605 7.82835ZM93.0188 5.97198L92.8027 6.42287C92.208 6.13787 91.6076 5.86315 91.0014 5.59895L91.2012 5.1406C91.8128 5.4072 92.4188 5.6844 93.0188 5.97198ZM89.3549 4.37496L89.1717 4.84019C88.5581 4.59856 87.9392 4.36755 87.3152 4.14739L87.4815 3.67587C88.1112 3.89804 88.7358 4.13114 89.3549 4.37496ZM85.5834 3.04438L85.4341 3.52158C84.8055 3.32497 84.1722 3.13923 83.5342 2.9646L83.6663 2.48234C84.31 2.65856 84.9491 2.84598 85.5834 3.04438ZM81.7292 1.98932L81.6146 2.47601C80.9729 2.32493 80.327 2.18499 79.677 2.0564L79.774 1.5659C80.4299 1.69566 81.0817 1.83687 81.7292 1.98932ZM77.8063 1.21315L77.7269 1.70681C77.0772 1.60232 76.4238 1.50911 75.7668 1.42738L75.8285 0.931208C76.4914 1.01367 77.1507 1.10772 77.8063 1.21315ZM73.8399 0.719729L73.7959 1.21779C73.1395 1.15977 72.4798 1.11317 71.817 1.07821L71.8434 0.5789C72.5121 0.61418 73.1777 0.66119 73.8399 0.719729ZM69.8483 0.508808L69.8396 1.00873C69.5087 1.00292 69.1772 1 68.845 1C68.5127 1 68.1812 1.00292 67.8504 1.00873L67.8416 0.508808C68.1753 0.502944 68.5098 0.5 68.845 0.5C69.1801 0.5 69.5146 0.502944 69.8483 0.508808ZM65.8465 0.578901L65.8729 1.07821C65.2101 1.11318 64.5504 1.15977 63.894 1.21779L63.85 0.719731C64.5123 0.661192 65.1778 0.614181 65.8465 0.578901ZM61.8614 0.931211L61.9231 1.42739C61.2661 1.50912 60.6127 1.60233 59.9631 1.70681L59.8837 1.21316C60.5392 1.10773 61.1985 1.01368 61.8614 0.931211ZM57.9159 1.56591L58.0129 2.0564C57.3629 2.18499 56.717 2.32494 56.0753 2.47602L55.9607 1.98933C56.6082 1.83688 57.26 1.69566 57.9159 1.56591ZM54.0237 2.48234L54.1557 2.9646C53.5177 3.13924 52.8844 3.32497 52.2558 3.52159L52.1066 3.04439C52.7408 2.84599 53.3799 2.65857 54.0237 2.48234ZM50.2084 3.67588L50.3748 4.14739C49.7507 4.36756 49.1318 4.59857 48.5182 4.84019L48.335 4.37497C48.9541 4.13115 49.5787 3.89804 50.2084 3.67588ZM46.4887 5.14061L46.6885 5.59895C46.0824 5.86316 45.4819 6.13788 44.8873 6.42287L44.6712 5.97199C45.2712 5.68441 45.8771 5.40721 46.4887 5.14061ZM42.8833 6.86863L43.1155 7.31148C42.5298 7.61845 41.9503 7.93558 41.3773 8.26263L41.1294 7.82836C41.7077 7.49836 42.2924 7.17838 42.8833 6.86863ZM39.4113 8.84995L39.6745 9.27509C39.1124 9.62299 38.5571 9.98065 38.0086 10.3478L37.7305 9.93234C38.2839 9.56186 38.8442 9.20099 39.4113 8.84995ZM36.089 11.0742L36.3817 11.4795C35.846 11.8665 35.3175 12.2628 34.7964 12.6682L34.4894 12.2735C35.0152 11.8645 35.5484 11.4646 36.089 11.0742ZM32.9335 13.5288L33.2544 13.9123C32.7476 14.3363 32.2485 14.7691 31.7573 15.2106L31.4231 14.8388C31.9187 14.3933 32.4222 13.9566 32.9335 13.5288ZM29.9601 16.2015L30.3073 16.5612C29.832 17.0199 29.3649 17.4871 28.9062 17.9624L28.5464 17.6151C29.0092 17.1356 29.4805 16.6643 29.9601 16.2015ZM27.1837 19.0781L27.5556 19.4124C27.1141 19.9036 26.6813 20.4026 26.2573 20.9094L25.8738 20.5886C26.3016 20.0773 26.7383 19.5737 27.1837 19.0781ZM24.6185 22.1444L25.0131 22.4514C24.6077 22.9725 24.2114 23.5011 23.8245 24.0368L23.4191 23.744C23.8096 23.2035 24.2094 22.6702 24.6185 22.1444ZM22.2773 25.3855L22.6928 25.6637C22.3256 26.2121 21.968 26.7675 21.6201 27.3295L21.1949 27.0663C21.546 26.4993 21.9068 25.9389 22.2773 25.3855ZM20.1733 28.7845L20.6076 29.0323C20.2805 29.6054 19.9634 30.1849 19.6564 30.7705L19.2136 30.5384C19.5233 29.9475 19.8433 29.3627 20.1733 28.7845ZM18.317 32.3262L18.7678 32.5423C18.4828 33.1369 18.2081 33.7374 17.9439 34.3435L17.4856 34.1437C17.7522 33.5321 18.0294 32.9262 18.317 32.3262ZM16.7199 35.99L17.1852 36.1732C16.9435 36.7868 16.7125 37.4058 16.4924 38.0298L16.0208 37.8635C16.243 37.2337 16.4761 36.6092 16.7199 35.99ZM15.3894 39.7616L15.8666 39.9109C15.6699 40.5394 15.4842 41.1728 15.3096 41.8107L14.8273 41.6787C15.0035 41.035 15.191 40.3959 15.3894 39.7616ZM14.3343 43.6158L14.821 43.7304C14.6699 44.372 14.53 45.018 14.4014 45.668L13.9109 45.5709C14.0406 44.915 14.1818 44.2632 14.3343 43.6158ZM13.5581 47.5387L14.0518 47.6181C13.9473 48.2677 13.8541 48.9212 13.7724 49.5782L13.2762 49.5164C13.3586 48.8535 13.4527 48.1942 13.5581 47.5387ZM13.0647 51.505L13.5628 51.5491C13.5047 52.2054 13.4581 52.8651 13.4232 53.5279L12.9239 53.5016C12.9592 52.8329 13.0062 52.1673 13.0647 51.505ZM12.8538 55.4966C12.8479 55.8304 12.845 56.1648 12.845 56.5C12.845 56.8352 12.8479 57.1696 12.8538 57.5034L13.3537 57.4946C13.3479 57.1638 13.345 56.8322 13.345 56.5C13.345 56.1678 13.3479 55.8362 13.3537 55.5054L12.8538 55.4966ZM12.9239 59.4984L13.4232 59.4721C13.4581 60.1349 13.5047 60.7946 13.5628 61.451L13.0647 61.495C13.0062 60.8327 12.9592 60.1671 12.9239 59.4984ZM13.2762 63.4836L13.7724 63.4219C13.8541 64.0788 13.9473 64.7323 14.0518 65.3819L13.5581 65.4613C13.4527 64.8058 13.3586 64.1465 13.2762 63.4836ZM13.9109 67.4291L14.4014 67.332C14.53 67.9821 14.6699 68.628 14.821 69.2696L14.3343 69.3842C14.1818 68.7368 14.0406 68.085 13.9109 67.4291ZM14.8273 71.3213L15.3096 71.1893C15.4842 71.8272 15.6699 72.4606 15.8666 73.0891L15.3894 73.2384C15.191 72.6042 15.0035 71.965 14.8273 71.3213ZM16.0208 75.1366C16.243 75.7663 16.4761 76.3908 16.7199 77.01L17.1852 76.8268C16.9435 76.2132 16.7125 75.5943 16.4924 74.9702L16.0208 75.1366ZM17.4856 78.8563L17.9439 78.6565C18.2081 79.2626 18.4828 79.8631 18.7678 80.4577L18.317 80.6738C18.0294 80.0738 17.7522 79.4679 17.4856 78.8563ZM19.2136 82.4616L19.6565 82.2295C19.9634 82.8151 20.2806 83.3946 20.6076 83.9677L20.1733 84.2155C19.8433 83.6373 19.5233 83.0526 19.2136 82.4616ZM21.1949 85.9337L21.6201 85.6705C21.968 86.2325 22.3256 86.7879 22.6928 87.3363L22.2773 87.6145C21.9068 87.0611 21.546 86.5008 21.1949 85.9337ZM23.4192 89.256L23.8245 88.9632C24.2114 89.4989 24.6077 90.0275 25.0131 90.5486L24.6185 90.8556C24.2095 90.3298 23.8096 89.7965 23.4192 89.256ZM25.8738 92.4114L26.2573 92.0906C26.6813 92.5974 27.1141 93.0965 27.5556 93.5876L27.1837 93.9219C26.7383 93.4263 26.3016 92.9227 25.8738 92.4114ZM28.5464 95.3849L28.9062 95.0377C29.3649 95.5129 29.832 95.9801 30.3073 96.4388L29.9601 96.7986C29.4806 96.3357 29.0093 95.8644 28.5464 95.3849ZM31.4231 98.1613L31.7574 97.7894C32.2485 98.2309 32.7476 98.6637 33.2544 99.0877L32.9336 99.4712C32.4222 99.0434 31.9187 98.6067 31.4231 98.1613ZM34.4894 100.727L34.7964 100.332C35.3175 100.737 35.846 101.134 36.3817 101.521L36.089 101.926C35.5485 101.535 35.0152 101.136 34.4894 100.727ZM37.7305 103.068L38.0087 102.652C38.5571 103.019 39.1125 103.377 39.6745 103.725L39.4113 104.15C38.8442 103.799 38.2839 103.438 37.7305 103.068ZM41.1294 105.172L41.3773 104.737C41.9504 105.064 42.5299 105.382 43.1155 105.689L42.8834 106.131C42.2924 105.822 41.7077 105.502 41.1294 105.172ZM44.6712 107.028L44.8873 106.577C45.4819 106.862 46.0824 107.137 46.6885 107.401L46.4887 107.859C45.8771 107.593 45.2712 107.316 44.6712 107.028ZM48.335 108.625L48.5182 108.16C49.1318 108.401 49.7507 108.632 50.3748 108.853L50.2084 109.324C49.5787 109.102 48.9542 108.869 48.335 108.625ZM52.1066 109.956L52.2558 109.478C52.8844 109.675 53.5177 109.861 54.1557 110.035L54.0237 110.518C53.3799 110.341 52.7408 110.154 52.1066 109.956ZM55.9608 111.011L56.0754 110.524C56.717 110.675 57.3629 110.815 58.013 110.944L57.9159 111.434C57.26 111.304 56.6082 111.163 55.9608 111.011ZM59.8837 111.787L59.9631 111.293C60.6127 111.398 61.2661 111.491 61.9231 111.573L61.8614 112.069C61.1985 111.986 60.5392 111.892 59.8837 111.787ZM63.85 112.28L63.894 111.782C64.5504 111.84 65.2101 111.887 65.8729 111.922L65.8466 112.421C65.1779 112.386 64.5123 112.339 63.85 112.28ZM67.8416 112.491L67.8504 111.991C68.1812 111.997 68.5127 112 68.845 112C69.1772 112 69.5087 111.997 69.8396 111.991L69.8484 112.491C69.5146 112.497 69.1801 112.5 68.845 112.5C68.5098 112.5 68.1754 112.497 67.8416 112.491ZM71.8434 112.421L71.817 111.922C72.4798 111.887 73.1395 111.84 73.7959 111.782L73.84 112.28C73.1777 112.339 72.5121 112.386 71.8434 112.421ZM75.8286 112.069L75.7668 111.573C76.4238 111.491 77.0772 111.398 77.7269 111.293L77.8063 111.787C77.1508 111.892 76.4915 111.986 75.8286 112.069ZM79.774 111.434L79.677 110.944C80.327 110.815 80.973 110.675 81.6146 110.524L81.7292 111.011C81.0817 111.163 80.43 111.304 79.774 111.434ZM83.6663 110.518L83.5343 110.035C84.1722 109.861 84.8056 109.675 85.4341 109.478L85.5834 109.956C84.9491 110.154 84.31 110.341 83.6663 110.518ZM87.4815 109.324L87.3152 108.853C87.9392 108.632 88.5582 108.401 89.1718 108.16L89.355 108.625C88.7358 108.869 88.1113 109.102 87.4815 109.324ZM91.2012 107.859L91.0014 107.401C91.6076 107.137 92.2081 106.862 92.8027 106.577L93.0188 107.028C92.4188 107.316 91.8129 107.593 91.2012 107.859ZM94.8066 106.131L94.5745 105.689C95.1601 105.382 95.7396 105.064 96.3127 104.737L96.5605 105.172C95.9822 105.502 95.3975 105.822 94.8066 106.131ZM98.2786 104.15C98.8457 103.799 99.4061 103.438 99.9595 103.068L99.6813 102.652C99.1329 103.019 98.5775 103.377 98.0155 103.725L98.2786 104.15ZM101.601 101.926L101.308 101.521C101.844 101.134 102.372 100.737 102.894 100.332L103.201 100.726C102.675 101.136 102.142 101.535 101.601 101.926ZM104.756 99.4712L104.436 99.0877C104.942 98.6637 105.441 98.2309 105.933 97.7894L106.267 98.1612C105.771 98.6067 105.268 99.0434 104.756 99.4712ZM107.73 96.7985L107.383 96.4388C107.858 95.9801 108.325 95.5129 108.784 95.0376L109.144 95.3849C108.681 95.8644 108.209 96.3357 107.73 96.7985ZM110.506 93.9219L110.134 93.5876C110.576 93.0964 111.009 92.5974 111.433 92.0906L111.816 92.4114C111.388 92.9227 110.952 93.4263 110.506 93.9219ZM113.071 90.8556L112.677 90.5486C113.082 90.0275 113.479 89.4989 113.865 88.9632L114.271 89.256C113.88 89.7965 113.48 90.3298 113.071 90.8556ZM115.413 87.6145L114.997 87.3363C115.364 86.7879 115.722 86.2325 116.07 85.6705L116.495 85.9337C116.144 86.5007 115.783 87.0611 115.413 87.6145ZM117.517 84.2155C117.847 83.6373 118.167 83.0525 118.476 82.4616L118.034 82.2295C117.727 82.8151 117.409 83.3946 117.082 83.9677L117.517 84.2155ZM119.373 80.6738L118.922 80.4577C119.207 79.8631 119.482 79.2626 119.746 78.6565L120.204 78.8563C119.938 79.4679 119.661 80.0738 119.373 80.6738ZM120.97 77.01L120.505 76.8268C120.746 76.2132 120.977 75.5942 121.198 74.9702L121.669 75.1366C121.447 75.7663 121.214 76.3908 120.97 77.01ZM122.301 73.2384L121.823 73.0891C122.02 72.4606 122.206 71.8272 122.38 71.1893L122.863 71.3213C122.686 71.965 122.499 72.6041 122.301 73.2384ZM123.356 69.3842L122.869 69.2696C123.02 68.628 123.16 67.982 123.289 67.332L123.779 67.4291C123.649 68.085 123.508 68.7368 123.356 69.3842ZM124.132 65.4613L123.638 65.3819C123.743 64.7322 123.836 64.0788 123.918 63.4218L124.414 63.4836C124.331 64.1465 124.237 64.8058 124.132 65.4613ZM124.625 61.495L124.127 61.4509C124.185 60.7946 124.232 60.1349 124.267 59.4721L124.766 59.4984C124.731 60.1671 124.684 60.8327 124.625 61.495Z" fill="#3A4B41"/>
<path d="M80.0865 63.5436H68.8666L71.689 66.366L68.553 69.502L57.845 58.8984H80.0865V63.5436Z" fill="white"/>
<path d="M80.2583 55.1035H58.0168V50.4584H69.2367L66.4143 47.636L69.5503 44.5L80.2583 55.1035Z" fill="white"/>
<path d="M120.155 15.655C120.155 22.3681 114.713 27.8101 108 27.8101C101.287 27.8101 95.845 22.3681 95.845 15.655C95.845 8.942 101.287 3.5 108 3.5C114.713 3.5 120.155 8.942 120.155 15.655Z" fill="white"/>
<path d="M25.155 44.655C25.155 51.3681 19.7131 56.8101 13 56.8101C6.28697 56.8101 0.844971 51.3681 0.844971 44.655C0.844971 37.942 6.28697 32.5 13 32.5C19.7131 32.5 25.155 37.942 25.155 44.655Z" fill="white"/>
<path d="M125.155 92.655C125.155 99.3681 119.713 104.81 113 104.81C106.287 104.81 100.845 99.3681 100.845 92.655C100.845 85.942 106.287 80.5 113 80.5C119.713 80.5 125.155 85.942 125.155 92.655Z" fill="white"/>
<path d="M120.085 92.8976H119.453V91.0944C119.453 91.0114 119.385 90.9448 119.301 90.9448C119.297 90.9448 119.293 90.9465 119.289 90.9471C119.285 90.9465 119.282 90.9448 119.278 90.9448H118.693L117.678 89.1474H118.604C118.688 89.1474 118.756 89.0808 118.756 88.9978C118.756 88.9148 118.688 88.8481 118.604 88.8481H117.509L116.416 86.9128C116.396 86.8771 116.362 86.8508 116.321 86.8409C116.282 86.8304 116.238 86.8368 116.203 86.8584L112.942 88.8481H107.765C107.258 88.8481 106.845 89.2537 106.845 89.7523V90.3392C106.845 90.3719 106.847 90.4035 106.85 90.4356V95.7067C106.85 96.4297 107.448 97.0178 108.184 97.0178H119.301C119.385 97.0178 119.453 96.9511 119.453 96.8681V95.0637H120.085C120.288 95.0637 120.479 94.986 120.623 94.8445C120.766 94.7037 120.845 94.516 120.845 94.3167V93.6451C120.845 93.4458 120.766 93.2582 120.622 93.1167C120.479 92.9753 120.288 92.8976 120.085 92.8976ZM116.227 87.1959L118.346 90.9449H115.494C115.42 90.4732 115.005 90.1103 114.505 90.1103C114.005 90.1103 113.591 90.4732 113.517 90.9449H110.085L116.227 87.1959ZM115.184 90.9449H113.826C113.896 90.6392 114.173 90.4095 114.505 90.4095C114.837 90.4089 115.114 90.6386 115.184 90.9449ZM107.765 89.1475H112.452L109.508 90.9449H107.765C107.444 90.9449 107.182 90.7006 107.155 90.3914V90.2599C107.155 90.2505 107.151 90.2424 107.15 90.2336V89.7526C107.15 89.4188 107.426 89.1475 107.765 89.1475ZM119.149 96.7181H108.184C107.617 96.7181 107.155 96.2645 107.155 95.7063V91.0146C107.317 91.1566 107.531 91.2443 107.765 91.2443L119.149 91.2437V92.8979H117.676C117.591 92.8979 117.523 92.9645 117.523 93.0475V94.9145C117.523 94.9975 117.591 95.0641 117.676 95.0641H119.149L119.149 96.7181ZM120.541 94.3169C120.541 94.4367 120.493 94.549 120.407 94.6337C120.321 94.7185 120.207 94.7652 120.085 94.7652L117.828 94.7646V93.1969H120.085C120.204 93.1969 120.322 93.2449 120.407 93.3285C120.493 93.4132 120.541 93.5254 120.541 93.6453V94.3169Z" fill="#3A4B41"/>
<path d="M9.85158 49.9488V46.5049H8.42383V49.9488C8.42383 50.021 8.36934 50.0792 8.30292 50.0792C8.23593 50.0792 8.18143 50.021 8.18143 49.9488V46.3746C8.18143 46.3023 8.23593 46.2442 8.30292 46.2442H9.96796C10.0003 46.2442 10.031 46.2577 10.0537 46.2821C10.0764 46.3066 10.0889 46.3397 10.0889 46.3746V49.9488C10.0889 50.021 10.0349 50.0792 9.96796 50.0792C9.90097 50.0792 9.84704 50.021 9.84704 49.9488H9.85158ZM11.0943 44.837V49.9488C11.0943 50.021 11.1488 50.0792 11.2152 50.0792C11.2822 50.0792 11.3367 50.021 11.3367 49.9488V44.9661H12.7644L12.7639 49.9488C12.7639 50.021 12.8184 50.0792 12.8853 50.0792C12.9518 50.0792 13.0063 50.021 13.0063 49.9488V44.837C13.0063 44.8021 12.9938 44.7691 12.9711 44.7446C12.9484 44.7201 12.9171 44.7067 12.8853 44.7067H11.2197C11.1868 44.7048 11.155 44.7183 11.1312 44.7428C11.1079 44.7672 11.0943 44.8015 11.0943 44.837ZM14.1218 50.0811C14.1541 50.0811 14.1848 50.0676 14.2075 50.0431C14.2302 50.0186 14.2433 49.985 14.2433 49.9507V39.6567H15.671L15.6704 49.949C15.6704 50.0212 15.7249 50.0793 15.7919 50.0793C15.8584 50.0793 15.9129 50.0212 15.9129 49.949V39.5264C15.9129 39.4915 15.9004 39.4584 15.8777 39.434C15.8549 39.4095 15.8237 39.3954 15.7919 39.3954H14.1263C14.0599 39.3954 14.0054 39.4542 14.0054 39.5264V49.949C14.0054 49.9839 14.0184 50.0175 14.0412 50.042C14.0644 50.0665 14.0957 50.08 14.128 50.0793L14.1218 50.0811ZM18.7104 41.0423H17.0454C16.9784 41.0423 16.9239 41.1011 16.9239 41.1727V49.9488C16.9239 50.021 16.9784 50.0792 17.0454 50.0792C17.1118 50.0792 17.1663 50.021 17.1663 49.9488V41.2988H18.5906V49.9488C18.5906 50.021 18.6451 50.0792 18.7121 50.0792C18.7786 50.0792 18.8331 50.021 18.8331 49.9488V41.1727C18.8331 41.1378 18.82 41.1047 18.7973 41.0802C18.774 41.0551 18.7428 41.0417 18.7104 41.0423ZM18.7104 50.5756H8.29667C8.26261 50.5713 8.22798 50.5829 8.20243 50.608C8.17689 50.6325 8.16213 50.668 8.16213 50.7053C8.16213 50.7426 8.17689 50.7781 8.20243 50.8026C8.22798 50.8277 8.26261 50.8394 8.29667 50.8351H18.7104C18.7445 50.8394 18.7791 50.8277 18.8047 50.8026C18.8302 50.7781 18.845 50.7426 18.845 50.7053C18.845 50.668 18.8302 50.6325 18.8047 50.608C18.7791 50.5829 18.7445 50.5713 18.7104 50.5756ZM6.84497 41.6513C6.8444 40.9046 7.11917 40.1885 7.60852 39.661C8.09731 39.1328 8.76151 38.8359 9.45348 38.8359C10.1461 38.8353 10.8097 39.1316 11.2996 39.6591C11.789 40.1867 12.0643 40.9028 12.0643 41.6489C12.0649 42.3956 11.7895 43.111 11.3002 43.6386C10.8108 44.1668 10.1466 44.463 9.45463 44.463C8.76264 44.463 8.09955 44.1662 7.61025 43.6392C7.12089 43.1122 6.84554 42.3969 6.84497 41.6513ZM7.08738 41.6513C7.08738 42.3282 7.33661 42.9776 7.78053 43.4563C8.22447 43.9349 8.82679 44.2036 9.45473 44.2036C10.0827 44.2036 10.6849 43.9349 11.1289 43.4563C11.5729 42.9777 11.8226 42.3283 11.8226 41.6513C11.8226 40.9744 11.5729 40.325 11.1289 39.8463C10.685 39.3671 10.0827 39.0984 9.45473 39.0984C8.82679 39.0984 8.22454 39.3671 7.7801 39.8457C7.33559 40.3243 7.08581 40.9737 7.08581 41.6512L7.08738 41.6513ZM8.54359 40.8973C8.54359 40.4713 8.88874 40.1169 9.33382 40.0631V39.7087C9.33382 39.6371 9.38775 39.5783 9.45474 39.5783C9.52172 39.5783 9.57565 39.6371 9.57565 39.7087V40.0631C9.89697 40.0912 10.1797 40.3042 10.3148 40.6194C10.329 40.6519 10.3301 40.6898 10.3182 40.7235C10.3063 40.7565 10.2819 40.7834 10.2506 40.7969C10.22 40.8104 10.1854 40.8098 10.1547 40.7945C10.1246 40.7798 10.1013 40.7516 10.0905 40.7174C9.99461 40.4982 9.79932 40.3495 9.57565 40.3256V41.4879C10.0207 41.5436 10.3659 41.8974 10.3659 42.3234C10.3659 42.7493 10.0207 43.1037 9.57565 43.1588V43.5119C9.57565 43.5836 9.52172 43.6423 9.45473 43.6423C9.38774 43.6423 9.33381 43.5836 9.33381 43.5119V43.1594C9.01703 43.1306 8.73772 42.9244 8.59921 42.6159C8.57707 42.5516 8.60489 42.48 8.66279 42.4525C8.7224 42.4304 8.78768 42.4598 8.81437 42.521C8.91315 42.7346 9.10616 42.8791 9.32586 42.9048V41.7358C8.88873 41.677 8.54359 41.3245 8.54359 40.8973ZM9.57623 41.7523V42.895C9.88675 42.8442 10.124 42.608 10.124 42.3221C10.124 42.0363 9.88675 41.8013 9.57623 41.7523ZM8.786 40.8973C8.786 41.1831 9.02216 41.4194 9.33382 41.4702V40.3275C9.02159 40.3764 8.786 40.6133 8.786 40.8973Z" fill="#3A4B41"/>
<path d="M108.718 9.78508C108.261 9.18124 107.565 8.83594 106.81 8.83594C106.106 8.83594 105.439 9.14551 104.981 9.68642C104.935 9.73915 104.942 9.8191 104.997 9.86503C105.049 9.90925 105.129 9.90415 105.175 9.84972C105.583 9.36664 106.181 9.08938 106.81 9.08938C107.485 9.08938 108.108 9.39896 108.516 9.93817C108.541 9.97049 108.579 9.9875 108.616 9.9875C108.644 9.9875 108.669 9.97899 108.693 9.96198C108.749 9.91946 108.759 9.83951 108.718 9.78508Z" fill="#3A4B41"/>
<path d="M104.858 10.0687C104.797 10.0364 104.721 10.0585 104.688 10.1197C104.506 10.4582 104.411 10.8443 104.411 11.2339V12.7817C104.411 12.8515 104.467 12.9076 104.537 12.9076C104.607 12.9076 104.663 12.8515 104.663 12.7817V11.2339C104.663 10.8852 104.748 10.5399 104.911 10.2388C104.943 10.1775 104.92 10.101 104.858 10.0687Z" fill="#3A4B41"/>
<path d="M109.082 12.9038C109.151 12.9038 109.207 12.8477 109.207 12.778V11.2335C109.207 10.8763 109.131 10.5344 108.981 10.218C108.951 10.1551 108.876 10.1278 108.813 10.1585C108.75 10.1891 108.723 10.2639 108.753 10.3269C108.888 10.6092 108.956 10.9154 108.956 11.2352V12.7797C108.956 12.8477 109.012 12.9038 109.082 12.9038Z" fill="#3A4B41"/>
<path d="M108.576 13.456C108.646 13.456 108.702 13.3998 108.702 13.3301V11.2311C108.702 10.862 108.596 10.5065 108.397 10.202C108.353 10.1323 108.305 10.0693 108.256 10.0115C107.894 9.58455 107.366 9.33791 106.81 9.33791C106.691 9.33791 106.574 9.34811 106.462 9.37022C106.394 9.38383 106.348 9.45017 106.361 9.51821C106.375 9.58625 106.441 9.63047 106.509 9.61857C106.606 9.59986 106.708 9.58965 106.812 9.58965C107.293 9.58965 107.751 9.80227 108.067 10.1748C108.112 10.2258 108.151 10.2785 108.188 10.3381C108.362 10.6017 108.453 10.9113 108.453 11.2311V13.3284C108.45 13.3998 108.506 13.456 108.576 13.456Z" fill="#3A4B41"/>
<path d="M105.043 13.4574C105.113 13.4574 105.169 13.4013 105.169 13.3316V11.2309C105.169 10.6032 105.534 10.0232 106.099 9.75443C106.162 9.72381 106.189 9.64897 106.159 9.58603C106.128 9.5231 106.053 9.49588 105.99 9.5265C105.337 9.83778 104.917 10.5063 104.917 11.2309V13.3316C104.915 13.4013 104.973 13.4574 105.043 13.4574Z" fill="#3A4B41"/>
<path d="M105.673 11.2339C105.673 10.6079 106.183 10.0976 106.809 10.0976C107.203 10.0976 107.562 10.2983 107.772 10.6368C107.809 10.6964 107.887 10.7151 107.945 10.6777C108.005 10.6402 108.023 10.5637 107.986 10.5042C107.731 10.0925 107.29 9.84588 106.809 9.84588C106.043 9.84588 105.421 10.4684 105.421 11.2339V11.7203C105.421 11.7901 105.477 11.8462 105.547 11.8462C105.616 11.8462 105.673 11.7901 105.673 11.7203V11.2339Z" fill="#3A4B41"/>
<path d="M105.547 13.7918C105.616 13.7918 105.673 13.7356 105.673 13.6659V12.1316C105.673 12.0619 105.616 12.0057 105.547 12.0057C105.477 12.0057 105.421 12.0619 105.421 12.1316V13.6659C105.421 13.7356 105.477 13.7918 105.547 13.7918Z" fill="#3A4B41"/>
<path d="M108.071 13.7905C108.141 13.7905 108.197 13.7344 108.197 13.6647V11.2323C108.197 11.1319 108.187 11.0384 108.168 10.9533C108.153 10.8853 108.086 10.8427 108.018 10.8563C107.95 10.8717 107.908 10.938 107.921 11.006C107.937 11.0741 107.943 11.1489 107.943 11.2306V13.6613C107.945 13.7344 108.001 13.7905 108.071 13.7905Z" fill="#3A4B41"/>
<path d="M110.788 15.5492C110.565 15.4403 110.298 15.4352 110.072 15.5322V15.5067C110.072 15.4811 110.06 15.4556 110.046 15.4352C110.009 15.2838 109.932 15.1427 109.818 15.0287C109.573 14.7838 109.189 14.7106 108.872 14.845V14.714C108.872 14.5218 108.763 14.3432 108.571 14.2275C108.495 14.1799 108.408 14.1425 108.314 14.117C108.107 14.0642 107.872 14.0659 107.673 14.1272V13.3975C107.685 13.3788 107.694 13.3566 107.694 13.3345V11.4226C107.694 11.3171 107.675 11.2185 107.641 11.1266C107.602 11.0195 107.542 10.9191 107.471 10.8392C107.171 10.4956 106.612 10.4479 106.251 10.7388C106.197 10.783 106.188 10.8613 106.232 10.9157C106.277 10.9701 106.355 10.9786 106.409 10.9344C106.67 10.7252 107.064 10.7575 107.28 11.0059C107.331 11.0637 107.374 11.1351 107.403 11.2151C107.413 11.244 107.421 11.2729 107.426 11.3035L107.425 11.3018C107.423 11.3001 107.423 11.3001 107.42 11.2967C107.256 11.1334 107.039 11.045 106.809 11.045C106.784 11.045 106.756 11.0467 106.732 11.0518C106.522 11.0688 106.329 11.1606 106.19 11.3035C106.192 11.295 106.192 11.2865 106.193 11.2763C106.209 11.2083 106.166 11.1402 106.098 11.1249C106.03 11.1096 105.962 11.1521 105.947 11.2202C105.931 11.2882 105.923 11.3563 105.923 11.4226V13.3328C105.923 13.3566 105.931 13.3788 105.943 13.3975V16.2109L105.863 16.0544C105.68 15.6989 105.312 15.476 104.914 15.476C104.742 15.476 104.574 15.5186 104.423 15.5968C104.171 15.7278 103.984 15.9506 103.897 16.2228C103.809 16.4932 103.834 16.7824 103.965 17.0358L105.664 20.3153C105.681 20.3459 105.702 20.3783 105.717 20.3987C105.969 20.8477 106.338 21.227 106.78 21.4924C107.239 21.768 107.765 21.9108 108.302 21.9108C108.843 21.9108 109.371 21.7645 109.832 21.4873C110.276 21.2202 110.641 20.8409 110.9 20.3817C110.9 20.38 110.902 20.3766 110.902 20.3749C111.141 19.9377 111.267 19.4427 111.267 18.9443V16.3248C111.267 16.0952 111.179 15.8775 111.016 15.7159C110.953 15.6478 110.876 15.5951 110.788 15.5492ZM111.019 18.9426C111.019 19.4019 110.905 19.851 110.686 20.2507C110.686 20.2524 110.684 20.2524 110.684 20.2558C110.451 20.6742 110.114 21.0263 109.704 21.2713C108.866 21.7782 107.753 21.7782 106.913 21.2764C106.51 21.0348 106.171 20.6878 105.933 20.266C105.918 20.2456 105.906 20.2235 105.892 20.1997L104.193 16.9202C104.093 16.728 104.074 16.5068 104.14 16.2993C104.207 16.0901 104.349 15.92 104.542 15.8196C104.657 15.7618 104.787 15.7295 104.918 15.7295C105.224 15.7295 105.501 15.8979 105.642 16.1717L105.962 16.7875C105.987 16.8385 106.047 16.8657 106.103 16.8538C106.159 16.8385 106.198 16.7875 106.198 16.7297V11.9091C106.198 11.7152 106.289 11.54 106.431 11.4294C106.535 11.3461 106.666 11.2984 106.811 11.2984C106.818 11.2984 106.828 11.2984 106.836 11.3001C106.966 11.3018 107.088 11.3478 107.19 11.4311C107.207 11.443 107.226 11.4583 107.243 11.477C107.358 11.591 107.421 11.7441 107.421 11.9091V16.0221C107.421 16.0935 107.478 16.1479 107.547 16.1479C107.615 16.1479 107.673 16.0918 107.673 16.0221V14.3959C107.842 14.3245 108.059 14.3109 108.248 14.3602C108.319 14.3772 108.382 14.4061 108.437 14.4402C108.553 14.5116 108.619 14.6085 108.619 14.7123V16.6174C108.619 16.6888 108.677 16.7433 108.745 16.7433C108.816 16.7433 108.871 16.6871 108.871 16.6174V15.1307C109.107 14.976 109.439 15.0049 109.638 15.2073C109.748 15.3179 109.811 15.4641 109.816 15.6206V17.2127C109.816 17.2842 109.872 17.3386 109.942 17.3386C110.01 17.3386 110.068 17.2825 110.068 17.2127V15.8196C110.245 15.7006 110.476 15.6785 110.677 15.7771C110.738 15.8043 110.791 15.8452 110.839 15.8911C110.953 16.0068 111.016 16.1615 111.016 16.3231V18.9426H111.019Z" fill="#3A4B41"/>
</svg>
