<svg width="24" height="25" viewBox="0 0 24 25" fill="none" xmlns="http://www.w3.org/2000/svg">
<g clip-path="url(#clip0_1_541)">
<path fill-rule="evenodd" clip-rule="evenodd" d="M24 3.93335C24 2.27758 22.6558 0.93335 21 0.93335H3C1.34423 0.93335 0 2.27758 0 3.93335V21.9333C0 23.5891 1.34423 24.9333 3 24.9333H21C22.6558 24.9333 24 23.5891 24 21.9333V3.93335Z" fill="black" fill-opacity="0.45"/>
<path d="M6.88157 9.30737H2.86157V21.3993H6.88157V9.30737Z" fill="white"/>
<path d="M4.899 3.47729C3.52364 3.47729 2.625 4.38151 2.625 5.56665C2.625 6.7269 3.49631 7.65606 4.8458 7.65606H4.87177C6.27347 7.65606 7.14595 6.7269 7.14595 5.56665C7.11994 4.38151 6.27356 3.47729 4.899 3.47729Z" fill="white"/>
<path d="M16.7475 9.02319C14.6151 9.02319 13.66 10.1959 13.1252 11.0196V9.30754H9.1062C9.1595 10.4418 9.1062 21.3995 9.1062 21.3995H13.1251V14.6465C13.1251 14.285 13.1511 13.9236 13.2576 13.6653C13.5477 12.9434 14.2094 12.1957 15.3198 12.1957C16.7735 12.1957 17.3559 13.3049 17.3559 14.9298V21.3995H21.375V14.4652C21.375 10.751 19.3919 9.02319 16.7475 9.02319Z" fill="white"/>
</g>
<defs>
<clipPath id="clip0_1_541">
<rect width="24" height="24" fill="white" transform="translate(0 0.93335)"/>
</clipPath>
</defs>
</svg>
