<svg width="24" height="25" viewBox="0 0 24 25" fill="none" xmlns="http://www.w3.org/2000/svg">
<g clip-path="url(#clip0_1_539)">
<path d="M12 3.09635C15.204 3.09635 15.584 3.10835 16.85 3.16635C20.102 3.31435 21.621 4.85735 21.769 8.08535C21.827 9.35035 21.838 9.73035 21.838 12.9344C21.838 16.1393 21.826 16.5183 21.769 17.7833C21.62 21.0084 20.105 22.5543 16.85 22.7023C15.584 22.7603 15.206 22.7724 12 22.7724C8.796 22.7724 8.416 22.7603 7.151 22.7023C3.891 22.5533 2.38 21.0034 2.232 17.7824C2.174 16.5174 2.162 16.1383 2.162 12.9333C2.162 9.72935 2.175 9.35035 2.232 8.08435C2.381 4.85735 3.896 3.31335 7.151 3.16535C8.417 3.10835 8.796 3.09635 12 3.09635ZM12 0.93335C8.741 0.93335 8.333 0.94735 7.053 1.00535C2.695 1.20535 0.273 3.62335 0.073 7.98535C0.014 9.26635 0 9.67435 0 12.9333C0 16.1923 0.014 16.6013 0.072 17.8813C0.272 22.2393 2.69 24.6613 7.052 24.8613C8.333 24.9193 8.741 24.9333 12 24.9333C15.259 24.9333 15.668 24.9193 16.948 24.8613C21.302 24.6613 23.73 22.2433 23.927 17.8813C23.986 16.6013 24 16.1923 24 12.9333C24 9.67435 23.986 9.26635 23.928 7.98635C23.732 3.63235 21.311 1.20635 16.949 1.00635C15.668 0.94735 15.259 0.93335 12 0.93335ZM12 6.77135C8.597 6.77135 5.838 9.53035 5.838 12.9333C5.838 16.3363 8.597 19.0963 12 19.0963C15.403 19.0963 18.162 16.3373 18.162 12.9333C18.162 9.53035 15.403 6.77135 12 6.77135ZM12 16.9333C9.791 16.9333 8 15.1433 8 12.9333C8 10.7243 9.791 8.93335 12 8.93335C14.209 8.93335 16 10.7243 16 12.9333C16 15.1433 14.209 16.9333 12 16.9333ZM18.406 5.08835C17.61 5.08835 16.965 5.73335 16.965 6.52835C16.965 7.32335 17.61 7.96835 18.406 7.96835C19.201 7.96835 19.845 7.32335 19.845 6.52835C19.845 5.73335 19.201 5.08835 18.406 5.08835Z" fill="black" fill-opacity="0.45"/>
</g>
<defs>
<clipPath id="clip0_1_539">
<rect width="24" height="24" fill="white" transform="translate(0 0.93335)"/>
</clipPath>
</defs>
</svg>
