<svg width="114" height="114" viewBox="0 0 114 114" fill="none" xmlns="http://www.w3.org/2000/svg">
<path d="M12.2709 59.3541V82.8958C12.2709 84.1953 13.3255 85.25 14.625 85.25H19.3334V106.437C19.3781 109.51 23.9876 109.55 24.0417 106.437V85.25H28.75C30.0495 85.25 31.1042 84.1953 31.1042 82.8958V59.3541C31.1042 58.0546 30.0495 57 28.75 57H24.0417V49.9375C24.0417 48.638 22.987 47.5833 21.6875 47.5833C20.388 47.5833 19.3334 48.638 19.3334 49.9375V57H14.625C13.3255 57 12.2709 58.0546 12.2709 59.3541ZM16.9792 61.7083H26.3959V80.5416H16.9792V61.7083Z" fill="#3A4B41"/>
<path d="M92.3125 71.125C93.612 71.125 94.6667 70.0703 94.6667 68.7708V57H99.375C100.675 57 101.729 55.9453 101.729 54.6458V16.9791C101.729 15.6796 100.675 14.625 99.375 14.625H94.6667V7.56248C94.6667 6.26298 93.612 5.20831 92.3125 5.20831C91.013 5.20831 89.9584 6.26298 89.9584 7.56248V14.625H85.25C83.9505 14.625 82.8959 15.6796 82.8959 16.9791V54.6458C82.8959 55.9453 83.9505 57 85.25 57H89.9584V68.7708C89.9584 70.0703 91.013 71.125 92.3125 71.125ZM87.6042 19.3333H97.0209V52.2916H87.6042V19.3333Z" fill="#3A4B41"/>
<path d="M68.7709 80.5416C70.0704 80.5416 71.1251 79.487 71.1251 78.1875V71.125H75.8334C77.1329 71.125 78.1876 70.0703 78.1876 68.7708V35.8125C78.1876 34.513 77.1329 33.4583 75.8334 33.4583H71.1251V24.0416C71.1157 20.9812 66.4309 20.9483 66.4167 24.0416V33.4583H61.7084C60.4089 33.4583 59.3542 34.513 59.3542 35.8125V68.7708C59.3542 70.0703 60.4089 71.125 61.7084 71.125H66.4167V78.1875C66.4167 79.487 67.4714 80.5416 68.7709 80.5416ZM64.0626 38.1666H73.4792V66.4166H64.0626V38.1666Z" fill="#3A4B41"/>
<path d="M45.2292 78.1875C46.5287 78.1875 47.5833 77.1328 47.5833 75.8333V66.4166H52.2917C53.5912 66.4166 54.6458 65.362 54.6458 64.0625V26.3958C54.6458 25.0963 53.5912 24.0416 52.2917 24.0416H47.5833V19.3333C47.5833 18.0338 46.5287 16.9791 45.2292 16.9791C43.9297 16.9791 42.875 18.0338 42.875 19.3333V24.0416H38.1667C36.8672 24.0416 35.8125 25.0963 35.8125 26.3958V64.0625C35.8125 65.362 36.8672 66.4166 38.1667 66.4166H42.875V75.8333C42.875 77.1328 43.9297 78.1875 45.2292 78.1875ZM40.5208 28.75H49.9375V61.7083H40.5208V28.75Z" fill="#3A4B41"/>
</svg>
