<svg width="144" height="100" viewBox="0 0 144 100" fill="none" xmlns="http://www.w3.org/2000/svg">
<path d="M0.86792 87.0283H10.6877V99.2294H0.86792V87.0283Z" fill="#3A4B41"/>
<path d="M13.016 68.9517H22.8357V99.2293H13.016V68.9517Z" fill="#3A4B41"/>
<path d="M25.1641 73.2297H34.8654V99.2293H25.1641V73.2297Z" fill="#3A4B41"/>
<path d="M37.1937 65.0806H46.895V99.2293H37.1937V65.0806Z" fill="#3A4B41"/>
<path d="M49.2233 61.9762H58.9247V99.2293H49.2233V61.9762Z" fill="#3A4B41"/>
<path d="M61.253 49.5585H70.9543V99.2293H61.253V49.5585Z" fill="#3A4B41"/>
<path d="M73.2826 56.5435H82.984V99.2293H73.2826V56.5435Z" fill="#3A4B41"/>
<path d="M85.3123 61.5698H95.0136V99.2292H85.3123V61.5698Z" fill="#3A4B41"/>
<path d="M97.3419 36.3647H107.043V99.2293H97.3419V36.3647Z" fill="#3A4B41"/>
<path d="M109.372 25.4992H119.073V99.2293H109.372V25.4992Z" fill="#3A4B41"/>
<path d="M121.401 16.1859H131.103V99.2293H121.401V16.1859Z" fill="#3A4B41"/>
<path d="M133.431 2.60408H143.132V99.2293H133.431V2.60408Z" fill="#3A4B41"/>
<path d="M7.3388 86.785C7.3388 87.7515 6.5553 88.535 5.5888 88.535C4.6223 88.535 3.8388 87.7515 3.8388 86.785C3.8388 85.8185 4.6223 85.035 5.5888 85.035C6.5553 85.035 7.3388 85.8185 7.3388 86.785Z" fill="#3A4B41"/>
<path d="M91.8679 61.561C91.8679 62.5275 91.0844 63.311 90.1179 63.311C89.1514 63.311 88.3679 62.5275 88.3679 61.561C88.3679 60.5945 89.1514 59.811 90.1179 59.811C91.0844 59.811 91.8679 60.5945 91.8679 61.561Z" fill="#3A4B41"/>
<path d="M140.016 2.52069C140.016 3.48719 139.233 4.27069 138.266 4.27069C137.3 4.27069 136.516 3.48719 136.516 2.52069C136.516 1.55419 137.3 0.770691 138.266 0.770691C139.233 0.770691 140.016 1.55419 140.016 2.52069Z" fill="#3A4B41"/>
<path fill-rule="evenodd" clip-rule="evenodd" d="M138.484 2.71682L137.815 3.53749L137.484 3.26793L138.153 2.44726L138.484 2.71682ZM136.477 5.17881L135.14 6.82014L134.809 6.55058L136.146 4.90925L136.477 5.17881ZM133.802 8.46147L132.465 10.1028L132.134 9.83324L133.471 8.19191L133.802 8.46147ZM131.127 11.7441L129.789 13.3855L129.459 13.1159L130.796 11.4746L131.127 11.7441ZM128.452 15.0268L127.114 16.6681L126.784 16.3986L128.121 14.7572L128.452 15.0268ZM125.777 18.3094L124.439 19.9508L124.108 19.6812L125.446 18.0399L125.777 18.3094ZM123.102 21.5921L121.764 23.2334L121.433 22.9639L122.771 21.3226L123.102 21.5921ZM120.426 24.8748L119.089 26.5161L118.758 26.2465L120.096 24.6052L120.426 24.8748ZM117.751 28.1574L116.414 29.7988L116.083 29.5292L117.421 27.8879L117.751 28.1574ZM115.076 31.4401L113.739 33.0814L113.408 32.8119L114.745 31.1705L115.076 31.4401ZM112.401 34.7228L111.064 36.3641L110.733 36.0945L112.07 34.4532L112.401 34.7228ZM109.726 38.0054L108.388 39.6468L108.058 39.3772L109.395 37.7359L109.726 38.0054ZM107.051 41.2881L105.713 42.9294L105.383 42.6599L106.72 41.0185L107.051 41.2881ZM104.376 44.5707L103.038 46.2121L102.707 45.9425L104.045 44.3012L104.376 44.5707ZM101.701 47.8534L100.363 49.4947L100.032 49.2252L101.37 47.5838L101.701 47.8534ZM99.0255 51.1361L97.6879 52.7774L97.3571 52.5078L98.6947 50.8665L99.0255 51.1361ZM96.3503 54.4187L95.0128 56.0601L94.682 55.7905L96.0196 54.1492L96.3503 54.4187ZM93.6752 57.7014L92.3376 59.3427L92.0069 59.0732L93.3444 57.4318L93.6752 57.7014ZM91.0001 60.984L90.2897 61.8557L89.2185 62.1738L89.0971 61.7647L90.0421 61.4841L90.6693 60.7145L91.0001 60.984ZM87.2023 62.7725L85.186 63.3712L85.0645 62.9622L87.0808 62.3635L87.2023 62.7725ZM83.1697 63.9699L81.1535 64.5686L81.032 64.1596L83.0483 63.5609L83.1697 63.9699ZM79.1372 65.1673L77.1209 65.7661L76.9995 65.357L79.0157 64.7583L79.1372 65.1673ZM75.1047 66.3648L73.0884 66.9635L72.9669 66.5544L74.9832 65.9557L75.1047 66.3648ZM71.0721 67.5622L69.0559 68.1609L68.9344 67.7518L70.9507 67.1531L71.0721 67.5622ZM67.0396 68.7596L65.0233 69.3583L64.9019 68.9493L66.9181 68.3506L67.0396 68.7596ZM63.0071 69.957L60.9908 70.5557L60.8693 70.1467L62.8856 69.548L63.0071 69.957ZM58.9745 71.1544L56.9583 71.7532L56.8368 71.3441L58.8531 70.7454L58.9745 71.1544ZM54.942 72.3519L52.9257 72.9506L52.8043 72.5415L54.8205 71.9428L54.942 72.3519ZM50.9095 73.5493L48.8932 74.148L48.7717 73.7389L50.788 73.1402L50.9095 73.5493ZM46.8769 74.7467L44.8607 75.3454L44.7392 74.9364L46.7555 74.3376L46.8769 74.7467ZM42.8444 75.9441L40.8281 76.5428L40.7067 76.1338L42.7229 75.5351L42.8444 75.9441ZM38.8119 77.1415L36.7956 77.7402L36.6741 77.3312L38.6904 76.7325L38.8119 77.1415ZM34.7793 78.339L32.7631 78.9377L32.6416 78.5286L34.6579 77.9299L34.7793 78.339ZM30.7468 79.5364L28.7305 80.1351L28.6091 79.726L30.6253 79.1273L30.7468 79.5364ZM26.7143 80.7338L24.698 81.3325L24.5765 80.9234L26.5928 80.3247L26.7143 80.7338ZM22.6817 81.9312L20.6655 82.5299L20.544 82.1209L22.5603 81.5222L22.6817 81.9312ZM18.6492 83.1286L16.6329 83.7273L16.5115 83.3183L18.5278 82.7196L18.6492 83.1286ZM14.6167 84.326L12.6004 84.9248L12.479 84.5157L14.4952 83.917L14.6167 84.326ZM10.5842 85.5235L8.56789 86.1222L8.44642 85.7131L10.4627 85.1144L10.5842 85.5235ZM6.55162 86.7209L5.54349 87.0202L5.42203 86.6112L6.43016 86.3118L6.55162 86.7209Z" fill="#3A4B41"/>
</svg>
