<svg width="50" height="50" viewBox="0 0 50 50" fill="none" xmlns="http://www.w3.org/2000/svg">
<path d="M25 12.2359C17.9531 12.2359 12.239 17.9484 12.239 24.9969C12.239 32.0453 17.9531 37.7563 25 37.7563C32.0468 37.7563 37.7609 32.0438 37.7609 24.9953C37.7609 17.9469 32.0468 12.2359 25 12.2359ZM29.4765 26.0656L26.0687 29.4734C25.4781 30.0641 24.5218 30.0641 23.9312 29.4734L20.5234 26.0656C19.9328 25.475 19.9328 24.5188 20.5234 23.9281L23.9312 20.5203C24.5218 19.9297 25.4781 19.9297 26.0687 20.5203L29.4765 23.9281C30.0671 24.5172 30.0671 25.475 29.4765 26.0656Z" fill="#E6CFA6"/>
<path d="M18.5437 5.57813C22.6703 4.18281 27.3172 4.17813 31.4672 5.58281C32.9719 6.07656 34.8203 7.08281 36.1531 7.91406C35.5406 9.55469 35.8844 11.4719 37.2031 12.7906C39.0047 14.5938 41.9281 14.5938 43.7297 12.7906C45.5328 10.9891 45.5328 8.06563 43.7297 6.26406C42.1453 4.67969 39.6984 4.49063 37.9047 5.69063C36.3641 4.70781 34.1844 3.51094 32.3547 2.9125C27.6469 1.32188 22.35 1.32188 17.6422 2.9125C16.9062 3.16094 16.5109 3.95938 16.7609 4.69531C17.0094 5.42969 17.8047 5.82656 18.5437 5.57813Z" fill="#E6CFA6"/>
<path d="M31.4563 44.4156C27.3297 45.8109 22.6828 45.8156 18.5328 44.4109C17.2781 44 15.3453 43.0188 13.8328 42.1266C14.4687 40.475 14.1281 38.5344 12.7969 37.2016C10.9937 35.4 8.07188 35.4 6.27031 37.2016C4.46719 39.0047 4.46719 41.9266 6.27031 43.7281C7.83906 45.2969 10.2547 45.4969 12.0438 44.3344C13.7406 45.3641 16.0469 46.5547 17.6453 47.0781C19.9984 47.8734 22.4734 48.2781 25.0016 48.2781C27.5297 48.2781 30.0047 47.8734 32.3578 47.0781C33.0938 46.8297 33.4891 46.0313 33.2391 45.2953C32.9891 44.5609 32.1938 44.1656 31.4563 44.4156Z" fill="#E6CFA6"/>
<path d="M48.2812 24.9969C48.2812 22.4672 47.8781 19.9922 47.0812 17.6406C46.8312 16.9031 46.0343 16.5078 45.2984 16.7594C44.5624 17.0078 44.1687 17.8063 44.4171 18.5422C45.114 20.6031 45.4687 22.7766 45.4687 24.9984C45.4687 27.2203 45.114 29.3938 44.4124 31.4672C43.9671 32.8281 43.0687 34.7328 42.2171 36.1969C40.5484 35.5141 38.5593 35.8484 37.2046 37.2031C35.4015 39.0063 35.4015 41.9281 37.2046 43.7297C39.0062 45.5328 41.9296 45.5328 43.7312 43.7297C45.2718 42.1891 45.4843 39.8375 44.3921 38.0594C45.4187 36.3781 46.5359 34.0234 47.0812 32.3547C47.8781 30.0016 48.2812 27.5266 48.2812 24.9969Z" fill="#E6CFA6"/>
<path d="M5.58281 31.4531C4.88438 29.3906 4.53125 27.2188 4.53125 24.9969C4.53125 22.775 4.88594 20.6016 5.5875 18.5281C6.00312 17.2563 6.98281 15.3203 7.86406 13.8266C9.51719 14.4672 11.4609 14.1266 12.7953 12.7922C14.5969 10.9906 14.5969 8.06719 12.7953 6.26563C10.9922 4.4625 8.07031 4.4625 6.26875 6.26563C4.70156 7.83125 4.5 10.2438 5.65781 12.0313C4.63906 13.7078 3.44844 16.0188 2.91875 17.6406C2.12188 19.9922 1.71875 22.4672 1.71875 24.9969C1.71875 27.5266 2.12188 30.0016 2.91875 32.3531C3.11719 32.9406 3.66406 33.3094 4.25156 33.3094C4.40156 33.3094 4.55312 33.2844 4.70312 33.2344C5.43594 32.9859 5.83125 32.1875 5.58281 31.4531Z" fill="#E6CFA6"/>
</svg>
