<svg width="50" height="51" viewBox="0 0 50 51" fill="none" xmlns="http://www.w3.org/2000/svg">
<path d="M25 13.1692C17.9531 13.1692 12.239 18.8817 12.239 25.9301C12.239 32.9786 17.9531 38.6895 25 38.6895C32.0468 38.6895 37.7609 32.977 37.7609 25.9286C37.7609 18.8801 32.0468 13.1692 25 13.1692ZM29.4765 26.9989L26.0687 30.4067C25.4781 30.9973 24.5218 30.9973 23.9312 30.4067L20.5234 26.9989C19.9328 26.4083 19.9328 25.452 20.5234 24.8614L23.9312 21.4536C24.5218 20.8629 25.4781 20.8629 26.0687 21.4536L29.4765 24.8614C30.0671 25.4504 30.0671 26.4083 29.4765 26.9989Z" fill="#3A4B41"/>
<path d="M18.5437 6.51143C22.6703 5.11611 27.3172 5.11143 31.4672 6.51611C32.9719 7.00986 34.8203 8.01611 36.1531 8.84736C35.5406 10.488 35.8844 12.4052 37.2031 13.7239C39.0047 15.5271 41.9281 15.5271 43.7297 13.7239C45.5328 11.9224 45.5328 8.99893 43.7297 7.19736C42.1453 5.61299 39.6984 5.42393 37.9047 6.62393C36.3641 5.64111 34.1844 4.44424 32.3547 3.8458C27.6469 2.25518 22.35 2.25518 17.6422 3.8458C16.9062 4.09424 16.5109 4.89268 16.7609 5.62861C17.0094 6.36299 17.8047 6.75986 18.5437 6.51143Z" fill="#3A4B41"/>
<path d="M31.4563 45.3489C27.3297 46.7442 22.6828 46.7489 18.5328 45.3442C17.2781 44.9333 15.3453 43.9521 13.8328 43.0599C14.4687 41.4083 14.1281 39.4677 12.7969 38.1349C10.9937 36.3333 8.07188 36.3333 6.27031 38.1349C4.46719 39.938 4.46719 42.8599 6.27031 44.6614C7.83906 46.2302 10.2547 46.4302 12.0438 45.2677C13.7406 46.2974 16.0469 47.488 17.6453 48.0114C19.9984 48.8067 22.4734 49.2114 25.0016 49.2114C27.5297 49.2114 30.0047 48.8067 32.3578 48.0114C33.0938 47.763 33.4891 46.9646 33.2391 46.2286C32.9891 45.4942 32.1938 45.0989 31.4563 45.3489Z" fill="#3A4B41"/>
<path d="M48.2812 25.9302C48.2812 23.4005 47.8781 20.9255 47.0812 18.574C46.8312 17.8365 46.0343 17.4412 45.2984 17.6927C44.5624 17.9412 44.1687 18.7396 44.4171 19.4755C45.114 21.5365 45.4687 23.7099 45.4687 25.9318C45.4687 28.1537 45.114 30.3271 44.4124 32.4005C43.9671 33.7615 43.0687 35.6662 42.2171 37.1302C40.5484 36.4474 38.5593 36.7818 37.2046 38.1365C35.4015 39.9396 35.4015 42.8615 37.2046 44.663C39.0062 46.4662 41.9296 46.4662 43.7312 44.663C45.2718 43.1224 45.4843 40.7708 44.3921 38.9927C45.4187 37.3115 46.5359 34.9568 47.0812 33.288C47.8781 30.9349 48.2812 28.4599 48.2812 25.9302Z" fill="#3A4B41"/>
<path d="M5.58281 32.3865C4.88438 30.324 4.53125 28.1521 4.53125 25.9303C4.53125 23.7084 4.88594 21.535 5.5875 19.4615C6.00312 18.1896 6.98281 16.2537 7.86406 14.76C9.51719 15.4006 11.4609 15.06 12.7953 13.7256C14.5969 11.924 14.5969 9.00059 12.7953 7.19902C10.9922 5.3959 8.07031 5.3959 6.26875 7.19902C4.70156 8.76465 4.5 11.1771 5.65781 12.9646C4.63906 14.6412 3.44844 16.9521 2.91875 18.574C2.12188 20.9256 1.71875 23.4006 1.71875 25.9303C1.71875 28.46 2.12188 30.935 2.91875 33.2865C3.11719 33.874 3.66406 34.2428 4.25156 34.2428C4.40156 34.2428 4.55312 34.2178 4.70312 34.1678C5.43594 33.9193 5.83125 33.1209 5.58281 32.3865Z" fill="#3A4B41"/>
</svg>
