<svg width="17" height="15" viewBox="0 0 17 15" fill="none" xmlns="http://www.w3.org/2000/svg">
<path fill-rule="evenodd" clip-rule="evenodd" d="M1.10995 0.505997L15.7948 7.0508C15.8852 7.08134 15.9644 7.13846 16.0219 7.21469C16.0795 7.29092 16.1127 7.38269 16.1172 7.47797C16.1217 7.57325 16.0973 7.6676 16.0472 7.74864C15.9971 7.82968 15.9237 7.89363 15.8365 7.93211L1.132 14.514C1.04754 14.552 0.953729 14.5643 0.862199 14.5494C0.77067 14.5345 0.685458 14.4931 0.61714 14.4302C0.548821 14.3674 0.500406 14.286 0.477904 14.196C0.455402 14.106 0.459804 14.0115 0.490564 13.9241L2.23084 8.91077L10.1161 7.52178L2.24561 6.11214L0.471905 1.0942C0.441205 1.00697 0.436692 0.912725 0.458922 0.823096C0.481152 0.733468 0.529153 0.652376 0.597001 0.589828C0.66485 0.52728 0.749578 0.486011 0.840731 0.471114C0.931884 0.456217 1.02547 0.468343 1.10995 0.505997Z" fill="white"/>
</svg>
