<svg width="290" height="73" viewBox="0 0 290 73" fill="none" xmlns="http://www.w3.org/2000/svg">
<g clip-path="url(#clip0_241_203)">
<g clip-path="url(#clip1_241_203)">
<g clip-path="url(#clip2_241_203)">
<path fill-rule="evenodd" clip-rule="evenodd" d="M0 25.4004C0 25.4004 39.8 20.2004 41 20.0004C42.7 19.7004 44.3 19.4004 45.7 19.0004C48.9 18.1004 51.9 16.8004 54.5 15.0004C57 13.3004 59.4 10.8004 61.7 8.10039C63.2 6.40039 64.7 4.10039 66.2 1.90039V0.900391C64.5 3.50039 62.8 5.70039 61.1 7.60039C58.8 10.2004 56.4 12.3004 53.9 13.9004C51.4 15.5004 48.5 16.8004 45.4 17.6004C44 18.0004 42.5 18.2004 40.8 18.5004C39.7 18.7004 38.6 18.8004 37.5 18.9004C37 18.9004 0 22.8004 0 22.8004V25.4004Z" fill="white"/>
<mask id="mask0_241_203" style="mask-type:alpha" maskUnits="userSpaceOnUse" x="0" y="6" width="67" height="23">
<path fill-rule="evenodd" clip-rule="evenodd" d="M0 6.10059H66.0999V28.9006H0V6.10059Z" fill="white"/>
</mask>
<g mask="url(#mask0_241_203)">
<path fill-rule="evenodd" clip-rule="evenodd" d="M53.4 18.7006C50.9 20.1006 48 21.2006 44.8 21.8006C43.4 22.1006 42 22.3006 40.3 22.5006C39.3 22.6006 38.3 22.7006 37.3 22.8006C36.8 22.8006 36.2 22.9006 35.7 22.9006C23.5 24.1006 11.4 25.2006 0 26.3006V28.9006C11.4 27.5006 23.7 26.0006 35.9 24.6006C36.4 24.5006 37 24.5006 37.5 24.4006C38.5 24.3006 39.5 24.2006 40.5 24.0006C42.2 23.8006 43.8 23.5006 45.1 23.2006C48.4 22.5006 51.4 21.3006 54 19.7006C56.6 18.1006 58.8 16.0006 61.3 13.3006C62.8 11.6006 64.5 9.30059 66.1 7.10059V6.10059C64.2 8.60059 62.5 10.8006 60.7 12.6006C58.3 15.3006 55.9 17.3006 53.4 18.7006Z" fill="white"/>
</g>
<mask id="mask1_241_203" style="mask-type:alpha" maskUnits="userSpaceOnUse" x="0" y="11" width="67" height="22">
<path fill-rule="evenodd" clip-rule="evenodd" d="M0 11.8008H66.0999V32.4008H0V11.8008Z" fill="white"/>
</mask>
<g mask="url(#mask1_241_203)">
<path fill-rule="evenodd" clip-rule="evenodd" d="M60.4 18.1008C58 20.3008 55.4 22.1008 52.9 23.4008C50.4 24.6008 47.6 25.5008 44.3 26.0008C42.9 26.2008 41.5 26.4008 39.8 26.6008L0 29.8008V32.4008L35.3 28.6008L39.9 28.1008C41.6 27.9008 43.1 27.7008 44.5 27.4008C47.9 26.8008 50.8 25.8008 53.4 24.5008C56.1 23.1008 58.7 20.9008 61.2 18.5008C62.9 16.9008 64.4 14.8008 66.1 12.7008V11.8008C64.1 14.3008 62.3 16.3008 60.4 18.1008Z" fill="white"/>
</g>
<mask id="mask2_241_203" style="mask-type:alpha" maskUnits="userSpaceOnUse" x="0" y="22" width="67" height="18">
<path fill-rule="evenodd" clip-rule="evenodd" d="M0 22.6006H66.1998V39.4006H0V22.6006Z" fill="white"/>
</mask>
<g mask="url(#mask2_241_203)">
<path fill-rule="evenodd" clip-rule="evenodd" d="M50.8 31.5006C48.5 32.8006 46.8 33.6006 43.5 33.9006C41.5 34.1006 39.5 34.2006 37.5 34.3006C36.5 34.3006 35.6 34.4006 34.6 34.5006C28.6 34.8006 22.7 35.2006 16.7 35.6006L0 36.8006V39.4006L16.8 37.8006C22.2 37.3006 28.5 36.7006 34.7 36.2006L39.2 35.9006C40.9 35.8006 42.4 35.6006 43.7 35.4006C47.1 35.0006 50 34.3006 52.6 33.3006C55.4 32.3006 58 30.6006 60.6 28.7006C63 27.0006 66.2 23.6006 66.2 23.5006V22.6006C64.1 24.7006 62.8 25.9006 60.5 27.4006C57.6 29.4006 52.9 30.4006 50.8 31.5006Z" fill="white"/>
</g>
<path fill-rule="evenodd" clip-rule="evenodd" d="M51.6006 36.5008C49.1006 37.2008 46.3006 37.7008 43.0006 38.0008C41.7006 38.1008 40.2006 38.2008 38.6006 38.3008L34.2006 38.5008C23.2006 39.0008 12.2006 39.6008 0.100586 40.2008V42.8008C11.7006 41.9008 23.0006 41.0008 34.4006 40.2008L38.8006 39.9008C40.5006 39.8008 41.9006 39.7008 43.3006 39.5008C46.7006 39.1008 49.6006 38.5008 52.1006 37.7008C54.9006 36.8008 57.7006 35.5008 60.3006 33.8008C62.2006 32.6008 64.2006 31.1008 66.2006 29.3008C64.0006 31.2008 61.9006 31.6008 59.8006 32.9008C57.1006 34.5008 54.4006 35.7008 51.6006 36.5008Z" fill="white"/>
<path fill-rule="evenodd" clip-rule="evenodd" d="M51.2 40.8006C48.7 41.4006 45.9 41.8006 42.6 41.9996C41.3 42.1006 39.9 42.1996 38.2 42.1996L33.8 42.4006C22.7 42.8006 11.5 43.3006 0 43.8006V46.4006C11.4 45.6006 22.6 44.9006 33.9 44.1006L38.3 43.8006C40 43.6996 41.4 43.6006 42.7 43.4996C46.1 43.1996 48.9 42.6996 51.5 41.9996C54.4 41.1996 57.2 40.1006 59.9 38.6996C62 37.6006 64 36.3006 66.1 34.6996V33.6006C63.8 35.3006 61.6 36.6006 59.4 37.6996C56.8 39.1006 54 40.1006 51.2 40.8006Z" fill="white"/>
<mask id="mask3_241_203" style="mask-type:alpha" maskUnits="userSpaceOnUse" x="0" y="39" width="67" height="11">
<path fill-rule="evenodd" clip-rule="evenodd" d="M0 39.1006H66.1998V49.6996H0V39.1006Z" fill="white"/>
</mask>
<g mask="url(#mask3_241_203)">
<path fill-rule="evenodd" clip-rule="evenodd" d="M50.8 44.9996C48.3 45.4996 45.5 45.8006 42.2 45.8996C40.9 45.9996 39.6 45.9996 37.9 46.1006L0 47.1006V49.6996L33.6 47.8996L38 47.6996C39.7 47.6006 41.1 47.4996 42.4 47.3996C45.8 47.1006 48.5 46.8006 51.1 46.1996C54 45.6006 56.9 44.6996 59.6 43.4996C61.8 42.6006 63.9 41.4996 66.2 40.1006V39.1006C63.8 40.4996 61.5 41.6006 59.2 42.4996C56.5 43.6996 53.7 44.4996 50.8 44.9996Z" fill="white"/>
</g>
<path fill-rule="evenodd" clip-rule="evenodd" d="M50.5 49.2002C45.8 49.8012 41.1 49.9002 36.4 50.0002C35.3 50.0002 34.3 50.0002 33.2 50.1002L0 50.7002V53.3012L33.3 51.9002C34.4 51.9002 35.4 51.8012 36.5 51.8012C41.2 51.6002 46 51.4002 50.7 50.7002C53.7 50.2002 56.6 49.5002 59.2 48.6002C61.4 47.9002 63.7 46.9002 66 45.7002V44.7002C63.6 45.8012 61.1 46.8012 58.8 47.5002C56.3 48.2002 53.5 48.9002 50.5 49.2002Z" fill="white"/>
<mask id="mask4_241_203" style="mask-type:alpha" maskUnits="userSpaceOnUse" x="0" y="50" width="67" height="7">
<path fill-rule="evenodd" clip-rule="evenodd" d="M0 50.1006H66.1998V56.6996H0V50.1006Z" fill="white"/>
</mask>
<g mask="url(#mask4_241_203)">
<path fill-rule="evenodd" clip-rule="evenodd" d="M50.3 53.4996C45.9 53.8996 41.5 53.8996 37.1 53.8996H33.1C22.1 53.8996 11.1 53.9996 0 54.1006V56.6996C10.6 56.3006 21.9 55.9996 33.2 55.6006C34.5 55.6006 35.9 55.4996 37.2 55.4996C41.5 55.3996 46 55.3006 50.4 54.8006C53.5 54.4996 56.3 53.9996 59 53.3006C61.3 52.6996 63.7 51.8996 66.2 50.9996V50.1006C63.7 50.9996 61.2 51.6996 58.8 52.3006C56.1 52.8996 53.3 53.3006 50.3 53.4996Z" fill="white"/>
</g>
<path fill-rule="evenodd" clip-rule="evenodd" d="M50.1 57.6998C48.3 57.8008 46.3 57.8008 44.1 57.8008H41.6L33 57.6998C27.1 57.6998 21.3 57.5998 15.8 57.5998L0 57.6998V60.3008L15.9 59.8998C21.4 59.8008 27.2 59.5998 33 59.4998L41.6 59.3998C44 59.3998 47.1 59.3008 50.2 59.0998C53.3 58.8998 56.1 58.5998 58.8 58.1998C61.2 57.8008 63.7 57.3008 66.2 56.6998V55.8008C63.7 56.3998 61.1 56.8998 58.7 57.1998C55.9 57.3998 53.2 57.5998 50.1 57.6998Z" fill="white"/>
<path fill-rule="evenodd" clip-rule="evenodd" d="M41.5 61.8004L32.9 61.6994C22 61.4994 11.1 61.3004 0 61.1004V63.6994C10.6 63.6004 21.8 63.4994 32.9 63.4004L41.5 63.3004C44.4 63.3004 47.2 63.1994 50.1 63.1004C56 62.9004 61.2 62.4994 66.2 61.8004V60.9004C61.3 61.4004 56 61.6994 50.1 61.8004H41.5Z" fill="white"/>
<path fill-rule="evenodd" clip-rule="evenodd" d="M66.1 66.4002L0 64.7002V67.3002H66.1V66.4002Z" fill="white"/>
<path fill-rule="evenodd" clip-rule="evenodd" d="M60.2 22.9008C57.7 24.9008 55.7 26.4008 52.7 27.6008C50 28.7008 47.1 29.1008 43.9 29.6008C41.8 29.9008 39.6 30.3008 37.5 30.5008C36.6 30.6008 35.8 30.6008 34.9 30.7008L0 33.2008V35.8008L34.9 32.4008L39.4 32.0008C41.1 31.8008 42.6 31.7008 44 31.4008C47.4 30.9008 50.3 30.0008 52.9 28.8008C55.6 27.6008 58.4 25.6008 60.9 23.5008C62.6 22.0008 64.3 20.2008 66.1 18.2008V17.3008C63.9 19.5008 62.1 21.4008 60.2 22.9008Z" fill="white"/>
<path fill-rule="evenodd" clip-rule="evenodd" d="M94.2002 0.900391C94.2002 0.900391 106.1 19.8004 108.3 23.3004C110.5 26.8004 113 29.5004 121.8 31.4004C130.6 33.3004 134.4 34.1004 134.4 34.1004V34.8004C134.4 34.8004 128.8 33.6004 121.6 32.0004C114.4 30.4004 111.5 29.9004 108.2 25.3004C105.5 21.5004 94.2002 5.40039 94.2002 5.40039V0.900391Z" fill="white"/>
<path fill-rule="evenodd" clip-rule="evenodd" d="M94.2002 22.501C94.2002 22.501 105 33.801 108.2 37.101C111.5 40.601 115.8 41.801 121.7 42.901C127.3 43.901 134.4 45.101 134.4 45.101V45.701C134.4 45.701 127.7 44.601 121.7 43.601C115.8 42.601 111.6 42.001 108.2 38.901C105.2 36.101 94.3002 25.901 94.3002 25.901L94.2002 22.501Z" fill="white"/>
<path fill-rule="evenodd" clip-rule="evenodd" d="M94.2002 27.7002C94.2002 27.7002 104.5 37.3002 108.2 40.5002C111.6 43.5002 114.3 44.4002 121.7 45.8012C129.1 47.1002 134.4 47.9002 134.4 47.9002V48.6002C134.4 48.6002 127.7 47.5002 121.7 46.5002C115.7 45.5002 111.8 45.2002 108.2 42.2002C104 38.8012 94.2002 30.8002 94.2002 30.8002V27.7002Z" fill="white"/>
<path fill-rule="evenodd" clip-rule="evenodd" d="M94.2002 33.1006C94.2002 33.1006 106 42.4006 108.2 44.1006C110.4 45.7006 113.3 47.6006 121.7 48.9006C130.1 50.1006 134.4 50.7006 134.4 50.7006V51.4006C134.4 51.4006 126.8 50.3006 121.7 49.7006C116.6 49.1006 112.7 48.8006 108.2 45.8006C103.8 42.9006 94.2002 36.1006 94.2002 36.1006V33.1006Z" fill="white"/>
<path fill-rule="evenodd" clip-rule="evenodd" d="M94.2002 38.3008C94.2002 38.3008 106 46.1998 108.2 47.4008C110.4 48.6008 113.1 50.6998 121.7 51.8008C130.3 52.9008 134.4 53.4008 134.4 53.4008V54.1008C134.4 54.1008 127.3 53.3008 121.7 52.6998C116.1 52.1008 112.3 51.3008 108.2 48.9998C104.1 46.6998 94.2002 40.9998 94.2002 40.9998V38.3008Z" fill="white"/>
<path fill-rule="evenodd" clip-rule="evenodd" d="M94.2002 43.6006C94.2002 43.6006 104.6 49.3006 108.2 50.9996C112.1 52.9996 115.5 53.9006 121.7 54.7006C127.8 55.4006 134.4 56.1006 134.4 56.1006V56.7006C134.4 56.7006 128.3 55.9996 121.7 55.4006C115.2 54.8006 112.9 54.4996 108.2 52.4006C104 50.4996 94.2002 45.9996 94.2002 45.9996V43.6006Z" fill="white"/>
<path fill-rule="evenodd" clip-rule="evenodd" d="M94.2006 48.9004C94.2006 48.9004 102.401 52.4004 108.201 54.7004C113.901 57.0004 118.201 57.2004 121.701 57.5004C123.201 57.7004 134.301 58.8004 134.301 58.8004V59.4004C134.301 59.4004 127.701 58.9004 121.601 58.3004C115.601 57.8004 113.001 57.5004 108.101 55.9004C103.201 54.3004 94.1006 51.1004 94.1006 51.1004L94.2006 48.9004Z" fill="white"/>
<path fill-rule="evenodd" clip-rule="evenodd" d="M94.2002 54.3008C94.2002 54.3008 102.5 56.9008 108.2 58.4008C113.9 59.9008 119.1 60.4998 121.7 60.6998C124.3 60.9008 134.4 61.6998 134.4 61.6998V62.3008C134.4 62.3008 128.7 61.9008 121.7 61.4008C116 60.9998 111.5 60.6008 108.2 59.8008C104.5 58.9998 94.2002 56.4998 94.2002 56.4998V54.3008Z" fill="white"/>
<path fill-rule="evenodd" clip-rule="evenodd" d="M94.2002 59.6006C94.2002 59.6006 101 60.8006 108.2 61.9996C113.6 62.9006 120.9 63.4996 121.7 63.4996C122.5 63.4996 134.4 64.4006 134.4 64.4006V64.9996C134.4 64.9996 126.8 64.6006 121.7 64.3006C116.4 63.9996 111.2 63.7006 108.2 63.4006C101.5 62.7006 94.2002 61.8006 94.2002 61.8006V59.6006Z" fill="white"/>
<path fill-rule="evenodd" clip-rule="evenodd" d="M94.2002 65.2002C94.2002 65.2002 104.9 65.6002 108.2 65.7002C111.5 65.8012 134.4 66.7002 134.4 66.7002V67.3012H94.2002V65.2002Z" fill="white"/>
<path fill-rule="evenodd" clip-rule="evenodd" d="M121.7 34.2998C112 32.1998 109.8 28.6998 108.2 26.4998C106.6 24.2998 94.2998 6.2998 94.2998 6.2998V10.3998C94.7998 10.9998 105.3 24.7998 108.3 28.5998C111.6 32.8998 116.8 33.8998 121.8 34.8998C126.8 35.9998 134.5 37.4998 134.5 37.4998V36.8998C134.4 36.8998 124.2 34.8998 121.7 34.2998Z" fill="white"/>
<path fill-rule="evenodd" clip-rule="evenodd" d="M121.7 37.1998C113.7 35.5998 110.5 33.0998 108.2 30.0998C105.9 26.9998 94.2998 11.7998 94.2998 11.7998V15.5998C94.7998 16.1998 105.4 28.6998 108.2 31.9998C111.5 35.7998 116.1 36.7998 121.7 37.7998C127.3 38.8008 134.4 40.1998 134.4 40.1998V39.5998C134.4 39.5998 126.3 38.0998 121.7 37.1998Z" fill="white"/>
<path fill-rule="evenodd" clip-rule="evenodd" d="M121.7 40.101C113.4 38.5 111.7 37.201 108.2 33.301C106 30.901 94.7002 17.601 94.2002 17.001V20.501C94.2002 20.501 104.7 31.701 108.1 35.101C112.5 39.5 116.7 39.801 121.6 40.701C126.5 41.601 134.3 43 134.3 43V42.401C134.4 42.401 125 40.801 121.7 40.101Z" fill="white"/>
<mask id="mask5_241_203" style="mask-type:alpha" maskUnits="userSpaceOnUse" x="0" y="0" width="258" height="68">
<path fill-rule="evenodd" clip-rule="evenodd" d="M0 67.6004H257.5V0.900391H0V67.6004Z" fill="white"/>
</mask>
<g mask="url(#mask5_241_203)">
<path fill-rule="evenodd" clip-rule="evenodd" d="M27.5 67.2H85.4V28.5H27.5V67.2Z" fill="#004494" stroke="white" stroke-width="2"/>
<path fill-rule="evenodd" clip-rule="evenodd" d="M57.1004 34H59.1004L57.5004 35.3L58.1004 37.3L56.5004 36.1L54.9004 37.3L55.5004 35.3L53.9004 34H55.9004L56.5004 32L57.1004 34Z" fill="#FFF100"/>
<path fill-rule="evenodd" clip-rule="evenodd" d="M57.1004 59.8004H59.1004L57.5004 60.9994L58.1004 62.9004L56.5004 61.6994L54.9004 62.9004L55.5004 60.9994L53.9004 59.8004H55.9004L56.5004 57.9004L57.1004 59.8004Z" fill="#FFF100"/>
<path fill-rule="evenodd" clip-rule="evenodd" d="M63.4998 58.1002H65.4998L63.8998 59.3002L64.4998 61.2002L62.8998 59.9992L61.2998 61.2002L61.8998 59.3002L60.2998 58.1002H62.2998L62.8998 56.2002L63.4998 58.1002Z" fill="#FFF100"/>
<path fill-rule="evenodd" clip-rule="evenodd" d="M63.5004 35.6998H65.5004L63.9004 36.8998L64.5004 38.8008L62.9004 37.5998L61.3004 38.8998L62.0004 36.8998L60.4004 35.6998H62.4004L63.0004 33.7998L63.5004 35.6998Z" fill="#FFF100"/>
<path fill-rule="evenodd" clip-rule="evenodd" d="M68.2996 40.4996H70.2996L68.6996 41.6996L69.2996 43.6006L67.6996 42.3996L66.0996 43.6006L66.6996 41.6996L65.0996 40.4996H67.0996L67.6996 38.6006L68.2996 40.4996Z" fill="#FFF100"/>
<path fill-rule="evenodd" clip-rule="evenodd" d="M68.2996 53.4996H70.2996L68.6996 54.6996L69.2996 56.6006L67.6996 55.3996L66.0996 56.6006L66.6996 54.6996L65.0996 53.4996H67.0996L67.6996 51.6006L68.2996 53.4996Z" fill="#FFF100"/>
<path fill-rule="evenodd" clip-rule="evenodd" d="M70.0998 46.9H72.0998L70.4998 48.1L71.0998 50L69.4998 48.8L67.8998 50L68.4998 48.1L66.7998 46.9H68.7998L69.3998 45L70.0998 46.9Z" fill="#FFF100"/>
<path fill-rule="evenodd" clip-rule="evenodd" d="M50.4998 35.6994H52.4998L50.8998 36.8994L51.4998 38.8004L49.9998 37.6994L48.2998 38.8994L48.8998 36.9994L47.2998 35.7994H49.2998L49.9998 33.8994L50.4998 35.6994Z" fill="#FFF100"/>
<path fill-rule="evenodd" clip-rule="evenodd" d="M45.9002 40.4996H47.9002L46.3002 41.6996L46.9002 43.6006L45.3002 42.3996L43.7002 43.6006L44.3002 41.6996L42.7002 40.4996H44.7002L45.3002 38.6006L45.9002 40.4996Z" fill="#FFF100"/>
<path fill-rule="evenodd" clip-rule="evenodd" d="M44.2 46.9H46.2L44.6 48.1L45.2 50L43.6 48.8L42 50L42.6 48.1L41 46.9H43L43.6 45L44.2 46.9Z" fill="#FFF100"/>
<path fill-rule="evenodd" clip-rule="evenodd" d="M45.9002 53.4996H47.9002L46.3002 54.6996L46.9002 56.6006L45.3002 55.3996L43.7002 56.6006L44.3002 54.6996L42.7002 53.4996H44.7002L45.3002 51.6006L45.9002 53.4996Z" fill="#FFF100"/>
<path fill-rule="evenodd" clip-rule="evenodd" d="M50.6004 58.1998H52.6004L51.0004 59.3998L51.6004 61.3008L50.0004 60.0998L48.4004 61.3008L49.0004 59.3998L47.4004 58.1998H49.4004L50.0004 56.3008L50.6004 58.1998Z" fill="#FFF100"/>
<path fill-rule="evenodd" clip-rule="evenodd" d="M143.4 34.0006C143.4 33.7006 143.5 33.6006 143.8 33.6006H151.2C151.5 33.6006 151.6 33.7006 151.6 34.0006V35.2006C151.6 35.4006 151.5 35.6006 151.2 35.6006H145.7V39.1006H150.6C150.9 39.1006 151 39.2006 151 39.5006V40.7006C151 40.9006 150.9 41.1006 150.6 41.1006H145.7V45.1006H151.3C151.5 45.1006 151.7 45.2006 151.7 45.5006V46.7006C151.7 46.9006 151.6 47.1006 151.3 47.1006H143.8C143.5 47.1006 143.4 47.0006 143.4 46.7006V34.0006Z" fill="white"/>
<path fill-rule="evenodd" clip-rule="evenodd" d="M161.8 46.9998H160.401C160.3 46.9998 160.2 46.9998 160.1 46.8998C160 46.8008 160 46.6998 160 46.6008V45.8998C159.8 45.9998 159.6 46.1998 159.3 46.3008C159 46.3998 158.8 46.6008 158.5 46.6998C158.2 46.8008 157.901 46.8998 157.6 46.9998C157.3 47.1008 157 47.1008 156.7 47.1008C156 47.1008 155.5 46.9998 155.1 46.8008C154.7 46.6008 154.401 46.3998 154.2 45.9998C154 45.6998 153.901 45.3008 153.8 44.8008C153.7 44.3008 153.7 43.8998 153.7 43.3008V37.3998C153.7 37.1008 153.8 36.9998 154.1 36.9998H155.6C155.8 36.9998 156 37.1008 156 37.3998V42.9998C156 43.3008 156 43.6008 156.1 43.8008C156.1 43.9998 156.2 44.1998 156.3 44.3998C156.401 44.6008 156.6 44.6998 156.7 44.8008C156.8 44.8998 157.1 44.8998 157.401 44.8998C157.6 44.8998 157.8 44.8998 158.1 44.8008C158.401 44.6998 158.6 44.6008 158.901 44.4998C159.2 44.3998 159.401 44.3008 159.6 44.1998C159.8 44.1008 160 43.9998 160.1 43.8998V37.1998C160.1 37.1008 160.1 36.9998 160.2 36.8998C160.3 36.7998 160.401 36.7998 160.5 36.7998H161.901C162.2 36.7998 162.3 36.8998 162.3 37.1998V46.3008C162.2 46.8008 162.1 46.9998 161.8 46.9998Z" fill="white"/>
<path fill-rule="evenodd" clip-rule="evenodd" d="M166.901 46.6C166.901 46.9 166.8 46.999 166.501 46.999H165.001C164.701 46.999 164.6 46.9 164.6 46.6V37.5C164.6 37.2 164.701 37.1 165.001 37.1H166.401C166.701 37.1 166.8 37.2 166.8 37.5V38.4C166.901 38.3 167.1 38.1 167.401 37.999C167.6 37.8 167.901 37.7 168.201 37.6C168.501 37.5 168.8 37.4 169.001 37.2C169.3 37.1 169.501 37 169.8 37H170.1C170.201 37 170.201 37.1 170.3 37.3L170.401 38.6V38.9C170.401 38.999 170.3 38.999 170.001 39.1C169.701 39.2 169.401 39.2 169.1 39.3C168.8 39.4 168.501 39.499 168.201 39.499C167.901 39.6 167.6 39.7 167.401 39.8C167.1 39.9 166.901 39.999 166.8 39.999L166.901 46.6Z" fill="white"/>
<path fill-rule="evenodd" clip-rule="evenodd" d="M177.9 41.9994C177.9 41.4994 177.9 40.9994 177.799 40.6004C177.7 40.1994 177.599 39.8994 177.5 39.6004C177.299 39.3004 177.099 39.1004 176.799 38.9994C176.5 38.8994 176.2 38.8004 175.7 38.8004C175.299 38.8004 174.9 38.8994 174.7 38.9994C174.5 39.1004 174.2 39.3004 174.099 39.6004C173.9 39.8994 173.799 40.1994 173.799 40.6004C173.7 40.9994 173.7 41.4994 173.7 41.9994C173.7 42.4994 173.7 42.9994 173.799 43.3994C173.9 43.8004 174 44.1004 174.099 44.3994C174.2 44.6994 174.5 44.8994 174.7 44.9994C174.9 45.1004 175.299 45.1994 175.7 45.1994C176.2 45.1994 176.5 45.1004 176.799 44.9994C177.099 44.8994 177.299 44.6994 177.5 44.3994C177.7 44.1004 177.799 43.8004 177.799 43.3994C177.9 42.9994 177.9 42.6004 177.9 41.9994ZM180.2 41.8994C180.2 42.4994 180.2 43.1004 180.099 43.6994C180 44.3004 179.799 44.8994 179.5 45.3994C179.2 45.8994 178.799 46.3004 178.2 46.6994C177.599 46.9994 176.799 47.1994 175.799 47.1994C174.799 47.1994 174 46.9994 173.4 46.6994C172.799 46.3994 172.4 45.9994 172.099 45.3994C171.799 44.8994 171.599 44.3004 171.599 43.6994C171.5 43.1004 171.5 42.4994 171.5 41.8994C171.5 41.3994 171.5 40.8994 171.599 40.3004C171.7 39.6994 171.9 39.1994 172.2 38.6994C172.5 38.1994 172.9 37.7994 173.5 37.3994C174.099 37.1004 174.799 36.8994 175.799 36.8994C176.799 36.8994 177.599 36.9994 178.099 37.2994C178.7 37.6004 179.099 37.9994 179.4 38.4994C179.7 38.9994 179.9 39.4994 180 40.1004C180.099 40.6994 180.2 41.3004 180.2 41.8994Z" fill="white"/>
<path fill-rule="evenodd" clip-rule="evenodd" d="M188.5 41.9994C188.5 41.3994 188.5 40.8004 188.4 40.4994C188.3 40.1994 188.2 39.8004 188.1 39.6004C188 39.3994 187.8 39.1994 187.6 39.1994C187.4 39.1004 187.2 39.1004 186.9 39.1004C186.7 39.1004 186.5 39.1004 186.2 39.1994C185.9 39.3004 185.7 39.3004 185.4 39.3994C185.2 39.4994 184.9 39.6004 184.7 39.6994C184.5 39.8004 184.3 39.8994 184.1 39.9994V44.9994C184.6 45.1004 185 45.1994 185.3 45.3004C185.6 45.3994 186 45.3994 186.4 45.3994C186.8 45.3994 187.1 45.3004 187.3 45.1994C187.5 45.1004 187.7 44.8994 187.9 44.6994C188.1 44.3994 188.2 44.1004 188.2 43.6994C188.5 43.1004 188.5 42.6004 188.5 41.9994ZM190.8 41.9994C190.8 42.8004 190.7 43.4994 190.6 44.1994C190.5 44.8004 190.3 45.3994 190 45.8004C189.7 46.1994 189.3 46.6004 188.8 46.8004C188.3 46.9994 187.6 47.1004 186.8 47.1004C186.5 47.1004 186.1 47.1004 185.6 46.9994C185.2 46.8994 184.7 46.8004 184.2 46.6994V50.1994C184.2 50.3004 184.2 50.3994 184.1 50.4994C184 50.6004 183.9 50.6004 183.8 50.6004H182.4C182.2 50.6004 182.1 50.6004 182.1 50.4994C182.1 50.3994 182 50.3004 182 50.1994V37.4994C182 37.1994 182.1 37.1004 182.4 37.1004H183.8C183.9 37.1004 184 37.1004 184.1 37.1994C184.2 37.2994 184.2 37.3994 184.2 37.4994V38.1004H184.3C184.5 37.9994 184.7 37.8994 184.9 37.6994C185.1 37.6004 185.4 37.3994 185.7 37.2994C186 37.1994 186.3 37.1004 186.6 36.9994C186.9 36.8994 187.2 36.8994 187.5 36.8994C188.2 36.8994 188.7 36.9994 189.1 37.2994C189.5 37.4994 189.9 37.8994 190.1 38.3004C190.3 38.6994 190.5 39.3004 190.6 39.8994C190.8 40.4994 190.8 41.1994 190.8 41.9994Z" fill="white"/>
<path fill-rule="evenodd" clip-rule="evenodd" d="M196.701 38.6996C196.301 38.6996 196.001 38.8006 195.801 38.8996C195.6 38.9996 195.401 39.1996 195.201 39.3996C195.001 39.5996 194.901 39.8996 194.901 40.1996C194.801 40.4996 194.801 40.8006 194.801 41.1996H198.801C198.801 40.8996 198.801 40.5996 198.701 40.3006C198.6 39.9996 198.501 39.8006 198.401 39.4996C198.301 39.1996 198.1 39.0996 197.801 38.9996C197.401 38.8006 197.1 38.6996 196.701 38.6996ZM194.701 42.5996C194.701 43.0996 194.801 43.4996 194.901 43.8996C195.001 44.1996 195.201 44.4996 195.401 44.6996C195.6 44.8996 195.801 44.9996 196.1 45.0996C196.401 45.1996 196.701 45.1996 197.201 45.1996C197.6 45.1996 198.001 45.1996 198.501 45.0996C199.001 44.9996 199.401 44.9996 199.801 44.9996H200.201C200.301 44.9996 200.301 45.0996 200.401 45.3006L200.501 45.9996V46.3996C200.501 46.4996 200.401 46.5996 200.201 46.6996C200.001 46.8006 199.801 46.8996 199.501 46.8996C199.201 46.8996 199.001 46.9996 198.701 47.0996C198.401 47.1996 198.1 47.1996 197.801 47.1996H197.001C196.001 47.1996 195.301 47.0996 194.701 46.8006C194.1 46.4996 193.701 46.0996 193.401 45.6996C193.1 45.1996 192.901 44.6996 192.801 44.0996C192.701 43.4996 192.6 42.8996 192.6 42.1996C192.6 41.6996 192.6 41.1996 192.701 40.5996C192.801 39.9996 193.001 39.3996 193.301 38.8996C193.6 38.3996 194.001 37.8996 194.6 37.5996C195.201 37.1996 195.901 37.0996 196.901 37.0996C197.801 37.0996 198.501 37.1996 199.1 37.4996C199.701 37.7996 200.1 38.0996 200.401 38.4996C200.701 38.8996 200.901 39.3996 201.001 39.8996C201.1 40.3996 201.201 40.9996 201.201 41.4996C201.201 41.8996 201.201 42.1996 201.001 42.3996C200.801 42.5996 200.6 42.6996 200.201 42.6996H194.701V42.5996Z" fill="white"/>
<path fill-rule="evenodd" clip-rule="evenodd" d="M208.9 42.4998H206.5C206 42.4998 205.599 42.6008 205.299 42.8998C205 43.1008 204.9 43.6008 204.9 44.1998C204.9 44.6008 205 44.8998 205.2 45.1008C205.4 45.3008 205.7 45.3998 206.2 45.3998C206.4 45.3998 206.599 45.3998 206.9 45.3008C207.2 45.1998 207.4 45.1998 207.7 45.1008C208 44.9998 208.2 44.8998 208.4 44.8008C208.599 44.6998 208.9 44.6008 209 44.4998V42.4998H208.9ZM209 45.8008C208.5 46.1998 207.9 46.4998 207.299 46.6998C206.7 46.8998 206 47.1008 205.299 47.1008C204.799 47.1008 204.299 46.9998 204 46.8998C203.599 46.8008 203.4 46.6008 203.2 46.3008C203 46.1008 202.799 45.8008 202.799 45.3998C202.7 45.1008 202.7 44.6998 202.7 44.1998C202.7 42.9998 203 42.1998 203.599 41.6008C204.2 41.1008 205.2 40.8008 206.4 40.8008H209V40.3008C209 39.9998 209 39.8008 208.9 39.4998C208.799 39.3008 208.7 39.1008 208.599 38.9998C208.4 38.8998 208.2 38.8008 208 38.6998C207.7 38.6008 207.4 38.6008 207 38.6008H206.4H205.7C205.5 38.6008 205.2 38.6008 205 38.6998C204.799 38.6998 204.5 38.6998 204.299 38.8008H203.9C203.799 38.8008 203.799 38.6998 203.7 38.4998L203.5 37.7998V37.4998C203.599 37.3998 203.7 37.2998 203.9 37.1998C204.099 37.1008 204.4 37.1008 204.7 36.9998C205 36.8998 205.299 36.8998 205.599 36.8998C205.9 36.8998 206.2 36.7998 206.5 36.7998H207.299C208.2 36.7998 208.9 36.8998 209.4 37.1008C209.9 37.2998 210.299 37.4998 210.599 37.7998C210.9 38.1008 211 38.4998 211.099 38.9998C211.2 39.4998 211.2 39.9998 211.2 40.4998V44.3998V44.8998C211.2 44.9998 211.299 45.1008 211.299 45.1998C211.299 45.3008 211.4 45.3008 211.5 45.3008C211.599 45.3008 211.7 45.3008 211.9 45.3998C212 45.3998 212.099 45.3998 212.2 45.4998C212.299 45.4998 212.299 45.6008 212.299 45.6998V46.4998C212.299 46.6998 212.099 46.8998 211.799 46.8998C211.599 46.8998 211.5 46.8998 211.299 46.9998H210.799C210.299 46.9998 210 46.8998 209.7 46.6998C209.299 46.6008 209.099 46.3008 209 45.8008Z" fill="white"/>
<path fill-rule="evenodd" clip-rule="evenodd" d="M222.1 46.8996C222 46.9996 221.901 46.9996 221.8 46.9996H220.3C220 46.9996 219.901 46.8996 219.901 46.5996V40.9996C219.901 40.3996 219.8 39.8996 219.6 39.5996C219.401 39.1996 219 39.0996 218.401 39.0996C218.201 39.0996 218 39.0996 217.701 39.1996C217.401 39.2996 217.201 39.3996 216.901 39.4996C216.6 39.5996 216.401 39.6996 216.201 39.7996C216 39.8996 215.8 39.9996 215.701 40.0996V46.7996C215.701 47.0996 215.6 47.1996 215.3 47.1996H213.901C213.6 47.1996 213.5 47.0996 213.5 46.7996V37.6996C213.5 37.3996 213.6 37.2996 213.901 37.2996H215.3C215.6 37.2996 215.701 37.3996 215.701 37.6996V38.2996C215.901 38.1996 216.1 37.9996 216.401 37.8996C216.701 37.7996 216.901 37.5996 217.201 37.4996L218.1 37.1996C218.401 37.0996 218.701 37.0996 219 37.0996C219.701 37.0996 220.201 37.1996 220.6 37.3996C221 37.5996 221.3 37.8996 221.5 38.1996C221.701 38.4996 221.8 38.9996 221.901 39.3996C222 39.8996 222 40.2996 222 40.8996V46.6996C222.1 46.6996 222.1 46.7996 222.1 46.8996Z" fill="white"/>
<path fill-rule="evenodd" clip-rule="evenodd" d="M143.2 60.6998C143.2 59.8008 143.3 58.9998 143.4 58.1998C143.5 57.3998 143.8 56.5998 144.2 55.9998C144.6 55.3998 145.1 54.8008 145.8 54.3998C146.5 53.9998 147.4 53.8008 148.599 53.8008H149.4C149.7 53.8008 150 53.8998 150.4 53.8998C150.7 53.8998 151.099 53.9998 151.4 54.0998C151.7 54.1998 152 54.3008 152.3 54.3998C152.5 54.4998 152.599 54.4998 152.599 54.5998C152.599 54.6998 152.7 54.8008 152.7 54.9998L152.5 55.8008C152.5 55.8998 152.4 55.9998 152.4 56.0998C152.3 56.1998 152.2 56.1998 152 56.0998C151.5 55.9998 151 55.9998 150.4 55.8998C149.8 55.8008 149.3 55.8008 148.8 55.8008C148.099 55.8008 147.599 55.8998 147.2 56.1998C146.8 56.4998 146.5 56.8008 146.2 57.1998C146 57.5998 145.8 58.1998 145.8 58.6998C145.8 59.1998 145.7 59.8998 145.7 60.5998C145.7 61.3008 145.7 61.8998 145.8 62.3998C145.9 62.9998 146 63.4998 146.3 63.8998C146.5 64.3008 146.8 64.6998 147.3 64.8998C147.7 65.0998 148.2 65.3008 148.9 65.3008C149.5 65.3008 150 65.3008 150.5 65.1998C151 65.0998 151.5 65.0998 152.099 64.9998H152.5C152.599 65.0998 152.599 65.0998 152.7 65.3008L152.9 66.0998C153 66.3998 152.9 66.5998 152.599 66.6998C152.4 66.8008 152.099 66.8998 151.7 66.9998C151.4 67.0998 151 67.0998 150.7 67.1998C150.4 67.3008 150 67.3008 149.7 67.3008H148.8C147.7 67.3008 146.8 67.0998 146.099 66.6998C145.4 66.3008 144.8 65.8008 144.5 65.1998C144.1 64.5998 143.8 63.8998 143.7 63.0998C143.3 62.3998 143.2 61.5998 143.2 60.6998Z" fill="white"/>
<path fill-rule="evenodd" clip-rule="evenodd" d="M160.599 62.3002C160.599 61.8002 160.599 61.3002 160.499 60.9002C160.4 60.4992 160.299 60.1992 160.2 59.9002C159.999 59.6002 159.799 59.4002 159.499 59.3002C159.2 59.1992 158.9 59.1002 158.4 59.1002C157.999 59.1002 157.599 59.1992 157.4 59.3002C157.2 59.4002 156.9 59.6002 156.799 59.9002C156.599 60.1992 156.499 60.4992 156.499 60.9002C156.4 61.3002 156.4 61.8002 156.4 62.3002C156.4 62.8002 156.4 63.3002 156.499 63.6992C156.599 64.1002 156.7 64.4002 156.799 64.6992C156.9 64.9992 157.2 65.1992 157.4 65.3002C157.599 65.4002 157.999 65.4992 158.4 65.4992C158.9 65.4992 159.2 65.4002 159.499 65.3002C159.799 65.1992 159.999 64.9992 160.2 64.6992C160.4 64.4002 160.499 64.1002 160.499 63.6992C160.499 63.3002 160.599 62.9002 160.599 62.3002ZM162.9 62.1992C162.9 62.8002 162.9 63.4002 162.799 63.9992C162.7 64.6002 162.499 65.1992 162.2 65.6992C161.9 66.1992 161.499 66.6002 160.9 66.9992C160.299 67.3002 159.499 67.4992 158.499 67.4992C157.499 67.4992 156.7 67.3002 156.099 66.9992C155.499 66.6992 155.099 66.3002 154.799 65.6992C154.499 65.1992 154.299 64.6002 154.299 63.9992C154.2 63.4002 154.2 62.8002 154.2 62.1992C154.2 61.6992 154.2 61.1992 154.299 60.6002C154.4 59.9992 154.599 59.4992 154.9 58.9992C155.2 58.4992 155.599 58.1002 156.2 57.6992C156.799 57.4002 157.499 57.1992 158.499 57.1992C159.499 57.1992 160.299 57.3002 160.799 57.6002C161.4 57.9002 161.799 58.3002 162.099 58.8002C162.4 59.3002 162.599 59.8002 162.7 60.4002C162.799 60.9992 162.9 61.6002 162.9 62.1992Z" fill="white"/>
<path fill-rule="evenodd" clip-rule="evenodd" d="M179.2 67.2002C179.2 67.3012 179.099 67.3012 178.9 67.3012H177.5C177.2 67.3012 177.099 67.2002 177.099 66.9002V61.2002C177.099 60.5002 177 59.9002 176.8 59.7002C176.599 59.4002 176.2 59.3012 175.7 59.3012C175.5 59.3012 175.3 59.3012 175.099 59.4002C174.9 59.5002 174.599 59.5002 174.4 59.6002C174.2 59.7002 173.9 59.8012 173.7 59.9002C173.5 60.0002 173.3 60.1002 173.099 60.2002V60.6002V61.2002V66.9002C173.099 67.0002 173.099 67.1002 173 67.2002C172.9 67.3012 172.8 67.3012 172.7 67.3012H171.2C171 67.3012 170.9 67.2002 170.9 66.9002V61.1002C170.9 60.5002 170.8 60.0002 170.599 59.7002C170.4 59.4002 170.099 59.3012 169.599 59.3012C169.4 59.3012 169.2 59.3012 169 59.4002C168.8 59.5002 168.599 59.5002 168.3 59.6002C168.099 59.7002 167.8 59.8012 167.599 59.9002C167.4 60.0002 167.2 60.1002 167 60.2002V66.9002C167 67.2002 166.9 67.3012 166.599 67.3012H165.2C165 67.3012 164.8 67.2002 164.8 66.9002V57.8012C164.8 57.5002 164.9 57.4002 165.2 57.4002H166.599C166.9 57.4002 167 57.5002 167 57.8012V58.4002C167.2 58.3012 167.4 58.1002 167.599 58.0002C167.8 57.9002 168.099 57.7002 168.3 57.6002C168.5 57.5002 168.8 57.4002 169.099 57.3012C169.4 57.2002 169.599 57.2002 169.9 57.2002C170.5 57.2002 171 57.3012 171.5 57.5002C172 57.7002 172.4 58.1002 172.7 58.6002C173.2 58.2002 173.8 57.9002 174.4 57.6002C175 57.3012 175.599 57.2002 176.3 57.2002C177 57.2002 177.5 57.3012 177.9 57.5002C178.3 57.7002 178.599 58.0002 178.8 58.3012C179 58.6002 179.099 59.0002 179.2 59.5002C179.3 60.0002 179.3 60.4002 179.3 60.9002V66.9002C179.2 67.0002 179.2 67.1002 179.2 67.2002Z" fill="white"/>
<path fill-rule="evenodd" clip-rule="evenodd" d="M195.7 67.2002C195.7 67.3012 195.599 67.3012 195.4 67.3012H194C193.7 67.3012 193.599 67.2002 193.599 66.9002V61.2002C193.599 60.5002 193.5 59.9002 193.3 59.7002C193.099 59.4002 192.7 59.3012 192.2 59.3012C192 59.3012 191.8 59.3012 191.599 59.4002C191.4 59.5002 191.099 59.5002 190.9 59.6002C190.7 59.7002 190.4 59.8012 190.2 59.9002C190 60.0002 189.8 60.1002 189.599 60.2002V60.6002V61.2002V66.9002C189.599 67.0002 189.599 67.1002 189.5 67.2002C189.4 67.3012 189.3 67.3012 189.2 67.3012H187.7C187.5 67.3012 187.4 67.2002 187.4 66.9002V61.1002C187.4 60.5002 187.3 60.0002 187.099 59.7002C186.9 59.4002 186.599 59.3012 186.099 59.3012C185.9 59.3012 185.7 59.3012 185.5 59.4002C185.3 59.5002 185.099 59.5002 184.8 59.6002C184.5 59.7002 184.3 59.8012 184.099 59.9002C183.9 60.0002 183.7 60.1002 183.5 60.2002V66.9002C183.5 67.2002 183.4 67.3012 183.099 67.3012H181.7C181.5 67.3012 181.3 67.2002 181.3 66.9002V57.8012C181.3 57.5002 181.4 57.4002 181.7 57.4002H183.099C183.4 57.4002 183.5 57.5002 183.5 57.8012V58.4002C183.7 58.3012 183.9 58.1002 184.099 58.0002C184.3 57.9002 184.599 57.7002 184.8 57.6002C185.099 57.5002 185.3 57.4002 185.599 57.3012C185.9 57.2002 186.099 57.2002 186.4 57.2002C187 57.2002 187.5 57.3012 188 57.5002C188.5 57.7002 188.9 58.1002 189.2 58.6002C189.7 58.2002 190.3 57.9002 190.9 57.6002C191.5 57.3012 192.099 57.2002 192.8 57.2002C193.5 57.2002 194 57.3012 194.4 57.5002C194.8 57.7002 195.099 58.0002 195.3 58.3012C195.5 58.6002 195.599 59.0002 195.7 59.5002C195.8 60.0002 195.8 60.4002 195.8 60.9002V66.9002C195.8 67.0002 195.7 67.1002 195.7 67.2002Z" fill="white"/>
<path fill-rule="evenodd" clip-rule="evenodd" d="M200.401 66.8998C200.401 66.9998 200.401 67.0998 200.3 67.1998C200.3 67.2998 200.201 67.2998 200.001 67.2998H198.6C198.3 67.2998 198.201 67.1998 198.201 66.8998V57.7998C198.201 57.4998 198.3 57.3998 198.6 57.3998H200.001C200.1 57.3998 200.201 57.3998 200.3 57.4998C200.3 57.5998 200.401 57.6998 200.401 57.7998V66.8998ZM200.501 54.7998V55.2998C200.501 55.3998 200.401 55.5998 200.3 55.6998C200.201 55.7998 200.1 55.8998 199.901 55.9998C199.701 56.0998 199.501 56.0998 199.3 56.0998C199.001 56.0998 198.8 56.0998 198.701 55.9998C198.501 55.8998 198.401 55.7998 198.3 55.6998C198.201 55.5998 198.201 55.4998 198.1 55.2998V54.8998C198.1 54.5998 198.201 54.2998 198.3 54.0998C198.501 53.8998 198.8 53.7998 199.3 53.7998C199.8 53.7998 200.1 53.8998 200.3 54.0998C200.401 54.1998 200.501 54.4998 200.501 54.7998Z" fill="white"/>
<path fill-rule="evenodd" clip-rule="evenodd" d="M210.201 64.3006C210.201 64.9006 210.1 65.4006 209.901 65.8006C209.701 66.1996 209.401 66.4996 209.001 66.8006C208.6 66.9996 208.201 67.1996 207.701 67.3006C207.201 67.4006 206.701 67.4996 206.201 67.4996C205.701 67.4996 205.1 67.4996 204.6 67.4006C204.001 67.3006 203.501 67.1996 203.1 67.1006C202.901 66.9996 202.801 66.9006 202.701 66.8006C202.6 66.6996 202.6 66.6006 202.701 66.4006L202.801 65.6996C202.801 65.4996 202.901 65.4006 203.001 65.4006H203.401C203.6 65.4006 203.901 65.4996 204.1 65.4996C204.401 65.4996 204.6 65.4996 204.901 65.6006C205.201 65.6006 205.401 65.6006 205.6 65.6996H206.201C206.801 65.6996 207.301 65.6006 207.6 65.4006C207.901 65.1996 208.001 64.9006 208.001 64.4996C208.001 64.3006 208.001 64.1006 207.901 63.9006C207.801 63.6996 207.801 63.6006 207.6 63.4996C207.401 63.4006 207.301 63.3006 207.1 63.3006C206.901 63.1996 206.6 63.1996 206.301 63.1006C205.801 62.9996 205.301 62.9006 204.901 62.8006C204.501 62.6996 204.1 62.4996 203.701 62.3006C203.401 62.1006 203.1 61.8006 202.901 61.4996C202.701 61.1996 202.6 60.6996 202.6 60.1996C202.6 59.1996 202.901 58.4996 203.6 57.9006C204.301 57.4006 205.201 57.1006 206.301 57.1006H207.001C207.301 57.1006 207.501 57.1006 207.801 57.1996C208.1 57.1996 208.301 57.3006 208.6 57.3006C208.901 57.3006 209.1 57.4006 209.301 57.4996C209.6 57.6006 209.801 57.8006 209.701 58.1006L209.501 58.8006C209.501 58.9006 209.401 58.9996 209.301 59.1006H208.901C208.501 58.9996 208.001 58.9996 207.501 58.9006C207.001 58.9006 206.6 58.8006 206.201 58.8006C205.6 58.8006 205.1 58.9006 204.901 59.1006C204.701 59.3006 204.6 59.6006 204.6 59.9996C204.6 60.4006 204.701 60.6006 205.001 60.8006C205.301 60.9006 205.701 60.9996 206.301 61.1006C206.801 61.1996 207.201 61.3006 207.701 61.4006C208.201 61.4996 208.501 61.6996 208.901 61.9006C209.201 62.1006 209.501 62.4006 209.701 62.8006C210.1 63.1996 210.201 63.6996 210.201 64.3006Z" fill="white"/>
<path fill-rule="evenodd" clip-rule="evenodd" d="M219.401 64.3006C219.401 64.9006 219.3 65.4006 219.1 65.8006C218.901 66.1996 218.6 66.4996 218.201 66.8006C217.8 66.9996 217.401 67.1996 216.901 67.3006C216.401 67.4006 215.901 67.4996 215.401 67.4996C214.901 67.4996 214.3 67.4996 213.8 67.4006C213.201 67.3006 212.701 67.1996 212.3 67.1006C212.1 66.9996 212.001 66.9006 211.901 66.8006C211.8 66.6996 211.8 66.6006 211.901 66.4006L212.001 65.6996C212.001 65.4996 212.1 65.4006 212.201 65.4006H212.6C212.8 65.4006 213.1 65.4996 213.3 65.4996C213.6 65.4996 213.8 65.4996 214.1 65.6006C214.401 65.6006 214.6 65.6006 214.8 65.6996H215.401C216.001 65.6996 216.501 65.6006 216.8 65.4006C217.1 65.1996 217.201 64.9006 217.201 64.4996C217.201 64.3006 217.201 64.1006 217.1 63.9006C217.001 63.6996 217.001 63.6006 216.8 63.4996C216.6 63.4006 216.501 63.3006 216.3 63.3006C216.1 63.1996 215.8 63.1996 215.501 63.1006C215.001 62.9996 214.501 62.9006 214.1 62.8006C213.701 62.6996 213.3 62.4996 212.901 62.3006C212.6 62.1006 212.3 61.8006 212.1 61.4996C211.901 61.1996 211.8 60.6996 211.8 60.1996C211.8 59.1996 212.1 58.4996 212.8 57.9006C213.501 57.4006 214.401 57.1006 215.501 57.1006H216.201C216.501 57.1006 216.701 57.1006 217.001 57.1996C217.3 57.1996 217.501 57.3006 217.8 57.3006C218.1 57.3006 218.3 57.4006 218.501 57.4996C218.8 57.6006 219.001 57.8006 218.901 58.1006L218.701 58.8006C218.701 58.9006 218.6 58.9996 218.501 59.1006H218.1C217.701 58.9996 217.201 58.9996 216.701 58.9006C216.201 58.9006 215.8 58.8006 215.401 58.8006C214.8 58.8006 214.3 58.9006 214.1 59.1006C213.901 59.3006 213.8 59.6006 213.8 59.9996C213.8 60.4006 213.901 60.6006 214.201 60.8006C214.501 60.9006 214.901 60.9996 215.501 61.1006C216.001 61.1996 216.401 61.3006 216.901 61.4006C217.401 61.4996 217.701 61.6996 218.1 61.9006C218.401 62.1006 218.701 62.4006 218.901 62.8006C219.3 63.1996 219.401 63.6996 219.401 64.3006Z" fill="white"/>
<path fill-rule="evenodd" clip-rule="evenodd" d="M223.8 66.8998C223.8 66.9998 223.8 67.0998 223.7 67.1998C223.7 67.2998 223.6 67.2998 223.401 67.2998H222C221.7 67.2998 221.6 67.1998 221.6 66.8998V57.7998C221.6 57.4998 221.7 57.3998 222 57.3998H223.401C223.5 57.3998 223.6 57.3998 223.7 57.4998C223.7 57.5998 223.8 57.6998 223.8 57.7998V66.8998ZM223.901 54.7998V55.2998C223.901 55.3998 223.8 55.5998 223.7 55.6998C223.6 55.7998 223.5 55.8998 223.3 55.9998C223.1 56.0998 222.901 56.0998 222.7 56.0998C222.401 56.0998 222.2 56.0998 222.1 55.9998C221.901 55.8998 221.8 55.7998 221.7 55.6998C221.6 55.5998 221.6 55.4998 221.5 55.2998V54.8998C221.5 54.5998 221.6 54.2998 221.7 54.0998C221.901 53.8998 222.2 53.7998 222.7 53.7998C223.2 53.7998 223.5 53.8998 223.7 54.0998C223.8 54.1998 223.901 54.4998 223.901 54.7998Z" fill="white"/>
<path fill-rule="evenodd" clip-rule="evenodd" d="M232.5 62.3002C232.5 61.8002 232.5 61.3002 232.4 60.9002C232.3 60.4992 232.2 60.1992 232.1 59.9002C231.9 59.6002 231.7 59.4002 231.4 59.3002C231.1 59.1992 230.8 59.1002 230.3 59.1002C229.9 59.1002 229.5 59.1992 229.3 59.3002C229.1 59.4002 228.8 59.6002 228.7 59.9002C228.5 60.1992 228.4 60.4992 228.4 60.9002C228.3 61.3002 228.3 61.8002 228.3 62.3002C228.3 62.8002 228.3 63.3002 228.4 63.6992C228.5 64.1002 228.6 64.4002 228.7 64.6992C228.8 64.9992 229.1 65.1992 229.3 65.3002C229.5 65.4002 229.9 65.4992 230.3 65.4992C230.8 65.4992 231.1 65.4002 231.4 65.3002C231.7 65.1992 231.9 64.9992 232.1 64.6992C232.3 64.4002 232.4 64.1002 232.4 63.6992C232.4 63.3002 232.5 62.9002 232.5 62.3002ZM234.8 62.1992C234.8 62.8002 234.8 63.4002 234.7 63.9992C234.6 64.6002 234.4 65.1992 234.1 65.6992C233.8 66.1992 233.4 66.6002 232.8 66.9992C232.2 67.3002 231.4 67.4992 230.4 67.4992C229.4 67.4992 228.6 67.3002 228 66.9992C227.4 66.6992 227 66.3002 226.7 65.6992C226.4 65.1992 226.2 64.6002 226.2 63.9992C226.1 63.4002 226.1 62.8002 226.1 62.1992C226.1 61.6992 226.1 61.1992 226.2 60.6002C226.3 59.9992 226.5 59.4992 226.8 58.9992C227.1 58.4992 227.5 58.1002 228.1 57.6992C228.7 57.4002 229.4 57.1992 230.4 57.1992C231.4 57.1992 232.2 57.3002 232.7 57.6002C233.3 57.9002 233.7 58.3002 234 58.8002C234.3 59.3002 234.5 59.8002 234.6 60.4002C234.7 60.9992 234.8 61.6002 234.8 62.1992Z" fill="white"/>
<path fill-rule="evenodd" clip-rule="evenodd" d="M245.201 67.2002C245.1 67.3012 245.001 67.3012 244.901 67.3012H243.401C243.1 67.3012 243.001 67.2002 243.001 66.9002V61.3012C243.001 60.7002 242.901 60.2002 242.701 59.9002C242.501 59.5002 242.1 59.4002 241.501 59.4002C241.301 59.4002 241.1 59.4002 240.801 59.5002C240.501 59.6002 240.301 59.7002 240.001 59.8012C239.701 59.9002 239.501 60.0002 239.301 60.1002C239.1 60.2002 238.901 60.3012 238.801 60.4002V66.9002C238.801 67.2002 238.701 67.3012 238.401 67.3012H237.001C236.701 67.3012 236.6 67.2002 236.6 66.9002V57.8012C236.6 57.5002 236.701 57.4002 237.001 57.4002H238.401C238.701 57.4002 238.801 57.5002 238.801 57.8012V58.4002C239.001 58.3012 239.201 58.1002 239.501 58.0002C239.801 57.9002 240.001 57.7002 240.301 57.6002C240.6 57.5002 240.901 57.4002 241.201 57.3012C241.501 57.2002 241.801 57.2002 242.1 57.2002C242.801 57.2002 243.301 57.3012 243.701 57.5002C244.1 57.7002 244.401 58.0002 244.6 58.3012C244.801 58.6002 244.901 59.1002 245.001 59.5002C245.1 60.0002 245.1 60.4002 245.1 61.0002V66.9002C245.301 67.0002 245.201 67.1002 245.201 67.2002Z" fill="white"/>
<path fill-rule="evenodd" clip-rule="evenodd" d="M254.2 67.6004H257.5V28.9004H254.2V67.6004Z" fill="white"/>
</g>
</g>
</g>
</g>
<defs>
<clipPath id="clip0_241_203">
<rect width="290" height="72" fill="white" transform="translate(0 0.900391)"/>
</clipPath>
<clipPath id="clip1_241_203">
<rect width="290" height="72" fill="white" transform="translate(0 0.900391)"/>
</clipPath>
<clipPath id="clip2_241_203">
<rect width="290" height="72" fill="white" transform="translate(0 0.900391)"/>
</clipPath>
</defs>
</svg>
