<svg width="76" height="76" viewBox="0 0 76 76" fill="none" xmlns="http://www.w3.org/2000/svg">
<g clip-path="url(#clip0_254_647)">
<path d="M38 66C53.464 66 66 53.464 66 38C66 22.536 53.464 10 38 10C22.536 10 10 22.536 10 38C10 53.464 22.536 66 38 66Z" fill="#246FE0"/>
<path d="M38 71C56.2254 71 71 56.2254 71 38C71 19.7746 56.2254 5 38 5C19.7746 5 5 19.7746 5 38C5 56.2254 19.7746 71 38 71Z" stroke="#246FE0" stroke-opacity="0.5" stroke-width="10"/>
<path opacity="0.2" d="M49 28.0002V36.0002C46.5138 38.1539 44.2213 38.2989 42 37.6852V29.6852C44.22 30.2989 46.5138 30.1539 49 28.0002ZM34 34.3152V26.3152C31.78 25.7014 29.4862 25.8464 27 28.0002V36.0002C29.4862 33.8477 31.7787 33.7014 34 34.3152V41.3152C36.7025 42.0652 39.2975 43.9402 42 44.6902V37.6902C39.2975 36.9402 36.7025 35.0652 34 34.3152Z" fill="white"/>
<path d="M49.415 27.0937C49.2404 27.0144 49.0468 26.987 48.8571 27.0147C48.6674 27.0424 48.4896 27.124 48.345 27.2499C44.845 30.2774 41.88 28.8099 38.4438 27.1087C34.8838 25.3449 30.8475 23.3487 26.345 27.2499C26.2374 27.3432 26.151 27.4583 26.0915 27.5876C26.032 27.717 26.0008 27.8575 26 27.9999V48.9999C26 49.2651 26.1054 49.5195 26.2929 49.707C26.4804 49.8945 26.7348 49.9999 27 49.9999C27.2652 49.9999 27.5196 49.8945 27.7071 49.707C27.8946 49.5195 28 49.2651 28 48.9999V43.4712C31.3488 40.8262 34.2337 42.2524 37.5562 43.8974C41.1175 45.6587 45.1525 47.6549 49.655 43.7562C49.7626 43.6629 49.849 43.5478 49.9085 43.4184C49.968 43.2891 49.9992 43.1485 50 43.0062V27.9999C49.9993 27.8087 49.9438 27.6218 49.8402 27.4611C49.7365 27.3005 49.5889 27.173 49.415 27.0937ZM33 40.0874C32.6101 40.0295 32.2166 39.9999 31.8225 39.9987C30.4768 40.0014 29.1566 40.3658 28 41.0537V36.4724C29.75 35.0899 31.375 34.8199 33 35.1124V40.0874ZM33 33.0874C31.2714 32.8179 29.5029 33.1605 28 34.0562V28.4724C29.75 27.0899 31.375 26.8212 33 27.1137V33.0874ZM41 43.2912C40.1675 42.9574 39.3212 42.5412 38.4438 42.1062C37.3413 41.5599 36.1938 40.9936 35 40.5849V35.7099C35.8325 36.0424 36.6788 36.4599 37.5562 36.8949C38.6587 37.4412 39.8062 38.0074 41 38.4162V43.2912ZM41 36.2912C40.1675 35.9574 39.3212 35.5412 38.4438 35.1049C37.3413 34.5599 36.1938 33.9924 35 33.5837V27.7087C35.8325 28.0412 36.6788 28.4587 37.5562 28.8937C38.6587 29.4387 39.8062 30.0062 41 30.4149V36.2912ZM48 42.5312C46.25 43.9137 44.625 44.1824 43 43.8899V38.9149C43.3898 38.9732 43.7833 39.0033 44.1775 39.0049C45.5235 39.0007 46.8437 38.6351 48 37.9462V42.5312ZM48 35.5312C46.25 36.9137 44.625 37.1837 43 36.8912V30.9174C44.7285 31.1874 46.497 30.8452 48 29.9499V35.5312Z" fill="white"/>
</g>
<defs>
<clipPath id="clip0_254_647">
<rect width="76" height="76" fill="white"/>
</clipPath>
</defs>
</svg>
