<svg width="76" height="76" viewBox="0 0 76 76" fill="none" xmlns="http://www.w3.org/2000/svg">
<g clip-path="url(#clip0_254_637)">
<g clip-path="url(#clip1_254_637)">
<path d="M38 66C53.464 66 66 53.464 66 38C66 22.536 53.464 10 38 10C22.536 10 10 22.536 10 38C10 53.464 22.536 66 38 66Z" fill="#246FE0"/>
<path d="M38 71C56.2254 71 71 56.2254 71 38C71 19.7746 56.2254 5 38 5C19.7746 5 5 19.7746 5 38C5 56.2254 19.7746 71 38 71Z" stroke="#246FE0" stroke-opacity="0.5" stroke-width="10"/>
<path opacity="0.2" d="M42 38C42 38.7911 41.7654 39.5645 41.3259 40.2223C40.8864 40.8801 40.2616 41.3928 39.5307 41.6955C38.7998 41.9983 37.9956 42.0775 37.2196 41.9231C36.4437 41.7688 35.731 41.3878 35.1716 40.8284C34.6122 40.269 34.2312 39.5563 34.0769 38.7804C33.9225 38.0044 34.0017 37.2002 34.3045 36.4693C34.6072 35.7384 35.1199 35.1136 35.7777 34.6741C36.4355 34.2346 37.2089 34 38 34C39.0609 34 40.0783 34.4214 40.8284 35.1716C41.5786 35.9217 42 36.9391 42 38ZM47 30C47.2117 31.2491 47.8067 32.4015 48.7026 33.2974C49.5985 34.1933 50.7509 34.7883 52 35V30H47ZM47 46H52V41C50.7509 41.2117 49.5985 41.8067 48.7026 42.7026C47.8067 43.5985 47.2117 44.7509 47 46ZM24 41V46H29C28.7883 44.7509 28.1933 43.5985 27.2974 42.7026C26.4015 41.8067 25.2491 41.2117 24 41ZM24 35C25.2491 34.7883 26.4015 34.1933 27.2974 33.2974C28.1933 32.4015 28.7883 31.2491 29 30H24V35Z" fill="white"/>
<path d="M38 33C37.0111 33 36.0444 33.2932 35.2221 33.8427C34.3999 34.3921 33.759 35.173 33.3806 36.0866C33.0022 37.0002 32.9031 38.0055 33.0961 38.9755C33.289 39.9454 33.7652 40.8363 34.4645 41.5355C35.1637 42.2348 36.0546 42.711 37.0245 42.9039C37.9945 43.0969 38.9998 42.9978 39.9134 42.6194C40.827 42.241 41.6079 41.6001 42.1573 40.7779C42.7068 39.9556 43 38.9889 43 38C43 36.6739 42.4732 35.4021 41.5355 34.4645C40.5979 33.5268 39.3261 33 38 33ZM38 41C37.4067 41 36.8266 40.8241 36.3333 40.4944C35.8399 40.1648 35.4554 39.6962 35.2284 39.1481C35.0013 38.5999 34.9419 37.9967 35.0576 37.4147C35.1734 36.8328 35.4591 36.2982 35.8787 35.8787C36.2982 35.4591 36.8328 35.1734 37.4147 35.0576C37.9967 34.9419 38.5999 35.0013 39.1481 35.2284C39.6962 35.4554 40.1648 35.8399 40.4944 36.3333C40.8241 36.8266 41 37.4067 41 38C41 38.7956 40.6839 39.5587 40.1213 40.1213C39.5587 40.6839 38.7956 41 38 41ZM52 29H24C23.7348 29 23.4804 29.1054 23.2929 29.2929C23.1054 29.4804 23 29.7348 23 30V46C23 46.2652 23.1054 46.5196 23.2929 46.7071C23.4804 46.8946 23.7348 47 24 47H52C52.2652 47 52.5196 46.8946 52.7071 46.7071C52.8946 46.5196 53 46.2652 53 46V30C53 29.7348 52.8946 29.4804 52.7071 29.2929C52.5196 29.1054 52.2652 29 52 29ZM25 31H27.6712C27.1555 32.1995 26.1995 33.1555 25 33.6713V31ZM25 45V42.3288C26.1995 42.8445 27.1555 43.8005 27.6712 45H25ZM51 45H48.3288C48.8445 43.8005 49.8005 42.8445 51 42.3288V45ZM51 40.2062C49.8645 40.542 48.8311 41.1565 47.9938 41.9938C47.1565 42.8311 46.542 43.8645 46.2062 45H29.7937C29.458 43.8645 28.8435 42.8311 28.0062 41.9938C27.1689 41.1565 26.1355 40.542 25 40.2062V35.7937C26.1355 35.458 27.1689 34.8435 28.0062 34.0062C28.8435 33.1689 29.458 32.1355 29.7937 31H46.2062C46.542 32.1355 47.1565 33.1689 47.9938 34.0062C48.8311 34.8435 49.8645 35.458 51 35.7937V40.2062ZM51 33.6713C49.8005 33.1555 48.8445 32.1995 48.3288 31H51V33.6713Z" fill="white"/>
</g>
</g>
<defs>
<clipPath id="clip0_254_637">
<rect width="76" height="76" fill="white"/>
</clipPath>
<clipPath id="clip1_254_637">
<rect width="76" height="76" fill="white"/>
</clipPath>
</defs>
</svg>
