<svg width="76" height="76" viewBox="0 0 76 76" fill="none" xmlns="http://www.w3.org/2000/svg">
<g clip-path="url(#clip0_254_619)">
<g clip-path="url(#clip1_254_619)">
<path d="M38 66C53.464 66 66 53.464 66 38C66 22.536 53.464 10 38 10C22.536 10 10 22.536 10 38C10 53.464 22.536 66 38 66Z" fill="#246FE0"/>
<path d="M38 71C56.2254 71 71 56.2254 71 38C71 19.7746 56.2254 5 38 5C19.7746 5 5 19.7746 5 38C5 56.2254 19.7746 71 38 71Z" stroke="#246FE0" stroke-opacity="0.5" stroke-width="10"/>
<path opacity="0.2" d="M39 38L34 43V33L39 38Z" fill="white"/>
<path d="M39.7075 37.2925L34.7075 32.2925C34.5676 32.1525 34.3894 32.0571 34.1953 32.0185C34.0012 31.9798 33.8 31.9996 33.6172 32.0754C33.4344 32.1511 33.2782 32.2794 33.1683 32.444C33.0584 32.6086 32.9998 32.8021 33 33V37H25C24.7348 37 24.4804 37.1054 24.2929 37.2929C24.1054 37.4804 24 37.7348 24 38C24 38.2652 24.1054 38.5196 24.2929 38.7071C24.4804 38.8946 24.7348 39 25 39H33V43C32.9998 43.1979 33.0584 43.3914 33.1683 43.556C33.2782 43.7206 33.4344 43.8489 33.6172 43.9246C33.8 44.0004 34.0012 44.0202 34.1953 43.9815C34.3894 43.9429 34.5676 43.8475 34.7075 43.7075L39.7075 38.7075C39.8005 38.6146 39.8742 38.5043 39.9246 38.3829C39.9749 38.2615 40.0008 38.1314 40.0008 38C40.0008 37.8686 39.9749 37.7385 39.9246 37.6171C39.8742 37.4957 39.8005 37.3854 39.7075 37.2925ZM35 40.5863V35.4137L37.5863 38L35 40.5863ZM48 28V48C48 48.5304 47.7893 49.0391 47.4142 49.4142C47.0391 49.7893 46.5304 50 46 50H39C38.7348 50 38.4804 49.8946 38.2929 49.7071C38.1054 49.5196 38 49.2652 38 49C38 48.7348 38.1054 48.4804 38.2929 48.2929C38.4804 48.1054 38.7348 48 39 48H46V28H39C38.7348 28 38.4804 27.8946 38.2929 27.7071C38.1054 27.5196 38 27.2652 38 27C38 26.7348 38.1054 26.4804 38.2929 26.2929C38.4804 26.1054 38.7348 26 39 26H46C46.5304 26 47.0391 26.2107 47.4142 26.5858C47.7893 26.9609 48 27.4696 48 28Z" fill="white"/>
</g>
</g>
<defs>
<clipPath id="clip0_254_619">
<rect width="76" height="76" fill="white"/>
</clipPath>
<clipPath id="clip1_254_619">
<rect width="76" height="76" fill="white"/>
</clipPath>
</defs>
</svg>
