<svg width="230" height="58" viewBox="0 0 230 58" fill="none" xmlns="http://www.w3.org/2000/svg">
<g clip-path="url(#clip0_2_35)">
<path fill-rule="evenodd" clip-rule="evenodd" d="M-7.71069e-07 40.08L-2.42336e-06 2.28L37.8 2.28L37.8 4.74512L18.9 4.74512C9.82332 4.74512 2.46522 12.1032 2.46522 21.18C2.46522 30.2567 9.82329 37.6148 18.9 37.6148L37.8 37.6148L37.8 40.08L-7.71069e-07 40.08ZM18.2 19.92L56 19.92L56 57.72L18.2 57.72L18.2 55.2548L37.1 55.2548C46.1768 55.2548 53.5349 47.8967 53.5349 38.82C53.5349 29.7432 46.1768 22.3851 37.1 22.3851L18.2 22.3851L18.2 19.92Z" fill="#0982F3"/>
</g>
<path d="M82.125 5V6.5625H74.625V20H72.75V6.5625H65.25V5H82.125ZM102.76 5V12.5C102.76 13.3854 102.747 14.1927 102.721 14.9219C102.701 15.651 102.626 16.3053 102.496 16.8848C102.372 17.4642 102.174 17.9688 101.9 18.3984C101.627 18.8281 101.236 19.1862 100.729 19.4727C100.221 19.7526 99.5729 19.9609 98.7852 20.0977C98.0039 20.2409 97.0404 20.3125 95.8945 20.3125H91.5C90.3542 20.3125 89.3874 20.2409 88.5996 20.0977C87.8184 19.9609 87.1738 19.7526 86.666 19.4727C86.1582 19.1862 85.7643 18.8281 85.4844 18.3984C85.2109 17.9688 85.0091 17.4642 84.8789 16.8848C84.7552 16.3053 84.6836 15.651 84.6641 14.9219C84.6445 14.1927 84.6348 13.3854 84.6348 12.5V5H86.5098V12.5C86.5098 13.4375 86.5163 14.2448 86.5293 14.9219C86.5488 15.5924 86.6042 16.1589 86.6953 16.6211C86.7865 17.0833 86.9297 17.4544 87.125 17.7344C87.3268 18.0143 87.6133 18.2292 87.9844 18.3789C88.3555 18.5286 88.8242 18.6296 89.3906 18.6816C89.9635 18.7272 90.6667 18.75 91.5 18.75H95.8945C96.7214 18.75 97.4212 18.7272 97.9941 18.6816C98.5671 18.6296 99.0358 18.5286 99.4004 18.3789C99.7715 18.2292 100.058 18.0143 100.26 17.7344C100.462 17.4544 100.608 17.0833 100.699 16.6211C100.797 16.1589 100.852 15.5924 100.865 14.9219C100.878 14.2448 100.885 13.4375 100.885 12.5L100.875 5H102.76ZM90.875 0.625H89V2.5H90.875V0.625ZM98.375 0.625H96.5V2.5H98.375V0.625ZM123.082 20H121.207V17.1875C121.207 16.7318 121.197 16.3411 121.178 16.0156C121.165 15.6836 121.109 15.4004 121.012 15.166C120.921 14.9316 120.774 14.7428 120.572 14.5996C120.37 14.4564 120.084 14.3457 119.713 14.2676C119.342 14.1895 118.87 14.1374 118.297 14.1113C117.73 14.0788 117.031 14.0625 116.197 14.0625H107.77V20H105.895V5H116.51C117.656 5 118.619 5.04232 119.4 5.12695C120.188 5.20508 120.836 5.32552 121.344 5.48828C121.858 5.65104 122.252 5.85286 122.525 6.09375C122.805 6.33464 123.007 6.61784 123.131 6.94336C123.261 7.26888 123.336 7.63346 123.355 8.03711C123.382 8.44076 123.395 8.88672 123.395 9.375C123.395 10 123.349 10.5501 123.258 11.0254C123.173 11.4941 123.027 11.8945 122.818 12.2266C122.61 12.5586 122.333 12.8255 121.988 13.0273C121.643 13.2227 121.21 13.3594 120.689 13.4375C121.21 13.5156 121.627 13.6523 121.939 13.8477C122.252 14.043 122.493 14.2969 122.662 14.6094C122.831 14.9219 122.942 15.293 122.994 15.7227C123.053 16.1523 123.082 16.6406 123.082 17.1875V20ZM107.77 12.5H116.51C117.343 12.5 118.043 12.487 118.609 12.4609C119.182 12.4284 119.654 12.373 120.025 12.2949C120.396 12.2168 120.683 12.1061 120.885 11.9629C121.087 11.8197 121.233 11.6309 121.324 11.3965C121.422 11.1621 121.477 10.8822 121.49 10.5566C121.51 10.2246 121.52 9.83073 121.52 9.375C121.52 8.95182 121.51 8.58724 121.49 8.28125C121.477 7.97526 121.422 7.7181 121.324 7.50977C121.233 7.30143 121.087 7.13542 120.885 7.01172C120.683 6.88802 120.396 6.79362 120.025 6.72852C119.654 6.6569 119.182 6.61133 118.609 6.5918C118.043 6.57227 117.343 6.5625 116.51 6.5625H107.77V12.5ZM140.582 5H143.395L132.77 12.3438L143.707 20H140.895L130.895 13.125H128.395V20H126.52V5H128.395V11.5625H130.895L140.582 5ZM157.447 18.4375C158.274 18.4375 158.974 18.4147 159.547 18.3691C160.12 18.3236 160.592 18.2324 160.963 18.0957C161.334 17.9525 161.62 17.7474 161.822 17.4805C162.024 17.2135 162.171 16.862 162.262 16.4258C162.359 15.9831 162.415 15.4427 162.428 14.8047C162.447 14.1602 162.457 13.3919 162.457 12.5C162.457 11.6081 162.447 10.8431 162.428 10.2051C162.415 9.56055 162.359 9.02018 162.262 8.58398C162.171 8.14128 162.024 7.78646 161.822 7.51953C161.62 7.2526 161.334 7.05078 160.963 6.91406C160.592 6.77083 160.12 6.67643 159.547 6.63086C158.98 6.58529 158.281 6.5625 157.447 6.5625H148.082V18.4375H157.447ZM146.207 20V5H157.447C158.593 5 159.557 5.06836 160.338 5.20508C161.126 5.33529 161.773 5.53711 162.281 5.81055C162.796 6.08398 163.189 6.42578 163.463 6.83594C163.743 7.24609 163.945 7.73112 164.068 8.29102C164.199 8.8444 164.273 9.47266 164.293 10.1758C164.319 10.8724 164.332 11.6471 164.332 12.5C164.332 13.3529 164.319 14.1309 164.293 14.834C164.273 15.5306 164.199 16.1589 164.068 16.7188C163.945 17.2721 163.743 17.7539 163.463 18.1641C163.189 18.5742 162.796 18.916 162.281 19.1895C161.773 19.4629 161.126 19.668 160.338 19.8047C159.557 19.9349 158.593 20 157.447 20H146.207ZM179.342 4.6875C180.488 4.6875 181.451 4.75911 182.232 4.90234C183.02 5.03906 183.668 5.25065 184.176 5.53711C184.684 5.81706 185.074 6.17188 185.348 6.60156C185.621 7.03125 185.82 7.53581 185.943 8.11523C186.074 8.69466 186.148 9.34896 186.168 10.0781C186.194 10.8073 186.207 11.6146 186.207 12.5C186.207 13.3854 186.194 14.1927 186.168 14.9219C186.148 15.651 186.074 16.3053 185.943 16.8848C185.82 17.4642 185.621 17.9688 185.348 18.3984C185.074 18.8281 184.684 19.1862 184.176 19.4727C183.668 19.7526 183.02 19.9609 182.232 20.0977C181.451 20.2409 180.488 20.3125 179.342 20.3125H173.697C172.551 20.3125 171.585 20.2409 170.797 20.0977C170.016 19.9609 169.371 19.7526 168.863 19.4727C168.355 19.1862 167.962 18.8281 167.682 18.3984C167.408 17.9688 167.206 17.4642 167.076 16.8848C166.952 16.3053 166.881 15.651 166.861 14.9219C166.842 14.1927 166.832 13.3854 166.832 12.5C166.832 11.6146 166.842 10.8073 166.861 10.0781C166.881 9.34896 166.952 8.69466 167.076 8.11523C167.206 7.53581 167.408 7.03125 167.682 6.60156C167.962 6.17188 168.355 5.81706 168.863 5.53711C169.371 5.25065 170.016 5.03906 170.797 4.90234C171.585 4.75911 172.551 4.6875 173.697 4.6875H179.342ZM179.342 18.75C180.169 18.75 180.865 18.7272 181.432 18.6816C182.005 18.6296 182.477 18.5286 182.848 18.3789C183.219 18.2292 183.505 18.0143 183.707 17.7344C183.909 17.4544 184.055 17.0833 184.146 16.6211C184.238 16.1589 184.29 15.5924 184.303 14.9219C184.322 14.2448 184.332 13.4375 184.332 12.5C184.332 11.5625 184.322 10.7585 184.303 10.0879C184.29 9.41081 184.238 8.84115 184.146 8.37891C184.055 7.91667 183.909 7.54557 183.707 7.26562C183.505 6.98568 183.219 6.77083 182.848 6.62109C182.483 6.47135 182.014 6.3737 181.441 6.32812C180.875 6.27604 180.175 6.25 179.342 6.25H173.697C172.864 6.25 172.161 6.27604 171.588 6.32812C171.021 6.3737 170.553 6.47135 170.182 6.62109C169.811 6.77083 169.524 6.98568 169.322 7.26562C169.12 7.54557 168.974 7.91667 168.883 8.37891C168.792 8.84115 168.74 9.41081 168.727 10.0879C168.714 10.7585 168.707 11.5625 168.707 12.5C168.707 13.4375 168.714 14.2448 168.727 14.9219C168.746 15.5924 168.801 16.1589 168.893 16.6211C168.984 17.0833 169.127 17.4544 169.322 17.7344C169.524 18.0143 169.811 18.2292 170.182 18.3789C170.553 18.5286 171.021 18.6296 171.588 18.6816C172.161 18.7272 172.864 18.75 173.697 18.75H179.342ZM194.332 0.371094C194.332 1.46484 194.645 2.25911 195.27 2.75391C195.895 3.2487 196.832 3.49609 198.082 3.49609C199.332 3.49609 200.27 3.2487 200.895 2.75391C201.52 2.25911 201.832 1.46484 201.832 0.371094H200.27C200.27 0.839844 200.214 1.20117 200.104 1.45508C199.993 1.70898 199.84 1.89453 199.645 2.01172C199.449 2.12891 199.218 2.19727 198.951 2.2168C198.684 2.23633 198.395 2.24609 198.082 2.24609C197.77 2.24609 197.48 2.23633 197.213 2.2168C196.946 2.19727 196.715 2.12891 196.52 2.01172C196.324 1.89453 196.171 1.70898 196.061 1.45508C195.95 1.20117 195.895 0.839844 195.895 0.371094H194.332ZM205.592 9.6875C205.592 8.90625 205.507 8.28776 205.338 7.83203C205.169 7.3763 204.889 7.03125 204.498 6.79688C204.107 6.5625 203.593 6.41276 202.955 6.34766C202.317 6.28255 201.529 6.25 200.592 6.25H195.572C194.739 6.25 194.036 6.27604 193.463 6.32812C192.896 6.3737 192.428 6.47135 192.057 6.62109C191.686 6.77083 191.399 6.98568 191.197 7.26562C190.995 7.54557 190.849 7.91667 190.758 8.37891C190.667 8.84115 190.615 9.41081 190.602 10.0879C190.589 10.7585 190.582 11.5625 190.582 12.5C190.582 13.4375 190.589 14.2448 190.602 14.9219C190.621 15.5924 190.676 16.1589 190.768 16.6211C190.859 17.0833 191.002 17.4544 191.197 17.7344C191.399 18.0143 191.686 18.2292 192.057 18.3789C192.428 18.5286 192.896 18.6296 193.463 18.6816C194.036 18.7272 194.739 18.75 195.572 18.75H200.602C201.331 18.75 201.959 18.7305 202.486 18.6914C203.014 18.6523 203.463 18.5807 203.834 18.4766C204.205 18.3724 204.505 18.2292 204.732 18.0469C204.96 17.8646 205.136 17.6367 205.26 17.3633C205.39 17.0833 205.478 16.7513 205.523 16.3672C205.569 15.9766 205.592 15.5208 205.592 15V14.0625H198.072V12.5H207.467V15C207.467 15.625 207.428 16.1914 207.35 16.6992C207.271 17.2005 207.132 17.6497 206.93 18.0469C206.734 18.4375 206.471 18.776 206.139 19.0625C205.807 19.349 205.387 19.5866 204.879 19.7754C204.371 19.9577 203.766 20.0911 203.062 20.1758C202.359 20.2669 201.539 20.3125 200.602 20.3125H195.572C194.426 20.3125 193.46 20.2409 192.672 20.0977C191.891 19.9609 191.246 19.7526 190.738 19.4727C190.23 19.1862 189.837 18.8281 189.557 18.3984C189.283 17.9688 189.081 17.4642 188.951 16.8848C188.827 16.3053 188.756 15.651 188.736 14.9219C188.717 14.1927 188.707 13.3854 188.707 12.5C188.707 11.6146 188.717 10.8073 188.736 10.0781C188.756 9.34896 188.827 8.69466 188.951 8.11523C189.081 7.53581 189.283 7.03125 189.557 6.60156C189.837 6.17188 190.23 5.81706 190.738 5.53711C191.246 5.25065 191.891 5.03906 192.672 4.90234C193.46 4.75911 194.426 4.6875 195.572 4.6875H200.592C201.529 4.6875 202.35 4.73307 203.053 4.82422C203.756 4.90885 204.361 5.04232 204.869 5.22461C205.377 5.40039 205.797 5.625 206.129 5.89844C206.467 6.17188 206.734 6.49414 206.93 6.86523C207.132 7.23633 207.271 7.65625 207.35 8.125C207.428 8.59375 207.467 9.11458 207.467 9.6875H205.592ZM225.289 16.5625H213.414L211.539 20H209.352L218.102 5H220.602L229.352 20H227.164L225.289 16.5625ZM224.352 15L219.352 6.25L214.352 15H224.352Z" fill="#0982F3"/>
<path d="M65.25 40H67.75L74.625 47.3438L81.5 40H84L75.5625 48.75V55H73.6875V48.75L65.25 40ZM102.047 51.5625H90.1719L88.2969 55H86.1094L94.8594 40H97.3594L106.109 55H103.922L102.047 51.5625ZM101.109 50L96.1094 41.25L91.1094 50H101.109ZM124.859 40V41.5625H117.359V55H115.484V41.5625H107.984V40H124.859ZM127.984 40H129.859V55H127.984V40ZM150.797 55H148.922V52.1875C148.922 51.7318 148.912 51.3411 148.893 51.0156C148.88 50.6836 148.824 50.4004 148.727 50.166C148.635 49.9316 148.489 49.7428 148.287 49.5996C148.085 49.4564 147.799 49.3457 147.428 49.2676C147.057 49.1895 146.585 49.1374 146.012 49.1113C145.445 49.0788 144.745 49.0625 143.912 49.0625H135.484V55H133.609V40H144.225C145.37 40 146.334 40.0423 147.115 40.127C147.903 40.2051 148.551 40.3255 149.059 40.4883C149.573 40.651 149.967 40.8529 150.24 41.0938C150.52 41.3346 150.722 41.6178 150.846 41.9434C150.976 42.2689 151.051 42.6335 151.07 43.0371C151.096 43.4408 151.109 43.8867 151.109 44.375C151.109 45 151.064 45.5501 150.973 46.0254C150.888 46.4941 150.742 46.8945 150.533 47.2266C150.325 47.5586 150.048 47.8255 149.703 48.0273C149.358 48.2227 148.925 48.3594 148.404 48.4375C148.925 48.5156 149.342 48.6523 149.654 48.8477C149.967 49.043 150.208 49.2969 150.377 49.6094C150.546 49.9219 150.657 50.293 150.709 50.7227C150.768 51.1523 150.797 51.6406 150.797 52.1875V55ZM135.484 47.5H144.225C145.058 47.5 145.758 47.487 146.324 47.4609C146.897 47.4284 147.369 47.373 147.74 47.2949C148.111 47.2168 148.398 47.1061 148.6 46.9629C148.801 46.8197 148.948 46.6309 149.039 46.3965C149.137 46.1621 149.192 45.8822 149.205 45.5566C149.225 45.2246 149.234 44.8307 149.234 44.375C149.234 43.9518 149.225 43.5872 149.205 43.2812C149.192 42.9753 149.137 42.7181 149.039 42.5098C148.948 42.3014 148.801 42.1354 148.6 42.0117C148.398 41.888 148.111 41.7936 147.74 41.7285C147.369 41.6569 146.897 41.6113 146.324 41.5918C145.758 41.5723 145.058 41.5625 144.225 41.5625H135.484V47.5ZM154.234 40H156.109V55H154.234V40ZM161.734 41.25V55H159.859V40H162.984L171.725 53.125L180.465 40H183.453V55H181.578V41.4551L172.672 55H170.777L161.734 41.25Z" fill="#0982F3"/>
<defs>
<clipPath id="clip0_2_35">
<rect width="56" height="56" fill="white" transform="translate(0 58) rotate(-90)"/>
</clipPath>
</defs>
</svg>
