<svg width="65" height="64" viewBox="0 0 65 64" fill="none" xmlns="http://www.w3.org/2000/svg">
<g id="SVG" clip-path="url(#clip0_3_96)">
<g id="Clip path group">
<mask id="mask0_3_96" style="mask-type:luminance" maskUnits="userSpaceOnUse" x="0" y="0" width="65" height="64">
<g id="icon_gas_svg__a">
<path id="Vector" d="M64.5 32C64.5 14.3269 50.1731 0 32.5 0C14.8269 0 0.5 14.3269 0.5 32C0.5 49.6731 14.8269 64 32.5 64C50.1731 64 64.5 49.6731 64.5 32Z" fill="white"/>
</g>
</mask>
<g mask="url(#mask0_3_96)">
<g id="Group">
<path id="Vector_2" d="M0.5 0H64.5V64H0.5V0Z" fill="#42A5F5"/>
<path id="Vector_3" d="M44.2376 20.8432C44.2376 21.1584 43.1656 27.5904 39.956 30.2336C44.2536 16.736 32.5192 9.1424 32.5192 9.1424C32.5192 9.1424 30.6984 19.168 27.1656 22.9568C26.9704 18.64 24.492 15.9968 24.492 15.9968C22.7064 23.8032 16.5 30.5504 16.5 35.6064C16.4824 44.3808 23.6168 51.4288 32.5 51.4288C41.364 51.4288 48.5 44.3808 48.5 35.6064C48.5 29.2816 46.6984 24.6464 44.2376 20.8416V20.8432Z" fill="white"/>
</g>
</g>
</g>
</g>
<defs>
<clipPath id="clip0_3_96">
<rect width="64" height="64" fill="white" transform="translate(0.5)"/>
</clipPath>
</defs>
</svg>
