<svg width="65" height="64" viewBox="0 0 65 64" fill="none" xmlns="http://www.w3.org/2000/svg">
<g id="Clip path group">
<mask id="mask0_3_109" style="mask-type:luminance" maskUnits="userSpaceOnUse" x="0" y="0" width="65" height="64">
<g id="icon_oil_svg__a">
<path id="Vector" d="M64.5 32C64.5 14.3269 50.1731 0 32.5 0C14.8269 0 0.5 14.3269 0.5 32C0.5 49.6731 14.8269 64 32.5 64C50.1731 64 64.5 49.6731 64.5 32Z" fill="white"/>
</g>
</mask>
<g mask="url(#mask0_3_109)">
<g id="Group">
<path id="Vector_2" d="M0.5 0H64.5V64H0.5V0Z" fill="#0F0F0F"/>
<path id="Vector_3" d="M44.9451 35.5552C44.9451 43.3792 39.3451 49.7792 32.5003 49.7792C25.6555 49.7792 20.0555 43.3792 20.0555 35.5552C20.0555 27.7328 32.5003 10.6672 32.5003 10.6672C32.5003 10.6672 44.9451 27.7328 44.9451 35.5552Z" fill="white"/>
</g>
</g>
</g>
</svg>
