<svg width="88" height="88" viewBox="0 0 88 88" fill="none" xmlns="http://www.w3.org/2000/svg">
<g clip-path="url(#clip0_18_144)">
<path d="M83.6521 45.073C82.3512 42.8181 79.4586 42.042 77.2039 43.3428L60.7264 52.8579C60.1868 50.8442 58.3464 49.3575 56.165 49.3575H48.2995C45.1231 48.0016 41.6837 46.6986 38.192 46.6986C31.257 46.6986 25.4521 51.7782 22.0422 57.4232L18.6322 54.0132C18.1289 53.51 17.3127 53.51 16.8093 54.0132L14.1155 56.7069L13.1865 55.7779C12.6829 55.2748 11.867 55.2745 11.3636 55.7779L4.15351 62.9861C3.64992 63.5937 3.64992 64.2014 4.15351 64.8092L16.7381 77.394C17.2415 77.8972 18.0578 77.8972 18.561 77.394C19.0644 76.8904 19.0644 76.0743 18.561 75.5709L6.88803 63.8979L12.2749 58.5122L33.2648 79.5004L27.878 84.8878L22.5349 79.5448C22.0315 79.0415 21.2153 79.0415 20.712 79.5448C20.2086 80.0484 20.2086 80.8644 20.712 81.3678L26.9665 87.6223C27.5741 88.1256 28.1818 88.1256 28.7894 87.6223L35.9995 80.4122C36.5029 79.8045 36.5029 79.1967 35.9995 78.5892L35.0702 77.66L37.763 74.9673C38.2664 74.3595 38.2664 73.7518 37.763 73.1442L35.1099 70.4911H54.2864C56.474 70.4911 58.6264 69.7493 60.3463 68.4029L66.2468 63.7915C66.8078 63.3531 66.9071 62.543 66.4687 61.9822C66.0304 61.4212 65.2202 61.3218 64.6593 61.7603L58.7581 66.3724C57.4888 67.366 55.9006 67.9132 54.2864 67.9132H32.532L23.9276 59.3088C25.347 56.8141 30.2906 49.2769 38.1921 49.2769C41.7111 49.2769 46.1906 51.9638 48.0594 51.9358H56.165C57.3317 51.9358 58.2835 52.8729 58.3077 54.0337C58.3268 55.1397 57.6362 55.8028 56.2361 56.023L40.6712 56.0231C39.9593 56.0231 39.3822 56.6003 39.3822 57.3122C39.3822 58.0243 39.9593 58.6012 40.6712 58.6012L56.2361 58.6011C58.0284 58.6011 59.6695 57.5688 60.461 55.9879L78.4928 45.5758C79.5156 44.9856 80.8286 45.3381 81.4207 46.3645C82.0716 47.4862 81.3499 48.7156 80.487 49.3888L69.0849 58.3006C68.5239 58.7391 68.4248 59.5493 68.863 60.11C69.3013 60.6708 70.1115 60.7701 70.6725 60.3318L82.0095 51.4709C84.2361 49.7776 84.7836 47.6451 83.6521 45.073ZM15.9391 58.5296L17.7209 56.7479L35.0286 74.0556L33.2471 75.8369L15.9391 58.5296Z" fill="#0982F3"/>
<path d="M14.9884 64.7886C14.485 64.2853 13.6688 64.2853 13.1655 64.7886C12.6621 65.2922 12.6621 66.1082 13.1655 66.6116L17.8211 71.2672C18.0727 71.5189 18.4027 71.6447 18.7326 71.6447C19.0624 71.6447 19.3924 71.5189 19.644 71.2672C20.1474 70.7636 20.1474 69.9476 19.644 69.4441L14.9884 64.7886Z" fill="#0982F3"/>
<path d="M67.3049 29.1063H68.7711C69.5322 29.1063 70.1515 29.7255 70.1515 30.4866C70.1515 31.2477 69.5322 31.8667 68.7711 31.8667H67.1173C66.6177 31.8667 66.1856 31.5452 66.0419 31.0667C65.8374 30.3847 65.119 29.998 64.4368 30.2025C63.755 30.407 63.3679 31.1256 63.5726 31.8076C64.0102 33.2662 65.2609 34.2821 66.7489 34.4272V35.971C66.7489 36.683 67.326 37.26 68.0379 37.26C68.7498 37.26 69.327 36.683 69.327 35.971V34.4062C71.2473 34.1352 72.7294 32.4807 72.7294 30.4866C72.7294 28.304 70.9536 26.5283 68.771 26.5283H67.3047C66.5436 26.5283 65.9244 25.909 65.9244 25.148C65.9244 24.3869 66.5436 23.7677 67.3047 23.7677H68.6147C69.1144 23.7677 69.5465 24.0891 69.69 24.5676C69.8943 25.2494 70.6126 25.637 71.2949 25.4319C71.9768 25.2276 72.3638 24.5088 72.1593 23.827C71.7559 22.4822 70.6614 21.5135 69.3268 21.2569V19.6635C69.3268 18.9514 68.7496 18.3744 68.0377 18.3744C67.3258 18.3744 66.7487 18.9514 66.7487 19.6635V21.2282C64.8281 21.4992 63.3461 23.1537 63.3461 25.1478C63.3464 27.3305 65.1221 29.1063 67.3049 29.1063Z" fill="#0982F3"/>
<path d="M68.038 42.2811C76.1084 42.2811 82.674 35.7155 82.674 27.6452V16.9675C82.674 16.2554 82.0968 15.6785 81.3849 15.6785C80.673 15.6785 80.0958 16.2554 80.0958 16.9675V19.3578C77.6836 15.8588 73.7893 13.4565 69.3271 13.0653V8.95922C69.3271 8.24715 68.7499 7.67017 68.038 7.67017C67.3261 7.67017 66.749 8.24715 66.749 8.95922V13.0653C63.6819 13.3341 60.8831 14.553 58.6494 16.4253V11.6286C58.6494 10.9165 58.0722 10.3395 57.3603 10.3395C56.6484 10.3395 56.0713 10.9165 56.0713 11.6286V19.2268C54.3902 21.6093 53.4019 24.514 53.4019 27.645C53.4019 35.7155 59.9677 42.2811 68.038 42.2811ZM68.038 15.587C74.6868 15.587 80.0958 20.9962 80.0958 27.645C80.0958 34.2938 74.6866 39.7028 68.038 39.7028C61.3892 39.7028 55.98 34.2936 55.98 27.645C55.98 20.9962 61.3892 15.587 68.038 15.587Z" fill="#0982F3"/>
<path d="M81.3849 12.896C82.0969 12.896 82.674 12.319 82.674 11.607V8.95923C82.674 8.24715 82.0969 7.67017 81.3849 7.67017C80.673 7.67017 80.0959 8.24715 80.0959 8.95923V11.607C80.0959 12.319 80.673 12.896 81.3849 12.896Z" fill="#0982F3"/>
<path d="M36.0052 29.5896C36.7171 29.5896 37.2943 29.0126 37.2943 28.3005V26.7358C39.2146 26.4647 40.6967 24.8103 40.6967 22.8162C40.6967 20.6335 38.9209 18.8579 36.7382 18.8579H35.272C34.5109 18.8579 33.8916 18.2386 33.8916 17.4776C33.8916 16.7165 34.5109 16.0972 35.272 16.0972H36.582C37.0816 16.0972 37.5137 16.4187 37.6573 16.8972C37.8616 17.5792 38.5799 17.9662 39.2622 17.7615C39.9441 17.5572 40.3311 16.8384 40.1266 16.1565C39.7232 14.8118 38.6285 13.8431 37.2941 13.5865V11.993C37.2941 11.281 36.7169 10.704 36.005 10.704C35.2931 10.704 34.716 11.281 34.716 11.993V13.5578C32.7954 13.8288 31.3134 15.4833 31.3134 17.4774C31.3134 19.66 33.0892 21.4359 35.2718 21.4359H36.7381C37.4991 21.4359 38.1184 22.0551 38.1184 22.816C38.1184 23.5772 37.4991 24.1963 36.7381 24.1963H35.0843C34.5847 24.1963 34.1526 23.8748 34.0089 23.3963C33.8043 22.7143 33.0857 22.3274 32.4037 22.5321C31.7219 22.7366 31.3348 23.4552 31.5395 24.1372C31.9771 25.5957 33.2279 26.6117 34.7158 26.7568V28.3005C34.7161 29.0126 35.2933 29.5896 36.0052 29.5896Z" fill="#0982F3"/>
<path d="M36.0059 34.6108C38.7416 34.6108 41.4103 33.8499 43.7235 32.4103C44.328 32.0342 44.5129 31.2393 44.1369 30.6348C43.7608 30.0305 42.9661 29.8454 42.3613 30.2216C40.4574 31.4065 38.2597 32.0327 36.0059 32.0327C29.3566 32.0327 23.9472 26.6238 23.9472 19.9757C23.9472 13.3264 29.3568 7.91703 36.0059 7.91703C42.6541 7.91703 48.0628 13.3266 48.0628 19.9757C48.0628 22.384 47.3554 24.7086 46.017 26.6982C45.6196 27.2891 45.7764 28.0901 46.3671 28.4873C46.9577 28.8846 47.7588 28.7279 48.1562 28.1373C49.7754 25.7302 50.6341 22.9206 50.6408 20.0103C50.6411 19.9986 50.6413 19.9869 50.6413 19.975V9.29735C50.6413 8.58528 50.0641 8.0083 49.3522 8.0083C48.6403 8.0083 48.0632 8.58528 48.0632 9.29735V11.6881C45.6509 8.18859 41.7566 5.78614 37.2944 5.39512V1.28905C37.2944 0.576981 36.7173 0 36.0054 0C35.2935 0 34.7163 0.576981 34.7163 1.28905V5.39512C31.6492 5.66411 28.8504 6.88304 26.6167 8.75526V3.95826C26.6167 3.24618 26.0396 2.6692 25.3277 2.6692C24.6158 2.6692 24.0386 3.24618 24.0386 3.95826V11.5566C22.3575 13.9393 21.3691 16.8442 21.3691 19.9754C21.3691 28.0455 27.935 34.6108 36.0059 34.6108Z" fill="#0982F3"/>
<path d="M49.3522 5.22586C50.0641 5.22586 50.6413 4.64888 50.6413 3.9368V1.28906C50.6413 0.576984 50.0641 0 49.3522 0C48.6403 0 48.0632 0.576984 48.0632 1.28906V3.9368C48.0632 4.64888 48.6402 5.22586 49.3522 5.22586Z" fill="#0982F3"/>
</g>
<defs>
<clipPath id="clip0_18_144">
<rect width="88" height="88" fill="white"/>
</clipPath>
</defs>
</svg>
