<svg width="88" height="88" viewBox="0 0 88 88" fill="none" xmlns="http://www.w3.org/2000/svg">
<g clip-path="url(#clip0_18_127)">
<path d="M18.8719 15.6777L18.9568 19.7171C18.9653 20.1202 19.1617 20.4961 19.4879 20.7329C19.7107 20.8948 19.9766 20.9792 20.2456 20.9792C20.3705 20.9792 20.4958 20.9612 20.618 20.9242L24.4878 19.7562L28.3575 20.9242C28.7432 21.0408 29.1617 20.9705 29.4876 20.7331C29.8137 20.4961 30.0103 20.1204 30.0187 19.7173L30.1035 15.6779L32.4085 12.3561C32.6381 12.0251 32.6998 11.6057 32.5752 11.2224C32.4506 10.8391 32.1537 10.5363 31.7732 10.4038L27.9574 9.07534L25.5147 5.85646C25.271 5.5354 24.891 5.34668 24.4878 5.34668C24.0846 5.34668 23.7047 5.5354 23.461 5.85646L21.018 9.07516L17.2022 10.4036C16.8216 10.5361 16.525 10.8389 16.4002 11.2222C16.2754 11.6055 16.3373 12.0249 16.5669 12.3559L18.8719 15.6777ZM22.2333 11.3821C22.4731 11.2987 22.6827 11.1463 22.8362 10.944L24.4878 8.76802L26.139 10.944C26.2926 11.1463 26.5023 11.2985 26.7421 11.3821L29.3228 12.2806L27.7637 14.5274C27.6192 14.7355 27.5392 14.9818 27.5341 15.2352L27.4769 17.9654L24.8602 17.1756C24.6175 17.1021 24.358 17.1021 24.1153 17.1756L21.4987 17.9654L21.4413 15.2352C21.4361 14.9816 21.3562 14.7355 21.2117 14.5274L19.6526 12.2806L22.2333 11.3821Z" fill="#0982F3"/>
<path d="M38.3868 10.3266L38.4717 14.3655C38.4801 14.7684 38.6762 15.1439 39.0022 15.3809C39.3281 15.6181 39.7461 15.6888 40.1316 15.5729L44.0024 14.409L47.8732 15.5729C47.9951 15.6095 48.1202 15.6274 48.2445 15.6274C48.5136 15.6274 48.7797 15.543 49.0026 15.3807C49.3285 15.1437 49.5248 14.7682 49.5332 14.3653L49.6181 10.3264L51.9226 7.00958C52.1526 6.67872 52.2144 6.25952 52.0902 5.87623C51.9659 5.49295 51.6696 5.18994 51.2892 5.05708L47.4721 3.7235L45.0287 0.509094C44.7851 0.188547 44.4056 0.000171875 44.0029 0H44.0024C43.5999 0 43.2206 0.188031 42.9768 0.508234L40.5283 3.72384L36.7153 5.05759C36.3349 5.19045 36.0388 5.49347 35.9145 5.87675C35.7902 6.25986 35.8525 6.67923 36.0823 7.00992L38.3868 10.3266ZM41.7448 6.02955C41.9834 5.94636 42.1921 5.79477 42.3449 5.59384L44.0016 3.41825L45.6545 5.59281C45.8076 5.79442 46.0166 5.94636 46.2555 6.02972L48.8374 6.93172L47.2789 9.17503C47.134 9.38334 47.0539 9.62981 47.0487 9.8835L46.9913 12.6156L44.3737 11.8284C44.2525 11.792 44.1274 11.774 44.0024 11.774C43.8775 11.774 43.7523 11.792 43.6312 11.8284L41.0137 12.6156L40.9563 9.8835C40.9511 9.62964 40.871 9.38334 40.7261 9.17503L39.1672 6.9312L41.7448 6.02955Z" fill="#0982F3"/>
<path d="M57.8973 15.6778L57.9865 19.7186C57.9954 20.1214 58.192 20.4968 58.5181 20.7335C58.8443 20.9703 59.2625 21.0406 59.6477 20.9241L63.5172 19.7562L67.3817 20.9241C67.5041 20.9611 67.6297 20.9791 67.7547 20.9791C68.0233 20.9791 68.2888 20.8951 68.5116 20.7333C68.8376 20.4968 69.0344 20.1211 69.0434 19.7184L69.1326 15.6783L71.4383 12.356C71.6679 12.0248 71.7296 11.6054 71.605 11.2221C71.4804 10.8388 71.1837 10.536 70.803 10.4035L66.9872 9.07504L64.5442 5.85634C64.3007 5.53545 63.921 5.34673 63.5179 5.34656H63.5174C63.1147 5.34656 62.735 5.53493 62.4912 5.85548L60.0433 9.07487L56.2313 10.4035C55.8511 10.536 55.5545 10.8385 55.43 11.2216C55.3052 11.6045 55.3666 12.0237 55.5959 12.3548L57.8973 15.6778ZM61.2585 11.3819C61.4977 11.2986 61.7069 11.1467 61.8604 10.9449L63.5164 8.76687L65.1688 10.944C65.3223 11.1463 65.532 11.2986 65.7717 11.3821L68.3524 12.2807L66.7932 14.5273C66.649 14.7352 66.5691 14.981 66.5636 15.2338L66.5032 17.9654L63.8902 17.1757C63.647 17.1021 63.3877 17.1019 63.1448 17.1757L60.5265 17.966L60.4661 15.2338C60.4606 14.9812 60.3809 14.7359 60.2372 14.5283L58.6802 12.2807L61.2585 11.3819Z" fill="#0982F3"/>
<path d="M62.0414 36.5669C62.0414 31.7482 60.1642 27.2184 56.7559 23.8127C49.725 16.7817 38.2805 16.7817 31.2441 23.8127C24.2134 30.8436 24.2132 42.2883 31.2445 49.3253C34.7626 52.8407 39.3824 54.5985 44.0019 54.5985C48.6214 54.5985 53.2404 52.8405 56.7559 49.3248C60.1643 45.9162 62.0414 41.3852 62.0414 36.5669ZM33.067 25.636C36.0828 22.6223 40.0419 21.116 44.0017 21.116C47.9607 21.116 51.9202 22.623 54.9331 25.636C57.8545 28.5551 59.4633 32.4371 59.4633 36.5669C59.4633 40.4755 58.0202 44.1622 55.389 47.0227C54.7006 44.1098 52.9067 41.5427 50.3742 39.8899C51.4565 38.5123 52.1043 36.7783 52.1043 34.8947C52.1043 30.4272 48.4698 26.7925 44.0022 26.7925C39.5347 26.7925 35.9004 30.427 35.9004 34.8947C35.9004 36.7785 36.5484 38.5125 37.6305 39.8901C35.0971 41.5434 33.3028 44.1117 32.615 47.0258C27.0478 40.9653 27.1968 31.5062 33.067 25.636ZM38.4787 34.8947C38.4787 31.8487 40.9566 29.3706 44.0024 29.3706C47.0484 29.3706 49.5263 31.8487 49.5263 34.8947C49.5263 37.9407 47.0484 40.4188 44.0024 40.4188C40.9566 40.4188 38.4787 37.9407 38.4787 34.8947ZM34.9035 49.0704C35.1153 45.9868 36.899 43.2021 39.6167 41.7018C40.8818 42.5198 42.387 42.9969 44.0024 42.9969C45.6179 42.9969 47.123 42.5198 48.3881 41.7018C51.105 43.2018 52.8885 45.9853 53.1013 49.0679C47.7018 53.0036 40.3066 53.0045 34.9035 49.0704Z" fill="#0982F3"/>
<path d="M85.7144 28.1205C84.8238 27.109 83.595 26.5049 82.2544 26.4191C80.9148 26.3318 79.6206 26.7771 78.6084 27.6695C77.952 28.2479 77.4685 28.9687 77.1856 29.7691C76.9598 29.7227 76.73 29.6899 76.4973 29.6741C75.1603 29.5873 73.8631 30.0317 72.8496 30.9238C71.8362 31.8153 71.231 33.0435 71.1451 34.385L70.9983 36.7486L70.3144 47.5114C69.965 47.6931 69.6233 47.9079 69.2936 48.1573C69.277 48.1697 69.2608 48.1828 69.2447 48.1962L60.2673 55.6932C56.3174 58.9886 55.9192 61.8608 55.5559 66.6538L54.9861 74.2055H53.5815C51.9841 74.2055 50.6846 75.5073 50.6846 77.1075V85.1032C50.6846 86.7007 51.9843 88.0002 53.5815 88.0002H61.8458C62.5579 88.0002 63.1348 87.4232 63.1348 86.7111C63.1348 85.9991 62.5579 85.4221 61.8458 85.4221H53.5815C53.4086 85.4221 53.2627 85.276 53.2627 85.1032V77.1075C53.2627 76.932 53.4088 76.7836 53.5815 76.7836H76.0726C76.2455 76.7836 76.3914 76.9318 76.3914 77.1075V85.1032C76.3914 85.2762 76.2453 85.4221 76.0726 85.4221H67.8133C67.1012 85.4221 66.5242 85.9991 66.5242 86.7111C66.5242 87.4232 67.1012 88.0002 67.8133 88.0002H76.0727C77.6702 88.0002 78.9697 86.7005 78.9697 85.1032V77.1075C78.9697 75.5073 77.67 74.2055 76.0727 74.2055H75.2727C81.8266 67.3855 85.1706 59.9787 85.7361 51.1196L86.9627 31.7663C87.0485 30.4269 86.6052 29.1323 85.7144 28.1205ZM73.5716 36.91L73.7182 34.5471C73.76 33.8955 74.0565 33.2962 74.5527 32.8593C75.0491 32.4225 75.6812 32.2044 76.3271 32.2467C76.4995 32.2586 76.6673 32.2914 76.8304 32.3364L75.8632 47.5508C75.5394 47.3573 75.1917 47.1954 74.8229 47.0733C74.2131 46.8715 73.5797 46.7853 72.9429 46.8054L73.5716 36.91ZM84.3896 31.6022L83.1629 50.9558C82.5894 59.9394 78.9113 67.3391 71.6036 74.2055H57.5713L58.1264 66.8484C58.464 62.398 58.7467 60.319 61.9192 57.6723L70.8718 50.1961C72.2549 49.1626 73.4322 49.3288 74.0126 49.5207C74.7928 49.7788 75.3852 50.3661 75.5977 51.0926C75.8892 52.0867 75.4672 53.2149 74.4081 54.2708C73.7095 54.9694 72.6201 56.1024 71.4668 57.302C69.9019 58.9298 68.1278 60.7745 67.2666 61.5942C66.7508 62.0847 66.7305 62.901 67.2212 63.4167C67.7117 63.9324 68.5278 63.9528 69.0437 63.4621C69.9468 62.6031 71.6643 60.8166 73.3253 59.0891C74.4697 57.899 75.5504 56.7748 76.2298 56.0954C77.7497 54.5803 78.4522 52.787 78.2222 51.0775L79.4798 31.2923C79.5216 30.6398 79.8176 30.0402 80.3129 29.6038C80.8077 29.1677 81.4368 28.9503 82.0896 28.9919C82.7434 29.0338 83.3434 29.3295 83.7793 29.8245C84.2148 30.3186 84.4317 30.9497 84.3896 31.6022Z" fill="#0982F3"/>
<path d="M34.4233 74.2053H33.0187L32.4488 66.6533C32.0856 61.8637 31.6877 58.9932 27.7379 55.6934L18.76 48.196C18.7438 48.1826 18.7275 48.1697 18.7108 48.1568C18.3729 47.9016 18.0316 47.6873 17.6897 47.5075L16.8546 34.3821C16.7688 33.0435 16.1647 31.8155 15.1537 30.9243C14.1414 30.0321 12.8451 29.5871 11.5033 29.6744C11.27 29.6902 11.0418 29.7222 10.8183 29.7676C10.5349 28.9677 10.0506 28.2472 9.39332 27.6688C8.37978 26.7771 7.0835 26.3318 5.74562 26.4191C2.9719 26.5968 0.859731 28.9957 1.03728 31.7656L2.26893 51.1194C2.83062 59.9775 6.17273 67.3845 12.7274 74.2053H11.9321C10.3347 74.2053 9.03514 75.5071 9.03514 77.1073V85.1031C9.03514 86.7005 10.3349 88 11.9321 88H20.1915C20.9036 88 21.4806 87.423 21.4806 86.711C21.4806 85.9989 20.9036 85.4219 20.1915 85.4219H11.9323C11.7594 85.4219 11.6134 85.2758 11.6134 85.1031V77.1073C11.6134 76.9318 11.7595 76.7835 11.9323 76.7835H34.4233C34.5962 76.7835 34.7421 76.9316 34.7421 77.1073V85.1031C34.7421 85.276 34.596 85.4219 34.4233 85.4219H26.1639C25.4518 85.4219 24.8748 85.9989 24.8748 86.711C24.8748 87.423 25.4518 88 26.1639 88H34.4233C36.0207 88 37.3203 86.7003 37.3203 85.1031V77.1073C37.3204 75.5071 36.0207 74.2053 34.4233 74.2053ZM11.6727 32.2469C12.3231 32.2065 12.9541 32.4224 13.4489 32.8586C13.9442 33.2951 14.2402 33.8948 14.2818 34.5466L15.0611 46.7939C13.985 46.7624 12.9795 47.047 12.1416 47.5492L11.1743 32.335C11.3352 32.2907 11.5007 32.2586 11.6727 32.2469ZM4.8419 50.956L3.61025 31.6015C3.52362 30.2495 4.55539 29.0789 5.91045 28.9919C6.56409 28.9515 7.19401 29.1676 7.69022 29.6043C8.18642 30.041 8.4829 30.6405 8.5245 31.2914L8.54409 31.5998C8.54478 31.6137 8.54564 31.6276 8.54667 31.6415L9.7809 51.0569C9.56245 52.6038 10.0777 54.4031 11.7697 56.0949C12.4654 56.7887 13.5726 57.9396 14.7452 59.1582C16.3799 60.8574 18.0703 62.6143 18.9609 63.4618C19.4769 63.9523 20.2926 63.9322 20.7835 63.4164C21.2744 62.9006 21.2539 62.0845 20.7381 61.5938C19.8885 60.7857 18.2182 59.0494 16.603 57.3707C15.4212 56.1423 14.3048 54.982 13.5915 54.2706C11.9285 52.6075 12.1246 51.1089 12.8624 50.2614C13.7172 49.279 15.4557 48.9442 17.133 50.196L26.0853 57.6718C29.2583 60.3223 29.541 62.4005 29.8782 66.8475L30.4334 74.2052H16.3962C9.0879 67.3383 5.41132 59.9385 4.8419 50.956Z" fill="#0982F3"/>
</g>
<defs>
<clipPath id="clip0_18_127">
<rect width="88" height="88" fill="white"/>
</clipPath>
</defs>
</svg>
