<svg width="65" height="64" viewBox="0 0 65 64" fill="none" xmlns="http://www.w3.org/2000/svg">
<rect x="0.5" width="64" height="64" rx="32" fill="#0982F3"/>
<g clip-path="url(#clip0_3_177)">
<path d="M31 41C31 41 29.5 41 29.5 39.5C29.5 38 31 33.5 37 33.5C43 33.5 44.5 38 44.5 39.5C44.5 41 43 41 43 41H31ZM37 32C38.1935 32 39.3381 31.5259 40.182 30.682C41.0259 29.8381 41.5 28.6935 41.5 27.5C41.5 26.3065 41.0259 25.1619 40.182 24.318C39.3381 23.4741 38.1935 23 37 23C35.8065 23 34.6619 23.4741 33.818 24.318C32.9741 25.1619 32.5 26.3065 32.5 27.5C32.5 28.6935 32.9741 29.8381 33.818 30.682C34.6619 31.5259 35.8065 32 37 32ZM28.324 41C28.1016 40.5317 27.9907 40.0183 28 39.5C28 37.4675 29.02 35.375 30.904 33.92C29.9636 33.6303 28.9839 33.4886 28 33.5C22 33.5 20.5 38 20.5 39.5C20.5 41 22 41 22 41H28.324ZM27.25 32C28.2446 32 29.1984 31.6049 29.9017 30.9017C30.6049 30.1984 31 29.2446 31 28.25C31 27.2554 30.6049 26.3016 29.9017 25.5983C29.1984 24.8951 28.2446 24.5 27.25 24.5C26.2554 24.5 25.3016 24.8951 24.5983 25.5983C23.8951 26.3016 23.5 27.2554 23.5 28.25C23.5 29.2446 23.8951 30.1984 24.5983 30.9017C25.3016 31.6049 26.2554 32 27.25 32Z" fill="white"/>
</g>
<defs>
<clipPath id="clip0_3_177">
<rect width="24" height="24" fill="white" transform="translate(20.5 20)"/>
</clipPath>
</defs>
</svg>
