<svg width="65" height="64" viewBox="0 0 65 64" fill="none" xmlns="http://www.w3.org/2000/svg">
<rect x="0.5" width="64" height="64" rx="32" fill="#0982F3"/>
<path d="M25.375 43.25H23.875C23.5766 43.25 23.2905 43.1315 23.0795 42.9205C22.8685 42.7095 22.75 42.4234 22.75 42.125V35.375C22.75 35.0766 22.8685 34.7905 23.0795 34.5795C23.2905 34.3685 23.5766 34.25 23.875 34.25H25.375C25.6734 34.25 25.9595 34.3685 26.1705 34.5795C26.3815 34.7905 26.5 35.0766 26.5 35.375V42.125C26.5 42.4234 26.3815 42.7095 26.1705 42.9205C25.9595 43.1315 25.6734 43.25 25.375 43.25ZM35.875 43.25H34.375C34.0766 43.25 33.7905 43.1315 33.5795 42.9205C33.3685 42.7095 33.25 42.4234 33.25 42.125V30.875C33.25 30.5766 33.3685 30.2905 33.5795 30.0795C33.7905 29.8685 34.0766 29.75 34.375 29.75H35.875C36.1734 29.75 36.4595 29.8685 36.6705 30.0795C36.8815 30.2905 37 30.5766 37 30.875V42.125C37 42.4234 36.8815 42.7095 36.6705 42.9205C36.4595 43.1315 36.1734 43.25 35.875 43.25ZM41.125 43.25H39.625C39.3266 43.25 39.0405 43.1315 38.8295 42.9205C38.6185 42.7095 38.5 42.4234 38.5 42.125V25.625C38.5 25.3266 38.6185 25.0405 38.8295 24.8295C39.0405 24.6185 39.3266 24.5 39.625 24.5H41.125C41.4234 24.5 41.7095 24.6185 41.9205 24.8295C42.1315 25.0405 42.25 25.3266 42.25 25.625V42.125C42.25 42.4234 42.1315 42.7095 41.9205 42.9205C41.7095 43.1315 41.4234 43.25 41.125 43.25ZM30.625 43.25H29.125C28.8266 43.25 28.5405 43.1315 28.3295 42.9205C28.1185 42.7095 28 42.4234 28 42.125V21.875C28 21.5766 28.1185 21.2905 28.3295 21.0795C28.5405 20.8685 28.8266 20.75 29.125 20.75H30.625C30.9234 20.75 31.2095 20.8685 31.4205 21.0795C31.6315 21.2905 31.75 21.5766 31.75 21.875V42.125C31.75 42.4234 31.6315 42.7095 31.4205 42.9205C31.2095 43.1315 30.9234 43.25 30.625 43.25Z" fill="white"/>
</svg>
