<svg width="88" height="88" viewBox="0 0 88 88" fill="none" xmlns="http://www.w3.org/2000/svg">
<g clip-path="url(#clip0_18_107)">
<path d="M31.1132 24.5077L29.625 25.047C27.328 25.8799 25.6144 27.8892 25.1526 30.2921L24.6476 32.9383C24.3957 34.249 24.7387 35.5914 25.5893 36.6207C26.4403 37.6511 27.695 38.242 29.0311 38.242H41.9316C43.2574 38.242 44.5057 37.6589 45.3565 36.6421C46.2066 35.6261 46.5603 34.296 46.3269 32.9926L45.856 30.3604C45.4196 27.9196 43.7003 25.8777 41.3687 25.0316L39.7909 24.4597V22.1343C39.7909 22.069 39.7845 22.0054 39.7751 21.9426C40.9261 20.7708 41.5854 19.1729 41.5854 17.538V14.0732C41.5854 10.691 38.8337 7.93945 35.4514 7.93945C32.069 7.93945 29.3168 10.691 29.3168 14.0732V17.6459C29.3168 19.3265 30.0098 20.8608 31.1241 21.9751C31.1175 22.0274 31.1132 22.0801 31.1132 22.1341V24.5077ZM43.3177 30.8141L43.7887 33.4467C43.8873 33.9969 43.738 34.5584 43.3789 34.9874C43.0194 35.4171 42.4917 35.6637 41.9312 35.6637H29.0308C28.4662 35.6637 27.9361 35.4142 27.5766 34.9788C27.2177 34.5443 27.0728 33.978 27.1794 33.4234L27.6843 30.7772C27.9753 29.2626 29.0557 27.9957 30.5031 27.471L31.478 27.1178C31.5024 27.1429 31.5269 27.1681 31.5534 27.1913C32.6642 28.1626 34.0576 28.6483 35.4519 28.6482C36.8444 28.6482 38.2375 28.1635 39.3485 27.1941C39.3885 27.1592 39.4253 27.1216 39.4603 27.0824L40.4887 27.4552C41.9589 27.9883 43.0427 29.2753 43.3177 30.8141ZM31.8949 14.0732C31.8949 12.1127 33.4901 10.5176 35.4508 10.5176C37.1057 10.5176 38.4961 11.6554 38.8909 13.1885C38.7252 13.2695 38.5553 13.346 38.3811 13.4156C36.7961 14.0501 35.5158 13.9659 35.1499 13.7095C34.5669 13.3007 33.7632 13.4417 33.3543 14.0247C32.9456 14.6077 33.0867 15.4114 33.6695 15.8203C34.2991 16.2618 35.1537 16.4825 36.1289 16.4825C37.0149 16.4825 38.0006 16.2984 39.0069 15.9342V17.5376C39.0069 18.523 38.5994 19.4879 37.8887 20.1849C37.5598 20.5076 37.1828 20.7577 36.7781 20.9303C36.7497 20.9411 36.7219 20.9528 36.6945 20.9655C36.2788 21.13 35.8346 21.2127 35.3807 21.2008C33.4585 21.1639 31.8949 19.569 31.8949 17.6458V14.0732ZM35.3312 23.7788C35.3706 23.7795 35.4096 23.7798 35.449 23.7798C36.0538 23.7798 36.6464 23.6889 37.2126 23.5144V25.5767C36.1382 26.2392 34.7647 26.2388 33.6917 25.5757V23.5182C34.2132 23.6762 34.7627 23.7678 35.3312 23.7788Z" fill="#0982F3"/>
<path d="M15.1704 60.3116H55.3153C56.0273 60.3116 56.6043 59.7347 56.6043 59.0226C56.6043 58.3105 56.0273 57.7335 55.3153 57.7335H15.1704C14.4583 57.7335 13.8813 58.3105 13.8813 59.0226C13.8813 59.7347 14.4583 60.3116 15.1704 60.3116Z" fill="#0982F3"/>
<path d="M15.1704 67.2625H55.3153C56.0273 67.2625 56.6043 66.6855 56.6043 65.9734C56.6043 65.2613 56.0273 64.6843 55.3153 64.6843H15.1704C14.4583 64.6843 13.8813 65.2613 13.8813 65.9734C13.8813 66.6855 14.4583 67.2625 15.1704 67.2625Z" fill="#0982F3"/>
<path d="M15.1704 74.2129H55.3153C56.0273 74.2129 56.6043 73.6359 56.6043 72.9238C56.6043 72.2117 56.0273 71.6348 55.3153 71.6348H15.1704C14.4583 71.6348 13.8813 72.2117 13.8813 72.9238C13.8813 73.6359 14.4583 74.2129 15.1704 74.2129Z" fill="#0982F3"/>
<path d="M15.1704 81.1637H55.3153C56.0273 81.1637 56.6043 80.5867 56.6043 79.8746C56.6043 79.1626 56.0273 78.5856 55.3153 78.5856H15.1704C14.4583 78.5856 13.8813 79.1626 13.8813 79.8746C13.8813 80.5867 14.4583 81.1637 15.1704 81.1637Z" fill="#0982F3"/>
<path d="M13.8813 45.1213C13.8813 45.8334 14.4583 46.4104 15.1704 46.4104H55.3153C56.0273 46.4104 56.6043 45.8334 56.6043 45.1213C56.6043 44.4093 56.0273 43.8323 55.3153 43.8323H15.1704C14.4583 43.8323 13.8813 44.4094 13.8813 45.1213Z" fill="#0982F3"/>
<path d="M15.1704 53.361H55.3153C56.0273 53.361 56.6043 52.784 56.6043 52.0719C56.6043 51.3598 56.0273 50.7828 55.3153 50.7828H15.1704C14.4583 50.7828 13.8813 51.3598 13.8813 52.0719C13.8813 52.784 14.4583 53.361 15.1704 53.361Z" fill="#0982F3"/>
<path d="M10.4103 60.3164C11.125 60.3164 11.7044 59.7372 11.7044 59.0225C11.7044 58.308 11.125 57.7286 10.4103 57.7286C9.69567 57.7286 9.11646 58.3079 9.11646 59.0225C9.11646 59.7372 9.69585 60.3164 10.4103 60.3164Z" fill="#0982F3"/>
<path d="M10.4103 46.4151C11.125 46.4151 11.7044 45.8359 11.7044 45.1213C11.7044 44.4066 11.125 43.8274 10.4103 43.8274C9.69567 43.8274 9.11646 44.4066 9.11646 45.1213C9.11646 45.8359 9.69585 46.4151 10.4103 46.4151Z" fill="#0982F3"/>
<path d="M10.4103 53.3658C11.125 53.3658 11.7044 52.7866 11.7044 52.0719C11.7044 51.3573 11.125 50.7781 10.4103 50.7781C9.69567 50.7781 9.11646 51.3573 9.11646 52.0719C9.11646 52.7866 9.69585 53.3658 10.4103 53.3658Z" fill="#0982F3"/>
<path d="M10.4103 67.2671C11.125 67.2671 11.7044 66.6878 11.7044 65.9732C11.7044 65.2585 11.125 64.6793 10.4103 64.6793C9.69567 64.6793 9.11646 65.2585 9.11646 65.9732C9.11646 66.6878 9.69585 67.2671 10.4103 67.2671Z" fill="#0982F3"/>
<path d="M10.4103 74.2179C11.125 74.2179 11.7044 73.6387 11.7044 72.924C11.7044 72.2093 11.125 71.6301 10.4103 71.6301C9.69567 71.6301 9.11646 72.2093 9.11646 72.924C9.11646 73.6385 9.69585 74.2179 10.4103 74.2179Z" fill="#0982F3"/>
<path d="M10.4103 81.1684C11.125 81.1684 11.7044 80.5892 11.7044 79.8746C11.7044 79.1601 11.125 78.5807 10.4103 78.5807C9.69567 78.5807 9.11646 79.1599 9.11646 79.8746C9.11646 80.5891 9.69585 81.1684 10.4103 81.1684Z" fill="#0982F3"/>
<path d="M83.4677 20.302C82.9476 19.6438 82.456 19.0217 82.2183 18.4487C81.9619 17.8301 81.8608 17.0129 81.7539 16.1473C81.5664 14.631 81.354 12.9125 80.1546 11.7133C78.9553 10.5141 77.2365 10.3017 75.7203 10.1142C74.8545 10.0072 74.0369 9.90619 73.4183 9.64975C72.8451 9.41205 72.2233 8.92083 71.5648 8.40056C70.6589 7.6847 69.6625 6.89872 68.4845 6.54208V6.15209C68.4847 2.75997 65.7245 0 62.3319 0H8.63056C5.23792 0 2.47778 2.75997 2.47778 6.15227V11.1279C2.47778 11.84 3.05477 12.4169 3.76685 12.4169C4.47892 12.4169 5.05591 11.84 5.05591 11.1279V6.15227C5.05591 4.18137 6.6595 2.57812 8.63056 2.57812H62.3319C64.3029 2.57812 65.9065 4.18137 65.9065 6.15227V6.54242C64.7288 6.89923 63.7328 7.68488 62.8269 8.40073C62.1684 8.92083 61.5466 9.41222 60.9735 9.64992C60.355 9.90619 59.5374 10.0072 58.6716 10.1143C57.1553 10.3017 55.4368 10.5141 54.2373 11.7133C53.0377 12.9126 52.8253 14.6312 52.6378 16.1475C52.5309 17.0129 52.4298 17.8303 52.1734 18.4489C51.9357 19.0219 51.4443 19.6439 50.924 20.3022C49.9608 21.521 48.8694 22.9023 48.8694 24.6708C48.8694 26.4392 49.961 27.8205 50.924 29.0393C51.4441 29.6976 51.9357 30.3196 52.1734 30.8926C52.4298 31.5112 52.5309 32.3285 52.6378 33.1942C52.8253 34.7103 53.0377 36.4289 54.2371 37.6281C55.4364 38.8274 57.1552 39.0397 58.6715 39.2272C59.1235 39.2831 59.5616 39.3379 59.966 39.4135V58.8985C59.966 59.6621 60.3923 60.3441 61.0786 60.6782C61.7647 61.0129 62.5644 60.928 63.1662 60.4569L65.9064 58.3113V81.8479C65.9064 83.8188 64.3028 85.4221 62.3317 85.4221H8.63056C6.6595 85.4221 5.05591 83.8188 5.05591 81.8479V16.8044C5.05591 16.0923 4.47892 15.5153 3.76685 15.5153C3.05477 15.5153 2.47778 16.0923 2.47778 16.8044V81.8477C2.47778 85.24 5.23792 88 8.63056 88H62.3319C65.7245 88 68.4847 85.24 68.4847 81.8477V58.3112L71.2249 60.4565C71.5825 60.7367 72.0105 60.8804 72.4433 60.8804C72.7382 60.8804 73.0352 60.8135 73.3137 60.6779C74.0001 60.3438 74.4267 59.6618 74.4267 58.8983V44.5129C74.4267 43.8008 73.8497 43.2238 73.1377 43.2238C72.4256 43.2238 71.8486 43.8008 71.8486 44.5129V57.6708L68.4219 54.988C68.0756 54.7138 67.6401 54.5627 67.1954 54.5627C66.7508 54.5627 66.3153 54.7138 65.9744 54.9835L62.544 57.6694V40.7182C62.6375 40.7914 62.7315 40.8655 62.8267 40.9406C64.0456 41.9038 65.4272 42.995 67.1958 42.995C68.9642 42.995 70.3457 41.9036 71.5647 40.9408C72.2231 40.4207 72.8451 39.9291 73.4182 39.6914C74.0367 39.4352 74.8543 39.3341 75.7201 39.227C77.2364 39.0397 78.9549 38.8273 80.1546 37.6281C81.3538 36.4287 81.5662 34.7102 81.7538 33.194C81.8608 32.3285 81.9619 31.511 82.2183 30.8925C82.456 30.3194 82.9474 29.6974 83.4677 29.0391C84.4309 27.8204 85.5223 26.439 85.5223 24.6706C85.5223 22.9022 84.4307 21.5208 83.4677 20.302ZM81.4449 27.4407C80.8385 28.2081 80.2115 29.0015 79.837 29.9049C79.4463 30.8468 79.3186 31.8792 79.1952 32.8776C79.0455 34.0887 78.9042 35.2325 78.3319 35.8048C77.7594 36.3772 76.6154 36.5185 75.4042 36.6682C74.4056 36.7916 73.3733 36.9191 72.4311 37.3098C71.5277 37.6843 70.7343 38.3111 69.9669 38.9175C68.9908 39.6883 68.0691 40.4167 67.1961 40.4167C66.3232 40.4167 65.4014 39.6885 64.4253 38.9175C63.6579 38.3113 62.8645 37.6843 61.9611 37.3098C61.8989 37.284 61.683 37.2018 61.6365 37.1874C60.7845 36.8911 59.873 36.7775 58.9879 36.6682C57.7767 36.5185 56.6327 36.377 56.0602 35.8047C55.488 35.2325 55.3465 34.0887 55.1968 32.8778C55.0734 31.8792 54.9459 30.8471 54.5552 29.9049C54.1805 29.0015 53.5537 28.2081 52.9473 27.4407C52.1765 26.4648 51.4481 25.5432 51.4481 24.6706C51.4481 23.798 52.1763 22.8764 52.9473 21.9005C53.5537 21.1331 54.1807 20.3397 54.5552 19.4363C54.9459 18.4944 55.0736 17.462 55.1968 16.4636C55.3465 15.2525 55.488 14.1087 56.0603 13.5364C56.6328 12.964 57.7768 12.8227 58.988 12.673C59.9866 12.5496 61.0189 12.4221 61.9611 12.0314C62.8645 11.6569 63.6579 11.0301 64.4253 10.4237C65.3993 9.65422 66.3195 8.92753 67.191 8.92478C67.1925 8.92478 67.1942 8.92495 67.1958 8.92495C67.1975 8.92495 67.1992 8.92478 67.2009 8.92478C68.0725 8.92736 68.9927 9.65422 69.9669 10.4237C70.7343 11.0299 71.5277 11.6569 72.4311 12.0314C73.3731 12.4221 74.4057 12.5498 75.4043 12.673C76.6155 12.8227 77.7596 12.9642 78.3319 13.5365C78.9042 14.1089 79.0457 15.2525 79.1954 16.4636C79.3188 17.462 79.4463 18.4943 79.837 19.4363C80.2117 20.3397 80.8385 21.1331 81.4449 21.9005C82.2158 22.8764 82.9442 23.798 82.9442 24.6706C82.9442 25.5432 82.2159 26.465 81.4449 27.4407Z" fill="#0982F3"/>
<path d="M75.4719 20.5741L71.0853 19.333L68.5489 15.5449C68.2459 15.0925 67.7403 14.8226 67.1959 14.8226C66.6516 14.8226 66.1458 15.0926 65.8429 15.5449L63.3066 19.333L58.9196 20.5743C58.3958 20.7226 57.9826 21.1205 57.8145 21.6382C57.6464 22.1559 57.7471 22.7205 58.0836 23.1477L60.9029 26.7301L60.7279 31.2843C60.7068 31.8285 60.9571 32.3444 61.3976 32.6646C61.6803 32.87 62.0153 32.9762 62.3541 32.9762C62.5435 32.9762 62.7339 32.9431 62.9168 32.8757L67.1956 31.3017L71.4741 32.8755C71.9851 33.0639 72.5528 32.9848 72.9933 32.665C73.4338 32.3451 73.6844 31.8293 73.6634 31.285L73.4885 26.73L76.3079 23.1476C76.6444 22.7198 76.745 22.1555 76.5767 21.6378C76.4091 21.1201 75.9959 20.7224 75.4719 20.5741ZM71.246 25.4112C71.0078 25.7144 70.8846 26.0935 70.8992 26.4801L71.0329 29.9664L67.7582 28.7617C67.3953 28.6281 66.9957 28.6283 66.6336 28.7615L63.3585 29.9664L63.4924 26.4789C63.5068 26.0937 63.3834 25.7145 63.1447 25.4103L60.987 22.6686L64.3452 21.7186C64.7167 21.6132 65.0396 21.3785 65.2543 21.0577L67.1956 18.1582L69.1368 21.0574C69.3516 21.3783 69.6746 21.6131 70.0467 21.7188L73.4042 22.6686L71.246 25.4112Z" fill="#0982F3"/>
</g>
<defs>
<clipPath id="clip0_18_107">
<rect width="88" height="88" fill="white"/>
</clipPath>
</defs>
</svg>
