<svg width="65" height="64" viewBox="0 0 65 64" fill="none" xmlns="http://www.w3.org/2000/svg">
<rect x="0.5" width="64" height="64" rx="32" fill="#0982F3"/>
<path d="M31.5 26.0001H34.5L37.79 22.7001C37.8829 22.6064 37.9935 22.532 38.1154 22.4812C38.2373 22.4304 38.368 22.4043 38.5 22.4043C38.632 22.4043 38.7627 22.4304 38.8846 22.4812C39.0064 22.532 39.117 22.6064 39.21 22.7001L41.79 25.2901C41.9762 25.4775 42.0808 25.7309 42.0808 25.9951C42.0808 26.2593 41.9762 26.5127 41.79 26.7001L39.5 29.0001H31.5V31.0001C31.5 31.2653 31.3946 31.5197 31.2071 31.7072C31.0196 31.8947 30.7652 32.0001 30.5 32.0001C30.2348 32.0001 29.9804 31.8947 29.7929 31.7072C29.6053 31.5197 29.5 31.2653 29.5 31.0001V28.0001C29.5 27.4697 29.7107 26.961 30.0858 26.5859C30.4608 26.2108 30.9695 26.0001 31.5 26.0001ZM25.5 31.0001V35.0001L23.21 37.2901C23.0237 37.4775 22.9192 37.7309 22.9192 37.9951C22.9192 38.2593 23.0237 38.5127 23.21 38.7001L25.79 41.2901C25.8829 41.3838 25.9935 41.4582 26.1154 41.509C26.2373 41.5598 26.368 41.5859 26.5 41.5859C26.632 41.5859 26.7627 41.5598 26.8846 41.509C27.0064 41.4582 27.117 41.3838 27.21 41.2901L31.5 37.0001H35.5C35.7652 37.0001 36.0196 36.8947 36.2071 36.7072C36.3946 36.5197 36.5 36.2653 36.5 36.0001V35.0001H37.5C37.7652 35.0001 38.0196 34.8947 38.2071 34.7072C38.3946 34.5197 38.5 34.2653 38.5 34.0001V33.0001H39.5C39.7652 33.0001 40.0196 32.8947 40.2071 32.7072C40.3946 32.5197 40.5 32.2653 40.5 32.0001V31.0001H33.5V32.0001C33.5 32.5305 33.2893 33.0392 32.9142 33.4143C32.5391 33.7894 32.0304 34.0001 31.5 34.0001H29.5C28.9695 34.0001 28.4608 33.7894 28.0858 33.4143C27.7107 33.0392 27.5 32.5305 27.5 32.0001V29.0001L25.5 31.0001Z" fill="white"/>
</svg>
