<svg width="88" height="88" viewBox="0 0 88 88" fill="none" xmlns="http://www.w3.org/2000/svg">
<path d="M75.2005 66.4269C74.0496 66.4269 72.9774 66.7681 72.0775 67.3527L67.0873 62.3623L67.1082 54.6176C75.7701 53.7407 82.5531 46.4059 82.5531 37.5165C82.5531 28.0385 74.8421 20.3277 65.3641 20.3277H58.2543C57.904 15.4256 55.809 10.8673 52.2821 7.3853C48.4684 3.62038 43.4163 1.54688 38.0566 1.54688C32.6427 1.54688 27.5567 3.65716 23.7354 7.48894C20.1283 11.106 18.05 15.8568 17.8258 20.9509C14.4736 21.9682 11.4525 24.0072 9.24343 26.7608C6.79508 29.8128 5.44672 33.6325 5.44672 37.5167C5.44672 46.4061 12.2296 53.7408 20.8914 54.6178L20.9124 62.3624L15.9222 67.3528C15.0222 66.7683 13.9502 66.4271 12.7994 66.4271C9.62861 66.4271 7.04911 69.0066 7.04911 72.1772C7.04911 75.3478 9.62861 77.9273 12.7994 77.9273C15.9698 77.9273 18.5493 75.3478 18.5493 72.1772C18.5493 71.0263 18.2081 69.9543 17.6235 69.0544L22.9677 63.7101C23.194 63.4837 23.3209 63.1764 23.32 62.8562L23.298 54.7057H26.4949C27.8401 63.2993 36.2043 70.0712 42.7969 72.2179V75.0805C40.2021 75.6353 38.2499 77.945 38.2499 80.703C38.2499 83.8736 40.8294 86.4531 44 86.4531C47.1706 86.4531 49.7501 83.8736 49.7501 80.703C49.7501 77.9451 47.7979 75.6353 45.2031 75.0805V72.2179C51.7957 70.0712 60.1597 63.2992 61.5049 54.7057H64.7018L64.6798 62.8562C64.679 63.1763 64.8056 63.4836 65.0322 63.7101L70.3763 69.0544C69.7917 69.9543 69.4506 71.0263 69.4506 72.1772C69.4506 75.3478 72.0301 77.9273 75.2006 77.9273C78.3712 77.9273 80.9507 75.3478 80.9507 72.1772C80.9507 69.0066 78.3712 66.4269 75.2005 66.4269ZM12.7995 75.521C10.9555 75.521 9.45553 74.0209 9.45553 72.1772C9.45553 70.3335 10.9557 68.8334 12.7995 68.8334C14.6432 68.8334 16.1432 70.3335 16.1432 72.1772C16.1432 74.0209 14.6431 75.521 12.7995 75.521ZM7.85297 37.5167C7.85297 30.6441 12.558 24.6919 19.2949 23.0422C19.8332 22.9104 20.2118 22.428 20.2118 21.8735C20.2115 17.0737 22.0679 12.5685 25.439 9.18792C28.8057 5.8123 33.2867 3.95312 38.0566 3.95312C47.761 3.95312 55.765 11.846 55.8989 21.5476C55.908 22.2056 56.4439 22.7341 57.1019 22.7341H65.3642C73.5156 22.7341 80.147 29.3655 80.147 37.5167C80.147 45.668 73.5156 52.2995 65.3642 52.2995H61.6919V37.9191C61.6919 37.2917 61.2097 36.7696 60.5842 36.7197C55.941 36.3504 52.0097 34.1627 49.5296 32.3926C49.3255 32.2468 49.0813 32.1686 48.8307 32.1686H39.1696C38.919 32.1686 38.6746 32.2468 38.4708 32.3926C35.9906 34.1627 32.0595 36.3502 27.4161 36.7197C26.7905 36.7694 26.3084 37.2915 26.3084 37.9191V52.2995H22.6363C14.4844 52.2995 7.85297 45.668 7.85297 37.5167ZM47.3438 80.703C47.3438 82.5469 45.8437 84.0469 44 84.0469C42.1563 84.0469 40.6562 82.5468 40.6562 80.703C40.6562 78.8593 42.1561 77.3592 44 77.3592C45.8439 77.3592 47.3438 78.8592 47.3438 80.703ZM59.2857 52.3255C59.2857 60.9754 50.3592 68.2137 44 70.0722C37.6408 68.2139 28.7141 60.9754 28.7141 52.3255V38.9988C32.3623 38.5021 36.0797 36.9865 39.5503 34.5751H48.4493C51.9202 36.9865 55.6375 38.5022 59.2855 38.9988V52.3255H59.2857ZM75.2005 75.521C73.3566 75.521 71.8566 74.0209 71.8566 72.1772C71.8566 70.3335 73.3568 68.8334 75.2005 68.8334C77.0442 68.8334 78.5443 70.3335 78.5443 72.1772C78.5443 74.0209 77.0443 75.521 75.2005 75.521ZM47.646 35.9937H40.354C40.1189 35.9937 39.8887 36.0626 39.6923 36.1919C36.8971 38.0325 33.9929 39.3157 31.06 40.0061C30.5167 40.134 30.1326 40.6189 30.1326 41.1771V52.3253C30.1326 59.4015 37.1259 66.2093 43.6052 68.4587C43.7331 68.503 43.8664 68.5252 43.9998 68.5252C44.1332 68.5252 44.2668 68.503 44.3945 68.4587C50.8736 66.2092 57.867 59.4015 57.867 52.3253V41.1771C57.867 40.6189 57.4831 40.134 56.9396 40.0061C54.0071 39.3157 51.1027 38.0325 48.3074 36.1919C48.1112 36.0626 47.8811 35.9937 47.646 35.9937ZM55.461 52.3255C55.461 58.0205 49.6088 63.9208 44 66.0426C38.3912 63.9208 32.539 58.0207 32.539 52.3255V42.1118C35.3222 41.3476 38.0655 40.1017 40.711 38.3998H47.2888C49.9343 40.1015 52.6776 41.3475 55.4608 42.1118V52.3255H55.461ZM39.0937 44.9917V46.6651H38.6791C38.0146 46.6651 37.476 47.2038 37.476 47.8682V58.5398C37.476 59.2042 38.0146 59.7429 38.6791 59.7429H49.3209C49.9854 59.7429 50.524 59.2042 50.524 58.5398V47.8682C50.524 47.2038 49.9854 46.6651 49.3209 46.6651H48.9063V44.9917C48.9063 42.2864 46.7053 40.0854 44 40.0854C41.2947 40.0854 39.0937 42.2862 39.0937 44.9917ZM48.1178 57.3366H39.8822V49.0713H48.1178V57.3366ZM46.5001 44.9917V46.6651H41.4999V44.9917C41.4999 43.6131 42.6214 42.4916 44 42.4916C45.3786 42.4916 46.5001 43.6131 46.5001 44.9917ZM42.1333 52.1486C42.1333 51.1206 42.9717 50.2819 44 50.2819C45.028 50.2819 45.8667 51.1204 45.8667 52.1486C45.8667 52.7187 45.6082 53.2299 45.2031 53.5728V55.1078C45.2031 55.7722 44.6645 56.3109 44 56.3109C43.3355 56.3109 42.7969 55.7722 42.7969 55.1078V53.5728C42.3918 53.2299 42.1333 52.7187 42.1333 52.1486Z" fill="#0982F3"/>
</svg>
