<svg width="65" height="64" viewBox="0 0 65 64" fill="none" xmlns="http://www.w3.org/2000/svg">
<rect x="0.5" width="64" height="64" rx="32" fill="#0982F3"/>
<path fill-rule="evenodd" clip-rule="evenodd" d="M30.775 22.255C30.859 22.25 30.947 22.25 31.061 22.25H33.94C34.053 22.25 34.141 22.25 34.225 22.255C34.7446 22.2866 35.2445 22.465 35.6667 22.7695C36.0889 23.0739 36.416 23.492 36.61 23.975C36.641 24.052 36.67 24.135 36.705 24.243L36.708 24.253C36.792 24.477 36.983 24.732 37.251 24.936C37.281 24.959 37.311 24.98 37.341 25C39.494 25.003 40.618 25.042 41.393 25.673C41.553 25.803 41.698 25.948 41.827 26.107C42.5 26.934 42.5 28.159 42.5 30.609C42.5 31.231 42.5 31.541 42.35 31.784C42.3205 31.8314 42.287 31.8762 42.25 31.918C42.06 32.132 41.763 32.221 41.168 32.4L36.5 33.8V33C36.5 32.4696 36.2893 31.9609 35.9142 31.5858C35.5391 31.2107 35.0304 31 34.5 31H30.5C29.9696 31 29.4609 31.2107 29.0858 31.5858C28.7107 31.9609 28.5 32.4696 28.5 33V33.8L23.832 32.4C23.237 32.221 22.939 32.132 22.75 31.918C22.713 31.8762 22.6795 31.8314 22.65 31.784C22.5 31.541 22.5 31.231 22.5 30.609C22.5 28.159 22.5 26.934 23.173 26.107C23.303 25.947 23.448 25.802 23.607 25.673C24.382 25.043 25.506 25.003 27.66 25C27.69 24.98 27.72 24.959 27.75 24.936C28.017 24.732 28.209 24.476 28.292 24.253C28.33 24.139 28.358 24.053 28.39 23.974C28.5842 23.4912 28.9113 23.0733 29.3335 22.769C29.7557 22.4647 30.2555 22.2865 30.775 22.255ZM35.319 24.818C35.343 24.88 35.369 24.94 35.399 25H29.601C29.63 24.94 29.656 24.88 29.681 24.818V24.815L29.686 24.805L29.691 24.793L29.696 24.781L29.699 24.771L29.701 24.766L29.705 24.754L29.709 24.742L29.711 24.736L29.714 24.728L29.716 24.721L29.718 24.715C29.757 24.599 29.769 24.562 29.781 24.534C29.8691 24.3144 30.0178 24.1244 30.2097 23.9859C30.4016 23.8475 30.6288 23.7664 30.865 23.752C30.897 23.75 30.937 23.75 31.08 23.75H33.918C34.061 23.75 34.101 23.75 34.133 23.752C34.615 23.782 35.037 24.086 35.218 24.534C35.228 24.562 35.241 24.597 35.28 24.715L35.282 24.721L35.284 24.728L35.287 24.736L35.289 24.742L35.293 24.754L35.297 24.766L35.299 24.771L35.303 24.781L35.307 24.793L35.312 24.805L35.316 24.815L35.318 24.818H35.319ZM34.5 32.5H30.5C30.3674 32.5 30.2402 32.5527 30.1464 32.6464C30.0527 32.7402 30 32.8674 30 33V35.162C30 35.2619 30.0299 35.3594 30.0859 35.4421C30.1419 35.5248 30.2213 35.5889 30.314 35.626L31.014 35.906C31.9679 36.2877 33.0321 36.2877 33.986 35.906L34.686 35.626C34.7787 35.5889 34.8581 35.5248 34.9141 35.4421C34.9701 35.3594 35 35.2619 35 35.162V33C35 32.8674 34.9473 32.7402 34.8536 32.6464C34.7598 32.5527 34.6326 32.5 34.5 32.5ZM28.51 35.37L23.506 33.868C23.536 36.982 23.718 39.85 24.818 40.828C26.136 42 28.258 42 32.5 42C36.742 42 38.864 42 40.182 40.828C41.282 39.851 41.464 36.982 41.494 33.868L36.489 35.369C36.4513 35.7314 36.3154 36.0767 36.0958 36.3675C35.8762 36.6583 35.5813 36.8836 35.243 37.019L34.543 37.299C33.2315 37.8237 31.7685 37.8237 30.457 37.299L29.757 37.019C29.4187 36.8836 29.1238 36.6583 28.9042 36.3675C28.6846 36.0767 28.5487 35.7314 28.511 35.369L28.51 35.37Z" fill="white"/>
</svg>
