<svg width="201" height="43" viewBox="0 0 201 43" fill="none" xmlns="http://www.w3.org/2000/svg">
<path d="M0.5 21.1063C0.5 32.7579 9.95469 42.2126 21.6063 42.2126C33.2579 42.2126 42.7126 32.7579 42.7126 21.1063C42.7126 9.45469 33.2579 0 21.6063 0C9.95469 0 0.5 9.45469 0.5 21.1063ZM1.24539 21.1063C1.24539 9.847 10.3862 0.706159 21.6455 0.706159C32.9049 0.706159 42.0457 9.847 42.0457 21.1063C42.0457 32.3264 32.9049 41.4672 21.6455 41.4672C10.3862 41.5065 1.24539 32.3656 1.24539 21.1063ZM7.09082 15.3393C12.5047 11.8086 18.4678 9.72931 28.5894 11.4947C29.1387 11.1809 29.4525 10.867 29.6095 10.2001C27.0987 9.29776 24.3525 8.98392 20.8217 9.02315C17.644 9.10161 11.9162 10.2785 8.85622 12.0832L9.79776 10.9062C11.9555 9.65084 17.5263 8.00314 21.6848 7.88545C24.6271 7.84621 26.1571 8.00314 29.6487 8.94468C29.3348 8.35622 28.6287 8.04237 27.5694 7.5716C24.1956 6.04158 17.8401 5.92389 12.6616 8.19929C13.3286 7.76775 13.9563 7.37544 14.8193 6.98313C16.5455 6.19851 19.3309 5.45312 22.8225 5.49235C25.6079 5.53158 28.9425 6.51236 30.9825 8.51314C31.3356 8.90545 31.5318 9.337 31.6102 9.69008C33.2187 10.5139 34.1603 11.2593 34.6703 12.1616C34.8664 12.6324 34.9841 13.1424 34.8664 13.6916C35.5333 14.084 35.8472 14.437 36.2003 14.8686C36.4357 15.2217 36.6318 15.6532 36.671 16.0455C36.7495 16.5555 36.7887 17.1047 36.2787 17.7717C36.828 18.0463 37.2595 18.7917 37.338 19.1448C37.5734 20.3609 36.828 21.5379 35.7687 22.4794C34.5918 23.5386 31.9633 24.7548 29.8448 25.304C25.6079 26.3633 21.8809 26.8341 18.8994 27.3833C20.2332 27.6971 22.0379 28.1287 25.0194 28.1287C31.3356 28.1287 36.9064 25.1471 36.9064 25.1471C36.9064 25.1471 36.7887 25.5394 36.671 25.8925C32.6695 28.3248 26.2748 29.3448 23.5679 29.2271C20.7825 29.1095 18.4678 28.6779 16.1924 27.9718C15.4863 28.1679 14.8193 28.3641 14.1524 28.6779C17.6047 30.2472 20.2332 30.6002 23.2148 30.8356C26.2356 31.071 31.2179 30.3256 35.4549 28.7956C35.2587 28.9918 35.1803 29.3056 34.9841 29.4625C32.8264 30.6002 28.2364 31.7379 25.961 31.8164C23.6856 31.8949 20.9002 31.8164 18.4678 31.3849C16.3886 30.9925 14.6624 30.3256 12.897 29.541C12.5832 29.7764 12.4262 30.0902 12.3478 30.4433C19.1348 34.0526 25.6471 34.131 33.0618 31.8164L32.3949 32.4833C24.2348 35.7787 17.8794 34.4841 12.9362 32.1302C12.7793 32.0518 12.5832 31.9733 12.4262 31.8949C12.897 32.6795 16.6632 35.4257 20.8609 35.7787C23.764 36.0141 27.2948 35.5041 29.4133 34.6803L28.1579 35.308C27.1379 35.818 24.431 36.9557 20.6648 36.6811C15.6432 36.328 12.8186 34.131 11.5239 32.9541C10.9355 32.4049 10.6608 31.7772 10.4647 30.9925C9.32699 30.4041 8.62083 29.7764 8.03237 28.8741C7.67929 28.3248 7.75775 27.7364 7.83621 27.2264L7.9539 26.7556C7.40467 26.3633 6.85543 25.9317 6.62005 25.5002C6.11004 24.5979 6.42389 23.8525 6.77697 23.2248C6.46312 22.8717 6.18851 22.5579 6.07081 22.2048C5.95312 21.7732 5.91389 21.3809 5.95312 20.9494C6.03158 20.204 6.46312 19.4978 6.97313 18.9094C8.0716 17.654 9.79776 16.6732 12.7793 15.6924C15.6824 14.7509 16.8201 14.594 19.0171 14.084C21.5671 13.4955 24.6271 13.2993 27.1771 12.397C20.0763 11.1416 12.6616 12.2793 6.65928 16.4378L7.09082 15.3393ZM31.2964 10.9455C31.2179 11.2985 30.8256 11.6909 30.5902 11.9655C31.3749 12.1616 32.1595 12.4363 32.9049 12.7501C32.7872 12.0439 32.0026 11.377 31.2964 10.9455ZM9.40545 25.1471C8.93468 24.8725 8.62083 24.7156 8.26775 24.441C8.0716 24.8725 8.46391 25.3825 8.85622 25.6179C9.01314 25.461 9.2093 25.304 9.40545 25.1471ZM33.3756 15.8494C33.8856 16.0847 34.3564 16.2809 34.788 16.5947C35.1018 15.967 34.9056 15.5747 34.2387 15.0255C34.0033 15.3393 33.6895 15.614 33.3756 15.8494ZM31.8456 16.7909C30.8256 17.2617 29.2956 17.7717 27.1771 18.3209C25.451 18.7525 21.1748 19.3802 16.5847 20.3609C15.1332 20.6748 11.2101 21.6163 9.28776 23.2248C9.837 23.6563 10.1508 23.774 10.7785 24.0879C11.5632 23.5779 12.6616 23.1071 14.2701 22.6756C17.0947 21.9302 19.174 21.6163 21.724 21.1848C24.2348 20.7925 28.9425 19.8117 31.571 18.8701C32.4341 18.5563 33.2187 18.164 33.8072 17.6932C33.611 17.5363 31.9241 16.7124 31.8456 16.7909ZM12.0732 27.7364C12.4655 27.501 12.9362 27.2656 13.4463 27.0694C12.7009 26.7556 11.9555 26.4417 11.2101 26.0887C10.857 26.2848 10.5432 26.5202 10.3078 26.7556C10.8962 27.0694 11.4455 27.4225 12.0732 27.7364ZM9.64084 27.9718C9.64084 28.4425 9.91546 28.8741 10.5432 29.3841C10.6216 29.1095 10.7393 28.9525 10.9355 28.7171C10.4647 28.4818 10.0724 28.2071 9.64084 27.9718ZM13.2109 19.2625C18.3501 17.7717 23.764 17.3009 29.2564 15.8494C27.0987 15.2609 25.961 15.0255 23.6856 15.3001C20.3902 15.6924 16.7809 16.3986 13.6816 17.3009C12.4655 17.654 6.07081 19.4586 7.91467 22.0086C7.91467 22.0479 9.01314 20.5179 13.2109 19.2625ZM32.5126 14.0055C31.6887 13.6132 30.6295 13.2601 29.4918 12.9463C28.9818 13.3386 28.4325 13.6916 27.5694 14.0055C28.9425 14.2409 30.0018 14.6332 31.1787 14.9863C31.4141 15.104 32.3556 14.2016 32.5126 14.0055ZM35.0626 18.9486C34.9056 19.0663 34.7487 19.2232 34.5526 19.3409C33.3756 20.2432 31.5318 20.9494 28.9818 21.6556C23.6856 23.0679 19.8409 23.3033 15.447 24.3625C14.584 24.5587 13.7209 24.8725 12.897 25.1863C13.7209 25.6179 14.584 25.971 15.4863 26.3241C17.2517 25.814 18.1147 25.5787 20.704 25.1471C21.6848 24.9902 24.7056 24.441 26.9025 23.9702C30.8256 23.1856 36.5926 21.3417 35.0626 18.9486ZM62.9166 30.2864H67.2713L67.7813 27.1087H70.7628L71.2729 30.2864H75.6275L71.9398 11.8086H66.5259L62.9166 30.2864ZM69.3113 17.3794L70.1351 23.0286H68.5267L69.3113 17.3794ZM79.786 18.9878C80.4922 18.9878 81.7476 18.5563 81.7476 17.1832C81.7476 15.5747 80.2568 15.457 79.8645 15.457C79.3545 15.457 78.4521 15.5355 77.5106 15.967L77.4714 11.9655C78.9229 11.6124 79.9821 11.4947 81.1983 11.4947C84.6899 11.4947 86.2983 13.9663 86.2983 16.3594C86.2983 18.7132 84.9253 20.1255 83.6306 20.6748V20.8709C84.886 21.2632 86.573 22.4794 86.573 25.304C86.573 28.7956 84.1406 30.7179 81.0414 30.7179C79.3545 30.7179 78.2952 30.4825 77.0006 29.7764L77.079 25.9317C78.2952 26.4417 79.1191 26.481 79.9429 26.481C81.316 26.481 81.8652 25.461 81.8652 24.7156C81.8652 23.6956 81.1983 22.9894 79.7468 22.9894H77.9814V18.9878H79.786ZM100.304 30.2864H95.9884V16.2417H92.8892V30.2864H88.5738V11.8086H100.304V30.2864ZM102.736 30.2864H107.012V24.2056H108.464C112.701 24.2056 114.035 20.4002 114.035 17.9678C114.035 15.5747 112.544 11.8086 108.464 11.8086H102.736V30.2864ZM107.012 15.8886H108.032C109.013 15.8886 109.602 16.4771 109.602 18.0071C109.602 20.0078 108.582 20.1255 108.032 20.1255H107.012V15.8886ZM121.959 30.5218C127.059 30.5218 128.746 25.7748 128.746 21.0279C128.746 16.2809 127.02 11.5339 121.959 11.5339C116.859 11.5339 115.172 16.2809 115.172 21.0279C115.172 25.7748 116.899 30.5218 121.959 30.5218ZM121.959 26.0494C120.469 26.0494 119.684 24.284 119.684 21.0279C119.684 17.7717 120.469 16.0063 121.959 16.0063C123.489 16.0063 124.235 17.7717 124.235 21.0279C124.274 24.284 123.489 26.0494 121.959 26.0494ZM147.42 30.2864H152.56C153.658 30.2864 158.287 29.8156 158.327 24.2448C158.327 19.5371 154.717 18.7132 152.403 18.7132H151.657V16.2809H157.346V11.8086H147.46V30.2864H147.42ZM151.657 26.5987V22.4009H152.285C152.795 22.4009 154.129 22.4402 154.129 24.3233C154.129 26.2848 152.756 26.5987 152.285 26.5987H151.657ZM185.121 30.2864H180.963V22.9109H177.942V30.2864H173.744V11.8086H177.942V18.4778H180.963V11.8086H185.121V30.2864ZM200.029 11.8086L196.734 20.5963L200.5 30.2864H195.557L193.164 22.8717H192.144V30.2864H187.946V11.8086H192.144V18.4778H193.046L195.478 11.8086H200.029ZM54.6389 11.8086H63.4266V16.4378H58.9935V30.2864H54.6389V11.8086ZM140.28 30.2864V19.0271L137.691 22.244L135.102 19.0271V30.2864H130.826V11.8086H134.474L137.691 16.1632L140.908 11.8086H144.557V30.2864H140.28ZM159.15 30.3256H163.505L164.015 27.1479H166.997L167.546 30.3256H171.901L168.213 11.8478H162.799L159.15 30.3256ZM165.545 17.4186L166.369 23.0679H164.76L165.545 17.4186Z" fill="#00487C"/>
</svg>
