<svg width="49" height="50" viewBox="0 0 49 50" fill="none" xmlns="http://www.w3.org/2000/svg">
<path d="M43.5751 10.0178C44.7234 11.5226 45.6955 13.1574 46.4717 14.8895L24.4523 31.3418L15.2498 25.4947V18.4604L24.4523 24.3075L43.5751 10.0178Z" fill="#44A837"/>
<path d="M5.85618 24.9995C5.85618 24.6839 5.86378 24.3703 5.87897 24.0586L0.30198 23.7816C0.282997 24.1856 0.271613 24.5936 0.271613 25.0052C0.26924 28.222 0.893466 31.4074 2.1085 34.3788C3.32352 37.3505 5.10542 40.0496 7.35199 42.3215L11.3079 38.3137C9.57856 36.568 8.20667 34.493 7.27108 32.2081C6.3355 29.9232 5.85466 27.4734 5.85618 24.9995Z" fill="#44A837"/>
<path d="M24.4458 6.15782C24.7571 6.15782 25.0664 6.16937 25.3739 6.18475L25.653 0.530048C25.2532 0.510808 24.8507 0.501189 24.4458 0.501189C21.2707 0.497264 18.1263 1.12906 15.1929 2.3603C12.2595 3.59154 9.59494 5.39798 7.35223 7.67589L11.3081 11.6855C13.0305 9.93214 15.0779 8.54111 17.3326 7.59247C19.5872 6.64383 22.0045 6.15626 24.4458 6.15782Z" fill="#44A837"/>
<path d="M24.4452 43.8425C24.134 43.8425 23.8245 43.8425 23.5152 43.8175L23.2361 49.4702C23.6372 49.4908 24.0403 49.5011 24.4452 49.5011C27.619 49.5044 30.7619 48.8722 33.6937 47.6406C36.6255 46.409 39.2884 44.6023 41.5294 42.3245L37.5811 38.3167C35.8583 40.0692 33.8111 41.4595 31.5569 42.4077C29.3028 43.356 26.8859 43.8437 24.4452 43.8425Z" fill="#44A837"/>
<path d="M34.9232 9.44565L39.6231 5.9343C35.3273 2.40845 29.965 0.489106 24.4373 0.498931V6.15748C28.1804 6.15278 31.8366 7.29934 34.9232 9.44565Z" fill="#44A837"/>
<path d="M48.6183 25C48.6213 23.528 48.4943 22.0585 48.2386 20.6094L43.0356 24.4959C43.0356 24.6634 43.0356 24.8307 43.0356 25C43.037 27.6326 42.4925 30.2362 41.4377 32.6418C40.3827 35.0475 38.8407 37.2016 36.9119 38.9645L40.6647 43.1687C43.1724 40.874 45.1763 38.0709 46.5464 34.9411C47.9167 31.8111 48.6225 28.4242 48.6183 25Z" fill="#44A837"/>
<path d="M24.4464 43.8413C21.8489 43.8422 19.2801 43.2902 16.9064 42.221C14.5328 41.1518 12.4071 39.5891 10.6671 37.6344L6.52141 41.4363C8.78496 43.9784 11.5504 46.0098 14.6384 47.399C17.7263 48.7881 21.0679 49.5038 24.4464 49.4998V43.8413Z" fill="#44A837"/>
<path d="M11.9799 11.0359L8.22898 6.83192C5.72061 9.12608 3.716 11.929 2.34515 15.059C0.97432 18.1889 0.267869 21.5759 0.271621 25.0004H5.8562C5.85505 22.368 6.39958 19.7644 7.45447 17.3588C8.50939 14.9532 10.0511 12.799 11.9799 11.0359Z" fill="#44A837"/>
</svg>
