<svg width="81" height="32" viewBox="0 0 81 32" fill="none" xmlns="http://www.w3.org/2000/svg">
<g clip-path="url(#clip0_0_124)">
<path d="M57.5233 23.3228V2.75931H61.6566V23.3228H57.5233Z" fill="url(#paint0_linear_0_124)"/>
<path d="M9.35104 29.4312H0.489899V8.86771H8.99471C13.1281 8.86771 15.5365 11.1204 15.5365 14.6441C15.5365 16.9251 13.9897 18.3991 12.9191 18.8899C14.1971 19.4672 15.8329 20.7666 15.8329 23.5117C15.8329 27.3516 13.1281 29.4312 9.35104 29.4312ZM8.66755 12.4497H4.62326V17.1862H8.66755C10.4217 17.1862 11.4032 16.233 11.4032 14.8171C11.4032 13.4029 10.4217 12.4497 8.66755 12.4497ZM8.93478 20.7965H4.62326V25.8508H8.93478C10.8087 25.8508 11.6995 24.6962 11.6995 23.3087C11.6995 21.9228 10.8071 20.7965 8.93478 20.7965Z" fill="white"/>
<path d="M28.44 20.9978V29.4312H24.3358V20.9978L17.9722 8.86771H22.4619L26.4171 17.1563L30.3124 8.86771H34.8021L28.44 20.9978Z" fill="white"/>
<path d="M46.5205 29.4312H37.6593V8.86771H46.1642C50.2975 8.86771 52.706 11.1204 52.706 14.6441C52.706 16.9251 51.1592 18.3991 50.0886 18.8899C51.3665 19.4672 53.0024 20.7666 53.0024 23.5117C53.0024 27.3516 50.2975 29.4312 46.5205 29.4312ZM45.837 12.4497H41.7927V17.1862H45.837C47.5911 17.1862 48.5726 16.233 48.5726 14.8171C48.5726 13.4029 47.5911 12.4497 45.837 12.4497ZM46.1042 20.7965H41.7927V25.8508H46.1042C47.9782 25.8508 48.8689 24.6962 48.8689 23.3087C48.8689 21.9228 47.9782 20.7965 46.1042 20.7965Z" fill="white"/>
<path d="M74.9785 12.4497V29.4328H70.8452V12.4497H65.314V8.86771H80.5097V12.4497H74.9785Z" fill="white"/>
</g>
<defs>
<linearGradient id="paint0_linear_0_124" x1="57.4497" y1="14.5045" x2="61.5398" y2="14.3905" gradientUnits="userSpaceOnUse">
<stop stop-color="#FFAA00"/>
<stop offset="1" stop-color="#FFC54E"/>
</linearGradient>
<clipPath id="clip0_0_124">
<rect width="80.0201" height="31.2722" fill="white" transform="translate(0.489944 -3.14713e-05)"/>
</clipPath>
</defs>
</svg>
