<svg width="65" height="64" viewBox="0 0 65 64" fill="none" xmlns="http://www.w3.org/2000/svg">
<path fill-rule="evenodd" clip-rule="evenodd" d="M49.3345 62.1095C46.8456 62.4538 43.9876 62.2565 40.806 61.5061C34.2427 59.9581 26.7307 56.1548 19.6516 50.7963C12.5726 45.4378 6.87149 39.2397 3.59987 33.343C-0.178313 26.5325 -0.438699 20.6373 2.84826 16.2951L8.66781 8.60681C9.47258 7.54329 10.6471 6.85659 11.9725 6.67323C11.9728 6.6729 11.9725 6.67323 11.974 6.67303C13.2994 6.48967 14.6166 6.83181 15.6797 7.63692L21.187 11.806C22.2516 12.6109 22.9375 13.785 23.121 15.1117C23.3046 16.438 22.963 17.7543 22.157 18.8177L17.119 25.4731C16.3633 26.4726 17.1191 28.559 19.195 31.1964C21.245 33.8019 24.4184 36.7848 28.1307 39.5946C31.8419 42.4044 35.5742 44.6493 38.639 45.915C41.7409 47.1959 43.9542 47.3574 44.7097 46.3579L49.7479 39.7021C50.554 38.6387 51.7273 37.9522 53.0541 37.7686C54.3797 37.5849 55.6969 37.9272 56.7598 38.7323L62.2686 42.9014C63.3318 43.7062 64.0176 44.8804 64.2011 46.2071C64.3849 47.5332 64.0431 48.8496 63.2386 49.9129L57.4179 57.6014C55.5117 60.1212 52.7761 61.6337 49.3345 62.1095Z" fill="white"/>
<path fill-rule="evenodd" clip-rule="evenodd" d="M61.884 28.4216C60.7612 28.577 59.5525 28.0898 59.0019 26.712C56.8053 21.2155 53.1368 16.4131 48.3939 12.8231C43.6523 9.23301 38.0334 7.00692 32.1477 6.3851C30.3557 6.19581 29.5634 4.71428 29.7085 3.34824C29.8518 1.98977 30.9335 0.713507 32.7257 0.902927C39.6083 1.62907 46.177 4.23139 51.7213 8.4285C57.2657 12.6255 61.5541 18.2405 64.1208 24.6666C64.7892 26.3398 63.8546 27.7287 62.5868 28.2355C62.3607 28.3255 62.1248 28.3885 61.884 28.4216Z" fill="white"/>
<path fill-rule="evenodd" clip-rule="evenodd" d="M52.3464 32.4349C51.2212 32.5906 50.0061 32.0992 49.4645 30.714C47.9698 26.8929 45.4414 23.5576 42.1539 21.0681C38.8651 18.5785 34.9683 17.0511 30.8847 16.65C29.0977 16.4744 28.298 15.0033 28.432 13.6406C28.5663 12.2784 29.6362 10.9914 31.422 11.1662C36.5186 11.6647 41.3797 13.5693 45.4799 16.6737C49.5801 19.7774 52.7332 23.939 54.5962 28.7077C55.2499 30.3795 54.3024 31.759 53.0277 32.2572C52.8081 32.3427 52.5792 32.4027 52.3464 32.4349Z" fill="white"/>
</svg>
