<svg width="639" height="182" viewBox="0 0 639 182" fill="none" xmlns="http://www.w3.org/2000/svg">
<path d="M16.0391 137.097L2.54553 161.713C2.54553 161.713 7.10469 164.722 12.1191 162.808L26.2506 147.582L16.0391 137.097Z" fill="#D3950B"/>
<path d="M162.658 137.097L176.151 161.713C176.151 161.713 171.592 164.722 166.578 162.808L152.445 147.582L162.658 137.097Z" fill="#D3950B"/>
<path d="M160.944 29.6165C160.944 29.6165 126.818 19.0254 89.1615 19.0254C51.5053 19.0254 17.3792 29.6165 17.3792 29.6165C7.96516 42.5605 0.904053 66.0956 0.904053 66.0956H89.1615H177.419C177.419 66.0956 170.358 42.5605 160.944 29.6165Z" fill="#8C6239"/>
<path d="M89.1617 66.0954H0.905396C0.905396 66.0954 2.12086 122.843 20.113 148.129C20.113 148.129 56.0961 153.964 89.1628 153.964C122.23 153.964 158.213 148.129 158.213 148.129C176.205 122.843 177.42 66.0954 177.42 66.0954H89.1617Z" fill="#8C6239"/>
<g opacity="0.64">
<mask id="mask0_1_46" style="mask-type:luminance" maskUnits="userSpaceOnUse" x="0" y="19" width="178" height="48">
<path d="M160.944 29.6165C160.944 29.6165 126.818 19.0254 89.1615 19.0254C51.5053 19.0254 17.3792 29.6165 17.3792 29.6165C7.96516 42.5605 0.904053 66.0956 0.904053 66.0956H89.1615H177.419C177.419 66.0956 170.358 42.5605 160.944 29.6165Z" fill="white"/>
</mask>
<g mask="url(#mask0_1_46)">
<path d="M164.43 51.2225C164.43 51.2225 142.704 50.6031 119.171 50.2445C95.6387 49.8859 74.3273 50.1886 69.3269 52.2482C64.3265 54.3077 90.7582 61.1232 117.032 63.497C117.032 63.497 90.3368 59.6655 88.2831 56.3905C86.2294 53.1155 98.0592 50.4436 127.048 52.821C156.036 55.1983 164.52 58.0833 164.52 58.0833L164.43 51.2225Z" fill="#63391D"/>
<path d="M160.915 59.2287C160.915 59.2287 127.319 52.9989 115.661 53.489C104.005 53.978 106.891 59.4546 121.657 60.8982C136.423 62.3419 137.078 59.8667 134.714 59.1356C132.35 58.4044 125.911 58.0645 125.911 58.0645C125.911 58.0645 132.758 58.8224 132.771 59.8318C132.784 60.8412 119.778 60.6922 115.063 58.9318C110.348 57.1715 110.578 54.2807 120.375 55.1306C130.172 55.9805 150.58 58.3369 159.874 61.6399C169.167 64.9428 160.915 59.2287 160.915 59.2287Z" fill="#63391D"/>
<path d="M16.0046 49.7543C17.5984 49.5168 21.2635 52.1247 37.5873 54.7699C53.9099 57.4162 70.8228 64.5064 70.8228 64.5064L61.7999 63.8114C61.7999 63.8114 58.3538 58.8575 37.2089 56.5337C16.064 54.2099 9.57568 50.1444 9.57568 50.1444L16.0046 49.7543Z" fill="#63391D"/>
<path d="M15.8068 55.0797C15.8068 55.0797 26.8263 57.0624 34.7571 58.718C42.6879 60.3723 44.6927 62.4947 44.6927 62.4947L42.3828 62.3166C42.3828 62.3166 42.15 60.2105 34.3612 59.1906C26.5725 58.1708 15.2933 56.7597 15.2933 56.7597L15.8068 55.0797Z" fill="#63391D"/>
<path d="M15.1213 43.6328C15.1213 43.6328 26.4063 45.4444 36.0765 46.8624C45.7478 48.2805 75.876 45.6062 79.9007 45.8449C79.9007 45.8449 73.1528 45.0218 66.526 45.6994C59.8991 46.3758 47.4429 47.2338 37.7751 46.0824C28.1073 44.931 14.5928 41.7002 14.5928 41.7002L15.1213 43.6328Z" fill="#63391D"/>
<path d="M16.0916 40.9936C16.0916 40.9936 32.4561 44.6167 40.0434 45.4433C47.6308 46.2699 58.4791 45.4654 58.4791 45.4654C58.4791 45.4654 45.612 45.668 39.5626 44.3967C33.5132 43.1253 15.067 39.579 15.067 39.579L16.0916 40.9936Z" fill="#63391D"/>
<path d="M160.93 29.5874C160.93 29.5874 139.96 26.6279 116.261 28.167C92.5613 29.7073 57.4118 32.8973 38.6827 30.7749C19.9536 28.6525 18.4668 22.6171 26.7015 21.7881C34.935 20.9592 53.8212 19.7193 60.0953 22.7614C66.3694 25.8036 56.1229 26.5755 52.3042 26.6745C52.3042 26.6745 62.971 27.3648 66.1482 24.318C69.3254 21.2712 49.9758 17.8099 35.3145 19.2082C20.6533 20.6064 16.8602 22.7603 19.3121 25.7093C21.7639 28.6595 25.8365 32.5364 59.4271 33.1872C93.0177 33.838 142.319 26.9317 162.391 33.6121L160.93 29.5874Z" fill="#63391D"/>
<path d="M160.597 34.9035C160.597 34.9035 143.256 31.2256 124.17 32.6891C105.086 34.1525 90.8488 37.275 93.4869 39.1262C96.1251 40.9773 161.716 43.669 161.716 43.669L161.692 41.7981C161.692 41.7981 125.614 40.4802 112.606 40.2997C99.598 40.1204 86.8834 37.7791 110.527 35.0641C134.17 32.3491 157.389 35.6323 161.634 37.431C165.882 39.2298 160.597 34.9035 160.597 34.9035Z" fill="#63391D"/>
<path d="M161.635 37.4311C161.635 37.4311 139.274 34.3144 127.425 35.5311C115.577 36.7477 109.949 36.9328 111.373 38.2461C112.798 39.5582 136.405 38.3904 136.405 38.3904C136.405 38.3904 121.234 38.8096 121.02 37.8479C120.806 36.8862 143.101 34.8349 161.66 39.3032L161.635 37.4311Z" fill="#63391D"/>
</g>
</g>
<g opacity="0.64">
<mask id="mask1_1_46" style="mask-type:luminance" maskUnits="userSpaceOnUse" x="0" y="66" width="178" height="88">
<path d="M89.1617 66.0954H0.905396C0.905396 66.0954 2.12086 122.843 20.113 148.129C20.113 148.129 56.0961 153.964 89.1628 153.964C122.23 153.964 158.213 148.129 158.213 148.129C176.205 122.843 177.42 66.0954 177.42 66.0954H89.1617Z" fill="white"/>
</mask>
<g mask="url(#mask1_1_46)">
<path d="M173.72 149.278C173.72 149.278 150.116 148.659 124.548 148.3C98.9818 147.942 75.8274 148.244 70.3939 150.304C64.9616 152.364 93.6787 159.179 122.223 161.553C122.223 161.553 93.2211 157.721 90.9893 154.446C88.7575 151.171 101.611 148.499 133.104 150.877C164.599 153.254 173.816 156.139 173.816 156.139L173.72 149.278Z" fill="#63391D"/>
<path d="M169.901 157.283C169.901 157.283 133.4 151.055 120.736 151.544C108.071 152.033 111.207 157.509 127.249 158.953C143.291 160.397 144.003 157.921 141.435 157.19C138.866 156.459 131.87 156.119 131.87 156.119C131.87 156.119 139.31 156.877 139.324 157.887C139.338 158.896 125.207 158.747 120.085 156.987C114.962 155.226 115.212 152.335 125.857 153.185C136.502 154.035 158.675 156.392 168.771 159.695C178.867 162.999 169.901 157.283 169.901 157.283Z" fill="#63391D"/>
<path d="M12.4621 147.81C14.1945 147.573 18.1762 150.181 35.911 152.826C53.6459 155.471 72.0199 162.562 72.0199 162.562L62.217 161.867C62.217 161.867 58.4728 156.913 35.4989 154.59C12.5261 152.266 5.47668 148.2 5.47668 148.2L12.4621 147.81Z" fill="#63391D"/>
<path d="M12.2469 153.135C12.2469 153.135 24.2188 155.119 32.8353 156.774C41.4518 158.428 43.6289 160.55 43.6289 160.55L41.12 160.372C41.12 160.372 40.8674 158.266 32.4045 157.246C23.9417 156.226 11.6869 154.815 11.6869 154.815L12.2469 153.135Z" fill="#63391D"/>
<path d="M11.502 141.687C11.502 141.687 23.7626 143.499 34.2699 144.917C44.7771 146.335 77.5108 143.661 81.8837 143.899C81.8837 143.899 74.5525 143.076 67.3529 143.754C60.1532 144.431 46.6189 145.288 36.1163 144.137C25.6126 142.985 10.9292 139.755 10.9292 139.755L11.502 141.687Z" fill="#63391D"/>
<path d="M12.5564 139.048C12.5564 139.048 30.3355 142.671 38.5794 143.498C46.8234 144.324 58.609 143.52 58.609 143.52C58.609 143.52 44.6288 143.723 38.0567 142.451C31.4846 141.18 11.4434 137.634 11.4434 137.634L12.5564 139.048Z" fill="#63391D"/>
<path d="M169.918 127.642C169.918 127.642 147.135 124.683 121.385 126.223C95.637 127.763 57.4476 130.953 37.099 128.831C16.7505 126.709 15.1357 120.673 24.0817 119.844C33.0277 119.015 53.5474 117.775 60.3629 120.818C67.1783 123.86 56.047 124.632 51.8977 124.731C51.8977 124.731 63.4865 125.42 66.9396 122.373C70.3916 119.326 49.369 115.865 33.4398 117.263C17.5107 118.661 13.3905 120.815 16.0543 123.765C18.718 126.716 23.1422 130.592 59.6375 131.242C96.1329 131.893 149.696 124.987 171.505 131.667L169.918 127.642Z" fill="#63391D"/>
<path d="M169.557 132.959C169.557 132.959 150.716 129.281 129.981 130.744C109.246 132.207 93.7788 135.33 96.6451 137.181C99.5115 139.033 170.773 141.724 170.773 141.724L170.747 139.853C170.747 139.853 131.55 138.535 117.416 138.356C103.284 138.177 89.4699 135.836 115.158 133.121C140.845 130.406 166.071 133.689 170.685 135.487C175.298 137.284 169.557 132.959 169.557 132.959Z" fill="#63391D"/>
<path d="M170.685 135.487C170.685 135.487 146.389 132.37 133.516 133.587C120.643 134.803 114.529 134.988 116.076 136.302C117.624 137.614 143.273 136.446 143.273 136.446C143.273 136.446 126.789 136.865 126.558 135.904C126.326 134.942 150.548 132.891 170.711 137.358L170.685 135.487Z" fill="#63391D"/>
<path d="M172.966 96.111C172.966 96.111 110.632 96.4032 90.2694 98.5081C69.908 100.613 53.8159 101.192 37.9345 98.0645C22.0531 94.9374 17.5988 88.916 17.5988 88.916L22.2685 89.5528C22.2685 89.5528 27.9803 96.6034 53.2675 98.0855C78.5548 99.5676 123.974 92.39 176.151 94.7453L172.966 96.111Z" fill="#63391D"/>
<path d="M168.613 97.1646C168.613 97.1646 128.413 97.1401 103.986 100.142C79.5588 103.143 87.5211 111.372 121.184 111.906C154.847 112.441 161.454 105.851 159.094 103.783C156.734 101.716 134.003 101.04 122.972 103.812C122.972 103.812 148.199 101.492 152.404 104.552C156.609 107.61 144.022 108.997 129.314 109.281C114.606 109.565 101.036 108.803 100.265 104.81C99.4941 100.817 151.125 96.4707 168.648 99.5815L168.613 97.1646Z" fill="#63391D"/>
<path d="M8.07629 100.451C8.07629 100.451 25.7576 99.3567 39.555 101.722C53.3524 104.088 93.2182 113.889 93.2182 113.889L85.3852 113.588C85.3852 113.588 59.2795 106.07 47.4648 104.869C35.6501 103.669 8.11122 102.946 8.11122 102.946L8.07629 100.451Z" fill="#63391D"/>
<path d="M7.03833 104.216C7.03833 104.216 41.1284 104.727 48.5947 107.442C56.0609 110.157 30.4954 109.843 30.4954 109.843C30.4954 109.843 44.0355 109.431 44.0239 108.629C44.0122 107.826 11.2121 105.838 8.15251 105.709C5.09173 105.58 5.73089 104.39 5.73089 104.39" fill="#63391D"/>
<path d="M170.826 83.7769C170.826 83.7769 153.225 80.2819 135.98 76.1989C118.735 72.1159 70.9212 69.2915 59.9214 74.2022C48.9217 79.113 78.1394 84.2845 98.8047 83.5674C98.8047 83.5674 76.9286 82.0643 75.1392 79.0874C73.3498 76.1104 83.7662 71.1589 111.792 75.4165C139.817 79.6753 171.091 87.0356 173.716 87.3011C176.341 87.5688 170.826 83.7769 170.826 83.7769Z" fill="#63391D"/>
<path d="M5.22038 72.6488C5.22038 72.6488 34.6011 75.8947 46.3192 80.5295C58.0372 85.1655 62.7186 86.6592 62.7186 86.6592L54.8007 86.6651C54.8007 86.6651 46.9059 80.8078 31.4414 79.0498C15.9768 77.2918 2.27603 76.6096 2.27603 76.6096L-2.16089 73.6268L5.22038 72.6488Z" fill="#63391D"/>
</g>
</g>
<path d="M161.372 29.2975C155.72 22.4902 148.127 26.2576 148.127 26.2576C159.437 35.4342 162.344 54.7663 162.344 54.7663H89.1615H15.9786C15.9786 54.7663 18.8857 35.4353 30.1963 26.2576C30.1963 26.2576 22.6031 22.4902 16.9508 29.2975C16.9508 29.2975 7.22587 41.4416 0.904053 66.0956H89.1615H177.419C171.097 41.4428 161.372 29.2975 161.372 29.2975Z" fill="#EFB933"/>
<path d="M156.996 141.32C156.996 141.32 132.926 147.156 89.1615 146.912C45.3978 146.669 19.3829 142.049 20.1117 141.32C20.8417 140.592 21.8464 148.398 21.8464 148.398C21.8464 148.398 79.9222 163.985 155.294 148.398L156.996 141.32Z" fill="#D3950B"/>
<path d="M177.419 66.0954H89.1615H0.90523C-0.933103 123.9 18.7751 148.25 18.7751 148.25C22.9082 152.383 28.6467 149.37 28.6467 149.37C11.2332 117.408 12.0912 78.739 12.0912 78.739H89.1627H166.234C166.234 78.739 167.092 117.409 149.677 149.371C149.677 149.371 155.416 152.384 159.549 148.251C159.549 148.251 179.257 123.9 177.419 66.0954Z" fill="#EFB933"/>
<path d="M97.4146 66.8953L96.2538 61.995L89.1613 60.577L82.0688 61.995L80.908 66.8953L70.0759 69.2424C70.0759 69.2424 74.847 88.5606 77.0392 91.5259C79.2315 94.4924 89.1613 99.005 89.1613 99.005C89.1613 99.005 99.0911 94.4912 101.283 91.5259C103.476 88.5594 108.247 69.2424 108.247 69.2424L97.4146 66.8953Z" fill="#FFDD50"/>
<path d="M91.9135 75.3697C91.9135 73.5104 90.4058 72.0027 88.5465 72.0027C86.6873 72.0027 85.1796 73.5104 85.1796 75.3697C85.1796 76.5491 85.7885 77.5841 86.7071 78.186L85.1796 87.5814H88.5465H91.9135L90.386 78.186C91.3046 77.5841 91.9135 76.5491 91.9135 75.3697Z" fill="#724F00"/>
<path d="M101.736 91.9346C100.217 94.1233 90.323 99.5324 89.1611 99.6535C87.9992 99.5324 78.1055 94.1222 76.5861 91.9346C75.0668 89.7458 69.5052 69.6266 69.5052 69.6266C69.5052 69.6266 73.4998 91.2803 75.614 94.1222C78.1125 97.4821 89.1611 103.969 89.1611 103.969C89.1611 103.969 100.21 97.4821 102.708 94.1222C104.822 91.2803 108.619 69.6266 108.619 69.6266C108.619 69.6266 103.255 89.7458 101.736 91.9346Z" fill="black"/>
<path d="M70.6534 69.6267L81.4122 67.2563L82.5974 62.2873L89.1613 60.8286V62.6983L83.3262 63.8381L82.1864 68.2145L70.9724 70.9493L70.6534 69.6267Z" fill="white"/>
<path opacity="0.71" d="M107.671 69.6267L96.912 67.2563L95.7268 62.2873L89.1616 60.8286V62.6983L94.9968 63.8381L96.1366 68.2145L107.352 70.9493L107.671 69.6267Z" fill="white"/>
<path d="M89.1616 88.4093V97.7698C89.1616 97.7698 98.493 93.8521 100.535 91.3269C102.577 88.8017 106.275 74.0159 106.617 72.4348C106.617 72.4348 102.905 87.8016 98.833 90.2942C94.7616 92.7857 90.8568 92.0557 89.1616 88.4093Z" fill="black"/>
<path d="M97.2679 93.1048C97.2679 93.1048 89.9972 96.3414 89.7003 96.3647V91.3049C89.7003 91.3049 92.7774 94.6323 97.2679 93.1048Z" fill="black"/>
<path opacity="0.51" d="M27.941 149.275C27.941 149.275 22.0045 138.129 19.7552 129.924C19.7552 129.924 12.6441 130.775 8.75317 125.73C8.75317 125.73 13.9631 142.86 19.3291 148.038C19.3291 148.038 22.6332 151.182 27.941 149.275Z" fill="black"/>
<path opacity="0.74" d="M19.8671 131.672C19.8671 131.672 12.8491 132.149 9.87561 127.748C9.87561 127.748 13.3253 138.333 17.0124 142.913C17.0124 142.913 13.9795 137.382 14.5745 135.33C15.1694 133.279 21.2118 135.039 22.1863 137.917C22.1863 137.917 20.0464 132.803 19.8671 131.672Z" fill="black"/>
<path d="M16.7761 121.293L19.2687 129.012C19.2687 129.012 12.8863 129.62 8.75329 124.757C8.75329 124.757 5.83571 115.093 4.68079 108.954C4.68079 108.954 7.47729 120.381 11.1842 123.542C14.8923 126.702 17.1405 124.271 16.7761 121.293Z" fill="white"/>
<path opacity="0.51" d="M150.6 148.998C150.6 148.998 156.538 137.852 158.786 129.647C158.786 129.647 165.897 130.498 169.788 125.453C169.788 125.453 164.578 142.583 159.212 147.761C159.212 147.761 155.908 150.903 150.6 148.998Z" fill="black"/>
<path opacity="0.74" d="M158.675 131.395C158.675 131.395 165.693 131.872 168.665 127.471C168.665 127.471 165.215 138.056 161.528 142.635C161.528 142.635 164.561 137.104 163.966 135.052C163.371 133.001 157.329 134.761 156.354 137.639C156.354 137.639 158.495 132.525 158.675 131.395Z" fill="black"/>
<path d="M161.766 121.015L159.274 128.734C159.274 128.734 165.657 129.342 169.79 124.479C169.79 124.479 172.707 114.815 173.862 108.676C173.862 108.676 171.066 120.103 167.359 123.263C163.649 126.424 161.4 123.993 161.766 121.015Z" fill="white"/>
<path opacity="0.51" d="M18.3466 115.032C18.3466 115.032 21.9825 132.923 26.2808 141.273C26.2808 141.273 53.4693 145.849 88.8098 145.849C124.15 145.849 151.339 141.273 151.339 141.273C155.637 132.922 159.273 115.032 159.273 115.032C141.883 148.124 35.3957 148.073 18.3466 115.032Z" fill="black"/>
<path opacity="0.49" d="M17.8188 50.0864C17.8188 50.0864 20.9541 38.8317 29.1248 27.6864C29.1248 27.6864 53.2059 20.368 88.5463 20.368C123.887 20.368 148.007 27.6864 148.007 27.6864C156.35 36.7745 160.407 49.9327 160.407 49.9327C143.015 16.8416 34.868 17.0465 17.8188 50.0864Z" fill="white"/>
<path d="M19.4324 40.4205C19.4324 40.4205 23.4804 30.195 29.1235 26.509C29.1235 26.509 22.5304 24.7371 18.8421 28.2938C15.1538 31.8505 10.7413 39.8163 9.86816 42.7769C9.86816 42.7769 15.1165 37.1385 19.4324 40.4205Z" fill="white"/>
<path d="M158.641 40.2028C158.641 40.2028 154.593 29.9773 148.95 26.2913C148.95 26.2913 155.543 24.5193 159.231 28.0761C162.92 31.6328 167.332 39.5986 168.205 42.5592C168.205 42.5592 162.957 36.9208 158.641 40.2028Z" fill="white"/>
<path d="M78.3488 66.7092H1.39734V68.5336H68.5029L78.3488 66.7092Z" fill="black"/>
<path d="M99.8269 66.5485H176.777V68.3717H109.673L99.8269 66.5485Z" fill="black"/>
<path d="M3.52576 161.47L14.3986 142.112L16.776 146.942L5.34896 162.2L3.52576 161.47Z" fill="white"/>
<path d="M175.29 161.152L164.417 141.794L162.039 146.625L173.467 161.882L175.29 161.152Z" fill="white"/>
<path d="M228.097 148.562L211.23 179.333C211.23 179.333 216.929 183.093 223.197 180.701L240.861 161.668L228.097 148.562Z" fill="#D3950B"/>
<path d="M411.369 148.562L428.236 179.333C428.236 179.333 422.537 183.093 416.269 180.701L398.604 161.668L411.369 148.562Z" fill="#D3950B"/>
<path d="M409.227 14.2117C409.227 14.2117 366.569 0.9729 319.499 0.9729C272.429 0.9729 229.771 14.2117 229.771 14.2117C218.004 30.3918 209.177 59.8106 209.177 59.8106H319.499H429.821C429.821 59.8106 420.994 30.3918 409.227 14.2117Z" fill="#8C6239"/>
<path d="M319.5 59.8107H209.179C209.179 59.8107 210.699 130.745 233.189 162.352C233.189 162.352 278.168 169.646 319.501 169.646C360.834 169.646 405.813 162.352 405.813 162.352C428.303 130.745 429.823 59.8107 429.823 59.8107H319.5Z" fill="#8C6239"/>
<g opacity="0.64">
<mask id="mask2_1_46" style="mask-type:luminance" maskUnits="userSpaceOnUse" x="209" y="0" width="221" height="60">
<path d="M409.227 14.2117C409.227 14.2117 366.569 0.9729 319.499 0.9729C272.429 0.9729 229.771 14.2117 229.771 14.2117C218.004 30.3918 209.177 59.8106 209.177 59.8106H319.499H429.821C429.821 59.8106 420.994 30.3918 409.227 14.2117Z" fill="white"/>
</mask>
<g mask="url(#mask2_1_46)">
<path d="M413.584 41.2195C413.584 41.2195 386.427 40.4453 357.011 39.9971C327.595 39.5488 300.955 39.9272 294.705 42.5016C288.454 45.0761 321.494 53.5954 354.336 56.5627C354.336 56.5627 320.967 51.7734 318.4 47.6796C315.833 43.5858 330.62 40.2459 366.856 43.2177C403.091 46.1894 413.696 49.7956 413.696 49.7956L413.584 41.2195Z" fill="#63391D"/>
<path d="M409.19 51.2275C409.19 51.2275 367.194 43.4402 352.622 44.0529C338.052 44.6641 341.66 51.5099 360.117 53.3144C378.575 55.119 379.392 52.025 376.438 51.1111C373.483 50.1972 365.435 49.7722 365.435 49.7722C365.435 49.7722 373.993 50.7196 374.009 51.9814C374.025 53.2431 357.768 53.0568 351.874 50.8564C345.98 48.656 346.268 45.0425 358.515 46.1049C370.761 47.1672 396.271 50.1128 407.889 54.2415C419.505 58.3701 409.19 51.2275 409.19 51.2275Z" fill="#63391D"/>
<path d="M228.052 39.3842C230.045 39.0873 234.626 42.3472 255.031 45.6536C275.434 48.9615 296.575 57.8243 296.575 57.8243L285.296 56.9555C285.296 56.9555 280.989 50.7632 254.558 47.8584C228.126 44.9536 220.016 39.8717 220.016 39.8717L228.052 39.3842Z" fill="#63391D"/>
<path d="M227.805 46.0407C227.805 46.0407 241.58 48.5191 251.493 50.5885C261.406 52.6565 263.913 55.3095 263.913 55.3095L261.025 55.0868C261.025 55.0868 260.734 52.4542 250.998 51.1794C241.262 49.9045 227.163 48.1407 227.163 48.1407L227.805 46.0407Z" fill="#63391D"/>
<path d="M226.948 31.7322C226.948 31.7322 241.054 33.9967 253.142 35.7692C265.231 37.5418 302.891 34.1989 307.922 34.4973C307.922 34.4973 299.487 33.4684 291.204 34.3154C282.92 35.1609 267.35 36.2334 255.265 34.7941C243.18 33.3549 226.287 29.3164 226.287 29.3164L226.948 31.7322Z" fill="#63391D"/>
<path d="M228.162 28.4328C228.162 28.4328 248.617 32.9617 258.101 33.995C267.586 35.0282 281.146 34.0226 281.146 34.0226C281.146 34.0226 265.062 34.2758 257.5 32.6866C249.939 31.0975 226.881 26.6646 226.881 26.6646L228.162 28.4328Z" fill="#63391D"/>
<path d="M409.21 14.1754C409.21 14.1754 382.997 10.476 353.373 12.3999C323.749 14.3253 279.812 18.3128 256.4 15.6598C232.989 13.0068 231.131 5.46255 241.424 4.42637C251.716 3.3902 275.324 1.84031 283.166 5.643C291.009 9.44569 278.201 10.4106 273.427 10.5343C273.427 10.5343 286.761 11.3972 290.732 7.58873C294.704 3.78022 270.517 -0.546384 252.19 1.20143C233.864 2.94924 229.122 5.64154 232.187 9.32781C235.252 13.0155 240.343 17.8617 282.331 18.6752C324.319 19.4887 385.945 10.8559 411.036 19.2064L409.21 14.1754Z" fill="#63391D"/>
<path d="M408.793 20.8204C408.793 20.8204 387.116 16.2232 363.26 18.0525C339.404 19.8818 321.607 23.7849 324.905 26.0988C328.203 28.4127 410.191 31.7774 410.191 31.7774L410.161 29.4387C410.161 29.4387 365.064 27.7913 348.804 27.5658C332.544 27.3416 316.651 24.415 346.205 21.0213C375.759 17.6275 404.782 21.7315 410.09 23.9799C415.398 26.2283 408.793 20.8204 408.793 20.8204Z" fill="#63391D"/>
<path d="M410.09 23.98C410.09 23.98 382.139 20.0842 367.328 21.6049C352.517 23.1257 345.482 23.3571 347.262 24.9987C349.044 26.6388 378.553 25.1792 378.553 25.1792C378.553 25.1792 359.589 25.7031 359.321 24.501C359.053 23.2989 386.922 20.7347 410.121 26.3201L410.09 23.98Z" fill="#63391D"/>
</g>
</g>
<g opacity="0.64">
<mask id="mask3_1_46" style="mask-type:luminance" maskUnits="userSpaceOnUse" x="209" y="59" width="221" height="111">
<path d="M319.5 59.8107H209.179C209.179 59.8107 210.699 130.745 233.189 162.352C233.189 162.352 278.168 169.646 319.501 169.646C360.834 169.646 405.813 162.352 405.813 162.352C428.303 130.745 429.823 59.8107 429.823 59.8107H319.5Z" fill="white"/>
</mask>
<g mask="url(#mask3_1_46)">
<path d="M425.198 163.789C425.198 163.789 395.693 163.015 363.733 162.566C331.775 162.118 302.832 162.496 296.04 165.071C289.25 167.645 325.146 176.165 360.827 179.132C360.827 179.132 324.574 174.343 321.784 170.249C318.995 166.155 335.061 162.815 374.428 165.787C413.797 168.759 425.317 172.365 425.317 172.365L425.198 163.789Z" fill="#63391D"/>
<path d="M420.424 173.796C420.424 173.796 374.798 166.01 358.967 166.621C343.136 167.232 347.057 174.078 367.11 175.883C387.162 177.687 388.051 174.593 384.841 173.679C381.631 172.765 372.886 172.34 372.886 172.34C372.886 172.34 382.185 173.288 382.202 174.55C382.22 175.811 364.557 175.625 358.154 173.425C351.75 171.224 352.063 167.611 365.369 168.673C378.675 169.735 406.391 172.681 419.011 176.81C431.632 180.94 420.424 173.796 420.424 173.796Z" fill="#63391D"/>
<path d="M223.627 161.954C225.792 161.657 230.769 164.917 252.938 168.223C275.106 171.53 298.074 180.394 298.074 180.394L285.82 179.525C285.82 179.525 281.14 173.333 252.423 170.428C223.707 167.523 214.895 162.441 214.895 162.441L223.627 161.954Z" fill="#63391D"/>
<path d="M223.357 168.61C223.357 168.61 238.322 171.09 249.092 173.158C259.863 175.226 262.585 177.879 262.585 177.879L259.448 177.656C259.448 177.656 259.133 175.024 248.554 173.749C237.975 172.474 222.657 170.71 222.657 170.71L223.357 168.61Z" fill="#63391D"/>
<path d="M222.425 154.3C222.425 154.3 237.751 156.565 250.885 158.337C264.019 160.11 304.937 156.767 310.403 157.066C310.403 157.066 301.239 156.037 292.239 156.884C283.239 157.731 266.322 158.802 253.193 157.362C240.064 155.923 221.709 151.885 221.709 151.885L222.425 154.3Z" fill="#63391D"/>
<path d="M223.744 151.001C223.744 151.001 245.968 155.53 256.273 156.563C266.578 157.597 281.31 156.591 281.31 156.591C281.31 156.591 263.834 156.844 255.619 155.255C247.404 153.666 222.353 149.233 222.353 149.233L223.744 151.001Z" fill="#63391D"/>
<path d="M420.445 136.744C420.445 136.744 391.966 133.044 359.78 134.97C327.594 136.895 279.857 140.883 254.422 138.23C228.986 135.577 226.968 128.032 238.15 126.996C249.333 125.96 274.982 124.41 283.502 128.213C292.021 132.015 278.107 132.98 272.92 133.104C272.92 133.104 287.406 133.966 291.723 130.157C296.037 126.349 269.759 122.022 249.848 123.77C229.936 125.518 224.786 128.21 228.116 131.898C231.446 135.585 236.976 140.431 282.595 141.243C328.214 142.057 395.168 133.424 422.429 141.775L420.445 136.744Z" fill="#63391D"/>
<path d="M419.994 143.39C419.994 143.39 396.443 138.793 370.524 140.622C344.605 142.45 325.271 146.354 328.854 148.668C332.437 150.982 421.515 154.347 421.515 154.347L421.481 152.008C421.481 152.008 372.486 150.361 354.818 150.137C337.152 149.913 319.885 146.986 351.995 143.592C384.105 140.198 415.637 144.302 421.404 146.551C427.17 148.796 419.994 143.39 419.994 143.39Z" fill="#63391D"/>
<path d="M421.405 146.549C421.405 146.549 391.036 142.654 374.944 144.174C358.853 145.695 351.21 145.927 353.144 147.568C355.08 149.208 387.14 147.749 387.14 147.749C387.14 147.749 366.536 148.273 366.246 147.07C365.956 145.868 396.234 143.304 421.438 148.888L421.405 146.549Z" fill="#63391D"/>
<path d="M424.256 97.3296C424.256 97.3296 346.338 97.6948 320.885 100.326C295.433 102.957 275.318 103.68 255.466 99.7715C235.615 95.8626 230.047 88.3358 230.047 88.3358L235.884 89.1319C235.884 89.1319 243.024 97.9452 274.633 99.7978C306.242 101.65 363.016 92.6784 428.236 95.6225L424.256 97.3296Z" fill="#63391D"/>
<path d="M418.813 98.6466C418.813 98.6466 368.563 98.616 338.03 102.368C307.496 106.119 317.449 116.406 359.527 117.074C401.606 117.742 409.865 109.505 406.915 106.92C403.965 104.335 375.552 103.491 361.763 106.956C361.763 106.956 393.296 104.056 398.553 107.88C403.809 111.703 388.074 113.437 369.69 113.792C351.305 114.147 334.342 113.195 333.378 108.203C332.415 103.212 396.953 97.7792 418.857 101.668L418.813 98.6466Z" fill="#63391D"/>
<path d="M218.145 102.755C218.145 102.755 240.246 101.387 257.493 104.344C274.74 107.301 324.572 119.552 324.572 119.552L314.781 119.176C314.781 119.176 282.149 109.778 267.38 108.278C252.612 106.777 218.188 105.874 218.188 105.874L218.145 102.755Z" fill="#63391D"/>
<path d="M216.846 107.462C216.846 107.462 259.459 108.101 268.792 111.494C278.124 114.888 246.168 114.495 246.168 114.495C246.168 114.495 263.093 113.98 263.078 112.977C263.064 111.975 222.063 109.489 218.239 109.327C214.413 109.166 215.212 107.679 215.212 107.679" fill="#63391D"/>
<path d="M421.58 81.912C421.58 81.912 399.579 77.5432 378.023 72.4395C356.467 67.3357 296.7 63.8052 282.95 69.9436C269.2 76.0821 305.722 82.5465 331.554 81.6501C331.554 81.6501 304.209 79.7713 301.972 76.0501C299.735 72.3289 312.756 66.1395 347.788 71.4615C382.82 76.785 421.912 85.9854 425.194 86.3172C428.474 86.6519 421.58 81.912 421.58 81.912Z" fill="#63391D"/>
<path d="M214.574 68.0026C214.574 68.0026 251.3 72.06 265.948 77.8535C280.596 83.6485 286.447 85.5157 286.447 85.5157L276.55 85.523C276.55 85.523 266.681 78.2014 247.351 76.0039C228.02 73.8064 210.894 72.9536 210.894 72.9536L205.348 69.2251L214.574 68.0026Z" fill="#63391D"/>
</g>
</g>
<path d="M409.762 13.8127C402.697 5.30362 393.206 10.013 393.206 10.013C407.344 21.4836 410.978 45.6488 410.978 45.6488H319.499H228.02C228.02 45.6488 231.654 21.4851 245.793 10.013C245.793 10.013 236.301 5.30362 229.236 13.8127C229.236 13.8127 217.08 28.993 209.177 59.8104H319.499H429.821C421.919 28.9944 409.762 13.8127 409.762 13.8127Z" fill="#EFB933"/>
<path d="M404.293 153.842C404.293 153.842 374.206 161.136 319.5 160.831C264.795 160.527 232.276 154.753 233.187 153.842C234.1 152.931 235.356 162.688 235.356 162.688C235.356 162.688 307.95 182.172 402.165 162.688L404.293 153.842Z" fill="#D3950B"/>
<path d="M429.821 59.8107H319.499H209.179C206.881 132.066 231.516 162.504 231.516 162.504C236.682 167.67 243.855 163.904 243.855 163.904C222.089 123.952 223.161 75.6153 223.161 75.6153H319.5H415.84C415.84 75.6153 416.912 123.953 395.144 163.905C395.144 163.905 402.317 167.672 407.483 162.505C407.483 162.505 432.119 132.066 429.821 59.8107Z" fill="#EFB933"/>
<path d="M329.817 60.8103L328.366 54.685L319.5 52.9124L310.634 54.685L309.183 60.8103L295.643 63.7442C295.643 63.7442 301.607 87.892 304.347 91.5986C307.088 95.3067 319.5 100.947 319.5 100.947C319.5 100.947 331.912 95.3052 334.653 91.5986C337.393 87.8905 343.357 63.7442 343.357 63.7442L329.817 60.8103Z" fill="#FFDD50"/>
<path d="M322.94 71.4032C322.94 69.0791 321.055 67.1945 318.731 67.1945C316.407 67.1945 314.522 69.0791 314.522 71.4032C314.522 72.8774 315.284 74.1711 316.432 74.9235L314.522 86.6678H318.731H322.94L321.031 74.9235C322.179 74.1711 322.94 72.8774 322.94 71.4032Z" fill="#724F00"/>
<path d="M335.218 92.1094C333.319 94.8454 320.951 101.607 319.499 101.758C318.047 101.607 305.679 94.844 303.78 92.1094C301.881 89.3735 294.929 64.2245 294.929 64.2245C294.929 64.2245 299.922 91.2916 302.565 94.8439C305.688 99.0439 319.499 107.153 319.499 107.153C319.499 107.153 333.31 99.0439 336.433 94.8439C339.076 91.2916 343.821 64.2245 343.821 64.2245C343.821 64.2245 337.117 89.3735 335.218 92.1094Z" fill="black"/>
<path d="M296.365 64.2247L309.813 61.2617L311.295 55.0505L319.5 53.2271V55.5643L312.206 56.989L310.781 62.4595L296.764 65.878L296.365 64.2247Z" fill="white"/>
<path opacity="0.71" d="M342.636 64.2247L329.187 61.2617L327.706 55.0505L319.499 53.2271V55.5643L326.793 56.989L328.218 62.4595L342.237 65.878L342.636 64.2247Z" fill="white"/>
<path d="M319.499 87.7026V99.4032C319.499 99.4032 331.163 94.5061 333.716 91.3496C336.269 88.1931 340.891 69.7108 341.319 67.7345C341.319 67.7345 336.679 86.943 331.588 90.0588C326.499 93.1731 321.618 92.2606 319.499 87.7026Z" fill="black"/>
<path d="M329.633 93.5719C329.633 93.5719 320.545 97.6176 320.174 97.6467V91.322C320.174 91.322 324.02 95.4812 329.633 93.5719Z" fill="black"/>
<path opacity="0.51" d="M242.974 163.785C242.974 163.785 235.553 149.853 232.742 139.596C232.742 139.596 223.853 140.66 218.989 134.354C218.989 134.354 225.502 155.766 232.209 162.239C232.209 162.239 236.339 166.168 242.974 163.785Z" fill="black"/>
<path opacity="0.74" d="M232.882 141.782C232.882 141.782 224.109 142.377 220.392 136.876C220.392 136.876 224.704 150.108 229.313 155.833C229.313 155.833 225.522 148.919 226.266 146.355C227.01 143.79 234.563 145.991 235.781 149.588C235.781 149.588 233.106 143.195 232.882 141.782Z" fill="black"/>
<path d="M229.018 128.808L232.134 138.456C232.134 138.456 224.156 139.216 218.99 133.137C218.99 133.137 215.343 121.057 213.899 113.383C213.899 113.383 217.395 127.667 222.028 131.618C226.664 135.569 229.474 132.53 229.018 128.808Z" fill="white"/>
<path opacity="0.51" d="M396.3 163.438C396.3 163.438 403.722 149.507 406.532 139.25C406.532 139.25 415.421 140.314 420.284 134.008C420.284 134.008 413.772 155.42 407.064 161.893C407.064 161.893 402.934 165.821 396.3 163.438Z" fill="black"/>
<path opacity="0.74" d="M406.392 141.436C406.392 141.436 415.164 142.031 418.88 136.53C418.88 136.53 414.567 149.761 409.959 155.485C409.959 155.485 413.75 148.571 413.006 146.007C412.262 143.442 404.709 145.643 403.491 149.24C403.491 149.24 406.167 142.847 406.392 141.436Z" fill="black"/>
<path d="M410.256 128.46L407.142 138.108C407.142 138.108 415.12 138.868 420.286 132.789C420.286 132.789 423.933 120.709 425.376 113.035C425.376 113.035 421.881 127.319 417.247 131.27C412.611 135.221 409.799 132.183 410.256 128.46Z" fill="white"/>
<path opacity="0.51" d="M230.981 120.981C230.981 120.981 235.526 143.345 240.899 153.782C240.899 153.782 274.884 159.503 319.06 159.503C363.235 159.503 397.221 153.782 397.221 153.782C402.594 143.343 407.139 120.981 407.139 120.981C385.401 162.347 252.292 162.283 230.981 120.981Z" fill="black"/>
<path opacity="0.49" d="M230.322 39.799C230.322 39.799 234.241 25.7306 244.454 11.7991C244.454 11.7991 274.555 2.65106 318.731 2.65106C362.906 2.65106 393.057 11.7991 393.057 11.7991C403.486 23.1591 408.556 39.6069 408.556 39.6069C386.817 -1.75703 251.633 -1.5009 230.322 39.799Z" fill="white"/>
<path d="M232.339 27.717C232.339 27.717 237.399 14.9352 244.453 10.3277C244.453 10.3277 236.211 8.11272 231.601 12.5587C226.991 17.0046 221.475 26.9617 220.384 30.6626C220.384 30.6626 226.944 23.6146 232.339 27.717Z" fill="white"/>
<path d="M406.349 27.4447C406.349 27.4447 401.289 14.6628 394.235 10.0553C394.235 10.0553 402.476 7.84039 407.087 12.2863C411.697 16.7323 417.213 26.6894 418.304 30.3902C418.304 30.3902 411.744 23.3422 406.349 27.4447Z" fill="white"/>
<path d="M305.985 60.5776H209.795V62.858H293.677L305.985 60.5776Z" fill="black"/>
<path d="M332.831 60.3769H429.019V62.6559H345.139L332.831 60.3769Z" fill="black"/>
<path d="M212.455 179.029L226.046 154.831L229.018 160.869L214.734 179.941L212.455 179.029Z" fill="white"/>
<path d="M427.161 178.631L413.57 154.434L410.597 160.472L424.882 179.544L427.161 178.631Z" fill="white"/>
<path d="M476.715 137.097L463.221 161.713C463.221 161.713 467.78 164.722 472.795 162.808L486.926 147.582L476.715 137.097Z" fill="#D3950B"/>
<path d="M623.334 137.097L636.827 161.713C636.827 161.713 632.268 164.722 627.254 162.808L613.121 147.582L623.334 137.097Z" fill="#D3950B"/>
<path d="M621.62 29.6165C621.62 29.6165 587.493 19.0254 549.837 19.0254C512.181 19.0254 478.055 29.6165 478.055 29.6165C468.641 42.5605 461.58 66.0956 461.58 66.0956H549.837H638.095C638.095 66.0956 631.034 42.5605 621.62 29.6165Z" fill="#8C6239"/>
<path d="M549.837 66.0954H461.581C461.581 66.0954 462.797 122.843 480.789 148.129C480.789 148.129 516.772 153.964 549.838 153.964C582.905 153.964 618.888 148.129 618.888 148.129C636.88 122.843 638.096 66.0954 638.096 66.0954H549.837Z" fill="#8C6239"/>
<g opacity="0.64">
<mask id="mask4_1_46" style="mask-type:luminance" maskUnits="userSpaceOnUse" x="461" y="19" width="178" height="48">
<path d="M621.62 29.6165C621.62 29.6165 587.493 19.0254 549.837 19.0254C512.181 19.0254 478.055 29.6165 478.055 29.6165C468.641 42.5605 461.58 66.0956 461.58 66.0956H549.837H638.095C638.095 66.0956 631.034 42.5605 621.62 29.6165Z" fill="white"/>
</mask>
<g mask="url(#mask4_1_46)">
<path d="M625.106 51.2225C625.106 51.2225 603.38 50.6031 579.847 50.2445C556.314 49.8859 535.003 50.1886 530.002 52.2482C525.002 54.3077 551.434 61.1232 577.707 63.497C577.707 63.497 551.012 59.6655 548.959 56.3905C546.905 53.1155 558.735 50.4436 587.723 52.821C616.711 55.1983 625.195 58.0833 625.195 58.0833L625.106 51.2225Z" fill="#63391D"/>
<path d="M621.591 59.2287C621.591 59.2287 587.995 52.9989 576.337 53.489C564.681 53.978 567.567 59.4546 582.333 60.8982C597.099 62.3419 597.753 59.8667 595.39 59.1356C593.025 58.4044 586.587 58.0645 586.587 58.0645C586.587 58.0645 593.434 58.8224 593.447 59.8318C593.459 60.8412 580.454 60.6922 575.739 58.9318C571.023 57.1715 571.254 54.2807 581.051 55.1306C590.848 55.9805 611.256 58.3369 620.55 61.6399C629.843 64.9428 621.591 59.2287 621.591 59.2287Z" fill="#63391D"/>
<path d="M476.68 49.7543C478.274 49.5168 481.939 52.1247 498.263 54.7699C514.585 57.4162 531.498 64.5064 531.498 64.5064L522.475 63.8114C522.475 63.8114 519.029 58.8575 497.884 56.5337C476.74 54.2099 470.251 50.1444 470.251 50.1444L476.68 49.7543Z" fill="#63391D"/>
<path d="M476.482 55.0797C476.482 55.0797 487.502 57.0624 495.433 58.718C503.364 60.3723 505.368 62.4947 505.368 62.4947L503.059 62.3166C503.059 62.3166 502.826 60.2105 495.037 59.1906C487.248 58.1708 475.969 56.7597 475.969 56.7597L476.482 55.0797Z" fill="#63391D"/>
<path d="M475.797 43.6328C475.797 43.6328 487.082 45.4444 496.752 46.8624C506.423 48.2805 536.551 45.6062 540.576 45.8449C540.576 45.8449 533.828 45.0218 527.201 45.6994C520.575 46.3758 508.118 47.2338 498.451 46.0824C488.783 44.931 475.268 41.7002 475.268 41.7002L475.797 43.6328Z" fill="#63391D"/>
<path d="M476.767 40.9936C476.767 40.9936 493.132 44.6167 500.719 45.4433C508.306 46.2699 519.155 45.4654 519.155 45.4654C519.155 45.4654 506.288 45.668 500.238 44.3967C494.189 43.1253 475.743 39.579 475.743 39.579L476.767 40.9936Z" fill="#63391D"/>
<path d="M621.605 29.5874C621.605 29.5874 600.635 26.6279 576.936 28.167C553.237 29.7073 518.087 32.8973 499.358 30.7749C480.629 28.6525 479.142 22.6171 487.377 21.7881C495.61 20.9592 514.497 19.7193 520.771 22.7614C527.045 25.8036 516.798 26.5755 512.98 26.6745C512.98 26.6745 523.646 27.3648 526.824 24.318C530.001 21.2712 510.651 17.8099 495.99 19.2082C481.329 20.6064 477.536 22.7603 479.987 25.7093C482.439 28.6595 486.512 32.5364 520.102 33.1872C553.693 33.838 602.994 26.9317 623.067 33.6121L621.605 29.5874Z" fill="#63391D"/>
<path d="M621.273 34.9035C621.273 34.9035 603.931 31.2256 584.846 32.6891C565.762 34.1525 551.524 37.275 554.162 39.1262C556.801 40.9773 622.392 43.669 622.392 43.669L622.367 41.7981C622.367 41.7981 586.29 40.4802 573.282 40.2997C560.274 40.1204 547.559 37.7791 571.202 35.0641C594.846 32.3491 618.064 35.6323 622.31 37.431C626.557 39.2298 621.273 34.9035 621.273 34.9035Z" fill="#63391D"/>
<path d="M622.311 37.4311C622.311 37.4311 599.949 34.3144 588.101 35.5311C576.253 36.7477 570.625 36.9328 572.049 38.2461C573.474 39.5582 597.081 38.3904 597.081 38.3904C597.081 38.3904 581.91 38.8096 581.695 37.8479C581.481 36.8862 603.776 34.8349 622.335 39.3032L622.311 37.4311Z" fill="#63391D"/>
</g>
</g>
<g opacity="0.64">
<mask id="mask5_1_46" style="mask-type:luminance" maskUnits="userSpaceOnUse" x="461" y="66" width="178" height="88">
<path d="M549.837 66.0954H461.581C461.581 66.0954 462.797 122.843 480.789 148.129C480.789 148.129 516.772 153.964 549.838 153.964C582.905 153.964 618.888 148.129 618.888 148.129C636.88 122.843 638.096 66.0954 638.096 66.0954H549.837Z" fill="white"/>
</mask>
<g mask="url(#mask5_1_46)">
<path d="M634.395 149.278C634.395 149.278 610.792 148.659 585.224 148.3C559.657 147.942 536.503 148.244 531.069 150.304C525.637 152.364 554.354 159.179 582.899 161.553C582.899 161.553 553.897 157.721 551.665 154.446C549.433 151.171 562.286 148.499 593.78 150.877C625.275 153.254 634.491 156.139 634.491 156.139L634.395 149.278Z" fill="#63391D"/>
<path d="M630.577 157.283C630.577 157.283 594.076 151.055 581.411 151.544C568.746 152.033 571.883 157.509 587.925 158.953C603.967 160.397 604.678 157.921 602.11 157.19C599.542 156.459 592.546 156.119 592.546 156.119C592.546 156.119 599.985 156.877 599.999 157.887C600.013 158.896 585.883 158.747 580.76 156.987C575.638 155.226 575.888 152.335 586.533 153.185C597.177 154.035 619.35 156.392 629.446 159.695C639.543 162.999 630.577 157.283 630.577 157.283Z" fill="#63391D"/>
<path d="M473.138 147.81C474.87 147.573 478.852 150.181 496.587 152.826C514.322 155.471 532.696 162.562 532.696 162.562L522.893 161.867C522.893 161.867 519.148 156.913 496.175 154.59C473.202 152.266 466.152 148.2 466.152 148.2L473.138 147.81Z" fill="#63391D"/>
<path d="M472.922 153.135C472.922 153.135 484.894 155.119 493.511 156.774C502.127 158.428 504.304 160.55 504.304 160.55L501.795 160.372C501.795 160.372 501.543 158.266 493.08 157.246C484.617 156.226 472.362 154.815 472.362 154.815L472.922 153.135Z" fill="#63391D"/>
<path d="M472.178 141.687C472.178 141.687 484.438 143.499 494.945 144.917C505.453 146.335 538.186 143.661 542.559 143.899C542.559 143.899 535.228 143.076 528.028 143.754C520.829 144.431 507.294 145.288 496.792 144.137C486.288 142.985 471.605 139.755 471.605 139.755L472.178 141.687Z" fill="#63391D"/>
<path d="M473.232 139.048C473.232 139.048 491.011 142.671 499.255 143.498C507.499 144.324 519.285 143.52 519.285 143.52C519.285 143.52 505.304 143.723 498.732 142.451C492.16 141.18 472.119 137.634 472.119 137.634L473.232 139.048Z" fill="#63391D"/>
<path d="M630.593 127.642C630.593 127.642 607.81 124.683 582.061 126.223C556.313 127.763 518.123 130.953 497.775 128.831C477.426 126.709 475.811 120.673 484.757 119.844C493.703 119.015 514.223 117.775 521.038 120.818C527.854 123.86 516.723 124.632 512.573 124.731C512.573 124.731 524.162 125.42 527.615 122.373C531.067 119.326 510.044 115.865 494.115 117.263C478.186 118.661 474.066 120.815 476.73 123.765C479.394 126.716 483.818 130.592 520.313 131.242C556.808 131.893 610.372 124.987 632.18 131.667L630.593 127.642Z" fill="#63391D"/>
<path d="M630.232 132.959C630.232 132.959 611.391 129.281 590.656 130.744C569.921 132.207 554.454 135.33 557.321 137.181C560.187 139.033 631.449 141.724 631.449 141.724L631.422 139.853C631.422 139.853 592.226 138.535 578.092 138.356C563.959 138.177 550.145 135.836 575.833 133.121C601.521 130.406 626.747 133.689 631.36 135.487C635.973 137.284 630.232 132.959 630.232 132.959Z" fill="#63391D"/>
<path d="M631.36 135.487C631.36 135.487 607.065 132.37 594.192 133.587C581.319 134.803 575.204 134.988 576.752 136.302C578.3 137.614 603.948 136.446 603.948 136.446C603.948 136.446 587.465 136.865 587.233 135.904C587.002 134.942 611.224 132.891 631.387 137.358L631.36 135.487Z" fill="#63391D"/>
<path d="M633.642 96.111C633.642 96.111 571.308 96.4032 550.945 98.5081C530.584 100.613 514.492 101.192 498.61 98.0645C482.729 94.9374 478.274 88.916 478.274 88.916L482.944 89.5528C482.944 89.5528 488.656 96.6034 513.943 98.0855C539.23 99.5676 584.65 92.39 636.826 94.7453L633.642 96.111Z" fill="#63391D"/>
<path d="M629.288 97.1646C629.288 97.1646 589.088 97.1401 564.661 100.142C540.234 103.143 548.197 111.372 581.859 111.906C615.522 112.441 622.129 105.851 619.769 103.783C617.409 101.716 594.679 101.04 583.648 103.812C583.648 103.812 608.874 101.492 613.08 104.552C617.285 107.61 604.697 108.997 589.989 109.281C575.281 109.565 561.711 108.803 560.94 104.81C560.17 100.817 611.8 96.4707 629.323 99.5815L629.288 97.1646Z" fill="#63391D"/>
<path d="M468.752 100.451C468.752 100.451 486.433 99.3567 500.23 101.722C514.028 104.088 553.894 113.889 553.894 113.889L546.061 113.588C546.061 113.588 519.955 106.07 508.14 104.869C496.326 103.669 468.787 102.946 468.787 102.946L468.752 100.451Z" fill="#63391D"/>
<path d="M467.714 104.216C467.714 104.216 501.804 104.727 509.27 107.442C516.736 110.157 491.171 109.843 491.171 109.843C491.171 109.843 504.711 109.431 504.699 108.629C504.688 107.826 471.888 105.838 468.828 105.709C465.767 105.58 466.406 104.39 466.406 104.39" fill="#63391D"/>
<path d="M631.501 83.7769C631.501 83.7769 613.9 80.2819 596.656 76.1989C579.411 72.1159 531.597 69.2915 520.597 74.2022C509.597 79.113 538.815 84.2845 559.48 83.5674C559.48 83.5674 537.604 82.0643 535.815 79.0874C534.025 76.1104 544.442 71.1589 572.467 75.4165C600.493 79.6753 631.767 87.0356 634.392 87.3011C637.016 87.5688 631.501 83.7769 631.501 83.7769Z" fill="#63391D"/>
<path d="M465.896 72.6488C465.896 72.6488 495.277 75.8947 506.995 80.5295C518.713 85.1655 523.394 86.6592 523.394 86.6592L515.476 86.6651C515.476 86.6651 507.581 80.8078 492.117 79.0498C476.652 77.2918 462.952 76.6096 462.952 76.6096L458.515 73.6268L465.896 72.6488Z" fill="#63391D"/>
</g>
</g>
<path d="M622.048 29.2975C616.396 22.4902 608.802 26.2576 608.802 26.2576C620.113 35.4342 623.02 54.7663 623.02 54.7663H549.837H476.654C476.654 54.7663 479.561 35.4353 490.872 26.2576C490.872 26.2576 483.279 22.4902 477.627 29.2975C477.627 29.2975 467.902 41.4416 461.58 66.0956H549.837H638.095C631.773 41.4428 622.048 29.2975 622.048 29.2975Z" fill="#EFB933"/>
<path d="M617.672 141.32C617.672 141.32 593.602 147.156 549.837 146.912C506.073 146.669 480.059 142.049 480.787 141.32C481.517 140.592 482.522 148.398 482.522 148.398C482.522 148.398 540.598 163.985 615.969 148.398L617.672 141.32Z" fill="#D3950B"/>
<path d="M638.095 66.0954H549.837H461.581C459.743 123.9 479.451 148.25 479.451 148.25C483.584 152.383 489.322 149.37 489.322 149.37C471.909 117.408 472.767 78.739 472.767 78.739H549.838H626.91C626.91 78.739 627.768 117.409 610.353 149.371C610.353 149.371 616.092 152.384 620.225 148.251C620.225 148.251 639.933 123.9 638.095 66.0954Z" fill="#EFB933"/>
<path d="M558.09 66.8953L556.93 61.995L549.837 60.577L542.745 61.995L541.584 66.8953L530.752 69.2424C530.752 69.2424 535.523 88.5606 537.715 91.5259C539.907 94.4924 549.837 99.005 549.837 99.005C549.837 99.005 559.767 94.4912 561.959 91.5259C564.151 88.5594 568.922 69.2424 568.922 69.2424L558.09 66.8953Z" fill="#FFDD50"/>
<path d="M552.589 75.3697C552.589 73.5104 551.081 72.0027 549.222 72.0027C547.363 72.0027 545.855 73.5104 545.855 75.3697C545.855 76.5491 546.464 77.5841 547.383 78.186L545.855 87.5814H549.222H552.589L551.062 78.186C551.98 77.5841 552.589 76.5491 552.589 75.3697Z" fill="#724F00"/>
<path d="M562.412 91.9346C560.892 94.1233 550.999 99.5324 549.837 99.6535C548.675 99.5324 538.781 94.1222 537.262 91.9346C535.742 89.7458 530.181 69.6266 530.181 69.6266C530.181 69.6266 534.175 91.2803 536.29 94.1222C538.788 97.4821 549.837 103.969 549.837 103.969C549.837 103.969 560.885 97.4821 563.384 94.1222C565.498 91.2803 569.295 69.6266 569.295 69.6266C569.295 69.6266 563.931 89.7458 562.412 91.9346Z" fill="black"/>
<path d="M531.329 69.6267L542.088 67.2563L543.273 62.2873L549.837 60.8286V62.6983L544.002 63.8381L542.862 68.2145L531.648 70.9493L531.329 69.6267Z" fill="white"/>
<path opacity="0.71" d="M568.346 69.6267L557.588 67.2563L556.403 62.2873L549.837 60.8286V62.6983L555.673 63.8381L556.812 68.2145L568.027 70.9493L568.346 69.6267Z" fill="white"/>
<path d="M549.837 88.4093V97.7698C549.837 97.7698 559.169 93.8521 561.211 91.3269C563.253 88.8017 566.951 74.0159 567.293 72.4348C567.293 72.4348 563.581 87.8016 559.509 90.2942C555.437 92.7857 551.533 92.0557 549.837 88.4093Z" fill="black"/>
<path d="M557.944 93.1048C557.944 93.1048 550.673 96.3414 550.376 96.3647V91.3049C550.376 91.3049 553.453 94.6323 557.944 93.1048Z" fill="black"/>
<path opacity="0.51" d="M488.617 149.275C488.617 149.275 482.68 138.129 480.431 129.924C480.431 129.924 473.32 130.775 469.429 125.73C469.429 125.73 474.639 142.86 480.005 148.038C480.005 148.038 483.309 151.182 488.617 149.275Z" fill="black"/>
<path opacity="0.74" d="M480.543 131.672C480.543 131.672 473.525 132.149 470.551 127.748C470.551 127.748 474.001 138.333 477.688 142.913C477.688 142.913 474.655 137.382 475.25 135.33C475.845 133.279 481.887 135.039 482.862 137.917C482.862 137.917 480.722 132.803 480.543 131.672Z" fill="black"/>
<path d="M477.452 121.293L479.944 129.012C479.944 129.012 473.562 129.62 469.429 124.757C469.429 124.757 466.511 115.093 465.356 108.954C465.356 108.954 468.153 120.381 471.86 123.542C475.568 126.702 477.816 124.271 477.452 121.293Z" fill="white"/>
<path opacity="0.51" d="M611.276 148.998C611.276 148.998 617.214 137.852 619.462 129.647C619.462 129.647 626.573 130.498 630.464 125.453C630.464 125.453 625.254 142.583 619.888 147.761C619.888 147.761 616.584 150.903 611.276 148.998Z" fill="black"/>
<path opacity="0.74" d="M619.35 131.395C619.35 131.395 626.368 131.872 629.341 127.471C629.341 127.471 625.891 138.056 622.204 142.635C622.204 142.635 625.237 137.104 624.642 135.052C624.047 133.001 618.004 134.761 617.03 137.639C617.03 137.639 619.171 132.525 619.35 131.395Z" fill="black"/>
<path d="M622.441 121.015L619.95 128.734C619.95 128.734 626.332 129.342 630.465 124.479C630.465 124.479 633.383 114.815 634.538 108.676C634.538 108.676 631.741 120.103 628.034 123.263C624.325 126.424 622.076 123.993 622.441 121.015Z" fill="white"/>
<path opacity="0.51" d="M479.022 115.032C479.022 115.032 482.658 132.923 486.957 141.273C486.957 141.273 514.145 145.849 549.485 145.849C584.826 145.849 612.014 141.273 612.014 141.273C616.313 132.922 619.949 115.032 619.949 115.032C602.558 148.124 496.071 148.073 479.022 115.032Z" fill="black"/>
<path opacity="0.49" d="M478.495 50.0864C478.495 50.0864 481.63 38.8317 489.801 27.6864C489.801 27.6864 513.882 20.368 549.222 20.368C584.563 20.368 608.683 27.6864 608.683 27.6864C617.026 36.7745 621.082 49.9327 621.082 49.9327C603.691 16.8416 495.544 17.0465 478.495 50.0864Z" fill="white"/>
<path d="M480.108 40.4205C480.108 40.4205 484.156 30.195 489.799 26.509C489.799 26.509 483.206 24.7371 479.518 28.2938C475.83 31.8505 471.417 39.8163 470.544 42.7769C470.544 42.7769 475.792 37.1385 480.108 40.4205Z" fill="white"/>
<path d="M619.317 40.2028C619.317 40.2028 615.269 29.9773 609.626 26.2913C609.626 26.2913 616.219 24.5193 619.907 28.0761C623.595 31.6328 628.008 39.5986 628.881 42.5592C628.881 42.5592 623.633 36.9208 619.317 40.2028Z" fill="white"/>
<path d="M539.025 66.7092H462.073V68.5336H529.179L539.025 66.7092Z" fill="black"/>
<path d="M560.503 66.5485H637.453V68.3717H570.349L560.503 66.5485Z" fill="black"/>
<path d="M464.202 161.47L475.074 142.112L477.452 146.942L466.025 162.2L464.202 161.47Z" fill="white"/>
<path d="M635.966 161.152L625.093 141.794L622.715 146.625L634.143 161.882L635.966 161.152Z" fill="white"/>
</svg>
