<svg width="325" height="93" viewBox="0 0 325 93" fill="none" xmlns="http://www.w3.org/2000/svg">
<path d="M7.77774 70.0419L0.897949 82.5929C0.897949 82.5929 3.22248 84.1268 5.7791 83.1509L12.9842 75.3879L7.77774 70.0419Z" fill="#D3950B"/>
<path d="M82.5327 70.0419L89.4125 82.5929C89.4125 82.5929 87.088 84.1268 84.5314 83.1509L77.3257 75.3879L82.5327 70.0419Z" fill="#D3950B"/>
<path d="M81.6587 15.2421C81.6587 15.2421 64.2592 9.84216 45.0598 9.84216C25.8605 9.84216 8.46103 15.2421 8.46103 15.2421C3.6612 21.8417 0.0610352 33.8413 0.0610352 33.8413H45.0598H90.0587C90.0587 33.8413 86.4585 21.8417 81.6587 15.2421Z" fill="#8C6239"/>
<path d="M45.0597 33.8412H0.0615234C0.0615234 33.8412 0.681237 62.7744 9.85469 75.6667C9.85469 75.6667 28.201 78.6418 45.0603 78.6418C61.9197 78.6418 80.266 75.6667 80.266 75.6667C89.4394 62.7744 90.0592 33.8412 90.0592 33.8412H45.0597Z" fill="#8C6239"/>
<g opacity="0.64">
<mask id="mask0_1_2324" style="mask-type:luminance" maskUnits="userSpaceOnUse" x="0" y="9" width="91" height="25">
<path d="M81.6587 15.2421C81.6587 15.2421 64.2592 9.84216 45.0598 9.84216C25.8605 9.84216 8.46103 15.2421 8.46103 15.2421C3.6612 21.8417 0.0610352 33.8413 0.0610352 33.8413H45.0598H90.0587C90.0587 33.8413 86.4585 21.8417 81.6587 15.2421Z" fill="white"/>
</mask>
<g mask="url(#mask0_1_2324)">
<path d="M83.4363 26.2581C83.4363 26.2581 72.3592 25.9423 60.3608 25.7595C48.3624 25.5767 37.4966 25.731 34.9471 26.7811C32.3976 27.8312 45.874 31.3061 59.2697 32.5164C59.2697 32.5164 45.6592 30.5629 44.6121 28.8931C43.5649 27.2233 49.5965 25.861 64.3765 27.0731C79.1564 28.2853 83.482 29.7562 83.482 29.7562L83.4363 26.2581Z" fill="#63391D"/>
<path d="M81.6442 30.3402C81.6442 30.3402 64.5147 27.1638 58.571 27.4137C52.628 27.663 54.0995 30.4553 61.6281 31.1914C69.1567 31.9274 69.4903 30.6655 68.2853 30.2927C67.0797 29.9199 63.7971 29.7466 63.7971 29.7466C63.7971 29.7466 67.288 30.133 67.2945 30.6476C67.3011 31.1623 60.67 31.0863 58.2659 30.1888C55.8619 29.2913 55.9794 27.8174 60.9745 28.2507C65.9696 28.684 76.3748 29.8855 81.1135 31.5695C85.8516 33.2535 81.6442 30.3402 81.6442 30.3402Z" fill="#63391D"/>
<path d="M7.76026 25.5096C8.5729 25.3885 10.4415 26.7182 18.7644 28.0669C27.0866 29.4161 35.7098 33.0311 35.7098 33.0311L31.1094 32.6767C31.1094 32.6767 29.3524 30.151 18.5714 28.9662C7.79054 27.7813 4.48242 25.7085 4.48242 25.7085L7.76026 25.5096Z" fill="#63391D"/>
<path d="M7.65924 28.2248C7.65924 28.2248 13.2776 29.2357 17.3212 30.0798C21.3648 30.9233 22.387 32.0054 22.387 32.0054L21.2093 31.9146C21.2093 31.9146 21.0906 30.8408 17.1194 30.3208C13.1482 29.8008 7.39746 29.0814 7.39746 29.0814L7.65924 28.2248Z" fill="#63391D"/>
<path d="M7.31002 22.3886C7.31002 22.3886 13.0638 23.3122 17.9942 24.0352C22.9252 24.7582 38.2863 23.3947 40.3384 23.5164C40.3384 23.5164 36.8979 23.0967 33.5191 23.4422C30.1404 23.7871 23.7895 24.2246 18.8602 23.6375C13.931 23.0504 7.04053 21.4032 7.04053 21.4032L7.31002 22.3886Z" fill="#63391D"/>
<path d="M7.80459 21.0429C7.80459 21.0429 16.1482 22.8902 20.0167 23.3116C23.8851 23.7331 29.4163 23.3229 29.4163 23.3229C29.4163 23.3229 22.8558 23.4262 19.7715 22.778C16.6872 22.1298 7.28223 20.3217 7.28223 20.3217L7.80459 21.0429Z" fill="#63391D"/>
<path d="M81.6519 15.2273C81.6519 15.2273 70.96 13.7184 58.8767 14.5032C46.7935 15.2885 28.8722 16.9149 19.323 15.8328C9.77378 14.7507 9.01576 11.6735 13.2143 11.2508C17.4122 10.8282 27.0415 10.196 30.2404 11.7471C33.4393 13.2982 28.2151 13.6917 26.2681 13.7422C26.2681 13.7422 31.7066 14.0942 33.3265 12.5407C34.9465 10.9873 25.0809 9.22252 17.6057 9.93543C10.1305 10.6483 8.19659 11.7465 9.44671 13.2501C10.6968 14.7543 12.7732 16.7309 29.8997 17.0628C47.0262 17.3946 72.1626 13.8734 82.3968 17.2794L81.6519 15.2273Z" fill="#63391D"/>
<path d="M81.482 17.9378C81.482 17.9378 72.6403 16.0626 62.9095 16.8088C53.1793 17.5549 45.9202 19.1469 47.2653 20.0908C48.6104 21.0346 82.0524 22.407 82.0524 22.407L82.04 21.4531C82.04 21.4531 63.6456 20.7811 57.0133 20.6891C50.381 20.5977 43.8984 19.404 55.9531 18.0197C68.0079 16.6354 79.846 18.3094 82.0109 19.2265C84.1763 20.1436 81.482 17.9378 81.482 17.9378Z" fill="#63391D"/>
<path d="M82.0111 19.2265C82.0111 19.2265 70.6099 17.6374 64.5688 18.2578C58.5278 18.8781 55.6583 18.9724 56.3843 19.642C57.1109 20.311 69.1472 19.7156 69.1472 19.7156C69.1472 19.7156 61.4121 19.9293 61.3028 19.439C61.1936 18.9487 72.561 17.9028 82.0235 20.181L82.0111 19.2265Z" fill="#63391D"/>
</g>
</g>
<g opacity="0.64">
<mask id="mask1_1_2324" style="mask-type:luminance" maskUnits="userSpaceOnUse" x="0" y="33" width="91" height="46">
<path d="M45.0597 33.8412H0.0615234C0.0615234 33.8412 0.681237 62.7744 9.85469 75.6667C9.85469 75.6667 28.201 78.6418 45.0603 78.6418C61.9197 78.6418 80.266 75.6667 80.266 75.6667C89.4394 62.7744 90.0592 33.8412 90.0592 33.8412H45.0597Z" fill="white"/>
</mask>
<g mask="url(#mask1_1_2324)">
<path d="M88.1724 76.2528C88.1724 76.2528 76.1379 75.937 63.1019 75.7542C50.0665 75.5714 38.261 75.7257 35.4907 76.7758C32.721 77.8259 47.3626 81.3008 61.9165 82.5111C61.9165 82.5111 47.1294 80.5576 45.9914 78.8878C44.8535 77.218 51.4068 75.8557 67.4642 77.0678C83.5222 78.28 88.2211 79.7509 88.2211 79.7509L88.1724 76.2528Z" fill="#63391D"/>
<path d="M86.2256 80.3342C86.2256 80.3342 67.6152 77.1585 61.158 77.4078C54.7009 77.6571 56.3 80.4494 64.4792 81.1855C72.6584 81.9215 73.0211 80.6595 71.7116 80.2868C70.4021 79.914 66.8352 79.7406 66.8352 79.7406C66.8352 79.7406 70.6283 80.1271 70.6354 80.6417C70.6425 81.1564 63.438 81.0804 60.8262 80.1829C58.2144 79.2854 58.342 77.8115 63.7692 78.2448C69.1965 78.6781 80.5016 79.8795 85.6492 81.5636C90.7969 83.2482 86.2256 80.3342 86.2256 80.3342Z" fill="#63391D"/>
<path d="M5.95367 75.5041C6.83695 75.3831 8.86704 76.7127 17.9093 78.0614C26.9516 79.41 36.3197 83.0256 36.3197 83.0256L31.3216 82.6712C31.3216 82.6712 29.4126 80.1455 17.6992 78.9607C5.98632 77.7758 2.39209 75.703 2.39209 75.703L5.95367 75.5041Z" fill="#63391D"/>
<path d="M5.84411 78.2193C5.84411 78.2193 11.9481 79.2308 16.3413 80.0743C20.7345 80.9178 21.8445 81.9999 21.8445 81.9999L20.5653 81.9091C20.5653 81.9091 20.4365 80.8353 16.1217 80.3153C11.8068 79.7953 5.55859 79.0759 5.55859 79.0759L5.84411 78.2193Z" fill="#63391D"/>
<path d="M5.46393 72.3825C5.46393 72.3825 11.7151 73.3062 17.0723 74.0292C22.4295 74.7522 39.1191 73.3887 41.3487 73.5104C41.3487 73.5104 37.6108 73.0907 33.94 73.4362C30.2692 73.7816 23.3686 74.2185 18.0138 73.6315C12.6583 73.0444 5.17188 71.3972 5.17188 71.3972L5.46393 72.3825Z" fill="#63391D"/>
<path d="M6.00156 71.0368C6.00156 71.0368 15.0664 72.884 19.2696 73.3055C23.4729 73.727 29.4819 73.3168 29.4819 73.3168C29.4819 73.3168 22.354 73.4201 19.0031 72.7719C15.6523 72.1236 5.43408 70.3156 5.43408 70.3156L6.00156 71.0368Z" fill="#63391D"/>
<path d="M86.2339 65.2214C86.2339 65.2214 74.6178 63.7125 61.4892 64.4978C48.3612 65.2832 28.89 66.9096 18.5151 65.8275C8.14023 64.7454 7.31691 61.6682 11.8781 61.2455C16.4393 60.8229 26.9015 60.1907 30.3764 61.7418C33.8513 63.2928 28.1759 63.6864 26.0603 63.7368C26.0603 63.7368 31.969 64.0882 33.7296 62.5348C35.4896 60.9814 24.771 59.2166 16.6494 59.9295C8.52785 60.6424 6.42711 61.7406 7.78526 63.2447C9.14341 64.7489 11.3991 66.7256 30.0066 67.0568C48.6141 67.3886 75.9237 63.8674 87.0429 67.2735L86.2339 65.2214Z" fill="#63391D"/>
<path d="M86.0495 67.932C86.0495 67.932 76.4433 66.0569 65.8714 66.803C55.2994 67.5486 47.4135 69.1412 48.8749 70.085C50.3363 71.0288 86.6698 72.4012 86.6698 72.4012L86.6562 71.4473C86.6562 71.4473 66.6715 70.7754 59.4652 70.684C52.2596 70.5925 45.2165 69.3988 58.3137 68.0145C71.4108 66.6303 84.2723 68.3042 86.6247 69.2213C88.9765 70.1372 86.0495 67.932 86.0495 67.932Z" fill="#63391D"/>
<path d="M86.6247 69.221C86.6247 69.221 74.2376 67.632 67.6742 68.2523C61.1108 68.8726 57.9932 68.967 58.7821 69.6365C59.5716 70.3055 72.6485 69.7101 72.6485 69.7101C72.6485 69.7101 64.2443 69.9238 64.1262 69.4335C64.0081 68.9432 76.3579 67.8973 86.6384 70.1749L86.6247 69.221Z" fill="#63391D"/>
<path d="M87.7883 49.1448C87.7883 49.1448 56.0065 49.2938 45.6245 50.367C35.2431 51.4402 27.0384 51.7353 18.9411 50.1409C10.8439 48.5465 8.57275 45.4764 8.57275 45.4764L10.9537 45.8011C10.9537 45.8011 13.8659 49.3959 26.7588 50.1516C39.6517 50.9072 62.8091 47.2477 89.4118 48.4485L87.7883 49.1448Z" fill="#63391D"/>
<path d="M85.5684 49.6821C85.5684 49.6821 65.0721 49.6697 52.6178 51.2C40.1636 52.7302 44.2232 56.9258 61.3864 57.1983C78.5497 57.4707 81.9184 54.111 80.7151 53.0567C79.5119 52.0025 67.9225 51.6582 62.2982 53.0716C62.2982 53.0716 75.1603 51.8885 77.3043 53.4485C79.4484 55.0079 73.0304 55.7149 65.5315 55.8597C58.0326 56.0045 51.1136 55.6163 50.7207 53.5803C50.3277 51.5442 76.652 49.3283 85.5862 50.9144L85.5684 49.6821Z" fill="#63391D"/>
<path d="M3.71729 51.3578C3.71729 51.3578 12.7322 50.7998 19.767 52.006C26.8017 53.2122 47.1276 58.2091 47.1276 58.2091L43.1339 58.056C43.1339 58.056 29.8237 54.2225 23.7999 53.6105C17.776 52.9985 3.73509 52.6299 3.73509 52.6299L3.71729 51.3578Z" fill="#63391D"/>
<path d="M3.18806 53.2774C3.18806 53.2774 20.5692 53.538 24.3759 54.9223C28.1827 56.3065 15.1479 56.1463 15.1479 56.1463C15.1479 56.1463 22.0514 55.9361 22.0455 55.5271C22.0395 55.1182 5.3161 54.1043 3.75613 54.0384C2.19556 53.9725 2.52145 53.3659 2.52145 53.3659" fill="#63391D"/>
<path d="M86.6968 42.8563C86.6968 42.8563 77.7228 41.0743 68.9304 38.9926C60.138 36.9109 35.7596 35.4708 30.1513 37.9746C24.543 40.4784 39.4399 43.1151 49.9763 42.7495C49.9763 42.7495 38.8226 41.9831 37.9102 40.4653C36.9979 38.9475 42.3088 36.4229 56.5978 38.5937C70.8869 40.7651 86.8321 44.5178 88.1707 44.6531C89.5086 44.7897 86.6968 42.8563 86.6968 42.8563Z" fill="#63391D"/>
<path d="M2.26145 37.1825C2.26145 37.1825 17.2415 38.8374 23.216 41.2006C29.1906 43.5643 31.5774 44.3258 31.5774 44.3258L27.5404 44.3288C27.5404 44.3288 23.5152 41.3424 15.6304 40.4461C7.7457 39.5498 0.760246 39.2019 0.760246 39.2019L-1.50195 37.6811L2.26145 37.1825Z" fill="#63391D"/>
</g>
</g>
<path d="M81.8771 15.0795C78.9952 11.6088 75.1238 13.5296 75.1238 13.5296C80.8906 18.2084 82.3728 28.065 82.3728 28.065H45.0598H7.74693C7.74693 28.065 9.22914 18.209 14.9959 13.5296C14.9959 13.5296 11.1245 11.6088 8.24259 15.0795C8.24259 15.0795 3.28427 21.2713 0.0610352 33.8413H45.0598H90.0587C86.8354 21.2719 81.8771 15.0795 81.8771 15.0795Z" fill="#EFB933"/>
<path d="M79.6459 72.1954C79.6459 72.1954 67.3738 75.1705 45.0599 75.0464C22.7466 74.9224 9.48269 72.567 9.85429 72.1954C10.2265 71.8238 10.7387 75.8039 10.7387 75.8039C10.7387 75.8039 40.3492 83.7509 78.778 75.8039L79.6459 72.1954Z" fill="#D3950B"/>
<path d="M90.0588 33.8412H45.0599H0.0617185C-0.875571 63.3133 9.17284 75.7284 9.17284 75.7284C11.2801 77.8357 14.2059 76.2995 14.2059 76.2995C5.32752 60.0035 5.765 40.2877 5.765 40.2877H45.0605H84.3561C84.3561 40.2877 84.7935 60.004 75.9145 76.3001C75.9145 76.3001 78.8404 77.8363 80.9476 75.729C80.9476 75.729 90.996 63.3133 90.0588 33.8412Z" fill="#EFB933"/>
<path d="M49.2679 34.249L48.6761 31.7506L45.0599 31.0276L41.4437 31.7506L40.8519 34.249L35.3291 35.4457C35.3291 35.4457 37.7617 45.2953 38.8794 46.8072C39.9972 48.3197 45.0599 50.6204 45.0599 50.6204C45.0599 50.6204 50.1227 48.3191 51.2405 46.8072C52.3582 45.2947 54.7908 35.4457 54.7908 35.4457L49.2679 34.249Z" fill="#FFDD50"/>
<path d="M46.4631 38.5698C46.4631 37.6219 45.6944 36.8531 44.7465 36.8531C43.7985 36.8531 43.0298 37.6219 43.0298 38.5698C43.0298 39.1711 43.3402 39.6988 43.8086 40.0057L43.0298 44.7961H44.7465H46.4631L45.6844 40.0057C46.1527 39.6988 46.4631 39.1711 46.4631 38.5698Z" fill="#724F00"/>
<path d="M51.4712 47.0155C50.6966 48.1315 45.6522 50.8893 45.0598 50.9511C44.4674 50.8893 39.423 48.1309 38.6483 47.0155C37.8737 45.8996 35.0381 35.6416 35.0381 35.6416C35.0381 35.6416 37.0747 46.6819 38.1527 48.1309C39.4266 49.844 45.0598 53.1515 45.0598 53.1515C45.0598 53.1515 50.693 49.844 51.9669 48.1309C53.0449 46.6819 54.9806 35.6416 54.9806 35.6416C54.9806 35.6416 52.2459 45.8996 51.4712 47.0155Z" fill="black"/>
<path d="M35.6235 35.6418L41.109 34.4332L41.7132 31.8997L45.0599 31.1559V32.1093L42.0848 32.6904L41.5037 34.9217L35.7862 36.3161L35.6235 35.6418Z" fill="white"/>
<path opacity="0.71" d="M54.4971 35.6418L49.0116 34.4332L48.4074 31.8997L45.0601 31.1559V32.1093L48.0352 32.6904L48.6163 34.9217L54.3344 36.3161L54.4971 35.6418Z" fill="white"/>
<path d="M45.0601 45.2182V49.9907C45.0601 49.9907 49.8177 47.9932 50.8589 46.7057C51.9001 45.4182 53.7853 37.8795 53.9599 37.0734C53.9599 37.0734 52.0675 44.9083 49.9911 46.1792C47.9153 47.4495 45.9243 47.0773 45.0601 45.2182Z" fill="black"/>
<path d="M49.1929 47.6122C49.1929 47.6122 45.4858 49.2624 45.3345 49.2742V46.6945C45.3345 46.6945 46.9033 48.391 49.1929 47.6122Z" fill="black"/>
<path opacity="0.51" d="M13.8461 76.2508C13.8461 76.2508 10.8193 70.5683 9.67248 66.3847C9.67248 66.3847 6.04679 66.8186 4.06299 64.2465C4.06299 64.2465 6.71934 72.9801 9.45522 75.6204C9.45522 75.6204 11.1399 77.2232 13.8461 76.2508Z" fill="black"/>
<path opacity="0.74" d="M9.7295 67.2763C9.7295 67.2763 6.1513 67.5191 4.63525 65.2753C4.63525 65.2753 6.39408 70.6723 8.274 73.0075C8.274 73.0075 6.72768 70.1873 7.03101 69.1414C7.33434 68.0954 10.4151 68.993 10.912 70.4603C10.912 70.4603 9.82092 67.8527 9.7295 67.2763Z" fill="black"/>
<path d="M8.1537 61.9845L9.42459 65.92C9.42459 65.92 6.17049 66.2299 4.06322 63.7504C4.06322 63.7504 2.57566 58.823 1.98682 55.6929C1.98682 55.6929 3.41264 61.5191 5.30265 63.1307C7.19326 64.7423 8.33949 63.5029 8.1537 61.9845Z" fill="white"/>
<path opacity="0.51" d="M76.3853 76.1096C76.3853 76.1096 79.4126 70.4271 80.5588 66.2434C80.5588 66.2434 84.1845 66.6773 86.1683 64.1053C86.1683 64.1053 83.512 72.8389 80.7761 75.4792C80.7761 75.4792 79.0915 77.0813 76.3853 76.1096Z" fill="black"/>
<path opacity="0.74" d="M80.5019 67.1352C80.5019 67.1352 84.0801 67.378 85.5955 65.1342C85.5955 65.1342 83.8367 70.5311 81.9568 72.8658C81.9568 72.8658 83.5031 70.0456 83.1998 68.9997C82.8965 67.9537 79.8157 68.8513 79.3188 70.3186C79.3188 70.3186 80.4105 67.711 80.5019 67.1352Z" fill="black"/>
<path d="M82.0779 61.8427L80.8076 65.7782C80.8076 65.7782 84.0617 66.0881 86.169 63.6086C86.169 63.6086 87.6565 58.6812 88.2454 55.5511C88.2454 55.5511 86.8196 61.3773 84.9296 62.9889C83.0384 64.6005 81.8915 63.3611 82.0779 61.8427Z" fill="white"/>
<path opacity="0.51" d="M8.95459 58.7919C8.95459 58.7919 10.8084 67.9137 13 72.171C13 72.171 26.8622 74.5044 44.8809 74.5044C62.8995 74.5044 76.7618 72.171 76.7618 72.171C78.9533 67.9131 80.8072 58.7919 80.8072 58.7919C71.9406 75.6643 17.6472 75.6382 8.95459 58.7919Z" fill="black"/>
<path opacity="0.49" d="M8.68555 25.6789C8.68555 25.6789 10.2841 19.9406 14.45 14.2581C14.45 14.2581 26.7279 10.5267 44.7466 10.5267C62.7652 10.5267 75.0634 14.2581 75.0634 14.2581C79.3171 18.8917 81.3852 25.6005 81.3852 25.6005C72.518 8.72873 17.3782 8.8332 8.68555 25.6789Z" fill="white"/>
<path d="M9.50775 20.7507C9.50775 20.7507 11.5717 15.5371 14.4489 13.6578C14.4489 13.6578 11.0873 12.7543 9.20679 14.5678C7.32628 16.3812 5.07655 20.4426 4.63135 21.9521C4.63135 21.9521 7.30728 19.0773 9.50775 20.7507Z" fill="white"/>
<path d="M80.4846 20.6397C80.4846 20.6397 78.4206 15.4262 75.5435 13.5468C75.5435 13.5468 78.905 12.6434 80.7855 14.4568C82.666 16.2703 84.9158 20.3316 85.361 21.8412C85.361 21.8412 82.685 18.9664 80.4846 20.6397Z" fill="white"/>
<path d="M39.5469 34.1542H0.3125V35.0844H34.5268L39.5469 34.1542Z" fill="black"/>
<path d="M50.4976 34.0723H89.7314V35.0018H55.5176L50.4976 34.0723Z" fill="black"/>
<path d="M1.39795 82.4687L6.94155 72.599L8.15368 75.0618L2.32752 82.8409L1.39795 82.4687Z" fill="white"/>
<path d="M88.9736 82.3066L83.43 72.4369L82.2173 74.8997L88.044 82.6788L88.9736 82.3066Z" fill="white"/>
<path d="M115.897 75.8875L107.297 91.5762C107.297 91.5762 110.203 93.4935 113.399 92.2737L122.405 82.5699L115.897 75.8875Z" fill="#D3950B"/>
<path d="M209.34 75.8875L217.94 91.5762C217.94 91.5762 215.034 93.4935 211.839 92.2737L202.832 82.5699L209.34 75.8875Z" fill="#D3950B"/>
<path d="M208.248 7.38794C208.248 7.38794 186.499 0.638 162.499 0.638C138.5 0.638 116.751 7.38794 116.751 7.38794C110.751 15.6375 106.251 30.6369 106.251 30.6369H162.499H218.748C218.748 30.6369 214.248 15.6375 208.248 7.38794Z" fill="#8C6239"/>
<path d="M162.5 30.6369H106.252C106.252 30.6369 107.027 66.8033 118.493 82.9187C118.493 82.9187 141.426 86.6376 162.5 86.6376C183.575 86.6376 206.508 82.9187 206.508 82.9187C217.974 66.8033 218.749 30.6369 218.749 30.6369H162.5Z" fill="#8C6239"/>
<g opacity="0.64">
<mask id="mask2_1_2324" style="mask-type:luminance" maskUnits="userSpaceOnUse" x="106" y="0" width="113" height="31">
<path d="M208.248 7.38794C208.248 7.38794 186.499 0.638 162.499 0.638C138.5 0.638 116.751 7.38794 116.751 7.38794C110.751 15.6375 106.251 30.6369 106.251 30.6369H162.499H218.748C218.748 30.6369 214.248 15.6375 208.248 7.38794Z" fill="white"/>
</mask>
<g mask="url(#mask2_1_2324)">
<path d="M210.469 21.158C210.469 21.158 196.623 20.7633 181.625 20.5348C166.627 20.3062 153.045 20.4992 149.858 21.8117C146.671 23.1243 163.516 27.468 180.261 28.9809C180.261 28.9809 163.248 26.539 161.939 24.4518C160.63 22.3645 168.17 20.6616 186.645 22.1768C205.119 23.692 210.526 25.5306 210.526 25.5306L210.469 21.158Z" fill="#63391D"/>
<path d="M208.229 26.2608C208.229 26.2608 186.817 22.2903 179.388 22.6027C171.959 22.9144 173.798 26.4047 183.209 27.3248C192.62 28.2449 193.037 26.6674 191.531 26.2014C190.024 25.7354 185.92 25.5188 185.92 25.5188C185.92 25.5188 190.284 26.0018 190.292 26.6451C190.3 27.2884 182.011 27.1935 179.006 26.0716C176.001 24.9497 176.148 23.1073 182.392 23.6489C188.636 24.1906 201.642 25.6924 207.566 27.7974C213.488 29.9025 208.229 26.2608 208.229 26.2608Z" fill="#63391D"/>
<path d="M115.875 20.2224C116.89 20.071 119.226 21.7331 129.63 23.4189C140.033 25.1055 150.812 29.6242 150.812 29.6242L145.061 29.1812C145.061 29.1812 142.865 26.0241 129.389 24.543C115.912 23.062 111.777 20.471 111.777 20.471L115.875 20.2224Z" fill="#63391D"/>
<path d="M115.749 23.6163C115.749 23.6163 122.772 24.8799 127.826 25.935C132.881 26.9894 134.158 28.342 134.158 28.342L132.686 28.2285C132.686 28.2285 132.538 26.8862 127.574 26.2363C122.61 25.5863 115.421 24.687 115.421 24.687L115.749 23.6163Z" fill="#63391D"/>
<path d="M115.311 16.321C115.311 16.321 122.504 17.4755 128.667 18.3792C134.83 19.283 154.032 17.5786 156.597 17.7307C156.597 17.7307 152.296 17.2062 148.073 17.638C143.849 18.0691 135.911 18.6159 129.749 17.8821C123.588 17.1483 114.975 15.0892 114.975 15.0892L115.311 16.321Z" fill="#63391D"/>
<path d="M115.93 14.6387C115.93 14.6387 126.36 16.9478 131.195 17.4746C136.031 18.0014 142.945 17.4887 142.945 17.4887C142.945 17.4887 134.744 17.6178 130.889 16.8076C127.034 15.9973 115.277 13.7372 115.277 13.7372L115.93 14.6387Z" fill="#63391D"/>
<path d="M208.239 7.36939C208.239 7.36939 194.875 5.48324 179.77 6.46416C164.666 7.44582 142.265 9.47889 130.328 8.12623C118.392 6.77357 117.444 2.92706 122.692 2.39876C127.94 1.87046 139.976 1.08023 143.975 3.01907C147.974 4.95791 141.443 5.44985 139.01 5.51292C139.01 5.51292 145.808 5.95292 147.833 4.01112C149.858 2.06931 137.526 -0.136643 128.182 0.754495C118.838 1.64563 116.42 3.01833 117.983 4.8978C119.546 6.77802 122.141 9.24887 143.549 9.66365C164.957 10.0784 196.378 5.6769 209.171 9.93447L208.239 7.36939Z" fill="#63391D"/>
<path d="M208.027 10.7575C208.027 10.7575 196.975 8.41358 184.811 9.34627C172.648 10.279 163.574 12.269 165.256 13.4488C166.937 14.6285 208.74 16.344 208.74 16.344L208.724 15.1516C208.724 15.1516 185.731 14.3117 177.441 14.1967C169.15 14.0824 161.047 12.5903 176.115 10.8599C191.184 9.12961 205.982 11.222 208.688 12.3684C211.394 13.5148 208.027 10.7575 208.027 10.7575Z" fill="#63391D"/>
<path d="M208.689 12.3683C208.689 12.3683 194.437 10.382 186.886 11.1574C179.334 11.9328 175.748 12.0507 176.655 12.8877C177.563 13.7239 192.609 12.9797 192.609 12.9797C192.609 12.9797 182.94 13.2468 182.803 12.634C182.667 12.0211 196.876 10.7137 208.704 13.5614L208.689 12.3683Z" fill="#63391D"/>
</g>
</g>
<g opacity="0.64">
<mask id="mask3_1_2324" style="mask-type:luminance" maskUnits="userSpaceOnUse" x="106" y="30" width="113" height="57">
<path d="M162.5 30.6369H106.252C106.252 30.6369 107.027 66.8033 118.493 82.9187C118.493 82.9187 141.426 86.6376 162.5 86.6376C183.575 86.6376 206.508 82.9187 206.508 82.9187C217.974 66.8033 218.749 30.6369 218.749 30.6369H162.5Z" fill="white"/>
</mask>
<g mask="url(#mask3_1_2324)">
<path d="M216.391 83.651C216.391 83.651 201.347 83.2563 185.053 83.0278C168.758 82.7992 154.001 82.9921 150.539 84.3047C147.076 85.6173 165.378 89.961 183.571 91.4739C183.571 91.4739 165.087 89.032 163.664 86.9447C162.242 84.8575 170.434 83.1546 190.505 84.6698C210.578 86.1849 216.452 88.0236 216.452 88.0236L216.391 83.651Z" fill="#63391D"/>
<path d="M213.957 88.7531C213.957 88.7531 190.694 84.7834 182.622 85.095C174.551 85.4066 176.55 88.897 186.774 89.8171C196.998 90.7371 197.451 89.1597 195.814 88.6937C194.177 88.2277 189.719 88.0111 189.719 88.0111C189.719 88.0111 194.46 88.4941 194.469 89.1374C194.478 89.7807 185.472 89.6857 182.208 88.5638C178.943 87.4419 179.102 85.5996 185.886 86.1412C192.67 86.6829 206.802 88.1847 213.236 90.2897C219.671 92.3955 213.957 88.7531 213.957 88.7531Z" fill="#63391D"/>
<path d="M113.618 82.7154C114.722 82.5641 117.26 84.2261 128.563 85.9119C139.865 87.5978 151.576 92.1173 151.576 92.1173L145.328 91.6743C145.328 91.6743 142.942 88.5171 128.3 87.0361C113.659 85.555 109.166 82.964 109.166 82.964L113.618 82.7154Z" fill="#63391D"/>
<path d="M113.48 86.1092C113.48 86.1092 121.11 87.3736 126.602 88.4279C132.093 89.4823 133.481 90.835 133.481 90.835L131.882 90.7214C131.882 90.7214 131.721 89.3792 126.327 88.7292C120.934 88.0792 113.124 87.1799 113.124 87.1799L113.48 86.1092Z" fill="#63391D"/>
<path d="M113.006 78.8134C113.006 78.8134 120.82 79.9679 127.516 80.8717C134.213 81.7754 155.075 80.0711 157.862 80.2232C157.862 80.2232 153.189 79.6986 148.601 80.1304C144.012 80.5623 135.387 81.1084 128.693 80.3745C121.999 79.6407 112.641 77.5817 112.641 77.5817L113.006 78.8134Z" fill="#63391D"/>
<path d="M113.678 77.1311C113.678 77.1311 125.009 79.4402 130.263 79.9671C135.517 80.4939 143.028 79.9811 143.028 79.9811C143.028 79.9811 134.118 80.1103 129.93 79.3C125.741 78.4897 112.968 76.2296 112.968 76.2296L113.678 77.1311Z" fill="#63391D"/>
<path d="M213.967 69.8618C213.967 69.8618 199.447 67.9756 183.037 68.9573C166.627 69.9389 142.288 71.972 129.319 70.6193C116.35 69.2667 115.321 65.4202 121.023 64.8919C126.724 64.3636 139.802 63.5733 144.146 65.5122C148.489 67.451 141.395 67.943 138.751 68.006C138.751 68.006 146.136 68.4453 148.337 66.5035C150.537 64.5617 137.139 62.3557 126.987 63.2469C116.835 64.138 114.209 65.5107 115.907 67.3909C117.604 69.2711 120.424 71.742 143.683 72.156C166.943 72.5708 201.08 68.1693 214.979 72.4268L213.967 69.8618Z" fill="#63391D"/>
<path d="M213.737 73.2505C213.737 73.2505 201.73 70.9065 188.515 71.8392C175.3 72.7711 165.442 74.7619 167.269 75.9417C169.096 77.1215 214.513 78.837 214.513 78.837L214.496 77.6446C214.496 77.6446 189.515 76.8046 180.507 76.6904C171.5 76.5761 162.696 75.0839 179.068 73.3536C195.439 71.6233 211.516 73.7157 214.456 74.8621C217.396 76.007 213.737 73.2505 213.737 73.2505Z" fill="#63391D"/>
<path d="M214.457 74.8613C214.457 74.8613 198.973 72.875 190.768 73.6504C182.564 74.4257 178.667 74.5437 179.653 75.3807C180.64 76.2169 196.986 75.4727 196.986 75.4727C196.986 75.4727 186.481 75.7398 186.334 75.1269C186.186 74.5141 201.623 73.2066 214.474 76.0537L214.457 74.8613Z" fill="#63391D"/>
<path d="M215.911 49.7661C215.911 49.7661 176.183 49.9523 163.206 51.2938C150.229 52.6354 139.973 53.0042 129.852 51.0112C119.73 49.0181 116.891 45.1805 116.891 45.1805L119.867 45.5864C119.867 45.5864 123.507 50.0799 139.624 51.0245C155.74 51.9691 184.687 47.3947 217.94 48.8957L215.911 49.7661Z" fill="#63391D"/>
<path d="M213.135 50.4376C213.135 50.4376 187.515 50.422 171.947 52.3349C156.379 54.2478 161.454 59.4922 182.908 59.8328C204.362 60.1734 208.573 55.9737 207.069 54.6559C205.565 53.3381 191.078 52.9077 184.048 54.6744C184.048 54.6744 200.125 53.1956 202.805 55.1456C205.485 57.0948 197.463 57.9785 188.089 58.1596C178.716 58.3406 170.067 57.8554 169.576 55.3103C169.084 52.7653 201.99 49.9954 213.158 51.978L213.135 50.4376Z" fill="#63391D"/>
<path d="M110.823 52.5322C110.823 52.5322 122.091 51.8348 130.885 53.3425C139.678 54.8502 165.086 61.0964 165.086 61.0964L160.094 60.9049C160.094 60.9049 143.456 56.1131 135.926 55.3481C128.396 54.5831 110.845 54.1223 110.845 54.1223L110.823 52.5322Z" fill="#63391D"/>
<path d="M110.161 54.932C110.161 54.932 131.887 55.2578 136.645 56.9881C141.404 58.7184 125.11 58.5181 125.11 58.5181C125.11 58.5181 133.74 58.2554 133.732 57.7442C133.725 57.2329 112.821 55.9656 110.871 55.8832C108.92 55.8009 109.327 55.0426 109.327 55.0426" fill="#63391D"/>
<path d="M214.546 41.9054C214.546 41.9054 203.329 39.6779 192.338 37.0757C181.348 34.4735 150.875 32.6734 143.864 35.8032C136.854 38.9329 155.475 42.2289 168.646 41.7718C168.646 41.7718 154.704 40.8139 153.563 38.9166C152.423 37.0193 159.061 33.8636 176.923 36.5771C194.784 39.2913 214.715 43.9822 216.389 44.1514C218.061 44.3221 214.546 41.9054 214.546 41.9054Z" fill="#63391D"/>
<path d="M109.003 34.8136C109.003 34.8136 127.728 36.8823 135.196 39.8362C142.664 42.7908 145.648 43.7428 145.648 43.7428L140.601 43.7465C140.601 43.7465 135.57 40.0135 125.714 38.8931C115.858 37.7727 107.126 37.3379 107.126 37.3379L104.298 35.4369L109.003 34.8136Z" fill="#63391D"/>
</g>
</g>
<path d="M208.521 7.18456C204.919 2.8461 200.079 5.2472 200.079 5.2472C207.288 11.0956 209.141 23.4165 209.141 23.4165H162.499H115.858C115.858 23.4165 117.711 11.0964 124.92 5.2472C124.92 5.2472 120.08 2.8461 116.478 7.18456C116.478 7.18456 110.28 14.9243 106.251 30.6368H162.499H218.748C214.719 14.9251 208.521 7.18456 208.521 7.18456Z" fill="#EFB933"/>
<path d="M205.732 78.5795C205.732 78.5795 190.392 82.2984 162.5 82.1433C134.608 81.9882 118.028 79.044 118.493 78.5795C118.958 78.115 119.598 83.0901 119.598 83.0901C119.598 83.0901 156.611 93.0239 204.648 83.0901L205.732 78.5795Z" fill="#D3950B"/>
<path d="M218.748 30.6369H162.5H106.252C105.08 67.477 117.641 82.9959 117.641 82.9959C120.275 85.63 123.932 83.7097 123.932 83.7097C112.834 63.3397 113.381 38.695 113.381 38.695H162.5H211.62C211.62 38.695 212.167 63.3404 201.068 83.7104C201.068 83.7104 204.725 85.6307 207.359 82.9966C207.359 82.9966 219.92 67.477 218.748 30.6369Z" fill="#EFB933"/>
<path d="M167.76 31.1466L167.02 28.0236L162.5 27.1198L157.98 28.0236L157.24 31.1466L150.336 32.6425C150.336 32.6425 153.377 44.9544 154.774 46.8443C156.171 48.7349 162.5 51.6109 162.5 51.6109C162.5 51.6109 168.828 48.7342 170.226 46.8443C171.623 44.9537 174.664 32.6425 174.664 32.6425L167.76 31.1466Z" fill="#FFDD50"/>
<path d="M164.254 36.5475C164.254 35.3626 163.293 34.4017 162.108 34.4017C160.923 34.4017 159.962 35.3626 159.962 36.5475C159.962 37.2992 160.35 37.9588 160.936 38.3424L159.962 44.3303H162.108H164.254L163.281 38.3424C163.866 37.9588 164.254 37.2992 164.254 36.5475Z" fill="#724F00"/>
<path d="M170.514 47.1047C169.546 48.4997 163.24 51.947 162.5 52.0242C161.759 51.947 155.454 48.4989 154.485 47.1047C153.517 45.7098 149.973 32.8873 149.973 32.8873C149.973 32.8873 152.518 46.6877 153.866 48.4989C155.458 50.6403 162.5 54.7747 162.5 54.7747C162.5 54.7747 169.541 50.6403 171.134 48.4989C172.481 46.6877 174.901 32.8873 174.901 32.8873C174.901 32.8873 171.482 45.7098 170.514 47.1047Z" fill="black"/>
<path d="M150.705 32.8874L157.561 31.3767L158.317 28.2099L162.5 27.2802V28.4718L158.781 29.1982L158.055 31.9874L150.908 33.7303L150.705 32.8874Z" fill="white"/>
<path opacity="0.71" d="M174.296 32.8874L167.439 31.3767L166.684 28.2099L162.5 27.2802V28.4718L166.218 29.1982L166.945 31.9874L174.092 33.7303L174.296 32.8874Z" fill="white"/>
<path d="M162.5 44.8579V50.8236C162.5 50.8236 168.447 48.3268 169.748 46.7174C171.05 45.108 173.406 35.6846 173.624 34.677C173.624 34.677 171.259 44.4706 168.663 46.0592C166.069 47.6471 163.58 47.1819 162.5 44.8579Z" fill="black"/>
<path d="M167.667 47.8503C167.667 47.8503 163.033 49.9131 162.844 49.9279V46.7032C162.844 46.7032 164.805 48.8238 167.667 47.8503Z" fill="black"/>
<path opacity="0.51" d="M123.483 83.6489C123.483 83.6489 119.699 76.5458 118.266 71.3162C118.266 71.3162 113.734 71.8586 111.254 68.6435C111.254 68.6435 114.574 79.5605 117.994 82.8609C117.994 82.8609 120.1 84.8643 123.483 83.6489Z" fill="black"/>
<path opacity="0.74" d="M118.337 72.4307C118.337 72.4307 113.864 72.7342 111.969 69.9294C111.969 69.9294 114.168 76.6757 116.518 79.5947C116.518 79.5947 114.585 76.0695 114.964 74.7621C115.343 73.4547 119.194 74.5766 119.815 76.4108C119.815 76.4108 118.451 73.1512 118.337 72.4307Z" fill="black"/>
<path d="M116.367 65.8157L117.956 70.7351C117.956 70.7351 113.888 71.1224 111.254 68.0231C111.254 68.0231 109.395 61.8638 108.659 57.9512C108.659 57.9512 110.441 65.2339 112.803 67.2484C115.167 69.263 116.6 67.7137 116.367 65.8157Z" fill="white"/>
<path opacity="0.51" d="M201.657 83.4724C201.657 83.4724 205.441 76.3693 206.874 71.1397C206.874 71.1397 211.406 71.6821 213.886 68.467C213.886 68.467 210.566 79.384 207.146 82.6844C207.146 82.6844 205.04 84.6871 201.657 83.4724Z" fill="black"/>
<path opacity="0.74" d="M206.803 72.2541C206.803 72.2541 211.275 72.5576 213.17 69.7529C213.17 69.7529 210.971 76.4991 208.621 79.4174C208.621 79.4174 210.554 75.8922 210.175 74.5848C209.796 73.2774 205.945 74.3993 205.324 76.2335C205.324 76.2335 206.688 72.9739 206.803 72.2541Z" fill="black"/>
<path d="M208.773 65.6383L207.185 70.5578C207.185 70.5578 211.253 70.9451 213.887 67.8458C213.887 67.8458 215.746 61.6865 216.482 57.7739C216.482 57.7739 214.7 65.0566 212.337 67.0711C209.973 69.0857 208.54 67.5364 208.773 65.6383Z" fill="white"/>
<path opacity="0.51" d="M117.368 61.8253C117.368 61.8253 119.685 73.2276 122.424 78.5492C122.424 78.5492 139.752 81.466 162.276 81.466C184.799 81.466 202.127 78.5492 202.127 78.5492C204.866 73.2268 207.183 61.8253 207.183 61.8253C196.1 82.9158 128.233 82.8832 117.368 61.8253Z" fill="black"/>
<path opacity="0.49" d="M117.032 20.4338C117.032 20.4338 119.03 13.2609 124.237 6.15778C124.237 6.15778 139.585 1.49359 162.108 1.49359C184.631 1.49359 200.004 6.15778 200.004 6.15778C205.321 11.9498 207.906 20.3358 207.906 20.3358C196.822 -0.753912 127.898 -0.623323 117.032 20.4338Z" fill="white"/>
<path d="M118.06 14.2737C118.06 14.2737 120.64 7.75676 124.237 5.40759C124.237 5.40759 120.035 4.27827 117.684 6.54507C115.334 8.81187 112.521 13.8886 111.965 15.7755C111.965 15.7755 115.31 12.182 118.06 14.2737Z" fill="white"/>
<path d="M206.781 14.1349C206.781 14.1349 204.201 7.6179 200.604 5.26874C200.604 5.26874 204.806 4.13942 207.157 6.40622C209.508 8.67302 212.32 13.7498 212.876 15.6367C212.876 15.6367 209.531 12.0432 206.781 14.1349Z" fill="white"/>
<path d="M155.609 31.0279H106.566V32.1906H149.334L155.609 31.0279Z" fill="black"/>
<path d="M169.297 30.9257H218.339V32.0876H175.572L169.297 30.9257Z" fill="black"/>
<path d="M107.922 91.4213L114.852 79.0842L116.367 82.1627L109.084 91.8866L107.922 91.4213Z" fill="white"/>
<path d="M217.392 91.2188L210.462 78.8816L208.946 81.9601L216.23 91.684L217.392 91.2188Z" fill="white"/>
<path d="M242.657 70.0419L235.777 82.5929C235.777 82.5929 238.102 84.1268 240.658 83.1509L247.864 75.3879L242.657 70.0419Z" fill="#D3950B"/>
<path d="M317.412 70.0419L324.292 82.5929C324.292 82.5929 321.967 84.1268 319.411 83.1509L312.205 75.3879L317.412 70.0419Z" fill="#D3950B"/>
<path d="M316.538 15.2421C316.538 15.2421 299.139 9.84216 279.939 9.84216C260.74 9.84216 243.34 15.2421 243.34 15.2421C238.541 21.8417 234.94 33.8413 234.94 33.8413H279.939H324.938C324.938 33.8413 321.338 21.8417 316.538 15.2421Z" fill="#8C6239"/>
<path d="M279.94 33.8412H234.941C234.941 33.8412 235.561 62.7744 244.735 75.6667C244.735 75.6667 263.081 78.6418 279.94 78.6418C296.8 78.6418 315.146 75.6667 315.146 75.6667C324.319 62.7744 324.939 33.8412 324.939 33.8412H279.94Z" fill="#8C6239"/>
<g opacity="0.64">
<mask id="mask4_1_2324" style="mask-type:luminance" maskUnits="userSpaceOnUse" x="234" y="9" width="91" height="25">
<path d="M316.538 15.2421C316.538 15.2421 299.139 9.84216 279.939 9.84216C260.74 9.84216 243.34 15.2421 243.34 15.2421C238.541 21.8417 234.94 33.8413 234.94 33.8413H279.939H324.938C324.938 33.8413 321.338 21.8417 316.538 15.2421Z" fill="white"/>
</mask>
<g mask="url(#mask4_1_2324)">
<path d="M318.316 26.2581C318.316 26.2581 307.239 25.9423 295.24 25.7595C283.242 25.5767 272.376 25.731 269.826 26.7811C267.277 27.8312 280.753 31.3061 294.149 32.5164C294.149 32.5164 280.539 30.5629 279.491 28.8931C278.444 27.2233 284.476 25.861 299.256 27.0731C314.036 28.2853 318.361 29.7562 318.361 29.7562L318.316 26.2581Z" fill="#63391D"/>
<path d="M316.524 30.3402C316.524 30.3402 299.394 27.1638 293.45 27.4137C287.507 27.663 288.979 30.4553 296.507 31.1914C304.036 31.9274 304.37 30.6655 303.165 30.2927C301.959 29.9199 298.676 29.7466 298.676 29.7466C298.676 29.7466 302.167 30.133 302.174 30.6476C302.18 31.1623 295.549 31.0863 293.145 30.1888C290.741 29.2913 290.859 27.8174 295.854 28.2507C300.849 28.684 311.254 29.8855 315.993 31.5695C320.731 33.2535 316.524 30.3402 316.524 30.3402Z" fill="#63391D"/>
<path d="M242.64 25.5096C243.452 25.3885 245.321 26.7182 253.644 28.0669C261.966 29.4161 270.589 33.0311 270.589 33.0311L265.989 32.6767C265.989 32.6767 264.232 30.151 253.451 28.9662C242.67 27.7813 239.362 25.7085 239.362 25.7085L242.64 25.5096Z" fill="#63391D"/>
<path d="M242.539 28.2248C242.539 28.2248 248.157 29.2357 252.201 30.0798C256.244 30.9233 257.266 32.0054 257.266 32.0054L256.089 31.9146C256.089 31.9146 255.97 30.8408 251.999 30.3208C248.028 29.8008 242.277 29.0814 242.277 29.0814L242.539 28.2248Z" fill="#63391D"/>
<path d="M242.189 22.3886C242.189 22.3886 247.943 23.3122 252.874 24.0352C257.805 24.7582 273.166 23.3947 275.218 23.5164C275.218 23.5164 271.777 23.0967 268.399 23.4422C265.02 23.7871 258.669 24.2246 253.74 23.6375C248.81 23.0504 241.92 21.4032 241.92 21.4032L242.189 22.3886Z" fill="#63391D"/>
<path d="M242.684 21.0429C242.684 21.0429 251.028 22.8902 254.896 23.3116C258.765 23.7331 264.296 23.3229 264.296 23.3229C264.296 23.3229 257.735 23.4262 254.651 22.778C251.567 22.1298 242.162 20.3217 242.162 20.3217L242.684 21.0429Z" fill="#63391D"/>
<path d="M316.531 15.2273C316.531 15.2273 305.839 13.7184 293.756 14.5032C281.672 15.2885 263.751 16.9149 254.202 15.8328C244.653 14.7507 243.895 11.6735 248.093 11.2508C252.291 10.8282 261.92 10.196 265.119 11.7471C268.318 13.2982 263.094 13.6917 261.147 13.7422C261.147 13.7422 266.586 14.0942 268.205 12.5407C269.825 10.9873 259.96 9.22252 252.485 9.93543C245.009 10.6483 243.075 11.7465 244.326 13.2501C245.576 14.7543 247.652 16.7309 264.779 17.0628C281.905 17.3946 307.042 13.8734 317.276 17.2794L316.531 15.2273Z" fill="#63391D"/>
<path d="M316.361 17.9378C316.361 17.9378 307.52 16.0626 297.789 16.8088C288.059 17.5549 280.8 19.1469 282.145 20.0908C283.49 21.0346 316.932 22.407 316.932 22.407L316.919 21.4531C316.919 21.4531 298.525 20.7811 291.893 20.6891C285.26 20.5977 278.778 19.404 290.833 18.0197C302.887 16.6354 314.725 18.3094 316.89 19.2265C319.056 20.1436 316.361 17.9378 316.361 17.9378Z" fill="#63391D"/>
<path d="M316.89 19.2265C316.89 19.2265 305.489 17.6374 299.448 18.2578C293.407 18.8781 290.538 18.9724 291.264 19.642C291.99 20.311 304.027 19.7156 304.027 19.7156C304.027 19.7156 296.291 19.9293 296.182 19.439C296.073 18.9487 307.44 17.9028 316.903 20.181L316.89 19.2265Z" fill="#63391D"/>
</g>
</g>
<g opacity="0.64">
<mask id="mask5_1_2324" style="mask-type:luminance" maskUnits="userSpaceOnUse" x="234" y="33" width="91" height="46">
<path d="M279.94 33.8412H234.941C234.941 33.8412 235.561 62.7744 244.735 75.6667C244.735 75.6667 263.081 78.6418 279.94 78.6418C296.8 78.6418 315.146 75.6667 315.146 75.6667C324.319 62.7744 324.939 33.8412 324.939 33.8412H279.94Z" fill="white"/>
</mask>
<g mask="url(#mask5_1_2324)">
<path d="M323.053 76.2528C323.053 76.2528 311.018 75.937 297.982 75.7542C284.947 75.5714 273.141 75.7257 270.371 76.7758C267.601 77.8259 282.243 81.3008 296.797 82.5111C296.797 82.5111 282.01 80.5576 280.872 78.8878C279.734 77.218 286.287 75.8557 302.345 77.0678C318.403 78.28 323.101 79.7509 323.101 79.7509L323.053 76.2528Z" fill="#63391D"/>
<path d="M321.106 80.3342C321.106 80.3342 302.495 77.1585 296.038 77.4078C289.581 77.6571 291.18 80.4494 299.359 81.1855C307.538 81.9215 307.901 80.6595 306.591 80.2868C305.282 79.914 301.715 79.7406 301.715 79.7406C301.715 79.7406 305.508 80.1271 305.515 80.6417C305.522 81.1564 298.318 81.0804 295.706 80.1829C293.094 79.2854 293.222 77.8115 298.649 78.2448C304.076 78.6781 315.381 79.8795 320.529 81.5636C325.677 83.2482 321.106 80.3342 321.106 80.3342Z" fill="#63391D"/>
<path d="M240.834 75.5041C241.717 75.3831 243.747 76.7127 252.79 78.0614C261.832 79.41 271.2 83.0256 271.2 83.0256L266.202 82.6712C266.202 82.6712 264.293 80.1455 252.58 78.9607C240.867 77.7758 237.272 75.703 237.272 75.703L240.834 75.5041Z" fill="#63391D"/>
<path d="M240.724 78.2193C240.724 78.2193 246.828 79.2308 251.222 80.0743C255.615 80.9178 256.725 81.9999 256.725 81.9999L255.446 81.9091C255.446 81.9091 255.317 80.8353 251.002 80.3153C246.687 79.7953 240.439 79.0759 240.439 79.0759L240.724 78.2193Z" fill="#63391D"/>
<path d="M240.344 72.3825C240.344 72.3825 246.595 73.3062 251.953 74.0292C257.31 74.7522 273.999 73.3887 276.229 73.5104C276.229 73.5104 272.491 73.0907 268.82 73.4362C265.15 73.7816 258.249 74.2185 252.894 73.6315C247.539 73.0444 240.052 71.3972 240.052 71.3972L240.344 72.3825Z" fill="#63391D"/>
<path d="M240.882 71.0368C240.882 71.0368 249.947 72.884 254.15 73.3055C258.353 73.727 264.362 73.3168 264.362 73.3168C264.362 73.3168 257.234 73.4201 253.883 72.7719C250.533 72.1236 240.314 70.3156 240.314 70.3156L240.882 71.0368Z" fill="#63391D"/>
<path d="M321.114 65.2214C321.114 65.2214 309.498 63.7125 296.37 64.4978C283.242 65.2832 263.77 66.9096 253.395 65.8275C243.021 64.7454 242.197 61.6682 246.758 61.2455C251.32 60.8229 261.782 60.1907 265.257 61.7418C268.732 63.2928 263.056 63.6864 260.941 63.7368C260.941 63.7368 266.849 64.0882 268.61 62.5348C270.37 60.9814 259.651 59.2166 251.53 59.9295C243.408 60.6424 241.307 61.7406 242.666 63.2447C244.024 64.7489 246.279 66.7256 264.887 67.0568C283.494 67.3886 310.804 63.8674 321.923 67.2735L321.114 65.2214Z" fill="#63391D"/>
<path d="M320.93 67.932C320.93 67.932 311.324 66.0569 300.752 66.803C290.18 67.5486 282.294 69.1412 283.755 70.085C285.217 71.0288 321.55 72.4012 321.55 72.4012L321.537 71.4473C321.537 71.4473 301.552 70.7754 294.346 70.684C287.14 70.5925 280.097 69.3988 293.194 68.0145C306.291 66.6303 319.153 68.3042 321.505 69.2213C323.857 70.1372 320.93 67.932 320.93 67.932Z" fill="#63391D"/>
<path d="M321.505 69.221C321.505 69.221 309.118 67.632 302.555 68.2523C295.991 68.8726 292.874 68.967 293.662 69.6365C294.452 70.3055 307.529 69.7101 307.529 69.7101C307.529 69.7101 299.125 69.9238 299.007 69.4335C298.888 68.9432 311.238 67.8973 321.519 70.1749L321.505 69.221Z" fill="#63391D"/>
<path d="M322.669 49.1448C322.669 49.1448 290.887 49.2938 280.505 50.367C270.123 51.4402 261.919 51.7353 253.821 50.1409C245.724 48.5465 243.453 45.4764 243.453 45.4764L245.834 45.8011C245.834 45.8011 248.746 49.3959 261.639 50.1516C274.532 50.9072 297.689 47.2477 324.292 48.4485L322.669 49.1448Z" fill="#63391D"/>
<path d="M320.449 49.6821C320.449 49.6821 299.952 49.6697 287.498 51.2C275.044 52.7302 279.104 56.9258 296.267 57.1983C313.43 57.4707 316.799 54.111 315.596 53.0567C314.392 52.0025 302.803 51.6582 297.179 53.0716C297.179 53.0716 310.041 51.8885 312.185 53.4485C314.329 55.0079 307.911 55.7149 300.412 55.8597C292.913 56.0045 285.994 55.6163 285.601 53.5803C285.208 51.5442 311.532 49.3283 320.467 50.9144L320.449 49.6821Z" fill="#63391D"/>
<path d="M238.598 51.3578C238.598 51.3578 247.613 50.7998 254.647 52.006C261.682 53.2122 282.008 58.2091 282.008 58.2091L278.014 58.056C278.014 58.056 264.704 54.2225 258.68 53.6105C252.656 52.9985 238.615 52.6299 238.615 52.6299L238.598 51.3578Z" fill="#63391D"/>
<path d="M238.068 53.2774C238.068 53.2774 255.45 53.538 259.256 54.9223C263.063 56.3065 250.028 56.1463 250.028 56.1463C250.028 56.1463 256.932 55.9361 256.926 55.5271C256.92 55.1182 240.196 54.1043 238.637 54.0384C237.076 53.9725 237.402 53.3659 237.402 53.3659" fill="#63391D"/>
<path d="M321.577 42.8563C321.577 42.8563 312.603 41.0743 303.811 38.9926C295.018 36.9109 270.64 35.4708 265.032 37.9746C259.423 40.4784 274.32 43.1151 284.857 42.7495C284.857 42.7495 273.703 41.9831 272.791 40.4653C271.878 38.9475 277.189 36.4229 291.478 38.5937C305.767 40.7651 321.712 44.5178 323.051 44.6531C324.389 44.7897 321.577 42.8563 321.577 42.8563Z" fill="#63391D"/>
<path d="M237.142 37.1825C237.142 37.1825 252.122 38.8374 258.096 41.2006C264.071 43.5643 266.458 44.3258 266.458 44.3258L262.421 44.3288C262.421 44.3288 258.396 41.3424 250.511 40.4461C242.626 39.5498 235.641 39.2019 235.641 39.2019L233.378 37.6811L237.142 37.1825Z" fill="#63391D"/>
</g>
</g>
<path d="M316.757 15.0795C313.875 11.6088 310.003 13.5296 310.003 13.5296C315.77 18.2084 317.252 28.065 317.252 28.065H279.939H242.626C242.626 28.065 244.109 18.209 249.875 13.5296C249.875 13.5296 246.004 11.6088 243.122 15.0795C243.122 15.0795 238.164 21.2713 234.94 33.8413H279.939H324.938C321.715 21.2719 316.757 15.0795 316.757 15.0795Z" fill="#EFB933"/>
<path d="M314.525 72.1954C314.525 72.1954 302.253 75.1705 279.939 75.0464C257.626 74.9224 244.362 72.567 244.734 72.1954C245.106 71.8238 245.618 75.8039 245.618 75.8039C245.618 75.8039 275.229 83.7509 313.657 75.8039L314.525 72.1954Z" fill="#D3950B"/>
<path d="M324.938 33.8412H279.939H234.941C234.004 63.3133 244.052 75.7284 244.052 75.7284C246.16 77.8357 249.085 76.2995 249.085 76.2995C240.207 60.0035 240.644 40.2877 240.644 40.2877H279.94H319.235C319.235 40.2877 319.673 60.004 310.794 76.3001C310.794 76.3001 313.72 77.8363 315.827 75.729C315.827 75.729 325.875 63.3133 324.938 33.8412Z" fill="#EFB933"/>
<path d="M284.147 34.249L283.556 31.7506L279.939 31.0276L276.323 31.7506L275.731 34.249L270.208 35.4457C270.208 35.4457 272.641 45.2953 273.759 46.8072C274.877 48.3197 279.939 50.6204 279.939 50.6204C279.939 50.6204 285.002 48.3191 286.12 46.8072C287.238 45.2947 289.67 35.4457 289.67 35.4457L284.147 34.249Z" fill="#FFDD50"/>
<path d="M281.343 38.5698C281.343 37.6219 280.574 36.8531 279.626 36.8531C278.678 36.8531 277.909 37.6219 277.909 38.5698C277.909 39.1711 278.22 39.6988 278.688 40.0057L277.909 44.7961H279.626H281.343L280.564 40.0057C281.032 39.6988 281.343 39.1711 281.343 38.5698Z" fill="#724F00"/>
<path d="M286.351 47.0155C285.576 48.1315 280.532 50.8893 279.939 50.9511C279.347 50.8893 274.302 48.1309 273.528 47.0155C272.753 45.8996 269.917 35.6416 269.917 35.6416C269.917 35.6416 271.954 46.6819 273.032 48.1309C274.306 49.844 279.939 53.1515 279.939 53.1515C279.939 53.1515 285.572 49.844 286.846 48.1309C287.924 46.6819 289.86 35.6416 289.86 35.6416C289.86 35.6416 287.125 45.8996 286.351 47.0155Z" fill="black"/>
<path d="M270.503 35.6418L275.988 34.4332L276.593 31.8997L279.939 31.1559V32.1093L276.964 32.6904L276.383 34.9217L270.666 36.3161L270.503 35.6418Z" fill="white"/>
<path opacity="0.71" d="M289.376 35.6418L283.891 34.4332L283.287 31.8997L279.939 31.1559V32.1093L282.915 32.6904L283.496 34.9217L289.214 36.3161L289.376 35.6418Z" fill="white"/>
<path d="M279.939 45.2182V49.9907C279.939 49.9907 284.697 47.9932 285.738 46.7057C286.779 45.4182 288.665 37.8795 288.839 37.0734C288.839 37.0734 286.947 44.9083 284.87 46.1792C282.795 47.4495 280.804 47.0773 279.939 45.2182Z" fill="black"/>
<path d="M284.073 47.6122C284.073 47.6122 280.366 49.2624 280.214 49.2742V46.6945C280.214 46.6945 281.783 48.391 284.073 47.6122Z" fill="black"/>
<path opacity="0.51" d="M248.725 76.2508C248.725 76.2508 245.699 70.5683 244.552 66.3847C244.552 66.3847 240.926 66.8186 238.942 64.2465C238.942 64.2465 241.599 72.9801 244.335 75.6204C244.335 75.6204 246.019 77.2232 248.725 76.2508Z" fill="black"/>
<path opacity="0.74" d="M244.609 67.2763C244.609 67.2763 241.031 67.5191 239.515 65.2753C239.515 65.2753 241.273 70.6723 243.153 73.0075C243.153 73.0075 241.607 70.1873 241.91 69.1414C242.214 68.0954 245.295 68.993 245.791 70.4603C245.791 70.4603 244.7 67.8527 244.609 67.2763Z" fill="black"/>
<path d="M243.033 61.9845L244.304 65.92C244.304 65.92 241.05 66.2299 238.943 63.7504C238.943 63.7504 237.455 58.823 236.866 55.6929C236.866 55.6929 238.292 61.5191 240.182 63.1307C242.073 64.7423 243.219 63.5029 243.033 61.9845Z" fill="white"/>
<path opacity="0.51" d="M311.265 76.1096C311.265 76.1096 314.292 70.4271 315.438 66.2434C315.438 66.2434 319.064 66.6773 321.048 64.1053C321.048 64.1053 318.391 72.8389 315.655 75.4792C315.655 75.4792 313.971 77.0813 311.265 76.1096Z" fill="black"/>
<path opacity="0.74" d="M315.381 67.1352C315.381 67.1352 318.959 67.378 320.475 65.1342C320.475 65.1342 318.716 70.5311 316.836 72.8658C316.836 72.8658 318.383 70.0456 318.079 68.9997C317.776 67.9537 314.695 68.8513 314.198 70.3186C314.198 70.3186 315.29 67.711 315.381 67.1352Z" fill="black"/>
<path d="M316.957 61.8427L315.687 65.7782C315.687 65.7782 318.941 66.0881 321.048 63.6086C321.048 63.6086 322.536 58.6812 323.125 55.5511C323.125 55.5511 321.699 61.3773 319.809 62.9889C317.918 64.6005 316.771 63.3611 316.957 61.8427Z" fill="white"/>
<path opacity="0.51" d="M243.834 58.7919C243.834 58.7919 245.688 67.9137 247.879 72.171C247.879 72.171 261.742 74.5044 279.76 74.5044C297.779 74.5044 311.641 72.171 311.641 72.171C313.833 67.9131 315.687 58.7919 315.687 58.7919C306.82 75.6643 252.527 75.6382 243.834 58.7919Z" fill="black"/>
<path opacity="0.49" d="M243.565 25.6789C243.565 25.6789 245.163 19.9406 249.329 14.2581C249.329 14.2581 261.607 10.5267 279.626 10.5267C297.645 10.5267 309.943 14.2581 309.943 14.2581C314.196 18.8917 316.265 25.6005 316.265 25.6005C307.397 8.72873 252.258 8.8332 243.565 25.6789Z" fill="white"/>
<path d="M244.387 20.7507C244.387 20.7507 246.451 15.5371 249.328 13.6578C249.328 13.6578 245.967 12.7543 244.086 14.5678C242.206 16.3812 239.956 20.4426 239.511 21.9521C239.511 21.9521 242.187 19.0773 244.387 20.7507Z" fill="white"/>
<path d="M315.364 20.6397C315.364 20.6397 313.3 15.4262 310.423 13.5468C310.423 13.5468 313.784 12.6434 315.665 14.4568C317.545 16.2703 319.795 20.3316 320.24 21.8412C320.24 21.8412 317.564 18.9664 315.364 20.6397Z" fill="white"/>
<path d="M274.426 34.1542H235.192V35.0844H269.406L274.426 34.1542Z" fill="black"/>
<path d="M285.377 34.0723H324.611V35.0018H290.397L285.377 34.0723Z" fill="black"/>
<path d="M236.277 82.4687L241.821 72.599L243.033 75.0618L237.207 82.8409L236.277 82.4687Z" fill="white"/>
<path d="M323.853 82.3066L318.309 72.4369L317.097 74.8997L322.923 82.6788L323.853 82.3066Z" fill="white"/>
</svg>
