<svg width="638" height="219" viewBox="0 0 638 219" fill="none" xmlns="http://www.w3.org/2000/svg">
<path d="M14.899 154.506L1.71997 178.549C1.71997 178.549 6.17285 181.487 11.0703 179.618L24.8724 164.747L14.899 154.506Z" fill="#D3950B"/>
<path d="M158.1 154.506L171.279 178.549C171.279 178.549 166.826 181.487 161.928 179.618L148.125 164.747L158.1 154.506Z" fill="#D3950B"/>
<path d="M156.426 49.5312C156.426 49.5312 123.095 39.187 86.3169 39.187C49.5385 39.187 16.2079 49.5312 16.2079 49.5312C7.01332 62.1735 0.116821 85.1599 0.116821 85.1599H86.3169H172.517C172.517 85.1599 165.62 62.1735 156.426 49.5312Z" fill="#8C6239"/>
<path d="M86.3168 85.16H0.11792C0.11792 85.16 1.30505 140.585 18.8778 165.281C18.8778 165.281 54.0221 170.98 86.318 170.98C118.614 170.98 153.758 165.281 153.758 165.281C171.331 140.585 172.518 85.16 172.518 85.16H86.3168Z" fill="#8C6239"/>
<g opacity="0.64">
<mask id="mask0_1_337" style="mask-type:luminance" maskUnits="userSpaceOnUse" x="0" y="39" width="173" height="47">
<path d="M156.426 49.5312C156.426 49.5312 123.095 39.187 86.3169 39.187C49.5385 39.187 16.2079 49.5312 16.2079 49.5312C7.01332 62.1735 0.116821 85.1599 0.116821 85.1599H86.3169H172.517C172.517 85.1599 165.62 62.1735 156.426 49.5312Z" fill="white"/>
</mask>
<g mask="url(#mask0_1_337)">
<path d="M159.831 70.6334C159.831 70.6334 138.611 70.0285 115.627 69.6783C92.6431 69.328 71.8286 69.6237 66.9447 71.6352C62.0609 73.6467 87.8764 80.3033 113.537 82.6219C113.537 82.6219 87.4648 78.8797 85.459 75.681C83.4531 72.4824 95.0072 69.8727 123.32 72.1947C151.632 74.5166 159.918 77.3344 159.918 77.3344L159.831 70.6334Z" fill="#63391D"/>
<path d="M156.398 78.4532C156.398 78.4532 123.585 72.3686 112.199 72.8473C100.814 73.3249 103.633 78.6738 118.055 80.0838C132.477 81.4938 133.116 79.0763 130.808 78.3622C128.498 77.6481 122.21 77.3161 122.21 77.3161C122.21 77.3161 128.897 78.0563 128.91 79.0422C128.922 80.0281 116.22 79.8825 111.615 78.1632C107.009 76.4439 107.235 73.6205 116.803 74.4506C126.372 75.2807 146.304 77.5822 155.382 80.8081C164.458 84.0341 156.398 78.4532 156.398 78.4532Z" fill="#63391D"/>
<path d="M14.8654 69.1996C16.422 68.9676 20.0016 71.5147 35.9449 74.0982C51.887 76.6829 68.4057 83.6078 68.4057 83.6078L59.5931 82.9289C59.5931 82.9289 56.2273 78.0906 35.5753 75.8209C14.9234 73.5513 8.5863 69.5805 8.5863 69.5805L14.8654 69.1996Z" fill="#63391D"/>
<path d="M14.672 74.4006C14.672 74.4006 25.4346 76.3371 33.1806 77.9541C40.9265 79.5699 42.8846 81.6428 42.8846 81.6428L40.6286 81.4688C40.6286 81.4688 40.4011 79.4118 32.7939 78.4157C25.1868 77.4196 14.1705 76.0415 14.1705 76.0415L14.672 74.4006Z" fill="#63391D"/>
<path d="M14.0028 63.2207C14.0028 63.2207 25.0247 64.99 34.4695 66.375C43.9153 67.76 73.3412 65.1481 77.2721 65.3812C77.2721 65.3812 70.6815 64.5772 64.2091 65.239C57.7368 65.8997 45.571 66.7377 36.1285 65.6131C26.686 64.4885 13.4866 61.3331 13.4866 61.3331L14.0028 63.2207Z" fill="#63391D"/>
<path d="M14.9504 60.6429C14.9504 60.6429 30.9334 64.1815 38.3439 64.9889C45.7544 65.7962 56.3498 65.0105 56.3498 65.0105C56.3498 65.0105 43.7826 65.2083 37.8743 63.9666C31.9659 62.7249 13.9497 59.2613 13.9497 59.2613L14.9504 60.6429Z" fill="#63391D"/>
<path d="M156.412 49.5027C156.412 49.5027 135.931 46.6122 112.784 48.1154C89.6374 49.6198 55.3072 52.7354 37.0147 50.6625C18.7222 48.5896 17.2701 42.6949 25.3128 41.8852C33.3544 41.0756 51.8004 39.8646 57.9282 42.8359C64.056 45.8071 54.0484 46.561 50.3188 46.6577C50.3188 46.6577 60.7369 47.3319 63.84 44.3562C66.9431 41.3804 48.0446 37.9998 33.7251 39.3654C19.4056 40.7311 15.7009 42.8347 18.0956 45.715C20.4904 48.5964 24.468 52.3829 57.2755 53.0186C90.0831 53.6542 138.235 46.9089 157.839 53.4336L156.412 49.5027Z" fill="#63391D"/>
<path d="M156.087 54.6947C156.087 54.6947 139.15 51.1026 120.51 52.5319C101.87 53.9612 87.9648 57.0109 90.5415 58.8189C93.1182 60.6269 157.18 63.2559 157.18 63.2559L157.156 61.4286C157.156 61.4286 121.92 60.1414 109.215 59.9651C96.5101 59.79 84.0918 57.5033 107.184 54.8516C130.276 52.1999 152.953 55.4065 157.1 57.1633C161.249 58.9201 156.087 54.6947 156.087 54.6947Z" fill="#63391D"/>
<path d="M157.101 57.1634C157.101 57.1634 135.261 54.1194 123.689 55.3076C112.117 56.4959 106.62 56.6767 108.011 57.9593C109.402 59.2409 132.459 58.1003 132.459 58.1003C132.459 58.1003 117.642 58.5097 117.433 57.5705C117.223 56.6312 138.999 54.6276 157.125 58.9918L157.101 57.1634Z" fill="#63391D"/>
</g>
</g>
<g opacity="0.64">
<mask id="mask1_1_337" style="mask-type:luminance" maskUnits="userSpaceOnUse" x="0" y="85" width="173" height="86">
<path d="M86.3168 85.16H0.11792C0.11792 85.16 1.30505 140.585 18.8778 165.281C18.8778 165.281 54.0221 170.98 86.318 170.98C118.614 170.98 153.758 165.281 153.758 165.281C171.331 140.585 172.518 85.16 172.518 85.16H86.3168Z" fill="white"/>
</mask>
<g mask="url(#mask1_1_337)">
<path d="M168.904 166.403C168.904 166.403 145.85 165.798 120.879 165.448C95.9079 165.098 73.2933 165.394 67.9864 167.405C62.6807 169.417 90.7284 176.073 118.608 178.392C118.608 178.392 90.2815 174.65 88.1017 171.451C85.9219 168.252 98.4755 165.643 129.235 167.965C159.996 170.286 168.997 173.104 168.997 173.104L168.904 166.403Z" fill="#63391D"/>
<path d="M165.174 174.222C165.174 174.222 129.524 168.139 117.155 168.616C104.785 169.094 107.849 174.443 123.517 175.853C139.185 177.263 139.879 174.845 137.371 174.131C134.863 173.417 128.03 173.085 128.03 173.085C128.03 173.085 135.296 173.825 135.309 174.811C135.323 175.797 121.522 175.651 116.519 173.932C111.516 172.213 111.76 169.389 122.157 170.219C132.553 171.05 154.209 173.351 164.07 176.577C173.931 179.804 165.174 174.222 165.174 174.222Z" fill="#63391D"/>
<path d="M11.4051 164.969C13.0971 164.737 16.986 167.285 34.3074 169.868C51.6288 172.452 69.5745 179.378 69.5745 179.378L60.0002 178.699C60.0002 178.699 56.3433 173.86 33.9049 171.591C11.4677 169.321 4.58252 165.35 4.58252 165.35L11.4051 164.969Z" fill="#63391D"/>
<path d="M11.195 170.171C11.195 170.171 22.8878 172.108 31.3035 173.724C39.7191 175.34 41.8455 177.413 41.8455 177.413L39.3951 177.239C39.3951 177.239 39.1483 175.182 30.8827 174.186C22.6172 173.19 10.6481 171.811 10.6481 171.811L11.195 170.171Z" fill="#63391D"/>
<path d="M10.4673 158.989C10.4673 158.989 22.4421 160.759 32.7044 162.144C42.9667 163.529 74.9374 160.917 79.2083 161.15C79.2083 161.15 72.048 160.346 65.0162 161.008C57.9844 161.67 44.7656 162.507 34.5078 161.382C24.2489 160.257 9.90784 157.102 9.90784 157.102L10.4673 158.989Z" fill="#63391D"/>
<path d="M11.4972 156.412C11.4972 156.412 28.8619 159.95 36.9137 160.758C44.9655 161.565 56.4763 160.779 56.4763 160.779C56.4763 160.779 42.822 160.977 36.4031 159.735C29.9842 158.494 10.4102 155.03 10.4102 155.03L11.4972 156.412Z" fill="#63391D"/>
<path d="M165.19 145.272C165.19 145.272 142.938 142.381 117.789 143.885C92.6412 145.39 55.342 148.505 35.4678 146.432C15.5936 144.36 14.0164 138.465 22.7539 137.655C31.4914 136.846 51.5327 135.635 58.1893 138.606C64.8459 141.577 53.9741 142.331 49.9215 142.428C49.9215 142.428 61.2402 143.101 64.6128 140.125C67.9843 137.149 47.4517 133.769 31.8939 135.134C16.3361 136.5 12.3119 138.604 14.9136 141.485C17.5153 144.366 21.8363 148.153 57.4809 148.787C93.1255 149.423 145.44 142.678 166.74 149.202L165.19 145.272Z" fill="#63391D"/>
<path d="M164.838 150.465C164.838 150.465 146.436 146.873 126.184 148.302C105.932 149.73 90.8261 152.781 93.6257 154.589C96.4252 156.397 166.026 159.026 166.026 159.026L166 157.199C166 157.199 127.717 155.911 113.913 155.736C100.109 155.561 86.6177 153.274 111.707 150.623C136.796 147.971 161.433 151.178 165.939 152.934C170.445 154.689 164.838 150.465 164.838 150.465Z" fill="#63391D"/>
<path d="M165.939 152.933C165.939 152.933 142.21 149.889 129.637 151.077C117.064 152.266 111.092 152.446 112.604 153.729C114.116 155.011 139.166 153.87 139.166 153.87C139.166 153.87 123.067 154.279 122.841 153.34C122.615 152.401 146.272 150.397 165.965 154.76L165.939 152.933Z" fill="#63391D"/>
<path d="M168.168 114.475C168.168 114.475 107.286 114.761 87.3986 116.817C67.5119 118.872 51.7949 119.438 36.2837 116.383C20.7725 113.329 16.422 107.448 16.422 107.448L20.9829 108.07C20.9829 108.07 26.5615 114.956 51.2593 116.404C75.9571 117.851 120.318 110.841 171.278 113.141L168.168 114.475Z" fill="#63391D"/>
<path d="M163.916 115.505C163.916 115.505 124.653 115.481 100.795 118.412C76.9378 121.344 84.7144 129.381 117.592 129.902C150.471 130.424 156.924 123.988 154.619 121.969C152.314 119.949 130.113 119.29 119.339 121.997C119.339 121.997 143.978 119.731 148.085 122.719C152.192 125.707 139.898 127.061 125.533 127.338C111.168 127.616 97.9139 126.872 97.1611 122.972C96.4083 119.072 146.835 114.827 163.95 117.865L163.916 115.505Z" fill="#63391D"/>
<path d="M7.12158 118.715C7.12158 118.715 24.3907 117.646 37.8665 119.956C51.3422 122.267 90.2788 131.839 90.2788 131.839L82.6284 131.546C82.6284 131.546 57.1312 124.202 45.5919 123.03C34.0526 121.858 7.1557 121.151 7.1557 121.151L7.12158 118.715Z" fill="#63391D"/>
<path d="M6.10776 122.392C6.10776 122.392 39.4031 122.891 46.6954 125.543C53.9876 128.195 29.018 127.887 29.018 127.887C29.018 127.887 42.2425 127.485 42.2311 126.702C42.2197 125.918 10.1843 123.976 7.19596 123.85C4.20653 123.723 4.83079 122.561 4.83079 122.561" fill="#63391D"/>
<path d="M166.077 102.429C166.077 102.429 148.886 99.0155 132.044 95.0277C115.201 91.0399 68.5015 88.2813 57.7582 93.0776C47.0149 97.8739 75.5515 102.925 95.735 102.224C95.735 102.224 74.3689 100.756 72.6212 97.8488C70.8735 94.9413 81.0471 90.1052 108.419 94.2636C135.792 98.4231 166.336 105.612 168.9 105.871C171.464 106.133 166.077 102.429 166.077 102.429Z" fill="#63391D"/>
<path d="M4.33213 91.5607C4.33213 91.5607 33.028 94.7309 44.4729 99.2577C55.9178 103.786 60.49 105.245 60.49 105.245L52.7566 105.25C52.7566 105.25 45.046 99.5295 29.9419 97.8125C14.8378 96.0954 1.45641 95.4291 1.45641 95.4291L-2.87708 92.5158L4.33213 91.5607Z" fill="#63391D"/>
</g>
</g>
<path d="M156.844 49.2197C151.324 42.571 143.908 46.2507 143.908 46.2507C154.954 55.2133 157.794 74.0948 157.794 74.0948H86.3169H14.84C14.84 74.0948 17.6793 55.2144 28.7262 46.2507C28.7262 46.2507 21.3101 42.571 15.7895 49.2197C15.7895 49.2197 6.29127 61.0807 0.116821 85.1599H86.3169H172.517C166.342 61.0819 156.844 49.2197 156.844 49.2197Z" fill="#EFB933"/>
<path d="M152.57 158.631C152.57 158.631 129.062 164.33 86.3169 164.093C43.5734 163.855 18.1649 159.343 18.8768 158.631C19.5897 157.92 20.571 165.544 20.571 165.544C20.571 165.544 77.2929 180.767 150.908 165.544L152.57 158.631Z" fill="#D3950B"/>
<path d="M172.517 85.16H86.3168H0.117862C-1.67762 141.617 17.5712 165.399 17.5712 165.399C21.6079 169.436 27.2127 166.493 27.2127 166.493C10.2051 135.277 11.0431 97.5089 11.0431 97.5089H86.3179H161.593C161.593 97.5089 162.431 135.278 145.422 166.494C145.422 166.494 151.027 169.437 155.064 165.401C155.064 165.401 174.312 141.617 172.517 85.16Z" fill="#EFB933"/>
<path d="M94.3775 85.9411L93.2438 81.1551L86.3166 79.7701L79.3894 81.1551L78.2557 85.9411L67.6761 88.2335C67.6761 88.2335 72.336 107.101 74.4771 109.998C76.6183 112.895 86.3166 117.302 86.3166 117.302C86.3166 117.302 96.0149 112.894 98.1561 109.998C100.297 107.1 104.957 88.2335 104.957 88.2335L94.3775 85.9411Z" fill="#FFDD50"/>
<path d="M89.0047 94.2181C89.0047 92.4022 87.5322 90.9296 85.7162 90.9296C83.9003 90.9296 82.4277 92.4022 82.4277 94.2181C82.4277 95.37 83.0224 96.3809 83.9196 96.9687L82.4277 106.145H85.7162H89.0047L87.5128 96.9687C88.41 96.3809 89.0047 95.37 89.0047 94.2181Z" fill="#724F00"/>
<path d="M98.5983 110.397C97.1144 112.534 87.4514 117.817 86.3165 117.936C85.1817 117.817 75.5186 112.533 74.0347 110.397C72.5508 108.259 67.1189 88.6087 67.1189 88.6087C67.1189 88.6087 71.0203 109.758 73.0853 112.533C75.5255 115.815 86.3165 122.151 86.3165 122.151C86.3165 122.151 97.1076 115.815 99.5478 112.533C101.613 109.758 105.321 88.6087 105.321 88.6087C105.321 88.6087 100.082 108.259 98.5983 110.397Z" fill="black"/>
<path d="M68.2402 88.6088L78.7482 86.2936L79.9057 81.4405L86.3167 80.0157V81.8419L80.6176 82.9551L79.5043 87.2295L68.5518 89.9005L68.2402 88.6088Z" fill="white"/>
<path opacity="0.71" d="M104.395 88.6088L93.8866 86.2936L92.729 81.4405L86.3169 80.0157V81.8419L92.016 82.9551L93.1293 87.2295L104.083 89.9005L104.395 88.6088Z" fill="white"/>
<path d="M86.3169 106.954V116.096C86.3169 116.096 95.4307 112.27 97.4252 109.803C99.4197 107.337 103.031 92.8957 103.365 91.3515C103.365 91.3515 99.7404 106.36 95.7628 108.795C91.7863 111.228 87.9725 110.515 86.3169 106.954Z" fill="black"/>
<path d="M94.2343 111.54C94.2343 111.54 87.1331 114.701 86.8431 114.723V109.782C86.8431 109.782 89.8485 113.031 94.2343 111.54Z" fill="black"/>
<path opacity="0.51" d="M26.5236 166.4C26.5236 166.4 20.7255 155.514 18.5287 147.5C18.5287 147.5 11.5833 148.331 7.78308 143.404C7.78308 143.404 12.8716 160.134 18.1125 165.192C18.1125 165.192 21.3396 168.262 26.5236 166.4Z" fill="black"/>
<path opacity="0.74" d="M18.6379 149.208C18.6379 149.208 11.7834 149.673 8.87927 145.375C8.87927 145.375 12.2485 155.714 15.8497 160.187C15.8497 160.187 12.8875 154.785 13.4686 152.781C14.0497 150.777 19.9512 152.497 20.903 155.308C20.903 155.308 18.813 150.312 18.6379 149.208Z" fill="black"/>
<path d="M15.6187 139.071L18.0533 146.61C18.0533 146.61 11.8197 147.203 7.78299 142.454C7.78299 142.454 4.93342 133.015 3.80542 127.019C3.80542 127.019 6.53673 138.179 10.1573 141.267C13.7789 144.354 15.9747 141.98 15.6187 139.071Z" fill="white"/>
<path opacity="0.51" d="M146.323 166.129C146.323 166.129 152.122 155.244 154.318 147.23C154.318 147.23 161.264 148.061 165.064 143.134C165.064 143.134 159.975 159.864 154.734 164.922C154.734 164.922 151.507 167.991 146.323 166.129Z" fill="black"/>
<path opacity="0.74" d="M154.209 148.938C154.209 148.938 161.064 149.403 163.967 145.104C163.967 145.104 160.598 155.443 156.996 159.915C156.996 159.915 159.959 154.513 159.377 152.509C158.796 150.506 152.895 152.225 151.943 155.036C151.943 155.036 154.034 150.041 154.209 148.938Z" fill="black"/>
<path d="M157.228 138.799L154.795 146.338C154.795 146.338 161.028 146.932 165.065 142.182C165.065 142.182 167.915 132.743 169.043 126.747C169.043 126.747 166.311 137.908 162.691 140.995C159.068 144.082 156.871 141.708 157.228 138.799Z" fill="white"/>
<path opacity="0.51" d="M17.1525 132.956C17.1525 132.956 20.7036 150.429 24.9018 158.585C24.9018 158.585 51.4565 163.055 85.9731 163.055C120.49 163.055 147.044 158.585 147.044 158.585C151.243 150.428 154.794 132.956 154.794 132.956C137.809 165.277 33.8041 165.227 17.1525 132.956Z" fill="black"/>
<path opacity="0.49" d="M16.6373 69.5237C16.6373 69.5237 19.6995 58.5314 27.6797 47.646C27.6797 47.646 51.1994 40.4981 85.7161 40.4981C120.233 40.4981 143.791 47.646 143.791 47.646C151.94 56.5221 155.901 69.3736 155.901 69.3736C138.915 37.0539 33.289 37.254 16.6373 69.5237Z" fill="white"/>
<path d="M18.2132 60.0834C18.2132 60.0834 22.1669 50.0963 27.6784 46.4962C27.6784 46.4962 21.239 44.7655 17.6367 48.2394C14.0344 51.7132 9.72477 59.4932 8.87195 62.3849C8.87195 62.3849 13.998 56.8779 18.2132 60.0834Z" fill="white"/>
<path d="M154.177 59.8708C154.177 59.8708 150.223 49.8837 144.712 46.2836C144.712 46.2836 151.151 44.553 154.753 48.0268C158.356 51.5006 162.665 59.2807 163.518 62.1723C163.518 62.1723 158.392 56.6653 154.177 59.8708Z" fill="white"/>
<path d="M75.7561 85.7592H0.598389V87.541H66.1396L75.7561 85.7592Z" fill="black"/>
<path d="M96.7334 85.6023H171.89V87.383H106.35L96.7334 85.6023Z" fill="black"/>
<path d="M2.67749 178.311L13.2969 159.405L15.6188 164.122L4.45819 179.024L2.67749 178.311Z" fill="white"/>
<path d="M170.438 178.001L159.818 159.094L157.495 163.812L168.657 178.714L170.438 178.001Z" fill="white"/>
<path d="M427.82 39.3781C423.866 77.918 406.318 106.885 406.318 106.885L318.718 121.225L233.849 107.327L231.117 106.885C231.117 106.885 213.57 77.9167 209.615 39.3781C209.615 39.3781 211.346 38.1727 215.418 36.4079C226.874 31.4022 256.859 21.8471 318.716 21.8471C402.5 21.8471 427.82 39.3781 427.82 39.3781Z" fill="#562500"/>
<path d="M235.699 107.072L233.849 107.327L231.117 106.885C231.117 106.885 213.57 77.9169 209.615 39.3783C209.615 39.3783 211.346 38.1729 215.418 36.4081C217.982 85.504 235.699 107.072 235.699 107.072Z" fill="#D1940D"/>
<path d="M401.736 107.072L403.586 107.327L406.317 106.885C406.317 106.885 423.865 77.9169 427.819 39.3783C427.819 39.3783 426.089 38.1729 422.016 36.4081C419.452 85.504 401.736 107.072 401.736 107.072Z" fill="#D1940D"/>
<path d="M424.425 16.7508C388.221 -0.219494 317.249 0.899213 317.249 0.899213C307.086 0.850455 246.119 1.22833 213.005 16.7508C213.005 16.7508 203.389 29.1961 203.389 43.9032C203.389 43.9032 243.409 25.2359 318.715 25.2359C394.022 25.2359 434.041 43.9032 434.041 43.9032C434.041 29.1961 424.425 16.7508 424.425 16.7508Z" fill="#EFB933"/>
<path d="M426.047 24.6711L423.219 18.4491C375.869 1.20661 321.969 3.0323 318.536 3.16909C315.103 3.03366 261.203 1.20661 213.853 18.4491L211.025 24.6711C211.025 24.6711 245.898 6.318 318.536 6.2882C391.174 6.318 426.047 24.6711 426.047 24.6711Z" fill="white"/>
<path d="M277.182 105.285H250.751V109.809H277.182V105.285Z" fill="#EFB933"/>
<path d="M276.633 105.833H264.541V109.333H276.633V105.833Z" fill="#D69A12"/>
<path d="M267.913 105.833H265.368V109.333H267.913V105.833Z" fill="#AF7500"/>
<path d="M259.132 105.833H251.566V109.333H259.132V105.833Z" fill="white"/>
<path d="M274.072 100.76H247.642V105.285H274.072V100.76Z" fill="#EFB933"/>
<path d="M273.522 101.308H261.43V104.808H273.522V101.308Z" fill="#D69A12"/>
<path d="M264.803 101.308H262.258V104.808H264.803V101.308Z" fill="#AF7500"/>
<path d="M256.021 101.308H248.455V104.808H256.021V101.308Z" fill="white"/>
<path d="M271.739 96.1805H245.308V100.705H271.739V96.1805Z" fill="#EFB933"/>
<path d="M271.188 96.7292H259.096V100.229H271.188V96.7292Z" fill="#D69A12"/>
<path d="M262.469 96.729H259.924V100.229H262.469V96.729Z" fill="#AF7500"/>
<path d="M253.687 96.7292H246.122V100.229H253.687V96.7292Z" fill="white"/>
<path d="M277.182 91.6027H250.751V96.1276H277.182V91.6027Z" fill="#EFB933"/>
<path d="M276.633 92.1512H264.541V95.6509H276.633V92.1512Z" fill="#D69A12"/>
<path d="M267.913 92.1512H265.368V95.6509H267.913V92.1512Z" fill="#AF7500"/>
<path d="M259.132 92.1512H251.566V95.6509H259.132V92.1512Z" fill="white"/>
<path d="M276.335 87.0776H249.905V91.6026H276.335V87.0776Z" fill="#EFB933"/>
<path d="M275.785 87.6251H263.693V91.1248H275.785V87.6251Z" fill="#D69A12"/>
<path d="M267.066 87.6249H264.521V91.1246H267.066V87.6249Z" fill="#AF7500"/>
<path d="M258.283 87.6251H250.717V91.1248H258.283V87.6251Z" fill="white"/>
<path d="M274.072 82.5556H247.642V87.0806H274.072V82.5556Z" fill="#EFB933"/>
<path d="M273.522 83.1028H261.43V86.6024H273.522V83.1028Z" fill="#D69A12"/>
<path d="M264.803 83.1028H262.258V86.6024H264.803V83.1028Z" fill="#AF7500"/>
<path d="M256.021 83.1028H248.455V86.6024H256.021V83.1028Z" fill="white"/>
<path d="M276.335 78.0319H249.905V82.5569H276.335V78.0319Z" fill="#EFB933"/>
<path d="M275.785 78.5805H263.693V82.0802H275.785V78.5805Z" fill="#D69A12"/>
<path d="M267.066 78.5805H264.521V82.0802H267.066V78.5805Z" fill="#AF7500"/>
<path d="M258.283 78.5805H250.717V82.0802H258.283V78.5805Z" fill="white"/>
<path d="M277.182 73.5067H250.751V78.0317H277.182V73.5067Z" fill="#EFB933"/>
<path d="M276.633 74.0555H264.541V77.5552H276.633V74.0555Z" fill="#D69A12"/>
<path d="M267.913 74.0553H265.368V77.555H267.913V74.0553Z" fill="#AF7500"/>
<path d="M259.132 74.0555H251.566V77.5552H259.132V74.0555Z" fill="white"/>
<path d="M278.501 68.9822H252.071V73.5071H278.501V68.9822Z" fill="#EFB933"/>
<path d="M277.951 69.5292H265.859V73.0289H277.951V69.5292Z" fill="#D69A12"/>
<path d="M269.232 69.5292H266.687V73.0289H269.232V69.5292Z" fill="#AF7500"/>
<path d="M260.449 69.5292H252.883V73.0289H260.449V69.5292Z" fill="white"/>
<path d="M275.293 64.4599H248.863V68.9848H275.293V64.4599Z" fill="#EFB933"/>
<path d="M274.745 65.007H262.653V68.5067H274.745V65.007Z" fill="#D69A12"/>
<path d="M266.024 65.007H263.479V68.5067H266.024V65.007Z" fill="#AF7500"/>
<path d="M257.243 65.007H249.678V68.5067H257.243V65.007Z" fill="white"/>
<path d="M272.67 59.9308H246.239V64.4558H272.67V59.9308Z" fill="#EFB933"/>
<path d="M272.119 60.4794H260.027V63.9791H272.119V60.4794Z" fill="#D69A12"/>
<path d="M263.399 60.4792H260.854V63.9789H263.399V60.4792Z" fill="#AF7500"/>
<path d="M254.618 60.4794H247.052V63.9791H254.618V60.4794Z" fill="white"/>
<path d="M277.182 55.411H250.751V59.936H277.182V55.411Z" fill="#EFB933"/>
<path d="M276.633 55.9598H264.541V59.4595H276.633V55.9598Z" fill="#D69A12"/>
<path d="M267.913 55.9596H265.368V59.4593H267.913V55.9596Z" fill="#AF7500"/>
<path d="M259.132 55.9598H251.566V59.4595H259.132V55.9598Z" fill="white"/>
<path d="M368.236 108.448H341.805V112.973H368.236V108.448Z" fill="#EFB933"/>
<path d="M367.687 108.997H355.595V112.497H367.687V108.997Z" fill="#D69A12"/>
<path d="M358.966 108.997H356.422V112.497H358.966V108.997Z" fill="#AF7500"/>
<path d="M350.184 108.997H342.619V112.497H350.184V108.997Z" fill="white"/>
<path d="M365.331 104.249H338.9V108.773H365.331V104.249Z" fill="#EFB933"/>
<path d="M364.782 104.796H352.69V108.296H364.782V104.796Z" fill="#D69A12"/>
<path d="M356.062 104.796H353.517V108.295H356.062V104.796Z" fill="#AF7500"/>
<path d="M347.279 104.796H339.713V108.296H347.279V104.796Z" fill="white"/>
<path d="M365.904 99.7223H339.473V104.247H365.904V99.7223Z" fill="#EFB933"/>
<path d="M365.354 100.271H353.262V103.771H365.354V100.271Z" fill="#D69A12"/>
<path d="M356.635 100.271H354.09V103.771H356.635V100.271Z" fill="#AF7500"/>
<path d="M347.852 100.271H340.286V103.771H347.852V100.271Z" fill="white"/>
<path d="M365.331 95.7457H338.9V100.271H365.331V95.7457Z" fill="#EFB933"/>
<path d="M364.782 96.2931H352.69V99.7928H364.782V96.2931Z" fill="#D69A12"/>
<path d="M356.062 96.2928H353.517V99.7925H356.062V96.2928Z" fill="#AF7500"/>
<path d="M347.279 96.2931H339.713V99.7928H347.279V96.2931Z" fill="white"/>
<path d="M365.331 92.2365H338.9V96.7615H365.331V92.2365Z" fill="#EFB933"/>
<path d="M364.782 92.7836H352.69V96.2833H364.782V92.7836Z" fill="#D69A12"/>
<path d="M356.062 92.7836H353.517V96.2833H356.062V92.7836Z" fill="#AF7500"/>
<path d="M347.279 92.7836H339.713V96.2833H347.279V92.7836Z" fill="white"/>
<path d="M368.236 87.8592H341.805V92.3842H368.236V87.8592Z" fill="#EFB933"/>
<path d="M367.687 88.4078H355.595V91.9075H367.687V88.4078Z" fill="#D69A12"/>
<path d="M358.966 88.4078H356.422V91.9075H358.966V88.4078Z" fill="#AF7500"/>
<path d="M350.184 88.4078H342.619V91.9075H350.184V88.4078Z" fill="white"/>
<path d="M365.841 83.3696H339.411V87.8946H365.841V83.3696Z" fill="#EFB933"/>
<path d="M365.291 83.918H353.199V87.4177H365.291V83.918Z" fill="#D69A12"/>
<path d="M356.574 83.918H354.027V87.4177H356.574V83.918Z" fill="#AF7500"/>
<path d="M347.789 83.918H340.224V87.4177H347.789V83.918Z" fill="white"/>
<path d="M368.014 78.8093H341.584V83.3343H368.014V78.8093Z" fill="#EFB933"/>
<path d="M367.464 79.3568H355.372V82.8565H367.464V79.3568Z" fill="#D69A12"/>
<path d="M358.745 79.3566H356.2V82.8563H358.745V79.3566Z" fill="#AF7500"/>
<path d="M349.963 79.3566H342.397V82.8563H349.963V79.3566Z" fill="white"/>
<path d="M364.069 74.283H337.638V78.8079H364.069V74.283Z" fill="#EFB933"/>
<path d="M363.519 74.8315H351.427V78.3312H363.519V74.8315Z" fill="#D69A12"/>
<path d="M354.799 74.8315H352.255V78.3312H354.799V74.8315Z" fill="#AF7500"/>
<path d="M346.016 74.8315H338.451V78.3312H346.016V74.8315Z" fill="white"/>
<path d="M365.869 69.7583H339.439V74.2832H365.869V69.7583Z" fill="#EFB933"/>
<path d="M365.32 70.3068H353.229V73.8065H365.32V70.3068Z" fill="#D69A12"/>
<path d="M356.6 70.3066H354.055V73.8063H356.6V70.3066Z" fill="#AF7500"/>
<path d="M347.817 70.3066H340.251V73.8063H347.817V70.3066Z" fill="white"/>
<path d="M363.168 65.2333H336.737V69.7582H363.168V65.2333Z" fill="#EFB933"/>
<path d="M362.617 65.7804H350.526V69.2801H362.617V65.7804Z" fill="#D69A12"/>
<path d="M353.898 65.7804H351.354V69.2801H353.898V65.7804Z" fill="#AF7500"/>
<path d="M345.115 65.7804H337.55V69.2801H345.115V65.7804Z" fill="white"/>
<path d="M364.642 60.7068H338.212V65.2318H364.642V60.7068Z" fill="#EFB933"/>
<path d="M364.093 61.2554H352.001V64.7551H364.093V61.2554Z" fill="#D69A12"/>
<path d="M355.372 61.2554H352.828V64.7551H355.372V61.2554Z" fill="#AF7500"/>
<path d="M346.589 61.2554H339.024V64.7551H346.589V61.2554Z" fill="white"/>
<path d="M364.09 56.1819H337.659V60.7069H364.09V56.1819Z" fill="#EFB933"/>
<path d="M363.541 56.7305H351.449V60.2302H363.541V56.7305Z" fill="#D69A12"/>
<path d="M354.821 56.7305H352.276V60.2302H354.821V56.7305Z" fill="#AF7500"/>
<path d="M346.039 56.7305H338.473V60.2302H346.039V56.7305Z" fill="white"/>
<path d="M388.116 122.397H361.686V126.922H388.116V122.397Z" fill="#EFB933"/>
<path d="M387.565 122.944H375.473V126.444H387.565V122.944Z" fill="#D69A12"/>
<path d="M378.846 122.944H376.301V126.444H378.846V122.944Z" fill="#AF7500"/>
<path d="M370.064 122.944H362.498V126.444H370.064V122.944Z" fill="white"/>
<path d="M385.005 117.871H358.574V122.396H385.005V117.871Z" fill="#EFB933"/>
<path d="M384.455 118.419H372.363V121.919H384.455V118.419Z" fill="#D69A12"/>
<path d="M375.735 118.419H373.19V121.919H375.735V118.419Z" fill="#AF7500"/>
<path d="M366.954 118.419H359.389V121.919H366.954V118.419Z" fill="white"/>
<path d="M382.67 113.293H356.24V117.818H382.67V113.293Z" fill="#EFB933"/>
<path d="M382.12 113.84H370.028V117.339H382.12V113.84Z" fill="#D69A12"/>
<path d="M373.401 113.84H370.856V117.339H373.401V113.84Z" fill="#AF7500"/>
<path d="M364.619 113.84H357.054V117.339H364.619V113.84Z" fill="white"/>
<path d="M388.116 108.714H361.686V113.239H388.116V108.714Z" fill="#EFB933"/>
<path d="M387.565 109.262H375.473V112.762H387.565V109.262Z" fill="#D69A12"/>
<path d="M378.846 109.262H376.301V112.762H378.846V109.262Z" fill="#AF7500"/>
<path d="M370.064 109.262H362.498V112.762H370.064V109.262Z" fill="white"/>
<path d="M387.267 104.189H360.837V108.714H387.267V104.189Z" fill="#EFB933"/>
<path d="M386.718 104.738H374.626V108.237H386.718V104.738Z" fill="#D69A12"/>
<path d="M377.997 104.738H375.453V108.237H377.997V104.738Z" fill="#AF7500"/>
<path d="M369.214 104.738H361.649V108.237H369.214V104.738Z" fill="white"/>
<path d="M385.005 99.6666H358.574V104.192H385.005V99.6666Z" fill="#EFB933"/>
<path d="M384.455 100.214H372.363V103.713H384.455V100.214Z" fill="#D69A12"/>
<path d="M375.735 100.214H373.19V103.713H375.735V100.214Z" fill="#AF7500"/>
<path d="M366.954 100.214H359.389V103.713H366.954V100.214Z" fill="white"/>
<path d="M387.267 95.1444H360.837V99.6693H387.267V95.1444Z" fill="#EFB933"/>
<path d="M386.718 95.6916H374.626V99.1913H386.718V95.6916Z" fill="#D69A12"/>
<path d="M377.997 95.6916H375.453V99.1913H377.997V95.6916Z" fill="#AF7500"/>
<path d="M369.214 95.6916H361.649V99.1913H369.214V95.6916Z" fill="white"/>
<path d="M388.116 90.618H361.686V95.1429H388.116V90.618Z" fill="#EFB933"/>
<path d="M387.565 91.1666H375.473V94.6663H387.565V91.1666Z" fill="#D69A12"/>
<path d="M378.846 91.1666H376.301V94.6663H378.846V91.1666Z" fill="#AF7500"/>
<path d="M370.064 91.1666H362.498V94.6663H370.064V91.1666Z" fill="white"/>
<path d="M389.433 86.0932H363.003V90.6181H389.433V86.0932Z" fill="#EFB933"/>
<path d="M388.884 86.6415H376.792V90.1412H388.884V86.6415Z" fill="#D69A12"/>
<path d="M380.164 86.6415H377.619V90.1412H380.164V86.6415Z" fill="#AF7500"/>
<path d="M371.383 86.6415H363.818V90.1412H371.383V86.6415Z" fill="white"/>
<path d="M386.226 81.5709H359.796V86.0958H386.226V81.5709Z" fill="#EFB933"/>
<path d="M385.676 82.118H373.584V85.6177H385.676V82.118Z" fill="#D69A12"/>
<path d="M376.957 82.118H374.412V85.6177H376.957V82.118Z" fill="#AF7500"/>
<path d="M368.174 82.118H360.608V85.6177H368.174V82.118Z" fill="white"/>
<path d="M383.601 77.0417H357.171V81.5667H383.601V77.0417Z" fill="#EFB933"/>
<path d="M383.051 77.5903H370.959V81.09H383.051V77.5903Z" fill="#D69A12"/>
<path d="M374.332 77.5903H371.787V81.09H374.332V77.5903Z" fill="#AF7500"/>
<path d="M365.55 77.5903H357.984V81.09H365.55V77.5903Z" fill="white"/>
<path d="M388.116 72.5223H361.686V77.0472H388.116V72.5223Z" fill="#EFB933"/>
<path d="M387.565 73.0709H375.473V76.5706H387.565V73.0709Z" fill="#D69A12"/>
<path d="M378.846 73.0709H376.301V76.5706H378.846V73.0709Z" fill="#AF7500"/>
<path d="M370.064 73.0709H362.498V76.5706H370.064V73.0709Z" fill="white"/>
<path d="M380.975 142.061H407.405V137.536H380.975V142.061Z" fill="#EFB933"/>
<path d="M381.525 141.583H393.617V138.083H381.525V141.583Z" fill="#D69A12"/>
<path d="M390.242 141.583H392.789V138.083H390.242V141.583Z" fill="#AF7500"/>
<path d="M399.027 141.583H406.592V138.083H399.027V141.583Z" fill="white"/>
<path d="M384.086 137.535H410.516V133.01H384.086V137.535Z" fill="#EFB933"/>
<path d="M384.636 137.057H396.728V133.557H384.636V137.057Z" fill="#D69A12"/>
<path d="M393.355 137.057H395.9V133.557H393.355V137.057Z" fill="#AF7500"/>
<path d="M402.139 137.057H409.704V133.557H402.139V137.057Z" fill="white"/>
<path d="M386.42 132.957H412.851V128.432H386.42V132.957Z" fill="#EFB933"/>
<path d="M386.97 132.479H399.062V128.98H386.97V132.479Z" fill="#D69A12"/>
<path d="M395.688 132.479H398.234V128.98H395.688V132.479Z" fill="#AF7500"/>
<path d="M404.472 132.479H412.037V128.98H404.472V132.479Z" fill="white"/>
<path d="M380.975 128.378H407.405V123.853H380.975V128.378Z" fill="#EFB933"/>
<path d="M381.526 127.9H393.617V124.4H381.526V127.9Z" fill="#D69A12"/>
<path d="M390.242 127.9H392.789V124.4H390.242V127.9Z" fill="#AF7500"/>
<path d="M399.027 127.9H406.593V124.4H399.027V127.9Z" fill="white"/>
<path d="M381.823 123.852H408.254V119.327H381.823V123.852Z" fill="#EFB933"/>
<path d="M382.374 123.376H394.466V119.876H382.374V123.376Z" fill="#D69A12"/>
<path d="M391.093 123.376H393.638V119.876H391.093V123.376Z" fill="#AF7500"/>
<path d="M399.875 123.376H407.441V119.876H399.875V123.376Z" fill="white"/>
<path d="M384.086 119.331H410.516V114.806H384.086V119.331Z" fill="#EFB933"/>
<path d="M384.636 118.853H396.728V115.353H384.636V118.853Z" fill="#D69A12"/>
<path d="M393.355 118.853H395.9V115.353H393.355V118.853Z" fill="#AF7500"/>
<path d="M402.139 118.853H409.704V115.353H402.139V118.853Z" fill="white"/>
<path d="M381.823 114.808H408.254V110.283H381.823V114.808Z" fill="#EFB933"/>
<path d="M382.374 114.33H394.466V110.831H382.374V114.33Z" fill="#D69A12"/>
<path d="M391.093 114.33H393.638V110.831H391.093V114.33Z" fill="#AF7500"/>
<path d="M399.875 114.33H407.441V110.831H399.875V114.33Z" fill="white"/>
<path d="M380.975 110.282H407.405V105.757H380.975V110.282Z" fill="#EFB933"/>
<path d="M381.526 109.806H393.617V106.306H381.526V109.806Z" fill="#D69A12"/>
<path d="M390.242 109.806H392.789V106.306H390.242V109.806Z" fill="#AF7500"/>
<path d="M399.027 109.806H406.593V106.306H399.027V109.806Z" fill="white"/>
<path d="M379.658 105.756H406.088V101.231H379.658V105.756Z" fill="#EFB933"/>
<path d="M380.208 105.28H392.3V101.78H380.208V105.28Z" fill="#D69A12"/>
<path d="M388.928 105.28H391.473V101.78H388.928V105.28Z" fill="#AF7500"/>
<path d="M397.71 105.28H405.275V101.78H397.71V105.28Z" fill="white"/>
<path d="M382.865 101.235H409.296V96.7099H382.865V101.235Z" fill="#EFB933"/>
<path d="M383.415 100.757H395.507V97.2574H383.415V100.757Z" fill="#D69A12"/>
<path d="M392.134 100.757H394.679V97.2574H392.134V100.757Z" fill="#AF7500"/>
<path d="M400.917 100.757H408.483V97.2574H400.917V100.757Z" fill="white"/>
<path d="M385.49 96.7059H411.92V92.181H385.49V96.7059Z" fill="#EFB933"/>
<path d="M386.04 96.2294H398.132V92.7297H386.04V96.2294Z" fill="#D69A12"/>
<path d="M394.76 96.2294H397.304V92.7297H394.76V96.2294Z" fill="#AF7500"/>
<path d="M403.541 96.2294H411.106V92.7297H403.541V96.2294Z" fill="white"/>
<path d="M380.975 92.1862H407.405V87.6613H380.975V92.1862Z" fill="#EFB933"/>
<path d="M381.526 91.7102H393.617V88.2105H381.526V91.7102Z" fill="#D69A12"/>
<path d="M390.242 91.7102H392.789V88.2105H390.242V91.7102Z" fill="#AF7500"/>
<path d="M399.027 91.7102H406.593V88.2105H399.027V91.7102Z" fill="white"/>
<path d="M224.896 124.851H251.327V120.327H224.896V124.851Z" fill="#EFB933"/>
<path d="M225.447 124.374H237.539V120.874H225.447V124.374Z" fill="#D69A12"/>
<path d="M234.167 124.374H236.711V120.874H234.167V124.374Z" fill="#AF7500"/>
<path d="M242.948 124.374H250.513V120.874H242.948V124.374Z" fill="white"/>
<path d="M228.007 120.326H254.438V115.801H228.007V120.326Z" fill="#EFB933"/>
<path d="M228.558 119.849H240.65V116.349H228.558V119.849Z" fill="#D69A12"/>
<path d="M237.277 119.849H239.822V116.349H237.277V119.849Z" fill="#AF7500"/>
<path d="M246.059 119.849H253.624V116.349H246.059V119.849Z" fill="white"/>
<path d="M230.341 115.747H256.771V111.223H230.341V115.747Z" fill="#EFB933"/>
<path d="M230.892 115.27H242.984V111.77H230.892V115.27Z" fill="#D69A12"/>
<path d="M239.61 115.27H242.155V111.77H239.61V115.27Z" fill="#AF7500"/>
<path d="M248.392 115.27H255.958V111.77H248.392V115.27Z" fill="white"/>
<path d="M224.896 111.169H251.327V106.644H224.896V111.169Z" fill="#EFB933"/>
<path d="M225.447 110.692H237.539V107.193H225.447V110.692Z" fill="#D69A12"/>
<path d="M234.167 110.692H236.711V107.192H234.167V110.692Z" fill="#AF7500"/>
<path d="M242.948 110.692H250.513V107.192H242.948V110.692Z" fill="white"/>
<path d="M225.744 106.644H252.174V102.119H225.744V106.644Z" fill="#EFB933"/>
<path d="M226.295 106.166H238.386V102.667H226.295V106.166Z" fill="#D69A12"/>
<path d="M235.013 106.166H237.558V102.667H235.013V106.166Z" fill="#AF7500"/>
<path d="M243.796 106.166H251.362V102.667H243.796V106.166Z" fill="white"/>
<path d="M228.007 102.121H254.438V97.5964H228.007V102.121Z" fill="#EFB933"/>
<path d="M228.558 101.644H240.65V98.1439H228.558V101.644Z" fill="#D69A12"/>
<path d="M237.277 101.644H239.822V98.1439H237.277V101.644Z" fill="#AF7500"/>
<path d="M246.059 101.644H253.624V98.1439H246.059V101.644Z" fill="white"/>
<path d="M225.744 97.5988H252.174V93.0739H225.744V97.5988Z" fill="#EFB933"/>
<path d="M226.295 97.1211H238.386V93.6214H226.295V97.1211Z" fill="#D69A12"/>
<path d="M235.013 97.1211H237.558V93.6214H235.013V97.1211Z" fill="#AF7500"/>
<path d="M243.796 97.1211H251.362V93.6214H243.796V97.1211Z" fill="white"/>
<path d="M224.896 93.0727H251.327V88.5477H224.896V93.0727Z" fill="#EFB933"/>
<path d="M225.447 92.5964H237.539V89.0967H225.447V92.5964Z" fill="#D69A12"/>
<path d="M234.167 92.5964H236.711V89.0967H234.167V92.5964Z" fill="#AF7500"/>
<path d="M242.948 92.5964H250.513V89.0967H242.948V92.5964Z" fill="white"/>
<path d="M223.579 88.5483H250.009V84.0234H223.579V88.5483Z" fill="#EFB933"/>
<path d="M224.128 88.0706H236.22V84.5709H224.128V88.0706Z" fill="#D69A12"/>
<path d="M232.846 88.0706H235.393V84.5709H232.846V88.0706Z" fill="#AF7500"/>
<path d="M241.63 88.0706H249.195V84.5709H241.63V88.0706Z" fill="white"/>
<path d="M226.786 84.0259H253.216V79.5009H226.786V84.0259Z" fill="#EFB933"/>
<path d="M227.336 83.5482H239.427V80.0485H227.336V83.5482Z" fill="#D69A12"/>
<path d="M236.056 83.5482H238.601V80.0485H236.056V83.5482Z" fill="#AF7500"/>
<path d="M244.838 83.5482H252.404V80.0485H244.838V83.5482Z" fill="white"/>
<path d="M229.411 79.4965H255.842V74.9716H229.411V79.4965Z" fill="#EFB933"/>
<path d="M229.962 79.0205H242.054V75.5208H229.962V79.0205Z" fill="#D69A12"/>
<path d="M238.68 79.0202H241.225V75.5205H238.68V79.0202Z" fill="#AF7500"/>
<path d="M247.462 79.0202H255.028V75.5205H247.462V79.0202Z" fill="white"/>
<path d="M224.896 74.977H251.327V70.452H224.896V74.977Z" fill="#EFB933"/>
<path d="M225.447 74.5007H237.539V71.001H225.447V74.5007Z" fill="#D69A12"/>
<path d="M234.167 74.5007H236.711V71.001H234.167V74.5007Z" fill="#AF7500"/>
<path d="M242.948 74.5007H250.513V71.001H242.948V74.5007Z" fill="white"/>
<path d="M299.921 110.355H273.49V114.88H299.921V110.355Z" fill="#EFB933"/>
<path d="M299.371 110.904H287.279V114.403H299.371V110.904Z" fill="#D69A12"/>
<path d="M290.652 110.904H288.107V114.403H290.652V110.904Z" fill="#AF7500"/>
<path d="M281.868 110.904H274.303V114.403H281.868V110.904Z" fill="white"/>
<path d="M297.016 106.155H270.586V110.68H297.016V106.155Z" fill="#EFB933"/>
<path d="M296.466 106.702H284.375V110.202H296.466V106.702Z" fill="#D69A12"/>
<path d="M287.746 106.702H285.201V110.202H287.746V106.702Z" fill="#AF7500"/>
<path d="M278.965 106.702H271.399V110.202H278.965V106.702Z" fill="white"/>
<path d="M297.588 101.629H271.158V106.154H297.588V101.629Z" fill="#EFB933"/>
<path d="M297.039 102.178H284.948V105.677H297.039V102.178Z" fill="#D69A12"/>
<path d="M288.319 102.178H285.774V105.677H288.319V102.178Z" fill="#AF7500"/>
<path d="M279.537 102.178H271.971V105.677H279.537V102.178Z" fill="white"/>
<path d="M297.016 97.6513H270.586V102.176H297.016V97.6513Z" fill="#EFB933"/>
<path d="M296.466 98.1999H284.375V101.7H296.466V98.1999Z" fill="#D69A12"/>
<path d="M287.746 98.1999H285.201V101.7H287.746V98.1999Z" fill="#AF7500"/>
<path d="M278.965 98.1999H271.399V101.7H278.965V98.1999Z" fill="white"/>
<path d="M297.016 94.1437H270.586V98.6686H297.016V94.1437Z" fill="#EFB933"/>
<path d="M296.466 94.6908H284.375V98.1905H296.466V94.6908Z" fill="#D69A12"/>
<path d="M287.746 94.6908H285.201V98.1905H287.746V94.6908Z" fill="#AF7500"/>
<path d="M278.965 94.6908H271.399V98.1905H278.965V94.6908Z" fill="white"/>
<path d="M299.921 89.7663H273.49V94.2912H299.921V89.7663Z" fill="#EFB933"/>
<path d="M299.371 90.3147H287.279V93.8143H299.371V90.3147Z" fill="#D69A12"/>
<path d="M290.652 90.3147H288.107V93.8143H290.652V90.3147Z" fill="#AF7500"/>
<path d="M281.868 90.3147H274.303V93.8143H281.868V90.3147Z" fill="white"/>
<path d="M297.526 85.2764H271.095V89.8013H297.526V85.2764Z" fill="#EFB933"/>
<path d="M296.977 85.825H284.885V89.3247H296.977V85.825Z" fill="#D69A12"/>
<path d="M288.257 85.825H285.711V89.3247H288.257V85.825Z" fill="#AF7500"/>
<path d="M279.473 85.825H271.908V89.3247H279.473V85.825Z" fill="white"/>
<path d="M299.7 80.7165H273.269V85.2414H299.7V80.7165Z" fill="#EFB933"/>
<path d="M299.149 81.2636H287.057V84.7633H299.149V81.2636Z" fill="#D69A12"/>
<path d="M290.429 81.2636H287.884V84.7633H290.429V81.2636Z" fill="#AF7500"/>
<path d="M281.647 81.2636H274.082V84.7633H281.647V81.2636Z" fill="white"/>
<path d="M295.754 76.1899H269.323V80.7148H295.754V76.1899Z" fill="#EFB933"/>
<path d="M295.204 76.7385H283.112V80.2382H295.204V76.7385Z" fill="#D69A12"/>
<path d="M286.484 76.7385H283.939V80.2382H286.484V76.7385Z" fill="#AF7500"/>
<path d="M277.701 76.7385H270.135V80.2382H277.701V76.7385Z" fill="white"/>
<path d="M297.554 71.6649H271.123V76.1899H297.554V71.6649Z" fill="#EFB933"/>
<path d="M297.004 72.2135H284.913V75.7132H297.004V72.2135Z" fill="#D69A12"/>
<path d="M288.284 72.2135H285.74V75.7132H288.284V72.2135Z" fill="#AF7500"/>
<path d="M279.502 72.2135H271.937V75.7132H279.502V72.2135Z" fill="white"/>
<path d="M294.853 67.1401H268.422V71.6651H294.853V67.1401Z" fill="#EFB933"/>
<path d="M294.303 67.6873H282.211V71.187H294.303V67.6873Z" fill="#D69A12"/>
<path d="M285.583 67.6873H283.038V71.187H285.583V67.6873Z" fill="#AF7500"/>
<path d="M276.8 67.6873H269.234V71.187H276.8V67.6873Z" fill="white"/>
<path d="M296.326 62.6138H269.896V67.1388H296.326V62.6138Z" fill="#EFB933"/>
<path d="M295.776 63.1622H283.684V66.6619H295.776V63.1622Z" fill="#D69A12"/>
<path d="M287.057 63.1622H284.512V66.6619H287.057V63.1622Z" fill="#AF7500"/>
<path d="M278.274 63.1622H270.708V66.6619H278.274V63.1622Z" fill="white"/>
<path d="M295.775 58.0887H269.344V62.6137H295.775V58.0887Z" fill="#EFB933"/>
<path d="M295.225 58.6358H283.133V62.1355H295.225V58.6358Z" fill="#D69A12"/>
<path d="M286.506 58.6358H283.961V62.1355H286.506V58.6358Z" fill="#AF7500"/>
<path d="M277.723 58.6358H270.157V62.1355H277.723V58.6358Z" fill="white"/>
<path d="M333.907 95.7457H307.476V100.271H333.907V95.7457Z" fill="#EFB933"/>
<path d="M333.357 96.2929H321.265V99.7926H333.357V96.2929Z" fill="#D69A12"/>
<path d="M324.637 96.2929H322.092V99.7926H324.637V96.2929Z" fill="#AF7500"/>
<path d="M315.856 96.2929H308.29V99.7926H315.856V96.2929Z" fill="white"/>
<path d="M330.796 91.2194H304.365V95.7443H330.796V91.2194Z" fill="#EFB933"/>
<path d="M330.246 91.7682H318.154V95.2679H330.246V91.7682Z" fill="#D69A12"/>
<path d="M321.528 91.768H318.982V95.2677H321.528V91.768Z" fill="#AF7500"/>
<path d="M312.743 91.7682H305.178V95.2679H312.743V91.7682Z" fill="white"/>
<path d="M328.462 86.6414H302.031V91.1664H328.462V86.6414Z" fill="#EFB933"/>
<path d="M327.912 87.1885H315.82V90.6882H327.912V87.1885Z" fill="#D69A12"/>
<path d="M319.193 87.1885H316.648V90.6882H319.193V87.1885Z" fill="#AF7500"/>
<path d="M310.411 87.1885H302.845V90.6882H310.411V87.1885Z" fill="white"/>
<path d="M333.907 82.0624H307.476V86.5873H333.907V82.0624Z" fill="#EFB933"/>
<path d="M333.357 82.611H321.265V86.1107H333.357V82.611Z" fill="#D69A12"/>
<path d="M324.637 82.611H322.092V86.1107H324.637V82.611Z" fill="#AF7500"/>
<path d="M315.856 82.611H308.29V86.1107H315.856V82.611Z" fill="white"/>
<path d="M333.058 77.5377H306.628V82.0626H333.058V77.5377Z" fill="#EFB933"/>
<path d="M332.508 78.0849H320.416V81.5845H332.508V78.0849Z" fill="#D69A12"/>
<path d="M323.79 78.0849H321.244V81.5845H323.79V78.0849Z" fill="#AF7500"/>
<path d="M315.006 78.0849H307.441V81.5845H315.006V78.0849Z" fill="white"/>
<path d="M330.796 73.0153H304.365V77.5402H330.796V73.0153Z" fill="#EFB933"/>
<path d="M330.246 73.5624H318.154V77.0621H330.246V73.5624Z" fill="#D69A12"/>
<path d="M321.528 73.5624H318.982V77.0621H321.528V73.5624Z" fill="#AF7500"/>
<path d="M312.743 73.5624H305.178V77.0621H312.743V73.5624Z" fill="white"/>
<path d="M333.058 68.4919H306.628V73.0168H333.058V68.4919Z" fill="#EFB933"/>
<path d="M332.508 69.0402H320.416V72.5399H332.508V69.0402Z" fill="#D69A12"/>
<path d="M323.79 69.0402H321.244V72.5399H323.79V69.0402Z" fill="#AF7500"/>
<path d="M315.006 69.0402H307.441V72.5399H315.006V69.0402Z" fill="white"/>
<path d="M333.907 63.9667H307.476V68.4916H333.907V63.9667Z" fill="#EFB933"/>
<path d="M333.357 64.5153H321.265V68.015H333.357V64.5153Z" fill="#D69A12"/>
<path d="M324.637 64.5153H322.092V68.015H324.637V64.5153Z" fill="#AF7500"/>
<path d="M315.856 64.5153H308.29V68.015H315.856V64.5153Z" fill="white"/>
<path d="M335.225 59.442H308.795V63.9669H335.225V59.442Z" fill="#EFB933"/>
<path d="M334.675 59.9892H322.583V63.4888H334.675V59.9892Z" fill="#D69A12"/>
<path d="M325.956 59.9892H323.411V63.4888H325.956V59.9892Z" fill="#AF7500"/>
<path d="M317.173 59.9892H309.608V63.4888H317.173V59.9892Z" fill="white"/>
<path d="M332.018 54.9196H305.588V59.4445H332.018V54.9196Z" fill="#EFB933"/>
<path d="M331.467 55.4667H319.375V58.9664H331.467V55.4667Z" fill="#D69A12"/>
<path d="M322.75 55.4667H320.204V58.9664H322.75V55.4667Z" fill="#AF7500"/>
<path d="M313.965 55.4667H306.4V58.9664H313.965V55.4667Z" fill="white"/>
<path d="M329.392 50.3904H302.961V54.9154H329.392V50.3904Z" fill="#EFB933"/>
<path d="M328.842 50.939H316.75V54.4387H328.842V50.939Z" fill="#D69A12"/>
<path d="M320.123 50.939H317.578V54.4387H320.123V50.939Z" fill="#AF7500"/>
<path d="M311.341 50.939H303.776V54.4387H311.341V50.939Z" fill="white"/>
<path d="M333.907 45.871H307.476V50.3959H333.907V45.871Z" fill="#EFB933"/>
<path d="M333.357 46.4196H321.265V49.9193H333.357V46.4196Z" fill="#D69A12"/>
<path d="M324.637 46.4196H322.092V49.9193H324.637V46.4196Z" fill="#AF7500"/>
<path d="M315.856 46.4196H308.29V49.9193H315.856V46.4196Z" fill="white"/>
<path d="M366.633 150.057H340.203V154.582H366.633V150.057Z" fill="#EFB933"/>
<path d="M366.082 150.604H353.99V154.104H366.082V150.604Z" fill="#D69A12"/>
<path d="M357.363 150.605H354.817V154.104H357.363V150.605Z" fill="#AF7500"/>
<path d="M348.581 150.605H341.015V154.104H348.581V150.605Z" fill="white"/>
<path d="M363.523 145.531H337.092V150.056H363.523V145.531Z" fill="#EFB933"/>
<path d="M362.971 146.08H350.879V149.579H362.971V146.08Z" fill="#D69A12"/>
<path d="M354.252 146.08H351.707V149.579H354.252V146.08Z" fill="#AF7500"/>
<path d="M345.47 146.08H337.904V149.579H345.47V146.08Z" fill="white"/>
<path d="M361.189 140.953H334.759V145.478H361.189V140.953Z" fill="#EFB933"/>
<path d="M360.638 141.5H348.546V145H360.638V141.5Z" fill="#D69A12"/>
<path d="M351.919 141.5H349.373V145H351.919V141.5Z" fill="#AF7500"/>
<path d="M343.136 141.5H335.57V145H343.136V141.5Z" fill="white"/>
<path d="M366.633 136.374H340.203V140.899H366.633V136.374Z" fill="#EFB933"/>
<path d="M366.082 136.923H353.99V140.422H366.082V136.923Z" fill="#D69A12"/>
<path d="M357.363 136.923H354.817V140.422H357.363V136.923Z" fill="#AF7500"/>
<path d="M348.581 136.923H341.015V140.422H348.581V136.923Z" fill="white"/>
<path d="M365.784 131.849H339.354V136.374H365.784V131.849Z" fill="#EFB933"/>
<path d="M365.235 132.398H353.143V135.898H365.235V132.398Z" fill="#D69A12"/>
<path d="M356.515 132.398H353.97V135.897H356.515V132.398Z" fill="#AF7500"/>
<path d="M347.734 132.398H340.168V135.897H347.734V132.398Z" fill="white"/>
<path d="M363.523 127.327H337.092V131.852H363.523V127.327Z" fill="#EFB933"/>
<path d="M362.971 127.874H350.879V131.374H362.971V127.874Z" fill="#D69A12"/>
<path d="M354.252 127.874H351.707V131.374H354.252V127.874Z" fill="#AF7500"/>
<path d="M345.47 127.874H337.904V131.374H345.47V127.874Z" fill="white"/>
<path d="M365.784 122.805H339.354V127.33H365.784V122.805Z" fill="#EFB933"/>
<path d="M365.235 123.352H353.143V126.851H365.235V123.352Z" fill="#D69A12"/>
<path d="M356.515 123.352H353.97V126.851H356.515V123.352Z" fill="#AF7500"/>
<path d="M347.734 123.352H340.168V126.851H347.734V123.352Z" fill="white"/>
<path d="M366.633 118.278H340.203V122.803H366.633V118.278Z" fill="#EFB933"/>
<path d="M366.082 118.827H353.99V122.327H366.082V118.827Z" fill="#D69A12"/>
<path d="M357.363 118.827H354.817V122.326H357.363V118.827Z" fill="#AF7500"/>
<path d="M348.581 118.827H341.015V122.326H348.581V118.827Z" fill="white"/>
<path d="M367.95 113.754H341.519V118.278H367.95V113.754Z" fill="#EFB933"/>
<path d="M367.4 114.302H355.308V117.802H367.4V114.302Z" fill="#D69A12"/>
<path d="M358.68 114.302H356.135V117.802H358.68V114.302Z" fill="#AF7500"/>
<path d="M349.898 114.302H342.333V117.802H349.898V114.302Z" fill="white"/>
<path d="M364.743 109.231H338.312V113.756H364.743V109.231Z" fill="#EFB933"/>
<path d="M364.193 109.778H352.102V113.278H364.193V109.778Z" fill="#D69A12"/>
<path d="M355.473 109.778H352.928V113.278H355.473V109.778Z" fill="#AF7500"/>
<path d="M346.692 109.778H339.126V113.278H346.692V109.778Z" fill="white"/>
<path d="M362.119 104.702H335.688V109.227H362.119V104.702Z" fill="#EFB933"/>
<path d="M361.568 105.251H349.476V108.751H361.568V105.251Z" fill="#D69A12"/>
<path d="M352.85 105.251H350.304V108.75H352.85V105.251Z" fill="#AF7500"/>
<path d="M344.067 105.251H336.501V108.75H344.067V105.251Z" fill="white"/>
<path d="M366.633 100.183H340.203V104.707H366.633V100.183Z" fill="#EFB933"/>
<path d="M366.082 100.731H353.99V104.231H366.082V100.731Z" fill="#D69A12"/>
<path d="M357.363 100.731H354.817V104.231H357.363V100.731Z" fill="#AF7500"/>
<path d="M348.581 100.731H341.015V104.231H348.581V100.731Z" fill="white"/>
<path d="M281.896 137.078H255.465V141.603H281.896V137.078Z" fill="#EFB933"/>
<path d="M281.345 137.626H269.254V141.125H281.345V137.626Z" fill="#D69A12"/>
<path d="M272.626 137.626H270.082V141.125H272.626V137.626Z" fill="#AF7500"/>
<path d="M263.843 137.626H256.278V141.125H263.843V137.626Z" fill="white"/>
<path d="M278.785 132.552H252.355V137.077H278.785V132.552Z" fill="#EFB933"/>
<path d="M278.236 133.101H266.144V136.6H278.236V133.101Z" fill="#D69A12"/>
<path d="M269.516 133.101H266.971V136.6H269.516V133.101Z" fill="#AF7500"/>
<path d="M260.732 133.101H253.167V136.6H260.732V133.101Z" fill="white"/>
<path d="M276.452 127.974H250.021V132.499H276.452V127.974Z" fill="#EFB933"/>
<path d="M275.902 128.522H263.81V132.021H275.902V128.522Z" fill="#D69A12"/>
<path d="M267.182 128.521H264.637V132.021H267.182V128.521Z" fill="#AF7500"/>
<path d="M258.399 128.522H250.834V132.021H258.399V128.522Z" fill="white"/>
<path d="M281.896 123.395H255.465V127.92H281.896V123.395Z" fill="#EFB933"/>
<path d="M281.345 123.944H269.254V127.444H281.345V123.944Z" fill="#D69A12"/>
<path d="M272.626 123.944H270.082V127.444H272.626V123.944Z" fill="#AF7500"/>
<path d="M263.843 123.944H256.278V127.444H263.843V123.944Z" fill="white"/>
<path d="M281.047 118.87H254.617V123.395H281.047V118.87Z" fill="#EFB933"/>
<path d="M280.497 119.418H268.405V122.917H280.497V119.418Z" fill="#D69A12"/>
<path d="M271.777 119.417H269.232V122.917H271.777V119.417Z" fill="#AF7500"/>
<path d="M262.996 119.418H255.43V122.917H262.996V119.418Z" fill="white"/>
<path d="M278.785 114.348H252.355V118.873H278.785V114.348Z" fill="#EFB933"/>
<path d="M278.236 114.895H266.144V118.395H278.236V114.895Z" fill="#D69A12"/>
<path d="M269.516 114.895H266.971V118.395H269.516V114.895Z" fill="#AF7500"/>
<path d="M260.732 114.895H253.167V118.395H260.732V114.895Z" fill="white"/>
<path d="M281.047 109.824H254.617V114.349H281.047V109.824Z" fill="#EFB933"/>
<path d="M280.497 110.373H268.405V113.873H280.497V110.373Z" fill="#D69A12"/>
<path d="M271.777 110.373H269.232V113.873H271.777V110.373Z" fill="#AF7500"/>
<path d="M262.996 110.373H255.43V113.873H262.996V110.373Z" fill="white"/>
<path d="M281.896 105.299H255.465V109.824H281.896V105.299Z" fill="#EFB933"/>
<path d="M281.345 105.848H269.254V109.348H281.345V105.848Z" fill="#D69A12"/>
<path d="M272.626 105.848H270.082V109.347H272.626V105.848Z" fill="#AF7500"/>
<path d="M263.843 105.848H256.278V109.348H263.843V105.848Z" fill="white"/>
<path d="M283.213 100.775H256.783V105.3H283.213V100.775Z" fill="#EFB933"/>
<path d="M282.662 101.322H270.57V104.821H282.662V101.322Z" fill="#D69A12"/>
<path d="M273.945 101.322H271.399V104.821H273.945V101.322Z" fill="#AF7500"/>
<path d="M265.161 101.322H257.595V104.821H265.161V101.322Z" fill="white"/>
<path d="M280.006 96.2524H253.575V100.777H280.006V96.2524Z" fill="#EFB933"/>
<path d="M279.455 96.7995H267.363V100.299H279.455V96.7995Z" fill="#D69A12"/>
<path d="M270.735 96.7995H268.19V100.299H270.735V96.7995Z" fill="#AF7500"/>
<path d="M261.954 96.7995H254.388V100.299H261.954V96.7995Z" fill="white"/>
<path d="M277.381 91.7233H250.951V96.2482H277.381V91.7233Z" fill="#EFB933"/>
<path d="M276.833 92.2719H264.741V95.7716H276.833V92.2719Z" fill="#D69A12"/>
<path d="M268.112 92.2716H265.568V95.7713H268.112V92.2716Z" fill="#AF7500"/>
<path d="M259.331 92.2719H251.766V95.7716H259.331V92.2719Z" fill="white"/>
<path d="M281.896 87.2036H255.465V91.7286H281.896V87.2036Z" fill="#EFB933"/>
<path d="M281.345 87.7524H269.254V91.2521H281.345V87.7524Z" fill="#D69A12"/>
<path d="M272.626 87.7521H270.082V91.2518H272.626V87.7521Z" fill="#AF7500"/>
<path d="M263.843 87.7524H256.278V91.2521H263.843V87.7524Z" fill="white"/>
<path d="M343.592 122.858H317.161V127.383H343.592V122.858Z" fill="#EFB933"/>
<path d="M343.042 123.405H330.95V126.904H343.042V123.405Z" fill="#D69A12"/>
<path d="M334.323 123.405H331.778V126.904H334.323V123.405Z" fill="#AF7500"/>
<path d="M325.54 123.405H317.974V126.904H325.54V123.405Z" fill="white"/>
<path d="M340.463 118.331H314.032V122.856H340.463V118.331Z" fill="#EFB933"/>
<path d="M339.912 118.88H327.82V122.379H339.912V118.88Z" fill="#D69A12"/>
<path d="M331.193 118.88H328.648V122.379H331.193V118.88Z" fill="#AF7500"/>
<path d="M322.41 118.88H314.845V122.379H322.41V118.88Z" fill="white"/>
<path d="M343.592 113.806H317.161V118.331H343.592V113.806Z" fill="#EFB933"/>
<path d="M343.042 114.355H330.95V117.854H343.042V114.355Z" fill="#D69A12"/>
<path d="M334.323 114.355H331.778V117.854H334.323V114.355Z" fill="#AF7500"/>
<path d="M325.54 114.355H317.974V117.854H325.54V114.355Z" fill="white"/>
<path d="M343.857 109.281H317.426V113.806H343.857V109.281Z" fill="#EFB933"/>
<path d="M343.305 109.829H331.214V113.328H343.305V109.829Z" fill="#D69A12"/>
<path d="M334.586 109.829H332.042V113.328H334.586V109.829Z" fill="#AF7500"/>
<path d="M325.804 109.829H318.239V113.328H325.804V109.829Z" fill="white"/>
<path d="M342.053 104.755H315.622V109.28H342.053V104.755Z" fill="#EFB933"/>
<path d="M341.503 105.304H329.411V108.803H341.503V105.304Z" fill="#D69A12"/>
<path d="M332.784 105.304H330.239V108.803H332.784V105.304Z" fill="#AF7500"/>
<path d="M324.002 105.304H316.437V108.803H324.002V105.304Z" fill="white"/>
<path d="M346 100.183H319.569V104.707H346V100.183Z" fill="#EFB933"/>
<path d="M345.45 100.731H333.358V104.231H345.45V100.731Z" fill="#D69A12"/>
<path d="M336.73 100.731H334.186V104.231H336.73V100.731Z" fill="#AF7500"/>
<path d="M327.947 100.731H320.382V104.231H327.947V100.731Z" fill="white"/>
<path d="M343.592 95.6861H317.161V100.211H343.592V95.6861Z" fill="#EFB933"/>
<path d="M343.042 96.2345H330.95V99.7342H343.042V96.2345Z" fill="#D69A12"/>
<path d="M334.323 96.2345H331.778V99.7342H334.323V96.2345Z" fill="#AF7500"/>
<path d="M325.54 96.2345H317.974V99.7342H325.54V96.2345Z" fill="white"/>
<path d="M346.043 91.1612H319.613V95.6862H346.043V91.1612Z" fill="#EFB933"/>
<path d="M345.494 91.7085H333.402V95.2082H345.494V91.7085Z" fill="#D69A12"/>
<path d="M336.774 91.7085H334.229V95.2082H336.774V91.7085Z" fill="#AF7500"/>
<path d="M327.991 91.7085H320.426V95.2082H327.991V91.7085Z" fill="white"/>
<path d="M346.998 86.6171H320.568V91.1421H346.998V86.6171Z" fill="#EFB933"/>
<path d="M346.447 87.1643H334.355V90.664H346.447V87.1643Z" fill="#D69A12"/>
<path d="M337.73 87.1643H335.183V90.664H337.73V87.1643Z" fill="#AF7500"/>
<path d="M328.946 87.1643H321.38V90.664H328.946V87.1643Z" fill="white"/>
<path d="M344.405 82.091H317.974V86.616H344.405V82.091Z" fill="#EFB933"/>
<path d="M343.855 82.6395H331.763V86.1391H343.855V82.6395Z" fill="#D69A12"/>
<path d="M335.135 82.6395H332.591V86.1391H335.135V82.6395Z" fill="#AF7500"/>
<path d="M326.353 82.6395H318.788V86.1391H326.353V82.6395Z" fill="white"/>
<path d="M321.07 130.924H294.639V135.449H321.07V130.924Z" fill="#EFB933"/>
<path d="M320.52 131.472H308.428V134.972H320.52V131.472Z" fill="#D69A12"/>
<path d="M311.801 131.472H309.256V134.972H311.801V131.472Z" fill="#AF7500"/>
<path d="M303.019 131.472H295.453V134.972H303.019V131.472Z" fill="white"/>
<path d="M318.165 126.724H291.735V131.249H318.165V126.724Z" fill="#EFB933"/>
<path d="M317.616 127.271H305.524V130.771H317.616V127.271Z" fill="#D69A12"/>
<path d="M308.896 127.271H306.351V130.771H308.896V127.271Z" fill="#AF7500"/>
<path d="M300.114 127.271H292.549V130.771H300.114V127.271Z" fill="white"/>
<path d="M318.738 122.198H292.307V126.723H318.738V122.198Z" fill="#EFB933"/>
<path d="M318.188 122.746H306.096V126.246H318.188V122.746Z" fill="#D69A12"/>
<path d="M309.469 122.746H306.924V126.246H309.469V122.746Z" fill="#AF7500"/>
<path d="M300.686 122.746H293.121V126.246H300.686V122.746Z" fill="white"/>
<path d="M318.165 118.221H291.735V122.746H318.165V118.221Z" fill="#EFB933"/>
<path d="M317.616 118.769H305.524V122.268H317.616V118.769Z" fill="#D69A12"/>
<path d="M308.896 118.769H306.351V122.268H308.896V118.769Z" fill="#AF7500"/>
<path d="M300.114 118.769H292.549V122.268H300.114V118.769Z" fill="white"/>
<path d="M318.165 114.712H291.735V119.237H318.165V114.712Z" fill="#EFB933"/>
<path d="M317.616 115.259H305.524V118.759H317.616V115.259Z" fill="#D69A12"/>
<path d="M308.896 115.259H306.351V118.759H308.896V115.259Z" fill="#AF7500"/>
<path d="M300.114 115.259H292.549V118.759H300.114V115.259Z" fill="white"/>
<path d="M321.07 110.335H294.639V114.86H321.07V110.335Z" fill="#EFB933"/>
<path d="M320.52 110.883H308.428V114.383H320.52V110.883Z" fill="#D69A12"/>
<path d="M311.801 110.883H309.256V114.383H311.801V110.883Z" fill="#AF7500"/>
<path d="M303.019 110.883H295.453V114.383H303.019V110.883Z" fill="white"/>
<path d="M318.676 105.845H292.245V110.37H318.676V105.845Z" fill="#EFB933"/>
<path d="M318.126 106.394H306.034V109.893H318.126V106.394Z" fill="#D69A12"/>
<path d="M309.406 106.394H306.861V109.893H309.406V106.394Z" fill="#AF7500"/>
<path d="M300.623 106.394H293.057V109.893H300.623V106.394Z" fill="white"/>
<path d="M320.849 101.285H294.419V105.81H320.849V101.285Z" fill="#EFB933"/>
<path d="M320.298 101.832H308.206V105.332H320.298V101.832Z" fill="#D69A12"/>
<path d="M311.58 101.832H309.035V105.332H311.58V101.832Z" fill="#AF7500"/>
<path d="M302.796 101.832H295.231V105.332H302.796V101.832Z" fill="white"/>
<path d="M316.902 96.7588H290.471V101.284H316.902V96.7588Z" fill="#EFB933"/>
<path d="M316.352 97.3072H304.26V100.807H316.352V97.3072Z" fill="#D69A12"/>
<path d="M307.633 97.3072H305.088V100.807H307.633V97.3072Z" fill="#AF7500"/>
<path d="M298.851 97.3072H291.286V100.807H298.851V97.3072Z" fill="white"/>
<path d="M318.704 92.2337H292.273V96.7586H318.704V92.2337Z" fill="#EFB933"/>
<path d="M318.154 92.7823H306.062V96.282H318.154V92.7823Z" fill="#D69A12"/>
<path d="M309.435 92.7823H306.89V96.282H309.435V92.7823Z" fill="#AF7500"/>
<path d="M300.652 92.7823H293.087V96.282H300.652V92.7823Z" fill="white"/>
<path d="M316.002 87.7088H289.572V92.2338H316.002V87.7088Z" fill="#EFB933"/>
<path d="M315.452 88.256H303.36V91.7557H315.452V88.256Z" fill="#D69A12"/>
<path d="M306.733 88.256H304.188V91.7557H306.733V88.256Z" fill="#AF7500"/>
<path d="M297.951 88.256H290.385V91.7557H297.951V88.256Z" fill="white"/>
<path d="M317.476 83.1826H291.045V87.7076H317.476V83.1826Z" fill="#EFB933"/>
<path d="M316.926 83.731H304.834V87.2307H316.926V83.731Z" fill="#D69A12"/>
<path d="M308.206 83.731H305.661V87.2307H308.206V83.731Z" fill="#AF7500"/>
<path d="M299.425 83.731H291.859V87.2307H299.425V83.731Z" fill="white"/>
<path d="M316.925 78.6574H290.494V83.1824H316.925V78.6574Z" fill="#EFB933"/>
<path d="M316.375 79.2059H304.283V82.7056H316.375V79.2059Z" fill="#D69A12"/>
<path d="M307.655 79.2059H305.111V82.7056H307.655V79.2059Z" fill="#AF7500"/>
<path d="M298.873 79.2059H291.308V82.7056H298.873V79.2059Z" fill="white"/>
<path d="M233.024 187.891L217.327 216.528C217.327 216.528 222.63 220.028 228.464 217.801L244.903 200.089L233.024 187.891Z" fill="#D3950B"/>
<path d="M403.585 187.891L419.282 216.528C419.282 216.528 413.978 220.028 408.145 217.801L391.706 200.089L403.585 187.891Z" fill="#D3950B"/>
<path d="M318.087 105.295H215.416C215.416 105.295 216.83 171.31 237.76 200.726C237.76 200.726 279.62 207.514 318.087 207.514C356.554 207.514 398.413 200.726 398.413 200.726C419.344 171.31 420.758 105.295 420.758 105.295H318.087Z" fill="#8C6239"/>
<g opacity="0.64">
<mask id="mask2_1_337" style="mask-type:luminance" maskUnits="userSpaceOnUse" x="215" y="105" width="206" height="103">
<path d="M318.087 105.295H215.416C215.416 105.295 216.83 171.31 237.76 200.726C237.76 200.726 279.62 207.514 318.087 207.514C356.554 207.514 398.413 200.726 398.413 200.726C419.344 171.31 420.758 105.295 420.758 105.295H318.087Z" fill="white"/>
</mask>
<g mask="url(#mask2_1_337)">
<path d="M416.454 202.062C416.454 202.062 388.995 201.342 359.253 200.925C329.511 200.508 302.575 200.86 296.254 203.256C289.935 205.652 323.342 213.58 356.548 216.342C356.548 216.342 322.809 211.884 320.213 208.074C317.617 204.265 332.569 201.156 369.206 203.922C405.844 206.688 416.566 210.044 416.566 210.044L416.454 202.062Z" fill="#63391D"/>
<path d="M412.012 211.375C412.012 211.375 369.55 204.129 354.817 204.698C340.084 205.267 343.733 211.638 362.395 213.317C381.057 214.997 381.884 212.117 378.897 211.267C375.909 210.416 367.77 210.021 367.77 210.021C367.77 210.021 376.425 210.903 376.441 212.077C376.457 213.251 360.019 213.078 354.06 211.03C348.101 208.982 348.392 205.619 360.775 206.608C373.158 207.596 398.952 210.338 410.697 214.18C422.442 218.024 412.012 211.375 412.012 211.375Z" fill="#63391D"/>
<path d="M228.862 200.355C230.877 200.078 235.509 203.112 256.139 206.189C276.77 209.268 298.145 217.516 298.145 217.516L286.741 216.707C286.741 216.707 282.385 210.945 255.661 208.241C228.936 205.538 220.736 200.808 220.736 200.808L228.862 200.355Z" fill="#63391D"/>
<path d="M228.611 206.549C228.611 206.549 242.538 208.857 252.562 210.782C262.586 212.706 265.118 215.175 265.118 215.175L262.2 214.968C262.2 214.968 261.906 212.518 252.061 211.332C242.217 210.145 227.961 208.504 227.961 208.504L228.611 206.549Z" fill="#63391D"/>
<path d="M227.744 193.232C227.744 193.232 242.007 195.339 254.231 196.989C266.454 198.64 304.533 195.528 309.62 195.805C309.62 195.805 301.092 194.848 292.716 195.636C284.341 196.423 268.596 197.421 256.379 196.082C244.159 194.742 227.078 190.984 227.078 190.984L227.744 193.232Z" fill="#63391D"/>
<path d="M228.972 190.162C228.972 190.162 249.654 194.377 259.245 195.338C268.835 196.3 282.545 195.364 282.545 195.364C282.545 195.364 266.282 195.6 258.637 194.121C250.991 192.642 227.677 188.516 227.677 188.516L228.972 190.162Z" fill="#63391D"/>
<path d="M412.031 176.893C412.031 176.893 385.527 173.45 355.573 175.242C325.619 177.034 281.193 180.745 257.522 178.276C233.85 175.807 231.971 168.786 242.378 167.821C252.785 166.857 276.656 165.415 284.585 168.954C292.513 172.492 279.564 173.39 274.737 173.506C274.737 173.506 288.218 174.307 292.236 170.763C296.251 167.219 271.795 163.192 253.265 164.819C234.734 166.445 229.941 168.951 233.039 172.383C236.137 175.815 241.284 180.325 283.74 181.081C326.195 181.838 388.505 173.804 413.876 181.575L412.031 176.893Z" fill="#63391D"/>
<path d="M411.611 183.078C411.611 183.078 389.693 178.8 365.572 180.502C341.451 182.203 323.458 185.837 326.792 187.99C330.127 190.144 413.026 193.275 413.026 193.275L412.995 191.099C412.995 191.099 367.398 189.566 350.956 189.357C334.515 189.148 318.445 186.425 348.328 183.266C378.211 180.108 407.556 183.927 412.924 186.02C418.291 188.11 411.611 183.078 411.611 183.078Z" fill="#63391D"/>
<path d="M412.924 186.019C412.924 186.019 384.661 182.393 369.685 183.808C354.71 185.224 347.597 185.439 349.397 186.967C351.197 188.493 381.035 187.135 381.035 187.135C381.035 187.135 361.86 187.622 361.59 186.504C361.321 185.385 389.498 182.998 412.955 188.195L412.924 186.019Z" fill="#63391D"/>
<path d="M415.579 140.212C415.579 140.212 343.063 140.552 319.376 143.001C295.69 145.45 276.97 146.123 258.495 142.485C240.02 138.847 234.838 131.842 234.838 131.842L240.27 132.583C240.27 132.583 246.915 140.785 276.332 142.509C305.749 144.234 358.585 135.884 419.283 138.624L415.579 140.212Z" fill="#63391D"/>
<path d="M410.513 141.438C410.513 141.438 363.748 141.41 335.332 144.901C306.916 148.393 316.178 157.966 355.338 158.587C394.499 159.21 402.185 151.543 399.439 149.138C396.694 146.732 370.251 145.947 357.419 149.172C357.419 149.172 386.765 146.472 391.657 150.032C396.549 153.59 381.906 155.203 364.796 155.533C347.686 155.864 331.898 154.978 331.003 150.332C330.107 145.687 390.169 140.631 410.553 144.25L410.513 141.438Z" fill="#63391D"/>
<path d="M223.76 145.262C223.76 145.262 244.329 143.989 260.38 146.741C276.431 149.493 322.807 160.894 322.807 160.894L313.695 160.544C313.695 160.544 283.326 151.798 269.582 150.401C255.837 149.005 223.801 148.164 223.801 148.164L223.76 145.262Z" fill="#63391D"/>
<path d="M222.552 149.641C222.552 149.641 262.209 150.236 270.895 153.394C279.581 156.553 249.84 156.187 249.84 156.187C249.84 156.187 265.591 155.708 265.578 154.775C265.564 153.841 227.407 151.528 223.848 151.378C220.288 151.227 221.031 149.843 221.031 149.843" fill="#63391D"/>
<path d="M413.088 125.864C413.088 125.864 392.612 121.798 372.551 117.049C352.49 112.299 296.868 109.013 284.072 114.726C271.276 120.439 305.263 126.455 329.305 125.62C329.305 125.62 303.856 123.872 301.773 120.409C299.69 116.946 311.809 111.186 344.411 116.138C377.014 121.093 413.395 129.655 416.449 129.964C419.505 130.275 413.088 125.864 413.088 125.864Z" fill="#63391D"/>
<path d="M220.438 112.919C220.438 112.919 254.617 116.695 268.249 122.087C281.881 127.48 287.327 129.218 287.327 129.218L278.114 129.224C278.114 129.224 268.93 122.411 250.941 120.365C232.951 118.32 217.013 117.527 217.013 117.527L211.852 114.057L220.438 112.919Z" fill="#63391D"/>
</g>
</g>
<path d="M396.998 192.805C396.998 192.805 368.998 199.593 318.086 199.31C267.175 199.027 236.912 193.653 237.76 192.805C238.608 191.957 239.778 201.038 239.778 201.038C239.778 201.038 307.338 219.171 395.017 201.038L396.998 192.805Z" fill="#D3950B"/>
<path d="M420.757 105.295H318.087H215.416C213.277 172.54 236.204 200.867 236.204 200.867C241.012 205.675 247.688 202.169 247.688 202.169C227.431 164.988 228.427 120.003 228.427 120.003H318.085H407.743C407.743 120.003 408.741 164.988 388.483 202.169C388.483 202.169 395.159 205.675 399.967 200.867C399.969 200.867 422.896 172.54 420.757 105.295Z" fill="#EFB933"/>
<path d="M327.689 106.226L326.338 100.525L318.088 98.8756L309.837 100.525L308.486 106.226L295.884 108.956C295.884 108.956 301.434 131.429 303.985 134.879C306.535 138.33 318.086 143.579 318.086 143.579C318.086 143.579 329.638 138.328 332.188 134.879C334.738 131.428 340.288 108.956 340.288 108.956L327.689 106.226Z" fill="#FFDD50"/>
<path d="M321.288 116.084C321.288 113.921 319.534 112.168 317.371 112.168C315.208 112.168 313.454 113.921 313.454 116.084C313.454 117.456 314.163 118.66 315.231 119.361L313.454 130.29H317.371H321.288L319.511 119.361C320.58 118.66 321.288 117.456 321.288 116.084Z" fill="#724F00"/>
<path d="M332.715 135.354C330.948 137.901 319.438 144.193 318.087 144.334C316.735 144.193 305.225 137.899 303.458 135.354C301.691 132.81 295.221 109.403 295.221 109.403C295.221 109.403 299.868 134.593 302.327 137.899C305.234 141.808 318.087 149.355 318.087 149.355C318.087 149.355 330.939 141.808 333.846 137.899C336.304 134.593 340.722 109.403 340.722 109.403C340.722 109.403 334.484 132.808 332.715 135.354Z" fill="black"/>
<path d="M296.556 109.403L309.072 106.646L310.451 100.865L318.087 99.1682V101.343L311.298 102.669L309.973 107.76L296.927 110.942L296.556 109.403Z" fill="white"/>
<path opacity="0.71" d="M339.618 109.403L327.102 106.646L325.723 100.865L318.086 99.1682V101.343L324.874 102.669L326.2 107.76L339.247 110.942L339.618 109.403Z" fill="white"/>
<path d="M318.086 131.253V142.142C318.086 142.142 328.941 137.585 331.317 134.647C333.692 131.71 337.994 114.509 338.392 112.67C338.392 112.67 334.074 130.546 329.337 133.446C324.6 136.344 320.058 135.495 318.086 131.253Z" fill="black"/>
<path d="M327.516 136.715C327.516 136.715 319.058 140.481 318.713 140.508V134.622C318.713 134.622 322.292 138.492 327.516 136.715Z" fill="black"/>
<path opacity="0.51" d="M246.868 202.059C246.868 202.059 239.961 189.093 237.346 179.548C237.346 179.548 229.073 180.538 224.547 174.669C224.547 174.669 230.608 194.596 236.85 200.62C236.85 200.62 240.694 204.277 246.868 202.059Z" fill="black"/>
<path opacity="0.74" d="M237.476 181.582C237.476 181.582 229.313 182.136 225.854 177.016C225.854 177.016 229.867 189.33 234.157 194.658C234.157 194.658 230.628 188.224 231.321 185.837C232.013 183.451 239.042 185.499 240.175 188.847C240.175 188.847 237.685 182.897 237.476 181.582Z" fill="black"/>
<path d="M233.88 169.507L236.779 178.487C236.779 178.487 229.355 179.194 224.547 173.537C224.547 173.537 221.153 162.294 219.809 155.152C219.809 155.152 223.062 168.446 227.375 172.123C231.688 175.8 234.305 172.972 233.88 169.507Z" fill="white"/>
<path opacity="0.51" d="M389.56 201.736C389.56 201.736 396.467 188.771 399.082 179.225C399.082 179.225 407.355 180.215 411.881 174.346C411.881 174.346 405.82 194.273 399.578 200.298C399.578 200.298 395.735 203.953 389.56 201.736Z" fill="black"/>
<path opacity="0.74" d="M398.952 181.259C398.952 181.259 407.115 181.813 410.575 176.694C410.575 176.694 406.562 189.008 402.273 194.334C402.273 194.334 405.801 187.9 405.109 185.513C404.417 183.127 397.388 185.175 396.254 188.523C396.254 188.523 398.745 182.573 398.952 181.259Z" fill="black"/>
<path d="M402.548 169.184L399.649 178.163C399.649 178.163 407.073 178.87 411.881 173.213C411.881 173.213 415.275 161.97 416.619 154.829C416.619 154.829 413.366 168.122 409.053 171.799C404.74 175.476 402.124 172.648 402.548 169.184Z" fill="white"/>
<path opacity="0.51" d="M235.707 162.224C235.707 162.224 239.936 183.036 244.937 192.75C244.937 192.75 276.565 198.074 317.677 198.074C358.789 198.074 390.418 192.75 390.418 192.75C395.418 183.035 399.648 162.224 399.648 162.224C379.418 200.72 255.54 200.661 235.707 162.224Z" fill="black"/>
<path d="M305.51 106.009H215.991V108.131H294.054L305.51 106.009Z" fill="black"/>
<path d="M330.493 105.822H420.012V107.943H341.948L330.493 105.822Z" fill="black"/>
<path d="M218.466 216.245L231.115 193.726L233.88 199.346L220.587 217.095L218.466 216.245Z" fill="white"/>
<path d="M418.282 215.876L405.633 193.357L402.868 198.976L416.161 216.725L418.282 215.876Z" fill="white"/>
<path d="M479.693 154.506L466.514 178.549C466.514 178.549 470.967 181.487 475.865 179.618L489.667 164.747L479.693 154.506Z" fill="#D3950B"/>
<path d="M622.894 154.506L636.073 178.549C636.073 178.549 631.62 181.487 626.723 179.618L612.919 164.747L622.894 154.506Z" fill="#D3950B"/>
<path d="M621.22 49.5312C621.22 49.5312 587.89 39.187 551.111 39.187C514.333 39.187 481.002 49.5312 481.002 49.5312C471.808 62.1735 464.911 85.1599 464.911 85.1599H551.111H637.311C637.311 85.1599 630.415 62.1735 621.22 49.5312Z" fill="#8C6239"/>
<path d="M551.111 85.16H464.912C464.912 85.16 466.099 140.585 483.672 165.281C483.672 165.281 518.817 170.98 551.112 170.98C583.408 170.98 618.553 165.281 618.553 165.281C636.125 140.585 637.312 85.16 637.312 85.16H551.111Z" fill="#8C6239"/>
<g opacity="0.64">
<mask id="mask3_1_337" style="mask-type:luminance" maskUnits="userSpaceOnUse" x="464" y="39" width="174" height="47">
<path d="M621.22 49.5312C621.22 49.5312 587.89 39.187 551.111 39.187C514.333 39.187 481.002 49.5312 481.002 49.5312C471.808 62.1735 464.911 85.1599 464.911 85.1599H551.111H637.311C637.311 85.1599 630.415 62.1735 621.22 49.5312Z" fill="white"/>
</mask>
<g mask="url(#mask3_1_337)">
<path d="M624.625 70.6337C624.625 70.6337 603.406 70.0287 580.422 69.6785C557.437 69.3283 536.623 69.6239 531.739 71.6355C526.855 73.647 552.671 80.3036 578.332 82.6221C578.332 82.6221 552.259 78.8799 550.253 75.6813C548.247 72.4826 559.801 69.873 588.114 72.1949C616.427 74.5169 624.713 77.3346 624.713 77.3346L624.625 70.6337Z" fill="#63391D"/>
<path d="M621.192 78.4534C621.192 78.4534 588.379 72.3688 576.993 72.8475C565.609 73.3251 568.427 78.674 582.849 80.084C597.271 81.494 597.91 79.0766 595.602 78.3625C593.292 77.6484 587.004 77.3163 587.004 77.3163C587.004 77.3163 593.691 78.0566 593.704 79.0425C593.716 80.0283 581.014 79.8828 576.409 78.1635C571.803 76.4442 572.029 73.6208 581.597 74.4508C591.166 75.2809 611.098 77.5824 620.176 80.8084C629.252 84.0343 621.192 78.4534 621.192 78.4534Z" fill="#63391D"/>
<path d="M479.66 69.1996C481.217 68.9676 484.796 71.5147 500.739 74.0982C516.682 76.6829 533.2 83.6078 533.2 83.6078L524.388 82.9289C524.388 82.9289 521.022 78.0906 500.37 75.8209C479.718 73.5513 473.381 69.5805 473.381 69.5805L479.66 69.1996Z" fill="#63391D"/>
<path d="M479.467 74.4006C479.467 74.4006 490.229 76.3371 497.975 77.9541C505.721 79.5699 507.679 81.6428 507.679 81.6428L505.423 81.4688C505.423 81.4688 505.196 79.4118 497.589 78.4157C489.981 77.4196 478.965 76.0415 478.965 76.0415L479.467 74.4006Z" fill="#63391D"/>
<path d="M478.797 63.2207C478.797 63.2207 489.819 64.99 499.264 66.375C508.71 67.76 538.136 65.1481 542.067 65.3812C542.067 65.3812 535.476 64.5772 529.004 65.239C522.531 65.8997 510.366 66.7377 500.923 65.6131C491.481 64.4885 478.281 61.3331 478.281 61.3331L478.797 63.2207Z" fill="#63391D"/>
<path d="M479.745 60.6429C479.745 60.6429 495.728 64.1815 503.138 64.9889C510.549 65.7962 521.144 65.0105 521.144 65.0105C521.144 65.0105 508.577 65.2083 502.669 63.9666C496.76 62.7249 478.744 59.2613 478.744 59.2613L479.745 60.6429Z" fill="#63391D"/>
<path d="M621.207 49.5027C621.207 49.5027 600.726 46.6122 577.579 48.1154C554.432 49.6198 520.102 52.7354 501.809 50.6625C483.517 48.5896 482.065 42.6949 490.107 41.8852C498.149 41.0756 516.595 39.8646 522.723 42.8359C528.851 45.8071 518.843 46.561 515.113 46.6577C515.113 46.6577 525.532 47.3319 528.635 44.3562C531.738 41.3804 512.839 37.9998 498.52 39.3654C484.2 40.7311 480.496 42.8347 482.89 45.715C485.285 48.5964 489.263 52.3829 522.07 53.0186C554.878 53.6542 603.029 46.9089 622.634 53.4336L621.207 49.5027Z" fill="#63391D"/>
<path d="M620.881 54.6949C620.881 54.6949 603.944 51.1028 585.304 52.5321C566.664 53.9615 552.759 57.0112 555.336 58.8192C557.912 60.6271 621.974 63.2561 621.974 63.2561L621.95 61.4288C621.95 61.4288 586.714 60.1416 574.009 59.9654C561.304 59.7902 548.886 57.5035 571.978 54.8518C595.07 52.2001 617.747 55.4067 621.895 57.1635C626.043 58.9204 620.881 54.6949 620.881 54.6949Z" fill="#63391D"/>
<path d="M621.896 57.1636C621.896 57.1636 600.055 54.1196 588.483 55.3079C576.911 56.4961 571.414 56.6769 572.805 57.9596C574.197 59.2411 597.253 58.1006 597.253 58.1006C597.253 58.1006 582.436 58.5099 582.227 57.5707C582.017 56.6315 603.793 54.6279 621.919 58.9921L621.896 57.1636Z" fill="#63391D"/>
</g>
</g>
<g opacity="0.64">
<mask id="mask4_1_337" style="mask-type:luminance" maskUnits="userSpaceOnUse" x="464" y="85" width="174" height="86">
<path d="M551.111 85.16H464.912C464.912 85.16 466.099 140.585 483.672 165.281C483.672 165.281 518.817 170.98 551.112 170.98C583.408 170.98 618.553 165.281 618.553 165.281C636.125 140.585 637.312 85.16 637.312 85.16H551.111Z" fill="white"/>
</mask>
<g mask="url(#mask4_1_337)">
<path d="M633.699 166.403C633.699 166.403 610.645 165.798 585.673 165.448C560.703 165.098 538.088 165.394 532.781 167.405C527.475 169.417 555.523 176.073 583.402 178.392C583.402 178.392 555.076 174.65 552.896 171.451C550.717 168.252 563.27 165.643 594.03 167.965C624.791 170.286 633.792 173.104 633.792 173.104L633.699 166.403Z" fill="#63391D"/>
<path d="M629.969 174.222C629.969 174.222 594.319 168.139 581.949 168.616C569.58 169.094 572.643 174.443 588.311 175.853C603.979 177.263 604.674 174.845 602.166 174.131C599.657 173.417 592.824 173.085 592.824 173.085C592.824 173.085 600.09 173.825 600.104 174.811C600.118 175.797 586.317 175.651 581.314 173.932C576.31 172.213 576.555 169.389 586.951 170.219C597.348 171.05 619.004 173.351 628.865 176.577C638.726 179.804 629.969 174.222 629.969 174.222Z" fill="#63391D"/>
<path d="M476.2 164.969C477.892 164.737 481.78 167.285 499.102 169.868C516.423 172.452 534.369 179.378 534.369 179.378L524.795 178.699C524.795 178.699 521.138 173.86 498.699 171.591C476.262 169.321 469.377 165.35 469.377 165.35L476.2 164.969Z" fill="#63391D"/>
<path d="M475.99 170.171C475.99 170.171 487.682 172.108 496.098 173.724C504.514 175.34 506.64 177.413 506.64 177.413L504.19 177.239C504.19 177.239 503.943 175.182 495.677 174.186C487.412 173.19 475.443 171.811 475.443 171.811L475.99 170.171Z" fill="#63391D"/>
<path d="M475.262 158.989C475.262 158.989 487.237 160.759 497.499 162.144C507.761 163.529 539.732 160.917 544.003 161.15C544.003 161.15 536.843 160.346 529.811 161.008C522.779 161.67 509.56 162.507 499.302 161.382C489.043 160.257 474.702 157.102 474.702 157.102L475.262 158.989Z" fill="#63391D"/>
<path d="M476.292 156.412C476.292 156.412 493.657 159.95 501.708 160.758C509.76 161.565 521.271 160.779 521.271 160.779C521.271 160.779 507.617 160.977 501.198 159.735C494.779 158.494 475.205 155.03 475.205 155.03L476.292 156.412Z" fill="#63391D"/>
<path d="M629.985 145.272C629.985 145.272 607.733 142.381 582.584 143.885C557.436 145.39 520.137 148.505 500.262 146.432C480.388 144.36 478.811 138.465 487.548 137.655C496.286 136.846 516.327 135.635 522.984 138.606C529.64 141.577 518.769 142.331 514.716 142.428C514.716 142.428 526.035 143.101 529.407 140.125C532.779 137.149 512.246 133.769 496.688 135.134C481.131 136.5 477.106 138.604 479.708 141.485C482.31 144.366 486.631 148.153 522.275 148.787C557.92 149.423 610.235 142.678 631.535 149.202L629.985 145.272Z" fill="#63391D"/>
<path d="M629.632 150.465C629.632 150.465 611.23 146.873 590.979 148.302C570.727 149.73 555.621 152.781 558.42 154.589C561.22 156.397 630.82 159.026 630.82 159.026L630.794 157.199C630.794 157.199 592.511 155.911 578.707 155.736C564.904 155.561 551.412 153.274 576.501 150.623C601.59 147.971 626.228 151.178 630.734 152.934C635.239 154.689 629.632 150.465 629.632 150.465Z" fill="#63391D"/>
<path d="M630.734 152.933C630.734 152.933 607.005 149.889 594.432 151.077C581.859 152.266 575.887 152.446 577.398 153.729C578.911 155.011 603.961 153.87 603.961 153.87C603.961 153.87 587.862 154.279 587.636 153.34C587.409 152.401 611.067 150.397 630.76 154.76L630.734 152.933Z" fill="#63391D"/>
<path d="M632.962 114.475C632.962 114.475 572.081 114.761 552.193 116.817C532.306 118.872 516.589 119.438 501.078 116.383C485.567 113.329 481.217 107.448 481.217 107.448L485.777 108.07C485.777 108.07 491.356 114.956 516.054 116.404C540.752 117.851 585.112 110.841 636.072 113.141L632.962 114.475Z" fill="#63391D"/>
<path d="M628.71 115.505C628.71 115.505 589.447 115.481 565.589 118.412C541.732 121.344 549.508 129.381 582.387 129.902C615.265 130.424 621.718 123.988 619.413 121.969C617.108 119.949 594.907 119.29 584.133 121.997C584.133 121.997 608.772 119.731 612.879 122.719C616.986 125.707 604.692 127.061 590.327 127.338C575.962 127.616 562.708 126.872 561.955 122.972C561.202 119.072 611.629 114.827 628.744 117.865L628.71 115.505Z" fill="#63391D"/>
<path d="M471.916 118.715C471.916 118.715 489.185 117.646 502.661 119.956C516.137 122.267 555.073 131.839 555.073 131.839L547.423 131.546C547.423 131.546 521.926 124.202 510.387 123.03C498.847 121.858 471.95 121.151 471.95 121.151L471.916 118.715Z" fill="#63391D"/>
<path d="M470.902 122.392C470.902 122.392 504.198 122.891 511.49 125.543C518.782 128.195 493.812 127.887 493.812 127.887C493.812 127.887 507.037 127.485 507.026 126.702C507.014 125.918 474.979 123.976 471.99 123.85C469.001 123.723 469.625 122.561 469.625 122.561" fill="#63391D"/>
<path d="M630.872 102.429C630.872 102.429 613.681 99.0155 596.838 95.0277C579.996 91.0399 533.296 88.2813 522.553 93.0776C511.81 97.8739 540.346 102.925 560.53 102.224C560.53 102.224 539.164 100.756 537.416 97.8488C535.668 94.9413 545.842 90.1052 573.214 94.2636C600.586 98.4231 631.131 105.612 633.695 105.871C636.258 106.133 630.872 102.429 630.872 102.429Z" fill="#63391D"/>
<path d="M469.127 91.5607C469.127 91.5607 497.823 94.7309 509.267 99.2577C520.712 103.786 525.285 105.245 525.285 105.245L517.551 105.25C517.551 105.25 509.841 99.5295 494.736 97.8125C479.632 96.0954 466.251 95.4291 466.251 95.4291L461.917 92.5158L469.127 91.5607Z" fill="#63391D"/>
</g>
</g>
<path d="M621.639 49.2197C616.118 42.571 608.702 46.2507 608.702 46.2507C619.749 55.2133 622.588 74.0948 622.588 74.0948H551.111H479.635C479.635 74.0948 482.474 55.2144 493.521 46.2507C493.521 46.2507 486.105 42.571 480.584 49.2197C480.584 49.2197 471.086 61.0807 464.911 85.1599H551.111H637.311C631.137 61.0819 621.639 49.2197 621.639 49.2197Z" fill="#EFB933"/>
<path d="M617.365 158.631C617.365 158.631 593.856 164.33 551.111 164.093C508.368 163.855 482.959 159.343 483.671 158.631C484.384 157.92 485.366 165.544 485.366 165.544C485.366 165.544 542.087 180.767 615.702 165.544L617.365 158.631Z" fill="#D3950B"/>
<path d="M637.311 85.16H551.111H464.912C463.117 141.617 482.366 165.399 482.366 165.399C486.402 169.436 492.007 166.493 492.007 166.493C475 135.277 475.838 97.5089 475.838 97.5089H551.112H626.387C626.387 97.5089 627.225 135.278 610.217 166.494C610.217 166.494 615.821 169.437 619.858 165.401C619.858 165.401 639.107 141.617 637.311 85.16Z" fill="#EFB933"/>
<path d="M559.172 85.9411L558.038 81.1551L551.111 79.7701L544.184 81.1551L543.05 85.9411L532.471 88.2335C532.471 88.2335 537.131 107.101 539.272 109.998C541.413 112.895 551.111 117.302 551.111 117.302C551.111 117.302 560.809 112.894 562.951 109.998C565.092 107.1 569.752 88.2335 569.752 88.2335L559.172 85.9411Z" fill="#FFDD50"/>
<path d="M553.799 94.2181C553.799 92.4022 552.327 90.9296 550.511 90.9296C548.695 90.9296 547.222 92.4022 547.222 94.2181C547.222 95.37 547.817 96.3809 548.714 96.9687L547.222 106.145H550.511H553.799L552.307 96.9687C553.204 96.3809 553.799 95.37 553.799 94.2181Z" fill="#724F00"/>
<path d="M563.393 110.397C561.909 112.534 552.246 117.817 551.111 117.936C549.976 117.817 540.313 112.533 538.829 110.397C537.345 108.259 531.913 88.6087 531.913 88.6087C531.913 88.6087 535.815 109.758 537.88 112.533C540.32 115.815 551.111 122.151 551.111 122.151C551.111 122.151 561.902 115.815 564.342 112.533C566.407 109.758 570.115 88.6087 570.115 88.6087C570.115 88.6087 564.877 108.259 563.393 110.397Z" fill="black"/>
<path d="M533.035 88.6088L543.543 86.2936L544.7 81.4405L551.111 80.0157V81.8419L545.412 82.9551L544.299 87.2295L533.346 89.9005L533.035 88.6088Z" fill="white"/>
<path opacity="0.71" d="M569.189 88.6088L558.681 86.2936L557.523 81.4405L551.111 80.0157V81.8419L556.81 82.9551L557.924 87.2295L568.877 89.9005L569.189 88.6088Z" fill="white"/>
<path d="M551.111 106.954V116.096C551.111 116.096 560.225 112.27 562.22 109.803C564.214 107.337 567.826 92.8957 568.16 91.3515C568.16 91.3515 564.535 106.36 560.557 108.795C556.581 111.228 552.767 110.515 551.111 106.954Z" fill="black"/>
<path d="M559.029 111.54C559.029 111.54 551.927 114.701 551.637 114.723V109.782C551.637 109.782 554.643 113.031 559.029 111.54Z" fill="black"/>
<path opacity="0.51" d="M491.318 166.4C491.318 166.4 485.52 155.514 483.323 147.5C483.323 147.5 476.378 148.331 472.578 143.404C472.578 143.404 477.666 160.134 482.907 165.192C482.907 165.192 486.134 168.262 491.318 166.4Z" fill="black"/>
<path opacity="0.74" d="M483.432 149.208C483.432 149.208 476.578 149.673 473.674 145.375C473.674 145.375 477.043 155.714 480.644 160.187C480.644 160.187 477.682 154.785 478.263 152.781C478.844 150.777 484.746 152.497 485.698 155.308C485.698 155.308 483.608 150.312 483.432 149.208Z" fill="black"/>
<path d="M480.413 139.071L482.848 146.61C482.848 146.61 476.614 147.203 472.577 142.454C472.577 142.454 469.728 133.015 468.6 127.019C468.6 127.019 471.331 138.179 474.952 141.267C478.573 144.354 480.769 141.98 480.413 139.071Z" fill="white"/>
<path opacity="0.51" d="M611.118 166.129C611.118 166.129 616.917 155.244 619.113 147.23C619.113 147.23 626.058 148.061 629.858 143.134C629.858 143.134 624.77 159.864 619.529 164.922C619.529 164.922 616.302 167.991 611.118 166.129Z" fill="black"/>
<path opacity="0.74" d="M619.004 148.938C619.004 148.938 625.858 149.403 628.761 145.104C628.761 145.104 625.392 155.443 621.791 159.915C621.791 159.915 624.753 154.513 624.172 152.509C623.591 150.506 617.689 152.225 616.738 155.036C616.738 155.036 618.829 150.041 619.004 148.938Z" fill="black"/>
<path d="M622.023 138.799L619.589 146.338C619.589 146.338 625.823 146.932 629.86 142.182C629.86 142.182 632.709 132.743 633.837 126.747C633.837 126.747 631.106 137.908 627.485 140.995C623.863 144.082 621.666 141.708 622.023 138.799Z" fill="white"/>
<path opacity="0.51" d="M481.947 132.956C481.947 132.956 485.498 150.429 489.696 158.585C489.696 158.585 516.251 163.055 550.768 163.055C585.284 163.055 611.839 158.585 611.839 158.585C616.037 150.428 619.588 132.956 619.588 132.956C602.603 165.277 498.599 165.227 481.947 132.956Z" fill="black"/>
<path opacity="0.49" d="M481.432 69.5237C481.432 69.5237 484.494 58.5314 492.474 47.646C492.474 47.646 515.994 40.4981 550.51 40.4981C585.027 40.4981 608.585 47.646 608.585 47.646C616.734 56.5221 620.696 69.3736 620.696 69.3736C603.71 37.0539 498.083 37.254 481.432 69.5237Z" fill="white"/>
<path d="M483.008 60.0834C483.008 60.0834 486.961 50.0963 492.473 46.4962C492.473 46.4962 486.034 44.7655 482.431 48.2394C478.829 51.7132 474.519 59.4932 473.667 62.3849C473.667 62.3849 478.793 56.8779 483.008 60.0834Z" fill="white"/>
<path d="M618.971 59.8708C618.971 59.8708 615.018 49.8837 609.506 46.2836C609.506 46.2836 615.945 44.553 619.548 48.0268C623.15 51.5006 627.46 59.2807 628.313 62.1723C628.313 62.1723 623.187 56.6653 618.971 59.8708Z" fill="white"/>
<path d="M540.551 85.7592H465.393V87.541H530.934L540.551 85.7592Z" fill="black"/>
<path d="M561.528 85.6023H636.684V87.383H571.144L561.528 85.6023Z" fill="black"/>
<path d="M467.472 178.311L478.091 159.405L480.413 164.122L469.253 179.024L467.472 178.311Z" fill="white"/>
<path d="M635.232 178.001L624.613 159.094L622.29 163.812L633.452 178.714L635.232 178.001Z" fill="white"/>
</svg>
