<svg width="326" height="112" viewBox="0 0 326 112" fill="none" xmlns="http://www.w3.org/2000/svg">
<path d="M7.81123 78.7209L1.0918 90.9793C1.0918 90.9793 3.36214 92.4774 5.85917 91.5243L12.8963 83.9422L7.81123 78.7209Z" fill="#D3950B"/>
<path d="M80.8235 78.7209L87.5429 90.9793C87.5429 90.9793 85.2725 92.4774 82.7755 91.5243L75.7378 83.9422L80.8235 78.7209Z" fill="#D3950B"/>
<path d="M79.9701 25.1984C79.9701 25.1984 62.9762 19.9243 44.2244 19.9243C25.4726 19.9243 8.47861 25.1984 8.47861 25.1984C3.79066 31.6442 0.274414 43.3641 0.274414 43.3641H44.2244H88.1743C88.1743 43.3641 84.6581 31.6442 79.9701 25.1984Z" fill="#8C6239"/>
<path d="M44.2243 43.3641H0.274902C0.274902 43.3641 0.880171 71.6229 9.8398 84.2147C9.8398 84.2147 27.7585 87.1204 44.2249 87.1204C60.6912 87.1204 78.6099 84.2147 78.6099 84.2147C87.5695 71.6229 88.1748 43.3641 88.1748 43.3641H44.2243Z" fill="#8C6239"/>
<g opacity="0.64">
<mask id="mask0_1_1210" style="mask-type:luminance" maskUnits="userSpaceOnUse" x="0" y="19" width="89" height="25">
<path d="M79.9701 25.1984C79.9701 25.1984 62.9762 19.9243 44.2244 19.9243C25.4726 19.9243 8.47861 25.1984 8.47861 25.1984C3.79066 31.6442 0.274414 43.3641 0.274414 43.3641H44.2244H88.1743C88.1743 43.3641 84.6581 31.6442 79.9701 25.1984Z" fill="white"/>
</mask>
<g mask="url(#mask0_1_1210)">
<path d="M81.706 35.9576C81.706 35.9576 70.8871 35.6492 59.1683 35.4706C47.4496 35.292 36.8371 35.4428 34.347 36.4684C31.857 37.494 45.0193 40.8879 58.1027 42.07C58.1027 42.07 44.8094 40.162 43.7867 38.5312C42.764 36.9003 48.655 35.5698 63.0904 36.7536C77.5259 37.9375 81.7506 39.3741 81.7506 39.3741L81.706 35.9576Z" fill="#63391D"/>
<path d="M79.956 39.9446C79.956 39.9446 63.2258 36.8423 57.4207 37.0864C51.6161 37.3299 53.0533 40.0571 60.4064 40.776C67.7596 41.4949 68.0854 40.2623 66.9085 39.8982C65.731 39.5341 62.5249 39.3648 62.5249 39.3648C62.5249 39.3648 65.9345 39.7423 65.9408 40.2449C65.9472 40.7476 59.4707 40.6734 57.1227 39.7968C54.7746 38.9202 54.8894 37.4806 59.7681 37.9038C64.6468 38.3271 74.8095 39.5005 79.4377 41.1453C84.0653 42.7901 79.956 39.9446 79.956 39.9446Z" fill="#63391D"/>
<path d="M7.79421 35.2266C8.5879 35.1083 10.413 36.407 18.5418 37.7242C26.6701 39.042 35.0923 42.5727 35.0923 42.5727L30.5991 42.2266C30.5991 42.2266 28.883 39.7597 18.3534 38.6025C7.82378 37.4453 4.59277 35.4208 4.59277 35.4208L7.79421 35.2266Z" fill="#63391D"/>
<path d="M7.69562 37.8784C7.69562 37.8784 13.1831 38.8657 17.1324 39.6901C21.0817 40.514 22.0801 41.5709 22.0801 41.5709L20.9298 41.4822C20.9298 41.4822 20.8139 40.4334 16.9353 39.9255C13.0567 39.4176 7.43994 38.715 7.43994 38.715L7.69562 37.8784Z" fill="#63391D"/>
<path d="M7.35403 32.1781C7.35403 32.1781 12.9737 33.0803 17.7892 33.7864C22.6052 34.4926 37.6083 33.1608 39.6125 33.2797C39.6125 33.2797 36.2522 32.8698 32.9522 33.2072C29.6522 33.5441 23.4494 33.9713 18.635 33.398C13.8207 32.8246 7.09082 31.2157 7.09082 31.2157L7.35403 32.1781Z" fill="#63391D"/>
<path d="M7.83734 30.8638C7.83734 30.8638 15.9865 32.668 19.7648 33.0797C23.5431 33.4913 28.9453 33.0907 28.9453 33.0907C28.9453 33.0907 22.5378 33.1916 19.5253 32.5585C16.5129 31.9254 7.32715 30.1594 7.32715 30.1594L7.83734 30.8638Z" fill="#63391D"/>
<path d="M79.9631 25.1839C79.9631 25.1839 69.5204 23.7101 57.7188 24.4766C45.9172 25.2436 28.4136 26.8321 19.087 25.7752C9.76039 24.7183 9.02004 21.7129 13.1207 21.3001C17.2208 20.8873 26.6256 20.2698 29.75 21.7847C32.8743 23.2997 27.7718 23.684 25.8702 23.7333C25.8702 23.7333 31.182 24.0771 32.7642 22.5599C34.3463 21.0426 24.7107 19.319 17.4098 20.0153C10.1088 20.7116 8.21997 21.7842 9.44095 23.2527C10.6619 24.7218 12.6899 26.6524 29.4172 26.9765C46.1445 27.3006 70.695 23.8614 80.6907 27.1881L79.9631 25.1839Z" fill="#63391D"/>
<path d="M79.7974 27.8311C79.7974 27.8311 71.1618 25.9996 61.6578 26.7284C52.1544 27.4571 45.0645 29.012 46.3782 29.9339C47.6919 30.8557 80.3545 32.1961 80.3545 32.1961L80.3424 31.2644C80.3424 31.2644 62.3767 30.6081 55.899 30.5183C49.4214 30.429 43.0898 29.2631 54.8636 27.9111C66.6374 26.5591 78.1996 28.194 80.3139 29.0897C82.4289 29.9855 79.7974 27.8311 79.7974 27.8311Z" fill="#63391D"/>
<path d="M80.3145 29.0898C80.3145 29.0898 69.179 27.5377 63.2788 28.1436C57.3786 28.7494 54.576 28.8416 55.2851 29.4956C55.9947 30.149 67.7505 29.5675 67.7505 29.5675C67.7505 29.5675 60.1956 29.7762 60.089 29.2973C59.9823 28.8184 71.0847 27.7969 80.3267 30.022L80.3145 29.0898Z" fill="#63391D"/>
</g>
</g>
<g opacity="0.64">
<mask id="mask1_1_1210" style="mask-type:luminance" maskUnits="userSpaceOnUse" x="0" y="43" width="89" height="45">
<path d="M44.2243 43.3641H0.274902C0.274902 43.3641 0.880171 71.6229 9.8398 84.2147C9.8398 84.2147 27.7585 87.1204 44.2249 87.1204C60.6912 87.1204 78.6099 84.2147 78.6099 84.2147C87.5695 71.6229 88.1748 43.3641 88.1748 43.3641H44.2243Z" fill="white"/>
</mask>
<g mask="url(#mask1_1_1210)">
<path d="M86.3321 84.7868C86.3321 84.7868 74.578 84.4784 61.8459 84.2998C49.1143 84.1213 37.584 84.272 34.8783 85.2976C32.1731 86.3232 46.4735 89.7171 60.6881 90.8993C60.6881 90.8993 46.2457 88.9913 45.1343 87.3604C44.0229 85.7295 50.4234 84.399 66.1065 85.5828C81.7902 86.7667 86.3796 88.2034 86.3796 88.2034L86.3321 84.7868Z" fill="#63391D"/>
<path d="M84.4308 88.7733C84.4308 88.7733 66.2542 85.6716 59.9475 85.915C53.6409 86.1585 55.2028 88.8857 63.1913 89.6046C71.1798 90.3236 71.534 89.091 70.2551 88.7269C68.9761 88.3628 65.4924 88.1935 65.4924 88.1935C65.4924 88.1935 69.197 88.5709 69.204 89.0736C69.2109 89.5762 62.1744 89.502 59.6234 88.6254C57.0725 87.7488 57.1971 86.3093 62.4979 86.7325C67.7986 87.1557 78.8402 88.3292 83.8679 89.974C88.8956 91.6193 84.4308 88.7733 84.4308 88.7733Z" fill="#63391D"/>
<path d="M6.02984 84.0558C6.89252 83.9375 8.8753 85.2362 17.7068 86.5534C26.5383 87.8706 35.6881 91.4019 35.6881 91.4019L30.8065 91.0558C30.8065 91.0558 28.942 88.5889 17.5016 87.4317C6.06172 86.2745 2.55127 84.25 2.55127 84.25L6.02984 84.0558Z" fill="#63391D"/>
<path d="M5.92291 86.7076C5.92291 86.7076 11.8846 87.6955 16.1754 88.5193C20.4662 89.3432 21.5504 90.4001 21.5504 90.4001L20.301 90.3114C20.301 90.3114 20.1752 89.2626 15.9609 88.7547C11.7466 88.2468 5.64404 87.5442 5.64404 87.5442L5.92291 86.7076Z" fill="#63391D"/>
<path d="M5.55184 81.0068C5.55184 81.0068 11.6573 81.9089 16.8897 82.6151C22.122 83.3212 38.4226 81.9895 40.6001 82.1084C40.6001 82.1084 36.9494 81.6985 33.3641 82.0359C29.7789 82.3733 23.0392 82.8 17.8092 82.2266C12.5785 81.6533 5.2666 80.0444 5.2666 80.0444L5.55184 81.0068Z" fill="#63391D"/>
<path d="M6.07671 79.6925C6.07671 79.6925 14.9302 81.4967 19.0355 81.9083C23.1408 82.3199 29.0097 81.9193 29.0097 81.9193C29.0097 81.9193 22.048 82.0202 18.7752 81.3871C15.5025 80.754 5.52246 78.9881 5.52246 78.9881L6.07671 79.6925Z" fill="#63391D"/>
<path d="M84.4389 74.0126C84.4389 74.0126 73.0936 72.5388 60.271 73.3058C47.449 74.0729 28.4317 75.6614 18.2986 74.6045C8.16552 73.5476 7.3614 70.5421 11.8163 70.1293C16.2712 69.7165 26.4895 69.0991 29.8834 70.614C33.2773 72.1289 27.7342 72.5133 25.6679 72.5626C25.6679 72.5626 31.4389 72.9058 33.1584 71.3886C34.8774 69.8713 24.4087 68.1477 16.4764 68.844C8.54411 69.5403 6.49233 70.6128 7.81883 72.082C9.14532 73.5511 11.3484 75.4817 29.5222 75.8052C47.696 76.1293 74.369 72.6901 85.2291 76.0168L84.4389 74.0126Z" fill="#63391D"/>
<path d="M84.259 76.6603C84.259 76.6603 74.8767 74.8289 64.5512 75.5576C54.2256 76.2858 46.5235 77.8413 47.9509 78.7631C49.3783 79.6849 84.8649 81.0254 84.8649 81.0254L84.8515 80.0937C84.8515 80.0937 65.3327 79.4374 58.2944 79.3481C51.2567 79.2588 44.3778 78.0929 57.1697 76.7409C69.9615 75.3889 82.5232 77.0238 84.8208 77.9196C87.1178 78.8141 84.259 76.6603 84.259 76.6603Z" fill="#63391D"/>
<path d="M84.8206 77.9189C84.8206 77.9189 72.7222 76.3669 66.3118 76.9728C59.9013 77.5786 56.8564 77.6708 57.6269 78.3248C58.398 78.9782 71.1702 78.3967 71.1702 78.3967C71.1702 78.3967 62.9619 78.6054 62.8465 78.1265C62.7311 77.6476 74.7931 76.6261 84.834 78.8506L84.8206 77.9189Z" fill="#63391D"/>
<path d="M85.957 58.3108C85.957 58.3108 54.916 58.4563 44.776 59.5045C34.6366 60.5527 26.6231 60.8409 18.7146 59.2837C10.8061 57.7264 8.58789 54.7279 8.58789 54.7279L10.9133 55.045C10.9133 55.045 13.7576 58.5561 26.35 59.2941C38.9424 60.0321 61.5601 56.4579 87.5427 57.6308L85.957 58.3108Z" fill="#63391D"/>
<path d="M83.7889 58.8356C83.7889 58.8356 63.7703 58.8234 51.6063 60.318C39.4423 61.8126 43.4073 65.9104 60.1706 66.1765C76.9338 66.4426 80.2239 63.1612 79.0487 62.1315C77.8736 61.1019 66.5543 60.7656 61.0611 62.146C61.0611 62.146 73.6233 60.9905 75.7174 62.5142C77.8115 64.0372 71.5431 64.7277 64.219 64.8691C56.8949 65.0106 50.1372 64.6314 49.7534 62.6429C49.3696 60.6543 75.0803 58.49 83.8063 60.0392L83.7889 58.8356Z" fill="#63391D"/>
<path d="M3.8457 60.4723C3.8457 60.4723 12.6505 59.9273 19.5213 61.1053C26.392 62.2834 46.2442 67.1639 46.2442 67.1639L42.3436 67.0143C42.3436 67.0143 29.3436 63.2702 23.4602 62.6724C17.5768 62.0747 3.8631 61.7147 3.8631 61.7147L3.8457 60.4723Z" fill="#63391D"/>
<path d="M3.32909 62.3472C3.32909 62.3472 20.3051 62.6017 24.0231 63.9537C27.7411 65.3057 15.0101 65.1492 15.0101 65.1492C15.0101 65.1492 21.7527 64.9439 21.7469 64.5445C21.7411 64.145 5.40753 63.1548 3.88392 63.0904C2.35973 63.0261 2.67802 62.4336 2.67802 62.4336" fill="#63391D"/>
<path d="M84.8908 52.1689C84.8908 52.1689 76.1259 50.4285 67.5385 48.3953C58.9511 46.362 35.1409 44.9556 29.6633 47.401C24.1857 49.8464 38.7354 52.4217 49.0262 52.0646C49.0262 52.0646 38.1325 51.3161 37.2414 49.8337C36.3503 48.3512 41.5374 45.8855 55.4934 48.0057C69.4494 50.1264 85.023 53.7917 86.3303 53.9239C87.6371 54.0572 84.8908 52.1689 84.8908 52.1689Z" fill="#63391D"/>
<path d="M2.42373 46.6276C2.42373 46.6276 17.0546 48.2439 22.8899 50.552C28.7252 52.8606 31.0564 53.6044 31.0564 53.6044L27.1134 53.6073C27.1134 53.6073 23.1821 50.6905 15.4811 49.8151C7.78014 48.9397 0.957517 48.5999 0.957517 48.5999L-1.25195 47.1146L2.42373 46.6276Z" fill="#63391D"/>
</g>
</g>
<path d="M80.1835 25.0396C77.3687 21.6497 73.5875 23.5258 73.5875 23.5258C79.2199 28.0955 80.6676 37.7224 80.6676 37.7224H44.2244H7.78116C7.78116 37.7224 9.22882 28.0961 14.8612 23.5258C14.8612 23.5258 11.08 21.6497 8.26526 25.0396C8.26526 25.0396 3.42252 31.0871 0.274414 43.3641H44.2244H88.1743C85.0262 31.0876 80.1835 25.0396 80.1835 25.0396Z" fill="#EFB933"/>
<path d="M78.0043 80.8242C78.0043 80.8242 66.0183 83.73 44.2245 83.6088C22.4313 83.4876 9.47653 81.1871 9.83946 80.8242C10.203 80.4613 10.7033 84.3486 10.7033 84.3486C10.7033 84.3486 39.6235 92.1104 77.1567 84.3486L78.0043 80.8242Z" fill="#D3950B"/>
<path d="M88.1744 43.3641H44.2245H0.275124C-0.640319 72.1493 9.17388 84.275 9.17388 84.275C11.232 86.3331 14.0897 84.8327 14.0897 84.8327C5.41818 68.9165 5.84547 49.6603 5.84547 49.6603H44.2251H82.6047C82.6047 49.6603 83.032 68.9171 74.3599 84.8333C74.3599 84.8333 77.2175 86.3337 79.2757 84.2756C79.2757 84.2756 89.0899 72.1493 88.1744 43.3641Z" fill="#EFB933"/>
<path d="M48.3342 43.7624L47.7561 41.3222L44.2242 40.616L40.6923 41.3222L40.1143 43.7624L34.7202 44.9312C34.7202 44.9312 37.0961 54.5512 38.1878 56.0278C39.2795 57.505 44.2242 59.7522 44.2242 59.7522C44.2242 59.7522 49.169 57.5045 50.2607 56.0278C51.3524 54.5506 53.7283 44.9312 53.7283 44.9312L48.3342 43.7624Z" fill="#FFDD50"/>
<path d="M45.595 47.9825C45.595 47.0566 44.8442 46.3058 43.9184 46.3058C42.9925 46.3058 42.2417 47.0566 42.2417 47.9825C42.2417 48.5698 42.5449 49.0852 43.0023 49.3849L42.2417 54.0636H43.9184H45.595L44.8344 49.3849C45.2918 49.0852 45.595 48.5698 45.595 47.9825Z" fill="#724F00"/>
<path d="M50.4861 56.2313C49.7296 57.3212 44.8027 60.0148 44.2241 60.0751C43.6455 60.0148 38.7187 57.3207 37.9621 56.2313C37.2056 55.1413 34.436 45.1225 34.436 45.1225C34.436 45.1225 36.4252 55.9055 37.478 57.3207C38.7222 58.9939 44.2241 62.2243 44.2241 62.2243C44.2241 62.2243 49.7261 58.9939 50.9702 57.3207C52.0231 55.9055 53.9137 45.1225 53.9137 45.1225C53.9137 45.1225 51.2427 55.1413 50.4861 56.2313Z" fill="black"/>
<path d="M35.0078 45.1225L40.3654 43.9421L40.9556 41.4677L44.2243 40.7412V41.6723L41.3185 42.2399L40.7509 44.4193L35.1667 45.7811L35.0078 45.1225Z" fill="white"/>
<path opacity="0.71" d="M53.4417 45.1225L48.0841 43.9421L47.4939 41.4677L44.2246 40.7412V41.6723L47.1304 42.2399L47.698 44.4193L53.2828 45.7811L53.4417 45.1225Z" fill="white"/>
<path d="M44.2246 54.4758V59.1371C44.2246 59.1371 48.8714 57.1862 49.8883 55.9287C50.9052 54.6712 52.7465 47.3082 52.917 46.5209C52.917 46.5209 51.0687 54.1732 49.0407 55.4145C47.0133 56.6551 45.0687 56.2916 44.2246 54.4758Z" fill="black"/>
<path d="M48.2611 56.814C48.2611 56.814 44.6405 58.4257 44.4927 58.4373V55.9177C44.4927 55.9177 46.025 57.5746 48.2611 56.814Z" fill="black"/>
<path opacity="0.51" d="M13.7381 84.7851C13.7381 84.7851 10.7819 79.235 9.66185 75.1489C9.66185 75.1489 6.12067 75.5727 4.18311 73.0606C4.18311 73.0606 6.77754 81.5906 9.44966 84.1694C9.44966 84.1694 11.095 85.7347 13.7381 84.7851Z" fill="black"/>
<path opacity="0.74" d="M9.7177 76.0197C9.7177 76.0197 6.2229 76.2569 4.74219 74.0654C4.74219 74.0654 6.46002 79.3366 8.29612 81.6173C8.29612 81.6173 6.78585 78.8629 7.0821 77.8414C7.37836 76.8198 10.3873 77.6964 10.8726 79.1296C10.8726 79.1296 9.80698 76.5827 9.7177 76.0197Z" fill="black"/>
<path d="M8.17841 70.8511L9.41968 74.6949C9.41968 74.6949 6.24143 74.9976 4.18328 72.5759C4.18328 72.5759 2.7304 67.7633 2.15527 64.7062C2.15527 64.7062 3.54786 70.3966 5.39382 71.9706C7.24036 73.5447 8.35988 72.3341 8.17841 70.8511Z" fill="white"/>
<path opacity="0.51" d="M74.8193 84.6472C74.8193 84.6472 77.7761 79.0971 78.8956 75.011C78.8956 75.011 82.4368 75.4348 84.3744 72.9227C84.3744 72.9227 81.7799 81.4527 79.1078 84.0315C79.1078 84.0315 77.4625 85.5963 74.8193 84.6472Z" fill="black"/>
<path opacity="0.74" d="M78.84 75.8818C78.84 75.8818 82.3348 76.1189 83.815 73.9274C83.815 73.9274 82.0971 79.1986 80.261 81.4788C80.261 81.4788 81.7713 78.7244 81.475 77.7028C81.1788 76.6813 78.1698 77.5579 77.6846 78.9911C77.6846 78.9911 78.7507 76.4442 78.84 75.8818Z" fill="black"/>
<path d="M80.3794 70.7126L79.1387 74.5565C79.1387 74.5565 82.3169 74.8591 84.3751 72.4374C84.3751 72.4374 85.828 67.6248 86.4031 64.5677C86.4031 64.5677 85.0105 70.2581 83.1645 71.8322C81.3174 73.4062 80.1973 72.1957 80.3794 70.7126Z" fill="white"/>
<path opacity="0.51" d="M8.96045 67.7332C8.96045 67.7332 10.771 76.6424 12.9115 80.8005C12.9115 80.8005 26.4507 83.0795 44.0493 83.0795C61.648 83.0795 75.1871 80.8005 75.1871 80.8005C77.3276 76.6418 79.1382 67.7332 79.1382 67.7332C70.4783 84.2123 17.4505 84.1868 8.96045 67.7332Z" fill="black"/>
<path opacity="0.49" d="M8.69775 35.3918C8.69775 35.3918 10.259 29.7873 14.3278 24.2372C14.3278 24.2372 26.3196 20.5928 43.9182 20.5928C61.5169 20.5928 73.5284 24.2372 73.5284 24.2372C77.6829 28.7628 79.7028 35.3153 79.7028 35.3153C71.0424 18.8367 17.1878 18.9388 8.69775 35.3918Z" fill="white"/>
<path d="M9.50102 30.5786C9.50102 30.5786 11.5168 25.4865 14.327 23.651C14.327 23.651 11.0438 22.7686 9.20708 24.5398C7.3704 26.3109 5.1731 30.2777 4.73828 31.752C4.73828 31.752 7.35184 28.9442 9.50102 30.5786Z" fill="white"/>
<path d="M78.8235 30.4702C78.8235 30.4702 76.8077 25.3781 73.9976 23.5426C73.9976 23.5426 77.2807 22.6602 79.1174 24.4314C80.9541 26.2026 83.1514 30.1693 83.5862 31.6436C83.5862 31.6436 80.9727 28.8358 78.8235 30.4702Z" fill="white"/>
<path d="M38.8399 43.6696H0.52002V44.5781H33.9369L38.8399 43.6696Z" fill="black"/>
<path d="M49.5356 43.5896H87.855V44.4975H54.4387L49.5356 43.5896Z" fill="black"/>
<path d="M1.58008 90.8582L6.99447 81.2185L8.17834 83.6239L2.48799 91.2217L1.58008 90.8582Z" fill="white"/>
<path d="M87.1145 90.6998L81.7001 81.0601L80.5156 83.4656L86.2066 91.0633L87.1145 90.6998Z" fill="white"/>
<path d="M218.343 20.0218C216.327 39.6717 207.38 54.441 207.38 54.441L162.716 61.7524L119.445 54.6661L118.052 54.441C118.052 54.441 109.105 39.671 107.089 20.0218C107.089 20.0218 107.971 19.4072 110.048 18.5074C115.888 15.9552 131.177 11.0834 162.715 11.0834C205.433 11.0834 218.343 20.0218 218.343 20.0218Z" fill="#562500"/>
<path d="M120.388 54.5364L119.445 54.6662L118.052 54.4411C118.052 54.4411 109.105 39.6711 107.089 20.0218C107.089 20.0218 107.971 19.4073 110.048 18.5075C111.355 43.5395 120.388 54.5364 120.388 54.5364Z" fill="#D1940D"/>
<path d="M205.044 54.5364L205.987 54.6662L207.38 54.4411C207.38 54.4411 216.327 39.6711 218.343 20.0218C218.343 20.0218 217.461 19.4073 215.384 18.5075C214.077 43.5395 205.044 54.5364 205.044 54.5364Z" fill="#D1940D"/>
<path d="M216.612 8.48499C198.153 -0.167464 161.967 0.402919 161.967 0.402919C156.786 0.37806 125.701 0.570721 108.817 8.48499C108.817 8.48499 103.915 14.8304 103.915 22.3289C103.915 22.3289 124.319 12.8112 162.715 12.8112C201.111 12.8112 221.515 22.3289 221.515 22.3289C221.515 14.8304 216.612 8.48499 216.612 8.48499Z" fill="#EFB933"/>
<path d="M217.439 12.5233L215.997 9.35092C191.855 0.559666 164.374 1.49051 162.623 1.56026C160.873 1.4912 133.391 0.559666 109.249 9.35092L107.808 12.5233C107.808 12.5233 125.588 3.16576 162.623 3.15057C199.658 3.16576 217.439 12.5233 217.439 12.5233Z" fill="white"/>
<path d="M141.539 53.6248H128.063V55.9319H141.539V53.6248Z" fill="#EFB933"/>
<path d="M141.259 53.9045H135.094V55.6889H141.259V53.9045Z" fill="#D69A12"/>
<path d="M136.813 53.9045H135.515V55.6889H136.813V53.9045Z" fill="#AF7500"/>
<path d="M132.336 53.9045H128.479V55.6889H132.336V53.9045Z" fill="white"/>
<path d="M139.953 51.3178H126.478V53.6249H139.953V51.3178Z" fill="#EFB933"/>
<path d="M139.673 51.5974H133.508V53.3818H139.673V51.5974Z" fill="#D69A12"/>
<path d="M135.227 51.5974H133.93V53.3818H135.227V51.5974Z" fill="#AF7500"/>
<path d="M130.75 51.5974H126.893V53.3818H130.75V51.5974Z" fill="white"/>
<path d="M138.763 48.983H125.288V51.2901H138.763V48.983Z" fill="#EFB933"/>
<path d="M138.483 49.2628H132.317V51.0472H138.483V49.2628Z" fill="#D69A12"/>
<path d="M134.037 49.2627H132.74V51.0471H134.037V49.2627Z" fill="#AF7500"/>
<path d="M129.56 49.2628H125.703V51.0472H129.56V49.2628Z" fill="white"/>
<path d="M141.539 46.649H128.063V48.9561H141.539V46.649Z" fill="#EFB933"/>
<path d="M141.259 46.9287H135.094V48.7131H141.259V46.9287Z" fill="#D69A12"/>
<path d="M136.813 46.9287H135.515V48.7131H136.813V46.9287Z" fill="#AF7500"/>
<path d="M132.336 46.9287H128.479V48.7131H132.336V46.9287Z" fill="white"/>
<path d="M141.107 44.3419H127.631V46.6489H141.107V44.3419Z" fill="#EFB933"/>
<path d="M140.827 44.621H134.662V46.4053H140.827V44.621Z" fill="#D69A12"/>
<path d="M136.381 44.6209H135.083V46.4052H136.381V44.6209Z" fill="#AF7500"/>
<path d="M131.903 44.621H128.046V46.4053H131.903V44.621Z" fill="white"/>
<path d="M139.953 42.0363H126.478V44.3434H139.953V42.0363Z" fill="#EFB933"/>
<path d="M139.673 42.3152H133.508V44.0996H139.673V42.3152Z" fill="#D69A12"/>
<path d="M135.227 42.3152H133.93V44.0996H135.227V42.3152Z" fill="#AF7500"/>
<path d="M130.75 42.3152H126.893V44.0996H130.75V42.3152Z" fill="white"/>
<path d="M141.107 39.7298H127.631V42.0369H141.107V39.7298Z" fill="#EFB933"/>
<path d="M140.827 40.0095H134.662V41.7938H140.827V40.0095Z" fill="#D69A12"/>
<path d="M136.381 40.0095H135.083V41.7938H136.381V40.0095Z" fill="#AF7500"/>
<path d="M131.903 40.0095H128.046V41.7938H131.903V40.0095Z" fill="white"/>
<path d="M141.539 37.4226H128.063V39.7297H141.539V37.4226Z" fill="#EFB933"/>
<path d="M141.259 37.7024H135.094V39.4868H141.259V37.7024Z" fill="#D69A12"/>
<path d="M136.813 37.7023H135.515V39.4866H136.813V37.7023Z" fill="#AF7500"/>
<path d="M132.336 37.7024H128.479V39.4868H132.336V37.7024Z" fill="white"/>
<path d="M142.211 35.1157H128.735V37.4228H142.211V35.1157Z" fill="#EFB933"/>
<path d="M141.931 35.3947H135.766V37.179H141.931V35.3947Z" fill="#D69A12"/>
<path d="M137.485 35.3947H136.188V37.179H137.485V35.3947Z" fill="#AF7500"/>
<path d="M133.007 35.3947H129.149V37.179H133.007V35.3947Z" fill="white"/>
<path d="M140.576 32.81H127.1V35.1171H140.576V32.81Z" fill="#EFB933"/>
<path d="M140.296 33.089H134.131V34.8733H140.296V33.089Z" fill="#D69A12"/>
<path d="M135.85 33.089H134.553V34.8733H135.85V33.089Z" fill="#AF7500"/>
<path d="M131.373 33.089H127.516V34.8733H131.373V33.089Z" fill="white"/>
<path d="M139.238 30.5008H125.762V32.8079H139.238V30.5008Z" fill="#EFB933"/>
<path d="M138.957 30.7805H132.792V32.5649H138.957V30.7805Z" fill="#D69A12"/>
<path d="M134.511 30.7804H133.214V32.5648H134.511V30.7804Z" fill="#AF7500"/>
<path d="M130.034 30.7805H126.177V32.5649H130.034V30.7805Z" fill="white"/>
<path d="M141.539 28.1963H128.063V30.5034H141.539V28.1963Z" fill="#EFB933"/>
<path d="M141.259 28.4761H135.094V30.2605H141.259V28.4761Z" fill="#D69A12"/>
<path d="M136.813 28.476H135.515V30.2604H136.813V28.476Z" fill="#AF7500"/>
<path d="M132.336 28.4761H128.479V30.2605H132.336V28.4761Z" fill="white"/>
<path d="M187.964 55.238H174.488V57.5451H187.964V55.238Z" fill="#EFB933"/>
<path d="M187.684 55.5177H181.519V57.302H187.684V55.5177Z" fill="#D69A12"/>
<path d="M183.237 55.5177H181.94V57.302H183.237V55.5177Z" fill="#AF7500"/>
<path d="M178.76 55.5177H174.902V57.302H178.76V55.5177Z" fill="white"/>
<path d="M186.483 53.0966H173.007V55.4037H186.483V53.0966Z" fill="#EFB933"/>
<path d="M186.203 53.3757H180.038V55.16H186.203V53.3757Z" fill="#D69A12"/>
<path d="M181.757 53.3756H180.459V55.1599H181.757V53.3756Z" fill="#AF7500"/>
<path d="M177.279 53.3757H173.421V55.16H177.279V53.3757Z" fill="white"/>
<path d="M186.775 50.7889H173.299V53.096H186.775V50.7889Z" fill="#EFB933"/>
<path d="M186.494 51.0686H180.329V52.8529H186.494V51.0686Z" fill="#D69A12"/>
<path d="M182.049 51.0686H180.751V52.8529H182.049V51.0686Z" fill="#AF7500"/>
<path d="M177.571 51.0686H173.713V52.8529H177.571V51.0686Z" fill="white"/>
<path d="M186.483 48.7613H173.007V51.0684H186.483V48.7613Z" fill="#EFB933"/>
<path d="M186.203 49.0405H180.038V50.8248H186.203V49.0405Z" fill="#D69A12"/>
<path d="M181.757 49.0403H180.459V50.8247H181.757V49.0403Z" fill="#AF7500"/>
<path d="M177.279 49.0405H173.421V50.8248H177.279V49.0405Z" fill="white"/>
<path d="M186.483 46.9722H173.007V49.2793H186.483V46.9722Z" fill="#EFB933"/>
<path d="M186.203 47.2511H180.038V49.0355H186.203V47.2511Z" fill="#D69A12"/>
<path d="M181.757 47.2511H180.459V49.0355H181.757V47.2511Z" fill="#AF7500"/>
<path d="M177.279 47.2511H173.421V49.0355H177.279V47.2511Z" fill="white"/>
<path d="M187.964 44.7404H174.488V47.0475H187.964V44.7404Z" fill="#EFB933"/>
<path d="M187.684 45.0201H181.519V46.8044H187.684V45.0201Z" fill="#D69A12"/>
<path d="M183.237 45.0201H181.94V46.8044H183.237V45.0201Z" fill="#AF7500"/>
<path d="M178.76 45.0201H174.902V46.8044H178.76V45.0201Z" fill="white"/>
<path d="M186.743 42.4513H173.267V44.7584H186.743V42.4513Z" fill="#EFB933"/>
<path d="M186.462 42.7309H180.297V44.5152H186.462V42.7309Z" fill="#D69A12"/>
<path d="M182.018 42.7309H180.72V44.5152H182.018V42.7309Z" fill="#AF7500"/>
<path d="M177.539 42.7309H173.682V44.5152H177.539V42.7309Z" fill="white"/>
<path d="M187.851 40.1262H174.375V42.4333H187.851V40.1262Z" fill="#EFB933"/>
<path d="M187.57 40.4053H181.405V42.1897H187.57V40.4053Z" fill="#D69A12"/>
<path d="M183.125 40.4052H181.827V42.1896H183.125V40.4052Z" fill="#AF7500"/>
<path d="M178.647 40.4052H174.79V42.1896H178.647V40.4052Z" fill="white"/>
<path d="M185.839 37.8184H172.363V40.1255H185.839V37.8184Z" fill="#EFB933"/>
<path d="M185.559 38.0981H179.394V39.8824H185.559V38.0981Z" fill="#D69A12"/>
<path d="M181.113 38.0981H179.815V39.8824H181.113V38.0981Z" fill="#AF7500"/>
<path d="M176.635 38.0981H172.778V39.8824H176.635V38.0981Z" fill="white"/>
<path d="M186.757 35.5114H173.281V37.8185H186.757V35.5114Z" fill="#EFB933"/>
<path d="M186.477 35.7911H180.312V37.5755H186.477V35.7911Z" fill="#D69A12"/>
<path d="M182.031 35.791H180.734V37.5753H182.031V35.791Z" fill="#AF7500"/>
<path d="M177.553 35.791H173.696V37.5753H177.553V35.791Z" fill="white"/>
<path d="M185.38 33.2043H171.904V35.5114H185.38V33.2043Z" fill="#EFB933"/>
<path d="M185.099 33.4833H178.934V35.2676H185.099V33.4833Z" fill="#D69A12"/>
<path d="M180.653 33.4833H179.356V35.2676H180.653V33.4833Z" fill="#AF7500"/>
<path d="M176.175 33.4833H172.318V35.2676H176.175V33.4833Z" fill="white"/>
<path d="M186.132 30.8965H172.656V33.2035H186.132V30.8965Z" fill="#EFB933"/>
<path d="M185.851 31.1761H179.686V32.9605H185.851V31.1761Z" fill="#D69A12"/>
<path d="M181.405 31.1761H180.108V32.9605H181.405V31.1761Z" fill="#AF7500"/>
<path d="M176.927 31.1761H173.07V32.9605H176.927V31.1761Z" fill="white"/>
<path d="M185.85 28.5894H172.374V30.8965H185.85V28.5894Z" fill="#EFB933"/>
<path d="M185.57 28.8691H179.405V30.6534H185.57V28.8691Z" fill="#D69A12"/>
<path d="M181.124 28.8691H179.827V30.6534H181.124V28.8691Z" fill="#AF7500"/>
<path d="M176.646 28.8691H172.789V30.6534H176.646V28.8691Z" fill="white"/>
<path d="M198.099 62.3498H184.624V64.6569H198.099V62.3498Z" fill="#EFB933"/>
<path d="M197.818 62.6288H191.653V64.4131H197.818V62.6288Z" fill="#D69A12"/>
<path d="M193.373 62.6288H192.076V64.4131H193.373V62.6288Z" fill="#AF7500"/>
<path d="M188.895 62.6288H185.038V64.4131H188.895V62.6288Z" fill="white"/>
<path d="M196.513 60.042H183.037V62.3491H196.513V60.042Z" fill="#EFB933"/>
<path d="M196.233 60.3217H190.067V62.1061H196.233V60.3217Z" fill="#D69A12"/>
<path d="M191.787 60.3217H190.489V62.1061H191.787V60.3217Z" fill="#AF7500"/>
<path d="M187.31 60.3217H183.453V62.1061H187.31V60.3217Z" fill="white"/>
<path d="M195.323 57.7079H181.847V60.015H195.323V57.7079Z" fill="#EFB933"/>
<path d="M195.043 57.9868H188.877V59.7712H195.043V57.9868Z" fill="#D69A12"/>
<path d="M190.597 57.9868H189.299V59.7712H190.597V57.9868Z" fill="#AF7500"/>
<path d="M186.12 57.9868H182.263V59.7712H186.12V57.9868Z" fill="white"/>
<path d="M198.099 55.3732H184.624V57.6803H198.099V55.3732Z" fill="#EFB933"/>
<path d="M197.818 55.6529H191.653V57.4373H197.818V55.6529Z" fill="#D69A12"/>
<path d="M193.373 55.6529H192.076V57.4373H193.373V55.6529Z" fill="#AF7500"/>
<path d="M188.895 55.6529H185.038V57.4373H188.895V55.6529Z" fill="white"/>
<path d="M197.667 53.0662H184.191V55.3733H197.667V53.0662Z" fill="#EFB933"/>
<path d="M197.386 53.3459H191.221V55.1303H197.386V53.3459Z" fill="#D69A12"/>
<path d="M192.941 53.3459H191.643V55.1303H192.941V53.3459Z" fill="#AF7500"/>
<path d="M188.462 53.3459H184.605V55.1303H188.462V53.3459Z" fill="white"/>
<path d="M196.513 50.7605H183.037V53.0675H196.513V50.7605Z" fill="#EFB933"/>
<path d="M196.233 51.0394H190.067V52.8238H196.233V51.0394Z" fill="#D69A12"/>
<path d="M191.787 51.0394H190.489V52.8238H191.787V51.0394Z" fill="#AF7500"/>
<path d="M187.31 51.0394H183.453V52.8238H187.31V51.0394Z" fill="white"/>
<path d="M197.667 48.4548H184.191V50.7619H197.667V48.4548Z" fill="#EFB933"/>
<path d="M197.386 48.7337H191.221V50.5181H197.386V48.7337Z" fill="#D69A12"/>
<path d="M192.941 48.7337H191.643V50.5181H192.941V48.7337Z" fill="#AF7500"/>
<path d="M188.462 48.7337H184.605V50.5181H188.462V48.7337Z" fill="white"/>
<path d="M198.099 46.1469H184.624V48.454H198.099V46.1469Z" fill="#EFB933"/>
<path d="M197.818 46.4266H191.653V48.211H197.818V46.4266Z" fill="#D69A12"/>
<path d="M193.373 46.4266H192.076V48.211H193.373V46.4266Z" fill="#AF7500"/>
<path d="M188.895 46.4266H185.038V48.211H188.895V46.4266Z" fill="white"/>
<path d="M198.771 43.8399H185.295V46.147H198.771V43.8399Z" fill="#EFB933"/>
<path d="M198.491 44.1195H192.326V45.9038H198.491V44.1195Z" fill="#D69A12"/>
<path d="M194.046 44.1195H192.748V45.9038H194.046V44.1195Z" fill="#AF7500"/>
<path d="M189.568 44.1195H185.711V45.9038H189.568V44.1195Z" fill="white"/>
<path d="M197.136 41.5342H183.66V43.8413H197.136V41.5342Z" fill="#EFB933"/>
<path d="M196.856 41.8131H190.69V43.5975H196.856V41.8131Z" fill="#D69A12"/>
<path d="M192.41 41.8131H191.113V43.5975H192.41V41.8131Z" fill="#AF7500"/>
<path d="M187.932 41.8131H184.075V43.5975H187.932V41.8131Z" fill="white"/>
<path d="M195.798 39.2249H182.322V41.532H195.798V39.2249Z" fill="#EFB933"/>
<path d="M195.517 39.5047H189.352V41.289H195.517V39.5047Z" fill="#D69A12"/>
<path d="M191.071 39.5047H189.774V41.289H191.071V39.5047Z" fill="#AF7500"/>
<path d="M186.594 39.5047H182.736V41.289H186.594V39.5047Z" fill="white"/>
<path d="M198.099 36.9207H184.624V39.2277H198.099V36.9207Z" fill="#EFB933"/>
<path d="M197.818 37.2003H191.653V38.9847H197.818V37.2003Z" fill="#D69A12"/>
<path d="M193.373 37.2003H192.076V38.9847H193.373V37.2003Z" fill="#AF7500"/>
<path d="M188.895 37.2003H185.038V38.9847H188.895V37.2003Z" fill="white"/>
<path d="M194.459 72.3755H207.935V70.0684H194.459V72.3755Z" fill="#EFB933"/>
<path d="M194.739 72.132H200.904V70.3476H194.739V72.132Z" fill="#D69A12"/>
<path d="M199.184 72.132H200.482V70.3476H199.184V72.132Z" fill="#AF7500"/>
<path d="M203.663 72.132H207.52V70.3476H203.663V72.132Z" fill="white"/>
<path d="M196.045 70.0678H209.521V67.7607H196.045V70.0678Z" fill="#EFB933"/>
<path d="M196.325 69.8244H202.49V68.0401H196.325V69.8244Z" fill="#D69A12"/>
<path d="M200.771 69.8244H202.068V68.0401H200.771V69.8244Z" fill="#AF7500"/>
<path d="M205.249 69.8244H209.106V68.0401H205.249V69.8244Z" fill="white"/>
<path d="M197.235 67.7338H210.711V65.4267H197.235V67.7338Z" fill="#EFB933"/>
<path d="M197.516 67.4904H203.681V65.706H197.516V67.4904Z" fill="#D69A12"/>
<path d="M201.96 67.4904H203.258V65.706H201.96V67.4904Z" fill="#AF7500"/>
<path d="M206.439 67.4904H210.296V65.706H206.439V67.4904Z" fill="white"/>
<path d="M194.458 65.3991H207.934V63.092H194.458V65.3991Z" fill="#EFB933"/>
<path d="M194.739 65.1555H200.904V63.3712H194.739V65.1555Z" fill="#D69A12"/>
<path d="M199.184 65.1555H200.482V63.3712H199.184V65.1555Z" fill="#AF7500"/>
<path d="M203.663 65.1555H207.52V63.3712H203.663V65.1555Z" fill="white"/>
<path d="M194.891 63.0916H208.367V60.7845H194.891V63.0916Z" fill="#EFB933"/>
<path d="M195.172 62.8487H201.337V61.0644H195.172V62.8487Z" fill="#D69A12"/>
<path d="M199.618 62.8487H200.915V61.0644H199.618V62.8487Z" fill="#AF7500"/>
<path d="M204.095 62.8487H207.953V61.0644H204.095V62.8487Z" fill="white"/>
<path d="M196.045 60.7864H209.521V58.4793H196.045V60.7864Z" fill="#EFB933"/>
<path d="M196.325 60.5428H202.49V58.7585H196.325V60.5428Z" fill="#D69A12"/>
<path d="M200.771 60.5428H202.068V58.7585H200.771V60.5428Z" fill="#AF7500"/>
<path d="M205.249 60.5428H209.106V58.7585H205.249V60.5428Z" fill="white"/>
<path d="M194.891 58.4804H208.367V56.1733H194.891V58.4804Z" fill="#EFB933"/>
<path d="M195.172 58.2368H201.337V56.4525H195.172V58.2368Z" fill="#D69A12"/>
<path d="M199.618 58.2368H200.915V56.4525H199.618V58.2368Z" fill="#AF7500"/>
<path d="M204.095 58.2368H207.953V56.4525H204.095V58.2368Z" fill="white"/>
<path d="M194.458 56.1728H207.934V53.8657H194.458V56.1728Z" fill="#EFB933"/>
<path d="M194.739 55.9301H200.904V54.1458H194.739V55.9301Z" fill="#D69A12"/>
<path d="M199.184 55.9301H200.482V54.1458H199.184V55.9301Z" fill="#AF7500"/>
<path d="M203.663 55.9301H207.52V54.1458H203.663V55.9301Z" fill="white"/>
<path d="M193.787 53.8653H207.263V51.5582H193.787V53.8653Z" fill="#EFB933"/>
<path d="M194.068 53.6224H200.233V51.8381H194.068V53.6224Z" fill="#D69A12"/>
<path d="M198.514 53.6224H199.811V51.8381H198.514V53.6224Z" fill="#AF7500"/>
<path d="M202.991 53.6224H206.849V51.8381H202.991V53.6224Z" fill="white"/>
<path d="M195.423 51.56H208.898V49.2529H195.423V51.56Z" fill="#EFB933"/>
<path d="M195.703 51.3165H201.868V49.5321H195.703V51.3165Z" fill="#D69A12"/>
<path d="M200.148 51.3165H201.446V49.5321H200.148V51.3165Z" fill="#AF7500"/>
<path d="M204.627 51.3165H208.484V49.5321H204.627V51.3165Z" fill="white"/>
<path d="M196.76 49.251H210.236V46.9439H196.76V49.251Z" fill="#EFB933"/>
<path d="M197.041 49.008H203.206V47.2237H197.041V49.008Z" fill="#D69A12"/>
<path d="M201.487 49.008H202.784V47.2237H201.487V49.008Z" fill="#AF7500"/>
<path d="M205.964 49.008H209.821V47.2237H205.964V49.008Z" fill="white"/>
<path d="M194.458 46.9465H207.934V44.6394H194.458V46.9465Z" fill="#EFB933"/>
<path d="M194.739 46.7038H200.904V44.9195H194.739V46.7038Z" fill="#D69A12"/>
<path d="M199.184 46.7038H200.482V44.9195H199.184V46.7038Z" fill="#AF7500"/>
<path d="M203.663 46.7038H207.52V44.9195H203.663V46.7038Z" fill="white"/>
<path d="M114.881 63.6012H128.356V61.2941H114.881V63.6012Z" fill="#EFB933"/>
<path d="M115.161 63.3577H121.326V61.5733H115.161V63.3577Z" fill="#D69A12"/>
<path d="M119.607 63.3577H120.904V61.5733H119.607V63.3577Z" fill="#AF7500"/>
<path d="M124.084 63.3577H127.941V61.5733H124.084V63.3577Z" fill="white"/>
<path d="M116.467 61.2936H129.942V58.9865H116.467V61.2936Z" fill="#EFB933"/>
<path d="M116.747 61.0507H122.912V59.2663H116.747V61.0507Z" fill="#D69A12"/>
<path d="M121.193 61.0507H122.49V59.2663H121.193V61.0507Z" fill="#AF7500"/>
<path d="M125.67 61.0507H129.527V59.2663H125.67V61.0507Z" fill="white"/>
<path d="M117.656 58.9594H131.132V56.6524H117.656V58.9594Z" fill="#EFB933"/>
<path d="M117.937 58.7159H124.102V56.9315H117.937V58.7159Z" fill="#D69A12"/>
<path d="M122.382 58.7159H123.68V56.9315H122.382V58.7159Z" fill="#AF7500"/>
<path d="M126.86 58.7159H130.717V56.9315H126.86V58.7159Z" fill="white"/>
<path d="M114.881 56.6249H128.356V54.3178H114.881V56.6249Z" fill="#EFB933"/>
<path d="M115.161 56.382H121.326V54.5977H115.161V56.382Z" fill="#D69A12"/>
<path d="M119.607 56.3819H120.904V54.5976H119.607V56.3819Z" fill="#AF7500"/>
<path d="M124.084 56.3819H127.941V54.5976H124.084V56.3819Z" fill="white"/>
<path d="M115.313 54.318H128.789V52.0109H115.313V54.318Z" fill="#EFB933"/>
<path d="M115.593 54.0744H121.758V52.2901H115.593V54.0744Z" fill="#D69A12"/>
<path d="M120.038 54.0744H121.336V52.2901H120.038V54.0744Z" fill="#AF7500"/>
<path d="M124.517 54.0744H128.374V52.2901H124.517V54.0744Z" fill="white"/>
<path d="M116.467 52.012H129.942V49.7049H116.467V52.012Z" fill="#EFB933"/>
<path d="M116.747 51.7685H122.912V49.9841H116.747V51.7685Z" fill="#D69A12"/>
<path d="M121.193 51.7685H122.49V49.9841H121.193V51.7685Z" fill="#AF7500"/>
<path d="M125.67 51.7685H129.527V49.9841H125.67V51.7685Z" fill="white"/>
<path d="M115.313 49.7062H128.789V47.3991H115.313V49.7062Z" fill="#EFB933"/>
<path d="M115.593 49.4626H121.758V47.6783H115.593V49.4626Z" fill="#D69A12"/>
<path d="M120.038 49.4626H121.336V47.6783H120.038V49.4626Z" fill="#AF7500"/>
<path d="M124.517 49.4626H128.374V47.6783H124.517V49.4626Z" fill="white"/>
<path d="M114.881 47.3985H128.356V45.0914H114.881V47.3985Z" fill="#EFB933"/>
<path d="M115.161 47.1556H121.326V45.3713H115.161V47.1556Z" fill="#D69A12"/>
<path d="M119.607 47.1556H120.904V45.3713H119.607V47.1556Z" fill="#AF7500"/>
<path d="M124.084 47.1556H127.941V45.3713H124.084V47.1556Z" fill="white"/>
<path d="M114.209 45.0918H127.685V42.7847H114.209V45.0918Z" fill="#EFB933"/>
<path d="M114.489 44.8482H120.654V43.0638H114.489V44.8482Z" fill="#D69A12"/>
<path d="M118.934 44.8482H120.232V43.0638H118.934V44.8482Z" fill="#AF7500"/>
<path d="M123.412 44.8482H127.27V43.0638H123.412V44.8482Z" fill="white"/>
<path d="M115.844 42.7859H129.32V40.4788H115.844V42.7859Z" fill="#EFB933"/>
<path d="M116.124 42.5423H122.289V40.758H116.124V42.5423Z" fill="#D69A12"/>
<path d="M120.57 42.5423H121.868V40.758H120.57V42.5423Z" fill="#AF7500"/>
<path d="M125.048 42.5423H128.905V40.758H125.048V42.5423Z" fill="white"/>
<path d="M117.182 40.4766H130.658V38.1695H117.182V40.4766Z" fill="#EFB933"/>
<path d="M117.463 40.2339H123.628V38.4495H117.463V40.2339Z" fill="#D69A12"/>
<path d="M121.908 40.2337H123.206V38.4494H121.908V40.2337Z" fill="#AF7500"/>
<path d="M126.386 40.2337H130.243V38.4494H126.386V40.2337Z" fill="white"/>
<path d="M114.881 38.1722H128.356V35.8651H114.881V38.1722Z" fill="#EFB933"/>
<path d="M115.161 37.9294H121.326V36.145H115.161V37.9294Z" fill="#D69A12"/>
<path d="M119.607 37.9294H120.904V36.145H119.607V37.9294Z" fill="#AF7500"/>
<path d="M124.084 37.9294H127.941V36.145H124.084V37.9294Z" fill="white"/>
<path d="M153.132 56.2102H139.656V58.5173H153.132V56.2102Z" fill="#EFB933"/>
<path d="M152.852 56.4898H146.687V58.2742H152.852V56.4898Z" fill="#D69A12"/>
<path d="M148.406 56.4898H147.109V58.2742H148.406V56.4898Z" fill="#AF7500"/>
<path d="M143.928 56.4898H140.071V58.2742H143.928V56.4898Z" fill="white"/>
<path d="M151.651 54.0688H138.175V56.3759H151.651V54.0688Z" fill="#EFB933"/>
<path d="M151.371 54.3478H145.206V56.1321H151.371V54.3478Z" fill="#D69A12"/>
<path d="M146.925 54.3478H145.627V56.1321H146.925V54.3478Z" fill="#AF7500"/>
<path d="M142.448 54.3478H138.59V56.1321H142.448V54.3478Z" fill="white"/>
<path d="M151.943 51.761H138.467V54.0681H151.943V51.761Z" fill="#EFB933"/>
<path d="M151.663 52.0407H145.498V53.8251H151.663V52.0407Z" fill="#D69A12"/>
<path d="M147.217 52.0407H145.92V53.8251H147.217V52.0407Z" fill="#AF7500"/>
<path d="M142.74 52.0407H138.882V53.8251H142.74V52.0407Z" fill="white"/>
<path d="M151.651 49.7329H138.175V52.04H151.651V49.7329Z" fill="#EFB933"/>
<path d="M151.371 50.0126H145.206V51.797H151.371V50.0126Z" fill="#D69A12"/>
<path d="M146.925 50.0126H145.627V51.797H146.925V50.0126Z" fill="#AF7500"/>
<path d="M142.448 50.0126H138.59V51.797H142.448V50.0126Z" fill="white"/>
<path d="M151.651 47.9445H138.175V50.2516H151.651V47.9445Z" fill="#EFB933"/>
<path d="M151.371 48.2235H145.206V50.0078H151.371V48.2235Z" fill="#D69A12"/>
<path d="M146.925 48.2235H145.627V50.0078H146.925V48.2235Z" fill="#AF7500"/>
<path d="M142.448 48.2235H138.59V50.0078H142.448V48.2235Z" fill="white"/>
<path d="M153.132 45.7127H139.656V48.0198H153.132V45.7127Z" fill="#EFB933"/>
<path d="M152.852 45.9923H146.687V47.7766H152.852V45.9923Z" fill="#D69A12"/>
<path d="M148.406 45.9923H147.109V47.7766H148.406V45.9923Z" fill="#AF7500"/>
<path d="M143.928 45.9923H140.071V47.7766H143.928V45.9923Z" fill="white"/>
<path d="M151.911 43.4234H138.435V45.7305H151.911V43.4234Z" fill="#EFB933"/>
<path d="M151.631 43.7031H145.466V45.4875H151.631V43.7031Z" fill="#D69A12"/>
<path d="M147.185 43.7031H145.887V45.4875H147.185V43.7031Z" fill="#AF7500"/>
<path d="M142.707 43.7031H138.85V45.4875H142.707V43.7031Z" fill="white"/>
<path d="M153.019 41.0985H139.543V43.4056H153.019V41.0985Z" fill="#EFB933"/>
<path d="M152.738 41.3775H146.573V43.1618H152.738V41.3775Z" fill="#D69A12"/>
<path d="M148.293 41.3775H146.995V43.1618H148.293V41.3775Z" fill="#AF7500"/>
<path d="M143.815 41.3775H139.958V43.1618H143.815V41.3775Z" fill="white"/>
<path d="M151.008 38.7906H137.532V41.0977H151.008V38.7906Z" fill="#EFB933"/>
<path d="M150.727 39.0703H144.562V40.8547H150.727V39.0703Z" fill="#D69A12"/>
<path d="M146.281 39.0703H144.984V40.8547H146.281V39.0703Z" fill="#AF7500"/>
<path d="M141.803 39.0703H137.946V40.8547H141.803V39.0703Z" fill="white"/>
<path d="M151.926 36.4835H138.45V38.7906H151.926V36.4835Z" fill="#EFB933"/>
<path d="M151.646 36.7632H145.48V38.5476H151.646V36.7632Z" fill="#D69A12"/>
<path d="M147.199 36.7632H145.902V38.5476H147.199V36.7632Z" fill="#AF7500"/>
<path d="M142.722 36.7632H138.864V38.5476H142.722V36.7632Z" fill="white"/>
<path d="M150.548 34.1765H137.072V36.4836H150.548V34.1765Z" fill="#EFB933"/>
<path d="M150.268 34.4555H144.103V36.2398H150.268V34.4555Z" fill="#D69A12"/>
<path d="M145.822 34.4555H144.524V36.2398H145.822V34.4555Z" fill="#AF7500"/>
<path d="M141.344 34.4555H137.486V36.2398H141.344V34.4555Z" fill="white"/>
<path d="M151.3 31.8687H137.824V34.1758H151.3V31.8687Z" fill="#EFB933"/>
<path d="M151.019 32.1483H144.854V33.9327H151.019V32.1483Z" fill="#D69A12"/>
<path d="M146.573 32.1483H145.276V33.9327H146.573V32.1483Z" fill="#AF7500"/>
<path d="M142.095 32.1483H138.238V33.9327H142.095V32.1483Z" fill="white"/>
<path d="M151.018 29.5616H137.542V31.8686H151.018V29.5616Z" fill="#EFB933"/>
<path d="M150.738 29.8405H144.573V31.6249H150.738V29.8405Z" fill="#D69A12"/>
<path d="M146.293 29.8405H144.995V31.6249H146.293V29.8405Z" fill="#AF7500"/>
<path d="M141.814 29.8405H137.957V31.6249H141.814V29.8405Z" fill="white"/>
<path d="M170.461 48.7614H156.985V51.0685H170.461V48.7614Z" fill="#EFB933"/>
<path d="M170.18 49.0403H164.015V50.8247H170.18V49.0403Z" fill="#D69A12"/>
<path d="M165.734 49.0403H164.437V50.8247H165.734V49.0403Z" fill="#AF7500"/>
<path d="M161.257 49.0403H157.4V50.8247H161.257V49.0403Z" fill="white"/>
<path d="M168.874 46.4536H155.398V48.7607H168.874V46.4536Z" fill="#EFB933"/>
<path d="M168.594 46.7334H162.429V48.5178H168.594V46.7334Z" fill="#D69A12"/>
<path d="M164.149 46.7333H162.851V48.5177H164.149V46.7333Z" fill="#AF7500"/>
<path d="M159.67 46.7334H155.812V48.5178H159.67V46.7334Z" fill="white"/>
<path d="M167.684 44.1195H154.208V46.4266H167.684V44.1195Z" fill="#EFB933"/>
<path d="M167.404 44.3984H161.239V46.1827H167.404V44.3984Z" fill="#D69A12"/>
<path d="M162.959 44.3984H161.661V46.1827H162.959V44.3984Z" fill="#AF7500"/>
<path d="M158.481 44.3984H154.624V46.1827H158.481V44.3984Z" fill="white"/>
<path d="M170.461 41.7848H156.985V44.0919H170.461V41.7848Z" fill="#EFB933"/>
<path d="M170.18 42.0645H164.015V43.8488H170.18V42.0645Z" fill="#D69A12"/>
<path d="M165.734 42.0645H164.437V43.8488H165.734V42.0645Z" fill="#AF7500"/>
<path d="M161.257 42.0645H157.4V43.8488H161.257V42.0645Z" fill="white"/>
<path d="M170.028 39.4778H156.552V41.7849H170.028V39.4778Z" fill="#EFB933"/>
<path d="M169.747 39.7568H163.582V41.5412H169.747V39.7568Z" fill="#D69A12"/>
<path d="M165.303 39.7568H164.004V41.5412H165.303V39.7568Z" fill="#AF7500"/>
<path d="M160.824 39.7568H156.967V41.5412H160.824V39.7568Z" fill="white"/>
<path d="M168.874 37.172H155.398V39.4791H168.874V37.172Z" fill="#EFB933"/>
<path d="M168.594 37.451H162.429V39.2353H168.594V37.451Z" fill="#D69A12"/>
<path d="M164.149 37.451H162.851V39.2353H164.149V37.451Z" fill="#AF7500"/>
<path d="M159.67 37.451H155.812V39.2353H159.67V37.451Z" fill="white"/>
<path d="M170.028 34.8657H156.552V37.1728H170.028V34.8657Z" fill="#EFB933"/>
<path d="M169.747 35.1453H163.582V36.9296H169.747V35.1453Z" fill="#D69A12"/>
<path d="M165.303 35.1453H164.004V36.9296H165.303V35.1453Z" fill="#AF7500"/>
<path d="M160.824 35.1453H156.967V36.9296H160.824V35.1453Z" fill="white"/>
<path d="M170.461 32.5585H156.985V34.8656H170.461V32.5585Z" fill="#EFB933"/>
<path d="M170.18 32.8382H164.015V34.6226H170.18V32.8382Z" fill="#D69A12"/>
<path d="M165.734 32.8382H164.437V34.6226H165.734V32.8382Z" fill="#AF7500"/>
<path d="M161.257 32.8382H157.4V34.6226H161.257V32.8382Z" fill="white"/>
<path d="M171.133 30.2516H157.657V32.5587H171.133V30.2516Z" fill="#EFB933"/>
<path d="M170.852 30.5305H164.687V32.3149H170.852V30.5305Z" fill="#D69A12"/>
<path d="M166.406 30.5305H165.109V32.3149H166.406V30.5305Z" fill="#AF7500"/>
<path d="M161.929 30.5305H158.071V32.3149H161.929V30.5305Z" fill="white"/>
<path d="M169.497 27.9458H156.021V30.2528H169.497V27.9458Z" fill="#EFB933"/>
<path d="M169.216 28.2247H163.051V30.0091H169.216V28.2247Z" fill="#D69A12"/>
<path d="M164.772 28.2247H163.474V30.0091H164.772V28.2247Z" fill="#AF7500"/>
<path d="M160.293 28.2247H156.436V30.0091H160.293V28.2247Z" fill="white"/>
<path d="M168.158 25.6366H154.683V27.9436H168.158V25.6366Z" fill="#EFB933"/>
<path d="M167.878 25.9162H161.713V27.7006H167.878V25.9162Z" fill="#D69A12"/>
<path d="M163.432 25.9162H162.135V27.7006H163.432V25.9162Z" fill="#AF7500"/>
<path d="M158.955 25.9162H155.098V27.7006H158.955V25.9162Z" fill="white"/>
<path d="M170.461 23.3322H156.985V25.6393H170.461V23.3322Z" fill="#EFB933"/>
<path d="M170.18 23.6119H164.015V25.3963H170.18V23.6119Z" fill="#D69A12"/>
<path d="M165.734 23.6119H164.437V25.3963H165.734V23.6119Z" fill="#AF7500"/>
<path d="M161.257 23.6119H157.4V25.3963H161.257V23.6119Z" fill="white"/>
<path d="M187.147 76.4527H173.671V78.7597H187.147V76.4527Z" fill="#EFB933"/>
<path d="M186.866 76.7315H180.701V78.5159H186.866V76.7315Z" fill="#D69A12"/>
<path d="M182.42 76.7317H181.122V78.516H182.42V76.7317Z" fill="#AF7500"/>
<path d="M177.942 76.7317H174.085V78.516H177.942V76.7317Z" fill="white"/>
<path d="M185.561 74.1449H172.085V76.452H185.561V74.1449Z" fill="#EFB933"/>
<path d="M185.279 74.4246H179.114V76.2089H185.279V74.4246Z" fill="#D69A12"/>
<path d="M180.834 74.4246H179.537V76.2089H180.834V74.4246Z" fill="#AF7500"/>
<path d="M176.356 74.4246H172.499V76.2089H176.356V74.4246Z" fill="white"/>
<path d="M184.371 71.8108H170.895V74.1179H184.371V71.8108Z" fill="#EFB933"/>
<path d="M184.09 72.0898H177.925V73.8741H184.09V72.0898Z" fill="#D69A12"/>
<path d="M179.645 72.0898H178.347V73.8741H179.645V72.0898Z" fill="#AF7500"/>
<path d="M175.166 72.0898H171.309V73.8741H175.166V72.0898Z" fill="white"/>
<path d="M187.147 69.4762H173.671V71.7833H187.147V69.4762Z" fill="#EFB933"/>
<path d="M186.866 69.7559H180.701V71.5402H186.866V69.7559Z" fill="#D69A12"/>
<path d="M182.42 69.7559H181.122V71.5402H182.42V69.7559Z" fill="#AF7500"/>
<path d="M177.942 69.7559H174.085V71.5402H177.942V69.7559Z" fill="white"/>
<path d="M186.714 67.169H173.238V69.4761H186.714V67.169Z" fill="#EFB933"/>
<path d="M186.434 67.4488H180.269V69.2332H186.434V67.4488Z" fill="#D69A12"/>
<path d="M181.988 67.4487H180.69V69.2331H181.988V67.4487Z" fill="#AF7500"/>
<path d="M177.511 67.4487H173.653V69.2331H177.511V67.4487Z" fill="white"/>
<path d="M185.561 64.8634H172.085V67.1705H185.561V64.8634Z" fill="#EFB933"/>
<path d="M185.279 65.1424H179.114V66.9267H185.279V65.1424Z" fill="#D69A12"/>
<path d="M180.834 65.1424H179.537V66.9267H180.834V65.1424Z" fill="#AF7500"/>
<path d="M176.356 65.1424H172.499V66.9267H176.356V65.1424Z" fill="white"/>
<path d="M186.714 62.5576H173.238V64.8647H186.714V62.5576Z" fill="#EFB933"/>
<path d="M186.434 62.8366H180.269V64.6209H186.434V62.8366Z" fill="#D69A12"/>
<path d="M181.988 62.8366H180.69V64.6209H181.988V62.8366Z" fill="#AF7500"/>
<path d="M177.511 62.8366H173.653V64.6209H177.511V62.8366Z" fill="white"/>
<path d="M187.147 60.2498H173.671V62.5568H187.147V60.2498Z" fill="#EFB933"/>
<path d="M186.866 60.5296H180.701V62.3139H186.866V60.5296Z" fill="#D69A12"/>
<path d="M182.42 60.5294H181.122V62.3138H182.42V60.5294Z" fill="#AF7500"/>
<path d="M177.942 60.5294H174.085V62.3138H177.942V60.5294Z" fill="white"/>
<path d="M187.818 57.9428H174.342V60.2499H187.818V57.9428Z" fill="#EFB933"/>
<path d="M187.537 58.2225H181.372V60.0069H187.537V58.2225Z" fill="#D69A12"/>
<path d="M183.091 58.2225H181.794V60.0069H183.091V58.2225Z" fill="#AF7500"/>
<path d="M178.614 58.2225H174.757V60.0069H178.614V58.2225Z" fill="white"/>
<path d="M186.183 55.6371H172.707V57.9442H186.183V55.6371Z" fill="#EFB933"/>
<path d="M185.902 55.9161H179.737V57.7004H185.902V55.9161Z" fill="#D69A12"/>
<path d="M181.457 55.9161H180.159V57.7004H181.457V55.9161Z" fill="#AF7500"/>
<path d="M176.979 55.9161H173.122V57.7004H176.979V55.9161Z" fill="white"/>
<path d="M184.845 53.3279H171.369V55.635H184.845V53.3279Z" fill="#EFB933"/>
<path d="M184.564 53.6076H178.399V55.392H184.564V53.6076Z" fill="#D69A12"/>
<path d="M180.12 53.6075H178.821V55.3918H180.12V53.6075Z" fill="#AF7500"/>
<path d="M175.641 53.6075H171.784V55.3918H175.641V53.6075Z" fill="white"/>
<path d="M187.147 51.0235H173.671V53.3306H187.147V51.0235Z" fill="#EFB933"/>
<path d="M186.866 51.3033H180.701V53.0876H186.866V51.3033Z" fill="#D69A12"/>
<path d="M182.42 51.3031H181.122V53.0875H182.42V51.3031Z" fill="#AF7500"/>
<path d="M177.942 51.3031H174.085V53.0875H177.942V51.3031Z" fill="white"/>
<path d="M143.942 69.8353H130.466V72.1423H143.942V69.8353Z" fill="#EFB933"/>
<path d="M143.662 70.1143H137.497V71.8986H143.662V70.1143Z" fill="#D69A12"/>
<path d="M139.216 70.1143H137.918V71.8986H139.216V70.1143Z" fill="#AF7500"/>
<path d="M134.738 70.1143H130.88V71.8986H134.738V70.1143Z" fill="white"/>
<path d="M142.356 67.5275H128.88V69.8346H142.356V67.5275Z" fill="#EFB933"/>
<path d="M142.076 67.8071H135.911V69.5915H142.076V67.8071Z" fill="#D69A12"/>
<path d="M137.63 67.8071H136.333V69.5915H137.63V67.8071Z" fill="#AF7500"/>
<path d="M133.152 67.8071H129.294V69.5915H133.152V67.8071Z" fill="white"/>
<path d="M141.166 65.1934H127.69V67.5005H141.166V65.1934Z" fill="#EFB933"/>
<path d="M140.886 65.4725H134.721V67.2568H140.886V65.4725Z" fill="#D69A12"/>
<path d="M136.44 65.4724H135.143V67.2567H136.44V65.4724Z" fill="#AF7500"/>
<path d="M131.962 65.4725H128.105V67.2568H131.962V65.4725Z" fill="white"/>
<path d="M143.942 62.8588H130.466V65.1659H143.942V62.8588Z" fill="#EFB933"/>
<path d="M143.662 63.1385H137.497V64.9228H143.662V63.1385Z" fill="#D69A12"/>
<path d="M139.216 63.1385H137.918V64.9228H139.216V63.1385Z" fill="#AF7500"/>
<path d="M134.738 63.1385H130.88V64.9228H134.738V63.1385Z" fill="white"/>
<path d="M143.51 60.5516H130.034V62.8587H143.51V60.5516Z" fill="#EFB933"/>
<path d="M143.229 60.8307H137.064V62.6151H143.229V60.8307Z" fill="#D69A12"/>
<path d="M138.783 60.8306H137.485V62.615H138.783V60.8306Z" fill="#AF7500"/>
<path d="M134.306 60.8307H130.448V62.6151H134.306V60.8307Z" fill="white"/>
<path d="M142.356 58.246H128.88V60.5531H142.356V58.246Z" fill="#EFB933"/>
<path d="M142.076 58.5249H135.911V60.3093H142.076V58.5249Z" fill="#D69A12"/>
<path d="M137.63 58.5249H136.333V60.3093H137.63V58.5249Z" fill="#AF7500"/>
<path d="M133.152 58.5249H129.294V60.3093H133.152V58.5249Z" fill="white"/>
<path d="M143.51 55.9395H130.034V58.2466H143.51V55.9395Z" fill="#EFB933"/>
<path d="M143.229 56.2192H137.064V58.0035H143.229V56.2192Z" fill="#D69A12"/>
<path d="M138.783 56.2192H137.485V58.0035H138.783V56.2192Z" fill="#AF7500"/>
<path d="M134.306 56.2192H130.448V58.0035H134.306V56.2192Z" fill="white"/>
<path d="M143.942 53.6324H130.466V55.9394H143.942V53.6324Z" fill="#EFB933"/>
<path d="M143.662 53.9121H137.497V55.6965H143.662V53.9121Z" fill="#D69A12"/>
<path d="M139.216 53.912H137.918V55.6963H139.216V53.912Z" fill="#AF7500"/>
<path d="M134.738 53.9121H130.88V55.6965H134.738V53.9121Z" fill="white"/>
<path d="M144.614 51.3254H131.138V53.6325H144.614V51.3254Z" fill="#EFB933"/>
<path d="M144.333 51.6043H138.167V53.3887H144.333V51.6043Z" fill="#D69A12"/>
<path d="M139.888 51.6043H138.59V53.3887H139.888V51.6043Z" fill="#AF7500"/>
<path d="M135.409 51.6043H131.552V53.3887H135.409V51.6043Z" fill="white"/>
<path d="M142.978 49.0197H129.502V51.3268H142.978V49.0197Z" fill="#EFB933"/>
<path d="M142.697 49.2987H136.532V51.083H142.697V49.2987Z" fill="#D69A12"/>
<path d="M138.252 49.2987H136.954V51.083H138.252V49.2987Z" fill="#AF7500"/>
<path d="M133.774 49.2987H129.917V51.083H133.774V49.2987Z" fill="white"/>
<path d="M141.64 46.7105H128.165V49.0176H141.64V46.7105Z" fill="#EFB933"/>
<path d="M141.36 46.9902H135.195V48.7745H141.36V46.9902Z" fill="#D69A12"/>
<path d="M136.915 46.99H135.617V48.7744H136.915V46.99Z" fill="#AF7500"/>
<path d="M132.437 46.9902H128.58V48.7745H132.437V46.9902Z" fill="white"/>
<path d="M143.942 44.4061H130.466V46.7132H143.942V44.4061Z" fill="#EFB933"/>
<path d="M143.662 44.6859H137.497V46.4703H143.662V44.6859Z" fill="#D69A12"/>
<path d="M139.216 44.6857H137.918V46.4701H139.216V44.6857Z" fill="#AF7500"/>
<path d="M134.738 44.6859H130.88V46.4703H134.738V44.6859Z" fill="white"/>
<path d="M175.398 62.5846H161.922V64.8917H175.398V62.5846Z" fill="#EFB933"/>
<path d="M175.118 62.8636H168.953V64.648H175.118V62.8636Z" fill="#D69A12"/>
<path d="M170.673 62.8636H169.375V64.648H170.673V62.8636Z" fill="#AF7500"/>
<path d="M166.194 62.8636H162.337V64.648H166.194V62.8636Z" fill="white"/>
<path d="M173.803 60.2768H160.327V62.5839H173.803V60.2768Z" fill="#EFB933"/>
<path d="M173.522 60.5564H167.357V62.3408H173.522V60.5564Z" fill="#D69A12"/>
<path d="M169.076 60.5564H167.779V62.3408H169.076V60.5564Z" fill="#AF7500"/>
<path d="M164.599 60.5564H160.741V62.3408H164.599V60.5564Z" fill="white"/>
<path d="M175.398 57.9697H161.922V60.2768H175.398V57.9697Z" fill="#EFB933"/>
<path d="M175.118 58.2493H168.953V60.0337H175.118V58.2493Z" fill="#D69A12"/>
<path d="M170.673 58.2493H169.375V60.0337H170.673V58.2493Z" fill="#AF7500"/>
<path d="M166.194 58.2493H162.337V60.0337H166.194V58.2493Z" fill="white"/>
<path d="M175.533 55.6626H162.058V57.9697H175.533V55.6626Z" fill="#EFB933"/>
<path d="M175.253 55.9417H169.087V57.726H175.253V55.9417Z" fill="#D69A12"/>
<path d="M170.807 55.9417H169.509V57.726H170.807V55.9417Z" fill="#AF7500"/>
<path d="M166.329 55.9417H162.472V57.726H166.329V55.9417Z" fill="white"/>
<path d="M174.614 53.3548H161.138V55.6619H174.614V53.3548Z" fill="#EFB933"/>
<path d="M174.333 53.6345H168.168V55.4188H174.333V53.6345Z" fill="#D69A12"/>
<path d="M169.888 53.6345H168.59V55.4188H169.888V53.6345Z" fill="#AF7500"/>
<path d="M165.411 53.6345H161.553V55.4188H165.411V53.6345Z" fill="white"/>
<path d="M176.626 51.0235H163.15V53.3306H176.626V51.0235Z" fill="#EFB933"/>
<path d="M176.345 51.3032H170.18V53.0876H176.345V51.3032Z" fill="#D69A12"/>
<path d="M171.9 51.3032H170.602V53.0876H171.9V51.3032Z" fill="#AF7500"/>
<path d="M167.422 51.3032H163.564V53.0876H167.422V51.3032Z" fill="white"/>
<path d="M175.398 48.7309H161.922V51.038H175.398V48.7309Z" fill="#EFB933"/>
<path d="M175.118 49.0106H168.953V50.7949H175.118V49.0106Z" fill="#D69A12"/>
<path d="M170.673 49.0106H169.375V50.7949H170.673V49.0106Z" fill="#AF7500"/>
<path d="M166.194 49.0106H162.337V50.7949H166.194V49.0106Z" fill="white"/>
<path d="M176.648 46.4239H163.172V48.731H176.648V46.4239Z" fill="#EFB933"/>
<path d="M176.368 46.703H170.203V48.4873H176.368V46.703Z" fill="#D69A12"/>
<path d="M171.923 46.703H170.625V48.4873H171.923V46.703Z" fill="#AF7500"/>
<path d="M167.444 46.703H163.587V48.4873H167.444V46.703Z" fill="white"/>
<path d="M177.135 44.107H163.659V46.4141H177.135V44.107Z" fill="#EFB933"/>
<path d="M176.854 44.386H170.689V46.1704H176.854V44.386Z" fill="#D69A12"/>
<path d="M172.41 44.386H171.111V46.1704H172.41V44.386Z" fill="#AF7500"/>
<path d="M167.931 44.386H164.074V46.1704H167.931V44.386Z" fill="white"/>
<path d="M175.813 41.7994H162.337V44.1065H175.813V41.7994Z" fill="#EFB933"/>
<path d="M175.532 42.079H169.367V43.8633H175.532V42.079Z" fill="#D69A12"/>
<path d="M171.087 42.079H169.789V43.8633H171.087V42.079Z" fill="#AF7500"/>
<path d="M166.609 42.079H162.751V43.8633H166.609V42.079Z" fill="white"/>
<path d="M163.916 66.6973H150.44V69.0044H163.916V66.6973Z" fill="#EFB933"/>
<path d="M163.635 66.977H157.47V68.7613H163.635V66.977Z" fill="#D69A12"/>
<path d="M159.19 66.977H157.893V68.7613H159.19V66.977Z" fill="#AF7500"/>
<path d="M154.712 66.977H150.855V68.7613H154.712V66.977Z" fill="white"/>
<path d="M162.435 64.556H148.959V66.863H162.435V64.556Z" fill="#EFB933"/>
<path d="M162.154 64.8349H155.989V66.6192H162.154V64.8349Z" fill="#D69A12"/>
<path d="M157.709 64.8349H156.411V66.6192H157.709V64.8349Z" fill="#AF7500"/>
<path d="M153.231 64.8349H149.374V66.6192H153.231V64.8349Z" fill="white"/>
<path d="M162.727 62.2483H149.251V64.5554H162.727V62.2483Z" fill="#EFB933"/>
<path d="M162.446 62.5279H156.281V64.3123H162.446V62.5279Z" fill="#D69A12"/>
<path d="M158.001 62.5279H156.703V64.3123H158.001V62.5279Z" fill="#AF7500"/>
<path d="M153.523 62.5279H149.666V64.3123H153.523V62.5279Z" fill="white"/>
<path d="M162.435 60.2208H148.959V62.5279H162.435V60.2208Z" fill="#EFB933"/>
<path d="M162.154 60.4998H155.989V62.2842H162.154V60.4998Z" fill="#D69A12"/>
<path d="M157.709 60.4998H156.411V62.2842H157.709V60.4998Z" fill="#AF7500"/>
<path d="M153.231 60.4998H149.374V62.2842H153.231V60.4998Z" fill="white"/>
<path d="M162.435 58.4317H148.959V60.7387H162.435V58.4317Z" fill="#EFB933"/>
<path d="M162.154 58.7106H155.989V60.495H162.154V58.7106Z" fill="#D69A12"/>
<path d="M157.709 58.7106H156.411V60.495H157.709V58.7106Z" fill="#AF7500"/>
<path d="M153.231 58.7106H149.374V60.495H153.231V58.7106Z" fill="white"/>
<path d="M163.916 56.1999H150.44V58.507H163.916V56.1999Z" fill="#EFB933"/>
<path d="M163.635 56.4795H157.47V58.2638H163.635V56.4795Z" fill="#D69A12"/>
<path d="M159.19 56.4795H157.893V58.2638H159.19V56.4795Z" fill="#AF7500"/>
<path d="M154.712 56.4795H150.855V58.2638H154.712V56.4795Z" fill="white"/>
<path d="M162.695 53.9106H149.219V56.2177H162.695V53.9106Z" fill="#EFB933"/>
<path d="M162.415 54.1903H156.25V55.9747H162.415V54.1903Z" fill="#D69A12"/>
<path d="M157.969 54.1903H156.671V55.9747H157.969V54.1903Z" fill="#AF7500"/>
<path d="M153.491 54.1903H149.633V55.9747H153.491V54.1903Z" fill="white"/>
<path d="M163.804 51.5857H150.328V53.8928H163.804V51.5857Z" fill="#EFB933"/>
<path d="M163.523 51.8647H157.357V53.649H163.523V51.8647Z" fill="#D69A12"/>
<path d="M159.077 51.8647H157.78V53.649H159.077V51.8647Z" fill="#AF7500"/>
<path d="M154.599 51.8647H150.742V53.649H154.599V51.8647Z" fill="white"/>
<path d="M161.791 49.2779H148.315V51.585H161.791V49.2779Z" fill="#EFB933"/>
<path d="M161.51 49.5575H155.345V51.3419H161.51V49.5575Z" fill="#D69A12"/>
<path d="M157.065 49.5575H155.767V51.3419H157.065V49.5575Z" fill="#AF7500"/>
<path d="M152.587 49.5575H148.73V51.3419H152.587V49.5575Z" fill="white"/>
<path d="M162.709 46.9707H149.233V49.2778H162.709V46.9707Z" fill="#EFB933"/>
<path d="M162.429 47.2504H156.264V49.0348H162.429V47.2504Z" fill="#D69A12"/>
<path d="M157.983 47.2504H156.686V49.0348H157.983V47.2504Z" fill="#AF7500"/>
<path d="M153.506 47.2504H149.648V49.0348H153.506V47.2504Z" fill="white"/>
<path d="M161.332 44.6637H147.856V46.9708H161.332V44.6637Z" fill="#EFB933"/>
<path d="M161.051 44.9427H154.886V46.727H161.051V44.9427Z" fill="#D69A12"/>
<path d="M156.606 44.9427H155.308V46.727H156.606V44.9427Z" fill="#AF7500"/>
<path d="M152.128 44.9427H148.271V46.727H152.128V44.9427Z" fill="white"/>
<path d="M162.083 42.3559H148.607V44.663H162.083V42.3559Z" fill="#EFB933"/>
<path d="M161.803 42.6356H155.638V44.4199H161.803V42.6356Z" fill="#D69A12"/>
<path d="M157.357 42.6356H156.06V44.4199H157.357V42.6356Z" fill="#AF7500"/>
<path d="M152.88 42.6356H149.022V44.4199H152.88V42.6356Z" fill="white"/>
<path d="M161.802 40.0487H148.326V42.3558H161.802V40.0487Z" fill="#EFB933"/>
<path d="M161.522 40.3284H155.356V42.1127H161.522V40.3284Z" fill="#D69A12"/>
<path d="M157.076 40.3284H155.778V42.1127H157.076V40.3284Z" fill="#AF7500"/>
<path d="M152.598 40.3284H148.741V42.1127H152.598V40.3284Z" fill="white"/>
<path d="M119.024 95.7428L111.021 110.344C111.021 110.344 113.725 112.128 116.699 110.993L125.081 101.962L119.024 95.7428Z" fill="#D3950B"/>
<path d="M205.986 95.7428L213.99 110.344C213.99 110.344 211.286 112.128 208.311 110.993L199.93 101.962L205.986 95.7428Z" fill="#D3950B"/>
<path d="M162.395 53.6304H110.047C110.047 53.6304 110.768 87.2886 121.439 102.286C121.439 102.286 142.782 105.747 162.395 105.747C182.007 105.747 203.35 102.286 203.35 102.286C214.021 87.2886 214.742 53.6304 214.742 53.6304H162.395Z" fill="#8C6239"/>
<g opacity="0.64">
<mask id="mask2_1_1210" style="mask-type:luminance" maskUnits="userSpaceOnUse" x="110" y="53" width="105" height="53">
<path d="M162.395 53.6304H110.047C110.047 53.6304 110.768 87.2886 121.439 102.286C121.439 102.286 142.782 105.747 162.395 105.747C182.007 105.747 203.35 102.286 203.35 102.286C214.021 87.2886 214.742 53.6304 214.742 53.6304H162.395Z" fill="white"/>
</mask>
<g mask="url(#mask2_1_1210)">
<path d="M212.548 102.968C212.548 102.968 198.548 102.601 183.383 102.388C168.219 102.175 154.486 102.355 151.263 103.576C148.041 104.798 165.074 108.84 182.004 110.248C182.004 110.248 164.802 107.976 163.479 106.033C162.155 104.091 169.778 102.506 188.458 103.916C207.139 105.326 212.605 107.037 212.605 107.037L212.548 102.968Z" fill="#63391D"/>
<path d="M210.284 107.716C210.284 107.716 188.634 104.022 181.122 104.312C173.611 104.602 175.471 107.85 184.986 108.706C194.501 109.563 194.923 108.095 193.399 107.661C191.876 107.227 187.727 107.026 187.727 107.026C187.727 107.026 192.139 107.475 192.147 108.074C192.156 108.673 183.775 108.584 180.736 107.54C177.698 106.496 177.846 104.781 184.16 105.285C190.474 105.79 203.625 107.187 209.613 109.146C215.602 111.106 210.284 107.716 210.284 107.716Z" fill="#63391D"/>
<path d="M116.903 102.097C117.93 101.956 120.292 103.503 130.81 105.072C141.329 106.642 152.227 110.847 152.227 110.847L146.413 110.435C146.413 110.435 144.192 107.497 130.566 106.118C116.94 104.74 112.759 102.329 112.759 102.329L116.903 102.097Z" fill="#63391D"/>
<path d="M116.775 105.256C116.775 105.256 123.876 106.432 128.986 107.414C134.097 108.395 135.388 109.654 135.388 109.654L133.9 109.548C133.9 109.548 133.75 108.299 128.731 107.694C123.712 107.089 116.443 106.252 116.443 106.252L116.775 105.256Z" fill="#63391D"/>
<path d="M116.333 98.4657C116.333 98.4657 123.605 99.5402 129.837 100.381C136.069 101.223 155.484 99.6362 158.078 99.7777C158.078 99.7777 153.73 99.2895 149.459 99.6914C145.189 100.093 137.162 100.602 130.932 99.9186C124.702 99.2357 115.993 97.3194 115.993 97.3194L116.333 98.4657Z" fill="#63391D"/>
<path d="M116.958 96.9003C116.958 96.9003 127.504 99.0493 132.393 99.5396C137.283 100.03 144.273 99.5527 144.273 99.5527C144.273 99.5527 135.981 99.6728 132.083 98.9188C128.185 98.1647 116.298 96.0613 116.298 96.0613L116.958 96.9003Z" fill="#63391D"/>
<path d="M210.293 90.135C210.293 90.135 196.78 88.3797 181.507 89.2932C166.235 90.2068 143.584 92.0989 131.515 90.84C119.446 89.5812 118.488 86.0014 123.794 85.5098C129.1 85.0181 141.271 84.2827 145.313 86.0871C149.356 87.8914 142.753 88.3493 140.292 88.408C140.292 88.408 147.166 88.8168 149.214 87.0096C151.262 85.2025 138.792 83.1495 129.344 83.9788C119.897 84.8082 117.453 86.0857 119.032 87.8355C120.612 89.5853 123.236 91.8848 144.882 92.2701C166.529 92.6562 198.298 88.5599 211.233 92.5222L210.293 90.135Z" fill="#63391D"/>
<path d="M210.079 93.2887C210.079 93.2887 198.904 91.1072 186.606 91.9753C174.307 92.8426 165.133 94.6953 166.834 95.7932C168.534 96.8912 210.801 98.4877 210.801 98.4877L210.785 97.378C210.785 97.378 187.537 96.5963 179.153 96.49C170.771 96.3837 162.578 94.995 177.814 93.3846C193.05 91.7743 208.012 93.7216 210.748 94.7885C213.485 95.854 210.079 93.2887 210.079 93.2887Z" fill="#63391D"/>
<path d="M210.748 94.7879C210.748 94.7879 196.338 92.9393 188.703 93.6609C181.067 94.3826 177.441 94.4924 178.358 95.2713C179.276 96.0495 194.489 95.3569 194.489 95.3569C194.489 95.3569 184.713 95.6055 184.575 95.0351C184.438 94.4647 198.804 93.248 210.764 95.8976L210.748 94.7879Z" fill="#63391D"/>
<path d="M212.102 71.4331C212.102 71.4331 175.129 71.6064 163.052 72.8549C150.975 74.1034 141.431 74.4466 132.011 72.5918C122.591 70.737 119.949 67.1656 119.949 67.1656L122.719 67.5433C122.719 67.5433 126.107 71.7252 141.105 72.6043C156.104 73.4833 183.043 69.2261 213.99 70.6231L212.102 71.4331Z" fill="#63391D"/>
<path d="M209.519 72.0581C209.519 72.0581 185.675 72.0436 171.187 73.8238C156.699 75.604 161.422 80.4847 181.388 80.8017C201.354 81.1193 205.273 77.2102 203.873 75.9838C202.473 74.7574 188.991 74.3569 182.449 76.001C182.449 76.001 197.411 74.6248 199.905 76.4395C202.4 78.2536 194.933 79.076 186.21 79.2445C177.486 79.413 169.437 78.9614 168.98 76.5928C168.523 74.2243 199.146 71.6465 209.54 73.4916L209.519 72.0581Z" fill="#63391D"/>
<path d="M114.301 74.0075C114.301 74.0075 124.788 73.3584 132.972 74.7616C141.156 76.1648 164.801 81.9777 164.801 81.9777L160.155 81.7996C160.155 81.7996 144.671 77.3401 137.664 76.6281C130.656 75.9162 114.322 75.4874 114.322 75.4874L114.301 74.0075Z" fill="#63391D"/>
<path d="M113.685 76.2406C113.685 76.2406 133.905 76.5438 138.333 78.1541C142.762 79.7645 127.598 79.578 127.598 79.578C127.598 79.578 135.629 79.3336 135.622 78.8578C135.615 78.382 116.161 77.2026 114.346 77.1259C112.531 77.0493 112.91 76.3435 112.91 76.3435" fill="#63391D"/>
<path d="M210.832 64.1175C210.832 64.1175 200.392 62.0445 190.164 59.6228C179.936 57.2011 151.576 55.5259 145.052 58.4386C138.528 61.3512 155.857 64.4186 168.114 63.9933C168.114 63.9933 155.139 63.1018 154.077 61.3361C153.015 59.5703 159.194 56.6335 175.817 59.1588C192.439 61.6848 210.989 66.0504 212.546 66.2078C214.104 66.3666 210.832 64.1175 210.832 64.1175Z" fill="#63391D"/>
<path d="M112.608 57.5174C112.608 57.5174 130.034 59.4426 136.984 62.1917C143.934 64.9414 146.711 65.8273 146.711 65.8273L142.014 65.8308C142.014 65.8308 137.332 62.3567 128.16 61.314C118.987 60.2713 110.861 59.8666 110.861 59.8666L108.229 58.0974L112.608 57.5174Z" fill="#63391D"/>
</g>
</g>
<path d="M202.628 98.2481C202.628 98.2481 188.352 101.709 162.394 101.565C136.437 101.42 121.007 98.6803 121.439 98.2481C121.871 97.8158 122.468 102.446 122.468 102.446C122.468 102.446 156.914 111.691 201.618 102.446L202.628 98.2481Z" fill="#D3950B"/>
<path d="M214.742 53.6304H162.395H110.047C108.957 87.9156 120.646 102.358 120.646 102.358C123.097 104.81 126.501 103.023 126.501 103.023C116.173 84.0652 116.681 61.1289 116.681 61.1289H162.394H208.107C208.107 61.1289 208.616 84.0652 198.287 103.023C198.287 103.023 201.69 104.81 204.142 102.358C204.143 102.358 215.833 87.9156 214.742 53.6304Z" fill="#EFB933"/>
<path d="M167.29 54.1047L166.602 51.1982L162.395 50.3572L158.188 51.1982L157.5 54.1047L151.074 55.4968C151.074 55.4968 153.904 66.955 155.204 68.7138C156.505 70.4733 162.394 73.1498 162.394 73.1498C162.394 73.1498 168.284 70.4726 169.584 68.7138C170.884 66.9543 173.714 55.4968 173.714 55.4968L167.29 54.1047Z" fill="#FFDD50"/>
<path d="M164.027 59.1312C164.027 58.0284 163.133 57.1342 162.03 57.1342C160.927 57.1342 160.033 58.0284 160.033 59.1312C160.033 59.8308 160.394 60.4446 160.939 60.8016L160.033 66.3743H162.03H164.027L163.121 60.8016C163.666 60.4446 164.027 59.8308 164.027 59.1312Z" fill="#724F00"/>
<path d="M169.853 68.9562C168.952 70.2545 163.083 73.4627 162.394 73.5345C161.705 73.4627 155.837 70.2538 154.936 68.9562C154.035 67.6587 150.736 55.7248 150.736 55.7248C150.736 55.7248 153.105 68.5682 154.359 70.2538C155.841 72.2467 162.394 76.0943 162.394 76.0943C162.394 76.0943 168.947 72.2467 170.429 70.2538C171.683 68.5682 173.935 55.7248 173.935 55.7248C173.935 55.7248 170.755 67.658 169.853 68.9562Z" fill="black"/>
<path d="M151.417 55.7248L157.798 54.3188L158.501 51.3716L162.394 50.5064V51.6154L158.934 52.2914L158.257 54.8872L151.606 56.5092L151.417 55.7248Z" fill="white"/>
<path opacity="0.71" d="M173.372 55.7248L166.991 54.3188L166.288 51.3716L162.394 50.5064V51.6154L165.855 52.2914L166.531 54.8872L173.183 56.5092L173.372 55.7248Z" fill="white"/>
<path d="M162.394 66.8653V72.4172C162.394 72.4172 167.929 70.0935 169.14 68.5958C170.351 67.098 172.544 58.3281 172.747 57.3904C172.747 57.3904 170.546 66.5048 168.13 67.9833C165.716 69.461 163.399 69.028 162.394 66.8653Z" fill="black"/>
<path d="M167.202 69.6502C167.202 69.6502 162.89 71.5699 162.714 71.5837V68.5826C162.714 68.5826 164.539 70.5561 167.202 69.6502Z" fill="black"/>
<path opacity="0.51" d="M126.083 102.966C126.083 102.966 122.561 96.3555 121.228 91.4885C121.228 91.4885 117.01 91.9933 114.702 89.0012C114.702 89.0012 117.792 99.1611 120.975 102.233C120.975 102.233 122.935 104.097 126.083 102.966Z" fill="black"/>
<path opacity="0.74" d="M121.294 92.5257C121.294 92.5257 117.132 92.8081 115.369 90.1979C115.369 90.1979 117.415 96.4763 119.602 99.1928C119.602 99.1928 117.803 95.9121 118.156 94.6954C118.509 93.4786 122.092 94.5227 122.67 96.2297C122.67 96.2297 121.401 93.1962 121.294 92.5257Z" fill="black"/>
<path d="M119.461 86.3695L120.939 90.9477C120.939 90.9477 117.154 91.3082 114.702 88.4238C114.702 88.4238 112.972 82.6917 112.287 79.0504C112.287 79.0504 113.945 85.8281 116.144 87.7029C118.343 89.5777 119.677 88.1359 119.461 86.3695Z" fill="white"/>
<path opacity="0.51" d="M198.835 102.802C198.835 102.802 202.357 96.191 203.691 91.3241C203.691 91.3241 207.908 91.8288 210.216 88.8367C210.216 88.8367 207.126 98.9966 203.943 102.068C203.943 102.068 201.984 103.932 198.835 102.802Z" fill="black"/>
<path opacity="0.74" d="M203.624 92.3613C203.624 92.3613 207.786 92.6437 209.55 90.0335C209.55 90.0335 207.504 96.3119 205.317 99.0278C205.317 99.0278 207.116 95.747 206.763 94.5303C206.41 93.3136 202.827 94.3577 202.249 96.0647C202.249 96.0647 203.518 93.0311 203.624 92.3613Z" fill="black"/>
<path d="M205.458 86.2044L203.979 90.7827C203.979 90.7827 207.765 91.1431 210.216 88.2588C210.216 88.2588 211.947 82.5266 212.632 78.8854C212.632 78.8854 210.973 85.663 208.775 87.5378C206.575 89.4126 205.242 87.9708 205.458 86.2044Z" fill="white"/>
<path opacity="0.51" d="M120.392 82.6557C120.392 82.6557 122.549 93.2672 125.098 98.2198C125.098 98.2198 141.224 100.934 162.186 100.934C183.147 100.934 199.273 98.2198 199.273 98.2198C201.823 93.2666 203.979 82.6557 203.979 82.6557C193.665 102.284 130.504 102.253 120.392 82.6557Z" fill="black"/>
<path d="M155.982 53.9943H110.34V55.0763H150.142L155.982 53.9943Z" fill="black"/>
<path d="M168.72 53.899H214.362V54.9803H174.561L168.72 53.899Z" fill="black"/>
<path d="M111.602 110.199L118.051 98.7177L119.461 101.583L112.683 110.632L111.602 110.199Z" fill="white"/>
<path d="M213.48 110.011L207.031 98.5292L205.621 101.394L212.399 110.444L213.48 110.011Z" fill="white"/>
<path d="M244.791 78.7209L238.072 90.9793C238.072 90.9793 240.342 92.4774 242.839 91.5243L249.876 83.9422L244.791 78.7209Z" fill="#D3950B"/>
<path d="M317.804 78.7209L324.523 90.9793C324.523 90.9793 322.253 92.4774 319.756 91.5243L312.718 83.9422L317.804 78.7209Z" fill="#D3950B"/>
<path d="M316.95 25.1984C316.95 25.1984 299.956 19.9243 281.204 19.9243C262.453 19.9243 245.459 25.1984 245.459 25.1984C240.771 31.6442 237.254 43.3641 237.254 43.3641H281.204H325.154C325.154 43.3641 321.638 31.6442 316.95 25.1984Z" fill="#8C6239"/>
<path d="M281.205 43.3641H237.255C237.255 43.3641 237.861 71.6229 246.82 84.2147C246.82 84.2147 264.739 87.1204 281.205 87.1204C297.672 87.1204 315.59 84.2147 315.59 84.2147C324.55 71.6229 325.155 43.3641 325.155 43.3641H281.205Z" fill="#8C6239"/>
<g opacity="0.64">
<mask id="mask3_1_1210" style="mask-type:luminance" maskUnits="userSpaceOnUse" x="237" y="19" width="89" height="25">
<path d="M316.95 25.1984C316.95 25.1984 299.956 19.9243 281.204 19.9243C262.453 19.9243 245.459 25.1984 245.459 25.1984C240.771 31.6442 237.254 43.3641 237.254 43.3641H281.204H325.154C325.154 43.3641 321.638 31.6442 316.95 25.1984Z" fill="white"/>
</mask>
<g mask="url(#mask3_1_1210)">
<path d="M318.686 35.9577C318.686 35.9577 307.867 35.6493 296.148 35.4707C284.43 35.2922 273.817 35.4429 271.327 36.4685C268.837 37.4941 281.999 40.888 295.083 42.0702C295.083 42.0702 281.789 40.1622 280.767 38.5313C279.744 36.9004 285.635 35.5699 300.07 36.7537C314.506 37.9376 318.731 39.3743 318.731 39.3743L318.686 35.9577Z" fill="#63391D"/>
<path d="M316.935 39.9447C316.935 39.9447 300.205 36.8424 294.4 37.0865C288.596 37.33 290.033 40.0572 297.386 40.7761C304.739 41.495 305.065 40.2624 303.888 39.8983C302.71 39.5343 299.504 39.365 299.504 39.365C299.504 39.365 302.914 39.7424 302.92 40.245C302.927 40.7477 296.45 40.6735 294.102 39.7969C291.754 38.9203 291.869 37.4807 296.748 37.904C301.626 38.3272 311.789 39.5006 316.417 41.1454C321.045 42.7902 316.935 39.9447 316.935 39.9447Z" fill="#63391D"/>
<path d="M244.774 35.2266C245.568 35.1083 247.393 36.407 255.522 37.7242C263.65 39.042 272.072 42.5727 272.072 42.5727L267.579 42.2266C267.579 42.2266 265.863 39.7597 255.333 38.6025C244.804 37.4453 241.573 35.4208 241.573 35.4208L244.774 35.2266Z" fill="#63391D"/>
<path d="M244.676 37.8784C244.676 37.8784 250.163 38.8657 254.112 39.6901C258.062 40.514 259.06 41.5709 259.06 41.5709L257.91 41.4822C257.91 41.4822 257.794 40.4334 253.915 39.9255C250.037 39.4176 244.42 38.715 244.42 38.715L244.676 37.8784Z" fill="#63391D"/>
<path d="M244.335 32.1781C244.335 32.1781 249.954 33.0803 254.77 33.7864C259.586 34.4926 274.589 33.1608 276.593 33.2797C276.593 33.2797 273.233 32.8698 269.933 33.2072C266.633 33.5441 260.43 33.9713 255.615 33.398C250.801 32.8246 244.071 31.2157 244.071 31.2157L244.335 32.1781Z" fill="#63391D"/>
<path d="M244.817 30.8638C244.817 30.8638 252.966 32.668 256.745 33.0797C260.523 33.4913 265.925 33.0907 265.925 33.0907C265.925 33.0907 259.518 33.1916 256.505 32.5585C253.493 31.9254 244.307 30.1594 244.307 30.1594L244.817 30.8638Z" fill="#63391D"/>
<path d="M316.943 25.1839C316.943 25.1839 306.5 23.7101 294.699 24.4766C282.897 25.2436 265.394 26.8321 256.067 25.7752C246.74 24.7183 246 21.7129 250.101 21.3001C254.201 20.8873 263.606 20.2698 266.73 21.7847C269.854 23.2997 264.752 23.684 262.85 23.7333C262.85 23.7333 268.162 24.0771 269.744 22.5599C271.326 21.0426 261.691 19.319 254.39 20.0153C247.089 20.7116 245.2 21.7842 246.421 23.2527C247.642 24.7218 249.67 26.6524 266.397 26.9765C283.124 27.3006 307.675 23.8614 317.671 27.1881L316.943 25.1839Z" fill="#63391D"/>
<path d="M316.777 27.8312C316.777 27.8312 308.142 25.9997 298.638 26.7285C289.134 27.4573 282.044 29.0122 283.358 29.934C284.672 30.8558 317.335 32.1962 317.335 32.1962L317.322 31.2645C317.322 31.2645 299.357 30.6083 292.879 30.5184C286.401 30.4291 280.07 29.2632 291.844 27.9112C303.617 26.5592 315.18 28.1941 317.294 29.0899C319.409 29.9856 316.777 27.8312 316.777 27.8312Z" fill="#63391D"/>
<path d="M317.294 29.0899C317.294 29.0899 306.159 27.5379 300.259 28.1437C294.359 28.7496 291.556 28.8418 292.265 29.4957C292.975 30.1491 304.73 29.5676 304.73 29.5676C304.73 29.5676 297.176 29.7763 297.069 29.2974C296.962 28.8186 308.065 27.797 317.307 30.0221L317.294 29.0899Z" fill="#63391D"/>
</g>
</g>
<g opacity="0.64">
<mask id="mask4_1_1210" style="mask-type:luminance" maskUnits="userSpaceOnUse" x="237" y="43" width="89" height="45">
<path d="M281.205 43.3641H237.255C237.255 43.3641 237.861 71.6229 246.82 84.2147C246.82 84.2147 264.739 87.1204 281.205 87.1204C297.672 87.1204 315.59 84.2147 315.59 84.2147C324.55 71.6229 325.155 43.3641 325.155 43.3641H281.205Z" fill="white"/>
</mask>
<g mask="url(#mask4_1_1210)">
<path d="M323.313 84.7868C323.313 84.7868 311.558 84.4784 298.826 84.2998C286.095 84.1213 274.565 84.272 271.859 85.2976C269.154 86.3232 283.454 89.7171 297.669 90.8993C297.669 90.8993 283.226 88.9913 282.115 87.3604C281.003 85.7295 287.404 84.399 303.087 85.5828C318.771 86.7667 323.36 88.2034 323.36 88.2034L323.313 84.7868Z" fill="#63391D"/>
<path d="M321.411 88.7733C321.411 88.7733 303.235 85.6716 296.928 85.915C290.621 86.1585 292.183 88.8857 300.172 89.6046C308.16 90.3236 308.515 89.091 307.236 88.7269C305.957 88.3628 302.473 88.1935 302.473 88.1935C302.473 88.1935 306.177 88.5709 306.184 89.0736C306.191 89.5762 299.155 89.502 296.604 88.6254C294.053 87.7488 294.178 86.3093 299.478 86.7325C304.779 87.1557 315.821 88.3292 320.848 89.974C325.876 91.6193 321.411 88.7733 321.411 88.7733Z" fill="#63391D"/>
<path d="M243.01 84.0558C243.873 83.9375 245.856 85.2362 254.687 86.5534C263.519 87.8706 272.669 91.4019 272.669 91.4019L267.787 91.0558C267.787 91.0558 265.922 88.5889 254.482 87.4317C243.042 86.2745 239.532 84.25 239.532 84.25L243.01 84.0558Z" fill="#63391D"/>
<path d="M242.903 86.7076C242.903 86.7076 248.865 87.6955 253.156 88.5193C257.447 89.3432 258.531 90.4001 258.531 90.4001L257.281 90.3114C257.281 90.3114 257.156 89.2626 252.941 88.7547C248.727 88.2468 242.625 87.5442 242.625 87.5442L242.903 86.7076Z" fill="#63391D"/>
<path d="M242.532 81.0068C242.532 81.0068 248.638 81.9089 253.87 82.6151C259.102 83.3212 275.403 81.9895 277.581 82.1084C277.581 82.1084 273.93 81.6985 270.345 82.0359C266.759 82.3733 260.02 82.8 254.79 82.2266C249.559 81.6533 242.247 80.0444 242.247 80.0444L242.532 81.0068Z" fill="#63391D"/>
<path d="M243.057 79.6925C243.057 79.6925 251.911 81.4967 256.016 81.9083C260.121 82.3199 265.99 81.9193 265.99 81.9193C265.99 81.9193 259.028 82.0202 255.756 81.3871C252.483 80.754 242.503 78.9881 242.503 78.9881L243.057 79.6925Z" fill="#63391D"/>
<path d="M321.419 74.0126C321.419 74.0126 310.074 72.5388 297.251 73.3058C284.429 74.0729 265.412 75.6614 255.279 74.6045C245.146 73.5476 244.342 70.5421 248.797 70.1293C253.252 69.7165 263.47 69.0991 266.864 70.614C270.258 72.1289 264.715 72.5133 262.648 72.5626C262.648 72.5626 268.419 72.9058 270.139 71.3886C271.858 69.8713 261.389 68.1477 253.457 68.844C245.525 69.5403 243.473 70.6128 244.799 72.082C246.126 73.5511 248.329 75.4817 266.503 75.8052C284.676 76.1293 311.349 72.6901 322.21 76.0168L321.419 74.0126Z" fill="#63391D"/>
<path d="M321.239 76.6603C321.239 76.6603 311.857 74.8289 301.532 75.5576C291.206 76.2858 283.504 77.8413 284.931 78.7631C286.359 79.6849 321.845 81.0254 321.845 81.0254L321.832 80.0937C321.832 80.0937 302.313 79.4374 295.275 79.3481C288.237 79.2588 281.358 78.0929 294.15 76.7409C306.942 75.3889 319.504 77.0238 321.801 77.9196C324.098 78.8141 321.239 76.6603 321.239 76.6603Z" fill="#63391D"/>
<path d="M321.801 77.9189C321.801 77.9189 309.703 76.3669 303.292 76.9728C296.882 77.5786 293.837 77.6708 294.607 78.3248C295.378 78.9782 308.151 78.3967 308.151 78.3967C308.151 78.3967 299.942 78.6054 299.827 78.1265C299.712 77.6476 311.774 76.6261 321.814 78.8506L321.801 77.9189Z" fill="#63391D"/>
<path d="M322.937 58.3108C322.937 58.3108 291.896 58.4563 281.756 59.5045C271.617 60.5527 263.604 60.8409 255.695 59.2837C247.787 57.7264 245.568 54.7279 245.568 54.7279L247.894 55.045C247.894 55.045 250.738 58.5561 263.33 59.2941C275.923 60.0321 298.541 56.4579 324.523 57.6308L322.937 58.3108Z" fill="#63391D"/>
<path d="M320.769 58.8356C320.769 58.8356 300.751 58.8234 288.587 60.318C276.423 61.8126 280.388 65.9104 297.151 66.1765C313.914 66.4426 317.204 63.1612 316.029 62.1315C314.854 61.1019 303.535 60.7656 298.042 62.146C298.042 62.146 310.604 60.9905 312.698 62.5142C314.792 64.0372 308.524 64.7277 301.199 64.8691C293.875 65.0106 287.118 64.6314 286.734 62.6429C286.35 60.6543 312.061 58.49 320.787 60.0392L320.769 58.8356Z" fill="#63391D"/>
<path d="M240.827 60.4723C240.827 60.4723 249.631 59.9273 256.502 61.1053C263.373 62.2834 283.225 67.1639 283.225 67.1639L279.325 67.0143C279.325 67.0143 266.325 63.2702 260.441 62.6724C254.558 62.0747 240.844 61.7147 240.844 61.7147L240.827 60.4723Z" fill="#63391D"/>
<path d="M240.31 62.3472C240.31 62.3472 257.286 62.6017 261.004 63.9537C264.722 65.3057 251.991 65.1492 251.991 65.1492C251.991 65.1492 258.733 64.9439 258.727 64.5445C258.722 64.145 242.388 63.1548 240.864 63.0904C239.34 63.0261 239.658 62.4336 239.658 62.4336" fill="#63391D"/>
<path d="M321.872 52.1689C321.872 52.1689 313.107 50.4285 304.519 48.3953C295.932 46.362 272.122 44.9556 266.644 47.401C261.167 49.8464 275.716 52.4217 286.007 52.0646C286.007 52.0646 275.113 51.3161 274.222 49.8337C273.331 48.3512 278.518 45.8855 292.474 48.0057C306.43 50.1264 322.004 53.7917 323.311 53.9239C324.618 54.0572 321.872 52.1689 321.872 52.1689Z" fill="#63391D"/>
<path d="M239.404 46.6276C239.404 46.6276 254.035 48.2439 259.87 50.552C265.706 52.8606 268.037 53.6044 268.037 53.6044L264.094 53.6073C264.094 53.6073 260.163 50.6905 252.462 49.8151C244.761 48.9397 237.938 48.5999 237.938 48.5999L235.729 47.1146L239.404 46.6276Z" fill="#63391D"/>
</g>
</g>
<path d="M317.163 25.0396C314.349 21.6497 310.568 23.5258 310.568 23.5258C316.2 28.0955 317.648 37.7224 317.648 37.7224H281.204H244.761C244.761 37.7224 246.209 28.0961 251.841 23.5258C251.841 23.5258 248.06 21.6497 245.245 25.0396C245.245 25.0396 240.402 31.0871 237.254 43.3641H281.204H325.154C322.006 31.0876 317.163 25.0396 317.163 25.0396Z" fill="#EFB933"/>
<path d="M314.984 80.8242C314.984 80.8242 302.998 83.73 281.204 83.6088C259.411 83.4876 246.457 81.1871 246.819 80.8242C247.183 80.4613 247.683 84.3486 247.683 84.3486C247.683 84.3486 276.604 92.1104 314.137 84.3486L314.984 80.8242Z" fill="#D3950B"/>
<path d="M325.154 43.3641H281.204H237.255C236.34 72.1493 246.154 84.275 246.154 84.275C248.212 86.3331 251.07 84.8327 251.07 84.8327C242.398 68.9165 242.825 49.6603 242.825 49.6603H281.205H319.585C319.585 49.6603 320.012 68.9171 311.34 84.8333C311.34 84.8333 314.198 86.3337 316.256 84.2756C316.256 84.2756 326.07 72.1493 325.154 43.3641Z" fill="#EFB933"/>
<path d="M285.314 43.7624L284.736 41.3222L281.204 40.616L277.672 41.3222L277.094 43.7624L271.7 44.9312C271.7 44.9312 274.076 54.5512 275.168 56.0278C276.259 57.505 281.204 59.7522 281.204 59.7522C281.204 59.7522 286.149 57.5045 287.241 56.0278C288.332 54.5506 290.708 44.9312 290.708 44.9312L285.314 43.7624Z" fill="#FFDD50"/>
<path d="M282.575 47.9825C282.575 47.0566 281.824 46.3058 280.898 46.3058C279.972 46.3058 279.222 47.0566 279.222 47.9825C279.222 48.5698 279.525 49.0852 279.982 49.3849L279.222 54.0636H280.898H282.575L281.814 49.3849C282.272 49.0852 282.575 48.5698 282.575 47.9825Z" fill="#724F00"/>
<path d="M287.466 56.2313C286.71 57.3212 281.783 60.0148 281.204 60.0751C280.626 60.0148 275.699 57.3207 274.942 56.2313C274.186 55.1413 271.416 45.1225 271.416 45.1225C271.416 45.1225 273.405 55.9055 274.458 57.3207C275.702 58.9939 281.204 62.2243 281.204 62.2243C281.204 62.2243 286.706 58.9939 287.95 57.3207C289.003 55.9055 290.894 45.1225 290.894 45.1225C290.894 45.1225 288.223 55.1413 287.466 56.2313Z" fill="black"/>
<path d="M271.988 45.1225L277.345 43.9421L277.936 41.4677L281.204 40.7412V41.6723L278.298 42.2399L277.731 44.4193L272.147 45.7811L271.988 45.1225Z" fill="white"/>
<path opacity="0.71" d="M290.422 45.1225L285.064 43.9421L284.474 41.4677L281.205 40.7412V41.6723L284.11 42.2399L284.678 44.4193L290.263 45.7811L290.422 45.1225Z" fill="white"/>
<path d="M281.205 54.4758V59.1371C281.205 59.1371 285.851 57.1862 286.868 55.9287C287.885 54.6712 289.727 47.3082 289.897 46.5209C289.897 46.5209 288.049 54.1732 286.021 55.4145C283.993 56.6551 282.049 56.2916 281.205 54.4758Z" fill="black"/>
<path d="M285.241 56.814C285.241 56.814 281.62 58.4257 281.473 58.4373V55.9177C281.473 55.9177 283.005 57.5746 285.241 56.814Z" fill="black"/>
<path opacity="0.51" d="M250.718 84.7851C250.718 84.7851 247.762 79.235 246.642 75.1489C246.642 75.1489 243.101 75.5727 241.163 73.0606C241.163 73.0606 243.758 81.5906 246.43 84.1694C246.43 84.1694 248.075 85.7347 250.718 84.7851Z" fill="black"/>
<path opacity="0.74" d="M246.698 76.0197C246.698 76.0197 243.203 76.2569 241.722 74.0654C241.722 74.0654 243.44 79.3366 245.276 81.6173C245.276 81.6173 243.766 78.8629 244.062 77.8414C244.358 76.8198 247.367 77.6964 247.853 79.1296C247.853 79.1296 246.787 76.5827 246.698 76.0197Z" fill="black"/>
<path d="M245.158 70.8511L246.4 74.6949C246.4 74.6949 243.221 74.9976 241.163 72.5759C241.163 72.5759 239.71 67.7633 239.135 64.7062C239.135 64.7062 240.528 70.3966 242.374 71.9706C244.22 73.5447 245.34 72.3341 245.158 70.8511Z" fill="white"/>
<path opacity="0.51" d="M311.799 84.6472C311.799 84.6472 314.756 79.0971 315.876 75.011C315.876 75.011 319.417 75.4348 321.354 72.9227C321.354 72.9227 318.76 81.4527 316.088 84.0315C316.088 84.0315 314.442 85.5963 311.799 84.6472Z" fill="black"/>
<path opacity="0.74" d="M315.82 75.8818C315.82 75.8818 319.315 76.1189 320.795 73.9274C320.795 73.9274 319.077 79.1986 317.241 81.4788C317.241 81.4788 318.751 78.7244 318.455 77.7028C318.159 76.6813 315.15 77.5579 314.665 78.9911C314.665 78.9911 315.731 76.4442 315.82 75.8818Z" fill="black"/>
<path d="M317.359 70.7126L316.119 74.5565C316.119 74.5565 319.297 74.8591 321.355 72.4374C321.355 72.4374 322.808 67.6248 323.383 64.5677C323.383 64.5677 321.99 70.2581 320.145 71.8322C318.297 73.4062 317.177 72.1957 317.359 70.7126Z" fill="white"/>
<path opacity="0.51" d="M245.94 67.7332C245.94 67.7332 247.751 76.6424 249.892 80.8005C249.892 80.8005 263.431 83.0795 281.029 83.0795C298.628 83.0795 312.167 80.8005 312.167 80.8005C314.308 76.6418 316.118 67.7332 316.118 67.7332C307.458 84.2123 254.43 84.1868 245.94 67.7332Z" fill="black"/>
<path opacity="0.49" d="M245.678 35.3918C245.678 35.3918 247.239 29.7873 251.308 24.2372C251.308 24.2372 263.3 20.5928 280.898 20.5928C298.497 20.5928 310.508 24.2372 310.508 24.2372C314.663 28.7628 316.683 35.3153 316.683 35.3153C308.022 18.8367 254.168 18.9388 245.678 35.3918Z" fill="white"/>
<path d="M246.481 30.5786C246.481 30.5786 248.497 25.4865 251.307 23.651C251.307 23.651 248.024 22.7686 246.187 24.5398C244.35 26.3109 242.153 30.2777 241.718 31.752C241.718 31.752 244.332 28.9442 246.481 30.5786Z" fill="white"/>
<path d="M315.803 30.4702C315.803 30.4702 313.788 25.3781 310.978 23.5426C310.978 23.5426 314.261 22.6602 316.097 24.4314C317.934 26.2026 320.131 30.1693 320.566 31.6436C320.566 31.6436 317.953 28.8358 315.803 30.4702Z" fill="white"/>
<path d="M275.82 43.6696H237.5V44.5781H270.917L275.82 43.6696Z" fill="black"/>
<path d="M286.516 43.5896H324.835V44.4975H291.419L286.516 43.5896Z" fill="black"/>
<path d="M238.56 90.8582L243.974 81.2185L245.158 83.6239L239.468 91.2217L238.56 90.8582Z" fill="white"/>
<path d="M324.094 90.6998L318.68 81.0601L317.496 83.4656L323.187 91.0633L324.094 90.6998Z" fill="white"/>
</svg>
