<svg width="16" height="15" viewBox="0 0 16 15" fill="none" xmlns="http://www.w3.org/2000/svg">
<path fill-rule="evenodd" clip-rule="evenodd" d="M10.9247 3.91647C11.1779 4.15104 11.1931 4.54648 10.9585 4.79971L5.3296 10.8768C4.86867 11.3744 4.10008 11.3744 3.63916 10.8768L1.29148 8.34219C1.05692 8.08894 1.07206 7.6935 1.32529 7.45894C1.57853 7.22437 1.97397 7.23956 2.20853 7.49275L4.48438 9.94981L10.0415 3.95029C10.2761 3.69706 10.6715 3.68192 10.9247 3.91647ZM14.05 3.91647C14.3032 4.15104 14.3184 4.54647 14.0838 4.79971L8.45487 10.8768C8.22031 11.13 7.82487 11.1452 7.57162 10.9106C7.31838 10.6761 7.30325 10.2806 7.53781 10.0274L13.1667 3.95029C13.4013 3.69706 13.7968 3.68192 14.05 3.91647Z" fill="#2A3137"/>
</svg>
