<svg width="44" height="9" viewBox="0 0 44 9" fill="none" xmlns="http://www.w3.org/2000/svg">
<path fill-rule="evenodd" clip-rule="evenodd" d="M4.888 0.986436C4.6234 0.876877 4.31643 0.876876 4.05183 0.986436C3.86865 1.06228 3.73871 1.20585 3.62357 1.36811C3.50781 1.53125 3.3808 1.75301 3.22264 2.02916L3.22264 2.02917L3.21644 2.03999L3.08897 2.26255C2.98051 2.45191 2.94897 2.50154 2.90938 2.53772C2.86854 2.57503 2.81956 2.60485 2.76533 2.6254C2.71276 2.64533 2.64852 2.65401 2.40749 2.67739L2.29177 2.68862L2.27788 2.68996H2.27788C1.89792 2.72681 1.59439 2.75625 1.36459 2.79706C1.13796 2.8373 0.926745 2.89687 0.778896 3.02856C0.567358 3.21697 0.46777 3.48033 0.509238 3.74165C0.53822 3.9243 0.667292 4.08195 0.821939 4.23208C0.978743 4.38428 1.20254 4.56572 1.48269 4.79282L1.49293 4.80112L1.61509 4.90014C1.82731 5.07216 1.88172 5.12082 1.9122 5.17264C1.94367 5.22616 1.96044 5.28532 1.96116 5.34547C1.96186 5.40364 1.93926 5.47001 1.84208 5.71182L1.83749 5.72325L1.83748 5.72328C1.69406 6.08009 1.58048 6.36269 1.51599 6.58254C1.45335 6.7961 1.41825 7.00582 1.49992 7.18742C1.61484 7.44298 1.86382 7.63448 2.16869 7.70185C2.38472 7.74961 2.61657 7.69398 2.84928 7.61386C3.08818 7.53159 3.39069 7.39955 3.77211 7.23307L3.7846 7.22762L4.08117 7.09815C4.28113 7.01087 4.33573 6.98941 4.38813 6.98079C4.44217 6.97197 4.49766 6.97197 4.55169 6.98079C4.6041 6.98941 4.6587 7.01087 4.85866 7.09815L5.15523 7.22762L5.16776 7.23307C5.54916 7.39955 5.85165 7.53159 6.09054 7.61386C6.32324 7.69398 6.5551 7.74961 6.77113 7.70185C7.076 7.63448 7.325 7.44298 7.43992 7.18742C7.52159 7.00582 7.48646 6.7961 7.42384 6.58254C7.35934 6.36269 7.24577 6.08009 7.10233 5.72325V5.72322L7.09775 5.71182C7.00058 5.47001 6.97798 5.40364 6.97865 5.34547C6.9794 5.28532 6.99614 5.22616 7.02765 5.17264C7.05812 5.12082 7.11251 5.07216 7.32475 4.90014L7.4469 4.80112L7.45716 4.79279C7.7373 4.56569 7.9611 4.38428 8.11789 4.23208C8.27254 4.08195 8.40161 3.9243 8.4306 3.74165C8.47208 3.48033 8.37249 3.21697 8.16092 3.02856C8.01308 2.89687 7.80187 2.8373 7.57523 2.79706C7.34543 2.75625 7.04191 2.72681 6.66196 2.68996L6.64806 2.68862L6.53236 2.67739C6.29131 2.65401 6.22706 2.64533 6.17451 2.6254C6.12027 2.60485 6.0713 2.57503 6.03047 2.53772C5.99087 2.50154 5.95933 2.45191 5.85087 2.26255L5.7234 2.03999L5.71719 2.02917C5.55902 1.75301 5.43204 1.53125 5.31627 1.36811C5.20114 1.20585 5.07122 1.06228 4.888 0.986436Z" fill="#FFC250"/>
<path fill-rule="evenodd" clip-rule="evenodd" d="M13.7078 0.986452C13.4432 0.876892 13.1363 0.876892 12.8717 0.986451C12.6885 1.0623 12.5585 1.20586 12.4434 1.36812C12.3276 1.53127 12.2006 1.75303 12.0425 2.02918L12.0425 2.02919L12.0363 2.04L11.9088 2.26257C11.8003 2.45193 11.7688 2.50155 11.7292 2.53773C11.6884 2.57505 11.6394 2.60486 11.5852 2.62542C11.5326 2.64534 11.4683 2.65402 11.2273 2.67741L11.1116 2.68863L11.0977 2.68998H11.0977C10.7177 2.72683 10.4142 2.75627 10.1844 2.79707C9.95778 2.83732 9.74657 2.89689 9.59872 3.02858C9.38718 3.21699 9.28759 3.48034 9.32906 3.74167C9.35804 3.92431 9.48712 4.08197 9.64176 4.23209C9.79857 4.3843 10.0224 4.56574 10.3025 4.79283L10.3127 4.80113L10.4349 4.90015C10.6471 5.07218 10.7015 5.12084 10.732 5.17266C10.7635 5.22618 10.7803 5.28534 10.781 5.34549C10.7817 5.40365 10.7591 5.47003 10.6619 5.71184L10.6573 5.72327L10.6573 5.7233C10.5139 6.08011 10.4003 6.36271 10.3358 6.58256C10.2732 6.79612 10.2381 7.00584 10.3197 7.18743C10.4347 7.44299 10.6836 7.6345 10.9885 7.70187C11.2045 7.74963 11.4364 7.694 11.6691 7.61387C11.908 7.53161 12.2105 7.39957 12.5919 7.23309L12.6044 7.22764L12.901 7.09817C13.101 7.01089 13.1556 6.98942 13.208 6.98081C13.262 6.97198 13.3175 6.97198 13.3715 6.98081C13.4239 6.98942 13.4785 7.01089 13.6785 7.09817L13.9751 7.22764L13.9876 7.23309C14.369 7.39957 14.6715 7.53161 14.9104 7.61387C15.1431 7.694 15.3749 7.74963 15.591 7.70187C15.8958 7.6345 16.1448 7.44299 16.2597 7.18743C16.3414 7.00584 16.3063 6.79612 16.2437 6.58256C16.1792 6.36271 16.0656 6.08011 15.9222 5.72327V5.72324L15.9176 5.71184C15.8204 5.47003 15.7978 5.40365 15.7985 5.34549C15.7992 5.28534 15.816 5.22618 15.8475 5.17266C15.8779 5.12084 15.9323 5.07218 16.1446 4.90015L16.2667 4.80113L16.277 4.7928C16.5571 4.56571 16.7809 4.3843 16.9377 4.23209C17.0924 4.08197 17.2214 3.92431 17.2504 3.74167C17.2919 3.48034 17.1923 3.21699 16.9807 3.02858C16.8329 2.89689 16.6217 2.83732 16.3951 2.79707C16.1653 2.75627 15.8617 2.72683 15.4818 2.68998L15.4679 2.68863L15.3522 2.67741C15.1111 2.65402 15.0469 2.64534 14.9943 2.62542C14.9401 2.60486 14.8911 2.57505 14.8503 2.53773C14.8107 2.50155 14.7792 2.45193 14.6707 2.26257L14.5432 2.04L14.537 2.02918C14.3788 1.75303 14.2519 1.53127 14.1361 1.36812C14.021 1.20586 13.891 1.0623 13.7078 0.986452Z" fill="#FFC250"/>
<path fill-rule="evenodd" clip-rule="evenodd" d="M22.5276 0.986452C22.263 0.876892 21.9561 0.876892 21.6915 0.986451C21.5083 1.0623 21.3784 1.20586 21.2632 1.36812C21.1475 1.53127 21.0204 1.75303 20.8623 2.02918L20.8623 2.02919L20.8561 2.04L20.7286 2.26257C20.6202 2.45193 20.5886 2.50155 20.549 2.53773C20.5082 2.57505 20.4592 2.60486 20.405 2.62542C20.3524 2.64534 20.2882 2.65402 20.0471 2.67741L19.9314 2.68863L19.9175 2.68998H19.9175C19.5376 2.72683 19.234 2.75627 19.0042 2.79707C18.7776 2.83732 18.5664 2.89689 18.4185 3.02858C18.207 3.21699 18.1074 3.48034 18.1489 3.74167C18.1779 3.92431 18.3069 4.08197 18.4616 4.23209C18.6184 4.3843 18.8422 4.56574 19.1223 4.79283L19.1326 4.80113L19.2547 4.90015C19.467 5.07218 19.5214 5.12084 19.5518 5.17266C19.5833 5.22618 19.6001 5.28534 19.6008 5.34549C19.6015 5.40365 19.5789 5.47003 19.4817 5.71184L19.4771 5.72327L19.4771 5.7233C19.3337 6.08011 19.2201 6.36271 19.1556 6.58256C19.093 6.79612 19.0579 7.00584 19.1396 7.18743C19.2545 7.44299 19.5035 7.6345 19.8083 7.70187C20.0244 7.74963 20.2562 7.694 20.4889 7.61387C20.7278 7.53161 21.0303 7.39957 21.4118 7.23309L21.4242 7.22764L21.7208 7.09817C21.9208 7.01089 21.9754 6.98942 22.0278 6.98081C22.0818 6.97198 22.1373 6.97198 22.1913 6.98081C22.2437 6.98942 22.2983 7.01089 22.4983 7.09817L22.7949 7.22764L22.8074 7.23309C23.1888 7.39957 23.4913 7.53161 23.7302 7.61387C23.9629 7.694 24.1947 7.74963 24.4108 7.70187C24.7157 7.6345 24.9646 7.44299 25.0796 7.18743C25.1612 7.00584 25.1261 6.79612 25.0635 6.58256C24.999 6.36271 24.8854 6.08011 24.742 5.72327V5.72324L24.7374 5.71184C24.6402 5.47003 24.6176 5.40365 24.6183 5.34549C24.619 5.28534 24.6358 5.22618 24.6673 5.17266C24.6978 5.12084 24.7522 5.07218 24.9644 4.90015L25.0866 4.80113L25.0968 4.7928C25.3769 4.56571 25.6008 4.3843 25.7575 4.23209C25.9122 4.08197 26.0413 3.92431 26.0702 3.74167C26.1117 3.48034 26.0121 3.21699 25.8006 3.02858C25.6527 2.89689 25.4415 2.83732 25.2149 2.79707C24.9851 2.75627 24.6816 2.72683 24.3016 2.68998L24.2877 2.68863L24.172 2.67741C23.931 2.65402 23.8667 2.64534 23.8142 2.62542C23.7599 2.60486 23.711 2.57505 23.6701 2.53773C23.6305 2.50155 23.599 2.45193 23.4905 2.26257L23.363 2.04L23.3568 2.02918C23.1987 1.75303 23.0717 1.53127 22.9559 1.36812C22.8408 1.20586 22.7109 1.0623 22.5276 0.986452Z" fill="#FFC250"/>
<path fill-rule="evenodd" clip-rule="evenodd" d="M31.3475 0.986452C31.0829 0.876892 30.7759 0.876892 30.5113 0.986451C30.3281 1.0623 30.1982 1.20586 30.083 1.36812C29.9673 1.53127 29.8403 1.75303 29.6821 2.02918L29.6821 2.02919L29.6759 2.04L29.5484 2.26257C29.44 2.45193 29.4084 2.50155 29.3689 2.53773C29.328 2.57505 29.279 2.60486 29.2248 2.62542C29.1722 2.64534 29.108 2.65402 28.867 2.67741L28.7512 2.68863L28.7374 2.68998H28.7374C28.3574 2.72683 28.0539 2.75627 27.8241 2.79707C27.5974 2.83732 27.3862 2.89689 27.2384 3.02858C27.0268 3.21699 26.9272 3.48034 26.9687 3.74167C26.9977 3.92431 27.1268 4.08197 27.2814 4.23209C27.4382 4.3843 27.662 4.56574 27.9422 4.79283L27.9524 4.80113L28.0746 4.90015C28.2868 5.07218 28.3412 5.12084 28.3717 5.17266C28.4031 5.22618 28.4199 5.28534 28.4206 5.34549C28.4213 5.40365 28.3987 5.47003 28.3016 5.71184L28.297 5.72327L28.297 5.7233C28.1535 6.08011 28.04 6.36271 27.9755 6.58256C27.9128 6.79612 27.8777 7.00584 27.9594 7.18743C28.0743 7.44299 28.3233 7.6345 28.6282 7.70187C28.8442 7.74963 29.076 7.694 29.3088 7.61387C29.5477 7.53161 29.8502 7.39957 30.2316 7.23309L30.2441 7.22764L30.5406 7.09817C30.7406 7.01089 30.7952 6.98942 30.8476 6.98081C30.9016 6.97198 30.9571 6.97198 31.0112 6.98081C31.0636 6.98942 31.1182 7.01089 31.3181 7.09817L31.6147 7.22764L31.6272 7.23309C32.0086 7.39957 32.3111 7.53161 32.55 7.61387C32.7827 7.694 33.0146 7.74963 33.2306 7.70187C33.5355 7.6345 33.7845 7.44299 33.8994 7.18743C33.9811 7.00584 33.9459 6.79612 33.8833 6.58256C33.8188 6.36271 33.7052 6.08011 33.5618 5.72327V5.72324L33.5572 5.71184C33.46 5.47003 33.4374 5.40365 33.4381 5.34549C33.4389 5.28534 33.4556 5.22618 33.4871 5.17266C33.5176 5.12084 33.572 5.07218 33.7842 4.90015L33.9064 4.80113L33.9166 4.7928C34.1968 4.56571 34.4206 4.3843 34.5774 4.23209C34.732 4.08197 34.8611 3.92431 34.8901 3.74167C34.9315 3.48034 34.832 3.21699 34.6204 3.02858C34.4726 2.89689 34.2613 2.83732 34.0347 2.79707C33.8049 2.75627 33.5014 2.72683 33.1214 2.68998L33.1075 2.68863L32.9918 2.67741C32.7508 2.65402 32.6865 2.64534 32.634 2.62542C32.5797 2.60486 32.5308 2.57505 32.4899 2.53773C32.4503 2.50155 32.4188 2.45193 32.3103 2.26257L32.1829 2.04L32.1767 2.02918C32.0185 1.75303 31.8915 1.53127 31.7757 1.36812C31.6606 1.20586 31.5307 1.0623 31.3475 0.986452Z" fill="#FFC250"/>
<path fill-rule="evenodd" clip-rule="evenodd" d="M40.1673 0.986452C39.9027 0.876892 39.5957 0.876892 39.3311 0.986451C39.1479 1.0623 39.018 1.20586 38.9029 1.36812C38.7871 1.53127 38.6601 1.75303 38.5019 2.02918L38.5019 2.02919L38.4957 2.04L38.3683 2.26257C38.2598 2.45193 38.2283 2.50155 38.1887 2.53773C38.1478 2.57505 38.0989 2.60486 38.0446 2.62542C37.9921 2.64534 37.9278 2.65402 37.6868 2.67741L37.5711 2.68863L37.5572 2.68998H37.5572C37.1772 2.72683 36.8737 2.75627 36.6439 2.79707C36.4173 2.83732 36.206 2.89689 36.0582 3.02858C35.8467 3.21699 35.7471 3.48034 35.7885 3.74167C35.8175 3.92431 35.9466 4.08197 36.1012 4.23209C36.258 4.3843 36.4818 4.56574 36.762 4.79283L36.7722 4.80113L36.8944 4.90015C37.1066 5.07218 37.161 5.12084 37.1915 5.17266C37.223 5.22618 37.2397 5.28534 37.2405 5.34549C37.2412 5.40365 37.2186 5.47003 37.1214 5.71184L37.1168 5.72327L37.1168 5.7233C36.9734 6.08011 36.8598 6.36271 36.7953 6.58256C36.7326 6.79612 36.6975 7.00584 36.7792 7.18743C36.8941 7.44299 37.1431 7.6345 37.448 7.70187C37.664 7.74963 37.8959 7.694 38.1286 7.61387C38.3675 7.53161 38.67 7.39957 39.0514 7.23309L39.0639 7.22764L39.3605 7.09817C39.5604 7.01089 39.615 6.98942 39.6674 6.98081C39.7215 6.97198 39.777 6.97198 39.831 6.98081C39.8834 6.98942 39.938 7.01089 40.138 7.09817L40.4345 7.22764L40.4471 7.23309C40.8285 7.39957 41.131 7.53161 41.3698 7.61387C41.6025 7.694 41.8344 7.74963 42.0504 7.70187C42.3553 7.6345 42.6043 7.44299 42.7192 7.18743C42.8009 7.00584 42.7658 6.79612 42.7031 6.58256C42.6386 6.36271 42.5251 6.08011 42.3816 5.72327V5.72324L42.3771 5.71184C42.2799 5.47003 42.2573 5.40365 42.2579 5.34549C42.2587 5.28534 42.2754 5.22618 42.3069 5.17266C42.3374 5.12084 42.3918 5.07218 42.604 4.90015L42.7262 4.80113L42.7365 4.7928C43.0166 4.56571 43.2404 4.3843 43.3972 4.23209C43.5518 4.08197 43.6809 3.92431 43.7099 3.74167C43.7514 3.48034 43.6518 3.21699 43.4402 3.02858C43.2924 2.89689 43.0812 2.83732 42.8545 2.79707C42.6247 2.75627 42.3212 2.72683 41.9413 2.68998L41.9274 2.68863L41.8117 2.67741C41.5706 2.65402 41.5064 2.64534 41.4538 2.62542C41.3996 2.60486 41.3506 2.57505 41.3098 2.53773C41.2702 2.50155 41.2386 2.45193 41.1302 2.26257L41.0027 2.04L40.9965 2.02918C40.8383 1.75303 40.7113 1.53127 40.5956 1.36812C40.4804 1.20586 40.3505 1.0623 40.1673 0.986452Z" fill="#FFC250"/>
</svg>
