<svg width="201" height="32" viewBox="0 0 201 32" fill="none" xmlns="http://www.w3.org/2000/svg">
<path d="M28.1142 6.07022C28.8464 7.02982 29.4664 8.07235 29.9614 9.17686L15.9196 19.6686L10.0511 15.9399V11.4541L15.9196 15.1828L28.1142 6.07022Z" fill="#44A837"/>
<path d="M4.0608 15.6241C4.0608 15.4228 4.06564 15.2228 4.07533 15.024L0.518881 14.8474C0.506776 15.105 0.499516 15.3652 0.499516 15.6277C0.498003 17.679 0.896072 19.7103 1.6709 21.6053C2.44572 23.5003 3.58204 25.2215 5.01468 26.6703L7.53735 24.1146C6.43456 23.0013 5.55971 21.6781 4.96309 20.221C4.36646 18.7639 4.05983 17.2016 4.0608 15.6241Z" fill="#44A837"/>
<path d="M15.9154 3.60869C16.1139 3.60869 16.3112 3.61605 16.5073 3.62587L16.6852 0.0198555C16.4303 0.00758599 16.1736 0.00145198 15.9154 0.00145198C13.8907 -0.0010507 11.8855 0.401847 10.0148 1.18701C8.1442 1.97217 6.44501 3.12414 5.01483 4.57676L7.53751 7.13373C8.6359 6.01558 9.94152 5.12852 11.3793 4.52357C12.8171 3.91862 14.3586 3.6077 15.9154 3.60869Z" fill="#44A837"/>
<path d="M15.915 27.6402C15.7166 27.6402 15.5192 27.6402 15.322 27.6243L15.144 31.2291C15.3998 31.2421 15.6568 31.2487 15.915 31.2487C17.9389 31.2508 19.9432 30.8477 21.8128 30.0623C23.6824 29.2769 25.3805 28.1248 26.8096 26.6722L24.2918 24.1165C23.1932 25.234 21.8877 26.1206 20.4502 26.7253C19.0127 27.33 17.4715 27.641 15.915 27.6402Z" fill="#44A837"/>
<path d="M22.5968 5.70534L25.594 3.46615C22.8546 1.21771 19.435 -0.00625287 15.91 1.24906e-05V3.60848C18.2969 3.60548 20.6285 4.33664 22.5968 5.70534Z" fill="#44A837"/>
<path d="M31.3302 15.6244C31.3321 14.6857 31.2511 13.7486 31.0881 12.8245L27.7702 15.3029C27.7702 15.4097 27.7702 15.5164 27.7702 15.6244C27.771 17.3032 27.4238 18.9635 26.7511 20.4976C26.0784 22.0316 25.0951 23.4053 23.8651 24.5296L26.2582 27.2105C27.8574 25.7472 29.1353 23.9597 30.009 21.9638C30.8828 19.9678 31.3329 17.808 31.3302 15.6244Z" fill="#44A837"/>
<path d="M15.9158 27.6395C14.2593 27.6401 12.6213 27.288 11.1075 26.6062C9.59388 25.9244 8.23834 24.9279 7.12874 23.6813L4.48502 26.1058C5.92849 27.7269 7.692 29.0224 9.66121 29.9082C11.6304 30.794 13.7613 31.2505 15.9158 31.2479V27.6395Z" fill="#44A837"/>
<path d="M7.96588 6.71946L5.57393 4.03856C3.97434 5.50155 2.696 7.28899 1.82181 9.28496C0.947632 11.2809 0.497128 13.4408 0.499521 15.6247H4.06081C4.06008 13.9459 4.40732 12.2856 5.08003 10.7516C5.75275 9.21752 6.73593 7.8438 7.96588 6.71946Z" fill="#44A837"/>
<mask id="mask0_0_422" style="mask-type:luminance" maskUnits="userSpaceOnUse" x="39" y="5" width="162" height="22">
<path d="M200.497 5.43653H39.6255V26.0916H200.497V5.43653Z" fill="white"/>
</mask>
<g mask="url(#mask0_0_422)">
<path d="M89.4535 8.93549L93.8642 5.67912H79.1025V25.2471H93.8642V21.9908H83.3146V16.9784H92.3139V13.722H83.3146V8.93549H89.4535Z" fill="#44A837"/>
<path d="M69.1719 13.3031H64.047V8.93516H72.2262L76.6342 5.66888H59.8374V25.2369H68.6298C73.5593 25.2369 76.3884 22.998 76.3884 19.0933C76.3884 15.3578 73.8259 13.3031 69.1719 13.3031ZM68.4402 21.9795H64.047V16.5575H68.4402C71.1064 16.5575 72.3565 17.4661 72.3565 19.2685C72.3565 21.0709 71.0264 21.9795 68.4402 21.9795Z" fill="#44A837"/>
<path d="M104.715 5.67643H96.6802V25.2444H100.892V19.7011H104.715C109.842 19.7011 113.013 16.9978 113.013 12.6783C113.013 8.35898 109.842 5.67643 104.715 5.67643ZM104.627 16.4423H100.892V8.9353H104.627C107.323 8.9353 108.811 10.2691 108.811 12.6903C108.811 15.1114 107.323 16.4423 104.627 16.4423Z" fill="#44A837"/>
<path d="M53.5165 20.627C52.4285 21.2174 51.2095 21.5231 49.9724 21.5159C46.2696 21.5159 43.5835 18.8668 43.5835 15.219C43.5835 11.5712 46.2696 8.91635 49.9724 8.91635C51.3077 8.89363 52.6153 9.29939 53.7042 10.0744L56.6502 7.90017L56.451 7.75831C54.7325 6.24417 52.4362 5.44223 49.8079 5.44223C46.957 5.44223 44.372 6.4034 42.5264 8.15204C41.5931 9.05239 40.8551 10.1359 40.3581 11.3348C39.8612 12.5338 39.616 13.8224 39.6381 15.1205C39.6183 16.4318 39.8624 17.7337 40.3556 18.9484C40.8489 20.1631 41.5813 21.2656 42.5091 22.1904C44.3633 24.0085 46.9426 25.0102 49.7732 25.0102C52.7308 25.0102 55.3159 23.9766 57.0662 22.0949L54.4292 20.1262L53.5165 20.627Z" fill="#44A837"/>
<path d="M129.715 13.3031H124.592V8.93516H135.601V5.66888H120.379V25.2369H129.161C134.09 25.2369 136.919 22.998 136.919 19.0933C136.93 15.3578 134.368 13.3031 129.715 13.3031ZM128.983 21.9795H124.592V16.5575H128.983C131.649 16.5575 132.898 17.4661 132.898 19.2685C132.898 21.0709 131.58 21.9795 128.983 21.9795Z" fill="#44A837"/>
<path d="M184.801 25.2078H180.531V5.6398H184.801V13.8585H187.125L193.401 5.6398H198.24L190.796 14.9485L199.44 25.2078H193.774L187.421 17.5119H184.801V25.2078Z" fill="#44A837"/>
<path d="M152.431 21.4897H143.398L141.867 25.2896H137.323L145.795 5.7216H150.338L158.672 25.2896H153.962L152.431 21.4897ZM151.016 17.9441L147.941 10.3443L144.849 17.9441H151.016Z" fill="#44A837"/>
<path d="M164.423 5.7216V13.8928H173.258V5.7216H177.661V25.2896H173.258V17.5791H164.423V25.2896H160.02V5.7216H164.423Z" fill="#44A837"/>
</g>
</svg>
