<svg width="20" height="21" viewBox="0 0 20 21" fill="none" xmlns="http://www.w3.org/2000/svg">
<rect x="0.454545" y="0.954545" width="19.0909" height="19.0909" rx="9.54545" stroke="white" stroke-width="0.909091"/>
<path fill-rule="evenodd" clip-rule="evenodd" d="M13.8181 7.2783C13.8181 7.12009 13.7552 6.96836 13.6434 6.85647C13.5315 6.74459 13.3798 6.6817 13.2216 6.68164H6.77863C6.62106 6.68267 6.47029 6.74599 6.35923 6.85777C6.24818 6.96956 6.18584 7.12074 6.18584 7.27832C6.18584 7.43589 6.24818 7.58707 6.35923 7.69886C6.47029 7.81065 6.62106 7.87396 6.77863 7.87499H11.7813L6.35681 13.2992C6.30135 13.3546 6.25734 13.4204 6.22731 13.4927C6.19727 13.5651 6.1818 13.6427 6.18176 13.7211C6.18173 13.7995 6.19714 13.8771 6.22712 13.9495C6.25709 14.0219 6.30105 14.0877 6.35646 14.1432C6.41188 14.1986 6.47768 14.2425 6.55009 14.2725C6.6225 14.3025 6.70012 14.3179 6.77849 14.3179C6.85687 14.3179 6.93447 14.3024 7.00686 14.2724C7.07925 14.2423 7.14502 14.1983 7.2004 14.1429L12.625 8.71866V13.7214C12.625 13.8797 12.6879 14.0314 12.7997 14.1433C12.9116 14.2552 13.0633 14.318 13.2216 14.318C13.3798 14.318 13.5315 14.2552 13.6434 14.1433C13.7553 14.0314 13.8181 13.8797 13.8181 13.7214V7.2783Z" fill="white"/>
</svg>
