<svg width="140" height="67" viewBox="0 0 140 67" fill="none" xmlns="http://www.w3.org/2000/svg">
<path d="M43.9353 20.6396H52.7567V23.522H48.5603V43.7741H43.9353V20.6396Z" fill="white"/>
<path d="M57.9865 35.0892L58.7792 23.522H59.0447L59.8373 35.0892H57.9865ZM52.8647 43.7741H57.393L57.8216 37.6302H60.0023L60.4327 43.7741H64.9591L62.5471 20.6396H55.2768L52.8647 43.7741Z" fill="white"/>
<path d="M71.5828 35.677V40.0384C71.5828 40.6263 72.0379 40.7969 72.3034 40.7969C72.7395 40.7969 73.0429 40.4366 73.0429 40.0384V34.653C73.0429 33.9325 72.9102 33.136 71.1846 33.136H69.3073V30.595H71.2604C72.5689 30.595 73.0429 30.2916 73.0429 28.8694V24.2805C73.0429 23.8823 72.7395 23.522 72.3034 23.522C72.0379 23.522 71.5828 23.6737 71.5828 24.2805V28.054H66.9559V24.7735C66.9559 23.1617 67.1455 20.6396 70.3882 20.6396H74.2186C77.4612 20.6396 77.6698 23.1617 77.6698 24.7735V28.4712C77.6698 30.9932 75.9063 31.6759 74.522 31.619V31.8466C77.6319 31.7707 77.6698 34.16 77.6698 34.9754V39.6402C77.6698 41.271 77.4612 43.7741 74.2186 43.7741H70.3882C67.1455 43.7741 66.9559 41.271 66.9559 39.6402V35.677H71.5828Z" fill="white"/>
<path d="M80.7039 20.6396H91.4177V43.7741H86.7909V23.522H85.3307V43.7741H80.7039V20.6396Z" fill="white"/>
<path d="M99.0785 33.3636V23.522H99.6853C100.178 23.522 100.539 23.9391 100.539 24.6787V32.2069C100.539 32.9464 100.178 33.3636 99.6853 33.3636H99.0785ZM94.4517 43.7741H99.0785V35.9046H101.733C104.957 35.9046 105.166 33.4015 105.166 31.7707V24.7735C105.166 23.1617 104.957 20.6396 101.733 20.6396H94.4517V43.7741Z" fill="white"/>
<path d="M114.287 40.0384C114.287 40.4366 113.983 40.7969 113.547 40.7969C113.282 40.7969 112.827 40.6263 112.827 40.0384V24.2805C112.827 23.6737 113.282 23.522 113.547 23.522C113.983 23.522 114.287 23.8823 114.287 24.2805V40.0384ZM108.2 39.6402C108.2 41.271 108.408 43.7741 111.632 43.7741H115.481C118.705 43.7741 118.914 41.271 118.914 39.6402V24.7735C118.914 23.1617 118.705 20.6396 115.481 20.6396H111.632C108.408 20.6396 108.2 23.1617 108.2 24.7735V39.6402Z" fill="white"/>
<path d="M133.97 20.6396H140V43.7741H135.373V29.2676H135.202L132.813 43.7741H129.115L126.745 29.2676H126.574V43.7741H121.948V20.6396H127.959L130.974 36.9096L133.97 20.6396Z" fill="white"/>
<path d="M36.9354 12.0602C35.5189 5.85944 31.9691 0.815393 31.4799 0C30.7062 1.15672 27.8751 5.61293 26.4358 10.5432C24.8638 16.0613 24.6324 20.9537 25.1748 25.7512C25.7133 30.5677 27.748 35.517 27.748 35.517C28.8289 38.0959 30.4483 40.8834 31.5026 42.2487C33.0481 40.2387 36.5998 34.2465 37.7072 26.4339C38.3235 22.0725 38.35 18.261 36.9354 12.0602ZM31.4799 40.6938C30.7839 39.3854 29.703 36.9013 29.6007 33.0329C29.5741 29.3162 31.0665 26.1115 31.5026 25.4478C31.8913 26.1115 33.177 28.899 33.3306 32.7105C33.4349 36.4272 32.1985 39.3664 31.4799 40.6938ZM36.5239 22.5845C36.4708 24.9548 36.1883 27.4579 35.828 28.9559C35.9569 26.377 35.6478 22.7551 35.0562 19.9108C34.4646 17.0853 32.7902 12.3447 31.4533 10.164C30.2188 12.2499 28.698 16.3458 27.9016 19.8918C27.1014 23.4378 27.0786 27.7423 27.0786 29.0318C26.8662 27.9509 26.3353 24.0636 26.4851 20.1762C26.6102 16.9715 27.3612 13.6531 27.7727 12.1361C29.3428 7.07306 31.1196 3.83045 31.4533 3.31845C31.787 3.83045 34.0246 7.83156 35.1852 12.0223C36.34 16.213 36.5732 20.2331 36.5239 22.5845Z" fill="white"/>
<path d="M23.1135 43.6899V50.9146C23.123 50.9146 23.1306 50.8957 23.1401 50.8957C25.6773 48.3547 29.7922 48.3547 32.3313 50.8957C34.8685 53.4177 34.8685 57.5326 32.3313 60.0736C32.3199 60.0926 32.3085 60.0926 32.2971 60.1115C32.2839 60.1115 32.2706 60.1305 32.2592 60.1494C29.7277 62.6525 26.4206 63.904 23.1135 63.904C19.7913 63.904 16.469 62.6525 13.9356 60.1115C9.46803 55.6553 8.93899 48.7339 12.3447 43.6899C12.8036 43.0072 13.3326 42.3625 13.9356 41.7557C16.469 39.2147 19.7913 37.9632 23.1135 37.9632V20.5934C10.3479 20.5934 0 30.928 0 43.6899C0 56.4517 10.3479 66.8053 23.1135 66.8053C29.7694 66.8053 35.7654 63.9799 39.9827 59.4857V43.6899H23.1135Z" fill="white"/>
<path fill-rule="evenodd" clip-rule="evenodd" d="M139.98 45.7744H43.9353V66.8225H139.98V45.7744ZM116.923 53.7942C116.595 53.7942 116.302 53.8533 116.042 53.9715C115.79 54.0898 115.577 54.2601 115.401 54.4827C115.226 54.6982 115.092 54.9625 115.001 55.2754C114.917 55.5883 114.875 55.9395 114.875 56.3289C114.875 56.8574 114.944 57.3094 115.081 57.685C115.226 58.0535 115.451 58.3351 115.756 58.5299C116.061 58.7246 116.45 58.8219 116.923 58.8219C117.259 58.8219 117.591 58.7872 117.919 58.7176C118.255 58.6481 118.617 58.5507 119.006 58.4255V59.7503C118.647 59.8824 118.293 59.9798 117.942 60.0423C117.591 60.1049 117.198 60.1362 116.763 60.1362C115.924 60.1362 115.23 59.9798 114.68 59.6668C114.139 59.3469 113.738 58.9019 113.479 58.3317C113.219 57.7545 113.09 57.0834 113.09 56.3185C113.09 55.7552 113.174 55.2406 113.341 54.7747C113.509 54.3019 113.753 53.8951 114.074 53.5543C114.402 53.2136 114.802 52.9493 115.275 52.7616C115.756 52.5738 116.305 52.4799 116.923 52.4799C117.328 52.4799 117.732 52.5286 118.136 52.626C118.548 52.7164 118.941 52.8415 119.315 53.0015L118.754 54.2845C118.449 54.1523 118.14 54.0376 117.827 53.9403C117.522 53.8429 117.221 53.7942 116.923 53.7942ZM51.6221 52.5842H50.0658V60.0319H52.1485L55.9364 54.3262H55.9822C55.9745 54.3749 55.9631 54.4792 55.9478 54.6391C55.9402 54.7921 55.9287 54.9729 55.9135 55.1815C55.9059 55.3901 55.8982 55.6092 55.8906 55.8387C55.883 56.0612 55.8792 56.2663 55.8792 56.4541V60.0319H57.4241V52.5842H55.3528L51.5764 58.2378H51.542C51.5497 58.1822 51.5573 58.0813 51.5649 57.9353C51.5725 57.7823 51.5802 57.605 51.5878 57.4033C51.5954 57.1947 51.6031 56.9826 51.6107 56.767C51.6183 56.5515 51.6221 56.3567 51.6221 56.1829V52.5842ZM72.2349 60.0319H73.9629V52.5842H72.2349V55.5049H68.9963V52.5842H67.2683V60.0319H68.9963V56.8192H72.2349V60.0319ZM86.3408 52.5842C87.0656 52.5842 87.6721 52.6468 88.1604 52.772C88.6563 52.8902 89.0263 53.0884 89.2704 53.3666C89.5222 53.6378 89.6481 54.0063 89.6481 54.4722C89.6481 54.7504 89.5985 55.0042 89.4993 55.2337C89.4001 55.4632 89.2552 55.6509 89.0644 55.797C88.8813 55.943 88.6563 56.0369 88.3893 56.0786V56.1307C88.6639 56.1794 88.9118 56.2663 89.1331 56.3915C89.3543 56.5167 89.5298 56.6975 89.6595 56.9339C89.7892 57.1704 89.854 57.4833 89.854 57.8727C89.854 58.3247 89.732 58.7141 89.4878 59.041C89.2513 59.3609 88.908 59.6077 88.4579 59.7816C88.0078 59.9485 87.4738 60.0319 86.8558 60.0319H83.8004V52.5842H86.3408ZM86.5354 55.5362C87.0389 55.5362 87.386 55.4632 87.5768 55.3171C87.7751 55.1711 87.8743 54.959 87.8743 54.6808C87.8743 54.3957 87.7599 54.1906 87.531 54.0654C87.3021 53.9403 86.9397 53.8777 86.4438 53.8777H85.5283V55.5362H86.5354ZM85.5283 56.7879V58.728H86.6613C87.18 58.728 87.5424 58.6376 87.7484 58.4568C87.9544 58.2691 88.0574 58.0222 88.0574 57.7162C88.0574 57.5285 88.0116 57.3651 87.9201 57.226C87.8361 57.0869 87.6874 56.9791 87.4738 56.9026C87.2602 56.8261 86.9702 56.7879 86.604 56.7879H85.5283ZM99.2707 60.0319H103.974V58.728H100.999V56.8088H103.768V55.5153H100.999V53.8777H103.974V52.5842H99.2707V60.0319ZM129.943 60.0319H131.671V53.8985H133.891V52.5842H127.723V53.8985H129.943V60.0319Z" fill="white"/>
</svg>
