<svg width="52" height="54" viewBox="0 0 52 54" fill="none" xmlns="http://www.w3.org/2000/svg">
<path d="M32.8075 5.31794C32.2425 2.84079 30.8266 0.825742 30.6315 0.5C30.3229 0.962098 29.1936 2.74231 28.6195 4.71192C27.9925 6.91635 27.9003 8.8708 28.1166 10.7874C28.3314 12.7115 29.1429 14.6887 29.1429 14.6887C29.5741 15.7189 30.22 16.8325 30.6405 17.378C31.257 16.575 32.6736 14.1811 33.1153 11.0601C33.3611 9.31775 33.3717 7.7951 32.8075 5.31794ZM30.6315 16.7568C30.3539 16.2341 29.9228 15.2417 29.8819 13.6963C29.8713 12.2115 30.4666 10.9313 30.6405 10.6662C30.7956 10.9313 31.3084 12.0449 31.3697 13.5675C31.4113 15.0523 30.9181 16.2265 30.6315 16.7568ZM32.6434 9.52228C32.6222 10.4692 32.5095 11.4692 32.3658 12.0676C32.4172 11.0374 32.2939 9.59046 32.0579 8.45415C31.822 7.32542 31.1541 5.43157 30.6209 4.56041C30.1285 5.3937 29.5219 7.02998 29.2042 8.44658C28.885 9.86317 28.876 11.5828 28.876 12.0979C28.7912 11.6661 28.5795 10.1132 28.6392 8.56021C28.6891 7.27997 28.9886 5.95428 29.1528 5.34825C29.779 3.32562 30.4877 2.03023 30.6209 1.82569C30.754 2.03023 31.6465 3.62863 32.1094 5.30279C32.57 6.97696 32.663 8.58294 32.6434 9.52228Z" fill="#1871B5"/>
<path d="M27.2944 17.9537V20.8399C27.2982 20.8399 27.3012 20.8323 27.305 20.8323C28.317 19.8172 29.9583 19.8172 30.9711 20.8323C31.9831 21.8399 31.9831 23.4837 30.9711 24.4988C30.9665 24.5064 30.962 24.5064 30.9574 24.514C30.9522 24.514 30.9469 24.5216 30.9423 24.5291C29.9326 25.5291 28.6135 26.0291 27.2944 26.0291C25.9693 26.0291 24.6441 25.5291 23.6337 24.514C21.8517 22.7338 21.6407 19.9687 22.9991 17.9537C23.1821 17.681 23.3931 17.4234 23.6337 17.181C24.6441 16.1659 25.9693 15.6659 27.2944 15.6659V8.72687C22.2026 8.72687 18.0752 12.8555 18.0752 17.9537C18.0752 23.0519 22.2026 27.1881 27.2944 27.1881C29.9492 27.1881 32.3408 26.0594 34.023 24.264V17.9537H27.2944Z" fill="#1871B5"/>
<path d="M0.5 29.3574H5.18322V30.8876H2.95537V41.6393H0.5V29.3574Z" fill="#1871B5"/>
<path d="M7.95984 37.0286L8.38065 30.8876H8.52159L8.94239 37.0286H7.95984ZM5.24072 41.6393H7.64474L7.87227 38.3776H9.02998L9.2585 41.6393H11.6615L10.381 29.3574H6.52126L5.24072 41.6393Z" fill="#1871B5"/>
<path d="M15.1778 37.3406V39.6561C15.1778 39.9682 15.4194 40.0588 15.5604 40.0588C15.7919 40.0588 15.953 39.8675 15.953 39.6561V36.797C15.953 36.4145 15.8825 35.9917 14.9664 35.9917H13.9698V34.6427H15.0067C15.7013 34.6427 15.953 34.4816 15.953 33.7266V31.2903C15.953 31.0789 15.7919 30.8876 15.5604 30.8876C15.4194 30.8876 15.1778 30.9682 15.1778 31.2903V33.2937H12.7214V31.5521C12.7214 30.6964 12.8221 29.3574 14.5436 29.3574H16.5771C18.2986 29.3574 18.4094 30.6964 18.4094 31.5521V33.5151C18.4094 34.8541 17.4731 35.2165 16.7382 35.1863V35.3071C18.3892 35.2668 18.4094 36.5353 18.4094 36.9682V39.4447C18.4094 40.3104 18.2986 41.6393 16.5771 41.6393H14.5436C12.8221 41.6393 12.7214 40.3104 12.7214 39.4447V37.3406H15.1778Z" fill="#1871B5"/>
<path d="M20.0203 29.3574H25.7082V41.6393H23.2518V30.8876H22.4766V41.6393H20.0203V29.3574Z" fill="#1871B5"/>
<path d="M29.7752 36.1125V30.8876H30.0974C30.3591 30.8876 30.5504 31.1091 30.5504 31.5017V35.4984C30.5504 35.891 30.3591 36.1125 30.0974 36.1125H29.7752ZM27.3188 41.6393H29.7752V37.4615H31.1846C32.896 37.4615 33.0068 36.1326 33.0068 35.2668V31.5521C33.0068 30.6964 32.896 29.3574 31.1846 29.3574H27.3188V41.6393Z" fill="#1871B5"/>
<path d="M37.849 39.6561C37.849 39.8675 37.6879 40.0588 37.4564 40.0588C37.3154 40.0588 37.0738 39.9682 37.0738 39.6561V31.2903C37.0738 30.9682 37.3154 30.8876 37.4564 30.8876C37.6879 30.8876 37.849 31.0789 37.849 31.2903V39.6561ZM34.6174 39.4447C34.6174 40.3104 34.7282 41.6393 36.4396 41.6393H38.4832C40.1946 41.6393 40.3053 40.3104 40.3053 39.4447V31.5521C40.3053 30.6964 40.1946 29.3574 38.4832 29.3574H36.4396C34.7282 29.3574 34.6174 30.6964 34.6174 31.5521V39.4447Z" fill="#1871B5"/>
<path d="M48.2986 29.3574H51.4999V41.6393H49.0435V33.938H48.9529L47.6845 41.6393H45.7214L44.463 33.938H44.3724V41.6393H41.916V29.3574H45.1073L46.708 37.995L48.2986 29.3574Z" fill="#1871B5"/>
<path fill-rule="evenodd" clip-rule="evenodd" d="M51.4894 42.7012H0.5V53.8755H51.4894V42.7012ZM39.2488 46.9587C39.0746 46.9587 38.9187 46.9901 38.781 47.0529C38.6473 47.1156 38.5339 47.2061 38.4408 47.3242C38.3476 47.4387 38.2767 47.579 38.2281 47.7451C38.1836 47.9112 38.1613 48.0977 38.1613 48.3044C38.1613 48.585 38.1978 48.8249 38.2707 49.0243C38.3476 49.22 38.4671 49.3695 38.6291 49.4729C38.7911 49.5762 38.9977 49.6279 39.2488 49.6279C39.427 49.6279 39.6032 49.6095 39.7773 49.5725C39.9556 49.5356 40.1479 49.4839 40.3545 49.4175V50.1208C40.1641 50.1909 39.9758 50.2426 39.7895 50.2758C39.6032 50.3091 39.3946 50.3257 39.1637 50.3257C38.7182 50.3257 38.3496 50.2426 38.058 50.0765C37.7705 49.9066 37.5578 49.6704 37.4201 49.3676C37.2824 49.0612 37.2136 48.705 37.2136 48.2989C37.2136 47.9998 37.2581 47.7266 37.3472 47.4793C37.4363 47.2282 37.5659 47.0123 37.736 46.8314C37.9102 46.6505 38.1228 46.5102 38.3739 46.4105C38.6291 46.3108 38.9207 46.261 39.2488 46.261C39.4635 46.261 39.6781 46.2868 39.8928 46.3385C40.1115 46.3865 40.3201 46.453 40.5185 46.5379L40.2208 47.219C40.0588 47.1489 39.8948 47.088 39.7287 47.0363C39.5667 46.9846 39.4067 46.9587 39.2488 46.9587ZM4.58088 46.3164H3.75464V50.2703H4.86035L6.87128 47.2412H6.89559C6.89154 47.267 6.88546 47.3224 6.87736 47.4073C6.87331 47.4885 6.86723 47.5845 6.85913 47.6953C6.85508 47.806 6.85103 47.9223 6.84698 48.0441C6.84293 48.1623 6.84091 48.2712 6.84091 48.3709V50.2703H7.66108V46.3164H6.56144L4.55658 49.3178H4.53836C4.54241 49.2883 4.54646 49.2347 4.55051 49.1572C4.55456 49.076 4.55861 48.9818 4.56266 48.8748L4.57481 48.537C4.57886 48.4225 4.58088 48.3192 4.58088 48.2269V46.3164ZM15.524 50.2703H16.4414V46.3164H15.524V47.8669H13.8047V46.3164H12.8873V50.2703H13.8047V48.5647H15.524V50.2703ZM23.0128 46.3164C23.3976 46.3164 23.7196 46.3496 23.9788 46.4161C24.242 46.4788 24.4385 46.584 24.5681 46.7317C24.7017 46.8757 24.7686 47.0713 24.7686 47.3187C24.7686 47.4664 24.7422 47.6011 24.6896 47.7229C24.6369 47.8448 24.56 47.9445 24.4587 48.022C24.3615 48.0995 24.242 48.1493 24.1003 48.1715V48.1992C24.2461 48.225 24.3777 48.2712 24.4952 48.3376C24.6126 48.4041 24.7058 48.5001 24.7746 48.6256C24.8435 48.7511 24.8779 48.9172 24.8779 49.124C24.8779 49.364 24.8131 49.5707 24.6835 49.7442C24.558 49.914 24.3757 50.0451 24.1367 50.1374C23.8978 50.226 23.6142 50.2703 23.2862 50.2703H21.6641V46.3164H23.0128ZM23.1161 47.8835C23.3834 47.8835 23.5677 47.8448 23.6689 47.7672C23.7742 47.6897 23.8269 47.5771 23.8269 47.4294C23.8269 47.2781 23.7661 47.1692 23.6446 47.1027C23.5231 47.0363 23.3307 47.003 23.0675 47.003H22.5814V47.8835H23.1161ZM22.5814 48.5481V49.5781H23.1829C23.4583 49.5781 23.6507 49.5301 23.7601 49.4341C23.8694 49.3344 23.9241 49.2034 23.9241 49.0409C23.9241 48.9412 23.8998 48.8545 23.8512 48.7806C23.8066 48.7068 23.7277 48.6496 23.6142 48.609C23.5008 48.5684 23.3469 48.5481 23.1525 48.5481H22.5814ZM29.8772 50.2703H32.3741V49.5781H30.7945V48.5591H32.2648V47.8725H30.7945V47.003H32.3741V46.3164H29.8772V50.2703ZM46.1608 50.2703H47.0782V47.0141H48.2568V46.3164H44.9822V47.0141H46.1608V50.2703Z" fill="#1871B5"/>
</svg>
