<svg width="140" height="38" viewBox="0 0 140 38" fill="none" xmlns="http://www.w3.org/2000/svg">
<path d="M18 36C27.3888 36 35 28.3888 35 19C35 9.61116 27.3888 2 18 2C8.61116 2 1 9.61116 1 19C1 28.3888 8.61116 36 18 36Z" fill="#FC3F1D"/>
<path d="M21.1313 10.732H19.4238C16.4641 10.732 14.9842 12.2119 14.9842 14.4886C14.9842 16.993 16.0087 18.2451 18.1716 19.725L19.8791 20.9772L14.9842 28.6041H11L15.6672 21.6602C12.9352 19.725 11.4553 17.9036 11.4553 14.7163C11.4553 10.732 14.1874 8 19.4238 8H24.6602V28.4903H21.2451V10.732H21.1313Z" fill="white"/>
<path d="M56.302 14H55.238V9.45H50.506V14H49.442V4.032H50.506V8.498H55.238V4.032H56.302V14ZM63.922 14H62.914V13.342C62.368 13.888 61.85 14.084 60.926 14.084C59.974 14.084 59.456 13.916 58.98 13.454C58.63 13.118 58.462 12.6 58.462 12.054C58.462 10.836 59.316 10.066 60.856 10.066H62.914V9.408C62.914 8.414 62.424 7.896 61.15 7.896C60.282 7.896 59.834 8.12 59.414 8.694L58.728 8.064C59.33 7.266 60.03 7.028 61.164 7.028C63.026 7.028 63.922 7.84 63.922 9.324V14ZM62.914 11.564V10.822H60.996C59.96 10.822 59.442 11.228 59.442 12.04C59.442 12.838 59.932 13.216 61.038 13.216C61.612 13.216 62.116 13.16 62.564 12.754C62.802 12.53 62.914 12.138 62.914 11.564ZM75.0572 14H66.3912V7.112H67.3852V13.132H70.2132V7.112H71.2212V13.132H74.0492V7.112H75.0572V14ZM86.5485 10.556C86.5485 11.662 86.3945 12.782 85.7085 13.482C85.3445 13.846 84.7425 14.084 84.0285 14.084C83.2725 14.084 82.6565 13.902 82.0825 13.188V17.08H81.0745V7.112H82.0825V7.924C82.6565 7.21 83.2585 7.028 84.0285 7.028C84.7425 7.028 85.3445 7.266 85.7085 7.63C86.3945 8.316 86.5485 9.45 86.5485 10.556ZM85.5405 10.556C85.5405 9.212 85.3165 7.924 83.8185 7.924C82.3065 7.924 82.0825 9.212 82.0825 10.556C82.0825 11.9 82.3065 13.188 83.8185 13.188C85.3165 13.188 85.5405 11.9 85.5405 10.556ZM93.9814 10.822H89.3334C89.3334 12.334 90.0334 13.202 91.3634 13.202C92.1614 13.202 92.6234 12.964 93.1694 12.418L93.8554 13.02C93.1554 13.72 92.4974 14.084 91.3354 14.084C89.5014 14.084 88.3254 12.992 88.3254 10.556C88.3254 8.316 89.4034 7.028 91.1534 7.028C92.9454 7.028 93.9814 8.302 93.9814 10.374V10.822ZM92.9874 10.066C92.9454 9.506 92.9314 9.282 92.7634 8.918C92.4694 8.288 91.8954 7.882 91.1534 7.882C90.4114 7.882 89.8374 8.288 89.5434 8.918C89.3754 9.282 89.3614 9.506 89.3334 10.066H92.9874ZM100.957 4.144C100.873 5.404 100.075 5.908 98.9132 5.908C97.7512 5.908 96.9532 5.404 96.8692 4.144H97.7652C97.8212 4.844 98.2272 5.194 98.9132 5.194C99.5992 5.194 100.005 4.844 100.061 4.144H100.957ZM101.685 14H100.677V8.666L97.1352 14H96.1412V7.112H97.1352V12.418L100.677 7.112H101.685V14ZM108.661 7.98H106.407V14H105.399V7.98H103.033V7.112H108.661V7.98ZM115.617 14H114.609V8.666L111.067 14H110.073V7.112H111.067V12.418L114.609 7.112H115.617V14ZM123.473 14H122.465V10.878H119.133V14H118.139V7.112H119.133V10.01H122.465V7.112H123.473V14ZM130.411 7.98H127.051V14H126.043V7.112H130.411V7.98Z" fill="white"/>
<path d="M57.2164 24.012L58.4502 26.4964C58.6164 26.84 59.0627 27.1659 59.439 27.2364L61.6704 27.6064C63.0967 27.8443 63.4293 28.8839 62.4054 29.9235L60.6641 31.6766C60.3753 31.9673 60.209 32.54 60.3053 32.954L60.8041 35.1212C61.1979 36.8303 60.2878 37.4999 58.7915 36.6013L56.7001 35.3503C56.3238 35.1212 55.6938 35.1212 55.3175 35.3503L53.2261 36.6013C51.7297 37.4911 50.8196 36.8303 51.2134 35.1212L51.7122 32.954C51.791 32.5312 51.6247 31.9585 51.3359 31.6678L49.5946 29.9146C48.5707 28.8839 48.9033 27.8443 50.3296 27.5976L52.561 27.2276C52.9373 27.1659 53.3836 26.8312 53.5499 26.4876L54.7837 24.0032C55.4575 22.6641 56.5426 22.6641 57.2164 24.012Z" fill="#FF9700"/>
<path d="M76.2164 24.012L77.4502 26.4964C77.6164 26.84 78.0627 27.1659 78.439 27.2364L80.6704 27.6064C82.0967 27.8443 82.4293 28.8839 81.4054 29.9235L79.6641 31.6766C79.3753 31.9673 79.209 32.54 79.3053 32.954L79.8041 35.1212C80.1979 36.8303 79.2878 37.4999 77.7915 36.6013L75.7001 35.3503C75.3238 35.1212 74.6938 35.1212 74.3175 35.3503L72.2261 36.6013C70.7297 37.4911 69.8196 36.8303 70.2134 35.1212L70.7122 32.954C70.791 32.5312 70.6247 31.9585 70.3359 31.6678L68.5946 29.9146C67.5707 28.8839 67.9033 27.8443 69.3296 27.5976L71.561 27.2276C71.9373 27.1659 72.3836 26.8312 72.5499 26.4876L73.7837 24.0032C74.4575 22.6641 75.5426 22.6641 76.2164 24.012Z" fill="#FF9700"/>
<path d="M95.2164 24.012L96.4502 26.4964C96.6164 26.84 97.0627 27.1659 97.439 27.2364L99.6704 27.6064C101.097 27.8443 101.429 28.8839 100.405 29.9235L98.6641 31.6766C98.3753 31.9673 98.209 32.54 98.3053 32.954L98.8041 35.1212C99.1979 36.8303 98.2878 37.4999 96.7915 36.6013L94.7001 35.3503C94.3238 35.1212 93.6938 35.1212 93.3175 35.3503L91.2261 36.6013C89.7297 37.4911 88.8196 36.8303 89.2134 35.1212L89.7122 32.954C89.791 32.5312 89.6247 31.9585 89.3359 31.6678L87.5946 29.9146C86.5707 28.8839 86.9033 27.8443 88.3296 27.5976L90.561 27.2276C90.9373 27.1659 91.3836 26.8312 91.5499 26.4876L92.7837 24.0032C93.4575 22.6641 94.5426 22.6641 95.2164 24.012Z" fill="#FF9700"/>
<path d="M114.216 24.012L115.45 26.4964C115.616 26.84 116.063 27.1659 116.439 27.2364L118.67 27.6064C120.097 27.8443 120.429 28.8839 119.405 29.9235L117.664 31.6766C117.375 31.9673 117.209 32.54 117.305 32.954L117.804 35.1212C118.198 36.8303 117.288 37.4999 115.791 36.6013L113.7 35.3503C113.324 35.1212 112.694 35.1212 112.317 35.3503L110.226 36.6013C108.73 37.4911 107.82 36.8303 108.213 35.1212L108.712 32.954C108.791 32.5312 108.625 31.9585 108.336 31.6678L106.595 29.9146C105.571 28.8839 105.903 27.8443 107.33 27.5976L109.561 27.2276C109.937 27.1659 110.384 26.8312 110.55 26.4876L111.784 24.0032C112.457 22.6641 113.543 22.6641 114.216 24.012Z" fill="#FF9700"/>
<path d="M133.216 24.012L134.45 26.4964C134.616 26.84 135.063 27.1659 135.439 27.2364L137.67 27.6064C139.097 27.8443 139.429 28.8839 138.405 29.9235L136.664 31.6766C136.375 31.9673 136.209 32.54 136.305 32.954L136.804 35.1212C137.198 36.8303 136.288 37.4999 134.791 36.6013L132.7 35.3503C132.324 35.1212 131.694 35.1212 131.317 35.3503L129.226 36.6013C127.73 37.4911 126.82 36.8303 127.213 35.1212L127.712 32.954C127.791 32.5312 127.625 31.9585 127.336 31.6678L125.595 29.9146C124.571 28.8839 124.903 27.8443 126.33 27.5976L128.561 27.2276C128.937 27.1659 129.384 26.8312 129.55 26.4876L130.784 24.0032C131.457 22.6641 132.543 22.6641 133.216 24.012Z" fill="#FF9700"/>
</svg>
