<svg id="Layer_2" data-name="Layer 2" xmlns="http://www.w3.org/2000/svg" viewBox="0 0 345 373.41"><defs><style>.cls-1{fill:#1b75bb;}.cls-2{fill:#8bc53f;}</style></defs><path class="cls-1" d="M756.33,446.65A37.47,37.47,0,0,1,740,450.43c-.75,0-1.49-.06-2.23-.11C712,496,708.63,502,695.83,524.73a34.69,34.69,0,0,1,6.71,20.56c0,19-15,34.35-33.51,34.35s-33.51-15.38-33.51-34.35c0-1,.07-2.09.16-3.12L521.82,474.74a33,33,0,0,1-23.68,10.05,32.32,32.32,0,0,1-8.51-1.17l-38,68.1a34.68,34.68,0,0,1,9.54,24c0,18.36-14.07,33.31-31.75,34.26-6.14.46-11.05.26-15.29-1.13l.43,58.55H756.33Z" transform="translate(-411.33 -293.96)"/><path class="cls-2" d="M732.87,382.52,723,376.68V313.63H663.62v27.9L583.26,294,411.33,395.73v150a32.68,32.68,0,0,1,16.32-4.36c1,0,2,.06,2.94.15,25-44.4,28.06-49.81,40.11-71.39a34.78,34.78,0,0,1-6.07-19.68c0-19,15-34.35,33.51-34.35s33.51,15.38,33.51,34.35c0,1-.06,2-.15,2.95l114.07,67.41a32.68,32.68,0,0,1,31-9l40-71.25a34.67,34.67,0,0,1-10-24.5A34.16,34.16,0,0,1,732.87,382.52Z" transform="translate(-411.33 -293.96)"/></svg>