<svg width="49" height="54" viewBox="0 0 49 54" fill="none" xmlns="http://www.w3.org/2000/svg">
<path d="M41.2874 12.5757C31.8412 3.12945 16.5309 3.12945 7.08466 12.5757C-2.36155 22.0219 -2.36155 37.3322 7.08466 46.7784C16.5309 56.2246 31.8412 56.2246 41.2874 46.7784C50.7336 37.3322 50.7336 22.0219 41.2874 12.5757ZM37.6899 43.1771C35.2584 45.6086 32.3359 47.2424 29.2409 48.09C29.1028 48.1284 28.9609 48.1629 28.819 48.2012C28.6809 48.2358 28.539 48.2703 28.3933 48.2971C28.3089 48.3201 28.2245 48.3393 28.1363 48.3547C28.0481 48.3738 27.9561 48.3968 27.864 48.4122C27.6991 48.4429 27.5303 48.4735 27.3654 48.5042L26.9282 48.5733C21.1754 49.4017 15.1157 47.6029 10.686 43.1771C7.2956 39.7906 5.447 35.4452 5.14018 31.0078C5.12484 30.8199 5.11718 30.6282 5.10951 30.4402V30.421C5.098 30.0797 5.09417 29.7307 5.098 29.3855C5.12485 27.3183 5.48919 25.255 6.19488 23.2798C7.1115 20.6872 8.61109 18.2518 10.686 16.177C16.3736 10.4893 24.7575 9.13928 31.7261 12.1308C33.3753 12.8365 34.94 13.7838 36.3783 14.9804C36.8308 15.3524 37.2642 15.7512 37.6899 16.177C39.853 18.3362 41.3871 20.8866 42.2922 23.602C42.9327 25.5234 43.2625 27.5293 43.2817 29.5313C43.3162 34.4672 41.4523 39.4147 37.6899 43.1771Z" fill="#8E15B8"/>
<path d="M41.2874 12.5757C31.8412 3.12945 16.5309 3.12945 7.08465 12.5757C-2.36155 22.0219 -2.36155 37.3322 7.08465 46.7784C16.5309 56.2246 31.8412 56.2246 41.2874 46.7784C50.7336 37.3322 50.7336 22.0219 41.2874 12.5757ZM37.6899 43.1771C35.2584 45.6086 32.3359 47.2424 29.2409 48.09C29.1028 48.1284 28.9609 48.1629 28.819 48.2012C28.6809 48.2358 28.539 48.2703 28.3933 48.2971C28.3089 48.3201 28.2245 48.3393 28.1363 48.3547C28.0481 48.3738 27.956 48.3968 27.864 48.4122C27.6991 48.4429 27.5303 48.4735 27.3654 48.5042L26.9282 48.5733C21.1753 49.4017 15.1157 47.6029 10.686 43.1771C7.2956 39.7906 5.447 35.4452 5.14018 31.0078C5.12484 30.8199 5.11718 30.6282 5.10951 30.4402V30.421C5.098 30.0797 5.09417 29.7307 5.098 29.3855C5.12485 27.3183 5.48919 25.255 6.19488 23.2798C7.1115 20.6872 8.61109 18.2518 10.686 16.177C16.3736 10.4893 24.7575 9.13928 31.7261 12.1308C33.3753 12.8365 34.94 13.7838 36.3783 14.9804C36.8308 15.3524 37.2642 15.7512 37.6899 16.177C39.853 18.3362 41.3871 20.8866 42.2922 23.602C42.9327 25.5234 43.2625 27.5293 43.2817 29.5313C43.3162 34.4672 41.4523 39.4147 37.6899 43.1771Z" fill="white"/>
<path d="M14.7043 26.0381V39.9374C11.7784 38.5686 9.21909 35.9434 8.20084 31.6223V26.0381H14.7043Z" fill="#FF1919"/>
<path d="M14.7043 26.0381V39.9374C11.7784 38.5686 9.21909 35.9434 8.20084 31.6223V26.0381H14.7043Z" fill="#FF1919"/>
<path d="M22.9 20.9794V40.8897C22.5564 40.9591 22.2059 41.0155 21.8453 41.0585C21.3195 41.1214 20.7807 41.1544 20.2418 41.1544C18.9954 41.1544 17.6829 40.976 16.3966 40.5856V20.9794H22.9Z" fill="#FF1919"/>
<path d="M22.9 20.9794V40.8897C22.5564 40.9591 22.2059 41.0155 21.8453 41.0585C21.3195 41.1214 20.7807 41.1544 20.2418 41.1544C18.9954 41.1544 17.6829 40.976 16.3966 40.5856V20.9794H22.9Z" fill="#FF1919"/>
<path d="M31.0995 16.0896V33.7547C30.2036 36.8428 27.853 39.2663 24.5961 40.4169V16.0896H31.0995Z" fill="#FF1919"/>
<path d="M31.0995 16.0896V33.7547C30.2036 36.8428 27.853 39.2663 24.5961 40.4169V16.0896H31.0995Z" fill="#FF1919"/>
<path d="M42.4704 9.93431V29.3871C42.4704 29.7483 42.4608 30.11 42.4359 30.4682C42.1843 34.7491 40.4213 38.9579 37.1555 42.2236C34.8452 44.534 32.0669 46.0895 29.1249 46.8942C28.993 46.9287 28.8576 46.9632 28.7226 46.9977C28.5907 47.0322 28.4553 47.0637 28.3203 47.0921C28.2386 47.1109 28.1569 47.1297 28.0752 47.1454C27.9905 47.1642 27.9022 47.183 27.8144 47.1987C27.6572 47.2301 27.4969 47.2585 27.34 47.2869L26.925 47.3529C26.5008 47.4158 26.0732 47.4599 25.6425 47.4913C25.5041 47.5009 25.366 47.5101 25.2245 47.5132C24.7217 47.5416 24.2154 47.5446 23.7126 47.5258C23.5397 47.5197 23.3667 47.5132 23.1941 47.5009C18.932 47.2401 14.7454 45.4832 11.4859 42.2236C8.26081 39.002 6.50388 34.8718 6.21163 30.6538C6.19898 30.4747 6.18977 30.2926 6.18325 30.1131V30.0973C6.19591 29.8178 6.2147 29.5378 6.23963 29.2517C7.14782 39.7905 15.4584 43.4302 22.037 42.6163C28.4365 41.8493 33.2957 37.1158 33.0629 30.4682C33.0629 30.4149 33.0599 30.3612 33.0568 30.3048V9.93431H42.4704Z" fill="#FF1919"/>
<path d="M47.5803 13.9514H27.708L37.6424 0.137207L47.5803 13.9514Z" fill="#FF1919"/>
<path d="M46.7889 13.401H42.4704V29.3871C42.4704 29.7484 42.4608 30.11 42.4359 30.4682C42.1843 34.7491 40.4212 38.9579 37.1555 42.2236C34.8451 44.534 32.0669 46.0896 29.1249 46.8942C28.9929 46.9287 28.8576 46.9632 28.7226 46.9978C28.5906 47.0323 28.4552 47.0637 28.3202 47.0921C28.2385 47.1109 28.1569 47.1297 28.0752 47.1454C27.9904 47.1642 27.9022 47.183 27.8144 47.1987C27.6571 47.2302 27.4968 47.2586 27.3399 47.2869L26.925 47.3529C26.5008 47.4158 26.0732 47.4599 25.6425 47.4914C25.504 47.5009 25.3659 47.5102 25.2244 47.5132C24.7216 47.5416 24.2154 47.5447 23.7126 47.5259C23.5396 47.5197 23.3666 47.5132 23.194 47.5009C23.6781 47.4726 24.1651 47.4223 24.6461 47.3533L25.061 47.2873C25.2183 47.2589 25.3786 47.2306 25.5359 47.1991C25.6237 47.1834 25.7119 47.1646 25.7966 47.1458C25.8783 47.1301 25.96 47.1113 26.0417 47.0925C26.1767 47.0641 26.3121 47.0327 26.444 46.9981C26.579 46.9636 26.7144 46.9291 26.8464 46.8946C29.7884 46.09 32.567 44.534 34.877 42.224C38.1427 38.9583 39.9061 34.7495 40.1573 30.4686C40.1823 30.1104 40.1919 29.7488 40.1919 29.3875L40.1857 13.4014L40.0569 4.04417L46.7889 13.401Z" fill="#FF3232"/>
<path d="M33.057 30.3048C33.0601 30.3616 33.0632 30.4149 33.0632 30.4682H33.057V30.3048Z" fill="#FF1919"/>
<path d="M42.4706 29.3871V30.4682H42.4361C42.461 30.11 42.4706 29.7487 42.4706 29.3871Z" fill="#FF1919"/>
</svg>
