<svg width="170" height="54" viewBox="0 0 170 54" fill="none" xmlns="http://www.w3.org/2000/svg">
<path d="M41.2874 12.5757C31.8412 3.12945 16.5309 3.12945 7.08466 12.5757C-2.36155 22.0219 -2.36155 37.3322 7.08466 46.7784C16.5309 56.2246 31.8412 56.2246 41.2874 46.7784C50.7336 37.3322 50.7336 22.0219 41.2874 12.5757ZM37.6899 43.1771C35.2584 45.6086 32.3359 47.2424 29.2409 48.09C29.1028 48.1284 28.9609 48.1629 28.819 48.2012C28.6809 48.2358 28.539 48.2703 28.3933 48.2971C28.3089 48.3201 28.2245 48.3393 28.1363 48.3547C28.0481 48.3738 27.9561 48.3968 27.864 48.4122C27.6991 48.4429 27.5303 48.4735 27.3654 48.5042L26.9282 48.5733C21.1754 49.4017 15.1157 47.6029 10.686 43.1771C7.2956 39.7906 5.447 35.4452 5.14018 31.0078C5.12484 30.8199 5.11718 30.6282 5.10951 30.4402V30.421C5.098 30.0797 5.09417 29.7307 5.098 29.3855C5.12485 27.3183 5.48919 25.255 6.19488 23.2798C7.1115 20.6872 8.61109 18.2518 10.686 16.177C16.3736 10.4893 24.7575 9.13928 31.7261 12.1308C33.3753 12.8365 34.94 13.7838 36.3783 14.9804C36.8308 15.3524 37.2642 15.7512 37.6899 16.177C39.853 18.3362 41.3871 20.8866 42.2922 23.602C42.9327 25.5234 43.2625 27.5293 43.2817 29.5313C43.3162 34.4672 41.4523 39.4147 37.6899 43.1771Z" fill="#8E15B8"/>
<path d="M41.2874 12.5757C31.8412 3.12945 16.5309 3.12945 7.08465 12.5757C-2.36155 22.0219 -2.36155 37.3322 7.08465 46.7784C16.5309 56.2246 31.8412 56.2246 41.2874 46.7784C50.7336 37.3322 50.7336 22.0219 41.2874 12.5757ZM37.6899 43.1771C35.2584 45.6086 32.3359 47.2424 29.2409 48.09C29.1028 48.1284 28.9609 48.1629 28.819 48.2012C28.6809 48.2358 28.539 48.2703 28.3933 48.2971C28.3089 48.3201 28.2245 48.3393 28.1363 48.3547C28.0481 48.3738 27.956 48.3968 27.864 48.4122C27.6991 48.4429 27.5303 48.4735 27.3654 48.5042L26.9282 48.5733C21.1753 49.4017 15.1157 47.6029 10.686 43.1771C7.2956 39.7906 5.447 35.4452 5.14018 31.0078C5.12484 30.8199 5.11718 30.6282 5.10951 30.4402V30.421C5.098 30.0797 5.09417 29.7307 5.098 29.3855C5.12485 27.3183 5.48919 25.255 6.19488 23.2798C7.1115 20.6872 8.61109 18.2518 10.686 16.177C16.3736 10.4893 24.7575 9.13928 31.7261 12.1308C33.3753 12.8365 34.94 13.7838 36.3783 14.9804C36.8308 15.3524 37.2642 15.7512 37.6899 16.177C39.853 18.3362 41.3871 20.8866 42.2922 23.602C42.9327 25.5234 43.2625 27.5293 43.2817 29.5313C43.3162 34.4672 41.4523 39.4147 37.6899 43.1771Z" fill="white"/>
<path d="M14.7043 26.0381V39.9374C11.7784 38.5686 9.21909 35.9434 8.20084 31.6223V26.0381H14.7043Z" fill="#FF1919"/>
<path d="M14.7043 26.0381V39.9374C11.7784 38.5686 9.21909 35.9434 8.20084 31.6223V26.0381H14.7043Z" fill="#FF1919"/>
<path d="M22.9 20.9794V40.8897C22.5564 40.9591 22.2059 41.0155 21.8453 41.0585C21.3195 41.1214 20.7807 41.1544 20.2418 41.1544C18.9954 41.1544 17.6829 40.976 16.3966 40.5856V20.9794H22.9Z" fill="#FF1919"/>
<path d="M22.9 20.9794V40.8897C22.5564 40.9591 22.2059 41.0155 21.8453 41.0585C21.3195 41.1214 20.7807 41.1544 20.2418 41.1544C18.9954 41.1544 17.6829 40.976 16.3966 40.5856V20.9794H22.9Z" fill="#FF1919"/>
<path d="M31.0995 16.0896V33.7547C30.2036 36.8428 27.853 39.2663 24.5961 40.4169V16.0896H31.0995Z" fill="#FF1919"/>
<path d="M31.0995 16.0896V33.7547C30.2036 36.8428 27.853 39.2663 24.5961 40.4169V16.0896H31.0995Z" fill="#FF1919"/>
<path d="M42.4704 9.93431V29.3871C42.4704 29.7483 42.4608 30.11 42.4359 30.4682C42.1843 34.7491 40.4213 38.9579 37.1555 42.2236C34.8452 44.534 32.0669 46.0895 29.1249 46.8942C28.993 46.9287 28.8576 46.9632 28.7226 46.9977C28.5907 47.0322 28.4553 47.0637 28.3203 47.0921C28.2386 47.1109 28.1569 47.1297 28.0752 47.1454C27.9905 47.1642 27.9022 47.183 27.8144 47.1987C27.6572 47.2301 27.4969 47.2585 27.34 47.2869L26.925 47.3529C26.5008 47.4158 26.0732 47.4599 25.6425 47.4913C25.5041 47.5009 25.366 47.5101 25.2245 47.5132C24.7217 47.5416 24.2154 47.5446 23.7126 47.5258C23.5397 47.5197 23.3667 47.5132 23.1941 47.5009C18.932 47.2401 14.7454 45.4832 11.4859 42.2236C8.26081 39.002 6.50388 34.8718 6.21163 30.6538C6.19898 30.4747 6.18977 30.2926 6.18325 30.1131V30.0973C6.19591 29.8178 6.2147 29.5378 6.23963 29.2517C7.14782 39.7905 15.4584 43.4302 22.037 42.6163C28.4365 41.8493 33.2957 37.1158 33.0629 30.4682C33.0629 30.4149 33.0599 30.3612 33.0568 30.3048V9.93431H42.4704Z" fill="#FF1919"/>
<path d="M47.5803 13.9514H27.708L37.6424 0.137207L47.5803 13.9514Z" fill="#FF1919"/>
<path d="M46.7889 13.401H42.4704V29.3871C42.4704 29.7484 42.4608 30.11 42.4359 30.4682C42.1843 34.7491 40.4212 38.9579 37.1555 42.2236C34.8451 44.534 32.0669 46.0896 29.1249 46.8942C28.9929 46.9287 28.8576 46.9632 28.7226 46.9978C28.5906 47.0323 28.4552 47.0637 28.3202 47.0921C28.2385 47.1109 28.1569 47.1297 28.0752 47.1454C27.9904 47.1642 27.9022 47.183 27.8144 47.1987C27.6571 47.2302 27.4968 47.2586 27.3399 47.2869L26.925 47.3529C26.5008 47.4158 26.0732 47.4599 25.6425 47.4914C25.504 47.5009 25.3659 47.5102 25.2244 47.5132C24.7216 47.5416 24.2154 47.5447 23.7126 47.5259C23.5396 47.5197 23.3666 47.5132 23.194 47.5009C23.6781 47.4726 24.1651 47.4223 24.6461 47.3533L25.061 47.2873C25.2183 47.2589 25.3786 47.2306 25.5359 47.1991C25.6237 47.1834 25.7119 47.1646 25.7966 47.1458C25.8783 47.1301 25.96 47.1113 26.0417 47.0925C26.1767 47.0641 26.3121 47.0327 26.444 46.9981C26.579 46.9636 26.7144 46.9291 26.8464 46.8946C29.7884 46.09 32.567 44.534 34.877 42.224C38.1427 38.9583 39.9061 34.7495 40.1573 30.4686C40.1823 30.1104 40.1919 29.7488 40.1919 29.3875L40.1857 13.4014L40.0569 4.04417L46.7889 13.401Z" fill="#FF3232"/>
<path d="M33.057 30.3048C33.0601 30.3616 33.0632 30.4149 33.0632 30.4682H33.057V30.3048Z" fill="#FF1919"/>
<path d="M42.4706 29.3871V30.4682H42.4361C42.461 30.11 42.4706 29.7487 42.4706 29.3871Z" fill="#FF1919"/>
<path d="M59.8777 33.4433V20.5569H62.4734V33.4433H59.8777Z" fill="white"/>
<path d="M64.9834 20.5569H67.579L75.1268 29.651V20.5569H77.7041V33.4433H75.1268L67.579 24.3492V33.4433H64.9834V20.5569Z" fill="white"/>
<path d="M79.4553 22.9869V20.5569H92.0656V22.9869H87.0583V33.4433H84.4626V22.9869H79.4553Z" fill="white"/>
<path d="M96.3973 33.4433H93.8016V20.5569H100.705C102.288 20.5569 103.436 20.8637 104.148 21.4774C104.872 22.0787 105.234 23.0544 105.234 24.4044C105.234 26.0122 104.718 27.1167 103.687 27.7181C104.62 28.1844 105.086 29.0558 105.086 30.3322V33.4433H102.509V30.4426C102.509 29.9272 102.35 29.5529 102.031 29.3197C101.724 29.0865 101.227 28.9699 100.539 28.9699H96.3973V33.4433ZM96.3973 26.5583H100.539C101.288 26.5583 101.828 26.4172 102.159 26.1349C102.491 25.8403 102.656 25.3801 102.656 24.7542C102.656 24.1283 102.491 23.6803 102.159 23.4103C101.828 23.1281 101.288 22.9869 100.539 22.9869H96.3973V26.5583Z" fill="white"/>
<path d="M109.449 33.4433H106.706L112.505 20.5569H115.414L121.212 33.4433H118.469L117.42 31.087H110.498L109.449 33.4433ZM113.959 23.2815L111.584 28.6569H116.334L113.959 23.2815Z" fill="white"/>
<path d="M122.8 33.4433V20.5569H128.286C130.593 20.5569 132.268 21.0662 133.311 22.0849C134.367 23.1035 134.894 24.7419 134.894 27.0001C134.894 29.2583 134.367 30.8967 133.311 31.9154C132.268 32.934 130.593 33.4433 128.286 33.4433H122.8ZM125.395 31.0133H128.194C129.642 31.0133 130.691 30.7004 131.342 30.0744C131.992 29.4363 132.317 28.4115 132.317 27.0001C132.317 25.5887 131.992 24.5701 131.342 23.9442C130.691 23.306 129.642 22.9869 128.194 22.9869H125.395V31.0133Z" fill="white"/>
<path d="M137.002 33.4433V20.5569H139.598V33.4433H137.002Z" fill="white"/>
<path d="M142.108 20.5569H144.703L152.251 29.651V20.5569H154.828V33.4433H152.251L144.703 24.3492V33.4433H142.108V20.5569Z" fill="white"/>
<path d="M158.568 32.0442C157.488 31.001 156.948 29.3197 156.948 27.0001C156.948 24.6806 157.469 22.9992 158.513 21.956C159.556 20.9128 161.237 20.3912 163.557 20.3912C165.496 20.3912 166.987 20.7533 168.03 21.4774C169.073 22.2015 169.73 23.349 170 24.9199H167.294C166.791 23.5085 165.545 22.8028 163.557 22.8028C162.145 22.8028 161.121 23.1403 160.482 23.8153C159.844 24.4781 159.525 25.5397 159.525 27.0001C159.525 28.4728 159.863 29.5406 160.538 30.2033C161.213 30.8538 162.342 31.179 163.925 31.179C165.14 31.179 166.017 31.001 166.557 30.6451C167.11 30.2892 167.386 29.7185 167.386 28.9331V28.5833H163.428V26.3006H169.982V28.9331C169.982 30.5654 169.497 31.7558 168.527 32.5045C167.558 33.2408 166.011 33.609 163.888 33.609C161.421 33.609 159.648 33.0874 158.568 32.0442Z" fill="white"/>
</svg>
