<svg width="77" height="39" viewBox="0 0 77 39" fill="none" xmlns="http://www.w3.org/2000/svg">
<path d="M75.1373 12.6784C70.9817 0.861018 59.1888 0.227281 57.9908 0.190003C52.7121 0.0781666 46.8719 1.90482 42.4168 6.22915C40.6198 7.83213 39.3469 9.69606 37.9992 11.6718C36.6514 9.65878 35.3785 7.83213 33.5815 6.22915C29.1639 1.90482 23.3236 0.0781666 18.0449 0.190003C16.8095 0.227281 5.01663 0.861018 0.898495 12.6784C-0.561572 16.8908 -0.224633 22.3708 1.94675 26.3969C4.11813 31.0195 9.32195 34.8219 14.8253 34.4491C18.7937 34.3373 23.1364 31.8396 24.7463 27.7762C26.094 24.1602 25.6822 20.2459 22.5749 17.1518C22.6497 17.9346 22.6872 19.053 21.901 20.0595C20.6656 21.7743 18.6814 22.2217 16.6223 21.4761C14.8253 20.656 14.1514 19.3512 14.3386 17.6364C14.4509 16.1825 15.6489 15.0642 16.8844 14.505C19.2804 13.4612 21.4892 13.9831 23.6606 16.0334C27.2171 19.985 27.6289 25.9496 29.3136 30.4976C30.5116 34.2254 32.3835 37.4687 36.5391 38.4006C37.0258 38.5125 37.5499 38.587 38.074 38.5497C38.5982 38.5497 39.1223 38.5125 39.609 38.4006C43.7646 37.4687 45.6364 34.2254 46.8344 30.4976C48.5191 25.9496 48.9309 19.985 52.4501 16.0334C54.6215 13.9831 56.8303 13.4612 59.2263 14.505C60.4617 15.0642 61.6223 16.1825 61.772 17.6364C61.9592 19.3512 61.2853 20.656 59.4883 21.4761C57.4293 22.2217 55.4825 21.7743 54.2096 20.0595C53.4235 19.053 53.4609 17.9346 53.5358 17.1518C50.4284 20.2459 50.0166 24.1602 51.3644 27.7762C52.9742 31.8396 57.317 34.3373 61.2854 34.4491C66.7512 34.8219 71.9551 31.0567 74.1264 26.3969C76.2604 22.3708 76.5973 16.8908 75.1373 12.6784ZM66.7887 26.7697C64.2804 28.9691 60.9484 29.6029 58.2529 28.3727C56.6431 27.5898 55.4451 26.2105 55.0707 24.7194C57.3544 26.9934 61.4725 28.1117 65.2163 24.1602C65.2163 24.1602 68.7354 20.9169 66.7512 14.766C65.7404 11.7091 62.0341 9.21144 58.9268 8.87593C54.2845 8.13036 49.9418 9.69606 46.9093 13.9086C43.3527 19.3885 42.9035 25.5022 40.2829 31.6159C39.8336 32.6224 38.9351 33.0698 37.9992 33.0325C37.0632 33.0698 36.1647 32.6224 35.7155 31.6159C33.1323 25.5395 32.7205 19.4631 29.1265 13.9458C26.094 9.73334 21.7138 8.16764 17.109 8.91321C14.0017 9.21144 10.2579 11.7464 9.28452 14.8032C7.30032 20.9542 10.8195 24.1975 10.8195 24.1975C14.6007 28.149 18.6814 26.9934 20.9651 24.7566C20.5907 26.2478 19.4301 27.6271 17.7829 28.4099C15.0873 29.6401 11.718 28.9691 9.20964 26.807C5.50332 23.1537 4.94176 18.4565 6.40182 14.1322C8.16139 8.87593 13.515 6.26643 17.7454 5.93092C22.7621 5.48357 29.688 8.54042 32.4584 13.7967C33.0948 14.9896 34.4426 18.121 34.4426 18.121H37.9617H41.4809C41.4809 18.121 42.8286 14.9896 43.4651 13.7967C46.2354 8.5777 53.1614 5.52085 58.178 5.93092C62.4085 6.26643 67.7621 8.91321 69.5216 14.1322C71.0566 18.4193 70.495 23.1164 66.7887 26.7697Z" fill="#F9423A"/>
</svg>
