<svg width="121" height="36" viewBox="0 0 121 36" fill="none" xmlns="http://www.w3.org/2000/svg">
<g clip-path="url(#clip0_0_223)">
<mask id="mask0_0_223" style="mask-type:luminance" maskUnits="userSpaceOnUse" x="0" y="0" width="121" height="36">
<path d="M120.5 0H0.5V35.5556H120.5V0Z" fill="white"/>
</mask>
<g mask="url(#mask0_0_223)">
<path d="M67.2887 11.1009C63.5948 0.596575 53.1123 0.0332528 52.0474 0.000116249C47.3552 -0.0992935 42.1639 1.5244 38.2038 5.36825C36.6065 6.79312 35.475 8.44994 34.2771 10.2062C33.079 8.41681 31.9476 6.79312 30.3502 5.36825C26.4235 1.5244 21.2321 -0.0992935 16.5399 0.000116249C15.4418 0.0332528 4.95923 0.596575 1.29866 11.1009C0.00082463 14.8453 0.300326 19.7164 2.23044 23.2951C4.16056 27.4041 8.78618 30.784 13.678 30.4526C17.2055 30.3533 21.0657 28.1331 22.4967 24.5212C23.6947 21.307 23.3286 17.8276 20.5666 15.0773C20.6331 15.7731 20.6664 16.7672 19.9676 17.6619C18.8694 19.1862 17.1057 19.5838 15.2754 18.9211C13.678 18.1921 13.079 17.0323 13.2454 15.508C13.3452 14.2157 14.4101 13.2216 15.5084 12.7246C17.6381 11.7967 19.6015 12.2606 21.5316 14.0831C24.693 17.5957 25.059 22.8975 26.5565 26.9402C27.6214 30.2538 29.2853 33.1367 32.9792 33.9651C33.4118 34.0646 33.8777 34.1308 34.3436 34.0976C34.8095 34.0976 35.2754 34.0646 35.708 33.9651C39.4019 33.1367 41.0657 30.2538 42.1306 26.9402C43.6281 22.8975 43.9941 17.5957 47.1223 14.0831C49.0524 12.2606 51.0158 11.7967 53.1456 12.7246C54.2437 13.2216 55.2754 14.2157 55.4084 15.508C55.5748 17.0323 54.9758 18.1921 53.3785 18.9211C51.5483 19.5838 49.8178 19.1862 48.6863 17.6619C47.9876 16.7672 48.0208 15.7731 48.0874 15.0773C45.3252 17.8276 44.9592 21.307 46.1572 24.5212C47.5882 28.1331 51.4484 30.3533 54.9759 30.4526C59.8344 30.784 64.4601 27.4372 66.3901 23.2951C68.287 19.7164 68.5865 14.8453 67.2887 11.1009ZM59.8677 23.6265C57.6381 25.5815 54.6764 26.1449 52.2804 25.0514C50.8494 24.3555 49.7845 23.1294 49.4517 21.804C51.4817 23.8254 55.1422 24.8194 58.47 21.307C58.47 21.307 61.5981 18.424 59.8344 12.9566C58.9359 10.2393 55.6414 8.01917 52.8794 7.72094C48.7529 7.05821 44.8927 8.44994 42.1972 12.1944C39.0357 17.0654 38.6364 22.4998 36.307 27.9342C35.9076 28.8289 35.109 29.2266 34.2771 29.1934C33.4451 29.2266 32.6464 28.8289 32.2471 27.9342C29.9509 22.533 29.5849 17.1318 26.3902 12.2275C23.6947 8.48308 19.8012 7.09135 15.708 7.75408C12.946 8.01917 9.61813 10.2725 8.75291 12.9896C6.98917 18.4572 10.1173 21.3401 10.1173 21.3401C13.4784 24.8526 17.1057 23.8254 19.1356 21.8371C18.8028 23.1626 17.7712 24.3886 16.307 25.0845C13.9109 26.178 10.916 25.5815 8.68635 23.6597C5.39184 20.4123 4.89268 16.237 6.19051 12.3932C7.75457 7.72094 12.5133 5.40138 16.2737 5.10315C20.733 4.70551 26.8893 7.42271 29.3519 12.095C29.9176 13.1553 31.1156 15.9388 31.1156 15.9388H34.2437H37.3719C37.3719 15.9388 38.5699 13.1553 39.1356 12.095C41.5981 7.45585 47.7546 4.73865 52.2138 5.10315C55.9742 5.40138 60.733 7.75408 62.297 12.3932C63.6614 16.2039 63.1622 20.3791 59.8677 23.6265Z" fill="#F9423A"/>
<path d="M98.6359 13.7515C98.6359 12.9231 98.3373 12.161 97.4386 12.161C96.5399 12.161 96.2404 12.9231 96.2404 13.7515V24.6203C96.2404 25.4487 96.5399 26.1777 97.4386 26.1777C98.3373 26.1777 98.6359 25.4156 98.6359 24.6203V13.7515ZM104.36 24.322C104.36 28.4972 101.099 30.3198 97.4386 30.3198C93.7782 30.3198 90.5168 28.4972 90.5168 24.322V14.0828C90.5168 9.90764 93.7782 8.08514 97.4386 8.08514C101.099 8.08514 104.36 9.90764 104.36 14.0828V24.322ZM84.0606 13.1219L90.3168 29.392H84.0274L80.4334 19.5504L79.5349 21.1078V29.392H73.2454V1.29214H79.5349V10.0402L83.5948 1.29214H89.8182L84.0606 13.1219ZM114.943 13.4864C114.943 12.658 114.643 11.8958 113.645 11.8958C112.679 11.8958 112.38 12.6249 112.38 13.4864V24.8523C112.38 25.6806 112.679 26.4428 113.645 26.4428C114.61 26.4428 114.943 25.7138 114.943 24.8523V21.1078H120.5V24.4215C120.5 28.6961 117.538 30.2867 113.412 30.2867C109.052 30.2867 106.39 28.3647 106.39 24.0238V14.3479C106.39 10.6366 108.986 8.052 113.412 8.052C117.172 8.052 120.5 9.54311 120.5 14.4142V16.1042H114.943V13.4864ZM108.254 31.5127H118.67V35.5554H108.254V31.5127Z" fill="black"/>
</g>
</g>
<defs>
<clipPath id="clip0_0_223">
<rect width="120" height="35.5556" fill="white" transform="translate(0.5)"/>
</clipPath>
</defs>
</svg>
