<svg width="221" height="51" viewBox="0 0 221 51" fill="none" xmlns="http://www.w3.org/2000/svg">
<g clip-path="url(#clip0_1_51)">
<rect x="0.672852" y="0.534302" width="50" height="50" rx="10" fill="#FAF9F6"/>
<g filter="url(#filter0_f_1_51)">
<path d="M10.1211 40.7202L35.9245 7.39569L64.9677 59.2338L24.789 70.8379L10.1211 40.7202Z" fill="black" fill-opacity="0.1"/>
</g>
<path d="M32.082 4.48425H13.7909C11.4338 4.48425 9.52295 6.54391 9.52295 9.08463V38.6585C9.52295 41.1992 11.4338 43.2589 13.7909 43.2589H32.082C34.4392 43.2589 36.35 41.1992 36.35 38.6585V9.08463C36.35 6.54391 34.4392 4.48425 32.082 4.48425Z" fill="#8FCAFF"/>
<path d="M32.6918 7.77026H13.1812C12.8445 7.77026 12.5715 8.0645 12.5715 8.42746V17.6282C12.5715 17.9912 12.8445 18.2854 13.1812 18.2854H32.6918C33.0285 18.2854 33.3015 17.9912 33.3015 17.6282V8.42746C33.3015 8.0645 33.0285 7.77026 32.6918 7.77026Z" fill="#70B2F9"/>
<path d="M16.8394 20.257H14.4006C13.7271 20.257 13.1812 20.8455 13.1812 21.5714V24.2002C13.1812 24.9261 13.7271 25.5146 14.4006 25.5146H16.8394C17.5128 25.5146 18.0588 24.9261 18.0588 24.2002V21.5714C18.0588 20.8455 17.5128 20.257 16.8394 20.257Z" fill="#70B2F9"/>
<path d="M24.1558 20.257H21.717C21.0435 20.257 20.4976 20.8455 20.4976 21.5714V24.2002C20.4976 24.9261 21.0435 25.5146 21.717 25.5146H24.1558C24.8293 25.5146 25.3752 24.9261 25.3752 24.2002V21.5714C25.3752 20.8455 24.8293 20.257 24.1558 20.257Z" fill="#70B2F9"/>
<path d="M31.4724 20.257H29.0336C28.3602 20.257 27.8142 20.8455 27.8142 21.5714V24.2002C27.8142 24.9261 28.3602 25.5146 29.0336 25.5146H31.4724C32.1459 25.5146 32.6919 24.9261 32.6919 24.2002V21.5714C32.6919 20.8455 32.1459 20.257 31.4724 20.257Z" fill="#70B2F9"/>
<path d="M16.8394 27.4862H14.4006C13.7271 27.4862 13.1812 28.0747 13.1812 28.8006V31.4294C13.1812 32.1553 13.7271 32.7438 14.4006 32.7438H16.8394C17.5128 32.7438 18.0588 32.1553 18.0588 31.4294V28.8006C18.0588 28.0747 17.5128 27.4862 16.8394 27.4862Z" fill="#70B2F9"/>
<path d="M24.1558 27.4862H21.717C21.0435 27.4862 20.4976 28.0747 20.4976 28.8006V31.4294C20.4976 32.1553 21.0435 32.7438 21.717 32.7438H24.1558C24.8293 32.7438 25.3752 32.1553 25.3752 31.4294V28.8006C25.3752 28.0747 24.8293 27.4862 24.1558 27.4862Z" fill="#70B2F9"/>
<path d="M16.8394 34.7154H14.4006C13.7271 34.7154 13.1812 35.3039 13.1812 36.0298V38.6586C13.1812 39.3845 13.7271 39.973 14.4006 39.973H16.8394C17.5128 39.973 18.0588 39.3845 18.0588 38.6586V36.0298C18.0588 35.3039 17.5128 34.7154 16.8394 34.7154Z" fill="#70B2F9"/>
<path d="M24.1558 34.7154H21.717C21.0435 34.7154 20.4976 35.3039 20.4976 36.0298V38.6586C20.4976 39.3845 21.0435 39.973 21.717 39.973H24.1558C24.8293 39.973 25.3752 39.3845 25.3752 38.6586V36.0298C25.3752 35.3039 24.8293 34.7154 24.1558 34.7154Z" fill="#70B2F9"/>
<path d="M30.8626 16.3138H29.6432C29.3061 16.3138 29.0334 16.0198 29.0334 15.6566C29.0334 15.2933 29.3061 14.9994 29.6432 14.9994H30.8626C31.1996 14.9994 31.4723 15.2933 31.4723 15.6566C31.4723 16.0198 31.1996 16.3138 30.8626 16.3138Z" fill="#5693DB"/>
<path d="M27.2044 16.3138H25.9849C25.6479 16.3138 25.3752 16.0198 25.3752 15.6566C25.3752 15.2933 25.6479 14.9994 25.9849 14.9994H27.2044C27.5414 14.9994 27.8141 15.2933 27.8141 15.6566C27.8141 16.0198 27.5414 16.3138 27.2044 16.3138Z" fill="#5693DB"/>
<path d="M23.5462 16.3138H22.3267C21.9897 16.3138 21.717 16.0198 21.717 15.6566C21.717 15.2933 21.9897 14.9994 22.3267 14.9994H23.5462C23.8832 14.9994 24.1559 15.2933 24.1559 15.6566C24.1559 16.0198 23.8832 16.3138 23.5462 16.3138Z" fill="#5693DB"/>
<path d="M41.1965 38.6585C40.8598 38.6585 40.5868 38.9528 40.5868 39.3157C40.5868 39.7727 40.0208 40.2935 39.108 40.6757C38.1753 41.0701 36.9684 41.2873 35.7091 41.2873C34.4498 41.2873 33.2429 41.0701 32.3081 40.6747C31.3974 40.2935 30.8315 39.7727 30.8315 39.3157C30.8315 38.9528 30.5585 38.6585 30.2218 38.6585C29.8851 38.6585 29.6121 38.9528 29.6121 39.3157V43.2589C29.6121 45.1323 32.2331 46.5449 35.7091 46.5449C39.1851 46.5449 41.8062 45.1323 41.8062 43.2589V39.3157C41.8062 38.9528 41.5332 38.6585 41.1965 38.6585Z" fill="#EF8E2E"/>
<path d="M32.2809 43.2589V40.5567C31.5237 40.1901 31.0615 39.7275 31.0615 39.3157C31.0615 38.9528 30.7885 38.6585 30.4517 38.6585C30.115 38.6585 29.842 38.9528 29.842 39.3157V43.2589C29.842 44.1551 30.4466 44.9434 31.4528 45.5245C31.9874 44.8707 32.2809 44.1047 32.2809 43.2589Z" fill="#E06817"/>
<path d="M41.1965 34.7153C40.8598 34.7153 40.5868 35.0096 40.5868 35.3725C40.5868 35.8295 40.0208 36.3503 39.108 36.7325C38.1753 37.1269 36.9684 37.3441 35.7091 37.3441C34.4498 37.3441 33.2429 37.1269 32.3081 36.7315C31.3974 36.3503 30.8315 35.8295 30.8315 35.3725C30.8315 35.0096 30.5585 34.7153 30.2218 34.7153C29.8851 34.7153 29.6121 35.0096 29.6121 35.3725V39.3157C29.6121 41.1891 32.2331 42.6017 35.7091 42.6017C39.1851 42.6017 41.8062 41.1891 41.8062 39.3157V35.3725C41.8062 35.0096 41.5332 34.7153 41.1965 34.7153Z" fill="#F9A93E"/>
<path d="M32.2809 39.3157V36.6135C31.5237 36.2469 31.0615 35.7843 31.0615 35.3725C31.0615 35.0096 30.7885 34.7153 30.4517 34.7153C30.115 34.7153 29.842 35.0096 29.842 35.3725V39.3157C29.842 40.436 30.7839 41.3886 32.2809 41.9758V39.3157Z" fill="#F19533"/>
<path d="M35.7091 38.6585C39.0764 38.6585 41.8062 37.1873 41.8062 35.3725C41.8062 33.5577 39.0764 32.0865 35.7091 32.0865C32.3418 32.0865 29.6121 33.5577 29.6121 35.3725C29.6121 37.1873 32.3418 38.6585 35.7091 38.6585Z" fill="#FFCD5F"/>
<path d="M29.842 35.3726C29.842 36.4929 30.7839 37.4455 32.2809 38.0327V32.7125C30.7839 33.2997 29.842 34.2523 29.842 35.3726Z" fill="#F9B950"/>
<path d="M30.2216 38.6585C29.8849 38.6585 29.6119 38.9528 29.6119 39.3157C29.6119 39.7727 29.046 40.2935 28.1332 40.6757C27.2005 41.0701 25.9936 41.2873 24.7343 41.2873C23.475 41.2873 22.268 41.0701 21.3332 40.6747C20.4226 40.2935 19.8566 39.7727 19.8566 39.3157C19.8566 38.9528 19.5836 38.6585 19.2469 38.6585C18.9102 38.6585 18.6372 38.9528 18.6372 39.3157V43.2589C18.6372 45.1323 21.2582 46.5449 24.7343 46.5449C28.2103 46.5449 30.8313 45.1323 30.8313 43.2589V39.3157C30.8313 38.9528 30.5583 38.6585 30.2216 38.6585Z" fill="#E57828"/>
<path d="M30.2216 34.7153C29.8849 34.7153 29.6119 35.0096 29.6119 35.3725C29.6119 35.8295 29.046 36.3503 28.1332 36.7325C27.2005 37.1269 25.9936 37.3441 24.7343 37.3441C23.475 37.3441 22.268 37.1269 21.3332 36.7315C20.4226 36.3503 19.8566 35.8295 19.8566 35.3725C19.8566 35.0096 19.5836 34.7153 19.2469 34.7153C18.9102 34.7153 18.6372 35.0096 18.6372 35.3725V39.3157C18.6372 41.1891 21.2582 42.6017 24.7343 42.6017C28.2103 42.6017 30.8313 41.1891 30.8313 39.3157V35.3725C30.8313 35.0096 30.5583 34.7153 30.2216 34.7153Z" fill="#EF8E2E"/>
<path d="M30.2216 30.7722C29.8849 30.7722 29.6119 31.0664 29.6119 31.4294C29.6119 31.8863 29.046 32.4071 28.1332 32.7893C27.2005 33.1837 25.9936 33.4009 24.7343 33.4009C23.475 33.4009 22.268 33.1837 21.3332 32.7884C20.4226 32.4071 19.8566 31.8863 19.8566 31.4294C19.8566 31.0664 19.5836 30.7722 19.2469 30.7722C18.9102 30.7722 18.6372 31.0664 18.6372 31.4294V35.3725C18.6372 37.2459 21.2582 38.6585 24.7343 38.6585C28.2103 38.6585 30.8313 37.2459 30.8313 35.3725V31.4294C30.8313 31.0664 30.5583 30.7722 30.2216 30.7722Z" fill="#F9A93E"/>
<path d="M24.7343 34.7154C28.1016 34.7154 30.8313 33.2442 30.8313 31.4294C30.8313 29.6146 28.1016 28.1434 24.7343 28.1434C21.367 28.1434 18.6372 29.6146 18.6372 31.4294C18.6372 33.2442 21.367 34.7154 24.7343 34.7154Z" fill="#FFCD5F"/>
</g>
<path d="M62.766 32.6274L77.0097 18.3836M77.0097 32.685L62.766 18.4412" stroke="#6C6C6C" stroke-width="1.29854"/>
<g clip-path="url(#clip1_1_51)">
<path d="M117.316 29.5328C117.201 27.7615 114.822 26.9842 113.372 27.8635V27.0862H112.77V27.8635C111.317 26.9745 108.947 27.7615 108.829 29.5328C108.654 31.6642 111.1 32.3747 112.77 31.5432C112.77 31.5432 112.77 33.2858 112.423 34.0058C112.802 34.0058 113.407 34.0058 113.713 34.0058C113.327 33.2955 113.362 31.5432 113.362 31.5432C115.041 32.381 117.485 31.6707 117.316 29.5328ZM112.77 30.9633C111.875 31.9192 109.778 31.6452 109.46 30.2943C108.972 28.3253 111.177 27.2135 112.77 28.4337V30.9633ZM116.679 30.2943C116.36 31.6452 114.261 31.916 113.366 30.9633V28.4337C114.955 27.2135 117.166 28.3253 116.679 30.2943Z" fill="#002B50"/>
<path d="M113.063 34.5953C111.852 32.8495 111.811 28.711 110.384 26.6656H109.428C110.578 27.7966 110.435 33.6236 108.826 34.3118L110.278 34.2895C110.74 32.757 110.769 28.746 110.562 27.6373C111.639 30.0713 111.569 33.1712 113.076 35.4715L113.063 34.5953Z" fill="#002B50"/>
<path d="M113.063 34.5953C114.273 32.8495 114.315 28.711 115.742 26.6656H116.698C115.548 27.7966 115.698 33.6236 117.303 34.3118L115.873 34.2768C115.411 32.7443 115.379 28.7333 115.589 27.6245C114.512 30.0587 114.582 33.1585 113.072 35.4587V34.5953H113.063Z" fill="#002B50"/>
<path d="M113.2 2.0797C113.305 2.08266 113.411 2.06457 113.509 2.02647C113.608 1.98837 113.698 1.93103 113.774 1.85779C113.85 1.78454 113.911 1.69687 113.953 1.59986C113.995 1.50286 114.017 1.39847 114.018 1.29278C114.006 1.08735 113.915 0.894557 113.765 0.753648C113.615 0.612739 113.417 0.534302 113.211 0.534302C113.005 0.534302 112.807 0.612739 112.657 0.753648C112.507 0.894557 112.416 1.08735 112.403 1.29278C112.407 1.50209 112.492 1.70176 112.641 1.84889C112.79 1.99602 112.99 2.07889 113.2 2.0797Z" fill="#002B50"/>
<path d="M107.532 6.41254C107.626 6.41127 107.718 6.38222 107.796 6.32902C107.874 6.27581 107.935 6.20081 107.971 6.11334C108.006 6.02589 108.016 5.92986 107.997 5.83722C107.979 5.74459 107.933 5.65947 107.867 5.59246C107.8 5.52544 107.715 5.47951 107.623 5.46039C107.53 5.44127 107.434 5.44982 107.346 5.48496C107.259 5.52009 107.183 5.58026 107.13 5.65796C107.076 5.73567 107.046 5.82747 107.044 5.92191C107.044 5.98619 107.056 6.04992 107.081 6.10942C107.105 6.16894 107.141 6.22306 107.186 6.26866C107.231 6.31426 107.285 6.35044 107.345 6.37514C107.404 6.39984 107.468 6.41254 107.532 6.41254Z" fill="#002B50"/>
<path d="M127.342 7.75719C127.361 7.39719 127.82 6.50194 127.24 6.33309C125.07 5.71502 124.373 5.45696 122.929 3.98187C122.812 3.86416 122.669 3.77442 122.512 3.71927C122.355 3.66412 122.187 3.64499 122.021 3.66329C121.464 3.73337 121.066 4.20171 121.225 4.59994C121.328 4.85946 121.448 5.11171 121.585 5.35501C121.604 5.35501 123.516 8.79261 120.26 9.47122V9.29917C120.262 9.20727 120.297 9.11922 120.358 9.05067C120.521 8.88727 120.665 8.70676 120.789 8.51226C120.899 8.33749 120.963 8.13786 120.976 7.93166C120.989 7.72546 120.95 7.51932 120.862 7.33217C120.775 7.14504 120.642 6.98291 120.475 6.86066C120.309 6.73841 120.114 6.65997 119.909 6.63256C119.812 6.61121 119.713 6.59736 119.613 6.59114C119.577 7.08506 119.469 7.57114 119.294 8.03437C119.224 8.17454 119.145 8.17454 119.033 8.17454H118.686C118.565 8.17454 118.498 8.17454 118.428 8.03437C118.257 7.56971 118.15 7.08431 118.109 6.59114C118.008 6.59714 117.908 6.61099 117.81 6.63256C117.605 6.66044 117.411 6.73921 117.245 6.86164C117.079 6.98407 116.946 7.14627 116.859 7.33334C116.771 7.52041 116.733 7.72637 116.746 7.93234C116.759 8.13832 116.823 8.33772 116.934 8.51226C117.053 8.70862 117.197 8.88947 117.36 9.05067C117.393 9.08341 117.418 9.12226 117.435 9.16494C117.452 9.20762 117.46 9.25326 117.459 9.29917V9.42661C116.096 9.34697 115.509 7.83366 115.529 7.38444V6.83964C115.53 6.68704 115.591 6.54097 115.697 6.43186C115.963 6.15866 116.2 5.85864 116.405 5.53661C116.589 5.24662 116.696 4.91492 116.718 4.57222C116.74 4.22952 116.675 3.88686 116.529 3.57594C116.383 3.26502 116.162 2.99589 115.884 2.79342C115.607 2.59096 115.283 2.46169 114.942 2.41759C114.791 2.38482 114.638 2.36457 114.484 2.35706C114.484 2.35706 114.315 3.92134 113.904 4.74651C113.795 4.97589 113.665 4.97589 113.477 4.97589H112.919C112.731 4.97589 112.601 4.97589 112.492 4.74651C112.094 3.92134 111.913 2.35706 111.913 2.35706C111.764 2.36544 111.615 2.38567 111.47 2.41759C111.132 2.46486 110.812 2.59562 110.538 2.79804C110.264 3.00046 110.045 3.26809 109.901 3.57666C109.756 3.88522 109.691 4.22496 109.712 4.56501C109.732 4.90506 109.837 5.23464 110.017 5.52386C110.221 5.84634 110.458 6.14642 110.724 6.41911C110.831 6.52822 110.891 6.67431 110.893 6.82691V7.35577C110.893 7.79542 110.316 9.31829 108.962 9.39794V9.27687C108.965 9.18497 109 9.09692 109.061 9.02837C109.222 8.86464 109.365 8.68414 109.488 8.48996C109.595 8.31506 109.657 8.11612 109.668 7.91119C109.68 7.70626 109.639 7.50182 109.551 7.31639C109.463 7.13097 109.33 6.97044 109.165 6.84936C108.999 6.72827 108.806 6.65047 108.602 6.62301C108.504 6.60144 108.404 6.58759 108.303 6.58159C108.267 7.07549 108.159 7.56159 107.984 8.02481C107.964 8.07467 107.928 8.11599 107.881 8.14161C107.833 8.16722 107.779 8.17549 107.726 8.16499H107.373C107.252 8.16499 107.181 8.16499 107.111 8.02481C106.941 7.56016 106.834 7.07476 106.793 6.58159C106.693 6.58779 106.594 6.60164 106.496 6.62301C106.292 6.65042 106.097 6.72886 105.931 6.85109C105.764 6.97334 105.631 7.13549 105.543 7.32262C105.456 7.50976 105.417 7.71589 105.429 7.92209C105.442 8.12829 105.507 8.32794 105.617 8.50269C105.739 8.70042 105.885 8.88142 106.054 9.04112C106.086 9.07386 106.111 9.11271 106.128 9.15537C106.145 9.19806 106.153 9.24371 106.152 9.28962V9.46166C102.868 8.78942 104.779 5.32634 104.811 5.33589C104.948 5.09261 105.068 4.84034 105.171 4.58084C105.33 4.18259 104.932 3.71426 104.375 3.64417C104.209 3.62517 104.041 3.64397 103.884 3.69916C103.727 3.75434 103.584 3.84447 103.467 3.96276C102.023 5.44741 101.326 5.69591 99.1656 6.31397C98.589 6.48282 99.035 7.37807 99.0668 7.73807C99.1051 8.42624 99.1465 8.71297 97.0852 10.0096C99.5224 9.63051 100.271 9.50944 100.628 11.4529C101.07 10.8698 101.308 10.1581 101.307 9.42661C101.32 8.65944 101.078 7.90952 100.618 7.29524C100.618 7.29524 100.618 7.29524 100.618 7.27612C100.55 7.17636 100.504 7.06314 100.483 6.94406C100.462 6.82497 100.467 6.70277 100.497 6.58569C100.527 6.46859 100.582 6.35932 100.658 6.26519C100.734 6.17107 100.829 6.09427 100.937 6.03999C102.144 5.45377 104.254 4.40879 104.015 5.49201C103.836 6.15129 103.749 6.83206 103.757 7.51506C103.798 8.10127 103.855 8.53137 104.174 8.89776C104.429 9.15722 104.74 9.35431 105.084 9.47367C105.428 9.59304 105.795 9.63144 106.156 9.58591H108.319C108.507 9.61351 108.698 9.61351 108.886 9.58591H108.956C109.622 9.47759 110.689 9.00926 111.693 7.35577H114.742C115.748 9.01882 116.812 9.48714 117.482 9.58591H117.552C117.74 9.61306 117.931 9.61306 118.119 9.58591H120.279C120.64 9.63096 121.006 9.59231 121.35 9.47297C121.693 9.35364 122.005 9.15682 122.26 8.89776C122.579 8.53137 122.64 8.10127 122.678 7.51506C122.686 6.83514 122.599 6.15742 122.42 5.50156C122.181 4.41836 124.293 5.46332 125.497 6.04954C125.606 6.10262 125.703 6.17881 125.78 6.27282C125.857 6.36682 125.912 6.47641 125.942 6.59397C125.973 6.71154 125.977 6.83429 125.955 6.95372C125.933 7.07316 125.886 7.18642 125.816 7.28567C125.816 7.28567 125.816 7.28567 125.816 7.30479C125.361 7.91766 125.12 8.66331 125.131 9.42661C125.133 10.16 125.369 10.8734 125.806 11.4624C126.166 9.51901 126.912 9.64007 129.352 10.0192C127.25 8.73209 127.301 8.44536 127.342 7.75719Z" fill="#002B50"/>
<path d="M118.855 6.41254C118.949 6.41127 119.041 6.38222 119.119 6.32902C119.197 6.27581 119.258 6.20081 119.294 6.11334C119.329 6.02589 119.339 5.92986 119.32 5.83722C119.301 5.74459 119.256 5.65947 119.19 5.59246C119.123 5.52544 119.038 5.47951 118.946 5.46039C118.853 5.44127 118.757 5.44982 118.669 5.48496C118.582 5.52009 118.506 5.58026 118.453 5.65796C118.399 5.73567 118.369 5.82747 118.367 5.92191C118.366 5.98631 118.378 6.05022 118.403 6.10992C118.427 6.16962 118.463 6.22391 118.508 6.26961C118.553 6.31529 118.607 6.35146 118.667 6.37601C118.726 6.40056 118.79 6.41297 118.855 6.41254Z" fill="#002B50"/>
<path d="M102.263 14.3231C103.766 14.0427 106.423 14.9603 107.551 15.8874C109.877 17.7798 110.358 21.5933 108.096 24.7188H118.036C115.777 21.5933 116.274 17.7798 118.584 15.8874C119.722 14.9603 122.369 14.0427 123.873 14.3231C123.924 14.3231 124.879 11.0958 118.696 11.0958H114.873C114.873 11.0958 116.736 12.7174 115.688 14.3518C113.636 16.9801 113.171 19.1625 113.079 21.5743C112.98 19.1625 112.521 16.9801 110.47 14.3518C109.434 12.7301 111.288 11.0958 111.288 11.0958H107.465C101.275 11.0958 102.212 14.3326 102.263 14.3231Z" fill="#002B50"/>
<path d="M97.012 32.6295C98.417 32.4224 100.778 31.594 103.097 29.7622C103.097 29.7622 101.823 32.2822 96.4067 34.5729C98.5859 35.2992 100.249 34.7514 101.275 34.0727C102.53 33.2062 103.129 32.7984 105.219 30.5682C104.203 32.451 103.626 33.5757 100.577 35.946C100.577 35.946 102.052 36.4749 104.005 35.4585C104.463 35.2305 104.862 34.901 105.173 34.4952C105.484 34.0894 105.698 33.618 105.799 33.1169C106.006 31.8425 107.608 31.8139 107.688 33.2284C107.688 33.2284 107.688 27.1529 107.688 25.5185C106.006 27.5192 103.725 26.4552 103.228 24.8814C103.228 24.8814 102.67 22.871 104.502 21.9025C104.502 21.9025 105.181 21.5839 104.324 21.106C104.324 21.106 96.4354 15.8174 92.9978 7.40656C92.9978 7.40656 90.7294 11.3603 93.2272 14.8552C95.349 17.5855 97.2829 19.6342 99.1052 20.9595C99.1052 20.9595 95.8078 21.0104 90.2802 14.4283C90.2802 14.4283 89.1365 18.022 91.8732 20.2044C93.938 21.9964 96.465 23.172 99.1657 23.5974C99.1657 23.5974 94.046 24.9514 89.1683 20.0324C89.1683 20.0324 88.8497 23.7949 92.2555 25.219C93.6222 25.7989 96.1104 26.436 99.7965 26.2449C99.7965 26.2449 95.3363 28.338 89.3881 25.8084C89.7067 28.4974 92.0962 29.5614 94.0491 29.4914C96.4592 29.5335 98.8603 29.1872 101.16 28.4655C101.16 28.4655 98.1112 30.8262 91.921 31.1767C93.5967 33.1487 95.9989 32.7792 97.012 32.6295Z" fill="#002B50"/>
<path d="M126.322 26.2353C130.018 26.4233 132.497 25.7861 133.863 25.2095C137.275 23.7855 136.957 20.0196 136.957 20.0196C132.086 24.9291 126.966 23.5846 126.966 23.5846C129.67 23.1601 132.201 21.9833 134.268 20.1885C137.014 18.0093 135.861 14.4124 135.861 14.4124C130.333 20.9945 127.036 20.9468 127.036 20.9468C128.861 19.6215 130.795 17.5696 132.917 14.8425C135.415 11.338 133.146 7.39386 133.146 7.39386C129.709 15.7887 121.821 21.0933 121.821 21.0933C120.964 21.5808 121.642 21.8898 121.642 21.8898C123.464 22.8456 122.917 24.8655 122.917 24.8655C122.429 26.4393 120.186 27.497 118.504 25.5631V32.9066C118.784 31.8203 120.158 31.9318 120.345 33.1075C120.445 33.6086 120.658 34.0805 120.969 34.486C121.281 34.8915 121.681 35.22 122.139 35.4458C124.092 36.4621 125.564 35.9333 125.564 35.9333C122.518 33.5535 121.942 32.4288 120.925 30.5555C123.006 32.7856 123.605 33.1966 124.869 34.06C125.895 34.7355 127.558 35.2833 129.738 34.557C124.322 32.2663 123.047 29.7463 123.047 29.7463C125.37 31.5781 127.718 32.4065 129.132 32.6136C130.158 32.7728 132.551 33.1425 134.23 31.1703C128.027 30.8231 124.991 28.4623 124.991 28.4623C127.283 29.1818 129.676 29.5313 132.079 29.4978C134.023 29.5678 136.422 28.491 136.721 25.8021C130.776 28.335 126.322 26.2353 126.322 26.2353Z" fill="#002B50"/>
<path d="M125.876 39.6417C126.032 39.6417 126.184 39.5955 126.314 39.5092C126.443 39.4227 126.544 39.2997 126.603 39.156C126.663 39.0122 126.679 38.8538 126.648 38.7013C126.618 38.5487 126.543 38.4083 126.433 38.2983C126.323 38.1883 126.183 38.1133 126.03 38.083C125.877 38.0527 125.719 38.0682 125.575 38.1278C125.431 38.1873 125.309 38.2882 125.222 38.4177C125.136 38.547 125.089 38.6992 125.089 38.8548C125.089 39.0635 125.172 39.2637 125.32 39.4112C125.467 39.5588 125.668 39.6417 125.876 39.6417Z" fill="#002B50"/>
<path d="M127.352 40.1355C127.167 40.345 126.94 40.5126 126.686 40.6275C126.432 40.7425 126.156 40.802 125.877 40.802C125.598 40.802 125.322 40.7425 125.067 40.6275C124.813 40.5126 124.586 40.345 124.402 40.1355C123.991 40.4466 123.688 40.8781 123.534 41.37C123.381 41.8616 123.384 42.389 123.545 42.8785C121.894 42.3848 120.04 41.7985 121.146 39.9506C122.739 37.0356 119.741 35.1208 118.517 35.1305C119.049 39.6926 113.439 35.1305 113.101 39.1351C112.76 35.1305 107.163 39.6766 107.685 35.14C106.729 35.3215 104.13 36.118 104.706 39.2148C105.05 40.1131 105.949 41.6265 104.435 42.2223C101.887 43.5411 102.444 41.9738 100.612 42.3306L96.5981 38.3481C96.6295 38.1361 96.5888 37.9198 96.4825 37.7338C96.3761 37.5478 96.2104 37.4028 96.0118 37.3223C96.151 36.9961 96.1893 36.6358 96.1217 36.2876C96.0541 35.9396 95.8838 35.6198 95.6327 35.3693L94.9573 36.0575C94.0812 35.3406 92.8355 36.5608 93.5205 37.4498L92.8259 38.1475C93.079 38.4008 93.4027 38.5718 93.7547 38.6376C94.1067 38.7036 94.4704 38.6616 94.798 38.517C94.8747 38.7198 95.018 38.8903 95.2044 39.001C95.3908 39.1115 95.6092 39.1555 95.8239 39.1255L99.8349 43.1175C99.7391 43.368 99.7179 43.641 99.7738 43.9033C99.8297 44.1658 99.9604 44.4063 100.15 44.596C100.34 44.7856 100.58 44.9165 100.843 44.9723C101.105 45.0283 101.378 45.007 101.629 44.9111C101.88 45.0896 102.616 46.0771 102.973 46.0166C104.282 45.7681 102.874 44.5671 102.444 44.1751C103.339 42.8148 106.42 43.5731 106.608 42.611C106.083 42.1043 105.372 39.3295 108.22 38.8261C108.985 38.7368 111.365 39.0555 110.833 41.2856C110.78 41.4595 110.682 41.6165 110.55 41.7411C110.417 41.8656 110.254 41.9535 110.078 41.996C106.573 43.0856 103.932 46.5328 107.258 47.5523C107.975 44.6148 108.953 44.188 111.333 43.2195C110.157 44.2261 106.646 48.199 110.247 49.0465C110.425 47.0361 110.884 45.8096 112.289 44.2676C112.008 46.5775 110.581 49.5243 113.034 50.5343C115.414 49.6996 114.098 46.571 113.821 44.2676C115.226 45.8223 115.685 47.049 115.863 49.0465C119.463 48.18 115.962 44.2358 114.777 43.2195C117.157 44.1751 118.135 44.6148 118.852 47.5523C122.175 46.5265 119.578 43.092 116.051 41.996C115.873 41.955 115.71 41.8676 115.577 41.7428C115.443 41.6181 115.346 41.4603 115.293 41.2856C114.767 39.0555 117.141 38.7368 117.909 38.8451C120.776 39.3613 120.04 42.1171 119.524 42.63C119.543 43.2066 120.359 43.0983 120.359 43.0983C121.534 43.1366 124.144 43.8948 124.144 43.8948C126.584 46.2938 130.085 42.1426 127.352 40.1355Z" fill="#002B50"/>
<path d="M162.638 21.994L162.626 13.3491H161.613L158.056 19.4253L154.45 13.3491H153.438V21.994H154.623V15.7326L157.748 20.9443H158.316L161.44 15.6956L161.453 21.994H162.638ZM165.131 21.994H166.218L170.22 17.227V21.994H171.405V15.4486H170.331L166.317 20.2157V15.4486H165.131V21.994ZM173.707 21.994H174.892V19.2523H178.622V21.994H179.807V15.4486H178.622V18.2273H174.892V15.4486H173.707V21.994ZM190.375 18.709C190.375 16.6836 188.942 15.5227 186.509 15.3868V12.8304H185.348V15.3868C182.891 15.5103 181.495 16.6836 181.495 18.709C181.495 20.759 182.903 21.9446 185.348 22.0805V24.39H186.509V22.0805C188.955 21.9446 190.375 20.7466 190.375 18.709ZM182.669 18.709C182.669 17.3505 183.545 16.5601 185.348 16.4366V21.0308C183.558 20.9073 182.669 20.1045 182.669 18.709ZM186.509 21.0432V16.4366C188.3 16.5601 189.202 17.3382 189.202 18.709C189.202 20.1168 188.3 20.9073 186.509 21.0432ZM192.05 21.994H193.137L197.139 17.227V21.994H198.324V15.4486H197.25L193.236 20.2157V15.4486H192.05V21.994ZM200.625 21.994H201.811V19.2523H205.541V21.994H206.726V15.4486H205.541V18.2273H201.811V15.4486H200.625V21.994ZM156.809 30.0158H153.438V38.6607H154.673V36.0425H156.809C159.057 36.0425 160.415 34.9063 160.415 33.0292C160.415 31.152 159.057 30.0158 156.809 30.0158ZM156.772 34.9682H154.673V31.0902H156.772C158.353 31.0902 159.18 31.7941 159.18 33.0292C159.18 34.2642 158.353 34.9682 156.772 34.9682ZM164.715 38.7348C166.678 38.7348 168.111 37.3393 168.111 35.388C168.111 33.4366 166.678 32.0535 164.715 32.0535C162.751 32.0535 161.306 33.4366 161.306 35.388C161.306 37.3393 162.751 38.7348 164.715 38.7348ZM164.715 37.6975C163.455 37.6975 162.504 36.7835 162.504 35.388C162.504 33.9925 163.455 33.0908 164.715 33.0908C165.974 33.0908 166.913 33.9925 166.913 35.388C166.913 36.7835 165.974 37.6975 164.715 37.6975ZM172.676 38.7348C173.849 38.7348 174.825 38.2408 175.344 37.327L174.442 36.7588C174.022 37.401 173.38 37.6975 172.664 37.6975C171.379 37.6975 170.416 36.8081 170.416 35.388C170.416 33.9925 171.379 33.0908 172.664 33.0908C173.38 33.0908 174.022 33.3873 174.442 34.0295L175.344 33.449C174.825 32.5352 173.849 32.0535 172.676 32.0535C170.663 32.0535 169.218 33.4366 169.218 35.388C169.218 37.3393 170.663 38.7348 172.676 38.7348ZM179.635 38.7348C180.808 38.7348 181.784 38.2408 182.302 37.327L181.401 36.7588C180.981 37.401 180.339 37.6975 179.623 37.6975C178.338 37.6975 177.375 36.8081 177.375 35.388C177.375 33.9925 178.338 33.0908 179.623 33.0908C180.339 33.0908 180.981 33.3873 181.401 34.0295L182.302 33.449C181.784 32.5352 180.808 32.0535 179.635 32.0535C177.622 32.0535 176.177 33.4366 176.177 35.388C176.177 37.3393 177.622 38.7348 179.635 38.7348ZM183.837 38.6607H184.924L188.925 33.8937V38.6607H190.111V32.1153H189.037L185.023 36.8823V32.1153H183.837V38.6607ZM192.412 38.6607H193.499L197.5 33.8937V38.6607H198.686V32.1153H197.612L193.598 36.8823V32.1153H192.412V38.6607Z" fill="#002B50"/>
</g>
<defs>
<filter id="filter0_f_1_51" x="9.39609" y="6.67069" width="56.2967" height="64.8922" filterUnits="userSpaceOnUse" color-interpolation-filters="sRGB">
<feFlood flood-opacity="0" result="BackgroundImageFix"/>
<feBlend mode="normal" in="SourceGraphic" in2="BackgroundImageFix" result="shape"/>
<feGaussianBlur stdDeviation="0.3625" result="effect1_foregroundBlur_1_51"/>
</filter>
<clipPath id="clip0_1_51">
<rect x="0.672852" y="0.534302" width="50" height="50" rx="10" fill="white"/>
</clipPath>
<clipPath id="clip1_1_51">
<rect width="131.167" height="50" fill="white" transform="translate(89.1604 0.534302)"/>
</clipPath>
</defs>
</svg>
