<svg width="201" height="35" viewBox="0 0 201 35" fill="none" xmlns="http://www.w3.org/2000/svg">
<g clip-path="url(#clip0_1_6)">
<path d="M89.9276 10.5367L94.0951 7.42206H80.1387V26.0815H94.0951V22.9643H84.1251V18.2018H92.6464V15.0871H84.1251V10.5367H89.9276Z" fill="#21A038"/>
<path d="M69.5941 14.6887H64.7591V10.5367H72.494L76.6642 7.42206H60.7727V26.0815H69.0793C73.7332 26.0815 76.421 23.9421 76.421 20.217C76.421 16.6444 74.0048 14.6887 69.5941 14.6887ZM68.9293 22.9643H64.7591V17.8034H68.9293C71.467 17.8034 72.6441 18.6596 72.6441 20.4006C72.6441 22.1416 71.3765 22.9643 68.9293 22.9643Z" fill="#21A038"/>
<path d="M105.394 7.42206H97.812V26.0815H101.798V20.7964H105.425C110.258 20.7964 113.279 18.2328 113.279 14.1092C113.279 9.9857 110.258 7.42206 105.394 7.42206ZM105.304 17.6818H101.77V10.5367H105.304C107.873 10.5367 109.262 11.8198 109.262 14.1092C109.262 16.3987 107.873 17.6818 105.304 17.6818Z" fill="#21A038"/>
<path d="M53.9432 22.0485C52.8878 22.6305 51.7081 22.9358 50.5 22.9358C46.9042 22.9358 44.3069 20.3385 44.3069 16.766C44.3069 13.1934 46.9042 10.5962 50.5 10.5962C51.7987 10.5677 53.0688 10.9946 54.1243 11.7577L56.9958 9.62091L56.8147 9.43724C55.1539 7.93941 52.9162 7.17627 50.3784 7.17627C47.6311 7.17627 45.1218 8.12308 43.311 9.83304C41.4975 11.6051 40.4705 14.0782 40.53 16.6444C40.499 19.2391 41.4975 21.7432 43.311 23.5748C45.2124 25.3778 47.7501 26.3867 50.35 26.3247C53.2189 26.3247 55.7256 25.3158 57.4175 23.4842L54.8512 21.5596L53.9432 22.0485Z" fill="#21A038"/>
<path d="M161.225 7.4531V26.11H165.211V18.476H173.702V26.11H177.691V7.4531H173.702V15.1181H165.211V7.4531H161.225ZM154.367 26.11H158.565L150.771 7.4531H146.723L138.778 26.11H142.796L144.397 22.3538H152.856L154.367 26.11ZM145.605 19.2391L148.686 11.7577L151.586 19.2391H145.605ZM186.634 18.5691H189.109L195.212 26.0815H200.347L192.19 16.4297L199.32 7.42206H194.759L188.838 15.4234H186.634V7.42206H182.644V26.0815H186.634V18.5691ZM125.605 14.7198V10.5678H136.028V7.4531H121.616V26.11H129.926C134.577 26.11 137.267 23.9732 137.267 20.248C137.267 16.6755 134.851 14.7198 130.438 14.7198H125.605ZM125.605 22.9953V17.8344H129.776C132.311 17.8344 133.49 18.6907 133.49 20.4317C133.49 22.1727 132.251 23.0264 129.776 23.0264H125.605V22.9953Z" fill="#21A038"/>
<path d="M28.0534 7.30048C28.7778 8.24729 29.3831 9.28464 29.8953 10.3841L15.9389 20.7964L10.0769 17.0713V12.614L15.9078 16.3081L28.0534 7.30048Z" fill="#21A038"/>
<path d="M4.12406 16.766C4.12406 16.5513 4.12406 16.3702 4.15511 16.1555L0.621375 15.9719C0.621375 16.2176 0.590332 16.4918 0.590332 16.735C0.590332 21.0112 2.31322 24.889 5.09157 27.6984L7.5983 25.1632C5.45374 23.0264 4.12406 20.0644 4.12406 16.766Z" fill="url(#paint0_linear_1_6)"/>
<path d="M15.9075 4.85592C16.1196 4.85592 16.3007 4.85592 16.5128 4.88697L16.6939 1.31443C16.4507 1.31443 16.1791 1.28339 15.9385 1.28339C11.7089 1.28339 7.87249 3.02438 5.09155 5.83378L7.59828 8.36896C9.71438 6.20112 12.6738 4.85592 15.9075 4.85592Z" fill="url(#paint1_linear_1_6)"/>
<path d="M15.9073 28.6761C15.6951 28.6761 15.5141 28.6761 15.3019 28.6451L15.1208 32.2176C15.364 32.2176 15.6356 32.2487 15.8762 32.2487C20.1058 32.2487 23.9448 30.5077 26.7232 27.6983L24.2165 25.1631C22.1004 27.362 19.1694 28.6761 15.9073 28.6761Z" fill="url(#paint2_linear_1_6)"/>
<path d="M22.5535 6.9332L25.544 4.70327C22.9157 2.56648 19.563 1.25232 15.9077 1.25232V4.82486C18.386 4.8559 20.6806 5.61904 22.5535 6.9332Z" fill="url(#paint3_linear_1_6)"/>
<path d="M31.2557 16.766C31.2557 15.8192 31.1652 14.9034 31.0125 13.9877L27.7194 16.4608C27.7194 16.5513 27.7194 16.6755 27.7194 16.766C27.7194 20.2791 26.2086 23.4248 23.8235 25.5926L26.2086 28.2494C29.2922 25.44 31.2557 21.3164 31.2557 16.766Z" fill="#21A038"/>
<path d="M15.9078 28.6762C12.4335 28.6762 9.32145 27.1499 7.1769 24.7363L4.54858 27.1499C7.35798 30.2956 11.4065 32.2487 15.9078 32.2487V28.6762Z" fill="url(#paint4_linear_1_6)"/>
<path d="M8.02255 7.93948L5.63483 5.28271C2.52276 8.12315 0.590332 12.2157 0.590332 16.7661H4.12406C4.12406 13.2841 5.63483 10.1099 8.02255 7.93948Z" fill="url(#paint5_linear_1_6)"/>
</g>
<defs>
<linearGradient id="paint0_linear_1_6" x1="4.71474" y1="27.264" x2="1.08545" y2="16.7257" gradientUnits="userSpaceOnUse">
<stop offset="0.1444" stop-color="#F2E913"/>
<stop offset="0.3037" stop-color="#E7E518"/>
<stop offset="0.5823" stop-color="#CADB26"/>
<stop offset="0.891" stop-color="#A3CD39"/>
</linearGradient>
<linearGradient id="paint1_linear_1_6" x1="6.0995" y1="5.43049" x2="15.2694" y2="1.92014" gradientUnits="userSpaceOnUse">
<stop offset="0.0592" stop-color="#0FA8E0"/>
<stop offset="0.5385" stop-color="#0099F9"/>
<stop offset="0.9234" stop-color="#0291EB"/>
</linearGradient>
<linearGradient id="paint2_linear_1_6" x1="14.9144" y1="29.2101" x2="25.841" y2="26.7295" gradientUnits="userSpaceOnUse">
<stop offset="0.1226" stop-color="#A3CD39"/>
<stop offset="0.2846" stop-color="#86C339"/>
<stop offset="0.8693" stop-color="#21A038"/>
</linearGradient>
<linearGradient id="paint3_linear_1_6" x1="15.1816" y1="3.52865" x2="24.2685" y2="6.34509" gradientUnits="userSpaceOnUse">
<stop offset="0.0566" stop-color="#0291EB"/>
<stop offset="0.79" stop-color="#0C8ACB"/>
</linearGradient>
<linearGradient id="paint4_linear_1_6" x1="5.44716" y1="27.7151" x2="15.2097" y2="31.3793" gradientUnits="userSpaceOnUse">
<stop offset="0.1324" stop-color="#F2E913"/>
<stop offset="0.2977" stop-color="#EBE716"/>
<stop offset="0.5306" stop-color="#D9E01F"/>
<stop offset="0.8023" stop-color="#BBD62D"/>
<stop offset="0.9829" stop-color="#A3CD39"/>
</linearGradient>
<linearGradient id="paint5_linear_1_6" x1="3.29882" y1="17.1978" x2="7.22189" y2="6.94614" gradientUnits="userSpaceOnUse">
<stop offset="0.0698" stop-color="#A3CD39"/>
<stop offset="0.2599" stop-color="#81C55F"/>
<stop offset="0.9216" stop-color="#0FA8E0"/>
</linearGradient>
<clipPath id="clip0_1_6">
<rect width="200" height="33.3333" fill="white" transform="translate(0.5 0.867676)"/>
</clipPath>
</defs>
</svg>
