<svg width="32" height="33" viewBox="0 0 32 33" fill="none" xmlns="http://www.w3.org/2000/svg">
<g clip-path="url(#clip0_2_49)">
<path d="M16 32.5918C24.8366 32.5918 32 25.4284 32 16.5918C32 7.75524 24.8366 0.591797 16 0.591797C7.16344 0.591797 0 7.75524 0 16.5918C0 25.4284 7.16344 32.5918 16 32.5918Z" fill="white"/>
<path d="M23.9444 10.2617C24.4296 10.8976 24.8404 11.5884 25.1684 12.3203L15.8639 19.2723L11.9753 16.8016V13.8292L15.8639 16.2999L23.9444 10.2617Z" fill="#1CA435"/>
<path d="M8.00678 16.5918C8.00678 16.4584 8.00999 16.3259 8.0164 16.1942L5.65981 16.0771C5.65179 16.2479 5.64698 16.4203 5.64698 16.5942C5.64597 17.9535 5.90974 19.2995 6.42316 20.5551C6.93658 21.8108 7.68954 22.9513 8.63884 23.9113L10.3104 22.2178C9.57969 21.4801 8.99999 20.6033 8.60465 19.6378C8.20931 18.6723 8.00613 17.6371 8.00678 16.5918Z" fill="url(#paint0_linear_2_49)"/>
<path d="M15.8617 8.63013C15.9932 8.63013 16.1239 8.63501 16.2539 8.64151L16.3718 6.25207C16.2029 6.24394 16.0328 6.23988 15.8617 6.23988C14.52 6.23822 13.1913 6.50519 11.9518 7.02546C10.7123 7.54573 9.58635 8.30905 8.63867 9.2716L10.3103 10.9659C11.0381 10.225 11.9032 9.63721 12.8559 9.23635C13.8087 8.8355 14.8301 8.62947 15.8617 8.63013Z" fill="url(#paint1_linear_2_49)"/>
<path d="M15.8617 24.5537C15.7302 24.5537 15.5995 24.5537 15.4687 24.5431L15.3508 26.9317C15.5203 26.9404 15.6907 26.9448 15.8617 26.9448C17.2028 26.9462 18.5309 26.679 19.7698 26.1586C21.0086 25.6382 22.1338 24.8748 23.0808 23.9122L21.4124 22.2188C20.6844 22.9593 19.8194 23.5467 18.8669 23.9474C17.9143 24.3481 16.8931 24.5542 15.8617 24.5537Z" fill="url(#paint2_linear_2_49)"/>
<path d="M20.2895 10.0194L22.2755 8.53566C20.4603 7.04579 18.1944 6.23476 15.8586 6.23891V8.62997C17.4403 8.62798 18.9853 9.11247 20.2895 10.0194Z" fill="url(#paint3_linear_2_49)"/>
<path d="M26.0758 16.5919C26.077 15.9698 26.0234 15.3489 25.9153 14.7366L23.7168 16.3788C23.7168 16.4496 23.7168 16.5203 23.7168 16.5919C23.7173 17.7043 23.4873 18.8044 23.0415 19.821C22.5958 20.8375 21.9442 21.7477 21.1292 22.4927L22.7149 24.2692C23.7746 23.2995 24.6213 22.1151 25.2003 20.7925C25.7793 19.47 26.0775 18.0388 26.0758 16.5919Z" fill="#1CA435"/>
<path d="M15.8617 24.5537C14.7641 24.5541 13.6786 24.3208 12.6756 23.869C11.6726 23.4172 10.7744 22.7569 10.0392 21.9309L8.28735 23.5374C9.24383 24.6116 10.4124 25.47 11.7172 26.057C13.0221 26.644 14.4341 26.9464 15.8617 26.9447V24.5537Z" fill="url(#paint4_linear_2_49)"/>
<path d="M10.5944 10.691L9.00942 8.91455C7.94949 9.88397 7.10243 11.0684 6.52316 12.391C5.94391 13.7135 5.64539 15.1447 5.64698 16.5918H8.00678C8.0063 15.4794 8.23639 14.3793 8.68215 13.3628C9.12791 12.3463 9.77939 11.436 10.5944 10.691Z" fill="url(#paint5_linear_2_49)"/>
</g>
<defs>
<linearGradient id="paint0_linear_2_49" x1="9.1161" y1="23.613" x2="6.47528" y2="16.0813" gradientUnits="userSpaceOnUse">
<stop offset="0.14" stop-color="#F1E813"/>
<stop offset="0.3" stop-color="#E6E418"/>
<stop offset="0.58" stop-color="#C9DA26"/>
<stop offset="0.89" stop-color="#A2CC39"/>
</linearGradient>
<linearGradient id="paint1_linear_2_49" x1="9.31244" y1="9.69436" x2="15.9756" y2="7.18918" gradientUnits="userSpaceOnUse">
<stop offset="0.06" stop-color="#0FA7DF"/>
<stop offset="0.54" stop-color="#0098F8"/>
<stop offset="0.92" stop-color="#0290EA"/>
</linearGradient>
<linearGradient id="paint2_linear_2_49" x1="15.1953" y1="25.5017" x2="22.7143" y2="23.8258" gradientUnits="userSpaceOnUse">
<stop offset="0.12" stop-color="#A2CC39"/>
<stop offset="0.28" stop-color="#86C239"/>
<stop offset="0.87" stop-color="#219F38"/>
</linearGradient>
<linearGradient id="paint3_linear_2_49" x1="15.3678" y1="7.03972" x2="21.8028" y2="8.9989" gradientUnits="userSpaceOnUse">
<stop offset="0.06" stop-color="#0290EA"/>
<stop offset="0.79" stop-color="#0C89CA"/>
</linearGradient>
<linearGradient id="paint4_linear_2_49" x1="8.87931" y1="23.2464" x2="15.8902" y2="25.8314" gradientUnits="userSpaceOnUse">
<stop offset="0.13" stop-color="#F1E813"/>
<stop offset="0.3" stop-color="#EAE616"/>
<stop offset="0.53" stop-color="#D8DF1F"/>
<stop offset="0.8" stop-color="#BAD52D"/>
<stop offset="0.98" stop-color="#A2CC39"/>
</linearGradient>
<linearGradient id="paint5_linear_2_49" x1="6.52609" y1="16.8812" x2="9.39772" y2="9.51126" gradientUnits="userSpaceOnUse">
<stop offset="0.07" stop-color="#A2CC39"/>
<stop offset="0.26" stop-color="#81C45E"/>
<stop offset="0.92" stop-color="#0FA7DF"/>
</linearGradient>
<clipPath id="clip0_2_49">
<rect width="32" height="32" fill="white" transform="translate(0 0.591797)"/>
</clipPath>
</defs>
</svg>
