<svg width="16" height="16" viewBox="0 0 16 16" fill="none" xmlns="http://www.w3.org/2000/svg">
<path fill-rule="evenodd" clip-rule="evenodd" d="M10.9247 4.50827C11.1779 4.74283 11.1931 5.13828 10.9585 5.39151L5.3296 11.4686C4.86867 11.9662 4.10008 11.9662 3.63916 11.4686L1.29148 8.93398C1.05692 8.68073 1.07206 8.2853 1.32529 8.05073C1.57853 7.81617 1.97397 7.83136 2.20853 8.08455L4.48438 10.5416L10.0415 4.54209C10.2761 4.28885 10.6715 4.27371 10.9247 4.50827ZM14.05 4.50827C14.3032 4.74283 14.3184 5.13827 14.0838 5.39151L8.45488 11.4686C8.22031 11.7218 7.82487 11.737 7.57162 11.5024C7.31837 11.2679 7.30325 10.8724 7.53781 10.6192L13.1667 4.54209C13.4013 4.28885 13.7968 4.27371 14.05 4.50827Z" fill="#38474E"/>
</svg>
