<svg width="22" height="30" viewBox="0 0 22 30" fill="none" xmlns="http://www.w3.org/2000/svg">
<path fill-rule="evenodd" clip-rule="evenodd" d="M10.6846 27.0308C8.61568 25.5855 6.54679 24.14 4.47792 22.6947V23.7716C4.47792 24.4801 4.78967 25.0753 5.35649 25.4721C7.14198 26.7191 8.89911 27.9661 10.6846 29.2131C12.4417 27.9661 14.2272 26.7474 15.9844 25.5004C16.5512 25.1037 16.8629 24.5085 16.8629 23.7999V22.723L16.1544 23.2048C14.3406 24.4801 12.5268 25.7555 10.6846 27.0308ZM21.3408 0.787109C14.2272 0.787109 7.11365 0.787109 5.60503e-05 0.787109V3.50784H1.78553V2.57259C7.70878 2.57259 13.6037 2.57259 19.527 2.57259V3.50784H21.3408V0.787109Z" fill="#C6A37E"/>
<path fill-rule="evenodd" clip-rule="evenodd" d="M10.0893 24.6139C10.0893 18.2089 10.0893 11.8321 10.0893 5.42708C6.71681 5.42708 3.34424 5.42708 0 5.42708V14.5528L1.8138 16.6217V7.2409H8.3322C8.3322 11.8888 8.3322 16.5367 8.3322 21.1847C6.14995 19.6542 3.99605 18.1522 1.8138 16.6217L0 14.5528V16.4517C0 17.1602 0.311704 17.7554 0.878563 18.1522C3.96771 20.3061 7.02852 22.46 10.0893 24.6139Z" fill="#C6A37E"/>
<path fill-rule="evenodd" clip-rule="evenodd" d="M11.3422 24.6139C11.3422 18.2089 11.3422 11.8321 11.3422 5.42708C14.7147 5.42708 18.0873 5.42708 21.4315 5.42708V14.5528L19.6177 16.6217V7.2409H13.0993C13.0993 11.8888 13.0993 16.5367 13.0993 21.1847C15.2816 19.6542 17.4355 18.1522 19.6177 16.6217L21.4315 14.5528V16.4517C21.4315 17.1602 21.1198 17.7554 20.553 18.1522C17.4638 20.3061 14.403 22.46 11.3422 24.6139Z" fill="#C6A37E"/>
</svg>
