<svg width="299" height="29" viewBox="0 0 299 29" fill="none" xmlns="http://www.w3.org/2000/svg">
<path fill-rule="evenodd" clip-rule="evenodd" d="M10.8285 26.2437C8.75962 24.7984 6.69072 23.3529 4.62186 21.9076V22.9845C4.62186 23.693 4.93361 24.2882 5.50043 24.6849C7.28592 25.9319 9.04305 27.179 10.8285 28.426C12.5856 27.179 14.3712 25.9603 16.1283 24.7133C16.6951 24.3166 17.0069 23.7214 17.0069 23.0128V21.9359L16.2983 22.4177C14.4845 23.693 12.6707 24.9684 10.8285 26.2437ZM21.4847 0C14.3712 0 7.25758 0 0.143992 0V2.72073H1.92947V1.78548C7.85272 1.78548 13.7476 1.78548 19.6709 1.78548V2.72073H21.4847V0Z" fill="#C6A37E"/>
<path fill-rule="evenodd" clip-rule="evenodd" d="M10.2333 23.8268C10.2333 17.4217 10.2333 11.045 10.2333 4.63997C6.86075 4.63997 3.48817 4.63997 0.143936 4.63997V13.7657L1.95774 15.8346V6.45379H8.47613C8.47613 11.1017 8.47613 15.7496 8.47613 20.3975C6.29389 18.8671 4.13998 17.3651 1.95774 15.8346L0.143936 13.7657V15.6646C0.143936 16.3731 0.455641 16.9683 1.0225 17.3651C4.11164 19.519 7.17245 21.6729 10.2333 23.8268Z" fill="#C6A37E"/>
<path fill-rule="evenodd" clip-rule="evenodd" d="M11.4861 23.8268C11.4861 17.4217 11.4861 11.045 11.4861 4.63997C14.8587 4.63997 18.2312 4.63997 21.5755 4.63997V13.7657L19.7617 15.8346V6.45379H13.2433C13.2433 11.1017 13.2433 15.7496 13.2433 20.3975C15.4255 18.8671 17.5794 17.3651 19.7617 15.8346L21.5755 13.7657V15.6646C21.5755 16.3731 21.2638 16.9683 20.6969 17.3651C17.6078 19.519 14.547 21.6729 11.4861 23.8268Z" fill="#C6A37E"/>
<path d="M27.9575 17.2129V8.26967H29.069V17.2129H27.9575ZM34.8476 10.1605C35.6567 10.1605 36.2998 10.4331 36.7768 10.9782C37.2622 11.5233 37.505 12.226 37.505 13.0862V17.2129H36.419V13.3418C36.419 12.8733 36.3466 12.4772 36.2018 12.1536C36.0656 11.8299 35.8569 11.5829 35.5758 11.4126C35.3032 11.2422 34.9668 11.1571 34.5665 11.1571C33.9788 11.1571 33.4848 11.3785 33.0845 11.8214C32.6842 12.2558 32.484 12.7966 32.484 13.444V17.2129H31.398V10.3138H32.1646L32.3818 11.3998C32.5521 11.1358 32.7608 10.9143 33.0078 10.7354C33.2548 10.5481 33.5359 10.4075 33.851 10.3138C34.1662 10.2116 34.4984 10.1605 34.8476 10.1605ZM44.2507 10.3138H45.3622L42.4493 17.2129H41.4656L38.476 10.3138H39.613L41.951 15.8075L44.2507 10.3138ZM52.9466 13.7889C52.9466 13.8826 52.9381 14.0146 52.9211 14.185H47.0313C47.1165 14.8238 47.3805 15.3391 47.8234 15.7309C48.2663 16.1142 48.8114 16.3058 49.4588 16.3058C49.9357 16.3058 50.3573 16.2036 50.7236 15.9992C51.0984 15.7862 51.3965 15.4881 51.6179 15.1048H52.755C52.4654 15.8203 52.031 16.3782 51.4518 16.7785C50.8726 17.1703 50.2083 17.3662 49.4588 17.3662C48.4622 17.3662 47.6275 17.0213 46.9547 16.3313C46.2818 15.6414 45.9454 14.7854 45.9454 13.7634C45.9454 12.7328 46.2818 11.8768 46.9547 11.1954C47.6275 10.5055 48.4622 10.1605 49.4588 10.1605C50.4894 10.1605 51.3283 10.5097 51.9756 11.2082C52.623 11.9066 52.9466 12.7668 52.9466 13.7889ZM49.4588 11.1954C49.0499 11.1954 48.6752 11.2763 48.3345 11.4381C48.0023 11.6 47.7255 11.8342 47.504 12.1408C47.2826 12.4389 47.1335 12.7839 47.0569 13.1757H51.8479C51.7712 12.7753 51.6222 12.4261 51.4007 12.128C51.1793 11.8214 50.9025 11.5914 50.5703 11.4381C50.2381 11.2763 49.8676 11.1954 49.4588 11.1954ZM63.9064 16.2036H64.6601V17.2129H63.7658C63.2803 17.2129 62.8545 17.1192 62.4882 16.9318C62.1305 16.7359 61.8537 16.4548 61.6578 16.0886C61.4704 15.7224 61.3767 15.2922 61.3767 14.7982V11.2976H60.163V11.1059L62.2966 8.85736H62.4627V10.3138H64.6218V11.2976H62.4627V14.7599C62.4627 15.075 62.518 15.3391 62.6288 15.552C62.7395 15.7649 62.9013 15.9268 63.1142 16.0375C63.3357 16.1482 63.5997 16.2036 63.9064 16.2036ZM56.8795 13.1373C57.118 13.1714 57.2926 13.2012 57.4034 13.2268C57.5226 13.2438 57.6887 13.2821 57.9016 13.3418C58.1231 13.3929 58.2934 13.4482 58.4127 13.5078C58.5319 13.5675 58.6682 13.6526 58.8215 13.7634C58.9833 13.8656 59.1026 13.9848 59.1792 14.1211C59.2559 14.2489 59.324 14.4107 59.3836 14.6066C59.4433 14.794 59.4731 15.0026 59.4731 15.2326C59.4731 15.8799 59.2218 16.3995 58.7193 16.7913C58.2253 17.1746 57.5694 17.3662 56.7518 17.3662C56.2067 17.3662 55.7297 17.2768 55.3209 17.0979C54.912 16.9105 54.5926 16.6465 54.3627 16.3058C54.1327 15.9566 54.0092 15.552 53.9922 15.0921H55.0526C55.0781 15.5009 55.2485 15.816 55.5636 16.0375C55.8787 16.2504 56.2833 16.3569 56.7773 16.3569C57.2628 16.3569 57.6546 16.2632 57.9527 16.0758C58.2508 15.8799 58.3999 15.6159 58.3999 15.2837C58.3999 15.1304 58.3658 14.9941 58.2977 14.8749C58.2295 14.7556 58.1486 14.6619 58.0549 14.5938C57.9612 14.5171 57.8207 14.449 57.6333 14.3894C57.4545 14.3298 57.2969 14.2872 57.1606 14.2616C57.0329 14.2361 56.8497 14.202 56.6112 14.1594C56.4579 14.1339 56.3387 14.1126 56.2535 14.0955C56.1683 14.0785 56.0534 14.0572 55.9086 14.0317C55.7638 13.9976 55.6445 13.9678 55.5508 13.9422C55.4657 13.9082 55.3592 13.8698 55.2314 13.8272C55.1037 13.7761 55.0015 13.725 54.9248 13.6739C54.8481 13.6143 54.7587 13.5504 54.6565 13.4823C54.5628 13.4056 54.4862 13.3247 54.4265 13.2395C54.3754 13.1544 54.3201 13.0607 54.2605 12.9585C54.2093 12.8477 54.171 12.7242 54.1455 12.588C54.1284 12.4517 54.1199 12.3112 54.1199 12.1664C54.1199 11.5701 54.3584 11.0889 54.8354 10.7227C55.3123 10.3479 55.9384 10.1605 56.7135 10.1605C57.497 10.1605 58.1231 10.3564 58.5915 10.7482C59.06 11.1315 59.3027 11.6468 59.3198 12.2941H58.2977C58.2721 11.9194 58.1188 11.634 57.8377 11.4381C57.5652 11.2337 57.1862 11.1315 56.7007 11.1315C56.2322 11.1315 55.8575 11.2252 55.5764 11.4126C55.3038 11.5914 55.1676 11.8299 55.1676 12.128C55.1676 12.2643 55.2016 12.3878 55.2698 12.4985C55.3379 12.6007 55.4146 12.6859 55.4997 12.7541C55.5849 12.8137 55.7169 12.8733 55.8958 12.9329C56.0746 12.984 56.2237 13.0224 56.3429 13.0479C56.4707 13.0649 56.6496 13.0947 56.8795 13.1373ZM69.3233 17.3662C68.6504 17.3662 68.0372 17.2129 67.4835 16.9063C66.9384 16.5911 66.5083 16.1567 66.1932 15.6031C65.8865 15.0495 65.7332 14.4362 65.7332 13.7634C65.7332 12.7328 66.0739 11.8768 66.7553 11.1954C67.4452 10.5055 68.3012 10.1605 69.3233 10.1605C70.141 10.1605 70.8479 10.3862 71.4441 10.8376C72.0488 11.2891 72.4577 11.8895 72.6706 12.6391H71.5974C71.393 12.1962 71.0864 11.847 70.6776 11.5914C70.2772 11.3359 69.8258 11.2082 69.3233 11.2082C68.6164 11.2082 68.0244 11.4552 67.5474 11.9492C67.079 12.4347 66.8447 13.0394 66.8447 13.7634C66.8447 14.2403 66.9512 14.6747 67.1641 15.0665C67.3771 15.4498 67.6709 15.7564 68.0457 15.9864C68.429 16.2078 68.8548 16.3186 69.3233 16.3186C69.8258 16.3186 70.273 16.1908 70.6648 15.9353C71.0651 15.6712 71.3717 15.3093 71.5847 14.8493H72.6834C72.4705 15.6159 72.0574 16.2291 71.4441 16.6891C70.8394 17.1405 70.1324 17.3662 69.3233 17.3662ZM77.3098 17.3662C76.6284 17.3662 76.0067 17.2129 75.4445 16.9063C74.8824 16.5911 74.4437 16.161 74.1286 15.6159C73.8134 15.0623 73.6559 14.4447 73.6559 13.7634C73.6559 12.7242 74.0008 11.864 74.6907 11.1826C75.3892 10.5012 76.2622 10.1605 77.3098 10.1605C77.9997 10.1605 78.6215 10.3181 79.1751 10.6332C79.7373 10.9399 80.1759 11.37 80.491 11.9236C80.8147 12.4687 80.9765 13.082 80.9765 13.7634C80.9765 14.794 80.6273 15.6542 79.9289 16.3441C79.2305 17.0255 78.3574 17.3662 77.3098 17.3662ZM75.4828 15.6031C75.9683 16.0801 76.5773 16.3186 77.3098 16.3186C78.0508 16.3186 78.6598 16.0801 79.1368 15.6031C79.6223 15.1176 79.865 14.5044 79.865 13.7634C79.865 13.0224 79.6223 12.4134 79.1368 11.9364C78.6598 11.4509 78.0508 11.2082 77.3098 11.2082C76.5773 11.2082 75.9683 11.4509 75.4828 11.9364C75.0059 12.4134 74.7674 13.0224 74.7674 13.7634C74.7674 14.5044 75.0059 15.1176 75.4828 15.6031ZM86.0765 10.1605C86.8856 10.1605 87.5287 10.4331 88.0057 10.9782C88.4911 11.5233 88.7339 12.226 88.7339 13.0862V17.2129H87.6479V13.3418C87.6479 12.8733 87.5755 12.4772 87.4307 12.1536C87.2945 11.8299 87.0858 11.5829 86.8047 11.4126C86.5321 11.2422 86.1957 11.1571 85.7954 11.1571C85.2077 11.1571 84.7137 11.3785 84.3134 11.8214C83.9131 12.2558 83.7129 12.7966 83.7129 13.444V17.2129H82.6269V10.3138H83.3935L83.6107 11.3998C83.781 11.1358 83.9897 10.9143 84.2367 10.7354C84.4837 10.5481 84.7648 10.4075 85.0799 10.3138C85.3951 10.2116 85.7273 10.1605 86.0765 10.1605Z" fill="#0B0B0B"/>
<path d="M227.726 10.472V3.02369H232.421V4.09579H228.922V6.003H230.525C231.27 6.003 231.871 6.20989 232.33 6.62369C232.797 7.03748 233.03 7.57165 233.03 8.22619C233.03 8.88826 232.797 9.42996 232.33 9.85127C231.871 10.2651 231.27 10.472 230.525 10.472H227.726ZM228.922 9.42243H230.48C230.901 9.42243 231.228 9.3171 231.461 9.10644C231.702 8.88826 231.823 8.59485 231.823 8.22619C231.823 7.85754 231.702 7.56789 231.461 7.35723C231.228 7.13905 230.901 7.02995 230.48 7.02995H228.922V9.42243ZM239.303 8.09077H235.172C235.248 8.54218 235.447 8.89955 235.77 9.16287C236.102 9.41867 236.504 9.54657 236.978 9.54657C237.565 9.54657 238.103 9.32839 238.592 8.89202L239.156 9.70456C238.532 10.2989 237.794 10.5961 236.944 10.5961C236.102 10.5961 235.394 10.3215 234.823 9.77227C234.251 9.21553 233.965 8.52713 233.965 7.70707C233.95 6.90958 234.228 6.22494 234.8 5.65315C235.372 5.07384 236.049 4.79171 236.831 4.80676C237.561 4.80676 238.17 5.05127 238.659 5.5403C239.149 6.0218 239.393 6.62368 239.393 7.34594C239.393 7.56412 239.363 7.8124 239.303 8.09077ZM235.195 7.16538H238.208C238.201 6.75159 238.061 6.42431 237.791 6.18356C237.52 5.93528 237.185 5.81115 236.786 5.81115C236.395 5.81115 236.053 5.93528 235.759 6.18356C235.473 6.42431 235.285 6.75159 235.195 7.16538ZM240.401 7.69579C240.386 6.90582 240.672 6.22494 241.259 5.65315C241.846 5.07384 242.538 4.79171 243.335 4.80676C244.374 4.80676 245.152 5.2356 245.671 6.09328L244.836 6.74782C244.445 6.18356 243.949 5.90143 243.347 5.90143C242.85 5.90143 242.436 6.07447 242.105 6.42055C241.774 6.76663 241.609 7.19171 241.609 7.69579C241.609 8.20738 241.774 8.63622 242.105 8.98231C242.436 9.32839 242.85 9.50143 243.347 9.50143C243.933 9.50143 244.43 9.22306 244.836 8.66632L245.671 9.30958C245.423 9.71585 245.096 10.0318 244.69 10.2575C244.283 10.4832 243.832 10.5961 243.335 10.5961C242.515 10.5961 241.819 10.314 241.248 9.7497C240.683 9.18544 240.401 8.5008 240.401 7.69579ZM246.989 10.472V4.9309H251.695V10.472H250.499V5.95785H248.185V10.472H246.989ZM253.887 4.9309H257.961V10.472H256.776V5.95785H254.993L254.982 6.51083C254.944 7.95535 254.786 8.98983 254.508 9.61428C254.237 10.2312 253.774 10.5397 253.12 10.5397C252.962 10.5397 252.819 10.5171 252.691 10.472V9.47886C252.811 9.49391 252.886 9.50143 252.917 9.50143C253.248 9.50143 253.485 9.25315 253.628 8.7566C253.77 8.26005 253.849 7.44751 253.865 6.31898L253.887 4.9309ZM264.085 7.12024V10.472H262.979V9.85127C262.565 10.3478 261.975 10.5961 261.207 10.5961C260.628 10.5961 260.162 10.4494 259.808 10.156C259.454 9.86256 259.278 9.4751 259.278 8.99359C259.278 8.51209 259.462 8.12839 259.831 7.84249C260.199 7.5566 260.696 7.41365 261.32 7.41365H262.889V7.05253C262.889 6.66883 262.784 6.37541 262.573 6.17227C262.37 5.96914 262.08 5.86757 261.704 5.86757C261.14 5.86757 260.628 6.14218 260.169 6.6914L259.481 5.99171C260.022 5.20174 260.801 4.80676 261.817 4.80676C262.509 4.80676 263.058 5.00989 263.464 5.41616C263.878 5.82243 264.085 6.39046 264.085 7.12024ZM262.889 8.3729V8.27133H261.467C260.812 8.27133 260.485 8.49704 260.485 8.94845C260.485 9.17416 260.572 9.35472 260.745 9.49014C260.925 9.61804 261.162 9.68199 261.456 9.68199C261.862 9.68199 262.201 9.55785 262.471 9.30958C262.75 9.0613 262.889 8.74908 262.889 8.3729ZM266.731 10.472V5.95785H264.948V4.9309H269.699V5.95785H267.916V10.472H266.731ZM270.76 10.472V4.9309H271.957V7.05253H274.338V4.9309H275.523V10.472H274.338V8.07948H271.957V10.472H270.76ZM277.263 10.472V4.9309H278.459V6.6914H279.621C280.276 6.6914 280.802 6.86068 281.201 7.19923C281.6 7.53779 281.799 7.99673 281.799 8.57604C281.799 9.15535 281.6 9.61804 281.201 9.96412C280.802 10.3027 280.276 10.472 279.621 10.472H277.263ZM282.51 10.472V4.9309H283.695V10.472H282.51ZM278.459 9.445H279.576C279.9 9.445 280.148 9.37353 280.321 9.23058C280.501 9.08011 280.592 8.86569 280.592 8.58732C280.592 8.30895 280.501 8.09453 280.321 7.94406C280.14 7.79359 279.888 7.71836 279.565 7.71836H278.459V9.445ZM289.875 4.80676H290.281V10.472H289.085V7.02995L285.857 10.5961H285.44V4.9309H286.636V8.39547L289.875 4.80676ZM286.173 2.14343V1.81616H287.144V2.13215C287.144 2.81679 287.426 3.15911 287.99 3.15911C288.562 3.15911 288.848 2.81679 288.848 2.13215V1.81616H289.83V2.14343C289.83 2.70017 289.66 3.15159 289.322 3.49767C288.983 3.84375 288.539 4.01679 287.99 4.01679C287.449 4.01679 287.008 3.84375 286.67 3.49767C286.339 3.15159 286.173 2.70017 286.173 2.14343ZM227.749 24.5785V18.9585H228.065L230.671 22.0506L233.267 18.9585H233.572V24.5785H232.703V20.8657L230.829 23.1002H230.491L228.617 20.8657V24.5785H227.749ZM239.605 21.193V24.5785H238.792V23.8676C238.371 24.4243 237.754 24.7027 236.941 24.7027C236.37 24.7027 235.907 24.5635 235.553 24.2851C235.2 23.9992 235.023 23.6231 235.023 23.1566C235.023 22.6901 235.203 22.3177 235.565 22.0394C235.926 21.761 236.403 21.6218 236.998 21.6218H238.736V21.1478C238.736 20.7039 238.615 20.3616 238.375 20.1209C238.141 19.8801 237.818 19.7597 237.404 19.7597C236.787 19.7597 236.253 20.0532 235.801 20.64L235.226 20.166C235.715 19.361 236.46 18.9585 237.46 18.9585C238.123 18.9585 238.645 19.1541 239.029 19.5453C239.413 19.929 239.605 20.4782 239.605 21.193ZM238.736 22.4682V22.3328H237.099C236.309 22.3328 235.914 22.5923 235.914 23.1115C235.914 23.3823 236.02 23.5967 236.23 23.7547C236.449 23.9052 236.723 23.9804 237.054 23.9804C237.513 23.9804 237.908 23.8337 238.239 23.5403C238.57 23.2469 238.736 22.8895 238.736 22.4682ZM241.052 21.8249C241.037 21.0425 241.315 20.3654 241.887 19.7936C242.459 19.2218 243.14 18.9434 243.93 18.9585C244.404 18.9585 244.836 19.0638 245.228 19.2745C245.619 19.4851 245.942 19.7785 246.198 20.1547L245.577 20.6513C245.141 20.0569 244.596 19.7597 243.941 19.7597C243.377 19.7597 242.903 19.9629 242.519 20.3691C242.135 20.7679 241.944 21.2532 241.944 21.8249C241.944 22.4042 242.135 22.897 242.519 23.3033C242.903 23.7021 243.377 23.9014 243.941 23.9014C244.588 23.9014 245.13 23.608 245.566 23.0212L246.187 23.5064C245.645 24.3039 244.893 24.7027 243.93 24.7027C243.132 24.7027 242.451 24.4243 241.887 23.8676C241.33 23.3033 241.052 22.6224 241.052 21.8249ZM248.78 24.5785V19.8613H246.93V19.0826H251.489V19.8613H249.638V24.5785H248.78ZM257.53 22.0958H253.186C253.238 22.6375 253.453 23.0738 253.829 23.4049C254.205 23.7359 254.664 23.9014 255.206 23.9014C255.83 23.9014 256.391 23.6532 256.887 23.1566L257.395 23.7434C256.778 24.3829 256.044 24.7027 255.194 24.7027C254.374 24.7027 253.682 24.4281 253.118 23.8789C252.561 23.3221 252.283 22.6412 252.283 21.8362C252.283 21.0387 252.554 20.3616 253.095 19.8049C253.644 19.2406 254.31 18.9585 255.093 18.9585C255.807 18.9585 256.402 19.1917 256.876 19.6582C257.357 20.1246 257.598 20.719 257.598 21.4412C257.598 21.6519 257.575 21.8701 257.53 22.0958ZM253.219 21.3284H256.707C256.699 20.8469 256.541 20.4632 256.233 20.1773C255.924 19.8914 255.537 19.7484 255.07 19.7484C254.611 19.7484 254.212 19.8952 253.874 20.1886C253.535 20.4745 253.317 20.8544 253.219 21.3284ZM263.954 19.7823C264.474 20.3315 264.733 21.0124 264.733 21.8249C264.733 22.6375 264.47 23.3221 263.943 23.8789C263.424 24.4281 262.781 24.7027 262.013 24.7027C261.148 24.7027 260.475 24.398 259.993 23.7886V26.6099H259.124V19.0826H259.937V19.9629C260.148 19.6469 260.437 19.4024 260.806 19.2293C261.175 19.0488 261.577 18.9585 262.013 18.9585C262.796 18.9585 263.443 19.2331 263.954 19.7823ZM263.277 23.3146C263.654 22.9234 263.842 22.4306 263.842 21.8362C263.842 21.2419 263.654 20.7491 263.277 20.3579C262.909 19.9591 262.446 19.7597 261.889 19.7597C261.363 19.7597 260.911 19.9403 260.535 20.3014C260.166 20.6626 259.982 21.1704 259.982 21.8249C259.982 22.4945 260.163 23.0099 260.524 23.371C260.892 23.7246 261.348 23.9014 261.889 23.9014C262.446 23.9014 262.909 23.7058 263.277 23.3146ZM265.894 21.3961V20.6626H268.591V21.3961H265.894ZM270.157 24.5785V19.0826H271.026V24.5785H270.157ZM272.199 21.5767L274.784 24.5785H273.689L271.138 21.5992L273.452 19.0826H274.535L272.199 21.5767ZM276.394 19.0826H280.118V24.5785H279.249V19.8613H277.206L277.184 20.5384C277.131 22.0205 276.98 23.0663 276.732 23.6757C276.484 24.2851 276.044 24.6011 275.412 24.6237C275.299 24.6237 275.201 24.6086 275.118 24.5785V23.845C275.239 23.86 275.314 23.8676 275.344 23.8676C275.69 23.8676 275.938 23.6005 276.089 23.0663C276.247 22.5321 276.337 21.682 276.36 20.5158L276.394 19.0826ZM286.156 21.193V24.5785H285.344V23.8676C284.923 24.4243 284.306 24.7027 283.493 24.7027C282.921 24.7027 282.459 24.5635 282.105 24.2851C281.751 23.9992 281.575 23.6231 281.575 23.1566C281.575 22.6901 281.755 22.3177 282.116 22.0394C282.477 21.761 282.955 21.6218 283.549 21.6218H285.287V21.1478C285.287 20.7039 285.167 20.3616 284.926 20.1209C284.693 19.8801 284.37 19.7597 283.956 19.7597C283.339 19.7597 282.805 20.0532 282.353 20.64L281.778 20.166C282.267 19.361 283.012 18.9585 284.012 18.9585C284.674 18.9585 285.197 19.1541 285.581 19.5453C285.965 19.929 286.156 20.4782 286.156 21.193ZM285.287 22.4682V22.3328H283.651C282.861 22.3328 282.466 22.5923 282.466 23.1115C282.466 23.3823 282.571 23.5967 282.782 23.7547C283 23.9052 283.275 23.9804 283.606 23.9804C284.065 23.9804 284.46 23.8337 284.791 23.5403C285.122 23.2469 285.287 22.8895 285.287 22.4682ZM287.604 21.8249C287.589 21.0425 287.867 20.3654 288.439 19.7936C289.011 19.2218 289.691 18.9434 290.481 18.9585C290.955 18.9585 291.388 19.0638 291.779 19.2745C292.17 19.4851 292.494 19.7785 292.75 20.1547L292.129 20.6513C291.693 20.0569 291.147 19.7597 290.493 19.7597C289.928 19.7597 289.454 19.9629 289.071 20.3691C288.687 20.7679 288.495 21.2532 288.495 21.8249C288.495 22.4042 288.687 22.897 289.071 23.3033C289.454 23.7021 289.928 23.9014 290.493 23.9014C291.14 23.9014 291.681 23.608 292.118 23.0212L292.738 23.5064C292.197 24.3039 291.444 24.7027 290.481 24.7027C289.684 24.7027 289.003 24.4243 288.439 23.8676C287.882 23.3033 287.604 22.6224 287.604 21.8249ZM293.71 21.8249C293.695 21.0425 293.973 20.3654 294.545 19.7936C295.117 19.2218 295.798 18.9434 296.588 18.9585C297.062 18.9585 297.494 19.0638 297.886 19.2745C298.277 19.4851 298.6 19.7785 298.856 20.1547L298.235 20.6513C297.799 20.0569 297.254 19.7597 296.599 19.7597C296.035 19.7597 295.561 19.9629 295.177 20.3691C294.793 20.7679 294.601 21.2532 294.601 21.8249C294.601 22.4042 294.793 22.897 295.177 23.3033C295.561 23.7021 296.035 23.9014 296.599 23.9014C297.246 23.9014 297.788 23.608 298.224 23.0212L298.845 23.5064C298.303 24.3039 297.551 24.7027 296.588 24.7027C295.79 24.7027 295.109 24.4243 294.545 23.8676C293.988 23.3033 293.71 22.6224 293.71 21.8249Z" fill="#1F1F1F"/>
<path d="M214.031 21.9901C215.369 21.9901 216.454 20.9054 216.454 19.5674C216.454 18.2294 215.369 17.1448 214.031 17.1448C212.693 17.1448 211.609 18.2294 211.609 19.5674C211.609 20.9054 212.693 21.9901 214.031 21.9901Z" fill="#C6A37E"/>
<path d="M192.934 10.886L203.533 4.82935L214.132 10.886L203.533 16.9427L192.934 10.886Z" stroke="black" stroke-width="0.940439" stroke-linecap="round" stroke-linejoin="round"/>
<path d="M196.719 13.1572V19.2139L203.533 22.9993M203.533 22.9993L210.347 19.2139V13.1572M203.533 22.9993V16.9427M214.132 19.2139V10.886" stroke="black" stroke-width="0.940439" stroke-linecap="round" stroke-linejoin="round"/>
</svg>
