<?xml version="1.0" encoding="UTF-8"?> <svg xmlns="http://www.w3.org/2000/svg" width="115" height="30" viewBox="0 0 115 30" fill="none"> <path d="M37.996 11V3.08H42.988V4.22H39.268V6.248H40.972C41.764 6.248 42.404 6.468 42.892 6.908C43.388 7.348 43.636 7.916 43.636 8.612C43.636 9.316 43.388 9.892 42.892 10.34C42.404 10.78 41.764 11 40.972 11H37.996ZM39.268 9.884H40.924C41.372 9.884 41.72 9.772 41.968 9.548C42.224 9.316 42.352 9.004 42.352 8.612C42.352 8.22 42.224 7.912 41.968 7.688C41.72 7.456 41.372 7.34 40.924 7.34H39.268V9.884ZM50.3058 8.468H45.9138C45.9938 8.948 46.2058 9.328 46.5498 9.608C46.9018 9.88 47.3298 10.016 47.8338 10.016C48.4578 10.016 49.0298 9.784 49.5498 9.32L50.1498 10.184C49.4858 10.816 48.7018 11.132 47.7978 11.132C46.9018 11.132 46.1498 10.84 45.5418 10.256C44.9338 9.664 44.6298 8.932 44.6298 8.06C44.6138 7.212 44.9098 6.484 45.5178 5.876C46.1258 5.26 46.8458 4.96 47.6778 4.976C48.4538 4.976 49.1018 5.236 49.6218 5.756C50.1418 6.268 50.4018 6.908 50.4018 7.676C50.4018 7.908 50.3698 8.172 50.3058 8.468ZM45.9378 7.484H49.1418C49.1338 7.044 48.9858 6.696 48.6978 6.44C48.4098 6.176 48.0538 6.044 47.6298 6.044C47.2138 6.044 46.8498 6.176 46.5378 6.44C46.2338 6.696 46.0338 7.044 45.9378 7.484ZM51.4736 8.048C51.4576 7.208 51.7616 6.484 52.3856 5.876C53.0096 5.26 53.7456 4.96 54.5936 4.976C55.6976 4.976 56.5256 5.432 57.0776 6.344L56.1896 7.04C55.7736 6.44 55.2456 6.14 54.6056 6.14C54.0776 6.14 53.6376 6.324 53.2856 6.692C52.9336 7.06 52.7576 7.512 52.7576 8.048C52.7576 8.592 52.9336 9.048 53.2856 9.416C53.6376 9.784 54.0776 9.968 54.6056 9.968C55.2296 9.968 55.7576 9.672 56.1896 9.08L57.0776 9.764C56.8136 10.196 56.4656 10.532 56.0336 10.772C55.6016 11.012 55.1216 11.132 54.5936 11.132C53.7216 11.132 52.9816 10.832 52.3736 10.232C51.7736 9.632 51.4736 8.904 51.4736 8.048ZM58.4787 11V5.108H63.4827V11H62.2107V6.2H59.7507V11H58.4787ZM65.8142 5.108H70.1462V11H68.8862V6.2H66.9902L66.9782 6.788C66.9382 8.324 66.7702 9.424 66.4742 10.088C66.1862 10.744 65.6942 11.072 64.9982 11.072C64.8302 11.072 64.6782 11.048 64.5422 11V9.944C64.6702 9.96 64.7502 9.968 64.7822 9.968C65.1342 9.968 65.3862 9.704 65.5382 9.176C65.6902 8.648 65.7742 7.784 65.7902 6.584L65.8142 5.108ZM76.6584 7.436V11H75.4824V10.34C75.0424 10.868 74.4144 11.132 73.5984 11.132C72.9824 11.132 72.4864 10.976 72.1104 10.664C71.7344 10.352 71.5464 9.94 71.5464 9.428C71.5464 8.916 71.7424 8.508 72.1344 8.204C72.5264 7.9 73.0544 7.748 73.7184 7.748H75.3864V7.364C75.3864 6.956 75.2744 6.644 75.0504 6.428C74.8344 6.212 74.5264 6.104 74.1264 6.104C73.5264 6.104 72.9824 6.396 72.4944 6.98L71.7624 6.236C72.3384 5.396 73.1664 4.976 74.2464 4.976C74.9824 4.976 75.5664 5.192 75.9984 5.624C76.4384 6.056 76.6584 6.66 76.6584 7.436ZM75.3864 8.768V8.66H73.8744C73.1784 8.66 72.8304 8.9 72.8304 9.38C72.8304 9.62 72.9224 9.812 73.1064 9.956C73.2984 10.092 73.5504 10.16 73.8624 10.16C74.2944 10.16 74.6544 10.028 74.9424 9.764C75.2384 9.5 75.3864 9.168 75.3864 8.768ZM79.4711 11V6.2H77.5751V5.108H82.6271V6.2H80.7311V11H79.4711ZM83.756 11V5.108H85.028V7.364H87.56V5.108H88.82V11H87.56V8.456H85.028V11H83.756ZM90.6701 11V5.108H91.9421V6.98H93.1781C93.8741 6.98 94.4341 7.16 94.8581 7.52C95.2821 7.88 95.4941 8.368 95.4941 8.984C95.4941 9.6 95.2821 10.092 94.8581 10.46C94.4341 10.82 93.8741 11 93.1781 11H90.6701ZM96.2501 11V5.108H97.5101V11H96.2501ZM91.9421 9.908H93.1301C93.4741 9.908 93.7381 9.832 93.9221 9.68C94.1141 9.52 94.2101 9.292 94.2101 8.996C94.2101 8.7 94.1141 8.472 93.9221 8.312C93.7301 8.152 93.4621 8.072 93.1181 8.072H91.9421V9.908ZM104.081 4.976H104.513V11H103.241V7.34L99.8094 11.132H99.3654V5.108H100.637V8.792L104.081 4.976ZM100.145 2.144V1.796H101.177V2.132C101.177 2.86 101.477 3.224 102.077 3.224C102.685 3.224 102.989 2.86 102.989 2.132V1.796H104.033V2.144C104.033 2.736 103.853 3.216 103.493 3.584C103.133 3.952 102.661 4.136 102.077 4.136C101.501 4.136 101.033 3.952 100.673 3.584C100.321 3.216 100.145 2.736 100.145 2.144ZM38.02 26V20.024H38.356L41.128 23.312L43.888 20.024H44.212V26H43.288V22.052L41.296 24.428H40.936L38.944 22.052V26H38.02ZM50.6266 22.4V26H49.7626V25.244C49.3146 25.836 48.6586 26.132 47.7946 26.132C47.1866 26.132 46.6946 25.984 46.3186 25.688C45.9426 25.384 45.7546 24.984 45.7546 24.488C45.7546 23.992 45.9466 23.596 46.3306 23.3C46.7146 23.004 47.2226 22.856 47.8546 22.856H49.7026V22.352C49.7026 21.88 49.5746 21.516 49.3186 21.26C49.0706 21.004 48.7266 20.876 48.2866 20.876C47.6306 20.876 47.0626 21.188 46.5826 21.812L45.9706 21.308C46.4906 20.452 47.2826 20.024 48.3466 20.024C49.0506 20.024 49.6066 20.232 50.0146 20.648C50.4226 21.056 50.6266 21.64 50.6266 22.4ZM49.7026 23.756V23.612H47.9626C47.1226 23.612 46.7026 23.888 46.7026 24.44C46.7026 24.728 46.8146 24.956 47.0386 25.124C47.2706 25.284 47.5626 25.364 47.9146 25.364C48.4026 25.364 48.8226 25.208 49.1746 24.896C49.5266 24.584 49.7026 24.204 49.7026 23.756ZM52.1664 23.072C52.1504 22.24 52.4464 21.52 53.0544 20.912C53.6624 20.304 54.3864 20.008 55.2264 20.024C55.7304 20.024 56.1904 20.136 56.6064 20.36C57.0224 20.584 57.3664 20.896 57.6384 21.296L56.9784 21.824C56.5144 21.192 55.9344 20.876 55.2384 20.876C54.6384 20.876 54.1344 21.092 53.7264 21.524C53.3184 21.948 53.1144 22.464 53.1144 23.072C53.1144 23.688 53.3184 24.212 53.7264 24.644C54.1344 25.068 54.6384 25.28 55.2384 25.28C55.9264 25.28 56.5024 24.968 56.9664 24.344L57.6264 24.86C57.0504 25.708 56.2504 26.132 55.2264 26.132C54.3784 26.132 53.6544 25.836 53.0544 25.244C52.4624 24.644 52.1664 23.92 52.1664 23.072ZM60.3838 26V20.984H58.4158V20.156H63.2638V20.984H61.2958V26H60.3838ZM69.6878 23.36H65.0678C65.1238 23.936 65.3518 24.4 65.7518 24.752C66.1518 25.104 66.6398 25.28 67.2158 25.28C67.8798 25.28 68.4758 25.016 69.0038 24.488L69.5438 25.112C68.8878 25.792 68.1078 26.132 67.2038 26.132C66.3318 26.132 65.5958 25.84 64.9958 25.256C64.4038 24.664 64.1078 23.94 64.1078 23.084C64.1078 22.236 64.3958 21.516 64.9718 20.924C65.5558 20.324 66.2638 20.024 67.0958 20.024C67.8558 20.024 68.4878 20.272 68.9918 20.768C69.5038 21.264 69.7598 21.896 69.7598 22.664C69.7598 22.888 69.7358 23.12 69.6878 23.36ZM65.1038 22.544H68.8118C68.8038 22.032 68.6358 21.624 68.3078 21.32C67.9798 21.016 67.5678 20.864 67.0718 20.864C66.5838 20.864 66.1598 21.02 65.7998 21.332C65.4398 21.636 65.2078 22.04 65.1038 22.544ZM76.5193 20.9C77.0713 21.484 77.3473 22.208 77.3473 23.072C77.3473 23.936 77.0673 24.664 76.5073 25.256C75.9553 25.84 75.2713 26.132 74.4553 26.132C73.5353 26.132 72.8193 25.808 72.3073 25.16V28.16H71.3833V20.156H72.2473V21.092C72.4713 20.756 72.7793 20.496 73.1713 20.312C73.5633 20.12 73.9913 20.024 74.4553 20.024C75.2873 20.024 75.9753 20.316 76.5193 20.9ZM75.7993 24.656C76.1993 24.24 76.3993 23.716 76.3993 23.084C76.3993 22.452 76.1993 21.928 75.7993 21.512C75.4073 21.088 74.9153 20.876 74.3233 20.876C73.7633 20.876 73.2833 21.068 72.8833 21.452C72.4913 21.836 72.2953 22.376 72.2953 23.072C72.2953 23.784 72.4873 24.332 72.8713 24.716C73.2633 25.092 73.7473 25.28 74.3233 25.28C74.9153 25.28 75.4073 25.072 75.7993 24.656ZM78.5813 22.616V21.836H81.4493V22.616H78.5813ZM83.1138 26V20.156H84.0378V26H83.1138ZM85.2858 22.808L88.0338 26H86.8698L84.1578 22.832L86.6178 20.156H87.7698L85.2858 22.808ZM89.7455 20.156H93.7055V26H92.7815V20.984H90.6095L90.5855 21.704C90.5295 23.28 90.3695 24.392 90.1055 25.04C89.8415 25.688 89.3735 26.024 88.7015 26.048C88.5815 26.048 88.4775 26.032 88.3895 26V25.22C88.5175 25.236 88.5975 25.244 88.6295 25.244C88.9975 25.244 89.2615 24.96 89.4215 24.392C89.5895 23.824 89.6855 22.92 89.7095 21.68L89.7455 20.156ZM100.127 22.4V26H99.2626V25.244C98.8146 25.836 98.1586 26.132 97.2946 26.132C96.6866 26.132 96.1946 25.984 95.8186 25.688C95.4426 25.384 95.2546 24.984 95.2546 24.488C95.2546 23.992 95.4466 23.596 95.8306 23.3C96.2146 23.004 96.7226 22.856 97.3546 22.856H99.2026V22.352C99.2026 21.88 99.0746 21.516 98.8186 21.26C98.5706 21.004 98.2266 20.876 97.7866 20.876C97.1306 20.876 96.5626 21.188 96.0826 21.812L95.4706 21.308C95.9906 20.452 96.7826 20.024 97.8466 20.024C98.5506 20.024 99.1066 20.232 99.5146 20.648C99.9226 21.056 100.127 21.64 100.127 22.4ZM99.2026 23.756V23.612H97.4626C96.6226 23.612 96.2026 23.888 96.2026 24.44C96.2026 24.728 96.3146 24.956 96.5386 25.124C96.7706 25.284 97.0626 25.364 97.4146 25.364C97.9026 25.364 98.3226 25.208 98.6746 24.896C99.0266 24.584 99.2026 24.204 99.2026 23.756ZM101.666 23.072C101.65 22.24 101.946 21.52 102.554 20.912C103.162 20.304 103.886 20.008 104.726 20.024C105.23 20.024 105.69 20.136 106.106 20.36C106.522 20.584 106.866 20.896 107.138 21.296L106.478 21.824C106.014 21.192 105.434 20.876 104.738 20.876C104.138 20.876 103.634 21.092 103.226 21.524C102.818 21.948 102.614 22.464 102.614 23.072C102.614 23.688 102.818 24.212 103.226 24.644C103.634 25.068 104.138 25.28 104.738 25.28C105.426 25.28 106.002 24.968 106.466 24.344L107.126 24.86C106.55 25.708 105.75 26.132 104.726 26.132C103.878 26.132 103.154 25.836 102.554 25.244C101.962 24.644 101.666 23.92 101.666 23.072ZM108.159 23.072C108.143 22.24 108.439 21.52 109.047 20.912C109.655 20.304 110.379 20.008 111.219 20.024C111.723 20.024 112.183 20.136 112.599 20.36C113.015 20.584 113.359 20.896 113.631 21.296L112.971 21.824C112.507 21.192 111.927 20.876 111.231 20.876C110.631 20.876 110.127 21.092 109.719 21.524C109.311 21.948 109.107 22.464 109.107 23.072C109.107 23.688 109.311 24.212 109.719 24.644C110.127 25.068 110.631 25.28 111.231 25.28C111.919 25.28 112.495 24.968 112.959 24.344L113.619 24.86C113.043 25.708 112.243 26.132 111.219 26.132C110.371 26.132 109.647 25.836 109.047 25.244C108.455 24.644 108.159 23.92 108.159 23.072Z" fill="#1F1F1F"></path> <circle cx="23.4335" cy="20.6713" r="2.57609" fill="#C6A37E"></circle> <path d="M1 11.4402L12.2704 5L23.5408 11.4402L12.2704 17.8805L1 11.4402Z" stroke="black" stroke-linecap="round" stroke-linejoin="round"></path> <path d="M5.02515 13.8553V20.2955L12.2704 24.3207M12.2704 24.3207L19.5157 20.2955V13.8553M12.2704 24.3207V17.8804M23.5408 20.2955V11.4402" stroke="black" stroke-linecap="round" stroke-linejoin="round"></path> </svg> 