<?xml version="1.0" encoding="UTF-8"?> <svg xmlns="http://www.w3.org/2000/svg" width="278" height="84" viewBox="0 0 278 84" fill="none"> <g filter="url(#filter0_b_55_96)"> <path d="M13.3763 1.00015L264.624 1C264.624 1 277 22.0919 277 42.277C277 62.462 264.624 82.9999 264.624 82.9999L13.3763 83C13.3763 83 1 62.4622 1 42.2771C1 22.0921 13.3763 1.00015 13.3763 1.00015Z" fill="url(#paint0_linear_55_96)"></path> <path d="M13.3763 1.00015L264.624 1C264.624 1 277 22.0919 277 42.277C277 62.462 264.624 82.9999 264.624 82.9999L13.3763 83C13.3763 83 1 62.4622 1 42.2771C1 22.0921 13.3763 1.00015 13.3763 1.00015Z" fill="white" fill-opacity="0.2"></path> <path d="M13.3763 0.601333L13.1479 0.601333L13.0323 0.798314L13.3763 1.00015C13.0323 0.798314 13.0322 0.798465 13.0321 0.798696L13.0316 0.79956L13.0297 0.80273L13.0227 0.814814L12.9955 0.861731C12.9716 0.903037 12.9364 0.964288 12.8906 1.04481C12.799 1.20586 12.6651 1.444 12.4949 1.75388C12.1546 2.3736 11.669 3.28034 11.0866 4.43108C9.92209 6.7323 8.36979 10.0107 6.81745 13.9221C3.71546 21.7382 0.601182 32.1117 0.601182 42.2771C0.601182 52.4432 3.71578 62.6787 6.81837 70.3574C8.37097 74.1999 9.92353 77.4094 11.0883 79.659C11.6708 80.7839 12.1565 81.6691 12.497 82.2738C12.6672 82.5761 12.8012 82.8084 12.8928 82.9654C12.9386 83.0439 12.9739 83.1037 12.9978 83.1439L13.025 83.1897L13.0321 83.2015L13.034 83.2046L13.0345 83.2055C13.0346 83.2057 13.0347 83.2058 13.3763 83L13.0347 83.2058L13.151 83.3988H13.3763L264.624 83.3987H264.849L264.965 83.2057L264.624 82.9999C264.965 83.2057 264.965 83.2056 264.965 83.2053L264.966 83.2045L264.968 83.2014L264.975 83.1896L265.002 83.1438C265.026 83.1035 265.061 83.0438 265.107 82.9653C265.199 82.8083 265.333 82.576 265.503 82.2736C265.843 81.6689 266.329 80.7837 266.912 79.6588C268.076 77.4093 269.629 74.1998 271.182 70.3572C274.284 62.6786 277.399 52.443 277.399 42.277C277.399 32.1116 274.285 21.738 271.183 13.922C269.63 10.0106 268.078 6.73215 266.913 4.43092C266.331 3.28019 265.845 2.37345 265.505 1.75372C265.335 1.44385 265.201 1.2057 265.109 1.04466C265.064 0.964136 265.028 0.902886 265.004 0.86158L264.977 0.814662L264.97 0.802579L264.968 0.799409L264.968 0.798545C264.968 0.798314 264.968 0.798163 264.624 1L264.968 0.798163L264.852 0.601182L264.624 0.601182L13.3763 0.601333Z" stroke="url(#paint1_radial_55_96)" stroke-opacity="0.46" stroke-width="0.797636"></path> <path d="M13.3763 0.601333L13.1479 0.601333L13.0323 0.798314L13.3763 1.00015C13.0323 0.798314 13.0322 0.798465 13.0321 0.798696L13.0316 0.79956L13.0297 0.80273L13.0227 0.814814L12.9955 0.861731C12.9716 0.903037 12.9364 0.964288 12.8906 1.04481C12.799 1.20586 12.6651 1.444 12.4949 1.75388C12.1546 2.3736 11.669 3.28034 11.0866 4.43108C9.92209 6.7323 8.36979 10.0107 6.81745 13.9221C3.71546 21.7382 0.601182 32.1117 0.601182 42.2771C0.601182 52.4432 3.71578 62.6787 6.81837 70.3574C8.37097 74.1999 9.92353 77.4094 11.0883 79.659C11.6708 80.7839 12.1565 81.6691 12.497 82.2738C12.6672 82.5761 12.8012 82.8084 12.8928 82.9654C12.9386 83.0439 12.9739 83.1037 12.9978 83.1439L13.025 83.1897L13.0321 83.2015L13.034 83.2046L13.0345 83.2055C13.0346 83.2057 13.0347 83.2058 13.3763 83L13.0347 83.2058L13.151 83.3988H13.3763L264.624 83.3987H264.849L264.965 83.2057L264.624 82.9999C264.965 83.2057 264.965 83.2056 264.965 83.2053L264.966 83.2045L264.968 83.2014L264.975 83.1896L265.002 83.1438C265.026 83.1035 265.061 83.0438 265.107 82.9653C265.199 82.8083 265.333 82.576 265.503 82.2736C265.843 81.6689 266.329 80.7837 266.912 79.6588C268.076 77.4093 269.629 74.1998 271.182 70.3572C274.284 62.6786 277.399 52.443 277.399 42.277C277.399 32.1116 274.285 21.738 271.183 13.922C269.63 10.0106 268.078 6.73215 266.913 4.43092C266.331 3.28019 265.845 2.37345 265.505 1.75372C265.335 1.44385 265.201 1.2057 265.109 1.04466C265.064 0.964136 265.028 0.902886 265.004 0.86158L264.977 0.814662L264.97 0.802579L264.968 0.799409L264.968 0.798545C264.968 0.798314 264.968 0.798163 264.624 1L264.968 0.798163L264.852 0.601182L264.624 0.601182L13.3763 0.601333Z" stroke="url(#paint2_radial_55_96)" stroke-opacity="0.33" stroke-width="0.797636"></path> <path d="M13.3763 0.601333L13.1479 0.601333L13.0323 0.798314L13.3763 1.00015C13.0323 0.798314 13.0322 0.798465 13.0321 0.798696L13.0316 0.79956L13.0297 0.80273L13.0227 0.814814L12.9955 0.861731C12.9716 0.903037 12.9364 0.964288 12.8906 1.04481C12.799 1.20586 12.6651 1.444 12.4949 1.75388C12.1546 2.3736 11.669 3.28034 11.0866 4.43108C9.92209 6.7323 8.36979 10.0107 6.81745 13.9221C3.71546 21.7382 0.601182 32.1117 0.601182 42.2771C0.601182 52.4432 3.71578 62.6787 6.81837 70.3574C8.37097 74.1999 9.92353 77.4094 11.0883 79.659C11.6708 80.7839 12.1565 81.6691 12.497 82.2738C12.6672 82.5761 12.8012 82.8084 12.8928 82.9654C12.9386 83.0439 12.9739 83.1037 12.9978 83.1439L13.025 83.1897L13.0321 83.2015L13.034 83.2046L13.0345 83.2055C13.0346 83.2057 13.0347 83.2058 13.3763 83L13.0347 83.2058L13.151 83.3988H13.3763L264.624 83.3987H264.849L264.965 83.2057L264.624 82.9999C264.965 83.2057 264.965 83.2056 264.965 83.2053L264.966 83.2045L264.968 83.2014L264.975 83.1896L265.002 83.1438C265.026 83.1035 265.061 83.0438 265.107 82.9653C265.199 82.8083 265.333 82.576 265.503 82.2736C265.843 81.6689 266.329 80.7837 266.912 79.6588C268.076 77.4093 269.629 74.1998 271.182 70.3572C274.284 62.6786 277.399 52.443 277.399 42.277C277.399 32.1116 274.285 21.738 271.183 13.922C269.63 10.0106 268.078 6.73215 266.913 4.43092C266.331 3.28019 265.845 2.37345 265.505 1.75372C265.335 1.44385 265.201 1.2057 265.109 1.04466C265.064 0.964136 265.028 0.902886 265.004 0.86158L264.977 0.814662L264.97 0.802579L264.968 0.799409L264.968 0.798545C264.968 0.798314 264.968 0.798163 264.624 1L264.968 0.798163L264.852 0.601182L264.624 0.601182L13.3763 0.601333Z" stroke="url(#paint3_radial_55_96)" stroke-width="0.797636"></path> </g> <defs> <filter id="filter0_b_55_96" x="-30.7976" y="-30.7976" width="339.595" height="145.595" filterUnits="userSpaceOnUse" color-interpolation-filters="sRGB"> <feFlood flood-opacity="0" result="BackgroundImageFix"></feFlood> <feGaussianBlur in="BackgroundImage" stdDeviation="15.5"></feGaussianBlur> <feComposite in2="SourceAlpha" operator="in" result="effect1_backgroundBlur_55_96"></feComposite> <feBlend mode="normal" in="SourceGraphic" in2="effect1_backgroundBlur_55_96" result="shape"></feBlend> </filter> <linearGradient id="paint0_linear_55_96" x1="-142.53" y1="124.538" x2="-117.653" y2="288.648" gradientUnits="userSpaceOnUse"> <stop stop-color="#0A1121" stop-opacity="0.03"></stop> <stop offset="0.852269" stop-color="#141B2F" stop-opacity="0.01"></stop> <stop offset="1" stop-color="#161D32" stop-opacity="0"></stop> </linearGradient> <radialGradient id="paint1_radial_55_96" cx="0" cy="0" r="1" gradientUnits="userSpaceOnUse" gradientTransform="translate(1445.32 237.93) rotate(-171.168) scale(1673.25 302.561)"> <stop stop-color="white"></stop> <stop offset="1" stop-color="white" stop-opacity="0"></stop> </radialGradient> <radialGradient id="paint2_radial_55_96" cx="0" cy="0" r="1" gradientUnits="userSpaceOnUse" gradientTransform="translate(-278.292 -69.1436) rotate(6.32997) scale(1583.96 188.378)"> <stop stop-color="white"></stop> <stop offset="1" stop-color="white" stop-opacity="0"></stop> </radialGradient> <radialGradient id="paint3_radial_55_96" cx="0" cy="0" r="1" gradientUnits="userSpaceOnUse" gradientTransform="translate(1096.13 128.331) rotate(-174.899) scale(1104.83 135.146)"> <stop stop-color="white"></stop> <stop offset="1" stop-color="#151515" stop-opacity="0"></stop> </radialGradient> </defs> </svg> 