<svg width="35" height="35" viewBox="0 0 35 35" fill="none" xmlns="http://www.w3.org/2000/svg">
<g id="Vector" filter="url(#filter0_d_0_116)">
<path d="M32.5 17.4431C32.5 25.7274 25.7843 32.4431 17.5 32.4431C9.21573 32.4431 2.5 25.7274 2.5 17.4431C2.5 9.15884 9.21573 2.44312 17.5 2.44312C25.7843 2.44312 32.5 9.15884 32.5 17.4431Z" shape-rendering="crispEdges"/>
<path d="M32.5 17.4431C32.5 25.7274 25.7843 32.4431 17.5 32.4431C9.21573 32.4431 2.5 25.7274 2.5 17.4431C2.5 9.15884 9.21573 2.44312 17.5 2.44312C25.7843 2.44312 32.5 9.15884 32.5 17.4431Z" stroke="#17181E" stroke-width="0.5" shape-rendering="crispEdges"/>
<path d="M32.5 17.4431C32.5 25.7274 25.7843 32.4431 17.5 32.4431C9.21573 32.4431 2.5 25.7274 2.5 17.4431C2.5 9.15884 9.21573 2.44312 17.5 2.44312C25.7843 2.44312 32.5 9.15884 32.5 17.4431Z" stroke="#17181E" stroke-width="0.5" shape-rendering="crispEdges"/>
</g>
<defs>
<filter id="filter0_d_0_116" x="0.25" y="0.193115" width="34.5" height="34.5" filterUnits="userSpaceOnUse" color-interpolation-filters="sRGB">
<feFlood flood-opacity="0" result="BackgroundImageFix"/>
<feColorMatrix in="SourceAlpha" type="matrix" values="0 0 0 0 0 0 0 0 0 0 0 0 0 0 0 0 0 0 127 0" result="hardAlpha"/>
<feOffset/>
<feGaussianBlur stdDeviation="1"/>
<feComposite in2="hardAlpha" operator="out"/>
<feColorMatrix type="matrix" values="0 0 0 0 0 0 0 0 0 0 0 0 0 0 0 0 0 0 0.1 0"/>
<feBlend mode="normal" in2="BackgroundImageFix" result="effect1_dropShadow_0_116"/>
<feBlend mode="normal" in="SourceGraphic" in2="effect1_dropShadow_0_116" result="shape"/>
</filter>
</defs>
</svg>
