<svg width="34" height="35" viewBox="0 0 34 35" fill="none" xmlns="http://www.w3.org/2000/svg">
<path fill-rule="evenodd" clip-rule="evenodd" d="M33.1398 22.4646V12.575C33.1398 3.54191 31.0069 1.39243 21.9711 1.39243C-0.125498 1.25065 0.744901 0.352031 0.893481 22.4476C0.893481 31.4807 3.0263 33.6299 12.0621 33.6299H19.5622C29.1624 33.7958 33.3812 33.1358 33.1398 22.4646ZM26.9259 24.3958H24.5745C23.6844 24.3958 23.4158 23.6736 21.8201 22.0787C20.4261 20.7354 19.8383 20.5674 19.4857 20.5674C18.9985 20.5674 18.8642 20.7017 18.8642 21.3732V23.4887C18.8642 24.0595 18.6796 24.3955 17.1846 24.3955C14.6988 24.3955 11.9615 22.8842 10.013 20.0972C7.09066 16.0172 6.30118 12.9276 6.30118 12.3064C6.30118 11.9538 6.43548 11.6349 7.10732 11.6349H9.45876C10.0633 11.6349 10.2816 11.9035 10.5168 12.5247C11.4807 15.6847 14.7828 20.9428 14.8331 17.9144V14.4556C14.7325 12.8773 13.8927 12.743 13.8927 12.1721C13.8927 11.9202 14.128 11.6349 14.4972 11.6349H18.192C18.6959 11.6349 18.8638 11.8869 18.8638 12.491V17.1589C18.9278 18.2782 19.6241 17.8375 20.3252 17.1086C22.0214 15.228 23.2138 12.3064 23.2138 12.3064C23.3651 11.9538 23.6337 11.6349 24.2382 11.6349H26.5897C27.2952 11.6349 27.4461 11.9875 27.2952 12.4914C27.0096 13.868 24.1376 17.8977 24.1376 17.9147C23.8856 18.301 23.785 18.5026 24.1376 18.9558C24.8145 19.799 29.7472 24.2537 26.9259 24.3958Z" fill="white"/>
</svg>
