<svg width="79" height="25" viewBox="0 0 79 25" fill="none" xmlns="http://www.w3.org/2000/svg">
<path fill-rule="evenodd" clip-rule="evenodd" d="M21.279 4.50052C22.5159 4.50052 23.5242 3.48999 23.5242 2.25052C23.5242 1.01105 22.5159 0.000518799 21.279 0.000518799C20.042 0.000518799 19.0336 1.01105 19.0336 2.25052C19.0336 3.48999 20.042 4.50052 21.279 4.50052ZM16.279 7.88999C16.3248 9.07933 15.9098 10.2403 15.121 11.1297V11.1401C15.7406 11.5599 17.277 12.7099 17.277 14.9203C17.277 17.4495 15.2115 19.5099 12.6762 19.5099H0.312744V3.51091H11.5785C14.0535 3.51091 16.1595 5.4296 16.279 7.88999ZM12.277 8.20986C12.277 7.09012 11.3499 6.59012 10.2917 6.59012H4.30434V9.7796H10.2917C11.329 9.7796 12.2665 9.32039 12.277 8.20986ZM4.28348 12.8599L4.30434 16.4297V16.4192H11.2897C12.3176 16.4192 13.2647 15.7495 13.2854 14.6401C13.2854 13.5203 12.3478 12.8599 11.2895 12.8599H4.28348ZM19.2832 5.50052H23.2748V19.5005H19.2832V5.50052ZM40.7277 12.0703C40.7277 8.40986 38.2329 6.08078 35.2391 5.59118C34.8557 5.53418 34.4688 5.50389 34.0812 5.50052C32.7943 5.50052 31.2674 5.73999 29.7507 6.50052V5.50052H25.7591V19.5005H29.7507V12.4797C29.7507 9.67026 31.3869 8.65999 33.2434 8.65999C35.2391 8.65999 36.7361 9.98078 36.7361 12.4808V19.5005H40.7277V12.0703ZM69.4972 8.57026C66.3839 5.15986 62.4111 4.50052 60.197 4.50052V8.65052C61.8331 8.65052 64.7872 9.16105 66.9525 11.99C64.7872 14.8203 61.8331 15.3308 60.1959 15.3308V19.4797C62.4121 19.4797 66.3839 18.8192 69.4972 15.4088C72.7195 18.8391 76.392 19.4797 78.6872 19.4797V15.3297C77.1207 15.3297 74.4263 14.9297 72.0117 11.9889C74.4263 9.04947 77.1311 8.64947 78.6872 8.64947V4.50052C76.392 4.50052 72.7206 5.13999 69.4972 8.57026ZM54.1991 6.53078V5.49947H58.1804V17.7912C58.1804 20.0308 57.0328 24.9995 49.9883 24.9995C46.4552 24.9995 43.5415 23.5412 42.2141 21.5099L45.2077 19.4995C45.8065 20.3203 47.3834 21.4995 49.6982 21.4995C53.351 21.4995 54.1888 18.9808 54.1888 17.7912C53.0912 18.5703 51.5547 18.9995 49.5787 18.9995C45.7566 18.9995 42.2245 15.8703 42.2245 11.8703C42.2245 7.87026 45.7867 5.50052 49.5892 5.50052C51.8936 5.50052 53.6202 6.25052 54.1991 6.53078ZM46.2161 12.0808C46.2161 13.9703 48.0018 15.5005 50.2077 15.5005C52.4123 15.5005 54.1991 13.9703 54.1991 12.0808C54.1991 10.19 52.4123 8.65986 50.2077 8.65986C48.0018 8.65986 46.2161 10.1912 46.2161 12.0808Z" fill="white"/>
</svg>
