<svg width="28" height="36" viewBox="0 0 28 36" fill="none" xmlns="http://www.w3.org/2000/svg">
<g clip-path="url(#clip0_1_1450)">
<path d="M27.6952 10.1693C26.3008 6.04322 23.8626 1.02002 23.8626 1.02002L20.553 2.99346L24.473 11.5144C24.473 11.5144 24.9949 13.6671 23.6016 14.385C22.2084 15.1018 20.9887 14.2058 20.9887 14.2058L16.6341 4.87618L13.8476 6.49122L14.8925 9.36178C14.8925 9.36178 14.0223 7.92706 11.9312 7.74786C9.84133 7.56866 7.92501 9.00226 7.92501 9.00226L3.04853 11.8751L8.88373 25.0597L12.3669 23.2655L10.1023 18.2434L11.322 17.5255L15.6765 21.6515L19.3344 19.6781L14.8052 15.0133C14.8052 15.0133 16.1996 13.041 15.6765 11.6051L18.4631 16.4491C18.4631 16.4491 21.2508 20.2168 25.2559 17.1659C25.2559 17.1659 29.0885 14.2965 27.6952 10.1704V10.1693ZM11.4093 14.385L9.14469 15.6405L7.92501 12.9503L8.96997 12.2323C8.96997 12.2323 10.538 10.9768 11.4093 12.4115C12.2796 13.8463 11.4093 14.385 11.4093 14.385ZM15.2509 26.5527L15.9375 24.6106H1.30693L1.95429 26.4451C1.31323 26.6543 0.769185 27.0878 0.422129 27.6659C0.0689862 28.2519 -0.0688422 28.9426 0.0323689 29.6192C0.133169 30.2968 0.465809 30.9151 0.970929 31.3631C1.47717 31.8099 2.12117 32.0552 2.78757 32.0552H2.92645L3.53125 32.8538L3.53909 35.74H13.7053V32.8538L14.1556 32.137C14.2261 32.137 14.2956 32.1471 14.3661 32.1471C15.0306 32.1445 15.6714 31.9005 16.1693 31.4605C16.6733 31.0192 17.0071 30.4077 17.1135 29.7357C17.2196 29.0652 17.0906 28.3787 16.7484 27.7925C16.4119 27.2141 15.8795 26.7751 15.2476 26.5549L15.2509 26.5527Z" fill="white" fill-opacity="0.65"/>
</g>
<defs>
<clipPath id="clip0_1_1450">
<rect width="28" height="35" fill="white" transform="translate(0 0.879883)"/>
</clipPath>
</defs>
</svg>
