<svg width="40" height="40" viewBox="0 0 40 40" fill="none" xmlns="http://www.w3.org/2000/svg">
<g clip-path="url(#clip0_1_362)">
<rect width="40" height="40" rx="20" fill="#F5F5F5"/>
<path d="M18.3333 6.66667C18.3333 6.22464 18.5089 5.80072 18.8215 5.48816C19.1341 5.17559 19.558 5 20 5C20.442 5 20.866 5.17559 21.1785 5.48816C21.4911 5.80072 21.6667 6.22464 21.6667 6.66667V33.3333C21.6667 33.7754 21.4911 34.1993 21.1785 34.5118C20.866 34.8244 20.442 35 20 35C19.558 35 19.1341 34.8244 18.8215 34.5118C18.5089 34.1993 18.3333 33.7754 18.3333 33.3333V6.66667Z" fill="black"/>
<path d="M33.3333 18.3335C33.7754 18.3335 34.1993 18.5091 34.5118 18.8217C34.8244 19.1342 35 19.5581 35 20.0002C35 20.4422 34.8244 20.8661 34.5118 21.1787C34.1993 21.4912 33.7754 21.6668 33.3333 21.6668H6.66667C6.22464 21.6668 5.80072 21.4912 5.48816 21.1787C5.17559 20.8661 5 20.4422 5 20.0002C5 19.5581 5.17559 19.1342 5.48816 18.8217C5.80072 18.5091 6.22464 18.3335 6.66667 18.3335H33.3333Z" fill="black"/>
</g>
<defs>
<clipPath id="clip0_1_362">
<rect width="40" height="40" rx="20" fill="white"/>
</clipPath>
</defs>
</svg>
