<svg width="24" height="25" viewBox="0 0 24 25" fill="none" xmlns="http://www.w3.org/2000/svg">
<g clip-path="url(#clip0_1_1432)">
<path fill-rule="evenodd" clip-rule="evenodd" d="M6.857 0.879883C5.03841 0.879883 3.29431 1.60231 2.00837 2.88825C0.722432 4.17419 0 5.91829 0 7.73688L0 18.0229C0 19.8415 0.722432 21.5856 2.00837 22.8715C3.29431 24.1575 5.03841 24.8799 6.857 24.8799H17.143C18.9616 24.8799 20.7057 24.1575 21.9916 22.8715C23.2776 21.5856 24 19.8415 24 18.0229V7.73688C24 5.91829 23.2776 4.17419 21.9916 2.88825C20.7057 1.60231 18.9616 0.879883 17.143 0.879883L6.857 0.879883ZM12.612 17.1659C7.927 17.1659 5.254 13.9479 5.142 8.59388H7.49C7.567 12.5239 9.297 14.1889 10.668 14.5319V8.59388H12.878V11.9839C14.232 11.8379 15.653 10.2939 16.133 8.59388H18.343C17.975 10.6879 16.433 12.2319 15.336 12.8669C16.433 13.3819 18.189 14.7289 18.857 17.1659H16.424C15.902 15.5359 14.6 14.2739 12.878 14.1029V17.1659H12.612Z" fill="#F5F5F5"/>
</g>
<defs>
<clipPath id="clip0_1_1432">
<rect width="24" height="24" fill="white" transform="translate(0 0.879883)"/>
</clipPath>
</defs>
</svg>
