<svg width="24" height="25" viewBox="0 0 24 25" fill="none" xmlns="http://www.w3.org/2000/svg">
<g clip-path="url(#clip0_1_1435)">
<path d="M14.7362 12.8767L10.2822 15.4487V10.3047L14.7362 12.8767Z" fill="#F5F5F5"/>
<path fill-rule="evenodd" clip-rule="evenodd" d="M0 7.73688C0 5.91829 0.722432 4.17419 2.00837 2.88825C3.29431 1.60231 5.03841 0.879883 6.857 0.879883L17.143 0.879883C18.9616 0.879883 20.7057 1.60231 21.9916 2.88825C23.2776 4.17419 24 5.91829 24 7.73688V18.0229C24 19.8415 23.2776 21.5856 21.9916 22.8715C20.7057 24.1574 18.9616 24.8799 17.143 24.8799H6.857C5.03841 24.8799 3.29431 24.1574 2.00837 22.8715C0.722432 21.5856 0 19.8415 0 18.0229L0 7.73688ZM20.215 17.0049C20.1163 17.3689 19.9237 17.7006 19.6564 17.9667C19.3891 18.2328 19.0565 18.4239 18.692 18.5209C17.355 18.8799 11.996 18.8799 11.996 18.8799C11.996 18.8799 6.636 18.8799 5.302 18.5209C4.93871 18.4232 4.6075 18.2318 4.34159 17.9657C4.07567 17.6996 3.88442 17.3682 3.787 17.0049C3.429 15.6679 3.429 12.8769 3.429 12.8769C3.429 12.8769 3.429 10.0869 3.787 8.74888C3.88469 8.38567 4.07604 8.05448 4.34191 7.78843C4.60778 7.52238 4.93885 7.33081 5.302 7.23288C6.638 6.87988 11.996 6.87988 11.996 6.87988C11.996 6.87988 17.356 6.87988 18.692 7.23888C19.0559 7.33507 19.3881 7.52519 19.6554 7.7902C19.9227 8.05522 20.1157 8.38582 20.215 8.74888C20.571 10.0859 20.571 12.8769 20.571 12.8769C20.571 12.8769 20.564 15.6679 20.215 17.0049Z" fill="#F5F5F5"/>
</g>
<defs>
<clipPath id="clip0_1_1435">
<rect width="24" height="24" fill="white" transform="translate(0 0.879883)"/>
</clipPath>
</defs>
</svg>
