<svg width="45" height="45" viewBox="0 0 45 45" fill="none" xmlns="http://www.w3.org/2000/svg">
<g clip-path="url(#clip0_0_425)">
<rect y="0.432884" width="44.3" height="44.3" rx="8.86" fill="url(#paint0_linear_0_425)"/>
<g filter="url(#filter0_dddd_0_425)">
<path d="M11.3467 13.6018H16.0346C16.6783 13.6018 17.1974 14.1209 17.1974 14.7595V14.8269C17.1974 15.4655 16.6783 15.9846 16.0346 15.9846H11.3467C10.7082 15.9898 10.189 15.4707 10.189 14.8321V14.7646C10.189 14.1209 10.7082 13.6018 11.3467 13.6018Z" fill="white"/>
<path d="M11.3467 18.7932H16.0346C16.6731 18.7932 17.1974 19.3123 17.1974 19.9561V20.0235C17.1974 20.6621 16.6783 21.1864 16.0346 21.1864H11.3467C10.7082 21.1812 10.189 20.6621 10.189 20.0184V19.9509C10.189 19.3123 10.7082 18.7932 11.3467 18.7932Z" fill="white"/>
<path d="M11.3467 23.9846H16.0346C16.6731 23.9846 17.1974 24.5037 17.1974 25.1475V25.215C17.1974 25.8535 16.6783 26.3778 16.0346 26.3778H11.3467C10.7082 26.3726 10.189 25.8535 10.189 25.2098V25.1423C10.189 24.5037 10.7082 23.9846 11.3467 23.9846Z" fill="white"/>
<path d="M11.3467 29.176H16.0346C16.6731 29.176 17.1974 29.6951 17.1974 30.3389V30.4064C17.1974 31.0449 16.6783 31.5692 16.0346 31.5692H11.3467C10.7082 31.564 10.189 31.0449 10.189 30.4012V30.3337C10.189 29.6951 10.7082 29.176 11.3467 29.176Z" fill="white"/>
<path d="M29.1896 9.29291H17.6647C15.5517 9.29291 13.7036 10.7102 13.1533 12.7504H16.0346C17.1455 12.7504 18.0436 13.6537 18.0488 14.7646V14.8321C18.0488 15.9431 17.1455 16.8412 16.0346 16.8464H12.9924V17.947H16.0346C17.1455 17.947 18.0436 18.8503 18.0488 19.9612V20.0287C18.0488 21.1397 17.1455 22.0378 16.0346 22.043H12.9924V23.1436H16.0346C17.1455 23.1436 18.0436 24.0469 18.0488 25.1578V25.2253C18.0488 26.3363 17.1455 27.2344 16.0346 27.2396H12.9924V28.3402H16.0346C17.1455 28.3402 18.0436 29.2435 18.0488 30.3544V30.4219C18.0488 31.5329 17.1455 32.431 16.0346 32.4362H13.1533C13.7036 34.4557 15.5517 35.8729 17.6647 35.8729H29.1896C31.7697 35.8729 33.8618 33.7808 33.8618 31.2006V13.9652C33.8618 11.385 31.7697 9.29291 29.1896 9.29291ZM23.8891 29.2383C23.0274 29.2175 22.42 28.5997 22.4407 27.7535C22.4563 26.9593 23.1156 26.3311 23.9099 26.3519H23.9151C24.7561 26.3674 25.3583 27.0008 25.3376 27.847C25.3272 28.6257 24.6834 29.2487 23.9047 29.2383C23.8995 29.2435 23.8943 29.2435 23.8891 29.2383ZM27.4037 21.4771C26.9573 21.9392 26.4693 22.3597 26.0021 22.8009C25.7892 23.0034 25.5712 23.2007 25.3947 23.4291C25.2701 23.59 25.187 23.7977 25.1195 23.995C25.0364 24.2442 25.0001 24.5089 24.9119 24.7529C24.6108 25.5991 23.5673 25.5939 23.0845 25.2409C22.6951 24.9554 22.5861 24.5608 22.5861 24.1092C22.5861 23.1799 22.9184 22.3908 23.5932 21.7523C24.0812 21.2954 24.5744 20.8438 25.0572 20.3869C25.1766 20.2727 25.2856 20.1429 25.3739 20.0028C25.7996 19.3487 25.5037 18.5077 24.7457 18.2169C24.2889 18.0404 23.8217 18.0612 23.3596 18.2169C23.0845 18.3104 22.9028 18.5128 22.747 18.7465C22.5238 19.0891 22.3836 19.4681 22.2487 19.847C22.1552 20.1378 21.9683 20.3921 21.7191 20.5738C21.3194 20.8542 20.6445 20.8282 20.2604 20.5219C19.7931 20.1533 19.6478 19.6809 19.7568 19.1099C19.9541 18.0872 20.5095 17.3084 21.3557 16.7218C22.176 16.1508 23.0949 15.9223 24.1903 15.9171C25.0001 15.9223 25.8671 16.0988 26.651 16.5972C27.6425 17.2306 28.2084 18.1235 28.2551 19.3123C28.2915 20.1585 27.9748 20.8801 27.4037 21.4771Z" fill="white"/>
</g>
</g>
<defs>
<filter id="filter0_dddd_0_425" x="-9.30297" y="-1.78209" width="153.029" height="214.855" filterUnits="userSpaceOnUse" color-interpolation-filters="sRGB">
<feFlood flood-opacity="0" result="BackgroundImageFix"/>
<feColorMatrix in="SourceAlpha" type="matrix" values="0 0 0 0 0 0 0 0 0 0 0 0 0 0 0 0 0 0 127 0" result="hardAlpha"/>
<feOffset dx="3.544" dy="7.531"/>
<feGaussianBlur stdDeviation="9.303"/>
<feColorMatrix type="matrix" values="0 0 0 0 0 0 0 0 0 0 0 0 0 0 0 0 0 0 0.15 0"/>
<feBlend mode="normal" in2="BackgroundImageFix" result="effect1_dropShadow_0_425"/>
<feColorMatrix in="SourceAlpha" type="matrix" values="0 0 0 0 0 0 0 0 0 0 0 0 0 0 0 0 0 0 127 0" result="hardAlpha"/>
<feOffset dx="14.176" dy="30.567"/>
<feGaussianBlur stdDeviation="16.834"/>
<feColorMatrix type="matrix" values="0 0 0 0 0 0 0 0 0 0 0 0 0 0 0 0 0 0 0.13 0"/>
<feBlend mode="normal" in2="effect1_dropShadow_0_425" result="effect2_dropShadow_0_425"/>
<feColorMatrix in="SourceAlpha" type="matrix" values="0 0 0 0 0 0 0 0 0 0 0 0 0 0 0 0 0 0 127 0" result="hardAlpha"/>
<feOffset dx="31.453" dy="69.108"/>
<feGaussianBlur stdDeviation="22.8145"/>
<feColorMatrix type="matrix" values="0 0 0 0 0 0 0 0 0 0 0 0 0 0 0 0 0 0 0.08 0"/>
<feBlend mode="normal" in2="effect2_dropShadow_0_425" result="effect3_dropShadow_0_425"/>
<feColorMatrix in="SourceAlpha" type="matrix" values="0 0 0 0 0 0 0 0 0 0 0 0 0 0 0 0 0 0 127 0" result="hardAlpha"/>
<feOffset dx="55.818" dy="123.154"/>
<feGaussianBlur stdDeviation="27.023"/>
<feColorMatrix type="matrix" values="0 0 0 0 0 0 0 0 0 0 0 0 0 0 0 0 0 0 0.02 0"/>
<feBlend mode="normal" in2="effect3_dropShadow_0_425" result="effect4_dropShadow_0_425"/>
<feBlend mode="normal" in="SourceGraphic" in2="effect4_dropShadow_0_425" result="shape"/>
</filter>
<linearGradient id="paint0_linear_0_425" x1="0" y1="0.432884" x2="21.9443" y2="53.907" gradientUnits="userSpaceOnUse">
<stop stop-color="#2FE6DC"/>
<stop offset="1" stop-color="#07A099"/>
</linearGradient>
<clipPath id="clip0_0_425">
<rect y="0.432884" width="44.3" height="44.3" rx="8.86" fill="white"/>
</clipPath>
</defs>
</svg>
