<svg width="20" height="21" viewBox="0 0 20 21" fill="none" xmlns="http://www.w3.org/2000/svg">
<path d="M16.0735 3.26953H4.62583C4.28865 3.26953 3.96528 3.40348 3.72686 3.6419C3.48844 3.88032 3.35449 4.20369 3.35449 4.54087V15.9893C3.35449 16.6921 3.923 17.2606 4.62583 17.2606H16.0743C16.4114 17.2606 16.7348 17.1267 16.9732 16.8883C17.2117 16.6499 17.3456 16.3265 17.3456 15.9893V4.54087C17.3456 4.20369 17.2117 3.88032 16.9732 3.6419C16.7348 3.40348 16.4106 3.26953 16.0735 3.26953ZM7.77619 14.7164H5.90037V8.67951H7.77619V14.7164ZM6.81909 7.81756C6.52899 7.81756 6.25077 7.70232 6.04563 7.49719C5.8405 7.29205 5.72526 7.01383 5.72526 6.72373C5.72526 6.43363 5.8405 6.15541 6.04563 5.95028C6.25077 5.74514 6.52899 5.6299 6.81909 5.6299C7.10919 5.6299 7.38741 5.74514 7.59254 5.95028C7.79767 6.15541 7.91292 6.43363 7.91292 6.72373C7.91292 7.01383 7.79767 7.29205 7.59254 7.49719C7.38741 7.70232 7.10919 7.81756 6.81909 7.81756ZM14.8037 14.718H12.9287V11.7819C12.9287 11.0815 12.9167 10.1811 11.954 10.1811C10.9785 10.1811 10.8282 10.9439 10.8282 11.7307V14.7172H8.95317V8.68031H10.7522V9.50548H10.7786C11.0289 9.03133 11.6406 8.52999 12.5537 8.52999C14.4527 8.52999 14.8037 9.78134 14.8037 11.4069V14.718Z" fill="#9CA3AF"/>
</svg>
