<svg width="21" height="21" viewBox="0 0 21 21" fill="none" xmlns="http://www.w3.org/2000/svg">
<path d="M18.4248 5.8766C18.3297 5.52353 18.1435 5.20161 17.885 4.94306C17.6264 4.6845 17.3045 4.49836 16.9514 4.40327C15.6514 4.05493 10.4398 4.05493 10.4398 4.05493C10.4398 4.05493 5.22811 4.05493 3.92811 4.40327C3.21145 4.59493 2.64645 5.15993 2.45478 5.8766C2.10645 7.1766 2.10645 10.7216 2.10645 10.7216C2.10645 10.7216 2.10645 14.2666 2.45478 15.5666C2.64645 16.2833 3.21145 16.8483 3.92811 17.0399C5.22811 17.3883 10.4398 17.3883 10.4398 17.3883C10.4398 17.3883 15.6514 17.3883 16.9514 17.0399C17.3046 16.945 17.6266 16.7589 17.8852 16.5003C18.1437 16.2417 18.3298 15.9197 18.4248 15.5666C18.7731 14.2666 18.7731 10.7216 18.7731 10.7216C18.7731 10.7216 18.7731 7.1766 18.4248 5.8766ZM8.77311 12.8866V8.5566C8.77311 8.48346 8.79237 8.41161 8.82894 8.34827C8.86551 8.28493 8.91811 8.23233 8.98145 8.19576C9.04479 8.15919 9.11664 8.13994 9.18978 8.13994C9.26292 8.13994 9.33477 8.15919 9.39811 8.19576L13.1481 10.3608C13.2114 10.3973 13.264 10.4499 13.3006 10.5133C13.3372 10.5766 13.3564 10.6485 13.3564 10.7216C13.3564 10.7947 13.3372 10.8666 13.3006 10.9299C13.264 10.9933 13.2114 11.0459 13.1481 11.0824L9.39811 13.2474C9.33477 13.284 9.26292 13.3033 9.18978 13.3033C9.11664 13.3033 9.04479 13.284 8.98145 13.2474C8.91811 13.2109 8.86551 13.1583 8.82894 13.0949C8.79237 13.0316 8.77311 12.9597 8.77311 12.8866Z" fill="#9CA3AF"/>
</svg>
