<svg width="200" height="73" viewBox="0 0 200 73" fill="none" xmlns="http://www.w3.org/2000/svg">
<path fill-rule="evenodd" clip-rule="evenodd" d="M16.9522 0.149414L12.7115 11.7844L71.4785 11.7844L75.7193 0.149414L16.9522 0.149414ZM10.5898 17.5992L6.34907 29.2314L65.1161 29.2314L69.3568 17.5992L10.5898 17.5992ZM4.24061 35.049L-0.00012207 46.6813H58.7669L63.005 35.049H4.24061Z" fill="#00AAFF"/>
<path fill-rule="evenodd" clip-rule="evenodd" d="M110.801 45.3799V45.5521C112.731 46.2447 114.575 47.4559 115.541 48.2338C118.526 50.6562 119.843 53.8564 119.843 58.0086C119.843 64.8443 116.156 69.7743 110.098 71.3319C108.254 71.8504 106.324 72.0245 102.722 72.0245H84.375V22.0244H100.617C103.953 22.0244 106.235 22.1966 108.254 22.7151C114.137 24.2727 118 28.2527 118 34.566C118 37.9404 116.77 40.7962 114.752 42.6982C113.874 43.5631 112.645 44.6021 110.801 45.3799ZM94.5588 50.6562V63.8053H101.583C103.688 63.8053 105.62 63.6331 107.027 62.3349C108.431 61.0366 109.045 59.3939 109.045 57.2308C109.045 55.588 108.605 54.0306 107.727 52.9064C106.235 51.0896 104.391 50.6562 101.231 50.6562H94.5588ZM94.4704 42.0055H100.177C101.933 42.0055 102.81 42.0055 103.688 41.7463C106.06 41.0536 107.553 38.9794 107.553 36.1236C107.553 32.7511 105.972 31.2788 103.688 30.588C102.722 30.3287 101.758 30.2417 99.8255 30.2417H94.4704V42.0055ZM135.119 72.0245V30.4139L120.458 30.4139V22.0244H161.195L158.299 30.4139H145.303V72.0245H135.119ZM164.354 72.0245V22.0244L197.366 22.0244L194.47 30.4139H174.452V41.487L182.617 41.487C189.201 41.487 192.626 43.0445 194.996 45.0335C196.84 46.5911 200 50.0506 200 56.8864C200 63.6331 196.752 67.3519 194.03 69.2558C190.871 71.417 187.534 72.0245 180.773 72.0245H164.354ZM174.452 63.6331H182.091C184.987 63.6331 186.743 62.9405 187.972 61.3829C188.587 60.6051 189.464 59.2198 189.464 56.6252C189.464 54.0306 188.587 52.2137 186.831 50.9154C185.779 50.1376 184.372 49.7061 182.002 49.7061L174.452 49.7061V63.6331Z" fill="#222222"/>
</svg>
