<svg width="200" height="72" viewBox="0 0 200 72" fill="none" xmlns="http://www.w3.org/2000/svg">
<path fill-rule="evenodd" clip-rule="evenodd" d="M16.9522 0.112793L12.7115 11.7478L71.4785 11.7478L75.7193 0.112793L16.9522 0.112793ZM10.5898 17.5625L6.34907 29.1948L65.1161 29.1948L69.3568 17.5625L10.5898 17.5625ZM4.24061 35.0123L-0.00012207 46.6446H58.7669L63.005 35.0123H4.24061Z" fill="#00AAFF"/>
<path fill-rule="evenodd" clip-rule="evenodd" d="M110.801 45.3433V45.5155C112.731 46.2081 114.575 47.4193 115.541 48.1971C118.526 50.6196 119.843 53.8198 119.843 57.972C119.843 64.8077 116.156 69.7377 110.098 71.2953C108.254 71.8138 106.324 71.9879 102.722 71.9879H84.375V21.9878H100.617C103.953 21.9878 106.235 22.16 108.254 22.6785C114.137 24.2361 118 28.2161 118 34.5294C118 37.9038 116.77 40.7596 114.752 42.6616C113.874 43.5264 112.645 44.5654 110.801 45.3433ZM94.5588 50.6196V63.7687H101.583C103.688 63.7687 105.62 63.5965 107.027 62.2982C108.431 61 109.045 59.3573 109.045 57.1942C109.045 55.5514 108.605 53.9939 107.727 52.8698C106.235 51.0529 104.391 50.6196 101.231 50.6196H94.5588ZM94.4704 41.9689H100.177C101.933 41.9689 102.81 41.9689 103.688 41.7096C106.06 41.017 107.553 38.9428 107.553 36.087C107.553 32.7145 105.972 31.2422 103.688 30.5514C102.722 30.2921 101.758 30.2051 99.8255 30.2051H94.4704V41.9689ZM135.119 71.9879V30.3773L120.458 30.3773V21.9878H161.195L158.299 30.3773H145.303V71.9879H135.119ZM164.354 71.9879V21.9878L197.366 21.9878L194.47 30.3773H174.452V41.4504L182.617 41.4504C189.201 41.4504 192.626 43.0079 194.996 44.9969C196.84 46.5545 200 50.014 200 56.8497C200 63.5965 196.752 67.3153 194.03 69.2191C190.871 71.3804 187.534 71.9879 180.773 71.9879H164.354ZM174.452 63.5965H182.091C184.987 63.5965 186.743 62.9039 187.972 61.3463C188.587 60.5685 189.464 59.1832 189.464 56.5886C189.464 53.9939 188.587 52.1771 186.831 50.8788C185.779 50.101 184.372 49.6695 182.002 49.6695L174.452 49.6695V63.5965Z" fill="white"/>
</svg>
