<svg width="429" height="453" viewBox="0 0 429 453" fill="none" xmlns="http://www.w3.org/2000/svg">
<path d="M254.807 32.3923H174.013V5.19145C174.013 3.86316 174.532 2.65602 175.379 1.76259C176.288 0.804876 177.572 0.207733 178.996 0.207733H249.823C252.575 0.207733 254.807 2.43887 254.807 5.19145V32.3923Z" fill="black"/>
<path d="M214.286 452.792C332.632 452.792 428.571 356.853 428.571 238.507C428.571 120.16 332.633 24.2209 214.286 24.2209C95.9389 24.2209 0 120.16 0 238.507C0 356.853 95.9389 452.792 214.286 452.792ZM214.286 48.022C319.487 48.022 404.77 133.305 404.77 238.506C404.77 343.708 319.487 428.991 214.286 428.991C109.084 428.991 23.8014 343.708 23.8014 238.506C23.8014 133.305 109.084 48.022 214.286 48.022Z" fill="url(#paint0_radial_1_1222)"/>
<path d="M239.3 263.516C253.11 249.705 253.11 227.314 239.3 213.504C225.49 199.694 203.099 199.694 189.289 213.504C175.479 227.314 175.479 249.705 189.289 263.516C203.099 277.326 225.49 277.326 239.3 263.516Z" fill="#BEBEBE"/>
<path d="M235.191 259.407C246.732 247.866 246.732 229.154 235.191 217.613C223.65 206.072 204.939 206.072 193.398 217.613C181.857 229.154 181.857 247.866 193.398 259.407C204.939 270.947 223.65 270.947 235.191 259.407Z" fill="#E6E6E6"/>
<path d="M231.84 256.055C241.53 246.365 241.53 230.655 231.84 220.965C222.15 211.274 206.439 211.274 196.749 220.965C187.059 230.655 187.059 246.365 196.749 256.055C206.439 265.745 222.15 265.745 231.84 256.055Z" fill="url(#paint1_radial_1_1222)"/>
<g filter="url(#filter0_f_1_1222)">
<path d="M221.586 249.982C227.918 245.937 229.773 237.525 225.728 231.192C221.683 224.86 213.27 223.005 206.937 227.05C200.605 231.096 198.751 239.508 202.796 245.841C206.841 252.173 215.253 254.028 221.586 249.982Z" fill="#BFBFBF"/>
</g>
<path d="M214.509 447.302C218.037 447.168 220.788 444.2 220.654 440.673C220.52 437.146 217.552 434.395 214.025 434.529C210.498 434.663 207.747 437.63 207.881 441.158C208.014 444.685 210.982 447.436 214.509 447.302Z" fill="#DBDBDB"/>
<path d="M285.055 434.872C288.475 434.002 290.543 430.524 289.673 427.103C288.803 423.683 285.325 421.615 281.904 422.485C278.483 423.355 276.416 426.833 277.286 430.254C278.156 433.675 281.634 435.742 285.055 434.872Z" fill="#DBDBDB"/>
<path d="M146.653 54.5198C150.072 53.6423 152.132 50.1594 151.254 46.7405C150.377 43.3216 146.894 41.2614 143.475 42.1389C140.056 43.0164 137.996 46.4993 138.873 49.9182C139.751 53.3371 143.234 55.3973 146.653 54.5198Z" fill="#DBDBDB"/>
<path d="M344.376 399.933C347.906 399.933 350.767 397.072 350.767 393.542C350.767 390.013 347.906 387.151 344.376 387.151C340.847 387.151 337.985 390.013 337.985 393.542C337.985 397.072 340.847 399.933 344.376 399.933Z" fill="#DBDBDB"/>
<path d="M84.1951 89.8617C87.7248 89.8617 90.5862 87.0003 90.5862 83.4706C90.5862 79.9408 87.7248 77.0794 84.1951 77.0794C80.6654 77.0794 77.804 79.9408 77.804 83.4706C77.804 87.0003 80.6654 89.8617 84.1951 89.8617Z" fill="#DBDBDB"/>
<path d="M393.37 344.862C396.205 342.76 396.8 338.757 394.697 335.921C392.595 333.086 388.592 332.492 385.757 334.594C382.921 336.696 382.327 340.699 384.429 343.535C386.532 346.37 390.534 346.964 393.37 344.862Z" fill="#DBDBDB"/>
<path d="M42.9756 142.327C45.7433 140.137 46.2111 136.117 44.0206 133.349C41.83 130.582 37.8106 130.114 35.0429 132.305C32.2753 134.495 31.8074 138.514 33.998 141.282C36.1885 144.05 40.2079 144.518 42.9756 142.327Z" fill="#DBDBDB"/>
<path d="M419.782 275.286C420.669 271.87 418.618 268.381 415.201 267.495C411.785 266.608 408.297 268.659 407.41 272.075C406.523 275.492 408.574 278.98 411.991 279.867C415.407 280.753 418.895 278.703 419.782 275.286Z" fill="#DBDBDB"/>
<path d="M20.686 206.248C22.2769 203.097 21.0121 199.253 17.8611 197.662C14.7101 196.071 10.8661 197.336 9.27526 200.487C7.68441 203.638 8.94915 207.482 12.1001 209.073C15.2511 210.664 19.0952 209.399 20.686 206.248Z" fill="#DBDBDB"/>
<path d="M417.18 208.673C420.101 206.692 420.863 202.718 418.882 199.797C416.901 196.875 412.926 196.113 410.005 198.095C407.084 200.076 406.322 204.05 408.303 206.971C410.284 209.892 414.259 210.654 417.18 208.673Z" fill="#DBDBDB"/>
<path d="M15.6793 280.005C19.1871 279.613 21.7126 276.451 21.3201 272.943C20.9276 269.435 17.7657 266.91 14.2579 267.302C10.75 267.695 8.22456 270.856 8.61707 274.364C9.00957 277.872 12.1714 280.398 15.6793 280.005Z" fill="#DBDBDB"/>
<path d="M389.643 143.694C393.173 143.661 396.008 140.774 395.975 137.244C395.943 133.714 393.055 130.879 389.525 130.912C385.995 130.944 383.16 133.832 383.193 137.361C383.225 140.891 386.113 143.726 389.643 143.694Z" fill="#DBDBDB"/>
<path d="M44.5775 342.817C46.3096 339.741 45.2205 335.844 42.1451 334.112C39.0696 332.38 35.1724 333.469 33.4403 336.544C31.7083 339.62 32.7974 343.517 35.8728 345.249C38.9483 346.981 42.8455 345.892 44.5775 342.817Z" fill="#DBDBDB"/>
<path d="M344.376 89.8617C347.906 89.8617 350.767 87.0003 350.767 83.4706C350.767 79.9408 347.906 77.0794 344.376 77.0794C340.847 77.0794 337.985 79.9408 337.985 83.4706C337.985 87.0003 340.847 89.8617 344.376 89.8617Z" fill="#DBDBDB"/>
<path d="M84.1951 399.933C87.7248 399.933 90.5862 397.072 90.5862 393.542C90.5862 390.013 87.7248 387.151 84.1951 387.151C80.6654 387.151 77.804 390.013 77.804 393.542C77.804 397.072 80.6654 399.933 84.1951 399.933Z" fill="#DBDBDB"/>
<path d="M289.65 50.0227C290.593 46.6211 288.599 43.0996 285.198 42.1571C281.796 41.2147 278.274 43.2082 277.332 46.6098C276.39 50.0114 278.383 53.533 281.785 54.4754C285.186 55.4178 288.708 53.4243 289.65 50.0227Z" fill="#DBDBDB"/>
<path d="M151.223 430.4C152.172 427 150.185 423.475 146.785 422.526C143.386 421.577 139.86 423.564 138.912 426.964C137.963 430.364 139.95 433.889 143.35 434.838C146.749 435.787 150.275 433.8 151.223 430.4Z" fill="#DBDBDB"/>
<path d="M214.282 83.4706L214.284 83.4649L214.287 83.4706V83.4591L243.498 10.1972C233.931 8.98544 224.181 8.35973 214.286 8.35973C204.389 8.35973 194.639 8.98544 185.071 10.1977L214.282 83.4591L214.282 83.4706Z" fill="#C1C1C1"/>
<path d="M214.283 59.2045L214.284 59.2014L214.285 59.2045V59.1982L230.335 18.9448C225.079 18.2791 219.722 17.9351 214.285 17.9351C208.847 17.9351 203.49 18.2788 198.233 18.9448L214.283 59.1979L214.283 59.2045Z" fill="#1F1F1F"/>
<defs>
<filter id="filter0_f_1_1222" x="182.554" y="206.809" width="63.4147" height="63.4147" filterUnits="userSpaceOnUse" color-interpolation-filters="sRGB">
<feFlood flood-opacity="0" result="BackgroundImageFix"/>
<feBlend mode="normal" in="SourceGraphic" in2="BackgroundImageFix" result="shape"/>
<feGaussianBlur stdDeviation="9.05" result="effect1_foregroundBlur_1_1222"/>
</filter>
<radialGradient id="paint0_radial_1_1222" cx="0" cy="0" r="1" gradientUnits="userSpaceOnUse" gradientTransform="translate(214.571 238.786) rotate(90.0765) scale(214.007)">
<stop/>
<stop offset="0.920168" stop-color="#BBBBBB"/>
<stop offset="1" stop-color="#DBDBDB"/>
</radialGradient>
<radialGradient id="paint1_radial_1_1222" cx="0" cy="0" r="1" gradientUnits="userSpaceOnUse" gradientTransform="translate(214.294 238.51) rotate(45) scale(24.8129 24.8129)">
<stop stop-color="#8D8D8D"/>
<stop offset="1" stop-color="#F5F5F5"/>
</radialGradient>
</defs>
</svg>
