<svg width="429" height="453" viewBox="0 0 429 453" fill="none" xmlns="http://www.w3.org/2000/svg">
<path d="M390.501 165.311C371.171 118.698 333.89 81.4169 287.276 62.0869L214.286 238.302L390.501 165.311Z" fill="#F5028E"/>
<path d="M214.286 238.302L141.295 62.0869C94.6812 81.4169 57.4003 118.697 38.0703 165.311L214.286 238.302Z" fill="#F5028E"/>
<path d="M214.286 238.302L287.277 62.087C264.792 52.763 240.143 47.6064 214.286 47.6064C188.429 47.6064 163.779 52.763 141.295 62.087L214.286 238.302Z" fill="#FF0DAF"/>
<path d="M390.501 165.312L214.286 238.302L390.501 311.293C399.825 288.808 404.981 264.159 404.981 238.302C404.981 212.445 399.825 187.796 390.501 165.312Z" fill="#FF0DAF"/>
<path d="M214.286 238.302L287.277 414.517C333.89 395.187 371.171 357.906 390.501 311.293L214.286 238.302Z" fill="#F5028E"/>
<path d="M141.295 414.517C163.779 423.841 188.429 428.998 214.286 428.998C240.143 428.998 264.792 423.841 287.277 414.517L214.286 238.302L141.295 414.517Z" fill="#FF0DAF"/>
<path d="M38.0705 165.312C28.7465 187.796 23.59 212.446 23.59 238.302C23.59 264.159 28.7465 288.809 38.0705 311.293L214.286 238.302L38.0705 165.312Z" fill="#FF0DAF"/>
<path d="M214.286 238.302L38.0706 311.293C57.4006 357.907 94.6814 395.187 141.295 414.517L214.286 238.302Z" fill="#F5028E"/>
<g filter="url(#filter0_f_1_1254)">
<path d="M143.753 61.3578L139.056 63.3035L284.84 415.249L289.537 413.303L143.753 61.3578Z" fill="white"/>
</g>
<g filter="url(#filter1_f_1_1254)">
<path d="M39.2961 163.061L37.3505 167.758L389.297 313.542L391.243 308.845L39.2961 163.061Z" fill="white"/>
</g>
<g filter="url(#filter2_f_1_1254)">
<path d="M389.256 163.039L37.3475 308.861L39.2937 313.557L391.202 167.735L389.256 163.039Z" fill="white"/>
</g>
<g filter="url(#filter3_f_1_1254)">
<path d="M284.837 61.3798L139.016 413.287L143.712 415.233L289.534 63.326L284.837 61.3798Z" fill="white"/>
</g>
<path d="M204.771 113.078C207.491 113.078 209.411 114.938 209.411 117.418C209.411 119.958 207.451 121.818 204.891 121.818C202.311 121.818 200.431 120.018 200.371 117.578H202.531C202.591 118.878 203.551 119.798 204.891 119.798C206.231 119.798 207.231 118.778 207.231 117.418C207.231 115.998 206.171 114.958 204.691 114.958H201.171L200.911 114.658L201.611 108.278H208.491V110.258H203.371L203.051 113.078H204.771ZM215.435 113.078C218.155 113.078 220.075 114.938 220.075 117.418C220.075 119.958 218.115 121.818 215.555 121.818C212.975 121.818 211.095 120.018 211.035 117.578H213.195C213.255 118.878 214.215 119.798 215.555 119.798C216.895 119.798 217.895 118.778 217.895 117.418C217.895 115.998 216.835 114.958 215.355 114.958H211.835L211.575 114.658L212.275 108.278H219.155V110.258H214.035L213.715 113.078H215.435ZM231.66 117.658C231.66 119.958 230.04 121.418 227.68 121.718V123.238H225.86V121.718C223.24 121.438 221.68 119.778 221.68 117.278H223.92C223.92 118.818 225.16 119.658 226.74 119.658C228.18 119.658 229.4 118.878 229.4 117.678C229.4 116.358 228 116.038 226.38 115.678C224.3 115.198 221.9 114.638 221.9 111.798C221.9 109.638 223.36 108.278 225.7 107.998V106.578H227.56V107.998C229.92 108.318 231.26 109.858 231.26 112.178H229.08C229.08 110.778 227.98 110.018 226.56 110.018C225.24 110.018 224.12 110.618 224.12 111.698C224.12 112.918 225.48 113.238 227.06 113.618C229.18 114.118 231.66 114.718 231.66 117.658Z" fill="white"/>
<path d="M88.404 161.405L87.0284 160.183L88.2398 158.819L89.6154 160.041L88.404 161.405ZM95.8773 168.001L89.418 162.263L90.5976 160.935L97.0568 166.673L95.8773 168.001ZM95.198 155.443C96.9088 153.518 99.6207 153.38 101.558 155.102C103.496 156.823 103.691 159.543 101.98 161.469C101.236 162.306 100.29 162.793 99.3005 162.919L102.231 165.523L101.052 166.85L92.2718 159.05L93.0582 158.165L94.0827 158.626C94.0053 157.509 94.3691 156.376 95.198 155.443ZM100.617 160.45C101.701 159.23 101.578 157.537 100.358 156.453C99.1496 155.38 97.4541 155.457 96.3702 156.678C95.2864 157.898 95.3985 159.602 96.6066 160.676C97.8267 161.76 99.5327 161.67 100.617 160.45ZM102.494 147.255C103.833 145.748 105.725 145.738 107.388 147.215L111.275 150.669L110.095 151.996L106.483 148.787C105.311 147.746 104.243 147.696 103.371 148.677C102.479 149.681 102.644 151.134 103.78 152.143L107.237 155.214L106.057 156.542L97.2896 148.753L98.4692 147.425L101.519 150.135C101.405 149.155 101.729 148.116 102.494 147.255ZM115.689 146.038C113.925 148.023 111.17 148.209 109.221 146.477C107.271 144.744 107.143 141.998 108.907 140.012C110.66 138.039 113.414 137.853 115.352 139.575C117.302 141.307 117.442 144.064 115.689 146.038ZM114.421 144.911C115.505 143.691 115.395 142.032 114.151 140.926C112.919 139.832 111.258 139.919 110.175 141.139C109.08 142.371 109.189 144.03 110.421 145.125C111.665 146.23 113.326 146.143 114.421 144.911ZM116.275 131.743C117.624 130.223 119.588 130.277 121.179 131.691L125.067 135.144L123.887 136.472L120.275 133.263C119.102 132.221 118.023 132.183 117.163 133.152C116.259 134.169 116.435 135.609 117.572 136.619L121.028 139.69L119.849 141.017L113.39 135.279L114.208 134.358L115.351 134.903C115.118 133.84 115.435 132.688 116.275 131.743ZM128.913 124.359C129.056 124.486 129.189 124.626 129.311 124.777L124.657 130.016C125.858 130.784 127.174 130.604 128.109 129.552C128.8 128.774 128.993 127.833 128.703 126.955L129.947 125.556C130.853 127.281 130.639 129.209 129.353 130.657C127.674 132.547 124.95 132.674 123.012 130.952C121.086 129.241 120.892 126.522 122.571 124.632C124.335 122.646 127.035 122.69 128.913 124.359ZM123.779 125.705C122.897 126.698 122.847 127.959 123.612 129.024L127.076 125.125C125.883 124.492 124.661 124.712 123.779 125.705ZM127.552 116.327L129.932 113.647L137.886 120.714L136.76 121.982L129.978 115.956L128.724 117.368L127.552 116.327ZM136.907 111.288C138.193 109.841 140.316 109.523 141.883 110.915C143.51 112.36 143.575 114.6 142.076 116.287C140.546 118.009 138.324 118.197 136.698 116.752C135.956 116.093 135.364 115.097 134.868 113.607L133.495 109.54L134.759 108.117C135.609 110.605 135.912 111.517 136.249 112.415C136.393 111.987 136.62 111.611 136.907 111.288ZM140.857 115.225C141.686 114.292 141.646 113.037 140.725 112.218C139.804 111.4 138.564 111.519 137.735 112.452C136.907 113.385 136.947 114.64 137.856 115.448C138.765 116.256 140.029 116.158 140.857 115.225ZM104.556 169.976C106.002 168.349 108.28 168.169 109.871 169.582C111.45 170.985 111.55 173.257 110.095 174.896L108.564 176.618L111.399 179.137L110.188 180.5L101.815 173.062L104.556 169.976ZM108.738 173.797C109.535 172.9 109.465 171.726 108.628 170.982C107.779 170.227 106.604 170.297 105.807 171.194L104.33 172.857L107.261 175.46L108.738 173.797ZM112.876 164.393L113.387 163.818L114.643 164.934L114.016 165.64C113.038 166.74 113.194 167.842 114.366 168.883L117.799 171.933L116.619 173.261L110.16 167.523L110.957 166.625L112.034 167.196C111.838 166.188 112.09 165.278 112.876 164.393ZM123.459 165.899C121.695 167.884 118.941 168.07 116.991 166.338C115.041 164.606 114.913 161.859 116.677 159.874C118.43 157.9 121.185 157.714 123.123 159.436C125.072 161.168 125.213 163.925 123.459 165.899ZM122.191 164.772C123.275 163.552 123.166 161.893 121.922 160.788C120.69 159.693 119.029 159.78 117.945 161C116.85 162.232 116.96 163.892 118.192 164.986C119.436 166.091 121.097 166.004 122.191 164.772ZM130.102 144.786C131.313 143.423 133.172 143.426 134.631 144.723L138.734 148.367L137.555 149.695L133.775 146.337C132.734 145.413 131.744 145.347 131.032 146.148C130.267 147.009 130.46 148.358 131.561 149.335L135.089 152.47L133.942 153.762L130.162 150.404C129.121 149.48 128.131 149.413 127.419 150.215C126.654 151.076 126.847 152.425 127.948 153.402L131.476 156.537L130.297 157.865L123.837 152.127L124.666 151.194L125.706 151.71C125.543 150.688 125.819 149.607 126.51 148.829C127.286 147.956 128.333 147.645 129.368 147.901C129.088 146.818 129.347 145.636 130.102 144.786ZM138.686 135.413L139.589 134.396L146.048 140.134L145.103 141.199L144.208 140.64C144.274 141.746 143.91 142.879 143.07 143.824C141.36 145.749 138.625 145.888 136.687 144.167C134.75 142.445 134.577 139.724 136.288 137.798C137.138 136.841 138.23 136.335 139.361 136.291L138.686 135.413ZM141.886 142.579C142.97 141.359 142.859 139.677 141.639 138.593C140.419 137.509 138.736 137.597 137.652 138.817C136.568 140.037 136.68 141.742 137.888 142.815C139.096 143.888 140.802 143.799 141.886 142.579ZM152.449 132.93L151.12 134.425L147.244 133.849L148.251 137.655L146.944 139.126L145.647 133.864L140.644 133.208L141.973 131.713L145.414 132.224L144.544 128.818L145.841 127.359L147.001 132.22L152.449 132.93Z" fill="white"/>
<path d="M83.2714 257.018V252.538H96.5714V254.658H85.2314V257.018H83.2714ZM83.2714 250.163V245.683H96.5714V247.803H85.2314V250.163H83.2714ZM96.8114 237.607C96.8114 240.827 94.1514 242.867 89.9114 242.867C85.6714 242.867 83.0314 240.847 83.0314 237.607C83.0314 234.367 85.6714 232.367 89.9114 232.367C94.1514 232.367 96.8114 234.387 96.8114 237.607ZM94.7914 237.607C94.7914 235.687 93.0114 234.547 89.9314 234.547C86.8514 234.547 85.0714 235.687 85.0714 237.607C85.0714 239.527 86.8514 240.687 89.9114 240.687C92.9914 240.687 94.7914 239.547 94.7914 237.607ZM92.6514 220.568C94.9514 220.568 96.4114 222.188 96.7114 224.548H98.2314V226.368H96.7114C96.4314 228.988 94.7714 230.548 92.2714 230.548V228.308C93.8114 228.308 94.6514 227.068 94.6514 225.488C94.6514 224.048 93.8714 222.828 92.6714 222.828C91.3514 222.828 91.0314 224.228 90.6714 225.848C90.1914 227.928 89.6314 230.328 86.7914 230.328C84.6314 230.328 83.2714 228.868 82.9914 226.528H81.5714V224.668H82.9914C83.3114 222.308 84.8514 220.968 87.1714 220.968V223.148C85.7714 223.148 85.0114 224.248 85.0114 225.668C85.0114 226.988 85.6114 228.108 86.6914 228.108C87.9114 228.108 88.2314 226.748 88.6114 225.168C89.1114 223.048 89.7114 220.568 92.6514 220.568Z" fill="white"/>
<path d="M134.189 336.659C132.925 334.969 133.048 332.829 134.517 331.274C136.275 329.413 138.963 329.421 140.868 331.22C142.7 332.951 142.843 335.479 141.199 337.365L139.643 335.896C140.491 334.881 140.426 333.581 139.481 332.689C138.463 331.727 137.036 331.782 136.047 332.829C135.072 333.861 135.184 335.315 136.289 336.359L137.51 337.513L137.236 337.803L132.29 339.019L135.896 342.425L134.536 343.865L128.619 338.275L128.935 337.941L134.189 336.659ZM127.059 330.199C125.082 328.331 124.963 325.66 126.666 323.858C128.41 322.011 131.112 322.005 132.973 323.763C134.849 325.534 134.98 328.134 133.348 329.949L131.777 328.466C132.627 327.479 132.56 326.151 131.586 325.231C130.612 324.311 129.185 324.366 128.251 325.354C127.276 326.387 127.332 327.871 128.408 328.887L130.967 331.304L130.95 331.701L126.06 335.858L121.059 331.134L122.418 329.694L126.14 333.21L128.309 331.38L127.059 330.199ZM124.538 315.794C126.879 318.006 126.535 321.34 123.623 324.422C120.712 327.505 117.431 328.037 115.075 325.812C112.72 323.587 113.079 320.294 115.99 317.212C118.902 314.13 122.197 313.583 124.538 315.794ZM123.151 317.263C121.755 315.944 119.704 316.456 117.589 318.695C115.474 320.934 115.08 323.01 116.476 324.329C117.872 325.647 119.937 325.15 122.039 322.925C124.154 320.686 124.561 318.595 123.151 317.263ZM109.295 307.118C110.874 305.446 113.054 305.497 114.976 306.9L116.02 305.795L117.343 307.044L116.299 308.149C118.011 310.152 118.005 312.43 116.289 314.247L114.66 312.709C115.718 311.59 115.393 310.128 114.245 309.043C113.198 308.054 111.775 307.783 110.951 308.655C110.045 309.615 110.843 310.809 111.773 312.183C112.956 313.96 114.316 316.015 112.366 318.08C110.882 319.65 108.887 319.636 106.994 318.233L106.019 319.265L104.667 317.988L105.642 316.956C104.146 315.102 104.229 313.063 105.822 311.376L107.407 312.873C106.446 313.891 106.724 315.199 107.756 316.174C108.715 317.08 109.942 317.413 110.683 316.628C111.521 315.741 110.752 314.575 109.864 313.214C108.667 311.394 107.276 309.255 109.295 307.118Z" fill="white"/>
<path d="M311.852 308.127L308.493 311.776L306.992 310.395L313.155 303.699L313.582 304.092C314.305 312.668 314.64 313.928 315.759 314.957C316.627 315.756 317.743 315.696 318.555 314.813C319.395 313.9 319.375 312.74 318.507 311.941L318.286 311.738L319.749 310.149L319.985 310.366C321.736 311.977 321.777 314.325 320.056 316.194C318.39 318.004 316.019 318.159 314.297 316.574C313.002 315.383 312.418 313.921 311.852 308.127ZM304.604 316.002L301.245 319.651L299.744 318.27L305.907 311.574L306.333 311.967C307.057 320.543 307.392 321.803 308.511 322.832C309.379 323.631 310.494 323.571 311.307 322.688C312.147 321.775 312.127 320.616 311.259 319.817L311.038 319.613L312.501 318.024L312.736 318.241C314.487 319.853 314.528 322.2 312.808 324.069C311.142 325.879 308.771 326.034 307.049 324.45C305.754 323.258 305.17 321.796 304.604 316.002ZM294.703 323.393C296.883 321.023 300.222 321.324 303.342 324.195C306.462 327.066 307.036 330.341 304.842 332.725C302.648 335.108 299.351 334.792 296.231 331.921C293.111 329.049 292.522 325.762 294.703 323.393ZM296.189 324.761C294.889 326.173 295.427 328.217 297.693 330.303C299.959 332.389 302.041 332.756 303.341 331.343C304.641 329.93 304.117 327.871 301.866 325.799C299.599 323.713 297.503 323.333 296.189 324.761ZM286.225 338.747C284.532 337.189 284.555 335.009 285.933 333.069L284.814 332.04L286.047 330.7L287.165 331.73C289.145 329.992 291.423 329.968 293.263 331.661L291.746 333.309C290.613 332.266 289.155 332.61 288.085 333.772C287.11 334.832 286.857 336.258 287.74 337.07C288.712 337.964 289.895 337.151 291.257 336.203C293.019 334.997 295.056 333.611 297.146 335.534C298.735 336.997 298.747 338.992 297.369 340.903L298.413 341.865L297.154 343.234L296.109 342.272C294.275 343.792 292.235 343.735 290.528 342.164L292.004 340.56C293.034 341.508 294.338 341.213 295.3 340.168C296.194 339.197 296.511 337.967 295.716 337.235C294.818 336.409 293.662 337.193 292.312 338.098C290.509 339.319 288.388 340.738 286.225 338.747Z" fill="white"/>
<path d="M338.594 223.734C338.594 226.454 336.734 228.374 334.254 228.374C331.714 228.374 329.854 226.414 329.854 223.854C329.854 221.274 331.654 219.394 334.094 219.334V221.494C332.794 221.554 331.874 222.514 331.874 223.854C331.874 225.194 332.894 226.194 334.254 226.194C335.674 226.194 336.714 225.134 336.714 223.654V220.134L337.014 219.874L343.394 220.574V227.454H341.414V222.334L338.594 222.014V223.734ZM338.594 234.398C338.594 237.118 336.734 239.038 334.254 239.038C331.714 239.038 329.854 237.078 329.854 234.518C329.854 231.938 331.654 230.058 334.094 229.998V232.158C332.794 232.218 331.874 233.178 331.874 234.518C331.874 235.858 332.894 236.858 334.254 236.858C335.674 236.858 336.714 235.798 336.714 234.318V230.798L337.014 230.538L343.394 231.238V238.118H341.414V232.998L338.594 232.678V234.398ZM329.854 246.122C329.854 242.902 332.514 240.862 336.754 240.862C340.994 240.862 343.634 242.882 343.634 246.122C343.634 249.362 340.994 251.362 336.754 251.362C332.514 251.362 329.854 249.342 329.854 246.122ZM331.874 246.122C331.874 248.042 333.654 249.182 336.734 249.182C339.814 249.182 341.594 248.042 341.594 246.122C341.594 244.202 339.814 243.042 336.754 243.042C333.674 243.042 331.874 244.182 331.874 246.122ZM334.014 263.161C331.714 263.161 330.254 261.541 329.954 259.181H328.434V257.361H329.954C330.234 254.741 331.894 253.181 334.394 253.181V255.421C332.854 255.421 332.014 256.661 332.014 258.241C332.014 259.681 332.794 260.901 333.994 260.901C335.314 260.901 335.634 259.501 335.994 257.881C336.474 255.801 337.034 253.401 339.874 253.401C342.034 253.401 343.394 254.861 343.674 257.201H345.094V259.061H343.674C343.354 261.421 341.814 262.761 339.494 262.761V260.581C340.894 260.581 341.654 259.481 341.654 258.061C341.654 256.741 341.054 255.621 339.974 255.621C338.754 255.621 338.434 256.981 338.054 258.561C337.554 260.681 336.954 263.161 334.014 263.161Z" fill="white"/>
<path d="M242.011 367.696H237.531V354.396H239.651V365.736H242.011V367.696ZM230.117 367.696H225.637V354.396H227.757V365.736H230.117V367.696ZM217.561 354.156C220.781 354.156 222.821 356.816 222.821 361.056C222.821 365.296 220.801 367.936 217.561 367.936C214.321 367.936 212.321 365.296 212.321 361.056C212.321 356.816 214.341 354.156 217.561 354.156ZM217.561 356.176C215.641 356.176 214.501 357.956 214.501 361.036C214.501 364.116 215.641 365.896 217.561 365.896C219.481 365.896 220.641 364.116 220.641 361.056C220.641 357.976 219.501 356.176 217.561 356.176ZM205.022 354.156C208.242 354.156 210.282 356.816 210.282 361.056C210.282 365.296 208.262 367.936 205.022 367.936C201.782 367.936 199.782 365.296 199.782 361.056C199.782 356.816 201.802 354.156 205.022 354.156ZM205.022 356.176C203.102 356.176 201.962 357.956 201.962 361.036C201.962 364.116 203.102 365.896 205.022 365.896C206.942 365.896 208.102 364.116 208.102 361.056C208.102 357.976 206.962 356.176 205.022 356.176ZM187.983 358.316C187.983 356.016 189.603 354.556 191.963 354.256V352.736H193.783V354.256C196.403 354.536 197.963 356.196 197.963 358.696H195.723C195.723 357.156 194.483 356.316 192.903 356.316C191.463 356.316 190.243 357.096 190.243 358.296C190.243 359.616 191.643 359.936 193.263 360.296C195.343 360.776 197.743 361.336 197.743 364.176C197.743 366.336 196.283 367.696 193.943 367.976V369.396H192.083V367.976C189.723 367.656 188.383 366.116 188.383 363.796H190.563C190.563 365.196 191.663 365.956 193.083 365.956C194.403 365.956 195.523 365.356 195.523 364.276C195.523 363.056 194.163 362.736 192.583 362.356C190.463 361.856 187.983 361.256 187.983 358.316Z" fill="white"/>
<g clip-path="url(#clip0_1_1254)">
<path d="M287.266 143.922C287.387 144.065 287.563 144.162 287.764 144.178L289.325 144.306C289.728 144.339 290.081 144.039 290.115 143.636C290.148 143.233 289.848 142.879 289.444 142.846L287.884 142.718C287.481 142.685 287.127 142.985 287.094 143.388C287.078 143.59 287.144 143.779 287.266 143.922Z" fill="white"/>
<path d="M307.562 167.513C307.545 167.714 307.612 167.904 307.733 168.046C307.855 168.189 308.03 168.286 308.232 168.303C308.635 168.336 308.989 168.036 309.022 167.633L309.15 166.072C309.183 165.669 308.883 165.315 308.48 165.282C308.076 165.249 307.723 165.549 307.69 165.952L307.562 167.513Z" fill="white"/>
<path d="M317.88 168.069C316.668 163.672 312.783 158.808 311.983 157.839L311.024 150.871C310.74 148.812 309.88 146.886 308.535 145.302L304.023 139.983C302.855 138.606 301.36 137.504 299.699 136.795L295.879 135.163C294.729 134.672 293.678 133.994 292.756 133.147L290.607 131.173C289.755 130.391 288.448 130.365 287.566 131.114L284.001 134.138C282.958 135.023 282.623 136.512 283.188 137.758L284.672 141.036C283.622 142.707 283.718 144.935 285.061 146.518C286.178 147.835 287.876 148.372 289.463 148.076L303.992 165.202C303.442 166.719 303.696 168.482 304.813 169.798C306.47 171.752 309.408 171.993 311.362 170.336C313.315 168.678 313.556 165.74 311.899 163.786C310.241 161.833 307.303 161.592 305.35 163.249C305.133 163.433 304.938 163.634 304.764 163.846L290.926 147.536C291.164 147.398 291.394 147.239 291.61 147.055C293.564 145.398 293.805 142.46 292.148 140.506C290.531 138.6 287.695 138.325 285.744 139.851L284.522 137.154C284.226 136.5 284.401 135.719 284.949 135.255L286.621 133.836L287.16 134.471C287.422 134.78 287.884 134.818 288.192 134.556C288.501 134.294 288.539 133.832 288.277 133.524L287.738 132.888L288.513 132.231C288.833 131.959 289.307 131.969 289.616 132.252L291.765 134.226C292.809 135.185 294 135.954 295.304 136.511L295.648 136.657L295.496 138.563C295.394 139.8 295.781 141.002 296.584 141.949L297.56 143.1C297.822 143.409 298.284 143.446 298.593 143.185C298.901 142.923 298.939 142.461 298.677 142.152L297.701 141.001C297.618 140.903 297.542 140.801 297.473 140.696L300.722 139.001C301.537 139.537 302.276 140.188 302.906 140.931L305.317 143.772L302.255 146.369L300.703 144.54C300.442 144.232 299.979 144.194 299.671 144.456C299.363 144.717 299.325 145.179 299.586 145.488L310.728 158.62C310.773 158.673 315.23 163.966 316.468 168.458C316.54 168.722 316.563 168.992 316.541 169.258L315.951 168.562C315.689 168.254 315.227 168.216 314.918 168.477C314.61 168.739 314.572 169.201 314.834 169.51L315.87 170.732C315.815 170.789 315.758 170.845 315.696 170.897L313.714 172.578C313.161 173.048 312.611 173.096 312.278 172.704C312.017 172.396 311.555 172.358 311.246 172.619C310.938 172.881 310.9 173.343 311.161 173.652C311.581 174.146 312.166 174.423 312.808 174.431C313.445 174.439 314.086 174.185 314.662 173.695L316.644 172.014C317.787 171.044 318.273 169.495 317.88 168.069ZM310.782 164.734C311.917 166.072 311.752 168.084 310.414 169.219C309.076 170.354 307.064 170.189 305.929 168.851C304.794 167.513 304.959 165.501 306.297 164.366C307.635 163.231 309.647 163.396 310.782 164.734ZM291.031 141.454C292.166 142.791 292.001 144.803 290.663 145.938C289.325 147.073 287.313 146.908 286.178 145.57C285.043 144.233 285.208 142.221 286.546 141.086C287.884 139.951 289.896 140.116 291.031 141.454ZM296.965 139.309C296.942 139.103 296.938 138.893 296.956 138.682L297.072 137.265L299.124 138.142C299.138 138.148 299.152 138.154 299.166 138.16L296.965 139.309ZM306.264 144.889L307.418 146.249C308.582 147.621 309.327 149.288 309.573 151.071L310.218 155.755L303.203 147.486L306.264 144.889Z" fill="white"/>
<path d="M294.915 147.398C294.653 147.089 294.191 147.051 293.882 147.313C293.574 147.575 293.536 148.037 293.798 148.345L304.433 160.881C304.695 161.189 305.157 161.227 305.465 160.966C305.774 160.704 305.812 160.242 305.55 159.933L294.915 147.398Z" fill="white"/>
</g>
<defs>
<filter id="filter0_f_1_1254" x="134.056" y="56.3578" width="160.481" height="363.891" filterUnits="userSpaceOnUse" color-interpolation-filters="sRGB">
<feFlood flood-opacity="0" result="BackgroundImageFix"/>
<feBlend mode="normal" in="SourceGraphic" in2="BackgroundImageFix" result="shape"/>
<feGaussianBlur stdDeviation="2.5" result="effect1_foregroundBlur_1_1254"/>
</filter>
<filter id="filter1_f_1_1254" x="32.3505" y="158.061" width="363.892" height="160.481" filterUnits="userSpaceOnUse" color-interpolation-filters="sRGB">
<feFlood flood-opacity="0" result="BackgroundImageFix"/>
<feBlend mode="normal" in="SourceGraphic" in2="BackgroundImageFix" result="shape"/>
<feGaussianBlur stdDeviation="2.5" result="effect1_foregroundBlur_1_1254"/>
</filter>
<filter id="filter2_f_1_1254" x="32.3475" y="158.039" width="363.855" height="160.519" filterUnits="userSpaceOnUse" color-interpolation-filters="sRGB">
<feFlood flood-opacity="0" result="BackgroundImageFix"/>
<feBlend mode="normal" in="SourceGraphic" in2="BackgroundImageFix" result="shape"/>
<feGaussianBlur stdDeviation="2.5" result="effect1_foregroundBlur_1_1254"/>
</filter>
<filter id="filter3_f_1_1254" x="134.016" y="56.3798" width="160.518" height="363.854" filterUnits="userSpaceOnUse" color-interpolation-filters="sRGB">
<feFlood flood-opacity="0" result="BackgroundImageFix"/>
<feBlend mode="normal" in="SourceGraphic" in2="BackgroundImageFix" result="shape"/>
<feGaussianBlur stdDeviation="2.5" result="effect1_foregroundBlur_1_1254"/>
</filter>
<clipPath id="clip0_1_1254">
<rect width="50" height="50" fill="white" transform="translate(304.698 116.578) rotate(49.6886)"/>
</clipPath>
</defs>
</svg>
