<svg width="180" height="28" viewBox="0 0 180 28" fill="none" xmlns="http://www.w3.org/2000/svg">
<path d="M80.5009 8.24596L84.2563 5.47969H71.6802V22.052H84.2563V19.2835H75.2723V15.0536H82.9509V12.2874H75.2723V8.24596H80.5009Z" fill="#21A038"/>
<path d="M62.1788 11.9335H57.822V8.24596H64.7919L68.5496 5.47969H54.2298V22.052H61.7149C65.9085 22.052 68.3304 20.1519 68.3304 16.8434C68.3304 13.6705 66.1532 11.9335 62.1788 11.9335ZM61.5797 19.2835H57.822V14.6998H61.5797C63.8665 14.6998 64.9271 15.4603 64.9271 17.0066C64.9271 18.5528 63.7849 19.2835 61.5797 19.2835Z" fill="#21A038"/>
<path d="M94.4383 5.47969H87.606V22.052H91.1982V17.3581H94.4663C98.8207 17.3581 101.543 15.0812 101.543 11.4189C101.543 7.75658 98.8207 5.47969 94.4383 5.47969ZM94.3567 14.5918H91.1725V8.24596H94.3567C96.6715 8.24596 97.9233 9.38555 97.9233 11.4189C97.9233 13.4522 96.6715 14.5918 94.3567 14.5918Z" fill="#21A038"/>
<path d="M48.0758 18.4701C47.1248 18.9871 46.0618 19.2582 44.9732 19.2582C41.733 19.2582 39.3926 16.9514 39.3926 13.7785C39.3926 10.6056 41.733 8.2988 44.9732 8.2988C46.1434 8.27353 47.2879 8.65263 48.239 9.33041L50.8265 7.43262L50.6633 7.26949C49.1668 5.9392 47.1504 5.26142 44.8636 5.26142C42.388 5.26142 40.1269 6.10233 38.4952 7.62102C36.8611 9.19485 35.9357 11.3913 35.9893 13.6705C35.9613 15.975 36.8611 18.199 38.4952 19.8257C40.2085 21.4271 42.4953 22.3231 44.838 22.268C47.4231 22.268 49.6819 21.3719 51.2065 19.7453L48.894 18.0359L48.0758 18.4701Z" fill="#21A038"/>
<path d="M144.747 5.50726V22.0773H148.339V15.2972H155.99V22.0773H159.585V5.50726H155.99V12.3149H148.339V5.50726H144.747ZM138.568 22.0773H142.351L135.328 5.50726H131.679L124.521 22.0773H128.141L129.584 18.7412H137.206L138.568 22.0773ZM130.672 15.975L133.449 9.33041L136.062 15.975H130.672ZM167.643 15.3799H169.874L175.373 22.052H180L172.65 13.4798L179.075 5.47969H174.965L169.629 12.5861H167.643V5.47969H164.049V22.052H167.643V15.3799ZM112.651 11.9611V8.27353H122.043V5.50726H109.056V22.0773H116.544C120.735 22.0773 123.159 20.1795 123.159 16.871C123.159 13.6981 120.982 11.9611 117.005 11.9611H112.651ZM112.651 14.7274H116.409C118.693 14.7274 119.756 15.4879 119.756 17.0341C119.756 18.5804 118.639 19.3386 116.409 19.3386H112.651V14.7274Z" fill="#21A038"/>
<path d="M24.7466 5.3717C25.3993 6.21261 25.9447 7.13394 26.4063 8.1104L13.8302 17.3581L8.54801 14.0496V10.0909L13.8022 13.3718L24.7466 5.3717Z" fill="#21A038"/>
<path d="M3.18423 13.7785C3.18423 13.5878 3.18423 13.427 3.2122 13.2363L0.0279727 13.0731C0.0279727 13.2914 0 13.5349 0 13.7509C0 17.5488 1.55249 20.9928 4.05605 23.488L6.31485 21.2364C4.3824 19.3386 3.18423 16.7079 3.18423 13.7785Z" fill="url(#paint0_linear_1_9)"/>
<path d="M13.8022 3.20051C13.9934 3.20051 14.1565 3.20051 14.3477 3.22808L14.5109 0.0551415C14.2917 0.0551415 14.047 0.0275714 13.8302 0.0275714C10.0189 0.0275714 6.56194 1.57383 4.05605 4.06899L6.31485 6.3206C8.22166 4.39524 10.8884 3.20051 13.8022 3.20051Z" fill="url(#paint1_linear_1_9)"/>
<path d="M13.8022 24.3565C13.6111 24.3565 13.4479 24.3565 13.2568 24.3289L13.0936 27.5018C13.3127 27.5018 13.5575 27.5294 13.7743 27.5294C17.5855 27.5294 21.0448 25.9831 23.5484 23.488L21.2896 21.2364C19.3828 23.1893 16.7417 24.3565 13.8022 24.3565Z" fill="url(#paint2_linear_1_9)"/>
<path d="M19.7907 5.04545L22.4854 3.06495C20.1171 1.16716 17.096 0 13.8022 0V3.17294C16.0354 3.20051 18.103 3.87829 19.7907 5.04545Z" fill="url(#paint3_linear_1_9)"/>
<path d="M27.6324 13.7785C27.6324 12.9376 27.5508 12.1242 27.4133 11.3109L24.4459 13.5074C24.4459 13.5878 24.4459 13.6981 24.4459 13.7785C24.4459 16.8986 23.0845 19.6924 20.9353 21.6178L23.0845 23.9774C25.8631 21.4822 27.6324 17.8199 27.6324 13.7785Z" fill="#21A038"/>
<path d="M13.8022 24.3565C10.6716 24.3565 7.86734 23.0009 5.93488 20.8573L3.56653 23.0009C6.09806 25.7947 9.74617 27.5294 13.8022 27.5294L13.8022 24.3565Z" fill="url(#paint4_linear_1_9)"/>
<path d="M6.69714 5.9392L4.54557 3.57961C1.7413 6.10233 0 9.73708 0 13.7785L3.18423 13.7785C3.18423 10.686 4.54557 7.86686 6.69714 5.9392Z" fill="url(#paint5_linear_1_9)"/>
<defs>
<linearGradient id="paint0_linear_1_9" x1="105.936" y1="26.5097" x2="105.065" y2="-1.13708" gradientUnits="userSpaceOnUse">
<stop offset="0.1444" stop-color="#F2E913"/>
<stop offset="0.3037" stop-color="#E7E518"/>
<stop offset="0.5823" stop-color="#CADB26"/>
<stop offset="0.891" stop-color="#A3CD39"/>
</linearGradient>
<linearGradient id="paint1_linear_1_9" x1="15.6374" y1="16.1126" x2="64.5235" y2="-58.6138" gradientUnits="userSpaceOnUse">
<stop offset="0.0592" stop-color="#0FA8E0"/>
<stop offset="0.5385" stop-color="#0099F9"/>
<stop offset="0.9234" stop-color="#0291EB"/>
</linearGradient>
<linearGradient id="paint2_linear_1_9" x1="-3.20302" y1="15.7239" x2="94.6425" y2="-72.9752" gradientUnits="userSpaceOnUse">
<stop offset="0.1226" stop-color="#A3CD39"/>
<stop offset="0.2846" stop-color="#86C339"/>
<stop offset="0.8693" stop-color="#21A038"/>
</linearGradient>
<linearGradient id="paint3_linear_1_9" x1="-13.5632" y1="11.0311" x2="63.081" y2="102.6" gradientUnits="userSpaceOnUse">
<stop offset="0.0566" stop-color="#0291EB"/>
<stop offset="0.79" stop-color="#0C8ACB"/>
</linearGradient>
<linearGradient id="paint4_linear_1_9" x1="14.2391" y1="10.9157" x2="62.8023" y2="89.7361" gradientUnits="userSpaceOnUse">
<stop offset="0.1324" stop-color="#F2E913"/>
<stop offset="0.2977" stop-color="#EBE716"/>
<stop offset="0.5306" stop-color="#D9E01F"/>
<stop offset="0.8023" stop-color="#BBD62D"/>
<stop offset="0.9829" stop-color="#A3CD39"/>
</linearGradient>
<linearGradient id="paint5_linear_1_9" x1="2.4406" y1="14.1618" x2="5.88736" y2="5.02353" gradientUnits="userSpaceOnUse">
<stop offset="0.0698" stop-color="#A3CD39"/>
<stop offset="0.2599" stop-color="#81C55F"/>
<stop offset="0.9216" stop-color="#0FA8E0"/>
</linearGradient>
</defs>
</svg>
