<svg width="206" height="34" viewBox="0 0 206 34" fill="none" xmlns="http://www.w3.org/2000/svg">
<path d="M92.1548 9.9593L96.4308 6.82367H82.1152V25.6068H96.4308V22.4711H86.2054V17.6754H94.9435V14.5398H86.2054V9.9593H92.1548Z" fill="#21A038"/>
<path d="M71.3016 14.1401H66.3439V9.9593H74.2764L78.5524 6.82367H62.2537V25.6068H70.7748C75.5468 25.6068 78.3044 23.4548 78.3044 19.7044C78.3044 16.1076 75.8256 14.1401 71.3016 14.1401ZM70.6199 22.4711H66.3439V17.2758H70.6199C73.2228 17.2758 74.4313 18.1365 74.4313 19.8888C74.4313 21.6411 73.1298 22.4711 70.6199 22.4711Z" fill="#21A038"/>
<path d="M108.017 6.82367H100.24V25.6068H104.33V20.2884H108.048C113.006 20.2884 116.104 17.7062 116.104 13.5561C116.104 9.40594 113.006 6.82367 108.017 6.82367ZM107.924 17.1528H104.299V9.9593H107.924C110.558 9.9593 111.983 11.2504 111.983 13.5561C111.983 15.8617 110.558 17.1528 107.924 17.1528Z" fill="#21A038"/>
<path d="M55.2506 21.5444C54.1662 22.1285 52.9577 22.4359 51.7182 22.4359C48.0308 22.4359 45.366 19.8229 45.366 16.2262C45.366 12.6294 48.0308 10.0164 51.7182 10.0164C53.0505 9.98564 54.352 10.416 55.4366 11.1846L58.3803 9.03264L58.1943 8.84819C56.4901 7.34185 54.197 6.57332 51.5943 6.57332C48.7745 6.57332 46.2026 7.5263 44.3435 9.24783C42.4842 11.0309 41.4307 13.5209 41.4928 16.1032C41.4618 18.7162 42.4842 21.2371 44.3435 23.0814C46.2956 24.8953 48.8984 25.9097 51.5632 25.8483C54.5069 25.8483 57.0788 24.8338 58.814 22.9893L56.1802 21.0526L55.2506 21.5444Z" fill="#21A038"/>
<path d="M165.281 6.85441V25.6374H169.371V17.9521H178.078V25.6374H182.169V6.85441H178.078V14.5705H169.371V6.85441H165.281ZM158.247 25.6374H162.554L154.56 6.85441H150.408L142.258 25.6374H146.38L148.022 21.8562H156.698L158.247 25.6374ZM149.261 18.7206L152.422 11.189L155.397 18.7206H149.261ZM191.341 18.0443H193.881L200.14 25.6068H205.408L197.042 15.8924L204.354 6.82367H199.676L193.603 14.8779H191.341V6.82367H187.25V25.6068H191.341V18.0443ZM128.749 14.1709V9.99004H139.439V6.85441H124.658V25.6374H133.18C137.952 25.6374 140.709 23.4856 140.709 19.7351C140.709 16.1383 138.23 14.1709 133.706 14.1709H128.749ZM128.749 22.5019V17.3065H133.025C135.627 17.3065 136.836 18.1673 136.836 19.9196C136.836 21.6719 135.565 22.5325 133.025 22.5325H128.749V22.5019Z" fill="#21A038"/>
<path d="M28.6921 6.69346C29.4357 7.64646 30.0555 8.69167 30.5822 9.79836L16.2667 20.2811L10.2554 16.5308V12.0425L16.2357 15.7622L28.6921 6.69346Z" fill="#21A038"/>
<path d="M4.15468 16.2269C4.15468 16.0117 4.15468 15.8272 4.18566 15.612L0.560283 15.4276C0.560283 15.6735 0.529297 15.9502 0.529297 16.1961C0.529297 20.5 2.29551 24.4041 5.14622 27.2323L7.71807 24.6807C5.51806 22.5288 4.15468 19.5469 4.15468 16.2269Z" fill="url(#paint0_linear_1_60814)"/>
<path d="M16.2351 4.24051C16.452 4.24051 16.638 4.24051 16.8549 4.27126L17.0408 0.674498C16.7929 0.674498 16.514 0.643757 16.2661 0.643757C11.9281 0.643757 7.99281 2.39602 5.14209 5.22424L7.71394 7.77579C9.88296 5.59314 12.9196 4.24051 16.2351 4.24051Z" fill="url(#paint1_linear_1_60814)"/>
<path d="M16.2392 28.2175C16.0223 28.2175 15.8364 28.2175 15.6195 28.1868L15.4336 31.7836C15.6815 31.7836 15.9604 31.8142 16.2082 31.8142C20.5462 31.8142 24.4815 30.0621 27.3322 27.2338L24.7603 24.6823C22.5913 26.8956 19.5857 28.2175 16.2392 28.2175Z" fill="url(#paint2_linear_1_60814)"/>
<path d="M23.0572 6.33178L26.1247 4.08764C23.429 1.93573 19.9896 0.61385 16.2402 0.61385V4.2106C18.7811 4.24135 21.1361 5.00988 23.0572 6.33178Z" fill="url(#paint3_linear_1_60814)"/>
<path d="M31.98 16.2216C31.98 15.2686 31.887 14.3464 31.7321 13.4242L28.3546 15.9142C28.3546 16.0064 28.3546 16.1294 28.3546 16.2216C28.3546 19.7569 26.8052 22.9234 24.3574 25.1059L26.8052 27.7804C29.9658 24.9522 31.98 20.8022 31.98 16.2216Z" fill="#21A038"/>
<path d="M16.2372 28.2172C12.6738 28.2172 9.48224 26.6802 7.28223 24.2515L4.58643 26.6802C7.46814 29.8464 11.6203 31.8139 16.2372 31.8139V28.2172Z" fill="url(#paint4_linear_1_60814)"/>
<path d="M8.15189 7.34478L5.70399 4.67025C2.51242 7.52921 0.529297 11.6486 0.529297 16.2291H4.15468C4.15468 12.7245 5.70399 9.52742 8.15189 7.34478Z" fill="url(#paint5_linear_1_60814)"/>
<defs>
<linearGradient id="paint0_linear_1_60814" x1="4.75937" y1="26.7947" x2="1.15948" y2="16.1447" gradientUnits="userSpaceOnUse">
<stop offset="0.1444" stop-color="#F2E913"/>
<stop offset="0.3037" stop-color="#E7E518"/>
<stop offset="0.5823" stop-color="#CADB26"/>
<stop offset="0.891" stop-color="#A3CD39"/>
</linearGradient>
<linearGradient id="paint1_linear_1_60814" x1="6.1755" y1="4.81838" x2="15.5351" y2="1.16791" gradientUnits="userSpaceOnUse">
<stop offset="0.0592" stop-color="#0FA8E0"/>
<stop offset="0.5385" stop-color="#0099F9"/>
<stop offset="0.9234" stop-color="#0291EB"/>
</linearGradient>
<linearGradient id="paint2_linear_1_60814" x1="15.2207" y1="28.7554" x2="26.4066" y2="26.168" gradientUnits="userSpaceOnUse">
<stop offset="0.1226" stop-color="#A3CD39"/>
<stop offset="0.2846" stop-color="#86C339"/>
<stop offset="0.8693" stop-color="#21A038"/>
</linearGradient>
<linearGradient id="paint3_linear_1_60814" x1="15.4954" y1="2.90472" x2="24.7842" y2="5.83804" gradientUnits="userSpaceOnUse">
<stop offset="0.0566" stop-color="#0291EB"/>
<stop offset="0.79" stop-color="#0C8ACB"/>
</linearGradient>
<linearGradient id="paint4_linear_1_60814" x1="5.50823" y1="27.25" x2="15.4742" y2="31.0611" gradientUnits="userSpaceOnUse">
<stop offset="0.1324" stop-color="#F2E913"/>
<stop offset="0.2977" stop-color="#EBE716"/>
<stop offset="0.5306" stop-color="#D9E01F"/>
<stop offset="0.8023" stop-color="#BBD62D"/>
<stop offset="0.9829" stop-color="#A3CD39"/>
</linearGradient>
<linearGradient id="paint5_linear_1_60814" x1="3.30714" y1="16.6635" x2="7.20154" y2="6.295" gradientUnits="userSpaceOnUse">
<stop offset="0.0698" stop-color="#A3CD39"/>
<stop offset="0.2599" stop-color="#81C55F"/>
<stop offset="0.9216" stop-color="#0FA8E0"/>
</linearGradient>
</defs>
</svg>
