<svg width="254" height="42" viewBox="0 0 254 42" fill="none" xmlns="http://www.w3.org/2000/svg">
<g clip-path="url(#clip0_1_16)">
<path d="M113.661 12.34L118.92 8.48317H101.312V31.5864H118.92V27.7295H106.343V21.8308H117.091V17.974H106.343V12.34H113.661Z" fill="#21A038"/>
<path d="M88.0109 17.4824H81.9129V12.34H91.6699L96.9294 8.48317H76.882V31.5864H87.363C93.2325 31.5864 96.6244 28.9395 96.6244 24.3264C96.6244 19.9024 93.5754 17.4824 88.0109 17.4824ZM87.1724 27.7295H81.9129V21.3393H87.1724C90.374 21.3393 91.8605 22.398 91.8605 24.5533C91.8605 26.7086 90.2596 27.7295 87.1724 27.7295Z" fill="#21A038"/>
<path d="M133.171 8.48317H123.604V31.5864H128.635V25.0448H133.209C139.307 25.0448 143.118 21.8686 143.118 16.764C143.118 11.6594 139.307 8.48317 133.171 8.48317ZM133.056 21.188H128.597V12.34H133.056C136.296 12.34 138.049 13.9281 138.049 16.764C138.049 19.5999 136.296 21.188 133.056 21.188Z" fill="#21A038"/>
<path d="M68.2684 26.5896C66.9346 27.308 65.4482 27.6862 63.9236 27.6862C59.3882 27.6862 56.1104 24.4722 56.1104 20.0482C56.1104 15.6242 59.3882 12.4101 63.9236 12.4101C65.5623 12.3723 67.1632 12.9017 68.4972 13.847L72.1179 11.2001L71.8891 10.9733C69.793 9.12047 66.9726 8.17518 63.7712 8.17518C60.3028 8.17518 57.1394 9.34735 54.8527 11.4648C52.5658 13.6579 51.27 16.7207 51.3464 19.8969C51.3082 23.1109 52.5658 26.2116 54.8527 28.4801C57.2538 30.7113 60.4552 31.9589 63.733 31.8834C67.3537 31.8834 70.5171 30.6355 72.6515 28.3668L69.4119 25.9847L68.2684 26.5896Z" fill="#21A038"/>
<path d="M203.606 8.52099V31.6241H208.637V22.1711H219.346V31.6241H224.377V8.52099H219.346V18.0118H208.637V8.52099H203.606ZM194.954 31.6241H200.252L190.419 8.52099H185.312L175.288 31.6241H180.357L182.377 26.9732H193.049L194.954 31.6241ZM183.902 23.1164L187.789 13.8525L191.448 23.1164H183.902ZM235.659 22.2846H238.784L246.483 31.5864H252.962L242.672 19.6377L251.666 8.48317H245.912L238.441 18.3899H235.659V8.48317H230.628V31.5864H235.659V22.2846ZM158.671 17.5202V12.3778H171.82V8.52099H153.64V31.6241H164.121C169.99 31.6241 173.382 28.9774 173.382 24.3642C173.382 19.9402 170.333 17.5202 164.769 17.5202H158.671ZM158.671 27.7674V21.3771H163.93C167.132 21.3771 168.618 22.4358 168.618 24.5911C168.618 26.7465 167.056 27.805 163.93 27.805H158.671V27.7674Z" fill="#21A038"/>
<path d="M35.6013 8.32302C36.516 9.49521 37.2783 10.7808 37.9262 12.142L20.3181 25.0359L12.9242 20.4229V14.9023L20.28 19.4776L35.6013 8.32302Z" fill="#21A038"/>
<path d="M5.42095 20.0489C5.42095 19.7842 5.42095 19.5574 5.45906 19.2927L0.999844 19.0658C0.999844 19.3683 0.961731 19.7086 0.961731 20.0111C0.961731 25.3048 3.13417 30.1069 6.64055 33.5856L9.80392 30.4472C7.09791 27.8003 5.42095 24.1326 5.42095 20.0489Z" fill="url(#paint0_linear_1_16)"/>
<path d="M20.2794 5.30592C20.5462 5.30592 20.7749 5.30592 21.0416 5.34374L21.2703 0.919723C20.9654 0.919723 20.6224 0.881911 20.3175 0.881911C14.9817 0.881911 10.1413 3.0372 6.63495 6.5159L9.79832 9.65431C12.4662 6.96965 16.2013 5.30592 20.2794 5.30592Z" fill="url(#paint1_linear_1_16)"/>
<path d="M20.2844 34.7976C20.0176 34.7976 19.7889 34.7976 19.5221 34.7598L19.2935 39.1839C19.5984 39.1839 19.9414 39.2215 20.2463 39.2215C25.582 39.2215 30.4224 37.0664 33.9287 33.5876L30.7653 30.4492C28.0975 33.1716 24.4006 34.7976 20.2844 34.7976Z" fill="url(#paint2_linear_1_16)"/>
<path d="M28.6701 7.878L32.4432 5.11772C29.1274 2.47087 24.8969 0.844952 20.2852 0.844952V5.26896C23.4105 5.30677 26.3072 6.25207 28.6701 7.878Z" fill="url(#paint3_linear_1_16)"/>
<path d="M39.6461 20.0428C39.6461 18.8706 39.5317 17.7362 39.3412 16.6019L35.1869 19.6646C35.1869 19.7781 35.1869 19.9293 35.1869 20.0428C35.1869 24.3911 33.2811 28.2859 30.2703 30.9704L33.2811 34.2601C37.1686 30.7814 39.6461 25.6769 39.6461 20.0428Z" fill="#21A038"/>
<path d="M20.2817 34.7973C15.8987 34.7973 11.9731 32.9067 9.26707 29.9195L5.95123 32.9067C9.49574 36.8012 14.6029 39.2212 20.2817 39.2212V34.7973Z" fill="url(#paint4_linear_1_16)"/>
<path d="M10.3375 9.12411L7.3266 5.83443C3.40097 9.35096 0.961731 14.4178 0.961731 20.0518H5.42095C5.42095 15.7412 7.3266 11.8088 10.3375 9.12411Z" fill="url(#paint5_linear_1_16)"/>
</g>
<defs>
<linearGradient id="paint0_linear_1_16" x1="6.16472" y1="33.0473" x2="1.73685" y2="19.9479" gradientUnits="userSpaceOnUse">
<stop offset="0.1444" stop-color="#F2E913"/>
<stop offset="0.3037" stop-color="#E7E518"/>
<stop offset="0.5823" stop-color="#CADB26"/>
<stop offset="0.891" stop-color="#A3CD39"/>
</linearGradient>
<linearGradient id="paint1_linear_1_16" x1="7.90604" y1="6.01669" x2="19.4183" y2="1.52662" gradientUnits="userSpaceOnUse">
<stop offset="0.0592" stop-color="#0FA8E0"/>
<stop offset="0.5385" stop-color="#0099F9"/>
<stop offset="0.9234" stop-color="#0291EB"/>
</linearGradient>
<linearGradient id="paint2_linear_1_16" x1="19.0316" y1="35.4592" x2="32.7903" y2="32.2768" gradientUnits="userSpaceOnUse">
<stop offset="0.1226" stop-color="#A3CD39"/>
<stop offset="0.2846" stop-color="#86C339"/>
<stop offset="0.8693" stop-color="#21A038"/>
</linearGradient>
<linearGradient id="paint3_linear_1_16" x1="19.369" y1="3.66272" x2="30.7944" y2="7.2707" gradientUnits="userSpaceOnUse">
<stop offset="0.0566" stop-color="#0291EB"/>
<stop offset="0.79" stop-color="#0C8ACB"/>
</linearGradient>
<linearGradient id="paint4_linear_1_16" x1="7.08505" y1="33.6075" x2="19.3432" y2="38.2952" gradientUnits="userSpaceOnUse">
<stop offset="0.1324" stop-color="#F2E913"/>
<stop offset="0.2977" stop-color="#EBE716"/>
<stop offset="0.5306" stop-color="#D9E01F"/>
<stop offset="0.8023" stop-color="#BBD62D"/>
<stop offset="0.9829" stop-color="#A3CD39"/>
</linearGradient>
<linearGradient id="paint5_linear_1_16" x1="4.37848" y1="20.5861" x2="9.16859" y2="7.83288" gradientUnits="userSpaceOnUse">
<stop offset="0.0698" stop-color="#A3CD39"/>
<stop offset="0.2599" stop-color="#81C55F"/>
<stop offset="0.9216" stop-color="#0FA8E0"/>
</linearGradient>
<clipPath id="clip0_1_16">
<rect width="252.308" height="41" fill="white" transform="translate(0.846191 0.5)"/>
</clipPath>
</defs>
</svg>
