<svg width="31" height="24" viewBox="0 0 31 24" fill="none" xmlns="http://www.w3.org/2000/svg">
<path d="M5.0998 0H25.8998C27.1728 0 28.3937 0.505713 29.2939 1.40589C30.1941 2.30606 30.6998 3.52696 30.6998 4.8V19.2C30.6998 20.473 30.1941 21.6939 29.2939 22.5941C28.3937 23.4943 27.1728 24 25.8998 24H5.0998C3.82677 24 2.60587 23.4943 1.70569 22.5941C0.805518 21.6939 0.299805 20.473 0.299805 19.2V4.8C0.299805 3.52696 0.805518 2.30606 1.70569 1.40589C2.60587 0.505713 3.82677 0 5.0998 0ZM5.0998 1.6C4.2998 1.6 3.5958 1.872 3.0518 2.352L15.4998 10.4L27.9478 2.352C27.4038 1.872 26.6998 1.6 25.8998 1.6H5.0998ZM15.4998 12.336L2.1078 3.648C1.9798 4 1.8998 4.4 1.8998 4.8V19.2C1.8998 20.0487 2.23695 20.8626 2.83706 21.4627C3.43718 22.0629 4.25111 22.4 5.0998 22.4H25.8998C26.7485 22.4 27.5624 22.0629 28.1625 21.4627C28.7627 20.8626 29.0998 20.0487 29.0998 19.2V4.8C29.0998 4.4 29.0198 4 28.8918 3.648L15.4998 12.336Z" fill="black"/>
</svg>
