<svg width="25" height="24" viewBox="0 0 25 24" fill="none" xmlns="http://www.w3.org/2000/svg">
<path d="M23.0721 24C23.5746 24 24.0565 23.8004 24.4118 23.445C24.7672 23.0897 24.9668 22.6078 24.9668 22.1053V17.6842C24.9668 17.1817 24.7672 16.6998 24.4118 16.3444C24.0565 15.9891 23.5746 15.7895 23.0721 15.7895C21.5942 15.7895 20.1415 15.5621 18.7521 15.0947C18.4199 14.9899 18.0653 14.978 17.7268 15.0604C17.3883 15.1428 17.0789 15.3163 16.8321 15.5621L15.0131 17.3811C11.8707 15.6662 9.28796 13.0835 7.57311 9.94105L9.37943 8.13474C9.89732 7.6421 10.0868 6.90947 9.85943 6.20211C9.40469 4.82526 9.17732 3.37263 9.17732 1.89474C9.17732 1.39222 8.9777 0.910288 8.62237 0.554956C8.26704 0.199624 7.7851 0 7.28259 0H2.86153C2.35902 0 1.87708 0.199624 1.52175 0.554956C1.16642 0.910288 0.966797 1.39222 0.966797 1.89474C0.966797 14.0842 10.8826 24 23.0721 24ZM2.86153 1.26316H7.28259C7.45009 1.26316 7.61074 1.3297 7.72918 1.44814C7.84762 1.56659 7.91417 1.72723 7.91417 1.89474C7.91417 3.51158 8.1668 5.09053 8.65943 6.59368C8.72259 6.77053 8.70995 7.02316 8.50785 7.22526L6.01943 9.70105C8.10364 13.7811 11.1605 16.8379 15.2531 18.9474L17.7163 16.4589C17.8931 16.2821 18.1331 16.2316 18.3605 16.2947C19.8763 16.8 21.4552 17.0526 23.0721 17.0526C23.2396 17.0526 23.4002 17.1192 23.5187 17.2376C23.6371 17.3561 23.7036 17.5167 23.7036 17.6842V22.1053C23.7036 22.2728 23.6371 22.4334 23.5187 22.5519C23.4002 22.6703 23.2396 22.7368 23.0721 22.7368C11.5773 22.7368 2.22995 13.3895 2.22995 1.89474C2.22995 1.72723 2.2965 1.56659 2.41494 1.44814C2.53338 1.3297 2.69403 1.26316 2.86153 1.26316Z" fill="black"/>
</svg>
