<svg width="29" height="28" viewBox="0 0 29 28" fill="none" xmlns="http://www.w3.org/2000/svg">
<rect x="0.5" width="28" height="28" rx="14" fill="#17384B"/>
<path d="M21.9529 6.87345C21.9366 6.80912 21.904 6.75007 21.8583 6.70195C21.8126 6.65383 21.7553 6.61827 21.6919 6.59866C21.4554 6.55189 21.2107 6.56896 20.9829 6.64812C20.9829 6.64812 5.22365 12.3143 4.32234 12.9408C4.12724 13.0755 4.06405 13.1552 4.03108 13.2459C3.87445 13.6938 4.36081 13.8916 4.36081 13.8916L8.42224 15.2134C8.48994 15.2299 8.56063 15.2299 8.62833 15.2134C9.55163 14.628 17.9245 9.34107 18.4081 9.16795C18.4851 9.14597 18.5401 9.16795 18.5263 9.22566C18.3312 9.90164 11.0602 16.3702 11.0602 16.3702C11.0419 16.3931 11.0262 16.418 11.0135 16.4444L10.6343 20.4756C10.6343 20.4756 10.4749 21.7094 11.7115 20.4756C12.5798 19.6045 13.4234 18.8763 13.8466 18.5218C15.2425 19.4836 16.7457 20.5525 17.3942 21.1104C17.5033 21.2157 17.6326 21.298 17.7742 21.3523C17.9158 21.4066 18.067 21.4318 18.2185 21.4264C18.8341 21.4044 19.0072 20.7284 19.0072 20.7284C19.0072 20.7284 21.8787 9.16795 21.9749 7.62088C21.9749 7.46699 21.9969 7.37082 21.9997 7.2664C22.0025 7.13388 21.9868 7.00161 21.9529 6.87345Z" fill="white"/>
</svg>
