<svg width="25" height="24" viewBox="0 0 25 24" fill="none" xmlns="http://www.w3.org/2000/svg">
<path fill-rule="evenodd" clip-rule="evenodd" d="M17.0758 2.87712C15.7034 2.2023 14.1941 1.85201 12.6647 1.85333H12.6603C10.889 1.85352 9.14962 2.32524 7.62093 3.22004C6.09224 4.11484 4.8293 5.40047 3.96186 6.94484C3.09442 8.48922 2.65376 10.2367 2.68511 12.0077C2.71646 13.7787 3.21869 15.5095 4.14024 17.0222L4.58469 17.7778L4.29139 18.6089L3.40251 21.1778L6.26025 20.3244L7.02024 20.0933L7.71359 20.4889C9.04068 21.2491 10.5248 21.6941 12.0512 21.7895C13.5776 21.8848 15.1055 21.628 16.5169 21.0389C17.9283 20.4497 19.1854 19.544 20.191 18.3917C21.1966 17.2393 21.9239 15.8713 22.3166 14.3931C22.7093 12.915 22.7569 11.3664 22.4558 9.86689C22.1548 8.36741 21.513 6.9572 20.5802 5.74523C19.6473 4.53326 18.4483 3.55195 17.0758 2.87712ZM6.68283 1.62031C8.4961 0.559044 10.5593 -0.000220981 12.6603 7.20176e-07H12.6647C14.4779 -0.000631873 16.2669 0.41549 17.8937 1.21623C19.5205 2.01697 20.9414 3.1809 22.0469 4.61813C23.1523 6.05536 23.9126 7.72744 24.2691 9.50523C24.6255 11.283 24.5686 13.119 24.1027 14.8712C23.6368 16.6235 22.7743 18.2453 21.582 19.6113C20.3896 20.9773 18.8993 22.0509 17.226 22.7493C15.5528 23.4477 13.7413 23.7522 11.9317 23.6392C10.122 23.5263 8.36259 22.9989 6.78917 22.0978L0.433594 24L2.55805 17.9911C1.46414 16.1973 0.867609 14.1446 0.829807 12.044C0.792005 9.94332 1.31427 7.87048 2.34294 6.03852C3.3716 4.20656 4.86957 2.68158 6.68283 1.62031ZM10.2724 14.7778C11.8902 16.1911 15.1701 17.6222 16.739 17.5245C16.739 17.5245 19.0101 15.8089 18.9613 15.0267C18.9124 14.2445 16.4146 12.0311 15.6769 12.8667C15.3947 13.1862 15.2283 13.498 15.0863 13.7639C14.857 14.1933 14.6916 14.5032 14.2057 14.5334C13.4191 14.5822 12.5746 13.8489 11.7524 13.1111L11.7149 13.0775C10.9048 12.3508 10.0894 11.6193 10.0413 10.8534C10.0111 10.3725 10.3003 10.1668 10.6988 9.88343C10.9448 9.70849 11.2325 9.50392 11.5124 9.18669C12.2458 8.35558 9.76571 6.15113 8.96571 6.20002C8.16571 6.24891 6.74349 8.6978 6.74349 8.6978C6.84127 10.2622 8.65463 13.3645 10.2724 14.7778Z" fill="#17384B"/>
</svg>
