<svg width="169" height="48" viewBox="0 0 169 48" fill="none" xmlns="http://www.w3.org/2000/svg">
<g clip-path="url(#clip0_23_762)">
<path d="M124.621 36.3577C118.85 36.3577 115.263 33.013 115.263 27.6217C115.263 22.0265 118.573 18.5454 123.901 18.5454H124.348C125.016 18.5454 125.937 18.5672 127.194 18.7243V11.9705H130.958V35.749C130.958 35.749 127.381 36.3577 124.621 36.3577ZM124.587 21.5105C120.941 21.5105 119.168 23.4796 119.168 27.5279C119.168 31.1628 121.307 33.4221 124.744 33.4221C125.405 33.4221 126.161 33.3785 127.193 33.2901V21.7526C126.162 21.5868 125.331 21.5105 124.587 21.5105ZM73.0647 35.8123L62.8974 18.0599L62.8942 35.8123H59.3506V13.3385H64.3116L74.4788 30.9326L74.4745 13.3385H78.0649V35.8123H73.0647ZM105.451 36.1581C103.739 36.1581 101.954 35.9661 99.8288 35.557L99.5988 35.5134V32.3737L99.9346 32.4457C101.809 32.8461 103.427 33.1876 105.046 33.1876C106.353 33.1876 109.399 32.9825 109.399 31.057C109.399 29.4425 107.294 29.0366 105.604 28.7126L105.497 28.6908C105.181 28.6319 104.884 28.5719 104.633 28.5086C102.153 27.865 99.5083 26.8974 99.5083 23.5734C99.5083 20.3312 102.073 18.4734 106.545 18.4734C108.692 18.4734 110.25 18.7025 111.503 18.8901L112.111 18.9796V22.0265L111.788 21.9675C110.37 21.7068 108.708 21.4385 107.111 21.4385C105.335 21.4385 103.227 21.7712 103.227 23.3519C103.227 24.6643 104.952 25.0395 106.95 25.4748C109.743 26.0792 113.206 26.8385 113.206 30.6523C113.206 34.1508 110.382 36.1581 105.451 36.1581ZM141.524 36.1581C137.628 36.1581 134.02 35.4708 134.02 30.4941C134.02 25.0777 139.599 25.0777 142.935 25.0777C143.266 25.0777 144.834 25.1508 145.315 25.1715C145.311 22.1334 145.272 21.409 140.869 21.409C139.123 21.409 137.184 21.7537 135.473 22.0614L135.145 22.1203V19.1203L135.366 19.0734C137.35 18.6697 139.264 18.4734 141.214 18.4734C145.482 18.4734 149.097 18.9032 149.097 24.2006V35.7534L148.838 35.7828C145.882 36.1145 143.534 36.1581 141.524 36.1581ZM142.841 27.7581C139.625 27.7581 137.631 28.2316 137.631 30.5879C137.631 33.3152 140.174 33.541 142.56 33.541C143.449 33.541 145.051 33.4265 145.541 33.3916V27.8519C144.852 27.8225 143.058 27.7581 142.841 27.7581ZM88.7119 36.1581C84.8107 36.1581 81.204 35.4708 81.204 30.4941C81.204 25.0777 86.7831 25.0777 90.1173 25.0777C90.4499 25.0777 92.021 25.1508 92.503 25.1715C92.4986 22.1334 92.4561 21.409 88.0523 21.409C86.3056 21.409 84.367 21.7537 82.6552 22.0614L82.3281 22.1203V19.1203L82.5538 19.0734C84.4764 18.6756 86.4346 18.4746 88.3979 18.4734C92.6643 18.4734 96.2809 18.9032 96.2809 24.2006V35.7534L96.0204 35.7828C93.0656 36.1145 90.7181 36.1581 88.7119 36.1581ZM90.0236 27.7581C86.8082 27.7581 84.8195 28.2316 84.8195 30.5879C84.8195 33.3152 87.3577 33.541 89.7434 33.541C90.6374 33.541 92.2391 33.4265 92.7287 33.3916V27.8519C92.0341 27.8225 90.2406 27.7581 90.0236 27.7581Z" fill="#231F20"/>
<mask id="mask0_23_762" style="mask-type:luminance" maskUnits="userSpaceOnUse" x="151" y="17" width="17" height="27">
<path d="M151.555 17.4543H167.939V43.6362H151.555V17.4543Z" fill="white"/>
</mask>
<g mask="url(#mask0_23_762)">
<path d="M164.085 43.4486V36.0763C162.616 36.2813 161.837 36.2813 161.206 36.2813C159.715 36.2813 158.059 35.9573 156.776 35.4163C153.906 34.2217 152.194 31.189 152.194 27.2977C152.194 25.3559 152.667 21.805 155.831 19.8915C157.42 18.9424 159.294 18.5366 162.114 18.5366C163.122 18.5366 164.485 18.613 165.801 18.6893L167.939 18.8006V41.7403L164.085 43.4486ZM161.832 21.5028C158.007 21.5017 156.069 23.4544 156.069 27.2977C156.069 32.2461 158.96 33.2857 161.392 33.2857C161.984 33.2857 162.649 33.2857 164.122 33.0981V21.6097C162.968 21.5333 162.436 21.5028 161.832 21.5028Z" fill="#231F20"/>
</g>
<mask id="mask1_23_762" style="mask-type:luminance" maskUnits="userSpaceOnUse" x="27" y="0" width="30" height="36">
<path d="M27.2581 0.017334H56.6968V35.9999H27.2581V0.017334Z" fill="white"/>
</mask>
<g mask="url(#mask1_23_762)">
<path d="M42.5357 0.017334L30.0864 34.2392C29.9324 34.6605 29.663 35.03 29.309 35.3053C28.955 35.5806 28.5306 35.7506 28.0845 35.7959V35.8122H41.2447C42.2751 35.8122 43.1572 35.1566 43.4853 34.2402L55.939 0.017334H42.5357Z" fill="#0996C7"/>
</g>
<path d="M27.0106 35.293C27.7738 35.293 28.4422 34.9134 28.851 34.3385C28.8935 34.2785 29.0429 34.069 29.1487 33.7843L33.715 21.2257L31.0437 13.8915C30.8881 13.5202 30.636 13.1971 30.3137 12.956C29.9914 12.7149 29.6104 12.5643 29.2104 12.52C28.8103 12.4758 28.4057 12.5393 28.0385 12.7041C27.6713 12.8689 27.3548 13.129 27.1218 13.4574C27.0782 13.5174 26.9004 13.7846 26.8241 14.0115L22.2578 26.5657L24.9411 33.9294C25.1152 34.3341 25.4039 34.6789 25.7717 34.9213C26.1395 35.1636 26.5702 35.2929 27.0106 35.293Z" fill="#0996C7"/>
<mask id="mask2_23_762" style="mask-type:luminance" maskUnits="userSpaceOnUse" x="-2" y="10" width="31" height="38">
<path d="M-1.09033 10.9089H28.3484V47.7784H-1.09033V10.9089Z" fill="white"/>
</mask>
<g mask="url(#mask2_23_762)">
<path d="M27.9864 11.9824H14.6812C13.6508 11.9824 12.7687 12.6348 12.4362 13.5555L-0.0131226 47.7773H13.3902L25.8406 13.5566C26.0021 13.1114 26.2924 12.7244 26.6746 12.4448C27.0567 12.1652 27.5134 12.0058 27.9864 11.9868V11.9824Z" fill="#0996C7"/>
</g>
</g>
<defs>
<clipPath id="clip0_23_762">
<rect width="169" height="48" fill="white"/>
</clipPath>
</defs>
</svg>
