<svg width="218" height="48" viewBox="0 0 218 48" fill="none" xmlns="http://www.w3.org/2000/svg">
<path d="M21.3219 45.7451C21.3219 45.7451 1.77405 39.8878 1.77405 11.1396V0.0981445H40.9365V11.1396C40.8698 38.945 21.3219 45.7451 21.3219 45.7451Z" fill="#4FB84F"/>
<path d="M32.597 11.2734H16.8519V20.4297H32.597V23.19C32.597 27.8355 31.3293 31.5385 24.3241 31.6057H16.8519V43.6572C19.4538 45.273 21.3219 45.8115 21.3219 45.8115C21.3219 45.8115 40.8698 38.9443 40.8698 11.2061V2.92505C40.8698 7.50318 38.8683 11.1388 32.597 11.2734Z" fill="#045433"/>
<path d="M51.811 31.5394V11.8804H63.7533V13.3616C63.7533 14.8427 62.5522 16.0546 61.0847 16.0546H56.5479V20.1615H62.4857V21.5754C62.4857 23.0565 61.2846 24.3355 59.7501 24.3355H56.4811V31.6069H51.811V31.5394Z" fill="#6B7280"/>
<path d="M71.2254 20.7675H73.2936C74.0942 20.7675 74.6946 20.5654 75.0948 20.1615C75.5618 19.7575 75.762 19.1515 75.762 18.3436C75.762 17.2665 75.3616 16.5931 74.6278 16.2565C74.2276 16.0546 73.6273 15.9873 72.8266 15.9873H71.2254V20.7675ZM66.4218 31.5394V11.8804H73.2267C74.9614 11.8804 76.229 12.015 77.0297 12.3517C78.1639 12.823 79.0311 13.4962 79.6983 14.5061C80.3652 15.516 80.6323 16.6604 80.6323 18.0743C80.6323 19.1515 80.3655 20.2288 79.8986 21.2386C79.3647 22.2485 78.6975 22.9891 77.7635 23.4604V23.5278C77.9637 23.797 78.1639 24.1337 78.4973 24.7397L82.3001 31.6069H76.9628L73.4935 24.9415H71.2254V31.6069H66.4218V31.5394Z" fill="#6B7280"/>
<path d="M84.3685 31.5394V11.8804H96.5775V15.9873H89.1722V19.5554H95.11V23.6624H89.1722V27.4327H96.978V31.5394H84.3685Z" fill="#6B7280"/>
<path d="M100.047 31.5394V11.8804H112.256V15.9873H104.851V19.5554H110.788V23.6624H104.851V27.4327H112.656V31.5394H100.047Z" fill="#6B7280"/>
<path d="M120.462 27.4327H122.397C124.065 27.4327 125.399 26.9614 126.333 25.9516C127.267 24.9415 127.734 23.5278 127.734 21.7099C127.734 19.8922 127.267 18.4783 126.333 17.4685C125.399 16.5259 124.065 15.9873 122.464 15.9873H120.462V27.4327ZM115.725 31.5394V11.8804H122.664C125.733 11.8804 128.201 12.7556 130.002 14.5061C131.804 16.2565 132.738 18.613 132.738 21.7099C132.738 24.8069 131.804 27.2307 130.002 28.981C128.201 30.7317 125.733 31.6069 122.664 31.6069H115.725V31.5394Z" fill="#6B7280"/>
<path d="M139.676 21.5754C139.676 23.2585 140.143 24.6724 141.144 25.8169C142.145 26.9614 143.412 27.5001 144.947 27.5001C146.481 27.5001 147.749 26.9614 148.75 25.8169C149.75 24.6724 150.217 23.3259 150.217 21.5754C150.217 19.9596 149.75 18.613 148.75 17.5359C147.749 16.4586 146.481 15.9201 144.947 15.9201C143.412 15.9201 142.145 16.4586 141.144 17.5359C140.21 18.613 139.676 19.9596 139.676 21.5754ZM134.739 21.5754C134.739 18.6804 135.673 16.324 137.608 14.3716C139.543 12.4864 141.945 11.4766 144.947 11.4766C147.949 11.4766 150.35 12.4191 152.286 14.3716C154.221 16.324 155.154 18.6804 155.154 21.5754C155.154 24.5379 154.221 26.9614 152.286 28.9138C150.35 30.8662 147.949 31.8763 144.947 31.8763C141.945 31.8763 139.543 30.8662 137.608 28.9138C135.74 26.9614 134.739 24.5379 134.739 21.5754Z" fill="#6B7280"/>
<path d="M157.422 31.5394L159.024 11.8804H164.228L167.097 20.1615L168.097 23.3932H168.164C168.498 22.0466 168.831 20.9694 169.166 20.1615L172.034 11.8804H177.238L178.838 31.5394H174.035L173.434 22.6525C173.367 22.1812 173.367 21.7099 173.367 21.1714C173.367 20.6328 173.367 20.1614 173.367 19.8248V19.3536H173.3C172.834 20.7001 172.501 21.8446 172.233 22.6525L170.166 28.3752H166.096L164.027 22.6525L162.96 19.3536H162.893C162.96 20.5654 162.96 21.6426 162.893 22.6525L162.293 31.5394H157.422Z" fill="#6B7280"/>
<path d="M186.377 31.4049C186.245 30.5968 186.178 29.9237 186.178 29.3177C186.178 28.1733 186.377 27.1633 186.778 26.2208C187.178 25.2782 187.712 24.4705 188.312 23.8645C188.913 23.2585 189.58 22.6525 190.314 22.1138C191.048 21.5753 191.714 21.1041 192.315 20.7001C192.915 20.2962 193.449 19.8922 193.85 19.4883C194.25 19.017 194.45 18.613 194.45 18.209C194.45 17.603 194.25 17.1318 193.85 16.7952C193.449 16.4586 192.982 16.3239 192.382 16.3239C191.781 16.3239 191.247 16.5259 190.781 16.9299C190.314 17.3338 189.847 17.8051 189.58 18.411L186.111 16.0546C186.711 14.8427 187.645 13.8328 188.779 13.0249C189.913 12.217 191.314 11.8804 192.915 11.8804C194.65 11.8804 196.185 12.419 197.52 13.4289C198.853 14.4388 199.453 15.9199 199.453 17.8051C199.453 18.9496 199.187 19.9596 198.654 20.8347C198.12 21.7773 197.453 22.5178 196.719 23.1237C195.917 23.7297 195.185 24.2683 194.384 24.7397C193.582 25.2111 192.915 25.682 192.382 26.1533C191.781 26.6247 191.515 27.0961 191.448 27.4999H199.721V31.5394H186.377V31.4049Z" fill="#4FB84F"/>
<path d="M201.589 26.7582V23.8633L208.994 12.0813H214.731V22.786H217.001V26.691H214.731V31.3365H210.128V26.691H201.589V26.7582ZM206.326 22.8534H210.061V18.5446L210.195 16.3902H210.128C209.862 17.1981 209.528 17.8713 209.195 18.4099L206.326 22.8534Z" fill="#4FB84F"/>
</svg>
