<svg width="189" height="48" viewBox="0 0 189 48" fill="none" xmlns="http://www.w3.org/2000/svg">
<path d="M170.749 6.41553H18.3657V10.2822H170.749V6.41553Z" fill="#020303"/>
<path d="M170.749 38.4533C169.303 38.7533 167.73 38.8044 166.421 38.02C165.13 37.2489 164.733 35.8533 164.733 34.4333V16.6333H168.58V33.8C168.58 34.2844 168.672 34.8911 169.151 35.1466C169.638 35.4044 170.226 35.28 170.751 35.28V38.4533H170.749ZM157.265 31.5022L153.234 31.8022C152.163 31.8777 151.061 32.5 150.955 33.6422C150.848 34.8111 151.748 35.6711 152.888 35.8066C153.959 35.9266 155.169 35.6377 156.028 34.9844C156.906 34.32 157.265 33.2955 157.265 32.2244V31.5022ZM162.363 38.3022C160.628 39.0511 158.026 38.84 157.786 36.5155C156.374 38.9978 152.574 39.4066 150.161 38.3444C148.812 37.7511 147.781 36.6555 147.393 35.2333C146.998 33.7889 147.272 32.1866 148.221 31.0133C149.281 29.7133 150.96 29.1533 152.596 29.0222L157.267 28.6889V27.7222C157.267 27.0289 157.106 26.1933 156.536 25.7244C156.051 25.3311 155.348 25.2578 154.744 25.2444C153.247 25.2089 151.77 25.8089 151.678 27.48H147.986C148.084 26.0533 148.643 24.6933 149.786 23.7822C150.886 22.9 152.313 22.5155 153.703 22.4066C156.383 22.1955 159.458 22.8533 160.531 25.5733C160.935 26.58 160.989 27.6777 160.989 28.7466V34.5822C160.989 35.2733 161.447 35.8 162.21 35.5489C162.273 35.5489 162.322 35.54 162.365 35.5155V38.3022H162.363ZM141.544 30.5933C141.544 29.2733 141.368 27.8622 140.536 26.7889C139.723 25.8155 138.567 25.4111 137.317 25.5933C136.111 25.7689 135.25 26.62 134.812 27.7155C134.338 28.9044 134.291 30.3155 134.417 31.5755C134.538 32.7844 134.805 34.0289 135.739 34.8866C137.131 36.1644 139.375 35.8244 140.533 34.4333C141.375 33.3489 141.544 31.92 141.544 30.5933ZM145.42 30.6555C145.42 33.2222 144.664 35.8489 142.581 37.5133C140.3 39.4 135.999 39.4289 134.278 36.76L134.033 38.48H130.736V16.66H134.554V23.9133C135.445 22.8355 137.003 22.4333 138.352 22.3778C139.865 22.32 141.395 22.6644 142.581 23.6422C144.473 25.1955 145.42 27.5311 145.42 30.6555ZM123.936 30.6266C123.936 29.2489 123.788 27.7244 122.805 26.6644C121.557 25.3355 119.232 25.3355 117.984 26.6644C117 27.7244 116.852 29.2489 116.855 30.6266C116.855 32.0022 117 33.5266 117.984 34.5844C119.227 35.9177 121.562 35.9133 122.805 34.5844C123.788 33.5266 123.936 32 123.936 30.6266ZM127.813 30.6266C127.813 32.7511 127.29 34.7355 125.95 36.4289C123.252 39.6911 117.535 39.6911 114.837 36.4289C112.282 33.2022 112.282 28.0444 114.837 24.8222C117.535 21.5578 123.252 21.5578 125.95 24.8222C127.29 26.5178 127.813 28.4978 127.813 30.6266ZM111.613 38.4533C110.188 38.7489 108.648 38.8044 107.344 38.0555C106.015 37.2889 105.6 35.8822 105.6 34.4333V16.6333H109.447V33.8C109.447 34.2844 109.539 34.8911 110.013 35.1466C110.5 35.4044 111.088 35.28 111.613 35.28V38.4533ZM99.5281 38.4822L99.0701 36.1266C97.9972 38.1111 95.4114 38.9244 93.2767 38.8711C90.9894 38.8133 88.7874 38.18 87.1914 36.4889C84.9041 34.1422 84.3879 30.9266 84.3834 27.7866C84.3834 24.64 84.848 21.4911 87.1914 19.1711C90.5045 15.8933 96.7357 15.7444 100.047 19.1089C101.205 20.3044 101.923 21.7733 102.029 23.4333H98.0017C97.9254 22.6644 97.5281 22.0622 97.0567 21.4689C95.3755 19.5377 91.7211 19.8244 90.0668 21.6177C88.5158 23.2377 88.3789 25.7533 88.3856 27.8577C88.3946 29.9266 88.5809 32.4577 90.096 34.0422C91.7256 35.8111 95.1644 35.9155 96.8435 34.1622C97.9658 33.0111 98.2464 31.5422 98.2464 29.9911H93.0881V26.7555H102.062V38.4822H99.5281ZM72.4485 23.9444C72.4485 22.96 72.1298 21.9466 71.3666 21.2755C70.6304 20.6311 69.5866 20.4711 68.6349 20.4711H64.2084V27.3911H68.6349C69.5821 27.3911 70.6259 27.2377 71.3666 26.5955C72.1343 25.9333 72.4485 24.9266 72.4485 23.9444ZM76.4193 23.9133C76.4193 25.8555 75.7818 27.8066 74.26 29.0977C72.7561 30.3755 70.7224 30.8044 68.7875 30.8044H64.2106V38.48H60.3049V17.0533H68.7897C70.7246 17.0533 72.7516 17.4822 74.2622 18.7466C75.7863 20.0266 76.4193 21.9822 76.4193 23.9133ZM47.8045 22.04C47.8045 21.1333 47.3937 20.3289 46.5385 19.9422C45.6608 19.5444 44.5475 19.6622 43.7731 20.2289C43.0166 20.7866 42.8191 21.8177 43.0907 22.6844C43.4229 23.7311 44.2646 24.4933 45.0256 25.2444C46.3432 24.5111 47.8045 23.7422 47.8045 22.04ZM44.0177 29.0222C43.0009 29.6422 41.9055 30.2822 41.5666 31.5022C41.2635 32.6 41.5441 33.8444 42.3522 34.6622C43.9751 36.3044 47.4476 36.1289 48.9649 34.4311L44.0177 29.0222ZM52.7809 38.5111L51.2545 36.82C48.7135 39.0422 44.8146 39.7466 41.7012 38.3355C38.7091 36.9866 37.1558 33.5266 38.3051 30.4289C38.9044 28.8066 40.3387 27.5511 41.791 26.6644C40.3298 25.1333 39.2546 23.4644 39.5127 21.2755C39.7439 19.3689 41.057 17.7333 42.8595 17.0466C44.7854 16.3133 47.1849 16.4511 48.9537 17.5355C50.6709 18.5844 51.5081 20.4377 51.3555 22.4066C51.1714 24.8577 49.2994 26.4666 47.2837 27.6333L51.039 31.6844C51.4632 30.8933 51.5171 29.9355 51.5889 29.0555C51.6608 28.18 51.6473 27.3066 51.6473 26.4266H57.2387V29.42H54.7337C54.6551 31.0889 54.3656 32.8044 53.4228 34.2222L57.4206 38.5133H52.7809V38.5111ZM35.7372 32.1044C35.7372 33.7889 35.1513 35.3755 33.937 36.5777C32.2423 38.2555 29.7911 38.8133 27.4634 38.8711C25.0077 38.9289 22.478 38.3333 20.6284 36.6689C19.2098 35.3978 18.368 33.5733 18.368 31.68H22.3994C22.3994 32.66 22.8282 33.6178 23.5285 34.3089C24.4937 35.2644 25.9482 35.4689 27.2546 35.4555C28.5116 35.4466 30.0021 35.26 30.9134 34.3089C31.8943 33.26 32.2243 31.4066 30.9291 30.4422C29.5823 29.4377 27.6609 29.5044 26.0605 29.3533C24.3949 29.1977 22.6868 28.92 21.2906 27.9355C19.9617 26.9977 19.129 25.5311 18.9539 23.9289C18.7496 22.0222 19.4432 20.2755 20.8057 18.9266C22.3748 17.3733 24.7114 16.7111 26.8843 16.6622C29.1155 16.6133 31.5374 17.1911 33.2007 18.7444C34.4914 19.9444 35.3601 21.5378 35.3982 23.3089H31.3691C31.3264 22.5266 30.9538 21.7644 30.4218 21.1933C29.6025 20.3333 28.1907 20.0333 27.0414 20.0422C25.8181 20.0555 24.4915 20.3133 23.616 21.2222C22.5655 22.3533 22.5902 24.2911 24.0627 25.0466C24.8035 25.4244 25.7081 25.4533 26.5206 25.5422C27.423 25.6422 28.3276 25.7177 29.2322 25.8311C30.9381 26.0489 32.6351 26.5444 33.919 27.74C35.1424 28.8755 35.7372 30.4689 35.7372 32.1044Z" fill="#D6222E"/>
</svg>
