<svg width="114" height="46" viewBox="0 0 114 46" fill="none" xmlns="http://www.w3.org/2000/svg">
<path d="M42.3795 34.3696C41.5598 34.3696 40.997 34.76 40.69 35.5398C40.5293 35.9472 40.4501 36.4456 40.4501 37.0357H39.4915V37.4106H40.4501V41.007C40.4501 41.4213 40.3864 41.6927 40.2615 41.8214C40.1366 41.9508 39.8765 42.0251 39.4803 42.0434V42.2007H42.4722V42.0434C41.9899 42.0098 41.6918 41.935 41.5783 41.8169C41.464 41.6996 41.4076 41.4289 41.4076 41.007V37.4106H42.8025V37.0357H41.4076V35.7083C41.4076 35.4653 41.4356 35.2696 41.4912 35.1204C41.5918 34.8401 41.7833 34.6998 42.066 34.6998C42.1924 34.6998 42.2897 34.7268 42.3606 34.7801C42.4306 34.835 42.4929 34.9014 42.5447 34.9798L42.6395 35.126C42.747 35.2905 42.8401 35.4048 42.9185 35.4695C42.9962 35.535 43.0893 35.5677 43.1975 35.5677C43.324 35.5677 43.4309 35.5194 43.52 35.4227C43.6091 35.3252 43.655 35.2159 43.655 35.0925C43.655 34.8724 43.5242 34.6958 43.2645 34.5648C43.0039 34.4346 42.7086 34.3696 42.3795 34.3696ZM9.50859 34.3808C9.34404 34.3808 9.20621 34.4387 9.09346 34.5537C8.98148 34.6687 8.92607 34.8061 8.92607 34.9653C8.92607 35.1252 8.98149 35.2623 9.09346 35.3758C9.20621 35.4885 9.34404 35.5454 9.50859 35.5454C9.66933 35.5454 9.8061 35.4885 9.92037 35.3758C10.0339 35.2623 10.0911 35.1252 10.0911 34.9653C10.0911 34.8023 10.0339 34.6638 9.92037 34.5503C9.8061 34.4369 9.66933 34.3808 9.50859 34.3808ZM1.95483 34.6094V34.8236C2.38069 34.8533 2.65498 34.9308 2.7784 35.0557C2.90181 35.1806 2.96364 35.4466 2.96364 35.8533V40.823C2.96364 41.3172 2.90708 41.6226 2.79736 41.7399C2.6869 41.8572 2.40659 41.9388 1.95483 41.9876V42.2006H5.16537V41.9876C4.73191 41.954 4.45047 41.8784 4.32173 41.7611C4.19222 41.6446 4.12867 41.3764 4.12867 40.9568V38.4469H5.79365C6.27892 38.4469 6.58914 38.5194 6.72322 38.6633C6.85806 38.8072 6.96745 39.1009 7.05354 39.5457H7.32247V36.8952H7.05354C6.97202 37.3376 6.86288 37.631 6.7288 37.7764C6.59396 37.9211 6.28273 37.994 5.79365 37.994H4.12867V35.4338C4.12867 35.2808 4.14999 35.1785 4.1934 35.1259C4.23608 35.0741 4.33412 35.0467 4.48801 35.0467H6.06259C6.70098 35.0467 7.12768 35.1171 7.3448 35.2565C7.56115 35.3958 7.70935 35.7276 7.78782 36.2515H8.10698L8.0679 34.6094H1.95483ZM54.7285 34.6094V34.8236C55.1535 34.8533 55.4286 34.9308 55.552 35.0557C55.6747 35.1806 55.7361 35.4466 55.7361 35.8533V40.9568C55.7361 41.3879 55.6736 41.6553 55.5487 41.7611C55.4237 41.867 55.1497 41.9426 54.7285 41.9876V42.2006H60.9308L61.4519 40.2618H61.1328C60.8372 40.9152 60.505 41.328 60.134 41.4979C59.7638 41.6677 59.1888 41.7522 58.411 41.7522C57.6926 41.7522 57.2616 41.732 57.1177 41.6908C56.9737 41.6497 56.9012 41.5147 56.9012 41.287V38.4469H58.6733C59.1585 38.4469 59.468 38.5194 59.6028 38.6633C59.7369 38.8072 59.8471 39.1009 59.9332 39.5457H60.2021V36.8952H59.9332C59.8509 37.3376 59.7433 37.631 59.6084 37.7764C59.4743 37.9211 59.1624 37.994 58.6733 37.994H56.9012V35.4338C56.9012 35.2838 56.9218 35.1822 56.9614 35.1282C57.0003 35.0741 57.1044 35.0467 57.2728 35.0467H58.8351C59.5078 35.0467 59.9409 35.1213 60.1351 35.2698C60.3302 35.4183 60.4758 35.7459 60.5726 36.2515H60.8638L60.8237 34.6094H54.7285ZM19.0074 36.8896C18.3835 36.8896 17.9098 37.0335 17.5868 37.3191C17.2638 37.6046 17.1025 37.8778 17.1025 38.139C17.1025 38.2738 17.1473 38.3956 17.2364 38.506C17.3263 38.6164 17.4553 38.6711 17.6237 38.6711C17.7318 38.6711 17.8253 38.6473 17.9038 38.5986C18.0416 38.5171 18.1113 38.37 18.1113 38.1613C18.1113 38.1309 18.1014 38.0638 18.0823 37.9572C18.064 37.8505 18.0544 37.7745 18.0544 37.7296C18.0544 37.5544 18.1411 37.417 18.3133 37.3157C18.4847 37.219 18.6652 37.1707 18.8557 37.1707C19.2556 37.1707 19.5193 37.295 19.6457 37.5455C19.7204 37.6948 19.7584 37.9601 19.7584 38.3409V38.8172C18.7308 39.2026 18.0454 39.5058 17.7018 39.7297C17.1601 40.0922 16.8894 40.5437 16.8894 41.0851C16.8894 41.4324 17.0077 41.7201 17.2431 41.9463C17.4785 42.1717 17.7564 42.2843 18.0778 42.2843C18.3841 42.2843 18.7067 42.1838 19.0465 41.982C19.2484 41.8624 19.491 41.6788 19.7752 41.432C19.7859 41.6597 19.8484 41.8565 19.9627 42.021C20.0762 42.1855 20.2606 42.2676 20.5151 42.2676C20.7314 42.2676 20.9439 42.1961 21.1534 42.0545C21.2913 41.9608 21.421 41.8419 21.5406 41.6964V41.4041C21.4019 41.5054 21.3057 41.5701 21.2493 41.596C21.1929 41.6219 21.1223 41.6339 21.0362 41.6339C20.8838 41.6339 20.7814 41.5615 20.7327 41.4153C20.7029 41.333 20.688 41.1842 20.688 40.968V38.7213C20.688 38.2286 20.6202 37.8531 20.4816 37.5957C20.2241 37.1251 19.7319 36.8896 19.0074 36.8896ZM79.5133 36.9063C79.1583 36.9063 78.8134 37.0115 78.4766 37.2209C78.29 37.3405 78.0732 37.5227 77.8272 37.7686V37.0134C77.8272 36.9906 77.822 36.971 77.8138 36.9543C77.8039 36.9376 77.7893 36.9297 77.7702 36.9297C77.0382 37.1833 76.6626 37.3119 76.6443 37.3157L76.112 37.4897V37.6749C76.179 37.6635 76.2309 37.6553 76.266 37.6515C76.3018 37.6486 76.3398 37.6458 76.3809 37.6458C76.5714 37.6458 76.701 37.6863 76.7704 37.7663C76.8397 37.847 76.8742 38.0296 76.8742 38.3129V43.6909C76.8742 43.9635 76.8269 44.1627 76.7324 44.2899C76.638 44.4163 76.4163 44.4913 76.0673 44.5141V44.6982H78.836V44.5018C78.4208 44.4721 78.1518 44.415 78.0292 44.3289C77.9057 44.2429 77.8439 44.0109 77.8439 43.634V41.7967C78.0458 42.0053 78.2664 42.15 78.5057 42.2284C78.6588 42.2809 78.8385 42.3065 79.048 42.3065C79.7245 42.3065 80.2866 42.0024 80.7331 41.394C81.1787 40.7863 81.4015 40.11 81.4015 39.3637C81.4015 38.6029 81.2157 38.003 80.8447 37.5644C80.4729 37.1265 80.0291 36.9063 79.5133 36.9063ZM29.7059 36.9186C28.9585 36.9186 28.3403 37.1963 27.8512 37.753C27.3621 38.3089 27.1169 38.9735 27.1169 39.7465C27.1169 40.5347 27.3408 41.158 27.7887 41.6172C28.2374 42.0764 28.753 42.3066 29.3365 42.3066C29.93 42.3066 30.4519 42.0558 30.9044 41.5548C31.1398 41.2928 31.364 40.938 31.5773 40.4894L31.4211 40.3946C31.204 40.7122 31.0088 40.9445 30.8374 41.0907C30.5342 41.345 30.1893 41.4722 29.8007 41.4722C29.2515 41.4722 28.8155 41.2481 28.4917 40.7995C28.1687 40.351 28.0074 39.8434 28.0074 39.2791C28.0074 38.6622 28.1538 38.167 28.4471 37.7954C28.7412 37.423 29.1004 37.2377 29.5262 37.2377C29.7281 37.2377 29.8912 37.2756 30.0139 37.3548C30.1335 37.4363 30.2181 37.5773 30.2661 37.7753L30.333 38.0442C30.378 38.2163 30.4505 38.3459 30.5495 38.4357C30.6486 38.5256 30.763 38.5707 30.8932 38.5707C31.073 38.5707 31.2063 38.517 31.2916 38.4112C31.3777 38.3053 31.4211 38.1902 31.4211 38.0676C31.4211 37.7813 31.2516 37.5188 30.9133 37.2789C30.5751 37.039 30.1729 36.9186 29.7059 36.9186ZM50.1263 36.9186C49.929 37.0085 49.7383 37.0876 49.5516 37.1585C49.4663 37.192 49.3117 37.2485 49.0885 37.3269C48.8646 37.4053 48.6464 37.4821 48.4346 37.5567V37.7419C48.5016 37.7266 48.5671 37.715 48.6288 37.705C48.6897 37.6959 48.7398 37.6917 48.7772 37.6917C48.96 37.6917 49.085 37.7701 49.1544 37.9293C49.2237 38.0877 49.2581 38.352 49.2581 38.7213V41.248C49.2581 41.5465 49.2027 41.7423 49.0908 41.8336C48.978 41.925 48.7503 41.9858 48.4067 42.0155V42.2006H51.1686V42.0155C50.8212 42.0231 50.5736 41.9641 50.4243 41.8392C50.275 41.7136 50.2 41.4905 50.2 41.1699V38.6432C50.2 38.4193 50.2952 38.2023 50.4857 37.9906C50.6761 37.7797 50.8364 37.6749 50.9666 37.6749C51.0489 37.6749 51.163 37.7399 51.307 37.8702C51.4502 38.0011 51.5938 38.0665 51.7355 38.0665C51.8742 38.0665 51.9882 38.0135 52.0803 37.9092C52.1718 37.8041 52.2176 37.6763 52.2176 37.5232C52.2176 37.3519 52.1575 37.208 52.0379 37.0937C51.9183 36.9803 51.7619 36.9231 51.5715 36.9231C51.3315 36.9231 51.0998 37.0176 50.8774 37.2042C50.6542 37.3908 50.4225 37.6497 50.1833 37.9817V37.0636C50.1833 37.0042 50.181 36.9648 50.1754 36.9465C50.1693 36.9275 50.153 36.9186 50.1263 36.9186ZM68.6698 36.9186C68.4725 37.0085 68.281 37.0876 68.0951 37.1585C68.0098 37.192 67.8548 37.2485 67.6309 37.3269C67.4077 37.4053 67.1898 37.4821 66.9781 37.5567V37.7419C67.0451 37.7266 67.1094 37.715 67.1711 37.705C67.2328 37.6959 67.2822 37.6917 67.3195 37.6917C67.5024 37.6917 67.6285 37.7701 67.6978 37.9293C67.7664 38.0877 67.8016 38.352 67.8016 38.7213V41.248C67.8016 41.5465 67.7451 41.7423 67.6331 41.8336C67.5211 41.925 67.2937 41.9858 66.9501 42.0155V42.2006H69.7121V42.0155C69.3647 42.0231 69.1171 41.9641 68.9678 41.8392C68.8184 41.7136 68.7435 41.4905 68.7435 41.1699V38.6432C68.7435 38.4193 68.8387 38.2023 69.0291 37.9906C69.2196 37.7797 69.3798 37.6749 69.5101 37.6749C69.5924 37.6749 69.7054 37.7399 69.8493 37.8702C69.9933 38.0011 70.1362 38.0665 70.2779 38.0665C70.4158 38.0665 70.5316 38.0135 70.6238 37.9092C70.7145 37.8041 70.7611 37.6763 70.7611 37.5232C70.7611 37.3519 70.6999 37.208 70.5803 37.0937C70.4599 36.9803 70.305 36.9231 70.1138 36.9231C69.8746 36.9231 69.6433 37.0176 69.4208 37.2042C69.1976 37.3908 68.9659 37.6497 68.7267 37.9817V37.0636C68.7267 37.0042 68.7233 36.9648 68.7178 36.9465C68.7117 36.9275 68.6965 36.9186 68.6698 36.9186ZM14.5158 36.9232C14.2027 36.9232 13.9007 37.0148 13.6096 37.1976C13.4154 37.3172 13.1475 37.5377 12.8039 37.8591V37.0359C12.8039 37.0023 12.8017 36.9757 12.7961 36.9566C12.79 36.9384 12.7741 36.9299 12.7481 36.9299L12.2214 37.1039C11.6493 37.2905 11.2876 37.4059 11.1345 37.4508V37.646C11.1863 37.6384 11.23 37.6331 11.265 37.6293C11.3009 37.6253 11.3357 37.6236 11.3699 37.6236C11.5901 37.6236 11.7354 37.6947 11.8063 37.8355C11.8512 37.9323 11.8743 38.0985 11.8743 38.3353V41.181C11.8743 41.5252 11.8203 41.7458 11.7137 41.8448C11.607 41.9438 11.4219 42.0098 11.1568 42.0433V42.2006H13.6052V42.0433C13.3477 42.0357 13.1582 41.9863 13.0394 41.895C12.9198 41.8036 12.8597 41.6235 12.8597 41.3539V38.217C13.0601 38.019 13.2243 37.8781 13.3507 37.792C13.577 37.6428 13.7998 37.5678 14.0192 37.5678C14.3384 37.5678 14.5576 37.6737 14.6765 37.8846C14.7961 38.0956 14.855 38.3609 14.855 38.6822V41.075C14.855 41.4558 14.801 41.7034 14.6921 41.8169C14.5839 41.9311 14.3934 42.006 14.1207 42.0433V42.2006H16.5133V42.0433C16.2611 42.0393 16.0817 41.9777 15.9743 41.8581C15.8669 41.7393 15.8136 41.5454 15.8136 41.2758V38.6599C15.8136 37.9319 15.611 37.4257 15.2088 37.1417C14.9993 36.9962 14.7695 36.9232 14.5158 36.9232ZM24.9107 36.9232C24.5976 36.9232 24.2967 37.0148 24.0057 37.1976C23.8114 37.3172 23.5428 37.5377 23.2 37.8591V37.0359C23.2 37.0023 23.1971 36.9757 23.1911 36.9566C23.1859 36.9384 23.169 36.9299 23.1431 36.9299L22.6175 37.1039C22.0453 37.2905 21.6837 37.4059 21.5305 37.4508V37.646C21.5824 37.6384 21.6261 37.6331 21.6611 37.6293C21.6969 37.6253 21.7306 37.6236 21.7649 37.6236C21.9851 37.6236 22.1315 37.6947 22.2023 37.8355C22.2473 37.9323 22.2693 38.0985 22.2693 38.3353V41.181C22.2693 41.5252 22.2164 41.7458 22.1097 41.8448C22.0031 41.9438 21.8169 42.0098 21.5518 42.0433V42.2006H24.0001V42.0433C23.7426 42.0357 23.5539 41.9863 23.4343 41.895C23.3147 41.8036 23.2558 41.6235 23.2558 41.3539V38.217C23.4561 38.019 23.6192 37.8781 23.7457 37.792C23.9719 37.6428 24.1958 37.5678 24.4152 37.5678C24.7344 37.5678 24.9526 37.6737 25.0714 37.8846C25.191 38.0956 25.2511 38.3609 25.2511 38.6822V41.075C25.2511 41.4558 25.1971 41.7034 25.0881 41.8169C24.98 41.9311 24.7895 42.006 24.5168 42.0433V42.2006H26.9093V42.0433C26.6572 42.0393 26.4778 41.9777 26.3703 41.8581C26.2629 41.7393 26.2085 41.5454 26.2085 41.2758V38.6599C26.2085 37.9319 26.0071 37.4257 25.6048 37.1417C25.3953 36.9962 25.1644 36.9232 24.9107 36.9232ZM10.0632 36.9299C10.0335 36.9299 9.96635 36.9519 9.86122 36.9968C9.60374 37.1049 9.1486 37.2651 8.4942 37.4776L8.25317 37.5568V37.7297C8.43981 37.6779 8.55356 37.6481 8.59241 37.6405C8.632 37.6329 8.67179 37.6293 8.71293 37.6293C8.89271 37.6293 9.00919 37.706 9.06556 37.8591C9.0991 37.952 9.11687 38.1212 9.11687 38.3633V41.035C9.11687 41.4722 9.06391 41.7403 8.95952 41.8393C8.85516 41.9383 8.60287 42.0062 8.20292 42.0435V42.2008H10.9269V42.0435C10.5643 42.0138 10.3312 41.9441 10.2283 41.836C10.1255 41.7278 10.0743 41.4607 10.0743 41.035V37.0135C10.0743 36.9838 10.0709 36.9558 10.0632 36.9299ZM34.3571 36.9466C33.6433 36.9466 33.0637 37.2187 32.6196 37.7632C32.1747 38.3084 31.9534 38.9567 31.9534 39.7075C31.9534 40.3982 32.1449 41.0092 32.5281 41.5392C32.9105 42.0693 33.4527 42.3346 34.1551 42.3346C34.7638 42.3346 35.2779 42.1325 35.6984 41.7289C36.1182 41.3253 36.4057 40.8855 36.5588 40.4103L36.3624 40.3434C36.1346 40.7196 35.8859 41.0109 35.617 41.2157C35.3481 41.4206 35.0184 41.5225 34.626 41.5225C34.1408 41.5225 33.72 41.3254 33.365 40.9302C33.01 40.5357 32.8143 39.9059 32.7769 39.0416H36.3345C36.3345 38.3729 36.137 37.8561 35.7408 37.4921C35.3447 37.1281 34.8835 36.9466 34.3571 36.9466ZM45.6715 36.9466C44.928 36.9466 44.3204 37.203 43.8481 37.7163C43.3758 38.2296 43.1384 38.8583 43.1384 39.6016C43.1384 40.3966 43.3875 41.0576 43.8849 41.5839C44.3816 42.1101 44.9881 42.3737 45.705 42.3737C46.4524 42.3737 47.061 42.0995 47.5318 41.5504C48.0026 41.0013 48.2382 40.356 48.2382 39.6127C48.2382 38.8055 47.9959 38.1601 47.5106 37.675C47.0246 37.1892 46.4113 36.9466 45.6715 36.9466ZM73.3154 36.9466C72.5719 36.9466 71.9643 37.203 71.492 37.7163C71.0189 38.2296 70.7823 38.8583 70.7823 39.6016C70.7823 40.3966 71.0314 41.0576 71.5288 41.5839C72.0255 42.1101 72.6321 42.3737 73.3489 42.3737C74.0963 42.3737 74.7049 42.0995 75.1757 41.5504C75.6465 41.0013 75.8821 40.356 75.8821 39.6127C75.8821 38.8055 75.6394 38.1601 75.1534 37.675C74.6681 37.1892 74.0552 36.9466 73.3154 36.9466ZM84.1478 36.9466C83.4348 36.9466 82.8563 37.2187 82.4114 37.7632C81.9665 38.3084 81.7441 38.9567 81.7441 39.7075C81.7441 40.3982 81.9356 41.0092 82.3188 41.5392C82.7012 42.0693 83.2434 42.3346 83.9458 42.3346C84.5553 42.3346 85.0698 42.1325 85.4903 41.7289C85.91 41.3253 86.1975 40.8855 86.3507 40.4103L86.1543 40.3434C85.9257 40.7196 85.6777 41.0109 85.4088 41.2157C85.1399 41.4206 84.8094 41.5225 84.4179 41.5225C83.9318 41.5225 83.5107 41.3254 83.1557 40.9302C82.8015 40.5357 82.605 39.9059 82.5676 39.0416H86.1264C86.1264 38.3729 85.9277 37.8561 85.5316 37.4921C85.1354 37.1281 84.675 36.9466 84.1478 36.9466ZM61.4921 37.0135V37.1708C61.761 37.1967 61.9366 37.2404 62.0188 37.3036C62.1453 37.4033 62.2097 37.6019 62.2097 37.8981V40.8086C62.2097 41.347 62.355 41.731 62.646 41.9587C62.934 42.1909 63.2402 42.3067 63.5655 42.3067C63.9205 42.3067 64.2567 42.1948 64.5743 41.9709C64.7831 41.8247 65.014 41.6006 65.2684 41.2983V42.2007C65.2684 42.2228 65.2702 42.242 65.2742 42.2588C65.2782 42.2755 65.2893 42.2844 65.3076 42.2844C65.6367 42.158 65.8496 42.077 65.9471 42.0434C66.1749 41.9688 66.338 41.9169 66.4347 41.8895C66.5315 41.8613 66.6832 41.8198 66.8889 41.7634V41.6062C66.5933 41.6176 66.3989 41.5753 66.3075 41.4801C66.2161 41.3849 66.1702 41.2113 66.1702 40.9569V37.0135H64.3602V37.1976C64.6969 37.2166 64.9211 37.2706 65.0331 37.3604C65.1451 37.4503 65.2016 37.6382 65.2016 37.926V40.996C65.0592 41.1605 64.9188 41.289 64.7809 41.3819C64.5379 41.5502 64.2903 41.634 64.0366 41.634C63.6663 41.634 63.4119 41.4931 63.2733 41.209C63.2024 41.056 63.1673 40.8521 63.1673 40.5977V37.0135L61.4921 37.0135ZM45.512 37.2824C46.0582 37.2824 46.4761 37.5679 46.764 38.1391C47.0528 38.7102 47.1959 39.3194 47.1959 39.9652C47.1959 40.5889 47.0829 41.0933 46.8567 41.4779C46.6304 41.8625 46.307 42.0546 45.888 42.0546C45.3525 42.0546 44.9346 41.7673 44.6337 41.1923C44.332 40.6173 44.1818 39.9975 44.1818 39.3327C44.1818 38.5004 44.3679 37.9139 44.742 37.5735C44.9591 37.3793 45.2164 37.2824 45.512 37.2824ZM73.1559 37.2824C73.7021 37.2824 74.1189 37.5679 74.4068 38.1391C74.6955 38.7102 74.8398 39.3194 74.8398 39.9652C74.8398 40.5889 74.7268 41.0933 74.5006 41.4779C74.2735 41.8625 73.9506 42.0546 73.5308 42.0546C72.996 42.0546 72.5785 41.7673 72.2776 41.1923C71.9759 40.6173 71.8245 39.9975 71.8245 39.3327C71.8245 38.5004 72.0118 37.9139 72.3859 37.5735C72.603 37.3793 72.8603 37.2824 73.1559 37.2824ZM34.0323 37.3549C34.4613 37.3549 34.7679 37.519 34.9508 37.8479C35.0513 38.0307 35.1228 38.3084 35.1639 38.6824H32.7992C32.8518 38.3762 32.9374 38.1226 33.057 37.9216C33.281 37.5438 33.6057 37.3549 34.0323 37.3549ZM83.8231 37.3549C84.2527 37.3549 84.559 37.519 84.7426 37.8479C84.8432 38.0307 84.9143 38.3084 84.9546 38.6824H82.59C82.6425 38.3762 82.7281 38.1226 82.8477 37.9216C83.0717 37.5438 83.398 37.3549 83.8231 37.3549ZM78.942 37.5958C79.3336 37.5958 79.6793 37.7656 79.9764 38.1045C80.2728 38.4442 80.4206 38.957 80.4206 39.6439C80.4206 40.3598 80.2789 40.9181 79.9932 41.3195C79.7067 41.72 79.3617 41.9196 78.9587 41.9196C78.6967 41.9196 78.4707 41.8579 78.278 41.7322C78.0853 41.6073 77.9407 41.4188 77.8439 41.1644V38.351C77.8439 38.1866 77.9576 38.02 78.1854 37.8502C78.4139 37.6804 78.6647 37.5958 78.942 37.5958ZM19.7584 39.0973V40.8733C19.7584 41.0857 19.6458 41.2608 19.4203 41.3987C19.1941 41.5373 18.9574 41.6062 18.7106 41.6062C18.5316 41.6062 18.3684 41.5543 18.2229 41.45C17.9989 41.2893 17.887 41.0389 17.887 40.6992C17.887 40.2773 18.156 39.9001 18.6938 39.5681C18.9742 39.396 19.328 39.239 19.7584 39.0973Z" fill="#1D1D1B"/>
<path d="M95.2513 34.2421H89.1141L106.035 1.35596H112.174L95.2513 34.2421Z" fill="#77990F"/>
<path d="M72.7191 17.8547C72.8014 16.1984 73.8756 13.303 77.6016 13.303C80.4576 13.303 81.742 14.8726 82.2768 17.8547H72.7191ZM16.0648 22.5671C16.0648 23.8511 15.8972 27.4912 11.3043 27.4912C9.39973 27.4912 7.70242 26.9566 7.70242 24.7642C7.70242 22.6105 9.35935 21.9914 11.1801 21.6198C13.0008 21.2862 15.0706 21.2443 16.0648 20.3777V22.5671ZM77.7677 8.87471C72.3207 8.87471 68.3281 12.3054 67.1785 17.1937V16.5289C67.1785 10.9872 63.9065 8.87471 59.3547 8.87471C56.3737 8.87471 54.1371 10.5707 52.8961 12.4326C51.7358 9.86852 49.3369 8.87471 46.6469 8.87471C43.8732 8.87471 41.6373 10.1564 40.1068 12.3504H40.0253V9.45424H30.7967V8.17258C30.7967 6.39287 31.4595 5.72957 33.0296 5.72957C33.7754 5.72957 34.4808 5.77298 35.1817 5.85598V1.46954C34.1883 1.42687 33.1134 1.302 32.0781 1.302C27.2771 1.302 24.9178 4.03363 24.9178 7.79943V9.45424H21.4005V12.4189C19.9767 9.49536 15.9803 8.87471 12.5452 8.87471C7.74507 8.87471 2.81921 10.5303 2.48935 16.0339H8.36595C8.57164 13.715 10.0198 12.8065 12.2573 12.8065C14.3264 12.8065 16.0648 13.1766 16.0648 15.7019C16.0648 18.1015 12.7113 17.9766 9.111 18.5165C5.46878 19.0108 1.82581 20.1721 1.82581 25.0109C1.82581 29.3981 5.0536 31.4238 9.111 31.4238C11.7172 31.4238 14.4505 30.7201 16.3132 28.7775C16.3536 29.4788 16.5188 30.1825 16.7253 30.8443H22.6865C22.1486 29.9753 21.9399 28.0289 21.9399 26.0862V14.9579C21.9399 14.3814 21.8721 13.8597 21.751 13.3845H24.9178V30.8443H30.7967V13.3845H34.4785V30.8443H40.3551V18.4327C40.3551 14.255 43.1693 13.5102 44.3272 13.5102C48.0532 13.5102 47.8864 16.3637 47.8864 18.844V30.8443H53.7645V18.93C53.7645 16.2388 54.3846 13.5102 57.7 13.5102C61.0528 13.5102 61.2996 15.8679 61.2996 18.7221V30.8443H67.1785V23.2853C68.2976 28.1972 72.1379 31.4238 77.7677 31.4238C82.6097 31.4238 86.1285 29.2709 87.7832 24.2258H82.6097C82.2372 25.5463 80.3319 26.997 77.9733 26.997C74.7029 26.997 72.8852 25.3003 72.7191 21.5787H88.1557C88.5694 14.999 85.0521 8.87471 77.7677 8.87471Z" fill="#1D1D1B"/>
</svg>
