<svg width="317" height="32" viewBox="0 0 317 32" fill="none" xmlns="http://www.w3.org/2000/svg">
<path d="M3.66663 8.418C4.87596 7.54667 6.28996 6.802 7.83063 6.35533M3.67596 9.29333C5.94263 7.84 8.90796 6.99533 12.106 6.89133M3.66996 10.11C7.20329 8.26333 11.934 7.85067 16.46 8.77M3.67863 10.824C5.34329 10.2293 7.24263 9.80133 9.26463 9.77733C14.8313 9.71067 17.1646 10.5993 20.61 12.35M3.66796 11.618C6.03863 10.9927 8.86596 10.8273 11.69 11.296C16.124 12.0307 20.2966 14.1007 23.23 16.8933M3.68196 17.8C5.50263 19.9633 7.55063 22.5527 9.53596 25.2027C10.3095 26.2345 11.072 27.2746 11.8233 28.3227M3.67996 14.638C5.58929 15.7593 7.86796 17.6373 10.2066 19.766C13.1146 22.414 15.9166 25.4767 18.0373 28.3253M3.67329 13.2387C6.80196 13.818 10.2553 15.368 13.48 17.5187C17.9733 20.514 21.588 24.51 23.2553 28.3253M3.67329 12.4287C7.19409 12.2304 10.7149 12.817 13.9813 14.146C18.8413 16.1393 22.7106 19.4367 24.3606 22.9913M3.69329 8.13933C5.26463 8.498 6.07929 9.822 5.79529 11.5553C5.58929 12.8127 4.82463 14.152 3.68263 15.2553M24.2206 20.0953C24.5233 22.8773 23.87 25.7333 22.338 28.324M23.3693 17.0347C24.2393 20.7893 23.3126 24.8567 20.796 28.3333M21.32 13.2313C23.6693 17.8313 22.6633 23.6753 18.7213 28.3233M18.8793 10.53C19.2909 11.0677 19.6452 11.6468 19.9366 12.258C22.2926 17.2033 20.3633 23.7273 15.1813 28.3293M16.9566 9.07067C17.8325 10.0207 18.4622 11.1709 18.7906 12.4207C20.206 17.7007 16.6293 24.412 10.314 28.324M7.30996 6.332C9.23196 6.44133 10.808 7.18133 11.8126 8.446C13.572 10.6607 13.3633 14.196 11.2706 17.6373C9.54796 20.4693 6.75529 22.8927 3.68396 24.2207M3.68729 7.01733C7.33129 6.34733 9.83863 8.18 9.69196 11.406C9.55396 14.434 7.10529 17.9373 3.68396 19.9993M3.67663 6.85C5.02116 6.50765 6.40319 6.33454 7.79063 6.33467C16.9953 6.33467 24.4573 13.7967 24.4573 23.0013C24.4573 24.8147 24.1613 26.6147 23.5813 28.3333M4.54663 27.6467C4.83996 27.54 5.12663 27.4267 5.41996 27.3M5.41996 27.3C6.81996 26.72 8.17329 25.9533 9.41996 25.0467C10.6066 24.1867 11.7 23.2 12.6533 22.12C13.3266 21.3733 13.9266 20.58 14.44 19.7533C14.6733 19.3867 14.88 19.0133 15.0666 18.6467C15.6733 17.4933 16.08 16.34 16.2866 15.2333C16.4666 14.3267 16.5066 13.4467 16.4266 12.62C16.3466 11.8333 16.1533 11.0933 15.84 10.4067C15.5505 9.75663 15.1514 9.16128 14.66 8.64667C14.5933 8.58 14.5266 8.51333 14.46 8.45333C13.7666 7.78 12.9133 7.26 11.9333 6.9C11.76 6.84 11.5866 6.78667 11.4133 6.73333M5.41996 27.3C4.8617 26.2651 4.32162 25.2205 3.79996 24.1667C3.75996 24.08 3.71996 24 3.67996 23.92M5.41996 27.3C5.59329 27.6333 5.77996 27.9733 5.95996 28.3067" stroke="#0945BE" stroke-width="0.5" stroke-linecap="round" stroke-linejoin="round"/>
<path d="M25.6666 3.66666H6.33329C4.86053 3.66666 3.66663 4.86056 3.66663 6.33332V25.6667C3.66663 27.1394 4.86053 28.3333 6.33329 28.3333H25.6666C27.1394 28.3333 28.3333 27.1394 28.3333 25.6667V6.33332C28.3333 4.86056 27.1394 3.66666 25.6666 3.66666Z" stroke="#0945BE" stroke-linecap="round" stroke-linejoin="round"/>
<path d="M37.3288 22.6912V22.2176C37.7527 22.1902 38.0596 22.0873 38.2496 21.9088C38.4395 21.7304 38.5345 21.3049 38.5345 20.6324V11.0588C38.5345 10.3863 38.4249 9.96078 38.2057 9.78235C38.0011 9.5902 37.5992 9.48725 37 9.47353V9H47.7637V11.8824H47.2595C47.2303 11.2922 47.0111 10.8118 46.6018 10.4412C46.2073 10.0706 45.5934 9.88529 44.7604 9.88529H43.0066C42.6997 9.88529 42.4586 9.96078 42.2832 10.1118C42.1224 10.2627 42.0421 10.5784 42.0421 11.0588V15.1147C42.159 15.0324 42.2978 14.9775 42.4586 14.95C42.634 14.9225 42.8386 14.9088 43.0724 14.9088H45.1988C45.6373 14.9088 46.0026 14.7922 46.2949 14.5588C46.5872 14.3255 46.7407 14.0029 46.7553 13.5912H47.2595V17.0912H46.7553C46.7407 16.5833 46.5872 16.2402 46.2949 16.0618C46.0026 15.8833 45.6373 15.7941 45.1988 15.7941H43.1162C42.7216 15.7941 42.444 15.8559 42.2832 15.9794C42.1224 16.1029 42.0421 16.3431 42.0421 16.7V20.6324C42.0421 21.1127 42.1517 21.4284 42.3709 21.5794C42.6047 21.7304 43.0505 21.8059 43.7081 21.8059H45.7907C46.6676 21.8059 47.3618 21.5588 47.8733 21.0647C48.3848 20.5706 48.6698 19.9804 48.7283 19.2941H49.2325L49.0571 22.6912H37.3288Z" fill="#0945BE"/>
<path d="M55.0674 23C53.869 23 52.8752 22.7186 52.086 22.1559C51.3115 21.5794 50.9242 20.7696 50.9242 19.7265V13.9412C50.9242 13.4745 50.8803 13.1314 50.7926 12.9118C50.705 12.6922 50.5515 12.548 50.3323 12.4794C50.1277 12.4108 49.8427 12.3696 49.4773 12.3559V11.8824H55.4401V12.3559C55.0601 12.3696 54.7751 12.4657 54.5852 12.6441C54.4098 12.8225 54.3221 13.2549 54.3221 13.9412V19.2735C54.3221 19.8775 54.4463 20.3716 54.6948 20.7559C54.9432 21.1402 55.3744 21.3324 55.9882 21.3324C56.5581 21.3324 57.0843 21.1676 57.5666 20.8382C58.0488 20.4951 58.4361 20.001 58.7284 19.3559C59.0207 18.7108 59.1669 17.9284 59.1669 17.0088V13.9412C59.1669 13.4745 59.123 13.1314 59.0353 12.9118C58.9476 12.6922 58.7869 12.548 58.553 12.4794C58.3338 12.4108 58.0269 12.3696 57.6323 12.3559V11.8824H63.3759V12.3559C62.9959 12.3696 62.7109 12.4657 62.5209 12.6441C62.3456 12.8225 62.2579 13.2549 62.2579 13.9412V20.7559C62.2579 21.3873 62.3529 21.7853 62.5429 21.95C62.7475 22.101 63.0982 22.1902 63.5951 22.2176V22.6912H59.5615C59.4738 22.4716 59.408 22.2108 59.3642 21.9088C59.3203 21.5931 59.2984 21.1676 59.2984 20.6324V19.9118H59.2545C58.7576 21.0784 58.1438 21.8882 57.4131 22.3412C56.697 22.7804 55.9151 23 55.0674 23Z" fill="#0945BE"/>
<path d="M75.517 23C74.8447 23 74.2967 22.8971 73.8729 22.6912C73.4637 22.4853 73.1129 22.2176 72.8206 21.8882C72.5283 21.5588 72.2506 21.202 71.9876 20.8176L70.19 18.1824C70.0438 17.9765 69.9123 17.8392 69.7954 17.7706C69.6785 17.6882 69.5542 17.6402 69.4227 17.6265V16.9059C70.3727 16.8235 71.0157 16.5833 71.3518 16.1853C71.7026 15.7735 71.878 15.2725 71.878 14.6824C71.878 13.9961 71.7099 13.4882 71.3738 13.1588C71.0376 12.8294 70.6065 12.6647 70.0804 12.6647C69.715 12.6647 69.4373 12.7471 69.2473 12.9118C69.0719 13.0627 68.9843 13.4059 68.9843 13.9412V20.6324C68.9843 21.3049 69.0793 21.7304 69.2692 21.9088C69.4738 22.0873 69.8173 22.1902 70.2996 22.2176V22.6912H64.5999V22.2176C64.9214 22.1902 65.1625 22.0873 65.3233 21.9088C65.4987 21.7304 65.5863 21.3049 65.5863 20.6324V13.9412C65.5863 13.2686 65.484 12.8431 65.2794 12.6647C65.0894 12.4725 64.7533 12.3696 64.271 12.3559V11.8824H65.5863C66.6532 11.8824 67.5959 11.8686 68.4143 11.8412C69.2473 11.8 69.8977 11.7794 70.3653 11.7794C71.6953 11.7794 72.7402 11.9029 73.5002 12.15C74.2602 12.3833 74.8009 12.7059 75.1224 13.1176C75.4439 13.5157 75.6047 13.9686 75.6047 14.4765C75.6047 14.9706 75.4805 15.3892 75.232 15.7324C74.9982 16.0618 74.6913 16.3294 74.3113 16.5353C73.9459 16.7412 73.5587 16.9059 73.1494 17.0294V17.0706L75.6266 20.5706C76.0505 21.1745 76.4377 21.6 76.7885 21.8471C77.1392 22.0941 77.4535 22.2176 77.7311 22.2176V22.6912C77.4389 22.7873 77.0881 22.8627 76.6789 22.9176C76.2843 22.9725 75.897 23 75.517 23Z" fill="#0945BE"/>
<path d="M83.719 11.5735C84.9905 11.5735 86.0866 11.8343 87.0073 12.3559C87.9281 12.8637 88.6369 13.55 89.1338 14.4147C89.6307 15.2657 89.8791 16.2127 89.8791 17.2559C89.8791 18.3539 89.6088 19.3353 89.068 20.2C88.5419 21.0647 87.8111 21.751 86.8758 22.2588C85.9551 22.7529 84.8882 23 83.6752 23C82.4037 23 81.3076 22.7461 80.3869 22.2382C79.4662 21.7167 78.7574 21.0235 78.2605 20.1588C77.7636 19.2941 77.5151 18.3471 77.5151 17.3176C77.5151 16.2196 77.7782 15.2382 78.3043 14.3735C78.845 13.5088 79.5831 12.8294 80.5184 12.3353C81.4538 11.8275 82.5206 11.5735 83.719 11.5735ZM84.0259 22.1147C84.5667 22.1147 84.9905 21.9363 85.2974 21.5794C85.6043 21.2088 85.8236 20.7147 85.9551 20.0971C86.0866 19.4657 86.1524 18.7588 86.1524 17.9765C86.1524 16.9745 86.0501 16.0618 85.8455 15.2382C85.6555 14.401 85.3559 13.7284 84.9467 13.2206C84.5375 12.7127 84.0113 12.4588 83.3683 12.4588C82.8422 12.4588 82.4183 12.6441 82.0968 13.0147C81.7899 13.3716 81.5707 13.8588 81.4391 14.4765C81.3076 15.0941 81.2419 15.801 81.2419 16.5971C81.2419 17.5853 81.3368 18.498 81.5268 19.3353C81.7314 20.1725 82.0383 20.8451 82.4476 21.3529C82.8568 21.8608 83.3829 22.1147 84.0259 22.1147Z" fill="#0945BE"/>
<path d="M91.5069 22.6912V22.2176C91.8285 22.1902 92.0696 22.0873 92.2304 21.9088C92.4057 21.7304 92.4934 21.3049 92.4934 20.6324V13.9412C92.4934 13.2686 92.3911 12.8431 92.1865 12.6647C91.9965 12.4725 91.6604 12.3696 91.1781 12.3559V11.8824H92.4934C93.5603 11.8824 94.5029 11.8686 95.3214 11.8412C96.1398 11.8 96.7975 11.7794 97.2944 11.7794C98.6681 11.7794 99.7423 11.9029 100.517 12.15C101.291 12.3833 101.832 12.7059 102.139 13.1176C102.461 13.5157 102.621 13.9755 102.621 14.4971C102.621 15.0735 102.38 15.6363 101.898 16.1853C101.416 16.7343 100.707 17.1598 99.7715 17.4618C98.8362 17.7637 97.6889 17.8529 96.3298 17.7294V17.0088C97.192 17.05 97.8351 16.8304 98.2589 16.35C98.6827 15.8559 98.8947 15.2931 98.8947 14.6618C98.8947 14.0029 98.7193 13.5088 98.3685 13.1794C98.0324 12.8363 97.572 12.6647 96.9874 12.6647C96.6221 12.6647 96.3444 12.7471 96.1544 12.9118C95.979 13.0627 95.8913 13.4059 95.8913 13.9412V20.6324C95.8913 21.3049 96.0009 21.7304 96.2202 21.9088C96.4394 22.0873 96.8413 22.1902 97.4259 22.2176V22.6912H91.5069Z" fill="#0945BE"/>
<path d="M103.826 22.6912V22.2176C104.133 22.1902 104.374 22.0873 104.549 21.9088C104.725 21.7304 104.812 21.3049 104.812 20.6324V13.9412C104.812 13.2686 104.71 12.8431 104.505 12.6647C104.315 12.4725 103.979 12.3696 103.497 12.3559V11.8824H112.617V14.5588H112.112C112.083 13.9686 111.886 13.5225 111.52 13.2206C111.155 12.9186 110.666 12.7676 110.052 12.7676H109.175C108.868 12.7676 108.627 12.8431 108.451 12.9941C108.291 13.1451 108.21 13.4608 108.21 13.9412V16.5559C108.327 16.4735 108.466 16.4186 108.627 16.3912C108.802 16.3637 109.007 16.35 109.241 16.35H110.271C110.607 16.35 110.907 16.2676 111.17 16.1029C111.447 15.9382 111.594 15.65 111.608 15.2382H112.112V18.3265H111.608C111.594 17.8186 111.447 17.5098 111.17 17.4C110.907 17.2902 110.607 17.2353 110.271 17.2353H109.284C108.89 17.2353 108.612 17.2971 108.451 17.4206C108.291 17.5441 108.21 17.7843 108.21 18.1412V20.6324C108.21 21.1127 108.32 21.4284 108.539 21.5794C108.773 21.7304 109.219 21.8059 109.876 21.8059H110.644C111.301 21.8059 111.864 21.5931 112.332 21.1676C112.814 20.7422 113.084 20.1863 113.143 19.5H113.647L113.472 22.6912H103.826Z" fill="#0945BE"/>
<path d="M124.442 20.6324C124.661 21.099 124.837 21.4422 124.968 21.6618C125.115 21.8814 125.246 22.0255 125.363 22.0941C125.48 22.149 125.619 22.1902 125.779 22.2176V22.6912H120.233V22.2176C120.701 22.1902 120.971 22.0324 121.044 21.7441C121.117 21.4559 121.044 21.0853 120.825 20.6324L120.343 19.6029C120.27 19.6716 120.16 19.7196 120.014 19.7471C119.868 19.7608 119.714 19.7676 119.554 19.7676H117.559C117.208 19.7676 116.952 19.8157 116.791 19.9118C116.645 19.9941 116.499 20.2 116.353 20.5294L116.309 20.6324C116.09 21.099 116.083 21.4765 116.287 21.7647C116.506 22.0392 116.886 22.1902 117.427 22.2176V22.6912H113.92V22.2176C114.124 22.1902 114.322 22.0392 114.512 21.7647C114.716 21.4765 114.928 21.099 115.147 20.6324L118.545 13.3853C118.691 13.0833 118.823 12.7676 118.94 12.4382C119.071 12.1088 119.188 11.7657 119.291 11.4088H120.409C120.613 12.1363 120.847 12.7951 121.11 13.3853L124.442 20.6324ZM119.356 18.8824C119.576 18.8824 119.722 18.848 119.795 18.7794C119.868 18.6971 119.846 18.5392 119.729 18.3059L118.567 15.8971H118.523L117.098 18.9647C117.171 18.9235 117.252 18.9029 117.339 18.9029C117.427 18.8892 117.529 18.8824 117.646 18.8824H119.356Z" fill="#0945BE"/>
<path d="M136.817 22.8559C136.598 22.6225 136.378 22.3961 136.159 22.1765C135.94 21.9431 135.56 21.6206 135.019 21.2088L128.793 16.35H128.749V20.6324C128.749 21.099 128.874 21.4765 129.122 21.7647C129.385 22.0392 129.831 22.1902 130.459 22.2176V22.6912H126.623V22.2176C126.945 22.1902 127.186 22.0392 127.346 21.7647C127.522 21.4765 127.61 21.099 127.61 20.6324V13.9412C127.61 13.2686 127.507 12.8431 127.303 12.6647C127.113 12.4725 126.777 12.3696 126.294 12.3559V11.8824H128.706C128.925 12.1431 129.151 12.3833 129.385 12.6029C129.619 12.8225 129.911 13.0696 130.262 13.3441L136.576 18.2235H136.619V13.9412C136.619 13.4745 136.503 13.0971 136.269 12.8088C136.035 12.5206 135.655 12.3696 135.129 12.3559V11.8824H138.746V12.3559C138.424 12.3696 138.176 12.5206 138.001 12.8088C137.84 13.0971 137.759 13.4745 137.759 13.9412V20.6324C137.759 21.0167 137.759 21.3873 137.759 21.7441C137.774 22.0873 137.789 22.4578 137.803 22.8559H136.817Z" fill="#0945BE"/>
<path d="M145.373 22.6912V22.2176C145.797 22.1902 146.104 22.0873 146.294 21.9088C146.484 21.7304 146.579 21.3049 146.579 20.6324V11.0588C146.579 10.3863 146.469 9.96078 146.25 9.78235C146.045 9.5902 145.643 9.48725 145.044 9.47353V9H155.808V11.8824H155.304C155.275 11.2922 155.055 10.8118 154.646 10.4412C154.252 10.0706 153.638 9.88529 152.805 9.88529H151.051C150.744 9.88529 150.503 9.96078 150.327 10.1118C150.167 10.2627 150.086 10.5784 150.086 11.0588V15.1147C150.203 15.0324 150.342 14.9775 150.503 14.95C150.678 14.9225 150.883 14.9088 151.117 14.9088H153.243C153.682 14.9088 154.047 14.7922 154.339 14.5588C154.631 14.3255 154.785 14.0029 154.8 13.5912H155.304V17.0912H154.8C154.785 16.5833 154.631 16.2402 154.339 16.0618C154.047 15.8833 153.682 15.7941 153.243 15.7941H151.16C150.766 15.7941 150.488 15.8559 150.327 15.9794C150.167 16.1029 150.086 16.3431 150.086 16.7V20.6324C150.086 21.1127 150.196 21.4284 150.415 21.5794C150.649 21.7304 151.095 21.8059 151.752 21.8059H153.835C154.712 21.8059 155.406 21.5588 155.918 21.0647C156.429 20.5706 156.714 19.9804 156.773 19.2941H157.277L157.101 22.6912H145.373Z" fill="#0945BE"/>
<path d="M164.69 23C163.331 23 162.184 22.7598 161.248 22.2794C160.313 21.7853 159.604 21.1265 159.122 20.3029C158.64 19.4657 158.398 18.5392 158.398 17.5235C158.398 16.3431 158.698 15.3069 159.297 14.4147C159.896 13.5225 160.708 12.8294 161.731 12.3353C162.754 11.8275 163.886 11.5735 165.129 11.5735C165.845 11.5735 166.51 11.649 167.123 11.8C167.737 11.951 168.336 12.1294 168.921 12.3353V15.1765H168.417C168.095 14.1882 167.635 13.4882 167.036 13.0765C166.451 12.6647 165.815 12.4588 165.129 12.4588C164.135 12.4588 163.382 12.8363 162.871 13.5912C162.374 14.3461 162.125 15.4235 162.125 16.8235C162.125 17.4137 162.176 18.0176 162.279 18.6353C162.381 19.2529 162.542 19.8294 162.761 20.3647C162.995 20.8863 163.302 21.3118 163.682 21.6412C164.076 21.9569 164.566 22.1147 165.15 22.1147C165.969 22.1147 166.714 21.8196 167.386 21.2294C168.073 20.6392 168.556 19.8225 168.833 18.7794H169.338L169.162 21.4971C168.695 21.9912 168.066 22.3686 167.277 22.6294C166.502 22.8765 165.64 23 164.69 23Z" fill="#0945BE"/>
<path d="M176.875 11.5735C178.147 11.5735 179.243 11.8343 180.164 12.3559C181.084 12.8637 181.793 13.55 182.29 14.4147C182.787 15.2657 183.035 16.2127 183.035 17.2559C183.035 18.3539 182.765 19.3353 182.224 20.2C181.698 21.0647 180.968 21.751 180.032 22.2588C179.111 22.7529 178.045 23 176.832 23C175.56 23 174.464 22.7461 173.543 22.2382C172.623 21.7167 171.914 21.0235 171.417 20.1588C170.92 19.2941 170.671 18.3471 170.671 17.3176C170.671 16.2196 170.935 15.2382 171.461 14.3735C172.001 13.5088 172.739 12.8294 173.675 12.3353C174.61 11.8275 175.677 11.5735 176.875 11.5735ZM177.182 22.1147C177.723 22.1147 178.147 21.9363 178.454 21.5794C178.761 21.2088 178.98 20.7147 179.111 20.0971C179.243 19.4657 179.309 18.7588 179.309 17.9765C179.309 16.9745 179.206 16.0618 179.002 15.2382C178.812 14.401 178.512 13.7284 178.103 13.2206C177.694 12.7127 177.168 12.4588 176.525 12.4588C175.999 12.4588 175.575 12.6441 175.253 13.0147C174.946 13.3716 174.727 13.8588 174.596 14.4765C174.464 15.0941 174.398 15.801 174.398 16.5971C174.398 17.5853 174.493 18.498 174.683 19.3353C174.888 20.1725 175.195 20.8451 175.604 21.3529C176.013 21.8608 176.539 22.1147 177.182 22.1147Z" fill="#0945BE"/>
<path d="M194.879 22.8559C194.66 22.6225 194.441 22.3961 194.221 22.1765C194.002 21.9431 193.622 21.6206 193.081 21.2088L186.855 16.35H186.812V20.6324C186.812 21.099 186.936 21.4765 187.184 21.7647C187.447 22.0392 187.893 22.1902 188.522 22.2176V22.6912H184.685V22.2176C185.007 22.1902 185.248 22.0392 185.409 21.7647C185.584 21.4765 185.672 21.099 185.672 20.6324V13.9412C185.672 13.2686 185.569 12.8431 185.365 12.6647C185.175 12.4725 184.839 12.3696 184.356 12.3559V11.8824H186.768C186.987 12.1431 187.214 12.3833 187.447 12.6029C187.681 12.8225 187.974 13.0696 188.324 13.3441L194.638 18.2235H194.682V13.9412C194.682 13.4745 194.565 13.0971 194.331 12.8088C194.097 12.5206 193.717 12.3696 193.191 12.3559V11.8824H196.808V12.3559C196.487 12.3696 196.238 12.5206 196.063 12.8088C195.902 13.0971 195.822 13.4745 195.822 13.9412V20.6324C195.822 21.0167 195.822 21.3873 195.822 21.7441C195.836 22.0873 195.851 22.4578 195.865 22.8559H194.879Z" fill="#0945BE"/>
<path d="M204.382 11.5735C205.653 11.5735 206.749 11.8343 207.67 12.3559C208.591 12.8637 209.3 13.55 209.797 14.4147C210.294 15.2657 210.542 16.2127 210.542 17.2559C210.542 18.3539 210.272 19.3353 209.731 20.2C209.205 21.0647 208.474 21.751 207.539 22.2588C206.618 22.7529 205.551 23 204.338 23C203.067 23 201.97 22.7461 201.05 22.2382C200.129 21.7167 199.42 21.0235 198.923 20.1588C198.426 19.2941 198.178 18.3471 198.178 17.3176C198.178 16.2196 198.441 15.2382 198.967 14.3735C199.508 13.5088 200.246 12.8294 201.181 12.3353C202.117 11.8275 203.184 11.5735 204.382 11.5735ZM204.689 22.1147C205.23 22.1147 205.653 21.9363 205.96 21.5794C206.267 21.2088 206.486 20.7147 206.618 20.0971C206.749 19.4657 206.815 18.7588 206.815 17.9765C206.815 16.9745 206.713 16.0618 206.508 15.2382C206.318 14.401 206.019 13.7284 205.61 13.2206C205.2 12.7127 204.674 12.4588 204.031 12.4588C203.505 12.4588 203.081 12.6441 202.76 13.0147C202.453 13.3716 202.234 13.8588 202.102 14.4765C201.971 15.0941 201.905 15.801 201.905 16.5971C201.905 17.5853 202 18.498 202.19 19.3353C202.394 20.1725 202.701 20.8451 203.11 21.3529C203.52 21.8608 204.046 22.1147 204.689 22.1147Z" fill="#0945BE"/>
<path d="M218.22 22.8559C218.103 22.5402 217.965 22.2176 217.804 21.8882C217.658 21.5451 217.431 21.099 217.124 20.55L214.406 15.6912H214.362L214.077 20.6324C214.062 21.099 214.172 21.4765 214.406 21.7647C214.64 22.0392 215.027 22.1902 215.568 22.2176V22.6912H211.951V22.2176C212.272 22.1902 212.513 22.0392 212.674 21.7647C212.835 21.4765 212.922 21.099 212.937 20.6324L213.31 13.9412C213.339 13.4608 213.31 13.1176 213.222 12.9118C213.134 12.7059 212.988 12.5755 212.784 12.5206C212.579 12.452 212.316 12.3971 211.994 12.3559V11.8824H216.291C216.408 12.2392 216.532 12.5755 216.664 12.8912C216.81 13.2069 216.993 13.5569 217.212 13.9412L219.711 18.4706H219.755L221.925 13.9412C222.086 13.5843 222.232 13.2412 222.364 12.9118C222.495 12.5686 222.612 12.2255 222.714 11.8824H226.88V12.3559C226.675 12.3696 226.492 12.4108 226.331 12.4794C226.171 12.548 226.046 12.6922 225.959 12.9118C225.886 13.1176 225.864 13.4608 225.893 13.9412L226.244 20.6324C226.273 21.3049 226.383 21.7304 226.573 21.9088C226.777 22.0873 227.106 22.1902 227.559 22.2176V22.6912H221.925V22.2176C222.276 22.1902 222.532 22.0873 222.692 21.9088C222.868 21.7304 222.941 21.3049 222.912 20.6324L222.649 15.0941H222.605L220.018 20.55C219.74 21.1402 219.536 21.5931 219.404 21.9088C219.287 22.2245 219.185 22.5402 219.097 22.8559H218.22Z" fill="#0945BE"/>
<path d="M233.155 20.6324C233.155 21.3049 233.25 21.7304 233.44 21.9088C233.644 22.0873 233.988 22.1902 234.47 22.2176V22.6912H228.77V22.2176C229.092 22.1902 229.333 22.0873 229.494 21.9088C229.669 21.7304 229.757 21.3049 229.757 20.6324V13.9412C229.757 13.2686 229.655 12.8431 229.45 12.6647C229.26 12.4725 228.924 12.3696 228.442 12.3559V11.8824H234.141V12.3559C233.82 12.3696 233.571 12.4725 233.396 12.6647C233.235 12.8431 233.155 13.2686 233.155 13.9412V20.6324Z" fill="#0945BE"/>
<path d="M242.2 23C240.841 23 239.694 22.7598 238.758 22.2794C237.823 21.7853 237.114 21.1265 236.632 20.3029C236.15 19.4657 235.908 18.5392 235.908 17.5235C235.908 16.3431 236.208 15.3069 236.807 14.4147C237.406 13.5225 238.218 12.8294 239.241 12.3353C240.264 11.8275 241.396 11.5735 242.639 11.5735C243.355 11.5735 244.02 11.649 244.633 11.8C245.247 11.951 245.846 12.1294 246.431 12.3353V15.1765H245.927C245.605 14.1882 245.145 13.4882 244.546 13.0765C243.961 12.6647 243.325 12.4588 242.639 12.4588C241.645 12.4588 240.892 12.8363 240.381 13.5912C239.884 14.3461 239.635 15.4235 239.635 16.8235C239.635 17.4137 239.686 18.0176 239.789 18.6353C239.891 19.2529 240.052 19.8294 240.271 20.3647C240.505 20.8863 240.812 21.3118 241.192 21.6412C241.586 21.9569 242.076 22.1147 242.66 22.1147C243.479 22.1147 244.224 21.8196 244.896 21.2294C245.583 20.6392 246.066 19.8225 246.343 18.7794H246.848L246.672 21.4971C246.205 21.9912 245.576 22.3686 244.787 22.6294C244.012 22.8765 243.15 23 242.2 23Z" fill="#0945BE"/>
<path d="M258.832 23C257.355 23 256.252 22.6088 255.521 21.8265C254.791 21.0304 254.425 20.0284 254.425 18.8206V11.0588C254.425 10.3863 254.316 9.96078 254.096 9.78235C253.892 9.5902 253.49 9.48725 252.891 9.47353V9H259.138V9.47353C258.715 9.48725 258.408 9.5902 258.218 9.78235C258.028 9.96078 257.933 10.3863 257.933 11.0588V18.6147C257.933 19.2873 258.079 19.8294 258.371 20.2412C258.678 20.6392 259.197 20.8382 259.928 20.8382C260.717 20.8382 261.404 20.6186 261.988 20.1794C262.573 19.7265 263.026 19.1363 263.348 18.4088C263.684 17.6814 263.852 16.899 263.852 16.0618V11.0588C263.852 10.3863 263.742 9.96078 263.523 9.78235C263.318 9.5902 262.916 9.48725 262.317 9.47353V9H268.455V9.47353C268.032 9.48725 267.725 9.5902 267.535 9.78235C267.345 9.96078 267.25 10.3863 267.25 11.0588V20.8382C267.25 21.401 267.359 21.7647 267.578 21.9294C267.798 22.0941 268.2 22.1902 268.784 22.2176V22.6912H264.334C264.246 22.4716 264.181 22.2108 264.137 21.9088C264.093 21.5931 264.071 21.1676 264.071 20.6324V18.9235H264.027C263.574 20.2275 262.916 21.2363 262.054 21.95C261.206 22.65 260.132 23 258.832 23Z" fill="#0945BE"/>
<path d="M280.426 22.8559C280.207 22.6225 279.988 22.3961 279.769 22.1765C279.549 21.9431 279.169 21.6206 278.629 21.2088L272.403 16.35H272.359V20.6324C272.359 21.099 272.483 21.4765 272.732 21.7647C272.995 22.0392 273.44 22.1902 274.069 22.2176V22.6912H270.232V22.2176C270.554 22.1902 270.795 22.0392 270.956 21.7647C271.131 21.4765 271.219 21.099 271.219 20.6324V13.9412C271.219 13.2686 271.117 12.8431 270.912 12.6647C270.722 12.4725 270.386 12.3696 269.904 12.3559V11.8824H272.315C272.534 12.1431 272.761 12.3833 272.995 12.6029C273.229 12.8225 273.521 13.0696 273.872 13.3441L280.185 18.2235H280.229V13.9412C280.229 13.4745 280.112 13.0971 279.878 12.8088C279.644 12.5206 279.264 12.3696 278.738 12.3559V11.8824H282.355V12.3559C282.034 12.3696 281.785 12.5206 281.61 12.8088C281.449 13.0971 281.369 13.4745 281.369 13.9412V20.6324C281.369 21.0167 281.369 21.3873 281.369 21.7441C281.383 22.0873 281.398 22.4578 281.413 22.8559H280.426Z" fill="#0945BE"/>
<path d="M288.241 20.6324C288.241 21.3049 288.336 21.7304 288.526 21.9088C288.731 22.0873 289.074 22.1902 289.557 22.2176V22.6912H283.857V22.2176C284.178 22.1902 284.419 22.0873 284.58 21.9088C284.756 21.7304 284.843 21.3049 284.843 20.6324V13.9412C284.843 13.2686 284.741 12.8431 284.536 12.6647C284.346 12.4725 284.01 12.3696 283.528 12.3559V11.8824H289.228V12.3559C288.906 12.3696 288.658 12.4725 288.482 12.6647C288.322 12.8431 288.241 13.2686 288.241 13.9412V20.6324Z" fill="#0945BE"/>
<path d="M297.067 11.5735C298.339 11.5735 299.435 11.8343 300.356 12.3559C301.276 12.8637 301.985 13.55 302.482 14.4147C302.979 15.2657 303.227 16.2127 303.227 17.2559C303.227 18.3539 302.957 19.3353 302.416 20.2C301.89 21.0647 301.159 21.751 300.224 22.2588C299.303 22.7529 298.236 23 297.023 23C295.752 23 294.656 22.7461 293.735 22.2382C292.814 21.7167 292.106 21.0235 291.609 20.1588C291.112 19.2941 290.863 18.3471 290.863 17.3176C290.863 16.2196 291.126 15.2382 291.653 14.3735C292.193 13.5088 292.931 12.8294 293.867 12.3353C294.802 11.8275 295.869 11.5735 297.067 11.5735ZM297.374 22.1147C297.915 22.1147 298.339 21.9363 298.646 21.5794C298.953 21.2088 299.172 20.7147 299.303 20.0971C299.435 19.4657 299.501 18.7588 299.501 17.9765C299.501 16.9745 299.398 16.0618 299.194 15.2382C299.004 14.401 298.704 13.7284 298.295 13.2206C297.886 12.7127 297.36 12.4588 296.717 12.4588C296.19 12.4588 295.767 12.6441 295.445 13.0147C295.138 13.3716 294.919 13.8588 294.787 14.4765C294.656 15.0941 294.59 15.801 294.59 16.5971C294.59 17.5853 294.685 18.498 294.875 19.3353C295.08 20.1725 295.387 20.8451 295.796 21.3529C296.205 21.8608 296.731 22.1147 297.374 22.1147Z" fill="#0945BE"/>
<path d="M315.071 22.8559C314.852 22.6225 314.632 22.3961 314.413 22.1765C314.194 21.9431 313.814 21.6206 313.273 21.2088L307.047 16.35H307.004V20.6324C307.004 21.099 307.128 21.4765 307.376 21.7647C307.639 22.0392 308.085 22.1902 308.713 22.2176V22.6912H304.877V22.2176C305.199 22.1902 305.44 22.0392 305.601 21.7647C305.776 21.4765 305.864 21.099 305.864 20.6324V13.9412C305.864 13.2686 305.761 12.8431 305.557 12.6647C305.367 12.4725 305.031 12.3696 304.548 12.3559V11.8824H306.96C307.179 12.1431 307.405 12.3833 307.639 12.6029C307.873 12.8225 308.165 13.0696 308.516 13.3441L314.83 18.2235H314.874V13.9412C314.874 13.4745 314.757 13.0971 314.523 12.8088C314.289 12.5206 313.909 12.3696 313.383 12.3559V11.8824H317V12.3559C316.678 12.3696 316.43 12.5206 316.255 12.8088C316.094 13.0971 316.014 13.4745 316.014 13.9412V20.6324C316.014 21.0167 316.014 21.3873 316.014 21.7441C316.028 22.0873 316.043 22.4578 316.057 22.8559H315.071Z" fill="#0945BE"/>
</svg>
