<svg width="17" height="15" viewBox="0 0 17 15" fill="none" xmlns="http://www.w3.org/2000/svg">
<path fill-rule="evenodd" clip-rule="evenodd" d="M1.10995 0.505966L15.7948 7.05077C15.8852 7.08131 15.9644 7.13843 16.0219 7.21466C16.0795 7.29089 16.1127 7.38266 16.1172 7.47794C16.1217 7.57322 16.0973 7.66757 16.0472 7.74861C15.9971 7.82965 15.9237 7.8936 15.8365 7.93208L1.132 14.514C1.04754 14.5519 0.953729 14.5642 0.862199 14.5494C0.77067 14.5345 0.685458 14.493 0.61714 14.4302C0.548821 14.3674 0.500406 14.2859 0.477904 14.196C0.455402 14.106 0.459804 14.0114 0.490564 13.9241L2.23084 8.91074L10.1161 7.52175L2.24561 6.11211L0.471905 1.09417C0.441205 1.00694 0.436692 0.912695 0.458922 0.823066C0.481152 0.733437 0.529153 0.652346 0.597001 0.589798C0.66485 0.527249 0.749578 0.485981 0.840731 0.471084C0.931884 0.456187 1.02547 0.468313 1.10995 0.505966Z" fill="#333333"/>
</svg>
