<svg width="31" height="35" viewBox="0 0 31 35" fill="none" xmlns="http://www.w3.org/2000/svg">
<path d="M12.733 30.2332C5.71152 30.2332 0 24.521 0 17.4995H2.82473C2.82473 22.9635 7.26971 27.4085 12.7337 27.4085C18.1977 27.4085 22.6427 22.9635 22.6427 17.4995C22.6427 12.0355 18.1977 7.59051 12.7337 7.59051V4.76578C19.7545 4.76578 25.4674 10.478 25.4674 17.4995C25.4674 24.521 19.7545 30.2332 12.733 30.2332Z" fill="white"/>
<path d="M12.733 34.7968C8.30184 34.7968 3.87065 33.1096 0.497103 29.7361L2.49379 27.7394C8.1405 33.3854 17.3262 33.3847 22.9723 27.7394C28.6183 22.0934 28.6183 12.907 22.9723 7.26026C17.3262 1.61493 8.13981 1.61424 2.49379 7.26026L0.497103 5.26357C7.2442 -1.48353 18.2225 -1.48353 24.9696 5.26357C31.7167 12.0107 31.7167 22.989 24.9696 29.7361C21.5961 33.1096 17.1642 34.7968 12.733 34.7968Z" fill="white"/>
<path d="M18.5859 14.8444C18.4342 13.0814 16.887 11.7631 15.1179 11.7631H13.8948L13.8899 11.3246C13.883 10.74 13.4032 10.2718 12.8192 10.2787C12.2345 10.2856 11.7664 10.7655 11.7733 11.3502L11.7781 11.7631H10.5564L10.5557 11.335C10.5543 10.7503 10.0793 10.2774 9.49461 10.2787C8.90994 10.2801 8.43697 10.7551 8.43835 11.3398L8.43903 11.7631H7.92608C7.34141 11.7631 6.86775 12.2368 6.86775 12.8215C6.86775 13.4061 7.34141 13.8798 7.92608 13.8798H8.44318L8.45834 21.044H7.92608C7.34141 21.044 6.86775 21.5177 6.86775 22.1024C6.86775 22.687 7.34141 23.1607 7.92608 23.1607H8.46317L8.46454 23.6619C8.46592 24.2466 8.94096 24.7196 9.52563 24.7182C10.1103 24.7168 10.5833 24.2418 10.5819 23.6571L10.5805 23.1607H11.7726L11.7788 23.6716C11.7857 24.2562 12.2649 24.7244 12.8495 24.7182C13.4342 24.7113 13.9024 24.2321 13.8961 23.6474L13.8906 23.1607H15.1186C16.8884 23.1607 18.4349 21.8431 18.5866 20.0795C18.6741 19.0653 18.3101 18.1331 17.6744 17.4609C18.3101 16.7914 18.6734 15.8586 18.5859 14.8444ZM15.2199 13.8812C15.957 13.8812 16.5492 14.5169 16.4754 15.2691C16.4113 15.9248 15.8225 16.4046 15.1634 16.4046H10.5653L10.5598 13.8812H15.2199ZM15.1641 21.0454H10.5757L10.5702 18.522H15.2199C15.9576 18.522 16.5492 19.1577 16.4754 19.9099C16.412 20.5655 15.8225 21.0454 15.1641 21.0454Z" fill="white"/>
</svg>
