<svg width="31" height="35" viewBox="0 0 31 35" fill="none" xmlns="http://www.w3.org/2000/svg">
<path d="M12.733 30.1881C5.71152 30.1881 0 24.4759 0 17.4544H2.82473C2.82473 22.9184 7.26971 27.3634 12.7337 27.3634C18.1977 27.3634 22.6427 22.9184 22.6427 17.4544C22.6427 11.9904 18.1977 7.54544 12.7337 7.54544V4.7207C19.7545 4.7207 25.4674 10.4329 25.4674 17.4544C25.4674 24.4759 19.7545 30.1881 12.733 30.1881Z" fill="#171717"/>
<path d="M12.733 34.7517C8.30184 34.7517 3.87065 33.0646 0.497104 29.6911L2.49379 27.6944C8.1405 33.3404 17.3262 33.3397 22.9723 27.6944C28.6183 22.0483 28.6183 12.8619 22.9723 7.21521C17.3262 1.56988 8.13981 1.56919 2.49379 7.21521L0.497104 5.21853C7.2442 -1.52857 18.2225 -1.52857 24.9696 5.21853C31.7167 11.9656 31.7167 22.944 24.9696 29.6911C21.5961 33.0646 17.1642 34.7517 12.733 34.7517Z" fill="#171717"/>
<path d="M18.5859 14.7991C18.4342 13.0361 16.887 11.7179 15.1179 11.7179H13.8948L13.8899 11.2794C13.883 10.6947 13.4032 10.2266 12.8192 10.2335C12.2345 10.2404 11.7664 10.7202 11.7733 11.3049L11.7781 11.7179H10.5564L10.5557 11.2897C10.5543 10.7051 10.0793 10.2321 9.49461 10.2335C8.90994 10.2349 8.43697 10.7099 8.43835 11.2946L8.43903 11.7179H7.92608C7.34141 11.7179 6.86775 12.1916 6.86775 12.7762C6.86775 13.3609 7.34141 13.8345 7.92608 13.8345H8.44318L8.45834 20.9988H7.92608C7.34141 20.9988 6.86775 21.4724 6.86775 22.0571C6.86775 22.6418 7.34141 23.1154 7.92608 23.1154H8.46317L8.46455 23.6167C8.46592 24.2013 8.94097 24.6743 9.52563 24.6729C10.1103 24.6715 10.5833 24.1965 10.5819 23.6118L10.5805 23.1154H11.7726L11.7788 23.6263C11.7857 24.211 12.2649 24.6791 12.8495 24.6729C13.4342 24.666 13.9024 24.1868 13.8961 23.6022L13.8906 23.1154H15.1186C16.8884 23.1154 18.4349 21.7979 18.5866 20.0342C18.6741 19.02 18.3101 18.0878 17.6744 17.4156C18.3101 16.7462 18.6734 15.8133 18.5859 14.7991ZM15.2199 13.8359C15.957 13.8359 16.5492 14.4716 16.4754 15.2238C16.4113 15.8795 15.8225 16.3594 15.1634 16.3594H10.5654L10.5598 13.8359H15.2199ZM15.1641 21.0001H10.5757L10.5702 18.4767H15.2199C15.9576 18.4767 16.5492 19.1124 16.4754 19.8646C16.412 20.5203 15.8225 21.0001 15.1641 21.0001Z" fill="#171717"/>
</svg>
