<svg width="145" height="42" viewBox="0 0 145 42" fill="none" xmlns="http://www.w3.org/2000/svg">
<path d="M21.5703 14.5372C20.7406 13.7501 19.7954 13.089 18.7662 12.5756C18.2847 11.5433 17.5339 10.6537 16.5895 9.99645C15.6451 9.33923 14.5405 8.93766 13.3871 8.8323C12.4855 8.74326 11.5748 8.82972 10.7074 9.08668C9.84001 9.34365 9.03298 9.76606 8.33274 10.3296C7.99298 10.5821 7.68061 10.8681 7.40057 11.1831C7.1147 11.3714 6.79625 11.5071 6.46077 11.5837C4.89824 12.0104 1.62801 11.3179 0.848653 11.0484C0.799963 11.0355 0.748306 11.0384 0.701448 11.0567C0.654591 11.075 0.615069 11.1077 0.588801 11.1499C0.562532 11.1921 0.550924 11.2415 0.55576 11.2907C0.560595 11.3399 0.581612 11.3862 0.615616 11.4227C1.33682 12.1322 1.88756 12.9902 2.2278 13.9345C2.69006 15.3457 2.34624 17.0378 1.99476 18.3517C0.81809 22.7614 2.25073 26.6357 5.81513 28.732C6.38492 29.9348 7.26292 30.9724 8.36359 31.7439C9.46426 32.5153 10.7501 32.9943 12.0958 33.1342C12.4595 33.1791 12.8257 33.2016 13.1923 33.2016C14.4356 33.2215 15.6666 32.9587 16.7889 32.4339C17.9111 31.9091 18.8939 31.1366 19.6601 30.1769C20.5599 29.0394 21.0322 27.6328 20.9973 26.194C22.4796 25.3742 23.5378 23.7982 23.9084 21.8405C24.1538 20.5286 24.0691 19.1779 23.6617 17.9053C23.2543 16.6328 22.5364 15.4767 21.5703 14.5372ZM3.32042 18.6923C3.79414 16.9105 4.19148 14.6719 3.21729 12.7741C4.23577 12.9815 5.2807 13.0345 6.3156 12.9313C5.95505 13.9161 5.8245 14.9676 5.93356 16.0083C6.14162 17.8462 6.97771 19.5612 8.30602 20.8747C9.26996 21.8436 10.3253 22.7209 11.4578 23.4951C13.0509 24.6181 13.9258 25.2657 13.7806 26.6282C13.7276 26.9739 13.5844 27.3002 13.3649 27.5757C13.1453 27.8511 12.8569 28.0663 12.5275 28.2005C11.2515 28.8181 9.36042 28.8069 7.71002 28.1705C3.8056 26.5609 2.16285 23.0234 3.32042 18.6923ZM13.1273 29.3871C13.665 29.158 14.1328 28.7961 14.485 28.3368C14.8373 27.8775 15.0618 27.3365 15.1368 26.7667C15.3622 24.633 13.9258 23.6036 12.2486 22.402C11.1869 21.6784 10.1969 20.8588 9.29165 19.9538C8.17937 18.8621 7.47427 17.4355 7.28979 15.9035C7.15405 15.0545 7.25575 14.1853 7.58403 13.3883C7.91232 12.5914 8.45492 11.8966 9.15413 11.3778C9.7238 10.9145 10.3823 10.5675 11.0909 10.3573C11.7995 10.147 12.5438 10.0778 13.2801 10.1537C14.4934 10.2527 15.6298 10.7762 16.4816 11.6286C15.1611 11.2691 13.7525 11.3901 12.516 11.9692C12.0137 12.2247 11.592 12.6097 11.2965 13.0827C11.0009 13.5556 10.8427 14.0987 10.8389 14.6532C10.774 16.8993 12.646 18.2132 14.6287 19.6019C15.6447 20.2718 16.5961 21.0311 17.4711 21.8704C18.7356 23.1619 19.45 24.4908 19.599 25.8534C19.729 27.1091 19.3626 28.3658 18.5751 29.3646C17.2036 31.1652 14.7815 32.0935 12.2715 31.7941C10.6513 31.6223 9.15374 30.8673 8.06913 29.6753C9.8456 30.1657 11.7329 30.0646 13.1273 29.3871ZM12.2104 14.7056C12.2027 14.3851 12.2889 14.0691 12.4589 13.7951C12.6288 13.5211 12.8754 13.3005 13.1693 13.1596C13.7157 12.8791 14.3252 12.7375 14.942 12.7479C16.707 12.7479 18.8196 13.7324 20.6038 15.4842C21.4103 16.2719 22.0091 17.2399 22.3485 18.3049C22.688 19.3699 22.7579 20.4998 22.5522 21.5972C22.3584 22.8181 21.7273 23.9315 20.7719 24.7379C20.3478 23.3062 19.559 22.0038 18.4796 20.9533C17.5481 20.0525 16.5326 19.2391 15.4463 18.5239C13.6736 17.296 12.1646 16.2329 12.2104 14.7056Z" fill="white"/>
<path d="M29.8082 26.5644C30.7766 27.0255 31.8376 27.2697 32.9142 27.2794C34.6219 27.2794 35.4853 26.3997 35.4853 25.1943C35.4853 23.8505 34.6486 23.1954 33.0517 22.1996C30.4806 20.6611 29.4988 18.7146 29.4988 17.0413C29.4988 14.084 31.5159 11.6134 35.4318 11.6134C36.4603 11.5906 37.4786 11.8169 38.3964 12.2722L37.8004 15.353C37.0848 14.9274 36.2612 14.7081 35.4242 14.7204C33.8578 14.7204 33.1014 15.6525 33.1014 16.6408C33.1014 17.7376 33.6591 18.314 35.6763 19.5194C38.1939 21.0168 39.0879 22.866 39.0879 24.8125C39.0879 28.1815 36.5435 30.4051 32.876 30.4051C31.632 30.4209 30.4001 30.1651 29.2695 29.6564L29.8082 26.5644Z" fill="white"/>
<path d="M43.5397 30.2403V23.1654L39.3984 11.7593H43.3105L44.5712 16.1765C44.9342 17.3557 45.2971 18.7257 45.5798 20.0958H45.6333C45.8587 18.7519 46.1643 17.4081 46.5005 16.0941L47.6199 11.7593H51.4402L47.1996 23.0306V30.2403H43.5397Z" fill="white"/>
<path d="M52.6719 30.2403V11.7593H56.03L58.9373 18.999C59.5256 20.4252 60.4234 22.8097 60.9544 24.4007H61.0079C60.8971 22.4541 60.6259 19.2461 60.6259 15.8471V11.7593H63.8426V30.2403H60.4845L57.604 23.2215C56.8682 21.4001 56.2306 19.5421 55.6938 17.6551H55.6365C55.7473 19.5268 55.8886 22.3718 55.8886 26.1001V30.2403H52.6719Z" fill="white"/>
<path d="M74.6729 22.1322H70.3903V27.1221H75.2422V30.2478H66.7266V11.7593H74.9251V14.885H70.3903V19.1375H74.6729V22.1322Z" fill="white"/>
<path d="M77.4531 12.0252C78.7718 11.7797 80.1108 11.6544 81.453 11.6509C83.4664 11.6509 85.2734 11.9541 86.4883 13.021C87.7032 14.0878 88.0164 15.267 88.0164 16.8616C88.0468 17.8245 87.7869 18.7748 87.2691 19.5938C86.7514 20.4127 85.9987 21.0639 85.1053 21.466V21.5221C86.3928 22.0425 87.0384 23.1954 87.3975 25.1944C87.7796 27.2532 88.2647 29.5292 88.6009 30.2142H84.7806C84.5323 29.6939 84.112 27.8297 83.8293 25.7708C83.4931 23.4949 82.9086 22.8398 81.7052 22.8398H81.1436V30.2142H77.4798L77.4531 12.0252ZM81.1168 20.0847H81.7892C83.3861 20.0847 84.2801 18.8232 84.2801 17.2061C84.2801 15.5889 83.6345 14.5183 82.0146 14.4622C81.711 14.4498 81.4075 14.4877 81.1168 14.5745V20.0847Z" fill="white"/>
<path d="M100.688 29.7465C99.4368 30.1719 98.1232 30.3944 96.7989 30.4053C94.6137 30.4053 92.9786 29.8027 91.7331 28.5674C90.1095 27.0326 89.2422 24.2923 89.2995 21.1105C89.3836 14.3911 93.2727 11.5948 97.3223 11.5948C98.3695 11.5626 99.4115 11.7504 100.379 12.1452L99.7635 15.2409C99.0874 14.9428 98.3496 14.8031 97.6088 14.8329C95.0912 14.8329 93.1046 16.5024 93.1046 21.3014C93.1046 25.7448 94.8658 27.3619 96.6003 27.3619C96.8464 27.3727 97.0928 27.3449 97.33 27.2795V22.8101H95.6222V19.8864H100.688V29.7465Z" fill="white"/>
<path d="M111.157 22.1322H106.875V27.1221H111.715V30.2478H103.211V11.7593H111.409V14.885H106.875V19.1375H111.157V22.1322Z" fill="white"/>
<path d="M116.124 15.0797H112.793V11.7593H123.146V15.0797H119.788V30.2403H116.124V15.0797Z" fill="white"/>
<path d="M128.398 11.7593V30.2403H124.734V11.7593H128.398Z" fill="white"/>
<path d="M140.378 29.9671C139.473 30.2928 138.513 30.4416 137.55 30.4051C132.71 30.4051 130.414 26.5382 130.414 21.2751C130.414 14.3087 134.36 11.5947 138.024 11.5947C139.312 11.5947 140.209 11.8418 140.572 12.0888L139.957 15.106C139.427 14.8493 138.841 14.7209 138.25 14.7317C136.179 14.7317 134.303 16.4836 134.303 21.0654C134.303 25.4789 136.011 27.2045 138.25 27.2045C138.848 27.1942 139.442 27.1022 140.015 26.9313L140.378 29.9671Z" fill="white"/>
</svg>
