<svg width="24" height="24" viewBox="0 0 24 24" fill="none" xmlns="http://www.w3.org/2000/svg">
<path fill-rule="evenodd" clip-rule="evenodd" d="M2.22852 5.1429C2.22852 4.48015 2.76577 3.9429 3.42852 3.9429H20.5714C21.2341 3.9429 21.7714 4.48015 21.7714 5.1429C21.7714 5.80564 21.2341 6.3429 20.5714 6.3429H3.42852C2.76577 6.3429 2.22852 5.80564 2.22852 5.1429ZM2.22852 12C2.22852 11.3373 2.76577 10.8 3.42852 10.8H20.5714C21.2341 10.8 21.7714 11.3373 21.7714 12C21.7714 12.6628 21.2341 13.2 20.5714 13.2H3.42852C2.76577 13.2 2.22852 12.6628 2.22852 12ZM3.42852 17.6572C2.76577 17.6572 2.22852 18.1944 2.22852 18.8572C2.22852 19.5199 2.76577 20.0572 3.42852 20.0572H20.5714C21.2341 20.0572 21.7714 19.5199 21.7714 18.8572C21.7714 18.1944 21.2341 17.6572 20.5714 17.6572H3.42852Z" fill="#43493D"/>
</svg>
