<svg width="64" height="64" viewBox="0 0 64 64" fill="none" xmlns="http://www.w3.org/2000/svg">
<mask id="mask0_1_15" style="mask-type:luminance" maskUnits="userSpaceOnUse" x="4" y="4" width="56" height="56">
<path d="M4 17.7398C4 10.1515 10.1515 4 17.7398 4H46.2602C53.8484 4 60 10.1515 60 17.7398V46.2602C60 53.8484 53.8484 60 46.2602 60H17.7398C10.1515 60 4 53.8484 4 46.2602V17.7398Z" fill="white"/>
</mask>
<g mask="url(#mask0_1_15)">
<path d="M54.3328 16.9199C52.3966 15.0834 50.1912 13.5406 47.7898 12.3429C46.6662 9.93414 44.9144 7.85832 42.7108 6.32478C40.5072 4.79126 37.9298 3.85426 35.2386 3.60842C33.1348 3.40066 31.0098 3.6024 28.986 4.20198C26.962 4.80158 25.079 5.7872 23.445 7.10222C22.6522 7.69124 21.9234 8.3586 21.27 9.09372C20.603 9.53304 19.8599 9.84974 19.0771 10.0283C15.4312 11.024 7.80068 9.40818 5.98218 8.77928C5.86858 8.74914 5.74804 8.75594 5.6387 8.79864C5.52938 8.84134 5.43716 8.91764 5.37586 9.0161C5.31456 9.11454 5.28748 9.22986 5.29876 9.34466C5.31004 9.45944 5.35908 9.56756 5.43844 9.65274C7.12124 11.3082 8.4063 13.3103 9.2002 15.5136C10.2788 18.8065 9.47654 22.7546 8.65644 25.8204C5.91088 36.1096 9.2537 45.1498 17.5706 50.0412C18.9001 52.8476 20.9488 55.2686 23.517 57.0688C26.0852 58.8688 29.0856 59.9866 32.2256 60.3128C33.0742 60.4176 33.9286 60.47 34.784 60.4702C37.685 60.5164 40.5576 59.9034 43.176 58.6788C45.7946 57.4542 48.0878 55.6518 49.8756 53.4126C51.9752 50.7584 53.077 47.4762 52.9956 44.119C56.4544 42.2062 58.9236 38.529 59.7882 33.9608C60.3608 30.8998 60.1632 27.7482 59.2126 24.7788C58.262 21.8096 56.587 19.112 54.3328 16.9199ZM11.7496 26.6152C12.855 22.4576 13.7821 17.2343 11.509 12.8059C13.8854 13.2899 16.3236 13.4136 18.7384 13.1727C17.8971 15.4706 17.5925 17.9241 17.847 20.3526C18.3324 24.6408 20.2834 28.6424 23.3826 31.7074C25.632 33.968 28.0942 36.0152 30.737 37.8216C34.4542 40.4418 36.4954 41.953 36.1566 45.1324C36.033 45.9388 35.699 46.7002 35.1868 47.343C34.6744 47.9856 34.0014 48.4878 33.2328 48.8008C30.2556 50.242 25.843 50.2158 21.992 48.731C12.8817 44.975 9.04864 36.721 11.7496 26.6152ZM34.6324 51.5696C35.887 51.035 36.9786 50.1906 37.8004 49.119C38.6222 48.0472 39.1462 46.785 39.3212 45.4554C39.8472 40.4768 36.4954 38.0748 32.582 35.271C30.1048 33.5826 27.7948 31.6702 25.6826 29.5586C23.0872 27.0114 21.442 23.6826 21.0114 20.108C20.6948 18.1268 20.932 16.0987 21.698 14.2392C22.464 12.3797 23.7302 10.7585 25.3616 9.54792C26.6908 8.46684 28.2274 7.65718 29.8808 7.16668C31.5342 6.67616 33.271 6.51468 34.989 6.69172C37.82 6.92274 40.4716 8.1443 42.459 10.1331C39.378 9.2943 36.0912 9.57662 33.206 10.9279C32.034 11.5241 31.05 12.4224 30.3604 13.526C29.6708 14.6296 29.3016 15.8966 29.2928 17.1906C29.1412 22.4314 33.5092 25.4972 38.1356 28.7376C40.5062 30.3006 42.7262 32.0722 44.7678 34.0308C47.7184 37.0442 49.3854 40.145 49.733 43.3242C50.0364 46.2542 49.1812 49.1866 47.344 51.5172C44.1438 55.7186 38.4922 57.8846 32.6356 57.186C28.855 56.785 25.3608 55.0234 22.83 52.2422C26.975 53.3864 31.3788 53.1506 34.6324 51.5696ZM32.493 17.3129C32.475 16.5649 32.6762 15.8276 33.0726 15.1883C33.4692 14.5489 34.0446 14.0343 34.7304 13.7056C36.0054 13.0509 37.4276 12.7205 38.8666 12.7447C42.985 12.7447 47.9144 15.0419 52.0774 19.1297C53.9592 20.9674 55.3566 23.2262 56.1486 25.7112C56.9406 28.1962 57.1036 30.8326 56.6236 33.3932C56.1716 36.242 54.699 38.8398 52.4696 40.7214C51.4802 37.381 49.6396 34.342 47.1212 31.8908C44.9476 29.7888 42.578 27.891 40.0432 26.222C35.907 23.3572 32.386 20.8766 32.493 17.3129Z" fill="#87C200"/>
</g>
</svg>
