<svg width="48" height="48" viewBox="0 0 48 48" fill="none" xmlns="http://www.w3.org/2000/svg">
<path fill-rule="evenodd" clip-rule="evenodd" d="M6.74981 22.0347C17.4872 17.434 24.647 14.4011 28.2296 12.9357C38.4582 8.75165 40.5838 8.02467 41.969 8.00075C42.2738 7.99545 42.955 8.06975 43.3966 8.42185C43.769 8.71933 43.8716 9.12085 43.9208 9.40285C43.9698 9.68485 44.0308 10.3271 43.982 10.8288C43.4278 16.5565 41.0296 30.4561 39.8094 36.8713C39.293 39.5859 38.2764 40.4959 37.292 40.5851C35.153 40.7785 33.529 39.1947 31.4574 37.8593C28.2158 35.7695 26.3844 34.4683 23.2376 32.4293C19.6011 30.0725 21.9586 28.7771 24.031 26.6603C24.5732 26.1063 33.9976 17.6761 34.1798 16.9113C34.2026 16.8157 34.2238 16.4593 34.0084 16.271C33.793 16.0827 33.4752 16.1471 33.2458 16.1982C32.9208 16.2707 27.742 19.637 17.7097 26.2971C16.2397 27.2897 14.9083 27.7735 13.7154 27.7481C12.4003 27.7201 9.87057 27.0169 7.98997 26.4157C5.68335 25.6781 3.85007 25.2883 4.00969 24.0361C4.09285 23.3839 5.00621 22.7167 6.74981 22.0347Z" fill="#ECECEC"/>
</svg>
