<svg width="48" height="48" viewBox="0 0 48 48" fill="none" xmlns="http://www.w3.org/2000/svg">
<path fill-rule="evenodd" clip-rule="evenodd" d="M25.9616 34.2207C25.9616 34.2207 26.6836 34.1423 27.0534 33.7541C27.3918 33.3981 27.3802 32.7267 27.3802 32.7267C27.3802 32.7267 27.3352 29.5913 28.8238 29.1283C30.2912 28.6731 32.1752 32.1603 34.1746 33.5013C35.685 34.5153 36.8316 34.2933 36.8316 34.2933L42.1744 34.2207C42.1744 34.2207 44.968 34.0523 43.6436 31.9041C43.5342 31.7279 42.8708 30.3143 39.6722 27.4105C36.3208 24.3709 36.7708 24.8623 40.8048 19.6037C43.262 16.4015 44.2444 14.4464 43.937 13.6104C43.6456 12.8107 41.838 13.0232 41.838 13.0232L35.824 13.0594C35.824 13.0594 35.378 13.0001 35.0472 13.1934C34.7244 13.3827 34.5152 13.8247 34.5152 13.8247C34.5152 13.8247 33.5644 16.302 32.2944 18.41C29.6162 22.8557 28.5462 23.0911 28.1078 22.8155C27.0886 22.1709 27.3428 20.2291 27.3428 18.8501C27.3428 14.54 28.012 12.7437 26.0418 12.2789C25.3884 12.1239 24.9072 12.0225 23.2344 12.0053C21.0884 11.9842 19.2728 12.013 18.2437 12.5046C17.5588 12.8317 17.0308 13.5625 17.3535 13.6045C17.7506 13.6563 18.6506 13.8417 19.128 14.477C19.7442 15.2976 19.7226 17.1378 19.7226 17.1378C19.7226 17.1378 20.0768 22.2111 18.8953 22.8405C18.0853 23.2727 16.9738 22.3909 14.5851 18.3565C13.3624 16.2903 12.4389 14.0063 12.4389 14.0063C12.4389 14.0063 12.261 13.5798 11.942 13.3503C11.5567 13.0729 11.0186 12.9868 11.0186 12.9868L5.30402 13.0232C5.30402 13.0232 4.44516 13.0461 4.13018 13.4114C3.8504 13.7348 4.10866 14.4063 4.10866 14.4063C4.10866 14.4063 8.58296 24.6425 13.6499 29.8017C18.2964 34.5305 23.571 34.2207 23.571 34.2207H25.9616Z" fill="#ECECEC"/>
</svg>
