<svg width="48" height="48" viewBox="0 0 48 48" fill="none" xmlns="http://www.w3.org/2000/svg">
<path fill-rule="evenodd" clip-rule="evenodd" d="M39.6276 10.855C41.3486 11.3254 42.7042 12.7117 43.164 14.4721C44 17.6624 44 24.3194 44 24.3194C44 24.3194 44 30.976 43.164 34.1668C42.7042 35.9272 41.3486 37.3132 39.6276 37.784C36.5086 38.639 24 38.639 24 38.639C24 38.639 11.4915 38.639 8.37226 37.784C6.65114 37.3132 5.29568 35.9272 4.83568 34.1668C4 30.976 4 24.3194 4 24.3194C4 24.3194 4 17.6624 4.83568 14.4721C5.29568 12.7117 6.65114 11.3254 8.37226 10.855C11.4915 10 24 10 24 10C24 10 36.5086 10 39.6276 10.855ZM20.2486 18.7101V31.162L30.2484 24.9362L20.2486 18.7101Z" fill="#ECECEC"/>
</svg>
