<svg xmlns="http://www.w3.org/2000/svg" id="Layer_1" data-name="Layer 1" viewBox="0 0 30 30"><defs><style>      .cls-1 {        fill: none;        stroke: #01a800;        stroke-linecap: round;        stroke-linejoin: round;      }    </style></defs><ellipse class="cls-1" cx="11" cy="5.5" rx="7.5" ry="2"></ellipse><path class="cls-1" d="M18.5,5.5v3c0,1.1-3.4,2-7.5,2s-7.5-.9-7.5-2v-3"></path><path class="cls-1" d="M18.5,8.5v3c0,1.1-3.4,2-7.5,2s-7.5-.9-7.5-2v-3"></path><ellipse class="cls-1" cx="19" cy="18.5" rx="7.5" ry="2"></ellipse><path class="cls-1" d="M26.5,18.5v3c0,1.1-3.4,2-7.5,2s-7.5-.9-7.5-2v-3"></path><path class="cls-1" d="M26.5,21.5v3c0,1.1-3.4,2-7.5,2s-7.5-.9-7.5-2v-3"></path><path class="cls-1" d="M18.5,11.5v3c0,1.1-3.4,2-7.5,2s-7.5-.9-7.5-2v-3"></path><path class="cls-1" d="M3.5,14.5v3c0,1.1,3.4,2,7.5,2h.5"></path><path class="cls-1" d="M3.5,17.5v3c0,1.1,3.4,2,7.5,2h.5"></path><line class="cls-1" x1="18.5" y1="14.5" x2="18.5" y2="16.5"></line></svg>