<svg width="140" height="24" viewBox="0 0 140 24" fill="none" xmlns="http://www.w3.org/2000/svg">
<path d="M62.8234 7.23294L65.7186 5.10986H56.0258V17.8276H65.7186V15.7045H58.7952V12.4574H64.7116V10.3343H58.7952V7.23294H62.8234Z" fill="white"/>
<path d="M48.704 10.0637H45.3472V7.23294H50.7181L53.6134 5.10986H42.5778V17.8276H48.3473C51.5783 17.8276 53.4455 16.3706 53.4455 13.8312C53.4455 11.3959 51.7671 10.0637 48.704 10.0637ZM48.2424 15.7045H45.3472V12.1868H48.2424C50.0048 12.1868 50.823 12.7696 50.823 13.9561C50.823 15.1425 49.9418 15.7045 48.2424 15.7045Z" fill="white"/>
<path d="M73.5633 5.10986H68.2974V17.8276H71.0666V14.2266H73.5843C76.9411 14.2266 79.0391 12.4782 79.0391 9.66825C79.0391 6.85828 76.9411 5.10986 73.5633 5.10986ZM73.5004 12.1036H71.0457V7.23294H73.5004C75.2837 7.23294 76.2488 8.10715 76.2488 9.66825C76.2488 11.2293 75.2837 12.1036 73.5004 12.1036Z" fill="white"/>
<path d="M37.8362 15.0771C37.102 15.4726 36.2837 15.6807 35.4445 15.6807C32.9478 15.6807 31.1435 13.9115 31.1435 11.4762C31.1435 9.0409 32.9478 7.27167 35.4445 7.27167C36.3466 7.25085 37.2278 7.54225 37.9621 8.06262L39.9552 6.60559L39.8293 6.4807C38.6754 5.46079 37.1229 4.94043 35.3606 4.94043C33.4513 4.94043 31.71 5.58568 30.4512 6.7513C29.1923 7.95855 28.479 9.64453 28.521 11.3929C28.5 13.1622 29.1923 14.869 30.4512 16.1178C31.7729 17.346 33.5352 18.0327 35.3395 17.9912C37.3327 17.9912 39.074 17.3043 40.2489 16.0554L38.4656 14.7441L37.8362 15.0771Z" fill="white"/>
<path d="M112.336 5.13068V17.8483H115.105V12.6447H121.001V17.8483H123.77V5.13068H121.001V10.3551H115.105V5.13068H112.336ZM107.574 17.8483H110.49L105.077 5.13068H102.266L96.7477 17.8483H99.5382L100.65 15.2882H106.525L107.574 17.8483ZM101.489 13.1651L103.629 8.06553L105.643 13.1651H101.489ZM129.98 12.7072H131.701L135.939 17.8276H139.505L133.841 11.2502L138.792 5.10986H135.624L131.512 10.5633H129.98V5.10986H127.211V17.8276H129.98V12.7072ZM87.6005 10.0845V7.25376H94.8386V5.13068H84.8311V17.8483H90.6006C93.8316 17.8483 95.6988 16.3914 95.6988 13.852C95.6988 11.4167 94.0204 10.0845 90.9573 10.0845H87.6005ZM87.6005 15.7253V12.2076H90.4957C92.258 12.2076 93.0762 12.7904 93.0762 13.9769C93.0762 15.1634 92.216 15.746 90.4957 15.746H87.6005V15.7253Z" fill="white"/>
<path d="M19.8538 5.02173C20.3573 5.66699 20.7769 6.37469 21.1336 7.12401L11.4408 14.2217L7.37061 11.6824V8.64347L11.4198 11.162L19.8538 5.02173Z" fill="white"/>
<path d="M3.23996 11.4765C3.23996 11.3308 3.23996 11.2059 3.26094 11.0602L0.806259 10.9353C0.806259 11.1018 0.785278 11.2892 0.785278 11.4557C0.785278 14.3697 1.98115 17.0131 3.91132 18.9281L5.65268 17.2005C4.16309 15.7434 3.23996 13.7245 3.23996 11.4765Z" fill="white"/>
<path d="M11.4195 3.36084C11.5663 3.36084 11.6922 3.36084 11.8391 3.38166L11.965 0.946351C11.7971 0.946351 11.6083 0.925537 11.4405 0.925537C8.50323 0.925537 5.83875 2.11197 3.90857 4.02691L5.64993 5.75452C7.11853 4.27668 9.1746 3.36084 11.4195 3.36084Z" fill="white"/>
<path d="M11.4222 19.5953C11.2753 19.5953 11.1494 19.5953 11.0026 19.5745L10.8767 22.0099C11.0445 22.0099 11.2334 22.0306 11.4012 22.0306C14.3384 22.0306 17.0029 20.8442 18.933 18.9293L17.1917 17.2017C15.7231 18.7003 13.688 19.5953 11.4222 19.5953Z" fill="white"/>
<path d="M16.0385 4.77679L18.1155 3.25732C16.2902 1.8003 13.9615 0.905273 11.4229 0.905273V3.34057C13.1432 3.36139 14.7378 3.88175 16.0385 4.77679Z" fill="white"/>
<path d="M22.0801 11.4732C22.0801 10.828 22.0171 10.2035 21.9122 9.5791L19.6254 11.2651C19.6254 11.3275 19.6254 11.4108 19.6254 11.4732C19.6254 13.8669 18.5763 16.0109 16.9189 17.4886L18.5763 19.2995C20.7163 17.3845 22.0801 14.5746 22.0801 11.4732Z" fill="white"/>
<path d="M11.4208 19.595C9.00806 19.595 6.8471 18.5543 5.35751 16.9099L3.53223 18.5543C5.48339 20.6981 8.29473 22.0303 11.4208 22.0303V19.595Z" fill="white"/>
<path d="M5.94641 5.46274L4.28898 3.65186C2.12801 5.58761 0.785278 8.37677 0.785278 11.4781H3.23996C3.23996 9.10527 4.28898 6.94057 5.94641 5.46274Z" fill="white"/>
</svg>
