<svg width="200" height="33" viewBox="0 0 200 33" fill="none" xmlns="http://www.w3.org/2000/svg">
<path d="M89.4253 9.52706L93.5944 6.42188H79.6367V25.0227H93.5944V21.9174H83.6247V17.1683H92.1443V14.0631H83.6247V9.52706H89.4253Z" fill="#0B923A"/>
<path d="M69.0952 13.6673H64.2614V9.52706H71.9956L76.1647 6.42188H60.2734V25.0227H68.5816C73.2342 25.0227 75.9229 22.8916 75.9229 19.1775C75.9229 15.6157 73.5061 13.6673 69.0952 13.6673ZM68.4305 21.9174H64.2614V16.7725H68.4305C70.9684 16.7725 72.1466 17.6249 72.1466 19.3602C72.1466 21.0955 70.8777 21.9174 68.4305 21.9174Z" fill="#0B923A"/>
<path d="M104.895 6.42188H97.3125V25.0227H101.3V19.7559H104.926C109.759 19.7559 112.781 17.1987 112.781 13.0889C112.781 8.97908 109.759 6.42188 104.895 6.42188ZM104.805 16.6507H101.27V9.52706H104.805C107.373 9.52706 108.763 10.8057 108.763 13.0889C108.763 15.3721 107.373 16.6507 104.805 16.6507Z" fill="#0B923A"/>
<path d="M53.4437 21.0054C52.3864 21.5838 51.2081 21.8883 49.9996 21.8883C46.4044 21.8883 43.8062 19.3006 43.8062 15.7388C43.8062 12.177 46.4044 9.58932 49.9996 9.58932C51.2986 9.55887 52.5675 9.98507 53.625 10.7462L56.4951 8.61512L56.3138 8.43246C54.6522 6.94076 52.4165 6.17969 49.8788 6.17969C47.1295 6.17969 44.6219 7.12342 42.8093 8.82823C40.9965 10.5939 39.9693 13.0598 40.0299 15.617C39.9996 18.2047 40.9965 20.7011 42.8093 22.5275C44.7126 24.3238 47.2503 25.3283 49.8485 25.2675C52.7186 25.2675 55.2262 24.2629 56.918 22.4362L54.3501 20.5184L53.4437 21.0054Z" fill="#0B923A"/>
<path d="M160.724 6.45232V25.0529H164.712V17.4422H173.202V25.0529H177.19V6.45232H173.202V14.0935H164.712V6.45232H160.724ZM153.866 25.0529H158.066L150.271 6.45232H146.223L138.277 25.0529H142.295L143.897 21.3085H152.356L153.866 25.0529ZM145.105 18.2033L148.187 10.7448L151.087 18.2033H145.105ZM186.132 17.5336H188.61L194.712 25.0227H199.848L191.691 15.4026L198.821 6.42188H194.26L188.338 14.398H186.132V6.42188H182.144V25.0227H186.132V17.5336ZM125.105 13.6978V9.55751H135.528V6.45232H121.117V25.0529H129.425C134.078 25.0529 136.767 22.9221 136.767 19.208C136.767 15.6461 134.35 13.6978 129.939 13.6978H125.105ZM125.105 21.9479V16.8029H129.274C131.812 16.8029 132.99 17.6554 132.99 19.3906C132.99 21.126 131.752 21.9782 129.274 21.9782H125.105V21.9479Z" fill="#0B923A"/>
<path d="M27.5539 6.30469C28.279 7.24844 28.8832 8.2835 29.3968 9.37944L15.4392 19.7605L9.57812 16.0465V11.6018L15.4089 15.2854L27.5539 6.30469Z" fill="#0B923A"/>
<path d="M3.62459 15.7368C3.62459 15.5237 3.62459 15.3411 3.6548 15.128L0.120055 14.9453C0.120055 15.1889 0.0898438 15.4628 0.0898438 15.7064C0.0898438 19.9685 1.8119 23.8347 4.59135 26.6354L7.0989 24.1087C4.95389 21.9776 3.62459 19.0247 3.62459 15.7368Z" fill="url(#paint0_linear_1_240)"/>
<path d="M15.4095 3.86652C15.6209 3.86652 15.8022 3.86652 16.0137 3.89697L16.195 0.33513C15.9533 0.33513 15.6814 0.304688 15.4397 0.304688C11.2101 0.304688 7.37321 2.03994 4.59375 4.8407L7.1013 7.36748C9.2161 5.20602 12.1768 3.86652 15.4095 3.86652Z" fill="url(#paint1_linear_1_240)"/>
<path d="M15.4066 27.6103C15.1951 27.6103 15.0138 27.6103 14.8024 27.5799L14.6211 31.1418C14.8628 31.1418 15.1347 31.1721 15.3764 31.1721C19.6059 31.1721 23.4428 29.4369 26.2222 26.6362L23.7146 24.1094C21.5999 26.3012 18.6694 27.6103 15.4066 27.6103Z" fill="url(#paint2_linear_1_240)"/>
<path d="M22.0528 5.93585L25.0436 3.7135C22.4153 1.58249 19.0618 0.273438 15.4062 0.273438V3.83527C17.8836 3.86572 20.1798 4.62678 22.0528 5.93585Z" fill="url(#paint3_linear_1_240)"/>
<path d="M30.7563 15.7391C30.7563 14.7953 30.6656 13.8821 30.5145 12.9688L27.2215 15.4346C27.2215 15.526 27.2215 15.6477 27.2215 15.7391C27.2215 19.24 25.7108 22.3757 23.3242 24.5371L25.7108 27.1856C28.7924 24.3849 30.7563 20.2752 30.7563 15.7391Z" fill="#0B923A"/>
<path d="M15.4064 27.6147C11.9321 27.6147 8.82029 26.0925 6.67528 23.6875L4.04688 26.0925C6.85655 29.2281 10.9049 31.1764 15.4064 31.1764V27.6147Z" fill="url(#paint4_linear_1_240)"/>
<path d="M7.52187 6.93763L5.13517 4.28906C2.02338 7.12027 0.0898438 11.1996 0.0898438 15.7357H3.62459C3.62459 12.2651 5.13517 9.09908 7.52187 6.93763Z" fill="url(#paint5_linear_1_240)"/>
<defs>
<linearGradient id="paint0_linear_1_240" x1="4.21416" y1="26.2021" x2="0.605013" y2="15.6896" gradientUnits="userSpaceOnUse">
<stop offset="0.1444" stop-color="#F2E913"/>
<stop offset="0.3037" stop-color="#E7E518"/>
<stop offset="0.5823" stop-color="#CADB26"/>
<stop offset="0.891" stop-color="#A3CD39"/>
</linearGradient>
<linearGradient id="paint1_linear_1_240" x1="5.60132" y1="4.43878" x2="14.764" y2="0.920298" gradientUnits="userSpaceOnUse">
<stop offset="0.0592" stop-color="#0FA8E0"/>
<stop offset="0.5385" stop-color="#0099F9"/>
<stop offset="0.9234" stop-color="#0291EB"/>
</linearGradient>
<linearGradient id="paint2_linear_1_240" x1="14.4135" y1="28.143" x2="25.3368" y2="25.6554" gradientUnits="userSpaceOnUse">
<stop offset="0.1226" stop-color="#A3CD39"/>
<stop offset="0.2846" stop-color="#86C339"/>
<stop offset="0.8693" stop-color="#21A038"/>
</linearGradient>
<linearGradient id="paint3_linear_1_240" x1="14.68" y1="2.54207" x2="23.7619" y2="5.36574" gradientUnits="userSpaceOnUse">
<stop offset="0.0566" stop-color="#0291EB"/>
<stop offset="0.79" stop-color="#0C8ACB"/>
</linearGradient>
<linearGradient id="paint4_linear_1_240" x1="4.94563" y1="26.6568" x2="14.7006" y2="30.3296" gradientUnits="userSpaceOnUse">
<stop offset="0.1324" stop-color="#F2E913"/>
<stop offset="0.2977" stop-color="#EBE716"/>
<stop offset="0.5306" stop-color="#D9E01F"/>
<stop offset="0.8023" stop-color="#BBD62D"/>
<stop offset="0.9829" stop-color="#A3CD39"/>
</linearGradient>
<linearGradient id="paint5_linear_1_240" x1="2.79824" y1="16.1659" x2="6.70006" y2="5.93801" gradientUnits="userSpaceOnUse">
<stop offset="0.0698" stop-color="#A3CD39"/>
<stop offset="0.2599" stop-color="#81C55F"/>
<stop offset="0.9216" stop-color="#0FA8E0"/>
</linearGradient>
</defs>
</svg>
