<svg width="21" height="20" viewBox="0 0 21 20" fill="none" xmlns="http://www.w3.org/2000/svg">
<g clip-path="url(#clip0_1_266)">
<path d="M4.43415 10.7438C3.92331 11.748 4.50331 12.228 5.82665 13.048C6.95165 13.743 8.50581 13.9972 9.50415 14.0988C9.09498 14.4922 10.97 12.6888 5.56998 17.883C4.42498 18.9805 6.26831 20.7413 7.41248 19.6672L10.51 16.6797C11.6958 17.8205 12.8325 18.9138 13.6075 19.6713C14.7525 20.7497 16.595 19.0038 15.4625 17.8872C15.3775 17.8063 11.265 13.8613 11.5158 14.103C12.5266 14.0013 14.0575 13.7322 15.1691 13.0522L15.1683 13.0513C16.4916 12.2272 17.0716 11.748 16.5683 10.7438C16.2641 10.1738 15.4441 9.69718 14.3525 10.5213C14.3525 10.5213 12.8783 11.6505 10.5008 11.6505C8.12248 11.6505 6.64915 10.5213 6.64915 10.5213C5.55831 9.69301 4.73498 10.1738 4.43415 10.7438Z" fill="#EFF2F5"/>
<path d="M10.4991 10.1281C13.3974 10.1281 15.7641 7.8631 15.7641 5.07477C15.7641 2.27477 13.3974 0.00976562 10.4991 0.00976562C7.59994 0.00976562 5.23328 2.27477 5.23328 5.07477C5.23328 7.8631 7.59994 10.1281 10.4991 10.1281ZM10.4991 2.5756C11.9233 2.5756 13.0849 3.6931 13.0849 5.07477C13.0849 6.44477 11.9233 7.56227 10.4991 7.56227C9.07494 7.56227 7.91328 6.44477 7.91328 5.07477C7.91244 3.69227 9.07411 2.5756 10.4991 2.5756Z" fill="#EFF2F5"/>
</g>
<defs>
<clipPath id="clip0_1_266">
<rect width="20" height="20" fill="white" transform="translate(0.5 0.00976562)"/>
</clipPath>
</defs>
</svg>
