<svg width="21" height="20" viewBox="0 0 21 20" fill="none" xmlns="http://www.w3.org/2000/svg">
<g clip-path="url(#clip0_1_263)">
<path d="M20.394 14.6097C20.3698 14.5575 20.3472 14.5143 20.3262 14.4796C19.9792 13.8546 19.3161 13.0875 18.3373 12.1781L18.3166 12.1573L18.3063 12.147L18.2958 12.1366H18.2853C17.841 11.7131 17.5597 11.4284 17.4419 11.2826C17.2264 11.0049 17.1781 10.7238 17.2959 10.439C17.3791 10.2238 17.6918 9.76933 18.2331 9.075C18.5178 8.70703 18.7433 8.41211 18.9099 8.18992C20.1109 6.59315 20.6317 5.5728 20.4719 5.12845L20.4099 5.02462C20.3682 4.9621 20.2606 4.90491 20.0872 4.85276C19.9135 4.80071 19.6914 4.7921 19.4206 4.82679L16.4217 4.84751C16.3731 4.83029 16.3037 4.8319 16.2133 4.85276C16.1231 4.87362 16.0779 4.88409 16.0779 4.88409L16.0257 4.91017L15.9843 4.9415C15.9496 4.96221 15.9114 4.99865 15.8697 5.05073C15.8282 5.10263 15.7936 5.16354 15.7658 5.23295C15.4393 6.07295 15.0681 6.85393 14.6515 7.57587C14.3946 8.00635 14.1587 8.37943 13.9433 8.69532C13.7281 9.0111 13.5476 9.24376 13.4019 9.39289C13.256 9.54218 13.1244 9.66177 13.0061 9.75211C12.8881 9.84249 12.798 9.88068 12.7355 9.86671C12.673 9.85274 12.6141 9.83888 12.5583 9.82502C12.4612 9.76251 12.3831 9.67749 12.3242 9.56989C12.265 9.4623 12.2252 9.32688 12.2044 9.16374C12.1836 9.00049 12.1714 8.86007 12.1679 8.74201C12.1646 8.62409 12.1661 8.4573 12.1732 8.24211C12.1804 8.02682 12.1836 7.88114 12.1836 7.80477C12.1836 7.54093 12.1888 7.25458 12.1991 6.94566C12.2096 6.63674 12.2181 6.39197 12.2252 6.21165C12.2323 6.03115 12.2356 5.84018 12.2356 5.63885C12.2356 5.43752 12.2233 5.27963 12.1991 5.16504C12.1752 5.05058 12.1385 4.93949 12.0901 4.83179C12.0414 4.72419 11.9701 4.64096 11.8766 4.58188C11.7829 4.52286 11.6664 4.47603 11.5278 4.44124C11.1598 4.35797 10.6912 4.31293 10.1219 4.30593C8.83069 4.29207 8.00105 4.37544 7.63311 4.55594C7.48733 4.63221 7.35541 4.73641 7.23746 4.86822C7.11247 5.02101 7.09504 5.10438 7.18527 5.1181C7.60186 5.1805 7.89677 5.32978 8.07035 5.5658L8.1329 5.69086C8.18155 5.78109 8.23013 5.94084 8.27875 6.16989C8.3273 6.39894 8.35863 6.65231 8.37241 6.92987C8.40706 7.43673 8.40706 7.8706 8.37241 8.23154C8.33765 8.59261 8.30483 8.87371 8.2735 9.07504C8.24217 9.27636 8.19534 9.43951 8.1329 9.56442C8.07035 9.68938 8.02873 9.76575 8.00787 9.79347C7.98704 9.82119 7.96968 9.83866 7.9559 9.84552C7.86566 9.88009 7.77182 9.89771 7.67469 9.89771C7.57742 9.89771 7.45947 9.84906 7.32065 9.75182C7.18188 9.65458 7.03785 9.52102 6.88856 9.35091C6.73928 9.18077 6.57092 8.94301 6.38342 8.63758C6.19606 8.33216 6.00166 7.9712 5.80033 7.55468L5.63376 7.25261C5.52963 7.05829 5.38739 6.77533 5.20689 6.40401C5.02628 6.03253 4.86664 5.67321 4.72786 5.3261C4.67238 5.18032 4.58904 5.06933 4.47799 4.99296L4.42587 4.96163C4.39122 4.93391 4.3356 4.90448 4.2593 4.87311C4.18289 4.84178 4.10316 4.81931 4.01978 4.80549L1.16657 4.82621C0.87501 4.82621 0.677184 4.89226 0.573018 5.02418L0.53133 5.08658C0.510504 5.12134 0.5 5.17685 0.5 5.25326C0.5 5.32964 0.520826 5.42337 0.562514 5.53436C0.97903 6.51328 1.43198 7.45737 1.92137 8.36678C2.41076 9.27618 2.83603 10.0087 3.19692 10.5638C3.55789 11.1192 3.92583 11.6434 4.30073 12.1362C4.67563 12.6291 4.92379 12.945 5.04521 13.0838C5.16677 13.2228 5.26225 13.3267 5.33166 13.3962L5.59204 13.646C5.75865 13.8127 6.0033 14.0122 6.32612 14.2448C6.64901 14.4774 7.00648 14.7065 7.39871 14.9323C7.791 15.1577 8.24738 15.3417 8.7681 15.484C9.28875 15.6264 9.7955 15.6835 10.2884 15.656H11.486C11.7288 15.635 11.9128 15.5586 12.0379 15.4268L12.0793 15.3746C12.1072 15.3332 12.1333 15.2688 12.1573 15.1822C12.1817 15.0954 12.1938 14.9998 12.1938 14.8958C12.1867 14.5974 12.2094 14.3284 12.2614 14.0889C12.3133 13.8495 12.3724 13.669 12.4386 13.5474C12.5047 13.426 12.5793 13.3235 12.6624 13.2404C12.7456 13.1572 12.8049 13.1067 12.8397 13.0893C12.8743 13.0719 12.9019 13.06 12.9227 13.0529C13.0893 12.9974 13.2854 13.0512 13.5112 13.2144C13.7369 13.3776 13.9486 13.579 14.1465 13.8184C14.3444 14.0581 14.5821 14.3269 14.8597 14.6254C15.1376 14.9239 15.3805 15.1459 15.5886 15.2919L15.7968 15.4168C15.9359 15.5002 16.1164 15.5766 16.3386 15.646C16.5603 15.7153 16.7547 15.7327 16.9215 15.698L19.5872 15.6564C19.8509 15.6564 20.056 15.6128 20.2015 15.5262C20.3474 15.4394 20.434 15.3438 20.4619 15.2398C20.4898 15.1357 20.4913 15.0176 20.4672 14.8856C20.4425 14.7539 20.4182 14.6618 20.394 14.6097Z" fill="#EFF2F5"/>
</g>
<defs>
<clipPath id="clip0_1_263">
<rect width="20" height="20" fill="white" transform="translate(0.5 0.00976562)"/>
</clipPath>
</defs>
</svg>
