<svg width="24" height="25" viewBox="0 0 24 25" fill="none" xmlns="http://www.w3.org/2000/svg">
<path fill-rule="evenodd" clip-rule="evenodd" d="M19.9992 20.022C19.9989 20.6006 19.7689 21.1554 19.3599 21.5647C18.9509 21.9739 18.3962 22.2041 17.8176 22.2048H6.18117C5.60256 22.2041 5.04785 21.9739 4.63883 21.5647C4.2298 21.1554 3.99989 20.6006 3.99957 20.022V5.47797C3.99957 4.27197 4.97637 3.29517 6.18117 3.29517H15.21L19.9992 8.08437V20.022ZM17.9916 8.96997L14.388 5.30637H6.67317C6.49515 5.30795 6.32504 5.38011 6.20017 5.507C6.07531 5.63389 6.00589 5.80515 6.00717 5.98317V19.518C6.00621 19.6958 6.07577 19.8667 6.2006 19.9934C6.32543 20.12 6.49536 20.192 6.67317 20.1936H17.3268C17.5046 20.1917 17.6744 20.1194 17.799 19.9925C17.9236 19.8657 17.9929 19.6946 17.9916 19.5168V8.96997ZM8.39517 14.9112C8.22837 14.9112 8.03877 14.934 8.03877 14.934V16.1172C8.03877 16.1172 8.22837 16.1292 8.39517 16.1292C8.89317 16.1292 9.05517 15.966 9.05517 15.492C9.05517 15.0732 8.89317 14.9112 8.39517 14.9112ZM7.16757 14.1624C7.16757 14.1624 7.83717 14.0964 8.39517 14.0964C9.54117 14.0964 9.95997 14.514 9.95997 15.492C9.95997 16.4688 9.48477 16.944 8.39517 16.944C8.22837 16.944 8.03877 16.932 8.03877 16.932V18.0444H7.16757V14.1624ZM11.8884 14.9112C11.7204 14.9112 11.502 14.934 11.502 14.934V17.2452C11.502 17.2452 11.6928 17.268 11.832 17.268C12.5124 17.268 12.8532 16.9272 12.8532 16.062C12.8532 15.2244 12.5412 14.9112 11.8884 14.9112ZM10.6308 18.0156V14.1636C10.6308 14.1636 11.3016 14.0964 11.8596 14.0964C13.1724 14.0964 13.758 14.682 13.758 16.062C13.758 17.4132 13.0884 18.0828 11.8044 18.0828C11.3004 18.0828 10.6308 18.0156 10.6308 18.0156ZM14.4312 14.1348H16.8312V14.9172H15.3024V15.81H16.6644V16.5924H15.3024V18.0444H14.4312V14.1348Z" fill="#333F48"/>
</svg>
