<svg width="21" height="20" viewBox="0 0 21 20" fill="none" xmlns="http://www.w3.org/2000/svg">
<path fill-rule="evenodd" clip-rule="evenodd" d="M10.27 18.333C12.4801 18.333 14.5996 17.4551 16.1623 15.8923C17.7251 14.3296 18.603 12.21 18.603 9.99999C18.603 7.78994 17.7251 5.67041 16.1623 4.10767C14.5996 2.54493 12.4801 1.66699 10.27 1.66699C8.05996 1.66699 5.94043 2.54493 4.37769 4.10767C2.81495 5.67041 1.93701 7.78994 1.93701 9.99999C1.93701 12.21 2.81495 14.3296 4.37769 15.8923C5.94043 17.4551 8.05996 18.333 10.27 18.333ZM9.23201 11.897C9.10058 11.5244 9.07701 11.1223 9.16401 10.737C9.19801 10.5937 9.24901 10.4583 9.31701 10.331C9.38501 10.2043 9.47035 10.083 9.57301 9.96699C9.67501 9.85166 9.79435 9.73733 9.93101 9.62399C10.075 9.50266 10.201 9.38966 10.309 9.28499C10.417 9.18099 10.5087 9.07699 10.584 8.97299C10.6593 8.86899 10.716 8.76099 10.754 8.64899C10.7927 8.53699 10.812 8.41299 10.812 8.27699C10.8142 8.16478 10.7927 8.05337 10.749 7.94999C10.7098 7.85119 10.6486 7.76261 10.57 7.69099C10.4867 7.61726 10.3904 7.55961 10.286 7.52099C10.1666 7.47872 10.0407 7.45741 9.91401 7.45799C9.61801 7.45799 9.31101 7.51966 8.99301 7.64299C8.67501 7.76633 8.37368 7.95299 8.08901 8.20299V6.49199C8.38101 6.31799 8.69935 6.18733 9.04401 6.09999C9.71698 5.93103 10.4206 5.92589 11.096 6.08499C11.3987 6.16299 11.663 6.28533 11.889 6.45199C12.1137 6.61866 12.2897 6.83199 12.417 7.09199C12.5437 7.35066 12.607 7.66199 12.607 8.02599C12.607 8.25733 12.5807 8.46666 12.528 8.65399C12.4754 8.84126 12.3969 9.02031 12.295 9.18599C12.1923 9.35266 12.0657 9.51266 11.915 9.66599C11.7485 9.83305 11.5736 9.99159 11.391 10.141C11.259 10.251 11.1423 10.3533 11.041 10.448C10.949 10.5336 10.8653 10.6277 10.791 10.729C10.7263 10.8195 10.6758 10.9193 10.641 11.025C10.5767 11.2304 10.5718 11.4499 10.627 11.658C10.6471 11.7426 10.6809 11.8233 10.727 11.897H9.23201ZM9.30601 14.114C9.50601 14.2953 9.75768 14.386 10.061 14.386C10.365 14.386 10.615 14.297 10.811 14.119C10.9053 14.0339 10.98 13.9294 11.03 13.8127C11.0801 13.6961 11.1043 13.5699 11.101 13.443C11.1041 13.3172 11.0793 13.1923 11.0283 13.0773C10.9772 12.9623 10.9013 12.8601 10.806 12.778C10.6009 12.5971 10.3343 12.5015 10.061 12.511C9.75768 12.511 9.50601 12.6 9.30601 12.778C9.10468 12.956 9.00401 13.1777 9.00401 13.443C9.00401 13.701 9.10468 13.9243 9.30601 14.113" fill="black"/>
</svg>
