<svg width="25" height="24" viewBox="0 0 25 24" fill="none" xmlns="http://www.w3.org/2000/svg">
<path d="M24.3621 12.0113C24.3621 11.2617 24.2789 10.5537 24.1539 9.88745L21.5724 11.7614C21.5724 11.8447 21.5724 11.928 21.5724 12.0113C21.5724 17.0501 17.4504 21.1728 12.4123 21.1728C7.37423 21.1728 3.25219 17.0501 3.25219 12.0113C3.25219 6.97238 7.37423 2.84967 12.4123 2.84967C14.3276 2.84967 16.118 3.4327 17.5753 4.43215L19.907 2.72475C17.8668 1.05901 15.2436 0.0595703 12.4123 0.0595703C5.83369 0.101214 0.50415 5.43157 0.50415 12.0113C0.50415 18.5909 5.83369 23.9213 12.4123 23.9213C19.0326 23.9629 24.3621 18.6326 24.3621 12.0113Z" fill="white"/>
<path d="M21.8636 4.72314C22.4465 5.43109 22.9045 6.26396 23.2792 7.09682L12.412 15.134L7.87354 12.3023V8.84585L12.412 11.6776L21.8636 4.72314Z" fill="white"/>
</svg>
