<svg width="301" height="214" viewBox="0 0 301 214" fill="none" xmlns="http://www.w3.org/2000/svg">
<path d="M7.43952 18.901C4.68779 18.901 2.43262 17.7424 0.922276 15.632L4.0671 13.7699C4.89469 15.0941 5.8671 15.6734 7.19124 15.6734C8.49469 15.6734 9.21883 15.0527 9.21883 14.1217V14.0596C9.21883 13.1493 8.57745 12.5286 7.19124 12.5286H5.43262V9.94236H6.71538C7.93607 9.94236 8.63952 9.38374 8.63952 8.4734V8.43202C8.63952 7.60443 7.91538 7.04581 7.00503 7.04581C5.84641 7.04581 4.95676 7.70788 4.35676 8.82512L1.21193 7.02512C2.59814 5.03891 4.60503 3.81822 7.23262 3.81822C10.0464 3.81822 12.2809 5.39064 12.2809 7.54236V7.79064C12.2809 9.0734 11.5981 10.1906 10.2533 10.8941C12.0326 11.5148 13.0257 12.9631 13.0257 14.5355V14.7424C13.0257 17.1424 10.6464 18.901 7.43952 18.901ZM13.5189 18.6113L18.443 4.12857H23.1603L28.043 18.6113H24.0706L23.2637 15.9631H18.3189L17.512 18.6113H13.5189ZM19.1051 13.0458H22.4775L20.9051 8.10098H20.6568L19.1051 13.0458ZM29.3159 18.6113V4.12857H35.0676C38.378 4.12857 40.6332 6.13547 40.6332 9.0734V9.23891C40.6332 12.2596 38.3573 14.2665 35.047 14.2665H33.0607V18.6113H29.3159ZM32.9366 11.3699H34.6745C36.0814 11.3699 36.8883 10.4596 36.8883 9.32167V9.15616C36.8883 8.0596 36.1642 7.31478 34.7987 7.31478H32.9366V11.3699ZM39.8861 18.6113L44.8102 4.12857H49.5274L54.4102 18.6113H50.4378L49.6309 15.9631H44.6861L43.8792 18.6113H39.8861ZM45.4723 13.0458H48.8447L47.2723 8.10098H47.024L45.4723 13.0458ZM55.6831 18.6113V4.12857H66.5866V7.35616H59.4279V9.56995H62.6762C65.6762 9.56995 67.6624 11.3079 67.6624 13.9768V14.1631C67.6624 16.832 65.5728 18.6113 62.4693 18.6113H55.6831ZM59.3452 15.5079H62.2831C63.1935 15.5079 63.9176 14.9493 63.9176 14.0182V13.8527C63.9176 12.9424 63.1728 12.3837 62.2831 12.3837H59.3452V15.5079ZM68.0919 18.6113L73.016 4.12857H77.7333L82.616 18.6113H78.6436L77.8367 15.9631H72.8919L72.085 18.6113H68.0919ZM73.6781 13.0458H77.0505L75.4781 8.10098H75.2298L73.6781 13.0458ZM85.3278 18.6113V7.35616H81.5623V4.12857H92.8589V7.35616H89.114V18.6113H85.3278ZM94.7187 18.6113V4.12857H98.4635V8.76305H100.595C103.739 8.76305 105.808 10.5837 105.808 13.5631V13.7286C105.808 16.6872 103.739 18.6113 100.595 18.6113H94.7187ZM106.905 18.6113V4.12857H110.67V18.6113H106.905ZM98.3394 15.5079H99.829C101.319 15.5079 102.105 14.8251 102.105 13.5837V13.4803C102.105 12.2182 101.381 11.6389 99.7876 11.6389H98.3394V15.5079ZM113.529 18.6113V4.12857H119.881C122.778 4.12857 124.805 5.61822 124.805 7.68719V7.8734C124.805 9.15616 124.247 10.1079 122.881 10.8941C124.536 11.5355 125.426 12.8803 125.426 14.4734V14.6803C125.426 17.0389 123.44 18.6113 120.419 18.6113H113.529ZM117.088 10.0251H119.612C120.543 10.0251 121.205 9.44581 121.205 8.6596V8.49409C121.205 7.70788 120.626 7.23202 119.695 7.23202H117.088V10.0251ZM117.088 15.5079H120.171C121.102 15.5079 121.743 14.9699 121.743 14.1631V14.0182C121.743 13.1699 121.081 12.5699 120.088 12.5699H117.088V15.5079ZM125.918 18.6113L130.842 4.12857H135.559L140.442 18.6113H136.47L135.663 15.9631H130.718L129.911 18.6113H125.918ZM131.504 13.0458H134.876L133.304 8.10098H133.056L131.504 13.0458ZM144.384 0.238913H147.177C147.177 0.797534 147.632 1.14926 148.211 1.14926C148.811 1.14926 149.225 0.776844 149.225 0.238913H152.018C152.018 2.08029 150.467 3.34236 148.17 3.34236C145.874 3.34236 144.384 2.08029 144.384 0.238913ZM141.715 18.6113V4.12857H145.377V13.0044H145.501L150.446 4.12857H154.625V18.6113H150.901V8.80443H150.777L145.398 18.6113H141.715ZM160.247 18.6113V7.35616H156.481V4.12857H167.778V7.35616H164.033V18.6113H160.247ZM169.638 18.6113V4.12857H179.031V7.35616H173.383V9.88029H178.617V12.901H173.383V15.3837H179.238V18.6113H169.638ZM186.271 11.4527V11.2872C186.271 7.02512 189.292 3.81822 193.574 3.81822H193.823C198.085 3.81822 201.126 7.00443 201.126 11.2458V11.4941C201.126 15.7148 198.085 18.9217 193.823 18.9217H193.574C189.354 18.9217 186.271 15.632 186.271 11.4527ZM190.161 11.4527C190.161 14.0182 191.692 15.6941 193.595 15.6941H193.823C195.726 15.6941 197.237 14.0182 197.237 11.4527V11.2872C197.237 8.72167 195.726 7.04581 193.802 7.04581H193.574C191.692 7.04581 190.161 8.72167 190.161 11.2872V11.4527ZM205.425 18.6113V7.35616H201.659V4.12857H212.956V7.35616H209.211V18.6113H205.425Z" fill="#383838"/>
<path d="M16.537 72.6784V66.5843H1.27935V60.6257L14.3251 39.7254H24.7527V59.6326H27.8223V66.5843H24.7527V72.6784H16.537ZM9.58531 59.6326H16.537V49.1599H15.8148L9.58531 58.9103V59.6326ZM42.0502 73.4006C35.6402 73.4006 31.1261 70.2407 29.3656 64.5981L37.3104 63.0182C38.2132 64.7335 39.7029 65.6815 41.8245 65.6815C44.7135 65.6815 46.7449 64.0113 46.7449 61.0771C46.7449 58.3686 45.0746 56.7436 42.3662 56.7436C40.0188 56.7436 38.8903 57.0596 37.2652 58.4138L31.0809 56.6533L33.1123 39.7254H53.2903V47.0834H39.2515L38.6646 51.5523C40.2446 50.6947 41.9599 50.2884 44.1718 50.2884C51.3493 50.2884 55.3668 54.4865 55.3668 61.032C55.3668 68.5705 50.0402 73.4006 42.0502 73.4006ZM82.0515 67.0357C74.2421 67.0357 69.0509 61.5285 69.0509 53.4031C69.0509 45.2326 74.2421 39.7705 82.0515 39.7705C89.8609 39.7705 95.0973 45.2326 95.0973 53.4031C95.0973 61.5285 89.8609 67.0357 82.0515 67.0357ZM82.0967 59.2263C85.076 59.2263 86.6559 56.8339 86.6559 53.4031C86.6559 50.0175 85.076 47.5799 82.0515 47.5799C78.9819 47.5799 77.4923 49.9724 77.4923 53.358C77.4923 56.8339 79.0722 59.2263 82.0967 59.2263ZM110.529 67.0357C102.72 67.0357 97.5286 61.5285 97.5286 53.4031C97.5286 45.2326 102.72 39.7705 110.529 39.7705C118.339 39.7705 123.575 45.2326 123.575 53.4031C123.575 61.5285 118.339 67.0357 110.529 67.0357ZM110.574 59.2263C113.554 59.2263 115.134 56.8339 115.134 53.4031C115.134 50.0175 113.554 47.5799 110.529 47.5799C107.46 47.5799 105.97 49.9724 105.97 53.358C105.97 56.8339 107.55 59.2263 110.574 59.2263ZM139.007 67.0357C131.197 67.0357 126.006 61.5285 126.006 53.4031C126.006 45.2326 131.197 39.7705 139.007 39.7705C146.816 39.7705 152.053 45.2326 152.053 53.4031C152.053 61.5285 146.816 67.0357 139.007 67.0357ZM139.052 59.2263C142.031 59.2263 143.611 56.8339 143.611 53.4031C143.611 50.0175 142.031 47.5799 139.007 47.5799C135.937 47.5799 134.448 49.9724 134.448 53.358C134.448 56.8339 136.028 59.2263 139.052 59.2263ZM164.602 55.3442V49.7918H167.31V34.7147H180.807C188.256 34.7147 193.266 38.8226 193.266 44.7812V45.1423C193.266 51.2364 188.165 55.3442 180.762 55.3442H176.655V57.6915H185.141V63.1987H176.655V66.3135H167.31V63.1987H164.602V57.6915H167.31V55.3442H164.602ZM176.655 49.7918H179.769C182.478 49.7918 184.013 48.0313 184.013 46.0903V45.7291C184.013 43.8784 182.703 42.5241 180.085 42.5241H176.655V49.7918Z" fill="url(#paint0_linear_1_435)"/>
<path d="M89.1116 106.226L83.0451 102.075L15.5729 172.187L23.9966 176.883L30.6535 180.286L86.5241 122.229L104.562 145.537L110.413 149.253L150.996 125.273L179.252 154.077L184.357 157.708L215.78 104.22L264.547 116.315L282.384 69.2348L298.885 73.2961L290.253 42.6088L286.218 37.8154L255.305 59.0585L259.649 63.6395L270.489 66.3074L253.537 102.241L205.296 90.2768L177.508 137.576L153.954 113.565L148.542 109.488L109.493 132.562L89.1116 106.226Z" fill="url(#paint1_linear_1_435)"/>
<path d="M89.6499 105.816L83.5834 101.665L16.1112 171.777L24.5349 176.473L31.1918 179.876L87.0624 121.82L105.1 145.127L110.951 148.843L151.534 124.863L179.791 153.667L184.895 157.298L216.318 103.81L265.085 115.905L282.922 68.825L299.423 72.8864L290.791 42.1991L286.756 37.4056L255.844 58.6487L260.188 63.2298L271.027 65.8977L254.075 101.832L205.834 89.8671L178.047 137.166L154.492 113.155L149.081 109.078L110.031 132.152L89.6499 105.816Z" fill="url(#paint2_linear_1_435)"/>
<path d="M90.1882 105.406L84.1217 101.255L16.6496 171.367L25.0731 176.064L31.7301 179.466L87.6008 121.41L105.638 144.717L111.489 148.434L152.073 124.454L180.329 153.258L185.433 156.889L216.856 103.4L265.624 115.495L283.46 68.4153L299.962 72.4766L291.329 41.7894L287.295 36.9959L256.382 58.2389L260.726 62.82L271.566 65.4879L254.614 101.422L206.372 89.4574L178.585 136.756L155.03 112.745L149.619 108.668L110.569 131.742L90.1882 105.406Z" fill="url(#paint3_linear_1_435)"/>
<path d="M90.7265 104.996L84.6601 100.845L17.1879 170.958L25.6116 175.654L32.2684 179.057L88.1391 121L103.164 140.415L106.177 144.308L112.028 148.024L152.611 124.044L175.547 147.425L180.867 152.848L185.972 156.479L217.395 102.991L266.162 115.086L283.999 68.0056L300.5 72.0668L291.868 41.3797L287.833 36.5862L256.92 57.8292L261.264 62.4102L272.104 65.0782L255.152 101.012L206.911 89.0476L204.993 92.3115L179.123 136.347L155.569 112.335L150.157 108.259L145.955 110.742L111.108 131.332L90.7265 104.996Z" fill="url(#paint4_linear_1_435)"/>
<path d="M90.7265 104.996L84.6601 100.845L17.1879 170.958L25.6116 175.654L32.2684 179.057L88.1391 121L103.164 140.415L106.177 144.308L112.028 148.024L152.611 124.044L175.547 147.425L180.867 152.848L185.972 156.479L217.395 102.991L266.162 115.086L283.999 68.0056L300.5 72.0668L291.868 41.3797L287.833 36.5862L256.92 57.8292L261.264 62.4102L272.104 65.0782L255.152 101.012L206.911 89.0476L204.993 92.3115L179.123 136.347L155.569 112.335L150.157 108.259L145.955 110.742L111.108 131.332L90.7265 104.996Z" fill="url(#paint5_linear_1_435)"/>
<path d="M296.552 67.5834L287.833 36.5862L256.92 57.8292L273.588 61.9316L255.152 101.012L206.911 89.0476L204.993 92.3115L178.594 137.247L150.157 108.259L145.955 110.742L109.149 132.49L84.6601 100.845L17.1879 170.958L25.6116 175.654L83.7123 115.28L103.164 140.415L106.177 144.308L148.156 119.502L175.547 147.425L180.867 152.848L212.608 98.8195L261.867 111.036L279.884 63.481L296.552 67.5834Z" fill="url(#paint6_linear_1_435)"/>
<path d="M197.226 168.141V153.658H203.578C206.474 153.658 208.502 155.148 208.502 157.217V157.403C208.502 158.686 207.943 159.638 206.578 160.424C208.233 161.065 209.122 162.41 209.122 164.003V164.21C209.122 166.569 207.136 168.141 204.116 168.141H197.226ZM200.785 159.555H203.309C204.24 159.555 204.902 158.976 204.902 158.189V158.024C204.902 157.238 204.322 156.762 203.391 156.762H200.785V159.555ZM200.785 165.038H203.867C204.798 165.038 205.44 164.5 205.44 163.693V163.548C205.44 162.7 204.778 162.1 203.785 162.1H200.785V165.038ZM211.683 168.431C211.063 168.431 210.463 168.348 209.966 168.1V164.996C210.318 165.12 210.608 165.182 210.897 165.182C212.346 165.182 212.49 163.32 212.573 160.176L212.759 153.658H223.042V168.141H219.297V156.886H216.277L216.214 159.886C216.07 165.224 215.635 168.431 211.683 168.431ZM225.234 160.982V160.817C225.234 156.555 228.255 153.348 232.538 153.348H232.786C237.048 153.348 240.09 156.534 240.09 160.776V161.024C240.09 165.245 237.048 168.451 232.786 168.451H232.538C228.317 168.451 225.234 165.162 225.234 160.982ZM229.124 160.982C229.124 163.548 230.655 165.224 232.559 165.224H232.786C234.69 165.224 236.2 163.548 236.2 160.982V160.817C236.2 158.251 234.69 156.576 232.765 156.576H232.538C230.655 156.576 229.124 158.251 229.124 160.817V160.982ZM248.156 168.141V161.52H247.887L244.452 168.141H240.19L244.762 160.32L240.79 153.658H244.721L247.887 159.555H248.156V153.658H251.756V159.555H252.025L255.19 153.658H259.121L255.149 160.32L259.721 168.141H255.459L252.025 161.52H251.756V168.141H248.156ZM261.235 168.141V153.658H264.897V162.534H265.021L269.966 153.658H274.145V168.141H270.421V158.334H270.297L264.917 168.141H261.235ZM279.767 168.141V156.886H276.001V153.658H287.298V156.886H283.553V168.141H279.767ZM289.157 168.141V153.658H298.551V156.886H292.902V159.41H298.137V162.431H292.902V164.914H298.757V168.141H289.157Z" fill="#383838"/>
<path d="M173.586 185.902V205.843H167.086V195.213C165.833 195.754 164.242 196.093 162.244 196.093V191.082C165.664 190.913 167.661 189.152 167.661 185.902H173.586ZM186.316 206.385C180.458 206.385 176.565 202.255 176.565 196.161C176.565 190.033 180.458 185.936 186.316 185.936C192.173 185.936 196.1 190.033 196.1 196.161C196.1 202.255 192.173 206.385 186.316 206.385ZM186.349 200.528C188.584 200.528 189.769 198.734 189.769 196.161C189.769 193.621 188.584 191.793 186.316 191.793C184.013 191.793 182.896 193.587 182.896 196.127C182.896 198.734 184.081 200.528 186.349 200.528ZM215.939 206.385C210.082 206.385 206.189 202.255 206.189 196.161C206.189 190.033 210.082 185.936 215.939 185.936C221.796 185.936 225.724 190.033 225.724 196.161C225.724 202.255 221.796 206.385 215.939 206.385ZM215.973 200.528C218.208 200.528 219.393 198.734 219.393 196.161C219.393 193.621 218.208 191.793 215.939 191.793C213.637 191.793 212.52 193.587 212.52 196.127C212.52 198.734 213.705 200.528 215.973 200.528ZM237.298 206.385C231.441 206.385 227.547 202.255 227.547 196.161C227.547 190.033 231.441 185.936 237.298 185.936C243.155 185.936 247.082 190.033 247.082 196.161C247.082 202.255 243.155 206.385 237.298 206.385ZM237.331 200.528C239.566 200.528 240.751 198.734 240.751 196.161C240.751 193.621 239.566 191.793 237.298 191.793C234.995 191.793 233.878 193.587 233.878 196.127C233.878 198.734 235.063 200.528 237.331 200.528ZM258.656 206.385C252.799 206.385 248.905 202.255 248.905 196.161C248.905 190.033 252.799 185.936 258.656 185.936C264.513 185.936 268.44 190.033 268.44 196.161C268.44 202.255 264.513 206.385 258.656 206.385ZM258.69 200.528C260.924 200.528 262.109 198.734 262.109 196.161C262.109 193.621 260.924 191.793 258.656 191.793C256.354 191.793 255.236 193.587 255.236 196.127C255.236 198.734 256.421 200.528 258.69 200.528ZM277.852 197.616V193.452H279.883V182.144H290.006C295.593 182.144 299.351 185.225 299.351 189.694V189.965C299.351 194.535 295.525 197.616 289.972 197.616H286.892V199.377H293.257V203.507H286.892V205.843H279.883V203.507H277.852V199.377H279.883V197.616H277.852ZM286.892 193.452H289.228C291.259 193.452 292.41 192.132 292.41 190.676V190.405C292.41 189.017 291.428 188.001 289.465 188.001H286.892V193.452Z" fill="#BABABA"/>
<defs>
<linearGradient id="paint0_linear_1_435" x1="97.5" y1="23.3135" x2="97.5" y2="77.3135" gradientUnits="userSpaceOnUse">
<stop stop-color="#004BA8"/>
<stop offset="1" stop-color="#002F6C"/>
</linearGradient>
<linearGradient id="paint1_linear_1_435" x1="123.391" y1="20.6501" x2="143.162" y2="149.676" gradientUnits="userSpaceOnUse">
<stop stop-color="#1936F0"/>
<stop offset="0.3042" stop-color="#193FD8"/>
<stop offset="0.9442" stop-color="#191B9B"/>
<stop offset="1" stop-color="#194F95"/>
</linearGradient>
<linearGradient id="paint2_linear_1_435" x1="123.391" y1="20.6502" x2="143.162" y2="149.676" gradientUnits="userSpaceOnUse">
<stop stop-color="#102EEF"/>
<stop offset="0.2984" stop-color="#1021D7"/>
<stop offset="0.9261" stop-color="#10379A"/>
<stop offset="1" stop-color="#101292"/>
</linearGradient>
<linearGradient id="paint3_linear_1_435" x1="123.391" y1="20.6502" x2="143.162" y2="149.676" gradientUnits="userSpaceOnUse">
<stop stop-color="#0874EF"/>
<stop offset="0.2874" stop-color="#0843D7"/>
<stop offset="0.8917" stop-color="#0D089A"/>
<stop offset="1" stop-color="#08138E"/>
</linearGradient>
<linearGradient id="paint4_linear_1_435" x1="123.39" y1="20.6502" x2="143.162" y2="149.676" gradientUnits="userSpaceOnUse">
<stop stop-color="#0800EE"/>
<stop offset="0.2798" stop-color="#003DD6"/>
<stop offset="0.8679" stop-color="#170099"/>
<stop offset="1" stop-color="#00278A"/>
</linearGradient>
<linearGradient id="paint5_linear_1_435" x1="123.39" y1="20.6502" x2="143.162" y2="149.676" gradientUnits="userSpaceOnUse">
<stop stop-color="#0800EE"/>
<stop offset="0.2798" stop-color="#003DD6"/>
<stop offset="0.8679" stop-color="#170099"/>
<stop offset="1" stop-color="#00278A"/>
</linearGradient>
<linearGradient id="paint6_linear_1_435" x1="267.768" y1="32.1115" x2="132.122" y2="215.029" gradientUnits="userSpaceOnUse">
<stop stop-color="#006FEE"/>
<stop offset="0.2798" stop-color="#005DD6"/>
<stop offset="0.8679" stop-color="#003699"/>
<stop offset="1" stop-color="#00478A"/>
</linearGradient>
</defs>
</svg>
