<svg width="201" height="35" viewBox="0 0 201 35" fill="none" xmlns="http://www.w3.org/2000/svg">
<g clip-path="url(#clip0_1_262)">
<path d="M89.9276 10.5367L94.0951 7.422H80.1387V26.0815H94.0951V22.9642H84.1251V18.2017H92.6464V15.087H84.1251V10.5367H89.9276Z" fill="#21A038"/>
<path d="M69.5939 14.6887H64.7589V10.5367H72.4938L76.6639 7.422H60.7725V26.0815H69.0791C73.7329 26.0815 76.4207 23.9421 76.4207 20.2169C76.4207 16.6444 74.0046 14.6887 69.5939 14.6887ZM68.929 22.9642H64.7589V17.8033H68.929C71.4668 17.8033 72.6438 18.6596 72.6438 20.4006C72.6438 22.1416 71.3762 22.9642 68.929 22.9642Z" fill="#21A038"/>
<path d="M105.394 7.422H97.8115V26.0815H101.798V20.7964H105.425C110.257 20.7964 113.279 18.2327 113.279 14.1092C113.279 9.98564 110.257 7.422 105.394 7.422ZM105.303 17.6817H101.77V10.5367H105.303C107.872 10.5367 109.261 11.8198 109.261 14.1092C109.261 16.3986 107.872 17.6817 105.303 17.6817Z" fill="#21A038"/>
<path d="M53.943 22.0485C52.8875 22.6305 51.7079 22.9358 50.4998 22.9358C46.904 22.9358 44.3067 20.3385 44.3067 16.766C44.3067 13.1934 46.904 10.5962 50.4998 10.5962C51.7984 10.5677 53.0686 10.9946 54.1241 11.7577L56.9955 9.62091L56.8145 9.43724C55.1537 7.93941 52.916 7.17627 50.3782 7.17627C47.6309 7.17627 45.1216 8.12308 43.3107 9.83304C41.4973 11.6051 40.4703 14.0782 40.5298 16.6444C40.4988 19.2391 41.4973 21.7432 43.3107 23.5748C45.2121 25.3778 47.7499 26.3867 50.3497 26.3247C53.2186 26.3247 55.7254 25.3158 57.4172 23.4842L54.851 21.5596L53.943 22.0485Z" fill="#21A038"/>
<path d="M161.225 7.45304V26.1099H165.211V18.4759H173.701V26.1099H177.69V7.45304H173.701V15.1181H165.211V7.45304H161.225ZM154.367 26.1099H158.565L150.771 7.45304H146.722L138.778 26.1099H142.795L144.397 22.3537H152.856L154.367 26.1099ZM145.605 19.239L148.686 11.7577L151.586 19.239H145.605ZM186.633 18.569H189.109L195.212 26.0815H200.347L192.19 16.4297L199.32 7.422H194.759L188.837 15.4233H186.633V7.422H182.644V26.0815H186.633V18.569ZM125.605 14.7197V10.5677H136.028V7.45304H121.616V26.1099H129.925C134.577 26.1099 137.267 23.9731 137.267 20.2479C137.267 16.6754 134.851 14.7197 130.438 14.7197H125.605ZM125.605 22.9953V17.8344H129.775C132.311 17.8344 133.49 18.6906 133.49 20.4316C133.49 22.1726 132.251 23.0263 129.775 23.0263H125.605V22.9953Z" fill="#21A038"/>
<path d="M28.0527 7.30042C28.777 8.24723 29.3824 9.28458 29.8946 10.384L15.9381 20.7964L10.0762 17.0712V12.614L15.9071 16.3081L28.0527 7.30042Z" fill="#21A038"/>
<path d="M4.12358 16.766C4.12358 16.5513 4.12358 16.3702 4.15462 16.1555L0.620887 15.9718C0.620887 16.2176 0.589844 16.4918 0.589844 16.7349C0.589844 21.0111 2.31273 24.8889 5.09109 27.6983L7.59781 25.1631C5.45325 23.0263 4.12358 20.0643 4.12358 16.766Z" fill="url(#paint0_linear_1_262)"/>
<path d="M15.9067 4.85586C16.1189 4.85586 16.2999 4.85586 16.5121 4.88691L16.6932 1.31437C16.45 1.31437 16.1784 1.28333 15.9378 1.28333C11.7082 1.28333 7.87176 3.02432 5.09082 5.83372L7.59755 8.3689C9.71365 6.20106 12.6731 4.85586 15.9067 4.85586Z" fill="url(#paint1_linear_1_262)"/>
<path d="M15.9065 28.6761C15.6944 28.6761 15.5133 28.6761 15.3012 28.6451L15.1201 32.2176C15.3633 32.2176 15.6349 32.2487 15.8755 32.2487C20.1051 32.2487 23.9441 30.5077 26.7225 27.6983L24.2157 25.1631C22.0996 27.362 19.1686 28.6761 15.9065 28.6761Z" fill="url(#paint2_linear_1_262)"/>
<path d="M22.553 6.93308L25.5435 4.70315C22.9152 2.56635 19.5625 1.2522 15.9072 1.2522V4.82474C18.3855 4.85578 20.6801 5.61892 22.553 6.93308Z" fill="url(#paint3_linear_1_262)"/>
<path d="M31.2555 16.7659C31.2555 15.8191 31.1649 14.9033 31.0123 13.9875L27.7191 16.4606C27.7191 16.5512 27.7191 16.6754 27.7191 16.7659C27.7191 20.2789 26.2084 23.4246 23.8232 25.5925L26.2084 28.2492C29.292 25.4398 31.2555 21.3163 31.2555 16.7659Z" fill="#21A038"/>
<path d="M15.907 28.6762C12.4328 28.6762 9.32072 27.1499 7.17616 24.7363L4.54785 27.1499C7.35725 30.2956 11.4058 32.2487 15.907 32.2487V28.6762Z" fill="url(#paint4_linear_1_262)"/>
<path d="M8.02207 7.93948L5.63434 5.28271C2.52227 8.12315 0.589844 12.2157 0.589844 16.7661H4.12358C4.12358 13.2841 5.63434 10.1099 8.02207 7.93948Z" fill="url(#paint5_linear_1_262)"/>
</g>
<defs>
<linearGradient id="paint0_linear_1_262" x1="4.71425" y1="27.2639" x2="1.08496" y2="16.7257" gradientUnits="userSpaceOnUse">
<stop offset="0.1444" stop-color="#F2E913"/>
<stop offset="0.3037" stop-color="#E7E518"/>
<stop offset="0.5823" stop-color="#CADB26"/>
<stop offset="0.891" stop-color="#A3CD39"/>
</linearGradient>
<linearGradient id="paint1_linear_1_262" x1="6.09876" y1="5.43042" x2="15.2687" y2="1.92008" gradientUnits="userSpaceOnUse">
<stop offset="0.0592" stop-color="#0FA8E0"/>
<stop offset="0.5385" stop-color="#0099F9"/>
<stop offset="0.9234" stop-color="#0291EB"/>
</linearGradient>
<linearGradient id="paint2_linear_1_262" x1="14.9137" y1="29.2101" x2="25.8402" y2="26.7295" gradientUnits="userSpaceOnUse">
<stop offset="0.1226" stop-color="#A3CD39"/>
<stop offset="0.2846" stop-color="#86C339"/>
<stop offset="0.8693" stop-color="#21A038"/>
</linearGradient>
<linearGradient id="paint3_linear_1_262" x1="15.1811" y1="3.52853" x2="24.268" y2="6.34497" gradientUnits="userSpaceOnUse">
<stop offset="0.0566" stop-color="#0291EB"/>
<stop offset="0.79" stop-color="#0C8ACB"/>
</linearGradient>
<linearGradient id="paint4_linear_1_262" x1="5.44643" y1="27.7151" x2="15.2089" y2="31.3793" gradientUnits="userSpaceOnUse">
<stop offset="0.1324" stop-color="#F2E913"/>
<stop offset="0.2977" stop-color="#EBE716"/>
<stop offset="0.5306" stop-color="#D9E01F"/>
<stop offset="0.8023" stop-color="#BBD62D"/>
<stop offset="0.9829" stop-color="#A3CD39"/>
</linearGradient>
<linearGradient id="paint5_linear_1_262" x1="3.29833" y1="17.1978" x2="7.2214" y2="6.94614" gradientUnits="userSpaceOnUse">
<stop offset="0.0698" stop-color="#A3CD39"/>
<stop offset="0.2599" stop-color="#81C55F"/>
<stop offset="0.9216" stop-color="#0FA8E0"/>
</linearGradient>
<clipPath id="clip0_1_262">
<rect width="200" height="33.3333" fill="white" transform="translate(0.5 0.867676)"/>
</clipPath>
</defs>
</svg>
