<svg width="141" height="24" viewBox="0 0 141 24" fill="none" xmlns="http://www.w3.org/2000/svg">
<g clip-path="url(#clip0_1_279)">
<path d="M63.0993 7.1017L66.0166 4.92145H56.2471V17.9831H66.0166V15.801H59.0376V12.4672H65.0025V10.287H59.0376V7.1017H63.0993Z" fill="#21A038"/>
<path d="M48.8659 10.0081H45.4814V7.1017H50.8959L53.8149 4.92145H42.6909V17.9831H48.5055C51.7632 17.9831 53.6447 16.4855 53.6447 13.8779C53.6447 11.3771 51.9534 10.0081 48.8659 10.0081ZM48.4005 15.801H45.4814V12.1884H48.4005C50.1769 12.1884 51.0009 12.7878 51.0009 14.0065C51.0009 15.2252 50.1136 15.801 48.4005 15.801Z" fill="#21A038"/>
<path d="M73.926 4.92145H68.6184V17.9831H71.4089V14.2835H73.9477C77.3304 14.2835 79.4454 12.489 79.4454 9.60248C79.4454 6.71599 77.3304 4.92145 73.926 4.92145ZM73.8626 12.1033H71.389V7.1017H73.8626C75.6608 7.1017 76.6332 7.99988 76.6332 9.60248C76.6332 11.2051 75.6608 12.1033 73.8626 12.1033Z" fill="#21A038"/>
<path d="M37.9102 15.1599C37.1714 15.5674 36.3457 15.7811 35.5 15.7811C32.9829 15.7811 31.1648 13.963 31.1648 11.4622C31.1648 8.96141 32.9829 7.14333 35.5 7.14333C36.409 7.12341 37.2982 7.4222 38.037 7.9564L40.047 6.46064L39.9203 6.33207C38.7577 5.28359 37.1913 4.74939 35.4149 4.74939C33.4918 4.74939 31.7353 5.41216 30.4677 6.60913C29.1983 7.84956 28.4794 9.58072 28.521 11.3771C28.4993 13.1934 29.1983 14.9463 30.4677 16.2283C31.7986 17.4905 33.5751 18.1967 35.395 18.1533C37.4032 18.1533 39.1579 17.447 40.3422 16.165L38.5458 14.8177L37.9102 15.1599Z" fill="#21A038"/>
<path d="M113.007 4.94318V18.003H115.798V12.6592H121.741V18.003H124.533V4.94318H121.741V10.3087H115.798V4.94318H113.007ZM108.207 18.003H111.146L105.69 4.94318H102.856L97.2946 18.003H100.107L101.228 15.3736H107.149L108.207 18.003ZM102.073 13.1934L104.23 7.95642L106.26 13.1934H102.073ZM130.793 12.7244H132.526L136.798 17.9831H140.393L134.683 11.2268L139.674 4.92145H136.481L132.336 10.5224H130.793V4.92145H128.001V17.9831H130.793V12.7244ZM88.0738 10.0298V7.12343H95.3697V4.94318H85.2815V18.003H91.0979C94.3538 18.003 96.2371 16.5072 96.2371 13.8996C96.2371 11.3988 94.5458 10.0298 91.4565 10.0298H88.0738ZM88.0738 15.8227V12.2101H90.9929C92.7675 12.2101 93.5933 12.8095 93.5933 14.0282C93.5933 15.2469 92.7259 15.8445 90.9929 15.8445H88.0738V15.8227Z" fill="#21A038"/>
<path d="M19.7874 4.8363C20.2945 5.49907 20.7182 6.22522 21.0767 6.99483L11.3072 14.2835L7.20386 11.6759V8.55578L11.2855 11.1417L19.7874 4.8363Z" fill="#21A038"/>
<path d="M3.03685 11.4622C3.03685 11.3119 3.03685 11.1852 3.05858 11.0349L0.584963 10.9063C0.584963 11.0783 0.563232 11.2703 0.563232 11.4405C0.563232 14.4338 1.76925 17.1483 3.7141 19.1149L5.46881 17.3402C3.96762 15.8445 3.03685 13.7711 3.03685 11.4622Z" fill="url(#paint0_linear_1_279)"/>
<path d="M11.2853 3.12517C11.4337 3.12517 11.5605 3.12517 11.709 3.1469L11.8357 0.646119C11.6655 0.646119 11.4754 0.62439 11.307 0.62439C8.34625 0.62439 5.66077 1.84309 3.71411 3.80966L5.46882 5.58429C6.95009 4.0668 9.0217 3.12517 11.2853 3.12517Z" fill="url(#paint1_linear_1_279)"/>
<path d="M11.2851 19.7993C11.1366 19.7993 11.0099 19.7993 10.8614 19.7775L10.7346 22.2783C10.9048 22.2783 11.095 22.3001 11.2634 22.3001C14.2241 22.3001 16.9114 21.0814 18.8563 19.1148L17.1015 17.3401C15.6203 18.8794 13.5686 19.7993 11.2851 19.7993Z" fill="url(#paint2_linear_1_279)"/>
<path d="M15.9375 4.57922L18.0308 3.01827C16.191 1.52251 13.8441 0.6026 11.2854 0.6026V3.10338C13.0202 3.12511 14.6264 3.65931 15.9375 4.57922Z" fill="url(#paint3_linear_1_279)"/>
<path d="M22.029 11.4622C22.029 10.7994 21.9656 10.1584 21.8588 9.51733L19.5535 11.2485C19.5535 11.3119 19.5535 11.3988 19.5535 11.4622C19.5535 13.9213 18.496 16.1233 16.8264 17.6408L18.496 19.5005C20.6545 17.5339 22.029 14.6475 22.029 11.4622Z" fill="#21A038"/>
<path d="M11.2854 19.7994C8.85344 19.7994 6.67499 18.731 5.1738 17.0414L3.33398 18.731C5.30056 20.9329 8.13453 22.3001 11.2854 22.3001V19.7994Z" fill="url(#paint4_linear_1_279)"/>
<path d="M5.76579 5.28363L4.09438 3.42389C1.91593 5.4122 0.563232 8.27695 0.563232 11.4622H3.03685C3.03685 9.02483 4.09438 6.80292 5.76579 5.28363Z" fill="url(#paint5_linear_1_279)"/>
</g>
<defs>
<linearGradient id="paint0_linear_1_279" x1="3.45032" y1="18.8108" x2="0.909816" y2="11.434" gradientUnits="userSpaceOnUse">
<stop offset="0.1444" stop-color="#F2E913"/>
<stop offset="0.3037" stop-color="#E7E518"/>
<stop offset="0.5823" stop-color="#CADB26"/>
<stop offset="0.891" stop-color="#A3CD39"/>
</linearGradient>
<linearGradient id="paint1_linear_1_279" x1="4.41967" y1="3.52736" x2="10.8386" y2="1.07011" gradientUnits="userSpaceOnUse">
<stop offset="0.0592" stop-color="#0FA8E0"/>
<stop offset="0.5385" stop-color="#0099F9"/>
<stop offset="0.9234" stop-color="#0291EB"/>
</linearGradient>
<linearGradient id="paint2_linear_1_279" x1="10.5901" y1="20.1731" x2="18.2387" y2="18.4367" gradientUnits="userSpaceOnUse">
<stop offset="0.1226" stop-color="#A3CD39"/>
<stop offset="0.2846" stop-color="#86C339"/>
<stop offset="0.8693" stop-color="#21A038"/>
</linearGradient>
<linearGradient id="paint3_linear_1_279" x1="10.7771" y1="2.19603" x2="17.1379" y2="4.16754" gradientUnits="userSpaceOnUse">
<stop offset="0.0566" stop-color="#0291EB"/>
<stop offset="0.79" stop-color="#0C8ACB"/>
</linearGradient>
<linearGradient id="paint4_linear_1_279" x1="3.96299" y1="19.1266" x2="10.7967" y2="21.6915" gradientUnits="userSpaceOnUse">
<stop offset="0.1324" stop-color="#F2E913"/>
<stop offset="0.2977" stop-color="#EBE716"/>
<stop offset="0.5306" stop-color="#D9E01F"/>
<stop offset="0.8023" stop-color="#BBD62D"/>
<stop offset="0.9829" stop-color="#A3CD39"/>
</linearGradient>
<linearGradient id="paint5_linear_1_279" x1="2.45917" y1="11.7644" x2="5.20532" y2="4.58829" gradientUnits="userSpaceOnUse">
<stop offset="0.0698" stop-color="#A3CD39"/>
<stop offset="0.2599" stop-color="#81C55F"/>
<stop offset="0.9216" stop-color="#0FA8E0"/>
</linearGradient>
<clipPath id="clip0_1_279">
<rect width="140" height="23.3333" fill="white" transform="translate(0.5 0.333374)"/>
</clipPath>
</defs>
</svg>
