<svg width="131" height="41" viewBox="0 0 131 41" fill="none" xmlns="http://www.w3.org/2000/svg">
<g clip-path="url(#clip0_1_244)">
<rect x="0.521973" y="0.333374" width="40" height="40" rx="8" fill="url(#paint0_linear_1_244)"/>
<g filter="url(#filter0_f_1_244)">
<circle cx="20.5019" cy="20.3134" r="16.34" fill="#7CE884"/>
</g>
<g clip-path="url(#clip1_1_244)">
<path d="M17.2145 33.0785C24.2464 33.0785 29.947 27.3779 29.947 20.3459C29.947 13.3139 24.2464 7.6134 17.2145 7.6134C10.1825 7.6134 4.48193 13.3139 4.48193 20.3459C4.48193 27.3779 10.1825 33.0785 17.2145 33.0785Z" fill="#FDD835"/>
<path opacity="0.5" d="M17.2145 7.6134C10.1827 7.6134 4.48193 13.3142 4.48193 20.3459C4.48193 27.3777 10.1827 33.0785 17.2145 33.0785C24.2462 33.0785 29.947 27.3777 29.947 20.3459C29.947 13.3142 24.2462 7.6134 17.2145 7.6134ZM17.2145 32.5314C10.4846 32.5314 5.02903 27.0758 5.02903 20.3459C5.02903 13.6161 10.4846 8.1605 17.2145 8.1605C23.9443 8.1605 29.3999 13.6161 29.3999 20.3459C29.3999 27.0758 23.9443 32.5314 17.2145 32.5314Z" fill="white"/>
<path opacity="0.5" d="M22.2944 8.66731L5.53572 25.426C4.97569 24.1398 4.62107 22.7417 4.51562 21.276L18.1444 7.64722C19.6101 7.75266 21.0082 8.10728 22.2944 8.66731Z" fill="white"/>
<path opacity="0.5" d="M28.3102 14.0965L10.9651 31.4416C9.8863 30.8328 8.9055 30.0713 8.05103 29.186L26.0546 11.1824C26.9399 12.0369 27.7019 13.0177 28.3102 14.0965Z" fill="white"/>
<path opacity="0.5" d="M25.5343 10.708L7.57599 28.6658C7.29498 28.341 7.03038 28.0013 6.78369 27.6487L24.5172 9.91516C24.8694 10.1619 25.2091 10.4265 25.5343 10.708Z" fill="white"/>
<path opacity="0.5" d="M29.5476 17.1687L14.0373 32.679C13.5688 32.5587 13.1112 32.4125 12.6646 32.2419L29.1099 15.7965C29.2805 16.2426 29.4272 16.7007 29.5471 17.1692L29.5476 17.1687Z" fill="white"/>
<path opacity="0.5" d="M27.558 20.897C27.558 26.4063 23.0912 30.8731 17.5819 30.8731C14.4868 30.8731 11.7199 29.4636 9.89111 27.2508C11.713 29.2203 14.3201 30.4533 17.2143 30.4533C22.7236 30.4533 27.1904 25.9865 27.1904 20.4772C27.1904 18.0635 26.333 15.8492 24.9055 14.1234C26.5523 15.9029 27.558 18.2823 27.558 20.897Z" fill="white"/>
<path d="M17.2144 30.4534C22.7241 30.4534 27.1905 25.987 27.1905 20.4773C27.1905 14.9676 22.7241 10.5012 17.2144 10.5012C11.7047 10.5012 7.23828 14.9676 7.23828 20.4773C7.23828 25.987 11.7047 30.4534 17.2144 30.4534Z" fill="#F39E09"/>
<path d="M24.7744 13.9678C23.0271 12.4618 20.7522 11.5516 18.2648 11.5516C12.7555 11.5516 8.28871 16.0184 8.28871 21.5277C8.28871 24.015 9.19939 26.29 10.7049 28.0372C8.58216 26.2074 7.23828 23.4993 7.23828 20.4773C7.23828 14.968 11.7051 10.5012 17.2144 10.5012C20.2359 10.5012 22.9446 11.8445 24.7744 13.9678Z" fill="#E88102"/>
<path opacity="0.25" d="M24.4629 13.9185C18.0026 16.1865 12.8181 21.1676 10.2771 27.494C10.0547 27.3324 9.83939 27.1613 9.63199 26.9818C8.12696 25.235 7.21729 22.9606 7.21729 20.4742C7.21729 14.9649 11.6841 10.4981 17.1934 10.4981C19.6797 10.4981 21.9542 11.4078 23.7009 12.9128C23.9755 13.2311 24.2301 13.5668 24.4634 13.9185H24.4629Z" fill="white"/>
</g>
<circle cx="33.2542" cy="29.771" r="3.30747" fill="#464646"/>
<path opacity="0.25" d="M35.6166 27.6046C33.4926 28.3612 31.7881 30.023 30.9527 32.1335C30.8796 32.0796 30.8088 32.0225 30.7407 31.9626C30.2458 31.3799 29.9468 30.6211 29.9468 29.7917C29.9468 27.9537 31.4153 26.4636 33.2266 26.4636C34.044 26.4636 34.8932 26.807 35.4675 27.3091C35.5578 27.4153 35.6167 27.4334 35.7162 27.5578L35.6166 27.6046Z" fill="white"/>
</g>
<path d="M54.8595 3.92087H55.347C56.347 3.92087 57.2345 4.05212 58.0095 4.31462C58.7845 4.57712 59.4345 4.95837 59.9595 5.45837C60.497 5.95837 60.9032 6.57087 61.1782 7.29587C61.4532 8.00837 61.5907 8.81462 61.5907 9.71462C61.5907 10.6771 61.447 11.5209 61.1595 12.2459C60.872 12.9709 60.4532 13.5771 59.9032 14.0646C59.3532 14.5521 58.6782 14.9209 57.8782 15.1709C57.0907 15.4209 56.1907 15.5459 55.1782 15.5459H54.8595V16.8021H52.5157V15.5459H52.0282C50.0157 15.5459 48.472 15.0334 47.397 14.0084C46.322 12.9834 45.7845 11.5646 45.7845 9.75212C45.7845 8.78962 45.9282 7.94587 46.2157 7.22087C46.5032 6.49587 46.922 5.88962 47.472 5.40212C48.022 4.91462 48.6907 4.54587 49.4782 4.29587C50.2782 4.04587 51.1845 3.92087 52.197 3.92087H52.5157V2.92712H54.8595V3.92087ZM48.2595 9.67712C48.2595 10.3646 48.3595 10.9521 48.5595 11.4396C48.7595 11.9271 49.0282 12.3271 49.3657 12.6396C49.7157 12.9396 50.122 13.1584 50.5845 13.2959C51.0595 13.4334 51.572 13.5021 52.122 13.5021H52.5157V5.96462H52.1595C50.8345 5.96462 49.8532 6.27087 49.2157 6.88337C48.5782 7.48337 48.2595 8.41462 48.2595 9.67712ZM54.8595 5.96462V13.5021H55.2157C56.5407 13.5021 57.522 13.2021 58.1595 12.6021C58.797 11.9896 59.1157 11.0521 59.1157 9.78962C59.1157 9.10212 59.0157 8.51462 58.8157 8.02712C58.6157 7.53962 58.3407 7.14587 57.9907 6.84587C57.6532 6.53337 57.247 6.30837 56.772 6.17087C56.297 6.03337 55.7907 5.96462 55.2532 5.96462H54.8595ZM63.6701 7.05212H65.8451V13.4084L70.3451 7.05212H72.4263V16.4271H70.2513V9.99587L65.7513 16.4271H63.6701V7.05212ZM81.5267 12.6396H77.2892V16.4271H75.0954V7.05212H77.2892V10.7084H81.5267V7.05212H83.7204V16.4271H81.5267V12.6396ZM86.5997 7.70837C86.9122 7.47087 87.3435 7.27087 87.8935 7.10837C88.456 6.94587 89.1435 6.86462 89.956 6.86462C91.331 6.86462 92.356 7.12087 93.031 7.63337C93.706 8.14587 94.0435 9.01462 94.0435 10.2396V16.4271H91.981V14.7396C91.756 15.2896 91.3685 15.7334 90.8185 16.0709C90.281 16.4084 89.6372 16.5771 88.8872 16.5771C87.9372 16.5771 87.1935 16.3271 86.656 15.8271C86.131 15.3146 85.8685 14.5959 85.8685 13.6709C85.8685 13.1334 85.9622 12.6896 86.1497 12.3396C86.3372 11.9896 86.5997 11.7146 86.9372 11.5146C87.2747 11.3021 87.681 11.1521 88.156 11.0646C88.631 10.9771 89.156 10.9334 89.731 10.9334H91.8497V10.5209C91.8497 9.85837 91.6872 9.40212 91.3622 9.15212C91.0497 8.90212 90.581 8.77712 89.956 8.77712C89.0935 8.77712 88.3997 8.93337 87.8747 9.24587C87.3497 9.54587 86.9247 9.94587 86.5997 10.4459V7.70837ZM89.581 14.6084C89.956 14.6084 90.2747 14.5646 90.5372 14.4771C90.8122 14.3771 91.0435 14.2584 91.231 14.1209C91.4185 13.9709 91.5622 13.8084 91.6622 13.6334C91.7622 13.4584 91.8247 13.2896 91.8497 13.1271V12.3584H89.9935C89.3435 12.3584 88.8622 12.4334 88.5497 12.5834C88.2372 12.7334 88.081 13.0209 88.081 13.4459C88.081 13.8084 88.206 14.0959 88.456 14.3084C88.7185 14.5084 89.0935 14.6084 89.581 14.6084ZM103.005 12.6396H98.7674V16.4271H96.5737V7.05212H98.7674V10.7084H103.005V7.05212H105.199V16.4271H103.005V12.6396ZM115.315 15.4896C115.103 15.7521 114.722 16.0084 114.172 16.2584C113.622 16.5084 112.965 16.6334 112.203 16.6334C111.453 16.6334 110.772 16.5334 110.159 16.3334C109.547 16.1209 109.022 15.8084 108.584 15.3959C108.147 14.9834 107.809 14.4709 107.572 13.8584C107.334 13.2459 107.215 12.5271 107.215 11.7021C107.215 10.9021 107.334 10.2021 107.572 9.60212C107.822 8.98962 108.165 8.48337 108.603 8.08337C109.04 7.67087 109.565 7.36462 110.178 7.16462C110.79 6.95212 111.472 6.84587 112.222 6.84587C112.859 6.85837 113.44 6.94587 113.965 7.10837C114.49 7.27087 114.909 7.47087 115.222 7.70837V10.4459C114.897 9.94587 114.484 9.54587 113.984 9.24587C113.497 8.93337 112.909 8.77087 112.222 8.75837C111.322 8.75837 110.634 8.99587 110.159 9.47087C109.684 9.94587 109.447 10.6584 109.447 11.6084V11.8896C109.447 12.8646 109.69 13.5834 110.178 14.0459C110.678 14.4959 111.372 14.7209 112.259 14.7209C113.047 14.7209 113.69 14.5771 114.19 14.2896C114.703 14.0021 115.078 13.6521 115.315 13.2396V15.4896ZM117.32 7.05212H119.513V9.82712H121.126C121.763 9.82712 122.326 9.87712 122.813 9.97712C123.313 10.0771 123.726 10.2521 124.051 10.5021C124.388 10.7396 124.645 11.0646 124.82 11.4771C124.995 11.8896 125.082 12.4021 125.082 13.0146C125.07 14.2146 124.732 15.0834 124.07 15.6209C123.407 16.1584 122.345 16.4271 120.882 16.4271H117.32V7.05212ZM126.151 7.05212H128.345V16.4271H126.151V7.05212ZM120.807 14.4959C121.557 14.4959 122.088 14.3896 122.401 14.1771C122.713 13.9646 122.876 13.5771 122.888 13.0146C122.876 12.5146 122.732 12.1834 122.457 12.0209C122.182 11.8459 121.682 11.7584 120.957 11.7584H119.513V14.4959H120.807Z" fill="url(#paint1_linear_1_244)"/>
<path d="M46.4032 27.8646H48.5782V34.2209L53.0782 27.8646H55.1595V37.2396H52.9845V30.8084L48.4845 37.2396H46.4032V27.8646ZM72.7492 26.2709H68.3242V37.2396H65.9804V26.2709H61.6304V24.1146H72.7492V26.2709ZM77.1526 37.4459C76.4151 37.4459 75.7526 37.3459 75.1651 37.1459C74.5776 36.9334 74.0714 36.6209 73.6464 36.2084C73.2214 35.7959 72.8964 35.2834 72.6714 34.6709C72.4464 34.0584 72.3339 33.3396 72.3339 32.5146C72.3339 31.7021 72.4526 30.9959 72.6901 30.3959C72.9276 29.7834 73.2589 29.2771 73.6839 28.8771C74.1089 28.4646 74.6214 28.1584 75.2214 27.9584C75.8214 27.7584 76.4901 27.6584 77.2276 27.6584C77.9526 27.6584 78.6089 27.7646 79.1964 27.9771C79.7964 28.1896 80.3026 28.5021 80.7151 28.9146C81.1401 29.3271 81.4651 29.8396 81.6901 30.4521C81.9151 31.0646 82.0276 31.7771 82.0276 32.5896C82.0276 33.4021 81.9089 34.1146 81.6714 34.7271C81.4339 35.3271 81.1026 35.8271 80.6776 36.2271C80.2526 36.6271 79.7401 36.9334 79.1401 37.1459C78.5401 37.3459 77.8776 37.4459 77.1526 37.4459ZM74.5651 32.5709C74.5651 33.6084 74.7964 34.3646 75.2589 34.8396C75.7214 35.3021 76.3651 35.5334 77.1901 35.5334C78.0276 35.5334 78.6714 35.2959 79.1214 34.8209C79.5714 34.3334 79.7964 33.5896 79.7964 32.5896V32.5334C79.7964 31.4959 79.5589 30.7459 79.0839 30.2834C78.6214 29.8084 77.9776 29.5709 77.1526 29.5709C76.3151 29.5834 75.6714 29.8334 75.2214 30.3209C74.7839 30.7959 74.5651 31.5271 74.5651 32.5146V32.5709ZM89.7305 33.9396C89.4055 34.1271 89.0305 34.2646 88.6055 34.3521C88.1805 34.4396 87.7493 34.4834 87.3118 34.4834C86.1868 34.4834 85.3055 34.2209 84.668 33.6959C84.0305 33.1709 83.7118 32.3459 83.7118 31.2209V27.8646H85.9055V30.8834C85.9055 31.4459 86.0555 31.8646 86.3555 32.1396C86.668 32.4021 87.118 32.5334 87.7055 32.5334C88.4805 32.5334 89.1555 32.3896 89.7305 32.1021V27.8646H91.9243V37.2396H89.7305V33.9396ZM94.5778 27.8646H96.7716V31.5209H98.2903L100.915 27.8646H103.353L100.072 32.2896L103.878 37.2396H101.215L98.2716 33.3584H96.7716V37.2396H94.5778V27.8646ZM105.624 28.5209C105.937 28.2834 106.368 28.0834 106.918 27.9209C107.481 27.7584 108.168 27.6771 108.981 27.6771C110.356 27.6771 111.381 27.9334 112.056 28.4459C112.731 28.9584 113.068 29.8271 113.068 31.0521V37.2396H111.006V35.5521C110.781 36.1021 110.393 36.5459 109.843 36.8834C109.306 37.2209 108.662 37.3896 107.912 37.3896C106.962 37.3896 106.218 37.1396 105.681 36.6396C105.156 36.1271 104.893 35.4084 104.893 34.4834C104.893 33.9459 104.987 33.5021 105.174 33.1521C105.362 32.8021 105.624 32.5271 105.962 32.3271C106.299 32.1146 106.706 31.9646 107.181 31.8771C107.656 31.7896 108.181 31.7459 108.756 31.7459H110.874V31.3334C110.874 30.6709 110.712 30.2146 110.387 29.9646C110.074 29.7146 109.606 29.5896 108.981 29.5896C108.118 29.5896 107.424 29.7459 106.899 30.0584C106.374 30.3584 105.949 30.7584 105.624 31.2584V28.5209ZM108.606 35.4209C108.981 35.4209 109.299 35.3771 109.562 35.2896C109.837 35.1896 110.068 35.0709 110.256 34.9334C110.443 34.7834 110.587 34.6209 110.687 34.4459C110.787 34.2709 110.849 34.1021 110.874 33.9396V33.1709H109.018C108.368 33.1709 107.887 33.2459 107.574 33.3959C107.262 33.5459 107.106 33.8334 107.106 34.2584C107.106 34.6209 107.231 34.9084 107.481 35.1209C107.743 35.3209 108.118 35.4209 108.606 35.4209Z" fill="#222222"/>
<defs>
<filter id="filter0_f_1_244" x="-3.83813" y="-4.02661" width="48.6799" height="48.68" filterUnits="userSpaceOnUse" color-interpolation-filters="sRGB">
<feFlood flood-opacity="0" result="BackgroundImageFix"/>
<feBlend mode="normal" in="SourceGraphic" in2="BackgroundImageFix" result="shape"/>
<feGaussianBlur stdDeviation="4" result="effect1_foregroundBlur_1_244"/>
</filter>
<linearGradient id="paint0_linear_1_244" x1="0.521973" y1="0.333374" x2="47.5472" y2="28.6783" gradientUnits="userSpaceOnUse">
<stop stop-color="#5EE4A6"/>
<stop offset="1" stop-color="#00722C"/>
</linearGradient>
<linearGradient id="paint1_linear_1_244" x1="45.0532" y1="3.42712" x2="53.2937" y2="35.9037" gradientUnits="userSpaceOnUse">
<stop stop-color="#5EE4A6"/>
<stop offset="1" stop-color="#00722C"/>
</linearGradient>
<clipPath id="clip0_1_244">
<rect x="0.521973" y="0.333374" width="40" height="40" rx="8" fill="white"/>
</clipPath>
<clipPath id="clip1_1_244">
<rect width="25.4651" height="25.4651" fill="white" transform="translate(4.48193 7.6134)"/>
</clipPath>
</defs>
</svg>
