<svg width="133" height="51" viewBox="0 0 133 51" fill="none" xmlns="http://www.w3.org/2000/svg">
<g clip-path="url(#clip0_1_308)">
<path d="M29.0723 29.5328C28.9576 27.7615 26.5778 26.9842 25.1281 27.8635V27.0862H24.5261V27.8635C23.0733 26.9745 20.7029 27.7615 20.5851 29.5328C20.4098 31.6642 22.8566 32.3747 24.5261 31.5432C24.5261 31.5432 24.5261 33.2858 24.1788 34.0058C24.5579 34.0058 25.1633 34.0058 25.4691 34.0058C25.0836 33.2955 25.1186 31.5432 25.1186 31.5432C26.7976 32.381 29.2413 31.6707 29.0723 29.5328ZM24.5261 30.9633C23.6308 31.9192 21.5344 31.6452 21.2159 30.2943C20.7284 28.3253 22.9331 27.2135 24.5261 28.4337V30.9633ZM28.4351 30.2943C28.1166 31.6452 26.0171 31.916 25.1218 30.9633V28.4337C26.7116 27.2135 28.9226 28.3253 28.4351 30.2943Z" fill="#002B50"/>
<path d="M24.8187 34.5953C23.608 32.8495 23.5667 28.711 22.1394 26.6656H21.1835C22.3337 27.7966 22.1904 33.6236 20.5815 34.3118L22.0342 34.2895C22.4962 32.757 22.5249 28.746 22.3179 27.6373C23.3947 30.0713 23.3245 33.1712 24.8315 35.4715L24.8187 34.5953Z" fill="#002B50"/>
<path d="M24.8188 34.5953C26.0295 32.8495 26.071 28.711 27.4982 26.6656H28.454C27.3038 27.7966 27.4537 33.6236 29.0593 34.3118L27.6288 34.2768C27.1668 32.7443 27.135 28.7333 27.3453 27.6245C26.2685 30.0587 26.3385 33.1585 24.8285 35.4587V34.5953H24.8188Z" fill="#002B50"/>
<path d="M24.9562 2.0797C25.0618 2.08266 25.167 2.06457 25.2655 2.02647C25.3642 1.98837 25.4542 1.93103 25.5303 1.85779C25.6065 1.78454 25.6675 1.69687 25.7093 1.59986C25.7513 1.50286 25.7737 1.39847 25.7748 1.29278C25.762 1.08735 25.6713 0.894557 25.5212 0.753648C25.3712 0.612739 25.173 0.534302 24.9672 0.534302C24.7613 0.534302 24.5633 0.612739 24.4133 0.753648C24.2632 0.894557 24.1725 1.08735 24.1597 1.29278C24.163 1.50209 24.2482 1.70176 24.3972 1.84889C24.546 1.99602 24.7468 2.07889 24.9562 2.0797Z" fill="#002B50"/>
<path d="M19.2878 6.41254C19.3821 6.41127 19.4741 6.38222 19.5521 6.32902C19.6303 6.27581 19.691 6.20081 19.7266 6.11334C19.7623 6.02589 19.7715 5.92986 19.753 5.83722C19.7345 5.74459 19.6891 5.65947 19.6225 5.59246C19.556 5.52544 19.4711 5.47951 19.3786 5.46039C19.2861 5.44127 19.19 5.44982 19.1023 5.48496C19.0146 5.52009 18.9393 5.58026 18.8855 5.65796C18.8318 5.73567 18.8021 5.82747 18.8003 5.92191C18.7998 5.98619 18.8121 6.04992 18.8365 6.10942C18.8608 6.16894 18.8966 6.22306 18.942 6.26866C18.9871 6.31426 19.0411 6.35044 19.1005 6.37514C19.1598 6.39984 19.2235 6.41254 19.2878 6.41254Z" fill="#002B50"/>
<path d="M39.0979 7.75719C39.1171 7.39719 39.5758 6.50194 38.9959 6.33309C36.8264 5.71502 36.1286 5.45696 34.6854 3.98187C34.5676 3.86416 34.4249 3.77442 34.2678 3.71927C34.1106 3.66412 33.9431 3.64499 33.7774 3.66329C33.2199 3.73337 32.8218 4.20171 32.9809 4.59994C33.0839 4.85946 33.2041 5.11171 33.3409 5.35501C33.3601 5.35501 35.2716 8.79261 32.0156 9.47122V9.29917C32.0181 9.20727 32.0531 9.11922 32.1144 9.05067C32.2768 8.88727 32.4211 8.70676 32.5446 8.51226C32.6548 8.33749 32.7193 8.13786 32.7321 7.93166C32.7451 7.72546 32.7059 7.51932 32.6184 7.33217C32.5309 7.14504 32.3978 6.98291 32.2311 6.86066C32.0646 6.73841 31.8699 6.65997 31.6653 6.63256C31.5676 6.61121 31.4686 6.59736 31.3689 6.59114C31.3328 7.08506 31.2254 7.57114 31.0503 8.03437C30.9803 8.17454 30.9006 8.17454 30.7891 8.17454H30.4418C30.3208 8.17454 30.2538 8.17454 30.1838 8.03437C30.0134 7.56971 29.9063 7.08431 29.8651 6.59114C29.7644 6.59714 29.6643 6.61099 29.5658 6.63256C29.3613 6.66044 29.1669 6.73921 29.0008 6.86164C28.8346 6.98407 28.7019 7.14627 28.6148 7.33334C28.5274 7.52041 28.4886 7.72637 28.5018 7.93234C28.5148 8.13832 28.5794 8.33772 28.6896 8.51226C28.8091 8.70862 28.9526 8.88947 29.1164 9.05067C29.1488 9.08341 29.1741 9.12226 29.1909 9.16494C29.2079 9.20762 29.2163 9.25326 29.2153 9.29917V9.42661C27.8516 9.34697 27.2654 7.83366 27.2846 7.38444V6.83964C27.2863 6.68704 27.3468 6.54097 27.4534 6.43186C27.7194 6.15866 27.9564 5.85864 28.1608 5.53661C28.3446 5.24662 28.4524 4.91492 28.4743 4.57222C28.4959 4.22952 28.4309 3.88686 28.2851 3.57594C28.1394 3.26502 27.9176 2.99589 27.6403 2.79342C27.3628 2.59096 27.0389 2.46169 26.6984 2.41759C26.5474 2.38482 26.3939 2.36457 26.2396 2.35706C26.2396 2.35706 26.0708 3.92134 25.6598 4.74651C25.5514 4.97589 25.4208 4.97589 25.2328 4.97589H24.6753C24.4873 4.97589 24.3568 4.97589 24.2484 4.74651C23.8501 3.92134 23.6686 2.35706 23.6686 2.35706C23.5196 2.36544 23.3714 2.38567 23.2258 2.41759C22.8884 2.46486 22.5681 2.59562 22.2941 2.79804C22.0201 3.00046 21.8011 3.26809 21.6568 3.57666C21.5124 3.88522 21.4474 4.22496 21.4678 4.56501C21.4881 4.90506 21.5929 5.23464 21.7729 5.52386C21.9766 5.84634 22.2136 6.14642 22.4803 6.41911C22.5869 6.52822 22.6474 6.67431 22.6491 6.82691V7.35577C22.6491 7.79542 22.0724 9.31829 20.7184 9.39794V9.27687C20.7209 9.18497 20.7559 9.09692 20.8171 9.02837C20.9783 8.86464 21.1214 8.68414 21.2441 8.48996C21.3514 8.31506 21.4134 8.11612 21.4244 7.91119C21.4356 7.70626 21.3953 7.50182 21.3073 7.31639C21.2193 7.13097 21.0864 6.97044 20.9208 6.84936C20.7551 6.72827 20.5618 6.65047 20.3584 6.62301C20.2598 6.60144 20.1596 6.58759 20.0589 6.58159C20.0228 7.07549 19.9154 7.56159 19.7403 8.02481C19.7204 8.07467 19.6838 8.11599 19.6366 8.14161C19.5894 8.16722 19.5349 8.17549 19.4823 8.16499H19.1286C19.0076 8.16499 18.9374 8.16499 18.8674 8.02481C18.6971 7.56016 18.5899 7.07476 18.5488 6.58159C18.4491 6.58779 18.3501 6.60164 18.2524 6.62301C18.0478 6.65042 17.8531 6.72886 17.6866 6.85109C17.52 6.97334 17.3869 7.13549 17.2993 7.32262C17.2118 7.50976 17.1727 7.71589 17.1856 7.92209C17.1985 8.12829 17.263 8.32794 17.3732 8.50269C17.4946 8.70042 17.6413 8.88142 17.8096 9.04112C17.8419 9.07386 17.8673 9.11271 17.8841 9.15537C17.9011 9.19806 17.9094 9.24371 17.9084 9.28962V9.46166C14.6237 8.78942 16.5353 5.32634 16.5672 5.33589C16.704 5.09261 16.8243 4.84034 16.9272 4.58084C17.0865 4.18259 16.6882 3.71426 16.1307 3.64417C15.9651 3.62517 15.7974 3.64397 15.6401 3.69916C15.4828 3.75434 15.3401 3.84447 15.2227 3.96276C13.7795 5.44741 13.0818 5.69591 10.9217 6.31397C10.3451 6.48282 10.7911 7.37807 10.8229 7.73807C10.8612 8.42624 10.9026 8.71297 8.84131 10.0096C11.2785 9.63051 12.0272 9.50944 12.384 11.4529C12.8257 10.8698 13.064 10.1581 13.0626 9.42661C13.0764 8.65944 12.8343 7.90952 12.3745 7.29524C12.3745 7.29524 12.3745 7.29524 12.3745 7.27612C12.3061 7.17636 12.26 7.06314 12.239 6.94406C12.218 6.82497 12.2228 6.70277 12.253 6.58569C12.2832 6.46859 12.3381 6.35932 12.414 6.26519C12.4899 6.17107 12.585 6.09427 12.6931 6.03999C13.9005 5.45377 16.0096 4.40879 15.7707 5.49201C15.5921 6.15129 15.5052 6.83206 15.5126 7.51506C15.554 8.10127 15.6114 8.53137 15.93 8.89776C16.185 9.15722 16.4966 9.35431 16.8403 9.47367C17.184 9.59304 17.5506 9.63144 17.9116 9.58591H20.0748C20.2629 9.61351 20.4539 9.61351 20.6419 9.58591H20.7121C21.3779 9.47759 22.4451 9.00926 23.4488 7.35577H26.4976C27.5044 9.01882 28.5684 9.48714 29.2376 9.58591H29.3076C29.4958 9.61306 29.6866 9.61306 29.8748 9.58591H32.0348C32.3958 9.63096 32.7623 9.59231 33.1059 9.47297C33.4494 9.35364 33.7611 9.15682 34.0164 8.89776C34.3349 8.53137 34.3956 8.10127 34.4338 7.51506C34.4421 6.83514 34.3553 6.15742 34.1758 5.50156C33.9368 4.41836 36.0491 5.46332 37.2533 6.04954C37.3624 6.10262 37.4589 6.17881 37.5358 6.27282C37.6126 6.36682 37.6679 6.47641 37.6983 6.59397C37.7286 6.71154 37.7329 6.83429 37.7111 6.95372C37.6894 7.07316 37.6418 7.18642 37.5719 7.28567C37.5719 7.28567 37.5719 7.28567 37.5719 7.30479C37.1168 7.91766 36.8761 8.66331 36.8869 9.42661C36.8888 10.16 37.1254 10.8734 37.5623 11.4624C37.9224 9.51901 38.6679 9.64007 41.1083 10.0192C39.0056 8.73209 39.0566 8.44536 39.0979 7.75719Z" fill="#002B50"/>
<path d="M30.6111 6.41254C30.7056 6.41127 30.7976 6.38222 30.8756 6.32902C30.9536 6.27581 31.0142 6.20081 31.0499 6.11334C31.0857 6.02589 31.0949 5.92986 31.0764 5.83722C31.0577 5.74459 31.0124 5.65947 30.9459 5.59246C30.8792 5.52544 30.7944 5.47951 30.7019 5.46039C30.6094 5.44127 30.5134 5.44982 30.4257 5.48496C30.3379 5.52009 30.2626 5.58026 30.2089 5.65796C30.1551 5.73567 30.1256 5.82747 30.1236 5.92191C30.1227 5.98631 30.1347 6.05022 30.1589 6.10992C30.1831 6.16962 30.2189 6.22391 30.2642 6.26961C30.3097 6.31529 30.3637 6.35146 30.4232 6.37601C30.4827 6.40056 30.5466 6.41297 30.6111 6.41254Z" fill="#002B50"/>
<path d="M14.0186 14.3232C15.5223 14.0428 18.1793 14.9603 19.3072 15.8874C21.633 17.7799 22.114 21.5934 19.852 24.7189H29.792C27.5333 21.5934 28.0303 17.7799 30.34 15.8874C31.4775 14.9603 34.1248 14.0428 35.6287 14.3232C35.6797 14.3232 36.6353 11.0958 30.4515 11.0958H26.6285C26.6285 11.0958 28.4922 12.7175 27.444 14.3518C25.3923 16.9802 24.9272 19.1625 24.8348 21.5744C24.736 19.1625 24.2772 16.9802 22.2255 14.3518C21.1902 12.7302 23.0443 11.0958 23.0443 11.0958H19.2212C13.0309 11.0958 13.9676 14.3327 14.0186 14.3232Z" fill="#002B50"/>
<path d="M8.76814 32.6295C10.1731 32.4223 12.5339 31.594 14.8532 29.7621C14.8532 29.7621 13.5789 32.2821 8.16282 34.5728C10.342 35.2991 12.005 34.7513 13.0309 34.0726C14.2862 33.2061 14.8851 32.7983 16.9751 30.5681C15.9588 32.451 15.3821 33.5756 12.3332 35.946C12.3332 35.946 13.8083 36.4748 15.7612 35.4585C16.2187 35.2305 16.6181 34.901 16.929 34.4951C17.2398 34.0893 17.4539 33.618 17.5549 33.1168C17.762 31.8425 19.3645 31.8138 19.4442 33.2283C19.4442 33.2283 19.4442 27.1528 19.4442 25.5185C17.762 27.5191 15.4809 26.4551 14.9839 24.8813C14.9839 24.8813 14.4263 22.871 16.2582 21.9025C16.2582 21.9025 16.9368 21.5838 16.0798 21.106C16.0798 21.106 8.19149 15.8173 4.75389 7.40649C4.75389 7.40649 2.48552 11.3602 4.98327 14.8552C7.1051 17.5855 9.03895 19.6341 10.8613 20.9595C10.8613 20.9595 7.56387 21.0103 2.0363 14.4283C2.0363 14.4283 0.892558 18.022 3.62925 20.2043C5.69414 21.9963 8.22105 23.172 10.9218 23.5973C10.9218 23.5973 5.80205 24.9513 0.924417 20.0323C0.924417 20.0323 0.605826 23.7948 4.01157 25.219C5.37834 25.7988 7.86654 26.436 11.5526 26.2448C11.5526 26.2448 7.09235 28.338 1.14425 25.8083C1.46284 28.4973 3.85227 29.5613 5.80524 29.4913C8.21529 29.5335 10.6164 29.1871 12.9162 28.4655C12.9162 28.4655 9.86729 30.8261 3.67705 31.1766C5.35284 33.1486 7.75502 32.7791 8.76814 32.6295Z" fill="#002B50"/>
<path d="M38.0784 26.2354C41.7741 26.4234 44.2528 25.7862 45.6194 25.2095C49.0316 23.7855 48.7131 20.0197 48.7131 20.0197C43.8418 24.9292 38.7219 23.5847 38.7219 23.5847C41.4264 23.1602 43.9569 21.9834 46.0241 20.1885C48.7704 18.0094 47.6171 14.4125 47.6171 14.4125C42.0894 20.9945 38.7921 20.9469 38.7921 20.9469C40.6176 19.6215 42.5514 17.5697 44.6733 14.8426C47.1711 11.3381 44.9026 7.39392 44.9026 7.39392C41.4651 15.7888 33.5768 21.0934 33.5768 21.0934C32.7198 21.5809 33.3983 21.8899 33.3983 21.8899C35.2206 22.8457 34.6728 24.8655 34.6728 24.8655C34.1853 26.4394 31.9424 27.497 30.2603 25.5632V32.9067C30.5406 31.8204 31.9138 31.9319 32.1016 33.1075C32.2011 33.6087 32.4146 34.0805 32.7256 34.486C33.0368 34.8915 33.4369 35.22 33.8953 35.4459C35.8483 36.4622 37.3203 35.9334 37.3203 35.9334C34.2744 33.5535 33.6978 32.4289 32.6814 30.5555C34.7619 32.7857 35.3609 33.1967 36.6256 34.06C37.6516 34.7355 39.3146 35.2834 41.4938 34.557C36.0778 32.2664 34.8033 29.7464 34.8033 29.7464C37.1259 31.5782 39.4739 32.4065 40.8884 32.6137C41.9143 32.7729 44.3069 33.1425 45.9859 31.1704C39.7829 30.8232 36.7468 28.4624 36.7468 28.4624C39.0396 29.1819 41.4324 29.5314 43.8354 29.4979C45.7788 29.5679 48.1778 28.491 48.4773 25.8022C42.5324 28.335 38.0784 26.2354 38.0784 26.2354Z" fill="#002B50"/>
<path d="M37.6327 39.6417C37.7882 39.6417 37.9404 39.5955 38.0699 39.5092C38.1992 39.4227 38.3 39.2997 38.3597 39.156C38.4192 39.0122 38.4349 38.8538 38.4044 38.7013C38.374 38.5487 38.299 38.4083 38.189 38.2983C38.079 38.1883 37.9389 38.1133 37.7862 38.083C37.6335 38.0527 37.4752 38.0682 37.3315 38.1278C37.1877 38.1873 37.0649 38.2882 36.9784 38.4177C36.8919 38.547 36.8457 38.6992 36.8457 38.8548C36.8457 39.0635 36.9285 39.2637 37.0762 39.4112C37.2237 39.5588 37.4239 39.6417 37.6327 39.6417Z" fill="#002B50"/>
<path d="M39.1078 40.1355C38.9233 40.345 38.6963 40.5127 38.442 40.6275C38.1877 40.7425 37.9118 40.802 37.6327 40.802C37.3537 40.802 37.0777 40.7425 36.8233 40.6275C36.569 40.5127 36.3422 40.345 36.1577 40.1355C35.7472 40.4467 35.444 40.8782 35.2903 41.37C35.1367 41.8617 35.1403 42.389 35.3007 42.8785C33.6503 42.3849 31.7962 41.7985 32.9017 39.9507C34.4947 37.0357 31.4967 35.1209 30.2733 35.1305C30.8053 39.6927 25.1948 35.1305 24.8572 39.1352C24.5163 35.1305 18.9187 39.6767 19.4412 35.14C18.4853 35.3215 15.8857 36.118 16.4623 39.2149C16.8064 40.1132 17.7048 41.6265 16.1915 42.2224C13.6428 43.5412 14.2003 41.9739 12.3684 42.3307L8.35416 38.3482C8.38558 38.1362 8.34486 37.9199 8.23856 37.7339C8.13225 37.5479 7.96651 37.4029 7.76795 37.3224C7.90711 36.9962 7.94538 36.6359 7.8778 36.2877C7.81021 35.9397 7.63991 35.6199 7.38883 35.3694L6.71341 36.0575C5.83728 35.3407 4.59158 36.5609 5.27656 37.4499L4.58203 38.1475C4.83508 38.4009 5.15885 38.5719 5.51083 38.6377C5.8628 38.7037 6.2265 38.6617 6.55411 38.517C6.63078 38.7199 6.77408 38.8904 6.96048 39.001C7.14688 39.1115 7.36533 39.1555 7.57998 39.1255L11.591 43.1175C11.4952 43.368 11.474 43.641 11.5299 43.9034C11.5858 44.1659 11.7165 44.4064 11.9062 44.596C12.0959 44.7857 12.3365 44.9165 12.5988 44.9724C12.8612 45.0284 13.1342 45.007 13.3847 44.9112C13.6364 45.0897 14.3724 46.0772 14.7292 46.0167C16.0386 45.7682 14.6304 44.5672 14.2003 44.1752C15.0956 42.8149 18.1763 43.5732 18.3643 42.611C17.8387 42.1044 17.1282 39.3295 19.9763 38.8262C20.741 38.7369 23.1208 39.0555 22.5888 41.2857C22.5357 41.4595 22.438 41.6165 22.3057 41.7412C22.1732 41.8657 22.0105 41.9535 21.8338 41.996C18.3293 43.0857 15.6881 46.5329 19.0142 47.5524C19.731 44.6149 20.7092 44.188 23.089 43.2195C21.9133 44.2262 18.4025 48.199 22.0027 49.0465C22.181 47.0362 22.6398 45.8097 24.0448 44.2677C23.7645 46.5775 22.3372 49.5244 24.7903 50.5344C27.1702 49.6997 25.8543 46.571 25.5772 44.2677C26.9822 45.8224 27.441 47.049 27.6193 49.0465C31.2195 48.18 27.7182 44.2359 26.533 43.2195C28.9128 44.1752 29.891 44.6149 30.6078 47.5524C33.9307 46.5265 31.3342 43.092 27.8073 41.996C27.6295 41.955 27.4658 41.8677 27.3327 41.7429C27.1995 41.6182 27.1017 41.4604 27.0492 41.2857C26.5235 39.0555 28.897 38.7369 29.6647 38.8452C32.532 39.3614 31.7962 42.1172 31.28 42.63C31.2992 43.2067 32.1147 43.0984 32.1147 43.0984C33.2903 43.1367 35.8997 43.8949 35.8997 43.8949C38.34 46.2939 41.8413 42.1427 39.1078 40.1355Z" fill="#002B50"/>
<path d="M74.3945 21.994L74.3822 13.3491H73.3695L69.8127 19.4254L66.2065 13.3491H65.1938V21.994H66.3795V15.7327L69.504 20.9444H70.072L73.1967 15.6956L73.209 21.994H74.3945ZM76.8878 21.994H77.9747L81.976 17.227V21.994H83.1617V15.4486H82.0872L78.0735 20.2157V15.4486H76.8878V21.994ZM85.4628 21.994H86.6485V19.2524H90.3782V21.994H91.5638V15.4486H90.3782V18.2274H86.6485V15.4486H85.4628V21.994ZM102.131 18.709C102.131 16.6836 100.699 15.5227 98.2657 15.3869V12.8304H97.1047V15.3869C94.6472 15.5104 93.2515 16.6836 93.2515 18.709C93.2515 20.759 94.6595 21.9447 97.1047 22.0805V24.39H98.2657V22.0805C100.711 21.9447 102.131 20.7467 102.131 18.709ZM94.4248 18.709C94.4248 17.3505 95.3017 16.5601 97.1047 16.4366V21.0309C95.314 20.9074 94.4248 20.1045 94.4248 18.709ZM98.2657 21.0432V16.4366C100.056 16.5601 100.958 17.3382 100.958 18.709C100.958 20.1169 100.056 20.9074 98.2657 21.0432ZM103.807 21.994H104.894L108.895 17.227V21.994H110.081V15.4486H109.006L104.993 20.2157V15.4486H103.807V21.994ZM112.382 21.994H113.568V19.2524H117.297V21.994H118.483V15.4486H117.297V18.2274H113.568V15.4486H112.382V21.994ZM68.5653 30.0159H65.1938V38.6607H66.4288V36.0425H68.5653C70.813 36.0425 72.1715 34.9064 72.1715 33.0292C72.1715 31.152 70.813 30.0159 68.5653 30.0159ZM68.5284 34.9682H66.4288V31.0902H68.5284C70.1092 31.0902 70.9365 31.7942 70.9365 33.0292C70.9365 34.2642 70.1092 34.9682 68.5284 34.9682ZM76.4712 38.7349C78.4348 38.7349 79.8673 37.3394 79.8673 35.388C79.8673 33.4367 78.4348 32.0535 76.4712 32.0535C74.5075 32.0535 73.0627 33.4367 73.0627 35.388C73.0627 37.3394 74.5075 38.7349 76.4712 38.7349ZM76.4712 37.6975C75.2115 37.6975 74.2605 36.7835 74.2605 35.388C74.2605 33.9925 75.2115 33.0909 76.4712 33.0909C77.7308 33.0909 78.6695 33.9925 78.6695 35.388C78.6695 36.7835 77.7308 37.6975 76.4712 37.6975ZM84.4323 38.7349C85.6055 38.7349 86.5812 38.2409 87.0998 37.327L86.1983 36.7589C85.7783 37.401 85.1362 37.6975 84.4198 37.6975C83.1355 37.6975 82.1722 36.8082 82.1722 35.388C82.1722 33.9925 83.1355 33.0909 84.4198 33.0909C85.1362 33.0909 85.7783 33.3874 86.1983 34.0295L87.0998 33.449C86.5812 32.5352 85.6055 32.0535 84.4323 32.0535C82.4192 32.0535 80.9743 33.4367 80.9743 35.388C80.9743 37.3394 82.4192 38.7349 84.4323 38.7349ZM91.3912 38.7349C92.5643 38.7349 93.54 38.2409 94.0587 37.327L93.1572 36.7589C92.7373 37.401 92.0952 37.6975 91.3788 37.6975C90.0943 37.6975 89.1312 36.8082 89.1312 35.388C89.1312 33.9925 90.0943 33.0909 91.3788 33.0909C92.0952 33.0909 92.7373 33.3874 93.1572 34.0295L94.0587 33.449C93.54 32.5352 92.5643 32.0535 91.3912 32.0535C89.3782 32.0535 87.9332 33.4367 87.9332 35.388C87.9332 37.3394 89.3782 38.7349 91.3912 38.7349ZM95.5937 38.6607H96.6805L100.682 33.8937V38.6607H101.868V32.1154H100.793L96.7794 36.8824V32.1154H95.5937V38.6607ZM104.169 38.6607H105.256L109.257 33.8937V38.6607H110.443V32.1154H109.368L105.354 36.8824V32.1154H104.169V38.6607Z" fill="#002B50"/>
</g>
<defs>
<clipPath id="clip0_1_308">
<rect width="131.167" height="50" fill="white" transform="translate(0.916504 0.534302)"/>
</clipPath>
</defs>
</svg>
