<svg width="65" height="64" viewBox="0 0 65 64" fill="none" xmlns="http://www.w3.org/2000/svg">
<path d="M3.00621 28.298C3.00621 29.8504 3.12563 22.6853 2.76738 43.4639C2.76738 43.5834 2.76738 46.8076 2.76738 46.5688V46.9271V47.2853C3.00621 49.5542 4.91689 51.3455 7.18582 51.3455C7.30524 51.3455 13.8732 51.3455 13.5149 51.3455L33.6964 51.4649L53.878 51.3455C54.1168 51.3455 57.8187 51.3455 57.6993 51.3455C60.0877 51.3455 61.9983 49.5542 62.1177 47.2853V46.9271C62.1177 46.8076 61.9983 35.8212 61.9983 35.9407C61.9983 35.5824 61.8789 27.9397 61.8789 28.4174C61.8789 27.9397 61.8789 27.7009 61.8789 27.1038C61.6401 24.9543 59.8488 23.4019 57.6993 23.4019C57.5799 23.4019 51.0119 23.5213 51.3702 23.5213C44.6828 23.7601 37.876 23.8795 31.1887 24.1184C37.876 24.3572 44.6828 24.4766 51.3702 24.7154C51.4896 24.7154 58.0576 24.8349 57.6993 24.8349C58.0576 24.8349 58.4158 24.9543 58.6547 25.0737C59.61 25.4319 60.2071 26.2679 60.3265 27.3426V28.5368C60.3265 28.6562 60.2071 36.1795 60.2071 36.0601C60.2071 36.1795 60.0877 47.5241 60.0877 46.8076V47.1659V47.4047C59.9682 48.3601 59.3712 49.0766 58.5352 49.3154C58.2964 49.4348 57.9381 49.4348 57.6993 49.4348C57.4605 49.4348 53.7585 49.4348 53.878 49.4348L33.6964 49.3154L13.5149 49.4348C13.2761 49.4348 6.94698 49.4348 7.18582 49.4348C6.82757 49.4348 6.58873 49.4348 6.3499 49.3154C5.63339 48.8377 5.03631 48.1212 4.91689 47.1659V46.9271C4.91689 46.8076 4.91689 43.3445 4.91689 43.4639C4.55864 22.6853 4.67806 29.8504 4.55864 28.298C4.55864 27.9397 4.55864 27.3426 4.55864 27.1038C4.67806 25.7902 5.75281 24.7154 7.18582 24.596C7.30524 24.596 11.246 24.4766 11.0072 24.4766C17.6945 24.2378 24.5013 24.1184 31.1887 23.8795C31.1887 23.8795 31.1887 23.8795 31.0693 23.8795C31.1887 23.2824 31.1887 22.5659 31.3081 21.9688C31.4275 21.3718 31.6664 20.7747 32.144 20.4164C32.6217 20.0582 33.0994 19.8193 33.6964 19.8193C34.2935 19.8193 35.01 19.9388 35.6071 19.9388L43.4887 20.297C46.7129 20.4164 47.7877 20.4164 48.3848 20.4164C49.6984 20.4164 51.0119 19.6999 51.7285 18.5057C52.6838 16.9533 52.3255 14.6844 51.012 13.4902C50.2954 12.8931 49.4595 12.5349 48.5042 12.4155H46.4741C37.6372 12.4155 31.6664 12.5349 22.9489 13.0126C21.3965 13.0126 19.9635 14.3261 19.844 15.7591C19.844 17.1922 19.9635 18.3863 20.0829 19.6999L20.3217 17.7892C20.4411 17.1922 20.3217 16.4757 20.5605 15.8786C20.9188 14.8038 21.9936 13.9679 23.0683 14.2067C31.7858 14.6844 37.7566 14.8038 46.5935 14.8038H48.5042C48.8624 14.8038 49.2207 14.9232 49.5789 15.2815C50.176 15.7591 50.2954 16.7145 49.9372 17.431C49.6984 17.9087 49.1013 18.3863 48.5042 18.3863C46.5935 18.3863 46.3547 18.3863 43.6081 18.5057C40.9809 18.6252 38.3537 18.7446 35.7265 18.864C35.01 18.864 34.5324 18.864 33.6964 18.9834C32.144 19.2222 31.0693 20.5358 31.0693 22.0883C31.0693 22.8048 31.1887 23.4019 31.1887 23.9989C24.5013 23.7601 17.814 23.6407 11.1266 23.4019C11.0072 23.4019 7.0664 23.2824 7.30524 23.2824C5.15572 23.2824 3.36447 24.8349 3.12563 26.9844C3.00621 27.5815 3.12563 27.9397 3.00621 28.298Z" fill="#FDC930"/>
<path d="M8.73834 29.8504C9.21601 30.328 9.8131 30.5669 10.2908 30.8057C11.2461 31.164 12.3209 31.164 13.3956 30.8057C13.8733 30.5669 14.4704 30.328 14.948 29.8504C14.4704 29.3727 13.8733 29.1339 13.3956 28.895C12.3209 28.5368 11.2461 28.5368 10.2908 28.895C9.8131 29.0144 9.33543 29.2533 8.73834 29.8504Z" fill="#FDC930"/>
<path d="M21.6343 30.6865C22.1119 30.4477 22.709 30.2088 23.1867 29.7312C22.709 29.2535 22.1119 29.0147 21.6343 28.7758C20.5595 28.4176 19.4848 28.4176 18.5294 28.7758C18.0517 29.0147 17.4547 29.2535 16.977 29.7312C17.4547 30.2088 18.0517 30.4477 18.5294 30.6865C19.6042 31.0448 20.6789 31.0448 21.6343 30.6865Z" fill="#FDC930"/>
<path d="M31.4288 29.85C30.354 28.7753 28.4433 28.2976 26.7715 28.8947C26.2938 29.1335 25.6967 29.3724 25.2191 29.85C25.6967 30.3277 26.2938 30.5665 26.7715 30.8054C28.5627 31.283 30.354 30.9248 31.4288 29.85Z" fill="#FDC930"/>
<path d="M38.1153 30.6865C38.593 30.4477 39.1901 30.2088 39.6677 29.7312C39.1901 29.2535 38.593 29.0147 38.1153 28.7758C37.0405 28.4176 35.9658 28.4176 35.0104 28.7758C34.5328 29.0147 33.9357 29.2535 33.458 29.7312C33.9357 30.2088 34.5328 30.4477 35.0104 30.6865C36.0852 31.0448 37.16 31.0448 38.1153 30.6865Z" fill="#FDC930"/>
<path d="M46.4748 30.6865C46.9525 30.4477 47.5495 30.2088 48.0272 29.7312C47.5495 29.2535 46.9525 29.0147 46.4748 28.7758C45.4 28.4176 44.3253 28.4176 43.3699 28.7758C42.8923 29.0147 42.2952 29.2535 41.8175 29.7312C42.2952 30.2088 42.8923 30.4477 43.3699 30.6865C44.3253 31.0448 45.4 31.0448 46.4748 30.6865Z" fill="#FDC930"/>
<path d="M54.7139 30.6863C55.1915 30.4475 55.7886 30.2087 56.2663 29.731C55.7886 29.2533 55.1915 29.0145 54.7139 28.7756C53.6391 28.4174 52.5644 28.4174 51.609 28.7756C51.1314 29.0145 50.5343 29.2533 50.0566 29.731C50.5343 30.2087 51.1314 30.4475 51.609 30.6863C52.5644 31.0446 53.6391 31.0446 54.7139 30.6863Z" fill="#FDC930"/>
<path d="M10.2908 33.7911C9.8131 34.03 9.21601 34.2688 8.73834 34.7465C9.21601 35.2242 9.8131 35.463 10.2908 35.7018C11.2461 36.0601 12.3209 36.0601 13.3956 35.7018C13.8733 35.463 14.4704 35.2242 14.948 34.7465C14.4704 34.2688 13.8733 34.03 13.3956 33.7911C12.4403 33.4329 11.3655 33.4329 10.2908 33.7911Z" fill="#FDC930"/>
<path d="M21.6343 35.7022C22.1119 35.4634 22.709 35.2245 23.1867 34.7469C22.709 34.2692 22.1119 34.0304 21.6343 33.7915C20.5595 33.4333 19.4848 33.4333 18.5294 33.7915C18.0517 34.0304 17.4547 34.2692 16.977 34.7469C17.4547 35.2245 18.0517 35.4634 18.5294 35.7022C19.6042 35.941 20.6789 36.0604 21.6343 35.7022Z" fill="#FDC930"/>
<path d="M31.4288 34.7468C30.354 33.672 28.4433 33.1943 26.7715 33.7914C26.2938 34.0303 25.6967 34.2691 25.2191 34.7468C25.6967 35.2244 26.2938 35.4633 26.7715 35.7021C28.5627 36.1798 30.354 35.8215 31.4288 34.7468Z" fill="#FDC930"/>
<path d="M38.1153 35.7022C38.593 35.4634 39.1901 35.2245 39.6677 34.7469C39.1901 34.2692 38.593 34.0304 38.1153 33.7915C37.0405 33.4333 35.9658 33.4333 35.0104 33.7915C34.5328 34.0304 33.9357 34.2692 33.458 34.7469C33.9357 35.2245 34.5328 35.4634 35.0104 35.7022C36.0852 35.941 37.16 36.0604 38.1153 35.7022Z" fill="#FDC930"/>
<path d="M46.4748 35.7022C46.9525 35.4634 47.5495 35.2245 48.0272 34.7469C47.5495 34.2692 46.9525 34.0304 46.4748 33.7915C45.4 33.4333 44.3253 33.4333 43.3699 33.7915C42.8923 34.0304 42.2952 34.2692 41.8175 34.7469C42.2952 35.2245 42.8923 35.4634 43.3699 35.7022C44.3253 35.941 45.4 36.0604 46.4748 35.7022Z" fill="#FDC930"/>
<path d="M54.7139 35.7018C55.1915 35.463 55.7886 35.2242 56.2663 34.7465C55.7886 34.2688 55.1915 34.03 54.7139 33.7911C53.6391 33.4329 52.5644 33.4329 51.609 33.7911C51.1314 34.03 50.5343 34.2688 50.0566 34.7465C50.5343 35.2242 51.1314 35.463 51.609 35.7018C52.5644 35.9407 53.6391 36.0601 54.7139 35.7018Z" fill="#FDC930"/>
<path d="M10.2908 38.6872C9.8131 38.926 9.21601 39.1649 8.73834 39.6425C9.21601 40.1202 9.8131 40.3591 10.2908 40.5979C11.2461 40.9561 12.3209 40.9561 13.3956 40.5979C13.8733 40.3591 14.4704 40.1202 14.948 39.6425C14.4704 39.1649 13.8733 38.926 13.3956 38.6872C12.4403 38.329 11.3655 38.329 10.2908 38.6872Z" fill="#FDC930"/>
<path d="M21.6343 40.5981C22.1119 40.3593 22.709 40.1205 23.1867 39.6428C22.709 39.1651 22.1119 38.9263 21.6343 38.6875C20.5595 38.3292 19.4848 38.3292 18.5294 38.6875C18.0517 38.9263 17.4547 39.1651 16.977 39.6428C17.4547 40.1205 18.0517 40.3593 18.5294 40.5981C19.6042 40.9564 20.6789 40.9564 21.6343 40.5981Z" fill="#FDC930"/>
<path d="M31.4288 39.6427C30.354 38.5679 28.4433 38.0903 26.7715 38.6874C26.2938 38.9262 25.6967 39.165 25.2191 39.6427C25.6967 40.1204 26.2938 40.3592 26.7715 40.598C28.5627 41.1951 30.354 40.7175 31.4288 39.6427Z" fill="#FDC930"/>
<path d="M38.1153 40.5981C38.593 40.3593 39.1901 40.1205 39.6677 39.6428C39.1901 39.1651 38.593 38.9263 38.1153 38.6875C37.0405 38.3292 35.9658 38.3292 35.0104 38.6875C34.5328 38.9263 33.9357 39.1651 33.458 39.6428C33.9357 40.1205 34.5328 40.3593 35.0104 40.5981C36.0852 40.9564 37.16 40.9564 38.1153 40.5981Z" fill="#FDC930"/>
<path d="M46.4748 40.5981C46.9525 40.3593 47.5495 40.1205 48.0272 39.6428C47.5495 39.1651 46.9525 38.9263 46.4748 38.6875C45.4 38.3292 44.3253 38.3292 43.3699 38.6875C42.8923 38.9263 42.2952 39.1651 41.8175 39.6428C42.2952 40.1205 42.8923 40.3593 43.3699 40.5981C44.3253 40.9564 45.4 40.9564 46.4748 40.5981Z" fill="#FDC930"/>
<path d="M54.7139 40.5979C55.1915 40.3591 55.7886 40.1203 56.2663 39.6426C55.7886 39.1649 55.1915 38.9261 54.7139 38.6873C53.6391 38.329 52.5644 38.329 51.609 38.6873C51.1314 38.9261 50.5343 39.1649 50.0566 39.6426C50.5343 40.1203 51.1314 40.3591 51.609 40.5979C52.5644 40.9562 53.6391 40.9562 54.7139 40.5979Z" fill="#FDC930"/>
<path d="M10.2908 43.5834C9.8131 43.8222 9.21601 44.0611 8.73834 44.5387C9.21601 45.0164 9.8131 45.2552 10.2908 45.4941C11.2461 45.8523 12.3209 45.8523 13.3956 45.4941C13.8733 45.2552 14.4704 45.0164 14.948 44.5387C14.4704 44.0611 13.8733 43.8222 13.3956 43.5834C12.4403 43.2251 11.3655 43.2251 10.2908 43.5834Z" fill="#FDC930"/>
<path d="M46.4748 45.4941C46.9525 45.2552 47.5495 45.0164 48.0272 44.5387C47.5495 44.0611 46.9525 43.8222 46.4748 43.5834C45.4 43.2251 44.3253 43.2251 43.3699 43.5834C42.8923 43.8222 42.2952 44.0611 41.8175 44.5387C42.2952 45.0164 42.8923 45.2552 43.3699 45.4941C44.3253 45.8523 45.4 45.8523 46.4748 45.4941Z" fill="#FDC930"/>
<path d="M54.7139 45.4941C55.1915 45.2552 55.7886 45.0164 56.2663 44.5387C55.7886 44.0611 55.1915 43.8222 54.7139 43.5834C53.6391 43.2251 52.5644 43.2251 51.609 43.5834C51.1314 43.8222 50.5343 44.0611 50.0566 44.5387C50.5343 45.0164 51.1314 45.2552 51.609 45.4941C52.5644 45.8523 53.6391 45.8523 54.7139 45.4941Z" fill="#FDC930"/>
<path d="M34.0537 45.4941C35.9643 45.3746 37.875 45.0164 39.7857 44.5387C37.875 44.0611 35.9643 43.8222 34.0537 43.5834C30.3517 43.2251 26.6498 43.2251 22.709 43.5834C20.7983 43.7028 18.8877 44.0611 16.977 44.5387C18.8877 45.0164 20.7983 45.2552 22.709 45.4941C26.6498 45.8523 30.3517 45.8523 34.0537 45.4941Z" fill="#FDC930"/>
</svg>
