<svg width="56" height="56" viewBox="0 0 56 56" fill="none" xmlns="http://www.w3.org/2000/svg">
<g clip-path="url(#clip0_31_102)">
<rect x="0.5" y="0.5" width="55" height="55" rx="1.5" fill="url(#paint0_linear_31_102)" stroke="#243A75"/>
<path d="M35.7 22C34.02 22 32.4334 22.6534 31.2959 23.7909L28 26.7075L27.9941 26.7017L26.2266 28.2592L26.2383 28.2708L23.0941 31.0592C22.3475 31.8 21.3559 32.2084 20.3 32.2084C18.1184 32.2084 16.345 30.4409 16.345 28.2709C16.345 26.1009 18.1184 24.3334 20.3 24.3334C21.3559 24.3334 22.3475 24.7417 23.1466 25.535L24.4708 26.7075L26.2324 25.15L24.7566 23.8434C23.5666 22.6592 21.9857 22.0059 20.2999 22.0059C16.8234 22 14 24.8117 14 28.2709C14 31.73 16.8234 34.5417 20.3 34.5417C21.98 34.5417 23.5609 33.8884 24.7041 32.7567L28 29.8342L28.0059 29.8401L29.7675 28.2767L29.7616 28.2709L32.9058 25.4884C33.6525 24.7417 34.6441 24.3334 35.7 24.3334C37.8816 24.3334 39.655 26.1009 39.655 28.2709C39.655 30.4409 37.8816 32.2084 35.7 32.2084C34.6441 32.2084 33.6525 31.8 32.8534 31.0125L31.5292 29.84L29.7675 31.4034L31.2434 32.71C32.4334 33.8942 34.0142 34.5417 35.6942 34.5417C39.1766 34.5417 42 31.73 42 28.2709C42 24.8117 39.1766 22 35.7 22Z" fill="white"/>
</g>
<defs>
<linearGradient id="paint0_linear_31_102" x1="0" y1="0" x2="20.6513" y2="66.9101" gradientUnits="userSpaceOnUse">
<stop stop-color="#3758B2"/>
<stop offset="0.994792" stop-color="#3C1147"/>
</linearGradient>
<clipPath id="clip0_31_102">
<rect width="56" height="56" fill="white"/>
</clipPath>
</defs>
</svg>
