<svg width="56" height="56" viewBox="0 0 56 56" fill="none" xmlns="http://www.w3.org/2000/svg">
<g clip-path="url(#clip0_31_110)">
<rect x="0.5" y="0.5" width="55" height="55" rx="1.5" fill="url(#paint0_linear_31_110)" stroke="#243A75"/>
<path d="M36.5555 18H19.4445C18.0939 18 17 19.1188 17 20.5V35.5C17 36.8812 18.0939 38 19.4445 38H36.5556C37.9061 38 39 36.8812 39 35.5V20.5C39 19.1188 37.9061 18 36.5555 18ZM26.7778 26.75H24.9445V26.125H22.5V29.875H24.9445V29.25H26.7778V30.5C26.7778 31.1874 26.2339 31.7499 25.5556 31.7499H21.8889C21.2105 31.75 20.6667 31.1875 20.6667 30.5V25.5C20.6667 24.8125 21.2105 24.25 21.8889 24.25H25.5555C26.2339 24.25 26.7777 24.8125 26.7777 25.5V26.75H26.7778ZM35.3333 26.75H33.5V26.125H31.0555V29.875H33.5V29.25H35.3333V30.5C35.3333 31.1875 34.7895 31.75 34.1111 31.75H30.4445C29.7661 31.75 29.2223 31.1875 29.2223 30.5V25.5C29.2223 24.8126 29.7661 24.2501 30.4445 24.2501H34.1111C34.7895 24.2501 35.3333 24.8126 35.3333 25.5V26.75Z" fill="white"/>
</g>
<defs>
<linearGradient id="paint0_linear_31_110" x1="0" y1="0" x2="20.6513" y2="66.9101" gradientUnits="userSpaceOnUse">
<stop stop-color="#3758B2"/>
<stop offset="0.994792" stop-color="#3C1147"/>
</linearGradient>
<clipPath id="clip0_31_110">
<rect width="56" height="56" fill="white"/>
</clipPath>
</defs>
</svg>
