<?xml version="1.0" encoding="UTF-8"?> <svg xmlns="http://www.w3.org/2000/svg" width="270" height="282" viewBox="0 0 270 282" fill="none"> <rect x="0.5" y="0.5" width="269" height="281" rx="15.5" fill="white"></rect> <rect x="16" y="24" width="40" height="40" rx="8" fill="url(#paint0_linear_0_13)"></rect> <path fill-rule="evenodd" clip-rule="evenodd" d="M33 54H25V50H33V54ZM32.5 50.5H25.5V53.5H32.5V50.5Z" fill="#FAFAFA"></path> <path fill-rule="evenodd" clip-rule="evenodd" d="M33 46H25V42H33V46ZM32.5 42.5H25.5V45.5H32.5V42.5Z" fill="#FAFAFA"></path> <path fill-rule="evenodd" clip-rule="evenodd" d="M41 54H33V50H41V54ZM40.5 50.5H33.5V53.5H40.5V50.5Z" fill="#FAFAFA"></path> <path fill-rule="evenodd" clip-rule="evenodd" d="M41 46H33V42H41V46ZM40.5 42.5H33.5V45.5H40.5V42.5Z" fill="#FAFAFA"></path> <path fill-rule="evenodd" clip-rule="evenodd" d="M49 54H41V50H49V54ZM48.5 50.5H41.5V53.5H48.5V50.5Z" fill="#FAFAFA"></path> <path fill-rule="evenodd" clip-rule="evenodd" d="M49 46H41V42H49V46ZM48.5 42.5H41.5V45.5H48.5V42.5Z" fill="#FAFAFA"></path> <path fill-rule="evenodd" clip-rule="evenodd" d="M45 42H37V38H45V42ZM44.5 38.5H37.5V41.5H44.5V38.5Z" fill="#FAFAFA"></path> <path fill-rule="evenodd" clip-rule="evenodd" d="M37 42H29V38H37V42ZM36.5 38.5H29.5V41.5H36.5V38.5Z" fill="#FAFAFA"></path> <path fill-rule="evenodd" clip-rule="evenodd" d="M42 38H34V34H42V38ZM41.5 34.5H34.5V37.5H41.5V34.5Z" fill="#FAFAFA"></path> <path fill-rule="evenodd" clip-rule="evenodd" d="M52 50H44V46H52V50ZM51.5 46.5H44.5V49.5H51.5V46.5Z" fill="#FAFAFA"></path> <path fill-rule="evenodd" clip-rule="evenodd" d="M44 50H36V46H44V50ZM43.5 46.5H36.5V49.5H43.5V46.5Z" fill="#FAFAFA"></path> <path fill-rule="evenodd" clip-rule="evenodd" d="M36 50H28V46H36V50ZM35.5 46.5H28.5V49.5H35.5V46.5Z" fill="#FAFAFA"></path> <path fill-rule="evenodd" clip-rule="evenodd" d="M28 50H20V46H28V50ZM27.5 46.5H20.5V49.5H27.5V46.5Z" fill="#FAFAFA"></path> <path fill-rule="evenodd" clip-rule="evenodd" d="M36.95 37.95H42V38.05H37.05V42.05H33.05V46.05H28.05V49.95H33.05V54H32.95V50.05H27.95V45.95H32.95V41.95H36.95V37.95Z" fill="#161617"></path> <path fill-rule="evenodd" clip-rule="evenodd" d="M37 41.95H41.05V45.95H44.05V50.05H41.05V54H40.95V49.95H43.95V46.05H40.95V42.05H37V41.95Z" fill="#161617"></path> <path fill-rule="evenodd" clip-rule="evenodd" d="M37 38.05H34V37.95H37V38.05ZM45 41.95V42.05H29V41.95H45ZM25 50.05V49.95H49V50.05H25Z" fill="#161617"></path> <path fill-rule="evenodd" clip-rule="evenodd" d="M48.9397 46.05H25V45.95H48.9397V46.05Z" fill="#161617"></path> <path d="M135.526 49V39.2H139.74C140.804 39.2 141.639 39.4147 142.246 39.844C142.853 40.2733 143.156 40.8987 143.156 41.72C143.156 42.5227 142.867 43.1387 142.288 43.568C141.709 43.988 140.949 44.198 140.006 44.198L140.258 43.778C141.35 43.778 142.185 43.9973 142.764 44.436C143.352 44.8653 143.646 45.4953 143.646 46.326C143.646 47.166 143.338 47.824 142.722 48.3C142.115 48.7667 141.21 49 140.006 49H135.526ZM136.912 47.894H139.978C140.725 47.894 141.285 47.7587 141.658 47.488C142.041 47.208 142.232 46.7833 142.232 46.214C142.232 45.6447 142.041 45.2293 141.658 44.968C141.285 44.7067 140.725 44.576 139.978 44.576H136.912V47.894ZM136.912 43.512H139.642C140.323 43.512 140.841 43.3767 141.196 43.106C141.56 42.8353 141.742 42.4387 141.742 41.916C141.742 41.384 141.56 40.9827 141.196 40.712C140.841 40.4413 140.323 40.306 139.642 40.306H136.912V43.512ZM153.097 49V41.58H154.441V49H153.097ZM149.107 44.1C150.05 44.1093 150.764 44.324 151.249 44.744C151.744 45.164 151.991 45.7567 151.991 46.522C151.991 47.3247 151.72 47.9453 151.179 48.384C150.647 48.8133 149.882 49.0233 148.883 49.014L145.761 49V41.58H147.105V44.086L149.107 44.1ZM148.785 47.992C149.382 48.0013 149.84 47.88 150.157 47.628C150.474 47.376 150.633 47.0027 150.633 46.508C150.633 46.0227 150.474 45.668 150.157 45.444C149.849 45.22 149.392 45.1033 148.785 45.094L147.105 45.066V47.978L148.785 47.992ZM162.122 48.37V42.756H158.902L158.832 44.184C158.813 44.6507 158.781 45.1033 158.734 45.542C158.697 45.9713 158.631 46.368 158.538 46.732C158.454 47.096 158.328 47.3947 158.16 47.628C157.992 47.8613 157.768 48.006 157.488 48.062L156.158 47.824C156.447 47.8333 156.681 47.74 156.858 47.544C157.035 47.3387 157.171 47.0587 157.264 46.704C157.367 46.3493 157.441 45.948 157.488 45.5C157.535 45.0427 157.572 44.5713 157.6 44.086L157.712 41.58H163.466V48.37H162.122ZM155.864 50.722V47.824H164.6V50.722H163.34V49H157.138V50.722H155.864ZM170.901 49V47.432L170.831 47.138V44.464C170.831 43.8947 170.663 43.456 170.327 43.148C170 42.8307 169.505 42.672 168.843 42.672C168.404 42.672 167.975 42.7467 167.555 42.896C167.135 43.036 166.78 43.2273 166.491 43.47L165.931 42.462C166.313 42.154 166.771 41.9207 167.303 41.762C167.844 41.594 168.409 41.51 168.997 41.51C170.014 41.51 170.798 41.7573 171.349 42.252C171.899 42.7467 172.175 43.5027 172.175 44.52V49H170.901ZM168.465 49.084C167.914 49.084 167.429 48.9907 167.009 48.804C166.598 48.6173 166.281 48.3607 166.057 48.034C165.833 47.698 165.721 47.32 165.721 46.9C165.721 46.4987 165.814 46.1347 166.001 45.808C166.197 45.4813 166.509 45.22 166.939 45.024C167.377 44.828 167.965 44.73 168.703 44.73H171.055V45.696H168.759C168.087 45.696 167.634 45.808 167.401 46.032C167.167 46.256 167.051 46.5267 167.051 46.844C167.051 47.208 167.195 47.502 167.485 47.726C167.774 47.9407 168.175 48.048 168.689 48.048C169.193 48.048 169.631 47.936 170.005 47.712C170.387 47.488 170.663 47.1613 170.831 46.732L171.097 47.656C170.919 48.0947 170.607 48.4447 170.159 48.706C169.711 48.958 169.146 49.084 168.465 49.084ZM174.595 49V41.58H175.939V44.73H180.167V41.58H181.511V49H180.167V45.892H175.939V49H174.595ZM188.906 49V39.76L189.508 40.418H186.694V39.2H190.292V49H188.906ZM195.432 49.112C194.741 49.112 194.069 49.0047 193.416 48.79C192.772 48.5753 192.244 48.286 191.834 47.922L192.478 46.816C192.804 47.124 193.229 47.376 193.752 47.572C194.274 47.768 194.834 47.866 195.432 47.866C196.16 47.866 196.724 47.712 197.126 47.404C197.536 47.0867 197.742 46.662 197.742 46.13C197.742 45.6167 197.546 45.206 197.154 44.898C196.771 44.5807 196.16 44.422 195.32 44.422H194.536V43.442L197.448 39.858L197.644 40.418H192.282V39.2H198.75V40.152L195.852 43.722L195.124 43.288H195.586C196.771 43.288 197.658 43.554 198.246 44.086C198.843 44.618 199.142 45.2947 199.142 46.116C199.142 46.6667 199.006 47.1707 198.736 47.628C198.465 48.0853 198.054 48.4493 197.504 48.72C196.962 48.9813 196.272 49.112 195.432 49.112ZM201.371 49.084C201.11 49.084 200.886 48.9953 200.699 48.818C200.513 48.6313 200.419 48.398 200.419 48.118C200.419 47.838 200.513 47.6093 200.699 47.432C200.886 47.2547 201.11 47.166 201.371 47.166C201.623 47.166 201.838 47.2547 202.015 47.432C202.202 47.6093 202.295 47.838 202.295 48.118C202.295 48.398 202.202 48.6313 202.015 48.818C201.838 48.9953 201.623 49.084 201.371 49.084ZM205.094 49V39.76L205.696 40.418H202.882V39.2H206.48V49H205.094ZM212.627 49.112C211.862 49.112 211.176 48.916 210.569 48.524C209.972 48.132 209.496 47.5627 209.141 46.816C208.796 46.0693 208.623 45.164 208.623 44.1C208.623 43.036 208.796 42.1307 209.141 41.384C209.496 40.6373 209.972 40.068 210.569 39.676C211.176 39.284 211.862 39.088 212.627 39.088C213.383 39.088 214.065 39.284 214.671 39.676C215.278 40.068 215.754 40.6373 216.099 41.384C216.445 42.1307 216.617 43.036 216.617 44.1C216.617 45.164 216.445 46.0693 216.099 46.816C215.754 47.5627 215.278 48.132 214.671 48.524C214.065 48.916 213.383 49.112 212.627 49.112ZM212.627 47.866C213.141 47.866 213.589 47.726 213.971 47.446C214.363 47.166 214.667 46.746 214.881 46.186C215.105 45.626 215.217 44.9307 215.217 44.1C215.217 43.2693 215.105 42.574 214.881 42.014C214.667 41.454 214.363 41.034 213.971 40.754C213.589 40.474 213.141 40.334 212.627 40.334C212.114 40.334 211.661 40.474 211.269 40.754C210.877 41.034 210.569 41.454 210.345 42.014C210.131 42.574 210.023 43.2693 210.023 44.1C210.023 44.9307 210.131 45.626 210.345 46.186C210.569 46.746 210.877 47.166 211.269 47.446C211.661 47.726 212.114 47.866 212.627 47.866ZM218.721 49.084C218.46 49.084 218.236 48.9953 218.049 48.818C217.862 48.6313 217.769 48.398 217.769 48.118C217.769 47.838 217.862 47.6093 218.049 47.432C218.236 47.2547 218.46 47.166 218.721 47.166C218.973 47.166 219.188 47.2547 219.365 47.432C219.552 47.6093 219.645 47.838 219.645 48.118C219.645 48.398 219.552 48.6313 219.365 48.818C219.188 48.9953 218.973 49.084 218.721 49.084ZM220.952 49V48.048L224.942 44.198C225.296 43.862 225.558 43.568 225.726 43.316C225.903 43.0547 226.02 42.8167 226.076 42.602C226.141 42.378 226.174 42.1633 226.174 41.958C226.174 41.454 225.996 41.0573 225.642 40.768C225.287 40.4787 224.769 40.334 224.088 40.334C223.565 40.334 223.094 40.4227 222.674 40.6C222.254 40.768 221.89 41.034 221.582 41.398L220.63 40.572C221.003 40.096 221.502 39.732 222.128 39.48C222.762 39.2187 223.458 39.088 224.214 39.088C224.895 39.088 225.488 39.2 225.992 39.424C226.496 39.6387 226.883 39.9513 227.154 40.362C227.434 40.7727 227.574 41.258 227.574 41.818C227.574 42.1353 227.532 42.448 227.448 42.756C227.364 43.064 227.205 43.3907 226.972 43.736C226.738 44.0813 226.402 44.4687 225.964 44.898L222.408 48.328L222.072 47.782H227.994V49H220.952ZM233.135 49.112C232.37 49.112 231.684 48.916 231.077 48.524C230.48 48.132 230.004 47.5627 229.649 46.816C229.304 46.0693 229.131 45.164 229.131 44.1C229.131 43.036 229.304 42.1307 229.649 41.384C230.004 40.6373 230.48 40.068 231.077 39.676C231.684 39.284 232.37 39.088 233.135 39.088C233.891 39.088 234.572 39.284 235.179 39.676C235.786 40.068 236.262 40.6373 236.607 41.384C236.952 42.1307 237.125 43.036 237.125 44.1C237.125 45.164 236.952 46.0693 236.607 46.816C236.262 47.5627 235.786 48.132 235.179 48.524C234.572 48.916 233.891 49.112 233.135 49.112ZM233.135 47.866C233.648 47.866 234.096 47.726 234.479 47.446C234.871 47.166 235.174 46.746 235.389 46.186C235.613 45.626 235.725 44.9307 235.725 44.1C235.725 43.2693 235.613 42.574 235.389 42.014C235.174 41.454 234.871 41.034 234.479 40.754C234.096 40.474 233.648 40.334 233.135 40.334C232.622 40.334 232.169 40.474 231.777 40.754C231.385 41.034 231.077 41.454 230.853 42.014C230.638 42.574 230.531 43.2693 230.531 44.1C230.531 44.9307 230.638 45.626 230.853 46.186C231.077 46.746 231.385 47.166 231.777 47.446C232.169 47.726 232.622 47.866 233.135 47.866ZM238.315 49V48.048L242.305 44.198C242.66 43.862 242.921 43.568 243.089 43.316C243.266 43.0547 243.383 42.8167 243.439 42.602C243.504 42.378 243.537 42.1633 243.537 41.958C243.537 41.454 243.36 41.0573 243.005 40.768C242.65 40.4787 242.132 40.334 241.451 40.334C240.928 40.334 240.457 40.4227 240.037 40.6C239.617 40.768 239.253 41.034 238.945 41.398L237.993 40.572C238.366 40.096 238.866 39.732 239.491 39.48C240.126 39.2187 240.821 39.088 241.577 39.088C242.258 39.088 242.851 39.2 243.355 39.424C243.859 39.6387 244.246 39.9513 244.517 40.362C244.797 40.7727 244.937 41.258 244.937 41.818C244.937 42.1353 244.895 42.448 244.811 42.756C244.727 43.064 244.568 43.3907 244.335 43.736C244.102 44.0813 243.766 44.4687 243.327 44.898L239.771 48.328L239.435 47.782H245.357V49H238.315ZM246.354 49V48.048L250.344 44.198C250.699 43.862 250.96 43.568 251.128 43.316C251.305 43.0547 251.422 42.8167 251.478 42.602C251.543 42.378 251.576 42.1633 251.576 41.958C251.576 41.454 251.399 41.0573 251.044 40.768C250.689 40.4787 250.171 40.334 249.49 40.334C248.967 40.334 248.496 40.4227 248.076 40.6C247.656 40.768 247.292 41.034 246.984 41.398L246.032 40.572C246.405 40.096 246.905 39.732 247.53 39.48C248.165 39.2187 248.86 39.088 249.616 39.088C250.297 39.088 250.89 39.2 251.394 39.424C251.898 39.6387 252.285 39.9513 252.556 40.362C252.836 40.7727 252.976 41.258 252.976 41.818C252.976 42.1353 252.934 42.448 252.85 42.756C252.766 43.064 252.607 43.3907 252.374 43.736C252.141 44.0813 251.805 44.4687 251.366 44.898L247.81 48.328L247.474 47.782H253.396V49H246.354Z" fill="#49494F"></path> <path d="M16.888 121V119.368L23.728 112.768C24.336 112.192 24.784 111.688 25.072 111.256C25.376 110.808 25.576 110.4 25.672 110.032C25.784 109.648 25.84 109.28 25.84 108.928C25.84 108.064 25.536 107.384 24.928 106.888C24.32 106.392 23.432 106.144 22.264 106.144C21.368 106.144 20.56 106.296 19.84 106.6C19.12 106.888 18.496 107.344 17.968 107.968L16.336 106.552C16.976 105.736 17.832 105.112 18.904 104.68C19.992 104.232 21.184 104.008 22.48 104.008C23.648 104.008 24.664 104.2 25.528 104.584C26.392 104.952 27.056 105.488 27.52 106.192C28 106.896 28.24 107.728 28.24 108.688C28.24 109.232 28.168 109.768 28.024 110.296C27.88 110.824 27.608 111.384 27.208 111.976C26.808 112.568 26.232 113.232 25.48 113.968L19.384 119.848L18.808 118.912H28.96V121H16.888ZM36.3573 121.192C35.1733 121.192 34.0213 121.008 32.9013 120.64C31.7973 120.272 30.8933 119.776 30.1893 119.152L31.2933 117.256C31.8533 117.784 32.5813 118.216 33.4773 118.552C34.3733 118.888 35.3253 119.056 36.3333 119.056C37.6133 119.056 38.5973 118.784 39.2853 118.24C39.9733 117.696 40.3173 116.968 40.3173 116.056C40.3173 115.432 40.1653 114.888 39.8613 114.424C39.5573 113.96 39.0293 113.608 38.2773 113.368C37.5413 113.112 36.5253 112.984 35.2293 112.984H31.4133L32.3013 104.2H41.7812V106.288H33.1893L34.4373 105.112L33.7413 112.048L32.4933 110.896H35.7333C37.4133 110.896 38.7653 111.112 39.7893 111.544C40.8133 111.976 41.5573 112.576 42.0213 113.344C42.4853 114.096 42.7173 114.968 42.7173 115.96C42.7173 116.92 42.4853 117.8 42.0213 118.6C41.5573 119.384 40.8533 120.016 39.9093 120.496C38.9813 120.96 37.7973 121.192 36.3573 121.192ZM51.5785 121.192C50.2665 121.192 49.0905 120.856 48.0505 120.184C47.0265 119.512 46.2105 118.536 45.6025 117.256C45.0105 115.976 44.7145 114.424 44.7145 112.6C44.7145 110.776 45.0105 109.224 45.6025 107.944C46.2105 106.664 47.0265 105.688 48.0505 105.016C49.0905 104.344 50.2665 104.008 51.5785 104.008C52.8745 104.008 54.0425 104.344 55.0825 105.016C56.1225 105.688 56.9385 106.664 57.5305 107.944C58.1225 109.224 58.4185 110.776 58.4185 112.6C58.4185 114.424 58.1225 115.976 57.5305 117.256C56.9385 118.536 56.1225 119.512 55.0825 120.184C54.0425 120.856 52.8745 121.192 51.5785 121.192ZM51.5785 119.056C52.4585 119.056 53.2265 118.816 53.8825 118.336C54.5545 117.856 55.0745 117.136 55.4425 116.176C55.8265 115.216 56.0185 114.024 56.0185 112.6C56.0185 111.176 55.8265 109.984 55.4425 109.024C55.0745 108.064 54.5545 107.344 53.8825 106.864C53.2265 106.384 52.4585 106.144 51.5785 106.144C50.6985 106.144 49.9225 106.384 49.2505 106.864C48.5785 107.344 48.0505 108.064 47.6665 109.024C47.2985 109.984 47.1145 111.176 47.1145 112.6C47.1145 114.024 47.2985 115.216 47.6665 116.176C48.0505 117.136 48.5785 117.856 49.2505 118.336C49.9225 118.816 50.6985 119.056 51.5785 119.056ZM74.0316 121.192C72.7196 121.192 71.5436 120.856 70.5036 120.184C69.4796 119.512 68.6636 118.536 68.0556 117.256C67.4636 115.976 67.1676 114.424 67.1676 112.6C67.1676 110.776 67.4636 109.224 68.0556 107.944C68.6636 106.664 69.4796 105.688 70.5036 105.016C71.5436 104.344 72.7196 104.008 74.0316 104.008C75.3276 104.008 76.4956 104.344 77.5356 105.016C78.5756 105.688 79.3916 106.664 79.9836 107.944C80.5756 109.224 80.8716 110.776 80.8716 112.6C80.8716 114.424 80.5756 115.976 79.9836 117.256C79.3916 118.536 78.5756 119.512 77.5356 120.184C76.4956 120.856 75.3276 121.192 74.0316 121.192ZM74.0316 119.056C74.9116 119.056 75.6796 118.816 76.3356 118.336C77.0076 117.856 77.5276 117.136 77.8956 116.176C78.2796 115.216 78.4716 114.024 78.4716 112.6C78.4716 111.176 78.2796 109.984 77.8956 109.024C77.5276 108.064 77.0076 107.344 76.3356 106.864C75.6796 106.384 74.9116 106.144 74.0316 106.144C73.1516 106.144 72.3756 106.384 71.7036 106.864C71.0316 107.344 70.5036 108.064 70.1196 109.024C69.7516 109.984 69.5676 111.176 69.5676 112.6C69.5676 114.024 69.7516 115.216 70.1196 116.176C70.5036 117.136 71.0316 117.856 71.7036 118.336C72.3756 118.816 73.1516 119.056 74.0316 119.056ZM90.0394 121.192C88.7274 121.192 87.5514 120.856 86.5114 120.184C85.4874 119.512 84.6714 118.536 84.0634 117.256C83.4714 115.976 83.1754 114.424 83.1754 112.6C83.1754 110.776 83.4714 109.224 84.0634 107.944C84.6714 106.664 85.4874 105.688 86.5114 105.016C87.5514 104.344 88.7274 104.008 90.0394 104.008C91.3354 104.008 92.5034 104.344 93.5434 105.016C94.5834 105.688 95.3994 106.664 95.9914 107.944C96.5834 109.224 96.8794 110.776 96.8794 112.6C96.8794 114.424 96.5834 115.976 95.9914 117.256C95.3994 118.536 94.5834 119.512 93.5434 120.184C92.5034 120.856 91.3354 121.192 90.0394 121.192ZM90.0394 119.056C90.9194 119.056 91.6874 118.816 92.3434 118.336C93.0154 117.856 93.5354 117.136 93.9034 116.176C94.2874 115.216 94.4794 114.024 94.4794 112.6C94.4794 111.176 94.2874 109.984 93.9034 109.024C93.5354 108.064 93.0154 107.344 92.3434 106.864C91.6874 106.384 90.9194 106.144 90.0394 106.144C89.1594 106.144 88.3834 106.384 87.7114 106.864C87.0394 107.344 86.5114 108.064 86.1274 109.024C85.7594 109.984 85.5754 111.176 85.5754 112.6C85.5754 114.024 85.7594 115.216 86.1274 116.176C86.5114 117.136 87.0394 117.856 87.7114 118.336C88.3834 118.816 89.1594 119.056 90.0394 119.056ZM106.047 121.192C104.735 121.192 103.559 120.856 102.519 120.184C101.495 119.512 100.679 118.536 100.071 117.256C99.4793 115.976 99.1833 114.424 99.1833 112.6C99.1833 110.776 99.4793 109.224 100.071 107.944C100.679 106.664 101.495 105.688 102.519 105.016C103.559 104.344 104.735 104.008 106.047 104.008C107.343 104.008 108.511 104.344 109.551 105.016C110.591 105.688 111.407 106.664 111.999 107.944C112.591 109.224 112.887 110.776 112.887 112.6C112.887 114.424 112.591 115.976 111.999 117.256C111.407 118.536 110.591 119.512 109.551 120.184C108.511 120.856 107.343 121.192 106.047 121.192ZM106.047 119.056C106.927 119.056 107.695 118.816 108.351 118.336C109.023 117.856 109.543 117.136 109.911 116.176C110.295 115.216 110.487 114.024 110.487 112.6C110.487 111.176 110.295 109.984 109.911 109.024C109.543 108.064 109.023 107.344 108.351 106.864C107.695 106.384 106.927 106.144 106.047 106.144C105.167 106.144 104.391 106.384 103.719 106.864C103.047 107.344 102.519 108.064 102.135 109.024C101.767 109.984 101.583 111.176 101.583 112.6C101.583 114.024 101.767 115.216 102.135 116.176C102.519 117.136 103.047 117.856 103.719 118.336C104.391 118.816 105.167 119.056 106.047 119.056ZM117.207 121V104.2H123.807C125.967 104.2 127.671 104.68 128.919 105.64C130.167 106.584 130.791 107.968 130.791 109.792C130.791 111.616 130.167 113.008 128.919 113.968C127.671 114.928 125.967 115.408 123.807 115.408H118.551L119.631 114.28V121H117.207ZM119.631 114.52L118.551 113.416H123.807C125.279 113.416 126.407 113.104 127.191 112.48C127.975 111.856 128.367 110.968 128.367 109.816C128.367 108.68 127.975 107.808 127.191 107.2C126.407 106.592 125.279 106.288 123.807 106.288H118.551L119.631 105.088V114.52ZM114.759 118.192V116.824H124.959V118.192H114.759Z" fill="#161617"></path> <path d="M224.192 114.128C223.403 114.128 222.635 114.005 221.888 113.76C221.152 113.515 220.549 113.184 220.08 112.768L220.816 111.504C221.189 111.856 221.675 112.144 222.272 112.368C222.869 112.592 223.509 112.704 224.192 112.704C225.024 112.704 225.669 112.528 226.128 112.176C226.597 111.813 226.832 111.328 226.832 110.72C226.832 110.133 226.608 109.664 226.16 109.312C225.723 108.949 225.024 108.768 224.064 108.768H223.168V107.648L226.496 103.552L226.72 104.192H220.592V102.8H227.984V103.888L224.672 107.968L223.84 107.472H224.368C225.723 107.472 226.736 107.776 227.408 108.384C228.091 108.992 228.432 109.765 228.432 110.704C228.432 111.333 228.277 111.909 227.968 112.432C227.659 112.955 227.189 113.371 226.56 113.68C225.941 113.979 225.152 114.128 224.192 114.128ZM234.5 114.128C233.626 114.128 232.842 113.904 232.148 113.456C231.466 113.008 230.922 112.357 230.516 111.504C230.122 110.651 229.924 109.616 229.924 108.4C229.924 107.184 230.122 106.149 230.516 105.296C230.922 104.443 231.466 103.792 232.148 103.344C232.842 102.896 233.626 102.672 234.5 102.672C235.364 102.672 236.143 102.896 236.836 103.344C237.53 103.792 238.074 104.443 238.468 105.296C238.863 106.149 239.06 107.184 239.06 108.4C239.06 109.616 238.863 110.651 238.468 111.504C238.074 112.357 237.53 113.008 236.836 113.456C236.143 113.904 235.364 114.128 234.5 114.128ZM234.5 112.704C235.087 112.704 235.599 112.544 236.036 112.224C236.484 111.904 236.831 111.424 237.076 110.784C237.332 110.144 237.46 109.349 237.46 108.4C237.46 107.451 237.332 106.656 237.076 106.016C236.831 105.376 236.484 104.896 236.036 104.576C235.599 104.256 235.087 104.096 234.5 104.096C233.914 104.096 233.396 104.256 232.948 104.576C232.5 104.896 232.148 105.376 231.892 106.016C231.647 106.656 231.524 107.451 231.524 108.4C231.524 109.349 231.647 110.144 231.892 110.784C232.148 111.424 232.5 111.904 232.948 112.224C233.396 112.544 233.914 112.704 234.5 112.704ZM242.132 114L249.78 102.8H251.012L243.364 114H242.132ZM243.028 108.816C242.516 108.816 242.063 108.688 241.668 108.432C241.273 108.176 240.964 107.819 240.74 107.36C240.527 106.901 240.42 106.368 240.42 105.76C240.42 105.152 240.527 104.619 240.74 104.16C240.964 103.701 241.273 103.344 241.668 103.088C242.063 102.832 242.516 102.704 243.028 102.704C243.551 102.704 244.004 102.832 244.388 103.088C244.783 103.344 245.087 103.701 245.3 104.16C245.513 104.619 245.62 105.152 245.62 105.76C245.62 106.368 245.513 106.901 245.3 107.36C245.087 107.819 244.783 108.176 244.388 108.432C244.004 108.688 243.551 108.816 243.028 108.816ZM243.028 107.904C243.519 107.904 243.903 107.717 244.18 107.344C244.457 106.96 244.596 106.432 244.596 105.76C244.596 105.088 244.457 104.565 244.18 104.192C243.903 103.808 243.519 103.616 243.028 103.616C242.548 103.616 242.164 103.808 241.876 104.192C241.599 104.565 241.46 105.088 241.46 105.76C241.46 106.421 241.599 106.944 241.876 107.328C242.164 107.712 242.548 107.904 243.028 107.904ZM250.116 114.096C249.604 114.096 249.151 113.968 248.756 113.712C248.361 113.456 248.057 113.099 247.844 112.64C247.631 112.181 247.524 111.648 247.524 111.04C247.524 110.432 247.631 109.899 247.844 109.44C248.057 108.981 248.361 108.624 248.756 108.368C249.151 108.112 249.604 107.984 250.116 107.984C250.639 107.984 251.092 108.112 251.476 108.368C251.871 108.624 252.175 108.981 252.388 109.44C252.612 109.899 252.724 110.432 252.724 111.04C252.724 111.648 252.612 112.181 252.388 112.64C252.175 113.099 251.871 113.456 251.476 113.712C251.092 113.968 250.639 114.096 250.116 114.096ZM250.116 113.184C250.596 113.184 250.975 112.997 251.252 112.624C251.54 112.24 251.684 111.712 251.684 111.04C251.684 110.379 251.54 109.856 251.252 109.472C250.975 109.088 250.596 108.896 250.116 108.896C249.636 108.896 249.252 109.088 248.964 109.472C248.687 109.845 248.548 110.368 248.548 111.04C248.548 111.712 248.687 112.24 248.964 112.624C249.252 112.997 249.636 113.184 250.116 113.184Z" fill="#2CCC39"></path> <path d="M254 143H16V145H254V143Z" fill="#DDDDDD" mask="url(#path-21-inside-1_0_13)"></path> <path d="M22.8 178.096C21.9573 178.096 21.1733 177.957 20.448 177.68C19.7333 177.392 19.1093 176.992 18.576 176.48C18.0533 175.957 17.6427 175.355 17.344 174.672C17.056 173.979 16.912 173.221 16.912 172.4C16.912 171.579 17.056 170.827 17.344 170.144C17.6427 169.451 18.0533 168.848 18.576 168.336C19.1093 167.813 19.7333 167.413 20.448 167.136C21.1627 166.848 21.9467 166.704 22.8 166.704C23.6427 166.704 24.4213 166.848 25.136 167.136C25.8507 167.413 26.4693 167.808 26.992 168.32C27.5253 168.832 27.936 169.435 28.224 170.128C28.5227 170.821 28.672 171.579 28.672 172.4C28.672 173.221 28.5227 173.979 28.224 174.672C27.936 175.365 27.5253 175.968 26.992 176.48C26.4693 176.992 25.8507 177.392 25.136 177.68C24.4213 177.957 23.6427 178.096 22.8 178.096ZM22.8 177.04C23.472 177.04 24.0907 176.928 24.656 176.704C25.232 176.469 25.728 176.144 26.144 175.728C26.5707 175.301 26.9013 174.811 27.136 174.256C27.3707 173.691 27.488 173.072 27.488 172.4C27.488 171.728 27.3707 171.115 27.136 170.56C26.9013 169.995 26.5707 169.504 26.144 169.088C25.728 168.661 25.232 168.336 24.656 168.112C24.0907 167.877 23.472 167.76 22.8 167.76C22.128 167.76 21.504 167.877 20.928 168.112C20.352 168.336 19.8507 168.661 19.424 169.088C19.008 169.504 18.6773 169.995 18.432 170.56C18.1973 171.115 18.08 171.728 18.08 172.4C18.08 173.061 18.1973 173.675 18.432 174.24C18.6773 174.805 19.008 175.301 19.424 175.728C19.8507 176.144 20.352 176.469 20.928 176.704C21.504 176.928 22.128 177.04 22.8 177.04ZM36.4094 178.096C35.5667 178.096 34.7827 177.957 34.0574 177.68C33.3427 177.392 32.7187 176.992 32.1854 176.48C31.6627 175.957 31.252 175.355 30.9534 174.672C30.6654 173.979 30.5214 173.221 30.5214 172.4C30.5214 171.579 30.6654 170.827 30.9534 170.144C31.252 169.451 31.6627 168.848 32.1854 168.336C32.7187 167.813 33.3427 167.413 34.0574 167.136C34.772 166.848 35.556 166.704 36.4094 166.704C37.252 166.704 38.0307 166.848 38.7454 167.136C39.46 167.413 40.0787 167.808 40.6014 168.32C41.1347 168.832 41.5454 169.435 41.8334 170.128C42.132 170.821 42.2814 171.579 42.2814 172.4C42.2814 173.221 42.132 173.979 41.8334 174.672C41.5454 175.365 41.1347 175.968 40.6014 176.48C40.0787 176.992 39.46 177.392 38.7454 177.68C38.0307 177.957 37.252 178.096 36.4094 178.096ZM36.4094 177.04C37.0814 177.04 37.7 176.928 38.2654 176.704C38.8414 176.469 39.3374 176.144 39.7534 175.728C40.18 175.301 40.5107 174.811 40.7454 174.256C40.98 173.691 41.0974 173.072 41.0974 172.4C41.0974 171.728 40.98 171.115 40.7454 170.56C40.5107 169.995 40.18 169.504 39.7534 169.088C39.3374 168.661 38.8414 168.336 38.2654 168.112C37.7 167.877 37.0814 167.76 36.4094 167.76C35.7374 167.76 35.1134 167.877 34.5374 168.112C33.9614 168.336 33.46 168.661 33.0334 169.088C32.6174 169.504 32.2867 169.995 32.0414 170.56C31.8067 171.115 31.6894 171.728 31.6894 172.4C31.6894 173.061 31.8067 173.675 32.0414 174.24C32.2867 174.805 32.6174 175.301 33.0334 175.728C33.46 176.144 33.9614 176.469 34.5374 176.704C35.1134 176.928 35.7374 177.04 36.4094 177.04ZM50.0188 178.096C49.1761 178.096 48.3921 177.957 47.6668 177.68C46.9521 177.392 46.3281 176.992 45.7948 176.48C45.2721 175.957 44.8614 175.355 44.5628 174.672C44.2748 173.979 44.1308 173.221 44.1308 172.4C44.1308 171.579 44.2748 170.827 44.5628 170.144C44.8614 169.451 45.2721 168.848 45.7948 168.336C46.3281 167.813 46.9521 167.413 47.6668 167.136C48.3814 166.848 49.1654 166.704 50.0188 166.704C50.8614 166.704 51.6401 166.848 52.3548 167.136C53.0694 167.413 53.6881 167.808 54.2108 168.32C54.7441 168.832 55.1548 169.435 55.4428 170.128C55.7414 170.821 55.8908 171.579 55.8908 172.4C55.8908 173.221 55.7414 173.979 55.4428 174.672C55.1548 175.365 54.7441 175.968 54.2108 176.48C53.6881 176.992 53.0694 177.392 52.3548 177.68C51.6401 177.957 50.8614 178.096 50.0188 178.096ZM50.0188 177.04C50.6908 177.04 51.3094 176.928 51.8748 176.704C52.4508 176.469 52.9468 176.144 53.3628 175.728C53.7894 175.301 54.1201 174.811 54.3548 174.256C54.5894 173.691 54.7068 173.072 54.7068 172.4C54.7068 171.728 54.5894 171.115 54.3548 170.56C54.1201 169.995 53.7894 169.504 53.3628 169.088C52.9468 168.661 52.4508 168.336 51.8748 168.112C51.3094 167.877 50.6908 167.76 50.0188 167.76C49.3468 167.76 48.7228 167.877 48.1468 168.112C47.5708 168.336 47.0694 168.661 46.6428 169.088C46.2268 169.504 45.8961 169.995 45.6508 170.56C45.4161 171.115 45.2988 171.728 45.2988 172.4C45.2988 173.061 45.4161 173.675 45.6508 174.24C45.8961 174.805 46.2268 175.301 46.6428 175.728C47.0694 176.144 47.5708 176.469 48.1468 176.704C48.7228 176.928 49.3468 177.04 50.0188 177.04ZM57.4898 170.032L58.1938 167.088L58.3218 167.76C58.0764 167.76 57.8684 167.685 57.6978 167.536C57.5378 167.376 57.4578 167.168 57.4578 166.912C57.4578 166.656 57.5378 166.448 57.6978 166.288C57.8684 166.128 58.0711 166.048 58.3058 166.048C58.5511 166.048 58.7484 166.133 58.8978 166.304C59.0578 166.464 59.1378 166.667 59.1378 166.912C59.1378 166.997 59.1324 167.083 59.1218 167.168C59.1111 167.253 59.0898 167.349 59.0578 167.456C59.0364 167.552 58.9991 167.675 58.9457 167.824L58.2578 170.032H57.4898ZM60.2098 170.032L60.9138 167.088L61.0418 167.76C60.7964 167.76 60.5884 167.685 60.4178 167.536C60.2578 167.376 60.1778 167.168 60.1778 166.912C60.1778 166.656 60.2578 166.448 60.4178 166.288C60.5884 166.128 60.7911 166.048 61.0258 166.048C61.2711 166.048 61.4684 166.133 61.6178 166.304C61.7778 166.464 61.8578 166.667 61.8578 166.912C61.8578 166.997 61.8524 167.083 61.8418 167.168C61.8311 167.253 61.8098 167.349 61.7778 167.456C61.7564 167.552 61.7191 167.675 61.6658 167.824L60.9778 170.032H60.2098ZM64.5911 178V166.8H65.7591V176.08L72.9271 166.8H73.9991V178H72.8311V168.736L65.6631 178H64.5911ZM85.9706 166.8H87.1386V178H85.9706V166.8ZM78.9626 178H77.7786V166.8H78.9626V178ZM86.0826 172.832H78.8346V171.792H86.0826V172.832ZM95.8153 178.096C94.9726 178.096 94.1939 177.957 93.4793 177.68C92.7646 177.392 92.1459 176.992 91.6233 176.48C91.1006 175.968 90.6899 175.365 90.3913 174.672C90.1033 173.979 89.9593 173.221 89.9593 172.4C89.9593 171.579 90.1033 170.821 90.3913 170.128C90.6899 169.435 91.1006 168.832 91.6233 168.32C92.1566 167.808 92.7806 167.413 93.4953 167.136C94.2099 166.848 94.9886 166.704 95.8313 166.704C96.6419 166.704 97.4046 166.843 98.1193 167.12C98.8339 167.387 99.4366 167.792 99.9273 168.336L99.1753 169.088C98.7166 168.619 98.2099 168.283 97.6553 168.08C97.1006 167.867 96.5033 167.76 95.8633 167.76C95.1913 167.76 94.5673 167.877 93.9913 168.112C93.4153 168.336 92.9139 168.661 92.4873 169.088C92.0606 169.504 91.7246 169.995 91.4793 170.56C91.2446 171.115 91.1273 171.728 91.1273 172.4C91.1273 173.072 91.2446 173.691 91.4793 174.256C91.7246 174.811 92.0606 175.301 92.4873 175.728C92.9139 176.144 93.4153 176.469 93.9913 176.704C94.5673 176.928 95.1913 177.04 95.8633 177.04C96.5033 177.04 97.1006 176.933 97.6553 176.72C98.2099 176.507 98.7166 176.165 99.1753 175.696L99.9273 176.448C99.4366 176.992 98.8339 177.403 98.1193 177.68C97.4046 177.957 96.6366 178.096 95.8153 178.096ZM104.456 178V167.504L104.776 167.824H100.52V166.8H109.56V167.824H105.32L105.624 167.504V178H104.456ZM109.428 178L114.548 166.8H115.716L120.836 178H119.588L114.884 167.488H115.364L110.66 178H109.428ZM111.444 175.008L111.796 174.048H118.308L118.66 175.008H111.444ZM122.982 178V166.8H124.15V176.08L131.318 166.8H132.39V178H131.222V168.736L124.054 178H122.982ZM127.654 165.984C126.854 165.984 126.219 165.803 125.75 165.44C125.291 165.077 125.056 164.571 125.046 163.92H125.926C125.936 164.347 126.096 164.683 126.406 164.928C126.726 165.173 127.142 165.296 127.654 165.296C128.166 165.296 128.576 165.173 128.886 164.928C129.206 164.683 129.371 164.347 129.382 163.92H130.262C130.251 164.571 130.011 165.077 129.542 165.44C129.072 165.803 128.443 165.984 127.654 165.984ZM135.181 178.096C135.032 178.096 134.888 178.085 134.749 178.064C134.611 178.053 134.456 178.027 134.285 177.984L134.381 176.928C134.563 176.971 134.739 176.992 134.909 176.992C135.389 176.992 135.773 176.805 136.061 176.432C136.36 176.048 136.584 175.461 136.733 174.672C136.883 173.872 136.979 172.848 137.021 171.6L137.181 166.8H144.781V178H143.613V167.504L143.917 167.824H137.933L138.221 167.488L138.077 171.568C138.035 172.688 137.955 173.659 137.837 174.48C137.72 175.291 137.549 175.968 137.325 176.512C137.101 177.045 136.813 177.445 136.461 177.712C136.109 177.968 135.683 178.096 135.181 178.096ZM147.568 170.032L148.272 167.088L148.4 167.76C148.155 167.76 147.947 167.685 147.776 167.536C147.616 167.376 147.536 167.168 147.536 166.912C147.536 166.656 147.616 166.448 147.776 166.288C147.947 166.128 148.149 166.048 148.384 166.048C148.629 166.048 148.827 166.133 148.976 166.304C149.136 166.464 149.216 166.667 149.216 166.912C149.216 166.997 149.211 167.083 149.2 167.168C149.189 167.253 149.168 167.349 149.136 167.456C149.115 167.552 149.077 167.675 149.024 167.824L148.336 170.032H147.568ZM150.288 170.032L150.992 167.088L151.12 167.76C150.875 167.76 150.667 167.685 150.496 167.536C150.336 167.376 150.256 167.168 150.256 166.912C150.256 166.656 150.336 166.448 150.496 166.288C150.667 166.128 150.869 166.048 151.104 166.048C151.349 166.048 151.547 166.133 151.696 166.304C151.856 166.464 151.936 166.667 151.936 166.912C151.936 166.997 151.931 167.083 151.92 167.168C151.909 167.253 151.888 167.349 151.856 167.456C151.835 167.552 151.797 167.675 151.744 167.824L151.056 170.032H150.288Z" fill="#49494F"></path> <path d="M254 223H16V225H254V223Z" fill="#DDDDDD" mask="url(#path-25-inside-2_0_13)"></path> <path d="M17.652 254V244.2H25.898V254H24.876V244.816L25.142 245.096H18.408L18.674 244.816V254H17.652ZM32.1167 254.07C31.3514 254.07 30.6794 253.911 30.1007 253.594C29.5221 253.267 29.0694 252.824 28.7427 252.264C28.4161 251.695 28.2527 251.046 28.2527 250.318C28.2527 249.59 28.4067 248.946 28.7147 248.386C29.0321 247.826 29.4614 247.387 30.0027 247.07C30.5534 246.743 31.1694 246.58 31.8507 246.58C32.5414 246.58 33.1527 246.739 33.6847 247.056C34.2261 247.364 34.6507 247.803 34.9587 248.372C35.2667 248.932 35.4207 249.581 35.4207 250.318C35.4207 250.365 35.4161 250.416 35.4067 250.472C35.4067 250.519 35.4067 250.57 35.4067 250.626H29.0087V249.884H34.8747L34.4827 250.178C34.4827 249.646 34.3661 249.175 34.1327 248.764C33.9087 248.344 33.6007 248.017 33.2087 247.784C32.8167 247.551 32.3641 247.434 31.8507 247.434C31.3467 247.434 30.8941 247.551 30.4927 247.784C30.0914 248.017 29.7787 248.344 29.5547 248.764C29.3307 249.184 29.2187 249.665 29.2187 250.206V250.36C29.2187 250.92 29.3401 251.415 29.5827 251.844C29.8347 252.264 30.1801 252.595 30.6187 252.838C31.0667 253.071 31.5754 253.188 32.1447 253.188C32.5927 253.188 33.0081 253.109 33.3907 252.95C33.7827 252.791 34.1187 252.549 34.3987 252.222L34.9587 252.866C34.6321 253.258 34.2214 253.557 33.7267 253.762C33.2414 253.967 32.7047 254.07 32.1167 254.07ZM41.415 254.07C40.7804 254.07 40.2064 253.925 39.693 253.636C39.1797 253.337 38.769 252.913 38.461 252.362C38.1624 251.802 38.013 251.121 38.013 250.318C38.013 249.515 38.1624 248.839 38.461 248.288C38.7597 247.728 39.1657 247.303 39.679 247.014C40.1924 246.725 40.771 246.58 41.415 246.58C42.115 246.58 42.7404 246.739 43.291 247.056C43.851 247.364 44.2897 247.803 44.607 248.372C44.9244 248.932 45.083 249.581 45.083 250.318C45.083 251.065 44.9244 251.718 44.607 252.278C44.2897 252.838 43.851 253.277 43.291 253.594C42.7404 253.911 42.115 254.07 41.415 254.07ZM37.621 256.716V246.65H38.573V248.862L38.475 250.332L38.615 251.816V256.716H37.621ZM41.345 253.188C41.8677 253.188 42.3344 253.071 42.745 252.838C43.1557 252.595 43.4824 252.259 43.725 251.83C43.9677 251.391 44.089 250.887 44.089 250.318C44.089 249.749 43.9677 249.249 43.725 248.82C43.4824 248.391 43.1557 248.055 42.745 247.812C42.3344 247.569 41.8677 247.448 41.345 247.448C40.8224 247.448 40.351 247.569 39.931 247.812C39.5204 248.055 39.1937 248.391 38.951 248.82C38.7177 249.249 38.601 249.749 38.601 250.318C38.601 250.887 38.7177 251.391 38.951 251.83C39.1937 252.259 39.5204 252.595 39.931 252.838C40.351 253.071 40.8224 253.188 41.345 253.188ZM50.3687 254.07C49.6034 254.07 48.9314 253.911 48.3527 253.594C47.774 253.267 47.3214 252.824 46.9947 252.264C46.668 251.695 46.5047 251.046 46.5047 250.318C46.5047 249.59 46.6587 248.946 46.9667 248.386C47.284 247.826 47.7134 247.387 48.2547 247.07C48.8054 246.743 49.4214 246.58 50.1027 246.58C50.7934 246.58 51.4047 246.739 51.9367 247.056C52.478 247.364 52.9027 247.803 53.2107 248.372C53.5187 248.932 53.6727 249.581 53.6727 250.318C53.6727 250.365 53.668 250.416 53.6587 250.472C53.6587 250.519 53.6587 250.57 53.6587 250.626H47.2607V249.884H53.1267L52.7347 250.178C52.7347 249.646 52.618 249.175 52.3847 248.764C52.1607 248.344 51.8527 248.017 51.4607 247.784C51.0687 247.551 50.616 247.434 50.1027 247.434C49.5987 247.434 49.146 247.551 48.7447 247.784C48.3434 248.017 48.0307 248.344 47.8067 248.764C47.5827 249.184 47.4707 249.665 47.4707 250.206V250.36C47.4707 250.92 47.592 251.415 47.8347 251.844C48.0867 252.264 48.432 252.595 48.8707 252.838C49.3187 253.071 49.8274 253.188 50.3967 253.188C50.8447 253.188 51.26 253.109 51.6427 252.95C52.0347 252.791 52.3707 252.549 52.6507 252.222L53.2107 252.866C52.884 253.258 52.4734 253.557 51.9787 253.762C51.4934 253.967 50.9567 254.07 50.3687 254.07ZM55.873 254V246.65H59.121C59.9517 246.65 60.605 246.809 61.081 247.126C61.5663 247.443 61.809 247.91 61.809 248.526C61.809 249.123 61.5803 249.585 61.123 249.912C60.6657 250.229 60.0637 250.388 59.317 250.388L59.513 250.094C60.3903 250.094 61.0343 250.257 61.445 250.584C61.8557 250.911 62.061 251.382 62.061 251.998C62.061 252.633 61.8277 253.127 61.361 253.482C60.9037 253.827 60.1897 254 59.219 254H55.873ZM56.839 253.216H59.177C59.8023 253.216 60.2737 253.118 60.591 252.922C60.9177 252.717 61.081 252.39 61.081 251.942C61.081 251.494 60.9363 251.167 60.647 250.962C60.3577 250.757 59.9003 250.654 59.275 250.654H56.839V253.216ZM56.839 249.912H59.051C59.6203 249.912 60.0543 249.805 60.353 249.59C60.661 249.375 60.815 249.063 60.815 248.652C60.815 248.241 60.661 247.933 60.353 247.728C60.0543 247.523 59.6203 247.42 59.051 247.42H56.839V249.912ZM67.4146 254.07C66.7052 254.07 66.0659 253.911 65.4966 253.594C64.9366 253.267 64.4932 252.824 64.1666 252.264C63.8399 251.695 63.6766 251.046 63.6766 250.318C63.6766 249.581 63.8399 248.932 64.1666 248.372C64.4932 247.812 64.9366 247.373 65.4966 247.056C66.0566 246.739 66.6959 246.58 67.4146 246.58C68.1426 246.58 68.7866 246.739 69.3466 247.056C69.9159 247.373 70.3592 247.812 70.6766 248.372C71.0032 248.932 71.1666 249.581 71.1666 250.318C71.1666 251.046 71.0032 251.695 70.6766 252.264C70.3592 252.824 69.9159 253.267 69.3466 253.594C68.7772 253.911 68.1332 254.07 67.4146 254.07ZM67.4146 253.188C67.9466 253.188 68.4179 253.071 68.8286 252.838C69.2392 252.595 69.5612 252.259 69.7946 251.83C70.0372 251.391 70.1586 250.887 70.1586 250.318C70.1586 249.739 70.0372 249.235 69.7946 248.806C69.5612 248.377 69.2392 248.045 68.8286 247.812C68.4179 247.569 67.9512 247.448 67.4286 247.448C66.9059 247.448 66.4392 247.569 66.0286 247.812C65.6179 248.045 65.2912 248.377 65.0486 248.806C64.8059 249.235 64.6846 249.739 64.6846 250.318C64.6846 250.887 64.8059 251.391 65.0486 251.83C65.2912 252.259 65.6179 252.595 66.0286 252.838C66.4392 253.071 66.9012 253.188 67.4146 253.188ZM75.2103 254.084C75.8169 254.084 76.3629 253.991 76.8483 253.804C77.3429 253.617 77.7349 253.361 78.0243 253.034C78.3136 252.698 78.4583 252.311 78.4583 251.872C78.4583 251.312 78.2203 250.869 77.7443 250.542C77.2776 250.215 76.6243 250.052 75.7843 250.052L75.7423 250.318C76.2183 250.318 76.6429 250.243 77.0163 250.094C77.3896 249.945 77.6883 249.735 77.9123 249.464C78.1363 249.193 78.2483 248.876 78.2483 248.512C78.2483 248.101 78.1083 247.751 77.8283 247.462C77.5483 247.163 77.1703 246.935 76.6943 246.776C76.2276 246.617 75.7003 246.547 75.1123 246.566C74.6829 246.566 74.2536 246.627 73.8243 246.748C73.4043 246.86 72.9796 247.028 72.5503 247.252L72.8303 248.022C73.2129 247.826 73.6003 247.681 73.9923 247.588C74.3843 247.485 74.7623 247.429 75.1263 247.42C75.5276 247.42 75.8869 247.467 76.2043 247.56C76.5216 247.653 76.7689 247.793 76.9463 247.98C77.1329 248.167 77.2263 248.391 77.2263 248.652C77.2263 248.895 77.1469 249.105 76.9883 249.282C76.8389 249.459 76.6243 249.595 76.3443 249.688C76.0643 249.781 75.7423 249.828 75.3783 249.828H74.1883V250.556H75.4483C76.0643 250.556 76.5496 250.668 76.9043 250.892C77.2589 251.107 77.4363 251.41 77.4363 251.802C77.4363 252.073 77.3429 252.315 77.1563 252.53C76.9696 252.745 76.7083 252.913 76.3723 253.034C76.0363 253.155 75.6396 253.221 75.1823 253.23C74.7249 253.23 74.2629 253.165 73.7963 253.034C73.3296 252.894 72.9189 252.693 72.5643 252.432L72.2423 253.174C72.6436 253.482 73.1056 253.711 73.6283 253.86C74.1509 254.009 74.6783 254.084 75.2103 254.084ZM86.1048 254L83.0808 250.36L83.9068 249.87L87.2808 254H86.1048ZM80.7148 254V246.65H81.7088V254H80.7148ZM81.4008 250.724V249.87H83.7668V250.724H81.4008ZM83.9908 250.43L83.0668 250.29L85.9928 246.65H87.0708L83.9908 250.43ZM93.2768 254V252.376L93.2348 252.11V249.394C93.2348 248.769 93.0575 248.288 92.7028 247.952C92.3575 247.616 91.8395 247.448 91.1488 247.448C90.6728 247.448 90.2202 247.527 89.7908 247.686C89.3615 247.845 88.9975 248.055 88.6988 248.316L88.2508 247.574C88.6242 247.257 89.0722 247.014 89.5948 246.846C90.1175 246.669 90.6682 246.58 91.2468 246.58C92.1988 246.58 92.9315 246.818 93.4448 247.294C93.9675 247.761 94.2288 248.475 94.2288 249.436V254H93.2768ZM90.7428 254.07C90.1922 254.07 89.7115 253.981 89.3008 253.804C88.8995 253.617 88.5915 253.365 88.3768 253.048C88.1622 252.721 88.0548 252.348 88.0548 251.928C88.0548 251.545 88.1435 251.2 88.3208 250.892C88.5075 250.575 88.8062 250.323 89.2168 250.136C89.6368 249.94 90.1968 249.842 90.8968 249.842H93.4308V250.584H90.9248C90.2155 250.584 89.7208 250.71 89.4408 250.962C89.1702 251.214 89.0348 251.527 89.0348 251.9C89.0348 252.32 89.1982 252.656 89.5248 252.908C89.8515 253.16 90.3088 253.286 90.8968 253.286C91.4568 253.286 91.9375 253.16 92.3388 252.908C92.7495 252.647 93.0482 252.273 93.2348 251.788L93.4588 252.474C93.2722 252.959 92.9455 253.347 92.4788 253.636C92.0215 253.925 91.4428 254.07 90.7428 254.07ZM100.539 254V246.65H105.747V247.518H101.281L101.533 247.266V254H100.539ZM110.978 254.07C110.343 254.07 109.769 253.925 109.256 253.636C108.742 253.337 108.332 252.913 108.024 252.362C107.725 251.802 107.576 251.121 107.576 250.318C107.576 249.515 107.725 248.839 108.024 248.288C108.322 247.728 108.728 247.303 109.242 247.014C109.755 246.725 110.334 246.58 110.978 246.58C111.678 246.58 112.303 246.739 112.854 247.056C113.414 247.364 113.852 247.803 114.17 248.372C114.487 248.932 114.646 249.581 114.646 250.318C114.646 251.065 114.487 251.718 114.17 252.278C113.852 252.838 113.414 253.277 112.854 253.594C112.303 253.911 111.678 254.07 110.978 254.07ZM107.184 256.716V246.65H108.136V248.862L108.038 250.332L108.178 251.816V256.716H107.184ZM110.908 253.188C111.43 253.188 111.897 253.071 112.308 252.838C112.718 252.595 113.045 252.259 113.288 251.83C113.53 251.391 113.652 250.887 113.652 250.318C113.652 249.749 113.53 249.249 113.288 248.82C113.045 248.391 112.718 248.055 112.308 247.812C111.897 247.569 111.43 247.448 110.908 247.448C110.385 247.448 109.914 247.569 109.494 247.812C109.083 248.055 108.756 248.391 108.514 248.82C108.28 249.249 108.164 249.749 108.164 250.318C108.164 250.887 108.28 251.391 108.514 251.83C108.756 252.259 109.083 252.595 109.494 252.838C109.914 253.071 110.385 253.188 110.908 253.188ZM116.702 256.786C116.357 256.786 116.025 256.73 115.708 256.618C115.4 256.506 115.134 256.338 114.91 256.114L115.372 255.372C115.559 255.549 115.759 255.685 115.974 255.778C116.198 255.881 116.445 255.932 116.716 255.932C117.043 255.932 117.323 255.839 117.556 255.652C117.799 255.475 118.027 255.157 118.242 254.7L118.718 253.622L118.83 253.468L121.854 246.65H122.834L119.152 254.882C118.947 255.358 118.718 255.736 118.466 256.016C118.223 256.296 117.957 256.492 117.668 256.604C117.379 256.725 117.057 256.786 116.702 256.786ZM118.662 254.21L115.274 246.65H116.31L119.306 253.398L118.662 254.21ZM126.165 254.084C126.772 254.084 127.318 253.991 127.803 253.804C128.298 253.617 128.69 253.361 128.979 253.034C129.269 252.698 129.413 252.311 129.413 251.872C129.413 251.312 129.175 250.869 128.699 250.542C128.233 250.215 127.579 250.052 126.739 250.052L126.697 250.318C127.173 250.318 127.598 250.243 127.971 250.094C128.345 249.945 128.643 249.735 128.867 249.464C129.091 249.193 129.203 248.876 129.203 248.512C129.203 248.101 129.063 247.751 128.783 247.462C128.503 247.163 128.125 246.935 127.649 246.776C127.183 246.617 126.655 246.547 126.067 246.566C125.638 246.566 125.209 246.627 124.779 246.748C124.359 246.86 123.935 247.028 123.505 247.252L123.785 248.022C124.168 247.826 124.555 247.681 124.947 247.588C125.339 247.485 125.717 247.429 126.081 247.42C126.483 247.42 126.842 247.467 127.159 247.56C127.477 247.653 127.724 247.793 127.901 247.98C128.088 248.167 128.181 248.391 128.181 248.652C128.181 248.895 128.102 249.105 127.943 249.282C127.794 249.459 127.579 249.595 127.299 249.688C127.019 249.781 126.697 249.828 126.333 249.828H125.143V250.556H126.403C127.019 250.556 127.505 250.668 127.859 250.892C128.214 251.107 128.391 251.41 128.391 251.802C128.391 252.073 128.298 252.315 128.111 252.53C127.925 252.745 127.663 252.913 127.327 253.034C126.991 253.155 126.595 253.221 126.137 253.23C125.68 253.23 125.218 253.165 124.751 253.034C124.285 252.894 123.874 252.693 123.519 252.432L123.197 253.174C123.599 253.482 124.061 253.711 124.583 253.86C125.106 254.009 125.633 254.084 126.165 254.084ZM134.694 254.07C133.985 254.07 133.345 253.911 132.776 253.594C132.216 253.267 131.773 252.824 131.446 252.264C131.119 251.695 130.956 251.046 130.956 250.318C130.956 249.581 131.119 248.932 131.446 248.372C131.773 247.812 132.216 247.373 132.776 247.056C133.336 246.739 133.975 246.58 134.694 246.58C135.422 246.58 136.066 246.739 136.626 247.056C137.195 247.373 137.639 247.812 137.956 248.372C138.283 248.932 138.446 249.581 138.446 250.318C138.446 251.046 138.283 251.695 137.956 252.264C137.639 252.824 137.195 253.267 136.626 253.594C136.057 253.911 135.413 254.07 134.694 254.07ZM134.694 253.188C135.226 253.188 135.697 253.071 136.108 252.838C136.519 252.595 136.841 252.259 137.074 251.83C137.317 251.391 137.438 250.887 137.438 250.318C137.438 249.739 137.317 249.235 137.074 248.806C136.841 248.377 136.519 248.045 136.108 247.812C135.697 247.569 135.231 247.448 134.708 247.448C134.185 247.448 133.719 247.569 133.308 247.812C132.897 248.045 132.571 248.377 132.328 248.806C132.085 249.235 131.964 249.739 131.964 250.318C131.964 250.887 132.085 251.391 132.328 251.83C132.571 252.259 132.897 252.595 133.308 252.838C133.719 253.071 134.181 253.188 134.694 253.188ZM140.57 254V246.65H143.818C144.649 246.65 145.302 246.809 145.778 247.126C146.264 247.443 146.506 247.91 146.506 248.526C146.506 249.123 146.278 249.585 145.82 249.912C145.363 250.229 144.761 250.388 144.014 250.388L144.21 250.094C145.088 250.094 145.732 250.257 146.142 250.584C146.553 250.911 146.758 251.382 146.758 251.998C146.758 252.633 146.525 253.127 146.058 253.482C145.601 253.827 144.887 254 143.916 254H140.57ZM141.536 253.216H143.874C144.5 253.216 144.971 253.118 145.288 252.922C145.615 252.717 145.778 252.39 145.778 251.942C145.778 251.494 145.634 251.167 145.344 250.962C145.055 250.757 144.598 250.654 143.972 250.654H141.536V253.216ZM141.536 249.912H143.748C144.318 249.912 144.752 249.805 145.05 249.59C145.358 249.375 145.512 249.063 145.512 248.652C145.512 248.241 145.358 247.933 145.05 247.728C144.752 247.523 144.318 247.42 143.748 247.42H141.536V249.912Z" fill="#49494F"></path> <rect x="0.5" y="0.5" width="269" height="281" rx="15.5" stroke="#E2E4E7"></rect> <defs> <linearGradient id="paint0_linear_0_13" x1="19" y1="26.5" x2="36" y2="64" gradientUnits="userSpaceOnUse"> <stop stop-color="#161617"></stop> <stop offset="1" stop-color="#212122"></stop> </linearGradient> </defs> </svg> 