<?xml version="1.0" encoding="UTF-8"?> <svg xmlns="http://www.w3.org/2000/svg" width="270" height="282" viewBox="0 0 270 282" fill="none"> <rect x="0.5" y="0.5" width="269" height="281" rx="15.5" fill="white"></rect> <rect x="16" y="24" width="40" height="40" rx="8" fill="url(#paint0_linear_2152_2595)"></rect> <path fill-rule="evenodd" clip-rule="evenodd" d="M33 54H25V50H33V54ZM32.5 50.5H25.5V53.5H32.5V50.5Z" fill="#FAFAFA"></path> <path fill-rule="evenodd" clip-rule="evenodd" d="M33 46H25V42H33V46ZM32.5 42.5H25.5V45.5H32.5V42.5Z" fill="#FAFAFA"></path> <path fill-rule="evenodd" clip-rule="evenodd" d="M41 54H33V50H41V54ZM40.5 50.5H33.5V53.5H40.5V50.5Z" fill="#FAFAFA"></path> <path fill-rule="evenodd" clip-rule="evenodd" d="M41 46H33V42H41V46ZM40.5 42.5H33.5V45.5H40.5V42.5Z" fill="#FAFAFA"></path> <path fill-rule="evenodd" clip-rule="evenodd" d="M49 54H41V50H49V54ZM48.5 50.5H41.5V53.5H48.5V50.5Z" fill="#FAFAFA"></path> <path fill-rule="evenodd" clip-rule="evenodd" d="M49 46H41V42H49V46ZM48.5 42.5H41.5V45.5H48.5V42.5Z" fill="#FAFAFA"></path> <path fill-rule="evenodd" clip-rule="evenodd" d="M45 42H37V38H45V42ZM44.5 38.5H37.5V41.5H44.5V38.5Z" fill="#FAFAFA"></path> <path fill-rule="evenodd" clip-rule="evenodd" d="M37 42H29V38H37V42ZM36.5 38.5H29.5V41.5H36.5V38.5Z" fill="#FAFAFA"></path> <path fill-rule="evenodd" clip-rule="evenodd" d="M42 38H34V34H42V38ZM41.5 34.5H34.5V37.5H41.5V34.5Z" fill="#FAFAFA"></path> <path fill-rule="evenodd" clip-rule="evenodd" d="M52 50H44V46H52V50ZM51.5 46.5H44.5V49.5H51.5V46.5Z" fill="#FAFAFA"></path> <path fill-rule="evenodd" clip-rule="evenodd" d="M44 50H36V46H44V50ZM43.5 46.5H36.5V49.5H43.5V46.5Z" fill="#FAFAFA"></path> <path fill-rule="evenodd" clip-rule="evenodd" d="M36 50H28V46H36V50ZM35.5 46.5H28.5V49.5H35.5V46.5Z" fill="#FAFAFA"></path> <path fill-rule="evenodd" clip-rule="evenodd" d="M28 50H20V46H28V50ZM27.5 46.5H20.5V49.5H27.5V46.5Z" fill="#FAFAFA"></path> <path fill-rule="evenodd" clip-rule="evenodd" d="M36.9492 37.9502H41.9992V38.0502H37.0492V42.0502H33.0492V46.0502H28.0492V49.9502H33.0492V54.0002H32.9492V50.0502H27.9492V45.9502H32.9492V41.9502H36.9492V37.9502Z" fill="#161617"></path> <path fill-rule="evenodd" clip-rule="evenodd" d="M37 41.9502H41.05V45.9502H44.05V50.0502H41.05V54.0002H40.95V49.9502H43.95V46.0502H40.95V42.0502H37V41.9502Z" fill="#161617"></path> <path fill-rule="evenodd" clip-rule="evenodd" d="M37 38.0502H34V37.9502H37V38.0502ZM45 41.9502V42.0502H29V41.9502H45ZM25 50.0502V49.9502H49V50.0502H25Z" fill="#161617"></path> <path fill-rule="evenodd" clip-rule="evenodd" d="M48.9397 46.0502H25V45.9502H48.9397V46.0502Z" fill="#161617"></path> <path d="M135.526 49V39.2H139.74C140.804 39.2 141.639 39.4147 142.246 39.844C142.853 40.2733 143.156 40.8987 143.156 41.72C143.156 42.5227 142.867 43.1387 142.288 43.568C141.709 43.988 140.949 44.198 140.006 44.198L140.258 43.778C141.35 43.778 142.185 43.9973 142.764 44.436C143.352 44.8653 143.646 45.4953 143.646 46.326C143.646 47.166 143.338 47.824 142.722 48.3C142.115 48.7667 141.21 49 140.006 49H135.526ZM136.912 47.894H139.978C140.725 47.894 141.285 47.7587 141.658 47.488C142.041 47.208 142.232 46.7833 142.232 46.214C142.232 45.6447 142.041 45.2293 141.658 44.968C141.285 44.7067 140.725 44.576 139.978 44.576H136.912V47.894ZM136.912 43.512H139.642C140.323 43.512 140.841 43.3767 141.196 43.106C141.56 42.8353 141.742 42.4387 141.742 41.916C141.742 41.384 141.56 40.9827 141.196 40.712C140.841 40.4413 140.323 40.306 139.642 40.306H136.912V43.512ZM153.097 49V41.58H154.441V49H153.097ZM149.107 44.1C150.05 44.1093 150.764 44.324 151.249 44.744C151.744 45.164 151.991 45.7567 151.991 46.522C151.991 47.3247 151.72 47.9453 151.179 48.384C150.647 48.8133 149.882 49.0233 148.883 49.014L145.761 49V41.58H147.105V44.086L149.107 44.1ZM148.785 47.992C149.382 48.0013 149.84 47.88 150.157 47.628C150.474 47.376 150.633 47.0027 150.633 46.508C150.633 46.0227 150.474 45.668 150.157 45.444C149.849 45.22 149.392 45.1033 148.785 45.094L147.105 45.066V47.978L148.785 47.992ZM162.122 48.37V42.756H158.902L158.832 44.184C158.813 44.6507 158.781 45.1033 158.734 45.542C158.697 45.9713 158.631 46.368 158.538 46.732C158.454 47.096 158.328 47.3947 158.16 47.628C157.992 47.8613 157.768 48.006 157.488 48.062L156.158 47.824C156.447 47.8333 156.681 47.74 156.858 47.544C157.035 47.3387 157.171 47.0587 157.264 46.704C157.367 46.3493 157.441 45.948 157.488 45.5C157.535 45.0427 157.572 44.5713 157.6 44.086L157.712 41.58H163.466V48.37H162.122ZM155.864 50.722V47.824H164.6V50.722H163.34V49H157.138V50.722H155.864ZM170.901 49V47.432L170.831 47.138V44.464C170.831 43.8947 170.663 43.456 170.327 43.148C170 42.8307 169.505 42.672 168.843 42.672C168.404 42.672 167.975 42.7467 167.555 42.896C167.135 43.036 166.78 43.2273 166.491 43.47L165.931 42.462C166.313 42.154 166.771 41.9207 167.303 41.762C167.844 41.594 168.409 41.51 168.997 41.51C170.014 41.51 170.798 41.7573 171.349 42.252C171.899 42.7467 172.175 43.5027 172.175 44.52V49H170.901ZM168.465 49.084C167.914 49.084 167.429 48.9907 167.009 48.804C166.598 48.6173 166.281 48.3607 166.057 48.034C165.833 47.698 165.721 47.32 165.721 46.9C165.721 46.4987 165.814 46.1347 166.001 45.808C166.197 45.4813 166.509 45.22 166.939 45.024C167.377 44.828 167.965 44.73 168.703 44.73H171.055V45.696H168.759C168.087 45.696 167.634 45.808 167.401 46.032C167.167 46.256 167.051 46.5267 167.051 46.844C167.051 47.208 167.195 47.502 167.485 47.726C167.774 47.9407 168.175 48.048 168.689 48.048C169.193 48.048 169.631 47.936 170.005 47.712C170.387 47.488 170.663 47.1613 170.831 46.732L171.097 47.656C170.919 48.0947 170.607 48.4447 170.159 48.706C169.711 48.958 169.146 49.084 168.465 49.084ZM174.595 49V41.58H175.939V44.73H180.167V41.58H181.511V49H180.167V45.892H175.939V49H174.595ZM188.906 49V39.76L189.508 40.418H186.694V39.2H190.292V49H188.906ZM195.6 49.112C194.909 49.112 194.237 49.0047 193.584 48.79C192.94 48.5753 192.412 48.286 192.002 47.922L192.646 46.816C192.972 47.124 193.397 47.376 193.92 47.572C194.442 47.768 194.998 47.866 195.586 47.866C196.332 47.866 196.906 47.7073 197.308 47.39C197.709 47.0727 197.91 46.648 197.91 46.116C197.91 45.752 197.821 45.4347 197.644 45.164C197.466 44.8933 197.158 44.688 196.72 44.548C196.29 44.3987 195.698 44.324 194.942 44.324H192.716L193.234 39.2H198.764V40.418H193.752L194.48 39.732L194.074 43.778L193.346 43.106H195.236C196.216 43.106 197.004 43.232 197.602 43.484C198.199 43.736 198.633 44.086 198.904 44.534C199.174 44.9727 199.31 45.4813 199.31 46.06C199.31 46.62 199.174 47.1333 198.904 47.6C198.633 48.0573 198.222 48.426 197.672 48.706C197.13 48.9767 196.44 49.112 195.6 49.112ZM201.399 49.084C201.137 49.084 200.913 48.9953 200.727 48.818C200.54 48.6313 200.447 48.398 200.447 48.118C200.447 47.838 200.54 47.6093 200.727 47.432C200.913 47.2547 201.137 47.166 201.399 47.166C201.651 47.166 201.865 47.2547 202.043 47.432C202.229 47.6093 202.323 47.838 202.323 48.118C202.323 48.398 202.229 48.6313 202.043 48.818C201.865 48.9953 201.651 49.084 201.399 49.084ZM205.121 49V39.76L205.723 40.418H202.909V39.2H206.507V49H205.121ZM212.655 49.112C211.889 49.112 211.203 48.916 210.597 48.524C209.999 48.132 209.523 47.5627 209.169 46.816C208.823 46.0693 208.651 45.164 208.651 44.1C208.651 43.036 208.823 42.1307 209.169 41.384C209.523 40.6373 209.999 40.068 210.597 39.676C211.203 39.284 211.889 39.088 212.655 39.088C213.411 39.088 214.092 39.284 214.699 39.676C215.305 40.068 215.781 40.6373 216.127 41.384C216.472 42.1307 216.645 43.036 216.645 44.1C216.645 45.164 216.472 46.0693 216.127 46.816C215.781 47.5627 215.305 48.132 214.699 48.524C214.092 48.916 213.411 49.112 212.655 49.112ZM212.655 47.866C213.168 47.866 213.616 47.726 213.999 47.446C214.391 47.166 214.694 46.746 214.909 46.186C215.133 45.626 215.245 44.9307 215.245 44.1C215.245 43.2693 215.133 42.574 214.909 42.014C214.694 41.454 214.391 41.034 213.999 40.754C213.616 40.474 213.168 40.334 212.655 40.334C212.141 40.334 211.689 40.474 211.297 40.754C210.905 41.034 210.597 41.454 210.373 42.014C210.158 42.574 210.051 43.2693 210.051 44.1C210.051 44.9307 210.158 45.626 210.373 46.186C210.597 46.746 210.905 47.166 211.297 47.446C211.689 47.726 212.141 47.866 212.655 47.866ZM218.748 49.084C218.487 49.084 218.263 48.9953 218.076 48.818C217.89 48.6313 217.796 48.398 217.796 48.118C217.796 47.838 217.89 47.6093 218.076 47.432C218.263 47.2547 218.487 47.166 218.748 47.166C219 47.166 219.215 47.2547 219.392 47.432C219.579 47.6093 219.672 47.838 219.672 48.118C219.672 48.398 219.579 48.6313 219.392 48.818C219.215 48.9953 219 49.084 218.748 49.084ZM220.979 49V48.048L224.969 44.198C225.324 43.862 225.585 43.568 225.753 43.316C225.93 43.0547 226.047 42.8167 226.103 42.602C226.168 42.378 226.201 42.1633 226.201 41.958C226.201 41.454 226.024 41.0573 225.669 40.768C225.314 40.4787 224.796 40.334 224.115 40.334C223.592 40.334 223.121 40.4227 222.701 40.6C222.281 40.768 221.917 41.034 221.609 41.398L220.657 40.572C221.03 40.096 221.53 39.732 222.155 39.48C222.79 39.2187 223.485 39.088 224.241 39.088C224.922 39.088 225.515 39.2 226.019 39.424C226.523 39.6387 226.91 39.9513 227.181 40.362C227.461 40.7727 227.601 41.258 227.601 41.818C227.601 42.1353 227.559 42.448 227.475 42.756C227.391 43.064 227.232 43.3907 226.999 43.736C226.766 44.0813 226.43 44.4687 225.991 44.898L222.435 48.328L222.099 47.782H228.021V49H220.979ZM233.162 49.112C232.397 49.112 231.711 48.916 231.104 48.524C230.507 48.132 230.031 47.5627 229.676 46.816C229.331 46.0693 229.158 45.164 229.158 44.1C229.158 43.036 229.331 42.1307 229.676 41.384C230.031 40.6373 230.507 40.068 231.104 39.676C231.711 39.284 232.397 39.088 233.162 39.088C233.918 39.088 234.6 39.284 235.206 39.676C235.813 40.068 236.289 40.6373 236.634 41.384C236.98 42.1307 237.152 43.036 237.152 44.1C237.152 45.164 236.98 46.0693 236.634 46.816C236.289 47.5627 235.813 48.132 235.206 48.524C234.6 48.916 233.918 49.112 233.162 49.112ZM233.162 47.866C233.676 47.866 234.124 47.726 234.506 47.446C234.898 47.166 235.202 46.746 235.416 46.186C235.64 45.626 235.752 44.9307 235.752 44.1C235.752 43.2693 235.64 42.574 235.416 42.014C235.202 41.454 234.898 41.034 234.506 40.754C234.124 40.474 233.676 40.334 233.162 40.334C232.649 40.334 232.196 40.474 231.804 40.754C231.412 41.034 231.104 41.454 230.88 42.014C230.666 42.574 230.558 43.2693 230.558 44.1C230.558 44.9307 230.666 45.626 230.88 46.186C231.104 46.746 231.412 47.166 231.804 47.446C232.196 47.726 232.649 47.866 233.162 47.866ZM238.342 49V48.048L242.332 44.198C242.687 43.862 242.948 43.568 243.116 43.316C243.294 43.0547 243.41 42.8167 243.466 42.602C243.532 42.378 243.564 42.1633 243.564 41.958C243.564 41.454 243.387 41.0573 243.032 40.768C242.678 40.4787 242.16 40.334 241.478 40.334C240.956 40.334 240.484 40.4227 240.064 40.6C239.644 40.768 239.28 41.034 238.972 41.398L238.02 40.572C238.394 40.096 238.893 39.732 239.518 39.48C240.153 39.2187 240.848 39.088 241.604 39.088C242.286 39.088 242.878 39.2 243.382 39.424C243.886 39.6387 244.274 39.9513 244.544 40.362C244.824 40.7727 244.964 41.258 244.964 41.818C244.964 42.1353 244.922 42.448 244.838 42.756C244.754 43.064 244.596 43.3907 244.362 43.736C244.129 44.0813 243.793 44.4687 243.354 44.898L239.798 48.328L239.462 47.782H245.384V49H238.342ZM246.381 49V48.048L250.371 44.198C250.726 43.862 250.987 43.568 251.155 43.316C251.333 43.0547 251.449 42.8167 251.505 42.602C251.571 42.378 251.603 42.1633 251.603 41.958C251.603 41.454 251.426 41.0573 251.071 40.768C250.717 40.4787 250.199 40.334 249.517 40.334C248.995 40.334 248.523 40.4227 248.103 40.6C247.683 40.768 247.319 41.034 247.011 41.398L246.059 40.572C246.433 40.096 246.932 39.732 247.557 39.48C248.192 39.2187 248.887 39.088 249.643 39.088C250.325 39.088 250.917 39.2 251.421 39.424C251.925 39.6387 252.313 39.9513 252.583 40.362C252.863 40.7727 253.003 41.258 253.003 41.818C253.003 42.1353 252.961 42.448 252.877 42.756C252.793 43.064 252.635 43.3907 252.401 43.736C252.168 44.0813 251.832 44.4687 251.393 44.898L247.837 48.328L247.501 47.782H253.423V49H246.381Z" fill="#49494F"></path> <path d="M20.056 121L27.184 105.208L27.808 106.288H17.824L19.024 105.112V109.288H16.72V104.2H29.392V105.832L22.6 121H20.056ZM40.7731 121V105.16L41.8051 106.288H36.9811V104.2H43.1491V121H40.7731ZM52.2479 121.192C51.0639 121.192 49.9119 121.008 48.7919 120.64C47.6879 120.272 46.7839 119.776 46.0799 119.152L47.1839 117.256C47.7439 117.784 48.4719 118.216 49.3679 118.552C50.2639 118.888 51.2159 119.056 52.2239 119.056C53.5039 119.056 54.4879 118.784 55.1759 118.24C55.8639 117.696 56.2079 116.968 56.2079 116.056C56.2079 115.432 56.0559 114.888 55.7519 114.424C55.4479 113.96 54.9199 113.608 54.1679 113.368C53.4319 113.112 52.4159 112.984 51.1199 112.984H47.3039L48.1919 104.2H57.6719V106.288H49.0799L50.3279 105.112L49.6319 112.048L48.3839 110.896H51.6239C53.3039 110.896 54.6559 111.112 55.6799 111.544C56.7039 111.976 57.4479 112.576 57.9119 113.344C58.3759 114.096 58.6079 114.968 58.6079 115.96C58.6079 116.92 58.3759 117.8 57.9119 118.6C57.4479 119.384 56.7439 120.016 55.7999 120.496C54.8719 120.96 53.6879 121.192 52.2479 121.192ZM66.0531 104.008C67.5731 104.008 68.8531 104.336 69.8931 104.992C70.9491 105.648 71.7491 106.6 72.2931 107.848C72.8371 109.08 73.1091 110.592 73.1091 112.384C73.1091 114.288 72.7731 115.896 72.1011 117.208C71.4291 118.52 70.5011 119.512 69.3171 120.184C68.1331 120.856 66.7491 121.192 65.1651 121.192C64.3811 121.192 63.6211 121.112 62.8851 120.952C62.1651 120.792 61.5331 120.544 60.9891 120.208L61.9011 118.336C62.3491 118.624 62.8451 118.832 63.3891 118.96C63.9491 119.072 64.5331 119.128 65.1411 119.128C66.8371 119.128 68.1891 118.6 69.1971 117.544C70.2051 116.472 70.7091 114.888 70.7091 112.792C70.7091 112.456 70.6931 112.056 70.6611 111.592C70.6291 111.128 70.5571 110.672 70.4451 110.224L71.2371 111.04C71.0131 111.776 70.6371 112.4 70.1091 112.912C69.5971 113.408 68.9731 113.784 68.2371 114.04C67.5171 114.28 66.7251 114.4 65.8611 114.4C64.7571 114.4 63.7731 114.192 62.9091 113.776C62.0451 113.36 61.3651 112.776 60.8691 112.024C60.3731 111.256 60.1251 110.352 60.1251 109.312C60.1251 108.224 60.3811 107.288 60.8931 106.504C61.4211 105.704 62.1331 105.088 63.0291 104.656C63.9411 104.224 64.9491 104.008 66.0531 104.008ZM66.1491 105.952C65.4291 105.952 64.7891 106.088 64.2291 106.36C63.6691 106.632 63.2291 107.008 62.9091 107.488C62.6051 107.968 62.4531 108.544 62.4531 109.216C62.4531 110.208 62.7971 111 63.4851 111.592C64.1731 112.168 65.1011 112.456 66.2691 112.456C67.0371 112.456 67.7091 112.312 68.2851 112.024C68.8771 111.736 69.3331 111.344 69.6531 110.848C69.9891 110.352 70.1571 109.8 70.1571 109.192C70.1571 108.6 70.0051 108.064 69.7011 107.584C69.3971 107.104 68.9491 106.712 68.3571 106.408C67.7651 106.104 67.0291 105.952 66.1491 105.952ZM88.9189 121.192C87.4309 121.192 86.1589 120.864 85.1029 120.208C84.0469 119.552 83.2389 118.608 82.6789 117.376C82.1349 116.128 81.8629 114.608 81.8629 112.816C81.8629 110.912 82.1989 109.304 82.8709 107.992C83.5429 106.68 84.4789 105.688 85.6789 105.016C86.8789 104.344 88.2549 104.008 89.8069 104.008C90.6069 104.008 91.3669 104.088 92.0869 104.248C92.8229 104.408 93.4549 104.656 93.9829 104.992L93.0709 106.864C92.6389 106.56 92.1429 106.352 91.5829 106.24C91.0389 106.128 90.4629 106.072 89.8549 106.072C88.1429 106.072 86.7829 106.608 85.7749 107.68C84.7669 108.736 84.2629 110.312 84.2629 112.408C84.2629 112.744 84.2789 113.144 84.3109 113.608C84.3429 114.072 84.4229 114.528 84.5509 114.976L83.7349 114.16C83.9749 113.424 84.3509 112.808 84.8629 112.312C85.3909 111.8 86.0149 111.424 86.7349 111.184C87.4709 110.928 88.2629 110.8 89.1109 110.8C90.2309 110.8 91.2229 111.008 92.0869 111.424C92.9509 111.84 93.6309 112.432 94.1269 113.2C94.6229 113.952 94.8709 114.848 94.8709 115.888C94.8709 116.96 94.6069 117.896 94.0789 118.696C93.5509 119.496 92.8389 120.112 91.9429 120.544C91.0469 120.976 90.0389 121.192 88.9189 121.192ZM88.8229 119.248C89.5589 119.248 90.1989 119.112 90.7429 118.84C91.3029 118.568 91.7429 118.192 92.0629 117.712C92.3829 117.216 92.5429 116.64 92.5429 115.984C92.5429 114.992 92.1989 114.208 91.5109 113.632C90.8229 113.04 89.8869 112.744 88.7029 112.744C87.9349 112.744 87.2629 112.888 86.6869 113.176C86.1109 113.464 85.6549 113.856 85.3189 114.352C84.9989 114.832 84.8389 115.384 84.8389 116.008C84.8389 116.584 84.9909 117.12 85.2949 117.616C85.5989 118.096 86.0469 118.488 86.6389 118.792C87.2309 119.096 87.9589 119.248 88.8229 119.248ZM103.227 121.192C101.867 121.192 100.691 120.992 99.6994 120.592C98.7074 120.192 97.9394 119.624 97.3954 118.888C96.8514 118.136 96.5794 117.256 96.5794 116.248C96.5794 115.256 96.8354 114.416 97.3474 113.728C97.8754 113.024 98.6354 112.496 99.6274 112.144C100.619 111.776 101.819 111.592 103.227 111.592C104.635 111.592 105.835 111.776 106.827 112.144C107.835 112.496 108.603 113.024 109.131 113.728C109.659 114.432 109.923 115.272 109.923 116.248C109.923 117.256 109.651 118.136 109.107 118.888C108.563 119.624 107.787 120.192 106.779 120.592C105.771 120.992 104.587 121.192 103.227 121.192ZM103.227 119.248C104.571 119.248 105.619 118.976 106.371 118.432C107.139 117.872 107.523 117.12 107.523 116.176C107.523 115.248 107.139 114.52 106.371 113.992C105.619 113.448 104.571 113.176 103.227 113.176C101.899 113.176 100.859 113.448 100.107 113.992C99.3554 114.52 98.9794 115.248 98.9794 116.176C98.9794 117.12 99.3554 117.872 100.107 118.432C100.859 118.976 101.899 119.248 103.227 119.248ZM103.227 112.888C101.947 112.888 100.859 112.72 99.9634 112.384C99.0674 112.032 98.3794 111.536 97.8994 110.896C97.4194 110.24 97.1794 109.464 97.1794 108.568C97.1794 107.624 97.4274 106.816 97.9234 106.144C98.4354 105.456 99.1474 104.928 100.059 104.56C100.971 104.192 102.027 104.008 103.227 104.008C104.443 104.008 105.507 104.192 106.419 104.56C107.331 104.928 108.043 105.456 108.555 106.144C109.067 106.816 109.323 107.624 109.323 108.568C109.323 109.464 109.083 110.24 108.603 110.896C108.123 111.536 107.427 112.032 106.515 112.384C105.603 112.72 104.507 112.888 103.227 112.888ZM103.227 111.352C104.395 111.352 105.307 111.112 105.963 110.632C106.635 110.152 106.971 109.496 106.971 108.664C106.971 107.816 106.627 107.152 105.939 106.672C105.251 106.192 104.347 105.952 103.227 105.952C102.107 105.952 101.211 106.192 100.539 106.672C99.8834 107.152 99.5554 107.816 99.5554 108.664C99.5554 109.496 99.8754 110.152 100.515 110.632C101.171 111.112 102.075 111.352 103.227 111.352ZM111.857 121V119.368L118.697 112.768C119.305 112.192 119.753 111.688 120.041 111.256C120.345 110.808 120.545 110.4 120.641 110.032C120.753 109.648 120.809 109.28 120.809 108.928C120.809 108.064 120.505 107.384 119.897 106.888C119.289 106.392 118.401 106.144 117.233 106.144C116.337 106.144 115.529 106.296 114.809 106.6C114.089 106.888 113.465 107.344 112.937 107.968L111.305 106.552C111.945 105.736 112.801 105.112 113.873 104.68C114.961 104.232 116.153 104.008 117.449 104.008C118.617 104.008 119.633 104.2 120.497 104.584C121.361 104.952 122.025 105.488 122.489 106.192C122.969 106.896 123.209 107.728 123.209 108.688C123.209 109.232 123.137 109.768 122.993 110.296C122.849 110.824 122.577 111.384 122.177 111.976C121.777 112.568 121.201 113.232 120.449 113.968L114.353 119.848L113.777 118.912H123.929V121H111.857ZM127.918 121V104.2H134.518C136.678 104.2 138.382 104.68 139.63 105.64C140.878 106.584 141.502 107.968 141.502 109.792C141.502 111.616 140.878 113.008 139.63 113.968C138.382 114.928 136.678 115.408 134.518 115.408H129.262L130.342 114.28V121H127.918ZM130.342 114.52L129.262 113.416H134.518C135.99 113.416 137.118 113.104 137.902 112.48C138.686 111.856 139.078 110.968 139.078 109.816C139.078 108.68 138.686 107.808 137.902 107.2C137.118 106.592 135.99 106.288 134.518 106.288H129.262L130.342 105.088V114.52ZM125.47 118.192V116.824H135.67V118.192H125.47Z" fill="#161617"></path> <path d="M221.592 114V112.912L226.152 108.512C226.557 108.128 226.856 107.792 227.048 107.504C227.251 107.205 227.384 106.933 227.448 106.688C227.523 106.432 227.56 106.187 227.56 105.952C227.56 105.376 227.357 104.923 226.952 104.592C226.547 104.261 225.955 104.096 225.176 104.096C224.579 104.096 224.04 104.197 223.56 104.4C223.08 104.592 222.664 104.896 222.312 105.312L221.224 104.368C221.651 103.824 222.221 103.408 222.936 103.12C223.661 102.821 224.456 102.672 225.32 102.672C226.099 102.672 226.776 102.8 227.352 103.056C227.928 103.301 228.371 103.659 228.68 104.128C229 104.597 229.16 105.152 229.16 105.792C229.16 106.155 229.112 106.512 229.016 106.864C228.92 107.216 228.739 107.589 228.472 107.984C228.205 108.379 227.821 108.821 227.32 109.312L223.256 113.232L222.872 112.608H229.64V114H221.592ZM235.644 114.128C234.652 114.128 233.804 113.909 233.1 113.472C232.396 113.035 231.857 112.405 231.484 111.584C231.121 110.752 230.94 109.739 230.94 108.544C230.94 107.275 231.164 106.203 231.612 105.328C232.06 104.453 232.684 103.792 233.484 103.344C234.284 102.896 235.201 102.672 236.236 102.672C236.769 102.672 237.276 102.725 237.756 102.832C238.247 102.939 238.668 103.104 239.02 103.328L238.412 104.576C238.124 104.373 237.793 104.235 237.42 104.16C237.057 104.085 236.673 104.048 236.268 104.048C235.127 104.048 234.22 104.405 233.548 105.12C232.876 105.824 232.54 106.875 232.54 108.272C232.54 108.496 232.551 108.763 232.572 109.072C232.593 109.381 232.647 109.685 232.732 109.984L232.188 109.44C232.348 108.949 232.599 108.539 232.94 108.208C233.292 107.867 233.708 107.616 234.188 107.456C234.679 107.285 235.207 107.2 235.772 107.2C236.519 107.2 237.18 107.339 237.756 107.616C238.332 107.893 238.785 108.288 239.116 108.8C239.447 109.301 239.612 109.899 239.612 110.592C239.612 111.307 239.436 111.931 239.084 112.464C238.732 112.997 238.257 113.408 237.66 113.696C237.063 113.984 236.391 114.128 235.644 114.128ZM235.58 112.832C236.071 112.832 236.497 112.741 236.86 112.56C237.233 112.379 237.527 112.128 237.74 111.808C237.953 111.477 238.06 111.093 238.06 110.656C238.06 109.995 237.831 109.472 237.372 109.088C236.913 108.693 236.289 108.496 235.5 108.496C234.988 108.496 234.54 108.592 234.156 108.784C233.772 108.976 233.468 109.237 233.244 109.568C233.031 109.888 232.924 110.256 232.924 110.672C232.924 111.056 233.025 111.413 233.228 111.744C233.431 112.064 233.729 112.325 234.124 112.528C234.519 112.731 235.004 112.832 235.58 112.832ZM242.038 114L249.686 102.8H250.918L243.27 114H242.038ZM242.934 108.816C242.422 108.816 241.969 108.688 241.574 108.432C241.18 108.176 240.87 107.819 240.646 107.36C240.433 106.901 240.326 106.368 240.326 105.76C240.326 105.152 240.433 104.619 240.646 104.16C240.87 103.701 241.18 103.344 241.574 103.088C241.969 102.832 242.422 102.704 242.934 102.704C243.457 102.704 243.91 102.832 244.294 103.088C244.689 103.344 244.993 103.701 245.206 104.16C245.42 104.619 245.526 105.152 245.526 105.76C245.526 106.368 245.42 106.901 245.206 107.36C244.993 107.819 244.689 108.176 244.294 108.432C243.91 108.688 243.457 108.816 242.934 108.816ZM242.934 107.904C243.425 107.904 243.809 107.717 244.086 107.344C244.364 106.96 244.502 106.432 244.502 105.76C244.502 105.088 244.364 104.565 244.086 104.192C243.809 103.808 243.425 103.616 242.934 103.616C242.454 103.616 242.07 103.808 241.782 104.192C241.505 104.565 241.366 105.088 241.366 105.76C241.366 106.421 241.505 106.944 241.782 107.328C242.07 107.712 242.454 107.904 242.934 107.904ZM250.022 114.096C249.51 114.096 249.057 113.968 248.662 113.712C248.268 113.456 247.964 113.099 247.75 112.64C247.537 112.181 247.43 111.648 247.43 111.04C247.43 110.432 247.537 109.899 247.75 109.44C247.964 108.981 248.268 108.624 248.662 108.368C249.057 108.112 249.51 107.984 250.022 107.984C250.545 107.984 250.998 108.112 251.382 108.368C251.777 108.624 252.081 108.981 252.294 109.44C252.518 109.899 252.63 110.432 252.63 111.04C252.63 111.648 252.518 112.181 252.294 112.64C252.081 113.099 251.777 113.456 251.382 113.712C250.998 113.968 250.545 114.096 250.022 114.096ZM250.022 113.184C250.502 113.184 250.881 112.997 251.158 112.624C251.446 112.24 251.59 111.712 251.59 111.04C251.59 110.379 251.446 109.856 251.158 109.472C250.881 109.088 250.502 108.896 250.022 108.896C249.542 108.896 249.158 109.088 248.87 109.472C248.593 109.845 248.454 110.368 248.454 111.04C248.454 111.712 248.593 112.24 248.87 112.624C249.158 112.997 249.542 113.184 250.022 113.184Z" fill="#2CCC39"></path> <path d="M254 143H16V145H254V143Z" fill="#DDDDDD" mask="url(#path-21-inside-1_2152_2595)"></path> <path d="M22.8 178.096C21.9573 178.096 21.1733 177.957 20.448 177.68C19.7333 177.392 19.1093 176.992 18.576 176.48C18.0533 175.957 17.6427 175.355 17.344 174.672C17.056 173.979 16.912 173.221 16.912 172.4C16.912 171.579 17.056 170.827 17.344 170.144C17.6427 169.451 18.0533 168.848 18.576 168.336C19.1093 167.813 19.7333 167.413 20.448 167.136C21.1627 166.848 21.9467 166.704 22.8 166.704C23.6427 166.704 24.4213 166.848 25.136 167.136C25.8507 167.413 26.4693 167.808 26.992 168.32C27.5253 168.832 27.936 169.435 28.224 170.128C28.5227 170.821 28.672 171.579 28.672 172.4C28.672 173.221 28.5227 173.979 28.224 174.672C27.936 175.365 27.5253 175.968 26.992 176.48C26.4693 176.992 25.8507 177.392 25.136 177.68C24.4213 177.957 23.6427 178.096 22.8 178.096ZM22.8 177.04C23.472 177.04 24.0907 176.928 24.656 176.704C25.232 176.469 25.728 176.144 26.144 175.728C26.5707 175.301 26.9013 174.811 27.136 174.256C27.3707 173.691 27.488 173.072 27.488 172.4C27.488 171.728 27.3707 171.115 27.136 170.56C26.9013 169.995 26.5707 169.504 26.144 169.088C25.728 168.661 25.232 168.336 24.656 168.112C24.0907 167.877 23.472 167.76 22.8 167.76C22.128 167.76 21.504 167.877 20.928 168.112C20.352 168.336 19.8507 168.661 19.424 169.088C19.008 169.504 18.6773 169.995 18.432 170.56C18.1973 171.115 18.08 171.728 18.08 172.4C18.08 173.061 18.1973 173.675 18.432 174.24C18.6773 174.805 19.008 175.301 19.424 175.728C19.8507 176.144 20.352 176.469 20.928 176.704C21.504 176.928 22.128 177.04 22.8 177.04ZM36.4094 178.096C35.5667 178.096 34.7827 177.957 34.0574 177.68C33.3427 177.392 32.7187 176.992 32.1854 176.48C31.6627 175.957 31.252 175.355 30.9534 174.672C30.6654 173.979 30.5214 173.221 30.5214 172.4C30.5214 171.579 30.6654 170.827 30.9534 170.144C31.252 169.451 31.6627 168.848 32.1854 168.336C32.7187 167.813 33.3427 167.413 34.0574 167.136C34.772 166.848 35.556 166.704 36.4094 166.704C37.252 166.704 38.0307 166.848 38.7454 167.136C39.46 167.413 40.0787 167.808 40.6014 168.32C41.1347 168.832 41.5454 169.435 41.8334 170.128C42.132 170.821 42.2814 171.579 42.2814 172.4C42.2814 173.221 42.132 173.979 41.8334 174.672C41.5454 175.365 41.1347 175.968 40.6014 176.48C40.0787 176.992 39.46 177.392 38.7454 177.68C38.0307 177.957 37.252 178.096 36.4094 178.096ZM36.4094 177.04C37.0814 177.04 37.7 176.928 38.2654 176.704C38.8414 176.469 39.3374 176.144 39.7534 175.728C40.18 175.301 40.5107 174.811 40.7454 174.256C40.98 173.691 41.0974 173.072 41.0974 172.4C41.0974 171.728 40.98 171.115 40.7454 170.56C40.5107 169.995 40.18 169.504 39.7534 169.088C39.3374 168.661 38.8414 168.336 38.2654 168.112C37.7 167.877 37.0814 167.76 36.4094 167.76C35.7374 167.76 35.1134 167.877 34.5374 168.112C33.9614 168.336 33.46 168.661 33.0334 169.088C32.6174 169.504 32.2867 169.995 32.0414 170.56C31.8067 171.115 31.6894 171.728 31.6894 172.4C31.6894 173.061 31.8067 173.675 32.0414 174.24C32.2867 174.805 32.6174 175.301 33.0334 175.728C33.46 176.144 33.9614 176.469 34.5374 176.704C35.1134 176.928 35.7374 177.04 36.4094 177.04ZM50.0188 178.096C49.1761 178.096 48.3921 177.957 47.6668 177.68C46.9521 177.392 46.3281 176.992 45.7948 176.48C45.2721 175.957 44.8614 175.355 44.5628 174.672C44.2748 173.979 44.1308 173.221 44.1308 172.4C44.1308 171.579 44.2748 170.827 44.5628 170.144C44.8614 169.451 45.2721 168.848 45.7948 168.336C46.3281 167.813 46.9521 167.413 47.6668 167.136C48.3814 166.848 49.1654 166.704 50.0188 166.704C50.8614 166.704 51.6401 166.848 52.3548 167.136C53.0694 167.413 53.6881 167.808 54.2108 168.32C54.7441 168.832 55.1548 169.435 55.4428 170.128C55.7414 170.821 55.8908 171.579 55.8908 172.4C55.8908 173.221 55.7414 173.979 55.4428 174.672C55.1548 175.365 54.7441 175.968 54.2108 176.48C53.6881 176.992 53.0694 177.392 52.3548 177.68C51.6401 177.957 50.8614 178.096 50.0188 178.096ZM50.0188 177.04C50.6908 177.04 51.3094 176.928 51.8748 176.704C52.4508 176.469 52.9468 176.144 53.3628 175.728C53.7894 175.301 54.1201 174.811 54.3548 174.256C54.5894 173.691 54.7068 173.072 54.7068 172.4C54.7068 171.728 54.5894 171.115 54.3548 170.56C54.1201 169.995 53.7894 169.504 53.3628 169.088C52.9468 168.661 52.4508 168.336 51.8748 168.112C51.3094 167.877 50.6908 167.76 50.0188 167.76C49.3468 167.76 48.7228 167.877 48.1468 168.112C47.5708 168.336 47.0694 168.661 46.6428 169.088C46.2268 169.504 45.8961 169.995 45.6508 170.56C45.4161 171.115 45.2988 171.728 45.2988 172.4C45.2988 173.061 45.4161 173.675 45.6508 174.24C45.8961 174.805 46.2268 175.301 46.6428 175.728C47.0694 176.144 47.5708 176.469 48.1468 176.704C48.7228 176.928 49.3468 177.04 50.0188 177.04ZM67.7996 178.096C66.957 178.096 66.1783 177.957 65.4636 177.68C64.749 177.392 64.1303 176.992 63.6076 176.48C63.085 175.968 62.6743 175.365 62.3756 174.672C62.0876 173.979 61.9436 173.221 61.9436 172.4C61.9436 171.579 62.0876 170.821 62.3756 170.128C62.6743 169.435 63.085 168.832 63.6076 168.32C64.141 167.808 64.765 167.413 65.4796 167.136C66.1943 166.848 66.973 166.704 67.8156 166.704C68.6263 166.704 69.389 166.843 70.1036 167.12C70.8183 167.387 71.421 167.792 71.9116 168.336L71.1596 169.088C70.701 168.619 70.1943 168.283 69.6396 168.08C69.085 167.867 68.4876 167.76 67.8476 167.76C67.1756 167.76 66.5516 167.877 65.9756 168.112C65.3996 168.336 64.8983 168.661 64.4716 169.088C64.045 169.504 63.709 169.995 63.4636 170.56C63.229 171.115 63.1116 171.728 63.1116 172.4C63.1116 173.072 63.229 173.691 63.4636 174.256C63.709 174.811 64.045 175.301 64.4716 175.728C64.8983 176.144 65.3996 176.469 65.9756 176.704C66.5516 176.928 67.1756 177.04 67.8476 177.04C68.4876 177.04 69.085 176.933 69.6396 176.72C70.1943 176.507 70.701 176.165 71.1596 175.696L71.9116 176.448C71.421 176.992 70.8183 177.403 70.1036 177.68C69.389 177.957 68.621 178.096 67.7996 178.096ZM74.0848 178V169.6H81.6368V178H80.5008V170.288L80.7888 170.592H74.9328L75.2208 170.288V178H74.0848ZM88.466 178.08C87.5913 178.08 86.8233 177.899 86.162 177.536C85.5007 177.163 84.9833 176.656 84.61 176.016C84.2367 175.365 84.05 174.624 84.05 173.792C84.05 172.96 84.226 172.224 84.578 171.584C84.9407 170.944 85.4313 170.443 86.05 170.08C86.6793 169.707 87.3833 169.52 88.162 169.52C88.9513 169.52 89.65 169.701 90.258 170.064C90.8767 170.416 91.362 170.917 91.714 171.568C92.066 172.208 92.242 172.949 92.242 173.792C92.242 173.845 92.2367 173.904 92.226 173.968C92.226 174.021 92.226 174.08 92.226 174.144H84.914V173.296H91.618L91.17 173.632C91.17 173.024 91.0367 172.485 90.77 172.016C90.514 171.536 90.162 171.163 89.714 170.896C89.266 170.629 88.7487 170.496 88.162 170.496C87.586 170.496 87.0687 170.629 86.61 170.896C86.1513 171.163 85.794 171.536 85.538 172.016C85.282 172.496 85.154 173.045 85.154 173.664V173.84C85.154 174.48 85.2927 175.045 85.57 175.536C85.858 176.016 86.2527 176.395 86.754 176.672C87.266 176.939 87.8473 177.072 88.498 177.072C89.01 177.072 89.4847 176.981 89.922 176.8C90.37 176.619 90.754 176.341 91.074 175.968L91.714 176.704C91.3407 177.152 90.8713 177.493 90.306 177.728C89.7513 177.963 89.138 178.08 88.466 178.08ZM94.7566 178V169.6H95.8926V177.008H101.029V169.6H102.165V178H94.7566ZM102.453 180.032V177.904L102.741 178H101.029V177.008H103.525V180.032H102.453ZM109.214 178.08C108.382 178.08 107.635 177.899 106.974 177.536C106.323 177.163 105.811 176.656 105.438 176.016C105.065 175.365 104.878 174.624 104.878 173.792C104.878 172.949 105.065 172.208 105.438 171.568C105.811 170.928 106.323 170.427 106.974 170.064C107.635 169.701 108.382 169.52 109.214 169.52C109.929 169.52 110.574 169.659 111.15 169.936C111.726 170.213 112.179 170.629 112.51 171.184L111.662 171.76C111.374 171.333 111.017 171.019 110.59 170.816C110.163 170.613 109.699 170.512 109.198 170.512C108.601 170.512 108.062 170.651 107.582 170.928C107.102 171.195 106.723 171.573 106.446 172.064C106.169 172.555 106.03 173.131 106.03 173.792C106.03 174.453 106.169 175.029 106.446 175.52C106.723 176.011 107.102 176.395 107.582 176.672C108.062 176.939 108.601 177.072 109.198 177.072C109.699 177.072 110.163 176.971 110.59 176.768C111.017 176.565 111.374 176.256 111.662 175.84L112.51 176.416C112.179 176.96 111.726 177.376 111.15 177.664C110.574 177.941 109.929 178.08 109.214 178.08ZM116.154 178V170.288L116.442 170.592H112.97V169.6H120.474V170.592H117.002L117.29 170.288V178H116.154ZM126.452 178.08C125.727 178.08 125.071 177.915 124.484 177.584C123.897 177.243 123.428 176.757 123.076 176.128C122.735 175.488 122.564 174.709 122.564 173.792C122.564 172.875 122.735 172.101 123.076 171.472C123.417 170.832 123.881 170.347 124.468 170.016C125.055 169.685 125.716 169.52 126.452 169.52C127.252 169.52 127.967 169.701 128.596 170.064C129.236 170.416 129.737 170.917 130.1 171.568C130.463 172.208 130.644 172.949 130.644 173.792C130.644 174.645 130.463 175.392 130.1 176.032C129.737 176.672 129.236 177.173 128.596 177.536C127.967 177.899 127.252 178.08 126.452 178.08ZM122.116 181.104V169.6H123.204V172.128L123.092 173.808L123.252 175.504V181.104H122.116ZM126.372 177.072C126.969 177.072 127.503 176.939 127.972 176.672C128.441 176.395 128.815 176.011 129.092 175.52C129.369 175.019 129.508 174.443 129.508 173.792C129.508 173.141 129.369 172.571 129.092 172.08C128.815 171.589 128.441 171.205 127.972 170.928C127.503 170.651 126.969 170.512 126.372 170.512C125.775 170.512 125.236 170.651 124.756 170.928C124.287 171.205 123.913 171.589 123.636 172.08C123.369 172.571 123.236 173.141 123.236 173.792C123.236 174.443 123.369 175.019 123.636 175.52C123.913 176.011 124.287 176.395 124.756 176.672C125.236 176.939 125.775 177.072 126.372 177.072ZM136.541 178.08C135.73 178.08 134.999 177.899 134.349 177.536C133.709 177.163 133.202 176.656 132.829 176.016C132.455 175.365 132.269 174.624 132.269 173.792C132.269 172.949 132.455 172.208 132.829 171.568C133.202 170.928 133.709 170.427 134.349 170.064C134.989 169.701 135.719 169.52 136.541 169.52C137.373 169.52 138.109 169.701 138.749 170.064C139.399 170.427 139.906 170.928 140.269 171.568C140.642 172.208 140.829 172.949 140.829 173.792C140.829 174.624 140.642 175.365 140.269 176.016C139.906 176.656 139.399 177.163 138.749 177.536C138.098 177.899 137.362 178.08 136.541 178.08ZM136.541 177.072C137.149 177.072 137.687 176.939 138.157 176.672C138.626 176.395 138.994 176.011 139.261 175.52C139.538 175.019 139.677 174.443 139.677 173.792C139.677 173.131 139.538 172.555 139.261 172.064C138.994 171.573 138.626 171.195 138.157 170.928C137.687 170.651 137.154 170.512 136.557 170.512C135.959 170.512 135.426 170.651 134.957 170.928C134.487 171.195 134.114 171.573 133.837 172.064C133.559 172.555 133.421 173.131 133.421 173.792C133.421 174.443 133.559 175.019 133.837 175.52C134.114 176.011 134.487 176.395 134.957 176.672C135.426 176.939 135.954 177.072 136.541 177.072ZM143.257 178V169.6H144.393V176.272L150.009 169.6H151.017V178H149.881V171.312L144.281 178H143.257ZM147.065 168.384C146.361 168.384 145.79 168.208 145.353 167.856C144.926 167.493 144.702 166.976 144.681 166.304H145.497C145.507 166.731 145.657 167.067 145.945 167.312C146.233 167.557 146.606 167.68 147.065 167.68C147.523 167.68 147.897 167.557 148.185 167.312C148.483 167.067 148.638 166.731 148.649 166.304H149.465C149.454 166.976 149.23 167.493 148.793 167.856C148.355 168.208 147.779 168.384 147.065 168.384ZM158.46 178V169.6H159.612L163.42 176.048H162.94L166.812 169.6H167.868V178H166.828V170.896L167.036 170.992L163.42 176.976H162.908L159.26 170.928L159.5 170.88V178H158.46ZM174.556 178.08C173.746 178.08 173.015 177.899 172.364 177.536C171.724 177.163 171.218 176.656 170.844 176.016C170.471 175.365 170.284 174.624 170.284 173.792C170.284 172.949 170.471 172.208 170.844 171.568C171.218 170.928 171.724 170.427 172.364 170.064C173.004 169.701 173.735 169.52 174.556 169.52C175.388 169.52 176.124 169.701 176.764 170.064C177.415 170.427 177.922 170.928 178.284 171.568C178.658 172.208 178.844 172.949 178.844 173.792C178.844 174.624 178.658 175.365 178.284 176.016C177.922 176.656 177.415 177.163 176.764 177.536C176.114 177.899 175.378 178.08 174.556 178.08ZM174.556 177.072C175.164 177.072 175.703 176.939 176.172 176.672C176.642 176.395 177.01 176.011 177.276 175.52C177.554 175.019 177.692 174.443 177.692 173.792C177.692 173.131 177.554 172.555 177.276 172.064C177.01 171.573 176.642 171.195 176.172 170.928C175.703 170.651 175.17 170.512 174.572 170.512C173.975 170.512 173.442 170.651 172.972 170.928C172.503 171.195 172.13 171.573 171.852 172.064C171.575 172.555 171.436 173.131 171.436 173.792C171.436 174.443 171.575 175.019 171.852 175.52C172.13 176.011 172.503 176.395 172.972 176.672C173.442 176.939 173.97 177.072 174.556 177.072ZM181.272 178V169.6H182.408V173.312H187.704V169.6H188.84V178H187.704V174.288H182.408V178H181.272ZM193.669 178V170.288L193.957 170.592H190.485V169.6H197.989V170.592H194.517L194.805 170.288V178H193.669ZM204.848 178V176.144L204.8 175.84V172.736C204.8 172.021 204.597 171.472 204.192 171.088C203.797 170.704 203.205 170.512 202.416 170.512C201.872 170.512 201.354 170.603 200.864 170.784C200.373 170.965 199.957 171.205 199.616 171.504L199.104 170.656C199.53 170.293 200.042 170.016 200.64 169.824C201.237 169.621 201.866 169.52 202.528 169.52C203.616 169.52 204.453 169.792 205.04 170.336C205.637 170.869 205.936 171.685 205.936 172.784V178H204.848ZM201.952 178.08C201.322 178.08 200.773 177.979 200.304 177.776C199.845 177.563 199.493 177.275 199.248 176.912C199.002 176.539 198.88 176.112 198.88 175.632C198.88 175.195 198.981 174.8 199.184 174.448C199.397 174.085 199.738 173.797 200.208 173.584C200.688 173.36 201.328 173.248 202.128 173.248H205.024V174.096H202.16C201.349 174.096 200.784 174.24 200.464 174.528C200.154 174.816 200 175.173 200 175.6C200 176.08 200.186 176.464 200.56 176.752C200.933 177.04 201.456 177.184 202.128 177.184C202.768 177.184 203.317 177.04 203.776 176.752C204.245 176.453 204.586 176.027 204.8 175.472L205.056 176.256C204.842 176.811 204.469 177.253 203.936 177.584C203.413 177.915 202.752 178.08 201.952 178.08ZM218.928 178L216.048 173.84L216.992 173.28L220.288 178H218.928ZM214.16 174.256V173.28H216.816V174.256H214.16ZM217.104 173.92L216.016 173.76L218.816 169.6H220.048L217.104 173.92ZM208.976 178H207.616L210.912 173.28L211.84 173.84L208.976 178ZM214.512 178H213.376V169.6H214.512V178ZM213.728 174.256H211.088V173.28H213.728V174.256ZM210.816 173.92L207.856 169.6H209.088L211.872 173.76L210.816 173.92ZM222.179 178V169.6H223.315V173.312H228.611V169.6H229.747V178H228.611V174.288H223.315V178H222.179ZM241.167 178V169.6H242.303V178H241.167ZM236.511 172.56C237.567 172.571 238.373 172.805 238.927 173.264C239.482 173.723 239.759 174.384 239.759 175.248C239.759 176.144 239.461 176.832 238.863 177.312C238.266 177.792 237.413 178.027 236.303 178.016L232.975 178V169.6H234.111V172.528L236.511 172.56ZM236.223 177.152C237.013 177.163 237.605 177.008 237.999 176.688C238.405 176.357 238.607 175.877 238.607 175.248C238.607 174.619 238.41 174.16 238.015 173.872C237.621 173.573 237.023 173.419 236.223 173.408L234.111 173.376V177.12L236.223 177.152ZM249.138 178.08C248.263 178.08 247.495 177.899 246.834 177.536C246.173 177.163 245.655 176.656 245.282 176.016C244.909 175.365 244.722 174.624 244.722 173.792C244.722 172.96 244.898 172.224 245.25 171.584C245.613 170.944 246.103 170.443 246.722 170.08C247.351 169.707 248.055 169.52 248.834 169.52C249.623 169.52 250.322 169.701 250.93 170.064C251.549 170.416 252.034 170.917 252.386 171.568C252.738 172.208 252.914 172.949 252.914 173.792C252.914 173.845 252.909 173.904 252.898 173.968C252.898 174.021 252.898 174.08 252.898 174.144H245.586V173.296H252.29L251.842 173.632C251.842 173.024 251.709 172.485 251.442 172.016C251.186 171.536 250.834 171.163 250.386 170.896C249.938 170.629 249.421 170.496 248.834 170.496C248.258 170.496 247.741 170.629 247.282 170.896C246.823 171.163 246.466 171.536 246.21 172.016C245.954 172.496 245.826 173.045 245.826 173.664V173.84C245.826 174.48 245.965 175.045 246.242 175.536C246.53 176.016 246.925 176.395 247.426 176.672C247.938 176.939 248.519 177.072 249.17 177.072C249.682 177.072 250.157 176.981 250.594 176.8C251.042 176.619 251.426 176.341 251.746 175.968L252.386 176.704C252.013 177.152 251.543 177.493 250.978 177.728C250.423 177.963 249.81 178.08 249.138 178.08ZM21.136 202.08C20.304 202.08 19.5573 201.899 18.896 201.536C18.2453 201.163 17.7333 200.656 17.36 200.016C16.9867 199.365 16.8 198.624 16.8 197.792C16.8 196.949 16.9867 196.208 17.36 195.568C17.7333 194.928 18.2453 194.427 18.896 194.064C19.5573 193.701 20.304 193.52 21.136 193.52C21.8507 193.52 22.496 193.659 23.072 193.936C23.648 194.213 24.1013 194.629 24.432 195.184L23.584 195.76C23.296 195.333 22.9387 195.019 22.512 194.816C22.0853 194.613 21.6213 194.512 21.12 194.512C20.5227 194.512 19.984 194.651 19.504 194.928C19.024 195.195 18.6453 195.573 18.368 196.064C18.0907 196.555 17.952 197.131 17.952 197.792C17.952 198.453 18.0907 199.029 18.368 199.52C18.6453 200.011 19.024 200.395 19.504 200.672C19.984 200.939 20.5227 201.072 21.12 201.072C21.6213 201.072 22.0853 200.971 22.512 200.768C22.9387 200.565 23.296 200.256 23.584 199.84L24.432 200.416C24.1013 200.96 23.648 201.376 23.072 201.664C22.496 201.941 21.8507 202.08 21.136 202.08ZM26.6316 202V193.6H27.7676V200.272L33.3836 193.6H34.3916V202H33.2556V195.312L27.6556 202H26.6316ZM41.1673 202.08C40.3353 202.08 39.5886 201.899 38.9273 201.536C38.2766 201.163 37.7646 200.656 37.3913 200.016C37.0179 199.365 36.8313 198.624 36.8313 197.792C36.8313 196.949 37.0179 196.208 37.3913 195.568C37.7646 194.928 38.2766 194.427 38.9273 194.064C39.5886 193.701 40.3353 193.52 41.1673 193.52C41.8819 193.52 42.5273 193.659 43.1033 193.936C43.6793 194.213 44.1326 194.629 44.4633 195.184L43.6153 195.76C43.3273 195.333 42.9699 195.019 42.5433 194.816C42.1166 194.613 41.6526 194.512 41.1513 194.512C40.5539 194.512 40.0153 194.651 39.5353 194.928C39.0553 195.195 38.6766 195.573 38.3993 196.064C38.1219 196.555 37.9833 197.131 37.9833 197.792C37.9833 198.453 38.1219 199.029 38.3993 199.52C38.6766 200.011 39.0553 200.395 39.5353 200.672C40.0153 200.939 40.5539 201.072 41.1513 201.072C41.6526 201.072 42.1166 200.971 42.5433 200.768C42.9699 200.565 43.3273 200.256 43.6153 199.84L44.4633 200.416C44.1326 200.96 43.6793 201.376 43.1033 201.664C42.5273 201.941 41.8819 202.08 41.1673 202.08ZM48.1066 202V194.288L48.3946 194.592H44.9226V193.6H52.4266V194.592H48.9546L49.2426 194.288V202H48.1066ZM57.2785 202.08C56.4038 202.08 55.6358 201.899 54.9745 201.536C54.3132 201.163 53.7958 200.656 53.4225 200.016C53.0492 199.365 52.8625 198.624 52.8625 197.792C52.8625 196.96 53.0385 196.224 53.3905 195.584C53.7532 194.944 54.2438 194.443 54.8625 194.08C55.4918 193.707 56.1958 193.52 56.9745 193.52C57.7638 193.52 58.4625 193.701 59.0705 194.064C59.6892 194.416 60.1745 194.917 60.5265 195.568C60.8785 196.208 61.0545 196.949 61.0545 197.792C61.0545 197.845 61.0492 197.904 61.0385 197.968C61.0385 198.021 61.0385 198.08 61.0385 198.144H53.7265V197.296H60.4305L59.9825 197.632C59.9825 197.024 59.8492 196.485 59.5825 196.016C59.3265 195.536 58.9745 195.163 58.5265 194.896C58.0785 194.629 57.5612 194.496 56.9745 194.496C56.3985 194.496 55.8812 194.629 55.4225 194.896C54.9638 195.163 54.6065 195.536 54.3505 196.016C54.0945 196.496 53.9665 197.045 53.9665 197.664V197.84C53.9665 198.48 54.1052 199.045 54.3825 199.536C54.6705 200.016 55.0652 200.395 55.5665 200.672C56.0785 200.939 56.6598 201.072 57.3105 201.072C57.8225 201.072 58.2972 200.981 58.7345 200.8C59.1825 200.619 59.5665 200.341 59.8865 199.968L60.5265 200.704C60.1532 201.152 59.6838 201.493 59.1185 201.728C58.5638 201.963 57.9505 202.08 57.2785 202.08ZM63.5691 202V193.6H64.7211L68.5291 200.048H68.0491L71.9211 193.6H72.9771V202H71.9371V194.896L72.1451 194.992L68.5291 200.976H68.0171L64.3691 194.928L64.6091 194.88V202H63.5691ZM84.4018 202V193.6H85.5378V202H84.4018ZM79.7458 196.56C80.8018 196.571 81.6071 196.805 82.1618 197.264C82.7164 197.723 82.9938 198.384 82.9938 199.248C82.9938 200.144 82.6951 200.832 82.0978 201.312C81.5004 201.792 80.6471 202.027 79.5378 202.016L76.2098 202V193.6H77.3458V196.528L79.7458 196.56ZM79.4578 201.152C80.2471 201.163 80.8391 201.008 81.2338 200.688C81.6391 200.357 81.8418 199.877 81.8418 199.248C81.8418 198.619 81.6444 198.16 81.2498 197.872C80.8551 197.573 80.2578 197.419 79.4578 197.408L77.3458 197.376V201.12L79.4578 201.152Z" fill="#49494F"></path> <path d="M254 223H16V225H254V223Z" fill="#DDDDDD" mask="url(#path-25-inside-2_2152_2595)"></path> <path d="M16.49 252.824L16.868 252.082C17.2973 252.455 17.778 252.735 18.31 252.922C18.8513 253.099 19.3927 253.193 19.934 253.202C20.4753 253.202 20.97 253.123 21.418 252.964C21.8753 252.805 22.244 252.572 22.524 252.264C22.804 251.947 22.944 251.564 22.944 251.116C22.944 250.547 22.7153 250.108 22.258 249.8C21.81 249.492 21.1847 249.338 20.382 249.338H18.282V248.498H20.326C21.0167 248.498 21.5533 248.353 21.936 248.064C22.328 247.765 22.524 247.355 22.524 246.832C22.524 246.459 22.412 246.141 22.188 245.88C21.9733 245.609 21.6747 245.404 21.292 245.264C20.9187 245.115 20.4987 245.035 20.032 245.026C19.5653 245.007 19.08 245.068 18.576 245.208C18.0813 245.339 17.6007 245.549 17.134 245.838L16.798 244.984C17.3767 244.639 17.9787 244.401 18.604 244.27C19.2293 244.13 19.836 244.083 20.424 244.13C21.012 244.177 21.5393 244.312 22.006 244.536C22.482 244.76 22.86 245.054 23.14 245.418C23.42 245.782 23.56 246.216 23.56 246.72C23.56 247.187 23.4387 247.597 23.196 247.952C22.9627 248.307 22.6313 248.582 22.202 248.778C21.782 248.965 21.2827 249.058 20.704 249.058L20.76 248.75C21.4133 248.75 21.978 248.853 22.454 249.058C22.9393 249.263 23.3127 249.557 23.574 249.94C23.8447 250.313 23.98 250.752 23.98 251.256C23.98 251.732 23.8587 252.157 23.616 252.53C23.3827 252.894 23.056 253.202 22.636 253.454C22.2253 253.697 21.7633 253.874 21.25 253.986C20.7367 254.089 20.2 254.117 19.64 254.07C19.08 254.023 18.5293 253.902 17.988 253.706C17.4467 253.501 16.9473 253.207 16.49 252.824ZM30.8784 254V252.376L30.8364 252.11V249.394C30.8364 248.769 30.6591 248.288 30.3044 247.952C29.9591 247.616 29.4411 247.448 28.7504 247.448C28.2744 247.448 27.8217 247.527 27.3924 247.686C26.9631 247.845 26.5991 248.055 26.3004 248.316L25.8524 247.574C26.2257 247.257 26.6737 247.014 27.1964 246.846C27.7191 246.669 28.2697 246.58 28.8484 246.58C29.8004 246.58 30.5331 246.818 31.0464 247.294C31.5691 247.761 31.8304 248.475 31.8304 249.436V254H30.8784ZM28.3444 254.07C27.7937 254.07 27.3131 253.981 26.9024 253.804C26.5011 253.617 26.1931 253.365 25.9784 253.048C25.7637 252.721 25.6564 252.348 25.6564 251.928C25.6564 251.545 25.7451 251.2 25.9224 250.892C26.1091 250.575 26.4077 250.323 26.8184 250.136C27.2384 249.94 27.7984 249.842 28.4984 249.842H31.0324V250.584H28.5264C27.8171 250.584 27.3224 250.71 27.0424 250.962C26.7717 251.214 26.6364 251.527 26.6364 251.9C26.6364 252.32 26.7997 252.656 27.1264 252.908C27.4531 253.16 27.9104 253.286 28.4984 253.286C29.0584 253.286 29.5391 253.16 29.9404 252.908C30.3511 252.647 30.6497 252.273 30.8364 251.788L31.0604 252.474C30.8737 252.959 30.5471 253.347 30.0804 253.636C29.6231 253.925 29.0444 254.07 28.3444 254.07ZM39.8665 254L36.8425 250.36L37.6685 249.87L41.0425 254H39.8665ZM34.4765 254V246.65H35.4705V254H34.4765ZM35.1625 250.724V249.87H37.5285V250.724H35.1625ZM37.7525 250.43L36.8285 250.29L39.7545 246.65H40.8325L37.7525 250.43ZM42.3134 256.786C41.9681 256.786 41.6368 256.73 41.3194 256.618C41.0114 256.506 40.7454 256.338 40.5214 256.114L40.9834 255.372C41.1701 255.549 41.3708 255.685 41.5854 255.778C41.8094 255.881 42.0568 255.932 42.3274 255.932C42.6541 255.932 42.9341 255.839 43.1674 255.652C43.4101 255.475 43.6388 255.157 43.8534 254.7L44.3294 253.622L44.4414 253.468L47.4654 246.65H48.4454L44.7634 254.882C44.5581 255.358 44.3294 255.736 44.0774 256.016C43.8348 256.296 43.5688 256.492 43.2794 256.604C42.9901 256.725 42.6681 256.786 42.3134 256.786ZM44.2734 254.21L40.8854 246.65H41.9214L44.9174 253.398L44.2734 254.21ZM49.9941 254V246.65H56.6021V254H55.6081V247.252L55.8601 247.518H50.7361L50.9881 247.252V254H49.9941ZM64.8177 254L61.7937 250.36L62.6197 249.87L65.9937 254H64.8177ZM59.4277 254V246.65H60.4217V254H59.4277ZM60.1137 250.724V249.87H62.4797V250.724H60.1137ZM62.7037 250.43L61.7797 250.29L64.7057 246.65H65.7837L62.7037 250.43ZM71.9897 254V252.376L71.9477 252.11V249.394C71.9477 248.769 71.7704 248.288 71.4157 247.952C71.0704 247.616 70.5524 247.448 69.8617 247.448C69.3857 247.448 68.9331 247.527 68.5037 247.686C68.0744 247.845 67.7104 248.055 67.4117 248.316L66.9637 247.574C67.3371 247.257 67.7851 247.014 68.3077 246.846C68.8304 246.669 69.3811 246.58 69.9597 246.58C70.9117 246.58 71.6444 246.818 72.1577 247.294C72.6804 247.761 72.9417 248.475 72.9417 249.436V254H71.9897ZM69.4557 254.07C68.9051 254.07 68.4244 253.981 68.0137 253.804C67.6124 253.617 67.3044 253.365 67.0897 253.048C66.8751 252.721 66.7677 252.348 66.7677 251.928C66.7677 251.545 66.8564 251.2 67.0337 250.892C67.2204 250.575 67.5191 250.323 67.9297 250.136C68.3497 249.94 68.9097 249.842 69.6097 249.842H72.1437V250.584H69.6377C68.9284 250.584 68.4337 250.71 68.1537 250.962C67.8831 251.214 67.7477 251.527 67.7477 251.9C67.7477 252.32 67.9111 252.656 68.2377 252.908C68.5644 253.16 69.0217 253.286 69.6097 253.286C70.1697 253.286 70.6504 253.16 71.0517 252.908C71.4624 252.647 71.7611 252.273 71.9477 251.788L72.1717 252.474C71.9851 252.959 71.6584 253.347 71.1917 253.636C70.7344 253.925 70.1557 254.07 69.4557 254.07ZM82.3319 254.07C81.6039 254.07 80.9506 253.911 80.3719 253.594C79.8026 253.267 79.3546 252.824 79.0279 252.264C78.7012 251.695 78.5379 251.046 78.5379 250.318C78.5379 249.581 78.7012 248.932 79.0279 248.372C79.3546 247.812 79.8026 247.373 80.3719 247.056C80.9506 246.739 81.6039 246.58 82.3319 246.58C82.9572 246.58 83.5219 246.701 84.0259 246.944C84.5299 247.187 84.9266 247.551 85.2159 248.036L84.4739 248.54C84.2219 248.167 83.9092 247.891 83.5359 247.714C83.1626 247.537 82.7566 247.448 82.3179 247.448C81.7952 247.448 81.3239 247.569 80.9039 247.812C80.4839 248.045 80.1526 248.377 79.9099 248.806C79.6672 249.235 79.5459 249.739 79.5459 250.318C79.5459 250.897 79.6672 251.401 79.9099 251.83C80.1526 252.259 80.4839 252.595 80.9039 252.838C81.3239 253.071 81.7952 253.188 82.3179 253.188C82.7566 253.188 83.1626 253.099 83.5359 252.922C83.9092 252.745 84.2219 252.474 84.4739 252.11L85.2159 252.614C84.9266 253.09 84.5299 253.454 84.0259 253.706C83.5219 253.949 82.9572 254.07 82.3319 254.07ZM88.4038 254V247.252L88.6558 247.518H85.6178V246.65H92.1838V247.518H89.1458L89.3978 247.252V254H88.4038ZM97.415 254.07C96.7804 254.07 96.2064 253.925 95.693 253.636C95.1797 253.337 94.769 252.913 94.461 252.362C94.1624 251.802 94.013 251.121 94.013 250.318C94.013 249.515 94.1624 248.839 94.461 248.288C94.7597 247.728 95.1657 247.303 95.679 247.014C96.1924 246.725 96.771 246.58 97.415 246.58C98.115 246.58 98.7404 246.739 99.291 247.056C99.851 247.364 100.29 247.803 100.607 248.372C100.924 248.932 101.083 249.581 101.083 250.318C101.083 251.065 100.924 251.718 100.607 252.278C100.29 252.838 99.851 253.277 99.291 253.594C98.7404 253.911 98.115 254.07 97.415 254.07ZM93.621 256.716V246.65H94.573V248.862L94.475 250.332L94.615 251.816V256.716H93.621ZM97.345 253.188C97.8677 253.188 98.3344 253.071 98.745 252.838C99.1557 252.595 99.4824 252.259 99.725 251.83C99.9677 251.391 100.089 250.887 100.089 250.318C100.089 249.749 99.9677 249.249 99.725 248.82C99.4824 248.391 99.1557 248.055 98.745 247.812C98.3344 247.569 97.8677 247.448 97.345 247.448C96.8224 247.448 96.351 247.569 95.931 247.812C95.5204 248.055 95.1937 248.391 94.951 248.82C94.7177 249.249 94.601 249.749 94.601 250.318C94.601 250.887 94.7177 251.391 94.951 251.83C95.1937 252.259 95.5204 252.595 95.931 252.838C96.351 253.071 96.8224 253.188 97.345 253.188ZM106.243 254.07C105.533 254.07 104.894 253.911 104.325 253.594C103.765 253.267 103.321 252.824 102.995 252.264C102.668 251.695 102.505 251.046 102.505 250.318C102.505 249.581 102.668 248.932 102.995 248.372C103.321 247.812 103.765 247.373 104.325 247.056C104.885 246.739 105.524 246.58 106.243 246.58C106.971 246.58 107.615 246.739 108.175 247.056C108.744 247.373 109.187 247.812 109.505 248.372C109.831 248.932 109.995 249.581 109.995 250.318C109.995 251.046 109.831 251.695 109.505 252.264C109.187 252.824 108.744 253.267 108.175 253.594C107.605 253.911 106.961 254.07 106.243 254.07ZM106.243 253.188C106.775 253.188 107.246 253.071 107.657 252.838C108.067 252.595 108.389 252.259 108.623 251.83C108.865 251.391 108.987 250.887 108.987 250.318C108.987 249.739 108.865 249.235 108.623 248.806C108.389 248.377 108.067 248.045 107.657 247.812C107.246 247.569 106.779 247.448 106.257 247.448C105.734 247.448 105.267 247.569 104.857 247.812C104.446 248.045 104.119 248.377 103.877 248.806C103.634 249.235 103.513 249.739 103.513 250.318C103.513 250.887 103.634 251.391 103.877 251.83C104.119 252.259 104.446 252.595 104.857 252.838C105.267 253.071 105.729 253.188 106.243 253.188ZM112.119 254V246.65H113.113V252.488L118.027 246.65H118.909V254H117.915V248.148L113.015 254H112.119ZM115.451 245.586C114.835 245.586 114.336 245.432 113.953 245.124C113.58 244.807 113.384 244.354 113.365 243.766H114.079C114.088 244.139 114.219 244.433 114.471 244.648C114.723 244.863 115.05 244.97 115.451 244.97C115.852 244.97 116.179 244.863 116.431 244.648C116.692 244.433 116.828 244.139 116.837 243.766H117.551C117.542 244.354 117.346 244.807 116.963 245.124C116.58 245.432 116.076 245.586 115.451 245.586ZM121.758 254V246.65H122.766L126.098 252.292H125.678L129.066 246.65H129.99V254H129.08V247.784L129.262 247.868L126.098 253.104H125.65L122.458 247.812L122.668 247.77V254H121.758ZM137.382 254V252.376L137.34 252.11V249.394C137.34 248.769 137.163 248.288 136.808 247.952C136.463 247.616 135.945 247.448 135.254 247.448C134.778 247.448 134.326 247.527 133.896 247.686C133.467 247.845 133.103 248.055 132.804 248.316L132.356 247.574C132.73 247.257 133.178 247.014 133.7 246.846C134.223 246.669 134.774 246.58 135.352 246.58C136.304 246.58 137.037 246.818 137.55 247.294C138.073 247.761 138.334 248.475 138.334 249.436V254H137.382ZM134.848 254.07C134.298 254.07 133.817 253.981 133.406 253.804C133.005 253.617 132.697 253.365 132.482 253.048C132.268 252.721 132.16 252.348 132.16 251.928C132.16 251.545 132.249 251.2 132.426 250.892C132.613 250.575 132.912 250.323 133.322 250.136C133.742 249.94 134.302 249.842 135.002 249.842H137.536V250.584H135.03C134.321 250.584 133.826 250.71 133.546 250.962C133.276 251.214 133.14 251.527 133.14 251.9C133.14 252.32 133.304 252.656 133.63 252.908C133.957 253.16 134.414 253.286 135.002 253.286C135.562 253.286 136.043 253.16 136.444 252.908C136.855 252.647 137.154 252.273 137.34 251.788L137.564 252.474C137.378 252.959 137.051 253.347 136.584 253.636C136.127 253.925 135.548 254.07 134.848 254.07ZM142.38 254V247.252L142.632 247.518H139.594V246.65H146.16V247.518H143.122L143.374 247.252V254H142.38ZM150.406 254.07C149.64 254.07 148.968 253.911 148.39 253.594C147.811 253.267 147.358 252.824 147.032 252.264C146.705 251.695 146.542 251.046 146.542 250.318C146.542 249.59 146.696 248.946 147.004 248.386C147.321 247.826 147.75 247.387 148.292 247.07C148.842 246.743 149.458 246.58 150.14 246.58C150.83 246.58 151.442 246.739 151.974 247.056C152.515 247.364 152.94 247.803 153.248 248.372C153.556 248.932 153.71 249.581 153.71 250.318C153.71 250.365 153.705 250.416 153.696 250.472C153.696 250.519 153.696 250.57 153.696 250.626H147.298V249.884H153.164L152.772 250.178C152.772 249.646 152.655 249.175 152.422 248.764C152.198 248.344 151.89 248.017 151.498 247.784C151.106 247.551 150.653 247.434 150.14 247.434C149.636 247.434 149.183 247.551 148.782 247.784C148.38 248.017 148.068 248.344 147.844 248.764C147.62 249.184 147.508 249.665 147.508 250.206V250.36C147.508 250.92 147.629 251.415 147.872 251.844C148.124 252.264 148.469 252.595 148.908 252.838C149.356 253.071 149.864 253.188 150.434 253.188C150.882 253.188 151.297 253.109 151.68 252.95C152.072 252.791 152.408 252.549 152.688 252.222L153.248 252.866C152.921 253.258 152.51 253.557 152.016 253.762C151.53 253.967 150.994 254.07 150.406 254.07ZM159.704 254.07C159.069 254.07 158.495 253.925 157.982 253.636C157.469 253.337 157.058 252.913 156.75 252.362C156.451 251.802 156.302 251.121 156.302 250.318C156.302 249.515 156.451 248.839 156.75 248.288C157.049 247.728 157.455 247.303 157.968 247.014C158.481 246.725 159.06 246.58 159.704 246.58C160.404 246.58 161.029 246.739 161.58 247.056C162.14 247.364 162.579 247.803 162.896 248.372C163.213 248.932 163.372 249.581 163.372 250.318C163.372 251.065 163.213 251.718 162.896 252.278C162.579 252.838 162.14 253.277 161.58 253.594C161.029 253.911 160.404 254.07 159.704 254.07ZM155.91 256.716V246.65H156.862V248.862L156.764 250.332L156.904 251.816V256.716H155.91ZM159.634 253.188C160.157 253.188 160.623 253.071 161.034 252.838C161.445 252.595 161.771 252.259 162.014 251.83C162.257 251.391 162.378 250.887 162.378 250.318C162.378 249.749 162.257 249.249 162.014 248.82C161.771 248.391 161.445 248.055 161.034 247.812C160.623 247.569 160.157 247.448 159.634 247.448C159.111 247.448 158.64 247.569 158.22 247.812C157.809 248.055 157.483 248.391 157.24 248.82C157.007 249.249 156.89 249.749 156.89 250.318C156.89 250.887 157.007 251.391 157.24 251.83C157.483 252.259 157.809 252.595 158.22 252.838C158.64 253.071 159.111 253.188 159.634 253.188ZM165.508 254V246.65H166.502V252.488L171.416 246.65H172.298V254H171.304V248.148L166.404 254H165.508ZM179.71 254V252.376L179.668 252.11V249.394C179.668 248.769 179.491 248.288 179.136 247.952C178.791 247.616 178.273 247.448 177.582 247.448C177.106 247.448 176.654 247.527 176.224 247.686C175.795 247.845 175.431 248.055 175.132 248.316L174.684 247.574C175.058 247.257 175.506 247.014 176.028 246.846C176.551 246.669 177.102 246.58 177.68 246.58C178.632 246.58 179.365 246.818 179.878 247.294C180.401 247.761 180.662 248.475 180.662 249.436V254H179.71ZM177.176 254.07C176.626 254.07 176.145 253.981 175.734 253.804C175.333 253.617 175.025 253.365 174.81 253.048C174.596 252.721 174.488 252.348 174.488 251.928C174.488 251.545 174.577 251.2 174.754 250.892C174.941 250.575 175.24 250.323 175.65 250.136C176.07 249.94 176.63 249.842 177.33 249.842H179.864V250.584H177.358C176.649 250.584 176.154 250.71 175.874 250.962C175.604 251.214 175.468 251.527 175.468 251.9C175.468 252.32 175.632 252.656 175.958 252.908C176.285 253.16 176.742 253.286 177.33 253.286C177.89 253.286 178.371 253.16 178.772 252.908C179.183 252.647 179.482 252.273 179.668 251.788L179.892 252.474C179.706 252.959 179.379 253.347 178.912 253.636C178.455 253.925 177.876 254.07 177.176 254.07ZM181.965 253.986L182.035 253.132C182.1 253.141 182.161 253.155 182.217 253.174C182.282 253.183 182.338 253.188 182.385 253.188C182.683 253.188 182.921 253.076 183.099 252.852C183.285 252.628 183.425 252.329 183.519 251.956C183.612 251.583 183.677 251.163 183.715 250.696C183.752 250.22 183.785 249.744 183.813 249.268L183.939 246.65H189.329V254H188.335V247.224L188.587 247.518H184.583L184.821 247.21L184.709 249.338C184.681 249.973 184.629 250.579 184.555 251.158C184.489 251.737 184.382 252.245 184.233 252.684C184.093 253.123 183.897 253.468 183.645 253.72C183.393 253.963 183.071 254.084 182.679 254.084C182.567 254.084 182.45 254.075 182.329 254.056C182.217 254.037 182.095 254.014 181.965 253.986ZM195.178 254.07C194.469 254.07 193.83 253.911 193.26 253.594C192.7 253.267 192.257 252.824 191.93 252.264C191.604 251.695 191.44 251.046 191.44 250.318C191.44 249.581 191.604 248.932 191.93 248.372C192.257 247.812 192.7 247.373 193.26 247.056C193.82 246.739 194.46 246.58 195.178 246.58C195.906 246.58 196.55 246.739 197.11 247.056C197.68 247.373 198.123 247.812 198.44 248.372C198.767 248.932 198.93 249.581 198.93 250.318C198.93 251.046 198.767 251.695 198.44 252.264C198.123 252.824 197.68 253.267 197.11 253.594C196.541 253.911 195.897 254.07 195.178 254.07ZM195.178 253.188C195.71 253.188 196.182 253.071 196.592 252.838C197.003 252.595 197.325 252.259 197.558 251.83C197.801 251.391 197.922 250.887 197.922 250.318C197.922 249.739 197.801 249.235 197.558 248.806C197.325 248.377 197.003 248.045 196.592 247.812C196.182 247.569 195.715 247.448 195.192 247.448C194.67 247.448 194.203 247.569 193.792 247.812C193.382 248.045 193.055 248.377 192.812 248.806C192.57 249.235 192.448 249.739 192.448 250.318C192.448 250.887 192.57 251.391 192.812 251.83C193.055 252.259 193.382 252.595 193.792 252.838C194.203 253.071 194.665 253.188 195.178 253.188ZM201.055 254V246.65H204.303C205.133 246.65 205.787 246.809 206.263 247.126C206.748 247.443 206.991 247.91 206.991 248.526C206.991 249.123 206.762 249.585 206.305 249.912C205.847 250.229 205.245 250.388 204.499 250.388L204.695 250.094C205.572 250.094 206.216 250.257 206.627 250.584C207.037 250.911 207.243 251.382 207.243 251.998C207.243 252.633 207.009 253.127 206.543 253.482C206.085 253.827 205.371 254 204.401 254H201.055ZM202.021 253.216H204.359C204.984 253.216 205.455 253.118 205.773 252.922C206.099 252.717 206.263 252.39 206.263 251.942C206.263 251.494 206.118 251.167 205.829 250.962C205.539 250.757 205.082 250.654 204.457 250.654H202.021V253.216ZM202.021 249.912H204.233C204.802 249.912 205.236 249.805 205.535 249.59C205.843 249.375 205.997 249.063 205.997 248.652C205.997 248.241 205.843 247.933 205.535 247.728C205.236 247.523 204.802 247.42 204.233 247.42H202.021V249.912Z" fill="#49494F"></path> <rect x="0.5" y="0.5" width="269" height="281" rx="15.5" stroke="#E2E4E7"></rect> <defs> <linearGradient id="paint0_linear_2152_2595" x1="19" y1="26.5" x2="36" y2="64" gradientUnits="userSpaceOnUse"> <stop stop-color="#161617"></stop> <stop offset="1" stop-color="#212122"></stop> </linearGradient> </defs> </svg> 