<?xml version="1.0" encoding="UTF-8"?> <svg xmlns="http://www.w3.org/2000/svg" width="270" height="282" viewBox="0 0 270 282" fill="none"> <rect x="0.5" y="0.5" width="269" height="281" rx="15.5" fill="white"></rect> <rect x="16" y="24" width="40" height="40" rx="8" fill="#356BD5"></rect> <path d="M27.75 53.75H23.25V49.25H27.75V53.75Z" stroke="white" stroke-width="0.5"></path> <path d="M28.75 43.75H24.25V39.25H28.75V43.75Z" stroke="white" stroke-width="0.5"></path> <path d="M32.75 53.75H28.25V49.25H32.75V53.75Z" stroke="white" stroke-width="0.5"></path> <path d="M30.75 48.75H26.25V44.25H30.75V48.75Z" stroke="white" stroke-width="0.5"></path> <path d="M33.75 43.75H29.25V39.25H33.75V43.75Z" stroke="white" stroke-width="0.5"></path> <path d="M30.75 38.75H26.25V34.25H30.75V38.75Z" stroke="white" stroke-width="0.5"></path> <path d="M37.75 53.75H33.25V49.25H37.75V53.75Z" stroke="white" stroke-width="0.5"></path> <path d="M35.75 48.75H31.25V44.25H35.75V48.75Z" stroke="white" stroke-width="0.5"></path> <path d="M38.75 43.75H34.25V39.25H38.75V43.75Z" stroke="white" stroke-width="0.5"></path> <path d="M35.75 38.75H31.25V34.25H35.75V38.75Z" stroke="white" stroke-width="0.5"></path> <path d="M42.75 53.75H38.25V49.25H42.75V53.75Z" stroke="white" stroke-width="0.5"></path> <path d="M40.75 48.75H36.25V44.25H40.75V48.75Z" stroke="white" stroke-width="0.5"></path> <path d="M43.75 43.75H39.25V39.25H43.75V43.75Z" stroke="white" stroke-width="0.5"></path> <path d="M47.75 53.75H43.25V49.25H47.75V53.75Z" stroke="white" stroke-width="0.5"></path> <path d="M45.75 48.75H41.25V44.25H45.75V48.75Z" stroke="white" stroke-width="0.5"></path> <path d="M48.75 43.75H44.25V39.25H48.75V43.75Z" stroke="white" stroke-width="0.5"></path> <path d="M48.75 38.75H44.25V34.25H48.75V38.75Z" stroke="white" stroke-width="0.5"></path> <path d="M26 44H46" stroke="#356BD5" stroke-width="0.1"></path> <path d="M26 49H46" stroke="#356BD5" stroke-width="0.1"></path> <path d="M43 49V54" stroke="#356BD5" stroke-width="0.1"></path> <path d="M38 49V54" stroke="#356BD5" stroke-width="0.1"></path> <path d="M33 49V54" stroke="#356BD5" stroke-width="0.1"></path> <path d="M28 49V54" stroke="#356BD5" stroke-width="0.1"></path> <path d="M31 44V49" stroke="#356BD5" stroke-width="0.1"></path> <path d="M36 44V49" stroke="#356BD5" stroke-width="0.1"></path> <path d="M41 44V49" stroke="#356BD5" stroke-width="0.1"></path> <path d="M44 39V44" stroke="#356BD5" stroke-width="0.1"></path> <path d="M39 39V44" stroke="#356BD5" stroke-width="0.1"></path> <path d="M34 39V44" stroke="#356BD5" stroke-width="0.1"></path> <path d="M29 39V44" stroke="#356BD5" stroke-width="0.1"></path> <path d="M31 34V39" stroke="#356BD5" stroke-width="0.1"></path> <path d="M26 39H49" stroke="#356BD5" stroke-width="0.1"></path> <path d="M134.526 49V39.2H138.74C139.804 39.2 140.639 39.4147 141.246 39.844C141.853 40.2733 142.156 40.8987 142.156 41.72C142.156 42.5227 141.867 43.1387 141.288 43.568C140.709 43.988 139.949 44.198 139.006 44.198L139.258 43.778C140.35 43.778 141.185 43.9973 141.764 44.436C142.352 44.8653 142.646 45.4953 142.646 46.326C142.646 47.166 142.338 47.824 141.722 48.3C141.115 48.7667 140.21 49 139.006 49H134.526ZM135.912 47.894H138.978C139.725 47.894 140.285 47.7587 140.658 47.488C141.041 47.208 141.232 46.7833 141.232 46.214C141.232 45.6447 141.041 45.2293 140.658 44.968C140.285 44.7067 139.725 44.576 138.978 44.576H135.912V47.894ZM135.912 43.512H138.642C139.323 43.512 139.841 43.3767 140.196 43.106C140.56 42.8353 140.742 42.4387 140.742 41.916C140.742 41.384 140.56 40.9827 140.196 40.712C139.841 40.4413 139.323 40.306 138.642 40.306H135.912V43.512ZM152.097 49V41.58H153.441V49H152.097ZM148.107 44.1C149.05 44.1093 149.764 44.324 150.249 44.744C150.744 45.164 150.991 45.7567 150.991 46.522C150.991 47.3247 150.72 47.9453 150.179 48.384C149.647 48.8133 148.882 49.0233 147.883 49.014L144.761 49V41.58H146.105V44.086L148.107 44.1ZM147.785 47.992C148.382 48.0013 148.84 47.88 149.157 47.628C149.474 47.376 149.633 47.0027 149.633 46.508C149.633 46.0227 149.474 45.668 149.157 45.444C148.849 45.22 148.392 45.1033 147.785 45.094L146.105 45.066V47.978L147.785 47.992ZM161.122 48.37V42.756H157.902L157.832 44.184C157.813 44.6507 157.781 45.1033 157.734 45.542C157.697 45.9713 157.631 46.368 157.538 46.732C157.454 47.096 157.328 47.3947 157.16 47.628C156.992 47.8613 156.768 48.006 156.488 48.062L155.158 47.824C155.447 47.8333 155.681 47.74 155.858 47.544C156.035 47.3387 156.171 47.0587 156.264 46.704C156.367 46.3493 156.441 45.948 156.488 45.5C156.535 45.0427 156.572 44.5713 156.6 44.086L156.712 41.58H162.466V48.37H161.122ZM154.864 50.722V47.824H163.6V50.722H162.34V49H156.138V50.722H154.864ZM169.901 49V47.432L169.831 47.138V44.464C169.831 43.8947 169.663 43.456 169.327 43.148C169 42.8307 168.505 42.672 167.843 42.672C167.404 42.672 166.975 42.7467 166.555 42.896C166.135 43.036 165.78 43.2273 165.491 43.47L164.931 42.462C165.313 42.154 165.771 41.9207 166.303 41.762C166.844 41.594 167.409 41.51 167.997 41.51C169.014 41.51 169.798 41.7573 170.349 42.252C170.899 42.7467 171.175 43.5027 171.175 44.52V49H169.901ZM167.465 49.084C166.914 49.084 166.429 48.9907 166.009 48.804C165.598 48.6173 165.281 48.3607 165.057 48.034C164.833 47.698 164.721 47.32 164.721 46.9C164.721 46.4987 164.814 46.1347 165.001 45.808C165.197 45.4813 165.509 45.22 165.939 45.024C166.377 44.828 166.965 44.73 167.703 44.73H170.055V45.696H167.759C167.087 45.696 166.634 45.808 166.401 46.032C166.167 46.256 166.051 46.5267 166.051 46.844C166.051 47.208 166.195 47.502 166.485 47.726C166.774 47.9407 167.175 48.048 167.689 48.048C168.193 48.048 168.631 47.936 169.005 47.712C169.387 47.488 169.663 47.1613 169.831 46.732L170.097 47.656C169.919 48.0947 169.607 48.4447 169.159 48.706C168.711 48.958 168.146 49.084 167.465 49.084ZM173.595 49V41.58H174.939V44.73H179.167V41.58H180.511V49H179.167V45.892H174.939V49H173.595ZM187.906 49V39.76L188.508 40.418H185.694V39.2H189.292V49H187.906ZM191.282 49V48.048L195.272 44.198C195.626 43.862 195.888 43.568 196.056 43.316C196.233 43.0547 196.35 42.8167 196.406 42.602C196.471 42.378 196.504 42.1633 196.504 41.958C196.504 41.454 196.326 41.0573 195.972 40.768C195.617 40.4787 195.099 40.334 194.418 40.334C193.895 40.334 193.424 40.4227 193.004 40.6C192.584 40.768 192.22 41.034 191.912 41.398L190.96 40.572C191.333 40.096 191.832 39.732 192.458 39.48C193.092 39.2187 193.788 39.088 194.544 39.088C195.225 39.088 195.818 39.2 196.322 39.424C196.826 39.6387 197.213 39.9513 197.484 40.362C197.764 40.7727 197.904 41.258 197.904 41.818C197.904 42.1353 197.862 42.448 197.778 42.756C197.694 43.064 197.535 43.3907 197.302 43.736C197.068 44.0813 196.732 44.4687 196.294 44.898L192.738 48.328L192.402 47.782H198.324V49H191.282ZM200.535 49.084C200.274 49.084 200.05 48.9953 199.863 48.818C199.677 48.6313 199.583 48.398 199.583 48.118C199.583 47.838 199.677 47.6093 199.863 47.432C200.05 47.2547 200.274 47.166 200.535 47.166C200.787 47.166 201.002 47.2547 201.179 47.432C201.366 47.6093 201.459 47.838 201.459 48.118C201.459 48.398 201.366 48.6313 201.179 48.818C201.002 48.9953 200.787 49.084 200.535 49.084ZM204.258 49V39.76L204.86 40.418H202.046V39.2H205.644V49H204.258ZM211.791 49.112C211.026 49.112 210.34 48.916 209.733 48.524C209.136 48.132 208.66 47.5627 208.305 46.816C207.96 46.0693 207.787 45.164 207.787 44.1C207.787 43.036 207.96 42.1307 208.305 41.384C208.66 40.6373 209.136 40.068 209.733 39.676C210.34 39.284 211.026 39.088 211.791 39.088C212.547 39.088 213.229 39.284 213.835 39.676C214.442 40.068 214.918 40.6373 215.263 41.384C215.609 42.1307 215.781 43.036 215.781 44.1C215.781 45.164 215.609 46.0693 215.263 46.816C214.918 47.5627 214.442 48.132 213.835 48.524C213.229 48.916 212.547 49.112 211.791 49.112ZM211.791 47.866C212.305 47.866 212.753 47.726 213.135 47.446C213.527 47.166 213.831 46.746 214.045 46.186C214.269 45.626 214.381 44.9307 214.381 44.1C214.381 43.2693 214.269 42.574 214.045 42.014C213.831 41.454 213.527 41.034 213.135 40.754C212.753 40.474 212.305 40.334 211.791 40.334C211.278 40.334 210.825 40.474 210.433 40.754C210.041 41.034 209.733 41.454 209.509 42.014C209.295 42.574 209.187 43.2693 209.187 44.1C209.187 44.9307 209.295 45.626 209.509 46.186C209.733 46.746 210.041 47.166 210.433 47.446C210.825 47.726 211.278 47.866 211.791 47.866ZM217.885 49.084C217.624 49.084 217.4 48.9953 217.213 48.818C217.026 48.6313 216.933 48.398 216.933 48.118C216.933 47.838 217.026 47.6093 217.213 47.432C217.4 47.2547 217.624 47.166 217.885 47.166C218.137 47.166 218.352 47.2547 218.529 47.432C218.716 47.6093 218.809 47.838 218.809 48.118C218.809 48.398 218.716 48.6313 218.529 48.818C218.352 48.9953 218.137 49.084 217.885 49.084ZM220.116 49V48.048L224.106 44.198C224.46 43.862 224.722 43.568 224.89 43.316C225.067 43.0547 225.184 42.8167 225.24 42.602C225.305 42.378 225.338 42.1633 225.338 41.958C225.338 41.454 225.16 41.0573 224.806 40.768C224.451 40.4787 223.933 40.334 223.252 40.334C222.729 40.334 222.258 40.4227 221.838 40.6C221.418 40.768 221.054 41.034 220.746 41.398L219.794 40.572C220.167 40.096 220.666 39.732 221.292 39.48C221.926 39.2187 222.622 39.088 223.378 39.088C224.059 39.088 224.652 39.2 225.156 39.424C225.66 39.6387 226.047 39.9513 226.318 40.362C226.598 40.7727 226.738 41.258 226.738 41.818C226.738 42.1353 226.696 42.448 226.612 42.756C226.528 43.064 226.369 43.3907 226.136 43.736C225.902 44.0813 225.566 44.4687 225.128 44.898L221.572 48.328L221.236 47.782H227.158V49H220.116ZM232.299 49.112C231.534 49.112 230.848 48.916 230.241 48.524C229.644 48.132 229.168 47.5627 228.813 46.816C228.468 46.0693 228.295 45.164 228.295 44.1C228.295 43.036 228.468 42.1307 228.813 41.384C229.168 40.6373 229.644 40.068 230.241 39.676C230.848 39.284 231.534 39.088 232.299 39.088C233.055 39.088 233.736 39.284 234.343 39.676C234.95 40.068 235.426 40.6373 235.771 41.384C236.116 42.1307 236.289 43.036 236.289 44.1C236.289 45.164 236.116 46.0693 235.771 46.816C235.426 47.5627 234.95 48.132 234.343 48.524C233.736 48.916 233.055 49.112 232.299 49.112ZM232.299 47.866C232.812 47.866 233.26 47.726 233.643 47.446C234.035 47.166 234.338 46.746 234.553 46.186C234.777 45.626 234.889 44.9307 234.889 44.1C234.889 43.2693 234.777 42.574 234.553 42.014C234.338 41.454 234.035 41.034 233.643 40.754C233.26 40.474 232.812 40.334 232.299 40.334C231.786 40.334 231.333 40.474 230.941 40.754C230.549 41.034 230.241 41.454 230.017 42.014C229.802 42.574 229.695 43.2693 229.695 44.1C229.695 44.9307 229.802 45.626 230.017 46.186C230.241 46.746 230.549 47.166 230.941 47.446C231.333 47.726 231.786 47.866 232.299 47.866ZM237.479 49V48.048L241.469 44.198C241.824 43.862 242.085 43.568 242.253 43.316C242.43 43.0547 242.547 42.8167 242.603 42.602C242.668 42.378 242.701 42.1633 242.701 41.958C242.701 41.454 242.524 41.0573 242.169 40.768C241.814 40.4787 241.296 40.334 240.615 40.334C240.092 40.334 239.621 40.4227 239.201 40.6C238.781 40.768 238.417 41.034 238.109 41.398L237.157 40.572C237.53 40.096 238.03 39.732 238.655 39.48C239.29 39.2187 239.985 39.088 240.741 39.088C241.422 39.088 242.015 39.2 242.519 39.424C243.023 39.6387 243.41 39.9513 243.681 40.362C243.961 40.7727 244.101 41.258 244.101 41.818C244.101 42.1353 244.059 42.448 243.975 42.756C243.891 43.064 243.732 43.3907 243.499 43.736C243.266 44.0813 242.93 44.4687 242.491 44.898L238.935 48.328L238.599 47.782H244.521V49H237.479ZM245.518 49V48.048L249.508 44.198C249.863 43.862 250.124 43.568 250.292 43.316C250.469 43.0547 250.586 42.8167 250.642 42.602C250.707 42.378 250.74 42.1633 250.74 41.958C250.74 41.454 250.563 41.0573 250.208 40.768C249.853 40.4787 249.335 40.334 248.654 40.334C248.131 40.334 247.66 40.4227 247.24 40.6C246.82 40.768 246.456 41.034 246.148 41.398L245.196 40.572C245.569 40.096 246.069 39.732 246.694 39.48C247.329 39.2187 248.024 39.088 248.78 39.088C249.461 39.088 250.054 39.2 250.558 39.424C251.062 39.6387 251.449 39.9513 251.72 40.362C252 40.7727 252.14 41.258 252.14 41.818C252.14 42.1353 252.098 42.448 252.014 42.756C251.93 43.064 251.771 43.3907 251.538 43.736C251.305 44.0813 250.969 44.4687 250.53 44.898L246.974 48.328L246.638 47.782H252.56V49H245.518Z" fill="#49494F"></path> <path d="M16.888 121V119.368L23.728 112.768C24.336 112.192 24.784 111.688 25.072 111.256C25.376 110.808 25.576 110.4 25.672 110.032C25.784 109.648 25.84 109.28 25.84 108.928C25.84 108.064 25.536 107.384 24.928 106.888C24.32 106.392 23.432 106.144 22.264 106.144C21.368 106.144 20.56 106.296 19.84 106.6C19.12 106.888 18.496 107.344 17.968 107.968L16.336 106.552C16.976 105.736 17.832 105.112 18.904 104.68C19.992 104.232 21.184 104.008 22.48 104.008C23.648 104.008 24.664 104.2 25.528 104.584C26.392 104.952 27.056 105.488 27.52 106.192C28 106.896 28.24 107.728 28.24 108.688C28.24 109.232 28.168 109.768 28.024 110.296C27.88 110.824 27.608 111.384 27.208 111.976C26.808 112.568 26.232 113.232 25.48 113.968L19.384 119.848L18.808 118.912H28.96V121H16.888ZM37.9658 121.192C36.4778 121.192 35.2058 120.864 34.1498 120.208C33.0938 119.552 32.2858 118.608 31.7258 117.376C31.1818 116.128 30.9098 114.608 30.9098 112.816C30.9098 110.912 31.2458 109.304 31.9178 107.992C32.5898 106.68 33.5258 105.688 34.7258 105.016C35.9258 104.344 37.3018 104.008 38.8538 104.008C39.6538 104.008 40.4138 104.088 41.1338 104.248C41.8698 104.408 42.5018 104.656 43.0298 104.992L42.1178 106.864C41.6858 106.56 41.1898 106.352 40.6298 106.24C40.0858 106.128 39.5098 106.072 38.9018 106.072C37.1898 106.072 35.8298 106.608 34.8218 107.68C33.8138 108.736 33.3098 110.312 33.3098 112.408C33.3098 112.744 33.3258 113.144 33.3578 113.608C33.3898 114.072 33.4698 114.528 33.5978 114.976L32.7818 114.16C33.0218 113.424 33.3978 112.808 33.9098 112.312C34.4378 111.8 35.0618 111.424 35.7818 111.184C36.5178 110.928 37.3098 110.8 38.1578 110.8C39.2778 110.8 40.2698 111.008 41.1338 111.424C41.9978 111.84 42.6778 112.432 43.1738 113.2C43.6698 113.952 43.9178 114.848 43.9178 115.888C43.9178 116.96 43.6538 117.896 43.1258 118.696C42.5978 119.496 41.8858 120.112 40.9898 120.544C40.0938 120.976 39.0858 121.192 37.9658 121.192ZM37.8698 119.248C38.6058 119.248 39.2458 119.112 39.7898 118.84C40.3498 118.568 40.7898 118.192 41.1098 117.712C41.4298 117.216 41.5898 116.64 41.5898 115.984C41.5898 114.992 41.2458 114.208 40.5578 113.632C39.8698 113.04 38.9338 112.744 37.7498 112.744C36.9818 112.744 36.3098 112.888 35.7338 113.176C35.1578 113.464 34.7018 113.856 34.3658 114.352C34.0458 114.832 33.8858 115.384 33.8858 116.008C33.8858 116.584 34.0378 117.12 34.3418 117.616C34.6458 118.096 35.0938 118.488 35.6858 118.792C36.2778 119.096 37.0058 119.248 37.8698 119.248ZM52.2743 121.192C50.9143 121.192 49.7383 120.992 48.7463 120.592C47.7543 120.192 46.9863 119.624 46.4423 118.888C45.8983 118.136 45.6263 117.256 45.6263 116.248C45.6263 115.256 45.8823 114.416 46.3943 113.728C46.9223 113.024 47.6823 112.496 48.6743 112.144C49.6663 111.776 50.8663 111.592 52.2743 111.592C53.6823 111.592 54.8823 111.776 55.8743 112.144C56.8823 112.496 57.6503 113.024 58.1783 113.728C58.7063 114.432 58.9703 115.272 58.9703 116.248C58.9703 117.256 58.6983 118.136 58.1543 118.888C57.6103 119.624 56.8343 120.192 55.8263 120.592C54.8183 120.992 53.6343 121.192 52.2743 121.192ZM52.2743 119.248C53.6183 119.248 54.6663 118.976 55.4183 118.432C56.1863 117.872 56.5703 117.12 56.5703 116.176C56.5703 115.248 56.1863 114.52 55.4183 113.992C54.6663 113.448 53.6183 113.176 52.2743 113.176C50.9463 113.176 49.9063 113.448 49.1543 113.992C48.4023 114.52 48.0263 115.248 48.0263 116.176C48.0263 117.12 48.4023 117.872 49.1543 118.432C49.9063 118.976 50.9463 119.248 52.2743 119.248ZM52.2743 112.888C50.9943 112.888 49.9063 112.72 49.0103 112.384C48.1143 112.032 47.4263 111.536 46.9463 110.896C46.4663 110.24 46.2263 109.464 46.2263 108.568C46.2263 107.624 46.4743 106.816 46.9703 106.144C47.4823 105.456 48.1943 104.928 49.1063 104.56C50.0183 104.192 51.0743 104.008 52.2743 104.008C53.4903 104.008 54.5543 104.192 55.4663 104.56C56.3783 104.928 57.0903 105.456 57.6023 106.144C58.1143 106.816 58.3703 107.624 58.3703 108.568C58.3703 109.464 58.1303 110.24 57.6503 110.896C57.1703 111.536 56.4743 112.032 55.5623 112.384C54.6503 112.72 53.5543 112.888 52.2743 112.888ZM52.2743 111.352C53.4423 111.352 54.3543 111.112 55.0103 110.632C55.6823 110.152 56.0183 109.496 56.0183 108.664C56.0183 107.816 55.6743 107.152 54.9863 106.672C54.2983 106.192 53.3943 105.952 52.2743 105.952C51.1543 105.952 50.2583 106.192 49.5863 106.672C48.9303 107.152 48.6023 107.816 48.6023 108.664C48.6023 109.496 48.9223 110.152 49.5623 110.632C50.2183 111.112 51.1223 111.352 52.2743 111.352ZM70.5169 121L77.6449 105.208L78.2689 106.288H68.2849L69.4849 105.112V109.288H67.1809V104.2H79.8529V105.832L73.0609 121H70.5169ZM86.9588 121.192C85.7748 121.192 84.6228 121.008 83.5028 120.64C82.3988 120.272 81.4948 119.776 80.7908 119.152L81.8948 117.256C82.4548 117.784 83.1828 118.216 84.0788 118.552C84.9748 118.888 85.9268 119.056 86.9348 119.056C88.2148 119.056 89.1988 118.784 89.8868 118.24C90.5748 117.696 90.9188 116.968 90.9188 116.056C90.9188 115.432 90.7668 114.888 90.4628 114.424C90.1588 113.96 89.6308 113.608 88.8788 113.368C88.1428 113.112 87.1268 112.984 85.8308 112.984H82.0148L82.9028 104.2H92.3828V106.288H83.7908L85.0388 105.112L84.3428 112.048L83.0948 110.896H86.3348C88.0148 110.896 89.3668 111.112 90.3908 111.544C91.4148 111.976 92.1588 112.576 92.6228 113.344C93.0868 114.096 93.3188 114.968 93.3188 115.96C93.3188 116.92 93.0868 117.8 92.6228 118.6C92.1588 119.384 91.4548 120.016 90.5108 120.496C89.5828 120.96 88.3988 121.192 86.9588 121.192ZM102.18 121.192C100.868 121.192 99.6921 120.856 98.6521 120.184C97.6281 119.512 96.8121 118.536 96.2041 117.256C95.6121 115.976 95.3161 114.424 95.3161 112.6C95.3161 110.776 95.6121 109.224 96.2041 107.944C96.8121 106.664 97.6281 105.688 98.6521 105.016C99.6921 104.344 100.868 104.008 102.18 104.008C103.476 104.008 104.644 104.344 105.684 105.016C106.724 105.688 107.54 106.664 108.132 107.944C108.724 109.224 109.02 110.776 109.02 112.6C109.02 114.424 108.724 115.976 108.132 117.256C107.54 118.536 106.724 119.512 105.684 120.184C104.644 120.856 103.476 121.192 102.18 121.192ZM102.18 119.056C103.06 119.056 103.828 118.816 104.484 118.336C105.156 117.856 105.676 117.136 106.044 116.176C106.428 115.216 106.62 114.024 106.62 112.6C106.62 111.176 106.428 109.984 106.044 109.024C105.676 108.064 105.156 107.344 104.484 106.864C103.828 106.384 103.06 106.144 102.18 106.144C101.3 106.144 100.524 106.384 99.8521 106.864C99.1801 107.344 98.6521 108.064 98.2681 109.024C97.9001 109.984 97.7161 111.176 97.7161 112.6C97.7161 114.024 97.9001 115.216 98.2681 116.176C98.6521 117.136 99.1801 117.856 99.8521 118.336C100.524 118.816 101.3 119.056 102.18 119.056ZM113.34 121V104.2H119.94C122.1 104.2 123.804 104.68 125.052 105.64C126.3 106.584 126.924 107.968 126.924 109.792C126.924 111.616 126.3 113.008 125.052 113.968C123.804 114.928 122.1 115.408 119.94 115.408H114.684L115.764 114.28V121H113.34ZM115.764 114.52L114.684 113.416H119.94C121.412 113.416 122.54 113.104 123.324 112.48C124.108 111.856 124.5 110.968 124.5 109.816C124.5 108.68 124.108 107.808 123.324 107.2C122.54 106.592 121.412 106.288 119.94 106.288H114.684L115.764 105.088V114.52ZM110.892 118.192V116.824H121.092V118.192H110.892Z" fill="#161617"></path> <path d="M224.192 114.128C223.403 114.128 222.635 114.005 221.888 113.76C221.152 113.515 220.549 113.184 220.08 112.768L220.816 111.504C221.189 111.856 221.675 112.144 222.272 112.368C222.869 112.592 223.509 112.704 224.192 112.704C225.024 112.704 225.669 112.528 226.128 112.176C226.597 111.813 226.832 111.328 226.832 110.72C226.832 110.133 226.608 109.664 226.16 109.312C225.723 108.949 225.024 108.768 224.064 108.768H223.168V107.648L226.496 103.552L226.72 104.192H220.592V102.8H227.984V103.888L224.672 107.968L223.84 107.472H224.368C225.723 107.472 226.736 107.776 227.408 108.384C228.091 108.992 228.432 109.765 228.432 110.704C228.432 111.333 228.277 111.909 227.968 112.432C227.659 112.955 227.189 113.371 226.56 113.68C225.941 113.979 225.152 114.128 224.192 114.128ZM234.5 114.128C233.626 114.128 232.842 113.904 232.148 113.456C231.466 113.008 230.922 112.357 230.516 111.504C230.122 110.651 229.924 109.616 229.924 108.4C229.924 107.184 230.122 106.149 230.516 105.296C230.922 104.443 231.466 103.792 232.148 103.344C232.842 102.896 233.626 102.672 234.5 102.672C235.364 102.672 236.143 102.896 236.836 103.344C237.53 103.792 238.074 104.443 238.468 105.296C238.863 106.149 239.06 107.184 239.06 108.4C239.06 109.616 238.863 110.651 238.468 111.504C238.074 112.357 237.53 113.008 236.836 113.456C236.143 113.904 235.364 114.128 234.5 114.128ZM234.5 112.704C235.087 112.704 235.599 112.544 236.036 112.224C236.484 111.904 236.831 111.424 237.076 110.784C237.332 110.144 237.46 109.349 237.46 108.4C237.46 107.451 237.332 106.656 237.076 106.016C236.831 105.376 236.484 104.896 236.036 104.576C235.599 104.256 235.087 104.096 234.5 104.096C233.914 104.096 233.396 104.256 232.948 104.576C232.5 104.896 232.148 105.376 231.892 106.016C231.647 106.656 231.524 107.451 231.524 108.4C231.524 109.349 231.647 110.144 231.892 110.784C232.148 111.424 232.5 111.904 232.948 112.224C233.396 112.544 233.914 112.704 234.5 112.704ZM242.132 114L249.78 102.8H251.012L243.364 114H242.132ZM243.028 108.816C242.516 108.816 242.063 108.688 241.668 108.432C241.273 108.176 240.964 107.819 240.74 107.36C240.527 106.901 240.42 106.368 240.42 105.76C240.42 105.152 240.527 104.619 240.74 104.16C240.964 103.701 241.273 103.344 241.668 103.088C242.063 102.832 242.516 102.704 243.028 102.704C243.551 102.704 244.004 102.832 244.388 103.088C244.783 103.344 245.087 103.701 245.3 104.16C245.513 104.619 245.62 105.152 245.62 105.76C245.62 106.368 245.513 106.901 245.3 107.36C245.087 107.819 244.783 108.176 244.388 108.432C244.004 108.688 243.551 108.816 243.028 108.816ZM243.028 107.904C243.519 107.904 243.903 107.717 244.18 107.344C244.457 106.96 244.596 106.432 244.596 105.76C244.596 105.088 244.457 104.565 244.18 104.192C243.903 103.808 243.519 103.616 243.028 103.616C242.548 103.616 242.164 103.808 241.876 104.192C241.599 104.565 241.46 105.088 241.46 105.76C241.46 106.421 241.599 106.944 241.876 107.328C242.164 107.712 242.548 107.904 243.028 107.904ZM250.116 114.096C249.604 114.096 249.151 113.968 248.756 113.712C248.361 113.456 248.057 113.099 247.844 112.64C247.631 112.181 247.524 111.648 247.524 111.04C247.524 110.432 247.631 109.899 247.844 109.44C248.057 108.981 248.361 108.624 248.756 108.368C249.151 108.112 249.604 107.984 250.116 107.984C250.639 107.984 251.092 108.112 251.476 108.368C251.871 108.624 252.175 108.981 252.388 109.44C252.612 109.899 252.724 110.432 252.724 111.04C252.724 111.648 252.612 112.181 252.388 112.64C252.175 113.099 251.871 113.456 251.476 113.712C251.092 113.968 250.639 114.096 250.116 114.096ZM250.116 113.184C250.596 113.184 250.975 112.997 251.252 112.624C251.54 112.24 251.684 111.712 251.684 111.04C251.684 110.379 251.54 109.856 251.252 109.472C250.975 109.088 250.596 108.896 250.116 108.896C249.636 108.896 249.252 109.088 248.964 109.472C248.687 109.845 248.548 110.368 248.548 111.04C248.548 111.712 248.687 112.24 248.964 112.624C249.252 112.997 249.636 113.184 250.116 113.184Z" fill="#2CCC39"></path> <path d="M254 143H16V145H254V143Z" fill="#DDDDDD" mask="url(#path-36-inside-1_0_43)"></path> <path d="M22.8 178.096C21.9573 178.096 21.1733 177.957 20.448 177.68C19.7333 177.392 19.1093 176.992 18.576 176.48C18.0533 175.957 17.6427 175.355 17.344 174.672C17.056 173.979 16.912 173.221 16.912 172.4C16.912 171.579 17.056 170.827 17.344 170.144C17.6427 169.451 18.0533 168.848 18.576 168.336C19.1093 167.813 19.7333 167.413 20.448 167.136C21.1627 166.848 21.9467 166.704 22.8 166.704C23.6427 166.704 24.4213 166.848 25.136 167.136C25.8507 167.413 26.4693 167.808 26.992 168.32C27.5253 168.832 27.936 169.435 28.224 170.128C28.5227 170.821 28.672 171.579 28.672 172.4C28.672 173.221 28.5227 173.979 28.224 174.672C27.936 175.365 27.5253 175.968 26.992 176.48C26.4693 176.992 25.8507 177.392 25.136 177.68C24.4213 177.957 23.6427 178.096 22.8 178.096ZM22.8 177.04C23.472 177.04 24.0907 176.928 24.656 176.704C25.232 176.469 25.728 176.144 26.144 175.728C26.5707 175.301 26.9013 174.811 27.136 174.256C27.3707 173.691 27.488 173.072 27.488 172.4C27.488 171.728 27.3707 171.115 27.136 170.56C26.9013 169.995 26.5707 169.504 26.144 169.088C25.728 168.661 25.232 168.336 24.656 168.112C24.0907 167.877 23.472 167.76 22.8 167.76C22.128 167.76 21.504 167.877 20.928 168.112C20.352 168.336 19.8507 168.661 19.424 169.088C19.008 169.504 18.6773 169.995 18.432 170.56C18.1973 171.115 18.08 171.728 18.08 172.4C18.08 173.061 18.1973 173.675 18.432 174.24C18.6773 174.805 19.008 175.301 19.424 175.728C19.8507 176.144 20.352 176.469 20.928 176.704C21.504 176.928 22.128 177.04 22.8 177.04ZM36.4094 178.096C35.5667 178.096 34.7827 177.957 34.0574 177.68C33.3427 177.392 32.7187 176.992 32.1854 176.48C31.6627 175.957 31.252 175.355 30.9534 174.672C30.6654 173.979 30.5214 173.221 30.5214 172.4C30.5214 171.579 30.6654 170.827 30.9534 170.144C31.252 169.451 31.6627 168.848 32.1854 168.336C32.7187 167.813 33.3427 167.413 34.0574 167.136C34.772 166.848 35.556 166.704 36.4094 166.704C37.252 166.704 38.0307 166.848 38.7454 167.136C39.46 167.413 40.0787 167.808 40.6014 168.32C41.1347 168.832 41.5454 169.435 41.8334 170.128C42.132 170.821 42.2814 171.579 42.2814 172.4C42.2814 173.221 42.132 173.979 41.8334 174.672C41.5454 175.365 41.1347 175.968 40.6014 176.48C40.0787 176.992 39.46 177.392 38.7454 177.68C38.0307 177.957 37.252 178.096 36.4094 178.096ZM36.4094 177.04C37.0814 177.04 37.7 176.928 38.2654 176.704C38.8414 176.469 39.3374 176.144 39.7534 175.728C40.18 175.301 40.5107 174.811 40.7454 174.256C40.98 173.691 41.0974 173.072 41.0974 172.4C41.0974 171.728 40.98 171.115 40.7454 170.56C40.5107 169.995 40.18 169.504 39.7534 169.088C39.3374 168.661 38.8414 168.336 38.2654 168.112C37.7 167.877 37.0814 167.76 36.4094 167.76C35.7374 167.76 35.1134 167.877 34.5374 168.112C33.9614 168.336 33.46 168.661 33.0334 169.088C32.6174 169.504 32.2867 169.995 32.0414 170.56C31.8067 171.115 31.6894 171.728 31.6894 172.4C31.6894 173.061 31.8067 173.675 32.0414 174.24C32.2867 174.805 32.6174 175.301 33.0334 175.728C33.46 176.144 33.9614 176.469 34.5374 176.704C35.1134 176.928 35.7374 177.04 36.4094 177.04ZM50.0188 178.096C49.1761 178.096 48.3921 177.957 47.6668 177.68C46.9521 177.392 46.3281 176.992 45.7948 176.48C45.2721 175.957 44.8614 175.355 44.5628 174.672C44.2748 173.979 44.1308 173.221 44.1308 172.4C44.1308 171.579 44.2748 170.827 44.5628 170.144C44.8614 169.451 45.2721 168.848 45.7948 168.336C46.3281 167.813 46.9521 167.413 47.6668 167.136C48.3814 166.848 49.1654 166.704 50.0188 166.704C50.8614 166.704 51.6401 166.848 52.3548 167.136C53.0694 167.413 53.6881 167.808 54.2108 168.32C54.7441 168.832 55.1548 169.435 55.4428 170.128C55.7414 170.821 55.8908 171.579 55.8908 172.4C55.8908 173.221 55.7414 173.979 55.4428 174.672C55.1548 175.365 54.7441 175.968 54.2108 176.48C53.6881 176.992 53.0694 177.392 52.3548 177.68C51.6401 177.957 50.8614 178.096 50.0188 178.096ZM50.0188 177.04C50.6908 177.04 51.3094 176.928 51.8748 176.704C52.4508 176.469 52.9468 176.144 53.3628 175.728C53.7894 175.301 54.1201 174.811 54.3548 174.256C54.5894 173.691 54.7068 173.072 54.7068 172.4C54.7068 171.728 54.5894 171.115 54.3548 170.56C54.1201 169.995 53.7894 169.504 53.3628 169.088C52.9468 168.661 52.4508 168.336 51.8748 168.112C51.3094 167.877 50.6908 167.76 50.0188 167.76C49.3468 167.76 48.7228 167.877 48.1468 168.112C47.5708 168.336 47.0694 168.661 46.6428 169.088C46.2268 169.504 45.8961 169.995 45.6508 170.56C45.4161 171.115 45.2988 171.728 45.2988 172.4C45.2988 173.061 45.4161 173.675 45.6508 174.24C45.8961 174.805 46.2268 175.301 46.6428 175.728C47.0694 176.144 47.5708 176.469 48.1468 176.704C48.7228 176.928 49.3468 177.04 50.0188 177.04ZM62.9036 178V166.8H64.0716V171.776H66.9676V172.848H64.0716V178H62.9036ZM71.9436 178.096C71.1436 178.096 70.4023 177.957 69.7196 177.68C69.0476 177.392 68.4556 176.992 67.9436 176.48C67.4423 175.968 67.053 175.365 66.7756 174.672C66.4983 173.979 66.3596 173.221 66.3596 172.4C66.3596 171.579 66.4983 170.821 66.7756 170.128C67.053 169.435 67.4423 168.832 67.9436 168.32C68.4556 167.808 69.0476 167.413 69.7196 167.136C70.4023 166.848 71.1436 166.704 71.9436 166.704C72.7436 166.704 73.485 166.848 74.1676 167.136C74.8503 167.413 75.4423 167.808 75.9436 168.32C76.445 168.832 76.8343 169.435 77.1116 170.128C77.3996 170.821 77.5436 171.579 77.5436 172.4C77.5436 173.221 77.3996 173.979 77.1116 174.672C76.8343 175.365 76.445 175.968 75.9436 176.48C75.4423 176.992 74.8503 177.392 74.1676 177.68C73.485 177.957 72.7436 178.096 71.9436 178.096ZM71.9436 177.04C72.573 177.04 73.1543 176.928 73.6876 176.704C74.2316 176.469 74.701 176.144 75.0956 175.728C75.4903 175.312 75.7996 174.827 76.0236 174.272C76.2476 173.707 76.3596 173.083 76.3596 172.4C76.3596 171.717 76.2476 171.099 76.0236 170.544C75.7996 169.979 75.4903 169.488 75.0956 169.072C74.701 168.656 74.2316 168.336 73.6876 168.112C73.1543 167.877 72.573 167.76 71.9436 167.76C71.325 167.76 70.7436 167.877 70.1996 168.112C69.6663 168.336 69.2023 168.656 68.8076 169.072C68.413 169.488 68.1036 169.979 67.8796 170.544C67.6556 171.099 67.5436 171.717 67.5436 172.4C67.5436 173.083 67.6556 173.707 67.8796 174.272C68.1036 174.827 68.413 175.312 68.8076 175.728C69.2023 176.144 69.6663 176.469 70.1996 176.704C70.7436 176.928 71.325 177.04 71.9436 177.04ZM88.5644 166.8H89.7324V178H88.5644V166.8ZM81.5564 178H80.3724V166.8H81.5564V178ZM88.6764 172.832H81.4284V171.792H88.6764V172.832ZM91.865 178L96.985 166.8H98.153L103.273 178H102.025L97.321 167.488H97.801L93.097 178H91.865ZM93.881 175.008L94.233 174.048H100.745L101.097 175.008H93.881ZM105.419 178V166.8H106.587V176.08L113.755 166.8H114.827V178H113.659V168.736L106.491 178H105.419ZM110.091 165.984C109.291 165.984 108.657 165.803 108.187 165.44C107.729 165.077 107.494 164.571 107.483 163.92H108.363C108.374 164.347 108.534 164.683 108.843 164.928C109.163 165.173 109.579 165.296 110.091 165.296C110.603 165.296 111.014 165.173 111.323 164.928C111.643 164.683 111.809 164.347 111.819 163.92H112.699C112.689 164.571 112.449 165.077 111.979 165.44C111.51 165.803 110.881 165.984 110.091 165.984ZM126.271 178L121.967 172.416L122.927 171.84L127.631 178H126.271ZM118.607 178V166.8H119.759V178H118.607ZM119.407 172.864V171.824H122.911V172.864H119.407ZM123.023 172.528L121.935 172.336L126.111 166.8H127.391L123.023 172.528ZM134.347 178.096C133.504 178.096 132.72 177.957 131.995 177.68C131.28 177.392 130.656 176.992 130.123 176.48C129.6 175.957 129.19 175.355 128.891 174.672C128.603 173.979 128.459 173.221 128.459 172.4C128.459 171.579 128.603 170.827 128.891 170.144C129.19 169.451 129.6 168.848 130.123 168.336C130.656 167.813 131.28 167.413 131.995 167.136C132.71 166.848 133.494 166.704 134.347 166.704C135.19 166.704 135.968 166.848 136.683 167.136C137.398 167.413 138.016 167.808 138.539 168.32C139.072 168.832 139.483 169.435 139.771 170.128C140.07 170.821 140.219 171.579 140.219 172.4C140.219 173.221 140.07 173.979 139.771 174.672C139.483 175.365 139.072 175.968 138.539 176.48C138.016 176.992 137.398 177.392 136.683 177.68C135.968 177.957 135.19 178.096 134.347 178.096ZM134.347 177.04C135.019 177.04 135.638 176.928 136.203 176.704C136.779 176.469 137.275 176.144 137.691 175.728C138.118 175.301 138.448 174.811 138.683 174.256C138.918 173.691 139.035 173.072 139.035 172.4C139.035 171.728 138.918 171.115 138.683 170.56C138.448 169.995 138.118 169.504 137.691 169.088C137.275 168.661 136.779 168.336 136.203 168.112C135.638 167.877 135.019 167.76 134.347 167.76C133.675 167.76 133.051 167.877 132.475 168.112C131.899 168.336 131.398 168.661 130.971 169.088C130.555 169.504 130.224 169.995 129.979 170.56C129.744 171.115 129.627 171.728 129.627 172.4C129.627 173.061 129.744 173.675 129.979 174.24C130.224 174.805 130.555 175.301 130.971 175.728C131.398 176.144 131.899 176.469 132.475 176.704C133.051 176.928 133.675 177.04 134.347 177.04ZM147.94 178.096C147.098 178.096 146.319 177.957 145.604 177.68C144.89 177.392 144.271 176.992 143.748 176.48C143.226 175.968 142.815 175.365 142.516 174.672C142.228 173.979 142.084 173.221 142.084 172.4C142.084 171.579 142.228 170.821 142.516 170.128C142.815 169.435 143.226 168.832 143.748 168.32C144.282 167.808 144.906 167.413 145.62 167.136C146.335 166.848 147.114 166.704 147.956 166.704C148.767 166.704 149.53 166.843 150.244 167.12C150.959 167.387 151.562 167.792 152.052 168.336L151.3 169.088C150.842 168.619 150.335 168.283 149.78 168.08C149.226 167.867 148.628 167.76 147.988 167.76C147.316 167.76 146.692 167.877 146.116 168.112C145.54 168.336 145.039 168.661 144.612 169.088C144.186 169.504 143.85 169.995 143.604 170.56C143.37 171.115 143.252 171.728 143.252 172.4C143.252 173.072 143.37 173.691 143.604 174.256C143.85 174.811 144.186 175.301 144.612 175.728C145.039 176.144 145.54 176.469 146.116 176.704C146.692 176.928 147.316 177.04 147.988 177.04C148.628 177.04 149.226 176.933 149.78 176.72C150.335 176.507 150.842 176.165 151.3 175.696L152.052 176.448C151.562 176.992 150.959 177.403 150.244 177.68C149.53 177.957 148.762 178.096 147.94 178.096Z" fill="#49494F"></path> <path d="M254 223H16V225H254V223Z" fill="#DDDDDD" mask="url(#path-40-inside-2_0_43)"></path> <path d="M21.936 254.084C21.1987 254.084 20.5173 253.963 19.892 253.72C19.2667 253.468 18.7253 253.118 18.268 252.67C17.8107 252.222 17.4513 251.695 17.19 251.088C16.938 250.481 16.812 249.819 16.812 249.1C16.812 248.381 16.938 247.719 17.19 247.112C17.4513 246.505 17.8107 245.978 18.268 245.53C18.7347 245.082 19.2807 244.737 19.906 244.494C20.5313 244.242 21.2127 244.116 21.95 244.116C22.6593 244.116 23.3267 244.237 23.952 244.48C24.5773 244.713 25.1047 245.068 25.534 245.544L24.876 246.202C24.4747 245.791 24.0313 245.497 23.546 245.32C23.0607 245.133 22.538 245.04 21.978 245.04C21.39 245.04 20.844 245.143 20.34 245.348C19.836 245.544 19.3973 245.829 19.024 246.202C18.6507 246.566 18.3567 246.995 18.142 247.49C17.9367 247.975 17.834 248.512 17.834 249.1C17.834 249.688 17.9367 250.229 18.142 250.724C18.3567 251.209 18.6507 251.639 19.024 252.012C19.3973 252.376 19.836 252.661 20.34 252.866C20.844 253.062 21.39 253.16 21.978 253.16C22.538 253.16 23.0607 253.067 23.546 252.88C24.0313 252.693 24.4747 252.395 24.876 251.984L25.534 252.642C25.1047 253.118 24.5773 253.477 23.952 253.72C23.3267 253.963 22.6547 254.084 21.936 254.084ZM28.6304 254V247.252L28.8824 247.518H25.8444V246.65H32.4104V247.518H29.3724L29.6244 247.252V254H28.6304ZM37.6416 254.07C37.0069 254.07 36.4329 253.925 35.9196 253.636C35.4063 253.337 34.9956 252.913 34.6876 252.362C34.3889 251.802 34.2396 251.121 34.2396 250.318C34.2396 249.515 34.3889 248.839 34.6876 248.288C34.9863 247.728 35.3923 247.303 35.9056 247.014C36.4189 246.725 36.9976 246.58 37.6416 246.58C38.3416 246.58 38.9669 246.739 39.5176 247.056C40.0776 247.364 40.5163 247.803 40.8336 248.372C41.1509 248.932 41.3096 249.581 41.3096 250.318C41.3096 251.065 41.1509 251.718 40.8336 252.278C40.5163 252.838 40.0776 253.277 39.5176 253.594C38.9669 253.911 38.3416 254.07 37.6416 254.07ZM33.8476 256.716V246.65H34.7996V248.862L34.7016 250.332L34.8416 251.816V256.716H33.8476ZM37.5716 253.188C38.0943 253.188 38.5609 253.071 38.9716 252.838C39.3823 252.595 39.7089 252.259 39.9516 251.83C40.1943 251.391 40.3156 250.887 40.3156 250.318C40.3156 249.749 40.1943 249.249 39.9516 248.82C39.7089 248.391 39.3823 248.055 38.9716 247.812C38.5609 247.569 38.0943 247.448 37.5716 247.448C37.0489 247.448 36.5776 247.569 36.1576 247.812C35.7469 248.055 35.4203 248.391 35.1776 248.82C34.9443 249.249 34.8276 249.749 34.8276 250.318C34.8276 250.887 34.9443 251.391 35.1776 251.83C35.4203 252.259 35.7469 252.595 36.1576 252.838C36.5776 253.071 37.0489 253.188 37.5716 253.188ZM46.4693 254.07C45.7599 254.07 45.1206 253.911 44.5513 253.594C43.9913 253.267 43.5479 252.824 43.2213 252.264C42.8946 251.695 42.7313 251.046 42.7313 250.318C42.7313 249.581 42.8946 248.932 43.2213 248.372C43.5479 247.812 43.9913 247.373 44.5513 247.056C45.1113 246.739 45.7506 246.58 46.4693 246.58C47.1973 246.58 47.8413 246.739 48.4013 247.056C48.9706 247.373 49.4139 247.812 49.7313 248.372C50.0579 248.932 50.2213 249.581 50.2213 250.318C50.2213 251.046 50.0579 251.695 49.7313 252.264C49.4139 252.824 48.9706 253.267 48.4013 253.594C47.8319 253.911 47.1879 254.07 46.4693 254.07ZM46.4693 253.188C47.0013 253.188 47.4726 253.071 47.8833 252.838C48.2939 252.595 48.6159 252.259 48.8493 251.83C49.0919 251.391 49.2133 250.887 49.2133 250.318C49.2133 249.739 49.0919 249.235 48.8493 248.806C48.6159 248.377 48.2939 248.045 47.8833 247.812C47.4726 247.569 47.0059 247.448 46.4833 247.448C45.9606 247.448 45.4939 247.569 45.0833 247.812C44.6726 248.045 44.3459 248.377 44.1033 248.806C43.8606 249.235 43.7393 249.739 43.7393 250.318C43.7393 250.887 43.8606 251.391 44.1033 251.83C44.3459 252.259 44.6726 252.595 45.0833 252.838C45.4939 253.071 45.9559 253.188 46.4693 253.188ZM52.3456 254V246.65H53.3396V252.488L58.2536 246.65H59.1356V254H58.1416V248.148L53.2416 254H52.3456ZM63.3843 254V247.252L63.6363 247.518H60.5983V246.65H67.1643V247.518H64.1263L64.3783 247.252V254H63.3843ZM71.4097 254.07C70.6444 254.07 69.9724 253.911 69.3937 253.594C68.815 253.267 68.3624 252.824 68.0357 252.264C67.709 251.695 67.5457 251.046 67.5457 250.318C67.5457 249.59 67.6997 248.946 68.0077 248.386C68.325 247.826 68.7544 247.387 69.2957 247.07C69.8464 246.743 70.4624 246.58 71.1437 246.58C71.8344 246.58 72.4457 246.739 72.9777 247.056C73.519 247.364 73.9437 247.803 74.2517 248.372C74.5597 248.932 74.7137 249.581 74.7137 250.318C74.7137 250.365 74.709 250.416 74.6997 250.472C74.6997 250.519 74.6997 250.57 74.6997 250.626H68.3017V249.884H74.1677L73.7757 250.178C73.7757 249.646 73.659 249.175 73.4257 248.764C73.2017 248.344 72.8937 248.017 72.5017 247.784C72.1097 247.551 71.657 247.434 71.1437 247.434C70.6397 247.434 70.187 247.551 69.7857 247.784C69.3844 248.017 69.0717 248.344 68.8477 248.764C68.6237 249.184 68.5117 249.665 68.5117 250.206V250.36C68.5117 250.92 68.633 251.415 68.8757 251.844C69.1277 252.264 69.473 252.595 69.9117 252.838C70.3597 253.071 70.8684 253.188 71.4377 253.188C71.8857 253.188 72.301 253.109 72.6837 252.95C73.0757 252.791 73.4117 252.549 73.6917 252.222L74.2517 252.866C73.925 253.258 73.5144 253.557 73.0197 253.762C72.5344 253.967 71.9977 254.07 71.4097 254.07ZM75.4196 253.986L75.4896 253.132C75.5549 253.141 75.6156 253.155 75.6716 253.174C75.7369 253.183 75.7929 253.188 75.8396 253.188C76.1383 253.188 76.3763 253.076 76.5536 252.852C76.7403 252.628 76.8803 252.329 76.9736 251.956C77.0669 251.583 77.1323 251.163 77.1696 250.696C77.2069 250.22 77.2396 249.744 77.2676 249.268L77.3936 246.65H82.7836V254H81.7896V247.224L82.0416 247.518H78.0376L78.2756 247.21L78.1636 249.338C78.1356 249.973 78.0843 250.579 78.0096 251.158C77.9443 251.737 77.8369 252.245 77.6876 252.684C77.5476 253.123 77.3516 253.468 77.0996 253.72C76.8476 253.963 76.5256 254.084 76.1336 254.084C76.0216 254.084 75.9049 254.075 75.7836 254.056C75.6716 254.037 75.5503 254.014 75.4196 253.986ZM88.7733 249.24C89.6973 249.249 90.3973 249.455 90.8733 249.856C91.3586 250.257 91.6013 250.836 91.6013 251.592C91.6013 252.376 91.34 252.978 90.8173 253.398C90.304 253.818 89.5573 254.023 88.5773 254.014L85.6093 254V246.65H86.6033V249.212L88.7733 249.24ZM88.5213 253.258C89.2026 253.267 89.716 253.132 90.0613 252.852C90.416 252.563 90.5933 252.143 90.5933 251.592C90.5933 251.041 90.4206 250.64 90.0753 250.388C89.73 250.127 89.212 249.991 88.5213 249.982L86.6033 249.954V253.23L88.5213 253.258ZM93.498 254V246.65H94.492V249.898H99.126V246.65H100.12V254H99.126V250.752H94.492V254H93.498ZM105.969 254.07C105.26 254.07 104.621 253.911 104.051 253.594C103.491 253.267 103.048 252.824 102.721 252.264C102.395 251.695 102.231 251.046 102.231 250.318C102.231 249.581 102.395 248.932 102.721 248.372C103.048 247.812 103.491 247.373 104.051 247.056C104.611 246.739 105.251 246.58 105.969 246.58C106.697 246.58 107.341 246.739 107.901 247.056C108.471 247.373 108.914 247.812 109.231 248.372C109.558 248.932 109.721 249.581 109.721 250.318C109.721 251.046 109.558 251.695 109.231 252.264C108.914 252.824 108.471 253.267 107.901 253.594C107.332 253.911 106.688 254.07 105.969 254.07ZM105.969 253.188C106.501 253.188 106.973 253.071 107.383 252.838C107.794 252.595 108.116 252.259 108.349 251.83C108.592 251.391 108.713 250.887 108.713 250.318C108.713 249.739 108.592 249.235 108.349 248.806C108.116 248.377 107.794 248.045 107.383 247.812C106.973 247.569 106.506 247.448 105.983 247.448C105.461 247.448 104.994 247.569 104.583 247.812C104.173 248.045 103.846 248.377 103.603 248.806C103.361 249.235 103.239 249.739 103.239 250.318C103.239 250.887 103.361 251.391 103.603 251.83C103.846 252.259 104.173 252.595 104.583 252.838C104.994 253.071 105.456 253.188 105.969 253.188ZM111.408 250.64V249.772H115.076V250.64H111.408ZM117.328 254V246.65H118.336L121.668 252.292H121.248L124.636 246.65H125.56V254H124.65V247.784L124.832 247.868L121.668 253.104H121.22L118.028 247.812L118.238 247.77V254H117.328ZM131.413 254.07C130.703 254.07 130.064 253.911 129.495 253.594C128.935 253.267 128.491 252.824 128.165 252.264C127.838 251.695 127.675 251.046 127.675 250.318C127.675 249.581 127.838 248.932 128.165 248.372C128.491 247.812 128.935 247.373 129.495 247.056C130.055 246.739 130.694 246.58 131.413 246.58C132.141 246.58 132.785 246.739 133.345 247.056C133.914 247.373 134.357 247.812 134.675 248.372C135.001 248.932 135.165 249.581 135.165 250.318C135.165 251.046 135.001 251.695 134.675 252.264C134.357 252.824 133.914 253.267 133.345 253.594C132.775 253.911 132.131 254.07 131.413 254.07ZM131.413 253.188C131.945 253.188 132.416 253.071 132.827 252.838C133.237 252.595 133.559 252.259 133.793 251.83C134.035 251.391 134.157 250.887 134.157 250.318C134.157 249.739 134.035 249.235 133.793 248.806C133.559 248.377 133.237 248.045 132.827 247.812C132.416 247.569 131.949 247.448 131.427 247.448C130.904 247.448 130.437 247.569 130.027 247.812C129.616 248.045 129.289 248.377 129.047 248.806C128.804 249.235 128.683 249.739 128.683 250.318C128.683 250.887 128.804 251.391 129.047 251.83C129.289 252.259 129.616 252.595 130.027 252.838C130.437 253.071 130.899 253.188 131.413 253.188ZM137.289 254V246.65H138.283V249.898H142.917V246.65H143.911V254H142.917V250.752H138.283V254H137.289ZM148.136 254V247.252L148.388 247.518H145.35V246.65H151.916V247.518H148.878L149.13 247.252V254H148.136ZM157.917 254V252.376L157.875 252.11V249.394C157.875 248.769 157.698 248.288 157.343 247.952C156.998 247.616 156.48 247.448 155.789 247.448C155.313 247.448 154.861 247.527 154.431 247.686C154.002 247.845 153.638 248.055 153.339 248.316L152.891 247.574C153.265 247.257 153.713 247.014 154.235 246.846C154.758 246.669 155.309 246.58 155.887 246.58C156.839 246.58 157.572 246.818 158.085 247.294C158.608 247.761 158.869 248.475 158.869 249.436V254H157.917ZM155.383 254.07C154.833 254.07 154.352 253.981 153.941 253.804C153.54 253.617 153.232 253.365 153.017 253.048C152.803 252.721 152.695 252.348 152.695 251.928C152.695 251.545 152.784 251.2 152.961 250.892C153.148 250.575 153.447 250.323 153.857 250.136C154.277 249.94 154.837 249.842 155.537 249.842H158.071V250.584H155.565C154.856 250.584 154.361 250.71 154.081 250.962C153.811 251.214 153.675 251.527 153.675 251.9C153.675 252.32 153.839 252.656 154.165 252.908C154.492 253.16 154.949 253.286 155.537 253.286C156.097 253.286 156.578 253.16 156.979 252.908C157.39 252.647 157.689 252.273 157.875 251.788L158.099 252.474C157.913 252.959 157.586 253.347 157.119 253.636C156.662 253.925 156.083 254.07 155.383 254.07ZM170.238 254L167.718 250.36L168.544 249.87L171.428 254H170.238ZM166.066 250.724V249.87H168.39V250.724H166.066ZM168.642 250.43L167.69 250.29L170.14 246.65H171.218L168.642 250.43ZM161.53 254H160.34L163.224 249.87L164.036 250.36L161.53 254ZM166.374 254H165.38V246.65H166.374V254ZM165.688 250.724H163.378V249.87H165.688V250.724ZM163.14 250.43L160.55 246.65H161.628L164.064 250.29L163.14 250.43ZM173.082 254V246.65H174.076V249.898H178.71V246.65H179.704V254H178.71V250.752H174.076V254H173.082ZM189.697 254V246.65H190.691V254H189.697ZM185.623 249.24C186.547 249.249 187.252 249.455 187.737 249.856C188.223 250.257 188.465 250.836 188.465 251.592C188.465 252.376 188.204 252.978 187.681 253.398C187.159 253.818 186.412 254.023 185.441 254.014L182.529 254V246.65H183.523V249.212L185.623 249.24ZM185.371 253.258C186.062 253.267 186.58 253.132 186.925 252.852C187.28 252.563 187.457 252.143 187.457 251.592C187.457 251.041 187.285 250.64 186.939 250.388C186.594 250.127 186.071 249.991 185.371 249.982L183.523 249.954V253.23L185.371 253.258ZM196.671 254.07C195.906 254.07 195.234 253.911 194.655 253.594C194.077 253.267 193.624 252.824 193.297 252.264C192.971 251.695 192.807 251.046 192.807 250.318C192.807 249.59 192.961 248.946 193.269 248.386C193.587 247.826 194.016 247.387 194.557 247.07C195.108 246.743 195.724 246.58 196.405 246.58C197.096 246.58 197.707 246.739 198.239 247.056C198.781 247.364 199.205 247.803 199.513 248.372C199.821 248.932 199.975 249.581 199.975 250.318C199.975 250.365 199.971 250.416 199.961 250.472C199.961 250.519 199.961 250.57 199.961 250.626H193.563V249.884H199.429L199.037 250.178C199.037 249.646 198.921 249.175 198.687 248.764C198.463 248.344 198.155 248.017 197.763 247.784C197.371 247.551 196.919 247.434 196.405 247.434C195.901 247.434 195.449 247.551 195.047 247.784C194.646 248.017 194.333 248.344 194.109 248.764C193.885 249.184 193.773 249.665 193.773 250.206V250.36C193.773 250.92 193.895 251.415 194.137 251.844C194.389 252.264 194.735 252.595 195.173 252.838C195.621 253.071 196.13 253.188 196.699 253.188C197.147 253.188 197.563 253.109 197.945 252.95C198.337 252.791 198.673 252.549 198.953 252.222L199.513 252.866C199.187 253.258 198.776 253.557 198.281 253.762C197.796 253.967 197.259 254.07 196.671 254.07ZM209.634 254.07C208.999 254.07 208.425 253.925 207.912 253.636C207.398 253.337 206.988 252.913 206.68 252.362C206.381 251.802 206.232 251.121 206.232 250.318C206.232 249.515 206.381 248.839 206.68 248.288C206.978 247.728 207.384 247.303 207.898 247.014C208.411 246.725 208.99 246.58 209.634 246.58C210.334 246.58 210.959 246.739 211.51 247.056C212.07 247.364 212.508 247.803 212.826 248.372C213.143 248.932 213.302 249.581 213.302 250.318C213.302 251.065 213.143 251.718 212.826 252.278C212.508 252.838 212.07 253.277 211.51 253.594C210.959 253.911 210.334 254.07 209.634 254.07ZM205.84 256.716V246.65H206.792V248.862L206.694 250.332L206.834 251.816V256.716H205.84ZM209.564 253.188C210.086 253.188 210.553 253.071 210.964 252.838C211.374 252.595 211.701 252.259 211.944 251.83C212.186 251.391 212.308 250.887 212.308 250.318C212.308 249.749 212.186 249.249 211.944 248.82C211.701 248.391 211.374 248.055 210.964 247.812C210.553 247.569 210.086 247.448 209.564 247.448C209.041 247.448 208.57 247.569 208.15 247.812C207.739 248.055 207.412 248.391 207.17 248.82C206.936 249.249 206.82 249.749 206.82 250.318C206.82 250.887 206.936 251.391 207.17 251.83C207.412 252.259 207.739 252.595 208.15 252.838C208.57 253.071 209.041 253.188 209.564 253.188ZM219.96 254V252.376L219.918 252.11V249.394C219.918 248.769 219.741 248.288 219.386 247.952C219.041 247.616 218.523 247.448 217.832 247.448C217.356 247.448 216.904 247.527 216.474 247.686C216.045 247.845 215.681 248.055 215.382 248.316L214.934 247.574C215.308 247.257 215.756 247.014 216.278 246.846C216.801 246.669 217.352 246.58 217.93 246.58C218.882 246.58 219.615 246.818 220.128 247.294C220.651 247.761 220.912 248.475 220.912 249.436V254H219.96ZM217.426 254.07C216.876 254.07 216.395 253.981 215.984 253.804C215.583 253.617 215.275 253.365 215.06 253.048C214.846 252.721 214.738 252.348 214.738 251.928C214.738 251.545 214.827 251.2 215.004 250.892C215.191 250.575 215.49 250.323 215.9 250.136C216.32 249.94 216.88 249.842 217.58 249.842H220.114V250.584H217.608C216.899 250.584 216.404 250.71 216.124 250.962C215.854 251.214 215.718 251.527 215.718 251.9C215.718 252.32 215.882 252.656 216.208 252.908C216.535 253.16 216.992 253.286 217.58 253.286C218.14 253.286 218.621 253.16 219.022 252.908C219.433 252.647 219.732 252.273 219.918 251.788L220.142 252.474C219.956 252.959 219.629 253.347 219.162 253.636C218.705 253.925 218.126 254.07 217.426 254.07ZM226.863 254.084C226.265 254.084 225.733 253.986 225.267 253.79C224.809 253.594 224.417 253.295 224.091 252.894C223.764 252.493 223.517 251.998 223.349 251.41C223.181 250.813 223.097 250.122 223.097 249.338C223.097 248.638 223.162 248.027 223.293 247.504C223.423 246.972 223.605 246.515 223.839 246.132C224.072 245.749 224.343 245.427 224.651 245.166C224.968 244.895 225.309 244.681 225.673 244.522C226.046 244.354 226.429 244.228 226.821 244.144L230.125 243.374L230.293 244.298L227.185 244.998C226.989 245.045 226.751 245.11 226.471 245.194C226.2 245.278 225.92 245.404 225.631 245.572C225.351 245.74 225.089 245.973 224.847 246.272C224.604 246.571 224.408 246.958 224.259 247.434C224.119 247.901 224.049 248.484 224.049 249.184C224.049 249.333 224.053 249.455 224.063 249.548C224.072 249.632 224.081 249.725 224.091 249.828C224.109 249.921 224.123 250.061 224.133 250.248L223.699 249.884C223.801 249.315 224.011 248.82 224.329 248.4C224.646 247.971 225.043 247.639 225.519 247.406C226.004 247.163 226.541 247.042 227.129 247.042C227.81 247.042 228.417 247.191 228.949 247.49C229.481 247.779 229.896 248.185 230.195 248.708C230.503 249.231 230.657 249.837 230.657 250.528C230.657 251.209 230.498 251.821 230.181 252.362C229.873 252.903 229.434 253.328 228.865 253.636C228.295 253.935 227.628 254.084 226.863 254.084ZM226.975 253.258C227.497 253.258 227.959 253.141 228.361 252.908C228.762 252.665 229.075 252.339 229.299 251.928C229.532 251.517 229.649 251.055 229.649 250.542C229.649 250.038 229.532 249.59 229.299 249.198C229.075 248.806 228.762 248.498 228.361 248.274C227.959 248.041 227.493 247.924 226.961 247.924C226.438 247.924 225.976 248.036 225.575 248.26C225.173 248.475 224.856 248.778 224.623 249.17C224.399 249.562 224.287 250.015 224.287 250.528C224.287 251.041 224.399 251.503 224.623 251.914C224.856 252.325 225.173 252.651 225.575 252.894C225.985 253.137 226.452 253.258 226.975 253.258ZM235.811 254.07C235.102 254.07 234.462 253.911 233.893 253.594C233.333 253.267 232.89 252.824 232.563 252.264C232.236 251.695 232.073 251.046 232.073 250.318C232.073 249.581 232.236 248.932 232.563 248.372C232.89 247.812 233.333 247.373 233.893 247.056C234.453 246.739 235.092 246.58 235.811 246.58C236.539 246.58 237.183 246.739 237.743 247.056C238.312 247.373 238.756 247.812 239.073 248.372C239.4 248.932 239.563 249.581 239.563 250.318C239.563 251.046 239.4 251.695 239.073 252.264C238.756 252.824 238.312 253.267 237.743 253.594C237.174 253.911 236.53 254.07 235.811 254.07ZM235.811 253.188C236.343 253.188 236.814 253.071 237.225 252.838C237.636 252.595 237.958 252.259 238.191 251.83C238.434 251.391 238.555 250.887 238.555 250.318C238.555 249.739 238.434 249.235 238.191 248.806C237.958 248.377 237.636 248.045 237.225 247.812C236.814 247.569 236.348 247.448 235.825 247.448C235.302 247.448 234.836 247.569 234.425 247.812C234.014 248.045 233.688 248.377 233.445 248.806C233.202 249.235 233.081 249.739 233.081 250.318C233.081 250.887 233.202 251.391 233.445 251.83C233.688 252.259 234.014 252.595 234.425 252.838C234.836 253.071 235.298 253.188 235.811 253.188ZM242.814 254V247.252L243.066 247.518H240.028V246.65H246.594V247.518H243.556L243.808 247.252V254H242.814ZM255.199 254V246.65H256.193V254H255.199ZM251.125 249.24C252.049 249.249 252.754 249.455 253.239 249.856C253.725 250.257 253.967 250.836 253.967 251.592C253.967 252.376 253.706 252.978 253.183 253.398C252.661 253.818 251.914 254.023 250.943 254.014L248.031 254V246.65H249.025V249.212L251.125 249.24ZM250.873 253.258C251.564 253.267 252.082 253.132 252.427 252.852C252.782 252.563 252.959 252.143 252.959 251.592C252.959 251.041 252.787 250.64 252.441 250.388C252.096 250.127 251.573 249.991 250.873 249.982L249.025 249.954V253.23L250.873 253.258Z" fill="#49494F"></path> <rect x="0.5" y="0.5" width="269" height="281" rx="15.5" stroke="#E2E4E7"></rect> </svg> 