<?xml version="1.0" encoding="UTF-8"?> <svg xmlns="http://www.w3.org/2000/svg" width="270" height="282" viewBox="0 0 270 282" fill="none"> <rect x="0.5" y="0.5" width="269" height="281" rx="15.5" fill="white"></rect> <rect x="16" y="24" width="40" height="40" rx="8" fill="#356BD5"></rect> <path d="M27.75 49.25V53.75H23.25V49.25H27.75Z" stroke="white" stroke-width="0.5"></path> <path d="M28.75 39.25V43.75H24.25V39.25H28.75Z" stroke="white" stroke-width="0.5"></path> <path d="M32.75 49.25V53.75H28.25V49.25H32.75Z" stroke="white" stroke-width="0.5"></path> <path d="M30.75 44.25V48.75H26.25V44.25H30.75Z" stroke="white" stroke-width="0.5"></path> <path d="M33.75 39.25V43.75H29.25V39.25H33.75Z" stroke="white" stroke-width="0.5"></path> <path d="M30.75 34.25V38.75H26.25V34.25H30.75Z" stroke="white" stroke-width="0.5"></path> <path d="M37.75 49.25V53.75H33.25V49.25H37.75Z" stroke="white" stroke-width="0.5"></path> <path d="M35.75 44.25V48.75H31.25V44.25H35.75Z" stroke="white" stroke-width="0.5"></path> <path d="M38.75 39.25V43.75H34.25V39.25H38.75Z" stroke="white" stroke-width="0.5"></path> <path d="M35.75 34.25V38.75H31.25V34.25H35.75Z" stroke="white" stroke-width="0.5"></path> <path d="M42.75 49.25V53.75H38.25V49.25H42.75Z" stroke="white" stroke-width="0.5"></path> <path d="M40.75 44.25V48.75H36.25V44.25H40.75Z" stroke="white" stroke-width="0.5"></path> <path d="M43.75 39.25V43.75H39.25V39.25H43.75Z" stroke="white" stroke-width="0.5"></path> <path d="M47.75 49.25V53.75H43.25V49.25H47.75Z" stroke="white" stroke-width="0.5"></path> <path d="M45.75 44.25V48.75H41.25V44.25H45.75Z" stroke="white" stroke-width="0.5"></path> <path d="M48.75 39.25V43.75H44.25V39.25H48.75Z" stroke="white" stroke-width="0.5"></path> <path d="M48.75 34.25V38.75H44.25V34.25H48.75Z" stroke="white" stroke-width="0.5"></path> <path d="M26 44H46" stroke="#356BD5" stroke-width="0.1"></path> <path d="M26 49H46" stroke="#356BD5" stroke-width="0.1"></path> <path d="M43 49V54" stroke="#356BD5" stroke-width="0.1"></path> <path d="M38 49V54" stroke="#356BD5" stroke-width="0.1"></path> <path d="M33 49V54" stroke="#356BD5" stroke-width="0.1"></path> <path d="M28 49V54" stroke="#356BD5" stroke-width="0.1"></path> <path d="M31 44V49" stroke="#356BD5" stroke-width="0.1"></path> <path d="M36 44V49" stroke="#356BD5" stroke-width="0.1"></path> <path d="M41 44V49" stroke="#356BD5" stroke-width="0.1"></path> <path d="M44 39V44" stroke="#356BD5" stroke-width="0.1"></path> <path d="M39 39V44" stroke="#356BD5" stroke-width="0.1"></path> <path d="M34 39V44" stroke="#356BD5" stroke-width="0.1"></path> <path d="M29 39V44" stroke="#356BD5" stroke-width="0.1"></path> <path d="M31 34V39" stroke="#356BD5" stroke-width="0.1"></path> <path d="M26 39H49" stroke="#356BD5" stroke-width="0.1"></path> <path d="M135.526 49V39.2H139.74C140.804 39.2 141.639 39.4147 142.246 39.844C142.853 40.2733 143.156 40.8987 143.156 41.72C143.156 42.5227 142.867 43.1387 142.288 43.568C141.709 43.988 140.949 44.198 140.006 44.198L140.258 43.778C141.35 43.778 142.185 43.9973 142.764 44.436C143.352 44.8653 143.646 45.4953 143.646 46.326C143.646 47.166 143.338 47.824 142.722 48.3C142.115 48.7667 141.21 49 140.006 49H135.526ZM136.912 47.894H139.978C140.725 47.894 141.285 47.7587 141.658 47.488C142.041 47.208 142.232 46.7833 142.232 46.214C142.232 45.6447 142.041 45.2293 141.658 44.968C141.285 44.7067 140.725 44.576 139.978 44.576H136.912V47.894ZM136.912 43.512H139.642C140.323 43.512 140.841 43.3767 141.196 43.106C141.56 42.8353 141.742 42.4387 141.742 41.916C141.742 41.384 141.56 40.9827 141.196 40.712C140.841 40.4413 140.323 40.306 139.642 40.306H136.912V43.512ZM153.097 49V41.58H154.441V49H153.097ZM149.107 44.1C150.05 44.1093 150.764 44.324 151.249 44.744C151.744 45.164 151.991 45.7567 151.991 46.522C151.991 47.3247 151.72 47.9453 151.179 48.384C150.647 48.8133 149.882 49.0233 148.883 49.014L145.761 49V41.58H147.105V44.086L149.107 44.1ZM148.785 47.992C149.382 48.0013 149.84 47.88 150.157 47.628C150.474 47.376 150.633 47.0027 150.633 46.508C150.633 46.0227 150.474 45.668 150.157 45.444C149.849 45.22 149.392 45.1033 148.785 45.094L147.105 45.066V47.978L148.785 47.992ZM162.122 48.37V42.756H158.902L158.832 44.184C158.813 44.6507 158.781 45.1033 158.734 45.542C158.697 45.9713 158.631 46.368 158.538 46.732C158.454 47.096 158.328 47.3947 158.16 47.628C157.992 47.8613 157.768 48.006 157.488 48.062L156.158 47.824C156.447 47.8333 156.681 47.74 156.858 47.544C157.035 47.3387 157.171 47.0587 157.264 46.704C157.367 46.3493 157.441 45.948 157.488 45.5C157.535 45.0427 157.572 44.5713 157.6 44.086L157.712 41.58H163.466V48.37H162.122ZM155.864 50.722V47.824H164.6V50.722H163.34V49H157.138V50.722H155.864ZM170.901 49V47.432L170.831 47.138V44.464C170.831 43.8947 170.663 43.456 170.327 43.148C170 42.8307 169.505 42.672 168.843 42.672C168.404 42.672 167.975 42.7467 167.555 42.896C167.135 43.036 166.78 43.2273 166.491 43.47L165.931 42.462C166.313 42.154 166.771 41.9207 167.303 41.762C167.844 41.594 168.409 41.51 168.997 41.51C170.014 41.51 170.798 41.7573 171.349 42.252C171.899 42.7467 172.175 43.5027 172.175 44.52V49H170.901ZM168.465 49.084C167.914 49.084 167.429 48.9907 167.009 48.804C166.598 48.6173 166.281 48.3607 166.057 48.034C165.833 47.698 165.721 47.32 165.721 46.9C165.721 46.4987 165.814 46.1347 166.001 45.808C166.197 45.4813 166.509 45.22 166.939 45.024C167.377 44.828 167.965 44.73 168.703 44.73H171.055V45.696H168.759C168.087 45.696 167.634 45.808 167.401 46.032C167.167 46.256 167.051 46.5267 167.051 46.844C167.051 47.208 167.195 47.502 167.485 47.726C167.774 47.9407 168.175 48.048 168.689 48.048C169.193 48.048 169.631 47.936 170.005 47.712C170.387 47.488 170.663 47.1613 170.831 46.732L171.097 47.656C170.919 48.0947 170.607 48.4447 170.159 48.706C169.711 48.958 169.146 49.084 168.465 49.084ZM174.595 49V41.58H175.939V44.73H180.167V41.58H181.511V49H180.167V45.892H175.939V49H174.595ZM188.906 49V39.76L189.508 40.418H186.694V39.2H190.292V49H188.906ZM195.6 49.112C194.909 49.112 194.237 49.0047 193.584 48.79C192.94 48.5753 192.412 48.286 192.002 47.922L192.646 46.816C192.972 47.124 193.397 47.376 193.92 47.572C194.442 47.768 194.998 47.866 195.586 47.866C196.332 47.866 196.906 47.7073 197.308 47.39C197.709 47.0727 197.91 46.648 197.91 46.116C197.91 45.752 197.821 45.4347 197.644 45.164C197.466 44.8933 197.158 44.688 196.72 44.548C196.29 44.3987 195.698 44.324 194.942 44.324H192.716L193.234 39.2H198.764V40.418H193.752L194.48 39.732L194.074 43.778L193.346 43.106H195.236C196.216 43.106 197.004 43.232 197.602 43.484C198.199 43.736 198.633 44.086 198.904 44.534C199.174 44.9727 199.31 45.4813 199.31 46.06C199.31 46.62 199.174 47.1333 198.904 47.6C198.633 48.0573 198.222 48.426 197.672 48.706C197.13 48.9767 196.44 49.112 195.6 49.112ZM201.399 49.084C201.137 49.084 200.913 48.9953 200.727 48.818C200.54 48.6313 200.447 48.398 200.447 48.118C200.447 47.838 200.54 47.6093 200.727 47.432C200.913 47.2547 201.137 47.166 201.399 47.166C201.651 47.166 201.865 47.2547 202.043 47.432C202.229 47.6093 202.323 47.838 202.323 48.118C202.323 48.398 202.229 48.6313 202.043 48.818C201.865 48.9953 201.651 49.084 201.399 49.084ZM205.121 49V39.76L205.723 40.418H202.909V39.2H206.507V49H205.121ZM212.655 49.112C211.889 49.112 211.203 48.916 210.597 48.524C209.999 48.132 209.523 47.5627 209.169 46.816C208.823 46.0693 208.651 45.164 208.651 44.1C208.651 43.036 208.823 42.1307 209.169 41.384C209.523 40.6373 209.999 40.068 210.597 39.676C211.203 39.284 211.889 39.088 212.655 39.088C213.411 39.088 214.092 39.284 214.699 39.676C215.305 40.068 215.781 40.6373 216.127 41.384C216.472 42.1307 216.645 43.036 216.645 44.1C216.645 45.164 216.472 46.0693 216.127 46.816C215.781 47.5627 215.305 48.132 214.699 48.524C214.092 48.916 213.411 49.112 212.655 49.112ZM212.655 47.866C213.168 47.866 213.616 47.726 213.999 47.446C214.391 47.166 214.694 46.746 214.909 46.186C215.133 45.626 215.245 44.9307 215.245 44.1C215.245 43.2693 215.133 42.574 214.909 42.014C214.694 41.454 214.391 41.034 213.999 40.754C213.616 40.474 213.168 40.334 212.655 40.334C212.141 40.334 211.689 40.474 211.297 40.754C210.905 41.034 210.597 41.454 210.373 42.014C210.158 42.574 210.051 43.2693 210.051 44.1C210.051 44.9307 210.158 45.626 210.373 46.186C210.597 46.746 210.905 47.166 211.297 47.446C211.689 47.726 212.141 47.866 212.655 47.866ZM218.748 49.084C218.487 49.084 218.263 48.9953 218.076 48.818C217.89 48.6313 217.796 48.398 217.796 48.118C217.796 47.838 217.89 47.6093 218.076 47.432C218.263 47.2547 218.487 47.166 218.748 47.166C219 47.166 219.215 47.2547 219.392 47.432C219.579 47.6093 219.672 47.838 219.672 48.118C219.672 48.398 219.579 48.6313 219.392 48.818C219.215 48.9953 219 49.084 218.748 49.084ZM220.979 49V48.048L224.969 44.198C225.324 43.862 225.585 43.568 225.753 43.316C225.93 43.0547 226.047 42.8167 226.103 42.602C226.168 42.378 226.201 42.1633 226.201 41.958C226.201 41.454 226.024 41.0573 225.669 40.768C225.314 40.4787 224.796 40.334 224.115 40.334C223.592 40.334 223.121 40.4227 222.701 40.6C222.281 40.768 221.917 41.034 221.609 41.398L220.657 40.572C221.03 40.096 221.53 39.732 222.155 39.48C222.79 39.2187 223.485 39.088 224.241 39.088C224.922 39.088 225.515 39.2 226.019 39.424C226.523 39.6387 226.91 39.9513 227.181 40.362C227.461 40.7727 227.601 41.258 227.601 41.818C227.601 42.1353 227.559 42.448 227.475 42.756C227.391 43.064 227.232 43.3907 226.999 43.736C226.766 44.0813 226.43 44.4687 225.991 44.898L222.435 48.328L222.099 47.782H228.021V49H220.979ZM233.162 49.112C232.397 49.112 231.711 48.916 231.104 48.524C230.507 48.132 230.031 47.5627 229.676 46.816C229.331 46.0693 229.158 45.164 229.158 44.1C229.158 43.036 229.331 42.1307 229.676 41.384C230.031 40.6373 230.507 40.068 231.104 39.676C231.711 39.284 232.397 39.088 233.162 39.088C233.918 39.088 234.6 39.284 235.206 39.676C235.813 40.068 236.289 40.6373 236.634 41.384C236.98 42.1307 237.152 43.036 237.152 44.1C237.152 45.164 236.98 46.0693 236.634 46.816C236.289 47.5627 235.813 48.132 235.206 48.524C234.6 48.916 233.918 49.112 233.162 49.112ZM233.162 47.866C233.676 47.866 234.124 47.726 234.506 47.446C234.898 47.166 235.202 46.746 235.416 46.186C235.64 45.626 235.752 44.9307 235.752 44.1C235.752 43.2693 235.64 42.574 235.416 42.014C235.202 41.454 234.898 41.034 234.506 40.754C234.124 40.474 233.676 40.334 233.162 40.334C232.649 40.334 232.196 40.474 231.804 40.754C231.412 41.034 231.104 41.454 230.88 42.014C230.666 42.574 230.558 43.2693 230.558 44.1C230.558 44.9307 230.666 45.626 230.88 46.186C231.104 46.746 231.412 47.166 231.804 47.446C232.196 47.726 232.649 47.866 233.162 47.866ZM238.342 49V48.048L242.332 44.198C242.687 43.862 242.948 43.568 243.116 43.316C243.294 43.0547 243.41 42.8167 243.466 42.602C243.532 42.378 243.564 42.1633 243.564 41.958C243.564 41.454 243.387 41.0573 243.032 40.768C242.678 40.4787 242.16 40.334 241.478 40.334C240.956 40.334 240.484 40.4227 240.064 40.6C239.644 40.768 239.28 41.034 238.972 41.398L238.02 40.572C238.394 40.096 238.893 39.732 239.518 39.48C240.153 39.2187 240.848 39.088 241.604 39.088C242.286 39.088 242.878 39.2 243.382 39.424C243.886 39.6387 244.274 39.9513 244.544 40.362C244.824 40.7727 244.964 41.258 244.964 41.818C244.964 42.1353 244.922 42.448 244.838 42.756C244.754 43.064 244.596 43.3907 244.362 43.736C244.129 44.0813 243.793 44.4687 243.354 44.898L239.798 48.328L239.462 47.782H245.384V49H238.342ZM246.381 49V48.048L250.371 44.198C250.726 43.862 250.987 43.568 251.155 43.316C251.333 43.0547 251.449 42.8167 251.505 42.602C251.571 42.378 251.603 42.1633 251.603 41.958C251.603 41.454 251.426 41.0573 251.071 40.768C250.717 40.4787 250.199 40.334 249.517 40.334C248.995 40.334 248.523 40.4227 248.103 40.6C247.683 40.768 247.319 41.034 247.011 41.398L246.059 40.572C246.433 40.096 246.932 39.732 247.557 39.48C248.192 39.2187 248.887 39.088 249.643 39.088C250.325 39.088 250.917 39.2 251.421 39.424C251.925 39.6387 252.313 39.9513 252.583 40.362C252.863 40.7727 253.003 41.258 253.003 41.818C253.003 42.1353 252.961 42.448 252.877 42.756C252.793 43.064 252.635 43.3907 252.401 43.736C252.168 44.0813 251.832 44.4687 251.393 44.898L247.837 48.328L247.501 47.782H253.423V49H246.381Z" fill="#49494F"></path> <path d="M16.888 121V119.368L23.728 112.768C24.336 112.192 24.784 111.688 25.072 111.256C25.376 110.808 25.576 110.4 25.672 110.032C25.784 109.648 25.84 109.28 25.84 108.928C25.84 108.064 25.536 107.384 24.928 106.888C24.32 106.392 23.432 106.144 22.264 106.144C21.368 106.144 20.56 106.296 19.84 106.6C19.12 106.888 18.496 107.344 17.968 107.968L16.336 106.552C16.976 105.736 17.832 105.112 18.904 104.68C19.992 104.232 21.184 104.008 22.48 104.008C23.648 104.008 24.664 104.2 25.528 104.584C26.392 104.952 27.056 105.488 27.52 106.192C28 106.896 28.24 107.728 28.24 108.688C28.24 109.232 28.168 109.768 28.024 110.296C27.88 110.824 27.608 111.384 27.208 111.976C26.808 112.568 26.232 113.232 25.48 113.968L19.384 119.848L18.808 118.912H28.96V121H16.888ZM42.5146 121.192C41.3306 121.192 40.1786 121.008 39.0586 120.64C37.9546 120.272 37.0506 119.776 36.3466 119.152L37.4506 117.256C38.0106 117.784 38.7386 118.216 39.6346 118.552C40.5306 118.888 41.4906 119.056 42.5146 119.056C43.7626 119.056 44.7306 118.792 45.4186 118.264C46.1226 117.72 46.4746 116.992 46.4746 116.08C46.4746 115.2 46.1386 114.496 45.4666 113.968C44.8106 113.424 43.7626 113.152 42.3226 113.152H40.9786V111.472L45.9706 105.328L46.3066 106.288H37.1146V104.2H48.2026V105.832L43.2346 111.952L41.9866 111.208H42.7786C44.8106 111.208 46.3306 111.664 47.3386 112.576C48.3626 113.488 48.8746 114.648 48.8746 116.056C48.8746 117 48.6426 117.864 48.1786 118.648C47.7146 119.432 47.0106 120.056 46.0666 120.52C45.1386 120.968 43.9546 121.192 42.5146 121.192ZM56.3026 121.192C55.1186 121.192 53.9666 121.008 52.8466 120.64C51.7426 120.272 50.8386 119.776 50.1346 119.152L51.2386 117.256C51.7986 117.784 52.5266 118.216 53.4226 118.552C54.3186 118.888 55.2706 119.056 56.2786 119.056C57.5586 119.056 58.5426 118.784 59.2306 118.24C59.9186 117.696 60.2626 116.968 60.2626 116.056C60.2626 115.432 60.1106 114.888 59.8066 114.424C59.5026 113.96 58.9746 113.608 58.2226 113.368C57.4866 113.112 56.4706 112.984 55.1746 112.984H51.3586L52.2466 104.2H61.7266V106.288H53.1346L54.3826 105.112L53.6866 112.048L52.4386 110.896H55.6786C57.3586 110.896 58.7106 111.112 59.7346 111.544C60.7586 111.976 61.5026 112.576 61.9666 113.344C62.4306 114.096 62.6626 114.968 62.6626 115.96C62.6626 116.92 62.4306 117.8 61.9666 118.6C61.5026 119.384 60.7986 120.016 59.8546 120.496C58.9266 120.96 57.7426 121.192 56.3026 121.192ZM71.2118 121.192C69.8518 121.192 68.6758 120.992 67.6838 120.592C66.6918 120.192 65.9238 119.624 65.3798 118.888C64.8358 118.136 64.5638 117.256 64.5638 116.248C64.5638 115.256 64.8198 114.416 65.3318 113.728C65.8598 113.024 66.6198 112.496 67.6118 112.144C68.6038 111.776 69.8038 111.592 71.2118 111.592C72.6198 111.592 73.8198 111.776 74.8118 112.144C75.8198 112.496 76.5878 113.024 77.1158 113.728C77.6438 114.432 77.9078 115.272 77.9078 116.248C77.9078 117.256 77.6358 118.136 77.0918 118.888C76.5478 119.624 75.7718 120.192 74.7638 120.592C73.7558 120.992 72.5718 121.192 71.2118 121.192ZM71.2118 119.248C72.5558 119.248 73.6038 118.976 74.3558 118.432C75.1238 117.872 75.5078 117.12 75.5078 116.176C75.5078 115.248 75.1238 114.52 74.3558 113.992C73.6038 113.448 72.5558 113.176 71.2118 113.176C69.8838 113.176 68.8438 113.448 68.0918 113.992C67.3398 114.52 66.9638 115.248 66.9638 116.176C66.9638 117.12 67.3398 117.872 68.0918 118.432C68.8438 118.976 69.8838 119.248 71.2118 119.248ZM71.2118 112.888C69.9318 112.888 68.8438 112.72 67.9478 112.384C67.0518 112.032 66.3638 111.536 65.8838 110.896C65.4038 110.24 65.1638 109.464 65.1638 108.568C65.1638 107.624 65.4118 106.816 65.9078 106.144C66.4198 105.456 67.1318 104.928 68.0438 104.56C68.9558 104.192 70.0118 104.008 71.2118 104.008C72.4278 104.008 73.4918 104.192 74.4038 104.56C75.3158 104.928 76.0278 105.456 76.5398 106.144C77.0518 106.816 77.3078 107.624 77.3078 108.568C77.3078 109.464 77.0678 110.24 76.5878 110.896C76.1078 111.536 75.4118 112.032 74.4998 112.384C73.5878 112.72 72.4918 112.888 71.2118 112.888ZM71.2118 111.352C72.3798 111.352 73.2918 111.112 73.9478 110.632C74.6198 110.152 74.9558 109.496 74.9558 108.664C74.9558 107.816 74.6118 107.152 73.9238 106.672C73.2358 106.192 72.3318 105.952 71.2118 105.952C70.0918 105.952 69.1958 106.192 68.5238 106.672C67.8678 107.152 67.5398 107.816 67.5398 108.664C67.5398 109.496 67.8598 110.152 68.4998 110.632C69.1558 111.112 70.0598 111.352 71.2118 111.352ZM93.6064 121.192C92.1184 121.192 90.8464 120.864 89.7904 120.208C88.7344 119.552 87.9264 118.608 87.3664 117.376C86.8224 116.128 86.5504 114.608 86.5504 112.816C86.5504 110.912 86.8864 109.304 87.5584 107.992C88.2304 106.68 89.1664 105.688 90.3664 105.016C91.5664 104.344 92.9424 104.008 94.4944 104.008C95.2944 104.008 96.0544 104.088 96.7744 104.248C97.5104 104.408 98.1424 104.656 98.6704 104.992L97.7584 106.864C97.3264 106.56 96.8304 106.352 96.2704 106.24C95.7264 106.128 95.1504 106.072 94.5424 106.072C92.8304 106.072 91.4704 106.608 90.4624 107.68C89.4544 108.736 88.9504 110.312 88.9504 112.408C88.9504 112.744 88.9664 113.144 88.9984 113.608C89.0304 114.072 89.1104 114.528 89.2384 114.976L88.4224 114.16C88.6624 113.424 89.0384 112.808 89.5504 112.312C90.0784 111.8 90.7024 111.424 91.4224 111.184C92.1584 110.928 92.9504 110.8 93.7984 110.8C94.9184 110.8 95.9104 111.008 96.7744 111.424C97.6384 111.84 98.3184 112.432 98.8144 113.2C99.3104 113.952 99.5584 114.848 99.5584 115.888C99.5584 116.96 99.2944 117.896 98.7664 118.696C98.2384 119.496 97.5264 120.112 96.6304 120.544C95.7344 120.976 94.7264 121.192 93.6064 121.192ZM93.5104 119.248C94.2464 119.248 94.8864 119.112 95.4304 118.84C95.9904 118.568 96.4304 118.192 96.7504 117.712C97.0704 117.216 97.2304 116.64 97.2304 115.984C97.2304 114.992 96.8864 114.208 96.1984 113.632C95.5104 113.04 94.5744 112.744 93.3904 112.744C92.6224 112.744 91.9504 112.888 91.3744 113.176C90.7984 113.464 90.3424 113.856 90.0064 114.352C89.6864 114.832 89.5264 115.384 89.5264 116.008C89.5264 116.584 89.6784 117.12 89.9824 117.616C90.2864 118.096 90.7344 118.488 91.3264 118.792C91.9184 119.096 92.6464 119.248 93.5104 119.248ZM106.499 121.192C105.315 121.192 104.163 121.008 103.043 120.64C101.939 120.272 101.035 119.776 100.331 119.152L101.435 117.256C101.995 117.784 102.723 118.216 103.619 118.552C104.515 118.888 105.475 119.056 106.499 119.056C107.747 119.056 108.715 118.792 109.403 118.264C110.107 117.72 110.459 116.992 110.459 116.08C110.459 115.2 110.123 114.496 109.451 113.968C108.795 113.424 107.747 113.152 106.307 113.152H104.963V111.472L109.955 105.328L110.291 106.288H101.099V104.2H112.187V105.832L107.219 111.952L105.971 111.208H106.763C108.795 111.208 110.315 111.664 111.323 112.576C112.347 113.488 112.859 114.648 112.859 116.056C112.859 117 112.627 117.864 112.163 118.648C111.699 119.432 110.995 120.056 110.051 120.52C109.123 120.968 107.939 121.192 106.499 121.192ZM121.961 121.192C120.649 121.192 119.473 120.856 118.433 120.184C117.409 119.512 116.593 118.536 115.985 117.256C115.393 115.976 115.097 114.424 115.097 112.6C115.097 110.776 115.393 109.224 115.985 107.944C116.593 106.664 117.409 105.688 118.433 105.016C119.473 104.344 120.649 104.008 121.961 104.008C123.257 104.008 124.425 104.344 125.465 105.016C126.505 105.688 127.321 106.664 127.913 107.944C128.505 109.224 128.801 110.776 128.801 112.6C128.801 114.424 128.505 115.976 127.913 117.256C127.321 118.536 126.505 119.512 125.465 120.184C124.425 120.856 123.257 121.192 121.961 121.192ZM121.961 119.056C122.841 119.056 123.609 118.816 124.265 118.336C124.937 117.856 125.457 117.136 125.825 116.176C126.209 115.216 126.401 114.024 126.401 112.6C126.401 111.176 126.209 109.984 125.825 109.024C125.457 108.064 124.937 107.344 124.265 106.864C123.609 106.384 122.841 106.144 121.961 106.144C121.081 106.144 120.305 106.384 119.633 106.864C118.961 107.344 118.433 108.064 118.049 109.024C117.681 109.984 117.497 111.176 117.497 112.6C117.497 114.024 117.681 115.216 118.049 116.176C118.433 117.136 118.961 117.856 119.633 118.336C120.305 118.816 121.081 119.056 121.961 119.056ZM133.121 121V104.2H139.721C141.881 104.2 143.585 104.68 144.833 105.64C146.081 106.584 146.705 107.968 146.705 109.792C146.705 111.616 146.081 113.008 144.833 113.968C143.585 114.928 141.881 115.408 139.721 115.408H134.465L135.545 114.28V121H133.121ZM135.545 114.52L134.465 113.416H139.721C141.193 113.416 142.321 113.104 143.105 112.48C143.889 111.856 144.281 110.968 144.281 109.816C144.281 108.68 143.889 107.808 143.105 107.2C142.321 106.592 141.193 106.288 139.721 106.288H134.465L135.545 105.088V114.52ZM130.673 118.192V116.824H140.873V118.192H130.673Z" fill="#161617"></path> <path d="M235.136 114.128C234.229 114.128 233.445 113.995 232.784 113.728C232.123 113.461 231.611 113.083 231.248 112.592C230.885 112.091 230.704 111.504 230.704 110.832C230.704 110.171 230.875 109.611 231.216 109.152C231.568 108.683 232.075 108.331 232.736 108.096C233.397 107.851 234.197 107.728 235.136 107.728C236.075 107.728 236.875 107.851 237.536 108.096C238.208 108.331 238.72 108.683 239.072 109.152C239.424 109.621 239.6 110.181 239.6 110.832C239.6 111.504 239.419 112.091 239.056 112.592C238.693 113.083 238.176 113.461 237.504 113.728C236.832 113.995 236.043 114.128 235.136 114.128ZM235.136 112.832C236.032 112.832 236.731 112.651 237.232 112.288C237.744 111.915 238 111.413 238 110.784C238 110.165 237.744 109.68 237.232 109.328C236.731 108.965 236.032 108.784 235.136 108.784C234.251 108.784 233.557 108.965 233.056 109.328C232.555 109.68 232.304 110.165 232.304 110.784C232.304 111.413 232.555 111.915 233.056 112.288C233.557 112.651 234.251 112.832 235.136 112.832ZM235.136 108.592C234.283 108.592 233.557 108.48 232.96 108.256C232.363 108.021 231.904 107.691 231.584 107.264C231.264 106.827 231.104 106.309 231.104 105.712C231.104 105.083 231.269 104.544 231.6 104.096C231.941 103.637 232.416 103.285 233.024 103.04C233.632 102.795 234.336 102.672 235.136 102.672C235.947 102.672 236.656 102.795 237.264 103.04C237.872 103.285 238.347 103.637 238.688 104.096C239.029 104.544 239.2 105.083 239.2 105.712C239.2 106.309 239.04 106.827 238.72 107.264C238.4 107.691 237.936 108.021 237.328 108.256C236.72 108.48 235.989 108.592 235.136 108.592ZM235.136 107.568C235.915 107.568 236.523 107.408 236.96 107.088C237.408 106.768 237.632 106.331 237.632 105.776C237.632 105.211 237.403 104.768 236.944 104.448C236.485 104.128 235.883 103.968 235.136 103.968C234.389 103.968 233.792 104.128 233.344 104.448C232.907 104.768 232.688 105.211 232.688 105.776C232.688 106.331 232.901 106.768 233.328 107.088C233.765 107.408 234.368 107.568 235.136 107.568ZM242.445 114L250.093 102.8H251.325L243.677 114H242.445ZM243.341 108.816C242.829 108.816 242.375 108.688 241.981 108.432C241.586 108.176 241.277 107.819 241.053 107.36C240.839 106.901 240.733 106.368 240.733 105.76C240.733 105.152 240.839 104.619 241.053 104.16C241.277 103.701 241.586 103.344 241.981 103.088C242.375 102.832 242.829 102.704 243.341 102.704C243.863 102.704 244.317 102.832 244.701 103.088C245.095 103.344 245.399 103.701 245.613 104.16C245.826 104.619 245.933 105.152 245.933 105.76C245.933 106.368 245.826 106.901 245.613 107.36C245.399 107.819 245.095 108.176 244.701 108.432C244.317 108.688 243.863 108.816 243.341 108.816ZM243.341 107.904C243.831 107.904 244.215 107.717 244.493 107.344C244.77 106.96 244.909 106.432 244.909 105.76C244.909 105.088 244.77 104.565 244.493 104.192C244.215 103.808 243.831 103.616 243.341 103.616C242.861 103.616 242.477 103.808 242.189 104.192C241.911 104.565 241.773 105.088 241.773 105.76C241.773 106.421 241.911 106.944 242.189 107.328C242.477 107.712 242.861 107.904 243.341 107.904ZM250.429 114.096C249.917 114.096 249.463 113.968 249.069 113.712C248.674 113.456 248.37 113.099 248.157 112.64C247.943 112.181 247.837 111.648 247.837 111.04C247.837 110.432 247.943 109.899 248.157 109.44C248.37 108.981 248.674 108.624 249.069 108.368C249.463 108.112 249.917 107.984 250.429 107.984C250.951 107.984 251.405 108.112 251.789 108.368C252.183 108.624 252.487 108.981 252.701 109.44C252.925 109.899 253.037 110.432 253.037 111.04C253.037 111.648 252.925 112.181 252.701 112.64C252.487 113.099 252.183 113.456 251.789 113.712C251.405 113.968 250.951 114.096 250.429 114.096ZM250.429 113.184C250.909 113.184 251.287 112.997 251.565 112.624C251.853 112.24 251.997 111.712 251.997 111.04C251.997 110.379 251.853 109.856 251.565 109.472C251.287 109.088 250.909 108.896 250.429 108.896C249.949 108.896 249.565 109.088 249.277 109.472C248.999 109.845 248.861 110.368 248.861 111.04C248.861 111.712 248.999 112.24 249.277 112.624C249.565 112.997 249.949 113.184 250.429 113.184Z" fill="#2CCC39"></path> <path d="M254 143H16V145H254V143Z" fill="#DDDDDD" mask="url(#path-36-inside-1_2152_2625)"></path> <path d="M22.8 178.096C21.9573 178.096 21.1733 177.957 20.448 177.68C19.7333 177.392 19.1093 176.992 18.576 176.48C18.0533 175.957 17.6427 175.355 17.344 174.672C17.056 173.979 16.912 173.221 16.912 172.4C16.912 171.579 17.056 170.827 17.344 170.144C17.6427 169.451 18.0533 168.848 18.576 168.336C19.1093 167.813 19.7333 167.413 20.448 167.136C21.1627 166.848 21.9467 166.704 22.8 166.704C23.6427 166.704 24.4213 166.848 25.136 167.136C25.8507 167.413 26.4693 167.808 26.992 168.32C27.5253 168.832 27.936 169.435 28.224 170.128C28.5227 170.821 28.672 171.579 28.672 172.4C28.672 173.221 28.5227 173.979 28.224 174.672C27.936 175.365 27.5253 175.968 26.992 176.48C26.4693 176.992 25.8507 177.392 25.136 177.68C24.4213 177.957 23.6427 178.096 22.8 178.096ZM22.8 177.04C23.472 177.04 24.0907 176.928 24.656 176.704C25.232 176.469 25.728 176.144 26.144 175.728C26.5707 175.301 26.9013 174.811 27.136 174.256C27.3707 173.691 27.488 173.072 27.488 172.4C27.488 171.728 27.3707 171.115 27.136 170.56C26.9013 169.995 26.5707 169.504 26.144 169.088C25.728 168.661 25.232 168.336 24.656 168.112C24.0907 167.877 23.472 167.76 22.8 167.76C22.128 167.76 21.504 167.877 20.928 168.112C20.352 168.336 19.8507 168.661 19.424 169.088C19.008 169.504 18.6773 169.995 18.432 170.56C18.1973 171.115 18.08 171.728 18.08 172.4C18.08 173.061 18.1973 173.675 18.432 174.24C18.6773 174.805 19.008 175.301 19.424 175.728C19.8507 176.144 20.352 176.469 20.928 176.704C21.504 176.928 22.128 177.04 22.8 177.04ZM36.4094 178.096C35.5667 178.096 34.7827 177.957 34.0574 177.68C33.3427 177.392 32.7187 176.992 32.1854 176.48C31.6627 175.957 31.252 175.355 30.9534 174.672C30.6654 173.979 30.5214 173.221 30.5214 172.4C30.5214 171.579 30.6654 170.827 30.9534 170.144C31.252 169.451 31.6627 168.848 32.1854 168.336C32.7187 167.813 33.3427 167.413 34.0574 167.136C34.772 166.848 35.556 166.704 36.4094 166.704C37.252 166.704 38.0307 166.848 38.7454 167.136C39.46 167.413 40.0787 167.808 40.6014 168.32C41.1347 168.832 41.5454 169.435 41.8334 170.128C42.132 170.821 42.2814 171.579 42.2814 172.4C42.2814 173.221 42.132 173.979 41.8334 174.672C41.5454 175.365 41.1347 175.968 40.6014 176.48C40.0787 176.992 39.46 177.392 38.7454 177.68C38.0307 177.957 37.252 178.096 36.4094 178.096ZM36.4094 177.04C37.0814 177.04 37.7 176.928 38.2654 176.704C38.8414 176.469 39.3374 176.144 39.7534 175.728C40.18 175.301 40.5107 174.811 40.7454 174.256C40.98 173.691 41.0974 173.072 41.0974 172.4C41.0974 171.728 40.98 171.115 40.7454 170.56C40.5107 169.995 40.18 169.504 39.7534 169.088C39.3374 168.661 38.8414 168.336 38.2654 168.112C37.7 167.877 37.0814 167.76 36.4094 167.76C35.7374 167.76 35.1134 167.877 34.5374 168.112C33.9614 168.336 33.46 168.661 33.0334 169.088C32.6174 169.504 32.2867 169.995 32.0414 170.56C31.8067 171.115 31.6894 171.728 31.6894 172.4C31.6894 173.061 31.8067 173.675 32.0414 174.24C32.2867 174.805 32.6174 175.301 33.0334 175.728C33.46 176.144 33.9614 176.469 34.5374 176.704C35.1134 176.928 35.7374 177.04 36.4094 177.04ZM50.0188 178.096C49.1761 178.096 48.3921 177.957 47.6668 177.68C46.9521 177.392 46.3281 176.992 45.7948 176.48C45.2721 175.957 44.8614 175.355 44.5628 174.672C44.2748 173.979 44.1308 173.221 44.1308 172.4C44.1308 171.579 44.2748 170.827 44.5628 170.144C44.8614 169.451 45.2721 168.848 45.7948 168.336C46.3281 167.813 46.9521 167.413 47.6668 167.136C48.3814 166.848 49.1654 166.704 50.0188 166.704C50.8614 166.704 51.6401 166.848 52.3548 167.136C53.0694 167.413 53.6881 167.808 54.2108 168.32C54.7441 168.832 55.1548 169.435 55.4428 170.128C55.7414 170.821 55.8908 171.579 55.8908 172.4C55.8908 173.221 55.7414 173.979 55.4428 174.672C55.1548 175.365 54.7441 175.968 54.2108 176.48C53.6881 176.992 53.0694 177.392 52.3548 177.68C51.6401 177.957 50.8614 178.096 50.0188 178.096ZM50.0188 177.04C50.6908 177.04 51.3094 176.928 51.8748 176.704C52.4508 176.469 52.9468 176.144 53.3628 175.728C53.7894 175.301 54.1201 174.811 54.3548 174.256C54.5894 173.691 54.7068 173.072 54.7068 172.4C54.7068 171.728 54.5894 171.115 54.3548 170.56C54.1201 169.995 53.7894 169.504 53.3628 169.088C52.9468 168.661 52.4508 168.336 51.8748 168.112C51.3094 167.877 50.6908 167.76 50.0188 167.76C49.3468 167.76 48.7228 167.877 48.1468 168.112C47.5708 168.336 47.0694 168.661 46.6428 169.088C46.2268 169.504 45.8961 169.995 45.6508 170.56C45.4161 171.115 45.2988 171.728 45.2988 172.4C45.2988 173.061 45.4161 173.675 45.6508 174.24C45.8961 174.805 46.2268 175.301 46.6428 175.728C47.0694 176.144 47.5708 176.469 48.1468 176.704C48.7228 176.928 49.3468 177.04 50.0188 177.04ZM67.7996 178.096C66.957 178.096 66.1783 177.957 65.4636 177.68C64.749 177.392 64.1303 176.992 63.6076 176.48C63.085 175.968 62.6743 175.365 62.3756 174.672C62.0876 173.979 61.9436 173.221 61.9436 172.4C61.9436 171.579 62.0876 170.821 62.3756 170.128C62.6743 169.435 63.085 168.832 63.6076 168.32C64.141 167.808 64.765 167.413 65.4796 167.136C66.1943 166.848 66.973 166.704 67.8156 166.704C68.6263 166.704 69.389 166.843 70.1036 167.12C70.8183 167.387 71.421 167.792 71.9116 168.336L71.1596 169.088C70.701 168.619 70.1943 168.283 69.6396 168.08C69.085 167.867 68.4876 167.76 67.8476 167.76C67.1756 167.76 66.5516 167.877 65.9756 168.112C65.3996 168.336 64.8983 168.661 64.4716 169.088C64.045 169.504 63.709 169.995 63.4636 170.56C63.229 171.115 63.1116 171.728 63.1116 172.4C63.1116 173.072 63.229 173.691 63.4636 174.256C63.709 174.811 64.045 175.301 64.4716 175.728C64.8983 176.144 65.3996 176.469 65.9756 176.704C66.5516 176.928 67.1756 177.04 67.8476 177.04C68.4876 177.04 69.085 176.933 69.6396 176.72C70.1943 176.507 70.701 176.165 71.1596 175.696L71.9116 176.448C71.421 176.992 70.8183 177.403 70.1036 177.68C69.389 177.957 68.621 178.096 67.7996 178.096ZM74.0848 178V169.6H81.6368V178H80.5008V170.288L80.7888 170.592H74.9328L75.2208 170.288V178H74.0848ZM88.466 178.08C87.5913 178.08 86.8233 177.899 86.162 177.536C85.5007 177.163 84.9833 176.656 84.61 176.016C84.2367 175.365 84.05 174.624 84.05 173.792C84.05 172.96 84.226 172.224 84.578 171.584C84.9407 170.944 85.4313 170.443 86.05 170.08C86.6793 169.707 87.3833 169.52 88.162 169.52C88.9513 169.52 89.65 169.701 90.258 170.064C90.8767 170.416 91.362 170.917 91.714 171.568C92.066 172.208 92.242 172.949 92.242 173.792C92.242 173.845 92.2367 173.904 92.226 173.968C92.226 174.021 92.226 174.08 92.226 174.144H84.914V173.296H91.618L91.17 173.632C91.17 173.024 91.0367 172.485 90.77 172.016C90.514 171.536 90.162 171.163 89.714 170.896C89.266 170.629 88.7487 170.496 88.162 170.496C87.586 170.496 87.0687 170.629 86.61 170.896C86.1513 171.163 85.794 171.536 85.538 172.016C85.282 172.496 85.154 173.045 85.154 173.664V173.84C85.154 174.48 85.2927 175.045 85.57 175.536C85.858 176.016 86.2527 176.395 86.754 176.672C87.266 176.939 87.8473 177.072 88.498 177.072C89.01 177.072 89.4847 176.981 89.922 176.8C90.37 176.619 90.754 176.341 91.074 175.968L91.714 176.704C91.3407 177.152 90.8713 177.493 90.306 177.728C89.7513 177.963 89.138 178.08 88.466 178.08ZM94.7566 178V169.6H95.8926V177.008H101.029V169.6H102.165V178H94.7566ZM102.453 180.032V177.904L102.741 178H101.029V177.008H103.525V180.032H102.453ZM109.214 178.08C108.382 178.08 107.635 177.899 106.974 177.536C106.323 177.163 105.811 176.656 105.438 176.016C105.065 175.365 104.878 174.624 104.878 173.792C104.878 172.949 105.065 172.208 105.438 171.568C105.811 170.928 106.323 170.427 106.974 170.064C107.635 169.701 108.382 169.52 109.214 169.52C109.929 169.52 110.574 169.659 111.15 169.936C111.726 170.213 112.179 170.629 112.51 171.184L111.662 171.76C111.374 171.333 111.017 171.019 110.59 170.816C110.163 170.613 109.699 170.512 109.198 170.512C108.601 170.512 108.062 170.651 107.582 170.928C107.102 171.195 106.723 171.573 106.446 172.064C106.169 172.555 106.03 173.131 106.03 173.792C106.03 174.453 106.169 175.029 106.446 175.52C106.723 176.011 107.102 176.395 107.582 176.672C108.062 176.939 108.601 177.072 109.198 177.072C109.699 177.072 110.163 176.971 110.59 176.768C111.017 176.565 111.374 176.256 111.662 175.84L112.51 176.416C112.179 176.96 111.726 177.376 111.15 177.664C110.574 177.941 109.929 178.08 109.214 178.08ZM116.154 178V170.288L116.442 170.592H112.97V169.6H120.474V170.592H117.002L117.29 170.288V178H116.154ZM126.452 178.08C125.727 178.08 125.071 177.915 124.484 177.584C123.897 177.243 123.428 176.757 123.076 176.128C122.735 175.488 122.564 174.709 122.564 173.792C122.564 172.875 122.735 172.101 123.076 171.472C123.417 170.832 123.881 170.347 124.468 170.016C125.055 169.685 125.716 169.52 126.452 169.52C127.252 169.52 127.967 169.701 128.596 170.064C129.236 170.416 129.737 170.917 130.1 171.568C130.463 172.208 130.644 172.949 130.644 173.792C130.644 174.645 130.463 175.392 130.1 176.032C129.737 176.672 129.236 177.173 128.596 177.536C127.967 177.899 127.252 178.08 126.452 178.08ZM122.116 181.104V169.6H123.204V172.128L123.092 173.808L123.252 175.504V181.104H122.116ZM126.372 177.072C126.969 177.072 127.503 176.939 127.972 176.672C128.441 176.395 128.815 176.011 129.092 175.52C129.369 175.019 129.508 174.443 129.508 173.792C129.508 173.141 129.369 172.571 129.092 172.08C128.815 171.589 128.441 171.205 127.972 170.928C127.503 170.651 126.969 170.512 126.372 170.512C125.775 170.512 125.236 170.651 124.756 170.928C124.287 171.205 123.913 171.589 123.636 172.08C123.369 172.571 123.236 173.141 123.236 173.792C123.236 174.443 123.369 175.019 123.636 175.52C123.913 176.011 124.287 176.395 124.756 176.672C125.236 176.939 125.775 177.072 126.372 177.072ZM136.541 178.08C135.73 178.08 134.999 177.899 134.349 177.536C133.709 177.163 133.202 176.656 132.829 176.016C132.455 175.365 132.269 174.624 132.269 173.792C132.269 172.949 132.455 172.208 132.829 171.568C133.202 170.928 133.709 170.427 134.349 170.064C134.989 169.701 135.719 169.52 136.541 169.52C137.373 169.52 138.109 169.701 138.749 170.064C139.399 170.427 139.906 170.928 140.269 171.568C140.642 172.208 140.829 172.949 140.829 173.792C140.829 174.624 140.642 175.365 140.269 176.016C139.906 176.656 139.399 177.163 138.749 177.536C138.098 177.899 137.362 178.08 136.541 178.08ZM136.541 177.072C137.149 177.072 137.687 176.939 138.157 176.672C138.626 176.395 138.994 176.011 139.261 175.52C139.538 175.019 139.677 174.443 139.677 173.792C139.677 173.131 139.538 172.555 139.261 172.064C138.994 171.573 138.626 171.195 138.157 170.928C137.687 170.651 137.154 170.512 136.557 170.512C135.959 170.512 135.426 170.651 134.957 170.928C134.487 171.195 134.114 171.573 133.837 172.064C133.559 172.555 133.421 173.131 133.421 173.792C133.421 174.443 133.559 175.019 133.837 175.52C134.114 176.011 134.487 176.395 134.957 176.672C135.426 176.939 135.954 177.072 136.541 177.072ZM143.257 178V169.6H144.393V176.272L150.009 169.6H151.017V178H149.881V171.312L144.281 178H143.257ZM147.065 168.384C146.361 168.384 145.79 168.208 145.353 167.856C144.926 167.493 144.702 166.976 144.681 166.304H145.497C145.507 166.731 145.657 167.067 145.945 167.312C146.233 167.557 146.606 167.68 147.065 167.68C147.523 167.68 147.897 167.557 148.185 167.312C148.483 167.067 148.638 166.731 148.649 166.304H149.465C149.454 166.976 149.23 167.493 148.793 167.856C148.355 168.208 147.779 168.384 147.065 168.384ZM158.46 178V169.6H159.612L163.42 176.048H162.94L166.812 169.6H167.868V178H166.828V170.896L167.036 170.992L163.42 176.976H162.908L159.26 170.928L159.5 170.88V178H158.46ZM174.556 178.08C173.746 178.08 173.015 177.899 172.364 177.536C171.724 177.163 171.218 176.656 170.844 176.016C170.471 175.365 170.284 174.624 170.284 173.792C170.284 172.949 170.471 172.208 170.844 171.568C171.218 170.928 171.724 170.427 172.364 170.064C173.004 169.701 173.735 169.52 174.556 169.52C175.388 169.52 176.124 169.701 176.764 170.064C177.415 170.427 177.922 170.928 178.284 171.568C178.658 172.208 178.844 172.949 178.844 173.792C178.844 174.624 178.658 175.365 178.284 176.016C177.922 176.656 177.415 177.163 176.764 177.536C176.114 177.899 175.378 178.08 174.556 178.08ZM174.556 177.072C175.164 177.072 175.703 176.939 176.172 176.672C176.642 176.395 177.01 176.011 177.276 175.52C177.554 175.019 177.692 174.443 177.692 173.792C177.692 173.131 177.554 172.555 177.276 172.064C177.01 171.573 176.642 171.195 176.172 170.928C175.703 170.651 175.17 170.512 174.572 170.512C173.975 170.512 173.442 170.651 172.972 170.928C172.503 171.195 172.13 171.573 171.852 172.064C171.575 172.555 171.436 173.131 171.436 173.792C171.436 174.443 171.575 175.019 171.852 175.52C172.13 176.011 172.503 176.395 172.972 176.672C173.442 176.939 173.97 177.072 174.556 177.072ZM181.272 178V169.6H182.408V173.312H187.704V169.6H188.84V178H187.704V174.288H182.408V178H181.272ZM193.669 178V170.288L193.957 170.592H190.485V169.6H197.989V170.592H194.517L194.805 170.288V178H193.669ZM204.848 178V176.144L204.8 175.84V172.736C204.8 172.021 204.597 171.472 204.192 171.088C203.797 170.704 203.205 170.512 202.416 170.512C201.872 170.512 201.354 170.603 200.864 170.784C200.373 170.965 199.957 171.205 199.616 171.504L199.104 170.656C199.53 170.293 200.042 170.016 200.64 169.824C201.237 169.621 201.866 169.52 202.528 169.52C203.616 169.52 204.453 169.792 205.04 170.336C205.637 170.869 205.936 171.685 205.936 172.784V178H204.848ZM201.952 178.08C201.322 178.08 200.773 177.979 200.304 177.776C199.845 177.563 199.493 177.275 199.248 176.912C199.002 176.539 198.88 176.112 198.88 175.632C198.88 175.195 198.981 174.8 199.184 174.448C199.397 174.085 199.738 173.797 200.208 173.584C200.688 173.36 201.328 173.248 202.128 173.248H205.024V174.096H202.16C201.349 174.096 200.784 174.24 200.464 174.528C200.154 174.816 200 175.173 200 175.6C200 176.08 200.186 176.464 200.56 176.752C200.933 177.04 201.456 177.184 202.128 177.184C202.768 177.184 203.317 177.04 203.776 176.752C204.245 176.453 204.586 176.027 204.8 175.472L205.056 176.256C204.842 176.811 204.469 177.253 203.936 177.584C203.413 177.915 202.752 178.08 201.952 178.08ZM218.928 178L216.048 173.84L216.992 173.28L220.288 178H218.928ZM214.16 174.256V173.28H216.816V174.256H214.16ZM217.104 173.92L216.016 173.76L218.816 169.6H220.048L217.104 173.92ZM208.976 178H207.616L210.912 173.28L211.84 173.84L208.976 178ZM214.512 178H213.376V169.6H214.512V178ZM213.728 174.256H211.088V173.28H213.728V174.256ZM210.816 173.92L207.856 169.6H209.088L211.872 173.76L210.816 173.92ZM222.179 178V169.6H223.315V173.312H228.611V169.6H229.747V178H228.611V174.288H223.315V178H222.179ZM241.167 178V169.6H242.303V178H241.167ZM236.511 172.56C237.567 172.571 238.373 172.805 238.927 173.264C239.482 173.723 239.759 174.384 239.759 175.248C239.759 176.144 239.461 176.832 238.863 177.312C238.266 177.792 237.413 178.027 236.303 178.016L232.975 178V169.6H234.111V172.528L236.511 172.56ZM236.223 177.152C237.013 177.163 237.605 177.008 237.999 176.688C238.405 176.357 238.607 175.877 238.607 175.248C238.607 174.619 238.41 174.16 238.015 173.872C237.621 173.573 237.023 173.419 236.223 173.408L234.111 173.376V177.12L236.223 177.152ZM249.138 178.08C248.263 178.08 247.495 177.899 246.834 177.536C246.173 177.163 245.655 176.656 245.282 176.016C244.909 175.365 244.722 174.624 244.722 173.792C244.722 172.96 244.898 172.224 245.25 171.584C245.613 170.944 246.103 170.443 246.722 170.08C247.351 169.707 248.055 169.52 248.834 169.52C249.623 169.52 250.322 169.701 250.93 170.064C251.549 170.416 252.034 170.917 252.386 171.568C252.738 172.208 252.914 172.949 252.914 173.792C252.914 173.845 252.909 173.904 252.898 173.968C252.898 174.021 252.898 174.08 252.898 174.144H245.586V173.296H252.29L251.842 173.632C251.842 173.024 251.709 172.485 251.442 172.016C251.186 171.536 250.834 171.163 250.386 170.896C249.938 170.629 249.421 170.496 248.834 170.496C248.258 170.496 247.741 170.629 247.282 170.896C246.823 171.163 246.466 171.536 246.21 172.016C245.954 172.496 245.826 173.045 245.826 173.664V173.84C245.826 174.48 245.965 175.045 246.242 175.536C246.53 176.016 246.925 176.395 247.426 176.672C247.938 176.939 248.519 177.072 249.17 177.072C249.682 177.072 250.157 176.981 250.594 176.8C251.042 176.619 251.426 176.341 251.746 175.968L252.386 176.704C252.013 177.152 251.543 177.493 250.978 177.728C250.423 177.963 249.81 178.08 249.138 178.08ZM21.136 202.08C20.304 202.08 19.5573 201.899 18.896 201.536C18.2453 201.163 17.7333 200.656 17.36 200.016C16.9867 199.365 16.8 198.624 16.8 197.792C16.8 196.949 16.9867 196.208 17.36 195.568C17.7333 194.928 18.2453 194.427 18.896 194.064C19.5573 193.701 20.304 193.52 21.136 193.52C21.8507 193.52 22.496 193.659 23.072 193.936C23.648 194.213 24.1013 194.629 24.432 195.184L23.584 195.76C23.296 195.333 22.9387 195.019 22.512 194.816C22.0853 194.613 21.6213 194.512 21.12 194.512C20.5227 194.512 19.984 194.651 19.504 194.928C19.024 195.195 18.6453 195.573 18.368 196.064C18.0907 196.555 17.952 197.131 17.952 197.792C17.952 198.453 18.0907 199.029 18.368 199.52C18.6453 200.011 19.024 200.395 19.504 200.672C19.984 200.939 20.5227 201.072 21.12 201.072C21.6213 201.072 22.0853 200.971 22.512 200.768C22.9387 200.565 23.296 200.256 23.584 199.84L24.432 200.416C24.1013 200.96 23.648 201.376 23.072 201.664C22.496 201.941 21.8507 202.08 21.136 202.08ZM26.6316 202V193.6H27.7676V200.272L33.3836 193.6H34.3916V202H33.2556V195.312L27.6556 202H26.6316ZM41.1673 202.08C40.3353 202.08 39.5886 201.899 38.9273 201.536C38.2766 201.163 37.7646 200.656 37.3913 200.016C37.0179 199.365 36.8313 198.624 36.8313 197.792C36.8313 196.949 37.0179 196.208 37.3913 195.568C37.7646 194.928 38.2766 194.427 38.9273 194.064C39.5886 193.701 40.3353 193.52 41.1673 193.52C41.8819 193.52 42.5273 193.659 43.1033 193.936C43.6793 194.213 44.1326 194.629 44.4633 195.184L43.6153 195.76C43.3273 195.333 42.9699 195.019 42.5433 194.816C42.1166 194.613 41.6526 194.512 41.1513 194.512C40.5539 194.512 40.0153 194.651 39.5353 194.928C39.0553 195.195 38.6766 195.573 38.3993 196.064C38.1219 196.555 37.9833 197.131 37.9833 197.792C37.9833 198.453 38.1219 199.029 38.3993 199.52C38.6766 200.011 39.0553 200.395 39.5353 200.672C40.0153 200.939 40.5539 201.072 41.1513 201.072C41.6526 201.072 42.1166 200.971 42.5433 200.768C42.9699 200.565 43.3273 200.256 43.6153 199.84L44.4633 200.416C44.1326 200.96 43.6793 201.376 43.1033 201.664C42.5273 201.941 41.8819 202.08 41.1673 202.08ZM48.1066 202V194.288L48.3946 194.592H44.9226V193.6H52.4266V194.592H48.9546L49.2426 194.288V202H48.1066ZM57.2785 202.08C56.4038 202.08 55.6358 201.899 54.9745 201.536C54.3132 201.163 53.7958 200.656 53.4225 200.016C53.0492 199.365 52.8625 198.624 52.8625 197.792C52.8625 196.96 53.0385 196.224 53.3905 195.584C53.7532 194.944 54.2438 194.443 54.8625 194.08C55.4918 193.707 56.1958 193.52 56.9745 193.52C57.7638 193.52 58.4625 193.701 59.0705 194.064C59.6892 194.416 60.1745 194.917 60.5265 195.568C60.8785 196.208 61.0545 196.949 61.0545 197.792C61.0545 197.845 61.0492 197.904 61.0385 197.968C61.0385 198.021 61.0385 198.08 61.0385 198.144H53.7265V197.296H60.4305L59.9825 197.632C59.9825 197.024 59.8492 196.485 59.5825 196.016C59.3265 195.536 58.9745 195.163 58.5265 194.896C58.0785 194.629 57.5612 194.496 56.9745 194.496C56.3985 194.496 55.8812 194.629 55.4225 194.896C54.9638 195.163 54.6065 195.536 54.3505 196.016C54.0945 196.496 53.9665 197.045 53.9665 197.664V197.84C53.9665 198.48 54.1052 199.045 54.3825 199.536C54.6705 200.016 55.0652 200.395 55.5665 200.672C56.0785 200.939 56.6598 201.072 57.3105 201.072C57.8225 201.072 58.2972 200.981 58.7345 200.8C59.1825 200.619 59.5665 200.341 59.8865 199.968L60.5265 200.704C60.1532 201.152 59.6838 201.493 59.1185 201.728C58.5638 201.963 57.9505 202.08 57.2785 202.08ZM63.5691 202V193.6H64.7211L68.5291 200.048H68.0491L71.9211 193.6H72.9771V202H71.9371V194.896L72.1451 194.992L68.5291 200.976H68.0171L64.3691 194.928L64.6091 194.88V202H63.5691ZM84.4018 202V193.6H85.5378V202H84.4018ZM79.7458 196.56C80.8018 196.571 81.6071 196.805 82.1618 197.264C82.7164 197.723 82.9938 198.384 82.9938 199.248C82.9938 200.144 82.6951 200.832 82.0978 201.312C81.5004 201.792 80.6471 202.027 79.5378 202.016L76.2098 202V193.6H77.3458V196.528L79.7458 196.56ZM79.4578 201.152C80.2471 201.163 80.8391 201.008 81.2338 200.688C81.6391 200.357 81.8418 199.877 81.8418 199.248C81.8418 198.619 81.6444 198.16 81.2498 197.872C80.8551 197.573 80.2578 197.419 79.4578 197.408L77.3458 197.376V201.12L79.4578 201.152Z" fill="#49494F"></path> <path d="M254 223H16V225H254V223Z" fill="#DDDDDD" mask="url(#path-40-inside-2_2152_2625)"></path> <path d="M16.49 252.824L16.868 252.082C17.2973 252.455 17.778 252.735 18.31 252.922C18.8513 253.099 19.3927 253.193 19.934 253.202C20.4753 253.202 20.97 253.123 21.418 252.964C21.8753 252.805 22.244 252.572 22.524 252.264C22.804 251.947 22.944 251.564 22.944 251.116C22.944 250.547 22.7153 250.108 22.258 249.8C21.81 249.492 21.1847 249.338 20.382 249.338H18.282V248.498H20.326C21.0167 248.498 21.5533 248.353 21.936 248.064C22.328 247.765 22.524 247.355 22.524 246.832C22.524 246.459 22.412 246.141 22.188 245.88C21.9733 245.609 21.6747 245.404 21.292 245.264C20.9187 245.115 20.4987 245.035 20.032 245.026C19.5653 245.007 19.08 245.068 18.576 245.208C18.0813 245.339 17.6007 245.549 17.134 245.838L16.798 244.984C17.3767 244.639 17.9787 244.401 18.604 244.27C19.2293 244.13 19.836 244.083 20.424 244.13C21.012 244.177 21.5393 244.312 22.006 244.536C22.482 244.76 22.86 245.054 23.14 245.418C23.42 245.782 23.56 246.216 23.56 246.72C23.56 247.187 23.4387 247.597 23.196 247.952C22.9627 248.307 22.6313 248.582 22.202 248.778C21.782 248.965 21.2827 249.058 20.704 249.058L20.76 248.75C21.4133 248.75 21.978 248.853 22.454 249.058C22.9393 249.263 23.3127 249.557 23.574 249.94C23.8447 250.313 23.98 250.752 23.98 251.256C23.98 251.732 23.8587 252.157 23.616 252.53C23.3827 252.894 23.056 253.202 22.636 253.454C22.2253 253.697 21.7633 253.874 21.25 253.986C20.7367 254.089 20.2 254.117 19.64 254.07C19.08 254.023 18.5293 253.902 17.988 253.706C17.4467 253.501 16.9473 253.207 16.49 252.824ZM30.8784 254V252.376L30.8364 252.11V249.394C30.8364 248.769 30.6591 248.288 30.3044 247.952C29.9591 247.616 29.4411 247.448 28.7504 247.448C28.2744 247.448 27.8217 247.527 27.3924 247.686C26.9631 247.845 26.5991 248.055 26.3004 248.316L25.8524 247.574C26.2257 247.257 26.6737 247.014 27.1964 246.846C27.7191 246.669 28.2697 246.58 28.8484 246.58C29.8004 246.58 30.5331 246.818 31.0464 247.294C31.5691 247.761 31.8304 248.475 31.8304 249.436V254H30.8784ZM28.3444 254.07C27.7937 254.07 27.3131 253.981 26.9024 253.804C26.5011 253.617 26.1931 253.365 25.9784 253.048C25.7637 252.721 25.6564 252.348 25.6564 251.928C25.6564 251.545 25.7451 251.2 25.9224 250.892C26.1091 250.575 26.4077 250.323 26.8184 250.136C27.2384 249.94 27.7984 249.842 28.4984 249.842H31.0324V250.584H28.5264C27.8171 250.584 27.3224 250.71 27.0424 250.962C26.7717 251.214 26.6364 251.527 26.6364 251.9C26.6364 252.32 26.7997 252.656 27.1264 252.908C27.4531 253.16 27.9104 253.286 28.4984 253.286C29.0584 253.286 29.5391 253.16 29.9404 252.908C30.3511 252.647 30.6497 252.273 30.8364 251.788L31.0604 252.474C30.8737 252.959 30.5471 253.347 30.0804 253.636C29.6231 253.925 29.0444 254.07 28.3444 254.07ZM39.8665 254L36.8425 250.36L37.6685 249.87L41.0425 254H39.8665ZM34.4765 254V246.65H35.4705V254H34.4765ZM35.1625 250.724V249.87H37.5285V250.724H35.1625ZM37.7525 250.43L36.8285 250.29L39.7545 246.65H40.8325L37.7525 250.43ZM42.3134 256.786C41.9681 256.786 41.6368 256.73 41.3194 256.618C41.0114 256.506 40.7454 256.338 40.5214 256.114L40.9834 255.372C41.1701 255.549 41.3708 255.685 41.5854 255.778C41.8094 255.881 42.0568 255.932 42.3274 255.932C42.6541 255.932 42.9341 255.839 43.1674 255.652C43.4101 255.475 43.6388 255.157 43.8534 254.7L44.3294 253.622L44.4414 253.468L47.4654 246.65H48.4454L44.7634 254.882C44.5581 255.358 44.3294 255.736 44.0774 256.016C43.8348 256.296 43.5688 256.492 43.2794 256.604C42.9901 256.725 42.6681 256.786 42.3134 256.786ZM44.2734 254.21L40.8854 246.65H41.9214L44.9174 253.398L44.2734 254.21ZM49.9941 254V246.65H56.6021V254H55.6081V247.252L55.8601 247.518H50.7361L50.9881 247.252V254H49.9941ZM64.8177 254L61.7937 250.36L62.6197 249.87L65.9937 254H64.8177ZM59.4277 254V246.65H60.4217V254H59.4277ZM60.1137 250.724V249.87H62.4797V250.724H60.1137ZM62.7037 250.43L61.7797 250.29L64.7057 246.65H65.7837L62.7037 250.43ZM71.9897 254V252.376L71.9477 252.11V249.394C71.9477 248.769 71.7704 248.288 71.4157 247.952C71.0704 247.616 70.5524 247.448 69.8617 247.448C69.3857 247.448 68.9331 247.527 68.5037 247.686C68.0744 247.845 67.7104 248.055 67.4117 248.316L66.9637 247.574C67.3371 247.257 67.7851 247.014 68.3077 246.846C68.8304 246.669 69.3811 246.58 69.9597 246.58C70.9117 246.58 71.6444 246.818 72.1577 247.294C72.6804 247.761 72.9417 248.475 72.9417 249.436V254H71.9897ZM69.4557 254.07C68.9051 254.07 68.4244 253.981 68.0137 253.804C67.6124 253.617 67.3044 253.365 67.0897 253.048C66.8751 252.721 66.7677 252.348 66.7677 251.928C66.7677 251.545 66.8564 251.2 67.0337 250.892C67.2204 250.575 67.5191 250.323 67.9297 250.136C68.3497 249.94 68.9097 249.842 69.6097 249.842H72.1437V250.584H69.6377C68.9284 250.584 68.4337 250.71 68.1537 250.962C67.8831 251.214 67.7477 251.527 67.7477 251.9C67.7477 252.32 67.9111 252.656 68.2377 252.908C68.5644 253.16 69.0217 253.286 69.6097 253.286C70.1697 253.286 70.6504 253.16 71.0517 252.908C71.4624 252.647 71.7611 252.273 71.9477 251.788L72.1717 252.474C71.9851 252.959 71.6584 253.347 71.1917 253.636C70.7344 253.925 70.1557 254.07 69.4557 254.07ZM82.2759 254.07C81.5666 254.07 80.9272 253.911 80.3579 253.594C79.7979 253.267 79.3546 252.824 79.0279 252.264C78.7012 251.695 78.5379 251.046 78.5379 250.318C78.5379 249.581 78.7012 248.932 79.0279 248.372C79.3546 247.812 79.7979 247.373 80.3579 247.056C80.9179 246.739 81.5572 246.58 82.2759 246.58C83.0039 246.58 83.6479 246.739 84.2079 247.056C84.7772 247.373 85.2206 247.812 85.5379 248.372C85.8646 248.932 86.0279 249.581 86.0279 250.318C86.0279 251.046 85.8646 251.695 85.5379 252.264C85.2206 252.824 84.7772 253.267 84.2079 253.594C83.6386 253.911 82.9946 254.07 82.2759 254.07ZM82.2759 253.188C82.8079 253.188 83.2792 253.071 83.6899 252.838C84.1006 252.595 84.4226 252.259 84.6559 251.83C84.8986 251.391 85.0199 250.887 85.0199 250.318C85.0199 249.739 84.8986 249.235 84.6559 248.806C84.4226 248.377 84.1006 248.045 83.6899 247.812C83.2792 247.569 82.8126 247.448 82.2899 247.448C81.7672 247.448 81.3006 247.569 80.8899 247.812C80.4792 248.045 80.1526 248.377 79.9099 248.806C79.6672 249.235 79.5459 249.739 79.5459 250.318C79.5459 250.887 79.6672 251.391 79.9099 251.83C80.1526 252.259 80.4792 252.595 80.8899 252.838C81.3006 253.071 81.7626 253.188 82.2759 253.188ZM91.4563 254.084C90.8589 254.084 90.3269 253.986 89.8603 253.79C89.4029 253.594 89.0109 253.295 88.6843 252.894C88.3576 252.493 88.1103 251.998 87.9423 251.41C87.7743 250.813 87.6903 250.122 87.6903 249.338C87.6903 248.638 87.7556 248.027 87.8863 247.504C88.0169 246.972 88.1989 246.515 88.4323 246.132C88.6656 245.749 88.9363 245.427 89.2443 245.166C89.5616 244.895 89.9023 244.681 90.2663 244.522C90.6396 244.354 91.0223 244.228 91.4143 244.144L94.7183 243.374L94.8863 244.298L91.7783 244.998C91.5823 245.045 91.3443 245.11 91.0643 245.194C90.7936 245.278 90.5136 245.404 90.2243 245.572C89.9443 245.74 89.6829 245.973 89.4403 246.272C89.1976 246.571 89.0016 246.958 88.8523 247.434C88.7123 247.901 88.6423 248.484 88.6423 249.184C88.6423 249.333 88.6469 249.455 88.6563 249.548C88.6656 249.632 88.6749 249.725 88.6843 249.828C88.7029 249.921 88.7169 250.061 88.7263 250.248L88.2923 249.884C88.3949 249.315 88.6049 248.82 88.9223 248.4C89.2396 247.971 89.6363 247.639 90.1123 247.406C90.5976 247.163 91.1343 247.042 91.7223 247.042C92.4036 247.042 93.0103 247.191 93.5423 247.49C94.0743 247.779 94.4896 248.185 94.7883 248.708C95.0963 249.231 95.2503 249.837 95.2503 250.528C95.2503 251.209 95.0916 251.821 94.7743 252.362C94.4663 252.903 94.0276 253.328 93.4583 253.636C92.8889 253.935 92.2216 254.084 91.4563 254.084ZM91.5683 253.258C92.0909 253.258 92.5529 253.141 92.9543 252.908C93.3556 252.665 93.6683 252.339 93.8923 251.928C94.1256 251.517 94.2423 251.055 94.2423 250.542C94.2423 250.038 94.1256 249.59 93.8923 249.198C93.6683 248.806 93.3556 248.498 92.9543 248.274C92.5529 248.041 92.0863 247.924 91.5543 247.924C91.0316 247.924 90.5696 248.036 90.1683 248.26C89.7669 248.475 89.4496 248.778 89.2163 249.17C88.9923 249.562 88.8803 250.015 88.8803 250.528C88.8803 251.041 88.9923 251.503 89.2163 251.914C89.4496 252.325 89.7669 252.651 90.1683 252.894C90.5789 253.137 91.0456 253.258 91.5683 253.258ZM100.405 254.07C99.6955 254.07 99.0561 253.911 98.4868 253.594C97.9268 253.267 97.4835 252.824 97.1568 252.264C96.8301 251.695 96.6668 251.046 96.6668 250.318C96.6668 249.581 96.8301 248.932 97.1568 248.372C97.4835 247.812 97.9268 247.373 98.4868 247.056C99.0468 246.739 99.6861 246.58 100.405 246.58C101.133 246.58 101.777 246.739 102.337 247.056C102.906 247.373 103.349 247.812 103.667 248.372C103.993 248.932 104.157 249.581 104.157 250.318C104.157 251.046 103.993 251.695 103.667 252.264C103.349 252.824 102.906 253.267 102.337 253.594C101.767 253.911 101.123 254.07 100.405 254.07ZM100.405 253.188C100.937 253.188 101.408 253.071 101.819 252.838C102.229 252.595 102.551 252.259 102.785 251.83C103.027 251.391 103.149 250.887 103.149 250.318C103.149 249.739 103.027 249.235 102.785 248.806C102.551 248.377 102.229 248.045 101.819 247.812C101.408 247.569 100.941 247.448 100.419 247.448C99.8961 247.448 99.4295 247.569 99.0188 247.812C98.6081 248.045 98.2815 248.377 98.0388 248.806C97.7961 249.235 97.6748 249.739 97.6748 250.318C97.6748 250.887 97.7961 251.391 98.0388 251.83C98.2815 252.259 98.6081 252.595 99.0188 252.838C99.4295 253.071 99.8915 253.188 100.405 253.188ZM110.075 254.07C109.441 254.07 108.867 253.925 108.353 253.636C107.84 253.337 107.429 252.913 107.121 252.362C106.823 251.802 106.673 251.121 106.673 250.318C106.673 249.515 106.823 248.839 107.121 248.288C107.42 247.728 107.826 247.303 108.339 247.014C108.853 246.725 109.431 246.58 110.075 246.58C110.775 246.58 111.401 246.739 111.951 247.056C112.511 247.364 112.95 247.803 113.267 248.372C113.585 248.932 113.743 249.581 113.743 250.318C113.743 251.065 113.585 251.718 113.267 252.278C112.95 252.838 112.511 253.277 111.951 253.594C111.401 253.911 110.775 254.07 110.075 254.07ZM106.281 256.716V246.65H107.233V248.862L107.135 250.332L107.275 251.816V256.716H106.281ZM110.005 253.188C110.528 253.188 110.995 253.071 111.405 252.838C111.816 252.595 112.143 252.259 112.385 251.83C112.628 251.391 112.749 250.887 112.749 250.318C112.749 249.749 112.628 249.249 112.385 248.82C112.143 248.391 111.816 248.055 111.405 247.812C110.995 247.569 110.528 247.448 110.005 247.448C109.483 247.448 109.011 247.569 108.591 247.812C108.181 248.055 107.854 248.391 107.611 248.82C107.378 249.249 107.261 249.749 107.261 250.318C107.261 250.887 107.378 251.391 107.611 251.83C107.854 252.259 108.181 252.595 108.591 252.838C109.011 253.071 109.483 253.188 110.005 253.188ZM115.8 256.786C115.454 256.786 115.123 256.73 114.806 256.618C114.498 256.506 114.232 256.338 114.008 256.114L114.47 255.372C114.656 255.549 114.857 255.685 115.072 255.778C115.296 255.881 115.543 255.932 115.814 255.932C116.14 255.932 116.42 255.839 116.654 255.652C116.896 255.475 117.125 255.157 117.34 254.7L117.816 253.622L117.928 253.468L120.952 246.65H121.932L118.25 254.882C118.044 255.358 117.816 255.736 117.564 256.016C117.321 256.296 117.055 256.492 116.766 256.604C116.476 256.725 116.154 256.786 115.8 256.786ZM117.76 254.21L114.372 246.65H115.408L118.404 253.398L117.76 254.21ZM128.206 253.524V247.518H124.664L124.58 249.156C124.561 249.651 124.529 250.136 124.482 250.612C124.445 251.088 124.375 251.527 124.272 251.928C124.179 252.32 124.043 252.642 123.866 252.894C123.689 253.137 123.46 253.277 123.18 253.314L122.186 253.132C122.475 253.141 122.713 253.039 122.9 252.824C123.087 252.6 123.231 252.297 123.334 251.914C123.437 251.531 123.511 251.097 123.558 250.612C123.605 250.117 123.642 249.613 123.67 249.1L123.768 246.65H129.2V253.524H128.206ZM121.878 255.778V253.132H130.348V255.778H129.41V254H122.816V255.778H121.878ZM135.309 254.07C134.6 254.07 133.96 253.911 133.391 253.594C132.831 253.267 132.388 252.824 132.061 252.264C131.734 251.695 131.571 251.046 131.571 250.318C131.571 249.581 131.734 248.932 132.061 248.372C132.388 247.812 132.831 247.373 133.391 247.056C133.951 246.739 134.59 246.58 135.309 246.58C136.037 246.58 136.681 246.739 137.241 247.056C137.81 247.373 138.254 247.812 138.571 248.372C138.898 248.932 139.061 249.581 139.061 250.318C139.061 251.046 138.898 251.695 138.571 252.264C138.254 252.824 137.81 253.267 137.241 253.594C136.672 253.911 136.028 254.07 135.309 254.07ZM135.309 253.188C135.841 253.188 136.312 253.071 136.723 252.838C137.134 252.595 137.456 252.259 137.689 251.83C137.932 251.391 138.053 250.887 138.053 250.318C138.053 249.739 137.932 249.235 137.689 248.806C137.456 248.377 137.134 248.045 136.723 247.812C136.312 247.569 135.846 247.448 135.323 247.448C134.8 247.448 134.334 247.569 133.923 247.812C133.512 248.045 133.186 248.377 132.943 248.806C132.7 249.235 132.579 249.739 132.579 250.318C132.579 250.887 132.7 251.391 132.943 251.83C133.186 252.259 133.512 252.595 133.923 252.838C134.334 253.071 134.796 253.188 135.309 253.188ZM141.185 254V246.65H144.433C145.264 246.65 145.917 246.809 146.393 247.126C146.879 247.443 147.121 247.91 147.121 248.526C147.121 249.123 146.893 249.585 146.435 249.912C145.978 250.229 145.376 250.388 144.629 250.388L144.825 250.094C145.703 250.094 146.347 250.257 146.757 250.584C147.168 250.911 147.373 251.382 147.373 251.998C147.373 252.633 147.14 253.127 146.673 253.482C146.216 253.827 145.502 254 144.531 254H141.185ZM142.151 253.216H144.489C145.115 253.216 145.586 253.118 145.903 252.922C146.23 252.717 146.393 252.39 146.393 251.942C146.393 251.494 146.249 251.167 145.959 250.962C145.67 250.757 145.213 250.654 144.587 250.654H142.151V253.216ZM142.151 249.912H144.363C144.933 249.912 145.367 249.805 145.665 249.59C145.973 249.375 146.127 249.063 146.127 248.652C146.127 248.241 145.973 247.933 145.665 247.728C145.367 247.523 144.933 247.42 144.363 247.42H142.151V249.912ZM154.267 254V252.376L154.225 252.11V249.394C154.225 248.769 154.048 248.288 153.693 247.952C153.348 247.616 152.83 247.448 152.139 247.448C151.663 247.448 151.21 247.527 150.781 247.686C150.352 247.845 149.988 248.055 149.689 248.316L149.241 247.574C149.614 247.257 150.062 247.014 150.585 246.846C151.108 246.669 151.658 246.58 152.237 246.58C153.189 246.58 153.922 246.818 154.435 247.294C154.958 247.761 155.219 248.475 155.219 249.436V254H154.267ZM151.733 254.07C151.182 254.07 150.702 253.981 150.291 253.804C149.89 253.617 149.582 253.365 149.367 253.048C149.152 252.721 149.045 252.348 149.045 251.928C149.045 251.545 149.134 251.2 149.311 250.892C149.498 250.575 149.796 250.323 150.207 250.136C150.627 249.94 151.187 249.842 151.887 249.842H154.421V250.584H151.915C151.206 250.584 150.711 250.71 150.431 250.962C150.16 251.214 150.025 251.527 150.025 251.9C150.025 252.32 150.188 252.656 150.515 252.908C150.842 253.16 151.299 253.286 151.887 253.286C152.447 253.286 152.928 253.16 153.329 252.908C153.74 252.647 154.038 252.273 154.225 251.788L154.449 252.474C154.262 252.959 153.936 253.347 153.469 253.636C153.012 253.925 152.433 254.07 151.733 254.07ZM157.865 254V246.65H158.859V249.898H163.493V246.65H164.487V254H163.493V250.752H158.859V254H157.865ZM167.312 254V246.65H168.306V252.488L173.22 246.65H174.102V254H173.108V248.148L168.208 254H167.312ZM181.697 254V251.354L181.879 251.564H179.387C178.444 251.564 177.707 251.359 177.175 250.948C176.643 250.537 176.377 249.94 176.377 249.156C176.377 248.316 176.662 247.691 177.231 247.28C177.8 246.86 178.561 246.65 179.513 246.65H182.607V254H181.697ZM176.321 254L178.337 251.172H179.373L177.399 254H176.321ZM181.697 251.06V247.224L181.879 247.518H179.541C178.86 247.518 178.328 247.649 177.945 247.91C177.572 248.171 177.385 248.596 177.385 249.184C177.385 250.276 178.08 250.822 179.471 250.822H181.879L181.697 251.06Z" fill="#49494F"></path> <rect x="0.5" y="0.5" width="269" height="281" rx="15.5" stroke="#E2E4E7"></rect> </svg> 