<?xml version="1.0" encoding="UTF-8"?> <svg xmlns="http://www.w3.org/2000/svg" width="270" height="282" viewBox="0 0 270 282" fill="none"> <rect x="0.5" y="0.5" width="269" height="281" rx="15.5" fill="white"></rect> <rect x="16" y="24" width="40" height="40" rx="8" fill="#161617"></rect> <path fill-rule="evenodd" clip-rule="evenodd" d="M33.3989 38.9506V41.9761H44.2502V48.0273H33.3989V55.1005C34.2524 55.5093 35.1058 55.7955 36 56C41.2834 54.8961 46.2417 50.1533 46.4042 41.7308L46.4449 38.9914H33.3989V38.9506Z" fill="#2D7D2F"></path> <path d="M46.4856 38.9506L46.5668 32.4089C43.0716 32.1227 39.5358 32 36 32C32.4642 32 28.9283 32.1227 25.4332 32.4089L25.5144 37.5196L25.5957 41.6899C25.5957 41.6899 25.6364 45.5741 26.9369 48.3543C29.0909 53.3833 33.3989 55.0596 33.3989 55.0596V47.9864H44.2503V41.9353H33.3989V38.9506H46.4856Z" fill="#72BF44"></path> <path d="M130.526 49V39.2H134.74C135.804 39.2 136.639 39.4147 137.246 39.844C137.853 40.2733 138.156 40.8987 138.156 41.72C138.156 42.5227 137.867 43.1387 137.288 43.568C136.709 43.988 135.949 44.198 135.006 44.198L135.258 43.778C136.35 43.778 137.185 43.9973 137.764 44.436C138.352 44.8653 138.646 45.4953 138.646 46.326C138.646 47.166 138.338 47.824 137.722 48.3C137.115 48.7667 136.21 49 135.006 49H130.526ZM131.912 47.894H134.978C135.725 47.894 136.285 47.7587 136.658 47.488C137.041 47.208 137.232 46.7833 137.232 46.214C137.232 45.6447 137.041 45.2293 136.658 44.968C136.285 44.7067 135.725 44.576 134.978 44.576H131.912V47.894ZM131.912 43.512H134.642C135.323 43.512 135.841 43.3767 136.196 43.106C136.56 42.8353 136.742 42.4387 136.742 41.916C136.742 41.384 136.56 40.9827 136.196 40.712C135.841 40.4413 135.323 40.306 134.642 40.306H131.912V43.512ZM148.097 49V41.58H149.441V49H148.097ZM144.107 44.1C145.05 44.1093 145.764 44.324 146.249 44.744C146.744 45.164 146.991 45.7567 146.991 46.522C146.991 47.3247 146.72 47.9453 146.179 48.384C145.647 48.8133 144.882 49.0233 143.883 49.014L140.761 49V41.58H142.105V44.086L144.107 44.1ZM143.785 47.992C144.382 48.0013 144.84 47.88 145.157 47.628C145.474 47.376 145.633 47.0027 145.633 46.508C145.633 46.0227 145.474 45.668 145.157 45.444C144.849 45.22 144.392 45.1033 143.785 45.094L142.105 45.066V47.978L143.785 47.992ZM157.122 48.37V42.756H153.902L153.832 44.184C153.813 44.6507 153.781 45.1033 153.734 45.542C153.697 45.9713 153.631 46.368 153.538 46.732C153.454 47.096 153.328 47.3947 153.16 47.628C152.992 47.8613 152.768 48.006 152.488 48.062L151.158 47.824C151.447 47.8333 151.681 47.74 151.858 47.544C152.035 47.3387 152.171 47.0587 152.264 46.704C152.367 46.3493 152.441 45.948 152.488 45.5C152.535 45.0427 152.572 44.5713 152.6 44.086L152.712 41.58H158.466V48.37H157.122ZM150.864 50.722V47.824H159.6V50.722H158.34V49H152.138V50.722H150.864ZM165.901 49V47.432L165.831 47.138V44.464C165.831 43.8947 165.663 43.456 165.327 43.148C165 42.8307 164.505 42.672 163.843 42.672C163.404 42.672 162.975 42.7467 162.555 42.896C162.135 43.036 161.78 43.2273 161.491 43.47L160.931 42.462C161.313 42.154 161.771 41.9207 162.303 41.762C162.844 41.594 163.409 41.51 163.997 41.51C165.014 41.51 165.798 41.7573 166.349 42.252C166.899 42.7467 167.175 43.5027 167.175 44.52V49H165.901ZM163.465 49.084C162.914 49.084 162.429 48.9907 162.009 48.804C161.598 48.6173 161.281 48.3607 161.057 48.034C160.833 47.698 160.721 47.32 160.721 46.9C160.721 46.4987 160.814 46.1347 161.001 45.808C161.197 45.4813 161.509 45.22 161.939 45.024C162.377 44.828 162.965 44.73 163.703 44.73H166.055V45.696H163.759C163.087 45.696 162.634 45.808 162.401 46.032C162.167 46.256 162.051 46.5267 162.051 46.844C162.051 47.208 162.195 47.502 162.485 47.726C162.774 47.9407 163.175 48.048 163.689 48.048C164.193 48.048 164.631 47.936 165.005 47.712C165.387 47.488 165.663 47.1613 165.831 46.732L166.097 47.656C165.919 48.0947 165.607 48.4447 165.159 48.706C164.711 48.958 164.146 49.084 163.465 49.084ZM169.595 49V41.58H170.939V44.73H175.167V41.58H176.511V49H175.167V45.892H170.939V49H169.595ZM186.258 49.112C185.493 49.112 184.807 48.916 184.2 48.524C183.603 48.132 183.127 47.5627 182.772 46.816C182.427 46.0693 182.254 45.164 182.254 44.1C182.254 43.036 182.427 42.1307 182.772 41.384C183.127 40.6373 183.603 40.068 184.2 39.676C184.807 39.284 185.493 39.088 186.258 39.088C187.014 39.088 187.695 39.284 188.302 39.676C188.909 40.068 189.385 40.6373 189.73 41.384C190.075 42.1307 190.248 43.036 190.248 44.1C190.248 45.164 190.075 46.0693 189.73 46.816C189.385 47.5627 188.909 48.132 188.302 48.524C187.695 48.916 187.014 49.112 186.258 49.112ZM186.258 47.866C186.771 47.866 187.219 47.726 187.602 47.446C187.994 47.166 188.297 46.746 188.512 46.186C188.736 45.626 188.848 44.9307 188.848 44.1C188.848 43.2693 188.736 42.574 188.512 42.014C188.297 41.454 187.994 41.034 187.602 40.754C187.219 40.474 186.771 40.334 186.258 40.334C185.745 40.334 185.292 40.474 184.9 40.754C184.508 41.034 184.2 41.454 183.976 42.014C183.761 42.574 183.654 43.2693 183.654 44.1C183.654 44.9307 183.761 45.626 183.976 46.186C184.2 46.746 184.508 47.166 184.9 47.446C185.292 47.726 185.745 47.866 186.258 47.866ZM194.756 49.112C194.065 49.112 193.393 49.0047 192.74 48.79C192.096 48.5753 191.569 48.286 191.158 47.922L191.802 46.816C192.129 47.124 192.553 47.376 193.076 47.572C193.599 47.768 194.154 47.866 194.742 47.866C195.489 47.866 196.063 47.7073 196.464 47.39C196.865 47.0727 197.066 46.648 197.066 46.116C197.066 45.752 196.977 45.4347 196.8 45.164C196.623 44.8933 196.315 44.688 195.876 44.548C195.447 44.3987 194.854 44.324 194.098 44.324H191.872L192.39 39.2H197.92V40.418H192.908L193.636 39.732L193.23 43.778L192.502 43.106H194.392C195.372 43.106 196.161 43.232 196.758 43.484C197.355 43.736 197.789 44.086 198.06 44.534C198.331 44.9727 198.466 45.4813 198.466 46.06C198.466 46.62 198.331 47.1333 198.06 47.6C197.789 48.0573 197.379 48.426 196.828 48.706C196.287 48.9767 195.596 49.112 194.756 49.112ZM200.555 49.084C200.294 49.084 200.07 48.9953 199.883 48.818C199.696 48.6313 199.603 48.398 199.603 48.118C199.603 47.838 199.696 47.6093 199.883 47.432C200.07 47.2547 200.294 47.166 200.555 47.166C200.807 47.166 201.022 47.2547 201.199 47.432C201.386 47.6093 201.479 47.838 201.479 48.118C201.479 48.398 201.386 48.6313 201.199 48.818C201.022 48.9953 200.807 49.084 200.555 49.084ZM204.277 49V39.76L204.879 40.418H202.065V39.2H205.663V49H204.277ZM211.811 49.112C211.045 49.112 210.359 48.916 209.753 48.524C209.155 48.132 208.679 47.5627 208.325 46.816C207.979 46.0693 207.807 45.164 207.807 44.1C207.807 43.036 207.979 42.1307 208.325 41.384C208.679 40.6373 209.155 40.068 209.753 39.676C210.359 39.284 211.045 39.088 211.811 39.088C212.567 39.088 213.248 39.284 213.855 39.676C214.461 40.068 214.937 40.6373 215.283 41.384C215.628 42.1307 215.801 43.036 215.801 44.1C215.801 45.164 215.628 46.0693 215.283 46.816C214.937 47.5627 214.461 48.132 213.855 48.524C213.248 48.916 212.567 49.112 211.811 49.112ZM211.811 47.866C212.324 47.866 212.772 47.726 213.155 47.446C213.547 47.166 213.85 46.746 214.065 46.186C214.289 45.626 214.401 44.9307 214.401 44.1C214.401 43.2693 214.289 42.574 214.065 42.014C213.85 41.454 213.547 41.034 213.155 40.754C212.772 40.474 212.324 40.334 211.811 40.334C211.297 40.334 210.845 40.474 210.453 40.754C210.061 41.034 209.753 41.454 209.529 42.014C209.314 42.574 209.207 43.2693 209.207 44.1C209.207 44.9307 209.314 45.626 209.529 46.186C209.753 46.746 210.061 47.166 210.453 47.446C210.845 47.726 211.297 47.866 211.811 47.866ZM217.905 49.084C217.643 49.084 217.419 48.9953 217.233 48.818C217.046 48.6313 216.953 48.398 216.953 48.118C216.953 47.838 217.046 47.6093 217.233 47.432C217.419 47.2547 217.643 47.166 217.905 47.166C218.157 47.166 218.371 47.2547 218.549 47.432C218.735 47.6093 218.829 47.838 218.829 48.118C218.829 48.398 218.735 48.6313 218.549 48.818C218.371 48.9953 218.157 49.084 217.905 49.084ZM220.135 49V48.048L224.125 44.198C224.48 43.862 224.741 43.568 224.909 43.316C225.087 43.0547 225.203 42.8167 225.259 42.602C225.325 42.378 225.357 42.1633 225.357 41.958C225.357 41.454 225.18 41.0573 224.825 40.768C224.471 40.4787 223.953 40.334 223.271 40.334C222.749 40.334 222.277 40.4227 221.857 40.6C221.437 40.768 221.073 41.034 220.765 41.398L219.813 40.572C220.187 40.096 220.686 39.732 221.311 39.48C221.946 39.2187 222.641 39.088 223.397 39.088C224.079 39.088 224.671 39.2 225.175 39.424C225.679 39.6387 226.067 39.9513 226.337 40.362C226.617 40.7727 226.757 41.258 226.757 41.818C226.757 42.1353 226.715 42.448 226.631 42.756C226.547 43.064 226.389 43.3907 226.155 43.736C225.922 44.0813 225.586 44.4687 225.147 44.898L221.591 48.328L221.255 47.782H227.177V49H220.135ZM232.319 49.112C231.553 49.112 230.867 48.916 230.261 48.524C229.663 48.132 229.187 47.5627 228.833 46.816C228.487 46.0693 228.315 45.164 228.315 44.1C228.315 43.036 228.487 42.1307 228.833 41.384C229.187 40.6373 229.663 40.068 230.261 39.676C230.867 39.284 231.553 39.088 232.319 39.088C233.075 39.088 233.756 39.284 234.363 39.676C234.969 40.068 235.445 40.6373 235.791 41.384C236.136 42.1307 236.309 43.036 236.309 44.1C236.309 45.164 236.136 46.0693 235.791 46.816C235.445 47.5627 234.969 48.132 234.363 48.524C233.756 48.916 233.075 49.112 232.319 49.112ZM232.319 47.866C232.832 47.866 233.28 47.726 233.663 47.446C234.055 47.166 234.358 46.746 234.573 46.186C234.797 45.626 234.909 44.9307 234.909 44.1C234.909 43.2693 234.797 42.574 234.573 42.014C234.358 41.454 234.055 41.034 233.663 40.754C233.28 40.474 232.832 40.334 232.319 40.334C231.805 40.334 231.353 40.474 230.961 40.754C230.569 41.034 230.261 41.454 230.037 42.014C229.822 42.574 229.715 43.2693 229.715 44.1C229.715 44.9307 229.822 45.626 230.037 46.186C230.261 46.746 230.569 47.166 230.961 47.446C231.353 47.726 231.805 47.866 232.319 47.866ZM237.498 49V48.048L241.488 44.198C241.843 43.862 242.104 43.568 242.272 43.316C242.45 43.0547 242.566 42.8167 242.622 42.602C242.688 42.378 242.72 42.1633 242.72 41.958C242.72 41.454 242.543 41.0573 242.188 40.768C241.834 40.4787 241.316 40.334 240.634 40.334C240.112 40.334 239.64 40.4227 239.22 40.6C238.8 40.768 238.436 41.034 238.128 41.398L237.176 40.572C237.55 40.096 238.049 39.732 238.674 39.48C239.309 39.2187 240.004 39.088 240.76 39.088C241.442 39.088 242.034 39.2 242.538 39.424C243.042 39.6387 243.43 39.9513 243.7 40.362C243.98 40.7727 244.12 41.258 244.12 41.818C244.12 42.1353 244.078 42.448 243.994 42.756C243.91 43.064 243.752 43.3907 243.518 43.736C243.285 44.0813 242.949 44.4687 242.51 44.898L238.954 48.328L238.618 47.782H244.54V49H237.498ZM245.538 49V48.048L249.528 44.198C249.882 43.862 250.144 43.568 250.312 43.316C250.489 43.0547 250.606 42.8167 250.662 42.602C250.727 42.378 250.76 42.1633 250.76 41.958C250.76 41.454 250.582 41.0573 250.228 40.768C249.873 40.4787 249.355 40.334 248.674 40.334C248.151 40.334 247.68 40.4227 247.26 40.6C246.84 40.768 246.476 41.034 246.168 41.398L245.216 40.572C245.589 40.096 246.088 39.732 246.714 39.48C247.348 39.2187 248.044 39.088 248.8 39.088C249.481 39.088 250.074 39.2 250.578 39.424C251.082 39.6387 251.469 39.9513 251.74 40.362C252.02 40.7727 252.16 41.258 252.16 41.818C252.16 42.1353 252.118 42.448 252.034 42.756C251.95 43.064 251.791 43.3907 251.558 43.736C251.324 44.0813 250.988 44.4687 250.55 44.898L246.994 48.328L246.658 47.782H252.58V49H245.538Z" fill="#49494F"></path> <path d="M22.288 121.192C21.104 121.192 19.952 121.008 18.832 120.64C17.728 120.272 16.824 119.776 16.12 119.152L17.224 117.256C17.784 117.784 18.512 118.216 19.408 118.552C20.304 118.888 21.264 119.056 22.288 119.056C23.536 119.056 24.504 118.792 25.192 118.264C25.896 117.72 26.248 116.992 26.248 116.08C26.248 115.2 25.912 114.496 25.24 113.968C24.584 113.424 23.536 113.152 22.096 113.152H20.752V111.472L25.744 105.328L26.08 106.288H16.888V104.2H27.976V105.832L23.008 111.952L21.76 111.208H22.552C24.584 111.208 26.104 111.664 27.112 112.576C28.136 113.488 28.648 114.648 28.648 116.056C28.648 117 28.416 117.864 27.952 118.648C27.488 119.432 26.784 120.056 25.84 120.52C24.912 120.968 23.728 121.192 22.288 121.192ZM37.9424 121.192C36.4544 121.192 35.1824 120.864 34.1264 120.208C33.0704 119.552 32.2624 118.608 31.7024 117.376C31.1584 116.128 30.8864 114.608 30.8864 112.816C30.8864 110.912 31.2224 109.304 31.8944 107.992C32.5664 106.68 33.5024 105.688 34.7024 105.016C35.9024 104.344 37.2784 104.008 38.8304 104.008C39.6304 104.008 40.3904 104.088 41.1104 104.248C41.8464 104.408 42.4784 104.656 43.0064 104.992L42.0944 106.864C41.6624 106.56 41.1664 106.352 40.6064 106.24C40.0624 106.128 39.4864 106.072 38.8784 106.072C37.1664 106.072 35.8064 106.608 34.7984 107.68C33.7904 108.736 33.2864 110.312 33.2864 112.408C33.2864 112.744 33.3024 113.144 33.3344 113.608C33.3664 114.072 33.4464 114.528 33.5744 114.976L32.7584 114.16C32.9984 113.424 33.3744 112.808 33.8864 112.312C34.4144 111.8 35.0384 111.424 35.7584 111.184C36.4944 110.928 37.2864 110.8 38.1344 110.8C39.2544 110.8 40.2464 111.008 41.1104 111.424C41.9744 111.84 42.6544 112.432 43.1504 113.2C43.6464 113.952 43.8944 114.848 43.8944 115.888C43.8944 116.96 43.6304 117.896 43.1024 118.696C42.5744 119.496 41.8624 120.112 40.9664 120.544C40.0704 120.976 39.0624 121.192 37.9424 121.192ZM37.8464 119.248C38.5824 119.248 39.2224 119.112 39.7664 118.84C40.3264 118.568 40.7664 118.192 41.0864 117.712C41.4064 117.216 41.5664 116.64 41.5664 115.984C41.5664 114.992 41.2224 114.208 40.5344 113.632C39.8464 113.04 38.9104 112.744 37.7264 112.744C36.9584 112.744 36.2864 112.888 35.7104 113.176C35.1344 113.464 34.6784 113.856 34.3424 114.352C34.0224 114.832 33.8624 115.384 33.8624 116.008C33.8624 116.584 34.0144 117.12 34.3184 117.616C34.6224 118.096 35.0704 118.488 35.6624 118.792C36.2544 119.096 36.9824 119.248 37.8464 119.248ZM52.5629 121.192C51.2509 121.192 50.0749 120.856 49.0349 120.184C48.0109 119.512 47.1949 118.536 46.5869 117.256C45.9949 115.976 45.6989 114.424 45.6989 112.6C45.6989 110.776 45.9949 109.224 46.5869 107.944C47.1949 106.664 48.0109 105.688 49.0349 105.016C50.0749 104.344 51.2509 104.008 52.5629 104.008C53.8589 104.008 55.0269 104.344 56.0669 105.016C57.1069 105.688 57.9229 106.664 58.5149 107.944C59.1069 109.224 59.4029 110.776 59.4029 112.6C59.4029 114.424 59.1069 115.976 58.5149 117.256C57.9229 118.536 57.1069 119.512 56.0669 120.184C55.0269 120.856 53.8589 121.192 52.5629 121.192ZM52.5629 119.056C53.4429 119.056 54.2109 118.816 54.8669 118.336C55.5389 117.856 56.0589 117.136 56.4269 116.176C56.8109 115.216 57.0029 114.024 57.0029 112.6C57.0029 111.176 56.8109 109.984 56.4269 109.024C56.0589 108.064 55.5389 107.344 54.8669 106.864C54.2109 106.384 53.4429 106.144 52.5629 106.144C51.6829 106.144 50.9069 106.384 50.2349 106.864C49.5629 107.344 49.0349 108.064 48.6509 109.024C48.2829 109.984 48.0989 111.176 48.0989 112.6C48.0989 114.024 48.2829 115.216 48.6509 116.176C49.0349 117.136 49.5629 117.856 50.2349 118.336C50.9069 118.816 51.6829 119.056 52.5629 119.056ZM73.576 121.192C72.392 121.192 71.24 121.008 70.12 120.64C69.016 120.272 68.112 119.776 67.408 119.152L68.512 117.256C69.072 117.784 69.8 118.216 70.696 118.552C71.592 118.888 72.544 119.056 73.552 119.056C74.832 119.056 75.816 118.784 76.504 118.24C77.192 117.696 77.536 116.968 77.536 116.056C77.536 115.432 77.384 114.888 77.08 114.424C76.776 113.96 76.248 113.608 75.496 113.368C74.76 113.112 73.744 112.984 72.448 112.984H68.632L69.52 104.2H79V106.288H70.408L71.656 105.112L70.96 112.048L69.712 110.896H72.952C74.632 110.896 75.984 111.112 77.008 111.544C78.032 111.976 78.776 112.576 79.24 113.344C79.704 114.096 79.936 114.968 79.936 115.96C79.936 116.92 79.704 117.8 79.24 118.6C78.776 119.384 78.072 120.016 77.128 120.496C76.2 120.96 75.016 121.192 73.576 121.192ZM84.7653 121V105.16L85.7973 106.288H80.9733V104.2H87.1413V121H84.7653ZM93.6481 121V105.16L94.6801 106.288H89.8561V104.2H96.0241V121H93.6481ZM99.8189 124.552L101.019 119.704L101.331 121.096C100.867 121.096 100.475 120.952 100.155 120.664C99.8509 120.376 99.6989 119.984 99.6989 119.488C99.6989 119.008 99.8509 118.616 100.155 118.312C100.475 118.008 100.859 117.856 101.307 117.856C101.771 117.856 102.147 118.016 102.435 118.336C102.723 118.64 102.867 119.024 102.867 119.488C102.867 119.648 102.851 119.808 102.819 119.968C102.803 120.112 102.763 120.288 102.699 120.496C102.651 120.688 102.571 120.928 102.459 121.216L101.331 124.552H99.8189ZM105.107 121V119.368L111.947 112.768C112.555 112.192 113.003 111.688 113.291 111.256C113.595 110.808 113.795 110.4 113.891 110.032C114.003 109.648 114.059 109.28 114.059 108.928C114.059 108.064 113.755 107.384 113.147 106.888C112.539 106.392 111.651 106.144 110.483 106.144C109.587 106.144 108.779 106.296 108.059 106.6C107.339 106.888 106.715 107.344 106.187 107.968L104.555 106.552C105.195 105.736 106.051 105.112 107.123 104.68C108.211 104.232 109.403 104.008 110.699 104.008C111.867 104.008 112.883 104.2 113.747 104.584C114.611 104.952 115.275 105.488 115.739 106.192C116.219 106.896 116.459 107.728 116.459 108.688C116.459 109.232 116.387 109.768 116.243 110.296C116.099 110.824 115.827 111.384 115.427 111.976C115.027 112.568 114.451 113.232 113.699 113.968L107.603 119.848L107.027 118.912H117.179V121H105.107ZM121.168 121V104.2H127.768C129.928 104.2 131.632 104.68 132.88 105.64C134.128 106.584 134.752 107.968 134.752 109.792C134.752 111.616 134.128 113.008 132.88 113.968C131.632 114.928 129.928 115.408 127.768 115.408H122.512L123.592 114.28V121H121.168ZM123.592 114.52L122.512 113.416H127.768C129.24 113.416 130.368 113.104 131.152 112.48C131.936 111.856 132.328 110.968 132.328 109.816C132.328 108.68 131.936 107.808 131.152 107.2C130.368 106.592 129.24 106.288 127.768 106.288H122.512L123.592 105.088V114.52ZM118.72 118.192V116.824H128.92V118.192H118.72Z" fill="#161617"></path> <path d="M224.192 114.128C223.403 114.128 222.635 114.005 221.888 113.76C221.152 113.515 220.549 113.184 220.08 112.768L220.816 111.504C221.189 111.856 221.675 112.144 222.272 112.368C222.869 112.592 223.509 112.704 224.192 112.704C225.024 112.704 225.669 112.528 226.128 112.176C226.597 111.813 226.832 111.328 226.832 110.72C226.832 110.133 226.608 109.664 226.16 109.312C225.723 108.949 225.024 108.768 224.064 108.768H223.168V107.648L226.496 103.552L226.72 104.192H220.592V102.8H227.984V103.888L224.672 107.968L223.84 107.472H224.368C225.723 107.472 226.736 107.776 227.408 108.384C228.091 108.992 228.432 109.765 228.432 110.704C228.432 111.333 228.277 111.909 227.968 112.432C227.659 112.955 227.189 113.371 226.56 113.68C225.941 113.979 225.152 114.128 224.192 114.128ZM234.5 114.128C233.626 114.128 232.842 113.904 232.148 113.456C231.466 113.008 230.922 112.357 230.516 111.504C230.122 110.651 229.924 109.616 229.924 108.4C229.924 107.184 230.122 106.149 230.516 105.296C230.922 104.443 231.466 103.792 232.148 103.344C232.842 102.896 233.626 102.672 234.5 102.672C235.364 102.672 236.143 102.896 236.836 103.344C237.53 103.792 238.074 104.443 238.468 105.296C238.863 106.149 239.06 107.184 239.06 108.4C239.06 109.616 238.863 110.651 238.468 111.504C238.074 112.357 237.53 113.008 236.836 113.456C236.143 113.904 235.364 114.128 234.5 114.128ZM234.5 112.704C235.087 112.704 235.599 112.544 236.036 112.224C236.484 111.904 236.831 111.424 237.076 110.784C237.332 110.144 237.46 109.349 237.46 108.4C237.46 107.451 237.332 106.656 237.076 106.016C236.831 105.376 236.484 104.896 236.036 104.576C235.599 104.256 235.087 104.096 234.5 104.096C233.914 104.096 233.396 104.256 232.948 104.576C232.5 104.896 232.148 105.376 231.892 106.016C231.647 106.656 231.524 107.451 231.524 108.4C231.524 109.349 231.647 110.144 231.892 110.784C232.148 111.424 232.5 111.904 232.948 112.224C233.396 112.544 233.914 112.704 234.5 112.704ZM242.132 114L249.78 102.8H251.012L243.364 114H242.132ZM243.028 108.816C242.516 108.816 242.063 108.688 241.668 108.432C241.273 108.176 240.964 107.819 240.74 107.36C240.527 106.901 240.42 106.368 240.42 105.76C240.42 105.152 240.527 104.619 240.74 104.16C240.964 103.701 241.273 103.344 241.668 103.088C242.063 102.832 242.516 102.704 243.028 102.704C243.551 102.704 244.004 102.832 244.388 103.088C244.783 103.344 245.087 103.701 245.3 104.16C245.513 104.619 245.62 105.152 245.62 105.76C245.62 106.368 245.513 106.901 245.3 107.36C245.087 107.819 244.783 108.176 244.388 108.432C244.004 108.688 243.551 108.816 243.028 108.816ZM243.028 107.904C243.519 107.904 243.903 107.717 244.18 107.344C244.457 106.96 244.596 106.432 244.596 105.76C244.596 105.088 244.457 104.565 244.18 104.192C243.903 103.808 243.519 103.616 243.028 103.616C242.548 103.616 242.164 103.808 241.876 104.192C241.599 104.565 241.46 105.088 241.46 105.76C241.46 106.421 241.599 106.944 241.876 107.328C242.164 107.712 242.548 107.904 243.028 107.904ZM250.116 114.096C249.604 114.096 249.151 113.968 248.756 113.712C248.361 113.456 248.057 113.099 247.844 112.64C247.631 112.181 247.524 111.648 247.524 111.04C247.524 110.432 247.631 109.899 247.844 109.44C248.057 108.981 248.361 108.624 248.756 108.368C249.151 108.112 249.604 107.984 250.116 107.984C250.639 107.984 251.092 108.112 251.476 108.368C251.871 108.624 252.175 108.981 252.388 109.44C252.612 109.899 252.724 110.432 252.724 111.04C252.724 111.648 252.612 112.181 252.388 112.64C252.175 113.099 251.871 113.456 251.476 113.712C251.092 113.968 250.639 114.096 250.116 114.096ZM250.116 113.184C250.596 113.184 250.975 112.997 251.252 112.624C251.54 112.24 251.684 111.712 251.684 111.04C251.684 110.379 251.54 109.856 251.252 109.472C250.975 109.088 250.596 108.896 250.116 108.896C249.636 108.896 249.252 109.088 248.964 109.472C248.687 109.845 248.548 110.368 248.548 111.04C248.548 111.712 248.687 112.24 248.964 112.624C249.252 112.997 249.636 113.184 250.116 113.184Z" fill="#2CCC39"></path> <path d="M254 143H16V145H254V143Z" fill="#DDDDDD" mask="url(#path-6-inside-1_0_92)"></path> <path d="M17.888 178V166.8H19.056V176.08L26.224 166.8H27.296V178H26.128V168.736L18.96 178H17.888ZM31.0755 178V166.8H40.4995V178H39.3315V167.504L39.6355 167.824H31.9395L32.2435 167.504V178H31.0755ZM50.6901 178V167.504L51.0101 167.824H46.7541V166.8H55.7941V167.824H51.5541L51.8581 167.504V178H50.6901ZM57.3816 178V169.6H58.5176V176.272L64.1336 169.6H65.1416V178H64.0056V171.312L58.4056 178H57.3816ZM68.3973 178V169.6H69.5493L73.3573 176.048H72.8773L76.7493 169.6H77.8053V178H76.7653V170.896L76.9733 170.992L73.3573 176.976H72.8453L69.1973 170.928L69.4373 170.88V178H68.3973ZM84.4939 178.08C83.6832 178.08 82.9525 177.899 82.3019 177.536C81.6619 177.163 81.1552 176.656 80.7819 176.016C80.4085 175.365 80.2219 174.624 80.2219 173.792C80.2219 172.949 80.4085 172.208 80.7819 171.568C81.1552 170.928 81.6619 170.427 82.3019 170.064C82.9419 169.701 83.6725 169.52 84.4939 169.52C85.3259 169.52 86.0619 169.701 86.7019 170.064C87.3525 170.427 87.8592 170.928 88.2219 171.568C88.5952 172.208 88.7819 172.949 88.7819 173.792C88.7819 174.624 88.5952 175.365 88.2219 176.016C87.8592 176.656 87.3525 177.163 86.7019 177.536C86.0512 177.899 85.3152 178.08 84.4939 178.08ZM84.4939 177.072C85.1019 177.072 85.6405 176.939 86.1099 176.672C86.5792 176.395 86.9472 176.011 87.2139 175.52C87.4912 175.019 87.6299 174.443 87.6299 173.792C87.6299 173.131 87.4912 172.555 87.2139 172.064C86.9472 171.573 86.5792 171.195 86.1099 170.928C85.6405 170.651 85.1072 170.512 84.5099 170.512C83.9125 170.512 83.3792 170.651 82.9099 170.928C82.4405 171.195 82.0672 171.573 81.7899 172.064C81.5125 172.555 81.3739 173.131 81.3739 173.792C81.3739 174.443 81.5125 175.019 81.7899 175.52C82.0672 176.011 82.4405 176.395 82.9099 176.672C83.3792 176.939 83.9072 177.072 84.4939 177.072ZM91.2098 178V169.6H92.3458V173.312H97.6418V169.6H98.7778V178H97.6418V174.288H92.3458V178H91.2098ZM102.007 178V169.6H103.143V176.272L108.759 169.6H109.767V178H108.631V171.312L103.031 178H102.007ZM113.022 178V169.6H114.158V173.312H119.454V169.6H120.59V178H119.454V174.288H114.158V178H113.022ZM129.035 178V176.144L128.987 175.84V172.736C128.987 172.021 128.784 171.472 128.379 171.088C127.984 170.704 127.392 170.512 126.603 170.512C126.059 170.512 125.542 170.603 125.051 170.784C124.56 170.965 124.144 171.205 123.803 171.504L123.291 170.656C123.718 170.293 124.23 170.016 124.827 169.824C125.424 169.621 126.054 169.52 126.715 169.52C127.803 169.52 128.64 169.792 129.227 170.336C129.824 170.869 130.123 171.685 130.123 172.784V178H129.035ZM126.139 178.08C125.51 178.08 124.96 177.979 124.491 177.776C124.032 177.563 123.68 177.275 123.435 176.912C123.19 176.539 123.067 176.112 123.067 175.632C123.067 175.195 123.168 174.8 123.371 174.448C123.584 174.085 123.926 173.797 124.395 173.584C124.875 173.36 125.515 173.248 126.315 173.248H129.211V174.096H126.347C125.536 174.096 124.971 174.24 124.651 174.528C124.342 174.816 124.187 175.173 124.187 175.6C124.187 176.08 124.374 176.464 124.747 176.752C125.12 177.04 125.643 177.184 126.315 177.184C126.955 177.184 127.504 177.04 127.963 176.752C128.432 176.453 128.774 176.027 128.987 175.472L129.243 176.256C129.03 176.811 128.656 177.253 128.123 177.584C127.6 177.915 126.939 178.08 126.139 178.08ZM135.959 178L141.079 166.8H142.247L147.367 178H146.119L141.415 167.488H141.895L137.191 178H135.959ZM137.975 175.008L138.327 174.048H144.839L145.191 175.008H137.975ZM149.868 178.08C149.633 178.08 149.431 177.995 149.26 177.824C149.1 177.653 149.02 177.445 149.02 177.2C149.02 176.944 149.1 176.736 149.26 176.576C149.431 176.416 149.633 176.336 149.868 176.336C150.103 176.336 150.3 176.416 150.46 176.576C150.631 176.736 150.716 176.944 150.716 177.2C150.716 177.445 150.631 177.653 150.46 177.824C150.3 177.995 150.103 178.08 149.868 178.08ZM153.451 178V166.8H162.875V178H161.707V167.504L162.011 167.824H154.315L154.619 167.504V178H153.451ZM166.462 178.08C166.227 178.08 166.024 177.995 165.854 177.824C165.694 177.653 165.614 177.445 165.614 177.2C165.614 176.944 165.694 176.736 165.854 176.576C166.024 176.416 166.227 176.336 166.462 176.336C166.696 176.336 166.894 176.416 167.054 176.576C167.224 176.736 167.31 176.944 167.31 177.2C167.31 177.445 167.224 177.653 167.054 177.824C166.894 177.995 166.696 178.08 166.462 178.08Z" fill="#49494F"></path> <path d="M254 223H16V225H254V223Z" fill="#DDDDDD" mask="url(#path-10-inside-2_0_92)"></path> <path d="M17.652 254V244.2H25.898V254H24.876V244.816L25.142 245.096H18.408L18.674 244.816V254H17.652ZM32.7607 254.07C32.1261 254.07 31.5521 253.925 31.0387 253.636C30.5254 253.337 30.1147 252.913 29.8067 252.362C29.5081 251.802 29.3587 251.121 29.3587 250.318C29.3587 249.515 29.5081 248.839 29.8067 248.288C30.1054 247.728 30.5114 247.303 31.0247 247.014C31.5381 246.725 32.1167 246.58 32.7607 246.58C33.4607 246.58 34.0861 246.739 34.6367 247.056C35.1967 247.364 35.6354 247.803 35.9527 248.372C36.2701 248.932 36.4287 249.581 36.4287 250.318C36.4287 251.065 36.2701 251.718 35.9527 252.278C35.6354 252.838 35.1967 253.277 34.6367 253.594C34.0861 253.911 33.4607 254.07 32.7607 254.07ZM28.9667 256.716V246.65H29.9187V248.862L29.8207 250.332L29.9607 251.816V256.716H28.9667ZM32.6907 253.188C33.2134 253.188 33.6801 253.071 34.0907 252.838C34.5014 252.595 34.8281 252.259 35.0707 251.83C35.3134 251.391 35.4347 250.887 35.4347 250.318C35.4347 249.749 35.3134 249.249 35.0707 248.82C34.8281 248.391 34.5014 248.055 34.0907 247.812C33.6801 247.569 33.2134 247.448 32.6907 247.448C32.1681 247.448 31.6967 247.569 31.2767 247.812C30.8661 248.055 30.5394 248.391 30.2967 248.82C30.0634 249.249 29.9467 249.749 29.9467 250.318C29.9467 250.887 30.0634 251.391 30.2967 251.83C30.5394 252.259 30.8661 252.595 31.2767 252.838C31.6967 253.071 32.1681 253.188 32.6907 253.188ZM41.5884 254.07C40.8791 254.07 40.2397 253.911 39.6704 253.594C39.1104 253.267 38.6671 252.824 38.3404 252.264C38.0137 251.695 37.8504 251.046 37.8504 250.318C37.8504 249.581 38.0137 248.932 38.3404 248.372C38.6671 247.812 39.1104 247.373 39.6704 247.056C40.2304 246.739 40.8697 246.58 41.5884 246.58C42.3164 246.58 42.9604 246.739 43.5204 247.056C44.0897 247.373 44.5331 247.812 44.8504 248.372C45.1771 248.932 45.3404 249.581 45.3404 250.318C45.3404 251.046 45.1771 251.695 44.8504 252.264C44.5331 252.824 44.0897 253.267 43.5204 253.594C42.9511 253.911 42.3071 254.07 41.5884 254.07ZM41.5884 253.188C42.1204 253.188 42.5917 253.071 43.0024 252.838C43.4131 252.595 43.7351 252.259 43.9684 251.83C44.2111 251.391 44.3324 250.887 44.3324 250.318C44.3324 249.739 44.2111 249.235 43.9684 248.806C43.7351 248.377 43.4131 248.045 43.0024 247.812C42.5917 247.569 42.1251 247.448 41.6024 247.448C41.0797 247.448 40.6131 247.569 40.2024 247.812C39.7917 248.045 39.4651 248.377 39.2224 248.806C38.9797 249.235 38.8584 249.739 38.8584 250.318C38.8584 250.887 38.9797 251.391 39.2224 251.83C39.4651 252.259 39.7917 252.595 40.2024 252.838C40.6131 253.071 41.0751 253.188 41.5884 253.188ZM52.4638 253.524V247.518H48.9218L48.8378 249.156C48.8191 249.651 48.7864 250.136 48.7398 250.612C48.7024 251.088 48.6324 251.527 48.5298 251.928C48.4364 252.32 48.3011 252.642 48.1238 252.894C47.9464 253.137 47.7178 253.277 47.4378 253.314L46.4438 253.132C46.7331 253.141 46.9711 253.039 47.1578 252.824C47.3444 252.6 47.4891 252.297 47.5918 251.914C47.6944 251.531 47.7691 251.097 47.8158 250.612C47.8624 250.117 47.8998 249.613 47.9278 249.1L48.0258 246.65H53.4578V253.524H52.4638ZM46.1358 255.778V253.132H54.6058V255.778H53.6678V254H47.0738V255.778H46.1358ZM61.1069 254V252.376L61.0649 252.11V249.394C61.0649 248.769 60.8876 248.288 60.5329 247.952C60.1876 247.616 59.6696 247.448 58.9789 247.448C58.5029 247.448 58.0502 247.527 57.6209 247.686C57.1916 247.845 56.8276 248.055 56.5289 248.316L56.0809 247.574C56.4542 247.257 56.9022 247.014 57.4249 246.846C57.9476 246.669 58.4982 246.58 59.0769 246.58C60.0289 246.58 60.7616 246.818 61.2749 247.294C61.7976 247.761 62.0589 248.475 62.0589 249.436V254H61.1069ZM58.5729 254.07C58.0222 254.07 57.5416 253.981 57.1309 253.804C56.7296 253.617 56.4216 253.365 56.2069 253.048C55.9922 252.721 55.8849 252.348 55.8849 251.928C55.8849 251.545 55.9736 251.2 56.1509 250.892C56.3376 250.575 56.6362 250.323 57.0469 250.136C57.4669 249.94 58.0269 249.842 58.7269 249.842H61.2609V250.584H58.7549C58.0456 250.584 57.5509 250.71 57.2709 250.962C57.0002 251.214 56.8649 251.527 56.8649 251.9C56.8649 252.32 57.0282 252.656 57.3549 252.908C57.6816 253.16 58.1389 253.286 58.7269 253.286C59.2869 253.286 59.7676 253.16 60.1689 252.908C60.5796 252.647 60.8782 252.273 61.0649 251.788L61.2889 252.474C61.1022 252.959 60.7756 253.347 60.3089 253.636C59.8516 253.925 59.2729 254.07 58.5729 254.07ZM73.427 254L70.907 250.36L71.733 249.87L74.617 254H73.427ZM69.255 250.724V249.87H71.579V250.724H69.255ZM71.831 250.43L70.879 250.29L73.329 246.65H74.407L71.831 250.43ZM64.719 254H63.529L66.413 249.87L67.225 250.36L64.719 254ZM69.563 254H68.569V246.65H69.563V254ZM68.877 250.724H66.567V249.87H68.877V250.724ZM66.329 250.43L63.739 246.65H64.817L67.253 250.29L66.329 250.43ZM80.6987 254V252.376L80.6567 252.11V249.394C80.6567 248.769 80.4794 248.288 80.1247 247.952C79.7794 247.616 79.2614 247.448 78.5707 247.448C78.0947 247.448 77.642 247.527 77.2127 247.686C76.7834 247.845 76.4194 248.055 76.1207 248.316L75.6727 247.574C76.046 247.257 76.494 247.014 77.0167 246.846C77.5394 246.669 78.09 246.58 78.6687 246.58C79.6207 246.58 80.3534 246.818 80.8667 247.294C81.3894 247.761 81.6507 248.475 81.6507 249.436V254H80.6987ZM78.1647 254.07C77.614 254.07 77.1334 253.981 76.7227 253.804C76.3214 253.617 76.0134 253.365 75.7987 253.048C75.584 252.721 75.4767 252.348 75.4767 251.928C75.4767 251.545 75.5654 251.2 75.7427 250.892C75.9294 250.575 76.228 250.323 76.6387 250.136C77.0587 249.94 77.6187 249.842 78.3187 249.842H80.8527V250.584H78.3467C77.6374 250.584 77.1427 250.71 76.8627 250.962C76.592 251.214 76.4567 251.527 76.4567 251.9C76.4567 252.32 76.62 252.656 76.9467 252.908C77.2734 253.16 77.7307 253.286 78.3187 253.286C78.8787 253.286 79.3594 253.16 79.7607 252.908C80.1714 252.647 80.47 252.273 80.6567 251.788L80.8807 252.474C80.694 252.959 80.3674 253.347 79.9007 253.636C79.4434 253.925 78.8647 254.07 78.1647 254.07ZM87.9609 254V246.65H94.5689V254H93.5749V247.252L93.8269 247.518H88.7029L88.9549 247.252V254H87.9609ZM97.3945 254V246.65H98.3885V252.488L103.302 246.65H104.184V254H103.19V248.148L98.2905 254H97.3945ZM111.863 253.132L111.639 253.398V246.65H112.633V253.398L112.367 253.132H116.469L116.203 253.398V246.65H117.197V254H107.033V246.65H108.027V253.398L107.775 253.132H111.863ZM117.393 255.61V253.734L117.645 254H116.147V253.132H118.331V255.61H117.393ZM123.171 254.07C122.406 254.07 121.734 253.911 121.155 253.594C120.577 253.267 120.124 252.824 119.797 252.264C119.471 251.695 119.307 251.046 119.307 250.318C119.307 249.59 119.461 248.946 119.769 248.386C120.087 247.826 120.516 247.387 121.057 247.07C121.608 246.743 122.224 246.58 122.905 246.58C123.596 246.58 124.207 246.739 124.739 247.056C125.281 247.364 125.705 247.803 126.013 248.372C126.321 248.932 126.475 249.581 126.475 250.318C126.475 250.365 126.471 250.416 126.461 250.472C126.461 250.519 126.461 250.57 126.461 250.626H120.063V249.884H125.929L125.537 250.178C125.537 249.646 125.421 249.175 125.187 248.764C124.963 248.344 124.655 248.017 124.263 247.784C123.871 247.551 123.419 247.434 122.905 247.434C122.401 247.434 121.949 247.551 121.547 247.784C121.146 248.017 120.833 248.344 120.609 248.764C120.385 249.184 120.273 249.665 120.273 250.206V250.36C120.273 250.92 120.395 251.415 120.637 251.844C120.889 252.264 121.235 252.595 121.673 252.838C122.121 253.071 122.63 253.188 123.199 253.188C123.647 253.188 124.063 253.109 124.445 252.95C124.837 252.791 125.173 252.549 125.453 252.222L126.013 252.866C125.687 253.258 125.276 253.557 124.781 253.762C124.296 253.967 123.759 254.07 123.171 254.07ZM128.676 254V246.65H131.924C132.754 246.65 133.408 246.809 133.884 247.126C134.369 247.443 134.612 247.91 134.612 248.526C134.612 249.123 134.383 249.585 133.926 249.912C133.468 250.229 132.866 250.388 132.12 250.388L132.316 250.094C133.193 250.094 133.837 250.257 134.248 250.584C134.658 250.911 134.864 251.382 134.864 251.998C134.864 252.633 134.63 253.127 134.164 253.482C133.706 253.827 132.992 254 132.022 254H128.676ZM129.642 253.216H131.98C132.605 253.216 133.076 253.118 133.394 252.922C133.72 252.717 133.884 252.39 133.884 251.942C133.884 251.494 133.739 251.167 133.45 250.962C133.16 250.757 132.703 250.654 132.078 250.654H129.642V253.216ZM129.642 249.912H131.854C132.423 249.912 132.857 249.805 133.156 249.59C133.464 249.375 133.618 249.063 133.618 248.652C133.618 248.241 133.464 247.933 133.156 247.728C132.857 247.523 132.423 247.42 131.854 247.42H129.642V249.912ZM140.217 254.07C139.508 254.07 138.869 253.911 138.299 253.594C137.739 253.267 137.296 252.824 136.969 252.264C136.643 251.695 136.479 251.046 136.479 250.318C136.479 249.581 136.643 248.932 136.969 248.372C137.296 247.812 137.739 247.373 138.299 247.056C138.859 246.739 139.499 246.58 140.217 246.58C140.945 246.58 141.589 246.739 142.149 247.056C142.719 247.373 143.162 247.812 143.479 248.372C143.806 248.932 143.969 249.581 143.969 250.318C143.969 251.046 143.806 251.695 143.479 252.264C143.162 252.824 142.719 253.267 142.149 253.594C141.58 253.911 140.936 254.07 140.217 254.07ZM140.217 253.188C140.749 253.188 141.221 253.071 141.631 252.838C142.042 252.595 142.364 252.259 142.597 251.83C142.84 251.391 142.961 250.887 142.961 250.318C142.961 249.739 142.84 249.235 142.597 248.806C142.364 248.377 142.042 248.045 141.631 247.812C141.221 247.569 140.754 247.448 140.231 247.448C139.709 247.448 139.242 247.569 138.831 247.812C138.421 248.045 138.094 248.377 137.851 248.806C137.609 249.235 137.487 249.739 137.487 250.318C137.487 250.887 137.609 251.391 137.851 251.83C138.094 252.259 138.421 252.595 138.831 252.838C139.242 253.071 139.704 253.188 140.217 253.188ZM146.094 254V246.65H147.088V252.488L152.002 246.65H152.884V254H151.89V248.148L146.99 254H146.094ZM149.426 245.586C148.81 245.586 148.31 245.432 147.928 245.124C147.554 244.807 147.358 244.354 147.34 243.766H148.054C148.063 244.139 148.194 244.433 148.446 244.648C148.698 244.863 149.024 244.97 149.426 244.97C149.827 244.97 150.154 244.863 150.406 244.648C150.667 244.433 150.802 244.139 150.812 243.766H151.526C151.516 244.354 151.32 244.807 150.938 245.124C150.555 245.432 150.051 245.586 149.426 245.586ZM159.396 254V246.65H166.004V254H165.01V247.252L165.262 247.518H160.138L160.39 247.252V254H159.396ZM172.624 254.07C171.989 254.07 171.415 253.925 170.902 253.636C170.389 253.337 169.978 252.913 169.67 252.362C169.371 251.802 169.222 251.121 169.222 250.318C169.222 249.515 169.371 248.839 169.67 248.288C169.969 247.728 170.375 247.303 170.888 247.014C171.401 246.725 171.98 246.58 172.624 246.58C173.324 246.58 173.949 246.739 174.5 247.056C175.06 247.364 175.499 247.803 175.816 248.372C176.133 248.932 176.292 249.581 176.292 250.318C176.292 251.065 176.133 251.718 175.816 252.278C175.499 252.838 175.06 253.277 174.5 253.594C173.949 253.911 173.324 254.07 172.624 254.07ZM168.83 256.716V246.65H169.782V248.862L169.684 250.332L169.824 251.816V256.716H168.83ZM172.554 253.188C173.077 253.188 173.543 253.071 173.954 252.838C174.365 252.595 174.691 252.259 174.934 251.83C175.177 251.391 175.298 250.887 175.298 250.318C175.298 249.749 175.177 249.249 174.934 248.82C174.691 248.391 174.365 248.055 173.954 247.812C173.543 247.569 173.077 247.448 172.554 247.448C172.031 247.448 171.56 247.569 171.14 247.812C170.729 248.055 170.403 248.391 170.16 248.82C169.927 249.249 169.81 249.749 169.81 250.318C169.81 250.887 169.927 251.391 170.16 251.83C170.403 252.259 170.729 252.595 171.14 252.838C171.56 253.071 172.031 253.188 172.554 253.188ZM181.452 254.07C180.742 254.07 180.103 253.911 179.534 253.594C178.974 253.267 178.53 252.824 178.204 252.264C177.877 251.695 177.714 251.046 177.714 250.318C177.714 249.581 177.877 248.932 178.204 248.372C178.53 247.812 178.974 247.373 179.534 247.056C180.094 246.739 180.733 246.58 181.452 246.58C182.18 246.58 182.824 246.739 183.384 247.056C183.953 247.373 184.396 247.812 184.714 248.372C185.04 248.932 185.204 249.581 185.204 250.318C185.204 251.046 185.04 251.695 184.714 252.264C184.396 252.824 183.953 253.267 183.384 253.594C182.814 253.911 182.17 254.07 181.452 254.07ZM181.452 253.188C181.984 253.188 182.455 253.071 182.866 252.838C183.276 252.595 183.598 252.259 183.832 251.83C184.074 251.391 184.196 250.887 184.196 250.318C184.196 249.739 184.074 249.235 183.832 248.806C183.598 248.377 183.276 248.045 182.866 247.812C182.455 247.569 181.988 247.448 181.466 247.448C180.943 247.448 180.476 247.569 180.066 247.812C179.655 248.045 179.328 248.377 179.086 248.806C178.843 249.235 178.722 249.739 178.722 250.318C178.722 250.887 178.843 251.391 179.086 251.83C179.328 252.259 179.655 252.595 180.066 252.838C180.476 253.071 180.938 253.188 181.452 253.188ZM192.327 253.524V247.518H188.785L188.701 249.156C188.682 249.651 188.65 250.136 188.603 250.612C188.566 251.088 188.496 251.527 188.393 251.928C188.3 252.32 188.164 252.642 187.987 252.894C187.81 253.137 187.581 253.277 187.301 253.314L186.307 253.132C186.596 253.141 186.834 253.039 187.021 252.824C187.208 252.6 187.352 252.297 187.455 251.914C187.558 251.531 187.632 251.097 187.679 250.612C187.726 250.117 187.763 249.613 187.791 249.1L187.889 246.65H193.321V253.524H192.327ZM185.999 255.778V253.132H194.469V255.778H193.531V254H186.937V255.778H185.999ZM196.532 256.786C196.187 256.786 195.856 256.73 195.538 256.618C195.23 256.506 194.964 256.338 194.74 256.114L195.202 255.372C195.389 255.549 195.59 255.685 195.804 255.778C196.028 255.881 196.276 255.932 196.546 255.932C196.873 255.932 197.153 255.839 197.386 255.652C197.629 255.475 197.858 255.157 198.072 254.7L198.548 253.622L198.66 253.468L201.684 246.65H202.664L198.982 254.882C198.777 255.358 198.548 255.736 198.296 256.016C198.054 256.296 197.788 256.492 197.498 256.604C197.209 256.725 196.887 256.786 196.532 256.786ZM198.492 254.21L195.104 246.65H196.14L199.136 253.398L198.492 254.21ZM209.603 254L206.579 250.36L207.405 249.87L210.779 254H209.603ZM204.213 254V246.65H205.207V254H204.213ZM204.899 250.724V249.87H207.265V250.724H204.899ZM207.489 250.43L206.565 250.29L209.491 246.65H210.569L207.489 250.43ZM212.348 254V246.65H213.342V253.132H217.836V246.65H218.83V254H212.348ZM219.082 255.778V253.916L219.334 254H217.836V253.132H220.02V255.778H219.082ZM221.918 254V246.65H222.912V252.488L227.826 246.65H228.708V254H227.714V248.148L222.814 254H221.918ZM231.557 254V246.65H232.551V252.488L237.465 246.65H238.347V254H237.353V248.148L232.453 254H231.557Z" fill="#49494F"></path> <rect x="0.5" y="0.5" width="269" height="281" rx="15.5" stroke="#E2E4E7"></rect> </svg> 