<?xml version="1.0" encoding="UTF-8"?> <svg xmlns="http://www.w3.org/2000/svg" width="270" height="282" viewBox="0 0 270 282" fill="none"> <rect x="0.5" y="0.5" width="269" height="281" rx="15.5" fill="white"></rect> <rect x="16" y="24" width="40" height="40" rx="8" fill="#161617"></rect> <path fill-rule="evenodd" clip-rule="evenodd" d="M33.3984 38.9507V41.9763H44.2498V48.0274H33.3984V55.1006C34.2519 55.5095 35.1054 55.7956 35.9995 56.0001C41.2829 54.8962 46.2412 50.1534 46.4038 41.7309L46.4444 38.9916H33.3984V38.9507Z" fill="#2D7D2F"></path> <path d="M46.486 38.9506L46.5673 32.4089C43.0721 32.1227 39.5362 32 36.0005 32C32.4646 32 28.9288 32.1227 25.4336 32.4089L25.5149 37.5196L25.5962 41.6899C25.5962 41.6899 25.6368 45.5741 26.9373 48.3543C29.0913 53.3833 33.3994 55.0596 33.3994 55.0596V47.9864H44.2507V41.9353H33.3994V38.9506H46.486Z" fill="#72BF44"></path> <path d="M128.526 49V39.2H132.74C133.804 39.2 134.639 39.4147 135.246 39.844C135.853 40.2733 136.156 40.8987 136.156 41.72C136.156 42.5227 135.867 43.1387 135.288 43.568C134.709 43.988 133.949 44.198 133.006 44.198L133.258 43.778C134.35 43.778 135.185 43.9973 135.764 44.436C136.352 44.8653 136.646 45.4953 136.646 46.326C136.646 47.166 136.338 47.824 135.722 48.3C135.115 48.7667 134.21 49 133.006 49H128.526ZM129.912 47.894H132.978C133.725 47.894 134.285 47.7587 134.658 47.488C135.041 47.208 135.232 46.7833 135.232 46.214C135.232 45.6447 135.041 45.2293 134.658 44.968C134.285 44.7067 133.725 44.576 132.978 44.576H129.912V47.894ZM129.912 43.512H132.642C133.323 43.512 133.841 43.3767 134.196 43.106C134.56 42.8353 134.742 42.4387 134.742 41.916C134.742 41.384 134.56 40.9827 134.196 40.712C133.841 40.4413 133.323 40.306 132.642 40.306H129.912V43.512ZM146.097 49V41.58H147.441V49H146.097ZM142.107 44.1C143.05 44.1093 143.764 44.324 144.249 44.744C144.744 45.164 144.991 45.7567 144.991 46.522C144.991 47.3247 144.72 47.9453 144.179 48.384C143.647 48.8133 142.882 49.0233 141.883 49.014L138.761 49V41.58H140.105V44.086L142.107 44.1ZM141.785 47.992C142.382 48.0013 142.84 47.88 143.157 47.628C143.474 47.376 143.633 47.0027 143.633 46.508C143.633 46.0227 143.474 45.668 143.157 45.444C142.849 45.22 142.392 45.1033 141.785 45.094L140.105 45.066V47.978L141.785 47.992ZM155.122 48.37V42.756H151.902L151.832 44.184C151.813 44.6507 151.781 45.1033 151.734 45.542C151.697 45.9713 151.631 46.368 151.538 46.732C151.454 47.096 151.328 47.3947 151.16 47.628C150.992 47.8613 150.768 48.006 150.488 48.062L149.158 47.824C149.447 47.8333 149.681 47.74 149.858 47.544C150.035 47.3387 150.171 47.0587 150.264 46.704C150.367 46.3493 150.441 45.948 150.488 45.5C150.535 45.0427 150.572 44.5713 150.6 44.086L150.712 41.58H156.466V48.37H155.122ZM148.864 50.722V47.824H157.6V50.722H156.34V49H150.138V50.722H148.864ZM163.901 49V47.432L163.831 47.138V44.464C163.831 43.8947 163.663 43.456 163.327 43.148C163 42.8307 162.505 42.672 161.843 42.672C161.404 42.672 160.975 42.7467 160.555 42.896C160.135 43.036 159.78 43.2273 159.491 43.47L158.931 42.462C159.313 42.154 159.771 41.9207 160.303 41.762C160.844 41.594 161.409 41.51 161.997 41.51C163.014 41.51 163.798 41.7573 164.349 42.252C164.899 42.7467 165.175 43.5027 165.175 44.52V49H163.901ZM161.465 49.084C160.914 49.084 160.429 48.9907 160.009 48.804C159.598 48.6173 159.281 48.3607 159.057 48.034C158.833 47.698 158.721 47.32 158.721 46.9C158.721 46.4987 158.814 46.1347 159.001 45.808C159.197 45.4813 159.509 45.22 159.939 45.024C160.377 44.828 160.965 44.73 161.703 44.73H164.055V45.696H161.759C161.087 45.696 160.634 45.808 160.401 46.032C160.167 46.256 160.051 46.5267 160.051 46.844C160.051 47.208 160.195 47.502 160.485 47.726C160.774 47.9407 161.175 48.048 161.689 48.048C162.193 48.048 162.631 47.936 163.005 47.712C163.387 47.488 163.663 47.1613 163.831 46.732L164.097 47.656C163.919 48.0947 163.607 48.4447 163.159 48.706C162.711 48.958 162.146 49.084 161.465 49.084ZM167.595 49V41.58H168.939V44.73H173.167V41.58H174.511V49H173.167V45.892H168.939V49H167.595ZM180.1 49V48.048L184.09 44.198C184.445 43.862 184.706 43.568 184.874 43.316C185.051 43.0547 185.168 42.8167 185.224 42.602C185.289 42.378 185.322 42.1633 185.322 41.958C185.322 41.454 185.145 41.0573 184.79 40.768C184.435 40.4787 183.917 40.334 183.236 40.334C182.713 40.334 182.242 40.4227 181.822 40.6C181.402 40.768 181.038 41.034 180.73 41.398L179.778 40.572C180.151 40.096 180.651 39.732 181.276 39.48C181.911 39.2187 182.606 39.088 183.362 39.088C184.043 39.088 184.636 39.2 185.14 39.424C185.644 39.6387 186.031 39.9513 186.302 40.362C186.582 40.7727 186.722 41.258 186.722 41.818C186.722 42.1353 186.68 42.448 186.596 42.756C186.512 43.064 186.353 43.3907 186.12 43.736C185.887 44.0813 185.551 44.4687 185.112 44.898L181.556 48.328L181.22 47.782H187.142V49H180.1ZM191.471 39.088C192.358 39.088 193.104 39.2793 193.711 39.662C194.327 40.0447 194.794 40.6 195.111 41.328C195.428 42.0467 195.587 42.9287 195.587 43.974C195.587 45.0847 195.391 46.0227 194.999 46.788C194.607 47.5533 194.066 48.132 193.375 48.524C192.684 48.916 191.877 49.112 190.953 49.112C190.496 49.112 190.052 49.0653 189.623 48.972C189.203 48.8787 188.834 48.734 188.517 48.538L189.049 47.446C189.31 47.614 189.6 47.7353 189.917 47.81C190.244 47.8753 190.584 47.908 190.939 47.908C191.928 47.908 192.717 47.6 193.305 46.984C193.893 46.3587 194.187 45.4347 194.187 44.212C194.187 44.016 194.178 43.7827 194.159 43.512C194.14 43.2413 194.098 42.9753 194.033 42.714L194.495 43.19C194.364 43.6193 194.145 43.9833 193.837 44.282C193.538 44.5713 193.174 44.7907 192.745 44.94C192.325 45.08 191.863 45.15 191.359 45.15C190.715 45.15 190.141 45.0287 189.637 44.786C189.133 44.5433 188.736 44.2027 188.447 43.764C188.158 43.316 188.013 42.7887 188.013 42.182C188.013 41.5473 188.162 41.0013 188.461 40.544C188.769 40.0773 189.184 39.718 189.707 39.466C190.239 39.214 190.827 39.088 191.471 39.088ZM191.527 40.222C191.107 40.222 190.734 40.3013 190.407 40.46C190.08 40.6187 189.824 40.838 189.637 41.118C189.46 41.398 189.371 41.734 189.371 42.126C189.371 42.7047 189.572 43.1667 189.973 43.512C190.374 43.848 190.916 44.016 191.597 44.016C192.045 44.016 192.437 43.932 192.773 43.764C193.118 43.596 193.384 43.3673 193.571 43.078C193.767 42.7887 193.865 42.4667 193.865 42.112C193.865 41.7667 193.776 41.454 193.599 41.174C193.422 40.894 193.16 40.6653 192.815 40.488C192.47 40.3107 192.04 40.222 191.527 40.222ZM197.694 49.084C197.432 49.084 197.208 48.9953 197.022 48.818C196.835 48.6313 196.742 48.398 196.742 48.118C196.742 47.838 196.835 47.6093 197.022 47.432C197.208 47.2547 197.432 47.166 197.694 47.166C197.946 47.166 198.16 47.2547 198.338 47.432C198.524 47.6093 198.618 47.838 198.618 48.118C198.618 48.398 198.524 48.6313 198.338 48.818C198.16 48.9953 197.946 49.084 197.694 49.084ZM203.781 49.112C203.016 49.112 202.33 48.916 201.723 48.524C201.126 48.132 200.65 47.5627 200.295 46.816C199.95 46.0693 199.777 45.164 199.777 44.1C199.777 43.036 199.95 42.1307 200.295 41.384C200.65 40.6373 201.126 40.068 201.723 39.676C202.33 39.284 203.016 39.088 203.781 39.088C204.537 39.088 205.219 39.284 205.825 39.676C206.432 40.068 206.908 40.6373 207.253 41.384C207.599 42.1307 207.771 43.036 207.771 44.1C207.771 45.164 207.599 46.0693 207.253 46.816C206.908 47.5627 206.432 48.132 205.825 48.524C205.219 48.916 204.537 49.112 203.781 49.112ZM203.781 47.866C204.295 47.866 204.743 47.726 205.125 47.446C205.517 47.166 205.821 46.746 206.035 46.186C206.259 45.626 206.371 44.9307 206.371 44.1C206.371 43.2693 206.259 42.574 206.035 42.014C205.821 41.454 205.517 41.034 205.125 40.754C204.743 40.474 204.295 40.334 203.781 40.334C203.268 40.334 202.815 40.474 202.423 40.754C202.031 41.034 201.723 41.454 201.499 42.014C201.285 42.574 201.177 43.2693 201.177 44.1C201.177 44.9307 201.285 45.626 201.499 46.186C201.723 46.746 202.031 47.166 202.423 47.446C202.815 47.726 203.268 47.866 203.781 47.866ZM212.293 39.088C213.18 39.088 213.927 39.2793 214.533 39.662C215.149 40.0447 215.616 40.6 215.933 41.328C216.251 42.0467 216.409 42.9287 216.409 43.974C216.409 45.0847 216.213 46.0227 215.821 46.788C215.429 47.5533 214.888 48.132 214.197 48.524C213.507 48.916 212.699 49.112 211.775 49.112C211.318 49.112 210.875 49.0653 210.445 48.972C210.025 48.8787 209.657 48.734 209.339 48.538L209.871 47.446C210.133 47.614 210.422 47.7353 210.739 47.81C211.066 47.8753 211.407 47.908 211.761 47.908C212.751 47.908 213.539 47.6 214.127 46.984C214.715 46.3587 215.009 45.4347 215.009 44.212C215.009 44.016 215 43.7827 214.981 43.512C214.963 43.2413 214.921 42.9753 214.855 42.714L215.317 43.19C215.187 43.6193 214.967 43.9833 214.659 44.282C214.361 44.5713 213.997 44.7907 213.567 44.94C213.147 45.08 212.685 45.15 212.181 45.15C211.537 45.15 210.963 45.0287 210.459 44.786C209.955 44.5433 209.559 44.2027 209.269 43.764C208.98 43.316 208.835 42.7887 208.835 42.182C208.835 41.5473 208.985 41.0013 209.283 40.544C209.591 40.0773 210.007 39.718 210.529 39.466C211.061 39.214 211.649 39.088 212.293 39.088ZM212.349 40.222C211.929 40.222 211.556 40.3013 211.229 40.46C210.903 40.6187 210.646 40.838 210.459 41.118C210.282 41.398 210.193 41.734 210.193 42.126C210.193 42.7047 210.394 43.1667 210.795 43.512C211.197 43.848 211.738 44.016 212.419 44.016C212.867 44.016 213.259 43.932 213.595 43.764C213.941 43.596 214.207 43.3673 214.393 43.078C214.589 42.7887 214.687 42.4667 214.687 42.112C214.687 41.7667 214.599 41.454 214.421 41.174C214.244 40.894 213.983 40.6653 213.637 40.488C213.292 40.3107 212.863 40.222 212.349 40.222ZM218.516 49.084C218.255 49.084 218.031 48.9953 217.844 48.818C217.657 48.6313 217.564 48.398 217.564 48.118C217.564 47.838 217.657 47.6093 217.844 47.432C218.031 47.2547 218.255 47.166 218.516 47.166C218.768 47.166 218.983 47.2547 219.16 47.432C219.347 47.6093 219.44 47.838 219.44 48.118C219.44 48.398 219.347 48.6313 219.16 48.818C218.983 48.9953 218.768 49.084 218.516 49.084ZM220.747 49V48.048L224.737 44.198C225.091 43.862 225.353 43.568 225.521 43.316C225.698 43.0547 225.815 42.8167 225.871 42.602C225.936 42.378 225.969 42.1633 225.969 41.958C225.969 41.454 225.791 41.0573 225.437 40.768C225.082 40.4787 224.564 40.334 223.883 40.334C223.36 40.334 222.889 40.4227 222.469 40.6C222.049 40.768 221.685 41.034 221.377 41.398L220.425 40.572C220.798 40.096 221.297 39.732 221.923 39.48C222.557 39.2187 223.253 39.088 224.009 39.088C224.69 39.088 225.283 39.2 225.787 39.424C226.291 39.6387 226.678 39.9513 226.949 40.362C227.229 40.7727 227.369 41.258 227.369 41.818C227.369 42.1353 227.327 42.448 227.243 42.756C227.159 43.064 227 43.3907 226.767 43.736C226.533 44.0813 226.197 44.4687 225.759 44.898L222.203 48.328L221.867 47.782H227.789V49H220.747ZM232.93 49.112C232.165 49.112 231.479 48.916 230.872 48.524C230.275 48.132 229.799 47.5627 229.444 46.816C229.099 46.0693 228.926 45.164 228.926 44.1C228.926 43.036 229.099 42.1307 229.444 41.384C229.799 40.6373 230.275 40.068 230.872 39.676C231.479 39.284 232.165 39.088 232.93 39.088C233.686 39.088 234.367 39.284 234.974 39.676C235.581 40.068 236.057 40.6373 236.402 41.384C236.747 42.1307 236.92 43.036 236.92 44.1C236.92 45.164 236.747 46.0693 236.402 46.816C236.057 47.5627 235.581 48.132 234.974 48.524C234.367 48.916 233.686 49.112 232.93 49.112ZM232.93 47.866C233.443 47.866 233.891 47.726 234.274 47.446C234.666 47.166 234.969 46.746 235.184 46.186C235.408 45.626 235.52 44.9307 235.52 44.1C235.52 43.2693 235.408 42.574 235.184 42.014C234.969 41.454 234.666 41.034 234.274 40.754C233.891 40.474 233.443 40.334 232.93 40.334C232.417 40.334 231.964 40.474 231.572 40.754C231.18 41.034 230.872 41.454 230.648 42.014C230.433 42.574 230.326 43.2693 230.326 44.1C230.326 44.9307 230.433 45.626 230.648 46.186C230.872 46.746 231.18 47.166 231.572 47.446C231.964 47.726 232.417 47.866 232.93 47.866ZM238.11 49V48.048L242.1 44.198C242.454 43.862 242.716 43.568 242.884 43.316C243.061 43.0547 243.178 42.8167 243.234 42.602C243.299 42.378 243.332 42.1633 243.332 41.958C243.332 41.454 243.154 41.0573 242.8 40.768C242.445 40.4787 241.927 40.334 241.246 40.334C240.723 40.334 240.252 40.4227 239.832 40.6C239.412 40.768 239.048 41.034 238.74 41.398L237.788 40.572C238.161 40.096 238.66 39.732 239.286 39.48C239.92 39.2187 240.616 39.088 241.372 39.088C242.053 39.088 242.646 39.2 243.15 39.424C243.654 39.6387 244.041 39.9513 244.312 40.362C244.592 40.7727 244.732 41.258 244.732 41.818C244.732 42.1353 244.69 42.448 244.606 42.756C244.522 43.064 244.363 43.3907 244.13 43.736C243.896 44.0813 243.56 44.4687 243.122 44.898L239.566 48.328L239.23 47.782H245.152V49H238.11ZM246.149 49V48.048L250.139 44.198C250.494 43.862 250.755 43.568 250.923 43.316C251.1 43.0547 251.217 42.8167 251.273 42.602C251.338 42.378 251.371 42.1633 251.371 41.958C251.371 41.454 251.194 41.0573 250.839 40.768C250.484 40.4787 249.966 40.334 249.285 40.334C248.762 40.334 248.291 40.4227 247.871 40.6C247.451 40.768 247.087 41.034 246.779 41.398L245.827 40.572C246.2 40.096 246.7 39.732 247.325 39.48C247.96 39.2187 248.655 39.088 249.411 39.088C250.092 39.088 250.685 39.2 251.189 39.424C251.693 39.6387 252.08 39.9513 252.351 40.362C252.631 40.7727 252.771 41.258 252.771 41.818C252.771 42.1353 252.729 42.448 252.645 42.756C252.561 43.064 252.402 43.3907 252.169 43.736C251.936 44.0813 251.6 44.4687 251.161 44.898L247.605 48.328L247.269 47.782H253.191V49H246.149Z" fill="#49494F"></path> <path d="M19.984 121V105.16L21.016 106.288H16.192V104.2H22.36V121H19.984ZM39.0321 121.192C37.6721 121.192 36.4961 120.992 35.5041 120.592C34.5121 120.192 33.7441 119.624 33.2001 118.888C32.6561 118.136 32.3841 117.256 32.3841 116.248C32.3841 115.256 32.6401 114.416 33.1521 113.728C33.6801 113.024 34.4401 112.496 35.4321 112.144C36.4241 111.776 37.6241 111.592 39.0321 111.592C40.4401 111.592 41.6401 111.776 42.6321 112.144C43.6401 112.496 44.4081 113.024 44.9361 113.728C45.4641 114.432 45.7281 115.272 45.7281 116.248C45.7281 117.256 45.4561 118.136 44.9121 118.888C44.3681 119.624 43.5921 120.192 42.5841 120.592C41.5761 120.992 40.3921 121.192 39.0321 121.192ZM39.0321 119.248C40.3761 119.248 41.4241 118.976 42.1761 118.432C42.9441 117.872 43.3281 117.12 43.3281 116.176C43.3281 115.248 42.9441 114.52 42.1761 113.992C41.4241 113.448 40.3761 113.176 39.0321 113.176C37.7041 113.176 36.6641 113.448 35.9121 113.992C35.1601 114.52 34.7841 115.248 34.7841 116.176C34.7841 117.12 35.1601 117.872 35.9121 118.432C36.6641 118.976 37.7041 119.248 39.0321 119.248ZM39.0321 112.888C37.7521 112.888 36.6641 112.72 35.7681 112.384C34.8721 112.032 34.1841 111.536 33.7041 110.896C33.2241 110.24 32.9841 109.464 32.9841 108.568C32.9841 107.624 33.2321 106.816 33.7281 106.144C34.2401 105.456 34.9521 104.928 35.8641 104.56C36.7761 104.192 37.8321 104.008 39.0321 104.008C40.2481 104.008 41.3121 104.192 42.2241 104.56C43.1361 104.928 43.8481 105.456 44.3601 106.144C44.8721 106.816 45.1281 107.624 45.1281 108.568C45.1281 109.464 44.8881 110.24 44.4081 110.896C43.9281 111.536 43.2321 112.032 42.3201 112.384C41.4081 112.72 40.3121 112.888 39.0321 112.888ZM39.0321 111.352C40.2001 111.352 41.1121 111.112 41.7681 110.632C42.4401 110.152 42.7761 109.496 42.7761 108.664C42.7761 107.816 42.4321 107.152 41.7441 106.672C41.0561 106.192 40.1521 105.952 39.0321 105.952C37.9121 105.952 37.0161 106.192 36.3441 106.672C35.6881 107.152 35.3601 107.816 35.3601 108.664C35.3601 109.496 35.6801 110.152 36.3201 110.632C36.9761 111.112 37.8801 111.352 39.0321 111.352ZM47.6614 121V119.368L54.5014 112.768C55.1094 112.192 55.5574 111.688 55.8454 111.256C56.1494 110.808 56.3494 110.4 56.4454 110.032C56.5574 109.648 56.6134 109.28 56.6134 108.928C56.6134 108.064 56.3094 107.384 55.7014 106.888C55.0934 106.392 54.2054 106.144 53.0374 106.144C52.1414 106.144 51.3334 106.296 50.6134 106.6C49.8934 106.888 49.2694 107.344 48.7414 107.968L47.1094 106.552C47.7494 105.736 48.6054 105.112 49.6774 104.68C50.7654 104.232 51.9574 104.008 53.2534 104.008C54.4214 104.008 55.4374 104.2 56.3014 104.584C57.1654 104.952 57.8294 105.488 58.2934 106.192C58.7734 106.896 59.0134 107.728 59.0134 108.688C59.0134 109.232 58.9414 109.768 58.7974 110.296C58.6534 110.824 58.3814 111.384 57.9814 111.976C57.5814 112.568 57.0054 113.232 56.2534 113.968L50.1574 119.848L49.5814 118.912H59.7334V121H47.6614ZM64.5873 121L71.7153 105.208L72.3393 106.288H62.3553L63.5553 105.112V109.288H61.2513V104.2H73.9233V105.832L67.1313 121H64.5873ZM89.3363 121.192C88.0243 121.192 86.8483 120.856 85.8083 120.184C84.7843 119.512 83.9683 118.536 83.3603 117.256C82.7683 115.976 82.4723 114.424 82.4723 112.6C82.4723 110.776 82.7683 109.224 83.3603 107.944C83.9683 106.664 84.7843 105.688 85.8083 105.016C86.8483 104.344 88.0243 104.008 89.3363 104.008C90.6323 104.008 91.8003 104.344 92.8403 105.016C93.8803 105.688 94.6963 106.664 95.2883 107.944C95.8803 109.224 96.1763 110.776 96.1763 112.6C96.1763 114.424 95.8803 115.976 95.2883 117.256C94.6963 118.536 93.8803 119.512 92.8403 120.184C91.8003 120.856 90.6323 121.192 89.3363 121.192ZM89.3363 119.056C90.2163 119.056 90.9843 118.816 91.6403 118.336C92.3123 117.856 92.8323 117.136 93.2003 116.176C93.5843 115.216 93.7763 114.024 93.7763 112.6C93.7763 111.176 93.5843 109.984 93.2003 109.024C92.8323 108.064 92.3123 107.344 91.6403 106.864C90.9843 106.384 90.2163 106.144 89.3363 106.144C88.4563 106.144 87.6803 106.384 87.0083 106.864C86.3363 107.344 85.8083 108.064 85.4243 109.024C85.0563 109.984 84.8723 111.176 84.8723 112.6C84.8723 114.024 85.0563 115.216 85.4243 116.176C85.8083 117.136 86.3363 117.856 87.0083 118.336C87.6803 118.816 88.4563 119.056 89.3363 119.056ZM105.344 121.192C104.032 121.192 102.856 120.856 101.816 120.184C100.792 119.512 99.9761 118.536 99.3681 117.256C98.7761 115.976 98.4801 114.424 98.4801 112.6C98.4801 110.776 98.7761 109.224 99.3681 107.944C99.9761 106.664 100.792 105.688 101.816 105.016C102.856 104.344 104.032 104.008 105.344 104.008C106.64 104.008 107.808 104.344 108.848 105.016C109.888 105.688 110.704 106.664 111.296 107.944C111.888 109.224 112.184 110.776 112.184 112.6C112.184 114.424 111.888 115.976 111.296 117.256C110.704 118.536 109.888 119.512 108.848 120.184C107.808 120.856 106.64 121.192 105.344 121.192ZM105.344 119.056C106.224 119.056 106.992 118.816 107.648 118.336C108.32 117.856 108.84 117.136 109.208 116.176C109.592 115.216 109.784 114.024 109.784 112.6C109.784 111.176 109.592 109.984 109.208 109.024C108.84 108.064 108.32 107.344 107.648 106.864C106.992 106.384 106.224 106.144 105.344 106.144C104.464 106.144 103.688 106.384 103.016 106.864C102.344 107.344 101.816 108.064 101.432 109.024C101.064 109.984 100.88 111.176 100.88 112.6C100.88 114.024 101.064 115.216 101.432 116.176C101.816 117.136 102.344 117.856 103.016 118.336C103.688 118.816 104.464 119.056 105.344 119.056ZM121.352 121.192C120.04 121.192 118.864 120.856 117.824 120.184C116.8 119.512 115.984 118.536 115.376 117.256C114.784 115.976 114.488 114.424 114.488 112.6C114.488 110.776 114.784 109.224 115.376 107.944C115.984 106.664 116.8 105.688 117.824 105.016C118.864 104.344 120.04 104.008 121.352 104.008C122.648 104.008 123.816 104.344 124.856 105.016C125.896 105.688 126.712 106.664 127.304 107.944C127.896 109.224 128.192 110.776 128.192 112.6C128.192 114.424 127.896 115.976 127.304 117.256C126.712 118.536 125.896 119.512 124.856 120.184C123.816 120.856 122.648 121.192 121.352 121.192ZM121.352 119.056C122.232 119.056 123 118.816 123.656 118.336C124.328 117.856 124.848 117.136 125.216 116.176C125.6 115.216 125.792 114.024 125.792 112.6C125.792 111.176 125.6 109.984 125.216 109.024C124.848 108.064 124.328 107.344 123.656 106.864C123 106.384 122.232 106.144 121.352 106.144C120.472 106.144 119.696 106.384 119.024 106.864C118.352 107.344 117.824 108.064 117.44 109.024C117.072 109.984 116.888 111.176 116.888 112.6C116.888 114.024 117.072 115.216 117.44 116.176C117.824 117.136 118.352 117.856 119.024 118.336C119.696 118.816 120.472 119.056 121.352 119.056ZM132.512 121V104.2H139.112C141.272 104.2 142.976 104.68 144.224 105.64C145.472 106.584 146.096 107.968 146.096 109.792C146.096 111.616 145.472 113.008 144.224 113.968C142.976 114.928 141.272 115.408 139.112 115.408H133.856L134.936 114.28V121H132.512ZM134.936 114.52L133.856 113.416H139.112C140.584 113.416 141.712 113.104 142.496 112.48C143.28 111.856 143.672 110.968 143.672 109.816C143.672 108.68 143.28 107.808 142.496 107.2C141.712 106.592 140.584 106.288 139.112 106.288H133.856L134.936 105.088V114.52ZM130.064 118.192V116.824H140.264V118.192H130.064Z" fill="#161617"></path> <path d="M221.592 114V112.912L226.152 108.512C226.557 108.128 226.856 107.792 227.048 107.504C227.251 107.205 227.384 106.933 227.448 106.688C227.523 106.432 227.56 106.187 227.56 105.952C227.56 105.376 227.357 104.923 226.952 104.592C226.547 104.261 225.955 104.096 225.176 104.096C224.579 104.096 224.04 104.197 223.56 104.4C223.08 104.592 222.664 104.896 222.312 105.312L221.224 104.368C221.651 103.824 222.221 103.408 222.936 103.12C223.661 102.821 224.456 102.672 225.32 102.672C226.099 102.672 226.776 102.8 227.352 103.056C227.928 103.301 228.371 103.659 228.68 104.128C229 104.597 229.16 105.152 229.16 105.792C229.16 106.155 229.112 106.512 229.016 106.864C228.92 107.216 228.739 107.589 228.472 107.984C228.205 108.379 227.821 108.821 227.32 109.312L223.256 113.232L222.872 112.608H229.64V114H221.592ZM230.483 111.248V110.128L236.211 102.8H237.939L232.259 110.128L231.443 109.872H240.387V111.248H230.483ZM236.707 114V111.248L236.755 109.872V107.44H238.259V114H236.707ZM242.398 114L250.046 102.8H251.278L243.63 114H242.398ZM243.294 108.816C242.782 108.816 242.328 108.688 241.934 108.432C241.539 108.176 241.23 107.819 241.006 107.36C240.792 106.901 240.686 106.368 240.686 105.76C240.686 105.152 240.792 104.619 241.006 104.16C241.23 103.701 241.539 103.344 241.934 103.088C242.328 102.832 242.782 102.704 243.294 102.704C243.816 102.704 244.27 102.832 244.654 103.088C245.048 103.344 245.352 103.701 245.566 104.16C245.779 104.619 245.886 105.152 245.886 105.76C245.886 106.368 245.779 106.901 245.566 107.36C245.352 107.819 245.048 108.176 244.654 108.432C244.27 108.688 243.816 108.816 243.294 108.816ZM243.294 107.904C243.784 107.904 244.168 107.717 244.446 107.344C244.723 106.96 244.862 106.432 244.862 105.76C244.862 105.088 244.723 104.565 244.446 104.192C244.168 103.808 243.784 103.616 243.294 103.616C242.814 103.616 242.43 103.808 242.142 104.192C241.864 104.565 241.726 105.088 241.726 105.76C241.726 106.421 241.864 106.944 242.142 107.328C242.43 107.712 242.814 107.904 243.294 107.904ZM250.382 114.096C249.87 114.096 249.416 113.968 249.022 113.712C248.627 113.456 248.323 113.099 248.11 112.64C247.896 112.181 247.79 111.648 247.79 111.04C247.79 110.432 247.896 109.899 248.11 109.44C248.323 108.981 248.627 108.624 249.022 108.368C249.416 108.112 249.87 107.984 250.382 107.984C250.904 107.984 251.358 108.112 251.742 108.368C252.136 108.624 252.44 108.981 252.654 109.44C252.878 109.899 252.99 110.432 252.99 111.04C252.99 111.648 252.878 112.181 252.654 112.64C252.44 113.099 252.136 113.456 251.742 113.712C251.358 113.968 250.904 114.096 250.382 114.096ZM250.382 113.184C250.862 113.184 251.24 112.997 251.518 112.624C251.806 112.24 251.95 111.712 251.95 111.04C251.95 110.379 251.806 109.856 251.518 109.472C251.24 109.088 250.862 108.896 250.382 108.896C249.902 108.896 249.518 109.088 249.23 109.472C248.952 109.845 248.814 110.368 248.814 111.04C248.814 111.712 248.952 112.24 249.23 112.624C249.518 112.997 249.902 113.184 250.382 113.184Z" fill="#2CCC39"></path> <path d="M254 143H16V145H254V143Z" fill="#DDDDDD" mask="url(#path-6-inside-1_2152_2674)"></path> <path d="M22.8 178.096C21.9573 178.096 21.1733 177.957 20.448 177.68C19.7333 177.392 19.1093 176.992 18.576 176.48C18.0533 175.957 17.6427 175.355 17.344 174.672C17.056 173.979 16.912 173.221 16.912 172.4C16.912 171.579 17.056 170.827 17.344 170.144C17.6427 169.451 18.0533 168.848 18.576 168.336C19.1093 167.813 19.7333 167.413 20.448 167.136C21.1627 166.848 21.9467 166.704 22.8 166.704C23.6427 166.704 24.4213 166.848 25.136 167.136C25.8507 167.413 26.4693 167.808 26.992 168.32C27.5253 168.832 27.936 169.435 28.224 170.128C28.5227 170.821 28.672 171.579 28.672 172.4C28.672 173.221 28.5227 173.979 28.224 174.672C27.936 175.365 27.5253 175.968 26.992 176.48C26.4693 176.992 25.8507 177.392 25.136 177.68C24.4213 177.957 23.6427 178.096 22.8 178.096ZM22.8 177.04C23.472 177.04 24.0907 176.928 24.656 176.704C25.232 176.469 25.728 176.144 26.144 175.728C26.5707 175.301 26.9013 174.811 27.136 174.256C27.3707 173.691 27.488 173.072 27.488 172.4C27.488 171.728 27.3707 171.115 27.136 170.56C26.9013 169.995 26.5707 169.504 26.144 169.088C25.728 168.661 25.232 168.336 24.656 168.112C24.0907 167.877 23.472 167.76 22.8 167.76C22.128 167.76 21.504 167.877 20.928 168.112C20.352 168.336 19.8507 168.661 19.424 169.088C19.008 169.504 18.6773 169.995 18.432 170.56C18.1973 171.115 18.08 171.728 18.08 172.4C18.08 173.061 18.1973 173.675 18.432 174.24C18.6773 174.805 19.008 175.301 19.424 175.728C19.8507 176.144 20.352 176.469 20.928 176.704C21.504 176.928 22.128 177.04 22.8 177.04ZM36.4094 178.096C35.5667 178.096 34.7827 177.957 34.0574 177.68C33.3427 177.392 32.7187 176.992 32.1854 176.48C31.6627 175.957 31.252 175.355 30.9534 174.672C30.6654 173.979 30.5214 173.221 30.5214 172.4C30.5214 171.579 30.6654 170.827 30.9534 170.144C31.252 169.451 31.6627 168.848 32.1854 168.336C32.7187 167.813 33.3427 167.413 34.0574 167.136C34.772 166.848 35.556 166.704 36.4094 166.704C37.252 166.704 38.0307 166.848 38.7454 167.136C39.46 167.413 40.0787 167.808 40.6014 168.32C41.1347 168.832 41.5454 169.435 41.8334 170.128C42.132 170.821 42.2814 171.579 42.2814 172.4C42.2814 173.221 42.132 173.979 41.8334 174.672C41.5454 175.365 41.1347 175.968 40.6014 176.48C40.0787 176.992 39.46 177.392 38.7454 177.68C38.0307 177.957 37.252 178.096 36.4094 178.096ZM36.4094 177.04C37.0814 177.04 37.7 176.928 38.2654 176.704C38.8414 176.469 39.3374 176.144 39.7534 175.728C40.18 175.301 40.5107 174.811 40.7454 174.256C40.98 173.691 41.0974 173.072 41.0974 172.4C41.0974 171.728 40.98 171.115 40.7454 170.56C40.5107 169.995 40.18 169.504 39.7534 169.088C39.3374 168.661 38.8414 168.336 38.2654 168.112C37.7 167.877 37.0814 167.76 36.4094 167.76C35.7374 167.76 35.1134 167.877 34.5374 168.112C33.9614 168.336 33.46 168.661 33.0334 169.088C32.6174 169.504 32.2867 169.995 32.0414 170.56C31.8067 171.115 31.6894 171.728 31.6894 172.4C31.6894 173.061 31.8067 173.675 32.0414 174.24C32.2867 174.805 32.6174 175.301 33.0334 175.728C33.46 176.144 33.9614 176.469 34.5374 176.704C35.1134 176.928 35.7374 177.04 36.4094 177.04ZM50.0188 178.096C49.1761 178.096 48.3921 177.957 47.6668 177.68C46.9521 177.392 46.3281 176.992 45.7948 176.48C45.2721 175.957 44.8614 175.355 44.5628 174.672C44.2748 173.979 44.1308 173.221 44.1308 172.4C44.1308 171.579 44.2748 170.827 44.5628 170.144C44.8614 169.451 45.2721 168.848 45.7948 168.336C46.3281 167.813 46.9521 167.413 47.6668 167.136C48.3814 166.848 49.1654 166.704 50.0188 166.704C50.8614 166.704 51.6401 166.848 52.3548 167.136C53.0694 167.413 53.6881 167.808 54.2108 168.32C54.7441 168.832 55.1548 169.435 55.4428 170.128C55.7414 170.821 55.8908 171.579 55.8908 172.4C55.8908 173.221 55.7414 173.979 55.4428 174.672C55.1548 175.365 54.7441 175.968 54.2108 176.48C53.6881 176.992 53.0694 177.392 52.3548 177.68C51.6401 177.957 50.8614 178.096 50.0188 178.096ZM50.0188 177.04C50.6908 177.04 51.3094 176.928 51.8748 176.704C52.4508 176.469 52.9468 176.144 53.3628 175.728C53.7894 175.301 54.1201 174.811 54.3548 174.256C54.5894 173.691 54.7068 173.072 54.7068 172.4C54.7068 171.728 54.5894 171.115 54.3548 170.56C54.1201 169.995 53.7894 169.504 53.3628 169.088C52.9468 168.661 52.4508 168.336 51.8748 168.112C51.3094 167.877 50.6908 167.76 50.0188 167.76C49.3468 167.76 48.7228 167.877 48.1468 168.112C47.5708 168.336 47.0694 168.661 46.6428 169.088C46.2268 169.504 45.8961 169.995 45.6508 170.56C45.4161 171.115 45.2988 171.728 45.2988 172.4C45.2988 173.061 45.4161 173.675 45.6508 174.24C45.8961 174.805 46.2268 175.301 46.6428 175.728C47.0694 176.144 47.5708 176.469 48.1468 176.704C48.7228 176.928 49.3468 177.04 50.0188 177.04ZM62.9036 178V166.8H64.0716V176.08L71.2396 166.8H72.3116V178H71.1436V168.736L63.9756 178H62.9036ZM75.8191 178V169.6H76.9551V173.312H82.2511V169.6H83.3871V178H82.2511V174.288H76.9551V178H75.8191ZM88.216 178V170.288L88.504 170.592H85.032V169.6H92.536V170.592H89.064L89.352 170.288V178H88.216ZM97.3079 178.08C96.4759 178.08 95.7292 177.899 95.0679 177.536C94.4172 177.163 93.9052 176.656 93.5319 176.016C93.1585 175.365 92.9719 174.624 92.9719 173.792C92.9719 172.949 93.1585 172.208 93.5319 171.568C93.9052 170.928 94.4172 170.427 95.0679 170.064C95.7292 169.701 96.4759 169.52 97.3079 169.52C98.0225 169.52 98.6679 169.659 99.2439 169.936C99.8199 170.213 100.273 170.629 100.604 171.184L99.7559 171.76C99.4679 171.333 99.1105 171.019 98.6839 170.816C98.2572 170.613 97.7932 170.512 97.2919 170.512C96.6945 170.512 96.1559 170.651 95.6759 170.928C95.1959 171.195 94.8172 171.573 94.5399 172.064C94.2625 172.555 94.1239 173.131 94.1239 173.792C94.1239 174.453 94.2625 175.029 94.5399 175.52C94.8172 176.011 95.1959 176.395 95.6759 176.672C96.1559 176.939 96.6945 177.072 97.2919 177.072C97.7932 177.072 98.2572 176.971 98.6839 176.768C99.1105 176.565 99.4679 176.256 99.7559 175.84L100.604 176.416C100.273 176.96 99.8199 177.376 99.2439 177.664C98.6679 177.941 98.0225 178.08 97.3079 178.08ZM108.02 178V176.144L107.972 175.84V172.736C107.972 172.021 107.769 171.472 107.364 171.088C106.969 170.704 106.377 170.512 105.588 170.512C105.044 170.512 104.526 170.603 104.036 170.784C103.545 170.965 103.129 171.205 102.788 171.504L102.276 170.656C102.702 170.293 103.214 170.016 103.812 169.824C104.409 169.621 105.038 169.52 105.7 169.52C106.788 169.52 107.625 169.792 108.212 170.336C108.809 170.869 109.108 171.685 109.108 172.784V178H108.02ZM105.124 178.08C104.494 178.08 103.945 177.979 103.476 177.776C103.017 177.563 102.665 177.275 102.42 176.912C102.174 176.539 102.052 176.112 102.052 175.632C102.052 175.195 102.153 174.8 102.356 174.448C102.569 174.085 102.91 173.797 103.38 173.584C103.86 173.36 104.5 173.248 105.299 173.248H108.196V174.096H105.332C104.521 174.096 103.956 174.24 103.636 174.528C103.326 174.816 103.172 175.173 103.172 175.6C103.172 176.08 103.358 176.464 103.732 176.752C104.105 177.04 104.628 177.184 105.299 177.184C105.94 177.184 106.489 177.04 106.948 176.752C107.417 176.453 107.758 176.027 107.972 175.472L108.228 176.256C108.014 176.811 107.641 177.253 107.108 177.584C106.585 177.915 105.924 178.08 105.124 178.08ZM112.132 178V169.6H113.268V176.272L118.884 169.6H119.892V178H118.756V171.312L113.156 178H112.132ZM121.611 177.984L121.691 177.008C121.766 177.019 121.835 177.035 121.899 177.056C121.974 177.067 122.038 177.072 122.091 177.072C122.433 177.072 122.705 176.944 122.907 176.688C123.121 176.432 123.281 176.091 123.387 175.664C123.494 175.237 123.569 174.757 123.611 174.224C123.654 173.68 123.691 173.136 123.723 172.592L123.867 169.6H130.027V178H128.891V170.256L129.179 170.592H124.603L124.875 170.24L124.747 172.672C124.715 173.397 124.657 174.091 124.571 174.752C124.497 175.413 124.374 175.995 124.203 176.496C124.043 176.997 123.819 177.392 123.531 177.68C123.243 177.957 122.875 178.096 122.427 178.096C122.299 178.096 122.166 178.085 122.027 178.064C121.899 178.043 121.761 178.016 121.611 177.984Z" fill="#49494F"></path> <path d="M254 223H16V225H254V223Z" fill="#DDDDDD" mask="url(#path-10-inside-2_2152_2674)"></path> <path d="M16.49 252.824L16.868 252.082C17.2973 252.455 17.778 252.735 18.31 252.922C18.8513 253.099 19.3927 253.193 19.934 253.202C20.4753 253.202 20.97 253.123 21.418 252.964C21.8753 252.805 22.244 252.572 22.524 252.264C22.804 251.947 22.944 251.564 22.944 251.116C22.944 250.547 22.7153 250.108 22.258 249.8C21.81 249.492 21.1847 249.338 20.382 249.338H18.282V248.498H20.326C21.0167 248.498 21.5533 248.353 21.936 248.064C22.328 247.765 22.524 247.355 22.524 246.832C22.524 246.459 22.412 246.141 22.188 245.88C21.9733 245.609 21.6747 245.404 21.292 245.264C20.9187 245.115 20.4987 245.035 20.032 245.026C19.5653 245.007 19.08 245.068 18.576 245.208C18.0813 245.339 17.6007 245.549 17.134 245.838L16.798 244.984C17.3767 244.639 17.9787 244.401 18.604 244.27C19.2293 244.13 19.836 244.083 20.424 244.13C21.012 244.177 21.5393 244.312 22.006 244.536C22.482 244.76 22.86 245.054 23.14 245.418C23.42 245.782 23.56 246.216 23.56 246.72C23.56 247.187 23.4387 247.597 23.196 247.952C22.9627 248.307 22.6313 248.582 22.202 248.778C21.782 248.965 21.2827 249.058 20.704 249.058L20.76 248.75C21.4133 248.75 21.978 248.853 22.454 249.058C22.9393 249.263 23.3127 249.557 23.574 249.94C23.8447 250.313 23.98 250.752 23.98 251.256C23.98 251.732 23.8587 252.157 23.616 252.53C23.3827 252.894 23.056 253.202 22.636 253.454C22.2253 253.697 21.7633 253.874 21.25 253.986C20.7367 254.089 20.2 254.117 19.64 254.07C19.08 254.023 18.5293 253.902 17.988 253.706C17.4467 253.501 16.9473 253.207 16.49 252.824ZM30.8784 254V252.376L30.8364 252.11V249.394C30.8364 248.769 30.6591 248.288 30.3044 247.952C29.9591 247.616 29.4411 247.448 28.7504 247.448C28.2744 247.448 27.8217 247.527 27.3924 247.686C26.9631 247.845 26.5991 248.055 26.3004 248.316L25.8524 247.574C26.2257 247.257 26.6737 247.014 27.1964 246.846C27.7191 246.669 28.2697 246.58 28.8484 246.58C29.8004 246.58 30.5331 246.818 31.0464 247.294C31.5691 247.761 31.8304 248.475 31.8304 249.436V254H30.8784ZM28.3444 254.07C27.7937 254.07 27.3131 253.981 26.9024 253.804C26.5011 253.617 26.1931 253.365 25.9784 253.048C25.7637 252.721 25.6564 252.348 25.6564 251.928C25.6564 251.545 25.7451 251.2 25.9224 250.892C26.1091 250.575 26.4077 250.323 26.8184 250.136C27.2384 249.94 27.7984 249.842 28.4984 249.842H31.0324V250.584H28.5264C27.8171 250.584 27.3224 250.71 27.0424 250.962C26.7717 251.214 26.6364 251.527 26.6364 251.9C26.6364 252.32 26.7997 252.656 27.1264 252.908C27.4531 253.16 27.9104 253.286 28.4984 253.286C29.0584 253.286 29.5391 253.16 29.9404 252.908C30.3511 252.647 30.6497 252.273 30.8364 251.788L31.0604 252.474C30.8737 252.959 30.5471 253.347 30.0804 253.636C29.6231 253.925 29.0444 254.07 28.3444 254.07ZM39.8665 254L36.8425 250.36L37.6685 249.87L41.0425 254H39.8665ZM34.4765 254V246.65H35.4705V254H34.4765ZM35.1625 250.724V249.87H37.5285V250.724H35.1625ZM37.7525 250.43L36.8285 250.29L39.7545 246.65H40.8325L37.7525 250.43ZM42.3134 256.786C41.9681 256.786 41.6368 256.73 41.3194 256.618C41.0114 256.506 40.7454 256.338 40.5214 256.114L40.9834 255.372C41.1701 255.549 41.3708 255.685 41.5854 255.778C41.8094 255.881 42.0568 255.932 42.3274 255.932C42.6541 255.932 42.9341 255.839 43.1674 255.652C43.4101 255.475 43.6388 255.157 43.8534 254.7L44.3294 253.622L44.4414 253.468L47.4654 246.65H48.4454L44.7634 254.882C44.5581 255.358 44.3294 255.736 44.0774 256.016C43.8348 256.296 43.5688 256.492 43.2794 256.604C42.9901 256.725 42.6681 256.786 42.3134 256.786ZM44.2734 254.21L40.8854 246.65H41.9214L44.9174 253.398L44.2734 254.21ZM49.9941 254V246.65H56.6021V254H55.6081V247.252L55.8601 247.518H50.7361L50.9881 247.252V254H49.9941ZM64.8177 254L61.7937 250.36L62.6197 249.87L65.9937 254H64.8177ZM59.4277 254V246.65H60.4217V254H59.4277ZM60.1137 250.724V249.87H62.4797V250.724H60.1137ZM62.7037 250.43L61.7797 250.29L64.7057 246.65H65.7837L62.7037 250.43ZM71.9897 254V252.376L71.9477 252.11V249.394C71.9477 248.769 71.7704 248.288 71.4157 247.952C71.0704 247.616 70.5524 247.448 69.8617 247.448C69.3857 247.448 68.9331 247.527 68.5037 247.686C68.0744 247.845 67.7104 248.055 67.4117 248.316L66.9637 247.574C67.3371 247.257 67.7851 247.014 68.3077 246.846C68.8304 246.669 69.3811 246.58 69.9597 246.58C70.9117 246.58 71.6444 246.818 72.1577 247.294C72.6804 247.761 72.9417 248.475 72.9417 249.436V254H71.9897ZM69.4557 254.07C68.9051 254.07 68.4244 253.981 68.0137 253.804C67.6124 253.617 67.3044 253.365 67.0897 253.048C66.8751 252.721 66.7677 252.348 66.7677 251.928C66.7677 251.545 66.8564 251.2 67.0337 250.892C67.2204 250.575 67.5191 250.323 67.9297 250.136C68.3497 249.94 68.9097 249.842 69.6097 249.842H72.1437V250.584H69.6377C68.9284 250.584 68.4337 250.71 68.1537 250.962C67.8831 251.214 67.7477 251.527 67.7477 251.9C67.7477 252.32 67.9111 252.656 68.2377 252.908C68.5644 253.16 69.0217 253.286 69.6097 253.286C70.1697 253.286 70.6504 253.16 71.0517 252.908C71.4624 252.647 71.7611 252.273 71.9477 251.788L72.1717 252.474C71.9851 252.959 71.6584 253.347 71.1917 253.636C70.7344 253.925 70.1557 254.07 69.4557 254.07ZM82.2759 254.07C81.5666 254.07 80.9272 253.911 80.3579 253.594C79.7979 253.267 79.3546 252.824 79.0279 252.264C78.7012 251.695 78.5379 251.046 78.5379 250.318C78.5379 249.581 78.7012 248.932 79.0279 248.372C79.3546 247.812 79.7979 247.373 80.3579 247.056C80.9179 246.739 81.5572 246.58 82.2759 246.58C83.0039 246.58 83.6479 246.739 84.2079 247.056C84.7772 247.373 85.2206 247.812 85.5379 248.372C85.8646 248.932 86.0279 249.581 86.0279 250.318C86.0279 251.046 85.8646 251.695 85.5379 252.264C85.2206 252.824 84.7772 253.267 84.2079 253.594C83.6386 253.911 82.9946 254.07 82.2759 254.07ZM82.2759 253.188C82.8079 253.188 83.2792 253.071 83.6899 252.838C84.1006 252.595 84.4226 252.259 84.6559 251.83C84.8986 251.391 85.0199 250.887 85.0199 250.318C85.0199 249.739 84.8986 249.235 84.6559 248.806C84.4226 248.377 84.1006 248.045 83.6899 247.812C83.2792 247.569 82.8126 247.448 82.2899 247.448C81.7672 247.448 81.3006 247.569 80.8899 247.812C80.4792 248.045 80.1526 248.377 79.9099 248.806C79.6672 249.235 79.5459 249.739 79.5459 250.318C79.5459 250.887 79.6672 251.391 79.9099 251.83C80.1526 252.259 80.4792 252.595 80.8899 252.838C81.3006 253.071 81.7626 253.188 82.2759 253.188ZM91.4563 254.084C90.8589 254.084 90.3269 253.986 89.8603 253.79C89.4029 253.594 89.0109 253.295 88.6843 252.894C88.3576 252.493 88.1103 251.998 87.9423 251.41C87.7743 250.813 87.6903 250.122 87.6903 249.338C87.6903 248.638 87.7556 248.027 87.8863 247.504C88.0169 246.972 88.1989 246.515 88.4323 246.132C88.6656 245.749 88.9363 245.427 89.2443 245.166C89.5616 244.895 89.9023 244.681 90.2663 244.522C90.6396 244.354 91.0223 244.228 91.4143 244.144L94.7183 243.374L94.8863 244.298L91.7783 244.998C91.5823 245.045 91.3443 245.11 91.0643 245.194C90.7936 245.278 90.5136 245.404 90.2243 245.572C89.9443 245.74 89.6829 245.973 89.4403 246.272C89.1976 246.571 89.0016 246.958 88.8523 247.434C88.7123 247.901 88.6423 248.484 88.6423 249.184C88.6423 249.333 88.6469 249.455 88.6563 249.548C88.6656 249.632 88.6749 249.725 88.6843 249.828C88.7029 249.921 88.7169 250.061 88.7263 250.248L88.2923 249.884C88.3949 249.315 88.6049 248.82 88.9223 248.4C89.2396 247.971 89.6363 247.639 90.1123 247.406C90.5976 247.163 91.1343 247.042 91.7223 247.042C92.4036 247.042 93.0103 247.191 93.5423 247.49C94.0743 247.779 94.4896 248.185 94.7883 248.708C95.0963 249.231 95.2503 249.837 95.2503 250.528C95.2503 251.209 95.0916 251.821 94.7743 252.362C94.4663 252.903 94.0276 253.328 93.4583 253.636C92.8889 253.935 92.2216 254.084 91.4563 254.084ZM91.5683 253.258C92.0909 253.258 92.5529 253.141 92.9543 252.908C93.3556 252.665 93.6683 252.339 93.8923 251.928C94.1256 251.517 94.2423 251.055 94.2423 250.542C94.2423 250.038 94.1256 249.59 93.8923 249.198C93.6683 248.806 93.3556 248.498 92.9543 248.274C92.5529 248.041 92.0863 247.924 91.5543 247.924C91.0316 247.924 90.5696 248.036 90.1683 248.26C89.7669 248.475 89.4496 248.778 89.2163 249.17C88.9923 249.562 88.8803 250.015 88.8803 250.528C88.8803 251.041 88.9923 251.503 89.2163 251.914C89.4496 252.325 89.7669 252.651 90.1683 252.894C90.5789 253.137 91.0456 253.258 91.5683 253.258ZM100.405 254.07C99.6955 254.07 99.0561 253.911 98.4868 253.594C97.9268 253.267 97.4835 252.824 97.1568 252.264C96.8301 251.695 96.6668 251.046 96.6668 250.318C96.6668 249.581 96.8301 248.932 97.1568 248.372C97.4835 247.812 97.9268 247.373 98.4868 247.056C99.0468 246.739 99.6861 246.58 100.405 246.58C101.133 246.58 101.777 246.739 102.337 247.056C102.906 247.373 103.349 247.812 103.667 248.372C103.993 248.932 104.157 249.581 104.157 250.318C104.157 251.046 103.993 251.695 103.667 252.264C103.349 252.824 102.906 253.267 102.337 253.594C101.767 253.911 101.123 254.07 100.405 254.07ZM100.405 253.188C100.937 253.188 101.408 253.071 101.819 252.838C102.229 252.595 102.551 252.259 102.785 251.83C103.027 251.391 103.149 250.887 103.149 250.318C103.149 249.739 103.027 249.235 102.785 248.806C102.551 248.377 102.229 248.045 101.819 247.812C101.408 247.569 100.941 247.448 100.419 247.448C99.8961 247.448 99.4295 247.569 99.0188 247.812C98.6081 248.045 98.2815 248.377 98.0388 248.806C97.7961 249.235 97.6748 249.739 97.6748 250.318C97.6748 250.887 97.7961 251.391 98.0388 251.83C98.2815 252.259 98.6081 252.595 99.0188 252.838C99.4295 253.071 99.8915 253.188 100.405 253.188ZM110.075 254.07C109.441 254.07 108.867 253.925 108.353 253.636C107.84 253.337 107.429 252.913 107.121 252.362C106.823 251.802 106.673 251.121 106.673 250.318C106.673 249.515 106.823 248.839 107.121 248.288C107.42 247.728 107.826 247.303 108.339 247.014C108.853 246.725 109.431 246.58 110.075 246.58C110.775 246.58 111.401 246.739 111.951 247.056C112.511 247.364 112.95 247.803 113.267 248.372C113.585 248.932 113.743 249.581 113.743 250.318C113.743 251.065 113.585 251.718 113.267 252.278C112.95 252.838 112.511 253.277 111.951 253.594C111.401 253.911 110.775 254.07 110.075 254.07ZM106.281 256.716V246.65H107.233V248.862L107.135 250.332L107.275 251.816V256.716H106.281ZM110.005 253.188C110.528 253.188 110.995 253.071 111.405 252.838C111.816 252.595 112.143 252.259 112.385 251.83C112.628 251.391 112.749 250.887 112.749 250.318C112.749 249.749 112.628 249.249 112.385 248.82C112.143 248.391 111.816 248.055 111.405 247.812C110.995 247.569 110.528 247.448 110.005 247.448C109.483 247.448 109.011 247.569 108.591 247.812C108.181 248.055 107.854 248.391 107.611 248.82C107.378 249.249 107.261 249.749 107.261 250.318C107.261 250.887 107.378 251.391 107.611 251.83C107.854 252.259 108.181 252.595 108.591 252.838C109.011 253.071 109.483 253.188 110.005 253.188ZM115.8 256.786C115.454 256.786 115.123 256.73 114.806 256.618C114.498 256.506 114.232 256.338 114.008 256.114L114.47 255.372C114.656 255.549 114.857 255.685 115.072 255.778C115.296 255.881 115.543 255.932 115.814 255.932C116.14 255.932 116.42 255.839 116.654 255.652C116.896 255.475 117.125 255.157 117.34 254.7L117.816 253.622L117.928 253.468L120.952 246.65H121.932L118.25 254.882C118.044 255.358 117.816 255.736 117.564 256.016C117.321 256.296 117.055 256.492 116.766 256.604C116.476 256.725 116.154 256.786 115.8 256.786ZM117.76 254.21L114.372 246.65H115.408L118.404 253.398L117.76 254.21ZM128.206 253.524V247.518H124.664L124.58 249.156C124.561 249.651 124.529 250.136 124.482 250.612C124.445 251.088 124.375 251.527 124.272 251.928C124.179 252.32 124.043 252.642 123.866 252.894C123.689 253.137 123.46 253.277 123.18 253.314L122.186 253.132C122.475 253.141 122.713 253.039 122.9 252.824C123.087 252.6 123.231 252.297 123.334 251.914C123.437 251.531 123.511 251.097 123.558 250.612C123.605 250.117 123.642 249.613 123.67 249.1L123.768 246.65H129.2V253.524H128.206ZM121.878 255.778V253.132H130.348V255.778H129.41V254H122.816V255.778H121.878ZM135.309 254.07C134.6 254.07 133.96 253.911 133.391 253.594C132.831 253.267 132.388 252.824 132.061 252.264C131.734 251.695 131.571 251.046 131.571 250.318C131.571 249.581 131.734 248.932 132.061 248.372C132.388 247.812 132.831 247.373 133.391 247.056C133.951 246.739 134.59 246.58 135.309 246.58C136.037 246.58 136.681 246.739 137.241 247.056C137.81 247.373 138.254 247.812 138.571 248.372C138.898 248.932 139.061 249.581 139.061 250.318C139.061 251.046 138.898 251.695 138.571 252.264C138.254 252.824 137.81 253.267 137.241 253.594C136.672 253.911 136.028 254.07 135.309 254.07ZM135.309 253.188C135.841 253.188 136.312 253.071 136.723 252.838C137.134 252.595 137.456 252.259 137.689 251.83C137.932 251.391 138.053 250.887 138.053 250.318C138.053 249.739 137.932 249.235 137.689 248.806C137.456 248.377 137.134 248.045 136.723 247.812C136.312 247.569 135.846 247.448 135.323 247.448C134.8 247.448 134.334 247.569 133.923 247.812C133.512 248.045 133.186 248.377 132.943 248.806C132.7 249.235 132.579 249.739 132.579 250.318C132.579 250.887 132.7 251.391 132.943 251.83C133.186 252.259 133.512 252.595 133.923 252.838C134.334 253.071 134.796 253.188 135.309 253.188ZM141.185 254V246.65H144.433C145.264 246.65 145.917 246.809 146.393 247.126C146.879 247.443 147.121 247.91 147.121 248.526C147.121 249.123 146.893 249.585 146.435 249.912C145.978 250.229 145.376 250.388 144.629 250.388L144.825 250.094C145.703 250.094 146.347 250.257 146.757 250.584C147.168 250.911 147.373 251.382 147.373 251.998C147.373 252.633 147.14 253.127 146.673 253.482C146.216 253.827 145.502 254 144.531 254H141.185ZM142.151 253.216H144.489C145.115 253.216 145.586 253.118 145.903 252.922C146.23 252.717 146.393 252.39 146.393 251.942C146.393 251.494 146.249 251.167 145.959 250.962C145.67 250.757 145.213 250.654 144.587 250.654H142.151V253.216ZM142.151 249.912H144.363C144.933 249.912 145.367 249.805 145.665 249.59C145.973 249.375 146.127 249.063 146.127 248.652C146.127 248.241 145.973 247.933 145.665 247.728C145.367 247.523 144.933 247.42 144.363 247.42H142.151V249.912ZM154.267 254V252.376L154.225 252.11V249.394C154.225 248.769 154.048 248.288 153.693 247.952C153.348 247.616 152.83 247.448 152.139 247.448C151.663 247.448 151.21 247.527 150.781 247.686C150.352 247.845 149.988 248.055 149.689 248.316L149.241 247.574C149.614 247.257 150.062 247.014 150.585 246.846C151.108 246.669 151.658 246.58 152.237 246.58C153.189 246.58 153.922 246.818 154.435 247.294C154.958 247.761 155.219 248.475 155.219 249.436V254H154.267ZM151.733 254.07C151.182 254.07 150.702 253.981 150.291 253.804C149.89 253.617 149.582 253.365 149.367 253.048C149.152 252.721 149.045 252.348 149.045 251.928C149.045 251.545 149.134 251.2 149.311 250.892C149.498 250.575 149.796 250.323 150.207 250.136C150.627 249.94 151.187 249.842 151.887 249.842H154.421V250.584H151.915C151.206 250.584 150.711 250.71 150.431 250.962C150.16 251.214 150.025 251.527 150.025 251.9C150.025 252.32 150.188 252.656 150.515 252.908C150.842 253.16 151.299 253.286 151.887 253.286C152.447 253.286 152.928 253.16 153.329 252.908C153.74 252.647 154.038 252.273 154.225 251.788L154.449 252.474C154.262 252.959 153.936 253.347 153.469 253.636C153.012 253.925 152.433 254.07 151.733 254.07ZM157.865 254V246.65H158.859V249.898H163.493V246.65H164.487V254H163.493V250.752H158.859V254H157.865ZM167.312 254V246.65H168.306V252.488L173.22 246.65H174.102V254H173.108V248.148L168.208 254H167.312ZM181.697 254V251.354L181.879 251.564H179.387C178.444 251.564 177.707 251.359 177.175 250.948C176.643 250.537 176.377 249.94 176.377 249.156C176.377 248.316 176.662 247.691 177.231 247.28C177.8 246.86 178.561 246.65 179.513 246.65H182.607V254H181.697ZM176.321 254L178.337 251.172H179.373L177.399 254H176.321ZM181.697 251.06V247.224L181.879 247.518H179.541C178.86 247.518 178.328 247.649 177.945 247.91C177.572 248.171 177.385 248.596 177.385 249.184C177.385 250.276 178.08 250.822 179.471 250.822H181.879L181.697 251.06Z" fill="#49494F"></path> <rect x="0.5" y="0.5" width="269" height="281" rx="15.5" stroke="#E2E4E7"></rect> </svg> 