<?xml version="1.0" encoding="UTF-8"?> <svg xmlns="http://www.w3.org/2000/svg" width="270" height="282" viewBox="0 0 270 282" fill="none"> <rect x="0.5" y="0.5" width="269" height="281" rx="15.5" fill="white"></rect> <rect x="16" y="24" width="40" height="40" rx="8" fill="url(#paint0_linear_0_106)"></rect> <path fill-rule="evenodd" clip-rule="evenodd" d="M33 54H25V50H33V54ZM32.5 50.5H25.5V53.5H32.5V50.5Z" fill="#FAFAFA"></path> <path fill-rule="evenodd" clip-rule="evenodd" d="M33 46H25V42H33V46ZM32.5 42.5H25.5V45.5H32.5V42.5Z" fill="#FAFAFA"></path> <path fill-rule="evenodd" clip-rule="evenodd" d="M41 54H33V50H41V54ZM40.5 50.5H33.5V53.5H40.5V50.5Z" fill="#FAFAFA"></path> <path fill-rule="evenodd" clip-rule="evenodd" d="M41 46H33V42H41V46ZM40.5 42.5H33.5V45.5H40.5V42.5Z" fill="#FAFAFA"></path> <path fill-rule="evenodd" clip-rule="evenodd" d="M49 54H41V50H49V54ZM48.5 50.5H41.5V53.5H48.5V50.5Z" fill="#FAFAFA"></path> <path fill-rule="evenodd" clip-rule="evenodd" d="M49 46H41V42H49V46ZM48.5 42.5H41.5V45.5H48.5V42.5Z" fill="#FAFAFA"></path> <path fill-rule="evenodd" clip-rule="evenodd" d="M45 42H37V38H45V42ZM44.5 38.5H37.5V41.5H44.5V38.5Z" fill="#FAFAFA"></path> <path fill-rule="evenodd" clip-rule="evenodd" d="M37 42H29V38H37V42ZM36.5 38.5H29.5V41.5H36.5V38.5Z" fill="#FAFAFA"></path> <path fill-rule="evenodd" clip-rule="evenodd" d="M42 38H34V34H42V38ZM41.5 34.5H34.5V37.5H41.5V34.5Z" fill="#FAFAFA"></path> <path fill-rule="evenodd" clip-rule="evenodd" d="M52 50H44V46H52V50ZM51.5 46.5H44.5V49.5H51.5V46.5Z" fill="#FAFAFA"></path> <path fill-rule="evenodd" clip-rule="evenodd" d="M44 50H36V46H44V50ZM43.5 46.5H36.5V49.5H43.5V46.5Z" fill="#FAFAFA"></path> <path fill-rule="evenodd" clip-rule="evenodd" d="M36 50H28V46H36V50ZM35.5 46.5H28.5V49.5H35.5V46.5Z" fill="#FAFAFA"></path> <path fill-rule="evenodd" clip-rule="evenodd" d="M28 50H20V46H28V50ZM27.5 46.5H20.5V49.5H27.5V46.5Z" fill="#FAFAFA"></path> <path fill-rule="evenodd" clip-rule="evenodd" d="M36.95 37.95H42V38.05H37.05V42.05H33.05V46.05H28.05V49.95H33.05V54H32.95V50.05H27.95V45.95H32.95V41.95H36.95V37.95Z" fill="#161617"></path> <path fill-rule="evenodd" clip-rule="evenodd" d="M37 41.95H41.05V45.95H44.05V50.05H41.05V54H40.95V49.95H43.95V46.05H40.95V42.05H37V41.95Z" fill="#161617"></path> <path fill-rule="evenodd" clip-rule="evenodd" d="M37 38.05H34V37.95H37V38.05ZM45 41.95V42.05H29V41.95H45ZM25 50.05V49.95H49V50.05H25Z" fill="#161617"></path> <path fill-rule="evenodd" clip-rule="evenodd" d="M48.9397 46.05H25V45.95H48.9397V46.05Z" fill="#161617"></path> <path d="M129.526 49V39.2H133.74C134.804 39.2 135.639 39.4147 136.246 39.844C136.853 40.2733 137.156 40.8987 137.156 41.72C137.156 42.5227 136.867 43.1387 136.288 43.568C135.709 43.988 134.949 44.198 134.006 44.198L134.258 43.778C135.35 43.778 136.185 43.9973 136.764 44.436C137.352 44.8653 137.646 45.4953 137.646 46.326C137.646 47.166 137.338 47.824 136.722 48.3C136.115 48.7667 135.21 49 134.006 49H129.526ZM130.912 47.894H133.978C134.725 47.894 135.285 47.7587 135.658 47.488C136.041 47.208 136.232 46.7833 136.232 46.214C136.232 45.6447 136.041 45.2293 135.658 44.968C135.285 44.7067 134.725 44.576 133.978 44.576H130.912V47.894ZM130.912 43.512H133.642C134.323 43.512 134.841 43.3767 135.196 43.106C135.56 42.8353 135.742 42.4387 135.742 41.916C135.742 41.384 135.56 40.9827 135.196 40.712C134.841 40.4413 134.323 40.306 133.642 40.306H130.912V43.512ZM147.097 49V41.58H148.441V49H147.097ZM143.107 44.1C144.05 44.1093 144.764 44.324 145.249 44.744C145.744 45.164 145.991 45.7567 145.991 46.522C145.991 47.3247 145.72 47.9453 145.179 48.384C144.647 48.8133 143.882 49.0233 142.883 49.014L139.761 49V41.58H141.105V44.086L143.107 44.1ZM142.785 47.992C143.382 48.0013 143.84 47.88 144.157 47.628C144.474 47.376 144.633 47.0027 144.633 46.508C144.633 46.0227 144.474 45.668 144.157 45.444C143.849 45.22 143.392 45.1033 142.785 45.094L141.105 45.066V47.978L142.785 47.992ZM156.122 48.37V42.756H152.902L152.832 44.184C152.813 44.6507 152.781 45.1033 152.734 45.542C152.697 45.9713 152.631 46.368 152.538 46.732C152.454 47.096 152.328 47.3947 152.16 47.628C151.992 47.8613 151.768 48.006 151.488 48.062L150.158 47.824C150.447 47.8333 150.681 47.74 150.858 47.544C151.035 47.3387 151.171 47.0587 151.264 46.704C151.367 46.3493 151.441 45.948 151.488 45.5C151.535 45.0427 151.572 44.5713 151.6 44.086L151.712 41.58H157.466V48.37H156.122ZM149.864 50.722V47.824H158.6V50.722H157.34V49H151.138V50.722H149.864ZM164.901 49V47.432L164.831 47.138V44.464C164.831 43.8947 164.663 43.456 164.327 43.148C164 42.8307 163.505 42.672 162.843 42.672C162.404 42.672 161.975 42.7467 161.555 42.896C161.135 43.036 160.78 43.2273 160.491 43.47L159.931 42.462C160.313 42.154 160.771 41.9207 161.303 41.762C161.844 41.594 162.409 41.51 162.997 41.51C164.014 41.51 164.798 41.7573 165.349 42.252C165.899 42.7467 166.175 43.5027 166.175 44.52V49H164.901ZM162.465 49.084C161.914 49.084 161.429 48.9907 161.009 48.804C160.598 48.6173 160.281 48.3607 160.057 48.034C159.833 47.698 159.721 47.32 159.721 46.9C159.721 46.4987 159.814 46.1347 160.001 45.808C160.197 45.4813 160.509 45.22 160.939 45.024C161.377 44.828 161.965 44.73 162.703 44.73H165.055V45.696H162.759C162.087 45.696 161.634 45.808 161.401 46.032C161.167 46.256 161.051 46.5267 161.051 46.844C161.051 47.208 161.195 47.502 161.485 47.726C161.774 47.9407 162.175 48.048 162.689 48.048C163.193 48.048 163.631 47.936 164.005 47.712C164.387 47.488 164.663 47.1613 164.831 46.732L165.097 47.656C164.919 48.0947 164.607 48.4447 164.159 48.706C163.711 48.958 163.146 49.084 162.465 49.084ZM168.595 49V41.58H169.939V44.73H174.167V41.58H175.511V49H174.167V45.892H169.939V49H168.595ZM185.258 49.112C184.493 49.112 183.807 48.916 183.2 48.524C182.603 48.132 182.127 47.5627 181.772 46.816C181.427 46.0693 181.254 45.164 181.254 44.1C181.254 43.036 181.427 42.1307 181.772 41.384C182.127 40.6373 182.603 40.068 183.2 39.676C183.807 39.284 184.493 39.088 185.258 39.088C186.014 39.088 186.695 39.284 187.302 39.676C187.909 40.068 188.385 40.6373 188.73 41.384C189.075 42.1307 189.248 43.036 189.248 44.1C189.248 45.164 189.075 46.0693 188.73 46.816C188.385 47.5627 187.909 48.132 187.302 48.524C186.695 48.916 186.014 49.112 185.258 49.112ZM185.258 47.866C185.771 47.866 186.219 47.726 186.602 47.446C186.994 47.166 187.297 46.746 187.512 46.186C187.736 45.626 187.848 44.9307 187.848 44.1C187.848 43.2693 187.736 42.574 187.512 42.014C187.297 41.454 186.994 41.034 186.602 40.754C186.219 40.474 185.771 40.334 185.258 40.334C184.745 40.334 184.292 40.474 183.9 40.754C183.508 41.034 183.2 41.454 182.976 42.014C182.761 42.574 182.654 43.2693 182.654 44.1C182.654 44.9307 182.761 45.626 182.976 46.186C183.2 46.746 183.508 47.166 183.9 47.446C184.292 47.726 184.745 47.866 185.258 47.866ZM190.452 46.592V45.612L195.464 39.2H196.976L192.006 45.612L191.292 45.388H199.118V46.592H190.452ZM195.898 49V46.592L195.94 45.388V43.26H197.256V49H195.898ZM201.155 49.084C200.893 49.084 200.669 48.9953 200.483 48.818C200.296 48.6313 200.203 48.398 200.203 48.118C200.203 47.838 200.296 47.6093 200.483 47.432C200.669 47.2547 200.893 47.166 201.155 47.166C201.407 47.166 201.621 47.2547 201.799 47.432C201.985 47.6093 202.079 47.838 202.079 48.118C202.079 48.398 201.985 48.6313 201.799 48.818C201.621 48.9953 201.407 49.084 201.155 49.084ZM204.877 49V39.76L205.479 40.418H202.665V39.2H206.263V49H204.877ZM212.41 49.112C211.645 49.112 210.959 48.916 210.352 48.524C209.755 48.132 209.279 47.5627 208.924 46.816C208.579 46.0693 208.406 45.164 208.406 44.1C208.406 43.036 208.579 42.1307 208.924 41.384C209.279 40.6373 209.755 40.068 210.352 39.676C210.959 39.284 211.645 39.088 212.41 39.088C213.166 39.088 213.848 39.284 214.454 39.676C215.061 40.068 215.537 40.6373 215.882 41.384C216.228 42.1307 216.4 43.036 216.4 44.1C216.4 45.164 216.228 46.0693 215.882 46.816C215.537 47.5627 215.061 48.132 214.454 48.524C213.848 48.916 213.166 49.112 212.41 49.112ZM212.41 47.866C212.924 47.866 213.372 47.726 213.754 47.446C214.146 47.166 214.45 46.746 214.664 46.186C214.888 45.626 215 44.9307 215 44.1C215 43.2693 214.888 42.574 214.664 42.014C214.45 41.454 214.146 41.034 213.754 40.754C213.372 40.474 212.924 40.334 212.41 40.334C211.897 40.334 211.444 40.474 211.052 40.754C210.66 41.034 210.352 41.454 210.128 42.014C209.914 42.574 209.806 43.2693 209.806 44.1C209.806 44.9307 209.914 45.626 210.128 46.186C210.352 46.746 210.66 47.166 211.052 47.446C211.444 47.726 211.897 47.866 212.41 47.866ZM218.504 49.084C218.243 49.084 218.019 48.9953 217.832 48.818C217.646 48.6313 217.552 48.398 217.552 48.118C217.552 47.838 217.646 47.6093 217.832 47.432C218.019 47.2547 218.243 47.166 218.504 47.166C218.756 47.166 218.971 47.2547 219.148 47.432C219.335 47.6093 219.428 47.838 219.428 48.118C219.428 48.398 219.335 48.6313 219.148 48.818C218.971 48.9953 218.756 49.084 218.504 49.084ZM220.735 49V48.048L224.725 44.198C225.079 43.862 225.341 43.568 225.509 43.316C225.686 43.0547 225.803 42.8167 225.859 42.602C225.924 42.378 225.957 42.1633 225.957 41.958C225.957 41.454 225.779 41.0573 225.425 40.768C225.07 40.4787 224.552 40.334 223.871 40.334C223.348 40.334 222.877 40.4227 222.457 40.6C222.037 40.768 221.673 41.034 221.365 41.398L220.413 40.572C220.786 40.096 221.285 39.732 221.911 39.48C222.545 39.2187 223.241 39.088 223.997 39.088C224.678 39.088 225.271 39.2 225.775 39.424C226.279 39.6387 226.666 39.9513 226.937 40.362C227.217 40.7727 227.357 41.258 227.357 41.818C227.357 42.1353 227.315 42.448 227.231 42.756C227.147 43.064 226.988 43.3907 226.755 43.736C226.521 44.0813 226.185 44.4687 225.747 44.898L222.191 48.328L221.855 47.782H227.777V49H220.735ZM232.918 49.112C232.153 49.112 231.467 48.916 230.86 48.524C230.263 48.132 229.787 47.5627 229.432 46.816C229.087 46.0693 228.914 45.164 228.914 44.1C228.914 43.036 229.087 42.1307 229.432 41.384C229.787 40.6373 230.263 40.068 230.86 39.676C231.467 39.284 232.153 39.088 232.918 39.088C233.674 39.088 234.356 39.284 234.962 39.676C235.569 40.068 236.045 40.6373 236.39 41.384C236.736 42.1307 236.908 43.036 236.908 44.1C236.908 45.164 236.736 46.0693 236.39 46.816C236.045 47.5627 235.569 48.132 234.962 48.524C234.356 48.916 233.674 49.112 232.918 49.112ZM232.918 47.866C233.432 47.866 233.88 47.726 234.262 47.446C234.654 47.166 234.958 46.746 235.172 46.186C235.396 45.626 235.508 44.9307 235.508 44.1C235.508 43.2693 235.396 42.574 235.172 42.014C234.958 41.454 234.654 41.034 234.262 40.754C233.88 40.474 233.432 40.334 232.918 40.334C232.405 40.334 231.952 40.474 231.56 40.754C231.168 41.034 230.86 41.454 230.636 42.014C230.422 42.574 230.314 43.2693 230.314 44.1C230.314 44.9307 230.422 45.626 230.636 46.186C230.86 46.746 231.168 47.166 231.56 47.446C231.952 47.726 232.405 47.866 232.918 47.866ZM238.098 49V48.048L242.088 44.198C242.443 43.862 242.704 43.568 242.872 43.316C243.049 43.0547 243.166 42.8167 243.222 42.602C243.287 42.378 243.32 42.1633 243.32 41.958C243.32 41.454 243.143 41.0573 242.788 40.768C242.433 40.4787 241.915 40.334 241.234 40.334C240.711 40.334 240.24 40.4227 239.82 40.6C239.4 40.768 239.036 41.034 238.728 41.398L237.776 40.572C238.149 40.096 238.649 39.732 239.274 39.48C239.909 39.2187 240.604 39.088 241.36 39.088C242.041 39.088 242.634 39.2 243.138 39.424C243.642 39.6387 244.029 39.9513 244.3 40.362C244.58 40.7727 244.72 41.258 244.72 41.818C244.72 42.1353 244.678 42.448 244.594 42.756C244.51 43.064 244.351 43.3907 244.118 43.736C243.885 44.0813 243.549 44.4687 243.11 44.898L239.554 48.328L239.218 47.782H245.14V49H238.098ZM246.137 49V48.048L250.127 44.198C250.482 43.862 250.743 43.568 250.911 43.316C251.088 43.0547 251.205 42.8167 251.261 42.602C251.326 42.378 251.359 42.1633 251.359 41.958C251.359 41.454 251.182 41.0573 250.827 40.768C250.472 40.4787 249.954 40.334 249.273 40.334C248.75 40.334 248.279 40.4227 247.859 40.6C247.439 40.768 247.075 41.034 246.767 41.398L245.815 40.572C246.188 40.096 246.688 39.732 247.313 39.48C247.948 39.2187 248.643 39.088 249.399 39.088C250.08 39.088 250.673 39.2 251.177 39.424C251.681 39.6387 252.068 39.9513 252.339 40.362C252.619 40.7727 252.759 41.258 252.759 41.818C252.759 42.1353 252.717 42.448 252.633 42.756C252.549 43.064 252.39 43.3907 252.157 43.736C251.924 44.0813 251.588 44.4687 251.149 44.898L247.593 48.328L247.257 47.782H253.179V49H246.137Z" fill="#49494F"></path> <path d="M16.888 121V119.368L23.728 112.768C24.336 112.192 24.784 111.688 25.072 111.256C25.376 110.808 25.576 110.4 25.672 110.032C25.784 109.648 25.84 109.28 25.84 108.928C25.84 108.064 25.536 107.384 24.928 106.888C24.32 106.392 23.432 106.144 22.264 106.144C21.368 106.144 20.56 106.296 19.84 106.6C19.12 106.888 18.496 107.344 17.968 107.968L16.336 106.552C16.976 105.736 17.832 105.112 18.904 104.68C19.992 104.232 21.184 104.008 22.48 104.008C23.648 104.008 24.664 104.2 25.528 104.584C26.392 104.952 27.056 105.488 27.52 106.192C28 106.896 28.24 107.728 28.24 108.688C28.24 109.232 28.168 109.768 28.024 110.296C27.88 110.824 27.608 111.384 27.208 111.976C26.808 112.568 26.232 113.232 25.48 113.968L19.384 119.848L18.808 118.912H28.96V121H16.888ZM37.7738 121.192C36.4618 121.192 35.2858 120.856 34.2458 120.184C33.2218 119.512 32.4058 118.536 31.7978 117.256C31.2058 115.976 30.9098 114.424 30.9098 112.6C30.9098 110.776 31.2058 109.224 31.7978 107.944C32.4058 106.664 33.2218 105.688 34.2458 105.016C35.2858 104.344 36.4618 104.008 37.7738 104.008C39.0698 104.008 40.2378 104.344 41.2778 105.016C42.3178 105.688 43.1338 106.664 43.7258 107.944C44.3178 109.224 44.6138 110.776 44.6138 112.6C44.6138 114.424 44.3178 115.976 43.7258 117.256C43.1338 118.536 42.3178 119.512 41.2778 120.184C40.2378 120.856 39.0698 121.192 37.7738 121.192ZM37.7738 119.056C38.6538 119.056 39.4218 118.816 40.0778 118.336C40.7498 117.856 41.2698 117.136 41.6378 116.176C42.0218 115.216 42.2138 114.024 42.2138 112.6C42.2138 111.176 42.0218 109.984 41.6378 109.024C41.2698 108.064 40.7498 107.344 40.0778 106.864C39.4218 106.384 38.6538 106.144 37.7738 106.144C36.8938 106.144 36.1178 106.384 35.4458 106.864C34.7738 107.344 34.2458 108.064 33.8618 109.024C33.4938 109.984 33.3098 111.176 33.3098 112.6C33.3098 114.024 33.4938 115.216 33.8618 116.176C34.2458 117.136 34.7738 117.856 35.4458 118.336C36.1178 118.816 36.8938 119.056 37.7738 119.056ZM53.7816 121.192C52.4696 121.192 51.2936 120.856 50.2536 120.184C49.2296 119.512 48.4136 118.536 47.8056 117.256C47.2136 115.976 46.9176 114.424 46.9176 112.6C46.9176 110.776 47.2136 109.224 47.8056 107.944C48.4136 106.664 49.2296 105.688 50.2536 105.016C51.2936 104.344 52.4696 104.008 53.7816 104.008C55.0776 104.008 56.2456 104.344 57.2856 105.016C58.3256 105.688 59.1416 106.664 59.7336 107.944C60.3256 109.224 60.6216 110.776 60.6216 112.6C60.6216 114.424 60.3256 115.976 59.7336 117.256C59.1416 118.536 58.3256 119.512 57.2856 120.184C56.2456 120.856 55.0776 121.192 53.7816 121.192ZM53.7816 119.056C54.6616 119.056 55.4296 118.816 56.0856 118.336C56.7576 117.856 57.2776 117.136 57.6456 116.176C58.0296 115.216 58.2216 114.024 58.2216 112.6C58.2216 111.176 58.0296 109.984 57.6456 109.024C57.2776 108.064 56.7576 107.344 56.0856 106.864C55.4296 106.384 54.6616 106.144 53.7816 106.144C52.9016 106.144 52.1256 106.384 51.4536 106.864C50.7816 107.344 50.2536 108.064 49.8696 109.024C49.5016 109.984 49.3176 111.176 49.3176 112.6C49.3176 114.024 49.5016 115.216 49.8696 116.176C50.2536 117.136 50.7816 117.856 51.4536 118.336C52.1256 118.816 52.9016 119.056 53.7816 119.056ZM76.2348 121.192C74.9228 121.192 73.7468 120.856 72.7068 120.184C71.6828 119.512 70.8668 118.536 70.2588 117.256C69.6668 115.976 69.3708 114.424 69.3708 112.6C69.3708 110.776 69.6668 109.224 70.2588 107.944C70.8668 106.664 71.6828 105.688 72.7068 105.016C73.7468 104.344 74.9228 104.008 76.2348 104.008C77.5308 104.008 78.6988 104.344 79.7388 105.016C80.7788 105.688 81.5948 106.664 82.1868 107.944C82.7788 109.224 83.0748 110.776 83.0748 112.6C83.0748 114.424 82.7788 115.976 82.1868 117.256C81.5948 118.536 80.7788 119.512 79.7388 120.184C78.6988 120.856 77.5308 121.192 76.2348 121.192ZM76.2348 119.056C77.1148 119.056 77.8828 118.816 78.5388 118.336C79.2108 117.856 79.7308 117.136 80.0988 116.176C80.4828 115.216 80.6748 114.024 80.6748 112.6C80.6748 111.176 80.4828 109.984 80.0988 109.024C79.7308 108.064 79.2108 107.344 78.5388 106.864C77.8828 106.384 77.1148 106.144 76.2348 106.144C75.3548 106.144 74.5788 106.384 73.9068 106.864C73.2348 107.344 72.7068 108.064 72.3228 109.024C71.9548 109.984 71.7708 111.176 71.7708 112.6C71.7708 114.024 71.9548 115.216 72.3228 116.176C72.7068 117.136 73.2348 117.856 73.9068 118.336C74.5788 118.816 75.3548 119.056 76.2348 119.056ZM92.2426 121.192C90.9306 121.192 89.7546 120.856 88.7146 120.184C87.6906 119.512 86.8746 118.536 86.2666 117.256C85.6746 115.976 85.3786 114.424 85.3786 112.6C85.3786 110.776 85.6746 109.224 86.2666 107.944C86.8746 106.664 87.6906 105.688 88.7146 105.016C89.7546 104.344 90.9306 104.008 92.2426 104.008C93.5386 104.008 94.7066 104.344 95.7466 105.016C96.7866 105.688 97.6026 106.664 98.1946 107.944C98.7866 109.224 99.0826 110.776 99.0826 112.6C99.0826 114.424 98.7866 115.976 98.1946 117.256C97.6026 118.536 96.7866 119.512 95.7466 120.184C94.7066 120.856 93.5386 121.192 92.2426 121.192ZM92.2426 119.056C93.1226 119.056 93.8906 118.816 94.5466 118.336C95.2186 117.856 95.7386 117.136 96.1066 116.176C96.4906 115.216 96.6826 114.024 96.6826 112.6C96.6826 111.176 96.4906 109.984 96.1066 109.024C95.7386 108.064 95.2186 107.344 94.5466 106.864C93.8906 106.384 93.1226 106.144 92.2426 106.144C91.3626 106.144 90.5866 106.384 89.9146 106.864C89.2426 107.344 88.7146 108.064 88.3306 109.024C87.9626 109.984 87.7786 111.176 87.7786 112.6C87.7786 114.024 87.9626 115.216 88.3306 116.176C88.7146 117.136 89.2426 117.856 89.9146 118.336C90.5866 118.816 91.3626 119.056 92.2426 119.056ZM108.25 121.192C106.938 121.192 105.762 120.856 104.722 120.184C103.698 119.512 102.882 118.536 102.274 117.256C101.682 115.976 101.386 114.424 101.386 112.6C101.386 110.776 101.682 109.224 102.274 107.944C102.882 106.664 103.698 105.688 104.722 105.016C105.762 104.344 106.938 104.008 108.25 104.008C109.546 104.008 110.714 104.344 111.754 105.016C112.794 105.688 113.61 106.664 114.202 107.944C114.794 109.224 115.09 110.776 115.09 112.6C115.09 114.424 114.794 115.976 114.202 117.256C113.61 118.536 112.794 119.512 111.754 120.184C110.714 120.856 109.546 121.192 108.25 121.192ZM108.25 119.056C109.13 119.056 109.898 118.816 110.554 118.336C111.226 117.856 111.746 117.136 112.114 116.176C112.498 115.216 112.69 114.024 112.69 112.6C112.69 111.176 112.498 109.984 112.114 109.024C111.746 108.064 111.226 107.344 110.554 106.864C109.898 106.384 109.13 106.144 108.25 106.144C107.37 106.144 106.594 106.384 105.922 106.864C105.25 107.344 104.722 108.064 104.338 109.024C103.97 109.984 103.786 111.176 103.786 112.6C103.786 114.024 103.97 115.216 104.338 116.176C104.722 117.136 105.25 117.856 105.922 118.336C106.594 118.816 107.37 119.056 108.25 119.056ZM119.41 121V104.2H126.01C128.17 104.2 129.874 104.68 131.122 105.64C132.37 106.584 132.994 107.968 132.994 109.792C132.994 111.616 132.37 113.008 131.122 113.968C129.874 114.928 128.17 115.408 126.01 115.408H120.754L121.834 114.28V121H119.41ZM121.834 114.52L120.754 113.416H126.01C127.482 113.416 128.61 113.104 129.394 112.48C130.178 111.856 130.57 110.968 130.57 109.816C130.57 108.68 130.178 107.808 129.394 107.2C128.61 106.592 127.482 106.288 126.01 106.288H120.754L121.834 105.088V114.52ZM116.962 118.192V116.824H127.162V118.192H116.962Z" fill="#161617"></path> <path d="M224.192 114.128C223.403 114.128 222.635 114.005 221.888 113.76C221.152 113.515 220.549 113.184 220.08 112.768L220.816 111.504C221.189 111.856 221.675 112.144 222.272 112.368C222.869 112.592 223.509 112.704 224.192 112.704C225.024 112.704 225.669 112.528 226.128 112.176C226.597 111.813 226.832 111.328 226.832 110.72C226.832 110.133 226.608 109.664 226.16 109.312C225.723 108.949 225.024 108.768 224.064 108.768H223.168V107.648L226.496 103.552L226.72 104.192H220.592V102.8H227.984V103.888L224.672 107.968L223.84 107.472H224.368C225.723 107.472 226.736 107.776 227.408 108.384C228.091 108.992 228.432 109.765 228.432 110.704C228.432 111.333 228.277 111.909 227.968 112.432C227.659 112.955 227.189 113.371 226.56 113.68C225.941 113.979 225.152 114.128 224.192 114.128ZM234.5 114.128C233.626 114.128 232.842 113.904 232.148 113.456C231.466 113.008 230.922 112.357 230.516 111.504C230.122 110.651 229.924 109.616 229.924 108.4C229.924 107.184 230.122 106.149 230.516 105.296C230.922 104.443 231.466 103.792 232.148 103.344C232.842 102.896 233.626 102.672 234.5 102.672C235.364 102.672 236.143 102.896 236.836 103.344C237.53 103.792 238.074 104.443 238.468 105.296C238.863 106.149 239.06 107.184 239.06 108.4C239.06 109.616 238.863 110.651 238.468 111.504C238.074 112.357 237.53 113.008 236.836 113.456C236.143 113.904 235.364 114.128 234.5 114.128ZM234.5 112.704C235.087 112.704 235.599 112.544 236.036 112.224C236.484 111.904 236.831 111.424 237.076 110.784C237.332 110.144 237.46 109.349 237.46 108.4C237.46 107.451 237.332 106.656 237.076 106.016C236.831 105.376 236.484 104.896 236.036 104.576C235.599 104.256 235.087 104.096 234.5 104.096C233.914 104.096 233.396 104.256 232.948 104.576C232.5 104.896 232.148 105.376 231.892 106.016C231.647 106.656 231.524 107.451 231.524 108.4C231.524 109.349 231.647 110.144 231.892 110.784C232.148 111.424 232.5 111.904 232.948 112.224C233.396 112.544 233.914 112.704 234.5 112.704ZM242.132 114L249.78 102.8H251.012L243.364 114H242.132ZM243.028 108.816C242.516 108.816 242.063 108.688 241.668 108.432C241.273 108.176 240.964 107.819 240.74 107.36C240.527 106.901 240.42 106.368 240.42 105.76C240.42 105.152 240.527 104.619 240.74 104.16C240.964 103.701 241.273 103.344 241.668 103.088C242.063 102.832 242.516 102.704 243.028 102.704C243.551 102.704 244.004 102.832 244.388 103.088C244.783 103.344 245.087 103.701 245.3 104.16C245.513 104.619 245.62 105.152 245.62 105.76C245.62 106.368 245.513 106.901 245.3 107.36C245.087 107.819 244.783 108.176 244.388 108.432C244.004 108.688 243.551 108.816 243.028 108.816ZM243.028 107.904C243.519 107.904 243.903 107.717 244.18 107.344C244.457 106.96 244.596 106.432 244.596 105.76C244.596 105.088 244.457 104.565 244.18 104.192C243.903 103.808 243.519 103.616 243.028 103.616C242.548 103.616 242.164 103.808 241.876 104.192C241.599 104.565 241.46 105.088 241.46 105.76C241.46 106.421 241.599 106.944 241.876 107.328C242.164 107.712 242.548 107.904 243.028 107.904ZM250.116 114.096C249.604 114.096 249.151 113.968 248.756 113.712C248.361 113.456 248.057 113.099 247.844 112.64C247.631 112.181 247.524 111.648 247.524 111.04C247.524 110.432 247.631 109.899 247.844 109.44C248.057 108.981 248.361 108.624 248.756 108.368C249.151 108.112 249.604 107.984 250.116 107.984C250.639 107.984 251.092 108.112 251.476 108.368C251.871 108.624 252.175 108.981 252.388 109.44C252.612 109.899 252.724 110.432 252.724 111.04C252.724 111.648 252.612 112.181 252.388 112.64C252.175 113.099 251.871 113.456 251.476 113.712C251.092 113.968 250.639 114.096 250.116 114.096ZM250.116 113.184C250.596 113.184 250.975 112.997 251.252 112.624C251.54 112.24 251.684 111.712 251.684 111.04C251.684 110.379 251.54 109.856 251.252 109.472C250.975 109.088 250.596 108.896 250.116 108.896C249.636 108.896 249.252 109.088 248.964 109.472C248.687 109.845 248.548 110.368 248.548 111.04C248.548 111.712 248.687 112.24 248.964 112.624C249.252 112.997 249.636 113.184 250.116 113.184Z" fill="#2CCC39"></path> <path d="M254 143H16V145H254V143Z" fill="#DDDDDD" mask="url(#path-21-inside-1_0_106)"></path> <path d="M22.8 178.096C21.9573 178.096 21.1733 177.957 20.448 177.68C19.7333 177.392 19.1093 176.992 18.576 176.48C18.0533 175.957 17.6427 175.355 17.344 174.672C17.056 173.979 16.912 173.221 16.912 172.4C16.912 171.579 17.056 170.827 17.344 170.144C17.6427 169.451 18.0533 168.848 18.576 168.336C19.1093 167.813 19.7333 167.413 20.448 167.136C21.1627 166.848 21.9467 166.704 22.8 166.704C23.6427 166.704 24.4213 166.848 25.136 167.136C25.8507 167.413 26.4693 167.808 26.992 168.32C27.5253 168.832 27.936 169.435 28.224 170.128C28.5227 170.821 28.672 171.579 28.672 172.4C28.672 173.221 28.5227 173.979 28.224 174.672C27.936 175.365 27.5253 175.968 26.992 176.48C26.4693 176.992 25.8507 177.392 25.136 177.68C24.4213 177.957 23.6427 178.096 22.8 178.096ZM22.8 177.04C23.472 177.04 24.0907 176.928 24.656 176.704C25.232 176.469 25.728 176.144 26.144 175.728C26.5707 175.301 26.9013 174.811 27.136 174.256C27.3707 173.691 27.488 173.072 27.488 172.4C27.488 171.728 27.3707 171.115 27.136 170.56C26.9013 169.995 26.5707 169.504 26.144 169.088C25.728 168.661 25.232 168.336 24.656 168.112C24.0907 167.877 23.472 167.76 22.8 167.76C22.128 167.76 21.504 167.877 20.928 168.112C20.352 168.336 19.8507 168.661 19.424 169.088C19.008 169.504 18.6773 169.995 18.432 170.56C18.1973 171.115 18.08 171.728 18.08 172.4C18.08 173.061 18.1973 173.675 18.432 174.24C18.6773 174.805 19.008 175.301 19.424 175.728C19.8507 176.144 20.352 176.469 20.928 176.704C21.504 176.928 22.128 177.04 22.8 177.04ZM36.4094 178.096C35.5667 178.096 34.7827 177.957 34.0574 177.68C33.3427 177.392 32.7187 176.992 32.1854 176.48C31.6627 175.957 31.252 175.355 30.9534 174.672C30.6654 173.979 30.5214 173.221 30.5214 172.4C30.5214 171.579 30.6654 170.827 30.9534 170.144C31.252 169.451 31.6627 168.848 32.1854 168.336C32.7187 167.813 33.3427 167.413 34.0574 167.136C34.772 166.848 35.556 166.704 36.4094 166.704C37.252 166.704 38.0307 166.848 38.7454 167.136C39.46 167.413 40.0787 167.808 40.6014 168.32C41.1347 168.832 41.5454 169.435 41.8334 170.128C42.132 170.821 42.2814 171.579 42.2814 172.4C42.2814 173.221 42.132 173.979 41.8334 174.672C41.5454 175.365 41.1347 175.968 40.6014 176.48C40.0787 176.992 39.46 177.392 38.7454 177.68C38.0307 177.957 37.252 178.096 36.4094 178.096ZM36.4094 177.04C37.0814 177.04 37.7 176.928 38.2654 176.704C38.8414 176.469 39.3374 176.144 39.7534 175.728C40.18 175.301 40.5107 174.811 40.7454 174.256C40.98 173.691 41.0974 173.072 41.0974 172.4C41.0974 171.728 40.98 171.115 40.7454 170.56C40.5107 169.995 40.18 169.504 39.7534 169.088C39.3374 168.661 38.8414 168.336 38.2654 168.112C37.7 167.877 37.0814 167.76 36.4094 167.76C35.7374 167.76 35.1134 167.877 34.5374 168.112C33.9614 168.336 33.46 168.661 33.0334 169.088C32.6174 169.504 32.2867 169.995 32.0414 170.56C31.8067 171.115 31.6894 171.728 31.6894 172.4C31.6894 173.061 31.8067 173.675 32.0414 174.24C32.2867 174.805 32.6174 175.301 33.0334 175.728C33.46 176.144 33.9614 176.469 34.5374 176.704C35.1134 176.928 35.7374 177.04 36.4094 177.04ZM50.0188 178.096C49.1761 178.096 48.3921 177.957 47.6668 177.68C46.9521 177.392 46.3281 176.992 45.7948 176.48C45.2721 175.957 44.8614 175.355 44.5628 174.672C44.2748 173.979 44.1308 173.221 44.1308 172.4C44.1308 171.579 44.2748 170.827 44.5628 170.144C44.8614 169.451 45.2721 168.848 45.7948 168.336C46.3281 167.813 46.9521 167.413 47.6668 167.136C48.3814 166.848 49.1654 166.704 50.0188 166.704C50.8614 166.704 51.6401 166.848 52.3548 167.136C53.0694 167.413 53.6881 167.808 54.2108 168.32C54.7441 168.832 55.1548 169.435 55.4428 170.128C55.7414 170.821 55.8908 171.579 55.8908 172.4C55.8908 173.221 55.7414 173.979 55.4428 174.672C55.1548 175.365 54.7441 175.968 54.2108 176.48C53.6881 176.992 53.0694 177.392 52.3548 177.68C51.6401 177.957 50.8614 178.096 50.0188 178.096ZM50.0188 177.04C50.6908 177.04 51.3094 176.928 51.8748 176.704C52.4508 176.469 52.9468 176.144 53.3628 175.728C53.7894 175.301 54.1201 174.811 54.3548 174.256C54.5894 173.691 54.7068 173.072 54.7068 172.4C54.7068 171.728 54.5894 171.115 54.3548 170.56C54.1201 169.995 53.7894 169.504 53.3628 169.088C52.9468 168.661 52.4508 168.336 51.8748 168.112C51.3094 167.877 50.6908 167.76 50.0188 167.76C49.3468 167.76 48.7228 167.877 48.1468 168.112C47.5708 168.336 47.0694 168.661 46.6428 169.088C46.2268 169.504 45.8961 169.995 45.6508 170.56C45.4161 171.115 45.2988 171.728 45.2988 172.4C45.2988 173.061 45.4161 173.675 45.6508 174.24C45.8961 174.805 46.2268 175.301 46.6428 175.728C47.0694 176.144 47.5708 176.469 48.1468 176.704C48.7228 176.928 49.3468 177.04 50.0188 177.04ZM63.5116 166.128L62.8076 169.088L62.6796 168.4C62.9356 168.4 63.1436 168.48 63.3036 168.64C63.4636 168.789 63.5436 168.992 63.5436 169.248C63.5436 169.504 63.4636 169.712 63.3036 169.872C63.1436 170.032 62.9463 170.112 62.7116 170.112C62.4556 170.112 62.2476 170.032 62.0876 169.872C61.9383 169.701 61.8636 169.493 61.8636 169.248C61.8636 169.152 61.869 169.067 61.8796 168.992C61.8903 168.917 61.9116 168.827 61.9436 168.72C61.9756 168.613 62.0183 168.485 62.0716 168.336L62.7436 166.128H63.5116ZM66.2316 166.128L65.5276 169.088L65.3996 168.4C65.6556 168.4 65.8636 168.48 66.0236 168.64C66.1836 168.789 66.2636 168.992 66.2636 169.248C66.2636 169.504 66.1836 169.712 66.0236 169.872C65.8636 170.032 65.6663 170.112 65.4316 170.112C65.1756 170.112 64.9676 170.032 64.8076 169.872C64.6583 169.701 64.5836 169.493 64.5836 169.248C64.5836 169.152 64.589 169.067 64.5996 168.992C64.6103 168.917 64.6316 168.827 64.6636 168.72C64.6956 168.613 64.7383 168.485 64.7916 168.336L65.4636 166.128H66.2316ZM69.013 178V166.8H70.181V176.08L77.349 166.8H78.421V178H77.253V168.736L70.085 178H69.013ZM90.3925 166.8H91.5605V178H90.3925V166.8ZM83.3845 178H82.2005V166.8H83.3845V178ZM90.5045 172.832H83.2565V171.792H90.5045V172.832ZM100.237 178.096C99.3945 178.096 98.6158 177.957 97.9011 177.68C97.1865 177.392 96.5678 176.992 96.0451 176.48C95.5225 175.968 95.1118 175.365 94.8131 174.672C94.5251 173.979 94.3811 173.221 94.3811 172.4C94.3811 171.579 94.5251 170.821 94.8131 170.128C95.1118 169.435 95.5225 168.832 96.0451 168.32C96.5785 167.808 97.2025 167.413 97.9171 167.136C98.6318 166.848 99.4105 166.704 100.253 166.704C101.064 166.704 101.826 166.843 102.541 167.12C103.256 167.387 103.858 167.792 104.349 168.336L103.597 169.088C103.138 168.619 102.632 168.283 102.077 168.08C101.522 167.867 100.925 167.76 100.285 167.76C99.6131 167.76 98.9891 167.877 98.4131 168.112C97.8371 168.336 97.3358 168.661 96.9091 169.088C96.4825 169.504 96.1465 169.995 95.9011 170.56C95.6665 171.115 95.5491 171.728 95.5491 172.4C95.5491 173.072 95.6665 173.691 95.9011 174.256C96.1465 174.811 96.4825 175.301 96.9091 175.728C97.3358 176.144 97.8371 176.469 98.4131 176.704C98.9891 176.928 99.6131 177.04 100.285 177.04C100.925 177.04 101.522 176.933 102.077 176.72C102.632 176.507 103.138 176.165 103.597 175.696L104.349 176.448C103.858 176.992 103.256 177.403 102.541 177.68C101.826 177.957 101.058 178.096 100.237 178.096ZM108.878 178V167.504L109.198 167.824H104.942V166.8H113.982V167.824H109.742L110.046 167.504V178H108.878ZM113.849 178L118.969 166.8H120.137L125.257 178H124.009L119.305 167.488H119.785L115.081 178H113.849ZM115.865 175.008L116.217 174.048H122.729L123.081 175.008H115.865ZM127.404 178V166.8H128.572V176.08L135.74 166.8H136.812V178H135.644V168.736L128.476 178H127.404ZM132.076 165.984C131.276 165.984 130.641 165.803 130.172 165.44C129.713 165.077 129.478 164.571 129.468 163.92H130.348C130.358 164.347 130.518 164.683 130.828 164.928C131.148 165.173 131.564 165.296 132.076 165.296C132.588 165.296 132.998 165.173 133.308 164.928C133.628 164.683 133.793 164.347 133.804 163.92H134.684C134.673 164.571 134.433 165.077 133.964 165.44C133.494 165.803 132.865 165.984 132.076 165.984ZM139.603 178.096C139.454 178.096 139.31 178.085 139.171 178.064C139.033 178.053 138.878 178.027 138.707 177.984L138.803 176.928C138.985 176.971 139.161 176.992 139.331 176.992C139.811 176.992 140.195 176.805 140.483 176.432C140.782 176.048 141.006 175.461 141.155 174.672C141.305 173.872 141.401 172.848 141.443 171.6L141.603 166.8H149.203V178H148.035V167.504L148.339 167.824H142.355L142.643 167.488L142.499 171.568C142.457 172.688 142.377 173.659 142.259 174.48C142.142 175.291 141.971 175.968 141.747 176.512C141.523 177.045 141.235 177.445 140.883 177.712C140.531 177.968 140.105 178.096 139.603 178.096ZM151.99 170.032L152.694 167.088L152.822 167.76C152.576 167.76 152.368 167.685 152.198 167.536C152.038 167.376 151.958 167.168 151.958 166.912C151.958 166.656 152.038 166.448 152.198 166.288C152.368 166.128 152.571 166.048 152.806 166.048C153.051 166.048 153.248 166.133 153.398 166.304C153.558 166.464 153.638 166.667 153.638 166.912C153.638 166.997 153.632 167.083 153.622 167.168C153.611 167.253 153.59 167.349 153.558 167.456C153.536 167.552 153.499 167.675 153.446 167.824L152.758 170.032H151.99ZM154.71 170.032L155.414 167.088L155.542 167.76C155.296 167.76 155.088 167.685 154.918 167.536C154.758 167.376 154.678 167.168 154.678 166.912C154.678 166.656 154.758 166.448 154.918 166.288C155.088 166.128 155.291 166.048 155.526 166.048C155.771 166.048 155.968 166.133 156.118 166.304C156.278 166.464 156.358 166.667 156.358 166.912C156.358 166.997 156.352 167.083 156.342 167.168C156.331 167.253 156.31 167.349 156.278 167.456C156.256 167.552 156.219 167.675 156.166 167.824L155.478 170.032H154.71Z" fill="#49494F"></path> <path d="M254 223H16V225H254V223Z" fill="#DDDDDD" mask="url(#path-25-inside-2_0_106)"></path> <path d="M17.652 254V244.2H25.898V254H24.876V244.816L25.142 245.096H18.408L18.674 244.816V254H17.652ZM32.1167 254.07C31.3514 254.07 30.6794 253.911 30.1007 253.594C29.5221 253.267 29.0694 252.824 28.7427 252.264C28.4161 251.695 28.2527 251.046 28.2527 250.318C28.2527 249.59 28.4067 248.946 28.7147 248.386C29.0321 247.826 29.4614 247.387 30.0027 247.07C30.5534 246.743 31.1694 246.58 31.8507 246.58C32.5414 246.58 33.1527 246.739 33.6847 247.056C34.2261 247.364 34.6507 247.803 34.9587 248.372C35.2667 248.932 35.4207 249.581 35.4207 250.318C35.4207 250.365 35.4161 250.416 35.4067 250.472C35.4067 250.519 35.4067 250.57 35.4067 250.626H29.0087V249.884H34.8747L34.4827 250.178C34.4827 249.646 34.3661 249.175 34.1327 248.764C33.9087 248.344 33.6007 248.017 33.2087 247.784C32.8167 247.551 32.3641 247.434 31.8507 247.434C31.3467 247.434 30.8941 247.551 30.4927 247.784C30.0914 248.017 29.7787 248.344 29.5547 248.764C29.3307 249.184 29.2187 249.665 29.2187 250.206V250.36C29.2187 250.92 29.3401 251.415 29.5827 251.844C29.8347 252.264 30.1801 252.595 30.6187 252.838C31.0667 253.071 31.5754 253.188 32.1447 253.188C32.5927 253.188 33.0081 253.109 33.3907 252.95C33.7827 252.791 34.1187 252.549 34.3987 252.222L34.9587 252.866C34.6321 253.258 34.2214 253.557 33.7267 253.762C33.2414 253.967 32.7047 254.07 32.1167 254.07ZM41.415 254.07C40.7804 254.07 40.2064 253.925 39.693 253.636C39.1797 253.337 38.769 252.913 38.461 252.362C38.1624 251.802 38.013 251.121 38.013 250.318C38.013 249.515 38.1624 248.839 38.461 248.288C38.7597 247.728 39.1657 247.303 39.679 247.014C40.1924 246.725 40.771 246.58 41.415 246.58C42.115 246.58 42.7404 246.739 43.291 247.056C43.851 247.364 44.2897 247.803 44.607 248.372C44.9244 248.932 45.083 249.581 45.083 250.318C45.083 251.065 44.9244 251.718 44.607 252.278C44.2897 252.838 43.851 253.277 43.291 253.594C42.7404 253.911 42.115 254.07 41.415 254.07ZM37.621 256.716V246.65H38.573V248.862L38.475 250.332L38.615 251.816V256.716H37.621ZM41.345 253.188C41.8677 253.188 42.3344 253.071 42.745 252.838C43.1557 252.595 43.4824 252.259 43.725 251.83C43.9677 251.391 44.089 250.887 44.089 250.318C44.089 249.749 43.9677 249.249 43.725 248.82C43.4824 248.391 43.1557 248.055 42.745 247.812C42.3344 247.569 41.8677 247.448 41.345 247.448C40.8224 247.448 40.351 247.569 39.931 247.812C39.5204 248.055 39.1937 248.391 38.951 248.82C38.7177 249.249 38.601 249.749 38.601 250.318C38.601 250.887 38.7177 251.391 38.951 251.83C39.1937 252.259 39.5204 252.595 39.931 252.838C40.351 253.071 40.8224 253.188 41.345 253.188ZM50.3687 254.07C49.6034 254.07 48.9314 253.911 48.3527 253.594C47.774 253.267 47.3214 252.824 46.9947 252.264C46.668 251.695 46.5047 251.046 46.5047 250.318C46.5047 249.59 46.6587 248.946 46.9667 248.386C47.284 247.826 47.7134 247.387 48.2547 247.07C48.8054 246.743 49.4214 246.58 50.1027 246.58C50.7934 246.58 51.4047 246.739 51.9367 247.056C52.478 247.364 52.9027 247.803 53.2107 248.372C53.5187 248.932 53.6727 249.581 53.6727 250.318C53.6727 250.365 53.668 250.416 53.6587 250.472C53.6587 250.519 53.6587 250.57 53.6587 250.626H47.2607V249.884H53.1267L52.7347 250.178C52.7347 249.646 52.618 249.175 52.3847 248.764C52.1607 248.344 51.8527 248.017 51.4607 247.784C51.0687 247.551 50.616 247.434 50.1027 247.434C49.5987 247.434 49.146 247.551 48.7447 247.784C48.3434 248.017 48.0307 248.344 47.8067 248.764C47.5827 249.184 47.4707 249.665 47.4707 250.206V250.36C47.4707 250.92 47.592 251.415 47.8347 251.844C48.0867 252.264 48.432 252.595 48.8707 252.838C49.3187 253.071 49.8274 253.188 50.3967 253.188C50.8447 253.188 51.26 253.109 51.6427 252.95C52.0347 252.791 52.3707 252.549 52.6507 252.222L53.2107 252.866C52.884 253.258 52.4734 253.557 51.9787 253.762C51.4934 253.967 50.9567 254.07 50.3687 254.07ZM55.873 254V246.65H59.121C59.9517 246.65 60.605 246.809 61.081 247.126C61.5663 247.443 61.809 247.91 61.809 248.526C61.809 249.123 61.5803 249.585 61.123 249.912C60.6657 250.229 60.0637 250.388 59.317 250.388L59.513 250.094C60.3903 250.094 61.0343 250.257 61.445 250.584C61.8557 250.911 62.061 251.382 62.061 251.998C62.061 252.633 61.8277 253.127 61.361 253.482C60.9037 253.827 60.1897 254 59.219 254H55.873ZM56.839 253.216H59.177C59.8023 253.216 60.2737 253.118 60.591 252.922C60.9177 252.717 61.081 252.39 61.081 251.942C61.081 251.494 60.9363 251.167 60.647 250.962C60.3577 250.757 59.9003 250.654 59.275 250.654H56.839V253.216ZM56.839 249.912H59.051C59.6203 249.912 60.0543 249.805 60.353 249.59C60.661 249.375 60.815 249.063 60.815 248.652C60.815 248.241 60.661 247.933 60.353 247.728C60.0543 247.523 59.6203 247.42 59.051 247.42H56.839V249.912ZM67.4146 254.07C66.7052 254.07 66.0659 253.911 65.4966 253.594C64.9366 253.267 64.4932 252.824 64.1666 252.264C63.8399 251.695 63.6766 251.046 63.6766 250.318C63.6766 249.581 63.8399 248.932 64.1666 248.372C64.4932 247.812 64.9366 247.373 65.4966 247.056C66.0566 246.739 66.6959 246.58 67.4146 246.58C68.1426 246.58 68.7866 246.739 69.3466 247.056C69.9159 247.373 70.3592 247.812 70.6766 248.372C71.0032 248.932 71.1666 249.581 71.1666 250.318C71.1666 251.046 71.0032 251.695 70.6766 252.264C70.3592 252.824 69.9159 253.267 69.3466 253.594C68.7772 253.911 68.1332 254.07 67.4146 254.07ZM67.4146 253.188C67.9466 253.188 68.4179 253.071 68.8286 252.838C69.2392 252.595 69.5612 252.259 69.7946 251.83C70.0372 251.391 70.1586 250.887 70.1586 250.318C70.1586 249.739 70.0372 249.235 69.7946 248.806C69.5612 248.377 69.2392 248.045 68.8286 247.812C68.4179 247.569 67.9512 247.448 67.4286 247.448C66.9059 247.448 66.4392 247.569 66.0286 247.812C65.6179 248.045 65.2912 248.377 65.0486 248.806C64.8059 249.235 64.6846 249.739 64.6846 250.318C64.6846 250.887 64.8059 251.391 65.0486 251.83C65.2912 252.259 65.6179 252.595 66.0286 252.838C66.4392 253.071 66.9012 253.188 67.4146 253.188ZM75.2103 254.084C75.8169 254.084 76.3629 253.991 76.8483 253.804C77.3429 253.617 77.7349 253.361 78.0243 253.034C78.3136 252.698 78.4583 252.311 78.4583 251.872C78.4583 251.312 78.2203 250.869 77.7443 250.542C77.2776 250.215 76.6243 250.052 75.7843 250.052L75.7423 250.318C76.2183 250.318 76.6429 250.243 77.0163 250.094C77.3896 249.945 77.6883 249.735 77.9123 249.464C78.1363 249.193 78.2483 248.876 78.2483 248.512C78.2483 248.101 78.1083 247.751 77.8283 247.462C77.5483 247.163 77.1703 246.935 76.6943 246.776C76.2276 246.617 75.7003 246.547 75.1123 246.566C74.6829 246.566 74.2536 246.627 73.8243 246.748C73.4043 246.86 72.9796 247.028 72.5503 247.252L72.8303 248.022C73.2129 247.826 73.6003 247.681 73.9923 247.588C74.3843 247.485 74.7623 247.429 75.1263 247.42C75.5276 247.42 75.8869 247.467 76.2043 247.56C76.5216 247.653 76.7689 247.793 76.9463 247.98C77.1329 248.167 77.2263 248.391 77.2263 248.652C77.2263 248.895 77.1469 249.105 76.9883 249.282C76.8389 249.459 76.6243 249.595 76.3443 249.688C76.0643 249.781 75.7423 249.828 75.3783 249.828H74.1883V250.556H75.4483C76.0643 250.556 76.5496 250.668 76.9043 250.892C77.2589 251.107 77.4363 251.41 77.4363 251.802C77.4363 252.073 77.3429 252.315 77.1563 252.53C76.9696 252.745 76.7083 252.913 76.3723 253.034C76.0363 253.155 75.6396 253.221 75.1823 253.23C74.7249 253.23 74.2629 253.165 73.7963 253.034C73.3296 252.894 72.9189 252.693 72.5643 252.432L72.2423 253.174C72.6436 253.482 73.1056 253.711 73.6283 253.86C74.1509 254.009 74.6783 254.084 75.2103 254.084ZM86.1048 254L83.0808 250.36L83.9068 249.87L87.2808 254H86.1048ZM80.7148 254V246.65H81.7088V254H80.7148ZM81.4008 250.724V249.87H83.7668V250.724H81.4008ZM83.9908 250.43L83.0668 250.29L85.9928 246.65H87.0708L83.9908 250.43ZM93.2768 254V252.376L93.2348 252.11V249.394C93.2348 248.769 93.0575 248.288 92.7028 247.952C92.3575 247.616 91.8395 247.448 91.1488 247.448C90.6728 247.448 90.2202 247.527 89.7908 247.686C89.3615 247.845 88.9975 248.055 88.6988 248.316L88.2508 247.574C88.6242 247.257 89.0722 247.014 89.5948 246.846C90.1175 246.669 90.6682 246.58 91.2468 246.58C92.1988 246.58 92.9315 246.818 93.4448 247.294C93.9675 247.761 94.2288 248.475 94.2288 249.436V254H93.2768ZM90.7428 254.07C90.1922 254.07 89.7115 253.981 89.3008 253.804C88.8995 253.617 88.5915 253.365 88.3768 253.048C88.1622 252.721 88.0548 252.348 88.0548 251.928C88.0548 251.545 88.1435 251.2 88.3208 250.892C88.5075 250.575 88.8062 250.323 89.2168 250.136C89.6368 249.94 90.1968 249.842 90.8968 249.842H93.4308V250.584H90.9248C90.2155 250.584 89.7208 250.71 89.4408 250.962C89.1702 251.214 89.0348 251.527 89.0348 251.9C89.0348 252.32 89.1982 252.656 89.5248 252.908C89.8515 253.16 90.3088 253.286 90.8968 253.286C91.4568 253.286 91.9375 253.16 92.3388 252.908C92.7495 252.647 93.0482 252.273 93.2348 251.788L93.4588 252.474C93.2722 252.959 92.9455 253.347 92.4788 253.636C92.0215 253.925 91.4428 254.07 90.7428 254.07ZM100.539 254V246.65H105.747V247.518H101.281L101.533 247.266V254H100.539ZM110.978 254.07C110.343 254.07 109.769 253.925 109.256 253.636C108.742 253.337 108.332 252.913 108.024 252.362C107.725 251.802 107.576 251.121 107.576 250.318C107.576 249.515 107.725 248.839 108.024 248.288C108.322 247.728 108.728 247.303 109.242 247.014C109.755 246.725 110.334 246.58 110.978 246.58C111.678 246.58 112.303 246.739 112.854 247.056C113.414 247.364 113.852 247.803 114.17 248.372C114.487 248.932 114.646 249.581 114.646 250.318C114.646 251.065 114.487 251.718 114.17 252.278C113.852 252.838 113.414 253.277 112.854 253.594C112.303 253.911 111.678 254.07 110.978 254.07ZM107.184 256.716V246.65H108.136V248.862L108.038 250.332L108.178 251.816V256.716H107.184ZM110.908 253.188C111.43 253.188 111.897 253.071 112.308 252.838C112.718 252.595 113.045 252.259 113.288 251.83C113.53 251.391 113.652 250.887 113.652 250.318C113.652 249.749 113.53 249.249 113.288 248.82C113.045 248.391 112.718 248.055 112.308 247.812C111.897 247.569 111.43 247.448 110.908 247.448C110.385 247.448 109.914 247.569 109.494 247.812C109.083 248.055 108.756 248.391 108.514 248.82C108.28 249.249 108.164 249.749 108.164 250.318C108.164 250.887 108.28 251.391 108.514 251.83C108.756 252.259 109.083 252.595 109.494 252.838C109.914 253.071 110.385 253.188 110.908 253.188ZM116.702 256.786C116.357 256.786 116.025 256.73 115.708 256.618C115.4 256.506 115.134 256.338 114.91 256.114L115.372 255.372C115.559 255.549 115.759 255.685 115.974 255.778C116.198 255.881 116.445 255.932 116.716 255.932C117.043 255.932 117.323 255.839 117.556 255.652C117.799 255.475 118.027 255.157 118.242 254.7L118.718 253.622L118.83 253.468L121.854 246.65H122.834L119.152 254.882C118.947 255.358 118.718 255.736 118.466 256.016C118.223 256.296 117.957 256.492 117.668 256.604C117.379 256.725 117.057 256.786 116.702 256.786ZM118.662 254.21L115.274 246.65H116.31L119.306 253.398L118.662 254.21ZM126.165 254.084C126.772 254.084 127.318 253.991 127.803 253.804C128.298 253.617 128.69 253.361 128.979 253.034C129.269 252.698 129.413 252.311 129.413 251.872C129.413 251.312 129.175 250.869 128.699 250.542C128.233 250.215 127.579 250.052 126.739 250.052L126.697 250.318C127.173 250.318 127.598 250.243 127.971 250.094C128.345 249.945 128.643 249.735 128.867 249.464C129.091 249.193 129.203 248.876 129.203 248.512C129.203 248.101 129.063 247.751 128.783 247.462C128.503 247.163 128.125 246.935 127.649 246.776C127.183 246.617 126.655 246.547 126.067 246.566C125.638 246.566 125.209 246.627 124.779 246.748C124.359 246.86 123.935 247.028 123.505 247.252L123.785 248.022C124.168 247.826 124.555 247.681 124.947 247.588C125.339 247.485 125.717 247.429 126.081 247.42C126.483 247.42 126.842 247.467 127.159 247.56C127.477 247.653 127.724 247.793 127.901 247.98C128.088 248.167 128.181 248.391 128.181 248.652C128.181 248.895 128.102 249.105 127.943 249.282C127.794 249.459 127.579 249.595 127.299 249.688C127.019 249.781 126.697 249.828 126.333 249.828H125.143V250.556H126.403C127.019 250.556 127.505 250.668 127.859 250.892C128.214 251.107 128.391 251.41 128.391 251.802C128.391 252.073 128.298 252.315 128.111 252.53C127.925 252.745 127.663 252.913 127.327 253.034C126.991 253.155 126.595 253.221 126.137 253.23C125.68 253.23 125.218 253.165 124.751 253.034C124.285 252.894 123.874 252.693 123.519 252.432L123.197 253.174C123.599 253.482 124.061 253.711 124.583 253.86C125.106 254.009 125.633 254.084 126.165 254.084ZM134.694 254.07C133.985 254.07 133.345 253.911 132.776 253.594C132.216 253.267 131.773 252.824 131.446 252.264C131.119 251.695 130.956 251.046 130.956 250.318C130.956 249.581 131.119 248.932 131.446 248.372C131.773 247.812 132.216 247.373 132.776 247.056C133.336 246.739 133.975 246.58 134.694 246.58C135.422 246.58 136.066 246.739 136.626 247.056C137.195 247.373 137.639 247.812 137.956 248.372C138.283 248.932 138.446 249.581 138.446 250.318C138.446 251.046 138.283 251.695 137.956 252.264C137.639 252.824 137.195 253.267 136.626 253.594C136.057 253.911 135.413 254.07 134.694 254.07ZM134.694 253.188C135.226 253.188 135.697 253.071 136.108 252.838C136.519 252.595 136.841 252.259 137.074 251.83C137.317 251.391 137.438 250.887 137.438 250.318C137.438 249.739 137.317 249.235 137.074 248.806C136.841 248.377 136.519 248.045 136.108 247.812C135.697 247.569 135.231 247.448 134.708 247.448C134.185 247.448 133.719 247.569 133.308 247.812C132.897 248.045 132.571 248.377 132.328 248.806C132.085 249.235 131.964 249.739 131.964 250.318C131.964 250.887 132.085 251.391 132.328 251.83C132.571 252.259 132.897 252.595 133.308 252.838C133.719 253.071 134.181 253.188 134.694 253.188ZM140.57 254V246.65H143.818C144.649 246.65 145.302 246.809 145.778 247.126C146.264 247.443 146.506 247.91 146.506 248.526C146.506 249.123 146.278 249.585 145.82 249.912C145.363 250.229 144.761 250.388 144.014 250.388L144.21 250.094C145.088 250.094 145.732 250.257 146.142 250.584C146.553 250.911 146.758 251.382 146.758 251.998C146.758 252.633 146.525 253.127 146.058 253.482C145.601 253.827 144.887 254 143.916 254H140.57ZM141.536 253.216H143.874C144.5 253.216 144.971 253.118 145.288 252.922C145.615 252.717 145.778 252.39 145.778 251.942C145.778 251.494 145.634 251.167 145.344 250.962C145.055 250.757 144.598 250.654 143.972 250.654H141.536V253.216ZM141.536 249.912H143.748C144.318 249.912 144.752 249.805 145.05 249.59C145.358 249.375 145.512 249.063 145.512 248.652C145.512 248.241 145.358 247.933 145.05 247.728C144.752 247.523 144.318 247.42 143.748 247.42H141.536V249.912Z" fill="#49494F"></path> <rect x="0.5" y="0.5" width="269" height="281" rx="15.5" stroke="#E2E4E7"></rect> <defs> <linearGradient id="paint0_linear_0_106" x1="19" y1="26.5" x2="36" y2="64" gradientUnits="userSpaceOnUse"> <stop stop-color="#161617"></stop> <stop offset="1" stop-color="#212122"></stop> </linearGradient> </defs> </svg> 