<?xml version="1.0" encoding="UTF-8"?> <svg xmlns="http://www.w3.org/2000/svg" width="270" height="282" viewBox="0 0 270 282" fill="none"> <rect x="0.5" y="0.5" width="269" height="281" rx="15.5" fill="white"></rect> <rect x="16" y="24" width="40" height="40" rx="8" fill="url(#paint0_linear_2152_2688)"></rect> <path fill-rule="evenodd" clip-rule="evenodd" d="M33 54H25V50H33V54ZM32.5 50.5H25.5V53.5H32.5V50.5Z" fill="#FAFAFA"></path> <path fill-rule="evenodd" clip-rule="evenodd" d="M33 46H25V42H33V46ZM32.5 42.5H25.5V45.5H32.5V42.5Z" fill="#FAFAFA"></path> <path fill-rule="evenodd" clip-rule="evenodd" d="M41 54H33V50H41V54ZM40.5 50.5H33.5V53.5H40.5V50.5Z" fill="#FAFAFA"></path> <path fill-rule="evenodd" clip-rule="evenodd" d="M41 46H33V42H41V46ZM40.5 42.5H33.5V45.5H40.5V42.5Z" fill="#FAFAFA"></path> <path fill-rule="evenodd" clip-rule="evenodd" d="M49 54H41V50H49V54ZM48.5 50.5H41.5V53.5H48.5V50.5Z" fill="#FAFAFA"></path> <path fill-rule="evenodd" clip-rule="evenodd" d="M49 46H41V42H49V46ZM48.5 42.5H41.5V45.5H48.5V42.5Z" fill="#FAFAFA"></path> <path fill-rule="evenodd" clip-rule="evenodd" d="M45 42H37V38H45V42ZM44.5 38.5H37.5V41.5H44.5V38.5Z" fill="#FAFAFA"></path> <path fill-rule="evenodd" clip-rule="evenodd" d="M37 42H29V38H37V42ZM36.5 38.5H29.5V41.5H36.5V38.5Z" fill="#FAFAFA"></path> <path fill-rule="evenodd" clip-rule="evenodd" d="M42 38H34V34H42V38ZM41.5 34.5H34.5V37.5H41.5V34.5Z" fill="#FAFAFA"></path> <path fill-rule="evenodd" clip-rule="evenodd" d="M52 50H44V46H52V50ZM51.5 46.5H44.5V49.5H51.5V46.5Z" fill="#FAFAFA"></path> <path fill-rule="evenodd" clip-rule="evenodd" d="M44 50H36V46H44V50ZM43.5 46.5H36.5V49.5H43.5V46.5Z" fill="#FAFAFA"></path> <path fill-rule="evenodd" clip-rule="evenodd" d="M36 50H28V46H36V50ZM35.5 46.5H28.5V49.5H35.5V46.5Z" fill="#FAFAFA"></path> <path fill-rule="evenodd" clip-rule="evenodd" d="M28 50H20V46H28V50ZM27.5 46.5H20.5V49.5H27.5V46.5Z" fill="#FAFAFA"></path> <path fill-rule="evenodd" clip-rule="evenodd" d="M36.9492 37.9502H41.9992V38.0502H37.0492V42.0502H33.0492V46.0502H28.0492V49.9502H33.0492V54.0002H32.9492V50.0502H27.9492V45.9502H32.9492V41.9502H36.9492V37.9502Z" fill="#161617"></path> <path fill-rule="evenodd" clip-rule="evenodd" d="M37 41.9502H41.05V45.9502H44.05V50.0502H41.05V54.0002H40.95V49.9502H43.95V46.0502H40.95V42.0502H37V41.9502Z" fill="#161617"></path> <path fill-rule="evenodd" clip-rule="evenodd" d="M37 38.0502H34V37.9502H37V38.0502ZM45 41.9502V42.0502H29V41.9502H45ZM25 50.0502V49.9502H49V50.0502H25Z" fill="#161617"></path> <path fill-rule="evenodd" clip-rule="evenodd" d="M48.9397 46.0502H25V45.9502H48.9397V46.0502Z" fill="#161617"></path> <path d="M135.526 49V39.2H139.74C140.804 39.2 141.639 39.4147 142.246 39.844C142.853 40.2733 143.156 40.8987 143.156 41.72C143.156 42.5227 142.867 43.1387 142.288 43.568C141.709 43.988 140.949 44.198 140.006 44.198L140.258 43.778C141.35 43.778 142.185 43.9973 142.764 44.436C143.352 44.8653 143.646 45.4953 143.646 46.326C143.646 47.166 143.338 47.824 142.722 48.3C142.115 48.7667 141.21 49 140.006 49H135.526ZM136.912 47.894H139.978C140.725 47.894 141.285 47.7587 141.658 47.488C142.041 47.208 142.232 46.7833 142.232 46.214C142.232 45.6447 142.041 45.2293 141.658 44.968C141.285 44.7067 140.725 44.576 139.978 44.576H136.912V47.894ZM136.912 43.512H139.642C140.323 43.512 140.841 43.3767 141.196 43.106C141.56 42.8353 141.742 42.4387 141.742 41.916C141.742 41.384 141.56 40.9827 141.196 40.712C140.841 40.4413 140.323 40.306 139.642 40.306H136.912V43.512ZM153.097 49V41.58H154.441V49H153.097ZM149.107 44.1C150.05 44.1093 150.764 44.324 151.249 44.744C151.744 45.164 151.991 45.7567 151.991 46.522C151.991 47.3247 151.72 47.9453 151.179 48.384C150.647 48.8133 149.882 49.0233 148.883 49.014L145.761 49V41.58H147.105V44.086L149.107 44.1ZM148.785 47.992C149.382 48.0013 149.84 47.88 150.157 47.628C150.474 47.376 150.633 47.0027 150.633 46.508C150.633 46.0227 150.474 45.668 150.157 45.444C149.849 45.22 149.392 45.1033 148.785 45.094L147.105 45.066V47.978L148.785 47.992ZM162.122 48.37V42.756H158.902L158.832 44.184C158.813 44.6507 158.781 45.1033 158.734 45.542C158.697 45.9713 158.631 46.368 158.538 46.732C158.454 47.096 158.328 47.3947 158.16 47.628C157.992 47.8613 157.768 48.006 157.488 48.062L156.158 47.824C156.447 47.8333 156.681 47.74 156.858 47.544C157.035 47.3387 157.171 47.0587 157.264 46.704C157.367 46.3493 157.441 45.948 157.488 45.5C157.535 45.0427 157.572 44.5713 157.6 44.086L157.712 41.58H163.466V48.37H162.122ZM155.864 50.722V47.824H164.6V50.722H163.34V49H157.138V50.722H155.864ZM170.901 49V47.432L170.831 47.138V44.464C170.831 43.8947 170.663 43.456 170.327 43.148C170 42.8307 169.505 42.672 168.843 42.672C168.404 42.672 167.975 42.7467 167.555 42.896C167.135 43.036 166.78 43.2273 166.491 43.47L165.931 42.462C166.313 42.154 166.771 41.9207 167.303 41.762C167.844 41.594 168.409 41.51 168.997 41.51C170.014 41.51 170.798 41.7573 171.349 42.252C171.899 42.7467 172.175 43.5027 172.175 44.52V49H170.901ZM168.465 49.084C167.914 49.084 167.429 48.9907 167.009 48.804C166.598 48.6173 166.281 48.3607 166.057 48.034C165.833 47.698 165.721 47.32 165.721 46.9C165.721 46.4987 165.814 46.1347 166.001 45.808C166.197 45.4813 166.509 45.22 166.939 45.024C167.377 44.828 167.965 44.73 168.703 44.73H171.055V45.696H168.759C168.087 45.696 167.634 45.808 167.401 46.032C167.167 46.256 167.051 46.5267 167.051 46.844C167.051 47.208 167.195 47.502 167.485 47.726C167.774 47.9407 168.175 48.048 168.689 48.048C169.193 48.048 169.631 47.936 170.005 47.712C170.387 47.488 170.663 47.1613 170.831 46.732L171.097 47.656C170.919 48.0947 170.607 48.4447 170.159 48.706C169.711 48.958 169.146 49.084 168.465 49.084ZM174.595 49V41.58H175.939V44.73H180.167V41.58H181.511V49H180.167V45.892H175.939V49H174.595ZM188.906 49V39.76L189.508 40.418H186.694V39.2H190.292V49H188.906ZM195.6 49.112C194.909 49.112 194.237 49.0047 193.584 48.79C192.94 48.5753 192.412 48.286 192.002 47.922L192.646 46.816C192.972 47.124 193.397 47.376 193.92 47.572C194.442 47.768 194.998 47.866 195.586 47.866C196.332 47.866 196.906 47.7073 197.308 47.39C197.709 47.0727 197.91 46.648 197.91 46.116C197.91 45.752 197.821 45.4347 197.644 45.164C197.466 44.8933 197.158 44.688 196.72 44.548C196.29 44.3987 195.698 44.324 194.942 44.324H192.716L193.234 39.2H198.764V40.418H193.752L194.48 39.732L194.074 43.778L193.346 43.106H195.236C196.216 43.106 197.004 43.232 197.602 43.484C198.199 43.736 198.633 44.086 198.904 44.534C199.174 44.9727 199.31 45.4813 199.31 46.06C199.31 46.62 199.174 47.1333 198.904 47.6C198.633 48.0573 198.222 48.426 197.672 48.706C197.13 48.9767 196.44 49.112 195.6 49.112ZM201.399 49.084C201.137 49.084 200.913 48.9953 200.727 48.818C200.54 48.6313 200.447 48.398 200.447 48.118C200.447 47.838 200.54 47.6093 200.727 47.432C200.913 47.2547 201.137 47.166 201.399 47.166C201.651 47.166 201.865 47.2547 202.043 47.432C202.229 47.6093 202.323 47.838 202.323 48.118C202.323 48.398 202.229 48.6313 202.043 48.818C201.865 48.9953 201.651 49.084 201.399 49.084ZM205.121 49V39.76L205.723 40.418H202.909V39.2H206.507V49H205.121ZM212.655 49.112C211.889 49.112 211.203 48.916 210.597 48.524C209.999 48.132 209.523 47.5627 209.169 46.816C208.823 46.0693 208.651 45.164 208.651 44.1C208.651 43.036 208.823 42.1307 209.169 41.384C209.523 40.6373 209.999 40.068 210.597 39.676C211.203 39.284 211.889 39.088 212.655 39.088C213.411 39.088 214.092 39.284 214.699 39.676C215.305 40.068 215.781 40.6373 216.127 41.384C216.472 42.1307 216.645 43.036 216.645 44.1C216.645 45.164 216.472 46.0693 216.127 46.816C215.781 47.5627 215.305 48.132 214.699 48.524C214.092 48.916 213.411 49.112 212.655 49.112ZM212.655 47.866C213.168 47.866 213.616 47.726 213.999 47.446C214.391 47.166 214.694 46.746 214.909 46.186C215.133 45.626 215.245 44.9307 215.245 44.1C215.245 43.2693 215.133 42.574 214.909 42.014C214.694 41.454 214.391 41.034 213.999 40.754C213.616 40.474 213.168 40.334 212.655 40.334C212.141 40.334 211.689 40.474 211.297 40.754C210.905 41.034 210.597 41.454 210.373 42.014C210.158 42.574 210.051 43.2693 210.051 44.1C210.051 44.9307 210.158 45.626 210.373 46.186C210.597 46.746 210.905 47.166 211.297 47.446C211.689 47.726 212.141 47.866 212.655 47.866ZM218.748 49.084C218.487 49.084 218.263 48.9953 218.076 48.818C217.89 48.6313 217.796 48.398 217.796 48.118C217.796 47.838 217.89 47.6093 218.076 47.432C218.263 47.2547 218.487 47.166 218.748 47.166C219 47.166 219.215 47.2547 219.392 47.432C219.579 47.6093 219.672 47.838 219.672 48.118C219.672 48.398 219.579 48.6313 219.392 48.818C219.215 48.9953 219 49.084 218.748 49.084ZM220.979 49V48.048L224.969 44.198C225.324 43.862 225.585 43.568 225.753 43.316C225.93 43.0547 226.047 42.8167 226.103 42.602C226.168 42.378 226.201 42.1633 226.201 41.958C226.201 41.454 226.024 41.0573 225.669 40.768C225.314 40.4787 224.796 40.334 224.115 40.334C223.592 40.334 223.121 40.4227 222.701 40.6C222.281 40.768 221.917 41.034 221.609 41.398L220.657 40.572C221.03 40.096 221.53 39.732 222.155 39.48C222.79 39.2187 223.485 39.088 224.241 39.088C224.922 39.088 225.515 39.2 226.019 39.424C226.523 39.6387 226.91 39.9513 227.181 40.362C227.461 40.7727 227.601 41.258 227.601 41.818C227.601 42.1353 227.559 42.448 227.475 42.756C227.391 43.064 227.232 43.3907 226.999 43.736C226.766 44.0813 226.43 44.4687 225.991 44.898L222.435 48.328L222.099 47.782H228.021V49H220.979ZM233.162 49.112C232.397 49.112 231.711 48.916 231.104 48.524C230.507 48.132 230.031 47.5627 229.676 46.816C229.331 46.0693 229.158 45.164 229.158 44.1C229.158 43.036 229.331 42.1307 229.676 41.384C230.031 40.6373 230.507 40.068 231.104 39.676C231.711 39.284 232.397 39.088 233.162 39.088C233.918 39.088 234.6 39.284 235.206 39.676C235.813 40.068 236.289 40.6373 236.634 41.384C236.98 42.1307 237.152 43.036 237.152 44.1C237.152 45.164 236.98 46.0693 236.634 46.816C236.289 47.5627 235.813 48.132 235.206 48.524C234.6 48.916 233.918 49.112 233.162 49.112ZM233.162 47.866C233.676 47.866 234.124 47.726 234.506 47.446C234.898 47.166 235.202 46.746 235.416 46.186C235.64 45.626 235.752 44.9307 235.752 44.1C235.752 43.2693 235.64 42.574 235.416 42.014C235.202 41.454 234.898 41.034 234.506 40.754C234.124 40.474 233.676 40.334 233.162 40.334C232.649 40.334 232.196 40.474 231.804 40.754C231.412 41.034 231.104 41.454 230.88 42.014C230.666 42.574 230.558 43.2693 230.558 44.1C230.558 44.9307 230.666 45.626 230.88 46.186C231.104 46.746 231.412 47.166 231.804 47.446C232.196 47.726 232.649 47.866 233.162 47.866ZM238.342 49V48.048L242.332 44.198C242.687 43.862 242.948 43.568 243.116 43.316C243.294 43.0547 243.41 42.8167 243.466 42.602C243.532 42.378 243.564 42.1633 243.564 41.958C243.564 41.454 243.387 41.0573 243.032 40.768C242.678 40.4787 242.16 40.334 241.478 40.334C240.956 40.334 240.484 40.4227 240.064 40.6C239.644 40.768 239.28 41.034 238.972 41.398L238.02 40.572C238.394 40.096 238.893 39.732 239.518 39.48C240.153 39.2187 240.848 39.088 241.604 39.088C242.286 39.088 242.878 39.2 243.382 39.424C243.886 39.6387 244.274 39.9513 244.544 40.362C244.824 40.7727 244.964 41.258 244.964 41.818C244.964 42.1353 244.922 42.448 244.838 42.756C244.754 43.064 244.596 43.3907 244.362 43.736C244.129 44.0813 243.793 44.4687 243.354 44.898L239.798 48.328L239.462 47.782H245.384V49H238.342ZM246.381 49V48.048L250.371 44.198C250.726 43.862 250.987 43.568 251.155 43.316C251.333 43.0547 251.449 42.8167 251.505 42.602C251.571 42.378 251.603 42.1633 251.603 41.958C251.603 41.454 251.426 41.0573 251.071 40.768C250.717 40.4787 250.199 40.334 249.517 40.334C248.995 40.334 248.523 40.4227 248.103 40.6C247.683 40.768 247.319 41.034 247.011 41.398L246.059 40.572C246.433 40.096 246.932 39.732 247.557 39.48C248.192 39.2187 248.887 39.088 249.643 39.088C250.325 39.088 250.917 39.2 251.421 39.424C251.925 39.6387 252.313 39.9513 252.583 40.362C252.863 40.7727 253.003 41.258 253.003 41.818C253.003 42.1353 252.961 42.448 252.877 42.756C252.793 43.064 252.635 43.3907 252.401 43.736C252.168 44.0813 251.832 44.4687 251.393 44.898L247.837 48.328L247.501 47.782H253.423V49H246.381Z" fill="#49494F"></path> <path d="M16.912 116.872V115.192L25.504 104.2H28.096L19.576 115.192L18.352 114.808H31.768V116.872H16.912ZM26.248 121V116.872L26.32 114.808V111.16H28.576V121H26.248ZM44.788 121.192C43.604 121.192 42.452 121.008 41.332 120.64C40.228 120.272 39.324 119.776 38.62 119.152L39.724 117.256C40.284 117.784 41.012 118.216 41.908 118.552C42.804 118.888 43.764 119.056 44.788 119.056C46.036 119.056 47.004 118.792 47.692 118.264C48.396 117.72 48.748 116.992 48.748 116.08C48.748 115.2 48.412 114.496 47.74 113.968C47.084 113.424 46.036 113.152 44.596 113.152H43.252V111.472L48.244 105.328L48.58 106.288H39.388V104.2H50.476V105.832L45.508 111.952L44.26 111.208H45.052C47.084 111.208 48.604 111.664 49.612 112.576C50.636 113.488 51.148 114.648 51.148 116.056C51.148 117 50.916 117.864 50.452 118.648C49.988 119.432 49.284 120.056 48.34 120.52C47.412 120.968 46.228 121.192 44.788 121.192ZM53.0052 121V119.368L59.8452 112.768C60.4532 112.192 60.9012 111.688 61.1892 111.256C61.4932 110.808 61.6932 110.4 61.7892 110.032C61.9012 109.648 61.9572 109.28 61.9572 108.928C61.9572 108.064 61.6532 107.384 61.0452 106.888C60.4372 106.392 59.5492 106.144 58.3812 106.144C57.4852 106.144 56.6772 106.296 55.9572 106.6C55.2372 106.888 54.6132 107.344 54.0852 107.968L52.4532 106.552C53.0932 105.736 53.9492 105.112 55.0212 104.68C56.1092 104.232 57.3012 104.008 58.5972 104.008C59.7652 104.008 60.7812 104.2 61.6452 104.584C62.5092 104.952 63.1732 105.488 63.6372 106.192C64.1172 106.896 64.3572 107.728 64.3572 108.688C64.3572 109.232 64.2852 109.768 64.1412 110.296C63.9972 110.824 63.7252 111.384 63.3252 111.976C62.9252 112.568 62.3492 113.232 61.5972 113.968L55.5012 119.848L54.9252 118.912H65.0772V121H53.0052ZM74.083 121.192C72.595 121.192 71.323 120.864 70.267 120.208C69.211 119.552 68.403 118.608 67.843 117.376C67.299 116.128 67.027 114.608 67.027 112.816C67.027 110.912 67.363 109.304 68.035 107.992C68.707 106.68 69.643 105.688 70.843 105.016C72.043 104.344 73.419 104.008 74.971 104.008C75.771 104.008 76.531 104.088 77.251 104.248C77.987 104.408 78.619 104.656 79.147 104.992L78.235 106.864C77.803 106.56 77.307 106.352 76.747 106.24C76.203 106.128 75.627 106.072 75.019 106.072C73.307 106.072 71.947 106.608 70.939 107.68C69.931 108.736 69.427 110.312 69.427 112.408C69.427 112.744 69.443 113.144 69.475 113.608C69.507 114.072 69.587 114.528 69.715 114.976L68.899 114.16C69.139 113.424 69.515 112.808 70.027 112.312C70.555 111.8 71.179 111.424 71.899 111.184C72.635 110.928 73.427 110.8 74.275 110.8C75.395 110.8 76.387 111.008 77.251 111.424C78.115 111.84 78.795 112.432 79.291 113.2C79.787 113.952 80.035 114.848 80.035 115.888C80.035 116.96 79.771 117.896 79.243 118.696C78.715 119.496 78.003 120.112 77.107 120.544C76.211 120.976 75.203 121.192 74.083 121.192ZM73.987 119.248C74.723 119.248 75.363 119.112 75.907 118.84C76.467 118.568 76.907 118.192 77.227 117.712C77.547 117.216 77.707 116.64 77.707 115.984C77.707 114.992 77.363 114.208 76.675 113.632C75.987 113.04 75.051 112.744 73.867 112.744C73.099 112.744 72.427 112.888 71.851 113.176C71.275 113.464 70.819 113.856 70.483 114.352C70.163 114.832 70.003 115.384 70.003 116.008C70.003 116.584 70.155 117.12 70.459 117.616C70.763 118.096 71.211 118.488 71.803 118.792C72.395 119.096 73.123 119.248 73.987 119.248ZM95.1488 121.192C93.8368 121.192 92.6608 120.856 91.6208 120.184C90.5968 119.512 89.7808 118.536 89.1728 117.256C88.5808 115.976 88.2848 114.424 88.2848 112.6C88.2848 110.776 88.5808 109.224 89.1728 107.944C89.7808 106.664 90.5968 105.688 91.6208 105.016C92.6608 104.344 93.8368 104.008 95.1488 104.008C96.4448 104.008 97.6128 104.344 98.6528 105.016C99.6928 105.688 100.509 106.664 101.101 107.944C101.693 109.224 101.989 110.776 101.989 112.6C101.989 114.424 101.693 115.976 101.101 117.256C100.509 118.536 99.6928 119.512 98.6528 120.184C97.6128 120.856 96.4448 121.192 95.1488 121.192ZM95.1488 119.056C96.0288 119.056 96.7968 118.816 97.4528 118.336C98.1248 117.856 98.6448 117.136 99.0128 116.176C99.3968 115.216 99.5888 114.024 99.5888 112.6C99.5888 111.176 99.3968 109.984 99.0128 109.024C98.6448 108.064 98.1248 107.344 97.4528 106.864C96.7968 106.384 96.0288 106.144 95.1488 106.144C94.2688 106.144 93.4928 106.384 92.8208 106.864C92.1488 107.344 91.6208 108.064 91.2368 109.024C90.8688 109.984 90.6848 111.176 90.6848 112.6C90.6848 114.024 90.8688 115.216 91.2368 116.176C91.6208 117.136 92.1488 117.856 92.8208 118.336C93.4928 118.816 94.2688 119.056 95.1488 119.056ZM107.033 121L114.161 105.208L114.785 106.288H104.801L106.001 105.112V109.288H103.697V104.2H116.369V105.832L109.577 121H107.033ZM123.421 121.192C122.237 121.192 121.085 121.008 119.965 120.64C118.861 120.272 117.957 119.776 117.253 119.152L118.357 117.256C118.917 117.784 119.645 118.216 120.541 118.552C121.437 118.888 122.397 119.056 123.421 119.056C124.669 119.056 125.637 118.792 126.325 118.264C127.029 117.72 127.381 116.992 127.381 116.08C127.381 115.2 127.045 114.496 126.373 113.968C125.717 113.424 124.669 113.152 123.229 113.152H121.885V111.472L126.877 105.328L127.213 106.288H118.021V104.2H129.109V105.832L124.141 111.952L122.893 111.208H123.685C125.717 111.208 127.237 111.664 128.245 112.576C129.269 113.488 129.781 114.648 129.781 116.056C129.781 117 129.549 117.864 129.085 118.648C128.621 119.432 127.917 120.056 126.973 120.52C126.045 120.968 124.861 121.192 123.421 121.192ZM134.035 121V104.2H140.635C142.795 104.2 144.499 104.68 145.747 105.64C146.995 106.584 147.619 107.968 147.619 109.792C147.619 111.616 146.995 113.008 145.747 113.968C144.499 114.928 142.795 115.408 140.635 115.408H135.379L136.459 114.28V121H134.035ZM136.459 114.52L135.379 113.416H140.635C142.107 113.416 143.235 113.104 144.019 112.48C144.803 111.856 145.195 110.968 145.195 109.816C145.195 108.68 144.803 107.808 144.019 107.2C143.235 106.592 142.107 106.288 140.635 106.288H135.379L136.459 105.088V114.52ZM131.587 118.192V116.824H141.787V118.192H131.587Z" fill="#161617"></path> <path d="M227.656 114V103.44L228.344 104.192H225.128V102.8H229.24V114H227.656ZM236.394 114.128C235.402 114.128 234.554 113.909 233.85 113.472C233.146 113.035 232.607 112.405 232.234 111.584C231.871 110.752 231.69 109.739 231.69 108.544C231.69 107.275 231.914 106.203 232.362 105.328C232.81 104.453 233.434 103.792 234.234 103.344C235.034 102.896 235.951 102.672 236.986 102.672C237.519 102.672 238.026 102.725 238.506 102.832C238.997 102.939 239.418 103.104 239.77 103.328L239.162 104.576C238.874 104.373 238.543 104.235 238.17 104.16C237.807 104.085 237.423 104.048 237.018 104.048C235.877 104.048 234.97 104.405 234.298 105.12C233.626 105.824 233.29 106.875 233.29 108.272C233.29 108.496 233.301 108.763 233.322 109.072C233.343 109.381 233.397 109.685 233.482 109.984L232.938 109.44C233.098 108.949 233.349 108.539 233.69 108.208C234.042 107.867 234.458 107.616 234.938 107.456C235.429 107.285 235.957 107.2 236.522 107.2C237.269 107.2 237.93 107.339 238.506 107.616C239.082 107.893 239.535 108.288 239.866 108.8C240.197 109.301 240.362 109.899 240.362 110.592C240.362 111.307 240.186 111.931 239.834 112.464C239.482 112.997 239.007 113.408 238.41 113.696C237.813 113.984 237.141 114.128 236.394 114.128ZM236.33 112.832C236.821 112.832 237.247 112.741 237.61 112.56C237.983 112.379 238.277 112.128 238.49 111.808C238.703 111.477 238.81 111.093 238.81 110.656C238.81 109.995 238.581 109.472 238.122 109.088C237.663 108.693 237.039 108.496 236.25 108.496C235.738 108.496 235.29 108.592 234.906 108.784C234.522 108.976 234.218 109.237 233.994 109.568C233.781 109.888 233.674 110.256 233.674 110.672C233.674 111.056 233.775 111.413 233.978 111.744C234.181 112.064 234.479 112.325 234.874 112.528C235.269 112.731 235.754 112.832 236.33 112.832ZM242.788 114L250.436 102.8H251.668L244.02 114H242.788ZM243.684 108.816C243.172 108.816 242.719 108.688 242.324 108.432C241.93 108.176 241.62 107.819 241.396 107.36C241.183 106.901 241.076 106.368 241.076 105.76C241.076 105.152 241.183 104.619 241.396 104.16C241.62 103.701 241.93 103.344 242.324 103.088C242.719 102.832 243.172 102.704 243.684 102.704C244.207 102.704 244.66 102.832 245.044 103.088C245.439 103.344 245.743 103.701 245.956 104.16C246.17 104.619 246.276 105.152 246.276 105.76C246.276 106.368 246.17 106.901 245.956 107.36C245.743 107.819 245.439 108.176 245.044 108.432C244.66 108.688 244.207 108.816 243.684 108.816ZM243.684 107.904C244.175 107.904 244.559 107.717 244.836 107.344C245.114 106.96 245.252 106.432 245.252 105.76C245.252 105.088 245.114 104.565 244.836 104.192C244.559 103.808 244.175 103.616 243.684 103.616C243.204 103.616 242.82 103.808 242.532 104.192C242.255 104.565 242.116 105.088 242.116 105.76C242.116 106.421 242.255 106.944 242.532 107.328C242.82 107.712 243.204 107.904 243.684 107.904ZM250.772 114.096C250.26 114.096 249.807 113.968 249.412 113.712C249.018 113.456 248.714 113.099 248.5 112.64C248.287 112.181 248.18 111.648 248.18 111.04C248.18 110.432 248.287 109.899 248.5 109.44C248.714 108.981 249.018 108.624 249.412 108.368C249.807 108.112 250.26 107.984 250.772 107.984C251.295 107.984 251.748 108.112 252.132 108.368C252.527 108.624 252.831 108.981 253.044 109.44C253.268 109.899 253.38 110.432 253.38 111.04C253.38 111.648 253.268 112.181 253.044 112.64C252.831 113.099 252.527 113.456 252.132 113.712C251.748 113.968 251.295 114.096 250.772 114.096ZM250.772 113.184C251.252 113.184 251.631 112.997 251.908 112.624C252.196 112.24 252.34 111.712 252.34 111.04C252.34 110.379 252.196 109.856 251.908 109.472C251.631 109.088 251.252 108.896 250.772 108.896C250.292 108.896 249.908 109.088 249.62 109.472C249.343 109.845 249.204 110.368 249.204 111.04C249.204 111.712 249.343 112.24 249.62 112.624C249.908 112.997 250.292 113.184 250.772 113.184Z" fill="#2CCC39"></path> <path d="M254 143H16V145H254V143Z" fill="#DDDDDD" mask="url(#path-21-inside-1_2152_2688)"></path> <path d="M16.24 178L21.36 166.8H22.528L27.648 178H26.4L21.696 167.488H22.176L17.472 178H16.24ZM18.256 175.008L18.608 174.048H25.12L25.472 175.008H18.256ZM35.6823 178L32.2263 173.84L33.1703 173.28L37.0263 178H35.6823ZM29.5223 178V169.6H30.6583V178H29.5223ZM30.3063 174.256V173.28H33.0103V174.256H30.3063ZM33.2663 173.92L32.2103 173.76L35.5543 169.6H36.7863L33.2663 173.92ZM38.8191 178V169.6H39.9551V177.008H45.0911V169.6H46.2271V178H38.8191ZM46.5151 180.032V177.904L46.8031 178H45.0911V177.008H47.5871V180.032H46.5151ZM49.7566 178V169.6H50.8926V176.272L56.5086 169.6H57.5166V178H56.3806V171.312L50.7806 178H49.7566ZM60.7723 178V169.6H61.9083V176.272L67.5243 169.6H68.5323V178H67.3963V171.312L61.7963 178H60.7723ZM76.2474 178V166.8H80.4394C81.3887 166.8 82.2047 166.955 82.8874 167.264C83.57 167.563 84.0927 168 84.4554 168.576C84.8287 169.141 85.0154 169.829 85.0154 170.64C85.0154 171.429 84.8287 172.112 84.4554 172.688C84.0927 173.253 83.57 173.691 82.8874 174C82.2047 174.309 81.3887 174.464 80.4394 174.464H76.9034L77.4314 173.904V178H76.2474ZM77.4314 174L76.9034 173.424H80.4074C81.5274 173.424 82.3754 173.184 82.9514 172.704C83.538 172.213 83.8314 171.525 83.8314 170.64C83.8314 169.744 83.538 169.051 82.9514 168.56C82.3754 168.069 81.5274 167.824 80.4074 167.824H76.9034L77.4314 167.264V174ZM90.572 178.08C89.7613 178.08 89.0307 177.899 88.38 177.536C87.74 177.163 87.2333 176.656 86.86 176.016C86.4867 175.365 86.3 174.624 86.3 173.792C86.3 172.949 86.4867 172.208 86.86 171.568C87.2333 170.928 87.74 170.427 88.38 170.064C89.02 169.701 89.7507 169.52 90.572 169.52C91.404 169.52 92.14 169.701 92.78 170.064C93.4307 170.427 93.9373 170.928 94.3 171.568C94.6733 172.208 94.86 172.949 94.86 173.792C94.86 174.624 94.6733 175.365 94.3 176.016C93.9373 176.656 93.4307 177.163 92.78 177.536C92.1293 177.899 91.3933 178.08 90.572 178.08ZM90.572 177.072C91.18 177.072 91.7187 176.939 92.188 176.672C92.6573 176.395 93.0253 176.011 93.292 175.52C93.5693 175.019 93.708 174.443 93.708 173.792C93.708 173.131 93.5693 172.555 93.292 172.064C93.0253 171.573 92.6573 171.195 92.188 170.928C91.7187 170.651 91.1853 170.512 90.588 170.512C89.9907 170.512 89.4573 170.651 88.988 170.928C88.5187 171.195 88.1453 171.573 87.868 172.064C87.5907 172.555 87.452 173.131 87.452 173.792C87.452 174.443 87.5907 175.019 87.868 175.52C88.1453 176.011 88.5187 176.395 88.988 176.672C89.4573 176.939 89.9853 177.072 90.572 177.072ZM100.808 178.08C99.9759 178.08 99.2292 177.899 98.5679 177.536C97.9172 177.163 97.4052 176.656 97.0319 176.016C96.6585 175.365 96.4719 174.624 96.4719 173.792C96.4719 172.949 96.6585 172.208 97.0319 171.568C97.4052 170.928 97.9172 170.427 98.5679 170.064C99.2292 169.701 99.9759 169.52 100.808 169.52C101.523 169.52 102.168 169.659 102.744 169.936C103.32 170.213 103.773 170.629 104.104 171.184L103.256 171.76C102.968 171.333 102.611 171.019 102.184 170.816C101.757 170.613 101.293 170.512 100.792 170.512C100.195 170.512 99.6559 170.651 99.1759 170.928C98.6959 171.195 98.3172 171.573 98.0399 172.064C97.7625 172.555 97.6239 173.131 97.6239 173.792C97.6239 174.453 97.7625 175.029 98.0399 175.52C98.3172 176.011 98.6959 176.395 99.1759 176.672C99.6559 176.939 100.195 177.072 100.792 177.072C101.293 177.072 101.757 176.971 102.184 176.768C102.611 176.565 102.968 176.256 103.256 175.84L104.104 176.416C103.773 176.96 103.32 177.376 102.744 177.664C102.168 177.941 101.523 178.08 100.808 178.08ZM107.747 178V170.288L108.035 170.592H104.563V169.6H112.067V170.592H108.595L108.883 170.288V178H107.747ZM116.919 178.08C116.044 178.08 115.276 177.899 114.615 177.536C113.954 177.163 113.436 176.656 113.063 176.016C112.69 175.365 112.503 174.624 112.503 173.792C112.503 172.96 112.679 172.224 113.031 171.584C113.394 170.944 113.884 170.443 114.503 170.08C115.132 169.707 115.836 169.52 116.615 169.52C117.404 169.52 118.103 169.701 118.711 170.064C119.33 170.416 119.815 170.917 120.167 171.568C120.519 172.208 120.695 172.949 120.695 173.792C120.695 173.845 120.69 173.904 120.679 173.968C120.679 174.021 120.679 174.08 120.679 174.144H113.367V173.296H120.071L119.623 173.632C119.623 173.024 119.49 172.485 119.223 172.016C118.967 171.536 118.615 171.163 118.167 170.896C117.719 170.629 117.202 170.496 116.615 170.496C116.039 170.496 115.522 170.629 115.063 170.896C114.604 171.163 114.247 171.536 113.991 172.016C113.735 172.496 113.607 173.045 113.607 173.664V173.84C113.607 174.48 113.746 175.045 114.023 175.536C114.311 176.016 114.706 176.395 115.207 176.672C115.719 176.939 116.3 177.072 116.951 177.072C117.463 177.072 117.938 176.981 118.375 176.8C118.823 176.619 119.207 176.341 119.527 175.968L120.167 176.704C119.794 177.152 119.324 177.493 118.759 177.728C118.204 177.963 117.591 178.08 116.919 178.08ZM121.502 177.984L121.582 177.008C121.657 177.019 121.726 177.035 121.79 177.056C121.865 177.067 121.929 177.072 121.982 177.072C122.323 177.072 122.595 176.944 122.798 176.688C123.011 176.432 123.171 176.091 123.278 175.664C123.385 175.237 123.459 174.757 123.502 174.224C123.545 173.68 123.582 173.136 123.614 172.592L123.758 169.6H129.918V178H128.782V170.256L129.07 170.592H124.494L124.766 170.24L124.638 172.672C124.606 173.397 124.547 174.091 124.462 174.752C124.387 175.413 124.265 175.995 124.094 176.496C123.934 176.997 123.71 177.392 123.422 177.68C123.134 177.957 122.766 178.096 122.318 178.096C122.19 178.096 122.057 178.085 121.918 178.064C121.79 178.043 121.651 178.016 121.502 177.984ZM136.747 178.08C135.873 178.08 135.105 177.899 134.443 177.536C133.782 177.163 133.265 176.656 132.891 176.016C132.518 175.365 132.331 174.624 132.331 173.792C132.331 172.96 132.507 172.224 132.859 171.584C133.222 170.944 133.713 170.443 134.331 170.08C134.961 169.707 135.665 169.52 136.443 169.52C137.233 169.52 137.931 169.701 138.539 170.064C139.158 170.416 139.643 170.917 139.995 171.568C140.347 172.208 140.523 172.949 140.523 173.792C140.523 173.845 140.518 173.904 140.507 173.968C140.507 174.021 140.507 174.08 140.507 174.144H133.195V173.296H139.899L139.451 173.632C139.451 173.024 139.318 172.485 139.051 172.016C138.795 171.536 138.443 171.163 137.995 170.896C137.547 170.629 137.03 170.496 136.443 170.496C135.867 170.496 135.35 170.629 134.891 170.896C134.433 171.163 134.075 171.536 133.819 172.016C133.563 172.496 133.435 173.045 133.435 173.664V173.84C133.435 174.48 133.574 175.045 133.851 175.536C134.139 176.016 134.534 176.395 135.035 176.672C135.547 176.939 136.129 177.072 136.779 177.072C137.291 177.072 137.766 176.981 138.203 176.8C138.651 176.619 139.035 176.341 139.355 175.968L139.995 176.704C139.622 177.152 139.153 177.493 138.587 177.728C138.033 177.963 137.419 178.08 136.747 178.08ZM149.198 178L145.742 173.84L146.686 173.28L150.542 178H149.198ZM143.038 178V169.6H144.174V178H143.038ZM143.822 174.256V173.28H146.526V174.256H143.822ZM146.782 173.92L145.726 173.76L149.07 169.6H150.302L146.782 173.92ZM155.494 178.08C154.683 178.08 153.953 177.899 153.302 177.536C152.662 177.163 152.155 176.656 151.782 176.016C151.409 175.365 151.222 174.624 151.222 173.792C151.222 172.949 151.409 172.208 151.782 171.568C152.155 170.928 152.662 170.427 153.302 170.064C153.942 169.701 154.673 169.52 155.494 169.52C156.326 169.52 157.062 169.701 157.702 170.064C158.353 170.427 158.859 170.928 159.222 171.568C159.595 172.208 159.782 172.949 159.782 173.792C159.782 174.624 159.595 175.365 159.222 176.016C158.859 176.656 158.353 177.163 157.702 177.536C157.051 177.899 156.315 178.08 155.494 178.08ZM155.494 177.072C156.102 177.072 156.641 176.939 157.11 176.672C157.579 176.395 157.947 176.011 158.214 175.52C158.491 175.019 158.63 174.443 158.63 173.792C158.63 173.131 158.491 172.555 158.214 172.064C157.947 171.573 157.579 171.195 157.11 170.928C156.641 170.651 156.107 170.512 155.51 170.512C154.913 170.512 154.379 170.651 153.91 170.928C153.441 171.195 153.067 171.573 152.79 172.064C152.513 172.555 152.374 173.131 152.374 173.792C152.374 174.443 152.513 175.019 152.79 175.52C153.067 176.011 153.441 176.395 153.91 176.672C154.379 176.939 154.907 177.072 155.494 177.072ZM162.21 178V169.6H163.362L167.17 176.048H166.69L170.562 169.6H171.618V178H170.578V170.896L170.786 170.992L167.17 176.976H166.658L163.01 170.928L163.25 170.88V178H162.21Z" fill="#49494F"></path> <path d="M254 223H16V225H254V223Z" fill="#DDDDDD" mask="url(#path-25-inside-2_2152_2688)"></path> <path d="M16.49 252.824L16.868 252.082C17.2973 252.455 17.778 252.735 18.31 252.922C18.8513 253.099 19.3927 253.193 19.934 253.202C20.4753 253.202 20.97 253.123 21.418 252.964C21.8753 252.805 22.244 252.572 22.524 252.264C22.804 251.947 22.944 251.564 22.944 251.116C22.944 250.547 22.7153 250.108 22.258 249.8C21.81 249.492 21.1847 249.338 20.382 249.338H18.282V248.498H20.326C21.0167 248.498 21.5533 248.353 21.936 248.064C22.328 247.765 22.524 247.355 22.524 246.832C22.524 246.459 22.412 246.141 22.188 245.88C21.9733 245.609 21.6747 245.404 21.292 245.264C20.9187 245.115 20.4987 245.035 20.032 245.026C19.5653 245.007 19.08 245.068 18.576 245.208C18.0813 245.339 17.6007 245.549 17.134 245.838L16.798 244.984C17.3767 244.639 17.9787 244.401 18.604 244.27C19.2293 244.13 19.836 244.083 20.424 244.13C21.012 244.177 21.5393 244.312 22.006 244.536C22.482 244.76 22.86 245.054 23.14 245.418C23.42 245.782 23.56 246.216 23.56 246.72C23.56 247.187 23.4387 247.597 23.196 247.952C22.9627 248.307 22.6313 248.582 22.202 248.778C21.782 248.965 21.2827 249.058 20.704 249.058L20.76 248.75C21.4133 248.75 21.978 248.853 22.454 249.058C22.9393 249.263 23.3127 249.557 23.574 249.94C23.8447 250.313 23.98 250.752 23.98 251.256C23.98 251.732 23.8587 252.157 23.616 252.53C23.3827 252.894 23.056 253.202 22.636 253.454C22.2253 253.697 21.7633 253.874 21.25 253.986C20.7367 254.089 20.2 254.117 19.64 254.07C19.08 254.023 18.5293 253.902 17.988 253.706C17.4467 253.501 16.9473 253.207 16.49 252.824ZM30.8784 254V252.376L30.8364 252.11V249.394C30.8364 248.769 30.6591 248.288 30.3044 247.952C29.9591 247.616 29.4411 247.448 28.7504 247.448C28.2744 247.448 27.8217 247.527 27.3924 247.686C26.9631 247.845 26.5991 248.055 26.3004 248.316L25.8524 247.574C26.2257 247.257 26.6737 247.014 27.1964 246.846C27.7191 246.669 28.2697 246.58 28.8484 246.58C29.8004 246.58 30.5331 246.818 31.0464 247.294C31.5691 247.761 31.8304 248.475 31.8304 249.436V254H30.8784ZM28.3444 254.07C27.7937 254.07 27.3131 253.981 26.9024 253.804C26.5011 253.617 26.1931 253.365 25.9784 253.048C25.7637 252.721 25.6564 252.348 25.6564 251.928C25.6564 251.545 25.7451 251.2 25.9224 250.892C26.1091 250.575 26.4077 250.323 26.8184 250.136C27.2384 249.94 27.7984 249.842 28.4984 249.842H31.0324V250.584H28.5264C27.8171 250.584 27.3224 250.71 27.0424 250.962C26.7717 251.214 26.6364 251.527 26.6364 251.9C26.6364 252.32 26.7997 252.656 27.1264 252.908C27.4531 253.16 27.9104 253.286 28.4984 253.286C29.0584 253.286 29.5391 253.16 29.9404 252.908C30.3511 252.647 30.6497 252.273 30.8364 251.788L31.0604 252.474C30.8737 252.959 30.5471 253.347 30.0804 253.636C29.6231 253.925 29.0444 254.07 28.3444 254.07ZM39.8665 254L36.8425 250.36L37.6685 249.87L41.0425 254H39.8665ZM34.4765 254V246.65H35.4705V254H34.4765ZM35.1625 250.724V249.87H37.5285V250.724H35.1625ZM37.7525 250.43L36.8285 250.29L39.7545 246.65H40.8325L37.7525 250.43ZM42.3134 256.786C41.9681 256.786 41.6368 256.73 41.3194 256.618C41.0114 256.506 40.7454 256.338 40.5214 256.114L40.9834 255.372C41.1701 255.549 41.3708 255.685 41.5854 255.778C41.8094 255.881 42.0568 255.932 42.3274 255.932C42.6541 255.932 42.9341 255.839 43.1674 255.652C43.4101 255.475 43.6388 255.157 43.8534 254.7L44.3294 253.622L44.4414 253.468L47.4654 246.65H48.4454L44.7634 254.882C44.5581 255.358 44.3294 255.736 44.0774 256.016C43.8348 256.296 43.5688 256.492 43.2794 256.604C42.9901 256.725 42.6681 256.786 42.3134 256.786ZM44.2734 254.21L40.8854 246.65H41.9214L44.9174 253.398L44.2734 254.21ZM49.9941 254V246.65H56.6021V254H55.6081V247.252L55.8601 247.518H50.7361L50.9881 247.252V254H49.9941ZM64.8177 254L61.7937 250.36L62.6197 249.87L65.9937 254H64.8177ZM59.4277 254V246.65H60.4217V254H59.4277ZM60.1137 250.724V249.87H62.4797V250.724H60.1137ZM62.7037 250.43L61.7797 250.29L64.7057 246.65H65.7837L62.7037 250.43ZM71.9897 254V252.376L71.9477 252.11V249.394C71.9477 248.769 71.7704 248.288 71.4157 247.952C71.0704 247.616 70.5524 247.448 69.8617 247.448C69.3857 247.448 68.9331 247.527 68.5037 247.686C68.0744 247.845 67.7104 248.055 67.4117 248.316L66.9637 247.574C67.3371 247.257 67.7851 247.014 68.3077 246.846C68.8304 246.669 69.3811 246.58 69.9597 246.58C70.9117 246.58 71.6444 246.818 72.1577 247.294C72.6804 247.761 72.9417 248.475 72.9417 249.436V254H71.9897ZM69.4557 254.07C68.9051 254.07 68.4244 253.981 68.0137 253.804C67.6124 253.617 67.3044 253.365 67.0897 253.048C66.8751 252.721 66.7677 252.348 66.7677 251.928C66.7677 251.545 66.8564 251.2 67.0337 250.892C67.2204 250.575 67.5191 250.323 67.9297 250.136C68.3497 249.94 68.9097 249.842 69.6097 249.842H72.1437V250.584H69.6377C68.9284 250.584 68.4337 250.71 68.1537 250.962C67.8831 251.214 67.7477 251.527 67.7477 251.9C67.7477 252.32 67.9111 252.656 68.2377 252.908C68.5644 253.16 69.0217 253.286 69.6097 253.286C70.1697 253.286 70.6504 253.16 71.0517 252.908C71.4624 252.647 71.7611 252.273 71.9477 251.788L72.1717 252.474C71.9851 252.959 71.6584 253.347 71.1917 253.636C70.7344 253.925 70.1557 254.07 69.4557 254.07ZM82.2759 254.07C81.5666 254.07 80.9272 253.911 80.3579 253.594C79.7979 253.267 79.3546 252.824 79.0279 252.264C78.7012 251.695 78.5379 251.046 78.5379 250.318C78.5379 249.581 78.7012 248.932 79.0279 248.372C79.3546 247.812 79.7979 247.373 80.3579 247.056C80.9179 246.739 81.5572 246.58 82.2759 246.58C83.0039 246.58 83.6479 246.739 84.2079 247.056C84.7772 247.373 85.2206 247.812 85.5379 248.372C85.8646 248.932 86.0279 249.581 86.0279 250.318C86.0279 251.046 85.8646 251.695 85.5379 252.264C85.2206 252.824 84.7772 253.267 84.2079 253.594C83.6386 253.911 82.9946 254.07 82.2759 254.07ZM82.2759 253.188C82.8079 253.188 83.2792 253.071 83.6899 252.838C84.1006 252.595 84.4226 252.259 84.6559 251.83C84.8986 251.391 85.0199 250.887 85.0199 250.318C85.0199 249.739 84.8986 249.235 84.6559 248.806C84.4226 248.377 84.1006 248.045 83.6899 247.812C83.2792 247.569 82.8126 247.448 82.2899 247.448C81.7672 247.448 81.3006 247.569 80.8899 247.812C80.4792 248.045 80.1526 248.377 79.9099 248.806C79.6672 249.235 79.5459 249.739 79.5459 250.318C79.5459 250.887 79.6672 251.391 79.9099 251.83C80.1526 252.259 80.4792 252.595 80.8899 252.838C81.3006 253.071 81.7626 253.188 82.2759 253.188ZM91.4563 254.084C90.8589 254.084 90.3269 253.986 89.8603 253.79C89.4029 253.594 89.0109 253.295 88.6843 252.894C88.3576 252.493 88.1103 251.998 87.9423 251.41C87.7743 250.813 87.6903 250.122 87.6903 249.338C87.6903 248.638 87.7556 248.027 87.8863 247.504C88.0169 246.972 88.1989 246.515 88.4323 246.132C88.6656 245.749 88.9363 245.427 89.2443 245.166C89.5616 244.895 89.9023 244.681 90.2663 244.522C90.6396 244.354 91.0223 244.228 91.4143 244.144L94.7183 243.374L94.8863 244.298L91.7783 244.998C91.5823 245.045 91.3443 245.11 91.0643 245.194C90.7936 245.278 90.5136 245.404 90.2243 245.572C89.9443 245.74 89.6829 245.973 89.4403 246.272C89.1976 246.571 89.0016 246.958 88.8523 247.434C88.7123 247.901 88.6423 248.484 88.6423 249.184C88.6423 249.333 88.6469 249.455 88.6563 249.548C88.6656 249.632 88.6749 249.725 88.6843 249.828C88.7029 249.921 88.7169 250.061 88.7263 250.248L88.2923 249.884C88.3949 249.315 88.6049 248.82 88.9223 248.4C89.2396 247.971 89.6363 247.639 90.1123 247.406C90.5976 247.163 91.1343 247.042 91.7223 247.042C92.4036 247.042 93.0103 247.191 93.5423 247.49C94.0743 247.779 94.4896 248.185 94.7883 248.708C95.0963 249.231 95.2503 249.837 95.2503 250.528C95.2503 251.209 95.0916 251.821 94.7743 252.362C94.4663 252.903 94.0276 253.328 93.4583 253.636C92.8889 253.935 92.2216 254.084 91.4563 254.084ZM91.5683 253.258C92.0909 253.258 92.5529 253.141 92.9543 252.908C93.3556 252.665 93.6683 252.339 93.8923 251.928C94.1256 251.517 94.2423 251.055 94.2423 250.542C94.2423 250.038 94.1256 249.59 93.8923 249.198C93.6683 248.806 93.3556 248.498 92.9543 248.274C92.5529 248.041 92.0863 247.924 91.5543 247.924C91.0316 247.924 90.5696 248.036 90.1683 248.26C89.7669 248.475 89.4496 248.778 89.2163 249.17C88.9923 249.562 88.8803 250.015 88.8803 250.528C88.8803 251.041 88.9923 251.503 89.2163 251.914C89.4496 252.325 89.7669 252.651 90.1683 252.894C90.5789 253.137 91.0456 253.258 91.5683 253.258ZM100.405 254.07C99.6955 254.07 99.0561 253.911 98.4868 253.594C97.9268 253.267 97.4835 252.824 97.1568 252.264C96.8301 251.695 96.6668 251.046 96.6668 250.318C96.6668 249.581 96.8301 248.932 97.1568 248.372C97.4835 247.812 97.9268 247.373 98.4868 247.056C99.0468 246.739 99.6861 246.58 100.405 246.58C101.133 246.58 101.777 246.739 102.337 247.056C102.906 247.373 103.349 247.812 103.667 248.372C103.993 248.932 104.157 249.581 104.157 250.318C104.157 251.046 103.993 251.695 103.667 252.264C103.349 252.824 102.906 253.267 102.337 253.594C101.767 253.911 101.123 254.07 100.405 254.07ZM100.405 253.188C100.937 253.188 101.408 253.071 101.819 252.838C102.229 252.595 102.551 252.259 102.785 251.83C103.027 251.391 103.149 250.887 103.149 250.318C103.149 249.739 103.027 249.235 102.785 248.806C102.551 248.377 102.229 248.045 101.819 247.812C101.408 247.569 100.941 247.448 100.419 247.448C99.8961 247.448 99.4295 247.569 99.0188 247.812C98.6081 248.045 98.2815 248.377 98.0388 248.806C97.7961 249.235 97.6748 249.739 97.6748 250.318C97.6748 250.887 97.7961 251.391 98.0388 251.83C98.2815 252.259 98.6081 252.595 99.0188 252.838C99.4295 253.071 99.8915 253.188 100.405 253.188ZM110.075 254.07C109.441 254.07 108.867 253.925 108.353 253.636C107.84 253.337 107.429 252.913 107.121 252.362C106.823 251.802 106.673 251.121 106.673 250.318C106.673 249.515 106.823 248.839 107.121 248.288C107.42 247.728 107.826 247.303 108.339 247.014C108.853 246.725 109.431 246.58 110.075 246.58C110.775 246.58 111.401 246.739 111.951 247.056C112.511 247.364 112.95 247.803 113.267 248.372C113.585 248.932 113.743 249.581 113.743 250.318C113.743 251.065 113.585 251.718 113.267 252.278C112.95 252.838 112.511 253.277 111.951 253.594C111.401 253.911 110.775 254.07 110.075 254.07ZM106.281 256.716V246.65H107.233V248.862L107.135 250.332L107.275 251.816V256.716H106.281ZM110.005 253.188C110.528 253.188 110.995 253.071 111.405 252.838C111.816 252.595 112.143 252.259 112.385 251.83C112.628 251.391 112.749 250.887 112.749 250.318C112.749 249.749 112.628 249.249 112.385 248.82C112.143 248.391 111.816 248.055 111.405 247.812C110.995 247.569 110.528 247.448 110.005 247.448C109.483 247.448 109.011 247.569 108.591 247.812C108.181 248.055 107.854 248.391 107.611 248.82C107.378 249.249 107.261 249.749 107.261 250.318C107.261 250.887 107.378 251.391 107.611 251.83C107.854 252.259 108.181 252.595 108.591 252.838C109.011 253.071 109.483 253.188 110.005 253.188ZM115.8 256.786C115.454 256.786 115.123 256.73 114.806 256.618C114.498 256.506 114.232 256.338 114.008 256.114L114.47 255.372C114.656 255.549 114.857 255.685 115.072 255.778C115.296 255.881 115.543 255.932 115.814 255.932C116.14 255.932 116.42 255.839 116.654 255.652C116.896 255.475 117.125 255.157 117.34 254.7L117.816 253.622L117.928 253.468L120.952 246.65H121.932L118.25 254.882C118.044 255.358 117.816 255.736 117.564 256.016C117.321 256.296 117.055 256.492 116.766 256.604C116.476 256.725 116.154 256.786 115.8 256.786ZM117.76 254.21L114.372 246.65H115.408L118.404 253.398L117.76 254.21ZM128.206 253.524V247.518H124.664L124.58 249.156C124.561 249.651 124.529 250.136 124.482 250.612C124.445 251.088 124.375 251.527 124.272 251.928C124.179 252.32 124.043 252.642 123.866 252.894C123.689 253.137 123.46 253.277 123.18 253.314L122.186 253.132C122.475 253.141 122.713 253.039 122.9 252.824C123.087 252.6 123.231 252.297 123.334 251.914C123.437 251.531 123.511 251.097 123.558 250.612C123.605 250.117 123.642 249.613 123.67 249.1L123.768 246.65H129.2V253.524H128.206ZM121.878 255.778V253.132H130.348V255.778H129.41V254H122.816V255.778H121.878ZM135.309 254.07C134.6 254.07 133.96 253.911 133.391 253.594C132.831 253.267 132.388 252.824 132.061 252.264C131.734 251.695 131.571 251.046 131.571 250.318C131.571 249.581 131.734 248.932 132.061 248.372C132.388 247.812 132.831 247.373 133.391 247.056C133.951 246.739 134.59 246.58 135.309 246.58C136.037 246.58 136.681 246.739 137.241 247.056C137.81 247.373 138.254 247.812 138.571 248.372C138.898 248.932 139.061 249.581 139.061 250.318C139.061 251.046 138.898 251.695 138.571 252.264C138.254 252.824 137.81 253.267 137.241 253.594C136.672 253.911 136.028 254.07 135.309 254.07ZM135.309 253.188C135.841 253.188 136.312 253.071 136.723 252.838C137.134 252.595 137.456 252.259 137.689 251.83C137.932 251.391 138.053 250.887 138.053 250.318C138.053 249.739 137.932 249.235 137.689 248.806C137.456 248.377 137.134 248.045 136.723 247.812C136.312 247.569 135.846 247.448 135.323 247.448C134.8 247.448 134.334 247.569 133.923 247.812C133.512 248.045 133.186 248.377 132.943 248.806C132.7 249.235 132.579 249.739 132.579 250.318C132.579 250.887 132.7 251.391 132.943 251.83C133.186 252.259 133.512 252.595 133.923 252.838C134.334 253.071 134.796 253.188 135.309 253.188ZM141.185 254V246.65H144.433C145.264 246.65 145.917 246.809 146.393 247.126C146.879 247.443 147.121 247.91 147.121 248.526C147.121 249.123 146.893 249.585 146.435 249.912C145.978 250.229 145.376 250.388 144.629 250.388L144.825 250.094C145.703 250.094 146.347 250.257 146.757 250.584C147.168 250.911 147.373 251.382 147.373 251.998C147.373 252.633 147.14 253.127 146.673 253.482C146.216 253.827 145.502 254 144.531 254H141.185ZM142.151 253.216H144.489C145.115 253.216 145.586 253.118 145.903 252.922C146.23 252.717 146.393 252.39 146.393 251.942C146.393 251.494 146.249 251.167 145.959 250.962C145.67 250.757 145.213 250.654 144.587 250.654H142.151V253.216ZM142.151 249.912H144.363C144.933 249.912 145.367 249.805 145.665 249.59C145.973 249.375 146.127 249.063 146.127 248.652C146.127 248.241 145.973 247.933 145.665 247.728C145.367 247.523 144.933 247.42 144.363 247.42H142.151V249.912ZM154.267 254V252.376L154.225 252.11V249.394C154.225 248.769 154.048 248.288 153.693 247.952C153.348 247.616 152.83 247.448 152.139 247.448C151.663 247.448 151.21 247.527 150.781 247.686C150.352 247.845 149.988 248.055 149.689 248.316L149.241 247.574C149.614 247.257 150.062 247.014 150.585 246.846C151.108 246.669 151.658 246.58 152.237 246.58C153.189 246.58 153.922 246.818 154.435 247.294C154.958 247.761 155.219 248.475 155.219 249.436V254H154.267ZM151.733 254.07C151.182 254.07 150.702 253.981 150.291 253.804C149.89 253.617 149.582 253.365 149.367 253.048C149.152 252.721 149.045 252.348 149.045 251.928C149.045 251.545 149.134 251.2 149.311 250.892C149.498 250.575 149.796 250.323 150.207 250.136C150.627 249.94 151.187 249.842 151.887 249.842H154.421V250.584H151.915C151.206 250.584 150.711 250.71 150.431 250.962C150.16 251.214 150.025 251.527 150.025 251.9C150.025 252.32 150.188 252.656 150.515 252.908C150.842 253.16 151.299 253.286 151.887 253.286C152.447 253.286 152.928 253.16 153.329 252.908C153.74 252.647 154.038 252.273 154.225 251.788L154.449 252.474C154.262 252.959 153.936 253.347 153.469 253.636C153.012 253.925 152.433 254.07 151.733 254.07ZM157.865 254V246.65H158.859V249.898H163.493V246.65H164.487V254H163.493V250.752H158.859V254H157.865ZM167.312 254V246.65H168.306V252.488L173.22 246.65H174.102V254H173.108V248.148L168.208 254H167.312ZM181.697 254V251.354L181.879 251.564H179.387C178.444 251.564 177.707 251.359 177.175 250.948C176.643 250.537 176.377 249.94 176.377 249.156C176.377 248.316 176.662 247.691 177.231 247.28C177.8 246.86 178.561 246.65 179.513 246.65H182.607V254H181.697ZM176.321 254L178.337 251.172H179.373L177.399 254H176.321ZM181.697 251.06V247.224L181.879 247.518H179.541C178.86 247.518 178.328 247.649 177.945 247.91C177.572 248.171 177.385 248.596 177.385 249.184C177.385 250.276 178.08 250.822 179.471 250.822H181.879L181.697 251.06Z" fill="#49494F"></path> <rect x="0.5" y="0.5" width="269" height="281" rx="15.5" stroke="#E2E4E7"></rect> <defs> <linearGradient id="paint0_linear_2152_2688" x1="19" y1="26.5" x2="36" y2="64" gradientUnits="userSpaceOnUse"> <stop stop-color="#161617"></stop> <stop offset="1" stop-color="#212122"></stop> </linearGradient> </defs> </svg> 