<?xml version="1.0" encoding="UTF-8"?> <svg xmlns="http://www.w3.org/2000/svg" width="270" height="282" viewBox="0 0 270 282" fill="none"> <rect x="0.5" y="0.5" width="269" height="281" rx="15.5" fill="white"></rect> <rect x="16" y="24" width="40" height="40" rx="8" fill="#356BD5"></rect> <path d="M27.75 53.75H23.25V49.25H27.75V53.75Z" stroke="white" stroke-width="0.5"></path> <path d="M28.75 43.75H24.25V39.25H28.75V43.75Z" stroke="white" stroke-width="0.5"></path> <path d="M32.75 53.75H28.25V49.25H32.75V53.75Z" stroke="white" stroke-width="0.5"></path> <path d="M30.75 48.75H26.25V44.25H30.75V48.75Z" stroke="white" stroke-width="0.5"></path> <path d="M33.75 43.75H29.25V39.25H33.75V43.75Z" stroke="white" stroke-width="0.5"></path> <path d="M30.75 38.75H26.25V34.25H30.75V38.75Z" stroke="white" stroke-width="0.5"></path> <path d="M37.75 53.75H33.25V49.25H37.75V53.75Z" stroke="white" stroke-width="0.5"></path> <path d="M35.75 48.75H31.25V44.25H35.75V48.75Z" stroke="white" stroke-width="0.5"></path> <path d="M38.75 43.75H34.25V39.25H38.75V43.75Z" stroke="white" stroke-width="0.5"></path> <path d="M35.75 38.75H31.25V34.25H35.75V38.75Z" stroke="white" stroke-width="0.5"></path> <path d="M42.75 53.75H38.25V49.25H42.75V53.75Z" stroke="white" stroke-width="0.5"></path> <path d="M40.75 48.75H36.25V44.25H40.75V48.75Z" stroke="white" stroke-width="0.5"></path> <path d="M43.75 43.75H39.25V39.25H43.75V43.75Z" stroke="white" stroke-width="0.5"></path> <path d="M47.75 53.75H43.25V49.25H47.75V53.75Z" stroke="white" stroke-width="0.5"></path> <path d="M45.75 48.75H41.25V44.25H45.75V48.75Z" stroke="white" stroke-width="0.5"></path> <path d="M48.75 43.75H44.25V39.25H48.75V43.75Z" stroke="white" stroke-width="0.5"></path> <path d="M48.75 38.75H44.25V34.25H48.75V38.75Z" stroke="white" stroke-width="0.5"></path> <path d="M26 44H46" stroke="#356BD5" stroke-width="0.1"></path> <path d="M26 49H46" stroke="#356BD5" stroke-width="0.1"></path> <path d="M43 49V54" stroke="#356BD5" stroke-width="0.1"></path> <path d="M38 49V54" stroke="#356BD5" stroke-width="0.1"></path> <path d="M33 49V54" stroke="#356BD5" stroke-width="0.1"></path> <path d="M28 49V54" stroke="#356BD5" stroke-width="0.1"></path> <path d="M31 44V49" stroke="#356BD5" stroke-width="0.1"></path> <path d="M36 44V49" stroke="#356BD5" stroke-width="0.1"></path> <path d="M41 44V49" stroke="#356BD5" stroke-width="0.1"></path> <path d="M44 39V44" stroke="#356BD5" stroke-width="0.1"></path> <path d="M39 39V44" stroke="#356BD5" stroke-width="0.1"></path> <path d="M34 39V44" stroke="#356BD5" stroke-width="0.1"></path> <path d="M29 39V44" stroke="#356BD5" stroke-width="0.1"></path> <path d="M31 34V39" stroke="#356BD5" stroke-width="0.1"></path> <path d="M26 39H49" stroke="#356BD5" stroke-width="0.1"></path> <path d="M129.526 49V39.2H133.74C134.804 39.2 135.639 39.4147 136.246 39.844C136.853 40.2733 137.156 40.8987 137.156 41.72C137.156 42.5227 136.867 43.1387 136.288 43.568C135.709 43.988 134.949 44.198 134.006 44.198L134.258 43.778C135.35 43.778 136.185 43.9973 136.764 44.436C137.352 44.8653 137.646 45.4953 137.646 46.326C137.646 47.166 137.338 47.824 136.722 48.3C136.115 48.7667 135.21 49 134.006 49H129.526ZM130.912 47.894H133.978C134.725 47.894 135.285 47.7587 135.658 47.488C136.041 47.208 136.232 46.7833 136.232 46.214C136.232 45.6447 136.041 45.2293 135.658 44.968C135.285 44.7067 134.725 44.576 133.978 44.576H130.912V47.894ZM130.912 43.512H133.642C134.323 43.512 134.841 43.3767 135.196 43.106C135.56 42.8353 135.742 42.4387 135.742 41.916C135.742 41.384 135.56 40.9827 135.196 40.712C134.841 40.4413 134.323 40.306 133.642 40.306H130.912V43.512ZM147.097 49V41.58H148.441V49H147.097ZM143.107 44.1C144.05 44.1093 144.764 44.324 145.249 44.744C145.744 45.164 145.991 45.7567 145.991 46.522C145.991 47.3247 145.72 47.9453 145.179 48.384C144.647 48.8133 143.882 49.0233 142.883 49.014L139.761 49V41.58H141.105V44.086L143.107 44.1ZM142.785 47.992C143.382 48.0013 143.84 47.88 144.157 47.628C144.474 47.376 144.633 47.0027 144.633 46.508C144.633 46.0227 144.474 45.668 144.157 45.444C143.849 45.22 143.392 45.1033 142.785 45.094L141.105 45.066V47.978L142.785 47.992ZM156.122 48.37V42.756H152.902L152.832 44.184C152.813 44.6507 152.781 45.1033 152.734 45.542C152.697 45.9713 152.631 46.368 152.538 46.732C152.454 47.096 152.328 47.3947 152.16 47.628C151.992 47.8613 151.768 48.006 151.488 48.062L150.158 47.824C150.447 47.8333 150.681 47.74 150.858 47.544C151.035 47.3387 151.171 47.0587 151.264 46.704C151.367 46.3493 151.441 45.948 151.488 45.5C151.535 45.0427 151.572 44.5713 151.6 44.086L151.712 41.58H157.466V48.37H156.122ZM149.864 50.722V47.824H158.6V50.722H157.34V49H151.138V50.722H149.864ZM164.901 49V47.432L164.831 47.138V44.464C164.831 43.8947 164.663 43.456 164.327 43.148C164 42.8307 163.505 42.672 162.843 42.672C162.404 42.672 161.975 42.7467 161.555 42.896C161.135 43.036 160.78 43.2273 160.491 43.47L159.931 42.462C160.313 42.154 160.771 41.9207 161.303 41.762C161.844 41.594 162.409 41.51 162.997 41.51C164.014 41.51 164.798 41.7573 165.349 42.252C165.899 42.7467 166.175 43.5027 166.175 44.52V49H164.901ZM162.465 49.084C161.914 49.084 161.429 48.9907 161.009 48.804C160.598 48.6173 160.281 48.3607 160.057 48.034C159.833 47.698 159.721 47.32 159.721 46.9C159.721 46.4987 159.814 46.1347 160.001 45.808C160.197 45.4813 160.509 45.22 160.939 45.024C161.377 44.828 161.965 44.73 162.703 44.73H165.055V45.696H162.759C162.087 45.696 161.634 45.808 161.401 46.032C161.167 46.256 161.051 46.5267 161.051 46.844C161.051 47.208 161.195 47.502 161.485 47.726C161.774 47.9407 162.175 48.048 162.689 48.048C163.193 48.048 163.631 47.936 164.005 47.712C164.387 47.488 164.663 47.1613 164.831 46.732L165.097 47.656C164.919 48.0947 164.607 48.4447 164.159 48.706C163.711 48.958 163.146 49.084 162.465 49.084ZM168.595 49V41.58H169.939V44.73H174.167V41.58H175.511V49H174.167V45.892H169.939V49H168.595ZM185.258 49.112C184.493 49.112 183.807 48.916 183.2 48.524C182.603 48.132 182.127 47.5627 181.772 46.816C181.427 46.0693 181.254 45.164 181.254 44.1C181.254 43.036 181.427 42.1307 181.772 41.384C182.127 40.6373 182.603 40.068 183.2 39.676C183.807 39.284 184.493 39.088 185.258 39.088C186.014 39.088 186.695 39.284 187.302 39.676C187.909 40.068 188.385 40.6373 188.73 41.384C189.075 42.1307 189.248 43.036 189.248 44.1C189.248 45.164 189.075 46.0693 188.73 46.816C188.385 47.5627 187.909 48.132 187.302 48.524C186.695 48.916 186.014 49.112 185.258 49.112ZM185.258 47.866C185.771 47.866 186.219 47.726 186.602 47.446C186.994 47.166 187.297 46.746 187.512 46.186C187.736 45.626 187.848 44.9307 187.848 44.1C187.848 43.2693 187.736 42.574 187.512 42.014C187.297 41.454 186.994 41.034 186.602 40.754C186.219 40.474 185.771 40.334 185.258 40.334C184.745 40.334 184.292 40.474 183.9 40.754C183.508 41.034 183.2 41.454 182.976 42.014C182.761 42.574 182.654 43.2693 182.654 44.1C182.654 44.9307 182.761 45.626 182.976 46.186C183.2 46.746 183.508 47.166 183.9 47.446C184.292 47.726 184.745 47.866 185.258 47.866ZM190.452 46.592V45.612L195.464 39.2H196.976L192.006 45.612L191.292 45.388H199.118V46.592H190.452ZM195.898 49V46.592L195.94 45.388V43.26H197.256V49H195.898ZM201.155 49.084C200.893 49.084 200.669 48.9953 200.483 48.818C200.296 48.6313 200.203 48.398 200.203 48.118C200.203 47.838 200.296 47.6093 200.483 47.432C200.669 47.2547 200.893 47.166 201.155 47.166C201.407 47.166 201.621 47.2547 201.799 47.432C201.985 47.6093 202.079 47.838 202.079 48.118C202.079 48.398 201.985 48.6313 201.799 48.818C201.621 48.9953 201.407 49.084 201.155 49.084ZM204.877 49V39.76L205.479 40.418H202.665V39.2H206.263V49H204.877ZM212.41 49.112C211.645 49.112 210.959 48.916 210.352 48.524C209.755 48.132 209.279 47.5627 208.924 46.816C208.579 46.0693 208.406 45.164 208.406 44.1C208.406 43.036 208.579 42.1307 208.924 41.384C209.279 40.6373 209.755 40.068 210.352 39.676C210.959 39.284 211.645 39.088 212.41 39.088C213.166 39.088 213.848 39.284 214.454 39.676C215.061 40.068 215.537 40.6373 215.882 41.384C216.228 42.1307 216.4 43.036 216.4 44.1C216.4 45.164 216.228 46.0693 215.882 46.816C215.537 47.5627 215.061 48.132 214.454 48.524C213.848 48.916 213.166 49.112 212.41 49.112ZM212.41 47.866C212.924 47.866 213.372 47.726 213.754 47.446C214.146 47.166 214.45 46.746 214.664 46.186C214.888 45.626 215 44.9307 215 44.1C215 43.2693 214.888 42.574 214.664 42.014C214.45 41.454 214.146 41.034 213.754 40.754C213.372 40.474 212.924 40.334 212.41 40.334C211.897 40.334 211.444 40.474 211.052 40.754C210.66 41.034 210.352 41.454 210.128 42.014C209.914 42.574 209.806 43.2693 209.806 44.1C209.806 44.9307 209.914 45.626 210.128 46.186C210.352 46.746 210.66 47.166 211.052 47.446C211.444 47.726 211.897 47.866 212.41 47.866ZM218.504 49.084C218.243 49.084 218.019 48.9953 217.832 48.818C217.646 48.6313 217.552 48.398 217.552 48.118C217.552 47.838 217.646 47.6093 217.832 47.432C218.019 47.2547 218.243 47.166 218.504 47.166C218.756 47.166 218.971 47.2547 219.148 47.432C219.335 47.6093 219.428 47.838 219.428 48.118C219.428 48.398 219.335 48.6313 219.148 48.818C218.971 48.9953 218.756 49.084 218.504 49.084ZM220.735 49V48.048L224.725 44.198C225.079 43.862 225.341 43.568 225.509 43.316C225.686 43.0547 225.803 42.8167 225.859 42.602C225.924 42.378 225.957 42.1633 225.957 41.958C225.957 41.454 225.779 41.0573 225.425 40.768C225.07 40.4787 224.552 40.334 223.871 40.334C223.348 40.334 222.877 40.4227 222.457 40.6C222.037 40.768 221.673 41.034 221.365 41.398L220.413 40.572C220.786 40.096 221.285 39.732 221.911 39.48C222.545 39.2187 223.241 39.088 223.997 39.088C224.678 39.088 225.271 39.2 225.775 39.424C226.279 39.6387 226.666 39.9513 226.937 40.362C227.217 40.7727 227.357 41.258 227.357 41.818C227.357 42.1353 227.315 42.448 227.231 42.756C227.147 43.064 226.988 43.3907 226.755 43.736C226.521 44.0813 226.185 44.4687 225.747 44.898L222.191 48.328L221.855 47.782H227.777V49H220.735ZM232.918 49.112C232.153 49.112 231.467 48.916 230.86 48.524C230.263 48.132 229.787 47.5627 229.432 46.816C229.087 46.0693 228.914 45.164 228.914 44.1C228.914 43.036 229.087 42.1307 229.432 41.384C229.787 40.6373 230.263 40.068 230.86 39.676C231.467 39.284 232.153 39.088 232.918 39.088C233.674 39.088 234.356 39.284 234.962 39.676C235.569 40.068 236.045 40.6373 236.39 41.384C236.736 42.1307 236.908 43.036 236.908 44.1C236.908 45.164 236.736 46.0693 236.39 46.816C236.045 47.5627 235.569 48.132 234.962 48.524C234.356 48.916 233.674 49.112 232.918 49.112ZM232.918 47.866C233.432 47.866 233.88 47.726 234.262 47.446C234.654 47.166 234.958 46.746 235.172 46.186C235.396 45.626 235.508 44.9307 235.508 44.1C235.508 43.2693 235.396 42.574 235.172 42.014C234.958 41.454 234.654 41.034 234.262 40.754C233.88 40.474 233.432 40.334 232.918 40.334C232.405 40.334 231.952 40.474 231.56 40.754C231.168 41.034 230.86 41.454 230.636 42.014C230.422 42.574 230.314 43.2693 230.314 44.1C230.314 44.9307 230.422 45.626 230.636 46.186C230.86 46.746 231.168 47.166 231.56 47.446C231.952 47.726 232.405 47.866 232.918 47.866ZM238.098 49V48.048L242.088 44.198C242.443 43.862 242.704 43.568 242.872 43.316C243.049 43.0547 243.166 42.8167 243.222 42.602C243.287 42.378 243.32 42.1633 243.32 41.958C243.32 41.454 243.143 41.0573 242.788 40.768C242.433 40.4787 241.915 40.334 241.234 40.334C240.711 40.334 240.24 40.4227 239.82 40.6C239.4 40.768 239.036 41.034 238.728 41.398L237.776 40.572C238.149 40.096 238.649 39.732 239.274 39.48C239.909 39.2187 240.604 39.088 241.36 39.088C242.041 39.088 242.634 39.2 243.138 39.424C243.642 39.6387 244.029 39.9513 244.3 40.362C244.58 40.7727 244.72 41.258 244.72 41.818C244.72 42.1353 244.678 42.448 244.594 42.756C244.51 43.064 244.351 43.3907 244.118 43.736C243.885 44.0813 243.549 44.4687 243.11 44.898L239.554 48.328L239.218 47.782H245.14V49H238.098ZM246.137 49V48.048L250.127 44.198C250.482 43.862 250.743 43.568 250.911 43.316C251.088 43.0547 251.205 42.8167 251.261 42.602C251.326 42.378 251.359 42.1633 251.359 41.958C251.359 41.454 251.182 41.0573 250.827 40.768C250.472 40.4787 249.954 40.334 249.273 40.334C248.75 40.334 248.279 40.4227 247.859 40.6C247.439 40.768 247.075 41.034 246.767 41.398L245.815 40.572C246.188 40.096 246.688 39.732 247.313 39.48C247.948 39.2187 248.643 39.088 249.399 39.088C250.08 39.088 250.673 39.2 251.177 39.424C251.681 39.6387 252.068 39.9513 252.339 40.362C252.619 40.7727 252.759 41.258 252.759 41.818C252.759 42.1353 252.717 42.448 252.633 42.756C252.549 43.064 252.39 43.3907 252.157 43.736C251.924 44.0813 251.588 44.4687 251.149 44.898L247.593 48.328L247.257 47.782H253.179V49H246.137Z" fill="#49494F"></path> <path d="M16.912 116.872V115.192L25.504 104.2H28.096L19.576 115.192L18.352 114.808H31.768V116.872H16.912ZM26.248 121V116.872L26.32 114.808V111.16H28.576V121H26.248ZM40.2627 121.192C38.7747 121.192 37.5027 120.864 36.4467 120.208C35.3907 119.552 34.5827 118.608 34.0227 117.376C33.4787 116.128 33.2067 114.608 33.2067 112.816C33.2067 110.912 33.5427 109.304 34.2147 107.992C34.8867 106.68 35.8227 105.688 37.0227 105.016C38.2227 104.344 39.5987 104.008 41.1507 104.008C41.9507 104.008 42.7107 104.088 43.4307 104.248C44.1667 104.408 44.7987 104.656 45.3267 104.992L44.4147 106.864C43.9827 106.56 43.4867 106.352 42.9267 106.24C42.3827 106.128 41.8067 106.072 41.1987 106.072C39.4867 106.072 38.1267 106.608 37.1187 107.68C36.1107 108.736 35.6067 110.312 35.6067 112.408C35.6067 112.744 35.6227 113.144 35.6547 113.608C35.6867 114.072 35.7667 114.528 35.8947 114.976L35.0787 114.16C35.3187 113.424 35.6947 112.808 36.2067 112.312C36.7347 111.8 37.3587 111.424 38.0787 111.184C38.8147 110.928 39.6067 110.8 40.4547 110.8C41.5747 110.8 42.5667 111.008 43.4307 111.424C44.2947 111.84 44.9747 112.432 45.4707 113.2C45.9667 113.952 46.2147 114.848 46.2147 115.888C46.2147 116.96 45.9507 117.896 45.4227 118.696C44.8947 119.496 44.1827 120.112 43.2867 120.544C42.3907 120.976 41.3827 121.192 40.2627 121.192ZM40.1667 119.248C40.9027 119.248 41.5427 119.112 42.0867 118.84C42.6467 118.568 43.0867 118.192 43.4067 117.712C43.7267 117.216 43.8867 116.64 43.8867 115.984C43.8867 114.992 43.5427 114.208 42.8547 113.632C42.1667 113.04 41.2307 112.744 40.0467 112.744C39.2787 112.744 38.6067 112.888 38.0307 113.176C37.4547 113.464 36.9987 113.856 36.6627 114.352C36.3427 114.832 36.1827 115.384 36.1827 116.008C36.1827 116.584 36.3347 117.12 36.6387 117.616C36.9427 118.096 37.3907 118.488 37.9827 118.792C38.5747 119.096 39.3027 119.248 40.1667 119.248ZM54.5712 121.192C53.2112 121.192 52.0352 120.992 51.0432 120.592C50.0512 120.192 49.2832 119.624 48.7392 118.888C48.1952 118.136 47.9232 117.256 47.9232 116.248C47.9232 115.256 48.1792 114.416 48.6912 113.728C49.2192 113.024 49.9792 112.496 50.9712 112.144C51.9632 111.776 53.1632 111.592 54.5712 111.592C55.9792 111.592 57.1792 111.776 58.1712 112.144C59.1792 112.496 59.9472 113.024 60.4752 113.728C61.0032 114.432 61.2672 115.272 61.2672 116.248C61.2672 117.256 60.9952 118.136 60.4512 118.888C59.9072 119.624 59.1312 120.192 58.1232 120.592C57.1152 120.992 55.9312 121.192 54.5712 121.192ZM54.5712 119.248C55.9152 119.248 56.9632 118.976 57.7152 118.432C58.4832 117.872 58.8672 117.12 58.8672 116.176C58.8672 115.248 58.4832 114.52 57.7152 113.992C56.9632 113.448 55.9152 113.176 54.5712 113.176C53.2432 113.176 52.2032 113.448 51.4512 113.992C50.6992 114.52 50.3232 115.248 50.3232 116.176C50.3232 117.12 50.6992 117.872 51.4512 118.432C52.2032 118.976 53.2432 119.248 54.5712 119.248ZM54.5712 112.888C53.2912 112.888 52.2032 112.72 51.3072 112.384C50.4112 112.032 49.7232 111.536 49.2432 110.896C48.7632 110.24 48.5232 109.464 48.5232 108.568C48.5232 107.624 48.7712 106.816 49.2672 106.144C49.7792 105.456 50.4912 104.928 51.4032 104.56C52.3152 104.192 53.3712 104.008 54.5712 104.008C55.7872 104.008 56.8512 104.192 57.7632 104.56C58.6752 104.928 59.3872 105.456 59.8992 106.144C60.4112 106.816 60.6672 107.624 60.6672 108.568C60.6672 109.464 60.4272 110.24 59.9472 110.896C59.4672 111.536 58.7712 112.032 57.8592 112.384C56.9472 112.72 55.8512 112.888 54.5712 112.888ZM54.5712 111.352C55.7392 111.352 56.6512 111.112 57.3072 110.632C57.9792 110.152 58.3152 109.496 58.3152 108.664C58.3152 107.816 57.9712 107.152 57.2832 106.672C56.5952 106.192 55.6912 105.952 54.5712 105.952C53.4512 105.952 52.5552 106.192 51.8832 106.672C51.2272 107.152 50.8992 107.816 50.8992 108.664C50.8992 109.496 51.2192 110.152 51.8592 110.632C52.5152 111.112 53.4192 111.352 54.5712 111.352ZM72.7418 121V105.16L73.7738 106.288H68.9498V104.2H75.1178V121H72.7418ZM78.5286 121V119.368L85.3686 112.768C85.9766 112.192 86.4246 111.688 86.7126 111.256C87.0166 110.808 87.2166 110.4 87.3126 110.032C87.4246 109.648 87.4806 109.28 87.4806 108.928C87.4806 108.064 87.1766 107.384 86.5686 106.888C85.9606 106.392 85.0726 106.144 83.9046 106.144C83.0086 106.144 82.2006 106.296 81.4806 106.6C80.7606 106.888 80.1366 107.344 79.6086 107.968L77.9766 106.552C78.6166 105.736 79.4726 105.112 80.5446 104.68C81.6326 104.232 82.8246 104.008 84.1206 104.008C85.2886 104.008 86.3046 104.2 87.1686 104.584C88.0326 104.952 88.6966 105.488 89.1606 106.192C89.6406 106.896 89.8806 107.728 89.8806 108.688C89.8806 109.232 89.8086 109.768 89.6646 110.296C89.5206 110.824 89.2486 111.384 88.8486 111.976C88.4486 112.568 87.8726 113.232 87.1206 113.968L81.0246 119.848L80.4486 118.912H90.6006V121H78.5286ZM99.4144 121.192C98.1024 121.192 96.9264 120.856 95.8864 120.184C94.8624 119.512 94.0464 118.536 93.4384 117.256C92.8464 115.976 92.5504 114.424 92.5504 112.6C92.5504 110.776 92.8464 109.224 93.4384 107.944C94.0464 106.664 94.8624 105.688 95.8864 105.016C96.9264 104.344 98.1024 104.008 99.4144 104.008C100.71 104.008 101.878 104.344 102.918 105.016C103.958 105.688 104.774 106.664 105.366 107.944C105.958 109.224 106.254 110.776 106.254 112.6C106.254 114.424 105.958 115.976 105.366 117.256C104.774 118.536 103.958 119.512 102.918 120.184C101.878 120.856 100.71 121.192 99.4144 121.192ZM99.4144 119.056C100.294 119.056 101.062 118.816 101.718 118.336C102.39 117.856 102.91 117.136 103.278 116.176C103.662 115.216 103.854 114.024 103.854 112.6C103.854 111.176 103.662 109.984 103.278 109.024C102.91 108.064 102.39 107.344 101.718 106.864C101.062 106.384 100.294 106.144 99.4144 106.144C98.5344 106.144 97.7584 106.384 97.0864 106.864C96.4144 107.344 95.8864 108.064 95.5024 109.024C95.1344 109.984 94.9504 111.176 94.9504 112.6C94.9504 114.024 95.1344 115.216 95.5024 116.176C95.8864 117.136 96.4144 117.856 97.0864 118.336C97.7584 118.816 98.5344 119.056 99.4144 119.056ZM110.574 121V104.2H117.174C119.334 104.2 121.038 104.68 122.286 105.64C123.534 106.584 124.158 107.968 124.158 109.792C124.158 111.616 123.534 113.008 122.286 113.968C121.038 114.928 119.334 115.408 117.174 115.408H111.918L112.998 114.28V121H110.574ZM112.998 114.52L111.918 113.416H117.174C118.646 113.416 119.774 113.104 120.558 112.48C121.342 111.856 121.734 110.968 121.734 109.816C121.734 108.68 121.342 107.808 120.558 107.2C119.774 106.592 118.646 106.288 117.174 106.288H111.918L112.998 105.088V114.52ZM108.126 118.192V116.824H118.326V118.192H108.126Z" fill="#161617"></path> <path d="M224.192 114.128C223.403 114.128 222.635 114.005 221.888 113.76C221.152 113.515 220.549 113.184 220.08 112.768L220.816 111.504C221.189 111.856 221.675 112.144 222.272 112.368C222.869 112.592 223.509 112.704 224.192 112.704C225.024 112.704 225.669 112.528 226.128 112.176C226.597 111.813 226.832 111.328 226.832 110.72C226.832 110.133 226.608 109.664 226.16 109.312C225.723 108.949 225.024 108.768 224.064 108.768H223.168V107.648L226.496 103.552L226.72 104.192H220.592V102.8H227.984V103.888L224.672 107.968L223.84 107.472H224.368C225.723 107.472 226.736 107.776 227.408 108.384C228.091 108.992 228.432 109.765 228.432 110.704C228.432 111.333 228.277 111.909 227.968 112.432C227.659 112.955 227.189 113.371 226.56 113.68C225.941 113.979 225.152 114.128 224.192 114.128ZM234.5 114.128C233.626 114.128 232.842 113.904 232.148 113.456C231.466 113.008 230.922 112.357 230.516 111.504C230.122 110.651 229.924 109.616 229.924 108.4C229.924 107.184 230.122 106.149 230.516 105.296C230.922 104.443 231.466 103.792 232.148 103.344C232.842 102.896 233.626 102.672 234.5 102.672C235.364 102.672 236.143 102.896 236.836 103.344C237.53 103.792 238.074 104.443 238.468 105.296C238.863 106.149 239.06 107.184 239.06 108.4C239.06 109.616 238.863 110.651 238.468 111.504C238.074 112.357 237.53 113.008 236.836 113.456C236.143 113.904 235.364 114.128 234.5 114.128ZM234.5 112.704C235.087 112.704 235.599 112.544 236.036 112.224C236.484 111.904 236.831 111.424 237.076 110.784C237.332 110.144 237.46 109.349 237.46 108.4C237.46 107.451 237.332 106.656 237.076 106.016C236.831 105.376 236.484 104.896 236.036 104.576C235.599 104.256 235.087 104.096 234.5 104.096C233.914 104.096 233.396 104.256 232.948 104.576C232.5 104.896 232.148 105.376 231.892 106.016C231.647 106.656 231.524 107.451 231.524 108.4C231.524 109.349 231.647 110.144 231.892 110.784C232.148 111.424 232.5 111.904 232.948 112.224C233.396 112.544 233.914 112.704 234.5 112.704ZM242.132 114L249.78 102.8H251.012L243.364 114H242.132ZM243.028 108.816C242.516 108.816 242.063 108.688 241.668 108.432C241.273 108.176 240.964 107.819 240.74 107.36C240.527 106.901 240.42 106.368 240.42 105.76C240.42 105.152 240.527 104.619 240.74 104.16C240.964 103.701 241.273 103.344 241.668 103.088C242.063 102.832 242.516 102.704 243.028 102.704C243.551 102.704 244.004 102.832 244.388 103.088C244.783 103.344 245.087 103.701 245.3 104.16C245.513 104.619 245.62 105.152 245.62 105.76C245.62 106.368 245.513 106.901 245.3 107.36C245.087 107.819 244.783 108.176 244.388 108.432C244.004 108.688 243.551 108.816 243.028 108.816ZM243.028 107.904C243.519 107.904 243.903 107.717 244.18 107.344C244.457 106.96 244.596 106.432 244.596 105.76C244.596 105.088 244.457 104.565 244.18 104.192C243.903 103.808 243.519 103.616 243.028 103.616C242.548 103.616 242.164 103.808 241.876 104.192C241.599 104.565 241.46 105.088 241.46 105.76C241.46 106.421 241.599 106.944 241.876 107.328C242.164 107.712 242.548 107.904 243.028 107.904ZM250.116 114.096C249.604 114.096 249.151 113.968 248.756 113.712C248.361 113.456 248.057 113.099 247.844 112.64C247.631 112.181 247.524 111.648 247.524 111.04C247.524 110.432 247.631 109.899 247.844 109.44C248.057 108.981 248.361 108.624 248.756 108.368C249.151 108.112 249.604 107.984 250.116 107.984C250.639 107.984 251.092 108.112 251.476 108.368C251.871 108.624 252.175 108.981 252.388 109.44C252.612 109.899 252.724 110.432 252.724 111.04C252.724 111.648 252.612 112.181 252.388 112.64C252.175 113.099 251.871 113.456 251.476 113.712C251.092 113.968 250.639 114.096 250.116 114.096ZM250.116 113.184C250.596 113.184 250.975 112.997 251.252 112.624C251.54 112.24 251.684 111.712 251.684 111.04C251.684 110.379 251.54 109.856 251.252 109.472C250.975 109.088 250.596 108.896 250.116 108.896C249.636 108.896 249.252 109.088 248.964 109.472C248.687 109.845 248.548 110.368 248.548 111.04C248.548 111.712 248.687 112.24 248.964 112.624C249.252 112.997 249.636 113.184 250.116 113.184Z" fill="#2CCC39"></path> <path d="M254 143H16V145H254V143Z" fill="#DDDDDD" mask="url(#path-36-inside-1_0_175)"></path> <path d="M22.8 178.096C21.9573 178.096 21.1733 177.957 20.448 177.68C19.7333 177.392 19.1093 176.992 18.576 176.48C18.0533 175.957 17.6427 175.355 17.344 174.672C17.056 173.979 16.912 173.221 16.912 172.4C16.912 171.579 17.056 170.827 17.344 170.144C17.6427 169.451 18.0533 168.848 18.576 168.336C19.1093 167.813 19.7333 167.413 20.448 167.136C21.1627 166.848 21.9467 166.704 22.8 166.704C23.6427 166.704 24.4213 166.848 25.136 167.136C25.8507 167.413 26.4693 167.808 26.992 168.32C27.5253 168.832 27.936 169.435 28.224 170.128C28.5227 170.821 28.672 171.579 28.672 172.4C28.672 173.221 28.5227 173.979 28.224 174.672C27.936 175.365 27.5253 175.968 26.992 176.48C26.4693 176.992 25.8507 177.392 25.136 177.68C24.4213 177.957 23.6427 178.096 22.8 178.096ZM22.8 177.04C23.472 177.04 24.0907 176.928 24.656 176.704C25.232 176.469 25.728 176.144 26.144 175.728C26.5707 175.301 26.9013 174.811 27.136 174.256C27.3707 173.691 27.488 173.072 27.488 172.4C27.488 171.728 27.3707 171.115 27.136 170.56C26.9013 169.995 26.5707 169.504 26.144 169.088C25.728 168.661 25.232 168.336 24.656 168.112C24.0907 167.877 23.472 167.76 22.8 167.76C22.128 167.76 21.504 167.877 20.928 168.112C20.352 168.336 19.8507 168.661 19.424 169.088C19.008 169.504 18.6773 169.995 18.432 170.56C18.1973 171.115 18.08 171.728 18.08 172.4C18.08 173.061 18.1973 173.675 18.432 174.24C18.6773 174.805 19.008 175.301 19.424 175.728C19.8507 176.144 20.352 176.469 20.928 176.704C21.504 176.928 22.128 177.04 22.8 177.04ZM36.4094 178.096C35.5667 178.096 34.7827 177.957 34.0574 177.68C33.3427 177.392 32.7187 176.992 32.1854 176.48C31.6627 175.957 31.252 175.355 30.9534 174.672C30.6654 173.979 30.5214 173.221 30.5214 172.4C30.5214 171.579 30.6654 170.827 30.9534 170.144C31.252 169.451 31.6627 168.848 32.1854 168.336C32.7187 167.813 33.3427 167.413 34.0574 167.136C34.772 166.848 35.556 166.704 36.4094 166.704C37.252 166.704 38.0307 166.848 38.7454 167.136C39.46 167.413 40.0787 167.808 40.6014 168.32C41.1347 168.832 41.5454 169.435 41.8334 170.128C42.132 170.821 42.2814 171.579 42.2814 172.4C42.2814 173.221 42.132 173.979 41.8334 174.672C41.5454 175.365 41.1347 175.968 40.6014 176.48C40.0787 176.992 39.46 177.392 38.7454 177.68C38.0307 177.957 37.252 178.096 36.4094 178.096ZM36.4094 177.04C37.0814 177.04 37.7 176.928 38.2654 176.704C38.8414 176.469 39.3374 176.144 39.7534 175.728C40.18 175.301 40.5107 174.811 40.7454 174.256C40.98 173.691 41.0974 173.072 41.0974 172.4C41.0974 171.728 40.98 171.115 40.7454 170.56C40.5107 169.995 40.18 169.504 39.7534 169.088C39.3374 168.661 38.8414 168.336 38.2654 168.112C37.7 167.877 37.0814 167.76 36.4094 167.76C35.7374 167.76 35.1134 167.877 34.5374 168.112C33.9614 168.336 33.46 168.661 33.0334 169.088C32.6174 169.504 32.2867 169.995 32.0414 170.56C31.8067 171.115 31.6894 171.728 31.6894 172.4C31.6894 173.061 31.8067 173.675 32.0414 174.24C32.2867 174.805 32.6174 175.301 33.0334 175.728C33.46 176.144 33.9614 176.469 34.5374 176.704C35.1134 176.928 35.7374 177.04 36.4094 177.04ZM50.0188 178.096C49.1761 178.096 48.3921 177.957 47.6668 177.68C46.9521 177.392 46.3281 176.992 45.7948 176.48C45.2721 175.957 44.8614 175.355 44.5628 174.672C44.2748 173.979 44.1308 173.221 44.1308 172.4C44.1308 171.579 44.2748 170.827 44.5628 170.144C44.8614 169.451 45.2721 168.848 45.7948 168.336C46.3281 167.813 46.9521 167.413 47.6668 167.136C48.3814 166.848 49.1654 166.704 50.0188 166.704C50.8614 166.704 51.6401 166.848 52.3548 167.136C53.0694 167.413 53.6881 167.808 54.2108 168.32C54.7441 168.832 55.1548 169.435 55.4428 170.128C55.7414 170.821 55.8908 171.579 55.8908 172.4C55.8908 173.221 55.7414 173.979 55.4428 174.672C55.1548 175.365 54.7441 175.968 54.2108 176.48C53.6881 176.992 53.0694 177.392 52.3548 177.68C51.6401 177.957 50.8614 178.096 50.0188 178.096ZM50.0188 177.04C50.6908 177.04 51.3094 176.928 51.8748 176.704C52.4508 176.469 52.9468 176.144 53.3628 175.728C53.7894 175.301 54.1201 174.811 54.3548 174.256C54.5894 173.691 54.7068 173.072 54.7068 172.4C54.7068 171.728 54.5894 171.115 54.3548 170.56C54.1201 169.995 53.7894 169.504 53.3628 169.088C52.9468 168.661 52.4508 168.336 51.8748 168.112C51.3094 167.877 50.6908 167.76 50.0188 167.76C49.3468 167.76 48.7228 167.877 48.1468 168.112C47.5708 168.336 47.0694 168.661 46.6428 169.088C46.2268 169.504 45.8961 169.995 45.6508 170.56C45.4161 171.115 45.2988 171.728 45.2988 172.4C45.2988 173.061 45.4161 173.675 45.6508 174.24C45.8961 174.805 46.2268 175.301 46.6428 175.728C47.0694 176.144 47.5708 176.469 48.1468 176.704C48.7228 176.928 49.3468 177.04 50.0188 177.04ZM63.5116 166.128L62.8076 169.088L62.6796 168.4C62.9356 168.4 63.1436 168.48 63.3036 168.64C63.4636 168.789 63.5436 168.992 63.5436 169.248C63.5436 169.504 63.4636 169.712 63.3036 169.872C63.1436 170.032 62.9463 170.112 62.7116 170.112C62.4556 170.112 62.2476 170.032 62.0876 169.872C61.9383 169.701 61.8636 169.493 61.8636 169.248C61.8636 169.152 61.869 169.067 61.8796 168.992C61.8903 168.917 61.9116 168.827 61.9436 168.72C61.9756 168.613 62.0183 168.485 62.0716 168.336L62.7436 166.128H63.5116ZM66.2316 166.128L65.5276 169.088L65.3996 168.4C65.6556 168.4 65.8636 168.48 66.0236 168.64C66.1836 168.789 66.2636 168.992 66.2636 169.248C66.2636 169.504 66.1836 169.712 66.0236 169.872C65.8636 170.032 65.6663 170.112 65.4316 170.112C65.1756 170.112 64.9676 170.032 64.8076 169.872C64.6583 169.701 64.5836 169.493 64.5836 169.248C64.5836 169.152 64.589 169.067 64.5996 168.992C64.6103 168.917 64.6316 168.827 64.6636 168.72C64.6956 168.613 64.7383 168.485 64.7916 168.336L65.4636 166.128H66.2316ZM69.013 178V166.8H69.989L75.109 175.536H74.597L79.669 166.8H80.645V178H79.509V168.576H79.781L75.109 176.576H74.549L69.845 168.576H70.149V178H69.013ZM89.3633 178V176.144L89.3153 175.84V172.736C89.3153 172.021 89.1126 171.472 88.7073 171.088C88.3126 170.704 87.7206 170.512 86.9313 170.512C86.3873 170.512 85.8699 170.603 85.3793 170.784C84.8886 170.965 84.4726 171.205 84.1313 171.504L83.6193 170.656C84.0459 170.293 84.5579 170.016 85.1553 169.824C85.7526 169.621 86.3819 169.52 87.0433 169.52C88.1313 169.52 88.9686 169.792 89.5553 170.336C90.1526 170.869 90.4513 171.685 90.4513 172.784V178H89.3633ZM86.4673 178.08C85.8379 178.08 85.2886 177.979 84.8193 177.776C84.3606 177.563 84.0086 177.275 83.7633 176.912C83.5179 176.539 83.3953 176.112 83.3953 175.632C83.3953 175.195 83.4966 174.8 83.6993 174.448C83.9126 174.085 84.2539 173.797 84.7233 173.584C85.2033 173.36 85.8433 173.248 86.6432 173.248H89.5393V174.096H86.6753C85.8646 174.096 85.2993 174.24 84.9793 174.528C84.6699 174.816 84.5153 175.173 84.5153 175.6C84.5153 176.08 84.7019 176.464 85.0753 176.752C85.4486 177.04 85.9713 177.184 86.6432 177.184C87.2833 177.184 87.8326 177.04 88.2913 176.752C88.7606 176.453 89.1019 176.027 89.3153 175.472L89.5713 176.256C89.3579 176.811 88.9846 177.253 88.4513 177.584C87.9286 177.915 87.2673 178.08 86.4673 178.08ZM97.8114 178.08C97.086 178.08 96.43 177.915 95.8434 177.584C95.2567 177.243 94.7874 176.757 94.4354 176.128C94.094 175.488 93.9234 174.709 93.9234 173.792C93.9234 172.875 94.094 172.101 94.4354 171.472C94.7767 170.832 95.2407 170.347 95.8274 170.016C96.414 169.685 97.0754 169.52 97.8114 169.52C98.6114 169.52 99.326 169.701 99.9554 170.064C100.595 170.416 101.097 170.917 101.459 171.568C101.822 172.208 102.003 172.949 102.003 173.792C102.003 174.645 101.822 175.392 101.459 176.032C101.097 176.672 100.595 177.173 99.9554 177.536C99.326 177.899 98.6114 178.08 97.8114 178.08ZM93.4754 181.104V169.6H94.5634V172.128L94.4514 173.808L94.6114 175.504V181.104H93.4754ZM97.7314 177.072C98.3287 177.072 98.862 176.939 99.3314 176.672C99.8007 176.395 100.174 176.011 100.451 175.52C100.729 175.019 100.867 174.443 100.867 173.792C100.867 173.141 100.729 172.571 100.451 172.08C100.174 171.589 99.8007 171.205 99.3314 170.928C98.862 170.651 98.3287 170.512 97.7314 170.512C97.134 170.512 96.5954 170.651 96.1154 170.928C95.646 171.205 95.2727 171.589 94.9954 172.08C94.7287 172.571 94.5954 173.141 94.5954 173.792C94.5954 174.443 94.7287 175.019 94.9954 175.52C95.2727 176.011 95.646 176.395 96.1154 176.672C96.5954 176.939 97.134 177.072 97.7314 177.072ZM110.604 178L107.148 173.84L108.092 173.28L111.948 178H110.604ZM104.444 178V169.6H105.58V178H104.444ZM105.228 174.256V173.28H107.932V174.256H105.228ZM108.188 173.92L107.132 173.76L110.476 169.6H111.708L108.188 173.92ZM118.801 178V176.144L118.753 175.84V172.736C118.753 172.021 118.55 171.472 118.145 171.088C117.75 170.704 117.158 170.512 116.369 170.512C115.825 170.512 115.307 170.603 114.817 170.784C114.326 170.965 113.91 171.205 113.569 171.504L113.057 170.656C113.483 170.293 113.995 170.016 114.593 169.824C115.19 169.621 115.819 169.52 116.481 169.52C117.569 169.52 118.406 169.792 118.993 170.336C119.59 170.869 119.889 171.685 119.889 172.784V178H118.801ZM115.905 178.08C115.275 178.08 114.726 177.979 114.257 177.776C113.798 177.563 113.446 177.275 113.201 176.912C112.955 176.539 112.833 176.112 112.833 175.632C112.833 175.195 112.934 174.8 113.137 174.448C113.35 174.085 113.691 173.797 114.161 173.584C114.641 173.36 115.281 173.248 116.081 173.248H118.977V174.096H116.113C115.302 174.096 114.737 174.24 114.417 174.528C114.107 174.816 113.953 175.173 113.953 175.6C113.953 176.08 114.139 176.464 114.513 176.752C114.886 177.04 115.409 177.184 116.081 177.184C116.721 177.184 117.27 177.04 117.729 176.752C118.198 176.453 118.539 176.027 118.753 175.472L119.009 176.256C118.795 176.811 118.422 177.253 117.889 177.584C117.366 177.915 116.705 178.08 115.905 178.08ZM122.193 170.032L122.897 167.088L123.025 167.76C122.78 167.76 122.572 167.685 122.401 167.536C122.241 167.376 122.161 167.168 122.161 166.912C122.161 166.656 122.241 166.448 122.401 166.288C122.572 166.128 122.774 166.048 123.009 166.048C123.254 166.048 123.452 166.133 123.601 166.304C123.761 166.464 123.841 166.667 123.841 166.912C123.841 166.997 123.836 167.083 123.825 167.168C123.814 167.253 123.793 167.349 123.761 167.456C123.74 167.552 123.702 167.675 123.649 167.824L122.961 170.032H122.193ZM124.913 170.032L125.617 167.088L125.745 167.76C125.5 167.76 125.292 167.685 125.121 167.536C124.961 167.376 124.881 167.168 124.881 166.912C124.881 166.656 124.961 166.448 125.121 166.288C125.292 166.128 125.494 166.048 125.729 166.048C125.974 166.048 126.172 166.133 126.321 166.304C126.481 166.464 126.561 166.667 126.561 166.912C126.561 166.997 126.556 167.083 126.545 167.168C126.534 167.253 126.513 167.349 126.481 167.456C126.46 167.552 126.422 167.675 126.369 167.824L125.681 170.032H124.913Z" fill="#49494F"></path> <path d="M254 223H16V225H254V223Z" fill="#DDDDDD" mask="url(#path-40-inside-2_0_175)"></path> <path d="M19.598 254V244.816L19.878 245.096H16.154V244.2H24.064V245.096H20.354L20.62 244.816V254H19.598ZM27.9028 254.07C27.1935 254.07 26.5542 253.911 25.9848 253.594C25.4248 253.267 24.9815 252.824 24.6548 252.264C24.3282 251.695 24.1648 251.046 24.1648 250.318C24.1648 249.581 24.3282 248.932 24.6548 248.372C24.9815 247.812 25.4248 247.373 25.9848 247.056C26.5448 246.739 27.1842 246.58 27.9028 246.58C28.6308 246.58 29.2748 246.739 29.8348 247.056C30.4042 247.373 30.8475 247.812 31.1648 248.372C31.4915 248.932 31.6548 249.581 31.6548 250.318C31.6548 251.046 31.4915 251.695 31.1648 252.264C30.8475 252.824 30.4042 253.267 29.8348 253.594C29.2655 253.911 28.6215 254.07 27.9028 254.07ZM27.9028 253.188C28.4348 253.188 28.9062 253.071 29.3168 252.838C29.7275 252.595 30.0495 252.259 30.2828 251.83C30.5255 251.391 30.6468 250.887 30.6468 250.318C30.6468 249.739 30.5255 249.235 30.2828 248.806C30.0495 248.377 29.7275 248.045 29.3168 247.812C28.9062 247.569 28.4395 247.448 27.9168 247.448C27.3942 247.448 26.9275 247.569 26.5168 247.812C26.1062 248.045 25.7795 248.377 25.5368 248.806C25.2942 249.235 25.1728 249.739 25.1728 250.318C25.1728 250.887 25.2942 251.391 25.5368 251.83C25.7795 252.259 26.1062 252.595 26.5168 252.838C26.9275 253.071 27.3895 253.188 27.9028 253.188ZM37.5732 254.07C36.9386 254.07 36.3646 253.925 35.8512 253.636C35.3379 253.337 34.9272 252.913 34.6192 252.362C34.3206 251.802 34.1712 251.121 34.1712 250.318C34.1712 249.515 34.3206 248.839 34.6192 248.288C34.9179 247.728 35.3239 247.303 35.8372 247.014C36.3506 246.725 36.9292 246.58 37.5732 246.58C38.2732 246.58 38.8986 246.739 39.4492 247.056C40.0092 247.364 40.4479 247.803 40.7652 248.372C41.0826 248.932 41.2412 249.581 41.2412 250.318C41.2412 251.065 41.0826 251.718 40.7652 252.278C40.4479 252.838 40.0092 253.277 39.4492 253.594C38.8986 253.911 38.2732 254.07 37.5732 254.07ZM33.7792 256.716V246.65H34.7312V248.862L34.6332 250.332L34.7732 251.816V256.716H33.7792ZM37.5032 253.188C38.0259 253.188 38.4926 253.071 38.9032 252.838C39.3139 252.595 39.6406 252.259 39.8832 251.83C40.1259 251.391 40.2472 250.887 40.2472 250.318C40.2472 249.749 40.1259 249.249 39.8832 248.82C39.6406 248.391 39.3139 248.055 38.9032 247.812C38.4926 247.569 38.0259 247.448 37.5032 247.448C36.9806 247.448 36.5092 247.569 36.0892 247.812C35.6786 248.055 35.3519 248.391 35.1092 248.82C34.8759 249.249 34.7592 249.749 34.7592 250.318C34.7592 250.887 34.8759 251.391 35.1092 251.83C35.3519 252.259 35.6786 252.595 36.0892 252.838C36.5092 253.071 36.9806 253.188 37.5032 253.188ZM43.3769 254V246.65H48.5849V247.518H44.1189L44.3709 247.266V254H43.3769ZM52.7036 254.07C51.9943 254.07 51.355 253.911 50.7856 253.594C50.2256 253.267 49.7823 252.824 49.4556 252.264C49.129 251.695 48.9656 251.046 48.9656 250.318C48.9656 249.581 49.129 248.932 49.4556 248.372C49.7823 247.812 50.2256 247.373 50.7856 247.056C51.3456 246.739 51.985 246.58 52.7036 246.58C53.4316 246.58 54.0756 246.739 54.6356 247.056C55.205 247.373 55.6483 247.812 55.9656 248.372C56.2923 248.932 56.4556 249.581 56.4556 250.318C56.4556 251.046 56.2923 251.695 55.9656 252.264C55.6483 252.824 55.205 253.267 54.6356 253.594C54.0663 253.911 53.4223 254.07 52.7036 254.07ZM52.7036 253.188C53.2356 253.188 53.707 253.071 54.1176 252.838C54.5283 252.595 54.8503 252.259 55.0836 251.83C55.3263 251.391 55.4476 250.887 55.4476 250.318C55.4476 249.739 55.3263 249.235 55.0836 248.806C54.8503 248.377 54.5283 248.045 54.1176 247.812C53.707 247.569 53.2403 247.448 52.7176 247.448C52.195 247.448 51.7283 247.569 51.3176 247.812C50.907 248.045 50.5803 248.377 50.3376 248.806C50.095 249.235 49.9736 249.739 49.9736 250.318C49.9736 250.887 50.095 251.391 50.3376 251.83C50.5803 252.259 50.907 252.595 51.3176 252.838C51.7283 253.071 52.1903 253.188 52.7036 253.188ZM58.58 254V246.65H61.828C62.6587 246.65 63.312 246.809 63.788 247.126C64.2733 247.443 64.516 247.91 64.516 248.526C64.516 249.123 64.2873 249.585 63.83 249.912C63.3727 250.229 62.7707 250.388 62.024 250.388L62.22 250.094C63.0973 250.094 63.7413 250.257 64.152 250.584C64.5627 250.911 64.768 251.382 64.768 251.998C64.768 252.633 64.5347 253.127 64.068 253.482C63.6107 253.827 62.8967 254 61.926 254H58.58ZM59.546 253.216H61.884C62.5093 253.216 62.9807 253.118 63.298 252.922C63.6247 252.717 63.788 252.39 63.788 251.942C63.788 251.494 63.6433 251.167 63.354 250.962C63.0647 250.757 62.6073 250.654 61.982 250.654H59.546V253.216ZM59.546 249.912H61.758C62.3273 249.912 62.7613 249.805 63.06 249.59C63.368 249.375 63.522 249.063 63.522 248.652C63.522 248.241 63.368 247.933 63.06 247.728C62.7613 247.523 62.3273 247.42 61.758 247.42H59.546V249.912ZM65.7536 253.986L65.8236 253.132C65.8889 253.141 65.9496 253.155 66.0056 253.174C66.0709 253.183 66.1269 253.188 66.1736 253.188C66.4723 253.188 66.7103 253.076 66.8876 252.852C67.0743 252.628 67.2143 252.329 67.3076 251.956C67.4009 251.583 67.4663 251.163 67.5036 250.696C67.5409 250.22 67.5736 249.744 67.6016 249.268L67.7276 246.65H73.1176V254H72.1236V247.224L72.3756 247.518H68.3716L68.6096 247.21L68.4976 249.338C68.4696 249.973 68.4183 250.579 68.3436 251.158C68.2783 251.737 68.1709 252.245 68.0216 252.684C67.8816 253.123 67.6856 253.468 67.4336 253.72C67.1816 253.963 66.8596 254.084 66.4676 254.084C66.3556 254.084 66.2389 254.075 66.1176 254.056C66.0056 254.037 65.8843 254.014 65.7536 253.986ZM80.6893 254V251.354L80.8713 251.564H78.3793C77.4366 251.564 76.6993 251.359 76.1673 250.948C75.6353 250.537 75.3693 249.94 75.3693 249.156C75.3693 248.316 75.654 247.691 76.2233 247.28C76.7926 246.86 77.5533 246.65 78.5053 246.65H81.5993V254H80.6893ZM75.3133 254L77.3293 251.172H78.3653L76.3913 254H75.3133ZM80.6893 251.06V247.224L80.8713 247.518H78.5333C77.852 247.518 77.32 247.649 76.9373 247.91C76.564 248.171 76.3773 248.596 76.3773 249.184C76.3773 250.276 77.0726 250.822 78.4633 250.822H80.8713L80.6893 251.06ZM91.1216 254.07C90.4123 254.07 89.7729 253.911 89.2036 253.594C88.6436 253.267 88.2003 252.824 87.8736 252.264C87.5469 251.695 87.3836 251.046 87.3836 250.318C87.3836 249.581 87.5469 248.932 87.8736 248.372C88.2003 247.812 88.6436 247.373 89.2036 247.056C89.7636 246.739 90.4029 246.58 91.1216 246.58C91.8496 246.58 92.4936 246.739 93.0536 247.056C93.6229 247.373 94.0663 247.812 94.3836 248.372C94.7103 248.932 94.8736 249.581 94.8736 250.318C94.8736 251.046 94.7103 251.695 94.3836 252.264C94.0663 252.824 93.6229 253.267 93.0536 253.594C92.4843 253.911 91.8403 254.07 91.1216 254.07ZM91.1216 253.188C91.6536 253.188 92.1249 253.071 92.5356 252.838C92.9463 252.595 93.2683 252.259 93.5016 251.83C93.7443 251.391 93.8656 250.887 93.8656 250.318C93.8656 249.739 93.7443 249.235 93.5016 248.806C93.2683 248.377 92.9463 248.045 92.5356 247.812C92.1249 247.569 91.6583 247.448 91.1356 247.448C90.6129 247.448 90.1463 247.569 89.7356 247.812C89.3249 248.045 88.9983 248.377 88.7556 248.806C88.5129 249.235 88.3916 249.739 88.3916 250.318C88.3916 250.887 88.5129 251.391 88.7556 251.83C88.9983 252.259 89.3249 252.595 89.7356 252.838C90.1463 253.071 90.6083 253.188 91.1216 253.188ZM96.998 254V246.65H103.606V254H102.612V247.252L102.864 247.518H97.74L97.992 247.252V254H96.998ZM107.832 254V247.252L108.084 247.518H105.046V246.65H111.612V247.518H108.574L108.826 247.252V254H107.832ZM115.731 254.07C115.022 254.07 114.382 253.911 113.813 253.594C113.253 253.267 112.81 252.824 112.483 252.264C112.156 251.695 111.993 251.046 111.993 250.318C111.993 249.581 112.156 248.932 112.483 248.372C112.81 247.812 113.253 247.373 113.813 247.056C114.373 246.739 115.012 246.58 115.731 246.58C116.459 246.58 117.103 246.739 117.663 247.056C118.232 247.373 118.676 247.812 118.993 248.372C119.32 248.932 119.483 249.581 119.483 250.318C119.483 251.046 119.32 251.695 118.993 252.264C118.676 252.824 118.232 253.267 117.663 253.594C117.094 253.911 116.45 254.07 115.731 254.07ZM115.731 253.188C116.263 253.188 116.734 253.071 117.145 252.838C117.556 252.595 117.878 252.259 118.111 251.83C118.354 251.391 118.475 250.887 118.475 250.318C118.475 249.739 118.354 249.235 118.111 248.806C117.878 248.377 117.556 248.045 117.145 247.812C116.734 247.569 116.268 247.448 115.745 247.448C115.222 247.448 114.756 247.569 114.345 247.812C113.934 248.045 113.608 248.377 113.365 248.806C113.122 249.235 113.001 249.739 113.001 250.318C113.001 250.887 113.122 251.391 113.365 251.83C113.608 252.259 113.934 252.595 114.345 252.838C114.756 253.071 115.218 253.188 115.731 253.188ZM121.607 254V246.65H124.855C125.686 246.65 126.339 246.809 126.815 247.126C127.301 247.443 127.543 247.91 127.543 248.526C127.543 249.123 127.315 249.585 126.857 249.912C126.4 250.229 125.798 250.388 125.051 250.388L125.247 250.094C126.125 250.094 126.769 250.257 127.179 250.584C127.59 250.911 127.795 251.382 127.795 251.998C127.795 252.633 127.562 253.127 127.095 253.482C126.638 253.827 125.924 254 124.953 254H121.607ZM122.573 253.216H124.911C125.537 253.216 126.008 253.118 126.325 252.922C126.652 252.717 126.815 252.39 126.815 251.942C126.815 251.494 126.671 251.167 126.381 250.962C126.092 250.757 125.635 250.654 125.009 250.654H122.573V253.216ZM122.573 249.912H124.785C125.355 249.912 125.789 249.805 126.087 249.59C126.395 249.375 126.549 249.063 126.549 248.652C126.549 248.241 126.395 247.933 126.087 247.728C125.789 247.523 125.355 247.42 124.785 247.42H122.573V249.912ZM134.689 254V252.376L134.647 252.11V249.394C134.647 248.769 134.47 248.288 134.115 247.952C133.77 247.616 133.252 247.448 132.561 247.448C132.085 247.448 131.632 247.527 131.203 247.686C130.774 247.845 130.41 248.055 130.111 248.316L129.663 247.574C130.036 247.257 130.484 247.014 131.007 246.846C131.53 246.669 132.08 246.58 132.659 246.58C133.611 246.58 134.344 246.818 134.857 247.294C135.38 247.761 135.641 248.475 135.641 249.436V254H134.689ZM132.155 254.07C131.604 254.07 131.124 253.981 130.713 253.804C130.312 253.617 130.004 253.365 129.789 253.048C129.574 252.721 129.467 252.348 129.467 251.928C129.467 251.545 129.556 251.2 129.733 250.892C129.92 250.575 130.218 250.323 130.629 250.136C131.049 249.94 131.609 249.842 132.309 249.842H134.843V250.584H132.337C131.628 250.584 131.133 250.71 130.853 250.962C130.582 251.214 130.447 251.527 130.447 251.9C130.447 252.32 130.61 252.656 130.937 252.908C131.264 253.16 131.721 253.286 132.309 253.286C132.869 253.286 133.35 253.16 133.751 252.908C134.162 252.647 134.46 252.273 134.647 251.788L134.871 252.474C134.684 252.959 134.358 253.347 133.891 253.636C133.434 253.925 132.855 254.07 132.155 254.07ZM143.033 254V251.354L143.215 251.564H140.723C139.78 251.564 139.043 251.359 138.511 250.948C137.979 250.537 137.713 249.94 137.713 249.156C137.713 248.316 137.998 247.691 138.567 247.28C139.136 246.86 139.897 246.65 140.849 246.65H143.943V254H143.033ZM137.657 254L139.673 251.172H140.709L138.735 254H137.657ZM143.033 251.06V247.224L143.215 247.518H140.877C140.196 247.518 139.664 247.649 139.281 247.91C138.908 248.171 138.721 248.596 138.721 249.184C138.721 250.276 139.416 250.822 140.807 250.822H143.215L143.033 251.06ZM153.521 254.07C152.793 254.07 152.14 253.911 151.561 253.594C150.992 253.267 150.544 252.824 150.217 252.264C149.891 251.695 149.727 251.046 149.727 250.318C149.727 249.581 149.891 248.932 150.217 248.372C150.544 247.812 150.992 247.373 151.561 247.056C152.14 246.739 152.793 246.58 153.521 246.58C154.147 246.58 154.711 246.701 155.215 246.944C155.719 247.187 156.116 247.551 156.405 248.036L155.663 248.54C155.411 248.167 155.099 247.891 154.725 247.714C154.352 247.537 153.946 247.448 153.507 247.448C152.985 247.448 152.513 247.569 152.093 247.812C151.673 248.045 151.342 248.377 151.099 248.806C150.857 249.235 150.735 249.739 150.735 250.318C150.735 250.897 150.857 251.401 151.099 251.83C151.342 252.259 151.673 252.595 152.093 252.838C152.513 253.071 152.985 253.188 153.507 253.188C153.946 253.188 154.352 253.099 154.725 252.922C155.099 252.745 155.411 252.474 155.663 252.11L156.405 252.614C156.116 253.09 155.719 253.454 155.215 253.706C154.711 253.949 154.147 254.07 153.521 254.07ZM158.33 254V246.65H164.938V254H163.944V247.252L164.196 247.518H159.072L159.324 247.252V254H158.33ZM170.914 254.07C170.148 254.07 169.476 253.911 168.898 253.594C168.319 253.267 167.866 252.824 167.54 252.264C167.213 251.695 167.05 251.046 167.05 250.318C167.05 249.59 167.204 248.946 167.512 248.386C167.829 247.826 168.258 247.387 168.8 247.07C169.35 246.743 169.966 246.58 170.648 246.58C171.338 246.58 171.95 246.739 172.482 247.056C173.023 247.364 173.448 247.803 173.756 248.372C174.064 248.932 174.218 249.581 174.218 250.318C174.218 250.365 174.213 250.416 174.204 250.472C174.204 250.519 174.204 250.57 174.204 250.626H167.806V249.884H173.672L173.28 250.178C173.28 249.646 173.163 249.175 172.93 248.764C172.706 248.344 172.398 248.017 172.006 247.784C171.614 247.551 171.161 247.434 170.648 247.434C170.144 247.434 169.691 247.551 169.29 247.784C168.888 248.017 168.576 248.344 168.352 248.764C168.128 249.184 168.016 249.665 168.016 250.206V250.36C168.016 250.92 168.137 251.415 168.38 251.844C168.632 252.264 168.977 252.595 169.416 252.838C169.864 253.071 170.372 253.188 170.942 253.188C171.39 253.188 171.805 253.109 172.188 252.95C172.58 252.791 172.916 252.549 173.196 252.222L173.756 252.866C173.429 253.258 173.018 253.557 172.524 253.762C172.038 253.967 171.502 254.07 170.914 254.07ZM176.418 254V246.65H177.412V253.132H181.906V246.65H182.9V254H176.418ZM183.152 255.778V253.916L183.404 254H181.906V253.132H184.09V255.778H183.152ZM185.988 254V246.65H186.982V252.488L191.896 246.65H192.778V254H191.784V248.148L186.884 254H185.988ZM200.191 254V252.376L200.149 252.11V249.394C200.149 248.769 199.972 248.288 199.617 247.952C199.272 247.616 198.754 247.448 198.063 247.448C197.587 247.448 197.134 247.527 196.705 247.686C196.276 247.845 195.912 248.055 195.613 248.316L195.165 247.574C195.538 247.257 195.986 247.014 196.509 246.846C197.032 246.669 197.582 246.58 198.161 246.58C199.113 246.58 199.846 246.818 200.359 247.294C200.882 247.761 201.143 248.475 201.143 249.436V254H200.191ZM197.657 254.07C197.106 254.07 196.626 253.981 196.215 253.804C195.814 253.617 195.506 253.365 195.291 253.048C195.076 252.721 194.969 252.348 194.969 251.928C194.969 251.545 195.058 251.2 195.235 250.892C195.422 250.575 195.72 250.323 196.131 250.136C196.551 249.94 197.111 249.842 197.811 249.842H200.345V250.584H197.839C197.13 250.584 196.635 250.71 196.355 250.962C196.084 251.214 195.949 251.527 195.949 251.9C195.949 252.32 196.112 252.656 196.439 252.908C196.766 253.16 197.223 253.286 197.811 253.286C198.371 253.286 198.852 253.16 199.253 252.908C199.664 252.647 199.962 252.273 200.149 251.788L200.373 252.474C200.186 252.959 199.86 253.347 199.393 253.636C198.936 253.925 198.357 254.07 197.657 254.07ZM202.445 253.986L202.515 253.132C202.58 253.141 202.641 253.155 202.697 253.174C202.762 253.183 202.818 253.188 202.865 253.188C203.164 253.188 203.402 253.076 203.579 252.852C203.766 252.628 203.906 252.329 203.999 251.956C204.092 251.583 204.158 251.163 204.195 250.696C204.232 250.22 204.265 249.744 204.293 249.268L204.419 246.65H209.809V254H208.815V247.224L209.067 247.518H205.063L205.301 247.21L205.189 249.338C205.161 249.973 205.11 250.579 205.035 251.158C204.97 251.737 204.862 252.245 204.713 252.684C204.573 253.123 204.377 253.468 204.125 253.72C203.873 253.963 203.551 254.084 203.159 254.084C203.047 254.084 202.93 254.075 202.809 254.056C202.697 254.037 202.576 254.014 202.445 253.986ZM212.635 254V246.65H213.629V252.488L218.543 246.65H219.425V254H218.431V248.148L213.531 254H212.635ZM224.097 254.084C224.704 254.084 225.25 253.991 225.735 253.804C226.23 253.617 226.622 253.361 226.911 253.034C227.2 252.698 227.345 252.311 227.345 251.872C227.345 251.312 227.107 250.869 226.631 250.542C226.164 250.215 225.511 250.052 224.671 250.052L224.629 250.318C225.105 250.318 225.53 250.243 225.903 250.094C226.276 249.945 226.575 249.735 226.799 249.464C227.023 249.193 227.135 248.876 227.135 248.512C227.135 248.101 226.995 247.751 226.715 247.462C226.435 247.163 226.057 246.935 225.581 246.776C225.114 246.617 224.587 246.547 223.999 246.566C223.57 246.566 223.14 246.627 222.711 246.748C222.291 246.86 221.866 247.028 221.437 247.252L221.717 248.022C222.1 247.826 222.487 247.681 222.879 247.588C223.271 247.485 223.649 247.429 224.013 247.42C224.414 247.42 224.774 247.467 225.091 247.56C225.408 247.653 225.656 247.793 225.833 247.98C226.02 248.167 226.113 248.391 226.113 248.652C226.113 248.895 226.034 249.105 225.875 249.282C225.726 249.459 225.511 249.595 225.231 249.688C224.951 249.781 224.629 249.828 224.265 249.828H223.075V250.556H224.335C224.951 250.556 225.436 250.668 225.791 250.892C226.146 251.107 226.323 251.41 226.323 251.802C226.323 252.073 226.23 252.315 226.043 252.53C225.856 252.745 225.595 252.913 225.259 253.034C224.923 253.155 224.526 253.221 224.069 253.23C223.612 253.23 223.15 253.165 222.683 253.034C222.216 252.894 221.806 252.693 221.451 252.432L221.129 253.174C221.53 253.482 221.992 253.711 222.515 253.86C223.038 254.009 223.565 254.084 224.097 254.084ZM229.672 254.07C229.466 254.07 229.289 253.995 229.14 253.846C229 253.697 228.93 253.515 228.93 253.3C228.93 253.076 229 252.894 229.14 252.754C229.289 252.614 229.466 252.544 229.672 252.544C229.877 252.544 230.05 252.614 230.19 252.754C230.339 252.894 230.414 253.076 230.414 253.3C230.414 253.515 230.339 253.697 230.19 253.846C230.05 253.995 229.877 254.07 229.672 254.07ZM232.638 254.07C232.433 254.07 232.256 253.995 232.106 253.846C231.966 253.697 231.896 253.515 231.896 253.3C231.896 253.076 231.966 252.894 232.106 252.754C232.256 252.614 232.433 252.544 232.638 252.544C232.844 252.544 233.016 252.614 233.156 252.754C233.306 252.894 233.38 253.076 233.38 253.3C233.38 253.515 233.306 253.697 233.156 253.846C233.016 253.995 232.844 254.07 232.638 254.07ZM235.605 254.07C235.4 254.07 235.222 253.995 235.073 253.846C234.933 253.697 234.863 253.515 234.863 253.3C234.863 253.076 234.933 252.894 235.073 252.754C235.222 252.614 235.4 252.544 235.605 252.544C235.81 252.544 235.983 252.614 236.123 252.754C236.272 252.894 236.347 253.076 236.347 253.3C236.347 253.515 236.272 253.697 236.123 253.846C235.983 253.995 235.81 254.07 235.605 254.07ZM238.572 254.07C238.367 254.07 238.189 253.995 238.04 253.846C237.9 253.697 237.83 253.515 237.83 253.3C237.83 253.076 237.9 252.894 238.04 252.754C238.189 252.614 238.367 252.544 238.572 252.544C238.777 252.544 238.95 252.614 239.09 252.754C239.239 252.894 239.314 253.076 239.314 253.3C239.314 253.515 239.239 253.697 239.09 253.846C238.95 253.995 238.777 254.07 238.572 254.07Z" fill="#49494F"></path> <rect x="0.5" y="0.5" width="269" height="281" rx="15.5" stroke="#E2E4E7"></rect> </svg> 