<?xml version="1.0" encoding="UTF-8"?> <svg xmlns="http://www.w3.org/2000/svg" width="270" height="282" viewBox="0 0 270 282" fill="none"> <rect x="0.5" y="0.5" width="269" height="281" rx="15.5" fill="white"></rect> <rect x="16" y="24" width="40" height="40" rx="8" fill="#356BD5"></rect> <path d="M27.75 49.25V53.75H23.25V49.25H27.75Z" stroke="white" stroke-width="0.5"></path> <path d="M28.75 39.25V43.75H24.25V39.25H28.75Z" stroke="white" stroke-width="0.5"></path> <path d="M32.75 49.25V53.75H28.25V49.25H32.75Z" stroke="white" stroke-width="0.5"></path> <path d="M30.75 44.25V48.75H26.25V44.25H30.75Z" stroke="white" stroke-width="0.5"></path> <path d="M33.75 39.25V43.75H29.25V39.25H33.75Z" stroke="white" stroke-width="0.5"></path> <path d="M30.75 34.25V38.75H26.25V34.25H30.75Z" stroke="white" stroke-width="0.5"></path> <path d="M37.75 49.25V53.75H33.25V49.25H37.75Z" stroke="white" stroke-width="0.5"></path> <path d="M35.75 44.25V48.75H31.25V44.25H35.75Z" stroke="white" stroke-width="0.5"></path> <path d="M38.75 39.25V43.75H34.25V39.25H38.75Z" stroke="white" stroke-width="0.5"></path> <path d="M35.75 34.25V38.75H31.25V34.25H35.75Z" stroke="white" stroke-width="0.5"></path> <path d="M42.75 49.25V53.75H38.25V49.25H42.75Z" stroke="white" stroke-width="0.5"></path> <path d="M40.75 44.25V48.75H36.25V44.25H40.75Z" stroke="white" stroke-width="0.5"></path> <path d="M43.75 39.25V43.75H39.25V39.25H43.75Z" stroke="white" stroke-width="0.5"></path> <path d="M47.75 49.25V53.75H43.25V49.25H47.75Z" stroke="white" stroke-width="0.5"></path> <path d="M45.75 44.25V48.75H41.25V44.25H45.75Z" stroke="white" stroke-width="0.5"></path> <path d="M48.75 39.25V43.75H44.25V39.25H48.75Z" stroke="white" stroke-width="0.5"></path> <path d="M48.75 34.25V38.75H44.25V34.25H48.75Z" stroke="white" stroke-width="0.5"></path> <path d="M26 44H46" stroke="#356BD5" stroke-width="0.1"></path> <path d="M26 49H46" stroke="#356BD5" stroke-width="0.1"></path> <path d="M43 49V54" stroke="#356BD5" stroke-width="0.1"></path> <path d="M38 49V54" stroke="#356BD5" stroke-width="0.1"></path> <path d="M33 49V54" stroke="#356BD5" stroke-width="0.1"></path> <path d="M28 49V54" stroke="#356BD5" stroke-width="0.1"></path> <path d="M31 44V49" stroke="#356BD5" stroke-width="0.1"></path> <path d="M36 44V49" stroke="#356BD5" stroke-width="0.1"></path> <path d="M41 44V49" stroke="#356BD5" stroke-width="0.1"></path> <path d="M44 39V44" stroke="#356BD5" stroke-width="0.1"></path> <path d="M39 39V44" stroke="#356BD5" stroke-width="0.1"></path> <path d="M34 39V44" stroke="#356BD5" stroke-width="0.1"></path> <path d="M29 39V44" stroke="#356BD5" stroke-width="0.1"></path> <path d="M31 34V39" stroke="#356BD5" stroke-width="0.1"></path> <path d="M26 39H49" stroke="#356BD5" stroke-width="0.1"></path> <path d="M135.526 49V39.2H139.74C140.804 39.2 141.639 39.4147 142.246 39.844C142.853 40.2733 143.156 40.8987 143.156 41.72C143.156 42.5227 142.867 43.1387 142.288 43.568C141.709 43.988 140.949 44.198 140.006 44.198L140.258 43.778C141.35 43.778 142.185 43.9973 142.764 44.436C143.352 44.8653 143.646 45.4953 143.646 46.326C143.646 47.166 143.338 47.824 142.722 48.3C142.115 48.7667 141.21 49 140.006 49H135.526ZM136.912 47.894H139.978C140.725 47.894 141.285 47.7587 141.658 47.488C142.041 47.208 142.232 46.7833 142.232 46.214C142.232 45.6447 142.041 45.2293 141.658 44.968C141.285 44.7067 140.725 44.576 139.978 44.576H136.912V47.894ZM136.912 43.512H139.642C140.323 43.512 140.841 43.3767 141.196 43.106C141.56 42.8353 141.742 42.4387 141.742 41.916C141.742 41.384 141.56 40.9827 141.196 40.712C140.841 40.4413 140.323 40.306 139.642 40.306H136.912V43.512ZM153.097 49V41.58H154.441V49H153.097ZM149.107 44.1C150.05 44.1093 150.764 44.324 151.249 44.744C151.744 45.164 151.991 45.7567 151.991 46.522C151.991 47.3247 151.72 47.9453 151.179 48.384C150.647 48.8133 149.882 49.0233 148.883 49.014L145.761 49V41.58H147.105V44.086L149.107 44.1ZM148.785 47.992C149.382 48.0013 149.84 47.88 150.157 47.628C150.474 47.376 150.633 47.0027 150.633 46.508C150.633 46.0227 150.474 45.668 150.157 45.444C149.849 45.22 149.392 45.1033 148.785 45.094L147.105 45.066V47.978L148.785 47.992ZM162.122 48.37V42.756H158.902L158.832 44.184C158.813 44.6507 158.781 45.1033 158.734 45.542C158.697 45.9713 158.631 46.368 158.538 46.732C158.454 47.096 158.328 47.3947 158.16 47.628C157.992 47.8613 157.768 48.006 157.488 48.062L156.158 47.824C156.447 47.8333 156.681 47.74 156.858 47.544C157.035 47.3387 157.171 47.0587 157.264 46.704C157.367 46.3493 157.441 45.948 157.488 45.5C157.535 45.0427 157.572 44.5713 157.6 44.086L157.712 41.58H163.466V48.37H162.122ZM155.864 50.722V47.824H164.6V50.722H163.34V49H157.138V50.722H155.864ZM170.901 49V47.432L170.831 47.138V44.464C170.831 43.8947 170.663 43.456 170.327 43.148C170 42.8307 169.505 42.672 168.843 42.672C168.404 42.672 167.975 42.7467 167.555 42.896C167.135 43.036 166.78 43.2273 166.491 43.47L165.931 42.462C166.313 42.154 166.771 41.9207 167.303 41.762C167.844 41.594 168.409 41.51 168.997 41.51C170.014 41.51 170.798 41.7573 171.349 42.252C171.899 42.7467 172.175 43.5027 172.175 44.52V49H170.901ZM168.465 49.084C167.914 49.084 167.429 48.9907 167.009 48.804C166.598 48.6173 166.281 48.3607 166.057 48.034C165.833 47.698 165.721 47.32 165.721 46.9C165.721 46.4987 165.814 46.1347 166.001 45.808C166.197 45.4813 166.509 45.22 166.939 45.024C167.377 44.828 167.965 44.73 168.703 44.73H171.055V45.696H168.759C168.087 45.696 167.634 45.808 167.401 46.032C167.167 46.256 167.051 46.5267 167.051 46.844C167.051 47.208 167.195 47.502 167.485 47.726C167.774 47.9407 168.175 48.048 168.689 48.048C169.193 48.048 169.631 47.936 170.005 47.712C170.387 47.488 170.663 47.1613 170.831 46.732L171.097 47.656C170.919 48.0947 170.607 48.4447 170.159 48.706C169.711 48.958 169.146 49.084 168.465 49.084ZM174.595 49V41.58H175.939V44.73H180.167V41.58H181.511V49H180.167V45.892H175.939V49H174.595ZM188.906 49V39.76L189.508 40.418H186.694V39.2H190.292V49H188.906ZM195.6 49.112C194.909 49.112 194.237 49.0047 193.584 48.79C192.94 48.5753 192.412 48.286 192.002 47.922L192.646 46.816C192.972 47.124 193.397 47.376 193.92 47.572C194.442 47.768 194.998 47.866 195.586 47.866C196.332 47.866 196.906 47.7073 197.308 47.39C197.709 47.0727 197.91 46.648 197.91 46.116C197.91 45.752 197.821 45.4347 197.644 45.164C197.466 44.8933 197.158 44.688 196.72 44.548C196.29 44.3987 195.698 44.324 194.942 44.324H192.716L193.234 39.2H198.764V40.418H193.752L194.48 39.732L194.074 43.778L193.346 43.106H195.236C196.216 43.106 197.004 43.232 197.602 43.484C198.199 43.736 198.633 44.086 198.904 44.534C199.174 44.9727 199.31 45.4813 199.31 46.06C199.31 46.62 199.174 47.1333 198.904 47.6C198.633 48.0573 198.222 48.426 197.672 48.706C197.13 48.9767 196.44 49.112 195.6 49.112ZM201.399 49.084C201.137 49.084 200.913 48.9953 200.727 48.818C200.54 48.6313 200.447 48.398 200.447 48.118C200.447 47.838 200.54 47.6093 200.727 47.432C200.913 47.2547 201.137 47.166 201.399 47.166C201.651 47.166 201.865 47.2547 202.043 47.432C202.229 47.6093 202.323 47.838 202.323 48.118C202.323 48.398 202.229 48.6313 202.043 48.818C201.865 48.9953 201.651 49.084 201.399 49.084ZM205.121 49V39.76L205.723 40.418H202.909V39.2H206.507V49H205.121ZM212.655 49.112C211.889 49.112 211.203 48.916 210.597 48.524C209.999 48.132 209.523 47.5627 209.169 46.816C208.823 46.0693 208.651 45.164 208.651 44.1C208.651 43.036 208.823 42.1307 209.169 41.384C209.523 40.6373 209.999 40.068 210.597 39.676C211.203 39.284 211.889 39.088 212.655 39.088C213.411 39.088 214.092 39.284 214.699 39.676C215.305 40.068 215.781 40.6373 216.127 41.384C216.472 42.1307 216.645 43.036 216.645 44.1C216.645 45.164 216.472 46.0693 216.127 46.816C215.781 47.5627 215.305 48.132 214.699 48.524C214.092 48.916 213.411 49.112 212.655 49.112ZM212.655 47.866C213.168 47.866 213.616 47.726 213.999 47.446C214.391 47.166 214.694 46.746 214.909 46.186C215.133 45.626 215.245 44.9307 215.245 44.1C215.245 43.2693 215.133 42.574 214.909 42.014C214.694 41.454 214.391 41.034 213.999 40.754C213.616 40.474 213.168 40.334 212.655 40.334C212.141 40.334 211.689 40.474 211.297 40.754C210.905 41.034 210.597 41.454 210.373 42.014C210.158 42.574 210.051 43.2693 210.051 44.1C210.051 44.9307 210.158 45.626 210.373 46.186C210.597 46.746 210.905 47.166 211.297 47.446C211.689 47.726 212.141 47.866 212.655 47.866ZM218.748 49.084C218.487 49.084 218.263 48.9953 218.076 48.818C217.89 48.6313 217.796 48.398 217.796 48.118C217.796 47.838 217.89 47.6093 218.076 47.432C218.263 47.2547 218.487 47.166 218.748 47.166C219 47.166 219.215 47.2547 219.392 47.432C219.579 47.6093 219.672 47.838 219.672 48.118C219.672 48.398 219.579 48.6313 219.392 48.818C219.215 48.9953 219 49.084 218.748 49.084ZM220.979 49V48.048L224.969 44.198C225.324 43.862 225.585 43.568 225.753 43.316C225.93 43.0547 226.047 42.8167 226.103 42.602C226.168 42.378 226.201 42.1633 226.201 41.958C226.201 41.454 226.024 41.0573 225.669 40.768C225.314 40.4787 224.796 40.334 224.115 40.334C223.592 40.334 223.121 40.4227 222.701 40.6C222.281 40.768 221.917 41.034 221.609 41.398L220.657 40.572C221.03 40.096 221.53 39.732 222.155 39.48C222.79 39.2187 223.485 39.088 224.241 39.088C224.922 39.088 225.515 39.2 226.019 39.424C226.523 39.6387 226.91 39.9513 227.181 40.362C227.461 40.7727 227.601 41.258 227.601 41.818C227.601 42.1353 227.559 42.448 227.475 42.756C227.391 43.064 227.232 43.3907 226.999 43.736C226.766 44.0813 226.43 44.4687 225.991 44.898L222.435 48.328L222.099 47.782H228.021V49H220.979ZM233.162 49.112C232.397 49.112 231.711 48.916 231.104 48.524C230.507 48.132 230.031 47.5627 229.676 46.816C229.331 46.0693 229.158 45.164 229.158 44.1C229.158 43.036 229.331 42.1307 229.676 41.384C230.031 40.6373 230.507 40.068 231.104 39.676C231.711 39.284 232.397 39.088 233.162 39.088C233.918 39.088 234.6 39.284 235.206 39.676C235.813 40.068 236.289 40.6373 236.634 41.384C236.98 42.1307 237.152 43.036 237.152 44.1C237.152 45.164 236.98 46.0693 236.634 46.816C236.289 47.5627 235.813 48.132 235.206 48.524C234.6 48.916 233.918 49.112 233.162 49.112ZM233.162 47.866C233.676 47.866 234.124 47.726 234.506 47.446C234.898 47.166 235.202 46.746 235.416 46.186C235.64 45.626 235.752 44.9307 235.752 44.1C235.752 43.2693 235.64 42.574 235.416 42.014C235.202 41.454 234.898 41.034 234.506 40.754C234.124 40.474 233.676 40.334 233.162 40.334C232.649 40.334 232.196 40.474 231.804 40.754C231.412 41.034 231.104 41.454 230.88 42.014C230.666 42.574 230.558 43.2693 230.558 44.1C230.558 44.9307 230.666 45.626 230.88 46.186C231.104 46.746 231.412 47.166 231.804 47.446C232.196 47.726 232.649 47.866 233.162 47.866ZM238.342 49V48.048L242.332 44.198C242.687 43.862 242.948 43.568 243.116 43.316C243.294 43.0547 243.41 42.8167 243.466 42.602C243.532 42.378 243.564 42.1633 243.564 41.958C243.564 41.454 243.387 41.0573 243.032 40.768C242.678 40.4787 242.16 40.334 241.478 40.334C240.956 40.334 240.484 40.4227 240.064 40.6C239.644 40.768 239.28 41.034 238.972 41.398L238.02 40.572C238.394 40.096 238.893 39.732 239.518 39.48C240.153 39.2187 240.848 39.088 241.604 39.088C242.286 39.088 242.878 39.2 243.382 39.424C243.886 39.6387 244.274 39.9513 244.544 40.362C244.824 40.7727 244.964 41.258 244.964 41.818C244.964 42.1353 244.922 42.448 244.838 42.756C244.754 43.064 244.596 43.3907 244.362 43.736C244.129 44.0813 243.793 44.4687 243.354 44.898L239.798 48.328L239.462 47.782H245.384V49H238.342ZM246.381 49V48.048L250.371 44.198C250.726 43.862 250.987 43.568 251.155 43.316C251.333 43.0547 251.449 42.8167 251.505 42.602C251.571 42.378 251.603 42.1633 251.603 41.958C251.603 41.454 251.426 41.0573 251.071 40.768C250.717 40.4787 250.199 40.334 249.517 40.334C248.995 40.334 248.523 40.4227 248.103 40.6C247.683 40.768 247.319 41.034 247.011 41.398L246.059 40.572C246.433 40.096 246.932 39.732 247.557 39.48C248.192 39.2187 248.887 39.088 249.643 39.088C250.325 39.088 250.917 39.2 251.421 39.424C251.925 39.6387 252.313 39.9513 252.583 40.362C252.863 40.7727 253.003 41.258 253.003 41.818C253.003 42.1353 252.961 42.448 252.877 42.756C252.793 43.064 252.635 43.3907 252.401 43.736C252.168 44.0813 251.832 44.4687 251.393 44.898L247.837 48.328L247.501 47.782H253.423V49H246.381Z" fill="#49494F"></path> <path d="M22.288 121.192C21.104 121.192 19.952 121.008 18.832 120.64C17.728 120.272 16.824 119.776 16.12 119.152L17.224 117.256C17.784 117.784 18.512 118.216 19.408 118.552C20.304 118.888 21.264 119.056 22.288 119.056C23.536 119.056 24.504 118.792 25.192 118.264C25.896 117.72 26.248 116.992 26.248 116.08C26.248 115.2 25.912 114.496 25.24 113.968C24.584 113.424 23.536 113.152 22.096 113.152H20.752V111.472L25.744 105.328L26.08 106.288H16.888V104.2H27.976V105.832L23.008 111.952L21.76 111.208H22.552C24.584 111.208 26.104 111.664 27.112 112.576C28.136 113.488 28.648 114.648 28.648 116.056C28.648 117 28.416 117.864 27.952 118.648C27.488 119.432 26.784 120.056 25.84 120.52C24.912 120.968 23.728 121.192 22.288 121.192ZM44.1957 121.192C42.8837 121.192 41.7077 120.856 40.6677 120.184C39.6437 119.512 38.8277 118.536 38.2197 117.256C37.6277 115.976 37.3317 114.424 37.3317 112.6C37.3317 110.776 37.6277 109.224 38.2197 107.944C38.8277 106.664 39.6437 105.688 40.6677 105.016C41.7077 104.344 42.8837 104.008 44.1957 104.008C45.4917 104.008 46.6597 104.344 47.6997 105.016C48.7397 105.688 49.5557 106.664 50.1477 107.944C50.7397 109.224 51.0357 110.776 51.0357 112.6C51.0357 114.424 50.7397 115.976 50.1477 117.256C49.5557 118.536 48.7397 119.512 47.6997 120.184C46.6597 120.856 45.4917 121.192 44.1957 121.192ZM44.1957 119.056C45.0757 119.056 45.8437 118.816 46.4997 118.336C47.1717 117.856 47.6917 117.136 48.0597 116.176C48.4437 115.216 48.6357 114.024 48.6357 112.6C48.6357 111.176 48.4437 109.984 48.0597 109.024C47.6917 108.064 47.1717 107.344 46.4997 106.864C45.8437 106.384 45.0757 106.144 44.1957 106.144C43.3157 106.144 42.5397 106.384 41.8677 106.864C41.1957 107.344 40.6677 108.064 40.2837 109.024C39.9157 109.984 39.7317 111.176 39.7317 112.6C39.7317 114.024 39.9157 115.216 40.2837 116.176C40.6677 117.136 41.1957 117.856 41.8677 118.336C42.5397 118.816 43.3157 119.056 44.1957 119.056ZM60.2035 121.192C58.8915 121.192 57.7155 120.856 56.6755 120.184C55.6515 119.512 54.8355 118.536 54.2275 117.256C53.6355 115.976 53.3395 114.424 53.3395 112.6C53.3395 110.776 53.6355 109.224 54.2275 107.944C54.8355 106.664 55.6515 105.688 56.6755 105.016C57.7155 104.344 58.8915 104.008 60.2035 104.008C61.4995 104.008 62.6675 104.344 63.7075 105.016C64.7475 105.688 65.5635 106.664 66.1555 107.944C66.7475 109.224 67.0435 110.776 67.0435 112.6C67.0435 114.424 66.7475 115.976 66.1555 117.256C65.5635 118.536 64.7475 119.512 63.7075 120.184C62.6675 120.856 61.4995 121.192 60.2035 121.192ZM60.2035 119.056C61.0835 119.056 61.8515 118.816 62.5075 118.336C63.1795 117.856 63.6995 117.136 64.0675 116.176C64.4515 115.216 64.6435 114.024 64.6435 112.6C64.6435 111.176 64.4515 109.984 64.0675 109.024C63.6995 108.064 63.1795 107.344 62.5075 106.864C61.8515 106.384 61.0835 106.144 60.2035 106.144C59.3235 106.144 58.5475 106.384 57.8755 106.864C57.2035 107.344 56.6755 108.064 56.2915 109.024C55.9235 109.984 55.7395 111.176 55.7395 112.6C55.7395 114.024 55.9235 115.216 56.2915 116.176C56.6755 117.136 57.2035 117.856 57.8755 118.336C58.5475 118.816 59.3235 119.056 60.2035 119.056ZM76.2113 121.192C74.8993 121.192 73.7233 120.856 72.6833 120.184C71.6593 119.512 70.8433 118.536 70.2353 117.256C69.6433 115.976 69.3473 114.424 69.3473 112.6C69.3473 110.776 69.6433 109.224 70.2353 107.944C70.8433 106.664 71.6593 105.688 72.6833 105.016C73.7233 104.344 74.8993 104.008 76.2113 104.008C77.5073 104.008 78.6753 104.344 79.7153 105.016C80.7553 105.688 81.5713 106.664 82.1633 107.944C82.7553 109.224 83.0513 110.776 83.0513 112.6C83.0513 114.424 82.7553 115.976 82.1633 117.256C81.5713 118.536 80.7553 119.512 79.7153 120.184C78.6753 120.856 77.5073 121.192 76.2113 121.192ZM76.2113 119.056C77.0913 119.056 77.8593 118.816 78.5153 118.336C79.1873 117.856 79.7073 117.136 80.0753 116.176C80.4593 115.216 80.6513 114.024 80.6513 112.6C80.6513 111.176 80.4593 109.984 80.0753 109.024C79.7073 108.064 79.1873 107.344 78.5153 106.864C77.8593 106.384 77.0913 106.144 76.2113 106.144C75.3313 106.144 74.5553 106.384 73.8833 106.864C73.2113 107.344 72.6833 108.064 72.2993 109.024C71.9313 109.984 71.7473 111.176 71.7473 112.6C71.7473 114.024 71.9313 115.216 72.2993 116.176C72.6833 117.136 73.2113 117.856 73.8833 118.336C74.5553 118.816 75.3313 119.056 76.2113 119.056ZM98.6644 121.192C97.3524 121.192 96.1764 120.856 95.1364 120.184C94.1124 119.512 93.2964 118.536 92.6884 117.256C92.0964 115.976 91.8004 114.424 91.8004 112.6C91.8004 110.776 92.0964 109.224 92.6884 107.944C93.2964 106.664 94.1124 105.688 95.1364 105.016C96.1764 104.344 97.3524 104.008 98.6644 104.008C99.9604 104.008 101.128 104.344 102.168 105.016C103.208 105.688 104.024 106.664 104.616 107.944C105.208 109.224 105.504 110.776 105.504 112.6C105.504 114.424 105.208 115.976 104.616 117.256C104.024 118.536 103.208 119.512 102.168 120.184C101.128 120.856 99.9604 121.192 98.6644 121.192ZM98.6644 119.056C99.5444 119.056 100.312 118.816 100.968 118.336C101.64 117.856 102.16 117.136 102.528 116.176C102.912 115.216 103.104 114.024 103.104 112.6C103.104 111.176 102.912 109.984 102.528 109.024C102.16 108.064 101.64 107.344 100.968 106.864C100.312 106.384 99.5444 106.144 98.6644 106.144C97.7844 106.144 97.0084 106.384 96.3364 106.864C95.6644 107.344 95.1364 108.064 94.7524 109.024C94.3844 109.984 94.2004 111.176 94.2004 112.6C94.2004 114.024 94.3844 115.216 94.7524 116.176C95.1364 117.136 95.6644 117.856 96.3364 118.336C97.0084 118.816 97.7844 119.056 98.6644 119.056ZM114.672 121.192C113.36 121.192 112.184 120.856 111.144 120.184C110.12 119.512 109.304 118.536 108.696 117.256C108.104 115.976 107.808 114.424 107.808 112.6C107.808 110.776 108.104 109.224 108.696 107.944C109.304 106.664 110.12 105.688 111.144 105.016C112.184 104.344 113.36 104.008 114.672 104.008C115.968 104.008 117.136 104.344 118.176 105.016C119.216 105.688 120.032 106.664 120.624 107.944C121.216 109.224 121.512 110.776 121.512 112.6C121.512 114.424 121.216 115.976 120.624 117.256C120.032 118.536 119.216 119.512 118.176 120.184C117.136 120.856 115.968 121.192 114.672 121.192ZM114.672 119.056C115.552 119.056 116.32 118.816 116.976 118.336C117.648 117.856 118.168 117.136 118.536 116.176C118.92 115.216 119.112 114.024 119.112 112.6C119.112 111.176 118.92 109.984 118.536 109.024C118.168 108.064 117.648 107.344 116.976 106.864C116.32 106.384 115.552 106.144 114.672 106.144C113.792 106.144 113.016 106.384 112.344 106.864C111.672 107.344 111.144 108.064 110.76 109.024C110.392 109.984 110.208 111.176 110.208 112.6C110.208 114.024 110.392 115.216 110.76 116.176C111.144 117.136 111.672 117.856 112.344 118.336C113.016 118.816 113.792 119.056 114.672 119.056ZM130.68 121.192C129.368 121.192 128.192 120.856 127.152 120.184C126.128 119.512 125.312 118.536 124.704 117.256C124.112 115.976 123.816 114.424 123.816 112.6C123.816 110.776 124.112 109.224 124.704 107.944C125.312 106.664 126.128 105.688 127.152 105.016C128.192 104.344 129.368 104.008 130.68 104.008C131.976 104.008 133.144 104.344 134.184 105.016C135.224 105.688 136.04 106.664 136.632 107.944C137.224 109.224 137.52 110.776 137.52 112.6C137.52 114.424 137.224 115.976 136.632 117.256C136.04 118.536 135.224 119.512 134.184 120.184C133.144 120.856 131.976 121.192 130.68 121.192ZM130.68 119.056C131.56 119.056 132.328 118.816 132.984 118.336C133.656 117.856 134.176 117.136 134.544 116.176C134.928 115.216 135.12 114.024 135.12 112.6C135.12 111.176 134.928 109.984 134.544 109.024C134.176 108.064 133.656 107.344 132.984 106.864C132.328 106.384 131.56 106.144 130.68 106.144C129.8 106.144 129.024 106.384 128.352 106.864C127.68 107.344 127.152 108.064 126.768 109.024C126.4 109.984 126.216 111.176 126.216 112.6C126.216 114.024 126.4 115.216 126.768 116.176C127.152 117.136 127.68 117.856 128.352 118.336C129.024 118.816 129.8 119.056 130.68 119.056ZM141.84 121V104.2H148.44C150.6 104.2 152.304 104.68 153.552 105.64C154.8 106.584 155.424 107.968 155.424 109.792C155.424 111.616 154.8 113.008 153.552 113.968C152.304 114.928 150.6 115.408 148.44 115.408H143.184L144.264 114.28V121H141.84ZM144.264 114.52L143.184 113.416H148.44C149.912 113.416 151.04 113.104 151.824 112.48C152.608 111.856 153 110.968 153 109.816C153 108.68 152.608 107.808 151.824 107.2C151.04 106.592 149.912 106.288 148.44 106.288H143.184L144.264 105.088V114.52ZM139.392 118.192V116.824H149.592V118.192H139.392Z" fill="#161617"></path> <path d="M226.192 114.128C225.403 114.128 224.635 114.005 223.888 113.76C223.152 113.515 222.549 113.184 222.08 112.768L222.816 111.504C223.189 111.856 223.675 112.144 224.272 112.368C224.869 112.592 225.509 112.704 226.192 112.704C227.024 112.704 227.669 112.528 228.128 112.176C228.597 111.813 228.832 111.328 228.832 110.72C228.832 110.133 228.608 109.664 228.16 109.312C227.723 108.949 227.024 108.768 226.064 108.768H225.168V107.648L228.496 103.552L228.72 104.192H222.592V102.8H229.984V103.888L226.672 107.968L225.84 107.472H226.368C227.723 107.472 228.736 107.776 229.408 108.384C230.091 108.992 230.432 109.765 230.432 110.704C230.432 111.333 230.277 111.909 229.968 112.432C229.659 112.955 229.189 113.371 228.56 113.68C227.941 113.979 227.152 114.128 226.192 114.128ZM231.67 114V112.912L236.23 108.512C236.635 108.128 236.934 107.792 237.126 107.504C237.329 107.205 237.462 106.933 237.526 106.688C237.601 106.432 237.638 106.187 237.638 105.952C237.638 105.376 237.435 104.923 237.03 104.592C236.625 104.261 236.033 104.096 235.254 104.096C234.657 104.096 234.118 104.197 233.638 104.4C233.158 104.592 232.742 104.896 232.39 105.312L231.302 104.368C231.729 103.824 232.299 103.408 233.014 103.12C233.739 102.821 234.534 102.672 235.398 102.672C236.177 102.672 236.854 102.8 237.43 103.056C238.006 103.301 238.449 103.659 238.758 104.128C239.078 104.597 239.238 105.152 239.238 105.792C239.238 106.155 239.19 106.512 239.094 106.864C238.998 107.216 238.817 107.589 238.55 107.984C238.283 108.379 237.899 108.821 237.398 109.312L233.334 113.232L232.95 112.608H239.718V114H231.67ZM242.726 114L250.374 102.8H251.606L243.958 114H242.726ZM243.622 108.816C243.11 108.816 242.657 108.688 242.262 108.432C241.867 108.176 241.558 107.819 241.334 107.36C241.121 106.901 241.014 106.368 241.014 105.76C241.014 105.152 241.121 104.619 241.334 104.16C241.558 103.701 241.867 103.344 242.262 103.088C242.657 102.832 243.11 102.704 243.622 102.704C244.145 102.704 244.598 102.832 244.982 103.088C245.377 103.344 245.681 103.701 245.894 104.16C246.107 104.619 246.214 105.152 246.214 105.76C246.214 106.368 246.107 106.901 245.894 107.36C245.681 107.819 245.377 108.176 244.982 108.432C244.598 108.688 244.145 108.816 243.622 108.816ZM243.622 107.904C244.113 107.904 244.497 107.717 244.774 107.344C245.051 106.96 245.19 106.432 245.19 105.76C245.19 105.088 245.051 104.565 244.774 104.192C244.497 103.808 244.113 103.616 243.622 103.616C243.142 103.616 242.758 103.808 242.47 104.192C242.193 104.565 242.054 105.088 242.054 105.76C242.054 106.421 242.193 106.944 242.47 107.328C242.758 107.712 243.142 107.904 243.622 107.904ZM250.71 114.096C250.198 114.096 249.745 113.968 249.35 113.712C248.955 113.456 248.651 113.099 248.438 112.64C248.225 112.181 248.118 111.648 248.118 111.04C248.118 110.432 248.225 109.899 248.438 109.44C248.651 108.981 248.955 108.624 249.35 108.368C249.745 108.112 250.198 107.984 250.71 107.984C251.233 107.984 251.686 108.112 252.07 108.368C252.465 108.624 252.769 108.981 252.982 109.44C253.206 109.899 253.318 110.432 253.318 111.04C253.318 111.648 253.206 112.181 252.982 112.64C252.769 113.099 252.465 113.456 252.07 113.712C251.686 113.968 251.233 114.096 250.71 114.096ZM250.71 113.184C251.19 113.184 251.569 112.997 251.846 112.624C252.134 112.24 252.278 111.712 252.278 111.04C252.278 110.379 252.134 109.856 251.846 109.472C251.569 109.088 251.19 108.896 250.71 108.896C250.23 108.896 249.846 109.088 249.558 109.472C249.281 109.845 249.142 110.368 249.142 111.04C249.142 111.712 249.281 112.24 249.558 112.624C249.846 112.997 250.23 113.184 250.71 113.184Z" fill="#2CCC39"></path> <path d="M254 143H16V145H254V143Z" fill="#DDDDDD" mask="url(#path-36-inside-1_2152_2757)"></path> <path d="M16.24 178L21.36 166.8H22.528L27.648 178H26.4L21.696 167.488H22.176L17.472 178H16.24ZM18.256 175.008L18.608 174.048H25.12L25.472 175.008H18.256ZM35.6823 178L32.2263 173.84L33.1703 173.28L37.0263 178H35.6823ZM29.5223 178V169.6H30.6583V178H29.5223ZM30.3063 174.256V173.28H33.0103V174.256H30.3063ZM33.2663 173.92L32.2103 173.76L35.5543 169.6H36.7863L33.2663 173.92ZM38.8191 178V169.6H39.9551V177.008H45.0911V169.6H46.2271V178H38.8191ZM46.5151 180.032V177.904L46.8031 178H45.0911V177.008H47.5871V180.032H46.5151ZM49.7566 178V169.6H50.8926V176.272L56.5086 169.6H57.5166V178H56.3806V171.312L50.7806 178H49.7566ZM60.7723 178V169.6H61.9083V176.272L67.5243 169.6H68.5323V178H67.3963V171.312L61.7963 178H60.7723ZM74.6314 178L79.2234 171.792V172.704L74.9034 166.8H76.2634L79.8954 171.728L79.3674 171.744L82.9994 166.8H84.2794L80.0074 172.624V171.792L84.5834 178H83.2074L79.3354 172.736H79.8314L75.9914 178H74.6314ZM89.2274 178.096C88.4274 178.096 87.6647 177.968 86.9394 177.712C86.214 177.445 85.638 177.093 85.2114 176.656L85.7714 175.744C86.1234 176.117 86.6034 176.427 87.2114 176.672C87.83 176.917 88.4967 177.04 89.2114 177.04C90.1607 177.04 90.8807 176.832 91.3714 176.416C91.8727 175.989 92.1234 175.435 92.1234 174.752C92.1234 174.272 92.006 173.861 91.7714 173.52C91.5474 173.168 91.1634 172.896 90.6194 172.704C90.0754 172.512 89.3287 172.416 88.3794 172.416H85.9954L86.5714 166.8H92.6994V167.824H87.0354L87.6274 167.264L87.1314 171.968L86.5394 171.392H88.6354C89.766 171.392 90.6727 171.531 91.3554 171.808C92.038 172.085 92.5287 172.475 92.8274 172.976C93.1367 173.467 93.2914 174.043 93.2914 174.704C93.2914 175.333 93.142 175.909 92.8434 176.432C92.5447 176.944 92.0967 177.349 91.4994 177.648C90.902 177.947 90.1447 178.096 89.2274 178.096ZM99.9334 178V166.8H104.125C105.075 166.8 105.891 166.955 106.573 167.264C107.256 167.563 107.779 168 108.141 168.576C108.515 169.141 108.701 169.829 108.701 170.64C108.701 171.429 108.515 172.112 108.141 172.688C107.779 173.253 107.256 173.691 106.573 174C105.891 174.299 105.075 174.448 104.125 174.448H100.589L101.117 173.904V178H99.9334ZM107.581 178L104.701 173.936H105.981L108.877 178H107.581ZM101.117 174L100.589 173.44H104.093C105.213 173.44 106.061 173.195 106.637 172.704C107.224 172.213 107.517 171.525 107.517 170.64C107.517 169.744 107.224 169.051 106.637 168.56C106.061 168.069 105.213 167.824 104.093 167.824H100.589L101.117 167.264V174ZM114.824 178.08C113.949 178.08 113.181 177.899 112.52 177.536C111.859 177.163 111.341 176.656 110.968 176.016C110.595 175.365 110.408 174.624 110.408 173.792C110.408 172.96 110.584 172.224 110.936 171.584C111.299 170.944 111.789 170.443 112.408 170.08C113.037 169.707 113.741 169.52 114.52 169.52C115.309 169.52 116.008 169.701 116.616 170.064C117.235 170.416 117.72 170.917 118.072 171.568C118.424 172.208 118.6 172.949 118.6 173.792C118.6 173.845 118.595 173.904 118.584 173.968C118.584 174.021 118.584 174.08 118.584 174.144H111.272V173.296H117.976L117.528 173.632C117.528 173.024 117.395 172.485 117.128 172.016C116.872 171.536 116.52 171.163 116.072 170.896C115.624 170.629 115.107 170.496 114.52 170.496C113.944 170.496 113.427 170.629 112.968 170.896C112.509 171.163 112.152 171.536 111.896 172.016C111.64 172.496 111.512 173.045 111.512 173.664V173.84C111.512 174.48 111.651 175.045 111.928 175.536C112.216 176.016 112.611 176.395 113.112 176.672C113.624 176.939 114.205 177.072 114.856 177.072C115.368 177.072 115.843 176.981 116.28 176.8C116.728 176.619 117.112 176.341 117.432 175.968L118.072 176.704C117.699 177.152 117.229 177.493 116.664 177.728C116.109 177.963 115.496 178.08 114.824 178.08ZM123.568 178.08C122.779 178.08 122.171 177.867 121.744 177.44C121.317 177.013 121.104 176.411 121.104 175.632V167.744H122.24V175.568C122.24 176.059 122.363 176.437 122.608 176.704C122.864 176.971 123.227 177.104 123.696 177.104C124.197 177.104 124.613 176.96 124.944 176.672L125.344 177.488C125.12 177.691 124.848 177.84 124.528 177.936C124.219 178.032 123.899 178.08 123.568 178.08ZM119.6 170.544V169.6H124.8V170.544H119.6ZM132.676 178V176.144L132.628 175.84V172.736C132.628 172.021 132.425 171.472 132.02 171.088C131.625 170.704 131.033 170.512 130.244 170.512C129.7 170.512 129.183 170.603 128.692 170.784C128.201 170.965 127.785 171.205 127.444 171.504L126.932 170.656C127.359 170.293 127.871 170.016 128.468 169.824C129.065 169.621 129.695 169.52 130.356 169.52C131.444 169.52 132.281 169.792 132.868 170.336C133.465 170.869 133.764 171.685 133.764 172.784V178H132.676ZM129.78 178.08C129.151 178.08 128.601 177.979 128.132 177.776C127.673 177.563 127.321 177.275 127.076 176.912C126.831 176.539 126.708 176.112 126.708 175.632C126.708 175.195 126.809 174.8 127.012 174.448C127.225 174.085 127.567 173.797 128.036 173.584C128.516 173.36 129.156 173.248 129.956 173.248H132.852V174.096H129.988C129.177 174.096 128.612 174.24 128.292 174.528C127.983 174.816 127.828 175.173 127.828 175.6C127.828 176.08 128.015 176.464 128.388 176.752C128.761 177.04 129.284 177.184 129.956 177.184C130.596 177.184 131.145 177.04 131.604 176.752C132.073 176.453 132.415 176.027 132.628 175.472L132.884 176.256C132.671 176.811 132.297 177.253 131.764 177.584C131.241 177.915 130.58 178.08 129.78 178.08ZM136.85 178V169.6H137.986V178H136.85ZM137.426 167.744C137.191 167.744 136.994 167.664 136.834 167.504C136.674 167.344 136.594 167.152 136.594 166.928C136.594 166.704 136.674 166.517 136.834 166.368C136.994 166.208 137.191 166.128 137.426 166.128C137.66 166.128 137.858 166.203 138.018 166.352C138.178 166.501 138.258 166.688 138.258 166.912C138.258 167.147 138.178 167.344 138.018 167.504C137.868 167.664 137.671 167.744 137.426 167.744ZM141.147 178V166.128H142.283V178H141.147ZM154.783 178.096C153.93 178.096 153.14 177.957 152.415 177.68C151.7 177.392 151.076 176.992 150.543 176.48C150.02 175.968 149.61 175.365 149.311 174.672C149.023 173.979 148.879 173.221 148.879 172.4C148.879 171.579 149.023 170.821 149.311 170.128C149.61 169.435 150.026 168.832 150.559 168.32C151.092 167.808 151.716 167.413 152.431 167.136C153.156 166.848 153.946 166.704 154.799 166.704C155.652 166.704 156.431 166.837 157.135 167.104C157.85 167.371 158.458 167.776 158.959 168.32L158.223 169.072C157.754 168.603 157.236 168.267 156.671 168.064C156.106 167.861 155.498 167.76 154.847 167.76C154.154 167.76 153.514 167.877 152.927 168.112C152.351 168.336 151.844 168.661 151.407 169.088C150.98 169.504 150.644 169.995 150.399 170.56C150.164 171.115 150.047 171.728 150.047 172.4C150.047 173.061 150.164 173.675 150.399 174.24C150.644 174.805 150.98 175.301 151.407 175.728C151.844 176.144 152.351 176.469 152.927 176.704C153.514 176.928 154.148 177.04 154.831 177.04C155.471 177.04 156.074 176.944 156.639 176.752C157.215 176.56 157.743 176.235 158.223 175.776L158.895 176.672C158.362 177.141 157.738 177.499 157.023 177.744C156.308 177.979 155.562 178.096 154.783 178.096ZM157.759 176.528V172.4H158.895V176.672L157.759 176.528ZM162.006 178V169.6H163.094V171.888L162.982 171.488C163.217 170.848 163.611 170.363 164.166 170.032C164.721 169.691 165.409 169.52 166.23 169.52V170.624C166.187 170.624 166.145 170.624 166.102 170.624C166.059 170.613 166.017 170.608 165.974 170.608C165.089 170.608 164.395 170.88 163.894 171.424C163.393 171.957 163.142 172.72 163.142 173.712V178H162.006ZM171.649 178.08C170.838 178.08 170.107 177.899 169.457 177.536C168.817 177.163 168.31 176.656 167.937 176.016C167.563 175.365 167.377 174.624 167.377 173.792C167.377 172.949 167.563 172.208 167.937 171.568C168.31 170.928 168.817 170.427 169.457 170.064C170.097 169.701 170.827 169.52 171.649 169.52C172.481 169.52 173.217 169.701 173.857 170.064C174.507 170.427 175.014 170.928 175.377 171.568C175.75 172.208 175.937 172.949 175.937 173.792C175.937 174.624 175.75 175.365 175.377 176.016C175.014 176.656 174.507 177.163 173.857 177.536C173.206 177.899 172.47 178.08 171.649 178.08ZM171.649 177.072C172.257 177.072 172.795 176.939 173.265 176.672C173.734 176.395 174.102 176.011 174.369 175.52C174.646 175.019 174.785 174.443 174.785 173.792C174.785 173.131 174.646 172.555 174.369 172.064C174.102 171.573 173.734 171.195 173.265 170.928C172.795 170.651 172.262 170.512 171.665 170.512C171.067 170.512 170.534 170.651 170.065 170.928C169.595 171.195 169.222 171.573 168.945 172.064C168.667 172.555 168.529 173.131 168.529 173.792C168.529 174.443 168.667 175.019 168.945 175.52C169.222 176.011 169.595 176.395 170.065 176.672C170.534 176.939 171.062 177.072 171.649 177.072ZM181.728 178.08C181.013 178.08 180.389 177.947 179.856 177.68C179.323 177.413 178.907 177.013 178.608 176.48C178.32 175.947 178.176 175.28 178.176 174.48V169.6H179.312V174.352C179.312 175.248 179.531 175.925 179.968 176.384C180.416 176.832 181.04 177.056 181.84 177.056C182.427 177.056 182.933 176.939 183.36 176.704C183.797 176.459 184.128 176.107 184.352 175.648C184.587 175.189 184.704 174.64 184.704 174V169.6H185.84V178H184.752V175.696L184.928 176.112C184.661 176.731 184.245 177.216 183.68 177.568C183.125 177.909 182.475 178.08 181.728 178.08ZM193.342 178.08C192.617 178.08 191.961 177.915 191.374 177.584C190.787 177.243 190.318 176.757 189.966 176.128C189.625 175.488 189.454 174.709 189.454 173.792C189.454 172.875 189.625 172.101 189.966 171.472C190.307 170.832 190.771 170.347 191.358 170.016C191.945 169.685 192.606 169.52 193.342 169.52C194.142 169.52 194.857 169.701 195.486 170.064C196.126 170.416 196.627 170.917 196.99 171.568C197.353 172.208 197.534 172.949 197.534 173.792C197.534 174.645 197.353 175.392 196.99 176.032C196.627 176.672 196.126 177.173 195.486 177.536C194.857 177.899 194.142 178.08 193.342 178.08ZM189.006 181.104V169.6H190.094V172.128L189.982 173.808L190.142 175.504V181.104H189.006ZM193.262 177.072C193.859 177.072 194.393 176.939 194.862 176.672C195.331 176.395 195.705 176.011 195.982 175.52C196.259 175.019 196.398 174.443 196.398 173.792C196.398 173.141 196.259 172.571 195.982 172.08C195.705 171.589 195.331 171.205 194.862 170.928C194.393 170.651 193.859 170.512 193.262 170.512C192.665 170.512 192.126 170.651 191.646 170.928C191.177 171.205 190.803 171.589 190.526 172.08C190.259 172.571 190.126 173.141 190.126 173.792C190.126 174.443 190.259 175.019 190.526 175.52C190.803 176.011 191.177 176.395 191.646 176.672C192.126 176.939 192.665 177.072 193.262 177.072Z" fill="#49494F"></path> <path d="M254 223H16V225H254V223Z" fill="#DDDDDD" mask="url(#path-40-inside-2_2152_2757)"></path> <path d="M16.49 252.824L16.868 252.082C17.2973 252.455 17.778 252.735 18.31 252.922C18.8513 253.099 19.3927 253.193 19.934 253.202C20.4753 253.202 20.97 253.123 21.418 252.964C21.8753 252.805 22.244 252.572 22.524 252.264C22.804 251.947 22.944 251.564 22.944 251.116C22.944 250.547 22.7153 250.108 22.258 249.8C21.81 249.492 21.1847 249.338 20.382 249.338H18.282V248.498H20.326C21.0167 248.498 21.5533 248.353 21.936 248.064C22.328 247.765 22.524 247.355 22.524 246.832C22.524 246.459 22.412 246.141 22.188 245.88C21.9733 245.609 21.6747 245.404 21.292 245.264C20.9187 245.115 20.4987 245.035 20.032 245.026C19.5653 245.007 19.08 245.068 18.576 245.208C18.0813 245.339 17.6007 245.549 17.134 245.838L16.798 244.984C17.3767 244.639 17.9787 244.401 18.604 244.27C19.2293 244.13 19.836 244.083 20.424 244.13C21.012 244.177 21.5393 244.312 22.006 244.536C22.482 244.76 22.86 245.054 23.14 245.418C23.42 245.782 23.56 246.216 23.56 246.72C23.56 247.187 23.4387 247.597 23.196 247.952C22.9627 248.307 22.6313 248.582 22.202 248.778C21.782 248.965 21.2827 249.058 20.704 249.058L20.76 248.75C21.4133 248.75 21.978 248.853 22.454 249.058C22.9393 249.263 23.3127 249.557 23.574 249.94C23.8447 250.313 23.98 250.752 23.98 251.256C23.98 251.732 23.8587 252.157 23.616 252.53C23.3827 252.894 23.056 253.202 22.636 253.454C22.2253 253.697 21.7633 253.874 21.25 253.986C20.7367 254.089 20.2 254.117 19.64 254.07C19.08 254.023 18.5293 253.902 17.988 253.706C17.4467 253.501 16.9473 253.207 16.49 252.824ZM30.8784 254V252.376L30.8364 252.11V249.394C30.8364 248.769 30.6591 248.288 30.3044 247.952C29.9591 247.616 29.4411 247.448 28.7504 247.448C28.2744 247.448 27.8217 247.527 27.3924 247.686C26.9631 247.845 26.5991 248.055 26.3004 248.316L25.8524 247.574C26.2257 247.257 26.6737 247.014 27.1964 246.846C27.7191 246.669 28.2697 246.58 28.8484 246.58C29.8004 246.58 30.5331 246.818 31.0464 247.294C31.5691 247.761 31.8304 248.475 31.8304 249.436V254H30.8784ZM28.3444 254.07C27.7937 254.07 27.3131 253.981 26.9024 253.804C26.5011 253.617 26.1931 253.365 25.9784 253.048C25.7637 252.721 25.6564 252.348 25.6564 251.928C25.6564 251.545 25.7451 251.2 25.9224 250.892C26.1091 250.575 26.4077 250.323 26.8184 250.136C27.2384 249.94 27.7984 249.842 28.4984 249.842H31.0324V250.584H28.5264C27.8171 250.584 27.3224 250.71 27.0424 250.962C26.7717 251.214 26.6364 251.527 26.6364 251.9C26.6364 252.32 26.7997 252.656 27.1264 252.908C27.4531 253.16 27.9104 253.286 28.4984 253.286C29.0584 253.286 29.5391 253.16 29.9404 252.908C30.3511 252.647 30.6497 252.273 30.8364 251.788L31.0604 252.474C30.8737 252.959 30.5471 253.347 30.0804 253.636C29.6231 253.925 29.0444 254.07 28.3444 254.07ZM39.8665 254L36.8425 250.36L37.6685 249.87L41.0425 254H39.8665ZM34.4765 254V246.65H35.4705V254H34.4765ZM35.1625 250.724V249.87H37.5285V250.724H35.1625ZM37.7525 250.43L36.8285 250.29L39.7545 246.65H40.8325L37.7525 250.43ZM42.3134 256.786C41.9681 256.786 41.6368 256.73 41.3194 256.618C41.0114 256.506 40.7454 256.338 40.5214 256.114L40.9834 255.372C41.1701 255.549 41.3708 255.685 41.5854 255.778C41.8094 255.881 42.0568 255.932 42.3274 255.932C42.6541 255.932 42.9341 255.839 43.1674 255.652C43.4101 255.475 43.6388 255.157 43.8534 254.7L44.3294 253.622L44.4414 253.468L47.4654 246.65H48.4454L44.7634 254.882C44.5581 255.358 44.3294 255.736 44.0774 256.016C43.8348 256.296 43.5688 256.492 43.2794 256.604C42.9901 256.725 42.6681 256.786 42.3134 256.786ZM44.2734 254.21L40.8854 246.65H41.9214L44.9174 253.398L44.2734 254.21ZM49.9941 254V246.65H56.6021V254H55.6081V247.252L55.8601 247.518H50.7361L50.9881 247.252V254H49.9941ZM64.8177 254L61.7937 250.36L62.6197 249.87L65.9937 254H64.8177ZM59.4277 254V246.65H60.4217V254H59.4277ZM60.1137 250.724V249.87H62.4797V250.724H60.1137ZM62.7037 250.43L61.7797 250.29L64.7057 246.65H65.7837L62.7037 250.43ZM71.9897 254V252.376L71.9477 252.11V249.394C71.9477 248.769 71.7704 248.288 71.4157 247.952C71.0704 247.616 70.5524 247.448 69.8617 247.448C69.3857 247.448 68.9331 247.527 68.5037 247.686C68.0744 247.845 67.7104 248.055 67.4117 248.316L66.9637 247.574C67.3371 247.257 67.7851 247.014 68.3077 246.846C68.8304 246.669 69.3811 246.58 69.9597 246.58C70.9117 246.58 71.6444 246.818 72.1577 247.294C72.6804 247.761 72.9417 248.475 72.9417 249.436V254H71.9897ZM69.4557 254.07C68.9051 254.07 68.4244 253.981 68.0137 253.804C67.6124 253.617 67.3044 253.365 67.0897 253.048C66.8751 252.721 66.7677 252.348 66.7677 251.928C66.7677 251.545 66.8564 251.2 67.0337 250.892C67.2204 250.575 67.5191 250.323 67.9297 250.136C68.3497 249.94 68.9097 249.842 69.6097 249.842H72.1437V250.584H69.6377C68.9284 250.584 68.4337 250.71 68.1537 250.962C67.8831 251.214 67.7477 251.527 67.7477 251.9C67.7477 252.32 67.9111 252.656 68.2377 252.908C68.5644 253.16 69.0217 253.286 69.6097 253.286C70.1697 253.286 70.6504 253.16 71.0517 252.908C71.4624 252.647 71.7611 252.273 71.9477 251.788L72.1717 252.474C71.9851 252.959 71.6584 253.347 71.1917 253.636C70.7344 253.925 70.1557 254.07 69.4557 254.07ZM82.2759 254.07C81.5666 254.07 80.9272 253.911 80.3579 253.594C79.7979 253.267 79.3546 252.824 79.0279 252.264C78.7012 251.695 78.5379 251.046 78.5379 250.318C78.5379 249.581 78.7012 248.932 79.0279 248.372C79.3546 247.812 79.7979 247.373 80.3579 247.056C80.9179 246.739 81.5572 246.58 82.2759 246.58C83.0039 246.58 83.6479 246.739 84.2079 247.056C84.7772 247.373 85.2206 247.812 85.5379 248.372C85.8646 248.932 86.0279 249.581 86.0279 250.318C86.0279 251.046 85.8646 251.695 85.5379 252.264C85.2206 252.824 84.7772 253.267 84.2079 253.594C83.6386 253.911 82.9946 254.07 82.2759 254.07ZM82.2759 253.188C82.8079 253.188 83.2792 253.071 83.6899 252.838C84.1006 252.595 84.4226 252.259 84.6559 251.83C84.8986 251.391 85.0199 250.887 85.0199 250.318C85.0199 249.739 84.8986 249.235 84.6559 248.806C84.4226 248.377 84.1006 248.045 83.6899 247.812C83.2792 247.569 82.8126 247.448 82.2899 247.448C81.7672 247.448 81.3006 247.569 80.8899 247.812C80.4792 248.045 80.1526 248.377 79.9099 248.806C79.6672 249.235 79.5459 249.739 79.5459 250.318C79.5459 250.887 79.6672 251.391 79.9099 251.83C80.1526 252.259 80.4792 252.595 80.8899 252.838C81.3006 253.071 81.7626 253.188 82.2759 253.188ZM91.4563 254.084C90.8589 254.084 90.3269 253.986 89.8603 253.79C89.4029 253.594 89.0109 253.295 88.6843 252.894C88.3576 252.493 88.1103 251.998 87.9423 251.41C87.7743 250.813 87.6903 250.122 87.6903 249.338C87.6903 248.638 87.7556 248.027 87.8863 247.504C88.0169 246.972 88.1989 246.515 88.4323 246.132C88.6656 245.749 88.9363 245.427 89.2443 245.166C89.5616 244.895 89.9023 244.681 90.2663 244.522C90.6396 244.354 91.0223 244.228 91.4143 244.144L94.7183 243.374L94.8863 244.298L91.7783 244.998C91.5823 245.045 91.3443 245.11 91.0643 245.194C90.7936 245.278 90.5136 245.404 90.2243 245.572C89.9443 245.74 89.6829 245.973 89.4403 246.272C89.1976 246.571 89.0016 246.958 88.8523 247.434C88.7123 247.901 88.6423 248.484 88.6423 249.184C88.6423 249.333 88.6469 249.455 88.6563 249.548C88.6656 249.632 88.6749 249.725 88.6843 249.828C88.7029 249.921 88.7169 250.061 88.7263 250.248L88.2923 249.884C88.3949 249.315 88.6049 248.82 88.9223 248.4C89.2396 247.971 89.6363 247.639 90.1123 247.406C90.5976 247.163 91.1343 247.042 91.7223 247.042C92.4036 247.042 93.0103 247.191 93.5423 247.49C94.0743 247.779 94.4896 248.185 94.7883 248.708C95.0963 249.231 95.2503 249.837 95.2503 250.528C95.2503 251.209 95.0916 251.821 94.7743 252.362C94.4663 252.903 94.0276 253.328 93.4583 253.636C92.8889 253.935 92.2216 254.084 91.4563 254.084ZM91.5683 253.258C92.0909 253.258 92.5529 253.141 92.9543 252.908C93.3556 252.665 93.6683 252.339 93.8923 251.928C94.1256 251.517 94.2423 251.055 94.2423 250.542C94.2423 250.038 94.1256 249.59 93.8923 249.198C93.6683 248.806 93.3556 248.498 92.9543 248.274C92.5529 248.041 92.0863 247.924 91.5543 247.924C91.0316 247.924 90.5696 248.036 90.1683 248.26C89.7669 248.475 89.4496 248.778 89.2163 249.17C88.9923 249.562 88.8803 250.015 88.8803 250.528C88.8803 251.041 88.9923 251.503 89.2163 251.914C89.4496 252.325 89.7669 252.651 90.1683 252.894C90.5789 253.137 91.0456 253.258 91.5683 253.258ZM100.405 254.07C99.6955 254.07 99.0561 253.911 98.4868 253.594C97.9268 253.267 97.4835 252.824 97.1568 252.264C96.8301 251.695 96.6668 251.046 96.6668 250.318C96.6668 249.581 96.8301 248.932 97.1568 248.372C97.4835 247.812 97.9268 247.373 98.4868 247.056C99.0468 246.739 99.6861 246.58 100.405 246.58C101.133 246.58 101.777 246.739 102.337 247.056C102.906 247.373 103.349 247.812 103.667 248.372C103.993 248.932 104.157 249.581 104.157 250.318C104.157 251.046 103.993 251.695 103.667 252.264C103.349 252.824 102.906 253.267 102.337 253.594C101.767 253.911 101.123 254.07 100.405 254.07ZM100.405 253.188C100.937 253.188 101.408 253.071 101.819 252.838C102.229 252.595 102.551 252.259 102.785 251.83C103.027 251.391 103.149 250.887 103.149 250.318C103.149 249.739 103.027 249.235 102.785 248.806C102.551 248.377 102.229 248.045 101.819 247.812C101.408 247.569 100.941 247.448 100.419 247.448C99.8961 247.448 99.4295 247.569 99.0188 247.812C98.6081 248.045 98.2815 248.377 98.0388 248.806C97.7961 249.235 97.6748 249.739 97.6748 250.318C97.6748 250.887 97.7961 251.391 98.0388 251.83C98.2815 252.259 98.6081 252.595 99.0188 252.838C99.4295 253.071 99.8915 253.188 100.405 253.188ZM110.075 254.07C109.441 254.07 108.867 253.925 108.353 253.636C107.84 253.337 107.429 252.913 107.121 252.362C106.823 251.802 106.673 251.121 106.673 250.318C106.673 249.515 106.823 248.839 107.121 248.288C107.42 247.728 107.826 247.303 108.339 247.014C108.853 246.725 109.431 246.58 110.075 246.58C110.775 246.58 111.401 246.739 111.951 247.056C112.511 247.364 112.95 247.803 113.267 248.372C113.585 248.932 113.743 249.581 113.743 250.318C113.743 251.065 113.585 251.718 113.267 252.278C112.95 252.838 112.511 253.277 111.951 253.594C111.401 253.911 110.775 254.07 110.075 254.07ZM106.281 256.716V246.65H107.233V248.862L107.135 250.332L107.275 251.816V256.716H106.281ZM110.005 253.188C110.528 253.188 110.995 253.071 111.405 252.838C111.816 252.595 112.143 252.259 112.385 251.83C112.628 251.391 112.749 250.887 112.749 250.318C112.749 249.749 112.628 249.249 112.385 248.82C112.143 248.391 111.816 248.055 111.405 247.812C110.995 247.569 110.528 247.448 110.005 247.448C109.483 247.448 109.011 247.569 108.591 247.812C108.181 248.055 107.854 248.391 107.611 248.82C107.378 249.249 107.261 249.749 107.261 250.318C107.261 250.887 107.378 251.391 107.611 251.83C107.854 252.259 108.181 252.595 108.591 252.838C109.011 253.071 109.483 253.188 110.005 253.188ZM115.8 256.786C115.454 256.786 115.123 256.73 114.806 256.618C114.498 256.506 114.232 256.338 114.008 256.114L114.47 255.372C114.656 255.549 114.857 255.685 115.072 255.778C115.296 255.881 115.543 255.932 115.814 255.932C116.14 255.932 116.42 255.839 116.654 255.652C116.896 255.475 117.125 255.157 117.34 254.7L117.816 253.622L117.928 253.468L120.952 246.65H121.932L118.25 254.882C118.044 255.358 117.816 255.736 117.564 256.016C117.321 256.296 117.055 256.492 116.766 256.604C116.476 256.725 116.154 256.786 115.8 256.786ZM117.76 254.21L114.372 246.65H115.408L118.404 253.398L117.76 254.21ZM128.206 253.524V247.518H124.664L124.58 249.156C124.561 249.651 124.529 250.136 124.482 250.612C124.445 251.088 124.375 251.527 124.272 251.928C124.179 252.32 124.043 252.642 123.866 252.894C123.689 253.137 123.46 253.277 123.18 253.314L122.186 253.132C122.475 253.141 122.713 253.039 122.9 252.824C123.087 252.6 123.231 252.297 123.334 251.914C123.437 251.531 123.511 251.097 123.558 250.612C123.605 250.117 123.642 249.613 123.67 249.1L123.768 246.65H129.2V253.524H128.206ZM121.878 255.778V253.132H130.348V255.778H129.41V254H122.816V255.778H121.878ZM135.309 254.07C134.6 254.07 133.96 253.911 133.391 253.594C132.831 253.267 132.388 252.824 132.061 252.264C131.734 251.695 131.571 251.046 131.571 250.318C131.571 249.581 131.734 248.932 132.061 248.372C132.388 247.812 132.831 247.373 133.391 247.056C133.951 246.739 134.59 246.58 135.309 246.58C136.037 246.58 136.681 246.739 137.241 247.056C137.81 247.373 138.254 247.812 138.571 248.372C138.898 248.932 139.061 249.581 139.061 250.318C139.061 251.046 138.898 251.695 138.571 252.264C138.254 252.824 137.81 253.267 137.241 253.594C136.672 253.911 136.028 254.07 135.309 254.07ZM135.309 253.188C135.841 253.188 136.312 253.071 136.723 252.838C137.134 252.595 137.456 252.259 137.689 251.83C137.932 251.391 138.053 250.887 138.053 250.318C138.053 249.739 137.932 249.235 137.689 248.806C137.456 248.377 137.134 248.045 136.723 247.812C136.312 247.569 135.846 247.448 135.323 247.448C134.8 247.448 134.334 247.569 133.923 247.812C133.512 248.045 133.186 248.377 132.943 248.806C132.7 249.235 132.579 249.739 132.579 250.318C132.579 250.887 132.7 251.391 132.943 251.83C133.186 252.259 133.512 252.595 133.923 252.838C134.334 253.071 134.796 253.188 135.309 253.188ZM141.185 254V246.65H144.433C145.264 246.65 145.917 246.809 146.393 247.126C146.879 247.443 147.121 247.91 147.121 248.526C147.121 249.123 146.893 249.585 146.435 249.912C145.978 250.229 145.376 250.388 144.629 250.388L144.825 250.094C145.703 250.094 146.347 250.257 146.757 250.584C147.168 250.911 147.373 251.382 147.373 251.998C147.373 252.633 147.14 253.127 146.673 253.482C146.216 253.827 145.502 254 144.531 254H141.185ZM142.151 253.216H144.489C145.115 253.216 145.586 253.118 145.903 252.922C146.23 252.717 146.393 252.39 146.393 251.942C146.393 251.494 146.249 251.167 145.959 250.962C145.67 250.757 145.213 250.654 144.587 250.654H142.151V253.216ZM142.151 249.912H144.363C144.933 249.912 145.367 249.805 145.665 249.59C145.973 249.375 146.127 249.063 146.127 248.652C146.127 248.241 145.973 247.933 145.665 247.728C145.367 247.523 144.933 247.42 144.363 247.42H142.151V249.912ZM154.267 254V252.376L154.225 252.11V249.394C154.225 248.769 154.048 248.288 153.693 247.952C153.348 247.616 152.83 247.448 152.139 247.448C151.663 247.448 151.21 247.527 150.781 247.686C150.352 247.845 149.988 248.055 149.689 248.316L149.241 247.574C149.614 247.257 150.062 247.014 150.585 246.846C151.108 246.669 151.658 246.58 152.237 246.58C153.189 246.58 153.922 246.818 154.435 247.294C154.958 247.761 155.219 248.475 155.219 249.436V254H154.267ZM151.733 254.07C151.182 254.07 150.702 253.981 150.291 253.804C149.89 253.617 149.582 253.365 149.367 253.048C149.152 252.721 149.045 252.348 149.045 251.928C149.045 251.545 149.134 251.2 149.311 250.892C149.498 250.575 149.796 250.323 150.207 250.136C150.627 249.94 151.187 249.842 151.887 249.842H154.421V250.584H151.915C151.206 250.584 150.711 250.71 150.431 250.962C150.16 251.214 150.025 251.527 150.025 251.9C150.025 252.32 150.188 252.656 150.515 252.908C150.842 253.16 151.299 253.286 151.887 253.286C152.447 253.286 152.928 253.16 153.329 252.908C153.74 252.647 154.038 252.273 154.225 251.788L154.449 252.474C154.262 252.959 153.936 253.347 153.469 253.636C153.012 253.925 152.433 254.07 151.733 254.07ZM157.865 254V246.65H158.859V249.898H163.493V246.65H164.487V254H163.493V250.752H158.859V254H157.865ZM167.312 254V246.65H168.306V252.488L173.22 246.65H174.102V254H173.108V248.148L168.208 254H167.312ZM181.697 254V251.354L181.879 251.564H179.387C178.444 251.564 177.707 251.359 177.175 250.948C176.643 250.537 176.377 249.94 176.377 249.156C176.377 248.316 176.662 247.691 177.231 247.28C177.8 246.86 178.561 246.65 179.513 246.65H182.607V254H181.697ZM176.321 254L178.337 251.172H179.373L177.399 254H176.321ZM181.697 251.06V247.224L181.879 247.518H179.541C178.86 247.518 178.328 247.649 177.945 247.91C177.572 248.171 177.385 248.596 177.385 249.184C177.385 250.276 178.08 250.822 179.471 250.822H181.879L181.697 251.06Z" fill="#49494F"></path> <rect x="0.5" y="0.5" width="269" height="281" rx="15.5" stroke="#E2E4E7"></rect> </svg> 