<?xml version="1.0" encoding="UTF-8"?> <svg xmlns="http://www.w3.org/2000/svg" width="270" height="282" viewBox="0 0 270 282" fill="none"> <rect x="0.5" y="0.5" width="269" height="281" rx="15.5" fill="white"></rect> <rect x="16" y="24" width="40" height="40" rx="8" fill="url(#paint0_linear_2132_2992)"></rect> <path fill-rule="evenodd" clip-rule="evenodd" d="M33 54H25V50H33V54ZM32.5 50.5H25.5V53.5H32.5V50.5Z" fill="#FAFAFA"></path> <path fill-rule="evenodd" clip-rule="evenodd" d="M33 46H25V42H33V46ZM32.5 42.5H25.5V45.5H32.5V42.5Z" fill="#FAFAFA"></path> <path fill-rule="evenodd" clip-rule="evenodd" d="M41 54H33V50H41V54ZM40.5 50.5H33.5V53.5H40.5V50.5Z" fill="#FAFAFA"></path> <path fill-rule="evenodd" clip-rule="evenodd" d="M41 46H33V42H41V46ZM40.5 42.5H33.5V45.5H40.5V42.5Z" fill="#FAFAFA"></path> <path fill-rule="evenodd" clip-rule="evenodd" d="M49 54H41V50H49V54ZM48.5 50.5H41.5V53.5H48.5V50.5Z" fill="#FAFAFA"></path> <path fill-rule="evenodd" clip-rule="evenodd" d="M49 46H41V42H49V46ZM48.5 42.5H41.5V45.5H48.5V42.5Z" fill="#FAFAFA"></path> <path fill-rule="evenodd" clip-rule="evenodd" d="M45 42H37V38H45V42ZM44.5 38.5H37.5V41.5H44.5V38.5Z" fill="#FAFAFA"></path> <path fill-rule="evenodd" clip-rule="evenodd" d="M37 42H29V38H37V42ZM36.5 38.5H29.5V41.5H36.5V38.5Z" fill="#FAFAFA"></path> <path fill-rule="evenodd" clip-rule="evenodd" d="M42 38H34V34H42V38ZM41.5 34.5H34.5V37.5H41.5V34.5Z" fill="#FAFAFA"></path> <path fill-rule="evenodd" clip-rule="evenodd" d="M52 50H44V46H52V50ZM51.5 46.5H44.5V49.5H51.5V46.5Z" fill="#FAFAFA"></path> <path fill-rule="evenodd" clip-rule="evenodd" d="M44 50H36V46H44V50ZM43.5 46.5H36.5V49.5H43.5V46.5Z" fill="#FAFAFA"></path> <path fill-rule="evenodd" clip-rule="evenodd" d="M36 50H28V46H36V50ZM35.5 46.5H28.5V49.5H35.5V46.5Z" fill="#FAFAFA"></path> <path fill-rule="evenodd" clip-rule="evenodd" d="M28 50H20V46H28V50ZM27.5 46.5H20.5V49.5H27.5V46.5Z" fill="#FAFAFA"></path> <path fill-rule="evenodd" clip-rule="evenodd" d="M36.9492 37.9502H41.9992V38.0502H37.0492V42.0502H33.0492V46.0502H28.0492V49.9502H33.0492V54.0002H32.9492V50.0502H27.9492V45.9502H32.9492V41.9502H36.9492V37.9502Z" fill="#161617"></path> <path fill-rule="evenodd" clip-rule="evenodd" d="M37 41.9502H41.05V45.9502H44.05V50.0502H41.05V54.0002H40.95V49.9502H43.95V46.0502H40.95V42.0502H37V41.9502Z" fill="#161617"></path> <path fill-rule="evenodd" clip-rule="evenodd" d="M37 38.0502H34V37.9502H37V38.0502ZM45 41.9502V42.0502H29V41.9502H45ZM25 50.0502V49.9502H49V50.0502H25Z" fill="#161617"></path> <path fill-rule="evenodd" clip-rule="evenodd" d="M48.9397 46.0502H25V45.9502H48.9397V46.0502Z" fill="#161617"></path> <path d="M127.526 49V39.2H131.74C132.804 39.2 133.639 39.4147 134.246 39.844C134.853 40.2733 135.156 40.8987 135.156 41.72C135.156 42.5227 134.867 43.1387 134.288 43.568C133.709 43.988 132.949 44.198 132.006 44.198L132.258 43.778C133.35 43.778 134.185 43.9973 134.764 44.436C135.352 44.8653 135.646 45.4953 135.646 46.326C135.646 47.166 135.338 47.824 134.722 48.3C134.115 48.7667 133.21 49 132.006 49H127.526ZM128.912 47.894H131.978C132.725 47.894 133.285 47.7587 133.658 47.488C134.041 47.208 134.232 46.7833 134.232 46.214C134.232 45.6447 134.041 45.2293 133.658 44.968C133.285 44.7067 132.725 44.576 131.978 44.576H128.912V47.894ZM128.912 43.512H131.642C132.323 43.512 132.841 43.3767 133.196 43.106C133.56 42.8353 133.742 42.4387 133.742 41.916C133.742 41.384 133.56 40.9827 133.196 40.712C132.841 40.4413 132.323 40.306 131.642 40.306H128.912V43.512ZM145.097 49V41.58H146.441V49H145.097ZM141.107 44.1C142.05 44.1093 142.764 44.324 143.249 44.744C143.744 45.164 143.991 45.7567 143.991 46.522C143.991 47.3247 143.72 47.9453 143.179 48.384C142.647 48.8133 141.882 49.0233 140.883 49.014L137.761 49V41.58H139.105V44.086L141.107 44.1ZM140.785 47.992C141.382 48.0013 141.84 47.88 142.157 47.628C142.474 47.376 142.633 47.0027 142.633 46.508C142.633 46.0227 142.474 45.668 142.157 45.444C141.849 45.22 141.392 45.1033 140.785 45.094L139.105 45.066V47.978L140.785 47.992ZM154.122 48.37V42.756H150.902L150.832 44.184C150.813 44.6507 150.781 45.1033 150.734 45.542C150.697 45.9713 150.631 46.368 150.538 46.732C150.454 47.096 150.328 47.3947 150.16 47.628C149.992 47.8613 149.768 48.006 149.488 48.062L148.158 47.824C148.447 47.8333 148.681 47.74 148.858 47.544C149.035 47.3387 149.171 47.0587 149.264 46.704C149.367 46.3493 149.441 45.948 149.488 45.5C149.535 45.0427 149.572 44.5713 149.6 44.086L149.712 41.58H155.466V48.37H154.122ZM147.864 50.722V47.824H156.6V50.722H155.34V49H149.138V50.722H147.864ZM162.901 49V47.432L162.831 47.138V44.464C162.831 43.8947 162.663 43.456 162.327 43.148C162 42.8307 161.505 42.672 160.843 42.672C160.404 42.672 159.975 42.7467 159.555 42.896C159.135 43.036 158.78 43.2273 158.491 43.47L157.931 42.462C158.313 42.154 158.771 41.9207 159.303 41.762C159.844 41.594 160.409 41.51 160.997 41.51C162.014 41.51 162.798 41.7573 163.349 42.252C163.899 42.7467 164.175 43.5027 164.175 44.52V49H162.901ZM160.465 49.084C159.914 49.084 159.429 48.9907 159.009 48.804C158.598 48.6173 158.281 48.3607 158.057 48.034C157.833 47.698 157.721 47.32 157.721 46.9C157.721 46.4987 157.814 46.1347 158.001 45.808C158.197 45.4813 158.509 45.22 158.939 45.024C159.377 44.828 159.965 44.73 160.703 44.73H163.055V45.696H160.759C160.087 45.696 159.634 45.808 159.401 46.032C159.167 46.256 159.051 46.5267 159.051 46.844C159.051 47.208 159.195 47.502 159.485 47.726C159.774 47.9407 160.175 48.048 160.689 48.048C161.193 48.048 161.631 47.936 162.005 47.712C162.387 47.488 162.663 47.1613 162.831 46.732L163.097 47.656C162.919 48.0947 162.607 48.4447 162.159 48.706C161.711 48.958 161.146 49.084 160.465 49.084ZM166.595 49V41.58H167.939V44.73H172.167V41.58H173.511V49H172.167V45.892H167.939V49H166.595ZM179.1 49V48.048L183.09 44.198C183.445 43.862 183.706 43.568 183.874 43.316C184.051 43.0547 184.168 42.8167 184.224 42.602C184.289 42.378 184.322 42.1633 184.322 41.958C184.322 41.454 184.145 41.0573 183.79 40.768C183.435 40.4787 182.917 40.334 182.236 40.334C181.713 40.334 181.242 40.4227 180.822 40.6C180.402 40.768 180.038 41.034 179.73 41.398L178.778 40.572C179.151 40.096 179.651 39.732 180.276 39.48C180.911 39.2187 181.606 39.088 182.362 39.088C183.043 39.088 183.636 39.2 184.14 39.424C184.644 39.6387 185.031 39.9513 185.302 40.362C185.582 40.7727 185.722 41.258 185.722 41.818C185.722 42.1353 185.68 42.448 185.596 42.756C185.512 43.064 185.353 43.3907 185.12 43.736C184.887 44.0813 184.551 44.4687 184.112 44.898L180.556 48.328L180.22 47.782H186.142V49H179.1ZM191.283 49.112C190.518 49.112 189.832 48.916 189.225 48.524C188.628 48.132 188.152 47.5627 187.797 46.816C187.452 46.0693 187.279 45.164 187.279 44.1C187.279 43.036 187.452 42.1307 187.797 41.384C188.152 40.6373 188.628 40.068 189.225 39.676C189.832 39.284 190.518 39.088 191.283 39.088C192.039 39.088 192.721 39.284 193.327 39.676C193.934 40.068 194.41 40.6373 194.755 41.384C195.101 42.1307 195.273 43.036 195.273 44.1C195.273 45.164 195.101 46.0693 194.755 46.816C194.41 47.5627 193.934 48.132 193.327 48.524C192.721 48.916 192.039 49.112 191.283 49.112ZM191.283 47.866C191.797 47.866 192.245 47.726 192.627 47.446C193.019 47.166 193.323 46.746 193.537 46.186C193.761 45.626 193.873 44.9307 193.873 44.1C193.873 43.2693 193.761 42.574 193.537 42.014C193.323 41.454 193.019 41.034 192.627 40.754C192.245 40.474 191.797 40.334 191.283 40.334C190.77 40.334 190.317 40.474 189.925 40.754C189.533 41.034 189.225 41.454 189.001 42.014C188.787 42.574 188.679 43.2693 188.679 44.1C188.679 44.9307 188.787 45.626 189.001 46.186C189.225 46.746 189.533 47.166 189.925 47.446C190.317 47.726 190.77 47.866 191.283 47.866ZM197.377 49.084C197.116 49.084 196.892 48.9953 196.705 48.818C196.519 48.6313 196.425 48.398 196.425 48.118C196.425 47.838 196.519 47.6093 196.705 47.432C196.892 47.2547 197.116 47.166 197.377 47.166C197.629 47.166 197.844 47.2547 198.021 47.432C198.208 47.6093 198.301 47.838 198.301 48.118C198.301 48.398 198.208 48.6313 198.021 48.818C197.844 48.9953 197.629 49.084 197.377 49.084ZM203.465 49.112C202.7 49.112 202.014 48.916 201.407 48.524C200.81 48.132 200.334 47.5627 199.979 46.816C199.634 46.0693 199.461 45.164 199.461 44.1C199.461 43.036 199.634 42.1307 199.979 41.384C200.334 40.6373 200.81 40.068 201.407 39.676C202.014 39.284 202.7 39.088 203.465 39.088C204.221 39.088 204.902 39.284 205.509 39.676C206.116 40.068 206.592 40.6373 206.937 41.384C207.282 42.1307 207.455 43.036 207.455 44.1C207.455 45.164 207.282 46.0693 206.937 46.816C206.592 47.5627 206.116 48.132 205.509 48.524C204.902 48.916 204.221 49.112 203.465 49.112ZM203.465 47.866C203.978 47.866 204.426 47.726 204.809 47.446C205.201 47.166 205.504 46.746 205.719 46.186C205.943 45.626 206.055 44.9307 206.055 44.1C206.055 43.2693 205.943 42.574 205.719 42.014C205.504 41.454 205.201 41.034 204.809 40.754C204.426 40.474 203.978 40.334 203.465 40.334C202.952 40.334 202.499 40.474 202.107 40.754C201.715 41.034 201.407 41.454 201.183 42.014C200.968 42.574 200.861 43.2693 200.861 44.1C200.861 44.9307 200.968 45.626 201.183 46.186C201.407 46.746 201.715 47.166 202.107 47.446C202.499 47.726 202.952 47.866 203.465 47.866ZM211.977 39.088C212.864 39.088 213.61 39.2793 214.217 39.662C214.833 40.0447 215.3 40.6 215.617 41.328C215.934 42.0467 216.093 42.9287 216.093 43.974C216.093 45.0847 215.897 46.0227 215.505 46.788C215.113 47.5533 214.572 48.132 213.881 48.524C213.19 48.916 212.383 49.112 211.459 49.112C211.002 49.112 210.558 49.0653 210.129 48.972C209.709 48.8787 209.34 48.734 209.023 48.538L209.555 47.446C209.816 47.614 210.106 47.7353 210.423 47.81C210.75 47.8753 211.09 47.908 211.445 47.908C212.434 47.908 213.223 47.6 213.811 46.984C214.399 46.3587 214.693 45.4347 214.693 44.212C214.693 44.016 214.684 43.7827 214.665 43.512C214.646 43.2413 214.604 42.9753 214.539 42.714L215.001 43.19C214.87 43.6193 214.651 43.9833 214.343 44.282C214.044 44.5713 213.68 44.7907 213.251 44.94C212.831 45.08 212.369 45.15 211.865 45.15C211.221 45.15 210.647 45.0287 210.143 44.786C209.639 44.5433 209.242 44.2027 208.953 43.764C208.664 43.316 208.519 42.7887 208.519 42.182C208.519 41.5473 208.668 41.0013 208.967 40.544C209.275 40.0773 209.69 39.718 210.213 39.466C210.745 39.214 211.333 39.088 211.977 39.088ZM212.033 40.222C211.613 40.222 211.24 40.3013 210.913 40.46C210.586 40.6187 210.33 40.838 210.143 41.118C209.966 41.398 209.877 41.734 209.877 42.126C209.877 42.7047 210.078 43.1667 210.479 43.512C210.88 43.848 211.422 44.016 212.103 44.016C212.551 44.016 212.943 43.932 213.279 43.764C213.624 43.596 213.89 43.3673 214.077 43.078C214.273 42.7887 214.371 42.4667 214.371 42.112C214.371 41.7667 214.282 41.454 214.105 41.174C213.928 40.894 213.666 40.6653 213.321 40.488C212.976 40.3107 212.546 40.222 212.033 40.222ZM218.2 49.084C217.938 49.084 217.714 48.9953 217.528 48.818C217.341 48.6313 217.248 48.398 217.248 48.118C217.248 47.838 217.341 47.6093 217.528 47.432C217.714 47.2547 217.938 47.166 218.2 47.166C218.452 47.166 218.666 47.2547 218.844 47.432C219.03 47.6093 219.124 47.838 219.124 48.118C219.124 48.398 219.03 48.6313 218.844 48.818C218.666 48.9953 218.452 49.084 218.2 49.084ZM220.43 49V48.048L224.42 44.198C224.775 43.862 225.036 43.568 225.204 43.316C225.381 43.0547 225.498 42.8167 225.554 42.602C225.619 42.378 225.652 42.1633 225.652 41.958C225.652 41.454 225.475 41.0573 225.12 40.768C224.765 40.4787 224.247 40.334 223.566 40.334C223.043 40.334 222.572 40.4227 222.152 40.6C221.732 40.768 221.368 41.034 221.06 41.398L220.108 40.572C220.481 40.096 220.981 39.732 221.606 39.48C222.241 39.2187 222.936 39.088 223.692 39.088C224.373 39.088 224.966 39.2 225.47 39.424C225.974 39.6387 226.361 39.9513 226.632 40.362C226.912 40.7727 227.052 41.258 227.052 41.818C227.052 42.1353 227.01 42.448 226.926 42.756C226.842 43.064 226.683 43.3907 226.45 43.736C226.217 44.0813 225.881 44.4687 225.442 44.898L221.886 48.328L221.55 47.782H227.472V49H220.43ZM232.614 49.112C231.848 49.112 231.162 48.916 230.556 48.524C229.958 48.132 229.482 47.5627 229.128 46.816C228.782 46.0693 228.61 45.164 228.61 44.1C228.61 43.036 228.782 42.1307 229.128 41.384C229.482 40.6373 229.958 40.068 230.556 39.676C231.162 39.284 231.848 39.088 232.614 39.088C233.37 39.088 234.051 39.284 234.658 39.676C235.264 40.068 235.74 40.6373 236.086 41.384C236.431 42.1307 236.604 43.036 236.604 44.1C236.604 45.164 236.431 46.0693 236.086 46.816C235.74 47.5627 235.264 48.132 234.658 48.524C234.051 48.916 233.37 49.112 232.614 49.112ZM232.614 47.866C233.127 47.866 233.575 47.726 233.958 47.446C234.35 47.166 234.653 46.746 234.868 46.186C235.092 45.626 235.204 44.9307 235.204 44.1C235.204 43.2693 235.092 42.574 234.868 42.014C234.653 41.454 234.35 41.034 233.958 40.754C233.575 40.474 233.127 40.334 232.614 40.334C232.1 40.334 231.648 40.474 231.256 40.754C230.864 41.034 230.556 41.454 230.332 42.014C230.117 42.574 230.01 43.2693 230.01 44.1C230.01 44.9307 230.117 45.626 230.332 46.186C230.556 46.746 230.864 47.166 231.256 47.446C231.648 47.726 232.1 47.866 232.614 47.866ZM237.793 49V48.048L241.783 44.198C242.138 43.862 242.399 43.568 242.567 43.316C242.745 43.0547 242.861 42.8167 242.917 42.602C242.983 42.378 243.015 42.1633 243.015 41.958C243.015 41.454 242.838 41.0573 242.483 40.768C242.129 40.4787 241.611 40.334 240.929 40.334C240.407 40.334 239.935 40.4227 239.515 40.6C239.095 40.768 238.731 41.034 238.423 41.398L237.471 40.572C237.845 40.096 238.344 39.732 238.969 39.48C239.604 39.2187 240.299 39.088 241.055 39.088C241.737 39.088 242.329 39.2 242.833 39.424C243.337 39.6387 243.725 39.9513 243.995 40.362C244.275 40.7727 244.415 41.258 244.415 41.818C244.415 42.1353 244.373 42.448 244.289 42.756C244.205 43.064 244.047 43.3907 243.813 43.736C243.58 44.0813 243.244 44.4687 242.805 44.898L239.249 48.328L238.913 47.782H244.835V49H237.793ZM245.832 49V48.048L249.822 44.198C250.177 43.862 250.438 43.568 250.606 43.316C250.784 43.0547 250.9 42.8167 250.956 42.602C251.022 42.378 251.054 42.1633 251.054 41.958C251.054 41.454 250.877 41.0573 250.522 40.768C250.168 40.4787 249.65 40.334 248.968 40.334C248.446 40.334 247.974 40.4227 247.554 40.6C247.134 40.768 246.77 41.034 246.462 41.398L245.51 40.572C245.884 40.096 246.383 39.732 247.008 39.48C247.643 39.2187 248.338 39.088 249.094 39.088C249.776 39.088 250.368 39.2 250.872 39.424C251.376 39.6387 251.764 39.9513 252.034 40.362C252.314 40.7727 252.454 41.258 252.454 41.818C252.454 42.1353 252.412 42.448 252.328 42.756C252.244 43.064 252.086 43.3907 251.852 43.736C251.619 44.0813 251.283 44.4687 250.844 44.898L247.288 48.328L246.952 47.782H252.874V49H245.832Z" fill="#49494F"></path> <path d="M24.208 121.192C22.72 121.192 21.448 120.864 20.392 120.208C19.336 119.552 18.528 118.608 17.968 117.376C17.424 116.128 17.152 114.608 17.152 112.816C17.152 110.912 17.488 109.304 18.16 107.992C18.832 106.68 19.768 105.688 20.968 105.016C22.168 104.344 23.544 104.008 25.096 104.008C25.896 104.008 26.656 104.088 27.376 104.248C28.112 104.408 28.744 104.656 29.272 104.992L28.36 106.864C27.928 106.56 27.432 106.352 26.872 106.24C26.328 106.128 25.752 106.072 25.144 106.072C23.432 106.072 22.072 106.608 21.064 107.68C20.056 108.736 19.552 110.312 19.552 112.408C19.552 112.744 19.568 113.144 19.6 113.608C19.632 114.072 19.712 114.528 19.84 114.976L19.024 114.16C19.264 113.424 19.64 112.808 20.152 112.312C20.68 111.8 21.304 111.424 22.024 111.184C22.76 110.928 23.552 110.8 24.4 110.8C25.52 110.8 26.512 111.008 27.376 111.424C28.24 111.84 28.92 112.432 29.416 113.2C29.912 113.952 30.16 114.848 30.16 115.888C30.16 116.96 29.896 117.896 29.368 118.696C28.84 119.496 28.128 120.112 27.232 120.544C26.336 120.976 25.328 121.192 24.208 121.192ZM24.112 119.248C24.848 119.248 25.488 119.112 26.032 118.84C26.592 118.568 27.032 118.192 27.352 117.712C27.672 117.216 27.832 116.64 27.832 115.984C27.832 114.992 27.488 114.208 26.8 113.632C26.112 113.04 25.176 112.744 23.992 112.744C23.224 112.744 22.552 112.888 21.976 113.176C21.4 113.464 20.944 113.856 20.608 114.352C20.288 114.832 20.128 115.384 20.128 116.008C20.128 116.584 20.28 117.12 20.584 117.616C20.888 118.096 21.336 118.488 21.928 118.792C22.52 119.096 23.248 119.248 24.112 119.248ZM31.7005 121V119.368L38.5405 112.768C39.1485 112.192 39.5965 111.688 39.8845 111.256C40.1885 110.808 40.3885 110.4 40.4845 110.032C40.5965 109.648 40.6525 109.28 40.6525 108.928C40.6525 108.064 40.3485 107.384 39.7405 106.888C39.1325 106.392 38.2445 106.144 37.0765 106.144C36.1805 106.144 35.3725 106.296 34.6525 106.6C33.9325 106.888 33.3085 107.344 32.7805 107.968L31.1485 106.552C31.7885 105.736 32.6445 105.112 33.7165 104.68C34.8045 104.232 35.9965 104.008 37.2925 104.008C38.4605 104.008 39.4765 104.2 40.3405 104.584C41.2045 104.952 41.8685 105.488 42.3325 106.192C42.8125 106.896 43.0525 107.728 43.0525 108.688C43.0525 109.232 42.9805 109.768 42.8365 110.296C42.6925 110.824 42.4205 111.384 42.0205 111.976C41.6205 112.568 41.0445 113.232 40.2925 113.968L34.1965 119.848L33.6205 118.912H43.7725V121H31.7005ZM52.5863 121.192C51.2743 121.192 50.0983 120.856 49.0583 120.184C48.0343 119.512 47.2183 118.536 46.6103 117.256C46.0183 115.976 45.7223 114.424 45.7223 112.6C45.7223 110.776 46.0183 109.224 46.6103 107.944C47.2183 106.664 48.0343 105.688 49.0583 105.016C50.0983 104.344 51.2743 104.008 52.5863 104.008C53.8823 104.008 55.0503 104.344 56.0903 105.016C57.1303 105.688 57.9463 106.664 58.5383 107.944C59.1303 109.224 59.4263 110.776 59.4263 112.6C59.4263 114.424 59.1303 115.976 58.5383 117.256C57.9463 118.536 57.1303 119.512 56.0903 120.184C55.0503 120.856 53.8823 121.192 52.5863 121.192ZM52.5863 119.056C53.4663 119.056 54.2343 118.816 54.8903 118.336C55.5623 117.856 56.0823 117.136 56.4503 116.176C56.8343 115.216 57.0263 114.024 57.0263 112.6C57.0263 111.176 56.8343 109.984 56.4503 109.024C56.0823 108.064 55.5623 107.344 54.8903 106.864C54.2343 106.384 53.4663 106.144 52.5863 106.144C51.7063 106.144 50.9303 106.384 50.2583 106.864C49.5863 107.344 49.0583 108.064 48.6743 109.024C48.3063 109.984 48.1223 111.176 48.1223 112.6C48.1223 114.024 48.3063 115.216 48.6743 116.176C49.0583 117.136 49.5863 117.856 50.2583 118.336C50.9303 118.816 51.7063 119.056 52.5863 119.056ZM75.0394 121.192C73.7274 121.192 72.5514 120.856 71.5114 120.184C70.4874 119.512 69.6714 118.536 69.0634 117.256C68.4714 115.976 68.1754 114.424 68.1754 112.6C68.1754 110.776 68.4714 109.224 69.0634 107.944C69.6714 106.664 70.4874 105.688 71.5114 105.016C72.5514 104.344 73.7274 104.008 75.0394 104.008C76.3354 104.008 77.5034 104.344 78.5434 105.016C79.5834 105.688 80.3994 106.664 80.9914 107.944C81.5834 109.224 81.8794 110.776 81.8794 112.6C81.8794 114.424 81.5834 115.976 80.9914 117.256C80.3994 118.536 79.5834 119.512 78.5434 120.184C77.5034 120.856 76.3354 121.192 75.0394 121.192ZM75.0394 119.056C75.9194 119.056 76.6874 118.816 77.3434 118.336C78.0154 117.856 78.5354 117.136 78.9034 116.176C79.2874 115.216 79.4794 114.024 79.4794 112.6C79.4794 111.176 79.2874 109.984 78.9034 109.024C78.5354 108.064 78.0154 107.344 77.3434 106.864C76.6874 106.384 75.9194 106.144 75.0394 106.144C74.1594 106.144 73.3834 106.384 72.7114 106.864C72.0394 107.344 71.5114 108.064 71.1274 109.024C70.7594 109.984 70.5754 111.176 70.5754 112.6C70.5754 114.024 70.7594 115.216 71.1274 116.176C71.5114 117.136 72.0394 117.856 72.7114 118.336C73.3834 118.816 74.1594 119.056 75.0394 119.056ZM90.7353 121.192C89.3753 121.192 88.1993 120.992 87.2073 120.592C86.2153 120.192 85.4473 119.624 84.9033 118.888C84.3593 118.136 84.0873 117.256 84.0873 116.248C84.0873 115.256 84.3433 114.416 84.8553 113.728C85.3833 113.024 86.1433 112.496 87.1353 112.144C88.1273 111.776 89.3273 111.592 90.7353 111.592C92.1433 111.592 93.3433 111.776 94.3353 112.144C95.3433 112.496 96.1113 113.024 96.6393 113.728C97.1673 114.432 97.4313 115.272 97.4313 116.248C97.4313 117.256 97.1593 118.136 96.6153 118.888C96.0713 119.624 95.2953 120.192 94.2873 120.592C93.2793 120.992 92.0953 121.192 90.7353 121.192ZM90.7353 119.248C92.0793 119.248 93.1273 118.976 93.8793 118.432C94.6473 117.872 95.0312 117.12 95.0312 116.176C95.0312 115.248 94.6473 114.52 93.8793 113.992C93.1273 113.448 92.0793 113.176 90.7353 113.176C89.4073 113.176 88.3673 113.448 87.6153 113.992C86.8633 114.52 86.4873 115.248 86.4873 116.176C86.4873 117.12 86.8633 117.872 87.6153 118.432C88.3673 118.976 89.4073 119.248 90.7353 119.248ZM90.7353 112.888C89.4553 112.888 88.3673 112.72 87.4713 112.384C86.5753 112.032 85.8873 111.536 85.4073 110.896C84.9273 110.24 84.6873 109.464 84.6873 108.568C84.6873 107.624 84.9353 106.816 85.4313 106.144C85.9433 105.456 86.6553 104.928 87.5673 104.56C88.4793 104.192 89.5353 104.008 90.7353 104.008C91.9513 104.008 93.0153 104.192 93.9273 104.56C94.8393 104.928 95.5513 105.456 96.0633 106.144C96.5753 106.816 96.8313 107.624 96.8313 108.568C96.8313 109.464 96.5913 110.24 96.1113 110.896C95.6313 111.536 94.9353 112.032 94.0233 112.384C93.1113 112.72 92.0153 112.888 90.7353 112.888ZM90.7353 111.352C91.9033 111.352 92.8153 111.112 93.4713 110.632C94.1433 110.152 94.4793 109.496 94.4793 108.664C94.4793 107.816 94.1353 107.152 93.4473 106.672C92.7593 106.192 91.8553 105.952 90.7353 105.952C89.6153 105.952 88.7193 106.192 88.0473 106.672C87.3913 107.152 87.0633 107.816 87.0633 108.664C87.0633 109.496 87.3833 110.152 88.0233 110.632C88.6793 111.112 89.5833 111.352 90.7353 111.352ZM106.493 121.192C105.181 121.192 104.005 120.856 102.965 120.184C101.941 119.512 101.125 118.536 100.517 117.256C99.9246 115.976 99.6286 114.424 99.6286 112.6C99.6286 110.776 99.9246 109.224 100.517 107.944C101.125 106.664 101.941 105.688 102.965 105.016C104.005 104.344 105.181 104.008 106.493 104.008C107.789 104.008 108.957 104.344 109.997 105.016C111.037 105.688 111.853 106.664 112.445 107.944C113.037 109.224 113.333 110.776 113.333 112.6C113.333 114.424 113.037 115.976 112.445 117.256C111.853 118.536 111.037 119.512 109.997 120.184C108.957 120.856 107.789 121.192 106.493 121.192ZM106.493 119.056C107.373 119.056 108.141 118.816 108.797 118.336C109.469 117.856 109.989 117.136 110.357 116.176C110.741 115.216 110.933 114.024 110.933 112.6C110.933 111.176 110.741 109.984 110.357 109.024C109.989 108.064 109.469 107.344 108.797 106.864C108.141 106.384 107.373 106.144 106.493 106.144C105.613 106.144 104.837 106.384 104.165 106.864C103.493 107.344 102.965 108.064 102.581 109.024C102.213 109.984 102.029 111.176 102.029 112.6C102.029 114.024 102.213 115.216 102.581 116.176C102.965 117.136 103.493 117.856 104.165 118.336C104.837 118.816 105.613 119.056 106.493 119.056ZM117.652 121V104.2H124.252C126.412 104.2 128.116 104.68 129.364 105.64C130.612 106.584 131.236 107.968 131.236 109.792C131.236 111.616 130.612 113.008 129.364 113.968C128.116 114.928 126.412 115.408 124.252 115.408H118.996L120.076 114.28V121H117.652ZM120.076 114.52L118.996 113.416H124.252C125.724 113.416 126.852 113.104 127.636 112.48C128.42 111.856 128.812 110.968 128.812 109.816C128.812 108.68 128.42 107.808 127.636 107.2C126.852 106.592 125.724 106.288 124.252 106.288H118.996L120.076 105.088V114.52ZM115.204 118.192V116.824H125.404V118.192H115.204Z" fill="#161617"></path> <path d="M224.192 114.128C223.403 114.128 222.635 114.005 221.888 113.76C221.152 113.515 220.549 113.184 220.08 112.768L220.816 111.504C221.189 111.856 221.675 112.144 222.272 112.368C222.869 112.592 223.509 112.704 224.192 112.704C225.024 112.704 225.669 112.528 226.128 112.176C226.597 111.813 226.832 111.328 226.832 110.72C226.832 110.133 226.608 109.664 226.16 109.312C225.723 108.949 225.024 108.768 224.064 108.768H223.168V107.648L226.496 103.552L226.72 104.192H220.592V102.8H227.984V103.888L224.672 107.968L223.84 107.472H224.368C225.723 107.472 226.736 107.776 227.408 108.384C228.091 108.992 228.432 109.765 228.432 110.704C228.432 111.333 228.277 111.909 227.968 112.432C227.659 112.955 227.189 113.371 226.56 113.68C225.941 113.979 225.152 114.128 224.192 114.128ZM234.5 114.128C233.626 114.128 232.842 113.904 232.148 113.456C231.466 113.008 230.922 112.357 230.516 111.504C230.122 110.651 229.924 109.616 229.924 108.4C229.924 107.184 230.122 106.149 230.516 105.296C230.922 104.443 231.466 103.792 232.148 103.344C232.842 102.896 233.626 102.672 234.5 102.672C235.364 102.672 236.143 102.896 236.836 103.344C237.53 103.792 238.074 104.443 238.468 105.296C238.863 106.149 239.06 107.184 239.06 108.4C239.06 109.616 238.863 110.651 238.468 111.504C238.074 112.357 237.53 113.008 236.836 113.456C236.143 113.904 235.364 114.128 234.5 114.128ZM234.5 112.704C235.087 112.704 235.599 112.544 236.036 112.224C236.484 111.904 236.831 111.424 237.076 110.784C237.332 110.144 237.46 109.349 237.46 108.4C237.46 107.451 237.332 106.656 237.076 106.016C236.831 105.376 236.484 104.896 236.036 104.576C235.599 104.256 235.087 104.096 234.5 104.096C233.914 104.096 233.396 104.256 232.948 104.576C232.5 104.896 232.148 105.376 231.892 106.016C231.647 106.656 231.524 107.451 231.524 108.4C231.524 109.349 231.647 110.144 231.892 110.784C232.148 111.424 232.5 111.904 232.948 112.224C233.396 112.544 233.914 112.704 234.5 112.704ZM242.132 114L249.78 102.8H251.012L243.364 114H242.132ZM243.028 108.816C242.516 108.816 242.063 108.688 241.668 108.432C241.273 108.176 240.964 107.819 240.74 107.36C240.527 106.901 240.42 106.368 240.42 105.76C240.42 105.152 240.527 104.619 240.74 104.16C240.964 103.701 241.273 103.344 241.668 103.088C242.063 102.832 242.516 102.704 243.028 102.704C243.551 102.704 244.004 102.832 244.388 103.088C244.783 103.344 245.087 103.701 245.3 104.16C245.513 104.619 245.62 105.152 245.62 105.76C245.62 106.368 245.513 106.901 245.3 107.36C245.087 107.819 244.783 108.176 244.388 108.432C244.004 108.688 243.551 108.816 243.028 108.816ZM243.028 107.904C243.519 107.904 243.903 107.717 244.18 107.344C244.457 106.96 244.596 106.432 244.596 105.76C244.596 105.088 244.457 104.565 244.18 104.192C243.903 103.808 243.519 103.616 243.028 103.616C242.548 103.616 242.164 103.808 241.876 104.192C241.599 104.565 241.46 105.088 241.46 105.76C241.46 106.421 241.599 106.944 241.876 107.328C242.164 107.712 242.548 107.904 243.028 107.904ZM250.116 114.096C249.604 114.096 249.151 113.968 248.756 113.712C248.361 113.456 248.057 113.099 247.844 112.64C247.631 112.181 247.524 111.648 247.524 111.04C247.524 110.432 247.631 109.899 247.844 109.44C248.057 108.981 248.361 108.624 248.756 108.368C249.151 108.112 249.604 107.984 250.116 107.984C250.639 107.984 251.092 108.112 251.476 108.368C251.871 108.624 252.175 108.981 252.388 109.44C252.612 109.899 252.724 110.432 252.724 111.04C252.724 111.648 252.612 112.181 252.388 112.64C252.175 113.099 251.871 113.456 251.476 113.712C251.092 113.968 250.639 114.096 250.116 114.096ZM250.116 113.184C250.596 113.184 250.975 112.997 251.252 112.624C251.54 112.24 251.684 111.712 251.684 111.04C251.684 110.379 251.54 109.856 251.252 109.472C250.975 109.088 250.596 108.896 250.116 108.896C249.636 108.896 249.252 109.088 248.964 109.472C248.687 109.845 248.548 110.368 248.548 111.04C248.548 111.712 248.687 112.24 248.964 112.624C249.252 112.997 249.636 113.184 250.116 113.184Z" fill="#2CCC39"></path> <path d="M254 143H16V145H254V143Z" fill="#DDDDDD" mask="url(#path-21-inside-1_2132_2992)"></path> <path d="M22.8 178.096C21.9573 178.096 21.1733 177.957 20.448 177.68C19.7333 177.392 19.1093 176.992 18.576 176.48C18.0533 175.957 17.6427 175.355 17.344 174.672C17.056 173.979 16.912 173.221 16.912 172.4C16.912 171.579 17.056 170.827 17.344 170.144C17.6427 169.451 18.0533 168.848 18.576 168.336C19.1093 167.813 19.7333 167.413 20.448 167.136C21.1627 166.848 21.9467 166.704 22.8 166.704C23.6427 166.704 24.4213 166.848 25.136 167.136C25.8507 167.413 26.4693 167.808 26.992 168.32C27.5253 168.832 27.936 169.435 28.224 170.128C28.5227 170.821 28.672 171.579 28.672 172.4C28.672 173.221 28.5227 173.979 28.224 174.672C27.936 175.365 27.5253 175.968 26.992 176.48C26.4693 176.992 25.8507 177.392 25.136 177.68C24.4213 177.957 23.6427 178.096 22.8 178.096ZM22.8 177.04C23.472 177.04 24.0907 176.928 24.656 176.704C25.232 176.469 25.728 176.144 26.144 175.728C26.5707 175.301 26.9013 174.811 27.136 174.256C27.3707 173.691 27.488 173.072 27.488 172.4C27.488 171.728 27.3707 171.115 27.136 170.56C26.9013 169.995 26.5707 169.504 26.144 169.088C25.728 168.661 25.232 168.336 24.656 168.112C24.0907 167.877 23.472 167.76 22.8 167.76C22.128 167.76 21.504 167.877 20.928 168.112C20.352 168.336 19.8507 168.661 19.424 169.088C19.008 169.504 18.6773 169.995 18.432 170.56C18.1973 171.115 18.08 171.728 18.08 172.4C18.08 173.061 18.1973 173.675 18.432 174.24C18.6773 174.805 19.008 175.301 19.424 175.728C19.8507 176.144 20.352 176.469 20.928 176.704C21.504 176.928 22.128 177.04 22.8 177.04ZM36.4094 178.096C35.5667 178.096 34.7827 177.957 34.0574 177.68C33.3427 177.392 32.7187 176.992 32.1854 176.48C31.6627 175.957 31.252 175.355 30.9534 174.672C30.6654 173.979 30.5214 173.221 30.5214 172.4C30.5214 171.579 30.6654 170.827 30.9534 170.144C31.252 169.451 31.6627 168.848 32.1854 168.336C32.7187 167.813 33.3427 167.413 34.0574 167.136C34.772 166.848 35.556 166.704 36.4094 166.704C37.252 166.704 38.0307 166.848 38.7454 167.136C39.46 167.413 40.0787 167.808 40.6014 168.32C41.1347 168.832 41.5454 169.435 41.8334 170.128C42.132 170.821 42.2814 171.579 42.2814 172.4C42.2814 173.221 42.132 173.979 41.8334 174.672C41.5454 175.365 41.1347 175.968 40.6014 176.48C40.0787 176.992 39.46 177.392 38.7454 177.68C38.0307 177.957 37.252 178.096 36.4094 178.096ZM36.4094 177.04C37.0814 177.04 37.7 176.928 38.2654 176.704C38.8414 176.469 39.3374 176.144 39.7534 175.728C40.18 175.301 40.5107 174.811 40.7454 174.256C40.98 173.691 41.0974 173.072 41.0974 172.4C41.0974 171.728 40.98 171.115 40.7454 170.56C40.5107 169.995 40.18 169.504 39.7534 169.088C39.3374 168.661 38.8414 168.336 38.2654 168.112C37.7 167.877 37.0814 167.76 36.4094 167.76C35.7374 167.76 35.1134 167.877 34.5374 168.112C33.9614 168.336 33.46 168.661 33.0334 169.088C32.6174 169.504 32.2867 169.995 32.0414 170.56C31.8067 171.115 31.6894 171.728 31.6894 172.4C31.6894 173.061 31.8067 173.675 32.0414 174.24C32.2867 174.805 32.6174 175.301 33.0334 175.728C33.46 176.144 33.9614 176.469 34.5374 176.704C35.1134 176.928 35.7374 177.04 36.4094 177.04ZM50.0188 178.096C49.1761 178.096 48.3921 177.957 47.6668 177.68C46.9521 177.392 46.3281 176.992 45.7948 176.48C45.2721 175.957 44.8614 175.355 44.5628 174.672C44.2748 173.979 44.1308 173.221 44.1308 172.4C44.1308 171.579 44.2748 170.827 44.5628 170.144C44.8614 169.451 45.2721 168.848 45.7948 168.336C46.3281 167.813 46.9521 167.413 47.6668 167.136C48.3814 166.848 49.1654 166.704 50.0188 166.704C50.8614 166.704 51.6401 166.848 52.3548 167.136C53.0694 167.413 53.6881 167.808 54.2108 168.32C54.7441 168.832 55.1548 169.435 55.4428 170.128C55.7414 170.821 55.8908 171.579 55.8908 172.4C55.8908 173.221 55.7414 173.979 55.4428 174.672C55.1548 175.365 54.7441 175.968 54.2108 176.48C53.6881 176.992 53.0694 177.392 52.3548 177.68C51.6401 177.957 50.8614 178.096 50.0188 178.096ZM50.0188 177.04C50.6908 177.04 51.3094 176.928 51.8748 176.704C52.4508 176.469 52.9468 176.144 53.3628 175.728C53.7894 175.301 54.1201 174.811 54.3548 174.256C54.5894 173.691 54.7068 173.072 54.7068 172.4C54.7068 171.728 54.5894 171.115 54.3548 170.56C54.1201 169.995 53.7894 169.504 53.3628 169.088C52.9468 168.661 52.4508 168.336 51.8748 168.112C51.3094 167.877 50.6908 167.76 50.0188 167.76C49.3468 167.76 48.7228 167.877 48.1468 168.112C47.5708 168.336 47.0694 168.661 46.6428 169.088C46.2268 169.504 45.8961 169.995 45.6508 170.56C45.4161 171.115 45.2988 171.728 45.2988 172.4C45.2988 173.061 45.4161 173.675 45.6508 174.24C45.8961 174.805 46.2268 175.301 46.6428 175.728C47.0694 176.144 47.5708 176.469 48.1468 176.704C48.7228 176.928 49.3468 177.04 50.0188 177.04ZM62.9036 178V166.8H64.0716V171.776H66.9676V172.848H64.0716V178H62.9036ZM71.9436 178.096C71.1436 178.096 70.4023 177.957 69.7196 177.68C69.0476 177.392 68.4556 176.992 67.9436 176.48C67.4423 175.968 67.053 175.365 66.7756 174.672C66.4983 173.979 66.3596 173.221 66.3596 172.4C66.3596 171.579 66.4983 170.821 66.7756 170.128C67.053 169.435 67.4423 168.832 67.9436 168.32C68.4556 167.808 69.0476 167.413 69.7196 167.136C70.4023 166.848 71.1436 166.704 71.9436 166.704C72.7436 166.704 73.485 166.848 74.1676 167.136C74.8503 167.413 75.4423 167.808 75.9436 168.32C76.445 168.832 76.8343 169.435 77.1116 170.128C77.3996 170.821 77.5436 171.579 77.5436 172.4C77.5436 173.221 77.3996 173.979 77.1116 174.672C76.8343 175.365 76.445 175.968 75.9436 176.48C75.4423 176.992 74.8503 177.392 74.1676 177.68C73.485 177.957 72.7436 178.096 71.9436 178.096ZM71.9436 177.04C72.573 177.04 73.1543 176.928 73.6876 176.704C74.2316 176.469 74.701 176.144 75.0956 175.728C75.4903 175.312 75.7996 174.827 76.0236 174.272C76.2476 173.707 76.3596 173.083 76.3596 172.4C76.3596 171.717 76.2476 171.099 76.0236 170.544C75.7996 169.979 75.4903 169.488 75.0956 169.072C74.701 168.656 74.2316 168.336 73.6876 168.112C73.1543 167.877 72.573 167.76 71.9436 167.76C71.325 167.76 70.7436 167.877 70.1996 168.112C69.6663 168.336 69.2023 168.656 68.8076 169.072C68.413 169.488 68.1036 169.979 67.8796 170.544C67.6556 171.099 67.5436 171.717 67.5436 172.4C67.5436 173.083 67.6556 173.707 67.8796 174.272C68.1036 174.827 68.413 175.312 68.8076 175.728C69.2023 176.144 69.6663 176.469 70.1996 176.704C70.7436 176.928 71.325 177.04 71.9436 177.04ZM88.5644 166.8H89.7324V178H88.5644V166.8ZM81.5564 178H80.3724V166.8H81.5564V178ZM88.6764 172.832H81.4284V171.792H88.6764V172.832ZM91.865 178L96.985 166.8H98.153L103.273 178H102.025L97.321 167.488H97.801L93.097 178H91.865ZM93.881 175.008L94.233 174.048H100.745L101.097 175.008H93.881ZM105.419 178V166.8H106.587V176.08L113.755 166.8H114.827V178H113.659V168.736L106.491 178H105.419ZM110.091 165.984C109.291 165.984 108.657 165.803 108.187 165.44C107.729 165.077 107.494 164.571 107.483 163.92H108.363C108.374 164.347 108.534 164.683 108.843 164.928C109.163 165.173 109.579 165.296 110.091 165.296C110.603 165.296 111.014 165.173 111.323 164.928C111.643 164.683 111.809 164.347 111.819 163.92H112.699C112.689 164.571 112.449 165.077 111.979 165.44C111.51 165.803 110.881 165.984 110.091 165.984ZM126.271 178L121.967 172.416L122.927 171.84L127.631 178H126.271ZM118.607 178V166.8H119.759V178H118.607ZM119.407 172.864V171.824H122.911V172.864H119.407ZM123.023 172.528L121.935 172.336L126.111 166.8H127.391L123.023 172.528ZM134.347 178.096C133.504 178.096 132.72 177.957 131.995 177.68C131.28 177.392 130.656 176.992 130.123 176.48C129.6 175.957 129.19 175.355 128.891 174.672C128.603 173.979 128.459 173.221 128.459 172.4C128.459 171.579 128.603 170.827 128.891 170.144C129.19 169.451 129.6 168.848 130.123 168.336C130.656 167.813 131.28 167.413 131.995 167.136C132.71 166.848 133.494 166.704 134.347 166.704C135.19 166.704 135.968 166.848 136.683 167.136C137.398 167.413 138.016 167.808 138.539 168.32C139.072 168.832 139.483 169.435 139.771 170.128C140.07 170.821 140.219 171.579 140.219 172.4C140.219 173.221 140.07 173.979 139.771 174.672C139.483 175.365 139.072 175.968 138.539 176.48C138.016 176.992 137.398 177.392 136.683 177.68C135.968 177.957 135.19 178.096 134.347 178.096ZM134.347 177.04C135.019 177.04 135.638 176.928 136.203 176.704C136.779 176.469 137.275 176.144 137.691 175.728C138.118 175.301 138.448 174.811 138.683 174.256C138.918 173.691 139.035 173.072 139.035 172.4C139.035 171.728 138.918 171.115 138.683 170.56C138.448 169.995 138.118 169.504 137.691 169.088C137.275 168.661 136.779 168.336 136.203 168.112C135.638 167.877 135.019 167.76 134.347 167.76C133.675 167.76 133.051 167.877 132.475 168.112C131.899 168.336 131.398 168.661 130.971 169.088C130.555 169.504 130.224 169.995 129.979 170.56C129.744 171.115 129.627 171.728 129.627 172.4C129.627 173.061 129.744 173.675 129.979 174.24C130.224 174.805 130.555 175.301 130.971 175.728C131.398 176.144 131.899 176.469 132.475 176.704C133.051 176.928 133.675 177.04 134.347 177.04ZM147.94 178.096C147.098 178.096 146.319 177.957 145.604 177.68C144.89 177.392 144.271 176.992 143.748 176.48C143.226 175.968 142.815 175.365 142.516 174.672C142.228 173.979 142.084 173.221 142.084 172.4C142.084 171.579 142.228 170.821 142.516 170.128C142.815 169.435 143.226 168.832 143.748 168.32C144.282 167.808 144.906 167.413 145.62 167.136C146.335 166.848 147.114 166.704 147.956 166.704C148.767 166.704 149.53 166.843 150.244 167.12C150.959 167.387 151.562 167.792 152.052 168.336L151.3 169.088C150.842 168.619 150.335 168.283 149.78 168.08C149.226 167.867 148.628 167.76 147.988 167.76C147.316 167.76 146.692 167.877 146.116 168.112C145.54 168.336 145.039 168.661 144.612 169.088C144.186 169.504 143.85 169.995 143.604 170.56C143.37 171.115 143.252 171.728 143.252 172.4C143.252 173.072 143.37 173.691 143.604 174.256C143.85 174.811 144.186 175.301 144.612 175.728C145.039 176.144 145.54 176.469 146.116 176.704C146.692 176.928 147.316 177.04 147.988 177.04C148.628 177.04 149.226 176.933 149.78 176.72C150.335 176.507 150.842 176.165 151.3 175.696L152.052 176.448C151.562 176.992 150.959 177.403 150.244 177.68C149.53 177.957 148.762 178.096 147.94 178.096Z" fill="#49494F"></path> <path d="M254 223H16V225H254V223Z" fill="#DDDDDD" mask="url(#path-25-inside-2_2132_2992)"></path> <path d="M21.936 254.084C21.1987 254.084 20.5173 253.963 19.892 253.72C19.2667 253.468 18.7253 253.118 18.268 252.67C17.8107 252.222 17.4513 251.695 17.19 251.088C16.938 250.481 16.812 249.819 16.812 249.1C16.812 248.381 16.938 247.719 17.19 247.112C17.4513 246.505 17.8107 245.978 18.268 245.53C18.7347 245.082 19.2807 244.737 19.906 244.494C20.5313 244.242 21.2127 244.116 21.95 244.116C22.6593 244.116 23.3267 244.237 23.952 244.48C24.5773 244.713 25.1047 245.068 25.534 245.544L24.876 246.202C24.4747 245.791 24.0313 245.497 23.546 245.32C23.0607 245.133 22.538 245.04 21.978 245.04C21.39 245.04 20.844 245.143 20.34 245.348C19.836 245.544 19.3973 245.829 19.024 246.202C18.6507 246.566 18.3567 246.995 18.142 247.49C17.9367 247.975 17.834 248.512 17.834 249.1C17.834 249.688 17.9367 250.229 18.142 250.724C18.3567 251.209 18.6507 251.639 19.024 252.012C19.3973 252.376 19.836 252.661 20.34 252.866C20.844 253.062 21.39 253.16 21.978 253.16C22.538 253.16 23.0607 253.067 23.546 252.88C24.0313 252.693 24.4747 252.395 24.876 251.984L25.534 252.642C25.1047 253.118 24.5773 253.477 23.952 253.72C23.3267 253.963 22.6547 254.084 21.936 254.084ZM28.6304 254V247.252L28.8824 247.518H25.8444V246.65H32.4104V247.518H29.3724L29.6244 247.252V254H28.6304ZM37.6416 254.07C37.0069 254.07 36.4329 253.925 35.9196 253.636C35.4063 253.337 34.9956 252.913 34.6876 252.362C34.3889 251.802 34.2396 251.121 34.2396 250.318C34.2396 249.515 34.3889 248.839 34.6876 248.288C34.9863 247.728 35.3923 247.303 35.9056 247.014C36.4189 246.725 36.9976 246.58 37.6416 246.58C38.3416 246.58 38.9669 246.739 39.5176 247.056C40.0776 247.364 40.5163 247.803 40.8336 248.372C41.1509 248.932 41.3096 249.581 41.3096 250.318C41.3096 251.065 41.1509 251.718 40.8336 252.278C40.5163 252.838 40.0776 253.277 39.5176 253.594C38.9669 253.911 38.3416 254.07 37.6416 254.07ZM33.8476 256.716V246.65H34.7996V248.862L34.7016 250.332L34.8416 251.816V256.716H33.8476ZM37.5716 253.188C38.0943 253.188 38.5609 253.071 38.9716 252.838C39.3823 252.595 39.7089 252.259 39.9516 251.83C40.1943 251.391 40.3156 250.887 40.3156 250.318C40.3156 249.749 40.1943 249.249 39.9516 248.82C39.7089 248.391 39.3823 248.055 38.9716 247.812C38.5609 247.569 38.0943 247.448 37.5716 247.448C37.0489 247.448 36.5776 247.569 36.1576 247.812C35.7469 248.055 35.4203 248.391 35.1776 248.82C34.9443 249.249 34.8276 249.749 34.8276 250.318C34.8276 250.887 34.9443 251.391 35.1776 251.83C35.4203 252.259 35.7469 252.595 36.1576 252.838C36.5776 253.071 37.0489 253.188 37.5716 253.188ZM46.4693 254.07C45.7599 254.07 45.1206 253.911 44.5513 253.594C43.9913 253.267 43.5479 252.824 43.2213 252.264C42.8946 251.695 42.7313 251.046 42.7313 250.318C42.7313 249.581 42.8946 248.932 43.2213 248.372C43.5479 247.812 43.9913 247.373 44.5513 247.056C45.1113 246.739 45.7506 246.58 46.4693 246.58C47.1973 246.58 47.8413 246.739 48.4013 247.056C48.9706 247.373 49.4139 247.812 49.7313 248.372C50.0579 248.932 50.2213 249.581 50.2213 250.318C50.2213 251.046 50.0579 251.695 49.7313 252.264C49.4139 252.824 48.9706 253.267 48.4013 253.594C47.8319 253.911 47.1879 254.07 46.4693 254.07ZM46.4693 253.188C47.0013 253.188 47.4726 253.071 47.8833 252.838C48.2939 252.595 48.6159 252.259 48.8493 251.83C49.0919 251.391 49.2133 250.887 49.2133 250.318C49.2133 249.739 49.0919 249.235 48.8493 248.806C48.6159 248.377 48.2939 248.045 47.8833 247.812C47.4726 247.569 47.0059 247.448 46.4833 247.448C45.9606 247.448 45.4939 247.569 45.0833 247.812C44.6726 248.045 44.3459 248.377 44.1033 248.806C43.8606 249.235 43.7393 249.739 43.7393 250.318C43.7393 250.887 43.8606 251.391 44.1033 251.83C44.3459 252.259 44.6726 252.595 45.0833 252.838C45.4939 253.071 45.9559 253.188 46.4693 253.188ZM52.3456 254V246.65H53.3396V252.488L58.2536 246.65H59.1356V254H58.1416V248.148L53.2416 254H52.3456ZM63.3843 254V247.252L63.6363 247.518H60.5983V246.65H67.1643V247.518H64.1263L64.3783 247.252V254H63.3843ZM71.4097 254.07C70.6444 254.07 69.9724 253.911 69.3937 253.594C68.815 253.267 68.3624 252.824 68.0357 252.264C67.709 251.695 67.5457 251.046 67.5457 250.318C67.5457 249.59 67.6997 248.946 68.0077 248.386C68.325 247.826 68.7544 247.387 69.2957 247.07C69.8464 246.743 70.4624 246.58 71.1437 246.58C71.8344 246.58 72.4457 246.739 72.9777 247.056C73.519 247.364 73.9437 247.803 74.2517 248.372C74.5597 248.932 74.7137 249.581 74.7137 250.318C74.7137 250.365 74.709 250.416 74.6997 250.472C74.6997 250.519 74.6997 250.57 74.6997 250.626H68.3017V249.884H74.1677L73.7757 250.178C73.7757 249.646 73.659 249.175 73.4257 248.764C73.2017 248.344 72.8937 248.017 72.5017 247.784C72.1097 247.551 71.657 247.434 71.1437 247.434C70.6397 247.434 70.187 247.551 69.7857 247.784C69.3844 248.017 69.0717 248.344 68.8477 248.764C68.6237 249.184 68.5117 249.665 68.5117 250.206V250.36C68.5117 250.92 68.633 251.415 68.8757 251.844C69.1277 252.264 69.473 252.595 69.9117 252.838C70.3597 253.071 70.8684 253.188 71.4377 253.188C71.8857 253.188 72.301 253.109 72.6837 252.95C73.0757 252.791 73.4117 252.549 73.6917 252.222L74.2517 252.866C73.925 253.258 73.5144 253.557 73.0197 253.762C72.5344 253.967 71.9977 254.07 71.4097 254.07ZM75.4196 253.986L75.4896 253.132C75.5549 253.141 75.6156 253.155 75.6716 253.174C75.7369 253.183 75.7929 253.188 75.8396 253.188C76.1383 253.188 76.3763 253.076 76.5536 252.852C76.7403 252.628 76.8803 252.329 76.9736 251.956C77.0669 251.583 77.1323 251.163 77.1696 250.696C77.2069 250.22 77.2396 249.744 77.2676 249.268L77.3936 246.65H82.7836V254H81.7896V247.224L82.0416 247.518H78.0376L78.2756 247.21L78.1636 249.338C78.1356 249.973 78.0843 250.579 78.0096 251.158C77.9443 251.737 77.8369 252.245 77.6876 252.684C77.5476 253.123 77.3516 253.468 77.0996 253.72C76.8476 253.963 76.5256 254.084 76.1336 254.084C76.0216 254.084 75.9049 254.075 75.7836 254.056C75.6716 254.037 75.5503 254.014 75.4196 253.986ZM88.7733 249.24C89.6973 249.249 90.3973 249.455 90.8733 249.856C91.3586 250.257 91.6013 250.836 91.6013 251.592C91.6013 252.376 91.34 252.978 90.8173 253.398C90.304 253.818 89.5573 254.023 88.5773 254.014L85.6093 254V246.65H86.6033V249.212L88.7733 249.24ZM88.5213 253.258C89.2026 253.267 89.716 253.132 90.0613 252.852C90.416 252.563 90.5933 252.143 90.5933 251.592C90.5933 251.041 90.4206 250.64 90.0753 250.388C89.73 250.127 89.212 249.991 88.5213 249.982L86.6033 249.954V253.23L88.5213 253.258ZM93.498 254V246.65H94.492V249.898H99.126V246.65H100.12V254H99.126V250.752H94.492V254H93.498ZM105.969 254.07C105.26 254.07 104.621 253.911 104.051 253.594C103.491 253.267 103.048 252.824 102.721 252.264C102.395 251.695 102.231 251.046 102.231 250.318C102.231 249.581 102.395 248.932 102.721 248.372C103.048 247.812 103.491 247.373 104.051 247.056C104.611 246.739 105.251 246.58 105.969 246.58C106.697 246.58 107.341 246.739 107.901 247.056C108.471 247.373 108.914 247.812 109.231 248.372C109.558 248.932 109.721 249.581 109.721 250.318C109.721 251.046 109.558 251.695 109.231 252.264C108.914 252.824 108.471 253.267 107.901 253.594C107.332 253.911 106.688 254.07 105.969 254.07ZM105.969 253.188C106.501 253.188 106.973 253.071 107.383 252.838C107.794 252.595 108.116 252.259 108.349 251.83C108.592 251.391 108.713 250.887 108.713 250.318C108.713 249.739 108.592 249.235 108.349 248.806C108.116 248.377 107.794 248.045 107.383 247.812C106.973 247.569 106.506 247.448 105.983 247.448C105.461 247.448 104.994 247.569 104.583 247.812C104.173 248.045 103.846 248.377 103.603 248.806C103.361 249.235 103.239 249.739 103.239 250.318C103.239 250.887 103.361 251.391 103.603 251.83C103.846 252.259 104.173 252.595 104.583 252.838C104.994 253.071 105.456 253.188 105.969 253.188ZM111.408 250.64V249.772H115.076V250.64H111.408ZM117.328 254V246.65H118.336L121.668 252.292H121.248L124.636 246.65H125.56V254H124.65V247.784L124.832 247.868L121.668 253.104H121.22L118.028 247.812L118.238 247.77V254H117.328ZM131.413 254.07C130.703 254.07 130.064 253.911 129.495 253.594C128.935 253.267 128.491 252.824 128.165 252.264C127.838 251.695 127.675 251.046 127.675 250.318C127.675 249.581 127.838 248.932 128.165 248.372C128.491 247.812 128.935 247.373 129.495 247.056C130.055 246.739 130.694 246.58 131.413 246.58C132.141 246.58 132.785 246.739 133.345 247.056C133.914 247.373 134.357 247.812 134.675 248.372C135.001 248.932 135.165 249.581 135.165 250.318C135.165 251.046 135.001 251.695 134.675 252.264C134.357 252.824 133.914 253.267 133.345 253.594C132.775 253.911 132.131 254.07 131.413 254.07ZM131.413 253.188C131.945 253.188 132.416 253.071 132.827 252.838C133.237 252.595 133.559 252.259 133.793 251.83C134.035 251.391 134.157 250.887 134.157 250.318C134.157 249.739 134.035 249.235 133.793 248.806C133.559 248.377 133.237 248.045 132.827 247.812C132.416 247.569 131.949 247.448 131.427 247.448C130.904 247.448 130.437 247.569 130.027 247.812C129.616 248.045 129.289 248.377 129.047 248.806C128.804 249.235 128.683 249.739 128.683 250.318C128.683 250.887 128.804 251.391 129.047 251.83C129.289 252.259 129.616 252.595 130.027 252.838C130.437 253.071 130.899 253.188 131.413 253.188ZM137.289 254V246.65H138.283V249.898H142.917V246.65H143.911V254H142.917V250.752H138.283V254H137.289ZM148.136 254V247.252L148.388 247.518H145.35V246.65H151.916V247.518H148.878L149.13 247.252V254H148.136ZM157.917 254V252.376L157.875 252.11V249.394C157.875 248.769 157.698 248.288 157.343 247.952C156.998 247.616 156.48 247.448 155.789 247.448C155.313 247.448 154.861 247.527 154.431 247.686C154.002 247.845 153.638 248.055 153.339 248.316L152.891 247.574C153.265 247.257 153.713 247.014 154.235 246.846C154.758 246.669 155.309 246.58 155.887 246.58C156.839 246.58 157.572 246.818 158.085 247.294C158.608 247.761 158.869 248.475 158.869 249.436V254H157.917ZM155.383 254.07C154.833 254.07 154.352 253.981 153.941 253.804C153.54 253.617 153.232 253.365 153.017 253.048C152.803 252.721 152.695 252.348 152.695 251.928C152.695 251.545 152.784 251.2 152.961 250.892C153.148 250.575 153.447 250.323 153.857 250.136C154.277 249.94 154.837 249.842 155.537 249.842H158.071V250.584H155.565C154.856 250.584 154.361 250.71 154.081 250.962C153.811 251.214 153.675 251.527 153.675 251.9C153.675 252.32 153.839 252.656 154.165 252.908C154.492 253.16 154.949 253.286 155.537 253.286C156.097 253.286 156.578 253.16 156.979 252.908C157.39 252.647 157.689 252.273 157.875 251.788L158.099 252.474C157.913 252.959 157.586 253.347 157.119 253.636C156.662 253.925 156.083 254.07 155.383 254.07ZM170.238 254L167.718 250.36L168.544 249.87L171.428 254H170.238ZM166.066 250.724V249.87H168.39V250.724H166.066ZM168.642 250.43L167.69 250.29L170.14 246.65H171.218L168.642 250.43ZM161.53 254H160.34L163.224 249.87L164.036 250.36L161.53 254ZM166.374 254H165.38V246.65H166.374V254ZM165.688 250.724H163.378V249.87H165.688V250.724ZM163.14 250.43L160.55 246.65H161.628L164.064 250.29L163.14 250.43ZM173.082 254V246.65H174.076V249.898H178.71V246.65H179.704V254H178.71V250.752H174.076V254H173.082ZM189.697 254V246.65H190.691V254H189.697ZM185.623 249.24C186.547 249.249 187.252 249.455 187.737 249.856C188.223 250.257 188.465 250.836 188.465 251.592C188.465 252.376 188.204 252.978 187.681 253.398C187.159 253.818 186.412 254.023 185.441 254.014L182.529 254V246.65H183.523V249.212L185.623 249.24ZM185.371 253.258C186.062 253.267 186.58 253.132 186.925 252.852C187.28 252.563 187.457 252.143 187.457 251.592C187.457 251.041 187.285 250.64 186.939 250.388C186.594 250.127 186.071 249.991 185.371 249.982L183.523 249.954V253.23L185.371 253.258ZM196.671 254.07C195.906 254.07 195.234 253.911 194.655 253.594C194.077 253.267 193.624 252.824 193.297 252.264C192.971 251.695 192.807 251.046 192.807 250.318C192.807 249.59 192.961 248.946 193.269 248.386C193.587 247.826 194.016 247.387 194.557 247.07C195.108 246.743 195.724 246.58 196.405 246.58C197.096 246.58 197.707 246.739 198.239 247.056C198.781 247.364 199.205 247.803 199.513 248.372C199.821 248.932 199.975 249.581 199.975 250.318C199.975 250.365 199.971 250.416 199.961 250.472C199.961 250.519 199.961 250.57 199.961 250.626H193.563V249.884H199.429L199.037 250.178C199.037 249.646 198.921 249.175 198.687 248.764C198.463 248.344 198.155 248.017 197.763 247.784C197.371 247.551 196.919 247.434 196.405 247.434C195.901 247.434 195.449 247.551 195.047 247.784C194.646 248.017 194.333 248.344 194.109 248.764C193.885 249.184 193.773 249.665 193.773 250.206V250.36C193.773 250.92 193.895 251.415 194.137 251.844C194.389 252.264 194.735 252.595 195.173 252.838C195.621 253.071 196.13 253.188 196.699 253.188C197.147 253.188 197.563 253.109 197.945 252.95C198.337 252.791 198.673 252.549 198.953 252.222L199.513 252.866C199.187 253.258 198.776 253.557 198.281 253.762C197.796 253.967 197.259 254.07 196.671 254.07ZM209.634 254.07C208.999 254.07 208.425 253.925 207.912 253.636C207.398 253.337 206.988 252.913 206.68 252.362C206.381 251.802 206.232 251.121 206.232 250.318C206.232 249.515 206.381 248.839 206.68 248.288C206.978 247.728 207.384 247.303 207.898 247.014C208.411 246.725 208.99 246.58 209.634 246.58C210.334 246.58 210.959 246.739 211.51 247.056C212.07 247.364 212.508 247.803 212.826 248.372C213.143 248.932 213.302 249.581 213.302 250.318C213.302 251.065 213.143 251.718 212.826 252.278C212.508 252.838 212.07 253.277 211.51 253.594C210.959 253.911 210.334 254.07 209.634 254.07ZM205.84 256.716V246.65H206.792V248.862L206.694 250.332L206.834 251.816V256.716H205.84ZM209.564 253.188C210.086 253.188 210.553 253.071 210.964 252.838C211.374 252.595 211.701 252.259 211.944 251.83C212.186 251.391 212.308 250.887 212.308 250.318C212.308 249.749 212.186 249.249 211.944 248.82C211.701 248.391 211.374 248.055 210.964 247.812C210.553 247.569 210.086 247.448 209.564 247.448C209.041 247.448 208.57 247.569 208.15 247.812C207.739 248.055 207.412 248.391 207.17 248.82C206.936 249.249 206.82 249.749 206.82 250.318C206.82 250.887 206.936 251.391 207.17 251.83C207.412 252.259 207.739 252.595 208.15 252.838C208.57 253.071 209.041 253.188 209.564 253.188ZM219.96 254V252.376L219.918 252.11V249.394C219.918 248.769 219.741 248.288 219.386 247.952C219.041 247.616 218.523 247.448 217.832 247.448C217.356 247.448 216.904 247.527 216.474 247.686C216.045 247.845 215.681 248.055 215.382 248.316L214.934 247.574C215.308 247.257 215.756 247.014 216.278 246.846C216.801 246.669 217.352 246.58 217.93 246.58C218.882 246.58 219.615 246.818 220.128 247.294C220.651 247.761 220.912 248.475 220.912 249.436V254H219.96ZM217.426 254.07C216.876 254.07 216.395 253.981 215.984 253.804C215.583 253.617 215.275 253.365 215.06 253.048C214.846 252.721 214.738 252.348 214.738 251.928C214.738 251.545 214.827 251.2 215.004 250.892C215.191 250.575 215.49 250.323 215.9 250.136C216.32 249.94 216.88 249.842 217.58 249.842H220.114V250.584H217.608C216.899 250.584 216.404 250.71 216.124 250.962C215.854 251.214 215.718 251.527 215.718 251.9C215.718 252.32 215.882 252.656 216.208 252.908C216.535 253.16 216.992 253.286 217.58 253.286C218.14 253.286 218.621 253.16 219.022 252.908C219.433 252.647 219.732 252.273 219.918 251.788L220.142 252.474C219.956 252.959 219.629 253.347 219.162 253.636C218.705 253.925 218.126 254.07 217.426 254.07ZM226.863 254.084C226.265 254.084 225.733 253.986 225.267 253.79C224.809 253.594 224.417 253.295 224.091 252.894C223.764 252.493 223.517 251.998 223.349 251.41C223.181 250.813 223.097 250.122 223.097 249.338C223.097 248.638 223.162 248.027 223.293 247.504C223.423 246.972 223.605 246.515 223.839 246.132C224.072 245.749 224.343 245.427 224.651 245.166C224.968 244.895 225.309 244.681 225.673 244.522C226.046 244.354 226.429 244.228 226.821 244.144L230.125 243.374L230.293 244.298L227.185 244.998C226.989 245.045 226.751 245.11 226.471 245.194C226.2 245.278 225.92 245.404 225.631 245.572C225.351 245.74 225.089 245.973 224.847 246.272C224.604 246.571 224.408 246.958 224.259 247.434C224.119 247.901 224.049 248.484 224.049 249.184C224.049 249.333 224.053 249.455 224.063 249.548C224.072 249.632 224.081 249.725 224.091 249.828C224.109 249.921 224.123 250.061 224.133 250.248L223.699 249.884C223.801 249.315 224.011 248.82 224.329 248.4C224.646 247.971 225.043 247.639 225.519 247.406C226.004 247.163 226.541 247.042 227.129 247.042C227.81 247.042 228.417 247.191 228.949 247.49C229.481 247.779 229.896 248.185 230.195 248.708C230.503 249.231 230.657 249.837 230.657 250.528C230.657 251.209 230.498 251.821 230.181 252.362C229.873 252.903 229.434 253.328 228.865 253.636C228.295 253.935 227.628 254.084 226.863 254.084ZM226.975 253.258C227.497 253.258 227.959 253.141 228.361 252.908C228.762 252.665 229.075 252.339 229.299 251.928C229.532 251.517 229.649 251.055 229.649 250.542C229.649 250.038 229.532 249.59 229.299 249.198C229.075 248.806 228.762 248.498 228.361 248.274C227.959 248.041 227.493 247.924 226.961 247.924C226.438 247.924 225.976 248.036 225.575 248.26C225.173 248.475 224.856 248.778 224.623 249.17C224.399 249.562 224.287 250.015 224.287 250.528C224.287 251.041 224.399 251.503 224.623 251.914C224.856 252.325 225.173 252.651 225.575 252.894C225.985 253.137 226.452 253.258 226.975 253.258ZM235.811 254.07C235.102 254.07 234.462 253.911 233.893 253.594C233.333 253.267 232.89 252.824 232.563 252.264C232.236 251.695 232.073 251.046 232.073 250.318C232.073 249.581 232.236 248.932 232.563 248.372C232.89 247.812 233.333 247.373 233.893 247.056C234.453 246.739 235.092 246.58 235.811 246.58C236.539 246.58 237.183 246.739 237.743 247.056C238.312 247.373 238.756 247.812 239.073 248.372C239.4 248.932 239.563 249.581 239.563 250.318C239.563 251.046 239.4 251.695 239.073 252.264C238.756 252.824 238.312 253.267 237.743 253.594C237.174 253.911 236.53 254.07 235.811 254.07ZM235.811 253.188C236.343 253.188 236.814 253.071 237.225 252.838C237.636 252.595 237.958 252.259 238.191 251.83C238.434 251.391 238.555 250.887 238.555 250.318C238.555 249.739 238.434 249.235 238.191 248.806C237.958 248.377 237.636 248.045 237.225 247.812C236.814 247.569 236.348 247.448 235.825 247.448C235.302 247.448 234.836 247.569 234.425 247.812C234.014 248.045 233.688 248.377 233.445 248.806C233.202 249.235 233.081 249.739 233.081 250.318C233.081 250.887 233.202 251.391 233.445 251.83C233.688 252.259 234.014 252.595 234.425 252.838C234.836 253.071 235.298 253.188 235.811 253.188ZM242.814 254V247.252L243.066 247.518H240.028V246.65H246.594V247.518H243.556L243.808 247.252V254H242.814ZM255.199 254V246.65H256.193V254H255.199ZM251.125 249.24C252.049 249.249 252.754 249.455 253.239 249.856C253.725 250.257 253.967 250.836 253.967 251.592C253.967 252.376 253.706 252.978 253.183 253.398C252.661 253.818 251.914 254.023 250.943 254.014L248.031 254V246.65H249.025V249.212L251.125 249.24ZM250.873 253.258C251.564 253.267 252.082 253.132 252.427 252.852C252.782 252.563 252.959 252.143 252.959 251.592C252.959 251.041 252.787 250.64 252.441 250.388C252.096 250.127 251.573 249.991 250.873 249.982L249.025 249.954V253.23L250.873 253.258Z" fill="#49494F"></path> <rect x="0.5" y="0.5" width="269" height="281" rx="15.5" stroke="#E2E4E7"></rect> <defs> <linearGradient id="paint0_linear_2132_2992" x1="19" y1="26.5" x2="36" y2="64" gradientUnits="userSpaceOnUse"> <stop stop-color="#161617"></stop> <stop offset="1" stop-color="#212122"></stop> </linearGradient> </defs> </svg> 