<?xml version="1.0" encoding="UTF-8"?> <svg xmlns="http://www.w3.org/2000/svg" width="270" height="282" viewBox="0 0 270 282" fill="none"> <rect x="0.5" y="0.5" width="269" height="281" rx="15.5" fill="white"></rect> <rect x="16" y="24" width="40" height="40" rx="8" fill="#EB996E"></rect> <path d="M27.75 53.75H23.25V49.25H27.75V53.75Z" fill="#EB996E" stroke="white" stroke-width="0.5"></path> <path d="M28.75 43.75H24.25V39.25H28.75V43.75Z" fill="#EB996E" stroke="white" stroke-width="0.5"></path> <path d="M32.75 53.75H28.25V49.25H32.75V53.75Z" fill="#EB996E" stroke="white" stroke-width="0.5"></path> <path d="M30.75 48.75H26.25V44.25H30.75V48.75Z" fill="#EB996E" stroke="white" stroke-width="0.5"></path> <path d="M33.75 43.75H29.25V39.25H33.75V43.75Z" fill="#EB996E" stroke="white" stroke-width="0.5"></path> <path d="M30.75 38.75H26.25V34.25H30.75V38.75Z" fill="#EB996E" stroke="white" stroke-width="0.5"></path> <path d="M37.75 53.75H33.25V49.25H37.75V53.75Z" fill="#EB996E" stroke="white" stroke-width="0.5"></path> <path d="M35.75 48.75H31.25V44.25H35.75V48.75Z" fill="#EB996E" stroke="white" stroke-width="0.5"></path> <path d="M38.75 43.75H34.25V39.25H38.75V43.75Z" fill="#EB996E" stroke="white" stroke-width="0.5"></path> <path d="M35.75 38.75H31.25V34.25H35.75V38.75Z" fill="#EB996E" stroke="white" stroke-width="0.5"></path> <path d="M42.75 53.75H38.25V49.25H42.75V53.75Z" fill="#EB996E" stroke="white" stroke-width="0.5"></path> <path d="M40.75 48.75H36.25V44.25H40.75V48.75Z" fill="#EB996E" stroke="white" stroke-width="0.5"></path> <path d="M43.75 43.75H39.25V39.25H43.75V43.75Z" fill="#EB996E" stroke="white" stroke-width="0.5"></path> <path d="M47.75 53.75H43.25V49.25H47.75V53.75Z" fill="#EB996E" stroke="white" stroke-width="0.5"></path> <path d="M45.75 48.75H41.25V44.25H45.75V48.75Z" fill="#EB996E" stroke="white" stroke-width="0.5"></path> <path d="M48.75 43.75H44.25V39.25H48.75V43.75Z" fill="#EB996E" stroke="white" stroke-width="0.5"></path> <path d="M48.75 38.75H44.25V34.25H48.75V38.75Z" fill="#EB996E" stroke="white" stroke-width="0.5"></path> <path d="M26 44H46" stroke="#356BD5" stroke-width="0.1"></path> <path d="M26 49H46" stroke="#356BD5" stroke-width="0.1"></path> <path d="M43 49V54" stroke="#356BD5" stroke-width="0.1"></path> <path d="M38 49V54" stroke="#356BD5" stroke-width="0.1"></path> <path d="M33 49V54" stroke="#356BD5" stroke-width="0.1"></path> <path d="M28 49V54" stroke="#356BD5" stroke-width="0.1"></path> <path d="M31 44V49" stroke="#356BD5" stroke-width="0.1"></path> <path d="M36 44V49" stroke="#356BD5" stroke-width="0.1"></path> <path d="M41 44V49" stroke="#356BD5" stroke-width="0.1"></path> <path d="M44 39V44" stroke="#356BD5" stroke-width="0.1"></path> <path d="M39 39V44" stroke="#356BD5" stroke-width="0.1"></path> <path d="M34 39V44" stroke="#356BD5" stroke-width="0.1"></path> <path d="M29 39V44" stroke="#356BD5" stroke-width="0.1"></path> <path d="M31 34V39" stroke="#356BD5" stroke-width="0.1"></path> <path d="M26 39H49" stroke="#356BD5" stroke-width="0.1"></path> <path d="M127.526 49V39.2H131.74C132.804 39.2 133.639 39.4147 134.246 39.844C134.853 40.2733 135.156 40.8987 135.156 41.72C135.156 42.5227 134.867 43.1387 134.288 43.568C133.709 43.988 132.949 44.198 132.006 44.198L132.258 43.778C133.35 43.778 134.185 43.9973 134.764 44.436C135.352 44.8653 135.646 45.4953 135.646 46.326C135.646 47.166 135.338 47.824 134.722 48.3C134.115 48.7667 133.21 49 132.006 49H127.526ZM128.912 47.894H131.978C132.725 47.894 133.285 47.7587 133.658 47.488C134.041 47.208 134.232 46.7833 134.232 46.214C134.232 45.6447 134.041 45.2293 133.658 44.968C133.285 44.7067 132.725 44.576 131.978 44.576H128.912V47.894ZM128.912 43.512H131.642C132.323 43.512 132.841 43.3767 133.196 43.106C133.56 42.8353 133.742 42.4387 133.742 41.916C133.742 41.384 133.56 40.9827 133.196 40.712C132.841 40.4413 132.323 40.306 131.642 40.306H128.912V43.512ZM145.097 49V41.58H146.441V49H145.097ZM141.107 44.1C142.05 44.1093 142.764 44.324 143.249 44.744C143.744 45.164 143.991 45.7567 143.991 46.522C143.991 47.3247 143.72 47.9453 143.179 48.384C142.647 48.8133 141.882 49.0233 140.883 49.014L137.761 49V41.58H139.105V44.086L141.107 44.1ZM140.785 47.992C141.382 48.0013 141.84 47.88 142.157 47.628C142.474 47.376 142.633 47.0027 142.633 46.508C142.633 46.0227 142.474 45.668 142.157 45.444C141.849 45.22 141.392 45.1033 140.785 45.094L139.105 45.066V47.978L140.785 47.992ZM154.122 48.37V42.756H150.902L150.832 44.184C150.813 44.6507 150.781 45.1033 150.734 45.542C150.697 45.9713 150.631 46.368 150.538 46.732C150.454 47.096 150.328 47.3947 150.16 47.628C149.992 47.8613 149.768 48.006 149.488 48.062L148.158 47.824C148.447 47.8333 148.681 47.74 148.858 47.544C149.035 47.3387 149.171 47.0587 149.264 46.704C149.367 46.3493 149.441 45.948 149.488 45.5C149.535 45.0427 149.572 44.5713 149.6 44.086L149.712 41.58H155.466V48.37H154.122ZM147.864 50.722V47.824H156.6V50.722H155.34V49H149.138V50.722H147.864ZM162.901 49V47.432L162.831 47.138V44.464C162.831 43.8947 162.663 43.456 162.327 43.148C162 42.8307 161.505 42.672 160.843 42.672C160.404 42.672 159.975 42.7467 159.555 42.896C159.135 43.036 158.78 43.2273 158.491 43.47L157.931 42.462C158.313 42.154 158.771 41.9207 159.303 41.762C159.844 41.594 160.409 41.51 160.997 41.51C162.014 41.51 162.798 41.7573 163.349 42.252C163.899 42.7467 164.175 43.5027 164.175 44.52V49H162.901ZM160.465 49.084C159.914 49.084 159.429 48.9907 159.009 48.804C158.598 48.6173 158.281 48.3607 158.057 48.034C157.833 47.698 157.721 47.32 157.721 46.9C157.721 46.4987 157.814 46.1347 158.001 45.808C158.197 45.4813 158.509 45.22 158.939 45.024C159.377 44.828 159.965 44.73 160.703 44.73H163.055V45.696H160.759C160.087 45.696 159.634 45.808 159.401 46.032C159.167 46.256 159.051 46.5267 159.051 46.844C159.051 47.208 159.195 47.502 159.485 47.726C159.774 47.9407 160.175 48.048 160.689 48.048C161.193 48.048 161.631 47.936 162.005 47.712C162.387 47.488 162.663 47.1613 162.831 46.732L163.097 47.656C162.919 48.0947 162.607 48.4447 162.159 48.706C161.711 48.958 161.146 49.084 160.465 49.084ZM166.595 49V41.58H167.939V44.73H172.167V41.58H173.511V49H172.167V45.892H167.939V49H166.595ZM183.258 49.112C182.493 49.112 181.807 48.916 181.2 48.524C180.603 48.132 180.127 47.5627 179.772 46.816C179.427 46.0693 179.254 45.164 179.254 44.1C179.254 43.036 179.427 42.1307 179.772 41.384C180.127 40.6373 180.603 40.068 181.2 39.676C181.807 39.284 182.493 39.088 183.258 39.088C184.014 39.088 184.695 39.284 185.302 39.676C185.909 40.068 186.385 40.6373 186.73 41.384C187.075 42.1307 187.248 43.036 187.248 44.1C187.248 45.164 187.075 46.0693 186.73 46.816C186.385 47.5627 185.909 48.132 185.302 48.524C184.695 48.916 184.014 49.112 183.258 49.112ZM183.258 47.866C183.771 47.866 184.219 47.726 184.602 47.446C184.994 47.166 185.297 46.746 185.512 46.186C185.736 45.626 185.848 44.9307 185.848 44.1C185.848 43.2693 185.736 42.574 185.512 42.014C185.297 41.454 184.994 41.034 184.602 40.754C184.219 40.474 183.771 40.334 183.258 40.334C182.745 40.334 182.292 40.474 181.9 40.754C181.508 41.034 181.2 41.454 180.976 42.014C180.761 42.574 180.654 43.2693 180.654 44.1C180.654 44.9307 180.761 45.626 180.976 46.186C181.2 46.746 181.508 47.166 181.9 47.446C182.292 47.726 182.745 47.866 183.258 47.866ZM190.19 49L194.348 39.788L194.712 40.418H188.888L189.588 39.732V42.168H188.244V39.2H195.636V40.152L191.674 49H190.19ZM197.063 49.084C196.801 49.084 196.577 48.9953 196.391 48.818C196.204 48.6313 196.111 48.398 196.111 48.118C196.111 47.838 196.204 47.6093 196.391 47.432C196.577 47.2547 196.801 47.166 197.063 47.166C197.315 47.166 197.529 47.2547 197.707 47.432C197.893 47.6093 197.987 47.838 197.987 48.118C197.987 48.398 197.893 48.6313 197.707 48.818C197.529 48.9953 197.315 49.084 197.063 49.084ZM203.151 49.112C202.385 49.112 201.699 48.916 201.093 48.524C200.495 48.132 200.019 47.5627 199.665 46.816C199.319 46.0693 199.147 45.164 199.147 44.1C199.147 43.036 199.319 42.1307 199.665 41.384C200.019 40.6373 200.495 40.068 201.093 39.676C201.699 39.284 202.385 39.088 203.151 39.088C203.907 39.088 204.588 39.284 205.195 39.676C205.801 40.068 206.277 40.6373 206.623 41.384C206.968 42.1307 207.141 43.036 207.141 44.1C207.141 45.164 206.968 46.0693 206.623 46.816C206.277 47.5627 205.801 48.132 205.195 48.524C204.588 48.916 203.907 49.112 203.151 49.112ZM203.151 47.866C203.664 47.866 204.112 47.726 204.495 47.446C204.887 47.166 205.19 46.746 205.405 46.186C205.629 45.626 205.741 44.9307 205.741 44.1C205.741 43.2693 205.629 42.574 205.405 42.014C205.19 41.454 204.887 41.034 204.495 40.754C204.112 40.474 203.664 40.334 203.151 40.334C202.637 40.334 202.185 40.474 201.793 40.754C201.401 41.034 201.093 41.454 200.869 42.014C200.654 42.574 200.547 43.2693 200.547 44.1C200.547 44.9307 200.654 45.626 200.869 46.186C201.093 46.746 201.401 47.166 201.793 47.446C202.185 47.726 202.637 47.866 203.151 47.866ZM211.663 39.088C212.549 39.088 213.296 39.2793 213.903 39.662C214.519 40.0447 214.985 40.6 215.303 41.328C215.62 42.0467 215.779 42.9287 215.779 43.974C215.779 45.0847 215.583 46.0227 215.191 46.788C214.799 47.5533 214.257 48.132 213.567 48.524C212.876 48.916 212.069 49.112 211.145 49.112C210.687 49.112 210.244 49.0653 209.815 48.972C209.395 48.8787 209.026 48.734 208.709 48.538L209.241 47.446C209.502 47.614 209.791 47.7353 210.109 47.81C210.435 47.8753 210.776 47.908 211.131 47.908C212.12 47.908 212.909 47.6 213.497 46.984C214.085 46.3587 214.379 45.4347 214.379 44.212C214.379 44.016 214.369 43.7827 214.351 43.512C214.332 43.2413 214.29 42.9753 214.225 42.714L214.687 43.19C214.556 43.6193 214.337 43.9833 214.029 44.282C213.73 44.5713 213.366 44.7907 212.937 44.94C212.517 45.08 212.055 45.15 211.551 45.15C210.907 45.15 210.333 45.0287 209.829 44.786C209.325 44.5433 208.928 44.2027 208.639 43.764C208.349 43.316 208.205 42.7887 208.205 42.182C208.205 41.5473 208.354 41.0013 208.653 40.544C208.961 40.0773 209.376 39.718 209.899 39.466C210.431 39.214 211.019 39.088 211.663 39.088ZM211.719 40.222C211.299 40.222 210.925 40.3013 210.599 40.46C210.272 40.6187 210.015 40.838 209.829 41.118C209.651 41.398 209.562 41.734 209.562 42.126C209.562 42.7047 209.763 43.1667 210.165 43.512C210.566 43.848 211.107 44.016 211.789 44.016C212.237 44.016 212.629 43.932 212.965 43.764C213.31 43.596 213.576 43.3673 213.763 43.078C213.959 42.7887 214.057 42.4667 214.057 42.112C214.057 41.7667 213.968 41.454 213.791 41.174C213.613 40.894 213.352 40.6653 213.007 40.488C212.661 40.3107 212.232 40.222 211.719 40.222ZM217.885 49.084C217.624 49.084 217.4 48.9953 217.213 48.818C217.026 48.6313 216.933 48.398 216.933 48.118C216.933 47.838 217.026 47.6093 217.213 47.432C217.4 47.2547 217.624 47.166 217.885 47.166C218.137 47.166 218.352 47.2547 218.529 47.432C218.716 47.6093 218.809 47.838 218.809 48.118C218.809 48.398 218.716 48.6313 218.529 48.818C218.352 48.9953 218.137 49.084 217.885 49.084ZM220.116 49V48.048L224.106 44.198C224.46 43.862 224.722 43.568 224.89 43.316C225.067 43.0547 225.184 42.8167 225.24 42.602C225.305 42.378 225.338 42.1633 225.338 41.958C225.338 41.454 225.16 41.0573 224.806 40.768C224.451 40.4787 223.933 40.334 223.252 40.334C222.729 40.334 222.258 40.4227 221.838 40.6C221.418 40.768 221.054 41.034 220.746 41.398L219.794 40.572C220.167 40.096 220.666 39.732 221.292 39.48C221.926 39.2187 222.622 39.088 223.378 39.088C224.059 39.088 224.652 39.2 225.156 39.424C225.66 39.6387 226.047 39.9513 226.318 40.362C226.598 40.7727 226.738 41.258 226.738 41.818C226.738 42.1353 226.696 42.448 226.612 42.756C226.528 43.064 226.369 43.3907 226.136 43.736C225.902 44.0813 225.566 44.4687 225.128 44.898L221.572 48.328L221.236 47.782H227.158V49H220.116ZM232.299 49.112C231.534 49.112 230.848 48.916 230.241 48.524C229.644 48.132 229.168 47.5627 228.813 46.816C228.468 46.0693 228.295 45.164 228.295 44.1C228.295 43.036 228.468 42.1307 228.813 41.384C229.168 40.6373 229.644 40.068 230.241 39.676C230.848 39.284 231.534 39.088 232.299 39.088C233.055 39.088 233.736 39.284 234.343 39.676C234.95 40.068 235.426 40.6373 235.771 41.384C236.116 42.1307 236.289 43.036 236.289 44.1C236.289 45.164 236.116 46.0693 235.771 46.816C235.426 47.5627 234.95 48.132 234.343 48.524C233.736 48.916 233.055 49.112 232.299 49.112ZM232.299 47.866C232.812 47.866 233.26 47.726 233.643 47.446C234.035 47.166 234.338 46.746 234.553 46.186C234.777 45.626 234.889 44.9307 234.889 44.1C234.889 43.2693 234.777 42.574 234.553 42.014C234.338 41.454 234.035 41.034 233.643 40.754C233.26 40.474 232.812 40.334 232.299 40.334C231.786 40.334 231.333 40.474 230.941 40.754C230.549 41.034 230.241 41.454 230.017 42.014C229.802 42.574 229.695 43.2693 229.695 44.1C229.695 44.9307 229.802 45.626 230.017 46.186C230.241 46.746 230.549 47.166 230.941 47.446C231.333 47.726 231.786 47.866 232.299 47.866ZM237.479 49V48.048L241.469 44.198C241.824 43.862 242.085 43.568 242.253 43.316C242.43 43.0547 242.547 42.8167 242.603 42.602C242.668 42.378 242.701 42.1633 242.701 41.958C242.701 41.454 242.524 41.0573 242.169 40.768C241.814 40.4787 241.296 40.334 240.615 40.334C240.092 40.334 239.621 40.4227 239.201 40.6C238.781 40.768 238.417 41.034 238.109 41.398L237.157 40.572C237.53 40.096 238.03 39.732 238.655 39.48C239.29 39.2187 239.985 39.088 240.741 39.088C241.422 39.088 242.015 39.2 242.519 39.424C243.023 39.6387 243.41 39.9513 243.681 40.362C243.961 40.7727 244.101 41.258 244.101 41.818C244.101 42.1353 244.059 42.448 243.975 42.756C243.891 43.064 243.732 43.3907 243.499 43.736C243.266 44.0813 242.93 44.4687 242.491 44.898L238.935 48.328L238.599 47.782H244.521V49H237.479ZM245.518 49V48.048L249.508 44.198C249.863 43.862 250.124 43.568 250.292 43.316C250.469 43.0547 250.586 42.8167 250.642 42.602C250.707 42.378 250.74 42.1633 250.74 41.958C250.74 41.454 250.563 41.0573 250.208 40.768C249.853 40.4787 249.335 40.334 248.654 40.334C248.131 40.334 247.66 40.4227 247.24 40.6C246.82 40.768 246.456 41.034 246.148 41.398L245.196 40.572C245.569 40.096 246.069 39.732 246.694 39.48C247.329 39.2187 248.024 39.088 248.78 39.088C249.461 39.088 250.054 39.2 250.558 39.424C251.062 39.6387 251.449 39.9513 251.72 40.362C252 40.7727 252.14 41.258 252.14 41.818C252.14 42.1353 252.098 42.448 252.014 42.756C251.93 43.064 251.771 43.3907 251.538 43.736C251.305 44.0813 250.969 44.4687 250.53 44.898L246.974 48.328L246.638 47.782H252.56V49H245.518Z" fill="#49494F"></path> <path d="M16.912 116.872V115.192L25.504 104.2H28.096L19.576 115.192L18.352 114.808H31.768V116.872H16.912ZM26.248 121V116.872L26.32 114.808V111.16H28.576V121H26.248ZM38.4906 104.008C40.0106 104.008 41.2906 104.336 42.3306 104.992C43.3866 105.648 44.1866 106.6 44.7306 107.848C45.2746 109.08 45.5466 110.592 45.5466 112.384C45.5466 114.288 45.2106 115.896 44.5386 117.208C43.8666 118.52 42.9386 119.512 41.7546 120.184C40.5706 120.856 39.1866 121.192 37.6026 121.192C36.8186 121.192 36.0586 121.112 35.3226 120.952C34.6026 120.792 33.9706 120.544 33.4266 120.208L34.3386 118.336C34.7866 118.624 35.2826 118.832 35.8266 118.96C36.3866 119.072 36.9706 119.128 37.5786 119.128C39.2746 119.128 40.6266 118.6 41.6346 117.544C42.6426 116.472 43.1466 114.888 43.1466 112.792C43.1466 112.456 43.1306 112.056 43.0986 111.592C43.0666 111.128 42.9946 110.672 42.8826 110.224L43.6746 111.04C43.4506 111.776 43.0746 112.4 42.5466 112.912C42.0346 113.408 41.4106 113.784 40.6746 114.04C39.9546 114.28 39.1626 114.4 38.2986 114.4C37.1946 114.4 36.2106 114.192 35.3466 113.776C34.4826 113.36 33.8026 112.776 33.3066 112.024C32.8106 111.256 32.5626 110.352 32.5626 109.312C32.5626 108.224 32.8186 107.288 33.3306 106.504C33.8586 105.704 34.5706 105.088 35.4666 104.656C36.3786 104.224 37.3866 104.008 38.4906 104.008ZM38.5866 105.952C37.8666 105.952 37.2266 106.088 36.6666 106.36C36.1066 106.632 35.6666 107.008 35.3466 107.488C35.0426 107.968 34.8906 108.544 34.8906 109.216C34.8906 110.208 35.2346 111 35.9226 111.592C36.6106 112.168 37.5386 112.456 38.7066 112.456C39.4746 112.456 40.1466 112.312 40.7226 112.024C41.3146 111.736 41.7706 111.344 42.0906 110.848C42.4266 110.352 42.5946 109.8 42.5946 109.192C42.5946 108.6 42.4426 108.064 42.1386 107.584C41.8346 107.104 41.3866 106.712 40.7946 106.408C40.2026 106.104 39.4666 105.952 38.5866 105.952ZM54.4071 121.192C53.0471 121.192 51.8711 120.992 50.8791 120.592C49.8871 120.192 49.1191 119.624 48.5751 118.888C48.0311 118.136 47.7591 117.256 47.7591 116.248C47.7591 115.256 48.0151 114.416 48.5271 113.728C49.0551 113.024 49.8151 112.496 50.8071 112.144C51.7991 111.776 52.9991 111.592 54.4071 111.592C55.8151 111.592 57.0151 111.776 58.0071 112.144C59.0151 112.496 59.7831 113.024 60.3111 113.728C60.8391 114.432 61.1031 115.272 61.1031 116.248C61.1031 117.256 60.8311 118.136 60.2871 118.888C59.7431 119.624 58.9671 120.192 57.9591 120.592C56.9511 120.992 55.7671 121.192 54.4071 121.192ZM54.4071 119.248C55.7511 119.248 56.7991 118.976 57.5511 118.432C58.3191 117.872 58.7031 117.12 58.7031 116.176C58.7031 115.248 58.3191 114.52 57.5511 113.992C56.7991 113.448 55.7511 113.176 54.4071 113.176C53.0791 113.176 52.0391 113.448 51.2871 113.992C50.5351 114.52 50.1591 115.248 50.1591 116.176C50.1591 117.12 50.5351 117.872 51.2871 118.432C52.0391 118.976 53.0791 119.248 54.4071 119.248ZM54.4071 112.888C53.1271 112.888 52.0391 112.72 51.1431 112.384C50.2471 112.032 49.5591 111.536 49.0791 110.896C48.5991 110.24 48.3591 109.464 48.3591 108.568C48.3591 107.624 48.6071 106.816 49.1031 106.144C49.6151 105.456 50.3271 104.928 51.2391 104.56C52.1511 104.192 53.2071 104.008 54.4071 104.008C55.6231 104.008 56.6871 104.192 57.5991 104.56C58.5111 104.928 59.2231 105.456 59.7351 106.144C60.2471 106.816 60.5031 107.624 60.5031 108.568C60.5031 109.464 60.2631 110.24 59.7831 110.896C59.3031 111.536 58.6071 112.032 57.6951 112.384C56.7831 112.72 55.6871 112.888 54.4071 112.888ZM54.4071 111.352C55.5751 111.352 56.4871 111.112 57.1431 110.632C57.8151 110.152 58.1511 109.496 58.1511 108.664C58.1511 107.816 57.8071 107.152 57.1191 106.672C56.4311 106.192 55.5271 105.952 54.4071 105.952C53.2871 105.952 52.3911 106.192 51.7191 106.672C51.0631 107.152 50.7351 107.816 50.7351 108.664C50.7351 109.496 51.0551 110.152 51.6951 110.632C52.3511 111.112 53.2551 111.352 54.4071 111.352ZM76.6098 121.192C75.2978 121.192 74.1218 120.856 73.0818 120.184C72.0578 119.512 71.2418 118.536 70.6338 117.256C70.0418 115.976 69.7458 114.424 69.7458 112.6C69.7458 110.776 70.0418 109.224 70.6338 107.944C71.2418 106.664 72.0578 105.688 73.0818 105.016C74.1218 104.344 75.2978 104.008 76.6098 104.008C77.9058 104.008 79.0738 104.344 80.1138 105.016C81.1538 105.688 81.9698 106.664 82.5618 107.944C83.1538 109.224 83.4498 110.776 83.4498 112.6C83.4498 114.424 83.1538 115.976 82.5618 117.256C81.9698 118.536 81.1538 119.512 80.1138 120.184C79.0738 120.856 77.9058 121.192 76.6098 121.192ZM76.6098 119.056C77.4898 119.056 78.2578 118.816 78.9138 118.336C79.5858 117.856 80.1058 117.136 80.4738 116.176C80.8578 115.216 81.0498 114.024 81.0498 112.6C81.0498 111.176 80.8578 109.984 80.4738 109.024C80.1058 108.064 79.5858 107.344 78.9138 106.864C78.2578 106.384 77.4898 106.144 76.6098 106.144C75.7298 106.144 74.9538 106.384 74.2818 106.864C73.6098 107.344 73.0818 108.064 72.6978 109.024C72.3298 109.984 72.1458 111.176 72.1458 112.6C72.1458 114.024 72.3298 115.216 72.6978 116.176C73.0818 117.136 73.6098 117.856 74.2818 118.336C74.9538 118.816 75.7298 119.056 76.6098 119.056ZM92.6176 121.192C91.3056 121.192 90.1296 120.856 89.0896 120.184C88.0656 119.512 87.2496 118.536 86.6416 117.256C86.0496 115.976 85.7536 114.424 85.7536 112.6C85.7536 110.776 86.0496 109.224 86.6416 107.944C87.2496 106.664 88.0656 105.688 89.0896 105.016C90.1296 104.344 91.3056 104.008 92.6176 104.008C93.9136 104.008 95.0816 104.344 96.1216 105.016C97.1616 105.688 97.9776 106.664 98.5696 107.944C99.1616 109.224 99.4576 110.776 99.4576 112.6C99.4576 114.424 99.1616 115.976 98.5696 117.256C97.9776 118.536 97.1616 119.512 96.1216 120.184C95.0816 120.856 93.9136 121.192 92.6176 121.192ZM92.6176 119.056C93.4976 119.056 94.2656 118.816 94.9216 118.336C95.5936 117.856 96.1136 117.136 96.4816 116.176C96.8656 115.216 97.0576 114.024 97.0576 112.6C97.0576 111.176 96.8656 109.984 96.4816 109.024C96.1136 108.064 95.5936 107.344 94.9216 106.864C94.2656 106.384 93.4976 106.144 92.6176 106.144C91.7376 106.144 90.9616 106.384 90.2896 106.864C89.6176 107.344 89.0896 108.064 88.7056 109.024C88.3376 109.984 88.1536 111.176 88.1536 112.6C88.1536 114.024 88.3376 115.216 88.7056 116.176C89.0896 117.136 89.6176 117.856 90.2896 118.336C90.9616 118.816 91.7376 119.056 92.6176 119.056ZM108.625 121.192C107.313 121.192 106.137 120.856 105.097 120.184C104.073 119.512 103.257 118.536 102.649 117.256C102.057 115.976 101.761 114.424 101.761 112.6C101.761 110.776 102.057 109.224 102.649 107.944C103.257 106.664 104.073 105.688 105.097 105.016C106.137 104.344 107.313 104.008 108.625 104.008C109.921 104.008 111.089 104.344 112.129 105.016C113.169 105.688 113.985 106.664 114.577 107.944C115.169 109.224 115.465 110.776 115.465 112.6C115.465 114.424 115.169 115.976 114.577 117.256C113.985 118.536 113.169 119.512 112.129 120.184C111.089 120.856 109.921 121.192 108.625 121.192ZM108.625 119.056C109.505 119.056 110.273 118.816 110.929 118.336C111.601 117.856 112.121 117.136 112.489 116.176C112.873 115.216 113.065 114.024 113.065 112.6C113.065 111.176 112.873 109.984 112.489 109.024C112.121 108.064 111.601 107.344 110.929 106.864C110.273 106.384 109.505 106.144 108.625 106.144C107.745 106.144 106.969 106.384 106.297 106.864C105.625 107.344 105.097 108.064 104.713 109.024C104.345 109.984 104.161 111.176 104.161 112.6C104.161 114.024 104.345 115.216 104.713 116.176C105.097 117.136 105.625 117.856 106.297 118.336C106.969 118.816 107.745 119.056 108.625 119.056ZM119.785 121V104.2H126.385C128.545 104.2 130.249 104.68 131.497 105.64C132.745 106.584 133.369 107.968 133.369 109.792C133.369 111.616 132.745 113.008 131.497 113.968C130.249 114.928 128.545 115.408 126.385 115.408H121.129L122.209 114.28V121H119.785ZM122.209 114.52L121.129 113.416H126.385C127.857 113.416 128.985 113.104 129.769 112.48C130.553 111.856 130.945 110.968 130.945 109.816C130.945 108.68 130.553 107.808 129.769 107.2C128.985 106.592 127.857 106.288 126.385 106.288H121.129L122.209 105.088V114.52ZM117.337 118.192V116.824H127.537V118.192H117.337Z" fill="#161617"></path> <path d="M224.192 114.128C223.403 114.128 222.635 114.005 221.888 113.76C221.152 113.515 220.549 113.184 220.08 112.768L220.816 111.504C221.189 111.856 221.675 112.144 222.272 112.368C222.869 112.592 223.509 112.704 224.192 112.704C225.024 112.704 225.669 112.528 226.128 112.176C226.597 111.813 226.832 111.328 226.832 110.72C226.832 110.133 226.608 109.664 226.16 109.312C225.723 108.949 225.024 108.768 224.064 108.768H223.168V107.648L226.496 103.552L226.72 104.192H220.592V102.8H227.984V103.888L224.672 107.968L223.84 107.472H224.368C225.723 107.472 226.736 107.776 227.408 108.384C228.091 108.992 228.432 109.765 228.432 110.704C228.432 111.333 228.277 111.909 227.968 112.432C227.659 112.955 227.189 113.371 226.56 113.68C225.941 113.979 225.152 114.128 224.192 114.128ZM234.5 114.128C233.626 114.128 232.842 113.904 232.148 113.456C231.466 113.008 230.922 112.357 230.516 111.504C230.122 110.651 229.924 109.616 229.924 108.4C229.924 107.184 230.122 106.149 230.516 105.296C230.922 104.443 231.466 103.792 232.148 103.344C232.842 102.896 233.626 102.672 234.5 102.672C235.364 102.672 236.143 102.896 236.836 103.344C237.53 103.792 238.074 104.443 238.468 105.296C238.863 106.149 239.06 107.184 239.06 108.4C239.06 109.616 238.863 110.651 238.468 111.504C238.074 112.357 237.53 113.008 236.836 113.456C236.143 113.904 235.364 114.128 234.5 114.128ZM234.5 112.704C235.087 112.704 235.599 112.544 236.036 112.224C236.484 111.904 236.831 111.424 237.076 110.784C237.332 110.144 237.46 109.349 237.46 108.4C237.46 107.451 237.332 106.656 237.076 106.016C236.831 105.376 236.484 104.896 236.036 104.576C235.599 104.256 235.087 104.096 234.5 104.096C233.914 104.096 233.396 104.256 232.948 104.576C232.5 104.896 232.148 105.376 231.892 106.016C231.647 106.656 231.524 107.451 231.524 108.4C231.524 109.349 231.647 110.144 231.892 110.784C232.148 111.424 232.5 111.904 232.948 112.224C233.396 112.544 233.914 112.704 234.5 112.704ZM242.132 114L249.78 102.8H251.012L243.364 114H242.132ZM243.028 108.816C242.516 108.816 242.063 108.688 241.668 108.432C241.273 108.176 240.964 107.819 240.74 107.36C240.527 106.901 240.42 106.368 240.42 105.76C240.42 105.152 240.527 104.619 240.74 104.16C240.964 103.701 241.273 103.344 241.668 103.088C242.063 102.832 242.516 102.704 243.028 102.704C243.551 102.704 244.004 102.832 244.388 103.088C244.783 103.344 245.087 103.701 245.3 104.16C245.513 104.619 245.62 105.152 245.62 105.76C245.62 106.368 245.513 106.901 245.3 107.36C245.087 107.819 244.783 108.176 244.388 108.432C244.004 108.688 243.551 108.816 243.028 108.816ZM243.028 107.904C243.519 107.904 243.903 107.717 244.18 107.344C244.457 106.96 244.596 106.432 244.596 105.76C244.596 105.088 244.457 104.565 244.18 104.192C243.903 103.808 243.519 103.616 243.028 103.616C242.548 103.616 242.164 103.808 241.876 104.192C241.599 104.565 241.46 105.088 241.46 105.76C241.46 106.421 241.599 106.944 241.876 107.328C242.164 107.712 242.548 107.904 243.028 107.904ZM250.116 114.096C249.604 114.096 249.151 113.968 248.756 113.712C248.361 113.456 248.057 113.099 247.844 112.64C247.631 112.181 247.524 111.648 247.524 111.04C247.524 110.432 247.631 109.899 247.844 109.44C248.057 108.981 248.361 108.624 248.756 108.368C249.151 108.112 249.604 107.984 250.116 107.984C250.639 107.984 251.092 108.112 251.476 108.368C251.871 108.624 252.175 108.981 252.388 109.44C252.612 109.899 252.724 110.432 252.724 111.04C252.724 111.648 252.612 112.181 252.388 112.64C252.175 113.099 251.871 113.456 251.476 113.712C251.092 113.968 250.639 114.096 250.116 114.096ZM250.116 113.184C250.596 113.184 250.975 112.997 251.252 112.624C251.54 112.24 251.684 111.712 251.684 111.04C251.684 110.379 251.54 109.856 251.252 109.472C250.975 109.088 250.596 108.896 250.116 108.896C249.636 108.896 249.252 109.088 248.964 109.472C248.687 109.845 248.548 110.368 248.548 111.04C248.548 111.712 248.687 112.24 248.964 112.624C249.252 112.997 249.636 113.184 250.116 113.184Z" fill="#2CCC39"></path> <path d="M254 143H16V145H254V143Z" fill="#DDDDDD" mask="url(#path-36-inside-1_2132_3071)"></path> <path d="M17.888 178V166.8H19.056V176.08L26.224 166.8H27.296V178H26.128V168.736L18.96 178H17.888ZM31.0755 178V166.8H40.4995V178H39.3315V167.504L39.6355 167.824H31.9395L32.2435 167.504V178H31.0755ZM47.2181 166.8H48.5781L51.7621 171.232L54.9301 166.8H56.3221L52.4981 172.176L56.6261 178H55.2341L51.7621 173.184L48.2901 178H46.9301L51.0421 172.224L47.2181 166.8ZM63.5664 178V176.144L63.5184 175.84V172.736C63.5184 172.021 63.3157 171.472 62.9104 171.088C62.5157 170.704 61.9237 170.512 61.1344 170.512C60.5904 170.512 60.073 170.603 59.5824 170.784C59.0917 170.965 58.6757 171.205 58.3344 171.504L57.8224 170.656C58.249 170.293 58.761 170.016 59.3584 169.824C59.9557 169.621 60.585 169.52 61.2464 169.52C62.3344 169.52 63.1717 169.792 63.7584 170.336C64.3557 170.869 64.6544 171.685 64.6544 172.784V178H63.5664ZM60.6704 178.08C60.041 178.08 59.4917 177.979 59.0224 177.776C58.5637 177.563 58.2117 177.275 57.9664 176.912C57.721 176.539 57.5984 176.112 57.5984 175.632C57.5984 175.195 57.6997 174.8 57.9024 174.448C58.1157 174.085 58.457 173.797 58.9264 173.584C59.4064 173.36 60.0464 173.248 60.8464 173.248H63.7424V174.096H60.8784C60.0677 174.096 59.5024 174.24 59.1824 174.528C58.873 174.816 58.7184 175.173 58.7184 175.6C58.7184 176.08 58.905 176.464 59.2784 176.752C59.6517 177.04 60.1744 177.184 60.8464 177.184C61.4864 177.184 62.0357 177.04 62.4944 176.752C62.9637 176.453 63.305 176.027 63.5184 175.472L63.7744 176.256C63.561 176.811 63.1877 177.253 62.6544 177.584C62.1317 177.915 61.4704 178.08 60.6704 178.08ZM71.1985 178.08C70.3665 178.08 69.6198 177.899 68.9585 177.536C68.3078 177.163 67.7958 176.656 67.4225 176.016C67.0492 175.365 66.8625 174.624 66.8625 173.792C66.8625 172.949 67.0492 172.208 67.4225 171.568C67.7958 170.928 68.3078 170.427 68.9585 170.064C69.6198 169.701 70.3665 169.52 71.1985 169.52C71.9132 169.52 72.5585 169.659 73.1345 169.936C73.7105 170.213 74.1638 170.629 74.4945 171.184L73.6465 171.76C73.3585 171.333 73.0012 171.019 72.5745 170.816C72.1478 170.613 71.6838 170.512 71.1825 170.512C70.5852 170.512 70.0465 170.651 69.5665 170.928C69.0865 171.195 68.7078 171.573 68.4305 172.064C68.1532 172.555 68.0145 173.131 68.0145 173.792C68.0145 174.453 68.1532 175.029 68.4305 175.52C68.7078 176.011 69.0865 176.395 69.5665 176.672C70.0465 176.939 70.5852 177.072 71.1825 177.072C71.6838 177.072 72.1478 176.971 72.5745 176.768C73.0012 176.565 73.3585 176.256 73.6465 175.84L74.4945 176.416C74.1638 176.96 73.7105 177.376 73.1345 177.664C72.5585 177.941 71.9132 178.08 71.1985 178.08ZM80.1535 178.08C79.2788 178.08 78.5108 177.899 77.8495 177.536C77.1882 177.163 76.6708 176.656 76.2975 176.016C75.9242 175.365 75.7375 174.624 75.7375 173.792C75.7375 172.96 75.9135 172.224 76.2655 171.584C76.6282 170.944 77.1188 170.443 77.7375 170.08C78.3668 169.707 79.0708 169.52 79.8495 169.52C80.6388 169.52 81.3375 169.701 81.9455 170.064C82.5642 170.416 83.0495 170.917 83.4015 171.568C83.7535 172.208 83.9295 172.949 83.9295 173.792C83.9295 173.845 83.9242 173.904 83.9135 173.968C83.9135 174.021 83.9135 174.08 83.9135 174.144H76.6015V173.296H83.3055L82.8575 173.632C82.8575 173.024 82.7242 172.485 82.4575 172.016C82.2015 171.536 81.8495 171.163 81.4015 170.896C80.9535 170.629 80.4362 170.496 79.8495 170.496C79.2735 170.496 78.7562 170.629 78.2975 170.896C77.8388 171.163 77.4815 171.536 77.2255 172.016C76.9695 172.496 76.8415 173.045 76.8415 173.664V173.84C76.8415 174.48 76.9802 175.045 77.2575 175.536C77.5455 176.016 77.9402 176.395 78.4415 176.672C78.9535 176.939 79.5348 177.072 80.1855 177.072C80.6975 177.072 81.1722 176.981 81.6095 176.8C82.0575 176.619 82.4415 176.341 82.7615 175.968L83.4015 176.704C83.0282 177.152 82.5588 177.493 81.9935 177.728C81.4388 177.963 80.8255 178.08 80.1535 178.08ZM86.4441 178V169.6H87.5801V173.312H92.8761V169.6H94.0121V178H92.8761V174.288H87.5801V178H86.4441ZM100.841 178.08C99.9663 178.08 99.1983 177.899 98.537 177.536C97.8757 177.163 97.3583 176.656 96.985 176.016C96.6117 175.365 96.425 174.624 96.425 173.792C96.425 172.96 96.601 172.224 96.953 171.584C97.3157 170.944 97.8063 170.443 98.425 170.08C99.0543 169.707 99.7583 169.52 100.537 169.52C101.326 169.52 102.025 169.701 102.633 170.064C103.252 170.416 103.737 170.917 104.089 171.568C104.441 172.208 104.617 172.949 104.617 173.792C104.617 173.845 104.612 173.904 104.601 173.968C104.601 174.021 104.601 174.08 104.601 174.144H97.289V173.296H103.993L103.545 173.632C103.545 173.024 103.412 172.485 103.145 172.016C102.889 171.536 102.537 171.163 102.089 170.896C101.641 170.629 101.124 170.496 100.537 170.496C99.961 170.496 99.4437 170.629 98.985 170.896C98.5263 171.163 98.169 171.536 97.913 172.016C97.657 172.496 97.529 173.045 97.529 173.664V173.84C97.529 174.48 97.6677 175.045 97.945 175.536C98.233 176.016 98.6277 176.395 99.129 176.672C99.641 176.939 100.222 177.072 100.873 177.072C101.385 177.072 101.86 176.981 102.297 176.8C102.745 176.619 103.129 176.341 103.449 175.968L104.089 176.704C103.716 177.152 103.246 177.493 102.681 177.728C102.126 177.963 101.513 178.08 100.841 178.08ZM107.132 178V169.6H110.844C111.793 169.6 112.54 169.781 113.084 170.144C113.638 170.507 113.916 171.04 113.916 171.744C113.916 172.427 113.654 172.955 113.132 173.328C112.609 173.691 111.921 173.872 111.068 173.872L111.292 173.536C112.294 173.536 113.03 173.723 113.5 174.096C113.969 174.469 114.204 175.008 114.204 175.712C114.204 176.437 113.937 177.003 113.404 177.408C112.881 177.803 112.065 178 110.956 178H107.132ZM108.236 177.104H110.908C111.622 177.104 112.161 176.992 112.524 176.768C112.897 176.533 113.084 176.16 113.084 175.648C113.084 175.136 112.918 174.763 112.588 174.528C112.257 174.293 111.734 174.176 111.02 174.176H108.236V177.104ZM108.236 173.328H110.764C111.414 173.328 111.91 173.205 112.252 172.96C112.604 172.715 112.78 172.357 112.78 171.888C112.78 171.419 112.604 171.067 112.252 170.832C111.91 170.597 111.414 170.48 110.764 170.48H108.236V173.328ZM116.866 178V169.6H118.002V176.272L123.618 169.6H124.626V178H123.49V171.312L117.89 178H116.866ZM133.194 174.448C132.703 174.661 132.207 174.832 131.706 174.96C131.215 175.077 130.724 175.136 130.234 175.136C129.242 175.136 128.458 174.912 127.882 174.464C127.306 174.005 127.018 173.301 127.018 172.352V169.6H128.138V172.288C128.138 172.928 128.346 173.408 128.762 173.728C129.178 174.048 129.738 174.208 130.442 174.208C130.868 174.208 131.316 174.155 131.786 174.048C132.255 173.931 132.73 173.765 133.21 173.552L133.194 174.448ZM133.098 178V169.6H134.234V178H133.098ZM141.919 178V166.8H143.087V171.776H145.983V172.848H143.087V178H141.919ZM150.959 178.096C150.159 178.096 149.418 177.957 148.735 177.68C148.063 177.392 147.471 176.992 146.959 176.48C146.458 175.968 146.069 175.365 145.791 174.672C145.514 173.979 145.375 173.221 145.375 172.4C145.375 171.579 145.514 170.821 145.791 170.128C146.069 169.435 146.458 168.832 146.959 168.32C147.471 167.808 148.063 167.413 148.735 167.136C149.418 166.848 150.159 166.704 150.959 166.704C151.759 166.704 152.501 166.848 153.183 167.136C153.866 167.413 154.458 167.808 154.959 168.32C155.461 168.832 155.85 169.435 156.127 170.128C156.415 170.821 156.559 171.579 156.559 172.4C156.559 173.221 156.415 173.979 156.127 174.672C155.85 175.365 155.461 175.968 154.959 176.48C154.458 176.992 153.866 177.392 153.183 177.68C152.501 177.957 151.759 178.096 150.959 178.096ZM150.959 177.04C151.589 177.04 152.17 176.928 152.703 176.704C153.247 176.469 153.717 176.144 154.111 175.728C154.506 175.312 154.815 174.827 155.039 174.272C155.263 173.707 155.375 173.083 155.375 172.4C155.375 171.717 155.263 171.099 155.039 170.544C154.815 169.979 154.506 169.488 154.111 169.072C153.717 168.656 153.247 168.336 152.703 168.112C152.17 167.877 151.589 167.76 150.959 167.76C150.341 167.76 149.759 167.877 149.215 168.112C148.682 168.336 148.218 168.656 147.823 169.072C147.429 169.488 147.119 169.979 146.895 170.544C146.671 171.099 146.559 171.717 146.559 172.4C146.559 173.083 146.671 173.707 146.895 174.272C147.119 174.827 147.429 175.312 147.823 175.728C148.218 176.144 148.682 176.469 149.215 176.704C149.759 176.928 150.341 177.04 150.959 177.04ZM158.884 178.08C158.649 178.08 158.446 177.995 158.276 177.824C158.116 177.653 158.036 177.445 158.036 177.2C158.036 176.944 158.116 176.736 158.276 176.576C158.446 176.416 158.649 176.336 158.884 176.336C159.118 176.336 159.316 176.416 159.476 176.576C159.646 176.736 159.732 176.944 159.732 177.2C159.732 177.445 159.646 177.653 159.476 177.824C159.316 177.995 159.118 178.08 158.884 178.08ZM162.466 178V166.8H167.122C168.306 166.8 169.234 167.045 169.906 167.536C170.589 168.016 170.93 168.725 170.93 169.664C170.93 170.592 170.605 171.296 169.954 171.776C169.303 172.245 168.45 172.48 167.394 172.48L167.666 172.08C168.914 172.08 169.863 172.325 170.514 172.816C171.165 173.307 171.49 174.027 171.49 174.976C171.49 175.936 171.149 176.683 170.466 177.216C169.794 177.739 168.781 178 167.426 178H162.466ZM163.634 177.056H167.426C168.375 177.056 169.095 176.88 169.586 176.528C170.077 176.176 170.322 175.632 170.322 174.896C170.322 174.171 170.077 173.637 169.586 173.296C169.095 172.955 168.375 172.784 167.426 172.784H163.634V177.056ZM163.634 171.872H167.058C167.922 171.872 168.583 171.701 169.042 171.36C169.511 171.008 169.746 170.491 169.746 169.808C169.746 169.125 169.511 168.613 169.042 168.272C168.583 167.92 167.922 167.744 167.058 167.744H163.634V171.872ZM174.259 178.08C174.024 178.08 173.821 177.995 173.651 177.824C173.491 177.653 173.411 177.445 173.411 177.2C173.411 176.944 173.491 176.736 173.651 176.576C173.821 176.416 174.024 176.336 174.259 176.336C174.493 176.336 174.691 176.416 174.851 176.576C175.021 176.736 175.107 176.944 175.107 177.2C175.107 177.445 175.021 177.653 174.851 177.824C174.691 177.995 174.493 178.08 174.259 178.08Z" fill="#49494F"></path> <path d="M254 223H16V225H254V223Z" fill="#DDDDDD" mask="url(#path-40-inside-2_2132_3071)"></path> <path d="M17.652 254V244.2H25.898V254H24.876V244.816L25.142 245.096H18.408L18.674 244.816V254H17.652ZM32.7607 254.07C32.1261 254.07 31.5521 253.925 31.0387 253.636C30.5254 253.337 30.1147 252.913 29.8067 252.362C29.5081 251.802 29.3587 251.121 29.3587 250.318C29.3587 249.515 29.5081 248.839 29.8067 248.288C30.1054 247.728 30.5114 247.303 31.0247 247.014C31.5381 246.725 32.1167 246.58 32.7607 246.58C33.4607 246.58 34.0861 246.739 34.6367 247.056C35.1967 247.364 35.6354 247.803 35.9527 248.372C36.2701 248.932 36.4287 249.581 36.4287 250.318C36.4287 251.065 36.2701 251.718 35.9527 252.278C35.6354 252.838 35.1967 253.277 34.6367 253.594C34.0861 253.911 33.4607 254.07 32.7607 254.07ZM28.9667 256.716V246.65H29.9187V248.862L29.8207 250.332L29.9607 251.816V256.716H28.9667ZM32.6907 253.188C33.2134 253.188 33.6801 253.071 34.0907 252.838C34.5014 252.595 34.8281 252.259 35.0707 251.83C35.3134 251.391 35.4347 250.887 35.4347 250.318C35.4347 249.749 35.3134 249.249 35.0707 248.82C34.8281 248.391 34.5014 248.055 34.0907 247.812C33.6801 247.569 33.2134 247.448 32.6907 247.448C32.1681 247.448 31.6967 247.569 31.2767 247.812C30.8661 248.055 30.5394 248.391 30.2967 248.82C30.0634 249.249 29.9467 249.749 29.9467 250.318C29.9467 250.887 30.0634 251.391 30.2967 251.83C30.5394 252.259 30.8661 252.595 31.2767 252.838C31.6967 253.071 32.1681 253.188 32.6907 253.188ZM41.5884 254.07C40.8791 254.07 40.2397 253.911 39.6704 253.594C39.1104 253.267 38.6671 252.824 38.3404 252.264C38.0137 251.695 37.8504 251.046 37.8504 250.318C37.8504 249.581 38.0137 248.932 38.3404 248.372C38.6671 247.812 39.1104 247.373 39.6704 247.056C40.2304 246.739 40.8697 246.58 41.5884 246.58C42.3164 246.58 42.9604 246.739 43.5204 247.056C44.0897 247.373 44.5331 247.812 44.8504 248.372C45.1771 248.932 45.3404 249.581 45.3404 250.318C45.3404 251.046 45.1771 251.695 44.8504 252.264C44.5331 252.824 44.0897 253.267 43.5204 253.594C42.9511 253.911 42.3071 254.07 41.5884 254.07ZM41.5884 253.188C42.1204 253.188 42.5917 253.071 43.0024 252.838C43.4131 252.595 43.7351 252.259 43.9684 251.83C44.2111 251.391 44.3324 250.887 44.3324 250.318C44.3324 249.739 44.2111 249.235 43.9684 248.806C43.7351 248.377 43.4131 248.045 43.0024 247.812C42.5917 247.569 42.1251 247.448 41.6024 247.448C41.0797 247.448 40.6131 247.569 40.2024 247.812C39.7917 248.045 39.4651 248.377 39.2224 248.806C38.9797 249.235 38.8584 249.739 38.8584 250.318C38.8584 250.887 38.9797 251.391 39.2224 251.83C39.4651 252.259 39.7917 252.595 40.2024 252.838C40.6131 253.071 41.0751 253.188 41.5884 253.188ZM52.4638 253.524V247.518H48.9218L48.8378 249.156C48.8191 249.651 48.7864 250.136 48.7398 250.612C48.7024 251.088 48.6324 251.527 48.5298 251.928C48.4364 252.32 48.3011 252.642 48.1238 252.894C47.9464 253.137 47.7178 253.277 47.4378 253.314L46.4438 253.132C46.7331 253.141 46.9711 253.039 47.1578 252.824C47.3444 252.6 47.4891 252.297 47.5918 251.914C47.6944 251.531 47.7691 251.097 47.8158 250.612C47.8624 250.117 47.8998 249.613 47.9278 249.1L48.0258 246.65H53.4578V253.524H52.4638ZM46.1358 255.778V253.132H54.6058V255.778H53.6678V254H47.0738V255.778H46.1358ZM61.1069 254V252.376L61.0649 252.11V249.394C61.0649 248.769 60.8876 248.288 60.5329 247.952C60.1876 247.616 59.6696 247.448 58.9789 247.448C58.5029 247.448 58.0502 247.527 57.6209 247.686C57.1916 247.845 56.8276 248.055 56.5289 248.316L56.0809 247.574C56.4542 247.257 56.9022 247.014 57.4249 246.846C57.9476 246.669 58.4982 246.58 59.0769 246.58C60.0289 246.58 60.7616 246.818 61.2749 247.294C61.7976 247.761 62.0589 248.475 62.0589 249.436V254H61.1069ZM58.5729 254.07C58.0222 254.07 57.5416 253.981 57.1309 253.804C56.7296 253.617 56.4216 253.365 56.2069 253.048C55.9922 252.721 55.8849 252.348 55.8849 251.928C55.8849 251.545 55.9736 251.2 56.1509 250.892C56.3376 250.575 56.6362 250.323 57.0469 250.136C57.4669 249.94 58.0269 249.842 58.7269 249.842H61.2609V250.584H58.7549C58.0456 250.584 57.5509 250.71 57.2709 250.962C57.0002 251.214 56.8649 251.527 56.8649 251.9C56.8649 252.32 57.0282 252.656 57.3549 252.908C57.6816 253.16 58.1389 253.286 58.7269 253.286C59.2869 253.286 59.7676 253.16 60.1689 252.908C60.5796 252.647 60.8782 252.273 61.0649 251.788L61.2889 252.474C61.1022 252.959 60.7756 253.347 60.3089 253.636C59.8516 253.925 59.2729 254.07 58.5729 254.07ZM73.427 254L70.907 250.36L71.733 249.87L74.617 254H73.427ZM69.255 250.724V249.87H71.579V250.724H69.255ZM71.831 250.43L70.879 250.29L73.329 246.65H74.407L71.831 250.43ZM64.719 254H63.529L66.413 249.87L67.225 250.36L64.719 254ZM69.563 254H68.569V246.65H69.563V254ZM68.877 250.724H66.567V249.87H68.877V250.724ZM66.329 250.43L63.739 246.65H64.817L67.253 250.29L66.329 250.43ZM80.6987 254V252.376L80.6567 252.11V249.394C80.6567 248.769 80.4794 248.288 80.1247 247.952C79.7794 247.616 79.2614 247.448 78.5707 247.448C78.0947 247.448 77.642 247.527 77.2127 247.686C76.7834 247.845 76.4194 248.055 76.1207 248.316L75.6727 247.574C76.046 247.257 76.494 247.014 77.0167 246.846C77.5394 246.669 78.09 246.58 78.6687 246.58C79.6207 246.58 80.3534 246.818 80.8667 247.294C81.3894 247.761 81.6507 248.475 81.6507 249.436V254H80.6987ZM78.1647 254.07C77.614 254.07 77.1334 253.981 76.7227 253.804C76.3214 253.617 76.0134 253.365 75.7987 253.048C75.584 252.721 75.4767 252.348 75.4767 251.928C75.4767 251.545 75.5654 251.2 75.7427 250.892C75.9294 250.575 76.228 250.323 76.6387 250.136C77.0587 249.94 77.6187 249.842 78.3187 249.842H80.8527V250.584H78.3467C77.6374 250.584 77.1427 250.71 76.8627 250.962C76.592 251.214 76.4567 251.527 76.4567 251.9C76.4567 252.32 76.62 252.656 76.9467 252.908C77.2734 253.16 77.7307 253.286 78.3187 253.286C78.8787 253.286 79.3594 253.16 79.7607 252.908C80.1714 252.647 80.47 252.273 80.6567 251.788L80.8807 252.474C80.694 252.959 80.3674 253.347 79.9007 253.636C79.4434 253.925 78.8647 254.07 78.1647 254.07ZM87.9609 254V246.65H94.5689V254H93.5749V247.252L93.8269 247.518H88.7029L88.9549 247.252V254H87.9609ZM97.3945 254V246.65H98.3885V252.488L103.302 246.65H104.184V254H103.19V248.148L98.2905 254H97.3945ZM111.863 253.132L111.639 253.398V246.65H112.633V253.398L112.367 253.132H116.469L116.203 253.398V246.65H117.197V254H107.033V246.65H108.027V253.398L107.775 253.132H111.863ZM117.393 255.61V253.734L117.645 254H116.147V253.132H118.331V255.61H117.393ZM123.171 254.07C122.406 254.07 121.734 253.911 121.155 253.594C120.577 253.267 120.124 252.824 119.797 252.264C119.471 251.695 119.307 251.046 119.307 250.318C119.307 249.59 119.461 248.946 119.769 248.386C120.087 247.826 120.516 247.387 121.057 247.07C121.608 246.743 122.224 246.58 122.905 246.58C123.596 246.58 124.207 246.739 124.739 247.056C125.281 247.364 125.705 247.803 126.013 248.372C126.321 248.932 126.475 249.581 126.475 250.318C126.475 250.365 126.471 250.416 126.461 250.472C126.461 250.519 126.461 250.57 126.461 250.626H120.063V249.884H125.929L125.537 250.178C125.537 249.646 125.421 249.175 125.187 248.764C124.963 248.344 124.655 248.017 124.263 247.784C123.871 247.551 123.419 247.434 122.905 247.434C122.401 247.434 121.949 247.551 121.547 247.784C121.146 248.017 120.833 248.344 120.609 248.764C120.385 249.184 120.273 249.665 120.273 250.206V250.36C120.273 250.92 120.395 251.415 120.637 251.844C120.889 252.264 121.235 252.595 121.673 252.838C122.121 253.071 122.63 253.188 123.199 253.188C123.647 253.188 124.063 253.109 124.445 252.95C124.837 252.791 125.173 252.549 125.453 252.222L126.013 252.866C125.687 253.258 125.276 253.557 124.781 253.762C124.296 253.967 123.759 254.07 123.171 254.07ZM128.676 254V246.65H131.924C132.754 246.65 133.408 246.809 133.884 247.126C134.369 247.443 134.612 247.91 134.612 248.526C134.612 249.123 134.383 249.585 133.926 249.912C133.468 250.229 132.866 250.388 132.12 250.388L132.316 250.094C133.193 250.094 133.837 250.257 134.248 250.584C134.658 250.911 134.864 251.382 134.864 251.998C134.864 252.633 134.63 253.127 134.164 253.482C133.706 253.827 132.992 254 132.022 254H128.676ZM129.642 253.216H131.98C132.605 253.216 133.076 253.118 133.394 252.922C133.72 252.717 133.884 252.39 133.884 251.942C133.884 251.494 133.739 251.167 133.45 250.962C133.16 250.757 132.703 250.654 132.078 250.654H129.642V253.216ZM129.642 249.912H131.854C132.423 249.912 132.857 249.805 133.156 249.59C133.464 249.375 133.618 249.063 133.618 248.652C133.618 248.241 133.464 247.933 133.156 247.728C132.857 247.523 132.423 247.42 131.854 247.42H129.642V249.912ZM140.217 254.07C139.508 254.07 138.869 253.911 138.299 253.594C137.739 253.267 137.296 252.824 136.969 252.264C136.643 251.695 136.479 251.046 136.479 250.318C136.479 249.581 136.643 248.932 136.969 248.372C137.296 247.812 137.739 247.373 138.299 247.056C138.859 246.739 139.499 246.58 140.217 246.58C140.945 246.58 141.589 246.739 142.149 247.056C142.719 247.373 143.162 247.812 143.479 248.372C143.806 248.932 143.969 249.581 143.969 250.318C143.969 251.046 143.806 251.695 143.479 252.264C143.162 252.824 142.719 253.267 142.149 253.594C141.58 253.911 140.936 254.07 140.217 254.07ZM140.217 253.188C140.749 253.188 141.221 253.071 141.631 252.838C142.042 252.595 142.364 252.259 142.597 251.83C142.84 251.391 142.961 250.887 142.961 250.318C142.961 249.739 142.84 249.235 142.597 248.806C142.364 248.377 142.042 248.045 141.631 247.812C141.221 247.569 140.754 247.448 140.231 247.448C139.709 247.448 139.242 247.569 138.831 247.812C138.421 248.045 138.094 248.377 137.851 248.806C137.609 249.235 137.487 249.739 137.487 250.318C137.487 250.887 137.609 251.391 137.851 251.83C138.094 252.259 138.421 252.595 138.831 252.838C139.242 253.071 139.704 253.188 140.217 253.188ZM146.094 254V246.65H147.088V252.488L152.002 246.65H152.884V254H151.89V248.148L146.99 254H146.094ZM149.426 245.586C148.81 245.586 148.31 245.432 147.928 245.124C147.554 244.807 147.358 244.354 147.34 243.766H148.054C148.063 244.139 148.194 244.433 148.446 244.648C148.698 244.863 149.024 244.97 149.426 244.97C149.827 244.97 150.154 244.863 150.406 244.648C150.667 244.433 150.802 244.139 150.812 243.766H151.526C151.516 244.354 151.32 244.807 150.938 245.124C150.555 245.432 150.051 245.586 149.426 245.586ZM159.396 254V246.65H166.004V254H165.01V247.252L165.262 247.518H160.138L160.39 247.252V254H159.396ZM172.624 254.07C171.989 254.07 171.415 253.925 170.902 253.636C170.389 253.337 169.978 252.913 169.67 252.362C169.371 251.802 169.222 251.121 169.222 250.318C169.222 249.515 169.371 248.839 169.67 248.288C169.969 247.728 170.375 247.303 170.888 247.014C171.401 246.725 171.98 246.58 172.624 246.58C173.324 246.58 173.949 246.739 174.5 247.056C175.06 247.364 175.499 247.803 175.816 248.372C176.133 248.932 176.292 249.581 176.292 250.318C176.292 251.065 176.133 251.718 175.816 252.278C175.499 252.838 175.06 253.277 174.5 253.594C173.949 253.911 173.324 254.07 172.624 254.07ZM168.83 256.716V246.65H169.782V248.862L169.684 250.332L169.824 251.816V256.716H168.83ZM172.554 253.188C173.077 253.188 173.543 253.071 173.954 252.838C174.365 252.595 174.691 252.259 174.934 251.83C175.177 251.391 175.298 250.887 175.298 250.318C175.298 249.749 175.177 249.249 174.934 248.82C174.691 248.391 174.365 248.055 173.954 247.812C173.543 247.569 173.077 247.448 172.554 247.448C172.031 247.448 171.56 247.569 171.14 247.812C170.729 248.055 170.403 248.391 170.16 248.82C169.927 249.249 169.81 249.749 169.81 250.318C169.81 250.887 169.927 251.391 170.16 251.83C170.403 252.259 170.729 252.595 171.14 252.838C171.56 253.071 172.031 253.188 172.554 253.188ZM181.452 254.07C180.742 254.07 180.103 253.911 179.534 253.594C178.974 253.267 178.53 252.824 178.204 252.264C177.877 251.695 177.714 251.046 177.714 250.318C177.714 249.581 177.877 248.932 178.204 248.372C178.53 247.812 178.974 247.373 179.534 247.056C180.094 246.739 180.733 246.58 181.452 246.58C182.18 246.58 182.824 246.739 183.384 247.056C183.953 247.373 184.396 247.812 184.714 248.372C185.04 248.932 185.204 249.581 185.204 250.318C185.204 251.046 185.04 251.695 184.714 252.264C184.396 252.824 183.953 253.267 183.384 253.594C182.814 253.911 182.17 254.07 181.452 254.07ZM181.452 253.188C181.984 253.188 182.455 253.071 182.866 252.838C183.276 252.595 183.598 252.259 183.832 251.83C184.074 251.391 184.196 250.887 184.196 250.318C184.196 249.739 184.074 249.235 183.832 248.806C183.598 248.377 183.276 248.045 182.866 247.812C182.455 247.569 181.988 247.448 181.466 247.448C180.943 247.448 180.476 247.569 180.066 247.812C179.655 248.045 179.328 248.377 179.086 248.806C178.843 249.235 178.722 249.739 178.722 250.318C178.722 250.887 178.843 251.391 179.086 251.83C179.328 252.259 179.655 252.595 180.066 252.838C180.476 253.071 180.938 253.188 181.452 253.188ZM192.327 253.524V247.518H188.785L188.701 249.156C188.682 249.651 188.65 250.136 188.603 250.612C188.566 251.088 188.496 251.527 188.393 251.928C188.3 252.32 188.164 252.642 187.987 252.894C187.81 253.137 187.581 253.277 187.301 253.314L186.307 253.132C186.596 253.141 186.834 253.039 187.021 252.824C187.208 252.6 187.352 252.297 187.455 251.914C187.558 251.531 187.632 251.097 187.679 250.612C187.726 250.117 187.763 249.613 187.791 249.1L187.889 246.65H193.321V253.524H192.327ZM185.999 255.778V253.132H194.469V255.778H193.531V254H186.937V255.778H185.999ZM196.532 256.786C196.187 256.786 195.856 256.73 195.538 256.618C195.23 256.506 194.964 256.338 194.74 256.114L195.202 255.372C195.389 255.549 195.59 255.685 195.804 255.778C196.028 255.881 196.276 255.932 196.546 255.932C196.873 255.932 197.153 255.839 197.386 255.652C197.629 255.475 197.858 255.157 198.072 254.7L198.548 253.622L198.66 253.468L201.684 246.65H202.664L198.982 254.882C198.777 255.358 198.548 255.736 198.296 256.016C198.054 256.296 197.788 256.492 197.498 256.604C197.209 256.725 196.887 256.786 196.532 256.786ZM198.492 254.21L195.104 246.65H196.14L199.136 253.398L198.492 254.21ZM209.603 254L206.579 250.36L207.405 249.87L210.779 254H209.603ZM204.213 254V246.65H205.207V254H204.213ZM204.899 250.724V249.87H207.265V250.724H204.899ZM207.489 250.43L206.565 250.29L209.491 246.65H210.569L207.489 250.43ZM212.348 254V246.65H213.342V253.132H217.836V246.65H218.83V254H212.348ZM219.082 255.778V253.916L219.334 254H217.836V253.132H220.02V255.778H219.082ZM221.918 254V246.65H222.912V252.488L227.826 246.65H228.708V254H227.714V248.148L222.814 254H221.918ZM231.557 254V246.65H232.551V252.488L237.465 246.65H238.347V254H237.353V248.148L232.453 254H231.557Z" fill="#49494F"></path> <rect x="0.5" y="0.5" width="269" height="281" rx="15.5" stroke="#E2E4E7"></rect> </svg> 