<?xml version="1.0" encoding="UTF-8"?> <svg xmlns="http://www.w3.org/2000/svg" width="270" height="282" viewBox="0 0 270 282" fill="none"> <rect x="0.5" y="0.5" width="269" height="281" rx="15.5" fill="white"></rect> <rect x="16" y="24" width="40" height="40" rx="8" fill="#EB996E"></rect> <path fill-rule="evenodd" clip-rule="evenodd" d="M33 54H25V50H33V54ZM32.5 50.5H25.5V53.5H32.5V50.5Z" fill="#FAFAFA"></path> <path fill-rule="evenodd" clip-rule="evenodd" d="M33 46H25V42H33V46ZM32.5 42.5H25.5V45.5H32.5V42.5Z" fill="#FAFAFA"></path> <path fill-rule="evenodd" clip-rule="evenodd" d="M41 54H33V50H41V54ZM40.5 50.5H33.5V53.5H40.5V50.5Z" fill="#FAFAFA"></path> <path fill-rule="evenodd" clip-rule="evenodd" d="M41 46H33V42H41V46ZM40.5 42.5H33.5V45.5H40.5V42.5Z" fill="#FAFAFA"></path> <path fill-rule="evenodd" clip-rule="evenodd" d="M49 54H41V50H49V54ZM48.5 50.5H41.5V53.5H48.5V50.5Z" fill="#FAFAFA"></path> <path fill-rule="evenodd" clip-rule="evenodd" d="M49 46H41V42H49V46ZM48.5 42.5H41.5V45.5H48.5V42.5Z" fill="#FAFAFA"></path> <path fill-rule="evenodd" clip-rule="evenodd" d="M45 42H37V38H45V42ZM44.5 38.5H37.5V41.5H44.5V38.5Z" fill="#FAFAFA"></path> <path fill-rule="evenodd" clip-rule="evenodd" d="M37 42H29V38H37V42ZM36.5 38.5H29.5V41.5H36.5V38.5Z" fill="#FAFAFA"></path> <path fill-rule="evenodd" clip-rule="evenodd" d="M42 38H34V34H42V38ZM41.5 34.5H34.5V37.5H41.5V34.5Z" fill="#FAFAFA"></path> <path fill-rule="evenodd" clip-rule="evenodd" d="M52 50H44V46H52V50ZM51.5 46.5H44.5V49.5H51.5V46.5Z" fill="#FAFAFA"></path> <path fill-rule="evenodd" clip-rule="evenodd" d="M44 50H36V46H44V50ZM43.5 46.5H36.5V49.5H43.5V46.5Z" fill="#FAFAFA"></path> <path fill-rule="evenodd" clip-rule="evenodd" d="M36 50H28V46H36V50ZM35.5 46.5H28.5V49.5H35.5V46.5Z" fill="#FAFAFA"></path> <path fill-rule="evenodd" clip-rule="evenodd" d="M28 50H20V46H28V50ZM27.5 46.5H20.5V49.5H27.5V46.5Z" fill="#FAFAFA"></path> <path fill-rule="evenodd" clip-rule="evenodd" d="M36.9492 37.9502H41.9992V38.0502H37.0492V42.0502H33.0492V46.0502H28.0492V49.9502H33.0492V54.0002H32.9492V50.0502H27.9492V45.9502H32.9492V41.9502H36.9492V37.9502Z" fill="#EB996E"></path> <path fill-rule="evenodd" clip-rule="evenodd" d="M37 41.9502H41.05V45.9502H44.05V50.0502H41.05V54.0002H40.95V49.9502H43.95V46.0502H40.95V42.0502H37V41.9502Z" fill="#EB996E"></path> <path fill-rule="evenodd" clip-rule="evenodd" d="M37 38.0502H34V37.9502H37V38.0502ZM45 41.9502V42.0502H29V41.9502H45ZM25 50.0502V49.9502H49V50.0502H25Z" fill="#EB996E"></path> <path fill-rule="evenodd" clip-rule="evenodd" d="M48.9397 46.0502H25V45.9502H48.9397V46.0502Z" fill="#EB996E"></path> <path d="M127.526 49V39.2H131.74C132.804 39.2 133.639 39.4147 134.246 39.844C134.853 40.2733 135.156 40.8987 135.156 41.72C135.156 42.5227 134.867 43.1387 134.288 43.568C133.709 43.988 132.949 44.198 132.006 44.198L132.258 43.778C133.35 43.778 134.185 43.9973 134.764 44.436C135.352 44.8653 135.646 45.4953 135.646 46.326C135.646 47.166 135.338 47.824 134.722 48.3C134.115 48.7667 133.21 49 132.006 49H127.526ZM128.912 47.894H131.978C132.725 47.894 133.285 47.7587 133.658 47.488C134.041 47.208 134.232 46.7833 134.232 46.214C134.232 45.6447 134.041 45.2293 133.658 44.968C133.285 44.7067 132.725 44.576 131.978 44.576H128.912V47.894ZM128.912 43.512H131.642C132.323 43.512 132.841 43.3767 133.196 43.106C133.56 42.8353 133.742 42.4387 133.742 41.916C133.742 41.384 133.56 40.9827 133.196 40.712C132.841 40.4413 132.323 40.306 131.642 40.306H128.912V43.512ZM145.097 49V41.58H146.441V49H145.097ZM141.107 44.1C142.05 44.1093 142.764 44.324 143.249 44.744C143.744 45.164 143.991 45.7567 143.991 46.522C143.991 47.3247 143.72 47.9453 143.179 48.384C142.647 48.8133 141.882 49.0233 140.883 49.014L137.761 49V41.58H139.105V44.086L141.107 44.1ZM140.785 47.992C141.382 48.0013 141.84 47.88 142.157 47.628C142.474 47.376 142.633 47.0027 142.633 46.508C142.633 46.0227 142.474 45.668 142.157 45.444C141.849 45.22 141.392 45.1033 140.785 45.094L139.105 45.066V47.978L140.785 47.992ZM154.122 48.37V42.756H150.902L150.832 44.184C150.813 44.6507 150.781 45.1033 150.734 45.542C150.697 45.9713 150.631 46.368 150.538 46.732C150.454 47.096 150.328 47.3947 150.16 47.628C149.992 47.8613 149.768 48.006 149.488 48.062L148.158 47.824C148.447 47.8333 148.681 47.74 148.858 47.544C149.035 47.3387 149.171 47.0587 149.264 46.704C149.367 46.3493 149.441 45.948 149.488 45.5C149.535 45.0427 149.572 44.5713 149.6 44.086L149.712 41.58H155.466V48.37H154.122ZM147.864 50.722V47.824H156.6V50.722H155.34V49H149.138V50.722H147.864ZM162.901 49V47.432L162.831 47.138V44.464C162.831 43.8947 162.663 43.456 162.327 43.148C162 42.8307 161.505 42.672 160.843 42.672C160.404 42.672 159.975 42.7467 159.555 42.896C159.135 43.036 158.78 43.2273 158.491 43.47L157.931 42.462C158.313 42.154 158.771 41.9207 159.303 41.762C159.844 41.594 160.409 41.51 160.997 41.51C162.014 41.51 162.798 41.7573 163.349 42.252C163.899 42.7467 164.175 43.5027 164.175 44.52V49H162.901ZM160.465 49.084C159.914 49.084 159.429 48.9907 159.009 48.804C158.598 48.6173 158.281 48.3607 158.057 48.034C157.833 47.698 157.721 47.32 157.721 46.9C157.721 46.4987 157.814 46.1347 158.001 45.808C158.197 45.4813 158.509 45.22 158.939 45.024C159.377 44.828 159.965 44.73 160.703 44.73H163.055V45.696H160.759C160.087 45.696 159.634 45.808 159.401 46.032C159.167 46.256 159.051 46.5267 159.051 46.844C159.051 47.208 159.195 47.502 159.485 47.726C159.774 47.9407 160.175 48.048 160.689 48.048C161.193 48.048 161.631 47.936 162.005 47.712C162.387 47.488 162.663 47.1613 162.831 46.732L163.097 47.656C162.919 48.0947 162.607 48.4447 162.159 48.706C161.711 48.958 161.146 49.084 160.465 49.084ZM166.595 49V41.58H167.939V44.73H172.167V41.58H173.511V49H172.167V45.892H167.939V49H166.595ZM179.1 49V48.048L183.09 44.198C183.445 43.862 183.706 43.568 183.874 43.316C184.051 43.0547 184.168 42.8167 184.224 42.602C184.289 42.378 184.322 42.1633 184.322 41.958C184.322 41.454 184.145 41.0573 183.79 40.768C183.435 40.4787 182.917 40.334 182.236 40.334C181.713 40.334 181.242 40.4227 180.822 40.6C180.402 40.768 180.038 41.034 179.73 41.398L178.778 40.572C179.151 40.096 179.651 39.732 180.276 39.48C180.911 39.2187 181.606 39.088 182.362 39.088C183.043 39.088 183.636 39.2 184.14 39.424C184.644 39.6387 185.031 39.9513 185.302 40.362C185.582 40.7727 185.722 41.258 185.722 41.818C185.722 42.1353 185.68 42.448 185.596 42.756C185.512 43.064 185.353 43.3907 185.12 43.736C184.887 44.0813 184.551 44.4687 184.112 44.898L180.556 48.328L180.22 47.782H186.142V49H179.1ZM187.139 49V48.048L191.129 44.198C191.484 43.862 191.745 43.568 191.913 43.316C192.09 43.0547 192.207 42.8167 192.263 42.602C192.328 42.378 192.361 42.1633 192.361 41.958C192.361 41.454 192.184 41.0573 191.829 40.768C191.474 40.4787 190.956 40.334 190.275 40.334C189.752 40.334 189.281 40.4227 188.861 40.6C188.441 40.768 188.077 41.034 187.769 41.398L186.817 40.572C187.19 40.096 187.69 39.732 188.315 39.48C188.95 39.2187 189.645 39.088 190.401 39.088C191.082 39.088 191.675 39.2 192.179 39.424C192.683 39.6387 193.07 39.9513 193.341 40.362C193.621 40.7727 193.761 41.258 193.761 41.818C193.761 42.1353 193.719 42.448 193.635 42.756C193.551 43.064 193.392 43.3907 193.159 43.736C192.926 44.0813 192.59 44.4687 192.151 44.898L188.595 48.328L188.259 47.782H194.181V49H187.139ZM196.393 49.084C196.132 49.084 195.908 48.9953 195.721 48.818C195.534 48.6313 195.441 48.398 195.441 48.118C195.441 47.838 195.534 47.6093 195.721 47.432C195.908 47.2547 196.132 47.166 196.393 47.166C196.645 47.166 196.86 47.2547 197.037 47.432C197.224 47.6093 197.317 47.838 197.317 48.118C197.317 48.398 197.224 48.6313 197.037 48.818C196.86 48.9953 196.645 49.084 196.393 49.084ZM202.481 49.112C201.715 49.112 201.029 48.916 200.423 48.524C199.825 48.132 199.349 47.5627 198.995 46.816C198.649 46.0693 198.477 45.164 198.477 44.1C198.477 43.036 198.649 42.1307 198.995 41.384C199.349 40.6373 199.825 40.068 200.423 39.676C201.029 39.284 201.715 39.088 202.481 39.088C203.237 39.088 203.918 39.284 204.525 39.676C205.131 40.068 205.607 40.6373 205.953 41.384C206.298 42.1307 206.471 43.036 206.471 44.1C206.471 45.164 206.298 46.0693 205.953 46.816C205.607 47.5627 205.131 48.132 204.525 48.524C203.918 48.916 203.237 49.112 202.481 49.112ZM202.481 47.866C202.994 47.866 203.442 47.726 203.825 47.446C204.217 47.166 204.52 46.746 204.735 46.186C204.959 45.626 205.071 44.9307 205.071 44.1C205.071 43.2693 204.959 42.574 204.735 42.014C204.52 41.454 204.217 41.034 203.825 40.754C203.442 40.474 202.994 40.334 202.481 40.334C201.967 40.334 201.515 40.474 201.123 40.754C200.731 41.034 200.423 41.454 200.199 42.014C199.984 42.574 199.877 43.2693 199.877 44.1C199.877 44.9307 199.984 45.626 200.199 46.186C200.423 46.746 200.731 47.166 201.123 47.446C201.515 47.726 201.967 47.866 202.481 47.866ZM211.637 49.112C210.843 49.112 210.157 48.9953 209.579 48.762C209 48.5287 208.552 48.1973 208.235 47.768C207.917 47.3293 207.759 46.816 207.759 46.228C207.759 45.6493 207.908 45.1593 208.207 44.758C208.515 44.3473 208.958 44.0393 209.537 43.834C210.115 43.6193 210.815 43.512 211.637 43.512C212.458 43.512 213.158 43.6193 213.737 43.834C214.325 44.0393 214.773 44.3473 215.081 44.758C215.389 45.1687 215.543 45.6587 215.543 46.228C215.543 46.816 215.384 47.3293 215.067 47.768C214.749 48.1973 214.297 48.5287 213.709 48.762C213.121 48.9953 212.43 49.112 211.637 49.112ZM211.637 47.978C212.421 47.978 213.032 47.8193 213.471 47.502C213.919 47.1753 214.143 46.7367 214.143 46.186C214.143 45.6447 213.919 45.22 213.471 44.912C213.032 44.5947 212.421 44.436 211.637 44.436C210.862 44.436 210.255 44.5947 209.817 44.912C209.378 45.22 209.159 45.6447 209.159 46.186C209.159 46.7367 209.378 47.1753 209.817 47.502C210.255 47.8193 210.862 47.978 211.637 47.978ZM211.637 44.268C210.89 44.268 210.255 44.17 209.733 43.974C209.21 43.7687 208.809 43.4793 208.529 43.106C208.249 42.7233 208.109 42.2707 208.109 41.748C208.109 41.1973 208.253 40.726 208.543 40.334C208.841 39.9327 209.257 39.6247 209.789 39.41C210.321 39.1953 210.937 39.088 211.637 39.088C212.346 39.088 212.967 39.1953 213.499 39.41C214.031 39.6247 214.446 39.9327 214.745 40.334C215.043 40.726 215.193 41.1973 215.193 41.748C215.193 42.2707 215.053 42.7233 214.773 43.106C214.493 43.4793 214.087 43.7687 213.555 43.974C213.023 44.17 212.383 44.268 211.637 44.268ZM211.637 43.372C212.318 43.372 212.85 43.232 213.233 42.952C213.625 42.672 213.821 42.2893 213.821 41.804C213.821 41.3093 213.62 40.922 213.219 40.642C212.817 40.362 212.29 40.222 211.637 40.222C210.983 40.222 210.461 40.362 210.069 40.642C209.686 40.922 209.495 41.3093 209.495 41.804C209.495 42.2893 209.681 42.672 210.055 42.952C210.437 43.232 210.965 43.372 211.637 43.372ZM217.885 49.084C217.624 49.084 217.4 48.9953 217.213 48.818C217.026 48.6313 216.933 48.398 216.933 48.118C216.933 47.838 217.026 47.6093 217.213 47.432C217.4 47.2547 217.624 47.166 217.885 47.166C218.137 47.166 218.352 47.2547 218.529 47.432C218.716 47.6093 218.809 47.838 218.809 48.118C218.809 48.398 218.716 48.6313 218.529 48.818C218.352 48.9953 218.137 49.084 217.885 49.084ZM220.116 49V48.048L224.106 44.198C224.46 43.862 224.722 43.568 224.89 43.316C225.067 43.0547 225.184 42.8167 225.24 42.602C225.305 42.378 225.338 42.1633 225.338 41.958C225.338 41.454 225.16 41.0573 224.806 40.768C224.451 40.4787 223.933 40.334 223.252 40.334C222.729 40.334 222.258 40.4227 221.838 40.6C221.418 40.768 221.054 41.034 220.746 41.398L219.794 40.572C220.167 40.096 220.666 39.732 221.292 39.48C221.926 39.2187 222.622 39.088 223.378 39.088C224.059 39.088 224.652 39.2 225.156 39.424C225.66 39.6387 226.047 39.9513 226.318 40.362C226.598 40.7727 226.738 41.258 226.738 41.818C226.738 42.1353 226.696 42.448 226.612 42.756C226.528 43.064 226.369 43.3907 226.136 43.736C225.902 44.0813 225.566 44.4687 225.128 44.898L221.572 48.328L221.236 47.782H227.158V49H220.116ZM232.299 49.112C231.534 49.112 230.848 48.916 230.241 48.524C229.644 48.132 229.168 47.5627 228.813 46.816C228.468 46.0693 228.295 45.164 228.295 44.1C228.295 43.036 228.468 42.1307 228.813 41.384C229.168 40.6373 229.644 40.068 230.241 39.676C230.848 39.284 231.534 39.088 232.299 39.088C233.055 39.088 233.736 39.284 234.343 39.676C234.95 40.068 235.426 40.6373 235.771 41.384C236.116 42.1307 236.289 43.036 236.289 44.1C236.289 45.164 236.116 46.0693 235.771 46.816C235.426 47.5627 234.95 48.132 234.343 48.524C233.736 48.916 233.055 49.112 232.299 49.112ZM232.299 47.866C232.812 47.866 233.26 47.726 233.643 47.446C234.035 47.166 234.338 46.746 234.553 46.186C234.777 45.626 234.889 44.9307 234.889 44.1C234.889 43.2693 234.777 42.574 234.553 42.014C234.338 41.454 234.035 41.034 233.643 40.754C233.26 40.474 232.812 40.334 232.299 40.334C231.786 40.334 231.333 40.474 230.941 40.754C230.549 41.034 230.241 41.454 230.017 42.014C229.802 42.574 229.695 43.2693 229.695 44.1C229.695 44.9307 229.802 45.626 230.017 46.186C230.241 46.746 230.549 47.166 230.941 47.446C231.333 47.726 231.786 47.866 232.299 47.866ZM237.479 49V48.048L241.469 44.198C241.824 43.862 242.085 43.568 242.253 43.316C242.43 43.0547 242.547 42.8167 242.603 42.602C242.668 42.378 242.701 42.1633 242.701 41.958C242.701 41.454 242.524 41.0573 242.169 40.768C241.814 40.4787 241.296 40.334 240.615 40.334C240.092 40.334 239.621 40.4227 239.201 40.6C238.781 40.768 238.417 41.034 238.109 41.398L237.157 40.572C237.53 40.096 238.03 39.732 238.655 39.48C239.29 39.2187 239.985 39.088 240.741 39.088C241.422 39.088 242.015 39.2 242.519 39.424C243.023 39.6387 243.41 39.9513 243.681 40.362C243.961 40.7727 244.101 41.258 244.101 41.818C244.101 42.1353 244.059 42.448 243.975 42.756C243.891 43.064 243.732 43.3907 243.499 43.736C243.266 44.0813 242.93 44.4687 242.491 44.898L238.935 48.328L238.599 47.782H244.521V49H237.479ZM245.518 49V48.048L249.508 44.198C249.863 43.862 250.124 43.568 250.292 43.316C250.469 43.0547 250.586 42.8167 250.642 42.602C250.707 42.378 250.74 42.1633 250.74 41.958C250.74 41.454 250.563 41.0573 250.208 40.768C249.853 40.4787 249.335 40.334 248.654 40.334C248.131 40.334 247.66 40.4227 247.24 40.6C246.82 40.768 246.456 41.034 246.148 41.398L245.196 40.572C245.569 40.096 246.069 39.732 246.694 39.48C247.329 39.2187 248.024 39.088 248.78 39.088C249.461 39.088 250.054 39.2 250.558 39.424C251.062 39.6387 251.449 39.9513 251.72 40.362C252 40.7727 252.14 41.258 252.14 41.818C252.14 42.1353 252.098 42.448 252.014 42.756C251.93 43.064 251.771 43.3907 251.538 43.736C251.305 44.0813 250.969 44.4687 250.53 44.898L246.974 48.328L246.638 47.782H252.56V49H245.518Z" fill="#49494F"></path> <path d="M19.984 121V105.16L21.016 106.288H16.192V104.2H22.36V121H19.984ZM35.3121 121V105.16L36.3441 106.288H31.5201V104.2H37.6881V121H35.3121ZM46.8109 104.008C48.3309 104.008 49.6109 104.336 50.6509 104.992C51.7069 105.648 52.5069 106.6 53.0509 107.848C53.5949 109.08 53.8669 110.592 53.8669 112.384C53.8669 114.288 53.5309 115.896 52.8589 117.208C52.1869 118.52 51.2589 119.512 50.0749 120.184C48.8909 120.856 47.5069 121.192 45.9229 121.192C45.1389 121.192 44.3789 121.112 43.6429 120.952C42.9229 120.792 42.2909 120.544 41.7469 120.208L42.6589 118.336C43.1069 118.624 43.6029 118.832 44.1469 118.96C44.7069 119.072 45.2909 119.128 45.8989 119.128C47.5949 119.128 48.9469 118.6 49.9549 117.544C50.9629 116.472 51.4669 114.888 51.4669 112.792C51.4669 112.456 51.4509 112.056 51.4189 111.592C51.3869 111.128 51.3149 110.672 51.2029 110.224L51.9949 111.04C51.7709 111.776 51.3949 112.4 50.8669 112.912C50.3549 113.408 49.7309 113.784 48.9949 114.04C48.2749 114.28 47.4829 114.4 46.6189 114.4C45.5149 114.4 44.5309 114.192 43.6669 113.776C42.8029 113.36 42.1229 112.776 41.6269 112.024C41.1309 111.256 40.8829 110.352 40.8829 109.312C40.8829 108.224 41.1389 107.288 41.6509 106.504C42.1789 105.704 42.8909 105.088 43.7869 104.656C44.6989 104.224 45.7069 104.008 46.8109 104.008ZM46.9069 105.952C46.1869 105.952 45.5469 106.088 44.9869 106.36C44.4269 106.632 43.9869 107.008 43.6669 107.488C43.3629 107.968 43.2109 108.544 43.2109 109.216C43.2109 110.208 43.5549 111 44.2429 111.592C44.9309 112.168 45.8589 112.456 47.0269 112.456C47.7949 112.456 48.4669 112.312 49.0429 112.024C49.6349 111.736 50.0909 111.344 50.4109 110.848C50.7469 110.352 50.9149 109.8 50.9149 109.192C50.9149 108.6 50.7629 108.064 50.4589 107.584C50.1549 107.104 49.7069 106.712 49.1149 106.408C48.5229 106.104 47.7869 105.952 46.9069 105.952ZM55.9354 116.872V115.192L64.5274 104.2H67.1194L58.5994 115.192L57.3754 114.808H70.7914V116.872H55.9354ZM65.2714 121V116.872L65.3434 114.808V111.16H67.5994V121H65.2714ZM85.7314 121.192C84.2434 121.192 82.9714 120.864 81.9154 120.208C80.8594 119.552 80.0514 118.608 79.4914 117.376C78.9474 116.128 78.6754 114.608 78.6754 112.816C78.6754 110.912 79.0114 109.304 79.6834 107.992C80.3554 106.68 81.2914 105.688 82.4914 105.016C83.6914 104.344 85.0674 104.008 86.6194 104.008C87.4194 104.008 88.1794 104.088 88.8994 104.248C89.6354 104.408 90.2674 104.656 90.7954 104.992L89.8834 106.864C89.4514 106.56 88.9554 106.352 88.3954 106.24C87.8514 106.128 87.2754 106.072 86.6674 106.072C84.9554 106.072 83.5954 106.608 82.5874 107.68C81.5794 108.736 81.0754 110.312 81.0754 112.408C81.0754 112.744 81.0914 113.144 81.1234 113.608C81.1554 114.072 81.2354 114.528 81.3634 114.976L80.5474 114.16C80.7874 113.424 81.1634 112.808 81.6754 112.312C82.2034 111.8 82.8274 111.424 83.5474 111.184C84.2834 110.928 85.0754 110.8 85.9234 110.8C87.0434 110.8 88.0354 111.008 88.8994 111.424C89.7634 111.84 90.4434 112.432 90.9394 113.2C91.4354 113.952 91.6834 114.848 91.6834 115.888C91.6834 116.96 91.4194 117.896 90.8914 118.696C90.3634 119.496 89.6514 120.112 88.7554 120.544C87.8594 120.976 86.8514 121.192 85.7314 121.192ZM85.6354 119.248C86.3714 119.248 87.0114 119.112 87.5554 118.84C88.1154 118.568 88.5554 118.192 88.8754 117.712C89.1954 117.216 89.3554 116.64 89.3554 115.984C89.3554 114.992 89.0114 114.208 88.3234 113.632C87.6354 113.04 86.6994 112.744 85.5154 112.744C84.7474 112.744 84.0754 112.888 83.4994 113.176C82.9234 113.464 82.4674 113.856 82.1314 114.352C81.8114 114.832 81.6514 115.384 81.6514 116.008C81.6514 116.584 81.8034 117.12 82.1074 117.616C82.4114 118.096 82.8594 118.488 83.4514 118.792C84.0434 119.096 84.7714 119.248 85.6354 119.248ZM93.2239 121V119.368L100.064 112.768C100.672 112.192 101.12 111.688 101.408 111.256C101.712 110.808 101.912 110.4 102.008 110.032C102.12 109.648 102.176 109.28 102.176 108.928C102.176 108.064 101.872 107.384 101.264 106.888C100.656 106.392 99.7679 106.144 98.5999 106.144C97.7039 106.144 96.8959 106.296 96.1759 106.6C95.4559 106.888 94.8319 107.344 94.3039 107.968L92.6719 106.552C93.3119 105.736 94.1679 105.112 95.2399 104.68C96.3279 104.232 97.5199 104.008 98.8159 104.008C99.9839 104.008 101 104.2 101.864 104.584C102.728 104.952 103.392 105.488 103.856 106.192C104.336 106.896 104.576 107.728 104.576 108.688C104.576 109.232 104.504 109.768 104.36 110.296C104.216 110.824 103.944 111.384 103.544 111.976C103.144 112.568 102.568 113.232 101.816 113.968L95.7199 119.848L95.1439 118.912H105.296V121H93.2239ZM114.11 121.192C112.798 121.192 111.622 120.856 110.582 120.184C109.558 119.512 108.742 118.536 108.134 117.256C107.542 115.976 107.246 114.424 107.246 112.6C107.246 110.776 107.542 109.224 108.134 107.944C108.742 106.664 109.558 105.688 110.582 105.016C111.622 104.344 112.798 104.008 114.11 104.008C115.406 104.008 116.574 104.344 117.614 105.016C118.654 105.688 119.47 106.664 120.062 107.944C120.654 109.224 120.95 110.776 120.95 112.6C120.95 114.424 120.654 115.976 120.062 117.256C119.47 118.536 118.654 119.512 117.614 120.184C116.574 120.856 115.406 121.192 114.11 121.192ZM114.11 119.056C114.99 119.056 115.758 118.816 116.414 118.336C117.086 117.856 117.606 117.136 117.974 116.176C118.358 115.216 118.55 114.024 118.55 112.6C118.55 111.176 118.358 109.984 117.974 109.024C117.606 108.064 117.086 107.344 116.414 106.864C115.758 106.384 114.99 106.144 114.11 106.144C113.23 106.144 112.454 106.384 111.782 106.864C111.11 107.344 110.582 108.064 110.198 109.024C109.83 109.984 109.646 111.176 109.646 112.6C109.646 114.024 109.83 115.216 110.198 116.176C110.582 117.136 111.11 117.856 111.782 118.336C112.454 118.816 113.23 119.056 114.11 119.056ZM125.27 121V104.2H131.87C134.03 104.2 135.734 104.68 136.982 105.64C138.23 106.584 138.854 107.968 138.854 109.792C138.854 111.616 138.23 113.008 136.982 113.968C135.734 114.928 134.03 115.408 131.87 115.408H126.614L127.694 114.28V121H125.27ZM127.694 114.52L126.614 113.416H131.87C133.342 113.416 134.47 113.104 135.254 112.48C136.038 111.856 136.43 110.968 136.43 109.816C136.43 108.68 136.038 107.808 135.254 107.2C134.47 106.592 133.342 106.288 131.87 106.288H126.614L127.694 105.088V114.52ZM122.822 118.192V116.824H133.022V118.192H122.822Z" fill="#161617"></path> <path d="M224.192 114.128C223.403 114.128 222.635 114.005 221.888 113.76C221.152 113.515 220.549 113.184 220.08 112.768L220.816 111.504C221.189 111.856 221.675 112.144 222.272 112.368C222.869 112.592 223.509 112.704 224.192 112.704C225.024 112.704 225.669 112.528 226.128 112.176C226.597 111.813 226.832 111.328 226.832 110.72C226.832 110.133 226.608 109.664 226.16 109.312C225.723 108.949 225.024 108.768 224.064 108.768H223.168V107.648L226.496 103.552L226.72 104.192H220.592V102.8H227.984V103.888L224.672 107.968L223.84 107.472H224.368C225.723 107.472 226.736 107.776 227.408 108.384C228.091 108.992 228.432 109.765 228.432 110.704C228.432 111.333 228.277 111.909 227.968 112.432C227.659 112.955 227.189 113.371 226.56 113.68C225.941 113.979 225.152 114.128 224.192 114.128ZM234.5 114.128C233.626 114.128 232.842 113.904 232.148 113.456C231.466 113.008 230.922 112.357 230.516 111.504C230.122 110.651 229.924 109.616 229.924 108.4C229.924 107.184 230.122 106.149 230.516 105.296C230.922 104.443 231.466 103.792 232.148 103.344C232.842 102.896 233.626 102.672 234.5 102.672C235.364 102.672 236.143 102.896 236.836 103.344C237.53 103.792 238.074 104.443 238.468 105.296C238.863 106.149 239.06 107.184 239.06 108.4C239.06 109.616 238.863 110.651 238.468 111.504C238.074 112.357 237.53 113.008 236.836 113.456C236.143 113.904 235.364 114.128 234.5 114.128ZM234.5 112.704C235.087 112.704 235.599 112.544 236.036 112.224C236.484 111.904 236.831 111.424 237.076 110.784C237.332 110.144 237.46 109.349 237.46 108.4C237.46 107.451 237.332 106.656 237.076 106.016C236.831 105.376 236.484 104.896 236.036 104.576C235.599 104.256 235.087 104.096 234.5 104.096C233.914 104.096 233.396 104.256 232.948 104.576C232.5 104.896 232.148 105.376 231.892 106.016C231.647 106.656 231.524 107.451 231.524 108.4C231.524 109.349 231.647 110.144 231.892 110.784C232.148 111.424 232.5 111.904 232.948 112.224C233.396 112.544 233.914 112.704 234.5 112.704ZM242.132 114L249.78 102.8H251.012L243.364 114H242.132ZM243.028 108.816C242.516 108.816 242.063 108.688 241.668 108.432C241.273 108.176 240.964 107.819 240.74 107.36C240.527 106.901 240.42 106.368 240.42 105.76C240.42 105.152 240.527 104.619 240.74 104.16C240.964 103.701 241.273 103.344 241.668 103.088C242.063 102.832 242.516 102.704 243.028 102.704C243.551 102.704 244.004 102.832 244.388 103.088C244.783 103.344 245.087 103.701 245.3 104.16C245.513 104.619 245.62 105.152 245.62 105.76C245.62 106.368 245.513 106.901 245.3 107.36C245.087 107.819 244.783 108.176 244.388 108.432C244.004 108.688 243.551 108.816 243.028 108.816ZM243.028 107.904C243.519 107.904 243.903 107.717 244.18 107.344C244.457 106.96 244.596 106.432 244.596 105.76C244.596 105.088 244.457 104.565 244.18 104.192C243.903 103.808 243.519 103.616 243.028 103.616C242.548 103.616 242.164 103.808 241.876 104.192C241.599 104.565 241.46 105.088 241.46 105.76C241.46 106.421 241.599 106.944 241.876 107.328C242.164 107.712 242.548 107.904 243.028 107.904ZM250.116 114.096C249.604 114.096 249.151 113.968 248.756 113.712C248.361 113.456 248.057 113.099 247.844 112.64C247.631 112.181 247.524 111.648 247.524 111.04C247.524 110.432 247.631 109.899 247.844 109.44C248.057 108.981 248.361 108.624 248.756 108.368C249.151 108.112 249.604 107.984 250.116 107.984C250.639 107.984 251.092 108.112 251.476 108.368C251.871 108.624 252.175 108.981 252.388 109.44C252.612 109.899 252.724 110.432 252.724 111.04C252.724 111.648 252.612 112.181 252.388 112.64C252.175 113.099 251.871 113.456 251.476 113.712C251.092 113.968 250.639 114.096 250.116 114.096ZM250.116 113.184C250.596 113.184 250.975 112.997 251.252 112.624C251.54 112.24 251.684 111.712 251.684 111.04C251.684 110.379 251.54 109.856 251.252 109.472C250.975 109.088 250.596 108.896 250.116 108.896C249.636 108.896 249.252 109.088 248.964 109.472C248.687 109.845 248.548 110.368 248.548 111.04C248.548 111.712 248.687 112.24 248.964 112.624C249.252 112.997 249.636 113.184 250.116 113.184Z" fill="#2CCC39"></path> <path d="M254 143H16V145H254V143Z" fill="#DDDDDD" mask="url(#path-21-inside-1_2132_3085)"></path> <path d="M22.8 178.096C21.9573 178.096 21.1733 177.957 20.448 177.68C19.7333 177.392 19.1093 176.992 18.576 176.48C18.0533 175.957 17.6427 175.355 17.344 174.672C17.056 173.979 16.912 173.221 16.912 172.4C16.912 171.579 17.056 170.827 17.344 170.144C17.6427 169.451 18.0533 168.848 18.576 168.336C19.1093 167.813 19.7333 167.413 20.448 167.136C21.1627 166.848 21.9467 166.704 22.8 166.704C23.6427 166.704 24.4213 166.848 25.136 167.136C25.8507 167.413 26.4693 167.808 26.992 168.32C27.5253 168.832 27.936 169.435 28.224 170.128C28.5227 170.821 28.672 171.579 28.672 172.4C28.672 173.221 28.5227 173.979 28.224 174.672C27.936 175.365 27.5253 175.968 26.992 176.48C26.4693 176.992 25.8507 177.392 25.136 177.68C24.4213 177.957 23.6427 178.096 22.8 178.096ZM22.8 177.04C23.472 177.04 24.0907 176.928 24.656 176.704C25.232 176.469 25.728 176.144 26.144 175.728C26.5707 175.301 26.9013 174.811 27.136 174.256C27.3707 173.691 27.488 173.072 27.488 172.4C27.488 171.728 27.3707 171.115 27.136 170.56C26.9013 169.995 26.5707 169.504 26.144 169.088C25.728 168.661 25.232 168.336 24.656 168.112C24.0907 167.877 23.472 167.76 22.8 167.76C22.128 167.76 21.504 167.877 20.928 168.112C20.352 168.336 19.8507 168.661 19.424 169.088C19.008 169.504 18.6773 169.995 18.432 170.56C18.1973 171.115 18.08 171.728 18.08 172.4C18.08 173.061 18.1973 173.675 18.432 174.24C18.6773 174.805 19.008 175.301 19.424 175.728C19.8507 176.144 20.352 176.469 20.928 176.704C21.504 176.928 22.128 177.04 22.8 177.04ZM36.4094 178.096C35.5667 178.096 34.7827 177.957 34.0574 177.68C33.3427 177.392 32.7187 176.992 32.1854 176.48C31.6627 175.957 31.252 175.355 30.9534 174.672C30.6654 173.979 30.5214 173.221 30.5214 172.4C30.5214 171.579 30.6654 170.827 30.9534 170.144C31.252 169.451 31.6627 168.848 32.1854 168.336C32.7187 167.813 33.3427 167.413 34.0574 167.136C34.772 166.848 35.556 166.704 36.4094 166.704C37.252 166.704 38.0307 166.848 38.7454 167.136C39.46 167.413 40.0787 167.808 40.6014 168.32C41.1347 168.832 41.5454 169.435 41.8334 170.128C42.132 170.821 42.2814 171.579 42.2814 172.4C42.2814 173.221 42.132 173.979 41.8334 174.672C41.5454 175.365 41.1347 175.968 40.6014 176.48C40.0787 176.992 39.46 177.392 38.7454 177.68C38.0307 177.957 37.252 178.096 36.4094 178.096ZM36.4094 177.04C37.0814 177.04 37.7 176.928 38.2654 176.704C38.8414 176.469 39.3374 176.144 39.7534 175.728C40.18 175.301 40.5107 174.811 40.7454 174.256C40.98 173.691 41.0974 173.072 41.0974 172.4C41.0974 171.728 40.98 171.115 40.7454 170.56C40.5107 169.995 40.18 169.504 39.7534 169.088C39.3374 168.661 38.8414 168.336 38.2654 168.112C37.7 167.877 37.0814 167.76 36.4094 167.76C35.7374 167.76 35.1134 167.877 34.5374 168.112C33.9614 168.336 33.46 168.661 33.0334 169.088C32.6174 169.504 32.2867 169.995 32.0414 170.56C31.8067 171.115 31.6894 171.728 31.6894 172.4C31.6894 173.061 31.8067 173.675 32.0414 174.24C32.2867 174.805 32.6174 175.301 33.0334 175.728C33.46 176.144 33.9614 176.469 34.5374 176.704C35.1134 176.928 35.7374 177.04 36.4094 177.04ZM50.0188 178.096C49.1761 178.096 48.3921 177.957 47.6668 177.68C46.9521 177.392 46.3281 176.992 45.7948 176.48C45.2721 175.957 44.8614 175.355 44.5628 174.672C44.2748 173.979 44.1308 173.221 44.1308 172.4C44.1308 171.579 44.2748 170.827 44.5628 170.144C44.8614 169.451 45.2721 168.848 45.7948 168.336C46.3281 167.813 46.9521 167.413 47.6668 167.136C48.3814 166.848 49.1654 166.704 50.0188 166.704C50.8614 166.704 51.6401 166.848 52.3548 167.136C53.0694 167.413 53.6881 167.808 54.2108 168.32C54.7441 168.832 55.1548 169.435 55.4428 170.128C55.7414 170.821 55.8908 171.579 55.8908 172.4C55.8908 173.221 55.7414 173.979 55.4428 174.672C55.1548 175.365 54.7441 175.968 54.2108 176.48C53.6881 176.992 53.0694 177.392 52.3548 177.68C51.6401 177.957 50.8614 178.096 50.0188 178.096ZM50.0188 177.04C50.6908 177.04 51.3094 176.928 51.8748 176.704C52.4508 176.469 52.9468 176.144 53.3628 175.728C53.7894 175.301 54.1201 174.811 54.3548 174.256C54.5894 173.691 54.7068 173.072 54.7068 172.4C54.7068 171.728 54.5894 171.115 54.3548 170.56C54.1201 169.995 53.7894 169.504 53.3628 169.088C52.9468 168.661 52.4508 168.336 51.8748 168.112C51.3094 167.877 50.6908 167.76 50.0188 167.76C49.3468 167.76 48.7228 167.877 48.1468 168.112C47.5708 168.336 47.0694 168.661 46.6428 169.088C46.2268 169.504 45.8961 169.995 45.6508 170.56C45.4161 171.115 45.2988 171.728 45.2988 172.4C45.2988 173.061 45.4161 173.675 45.6508 174.24C45.8961 174.805 46.2268 175.301 46.6428 175.728C47.0694 176.144 47.5708 176.469 48.1468 176.704C48.7228 176.928 49.3468 177.04 50.0188 177.04ZM63.5116 166.128L62.8076 169.088L62.6796 168.4C62.9356 168.4 63.1436 168.48 63.3036 168.64C63.4636 168.789 63.5436 168.992 63.5436 169.248C63.5436 169.504 63.4636 169.712 63.3036 169.872C63.1436 170.032 62.9463 170.112 62.7116 170.112C62.4556 170.112 62.2476 170.032 62.0876 169.872C61.9383 169.701 61.8636 169.493 61.8636 169.248C61.8636 169.152 61.869 169.067 61.8796 168.992C61.8903 168.917 61.9116 168.827 61.9436 168.72C61.9756 168.613 62.0183 168.485 62.0716 168.336L62.7436 166.128H63.5116ZM66.2316 166.128L65.5276 169.088L65.3996 168.4C65.6556 168.4 65.8636 168.48 66.0236 168.64C66.1836 168.789 66.2636 168.992 66.2636 169.248C66.2636 169.504 66.1836 169.712 66.0236 169.872C65.8636 170.032 65.6663 170.112 65.4316 170.112C65.1756 170.112 64.9676 170.032 64.8076 169.872C64.6583 169.701 64.5836 169.493 64.5836 169.248C64.5836 169.152 64.589 169.067 64.5996 168.992C64.6103 168.917 64.6316 168.827 64.6636 168.72C64.6956 168.613 64.7383 168.485 64.7916 168.336L65.4636 166.128H66.2316ZM70.069 171.808H75.989V172.816H70.069V171.808ZM70.197 176.976H76.933V178H69.013V166.8H76.693V167.824H70.197V176.976ZM79.5599 178V166.8H84.2159C85.3999 166.8 86.3279 167.045 86.9999 167.536C87.6825 168.016 88.0239 168.725 88.0239 169.664C88.0239 170.592 87.6985 171.296 87.0479 171.776C86.3972 172.245 85.5439 172.48 84.4879 172.48L84.7599 172.08C86.0079 172.08 86.9572 172.325 87.6079 172.816C88.2585 173.307 88.5839 174.027 88.5839 174.976C88.5839 175.936 88.2425 176.683 87.5599 177.216C86.8879 177.739 85.8745 178 84.5199 178H79.5599ZM80.7279 177.056H84.5199C85.4692 177.056 86.1892 176.88 86.6799 176.528C87.1705 176.176 87.4159 175.632 87.4159 174.896C87.4159 174.171 87.1705 173.637 86.6799 173.296C86.1892 172.955 85.4692 172.784 84.5199 172.784H80.7279V177.056ZM80.7279 171.872H84.1519C85.0159 171.872 85.6772 171.701 86.1359 171.36C86.6052 171.008 86.8399 170.491 86.8399 169.808C86.8399 169.125 86.6052 168.613 86.1359 168.272C85.6772 167.92 85.0159 167.744 84.1519 167.744H80.7279V171.872ZM91.5443 178V166.8H95.7363C96.6856 166.8 97.5016 166.955 98.1843 167.264C98.8669 167.563 99.3896 168 99.7523 168.576C100.126 169.141 100.312 169.829 100.312 170.64C100.312 171.429 100.126 172.112 99.7523 172.688C99.3896 173.253 98.8669 173.691 98.1843 174C97.5016 174.309 96.6856 174.464 95.7363 174.464H92.2003L92.7283 173.904V178H91.5443ZM92.7283 174L92.2003 173.424H95.7043C96.8243 173.424 97.6723 173.184 98.2483 172.704C98.8349 172.213 99.1283 171.525 99.1283 170.64C99.1283 169.744 98.8349 169.051 98.2483 168.56C97.6723 168.069 96.8243 167.824 95.7043 167.824H92.2003L92.7283 167.264V174ZM107.8 178.096C106.957 178.096 106.173 177.957 105.448 177.68C104.733 177.392 104.109 176.992 103.576 176.48C103.053 175.957 102.643 175.355 102.344 174.672C102.056 173.979 101.912 173.221 101.912 172.4C101.912 171.579 102.056 170.827 102.344 170.144C102.643 169.451 103.053 168.848 103.576 168.336C104.109 167.813 104.733 167.413 105.448 167.136C106.163 166.848 106.947 166.704 107.8 166.704C108.643 166.704 109.421 166.848 110.136 167.136C110.851 167.413 111.469 167.808 111.992 168.32C112.525 168.832 112.936 169.435 113.224 170.128C113.523 170.821 113.672 171.579 113.672 172.4C113.672 173.221 113.523 173.979 113.224 174.672C112.936 175.365 112.525 175.968 111.992 176.48C111.469 176.992 110.851 177.392 110.136 177.68C109.421 177.957 108.643 178.096 107.8 178.096ZM107.8 177.04C108.472 177.04 109.091 176.928 109.656 176.704C110.232 176.469 110.728 176.144 111.144 175.728C111.571 175.301 111.901 174.811 112.136 174.256C112.371 173.691 112.488 173.072 112.488 172.4C112.488 171.728 112.371 171.115 112.136 170.56C111.901 169.995 111.571 169.504 111.144 169.088C110.728 168.661 110.232 168.336 109.656 168.112C109.091 167.877 108.472 167.76 107.8 167.76C107.128 167.76 106.504 167.877 105.928 168.112C105.352 168.336 104.851 168.661 104.424 169.088C104.008 169.504 103.677 169.995 103.432 170.56C103.197 171.115 103.08 171.728 103.08 172.4C103.08 173.061 103.197 173.675 103.432 174.24C103.677 174.805 104.008 175.301 104.424 175.728C104.851 176.144 105.352 176.469 105.928 176.704C106.504 176.928 107.128 177.04 107.8 177.04ZM114.843 166.8H116.203L119.387 171.232L122.555 166.8H123.947L120.123 172.176L124.251 178H122.859L119.387 173.184L115.915 178H114.555L118.667 172.224L114.843 166.8ZM131.003 178.096C130.16 178.096 129.376 177.957 128.651 177.68C127.936 177.392 127.312 176.992 126.779 176.48C126.256 175.957 125.846 175.355 125.547 174.672C125.259 173.979 125.115 173.221 125.115 172.4C125.115 171.579 125.259 170.827 125.547 170.144C125.846 169.451 126.256 168.848 126.779 168.336C127.312 167.813 127.936 167.413 128.651 167.136C129.366 166.848 130.15 166.704 131.003 166.704C131.846 166.704 132.624 166.848 133.339 167.136C134.054 167.413 134.672 167.808 135.195 168.32C135.728 168.832 136.139 169.435 136.427 170.128C136.726 170.821 136.875 171.579 136.875 172.4C136.875 173.221 136.726 173.979 136.427 174.672C136.139 175.365 135.728 175.968 135.195 176.48C134.672 176.992 134.054 177.392 133.339 177.68C132.624 177.957 131.846 178.096 131.003 178.096ZM131.003 177.04C131.675 177.04 132.294 176.928 132.859 176.704C133.435 176.469 133.931 176.144 134.347 175.728C134.774 175.301 135.104 174.811 135.339 174.256C135.574 173.691 135.691 173.072 135.691 172.4C135.691 171.728 135.574 171.115 135.339 170.56C135.104 169.995 134.774 169.504 134.347 169.088C133.931 168.661 133.435 168.336 132.859 168.112C132.294 167.877 131.675 167.76 131.003 167.76C130.331 167.76 129.707 167.877 129.131 168.112C128.555 168.336 128.054 168.661 127.627 169.088C127.211 169.504 126.88 169.995 126.635 170.56C126.4 171.115 126.283 171.728 126.283 172.4C126.283 173.061 126.4 173.675 126.635 174.24C126.88 174.805 127.211 175.301 127.627 175.728C128.054 176.144 128.555 176.469 129.131 176.704C129.707 176.928 130.331 177.04 131.003 177.04ZM138.572 178.096C138.423 178.096 138.279 178.085 138.14 178.064C138.001 178.053 137.847 178.027 137.676 177.984L137.772 176.928C137.953 176.971 138.129 176.992 138.3 176.992C138.78 176.992 139.164 176.805 139.452 176.432C139.751 176.048 139.975 175.461 140.124 174.672C140.273 173.872 140.369 172.848 140.412 171.6L140.572 166.8H148.172V178H147.004V167.504L147.308 167.824H141.324L141.612 167.488L141.468 171.568C141.425 172.688 141.345 173.659 141.228 174.48C141.111 175.291 140.94 175.968 140.716 176.512C140.492 177.045 140.204 177.445 139.852 177.712C139.5 177.968 139.073 178.096 138.572 178.096ZM159.219 177.44V167.824H153.859L153.763 170.544C153.731 171.387 153.677 172.197 153.603 172.976C153.539 173.744 153.432 174.437 153.283 175.056C153.144 175.664 152.952 176.16 152.707 176.544C152.472 176.928 152.163 177.152 151.779 177.216L150.483 176.976C150.909 176.997 151.261 176.843 151.539 176.512C151.827 176.181 152.045 175.717 152.195 175.12C152.355 174.523 152.472 173.824 152.547 173.024C152.621 172.224 152.675 171.36 152.707 170.432L152.835 166.8H160.387V177.44H159.219ZM150.067 180.512L150.083 176.976H162.067V180.512H160.963V178H151.187L151.171 180.512H150.067ZM164.482 178V166.8H165.65V176.08L172.818 166.8H173.89V178H172.722V168.736L165.554 178H164.482ZM185.861 166.8H187.029V178H185.861V166.8ZM178.853 178H177.669V166.8H178.853V178ZM185.973 172.832H178.725V171.792H185.973V172.832ZM190.81 178V166.8H197.93V167.824H191.658L191.962 167.52L191.978 178H190.81ZM198.974 170.032L199.678 167.088L199.806 167.76C199.561 167.76 199.353 167.685 199.182 167.536C199.022 167.376 198.942 167.168 198.942 166.912C198.942 166.656 199.022 166.448 199.182 166.288C199.353 166.128 199.555 166.048 199.79 166.048C200.035 166.048 200.233 166.133 200.382 166.304C200.542 166.464 200.622 166.667 200.622 166.912C200.622 166.997 200.617 167.083 200.606 167.168C200.595 167.253 200.574 167.349 200.542 167.456C200.521 167.552 200.483 167.675 200.43 167.824L199.742 170.032H198.974ZM201.694 170.032L202.398 167.088L202.526 167.76C202.281 167.76 202.073 167.685 201.902 167.536C201.742 167.376 201.662 167.168 201.662 166.912C201.662 166.656 201.742 166.448 201.902 166.288C202.073 166.128 202.275 166.048 202.51 166.048C202.755 166.048 202.953 166.133 203.102 166.304C203.262 166.464 203.342 166.667 203.342 166.912C203.342 166.997 203.337 167.083 203.326 167.168C203.315 167.253 203.294 167.349 203.262 167.456C203.241 167.552 203.203 167.675 203.15 167.824L202.462 170.032H201.694Z" fill="#49494F"></path> <path d="M254 223H16V225H254V223Z" fill="#DDDDDD" mask="url(#path-25-inside-2_2132_3085)"></path> <path d="M19.598 254V244.816L19.878 245.096H16.154V244.2H24.064V245.096H20.354L20.62 244.816V254H19.598ZM27.9028 254.07C27.1935 254.07 26.5542 253.911 25.9848 253.594C25.4248 253.267 24.9815 252.824 24.6548 252.264C24.3282 251.695 24.1648 251.046 24.1648 250.318C24.1648 249.581 24.3282 248.932 24.6548 248.372C24.9815 247.812 25.4248 247.373 25.9848 247.056C26.5448 246.739 27.1842 246.58 27.9028 246.58C28.6308 246.58 29.2748 246.739 29.8348 247.056C30.4042 247.373 30.8475 247.812 31.1648 248.372C31.4915 248.932 31.6548 249.581 31.6548 250.318C31.6548 251.046 31.4915 251.695 31.1648 252.264C30.8475 252.824 30.4042 253.267 29.8348 253.594C29.2655 253.911 28.6215 254.07 27.9028 254.07ZM27.9028 253.188C28.4348 253.188 28.9062 253.071 29.3168 252.838C29.7275 252.595 30.0495 252.259 30.2828 251.83C30.5255 251.391 30.6468 250.887 30.6468 250.318C30.6468 249.739 30.5255 249.235 30.2828 248.806C30.0495 248.377 29.7275 248.045 29.3168 247.812C28.9062 247.569 28.4395 247.448 27.9168 247.448C27.3942 247.448 26.9275 247.569 26.5168 247.812C26.1062 248.045 25.7795 248.377 25.5368 248.806C25.2942 249.235 25.1728 249.739 25.1728 250.318C25.1728 250.887 25.2942 251.391 25.5368 251.83C25.7795 252.259 26.1062 252.595 26.5168 252.838C26.9275 253.071 27.3895 253.188 27.9028 253.188ZM37.5732 254.07C36.9386 254.07 36.3646 253.925 35.8512 253.636C35.3379 253.337 34.9272 252.913 34.6192 252.362C34.3206 251.802 34.1712 251.121 34.1712 250.318C34.1712 249.515 34.3206 248.839 34.6192 248.288C34.9179 247.728 35.3239 247.303 35.8372 247.014C36.3506 246.725 36.9292 246.58 37.5732 246.58C38.2732 246.58 38.8986 246.739 39.4492 247.056C40.0092 247.364 40.4479 247.803 40.7652 248.372C41.0826 248.932 41.2412 249.581 41.2412 250.318C41.2412 251.065 41.0826 251.718 40.7652 252.278C40.4479 252.838 40.0092 253.277 39.4492 253.594C38.8986 253.911 38.2732 254.07 37.5732 254.07ZM33.7792 256.716V246.65H34.7312V248.862L34.6332 250.332L34.7732 251.816V256.716H33.7792ZM37.5032 253.188C38.0259 253.188 38.4926 253.071 38.9032 252.838C39.3139 252.595 39.6406 252.259 39.8832 251.83C40.1259 251.391 40.2472 250.887 40.2472 250.318C40.2472 249.749 40.1259 249.249 39.8832 248.82C39.6406 248.391 39.3139 248.055 38.9032 247.812C38.4926 247.569 38.0259 247.448 37.5032 247.448C36.9806 247.448 36.5092 247.569 36.0892 247.812C35.6786 248.055 35.3519 248.391 35.1092 248.82C34.8759 249.249 34.7592 249.749 34.7592 250.318C34.7592 250.887 34.8759 251.391 35.1092 251.83C35.3519 252.259 35.6786 252.595 36.0892 252.838C36.5092 253.071 36.9806 253.188 37.5032 253.188ZM43.3769 254V246.65H48.5849V247.518H44.1189L44.3709 247.266V254H43.3769ZM52.7036 254.07C51.9943 254.07 51.355 253.911 50.7856 253.594C50.2256 253.267 49.7823 252.824 49.4556 252.264C49.129 251.695 48.9656 251.046 48.9656 250.318C48.9656 249.581 49.129 248.932 49.4556 248.372C49.7823 247.812 50.2256 247.373 50.7856 247.056C51.3456 246.739 51.985 246.58 52.7036 246.58C53.4316 246.58 54.0756 246.739 54.6356 247.056C55.205 247.373 55.6483 247.812 55.9656 248.372C56.2923 248.932 56.4556 249.581 56.4556 250.318C56.4556 251.046 56.2923 251.695 55.9656 252.264C55.6483 252.824 55.205 253.267 54.6356 253.594C54.0663 253.911 53.4223 254.07 52.7036 254.07ZM52.7036 253.188C53.2356 253.188 53.707 253.071 54.1176 252.838C54.5283 252.595 54.8503 252.259 55.0836 251.83C55.3263 251.391 55.4476 250.887 55.4476 250.318C55.4476 249.739 55.3263 249.235 55.0836 248.806C54.8503 248.377 54.5283 248.045 54.1176 247.812C53.707 247.569 53.2403 247.448 52.7176 247.448C52.195 247.448 51.7283 247.569 51.3176 247.812C50.907 248.045 50.5803 248.377 50.3376 248.806C50.095 249.235 49.9736 249.739 49.9736 250.318C49.9736 250.887 50.095 251.391 50.3376 251.83C50.5803 252.259 50.907 252.595 51.3176 252.838C51.7283 253.071 52.1903 253.188 52.7036 253.188ZM58.58 254V246.65H61.828C62.6587 246.65 63.312 246.809 63.788 247.126C64.2733 247.443 64.516 247.91 64.516 248.526C64.516 249.123 64.2873 249.585 63.83 249.912C63.3727 250.229 62.7707 250.388 62.024 250.388L62.22 250.094C63.0973 250.094 63.7413 250.257 64.152 250.584C64.5627 250.911 64.768 251.382 64.768 251.998C64.768 252.633 64.5347 253.127 64.068 253.482C63.6107 253.827 62.8967 254 61.926 254H58.58ZM59.546 253.216H61.884C62.5093 253.216 62.9807 253.118 63.298 252.922C63.6247 252.717 63.788 252.39 63.788 251.942C63.788 251.494 63.6433 251.167 63.354 250.962C63.0647 250.757 62.6073 250.654 61.982 250.654H59.546V253.216ZM59.546 249.912H61.758C62.3273 249.912 62.7613 249.805 63.06 249.59C63.368 249.375 63.522 249.063 63.522 248.652C63.522 248.241 63.368 247.933 63.06 247.728C62.7613 247.523 62.3273 247.42 61.758 247.42H59.546V249.912ZM65.7536 253.986L65.8236 253.132C65.8889 253.141 65.9496 253.155 66.0056 253.174C66.0709 253.183 66.1269 253.188 66.1736 253.188C66.4723 253.188 66.7103 253.076 66.8876 252.852C67.0743 252.628 67.2143 252.329 67.3076 251.956C67.4009 251.583 67.4663 251.163 67.5036 250.696C67.5409 250.22 67.5736 249.744 67.6016 249.268L67.7276 246.65H73.1176V254H72.1236V247.224L72.3756 247.518H68.3716L68.6096 247.21L68.4976 249.338C68.4696 249.973 68.4183 250.579 68.3436 251.158C68.2783 251.737 68.1709 252.245 68.0216 252.684C67.8816 253.123 67.6856 253.468 67.4336 253.72C67.1816 253.963 66.8596 254.084 66.4676 254.084C66.3556 254.084 66.2389 254.075 66.1176 254.056C66.0056 254.037 65.8843 254.014 65.7536 253.986ZM80.6893 254V251.354L80.8713 251.564H78.3793C77.4366 251.564 76.6993 251.359 76.1673 250.948C75.6353 250.537 75.3693 249.94 75.3693 249.156C75.3693 248.316 75.654 247.691 76.2233 247.28C76.7926 246.86 77.5533 246.65 78.5053 246.65H81.5993V254H80.6893ZM75.3133 254L77.3293 251.172H78.3653L76.3913 254H75.3133ZM80.6893 251.06V247.224L80.8713 247.518H78.5333C77.852 247.518 77.32 247.649 76.9373 247.91C76.564 248.171 76.3773 248.596 76.3773 249.184C76.3773 250.276 77.0726 250.822 78.4633 250.822H80.8713L80.6893 251.06ZM91.1216 254.07C90.4123 254.07 89.7729 253.911 89.2036 253.594C88.6436 253.267 88.2003 252.824 87.8736 252.264C87.5469 251.695 87.3836 251.046 87.3836 250.318C87.3836 249.581 87.5469 248.932 87.8736 248.372C88.2003 247.812 88.6436 247.373 89.2036 247.056C89.7636 246.739 90.4029 246.58 91.1216 246.58C91.8496 246.58 92.4936 246.739 93.0536 247.056C93.6229 247.373 94.0663 247.812 94.3836 248.372C94.7103 248.932 94.8736 249.581 94.8736 250.318C94.8736 251.046 94.7103 251.695 94.3836 252.264C94.0663 252.824 93.6229 253.267 93.0536 253.594C92.4843 253.911 91.8403 254.07 91.1216 254.07ZM91.1216 253.188C91.6536 253.188 92.1249 253.071 92.5356 252.838C92.9463 252.595 93.2683 252.259 93.5016 251.83C93.7443 251.391 93.8656 250.887 93.8656 250.318C93.8656 249.739 93.7443 249.235 93.5016 248.806C93.2683 248.377 92.9463 248.045 92.5356 247.812C92.1249 247.569 91.6583 247.448 91.1356 247.448C90.6129 247.448 90.1463 247.569 89.7356 247.812C89.3249 248.045 88.9983 248.377 88.7556 248.806C88.5129 249.235 88.3916 249.739 88.3916 250.318C88.3916 250.887 88.5129 251.391 88.7556 251.83C88.9983 252.259 89.3249 252.595 89.7356 252.838C90.1463 253.071 90.6083 253.188 91.1216 253.188ZM96.998 254V246.65H103.606V254H102.612V247.252L102.864 247.518H97.74L97.992 247.252V254H96.998ZM107.832 254V247.252L108.084 247.518H105.046V246.65H111.612V247.518H108.574L108.826 247.252V254H107.832ZM115.731 254.07C115.022 254.07 114.382 253.911 113.813 253.594C113.253 253.267 112.81 252.824 112.483 252.264C112.156 251.695 111.993 251.046 111.993 250.318C111.993 249.581 112.156 248.932 112.483 248.372C112.81 247.812 113.253 247.373 113.813 247.056C114.373 246.739 115.012 246.58 115.731 246.58C116.459 246.58 117.103 246.739 117.663 247.056C118.232 247.373 118.676 247.812 118.993 248.372C119.32 248.932 119.483 249.581 119.483 250.318C119.483 251.046 119.32 251.695 118.993 252.264C118.676 252.824 118.232 253.267 117.663 253.594C117.094 253.911 116.45 254.07 115.731 254.07ZM115.731 253.188C116.263 253.188 116.734 253.071 117.145 252.838C117.556 252.595 117.878 252.259 118.111 251.83C118.354 251.391 118.475 250.887 118.475 250.318C118.475 249.739 118.354 249.235 118.111 248.806C117.878 248.377 117.556 248.045 117.145 247.812C116.734 247.569 116.268 247.448 115.745 247.448C115.222 247.448 114.756 247.569 114.345 247.812C113.934 248.045 113.608 248.377 113.365 248.806C113.122 249.235 113.001 249.739 113.001 250.318C113.001 250.887 113.122 251.391 113.365 251.83C113.608 252.259 113.934 252.595 114.345 252.838C114.756 253.071 115.218 253.188 115.731 253.188ZM121.607 254V246.65H124.855C125.686 246.65 126.339 246.809 126.815 247.126C127.301 247.443 127.543 247.91 127.543 248.526C127.543 249.123 127.315 249.585 126.857 249.912C126.4 250.229 125.798 250.388 125.051 250.388L125.247 250.094C126.125 250.094 126.769 250.257 127.179 250.584C127.59 250.911 127.795 251.382 127.795 251.998C127.795 252.633 127.562 253.127 127.095 253.482C126.638 253.827 125.924 254 124.953 254H121.607ZM122.573 253.216H124.911C125.537 253.216 126.008 253.118 126.325 252.922C126.652 252.717 126.815 252.39 126.815 251.942C126.815 251.494 126.671 251.167 126.381 250.962C126.092 250.757 125.635 250.654 125.009 250.654H122.573V253.216ZM122.573 249.912H124.785C125.355 249.912 125.789 249.805 126.087 249.59C126.395 249.375 126.549 249.063 126.549 248.652C126.549 248.241 126.395 247.933 126.087 247.728C125.789 247.523 125.355 247.42 124.785 247.42H122.573V249.912ZM134.689 254V252.376L134.647 252.11V249.394C134.647 248.769 134.47 248.288 134.115 247.952C133.77 247.616 133.252 247.448 132.561 247.448C132.085 247.448 131.632 247.527 131.203 247.686C130.774 247.845 130.41 248.055 130.111 248.316L129.663 247.574C130.036 247.257 130.484 247.014 131.007 246.846C131.53 246.669 132.08 246.58 132.659 246.58C133.611 246.58 134.344 246.818 134.857 247.294C135.38 247.761 135.641 248.475 135.641 249.436V254H134.689ZM132.155 254.07C131.604 254.07 131.124 253.981 130.713 253.804C130.312 253.617 130.004 253.365 129.789 253.048C129.574 252.721 129.467 252.348 129.467 251.928C129.467 251.545 129.556 251.2 129.733 250.892C129.92 250.575 130.218 250.323 130.629 250.136C131.049 249.94 131.609 249.842 132.309 249.842H134.843V250.584H132.337C131.628 250.584 131.133 250.71 130.853 250.962C130.582 251.214 130.447 251.527 130.447 251.9C130.447 252.32 130.61 252.656 130.937 252.908C131.264 253.16 131.721 253.286 132.309 253.286C132.869 253.286 133.35 253.16 133.751 252.908C134.162 252.647 134.46 252.273 134.647 251.788L134.871 252.474C134.684 252.959 134.358 253.347 133.891 253.636C133.434 253.925 132.855 254.07 132.155 254.07ZM143.033 254V251.354L143.215 251.564H140.723C139.78 251.564 139.043 251.359 138.511 250.948C137.979 250.537 137.713 249.94 137.713 249.156C137.713 248.316 137.998 247.691 138.567 247.28C139.136 246.86 139.897 246.65 140.849 246.65H143.943V254H143.033ZM137.657 254L139.673 251.172H140.709L138.735 254H137.657ZM143.033 251.06V247.224L143.215 247.518H140.877C140.196 247.518 139.664 247.649 139.281 247.91C138.908 248.171 138.721 248.596 138.721 249.184C138.721 250.276 139.416 250.822 140.807 250.822H143.215L143.033 251.06ZM150.441 254V246.65H151.449L154.781 252.292H154.361L157.749 246.65H158.673V254H157.763V247.784L157.945 247.868L154.781 253.104H154.333L151.141 247.812L151.351 247.77V254H150.441ZM166.066 254V252.376L166.024 252.11V249.394C166.024 248.769 165.847 248.288 165.492 247.952C165.147 247.616 164.629 247.448 163.938 247.448C163.462 247.448 163.009 247.527 162.58 247.686C162.151 247.845 161.787 248.055 161.488 248.316L161.04 247.574C161.413 247.257 161.861 247.014 162.384 246.846C162.907 246.669 163.457 246.58 164.036 246.58C164.988 246.58 165.721 246.818 166.234 247.294C166.757 247.761 167.018 248.475 167.018 249.436V254H166.066ZM163.532 254.07C162.981 254.07 162.501 253.981 162.09 253.804C161.689 253.617 161.381 253.365 161.166 253.048C160.951 252.721 160.844 252.348 160.844 251.928C160.844 251.545 160.933 251.2 161.11 250.892C161.297 250.575 161.595 250.323 162.006 250.136C162.426 249.94 162.986 249.842 163.686 249.842H166.22V250.584H163.714C163.005 250.584 162.51 250.71 162.23 250.962C161.959 251.214 161.824 251.527 161.824 251.9C161.824 252.32 161.987 252.656 162.314 252.908C162.641 253.16 163.098 253.286 163.686 253.286C164.246 253.286 164.727 253.16 165.128 252.908C165.539 252.647 165.837 252.273 166.024 251.788L166.248 252.474C166.061 252.959 165.735 253.347 165.268 253.636C164.811 253.925 164.232 254.07 163.532 254.07ZM172.744 254.07C172.016 254.07 171.363 253.911 170.784 253.594C170.215 253.267 169.767 252.824 169.44 252.264C169.113 251.695 168.95 251.046 168.95 250.318C168.95 249.581 169.113 248.932 169.44 248.372C169.767 247.812 170.215 247.373 170.784 247.056C171.363 246.739 172.016 246.58 172.744 246.58C173.369 246.58 173.934 246.701 174.438 246.944C174.942 247.187 175.339 247.551 175.628 248.036L174.886 248.54C174.634 248.167 174.321 247.891 173.948 247.714C173.575 247.537 173.169 247.448 172.73 247.448C172.207 247.448 171.736 247.569 171.316 247.812C170.896 248.045 170.565 248.377 170.322 248.806C170.079 249.235 169.958 249.739 169.958 250.318C169.958 250.897 170.079 251.401 170.322 251.83C170.565 252.259 170.896 252.595 171.316 252.838C171.736 253.071 172.207 253.188 172.73 253.188C173.169 253.188 173.575 253.099 173.948 252.922C174.321 252.745 174.634 252.474 174.886 252.11L175.628 252.614C175.339 253.09 174.942 253.454 174.438 253.706C173.934 253.949 173.369 254.07 172.744 254.07ZM175.949 253.986L176.019 253.132C176.084 253.141 176.145 253.155 176.201 253.174C176.266 253.183 176.322 253.188 176.369 253.188C176.668 253.188 176.906 253.076 177.083 252.852C177.27 252.628 177.41 252.329 177.503 251.956C177.596 251.583 177.662 251.163 177.699 250.696C177.736 250.22 177.769 249.744 177.797 249.268L177.923 246.65H183.313V254H182.319V247.224L182.571 247.518H178.567L178.805 247.21L178.693 249.338C178.665 249.973 178.614 250.579 178.539 251.158C178.474 251.737 178.366 252.245 178.217 252.684C178.077 253.123 177.881 253.468 177.629 253.72C177.377 253.963 177.055 254.084 176.663 254.084C176.551 254.084 176.434 254.075 176.313 254.056C176.201 254.037 176.08 254.014 175.949 253.986ZM186.139 254V246.65H187.133V252.488L192.047 246.65H192.929V254H191.935V248.148L187.035 254H186.139ZM200.425 250.892C199.996 251.079 199.562 251.228 199.123 251.34C198.694 251.443 198.265 251.494 197.835 251.494C196.967 251.494 196.281 251.298 195.777 250.906C195.273 250.505 195.021 249.889 195.021 249.058V246.65H196.001V249.002C196.001 249.562 196.183 249.982 196.547 250.262C196.911 250.542 197.401 250.682 198.017 250.682C198.391 250.682 198.783 250.635 199.193 250.542C199.604 250.439 200.019 250.295 200.439 250.108L200.425 250.892ZM200.341 254V246.65H201.335V254H200.341ZM204.158 254V246.65H205.152V249.898H209.786V246.65H210.78V254H209.786V250.752H205.152V254H204.158ZM220.773 254V246.65H221.767V254H220.773ZM216.699 249.24C217.623 249.249 218.328 249.455 218.813 249.856C219.299 250.257 219.541 250.836 219.541 251.592C219.541 252.376 219.28 252.978 218.757 253.398C218.235 253.818 217.488 254.023 216.517 254.014L213.605 254V246.65H214.599V249.212L216.699 249.24ZM216.447 253.258C217.138 253.267 217.656 253.132 218.001 252.852C218.356 252.563 218.533 252.143 218.533 251.592C218.533 251.041 218.361 250.64 218.015 250.388C217.67 250.127 217.147 249.991 216.447 249.982L214.599 249.954V253.23L216.447 253.258ZM224.598 254V246.65H225.606L228.938 252.292H228.518L231.906 246.65H232.83V254H231.92V247.784L232.102 247.868L228.938 253.104H228.49L225.298 247.812L225.508 247.77V254H224.598ZM235.658 254V246.65H236.652V252.488L241.566 246.65H242.448V254H241.454V248.148L236.554 254H235.658ZM245.367 254.07C245.161 254.07 244.984 253.995 244.835 253.846C244.695 253.697 244.625 253.515 244.625 253.3C244.625 253.076 244.695 252.894 244.835 252.754C244.984 252.614 245.161 252.544 245.367 252.544C245.572 252.544 245.745 252.614 245.885 252.754C246.034 252.894 246.109 253.076 246.109 253.3C246.109 253.515 246.034 253.697 245.885 253.846C245.745 253.995 245.572 254.07 245.367 254.07ZM248.334 254.07C248.128 254.07 247.951 253.995 247.802 253.846C247.662 253.697 247.592 253.515 247.592 253.3C247.592 253.076 247.662 252.894 247.802 252.754C247.951 252.614 248.128 252.544 248.334 252.544C248.539 252.544 248.712 252.614 248.852 252.754C249.001 252.894 249.076 253.076 249.076 253.3C249.076 253.515 249.001 253.697 248.852 253.846C248.712 253.995 248.539 254.07 248.334 254.07ZM251.3 254.07C251.095 254.07 250.918 253.995 250.768 253.846C250.628 253.697 250.558 253.515 250.558 253.3C250.558 253.076 250.628 252.894 250.768 252.754C250.918 252.614 251.095 252.544 251.3 252.544C251.506 252.544 251.678 252.614 251.818 252.754C251.968 252.894 252.042 253.076 252.042 253.3C252.042 253.515 251.968 253.697 251.818 253.846C251.678 253.995 251.506 254.07 251.3 254.07Z" fill="#49494F"></path> <rect x="0.5" y="0.5" width="269" height="281" rx="15.5" stroke="#E2E4E7"></rect> </svg> 