<?xml version="1.0" encoding="UTF-8"?> <svg xmlns="http://www.w3.org/2000/svg" width="270" height="282" viewBox="0 0 270 282" fill="none"> <rect x="0.5" y="0.5" width="269" height="281" rx="15.5" fill="white"></rect> <rect x="16" y="24" width="40" height="40" rx="8" fill="#1B1B1C"></rect> <path d="M27.75 53.75H23.25V49.25H27.75V53.75Z" stroke="white" stroke-width="0.5"></path> <path d="M28.75 43.75H24.25V39.25H28.75V43.75Z" stroke="white" stroke-width="0.5"></path> <path d="M32.75 53.75H28.25V49.25H32.75V53.75Z" stroke="white" stroke-width="0.5"></path> <path d="M30.75 48.75H26.25V44.25H30.75V48.75Z" stroke="white" stroke-width="0.5"></path> <path d="M33.75 43.75H29.25V39.25H33.75V43.75Z" stroke="white" stroke-width="0.5"></path> <path d="M30.75 38.75H26.25V34.25H30.75V38.75Z" stroke="white" stroke-width="0.5"></path> <path d="M37.75 53.75H33.25V49.25H37.75V53.75Z" stroke="white" stroke-width="0.5"></path> <path d="M35.75 48.75H31.25V44.25H35.75V48.75Z" stroke="white" stroke-width="0.5"></path> <path d="M38.75 43.75H34.25V39.25H38.75V43.75Z" stroke="white" stroke-width="0.5"></path> <path d="M35.75 38.75H31.25V34.25H35.75V38.75Z" stroke="white" stroke-width="0.5"></path> <path d="M42.75 53.75H38.25V49.25H42.75V53.75Z" stroke="white" stroke-width="0.5"></path> <path d="M40.75 48.75H36.25V44.25H40.75V48.75Z" stroke="white" stroke-width="0.5"></path> <path d="M43.75 43.75H39.25V39.25H43.75V43.75Z" stroke="white" stroke-width="0.5"></path> <path d="M47.75 53.75H43.25V49.25H47.75V53.75Z" stroke="white" stroke-width="0.5"></path> <path d="M45.75 48.75H41.25V44.25H45.75V48.75Z" stroke="white" stroke-width="0.5"></path> <path d="M48.75 43.75H44.25V39.25H48.75V43.75Z" stroke="white" stroke-width="0.5"></path> <path d="M48.75 38.75H44.25V34.25H48.75V38.75Z" stroke="white" stroke-width="0.5"></path> <path d="M26 44H46" stroke="#356BD5" stroke-width="0.1"></path> <path d="M26 49H46" stroke="#356BD5" stroke-width="0.1"></path> <path d="M43 49V54" stroke="#356BD5" stroke-width="0.1"></path> <path d="M38 49V54" stroke="#356BD5" stroke-width="0.1"></path> <path d="M33 49V54" stroke="#356BD5" stroke-width="0.1"></path> <path d="M28 49V54" stroke="#356BD5" stroke-width="0.1"></path> <path d="M31 44V49" stroke="#356BD5" stroke-width="0.1"></path> <path d="M36 44V49" stroke="#356BD5" stroke-width="0.1"></path> <path d="M41 44V49" stroke="#356BD5" stroke-width="0.1"></path> <path d="M44 39V44" stroke="#356BD5" stroke-width="0.1"></path> <path d="M39 39V44" stroke="#356BD5" stroke-width="0.1"></path> <path d="M34 39V44" stroke="#356BD5" stroke-width="0.1"></path> <path d="M29 39V44" stroke="#356BD5" stroke-width="0.1"></path> <path d="M31 34V39" stroke="#356BD5" stroke-width="0.1"></path> <path d="M26 39H49" stroke="#356BD5" stroke-width="0.1"></path> <path d="M129.526 49V39.2H133.74C134.804 39.2 135.639 39.4147 136.246 39.844C136.853 40.2733 137.156 40.8987 137.156 41.72C137.156 42.5227 136.867 43.1387 136.288 43.568C135.709 43.988 134.949 44.198 134.006 44.198L134.258 43.778C135.35 43.778 136.185 43.9973 136.764 44.436C137.352 44.8653 137.646 45.4953 137.646 46.326C137.646 47.166 137.338 47.824 136.722 48.3C136.115 48.7667 135.21 49 134.006 49H129.526ZM130.912 47.894H133.978C134.725 47.894 135.285 47.7587 135.658 47.488C136.041 47.208 136.232 46.7833 136.232 46.214C136.232 45.6447 136.041 45.2293 135.658 44.968C135.285 44.7067 134.725 44.576 133.978 44.576H130.912V47.894ZM130.912 43.512H133.642C134.323 43.512 134.841 43.3767 135.196 43.106C135.56 42.8353 135.742 42.4387 135.742 41.916C135.742 41.384 135.56 40.9827 135.196 40.712C134.841 40.4413 134.323 40.306 133.642 40.306H130.912V43.512ZM147.097 49V41.58H148.441V49H147.097ZM143.107 44.1C144.05 44.1093 144.764 44.324 145.249 44.744C145.744 45.164 145.991 45.7567 145.991 46.522C145.991 47.3247 145.72 47.9453 145.179 48.384C144.647 48.8133 143.882 49.0233 142.883 49.014L139.761 49V41.58H141.105V44.086L143.107 44.1ZM142.785 47.992C143.382 48.0013 143.84 47.88 144.157 47.628C144.474 47.376 144.633 47.0027 144.633 46.508C144.633 46.0227 144.474 45.668 144.157 45.444C143.849 45.22 143.392 45.1033 142.785 45.094L141.105 45.066V47.978L142.785 47.992ZM156.122 48.37V42.756H152.902L152.832 44.184C152.813 44.6507 152.781 45.1033 152.734 45.542C152.697 45.9713 152.631 46.368 152.538 46.732C152.454 47.096 152.328 47.3947 152.16 47.628C151.992 47.8613 151.768 48.006 151.488 48.062L150.158 47.824C150.447 47.8333 150.681 47.74 150.858 47.544C151.035 47.3387 151.171 47.0587 151.264 46.704C151.367 46.3493 151.441 45.948 151.488 45.5C151.535 45.0427 151.572 44.5713 151.6 44.086L151.712 41.58H157.466V48.37H156.122ZM149.864 50.722V47.824H158.6V50.722H157.34V49H151.138V50.722H149.864ZM164.901 49V47.432L164.831 47.138V44.464C164.831 43.8947 164.663 43.456 164.327 43.148C164 42.8307 163.505 42.672 162.843 42.672C162.404 42.672 161.975 42.7467 161.555 42.896C161.135 43.036 160.78 43.2273 160.491 43.47L159.931 42.462C160.313 42.154 160.771 41.9207 161.303 41.762C161.844 41.594 162.409 41.51 162.997 41.51C164.014 41.51 164.798 41.7573 165.349 42.252C165.899 42.7467 166.175 43.5027 166.175 44.52V49H164.901ZM162.465 49.084C161.914 49.084 161.429 48.9907 161.009 48.804C160.598 48.6173 160.281 48.3607 160.057 48.034C159.833 47.698 159.721 47.32 159.721 46.9C159.721 46.4987 159.814 46.1347 160.001 45.808C160.197 45.4813 160.509 45.22 160.939 45.024C161.377 44.828 161.965 44.73 162.703 44.73H165.055V45.696H162.759C162.087 45.696 161.634 45.808 161.401 46.032C161.167 46.256 161.051 46.5267 161.051 46.844C161.051 47.208 161.195 47.502 161.485 47.726C161.774 47.9407 162.175 48.048 162.689 48.048C163.193 48.048 163.631 47.936 164.005 47.712C164.387 47.488 164.663 47.1613 164.831 46.732L165.097 47.656C164.919 48.0947 164.607 48.4447 164.159 48.706C163.711 48.958 163.146 49.084 162.465 49.084ZM168.595 49V41.58H169.939V44.73H174.167V41.58H175.511V49H174.167V45.892H169.939V49H168.595ZM182.906 49V39.76L183.508 40.418H180.694V39.2H184.292V49H182.906ZM190.258 49.112C189.464 49.112 188.778 48.9953 188.2 48.762C187.621 48.5287 187.173 48.1973 186.856 47.768C186.538 47.3293 186.38 46.816 186.38 46.228C186.38 45.6493 186.529 45.1593 186.828 44.758C187.136 44.3473 187.579 44.0393 188.158 43.834C188.736 43.6193 189.436 43.512 190.258 43.512C191.079 43.512 191.779 43.6193 192.358 43.834C192.946 44.0393 193.394 44.3473 193.702 44.758C194.01 45.1687 194.164 45.6587 194.164 46.228C194.164 46.816 194.005 47.3293 193.688 47.768C193.37 48.1973 192.918 48.5287 192.33 48.762C191.742 48.9953 191.051 49.112 190.258 49.112ZM190.258 47.978C191.042 47.978 191.653 47.8193 192.092 47.502C192.54 47.1753 192.764 46.7367 192.764 46.186C192.764 45.6447 192.54 45.22 192.092 44.912C191.653 44.5947 191.042 44.436 190.258 44.436C189.483 44.436 188.876 44.5947 188.438 44.912C187.999 45.22 187.78 45.6447 187.78 46.186C187.78 46.7367 187.999 47.1753 188.438 47.502C188.876 47.8193 189.483 47.978 190.258 47.978ZM190.258 44.268C189.511 44.268 188.876 44.17 188.354 43.974C187.831 43.7687 187.43 43.4793 187.15 43.106C186.87 42.7233 186.73 42.2707 186.73 41.748C186.73 41.1973 186.874 40.726 187.164 40.334C187.462 39.9327 187.878 39.6247 188.41 39.41C188.942 39.1953 189.558 39.088 190.258 39.088C190.967 39.088 191.588 39.1953 192.12 39.41C192.652 39.6247 193.067 39.9327 193.366 40.334C193.664 40.726 193.814 41.1973 193.814 41.748C193.814 42.2707 193.674 42.7233 193.394 43.106C193.114 43.4793 192.708 43.7687 192.176 43.974C191.644 44.17 191.004 44.268 190.258 44.268ZM190.258 43.372C190.939 43.372 191.471 43.232 191.854 42.952C192.246 42.672 192.442 42.2893 192.442 41.804C192.442 41.3093 192.241 40.922 191.84 40.642C191.438 40.362 190.911 40.222 190.258 40.222C189.604 40.222 189.082 40.362 188.69 40.642C188.307 40.922 188.116 41.3093 188.116 41.804C188.116 42.2893 188.302 42.672 188.676 42.952C189.058 43.232 189.586 43.372 190.258 43.372ZM196.506 49.084C196.245 49.084 196.021 48.9953 195.834 48.818C195.647 48.6313 195.554 48.398 195.554 48.118C195.554 47.838 195.647 47.6093 195.834 47.432C196.021 47.2547 196.245 47.166 196.506 47.166C196.758 47.166 196.973 47.2547 197.15 47.432C197.337 47.6093 197.43 47.838 197.43 48.118C197.43 48.398 197.337 48.6313 197.15 48.818C196.973 48.9953 196.758 49.084 196.506 49.084ZM202.594 49.112C201.829 49.112 201.143 48.916 200.536 48.524C199.939 48.132 199.463 47.5627 199.108 46.816C198.763 46.0693 198.59 45.164 198.59 44.1C198.59 43.036 198.763 42.1307 199.108 41.384C199.463 40.6373 199.939 40.068 200.536 39.676C201.143 39.284 201.829 39.088 202.594 39.088C203.35 39.088 204.031 39.284 204.638 39.676C205.245 40.068 205.721 40.6373 206.066 41.384C206.411 42.1307 206.584 43.036 206.584 44.1C206.584 45.164 206.411 46.0693 206.066 46.816C205.721 47.5627 205.245 48.132 204.638 48.524C204.031 48.916 203.35 49.112 202.594 49.112ZM202.594 47.866C203.107 47.866 203.555 47.726 203.938 47.446C204.33 47.166 204.633 46.746 204.848 46.186C205.072 45.626 205.184 44.9307 205.184 44.1C205.184 43.2693 205.072 42.574 204.848 42.014C204.633 41.454 204.33 41.034 203.938 40.754C203.555 40.474 203.107 40.334 202.594 40.334C202.081 40.334 201.628 40.474 201.236 40.754C200.844 41.034 200.536 41.454 200.312 42.014C200.097 42.574 199.99 43.2693 199.99 44.1C199.99 44.9307 200.097 45.626 200.312 46.186C200.536 46.746 200.844 47.166 201.236 47.446C201.628 47.726 202.081 47.866 202.594 47.866ZM211.75 49.112C210.957 49.112 210.271 48.9953 209.692 48.762C209.113 48.5287 208.665 48.1973 208.348 47.768C208.031 47.3293 207.872 46.816 207.872 46.228C207.872 45.6493 208.021 45.1593 208.32 44.758C208.628 44.3473 209.071 44.0393 209.65 43.834C210.229 43.6193 210.929 43.512 211.75 43.512C212.571 43.512 213.271 43.6193 213.85 43.834C214.438 44.0393 214.886 44.3473 215.194 44.758C215.502 45.1687 215.656 45.6587 215.656 46.228C215.656 46.816 215.497 47.3293 215.18 47.768C214.863 48.1973 214.41 48.5287 213.822 48.762C213.234 48.9953 212.543 49.112 211.75 49.112ZM211.75 47.978C212.534 47.978 213.145 47.8193 213.584 47.502C214.032 47.1753 214.256 46.7367 214.256 46.186C214.256 45.6447 214.032 45.22 213.584 44.912C213.145 44.5947 212.534 44.436 211.75 44.436C210.975 44.436 210.369 44.5947 209.93 44.912C209.491 45.22 209.272 45.6447 209.272 46.186C209.272 46.7367 209.491 47.1753 209.93 47.502C210.369 47.8193 210.975 47.978 211.75 47.978ZM211.75 44.268C211.003 44.268 210.369 44.17 209.846 43.974C209.323 43.7687 208.922 43.4793 208.642 43.106C208.362 42.7233 208.222 42.2707 208.222 41.748C208.222 41.1973 208.367 40.726 208.656 40.334C208.955 39.9327 209.37 39.6247 209.902 39.41C210.434 39.1953 211.05 39.088 211.75 39.088C212.459 39.088 213.08 39.1953 213.612 39.41C214.144 39.6247 214.559 39.9327 214.858 40.334C215.157 40.726 215.306 41.1973 215.306 41.748C215.306 42.2707 215.166 42.7233 214.886 43.106C214.606 43.4793 214.2 43.7687 213.668 43.974C213.136 44.17 212.497 44.268 211.75 44.268ZM211.75 43.372C212.431 43.372 212.963 43.232 213.346 42.952C213.738 42.672 213.934 42.2893 213.934 41.804C213.934 41.3093 213.733 40.922 213.332 40.642C212.931 40.362 212.403 40.222 211.75 40.222C211.097 40.222 210.574 40.362 210.182 40.642C209.799 40.922 209.608 41.3093 209.608 41.804C209.608 42.2893 209.795 42.672 210.168 42.952C210.551 43.232 211.078 43.372 211.75 43.372ZM217.998 49.084C217.737 49.084 217.513 48.9953 217.326 48.818C217.14 48.6313 217.046 48.398 217.046 48.118C217.046 47.838 217.14 47.6093 217.326 47.432C217.513 47.2547 217.737 47.166 217.998 47.166C218.25 47.166 218.465 47.2547 218.642 47.432C218.829 47.6093 218.922 47.838 218.922 48.118C218.922 48.398 218.829 48.6313 218.642 48.818C218.465 48.9953 218.25 49.084 217.998 49.084ZM220.229 49V48.048L224.219 44.198C224.574 43.862 224.835 43.568 225.003 43.316C225.18 43.0547 225.297 42.8167 225.353 42.602C225.418 42.378 225.451 42.1633 225.451 41.958C225.451 41.454 225.274 41.0573 224.919 40.768C224.564 40.4787 224.046 40.334 223.365 40.334C222.842 40.334 222.371 40.4227 221.951 40.6C221.531 40.768 221.167 41.034 220.859 41.398L219.907 40.572C220.28 40.096 220.78 39.732 221.405 39.48C222.04 39.2187 222.735 39.088 223.491 39.088C224.172 39.088 224.765 39.2 225.269 39.424C225.773 39.6387 226.16 39.9513 226.431 40.362C226.711 40.7727 226.851 41.258 226.851 41.818C226.851 42.1353 226.809 42.448 226.725 42.756C226.641 43.064 226.482 43.3907 226.249 43.736C226.016 44.0813 225.68 44.4687 225.241 44.898L221.685 48.328L221.349 47.782H227.271V49H220.229ZM232.412 49.112C231.647 49.112 230.961 48.916 230.354 48.524C229.757 48.132 229.281 47.5627 228.926 46.816C228.581 46.0693 228.408 45.164 228.408 44.1C228.408 43.036 228.581 42.1307 228.926 41.384C229.281 40.6373 229.757 40.068 230.354 39.676C230.961 39.284 231.647 39.088 232.412 39.088C233.168 39.088 233.85 39.284 234.456 39.676C235.063 40.068 235.539 40.6373 235.884 41.384C236.23 42.1307 236.402 43.036 236.402 44.1C236.402 45.164 236.23 46.0693 235.884 46.816C235.539 47.5627 235.063 48.132 234.456 48.524C233.85 48.916 233.168 49.112 232.412 49.112ZM232.412 47.866C232.926 47.866 233.374 47.726 233.756 47.446C234.148 47.166 234.452 46.746 234.666 46.186C234.89 45.626 235.002 44.9307 235.002 44.1C235.002 43.2693 234.89 42.574 234.666 42.014C234.452 41.454 234.148 41.034 233.756 40.754C233.374 40.474 232.926 40.334 232.412 40.334C231.899 40.334 231.446 40.474 231.054 40.754C230.662 41.034 230.354 41.454 230.13 42.014C229.916 42.574 229.808 43.2693 229.808 44.1C229.808 44.9307 229.916 45.626 230.13 46.186C230.354 46.746 230.662 47.166 231.054 47.446C231.446 47.726 231.899 47.866 232.412 47.866ZM237.592 49V48.048L241.582 44.198C241.937 43.862 242.198 43.568 242.366 43.316C242.544 43.0547 242.66 42.8167 242.716 42.602C242.782 42.378 242.814 42.1633 242.814 41.958C242.814 41.454 242.637 41.0573 242.282 40.768C241.928 40.4787 241.41 40.334 240.728 40.334C240.206 40.334 239.734 40.4227 239.314 40.6C238.894 40.768 238.53 41.034 238.222 41.398L237.27 40.572C237.644 40.096 238.143 39.732 238.768 39.48C239.403 39.2187 240.098 39.088 240.854 39.088C241.536 39.088 242.128 39.2 242.632 39.424C243.136 39.6387 243.524 39.9513 243.794 40.362C244.074 40.7727 244.214 41.258 244.214 41.818C244.214 42.1353 244.172 42.448 244.088 42.756C244.004 43.064 243.846 43.3907 243.612 43.736C243.379 44.0813 243.043 44.4687 242.604 44.898L239.048 48.328L238.712 47.782H244.634V49H237.592ZM245.631 49V48.048L249.621 44.198C249.976 43.862 250.237 43.568 250.405 43.316C250.583 43.0547 250.699 42.8167 250.755 42.602C250.821 42.378 250.853 42.1633 250.853 41.958C250.853 41.454 250.676 41.0573 250.321 40.768C249.967 40.4787 249.449 40.334 248.767 40.334C248.245 40.334 247.773 40.4227 247.353 40.6C246.933 40.768 246.569 41.034 246.261 41.398L245.309 40.572C245.683 40.096 246.182 39.732 246.807 39.48C247.442 39.2187 248.137 39.088 248.893 39.088C249.575 39.088 250.167 39.2 250.671 39.424C251.175 39.6387 251.563 39.9513 251.833 40.362C252.113 40.7727 252.253 41.258 252.253 41.818C252.253 42.1353 252.211 42.448 252.127 42.756C252.043 43.064 251.885 43.3907 251.651 43.736C251.418 44.0813 251.082 44.4687 250.643 44.898L247.087 48.328L246.751 47.782H252.673V49H245.631Z" fill="#49494F"></path> <path d="M22.288 121.192C21.104 121.192 19.952 121.008 18.832 120.64C17.728 120.272 16.824 119.776 16.12 119.152L17.224 117.256C17.784 117.784 18.512 118.216 19.408 118.552C20.304 118.888 21.264 119.056 22.288 119.056C23.536 119.056 24.504 118.792 25.192 118.264C25.896 117.72 26.248 116.992 26.248 116.08C26.248 115.2 25.912 114.496 25.24 113.968C24.584 113.424 23.536 113.152 22.096 113.152H20.752V111.472L25.744 105.328L26.08 106.288H16.888V104.2H27.976V105.832L23.008 111.952L21.76 111.208H22.552C24.584 111.208 26.104 111.664 27.112 112.576C28.136 113.488 28.648 114.648 28.648 116.056C28.648 117 28.416 117.864 27.952 118.648C27.488 119.432 26.784 120.056 25.84 120.52C24.912 120.968 23.728 121.192 22.288 121.192ZM33.5091 121L40.6371 105.208L41.2611 106.288H31.2771L32.4771 105.112V109.288H30.1731V104.2H42.8451V105.832L36.0531 121H33.5091ZM48.0153 121V105.16L49.0473 106.288H44.2233V104.2H50.3913V121H48.0153ZM63.4154 121L70.5434 105.208L71.1674 106.288H61.1834L62.3834 105.112V109.288H60.0794V104.2H72.7514V105.832L65.9594 121H63.4154ZM77.9215 121V105.16L78.9535 106.288H74.1295V104.2H80.2975V121H77.9215ZM86.8043 121V105.16L87.8363 106.288H83.0123V104.2H89.1803V121H86.8043ZM92.9751 124.552L94.1751 119.704L94.4871 121.096C94.0231 121.096 93.6311 120.952 93.3111 120.664C93.0071 120.376 92.8551 119.984 92.8551 119.488C92.8551 119.008 93.0071 118.616 93.3111 118.312C93.6311 118.008 94.0151 117.856 94.4631 117.856C94.9271 117.856 95.3031 118.016 95.5911 118.336C95.8791 118.64 96.0231 119.024 96.0231 119.488C96.0231 119.648 96.0071 119.808 95.9751 119.968C95.9591 120.112 95.9191 120.288 95.8551 120.496C95.8071 120.688 95.7271 120.928 95.6151 121.216L94.4871 124.552H92.9751ZM103.717 121.192C102.533 121.192 101.381 121.008 100.261 120.64C99.1566 120.272 98.2526 119.776 97.5486 119.152L98.6526 117.256C99.2126 117.784 99.9406 118.216 100.837 118.552C101.733 118.888 102.685 119.056 103.693 119.056C104.973 119.056 105.957 118.784 106.645 118.24C107.333 117.696 107.677 116.968 107.677 116.056C107.677 115.432 107.525 114.888 107.221 114.424C106.917 113.96 106.389 113.608 105.637 113.368C104.901 113.112 103.885 112.984 102.589 112.984H98.7726L99.6606 104.2H109.141V106.288H100.549L101.797 105.112L101.101 112.048L99.8526 110.896H103.093C104.773 110.896 106.125 111.112 107.149 111.544C108.173 111.976 108.917 112.576 109.381 113.344C109.845 114.096 110.077 114.968 110.077 115.96C110.077 116.92 109.845 117.8 109.381 118.6C108.917 119.384 108.213 120.016 107.269 120.496C106.341 120.96 105.157 121.192 103.717 121.192ZM119.13 121.192C117.642 121.192 116.37 120.864 115.314 120.208C114.258 119.552 113.45 118.608 112.89 117.376C112.346 116.128 112.074 114.608 112.074 112.816C112.074 110.912 112.41 109.304 113.082 107.992C113.754 106.68 114.69 105.688 115.89 105.016C117.09 104.344 118.466 104.008 120.018 104.008C120.818 104.008 121.578 104.088 122.298 104.248C123.034 104.408 123.666 104.656 124.194 104.992L123.282 106.864C122.85 106.56 122.354 106.352 121.794 106.24C121.25 106.128 120.674 106.072 120.066 106.072C118.354 106.072 116.994 106.608 115.986 107.68C114.978 108.736 114.474 110.312 114.474 112.408C114.474 112.744 114.49 113.144 114.522 113.608C114.554 114.072 114.634 114.528 114.762 114.976L113.946 114.16C114.186 113.424 114.562 112.808 115.074 112.312C115.602 111.8 116.226 111.424 116.946 111.184C117.682 110.928 118.474 110.8 119.322 110.8C120.442 110.8 121.434 111.008 122.298 111.424C123.162 111.84 123.842 112.432 124.338 113.2C124.834 113.952 125.082 114.848 125.082 115.888C125.082 116.96 124.818 117.896 124.29 118.696C123.762 119.496 123.05 120.112 122.154 120.544C121.258 120.976 120.25 121.192 119.13 121.192ZM119.034 119.248C119.77 119.248 120.41 119.112 120.954 118.84C121.514 118.568 121.954 118.192 122.274 117.712C122.594 117.216 122.754 116.64 122.754 115.984C122.754 114.992 122.41 114.208 121.722 113.632C121.034 113.04 120.098 112.744 118.914 112.744C118.146 112.744 117.474 112.888 116.898 113.176C116.322 113.464 115.866 113.856 115.53 114.352C115.21 114.832 115.05 115.384 115.05 116.008C115.05 116.584 115.202 117.12 115.506 117.616C115.81 118.096 116.258 118.488 116.85 118.792C117.442 119.096 118.17 119.248 119.034 119.248ZM129.137 121V104.2H135.737C137.897 104.2 139.601 104.68 140.849 105.64C142.097 106.584 142.721 107.968 142.721 109.792C142.721 111.616 142.097 113.008 140.849 113.968C139.601 114.928 137.897 115.408 135.737 115.408H130.481L131.561 114.28V121H129.137ZM131.561 114.52L130.481 113.416H135.737C137.209 113.416 138.337 113.104 139.121 112.48C139.905 111.856 140.297 110.968 140.297 109.816C140.297 108.68 139.905 107.808 139.121 107.2C138.337 106.592 137.209 106.288 135.737 106.288H130.481L131.561 105.088V114.52ZM126.689 118.192V116.824H136.889V118.192H126.689Z" fill="#161617"></path> <path d="M224.192 114.128C223.403 114.128 222.635 114.005 221.888 113.76C221.152 113.515 220.549 113.184 220.08 112.768L220.816 111.504C221.189 111.856 221.675 112.144 222.272 112.368C222.869 112.592 223.509 112.704 224.192 112.704C225.024 112.704 225.669 112.528 226.128 112.176C226.597 111.813 226.832 111.328 226.832 110.72C226.832 110.133 226.608 109.664 226.16 109.312C225.723 108.949 225.024 108.768 224.064 108.768H223.168V107.648L226.496 103.552L226.72 104.192H220.592V102.8H227.984V103.888L224.672 107.968L223.84 107.472H224.368C225.723 107.472 226.736 107.776 227.408 108.384C228.091 108.992 228.432 109.765 228.432 110.704C228.432 111.333 228.277 111.909 227.968 112.432C227.659 112.955 227.189 113.371 226.56 113.68C225.941 113.979 225.152 114.128 224.192 114.128ZM234.5 114.128C233.626 114.128 232.842 113.904 232.148 113.456C231.466 113.008 230.922 112.357 230.516 111.504C230.122 110.651 229.924 109.616 229.924 108.4C229.924 107.184 230.122 106.149 230.516 105.296C230.922 104.443 231.466 103.792 232.148 103.344C232.842 102.896 233.626 102.672 234.5 102.672C235.364 102.672 236.143 102.896 236.836 103.344C237.53 103.792 238.074 104.443 238.468 105.296C238.863 106.149 239.06 107.184 239.06 108.4C239.06 109.616 238.863 110.651 238.468 111.504C238.074 112.357 237.53 113.008 236.836 113.456C236.143 113.904 235.364 114.128 234.5 114.128ZM234.5 112.704C235.087 112.704 235.599 112.544 236.036 112.224C236.484 111.904 236.831 111.424 237.076 110.784C237.332 110.144 237.46 109.349 237.46 108.4C237.46 107.451 237.332 106.656 237.076 106.016C236.831 105.376 236.484 104.896 236.036 104.576C235.599 104.256 235.087 104.096 234.5 104.096C233.914 104.096 233.396 104.256 232.948 104.576C232.5 104.896 232.148 105.376 231.892 106.016C231.647 106.656 231.524 107.451 231.524 108.4C231.524 109.349 231.647 110.144 231.892 110.784C232.148 111.424 232.5 111.904 232.948 112.224C233.396 112.544 233.914 112.704 234.5 112.704ZM242.132 114L249.78 102.8H251.012L243.364 114H242.132ZM243.028 108.816C242.516 108.816 242.063 108.688 241.668 108.432C241.273 108.176 240.964 107.819 240.74 107.36C240.527 106.901 240.42 106.368 240.42 105.76C240.42 105.152 240.527 104.619 240.74 104.16C240.964 103.701 241.273 103.344 241.668 103.088C242.063 102.832 242.516 102.704 243.028 102.704C243.551 102.704 244.004 102.832 244.388 103.088C244.783 103.344 245.087 103.701 245.3 104.16C245.513 104.619 245.62 105.152 245.62 105.76C245.62 106.368 245.513 106.901 245.3 107.36C245.087 107.819 244.783 108.176 244.388 108.432C244.004 108.688 243.551 108.816 243.028 108.816ZM243.028 107.904C243.519 107.904 243.903 107.717 244.18 107.344C244.457 106.96 244.596 106.432 244.596 105.76C244.596 105.088 244.457 104.565 244.18 104.192C243.903 103.808 243.519 103.616 243.028 103.616C242.548 103.616 242.164 103.808 241.876 104.192C241.599 104.565 241.46 105.088 241.46 105.76C241.46 106.421 241.599 106.944 241.876 107.328C242.164 107.712 242.548 107.904 243.028 107.904ZM250.116 114.096C249.604 114.096 249.151 113.968 248.756 113.712C248.361 113.456 248.057 113.099 247.844 112.64C247.631 112.181 247.524 111.648 247.524 111.04C247.524 110.432 247.631 109.899 247.844 109.44C248.057 108.981 248.361 108.624 248.756 108.368C249.151 108.112 249.604 107.984 250.116 107.984C250.639 107.984 251.092 108.112 251.476 108.368C251.871 108.624 252.175 108.981 252.388 109.44C252.612 109.899 252.724 110.432 252.724 111.04C252.724 111.648 252.612 112.181 252.388 112.64C252.175 113.099 251.871 113.456 251.476 113.712C251.092 113.968 250.639 114.096 250.116 114.096ZM250.116 113.184C250.596 113.184 250.975 112.997 251.252 112.624C251.54 112.24 251.684 111.712 251.684 111.04C251.684 110.379 251.54 109.856 251.252 109.472C250.975 109.088 250.596 108.896 250.116 108.896C249.636 108.896 249.252 109.088 248.964 109.472C248.687 109.845 248.548 110.368 248.548 111.04C248.548 111.712 248.687 112.24 248.964 112.624C249.252 112.997 249.636 113.184 250.116 113.184Z" fill="#2CCC39"></path> <path d="M254 143H16V145H254V143Z" fill="#DDDDDD" mask="url(#path-36-inside-1_2132_3154)"></path> <path d="M22.8 178.096C21.9573 178.096 21.1733 177.957 20.448 177.68C19.7333 177.392 19.1093 176.992 18.576 176.48C18.0533 175.957 17.6427 175.355 17.344 174.672C17.056 173.979 16.912 173.221 16.912 172.4C16.912 171.579 17.056 170.827 17.344 170.144C17.6427 169.451 18.0533 168.848 18.576 168.336C19.1093 167.813 19.7333 167.413 20.448 167.136C21.1627 166.848 21.9467 166.704 22.8 166.704C23.6427 166.704 24.4213 166.848 25.136 167.136C25.8507 167.413 26.4693 167.808 26.992 168.32C27.5253 168.832 27.936 169.435 28.224 170.128C28.5227 170.821 28.672 171.579 28.672 172.4C28.672 173.221 28.5227 173.979 28.224 174.672C27.936 175.365 27.5253 175.968 26.992 176.48C26.4693 176.992 25.8507 177.392 25.136 177.68C24.4213 177.957 23.6427 178.096 22.8 178.096ZM22.8 177.04C23.472 177.04 24.0907 176.928 24.656 176.704C25.232 176.469 25.728 176.144 26.144 175.728C26.5707 175.301 26.9013 174.811 27.136 174.256C27.3707 173.691 27.488 173.072 27.488 172.4C27.488 171.728 27.3707 171.115 27.136 170.56C26.9013 169.995 26.5707 169.504 26.144 169.088C25.728 168.661 25.232 168.336 24.656 168.112C24.0907 167.877 23.472 167.76 22.8 167.76C22.128 167.76 21.504 167.877 20.928 168.112C20.352 168.336 19.8507 168.661 19.424 169.088C19.008 169.504 18.6773 169.995 18.432 170.56C18.1973 171.115 18.08 171.728 18.08 172.4C18.08 173.061 18.1973 173.675 18.432 174.24C18.6773 174.805 19.008 175.301 19.424 175.728C19.8507 176.144 20.352 176.469 20.928 176.704C21.504 176.928 22.128 177.04 22.8 177.04ZM36.4094 178.096C35.5667 178.096 34.7827 177.957 34.0574 177.68C33.3427 177.392 32.7187 176.992 32.1854 176.48C31.6627 175.957 31.252 175.355 30.9534 174.672C30.6654 173.979 30.5214 173.221 30.5214 172.4C30.5214 171.579 30.6654 170.827 30.9534 170.144C31.252 169.451 31.6627 168.848 32.1854 168.336C32.7187 167.813 33.3427 167.413 34.0574 167.136C34.772 166.848 35.556 166.704 36.4094 166.704C37.252 166.704 38.0307 166.848 38.7454 167.136C39.46 167.413 40.0787 167.808 40.6014 168.32C41.1347 168.832 41.5454 169.435 41.8334 170.128C42.132 170.821 42.2814 171.579 42.2814 172.4C42.2814 173.221 42.132 173.979 41.8334 174.672C41.5454 175.365 41.1347 175.968 40.6014 176.48C40.0787 176.992 39.46 177.392 38.7454 177.68C38.0307 177.957 37.252 178.096 36.4094 178.096ZM36.4094 177.04C37.0814 177.04 37.7 176.928 38.2654 176.704C38.8414 176.469 39.3374 176.144 39.7534 175.728C40.18 175.301 40.5107 174.811 40.7454 174.256C40.98 173.691 41.0974 173.072 41.0974 172.4C41.0974 171.728 40.98 171.115 40.7454 170.56C40.5107 169.995 40.18 169.504 39.7534 169.088C39.3374 168.661 38.8414 168.336 38.2654 168.112C37.7 167.877 37.0814 167.76 36.4094 167.76C35.7374 167.76 35.1134 167.877 34.5374 168.112C33.9614 168.336 33.46 168.661 33.0334 169.088C32.6174 169.504 32.2867 169.995 32.0414 170.56C31.8067 171.115 31.6894 171.728 31.6894 172.4C31.6894 173.061 31.8067 173.675 32.0414 174.24C32.2867 174.805 32.6174 175.301 33.0334 175.728C33.46 176.144 33.9614 176.469 34.5374 176.704C35.1134 176.928 35.7374 177.04 36.4094 177.04ZM50.0188 178.096C49.1761 178.096 48.3921 177.957 47.6668 177.68C46.9521 177.392 46.3281 176.992 45.7948 176.48C45.2721 175.957 44.8614 175.355 44.5628 174.672C44.2748 173.979 44.1308 173.221 44.1308 172.4C44.1308 171.579 44.2748 170.827 44.5628 170.144C44.8614 169.451 45.2721 168.848 45.7948 168.336C46.3281 167.813 46.9521 167.413 47.6668 167.136C48.3814 166.848 49.1654 166.704 50.0188 166.704C50.8614 166.704 51.6401 166.848 52.3548 167.136C53.0694 167.413 53.6881 167.808 54.2108 168.32C54.7441 168.832 55.1548 169.435 55.4428 170.128C55.7414 170.821 55.8908 171.579 55.8908 172.4C55.8908 173.221 55.7414 173.979 55.4428 174.672C55.1548 175.365 54.7441 175.968 54.2108 176.48C53.6881 176.992 53.0694 177.392 52.3548 177.68C51.6401 177.957 50.8614 178.096 50.0188 178.096ZM50.0188 177.04C50.6908 177.04 51.3094 176.928 51.8748 176.704C52.4508 176.469 52.9468 176.144 53.3628 175.728C53.7894 175.301 54.1201 174.811 54.3548 174.256C54.5894 173.691 54.7068 173.072 54.7068 172.4C54.7068 171.728 54.5894 171.115 54.3548 170.56C54.1201 169.995 53.7894 169.504 53.3628 169.088C52.9468 168.661 52.4508 168.336 51.8748 168.112C51.3094 167.877 50.6908 167.76 50.0188 167.76C49.3468 167.76 48.7228 167.877 48.1468 168.112C47.5708 168.336 47.0694 168.661 46.6428 169.088C46.2268 169.504 45.8961 169.995 45.6508 170.56C45.4161 171.115 45.2988 171.728 45.2988 172.4C45.2988 173.061 45.4161 173.675 45.6508 174.24C45.8961 174.805 46.2268 175.301 46.6428 175.728C47.0694 176.144 47.5708 176.469 48.1468 176.704C48.7228 176.928 49.3468 177.04 50.0188 177.04ZM63.5116 166.128L62.8076 169.088L62.6796 168.4C62.9356 168.4 63.1436 168.48 63.3036 168.64C63.4636 168.789 63.5436 168.992 63.5436 169.248C63.5436 169.504 63.4636 169.712 63.3036 169.872C63.1436 170.032 62.9463 170.112 62.7116 170.112C62.4556 170.112 62.2476 170.032 62.0876 169.872C61.9383 169.701 61.8636 169.493 61.8636 169.248C61.8636 169.152 61.869 169.067 61.8796 168.992C61.8903 168.917 61.9116 168.827 61.9436 168.72C61.9756 168.613 62.0183 168.485 62.0716 168.336L62.7436 166.128H63.5116ZM66.2316 166.128L65.5276 169.088L65.3996 168.4C65.6556 168.4 65.8636 168.48 66.0236 168.64C66.1836 168.789 66.2636 168.992 66.2636 169.248C66.2636 169.504 66.1836 169.712 66.0236 169.872C65.8636 170.032 65.6663 170.112 65.4316 170.112C65.1756 170.112 64.9676 170.032 64.8076 169.872C64.6583 169.701 64.5836 169.493 64.5836 169.248C64.5836 169.152 64.589 169.067 64.5996 168.992C64.6103 168.917 64.6316 168.827 64.6636 168.72C64.6956 168.613 64.7383 168.485 64.7916 168.336L65.4636 166.128H66.2316ZM69.013 178V166.8H73.669C74.853 166.8 75.781 167.045 76.453 167.536C77.1357 168.016 77.477 168.725 77.477 169.664C77.477 170.592 77.1517 171.296 76.501 171.776C75.8503 172.245 74.997 172.48 73.941 172.48L74.213 172.08C75.461 172.08 76.4103 172.325 77.061 172.816C77.7117 173.307 78.037 174.027 78.037 174.976C78.037 175.936 77.6957 176.683 77.013 177.216C76.341 177.739 75.3277 178 73.973 178H69.013ZM70.181 177.056H73.973C74.9223 177.056 75.6423 176.88 76.133 176.528C76.6237 176.176 76.869 175.632 76.869 174.896C76.869 174.171 76.6237 173.637 76.133 173.296C75.6423 172.955 74.9223 172.784 73.973 172.784H70.181V177.056ZM70.181 171.872H73.605C74.469 171.872 75.1303 171.701 75.589 171.36C76.0583 171.008 76.293 170.491 76.293 169.808C76.293 169.125 76.0583 168.613 75.589 168.272C75.1303 167.92 74.469 167.744 73.605 167.744H70.181V171.872ZM84.3254 178.08C83.4507 178.08 82.6827 177.899 82.0214 177.536C81.36 177.163 80.8427 176.656 80.4694 176.016C80.096 175.365 79.9094 174.624 79.9094 173.792C79.9094 172.96 80.0854 172.224 80.4374 171.584C80.8 170.944 81.2907 170.443 81.9094 170.08C82.5387 169.707 83.2427 169.52 84.0214 169.52C84.8107 169.52 85.5094 169.701 86.1174 170.064C86.736 170.416 87.2214 170.917 87.5734 171.568C87.9254 172.208 88.1014 172.949 88.1014 173.792C88.1014 173.845 88.096 173.904 88.0854 173.968C88.0854 174.021 88.0854 174.08 88.0854 174.144H80.7734V173.296H87.4774L87.0294 173.632C87.0294 173.024 86.896 172.485 86.6294 172.016C86.3734 171.536 86.0214 171.163 85.5734 170.896C85.1254 170.629 84.608 170.496 84.0214 170.496C83.4454 170.496 82.928 170.629 82.4694 170.896C82.0107 171.163 81.6534 171.536 81.3974 172.016C81.1414 172.496 81.0134 173.045 81.0134 173.664V173.84C81.0134 174.48 81.152 175.045 81.4294 175.536C81.7174 176.016 82.112 176.395 82.6134 176.672C83.1254 176.939 83.7067 177.072 84.3574 177.072C84.8694 177.072 85.344 176.981 85.7814 176.8C86.2294 176.619 86.6134 176.341 86.9334 175.968L87.5734 176.704C87.2 177.152 86.7307 177.493 86.1654 177.728C85.6107 177.963 84.9974 178.08 84.3254 178.08ZM90.616 178V169.6H91.752V173.312H97.048V169.6H98.184V178H97.048V174.288H91.752V178H90.616ZM103.013 178V170.288L103.301 170.592H99.8289V169.6H107.333V170.592H103.861L104.149 170.288V178H103.013ZM108.975 178V169.6H110.127L113.935 176.048H113.455L117.327 169.6H118.383V178H117.343V170.896L117.551 170.992L113.935 176.976H113.423L109.775 170.928L110.015 170.88V178H108.975ZM125.072 178.08C124.261 178.08 123.531 177.899 122.88 177.536C122.24 177.163 121.733 176.656 121.36 176.016C120.987 175.365 120.8 174.624 120.8 173.792C120.8 172.949 120.987 172.208 121.36 171.568C121.733 170.928 122.24 170.427 122.88 170.064C123.52 169.701 124.251 169.52 125.072 169.52C125.904 169.52 126.64 169.701 127.28 170.064C127.931 170.427 128.437 170.928 128.8 171.568C129.173 172.208 129.36 172.949 129.36 173.792C129.36 174.624 129.173 175.365 128.8 176.016C128.437 176.656 127.931 177.163 127.28 177.536C126.629 177.899 125.893 178.08 125.072 178.08ZM125.072 177.072C125.68 177.072 126.219 176.939 126.688 176.672C127.157 176.395 127.525 176.011 127.792 175.52C128.069 175.019 128.208 174.443 128.208 173.792C128.208 173.131 128.069 172.555 127.792 172.064C127.525 171.573 127.157 171.195 126.688 170.928C126.219 170.651 125.685 170.512 125.088 170.512C124.491 170.512 123.957 170.651 123.488 170.928C123.019 171.195 122.645 171.573 122.368 172.064C122.091 172.555 121.952 173.131 121.952 173.792C121.952 174.443 122.091 175.019 122.368 175.52C122.645 176.011 123.019 176.395 123.488 176.672C123.957 176.939 124.485 177.072 125.072 177.072ZM131.788 178V169.6H132.924V173.312H138.22V169.6H139.356V178H138.22V174.288H132.924V178H131.788ZM144.185 178V170.288L144.473 170.592H141.001V169.6H148.505V170.592H145.033L145.321 170.288V178H144.185ZM155.363 178V176.144L155.315 175.84V172.736C155.315 172.021 155.113 171.472 154.707 171.088C154.313 170.704 153.721 170.512 152.931 170.512C152.387 170.512 151.87 170.603 151.379 170.784C150.889 170.965 150.473 171.205 150.131 171.504L149.619 170.656C150.046 170.293 150.558 170.016 151.155 169.824C151.753 169.621 152.382 169.52 153.043 169.52C154.131 169.52 154.969 169.792 155.555 170.336C156.153 170.869 156.451 171.685 156.451 172.784V178H155.363ZM152.467 178.08C151.838 178.08 151.289 177.979 150.819 177.776C150.361 177.563 150.009 177.275 149.763 176.912C149.518 176.539 149.395 176.112 149.395 175.632C149.395 175.195 149.497 174.8 149.699 174.448C149.913 174.085 150.254 173.797 150.723 173.584C151.203 173.36 151.843 173.248 152.643 173.248H155.539V174.096H152.675C151.865 174.096 151.299 174.24 150.979 174.528C150.67 174.816 150.515 175.173 150.515 175.6C150.515 176.08 150.702 176.464 151.075 176.752C151.449 177.04 151.971 177.184 152.643 177.184C153.283 177.184 153.833 177.04 154.291 176.752C154.761 176.453 155.102 176.027 155.315 175.472L155.571 176.256C155.358 176.811 154.985 177.253 154.451 177.584C153.929 177.915 153.267 178.08 152.467 178.08ZM169.443 178L166.563 173.84L167.507 173.28L170.803 178H169.443ZM164.675 174.256V173.28H167.331V174.256H164.675ZM167.619 173.92L166.531 173.76L169.331 169.6H170.563L167.619 173.92ZM159.491 178H158.131L161.427 173.28L162.355 173.84L159.491 178ZM165.027 178H163.891V169.6H165.027V178ZM164.243 174.256H161.603V173.28H164.243V174.256ZM161.331 173.92L158.371 169.6H159.603L162.387 173.76L161.331 173.92Z" fill="#49494F"></path> <path d="M254 223H16V225H254V223Z" fill="#DDDDDD" mask="url(#path-40-inside-2_2132_3154)"></path> <path d="M17.652 254V244.2H25.898V254H24.876V244.816L25.142 245.096H18.408L18.674 244.816V254H17.652ZM32.7607 254.07C32.1261 254.07 31.5521 253.925 31.0387 253.636C30.5254 253.337 30.1147 252.913 29.8067 252.362C29.5081 251.802 29.3587 251.121 29.3587 250.318C29.3587 249.515 29.5081 248.839 29.8067 248.288C30.1054 247.728 30.5114 247.303 31.0247 247.014C31.5381 246.725 32.1167 246.58 32.7607 246.58C33.4607 246.58 34.0861 246.739 34.6367 247.056C35.1967 247.364 35.6354 247.803 35.9527 248.372C36.2701 248.932 36.4287 249.581 36.4287 250.318C36.4287 251.065 36.2701 251.718 35.9527 252.278C35.6354 252.838 35.1967 253.277 34.6367 253.594C34.0861 253.911 33.4607 254.07 32.7607 254.07ZM28.9667 256.716V246.65H29.9187V248.862L29.8207 250.332L29.9607 251.816V256.716H28.9667ZM32.6907 253.188C33.2134 253.188 33.6801 253.071 34.0907 252.838C34.5014 252.595 34.8281 252.259 35.0707 251.83C35.3134 251.391 35.4347 250.887 35.4347 250.318C35.4347 249.749 35.3134 249.249 35.0707 248.82C34.8281 248.391 34.5014 248.055 34.0907 247.812C33.6801 247.569 33.2134 247.448 32.6907 247.448C32.1681 247.448 31.6967 247.569 31.2767 247.812C30.8661 248.055 30.5394 248.391 30.2967 248.82C30.0634 249.249 29.9467 249.749 29.9467 250.318C29.9467 250.887 30.0634 251.391 30.2967 251.83C30.5394 252.259 30.8661 252.595 31.2767 252.838C31.6967 253.071 32.1681 253.188 32.6907 253.188ZM41.5884 254.07C40.8791 254.07 40.2397 253.911 39.6704 253.594C39.1104 253.267 38.6671 252.824 38.3404 252.264C38.0137 251.695 37.8504 251.046 37.8504 250.318C37.8504 249.581 38.0137 248.932 38.3404 248.372C38.6671 247.812 39.1104 247.373 39.6704 247.056C40.2304 246.739 40.8697 246.58 41.5884 246.58C42.3164 246.58 42.9604 246.739 43.5204 247.056C44.0897 247.373 44.5331 247.812 44.8504 248.372C45.1771 248.932 45.3404 249.581 45.3404 250.318C45.3404 251.046 45.1771 251.695 44.8504 252.264C44.5331 252.824 44.0897 253.267 43.5204 253.594C42.9511 253.911 42.3071 254.07 41.5884 254.07ZM41.5884 253.188C42.1204 253.188 42.5917 253.071 43.0024 252.838C43.4131 252.595 43.7351 252.259 43.9684 251.83C44.2111 251.391 44.3324 250.887 44.3324 250.318C44.3324 249.739 44.2111 249.235 43.9684 248.806C43.7351 248.377 43.4131 248.045 43.0024 247.812C42.5917 247.569 42.1251 247.448 41.6024 247.448C41.0797 247.448 40.6131 247.569 40.2024 247.812C39.7917 248.045 39.4651 248.377 39.2224 248.806C38.9797 249.235 38.8584 249.739 38.8584 250.318C38.8584 250.887 38.9797 251.391 39.2224 251.83C39.4651 252.259 39.7917 252.595 40.2024 252.838C40.6131 253.071 41.0751 253.188 41.5884 253.188ZM47.4648 254V246.65H48.4588V252.488L53.3728 246.65H54.2548V254H53.2608V248.148L48.3608 254H47.4648ZM58.9271 254.084C59.5337 254.084 60.0797 253.991 60.5651 253.804C61.0597 253.617 61.4517 253.361 61.7411 253.034C62.0304 252.698 62.1751 252.311 62.1751 251.872C62.1751 251.312 61.9371 250.869 61.4611 250.542C60.9944 250.215 60.3411 250.052 59.5011 250.052L59.4591 250.318C59.9351 250.318 60.3597 250.243 60.7331 250.094C61.1064 249.945 61.4051 249.735 61.6291 249.464C61.8531 249.193 61.9651 248.876 61.9651 248.512C61.9651 248.101 61.8251 247.751 61.5451 247.462C61.2651 247.163 60.8871 246.935 60.4111 246.776C59.9444 246.617 59.4171 246.547 58.8291 246.566C58.3997 246.566 57.9704 246.627 57.5411 246.748C57.1211 246.86 56.6964 247.028 56.2671 247.252L56.5471 248.022C56.9297 247.826 57.3171 247.681 57.7091 247.588C58.1011 247.485 58.4791 247.429 58.8431 247.42C59.2444 247.42 59.6037 247.467 59.9211 247.56C60.2384 247.653 60.4857 247.793 60.6631 247.98C60.8497 248.167 60.9431 248.391 60.9431 248.652C60.9431 248.895 60.8637 249.105 60.7051 249.282C60.5557 249.459 60.3411 249.595 60.0611 249.688C59.7811 249.781 59.4591 249.828 59.0951 249.828H57.9051V250.556H59.1651C59.7811 250.556 60.2664 250.668 60.6211 250.892C60.9757 251.107 61.1531 251.41 61.1531 251.802C61.1531 252.073 61.0597 252.315 60.8731 252.53C60.6864 252.745 60.4251 252.913 60.0891 253.034C59.7531 253.155 59.3564 253.221 58.8991 253.23C58.4417 253.23 57.9797 253.165 57.5131 253.034C57.0464 252.894 56.6357 252.693 56.2811 252.432L55.9591 253.174C56.3604 253.482 56.8224 253.711 57.3451 253.86C57.8677 254.009 58.3951 254.084 58.9271 254.084ZM64.4316 254V246.65H67.6796C68.5102 246.65 69.1636 246.809 69.6396 247.126C70.1249 247.443 70.3676 247.91 70.3676 248.526C70.3676 249.123 70.1389 249.585 69.6816 249.912C69.2242 250.229 68.6222 250.388 67.8756 250.388L68.0716 250.094C68.9489 250.094 69.5929 250.257 70.0036 250.584C70.4142 250.911 70.6196 251.382 70.6196 251.998C70.6196 252.633 70.3862 253.127 69.9196 253.482C69.4622 253.827 68.7482 254 67.7776 254H64.4316ZM65.3976 253.216H67.7356C68.3609 253.216 68.8322 253.118 69.1496 252.922C69.4762 252.717 69.6396 252.39 69.6396 251.942C69.6396 251.494 69.4949 251.167 69.2056 250.962C68.9162 250.757 68.4589 250.654 67.8336 250.654H65.3976V253.216ZM65.3976 249.912H67.6096C68.1789 249.912 68.6129 249.805 68.9116 249.59C69.2196 249.375 69.3736 249.063 69.3736 248.652C69.3736 248.241 69.2196 247.933 68.9116 247.728C68.6129 247.523 68.1789 247.42 67.6096 247.42H65.3976V249.912ZM75.9732 254.07C75.2638 254.07 74.6245 253.911 74.0552 253.594C73.4952 253.267 73.0518 252.824 72.7252 252.264C72.3985 251.695 72.2352 251.046 72.2352 250.318C72.2352 249.581 72.3985 248.932 72.7252 248.372C73.0518 247.812 73.4952 247.373 74.0552 247.056C74.6152 246.739 75.2545 246.58 75.9732 246.58C76.7012 246.58 77.3452 246.739 77.9052 247.056C78.4745 247.373 78.9178 247.812 79.2352 248.372C79.5618 248.932 79.7252 249.581 79.7252 250.318C79.7252 251.046 79.5618 251.695 79.2352 252.264C78.9178 252.824 78.4745 253.267 77.9052 253.594C77.3358 253.911 76.6918 254.07 75.9732 254.07ZM75.9732 253.188C76.5052 253.188 76.9765 253.071 77.3872 252.838C77.7978 252.595 78.1198 252.259 78.3532 251.83C78.5958 251.391 78.7172 250.887 78.7172 250.318C78.7172 249.739 78.5958 249.235 78.3532 248.806C78.1198 248.377 77.7978 248.045 77.3872 247.812C76.9765 247.569 76.5098 247.448 75.9872 247.448C75.4645 247.448 74.9978 247.569 74.5872 247.812C74.1765 248.045 73.8498 248.377 73.6072 248.806C73.3645 249.235 73.2432 249.739 73.2432 250.318C73.2432 250.887 73.3645 251.391 73.6072 251.83C73.8498 252.259 74.1765 252.595 74.5872 252.838C74.9978 253.071 75.4598 253.188 75.9732 253.188ZM86.8485 253.524V247.518H83.3065L83.2225 249.156C83.2039 249.651 83.1712 250.136 83.1245 250.612C83.0872 251.088 83.0172 251.527 82.9145 251.928C82.8212 252.32 82.6859 252.642 82.5085 252.894C82.3312 253.137 82.1025 253.277 81.8225 253.314L80.8285 253.132C81.1179 253.141 81.3559 253.039 81.5425 252.824C81.7292 252.6 81.8739 252.297 81.9765 251.914C82.0792 251.531 82.1539 251.097 82.2005 250.612C82.2472 250.117 82.2845 249.613 82.3125 249.1L82.4105 246.65H87.8425V253.524H86.8485ZM80.5205 255.778V253.132H88.9905V255.778H88.0525V254H81.4585V255.778H80.5205ZM94.0077 254.07C93.2797 254.07 92.6263 253.911 92.0477 253.594C91.4783 253.267 91.0303 252.824 90.7037 252.264C90.377 251.695 90.2137 251.046 90.2137 250.318C90.2137 249.581 90.377 248.932 90.7037 248.372C91.0303 247.812 91.4783 247.373 92.0477 247.056C92.6263 246.739 93.2797 246.58 94.0077 246.58C94.633 246.58 95.1977 246.701 95.7017 246.944C96.2057 247.187 96.6023 247.551 96.8917 248.036L96.1497 248.54C95.8977 248.167 95.585 247.891 95.2117 247.714C94.8383 247.537 94.4323 247.448 93.9937 247.448C93.471 247.448 92.9997 247.569 92.5797 247.812C92.1597 248.045 91.8283 248.377 91.5857 248.806C91.343 249.235 91.2217 249.739 91.2217 250.318C91.2217 250.897 91.343 251.401 91.5857 251.83C91.8283 252.259 92.1597 252.595 92.5797 252.838C92.9997 253.071 93.471 253.188 93.9937 253.188C94.4323 253.188 94.8383 253.099 95.2117 252.922C95.585 252.745 95.8977 252.474 96.1497 252.11L96.8917 252.614C96.6023 253.09 96.2057 253.454 95.7017 253.706C95.1977 253.949 94.633 254.07 94.0077 254.07ZM100.08 254V247.252L100.332 247.518H97.2936V246.65H103.86V247.518H100.822L101.074 247.252V254H100.08ZM105.297 254V246.65H108.545C109.375 246.65 110.029 246.809 110.505 247.126C110.99 247.443 111.233 247.91 111.233 248.526C111.233 249.123 111.004 249.585 110.547 249.912C110.089 250.229 109.487 250.388 108.741 250.388L108.937 250.094C109.814 250.094 110.458 250.257 110.869 250.584C111.279 250.911 111.485 251.382 111.485 251.998C111.485 252.633 111.251 253.127 110.785 253.482C110.327 253.827 109.613 254 108.643 254H105.297ZM106.263 253.216H108.601C109.226 253.216 109.697 253.118 110.015 252.922C110.341 252.717 110.505 252.39 110.505 251.942C110.505 251.494 110.36 251.167 110.071 250.962C109.781 250.757 109.324 250.654 108.699 250.654H106.263V253.216ZM106.263 249.912H108.475C109.044 249.912 109.478 249.805 109.777 249.59C110.085 249.375 110.239 249.063 110.239 248.652C110.239 248.241 110.085 247.933 109.777 247.728C109.478 247.523 109.044 247.42 108.475 247.42H106.263V249.912ZM116.838 254.07C116.129 254.07 115.49 253.911 114.92 253.594C114.36 253.267 113.917 252.824 113.59 252.264C113.264 251.695 113.1 251.046 113.1 250.318C113.1 249.581 113.264 248.932 113.59 248.372C113.917 247.812 114.36 247.373 114.92 247.056C115.48 246.739 116.12 246.58 116.838 246.58C117.566 246.58 118.21 246.739 118.77 247.056C119.34 247.373 119.783 247.812 120.1 248.372C120.427 248.932 120.59 249.581 120.59 250.318C120.59 251.046 120.427 251.695 120.1 252.264C119.783 252.824 119.34 253.267 118.77 253.594C118.201 253.911 117.557 254.07 116.838 254.07ZM116.838 253.188C117.37 253.188 117.842 253.071 118.252 252.838C118.663 252.595 118.985 252.259 119.218 251.83C119.461 251.391 119.582 250.887 119.582 250.318C119.582 249.739 119.461 249.235 119.218 248.806C118.985 248.377 118.663 248.045 118.252 247.812C117.842 247.569 117.375 247.448 116.852 247.448C116.33 247.448 115.863 247.569 115.452 247.812C115.042 248.045 114.715 248.377 114.472 248.806C114.23 249.235 114.108 249.739 114.108 250.318C114.108 250.887 114.23 251.391 114.472 251.83C114.715 252.259 115.042 252.595 115.452 252.838C115.863 253.071 116.325 253.188 116.838 253.188ZM126.379 254V246.65H132.987V254H131.993V247.252L132.245 247.518H127.121L127.373 247.252V254H126.379ZM139.606 254.07C138.972 254.07 138.398 253.925 137.884 253.636C137.371 253.337 136.96 252.913 136.652 252.362C136.354 251.802 136.204 251.121 136.204 250.318C136.204 249.515 136.354 248.839 136.652 248.288C136.951 247.728 137.357 247.303 137.87 247.014C138.384 246.725 138.962 246.58 139.606 246.58C140.306 246.58 140.932 246.739 141.482 247.056C142.042 247.364 142.481 247.803 142.798 248.372C143.116 248.932 143.274 249.581 143.274 250.318C143.274 251.065 143.116 251.718 142.798 252.278C142.481 252.838 142.042 253.277 141.482 253.594C140.932 253.911 140.306 254.07 139.606 254.07ZM135.812 256.716V246.65H136.764V248.862L136.666 250.332L136.806 251.816V256.716H135.812ZM139.536 253.188C140.059 253.188 140.526 253.071 140.936 252.838C141.347 252.595 141.674 252.259 141.916 251.83C142.159 251.391 142.28 250.887 142.28 250.318C142.28 249.749 142.159 249.249 141.916 248.82C141.674 248.391 141.347 248.055 140.936 247.812C140.526 247.569 140.059 247.448 139.536 247.448C139.014 247.448 138.542 247.569 138.122 247.812C137.712 248.055 137.385 248.391 137.142 248.82C136.909 249.249 136.792 249.749 136.792 250.318C136.792 250.887 136.909 251.391 137.142 251.83C137.385 252.259 137.712 252.595 138.122 252.838C138.542 253.071 139.014 253.188 139.536 253.188ZM148.434 254.07C147.725 254.07 147.085 253.911 146.516 253.594C145.956 253.267 145.513 252.824 145.186 252.264C144.859 251.695 144.696 251.046 144.696 250.318C144.696 249.581 144.859 248.932 145.186 248.372C145.513 247.812 145.956 247.373 146.516 247.056C147.076 246.739 147.715 246.58 148.434 246.58C149.162 246.58 149.806 246.739 150.366 247.056C150.935 247.373 151.379 247.812 151.696 248.372C152.023 248.932 152.186 249.581 152.186 250.318C152.186 251.046 152.023 251.695 151.696 252.264C151.379 252.824 150.935 253.267 150.366 253.594C149.797 253.911 149.153 254.07 148.434 254.07ZM148.434 253.188C148.966 253.188 149.437 253.071 149.848 252.838C150.259 252.595 150.581 252.259 150.814 251.83C151.057 251.391 151.178 250.887 151.178 250.318C151.178 249.739 151.057 249.235 150.814 248.806C150.581 248.377 150.259 248.045 149.848 247.812C149.437 247.569 148.971 247.448 148.448 247.448C147.925 247.448 147.459 247.569 147.048 247.812C146.637 248.045 146.311 248.377 146.068 248.806C145.825 249.235 145.704 249.739 145.704 250.318C145.704 250.887 145.825 251.391 146.068 251.83C146.311 252.259 146.637 252.595 147.048 252.838C147.459 253.071 147.921 253.188 148.434 253.188ZM158.958 250.892C158.529 251.079 158.095 251.228 157.656 251.34C157.227 251.443 156.798 251.494 156.368 251.494C155.5 251.494 154.814 251.298 154.31 250.906C153.806 250.505 153.554 249.889 153.554 249.058V246.65H154.534V249.002C154.534 249.562 154.716 249.982 155.08 250.262C155.444 250.542 155.934 250.682 156.55 250.682C156.924 250.682 157.316 250.635 157.726 250.542C158.137 250.439 158.552 250.295 158.972 250.108L158.958 250.892ZM158.874 254V246.65H159.868V254H158.874ZM162.691 254V246.65H163.685V252.488L168.599 246.65H169.481V254H168.487V248.148L163.587 254H162.691ZM171.126 254L174.234 249.968L174.22 250.458L171.266 246.65H172.386L174.808 249.8L174.388 249.786L176.81 246.65H177.902L174.92 250.5L174.934 249.968L178.07 254H176.936L174.374 250.64L174.766 250.696L172.246 254H171.126ZM186.443 254.07C185.715 254.07 185.062 253.911 184.483 253.594C183.914 253.267 183.466 252.824 183.139 252.264C182.813 251.695 182.649 251.046 182.649 250.318C182.649 249.581 182.813 248.932 183.139 248.372C183.466 247.812 183.914 247.373 184.483 247.056C185.062 246.739 185.715 246.58 186.443 246.58C187.069 246.58 187.633 246.701 188.137 246.944C188.641 247.187 189.038 247.551 189.327 248.036L188.585 248.54C188.333 248.167 188.021 247.891 187.647 247.714C187.274 247.537 186.868 247.448 186.429 247.448C185.907 247.448 185.435 247.569 185.015 247.812C184.595 248.045 184.264 248.377 184.021 248.806C183.779 249.235 183.657 249.739 183.657 250.318C183.657 250.897 183.779 251.401 184.021 251.83C184.264 252.259 184.595 252.595 185.015 252.838C185.435 253.071 185.907 253.188 186.429 253.188C186.868 253.188 187.274 253.099 187.647 252.922C188.021 252.745 188.333 252.474 188.585 252.11L189.327 252.614C189.038 253.09 188.641 253.454 188.137 253.706C187.633 253.949 187.069 254.07 186.443 254.07ZM192.515 254V247.252L192.767 247.518H189.729V246.65H196.295V247.518H193.257L193.509 247.252V254H192.515ZM201.526 254.07C200.892 254.07 200.318 253.925 199.804 253.636C199.291 253.337 198.88 252.913 198.572 252.362C198.274 251.802 198.124 251.121 198.124 250.318C198.124 249.515 198.274 248.839 198.572 248.288C198.871 247.728 199.277 247.303 199.79 247.014C200.304 246.725 200.882 246.58 201.526 246.58C202.226 246.58 202.852 246.739 203.402 247.056C203.962 247.364 204.401 247.803 204.718 248.372C205.036 248.932 205.194 249.581 205.194 250.318C205.194 251.065 205.036 251.718 204.718 252.278C204.401 252.838 203.962 253.277 203.402 253.594C202.852 253.911 202.226 254.07 201.526 254.07ZM197.732 256.716V246.65H198.684V248.862L198.586 250.332L198.726 251.816V256.716H197.732ZM201.456 253.188C201.979 253.188 202.446 253.071 202.856 252.838C203.267 252.595 203.594 252.259 203.836 251.83C204.079 251.391 204.2 250.887 204.2 250.318C204.2 249.749 204.079 249.249 203.836 248.82C203.594 248.391 203.267 248.055 202.856 247.812C202.446 247.569 201.979 247.448 201.456 247.448C200.934 247.448 200.462 247.569 200.042 247.812C199.632 248.055 199.305 248.391 199.062 248.82C198.829 249.249 198.712 249.749 198.712 250.318C198.712 250.887 198.829 251.391 199.062 251.83C199.305 252.259 199.632 252.595 200.042 252.838C200.462 253.071 200.934 253.188 201.456 253.188ZM210.354 254.07C209.645 254.07 209.005 253.911 208.436 253.594C207.876 253.267 207.433 252.824 207.106 252.264C206.779 251.695 206.616 251.046 206.616 250.318C206.616 249.581 206.779 248.932 207.106 248.372C207.433 247.812 207.876 247.373 208.436 247.056C208.996 246.739 209.635 246.58 210.354 246.58C211.082 246.58 211.726 246.739 212.286 247.056C212.855 247.373 213.299 247.812 213.616 248.372C213.943 248.932 214.106 249.581 214.106 250.318C214.106 251.046 213.943 251.695 213.616 252.264C213.299 252.824 212.855 253.267 212.286 253.594C211.717 253.911 211.073 254.07 210.354 254.07ZM210.354 253.188C210.886 253.188 211.357 253.071 211.768 252.838C212.179 252.595 212.501 252.259 212.734 251.83C212.977 251.391 213.098 250.887 213.098 250.318C213.098 249.739 212.977 249.235 212.734 248.806C212.501 248.377 212.179 248.045 211.768 247.812C211.357 247.569 210.891 247.448 210.368 247.448C209.845 247.448 209.379 247.569 208.968 247.812C208.557 248.045 208.231 248.377 207.988 248.806C207.745 249.235 207.624 249.739 207.624 250.318C207.624 250.887 207.745 251.391 207.988 251.83C208.231 252.259 208.557 252.595 208.968 252.838C209.379 253.071 209.841 253.188 210.354 253.188ZM216.23 254V246.65H217.224V252.488L222.138 246.65H223.02V254H222.026V248.148L217.126 254H216.23ZM227.269 254V247.252L227.521 247.518H224.483V246.65H231.049V247.518H228.011L228.263 247.252V254H227.269ZM235.294 254.07C234.529 254.07 233.857 253.911 233.278 253.594C232.7 253.267 232.247 252.824 231.92 252.264C231.594 251.695 231.43 251.046 231.43 250.318C231.43 249.59 231.584 248.946 231.892 248.386C232.21 247.826 232.639 247.387 233.18 247.07C233.731 246.743 234.347 246.58 235.028 246.58C235.719 246.58 236.33 246.739 236.862 247.056C237.404 247.364 237.828 247.803 238.136 248.372C238.444 248.932 238.598 249.581 238.598 250.318C238.598 250.365 238.594 250.416 238.584 250.472C238.584 250.519 238.584 250.57 238.584 250.626H232.186V249.884H238.052L237.66 250.178C237.66 249.646 237.544 249.175 237.31 248.764C237.086 248.344 236.778 248.017 236.386 247.784C235.994 247.551 235.542 247.434 235.028 247.434C234.524 247.434 234.072 247.551 233.67 247.784C233.269 248.017 232.956 248.344 232.732 248.764C232.508 249.184 232.396 249.665 232.396 250.206V250.36C232.396 250.92 232.518 251.415 232.76 251.844C233.012 252.264 233.358 252.595 233.796 252.838C234.244 253.071 234.753 253.188 235.322 253.188C235.77 253.188 236.186 253.109 236.568 252.95C236.96 252.791 237.296 252.549 237.576 252.222L238.136 252.866C237.81 253.258 237.399 253.557 236.904 253.762C236.419 253.967 235.882 254.07 235.294 254.07ZM239.304 253.986L239.374 253.132C239.44 253.141 239.5 253.155 239.556 253.174C239.622 253.183 239.678 253.188 239.724 253.188C240.023 253.188 240.261 253.076 240.438 252.852C240.625 252.628 240.765 252.329 240.858 251.956C240.952 251.583 241.017 251.163 241.054 250.696C241.092 250.22 241.124 249.744 241.152 249.268L241.278 246.65H246.668V254H245.674V247.224L245.926 247.518H241.922L242.16 247.21L242.048 249.338C242.02 249.973 241.969 250.579 241.894 251.158C241.829 251.737 241.722 252.245 241.572 252.684C241.432 253.123 241.236 253.468 240.984 253.72C240.732 253.963 240.41 254.084 240.018 254.084C239.906 254.084 239.79 254.075 239.668 254.056C239.556 254.037 239.435 254.014 239.304 253.986ZM249.564 254.07C249.359 254.07 249.181 253.995 249.032 253.846C248.892 253.697 248.822 253.515 248.822 253.3C248.822 253.076 248.892 252.894 249.032 252.754C249.181 252.614 249.359 252.544 249.564 252.544C249.769 252.544 249.942 252.614 250.082 252.754C250.231 252.894 250.306 253.076 250.306 253.3C250.306 253.515 250.231 253.697 250.082 253.846C249.942 253.995 249.769 254.07 249.564 254.07ZM252.531 254.07C252.326 254.07 252.148 253.995 251.999 253.846C251.859 253.697 251.789 253.515 251.789 253.3C251.789 253.076 251.859 252.894 251.999 252.754C252.148 252.614 252.326 252.544 252.531 252.544C252.736 252.544 252.909 252.614 253.049 252.754C253.198 252.894 253.273 253.076 253.273 253.3C253.273 253.515 253.198 253.697 253.049 253.846C252.909 253.995 252.736 254.07 252.531 254.07ZM255.498 254.07C255.292 254.07 255.115 253.995 254.966 253.846C254.826 253.697 254.756 253.515 254.756 253.3C254.756 253.076 254.826 252.894 254.966 252.754C255.115 252.614 255.292 252.544 255.498 252.544C255.703 252.544 255.876 252.614 256.016 252.754C256.165 252.894 256.24 253.076 256.24 253.3C256.24 253.515 256.165 253.697 256.016 253.846C255.876 253.995 255.703 254.07 255.498 254.07ZM258.464 254.07C258.259 254.07 258.082 253.995 257.932 253.846C257.792 253.697 257.722 253.515 257.722 253.3C257.722 253.076 257.792 252.894 257.932 252.754C258.082 252.614 258.259 252.544 258.464 252.544C258.67 252.544 258.842 252.614 258.982 252.754C259.132 252.894 259.206 253.076 259.206 253.3C259.206 253.515 259.132 253.697 258.982 253.846C258.842 253.995 258.67 254.07 258.464 254.07Z" fill="#49494F"></path> <rect x="0.5" y="0.5" width="269" height="281" rx="15.5" stroke="#E2E4E7"></rect> </svg> 