<?xml version="1.0" encoding="UTF-8"?> <svg xmlns="http://www.w3.org/2000/svg" width="270" height="282" viewBox="0 0 270 282" fill="none"> <rect x="0.5" y="0.5" width="269" height="281" rx="15.5" fill="white"></rect> <rect x="16" y="24" width="40" height="40" rx="8" fill="url(#paint0_linear_2148_2595)"></rect> <path fill-rule="evenodd" clip-rule="evenodd" d="M33 54H25V50H33V54ZM32.5 50.5H25.5V53.5H32.5V50.5Z" fill="#FAFAFA"></path> <path fill-rule="evenodd" clip-rule="evenodd" d="M33 46H25V42H33V46ZM32.5 42.5H25.5V45.5H32.5V42.5Z" fill="#FAFAFA"></path> <path fill-rule="evenodd" clip-rule="evenodd" d="M41 54H33V50H41V54ZM40.5 50.5H33.5V53.5H40.5V50.5Z" fill="#FAFAFA"></path> <path fill-rule="evenodd" clip-rule="evenodd" d="M41 46H33V42H41V46ZM40.5 42.5H33.5V45.5H40.5V42.5Z" fill="#FAFAFA"></path> <path fill-rule="evenodd" clip-rule="evenodd" d="M49 54H41V50H49V54ZM48.5 50.5H41.5V53.5H48.5V50.5Z" fill="#FAFAFA"></path> <path fill-rule="evenodd" clip-rule="evenodd" d="M49 46H41V42H49V46ZM48.5 42.5H41.5V45.5H48.5V42.5Z" fill="#FAFAFA"></path> <path fill-rule="evenodd" clip-rule="evenodd" d="M45 42H37V38H45V42ZM44.5 38.5H37.5V41.5H44.5V38.5Z" fill="#FAFAFA"></path> <path fill-rule="evenodd" clip-rule="evenodd" d="M37 42H29V38H37V42ZM36.5 38.5H29.5V41.5H36.5V38.5Z" fill="#FAFAFA"></path> <path fill-rule="evenodd" clip-rule="evenodd" d="M42 38H34V34H42V38ZM41.5 34.5H34.5V37.5H41.5V34.5Z" fill="#FAFAFA"></path> <path fill-rule="evenodd" clip-rule="evenodd" d="M52 50H44V46H52V50ZM51.5 46.5H44.5V49.5H51.5V46.5Z" fill="#FAFAFA"></path> <path fill-rule="evenodd" clip-rule="evenodd" d="M44 50H36V46H44V50ZM43.5 46.5H36.5V49.5H43.5V46.5Z" fill="#FAFAFA"></path> <path fill-rule="evenodd" clip-rule="evenodd" d="M36 50H28V46H36V50ZM35.5 46.5H28.5V49.5H35.5V46.5Z" fill="#FAFAFA"></path> <path fill-rule="evenodd" clip-rule="evenodd" d="M28 50H20V46H28V50ZM27.5 46.5H20.5V49.5H27.5V46.5Z" fill="#FAFAFA"></path> <path fill-rule="evenodd" clip-rule="evenodd" d="M36.9492 37.9502H41.9992V38.0502H37.0492V42.0502H33.0492V46.0502H28.0492V49.9502H33.0492V54.0002H32.9492V50.0502H27.9492V45.9502H32.9492V41.9502H36.9492V37.9502Z" fill="#161617"></path> <path fill-rule="evenodd" clip-rule="evenodd" d="M37 41.9502H41.05V45.9502H44.05V50.0502H41.05V54.0002H40.95V49.9502H43.95V46.0502H40.95V42.0502H37V41.9502Z" fill="#161617"></path> <path fill-rule="evenodd" clip-rule="evenodd" d="M37 38.0502H34V37.9502H37V38.0502ZM45 41.9502V42.0502H29V41.9502H45ZM25 50.0502V49.9502H49V50.0502H25Z" fill="#161617"></path> <path fill-rule="evenodd" clip-rule="evenodd" d="M48.9397 46.0502H25V45.9502H48.9397V46.0502Z" fill="#161617"></path> <path d="M129.526 49V39.2H133.74C134.804 39.2 135.639 39.4147 136.246 39.844C136.853 40.2733 137.156 40.8987 137.156 41.72C137.156 42.5227 136.867 43.1387 136.288 43.568C135.709 43.988 134.949 44.198 134.006 44.198L134.258 43.778C135.35 43.778 136.185 43.9973 136.764 44.436C137.352 44.8653 137.646 45.4953 137.646 46.326C137.646 47.166 137.338 47.824 136.722 48.3C136.115 48.7667 135.21 49 134.006 49H129.526ZM130.912 47.894H133.978C134.725 47.894 135.285 47.7587 135.658 47.488C136.041 47.208 136.232 46.7833 136.232 46.214C136.232 45.6447 136.041 45.2293 135.658 44.968C135.285 44.7067 134.725 44.576 133.978 44.576H130.912V47.894ZM130.912 43.512H133.642C134.323 43.512 134.841 43.3767 135.196 43.106C135.56 42.8353 135.742 42.4387 135.742 41.916C135.742 41.384 135.56 40.9827 135.196 40.712C134.841 40.4413 134.323 40.306 133.642 40.306H130.912V43.512ZM147.097 49V41.58H148.441V49H147.097ZM143.107 44.1C144.05 44.1093 144.764 44.324 145.249 44.744C145.744 45.164 145.991 45.7567 145.991 46.522C145.991 47.3247 145.72 47.9453 145.179 48.384C144.647 48.8133 143.882 49.0233 142.883 49.014L139.761 49V41.58H141.105V44.086L143.107 44.1ZM142.785 47.992C143.382 48.0013 143.84 47.88 144.157 47.628C144.474 47.376 144.633 47.0027 144.633 46.508C144.633 46.0227 144.474 45.668 144.157 45.444C143.849 45.22 143.392 45.1033 142.785 45.094L141.105 45.066V47.978L142.785 47.992ZM156.122 48.37V42.756H152.902L152.832 44.184C152.813 44.6507 152.781 45.1033 152.734 45.542C152.697 45.9713 152.631 46.368 152.538 46.732C152.454 47.096 152.328 47.3947 152.16 47.628C151.992 47.8613 151.768 48.006 151.488 48.062L150.158 47.824C150.447 47.8333 150.681 47.74 150.858 47.544C151.035 47.3387 151.171 47.0587 151.264 46.704C151.367 46.3493 151.441 45.948 151.488 45.5C151.535 45.0427 151.572 44.5713 151.6 44.086L151.712 41.58H157.466V48.37H156.122ZM149.864 50.722V47.824H158.6V50.722H157.34V49H151.138V50.722H149.864ZM164.901 49V47.432L164.831 47.138V44.464C164.831 43.8947 164.663 43.456 164.327 43.148C164 42.8307 163.505 42.672 162.843 42.672C162.404 42.672 161.975 42.7467 161.555 42.896C161.135 43.036 160.78 43.2273 160.491 43.47L159.931 42.462C160.313 42.154 160.771 41.9207 161.303 41.762C161.844 41.594 162.409 41.51 162.997 41.51C164.014 41.51 164.798 41.7573 165.349 42.252C165.899 42.7467 166.175 43.5027 166.175 44.52V49H164.901ZM162.465 49.084C161.914 49.084 161.429 48.9907 161.009 48.804C160.598 48.6173 160.281 48.3607 160.057 48.034C159.833 47.698 159.721 47.32 159.721 46.9C159.721 46.4987 159.814 46.1347 160.001 45.808C160.197 45.4813 160.509 45.22 160.939 45.024C161.377 44.828 161.965 44.73 162.703 44.73H165.055V45.696H162.759C162.087 45.696 161.634 45.808 161.401 46.032C161.167 46.256 161.051 46.5267 161.051 46.844C161.051 47.208 161.195 47.502 161.485 47.726C161.774 47.9407 162.175 48.048 162.689 48.048C163.193 48.048 163.631 47.936 164.005 47.712C164.387 47.488 164.663 47.1613 164.831 46.732L165.097 47.656C164.919 48.0947 164.607 48.4447 164.159 48.706C163.711 48.958 163.146 49.084 162.465 49.084ZM168.595 49V41.58H169.939V44.73H174.167V41.58H175.511V49H174.167V45.892H169.939V49H168.595ZM181.1 49V48.048L185.09 44.198C185.445 43.862 185.706 43.568 185.874 43.316C186.051 43.0547 186.168 42.8167 186.224 42.602C186.289 42.378 186.322 42.1633 186.322 41.958C186.322 41.454 186.145 41.0573 185.79 40.768C185.435 40.4787 184.917 40.334 184.236 40.334C183.713 40.334 183.242 40.4227 182.822 40.6C182.402 40.768 182.038 41.034 181.73 41.398L180.778 40.572C181.151 40.096 181.651 39.732 182.276 39.48C182.911 39.2187 183.606 39.088 184.362 39.088C185.043 39.088 185.636 39.2 186.14 39.424C186.644 39.6387 187.031 39.9513 187.302 40.362C187.582 40.7727 187.722 41.258 187.722 41.818C187.722 42.1353 187.68 42.448 187.596 42.756C187.512 43.064 187.353 43.3907 187.12 43.736C186.887 44.0813 186.551 44.4687 186.112 44.898L182.556 48.328L182.22 47.782H188.142V49H181.1ZM192.471 39.088C193.358 39.088 194.104 39.2793 194.711 39.662C195.327 40.0447 195.794 40.6 196.111 41.328C196.428 42.0467 196.587 42.9287 196.587 43.974C196.587 45.0847 196.391 46.0227 195.999 46.788C195.607 47.5533 195.066 48.132 194.375 48.524C193.684 48.916 192.877 49.112 191.953 49.112C191.496 49.112 191.052 49.0653 190.623 48.972C190.203 48.8787 189.834 48.734 189.517 48.538L190.049 47.446C190.31 47.614 190.6 47.7353 190.917 47.81C191.244 47.8753 191.584 47.908 191.939 47.908C192.928 47.908 193.717 47.6 194.305 46.984C194.893 46.3587 195.187 45.4347 195.187 44.212C195.187 44.016 195.178 43.7827 195.159 43.512C195.14 43.2413 195.098 42.9753 195.033 42.714L195.495 43.19C195.364 43.6193 195.145 43.9833 194.837 44.282C194.538 44.5713 194.174 44.7907 193.745 44.94C193.325 45.08 192.863 45.15 192.359 45.15C191.715 45.15 191.141 45.0287 190.637 44.786C190.133 44.5433 189.736 44.2027 189.447 43.764C189.158 43.316 189.013 42.7887 189.013 42.182C189.013 41.5473 189.162 41.0013 189.461 40.544C189.769 40.0773 190.184 39.718 190.707 39.466C191.239 39.214 191.827 39.088 192.471 39.088ZM192.527 40.222C192.107 40.222 191.734 40.3013 191.407 40.46C191.08 40.6187 190.824 40.838 190.637 41.118C190.46 41.398 190.371 41.734 190.371 42.126C190.371 42.7047 190.572 43.1667 190.973 43.512C191.374 43.848 191.916 44.016 192.597 44.016C193.045 44.016 193.437 43.932 193.773 43.764C194.118 43.596 194.384 43.3673 194.571 43.078C194.767 42.7887 194.865 42.4667 194.865 42.112C194.865 41.7667 194.776 41.454 194.599 41.174C194.422 40.894 194.16 40.6653 193.815 40.488C193.47 40.3107 193.04 40.222 192.527 40.222ZM198.694 49.084C198.432 49.084 198.208 48.9953 198.022 48.818C197.835 48.6313 197.742 48.398 197.742 48.118C197.742 47.838 197.835 47.6093 198.022 47.432C198.208 47.2547 198.432 47.166 198.694 47.166C198.946 47.166 199.16 47.2547 199.338 47.432C199.524 47.6093 199.618 47.838 199.618 48.118C199.618 48.398 199.524 48.6313 199.338 48.818C199.16 48.9953 198.946 49.084 198.694 49.084ZM204.781 49.112C204.016 49.112 203.33 48.916 202.723 48.524C202.126 48.132 201.65 47.5627 201.295 46.816C200.95 46.0693 200.777 45.164 200.777 44.1C200.777 43.036 200.95 42.1307 201.295 41.384C201.65 40.6373 202.126 40.068 202.723 39.676C203.33 39.284 204.016 39.088 204.781 39.088C205.537 39.088 206.219 39.284 206.825 39.676C207.432 40.068 207.908 40.6373 208.253 41.384C208.599 42.1307 208.771 43.036 208.771 44.1C208.771 45.164 208.599 46.0693 208.253 46.816C207.908 47.5627 207.432 48.132 206.825 48.524C206.219 48.916 205.537 49.112 204.781 49.112ZM204.781 47.866C205.295 47.866 205.743 47.726 206.125 47.446C206.517 47.166 206.821 46.746 207.035 46.186C207.259 45.626 207.371 44.9307 207.371 44.1C207.371 43.2693 207.259 42.574 207.035 42.014C206.821 41.454 206.517 41.034 206.125 40.754C205.743 40.474 205.295 40.334 204.781 40.334C204.268 40.334 203.815 40.474 203.423 40.754C203.031 41.034 202.723 41.454 202.499 42.014C202.285 42.574 202.177 43.2693 202.177 44.1C202.177 44.9307 202.285 45.626 202.499 46.186C202.723 46.746 203.031 47.166 203.423 47.446C203.815 47.726 204.268 47.866 204.781 47.866ZM211.714 49L215.872 39.788L216.236 40.418H210.412L211.112 39.732V42.168H209.768V39.2H217.16V40.152L213.198 49H211.714ZM218.586 49.084C218.325 49.084 218.101 48.9953 217.914 48.818C217.728 48.6313 217.634 48.398 217.634 48.118C217.634 47.838 217.728 47.6093 217.914 47.432C218.101 47.2547 218.325 47.166 218.586 47.166C218.838 47.166 219.053 47.2547 219.23 47.432C219.417 47.6093 219.51 47.838 219.51 48.118C219.51 48.398 219.417 48.6313 219.23 48.818C219.053 48.9953 218.838 49.084 218.586 49.084ZM220.817 49V48.048L224.807 44.198C225.161 43.862 225.423 43.568 225.591 43.316C225.768 43.0547 225.885 42.8167 225.941 42.602C226.006 42.378 226.039 42.1633 226.039 41.958C226.039 41.454 225.861 41.0573 225.507 40.768C225.152 40.4787 224.634 40.334 223.953 40.334C223.43 40.334 222.959 40.4227 222.539 40.6C222.119 40.768 221.755 41.034 221.447 41.398L220.495 40.572C220.868 40.096 221.367 39.732 221.993 39.48C222.627 39.2187 223.323 39.088 224.079 39.088C224.76 39.088 225.353 39.2 225.857 39.424C226.361 39.6387 226.748 39.9513 227.019 40.362C227.299 40.7727 227.439 41.258 227.439 41.818C227.439 42.1353 227.397 42.448 227.313 42.756C227.229 43.064 227.07 43.3907 226.837 43.736C226.603 44.0813 226.267 44.4687 225.829 44.898L222.273 48.328L221.937 47.782H227.859V49H220.817ZM233 49.112C232.235 49.112 231.549 48.916 230.942 48.524C230.345 48.132 229.869 47.5627 229.514 46.816C229.169 46.0693 228.996 45.164 228.996 44.1C228.996 43.036 229.169 42.1307 229.514 41.384C229.869 40.6373 230.345 40.068 230.942 39.676C231.549 39.284 232.235 39.088 233 39.088C233.756 39.088 234.438 39.284 235.044 39.676C235.651 40.068 236.127 40.6373 236.472 41.384C236.818 42.1307 236.99 43.036 236.99 44.1C236.99 45.164 236.818 46.0693 236.472 46.816C236.127 47.5627 235.651 48.132 235.044 48.524C234.438 48.916 233.756 49.112 233 49.112ZM233 47.866C233.514 47.866 233.962 47.726 234.344 47.446C234.736 47.166 235.04 46.746 235.254 46.186C235.478 45.626 235.59 44.9307 235.59 44.1C235.59 43.2693 235.478 42.574 235.254 42.014C235.04 41.454 234.736 41.034 234.344 40.754C233.962 40.474 233.514 40.334 233 40.334C232.487 40.334 232.034 40.474 231.642 40.754C231.25 41.034 230.942 41.454 230.718 42.014C230.504 42.574 230.396 43.2693 230.396 44.1C230.396 44.9307 230.504 45.626 230.718 46.186C230.942 46.746 231.25 47.166 231.642 47.446C232.034 47.726 232.487 47.866 233 47.866ZM238.18 49V48.048L242.17 44.198C242.525 43.862 242.786 43.568 242.954 43.316C243.131 43.0547 243.248 42.8167 243.304 42.602C243.369 42.378 243.402 42.1633 243.402 41.958C243.402 41.454 243.225 41.0573 242.87 40.768C242.515 40.4787 241.997 40.334 241.316 40.334C240.793 40.334 240.322 40.4227 239.902 40.6C239.482 40.768 239.118 41.034 238.81 41.398L237.858 40.572C238.231 40.096 238.731 39.732 239.356 39.48C239.991 39.2187 240.686 39.088 241.442 39.088C242.123 39.088 242.716 39.2 243.22 39.424C243.724 39.6387 244.111 39.9513 244.382 40.362C244.662 40.7727 244.802 41.258 244.802 41.818C244.802 42.1353 244.76 42.448 244.676 42.756C244.592 43.064 244.433 43.3907 244.2 43.736C243.967 44.0813 243.631 44.4687 243.192 44.898L239.636 48.328L239.3 47.782H245.222V49H238.18ZM246.219 49V48.048L250.209 44.198C250.564 43.862 250.825 43.568 250.993 43.316C251.171 43.0547 251.287 42.8167 251.343 42.602C251.409 42.378 251.441 42.1633 251.441 41.958C251.441 41.454 251.264 41.0573 250.909 40.768C250.555 40.4787 250.037 40.334 249.355 40.334C248.833 40.334 248.361 40.4227 247.941 40.6C247.521 40.768 247.157 41.034 246.849 41.398L245.897 40.572C246.271 40.096 246.77 39.732 247.395 39.48C248.03 39.2187 248.725 39.088 249.481 39.088C250.163 39.088 250.755 39.2 251.259 39.424C251.763 39.6387 252.151 39.9513 252.421 40.362C252.701 40.7727 252.841 41.258 252.841 41.818C252.841 42.1353 252.799 42.448 252.715 42.756C252.631 43.064 252.473 43.3907 252.239 43.736C252.006 44.0813 251.67 44.4687 251.231 44.898L247.675 48.328L247.339 47.782H253.261V49H246.219Z" fill="#49494F"></path> <path d="M16.888 121V119.368L23.728 112.768C24.336 112.192 24.784 111.688 25.072 111.256C25.376 110.808 25.576 110.4 25.672 110.032C25.784 109.648 25.84 109.28 25.84 108.928C25.84 108.064 25.536 107.384 24.928 106.888C24.32 106.392 23.432 106.144 22.264 106.144C21.368 106.144 20.56 106.296 19.84 106.6C19.12 106.888 18.496 107.344 17.968 107.968L16.336 106.552C16.976 105.736 17.832 105.112 18.904 104.68C19.992 104.232 21.184 104.008 22.48 104.008C23.648 104.008 24.664 104.2 25.528 104.584C26.392 104.952 27.056 105.488 27.52 106.192C28 106.896 28.24 107.728 28.24 108.688C28.24 109.232 28.168 109.768 28.024 110.296C27.88 110.824 27.608 111.384 27.208 111.976C26.808 112.568 26.232 113.232 25.48 113.968L19.384 119.848L18.808 118.912H28.96V121H16.888ZM33.8138 121L40.9418 105.208L41.5658 106.288H31.5818L32.7818 105.112V109.288H30.4778V104.2H43.1498V105.832L36.3578 121H33.8138ZM43.4433 116.872V115.192L52.0353 104.2H54.6273L46.1073 115.192L44.8833 114.808H58.2993V116.872H43.4433ZM52.7793 121V116.872L52.8513 114.808V111.16H55.1073V121H52.7793ZM72.7353 121.192C71.3753 121.192 70.1993 120.992 69.2073 120.592C68.2153 120.192 67.4473 119.624 66.9033 118.888C66.3593 118.136 66.0873 117.256 66.0873 116.248C66.0873 115.256 66.3433 114.416 66.8553 113.728C67.3833 113.024 68.1433 112.496 69.1353 112.144C70.1273 111.776 71.3273 111.592 72.7353 111.592C74.1433 111.592 75.3433 111.776 76.3353 112.144C77.3433 112.496 78.1113 113.024 78.6393 113.728C79.1673 114.432 79.4313 115.272 79.4313 116.248C79.4313 117.256 79.1593 118.136 78.6153 118.888C78.0713 119.624 77.2953 120.192 76.2873 120.592C75.2793 120.992 74.0953 121.192 72.7353 121.192ZM72.7353 119.248C74.0793 119.248 75.1273 118.976 75.8793 118.432C76.6473 117.872 77.0312 117.12 77.0312 116.176C77.0312 115.248 76.6473 114.52 75.8793 113.992C75.1273 113.448 74.0793 113.176 72.7353 113.176C71.4073 113.176 70.3673 113.448 69.6153 113.992C68.8633 114.52 68.4873 115.248 68.4873 116.176C68.4873 117.12 68.8633 117.872 69.6153 118.432C70.3673 118.976 71.4073 119.248 72.7353 119.248ZM72.7353 112.888C71.4553 112.888 70.3673 112.72 69.4713 112.384C68.5753 112.032 67.8873 111.536 67.4073 110.896C66.9273 110.24 66.6873 109.464 66.6873 108.568C66.6873 107.624 66.9353 106.816 67.4313 106.144C67.9433 105.456 68.6553 104.928 69.5673 104.56C70.4793 104.192 71.5353 104.008 72.7353 104.008C73.9513 104.008 75.0153 104.192 75.9273 104.56C76.8393 104.928 77.5513 105.456 78.0633 106.144C78.5753 106.816 78.8313 107.624 78.8313 108.568C78.8313 109.464 78.5913 110.24 78.1113 110.896C77.6313 111.536 76.9353 112.032 76.0233 112.384C75.1113 112.72 74.0153 112.888 72.7353 112.888ZM72.7353 111.352C73.9033 111.352 74.8153 111.112 75.4713 110.632C76.1433 110.152 76.4793 109.496 76.4793 108.664C76.4793 107.816 76.1353 107.152 75.4473 106.672C74.7593 106.192 73.8553 105.952 72.7353 105.952C71.6153 105.952 70.7193 106.192 70.0473 106.672C69.3913 107.152 69.0633 107.816 69.0633 108.664C69.0633 109.496 69.3833 110.152 70.0233 110.632C70.6793 111.112 71.5833 111.352 72.7353 111.352ZM88.6846 121.192C87.1966 121.192 85.9246 120.864 84.8686 120.208C83.8126 119.552 83.0046 118.608 82.4446 117.376C81.9006 116.128 81.6286 114.608 81.6286 112.816C81.6286 110.912 81.9646 109.304 82.6366 107.992C83.3086 106.68 84.2446 105.688 85.4446 105.016C86.6446 104.344 88.0206 104.008 89.5726 104.008C90.3726 104.008 91.1326 104.088 91.8526 104.248C92.5886 104.408 93.2206 104.656 93.7486 104.992L92.8366 106.864C92.4046 106.56 91.9086 106.352 91.3486 106.24C90.8046 106.128 90.2286 106.072 89.6206 106.072C87.9086 106.072 86.5486 106.608 85.5406 107.68C84.5326 108.736 84.0286 110.312 84.0286 112.408C84.0286 112.744 84.0446 113.144 84.0766 113.608C84.1086 114.072 84.1886 114.528 84.3166 114.976L83.5006 114.16C83.7406 113.424 84.1166 112.808 84.6286 112.312C85.1566 111.8 85.7806 111.424 86.5006 111.184C87.2366 110.928 88.0286 110.8 88.8766 110.8C89.9966 110.8 90.9886 111.008 91.8526 111.424C92.7166 111.84 93.3966 112.432 93.8926 113.2C94.3886 113.952 94.6366 114.848 94.6366 115.888C94.6366 116.96 94.3726 117.896 93.8446 118.696C93.3166 119.496 92.6046 120.112 91.7086 120.544C90.8126 120.976 89.8046 121.192 88.6846 121.192ZM88.5886 119.248C89.3246 119.248 89.9646 119.112 90.5086 118.84C91.0686 118.568 91.5086 118.192 91.8286 117.712C92.1486 117.216 92.3086 116.64 92.3086 115.984C92.3086 114.992 91.9646 114.208 91.2766 113.632C90.5886 113.04 89.6526 112.744 88.4686 112.744C87.7006 112.744 87.0286 112.888 86.4526 113.176C85.8766 113.464 85.4206 113.856 85.0846 114.352C84.7646 114.832 84.6046 115.384 84.6046 116.008C84.6046 116.584 84.7566 117.12 85.0606 117.616C85.3646 118.096 85.8126 118.488 86.4046 118.792C86.9966 119.096 87.7246 119.248 88.5886 119.248ZM101.577 121.192C100.393 121.192 99.2411 121.008 98.1211 120.64C97.0171 120.272 96.1131 119.776 95.4091 119.152L96.5131 117.256C97.0731 117.784 97.8011 118.216 98.6971 118.552C99.5931 118.888 100.553 119.056 101.577 119.056C102.825 119.056 103.793 118.792 104.481 118.264C105.185 117.72 105.537 116.992 105.537 116.08C105.537 115.2 105.201 114.496 104.529 113.968C103.873 113.424 102.825 113.152 101.385 113.152H100.041V111.472L105.033 105.328L105.369 106.288H96.1771V104.2H107.265V105.832L102.297 111.952L101.049 111.208H101.841C103.873 111.208 105.393 111.664 106.401 112.576C107.425 113.488 107.937 114.648 107.937 116.056C107.937 117 107.705 117.864 107.241 118.648C106.777 119.432 106.073 120.056 105.129 120.52C104.201 120.968 103.017 121.192 101.577 121.192ZM110.295 124.552L111.495 119.704L111.807 121.096C111.343 121.096 110.951 120.952 110.631 120.664C110.327 120.376 110.175 119.984 110.175 119.488C110.175 119.008 110.327 118.616 110.631 118.312C110.951 118.008 111.335 117.856 111.783 117.856C112.247 117.856 112.623 118.016 112.911 118.336C113.199 118.64 113.343 119.024 113.343 119.488C113.343 119.648 113.327 119.808 113.295 119.968C113.279 120.112 113.239 120.288 113.175 120.496C113.127 120.688 113.047 120.928 112.935 121.216L111.807 124.552H110.295ZM118.14 121V105.16L119.172 106.288H114.348V104.2H120.516V121H118.14ZM131.247 121.192C129.759 121.192 128.487 120.864 127.431 120.208C126.375 119.552 125.567 118.608 125.007 117.376C124.463 116.128 124.191 114.608 124.191 112.816C124.191 110.912 124.527 109.304 125.199 107.992C125.871 106.68 126.807 105.688 128.007 105.016C129.207 104.344 130.583 104.008 132.135 104.008C132.935 104.008 133.695 104.088 134.415 104.248C135.151 104.408 135.783 104.656 136.311 104.992L135.399 106.864C134.967 106.56 134.471 106.352 133.911 106.24C133.367 106.128 132.791 106.072 132.183 106.072C130.471 106.072 129.111 106.608 128.103 107.68C127.095 108.736 126.591 110.312 126.591 112.408C126.591 112.744 126.607 113.144 126.639 113.608C126.671 114.072 126.751 114.528 126.879 114.976L126.063 114.16C126.303 113.424 126.679 112.808 127.191 112.312C127.719 111.8 128.343 111.424 129.063 111.184C129.799 110.928 130.591 110.8 131.439 110.8C132.559 110.8 133.551 111.008 134.415 111.424C135.279 111.84 135.959 112.432 136.455 113.2C136.951 113.952 137.199 114.848 137.199 115.888C137.199 116.96 136.935 117.896 136.407 118.696C135.879 119.496 135.167 120.112 134.271 120.544C133.375 120.976 132.367 121.192 131.247 121.192ZM131.151 119.248C131.887 119.248 132.527 119.112 133.071 118.84C133.631 118.568 134.071 118.192 134.391 117.712C134.711 117.216 134.871 116.64 134.871 115.984C134.871 114.992 134.527 114.208 133.839 113.632C133.151 113.04 132.215 112.744 131.031 112.744C130.263 112.744 129.591 112.888 129.015 113.176C128.439 113.464 127.983 113.856 127.647 114.352C127.327 114.832 127.167 115.384 127.167 116.008C127.167 116.584 127.319 117.12 127.623 117.616C127.927 118.096 128.375 118.488 128.967 118.792C129.559 119.096 130.287 119.248 131.151 119.248ZM141.254 121V104.2H147.854C150.014 104.2 151.718 104.68 152.966 105.64C154.214 106.584 154.838 107.968 154.838 109.792C154.838 111.616 154.214 113.008 152.966 113.968C151.718 114.928 150.014 115.408 147.854 115.408H142.598L143.678 114.28V121H141.254ZM143.678 114.52L142.598 113.416H147.854C149.326 113.416 150.454 113.104 151.238 112.48C152.022 111.856 152.414 110.968 152.414 109.816C152.414 108.68 152.022 107.808 151.238 107.2C150.454 106.592 149.326 106.288 147.854 106.288H142.598L143.678 105.088V114.52ZM138.806 118.192V116.824H149.006V118.192H138.806Z" fill="#161617"></path> <path d="M224.192 114.128C223.403 114.128 222.635 114.005 221.888 113.76C221.152 113.515 220.549 113.184 220.08 112.768L220.816 111.504C221.189 111.856 221.675 112.144 222.272 112.368C222.869 112.592 223.509 112.704 224.192 112.704C225.024 112.704 225.669 112.528 226.128 112.176C226.597 111.813 226.832 111.328 226.832 110.72C226.832 110.133 226.608 109.664 226.16 109.312C225.723 108.949 225.024 108.768 224.064 108.768H223.168V107.648L226.496 103.552L226.72 104.192H220.592V102.8H227.984V103.888L224.672 107.968L223.84 107.472H224.368C225.723 107.472 226.736 107.776 227.408 108.384C228.091 108.992 228.432 109.765 228.432 110.704C228.432 111.333 228.277 111.909 227.968 112.432C227.659 112.955 227.189 113.371 226.56 113.68C225.941 113.979 225.152 114.128 224.192 114.128ZM234.5 114.128C233.626 114.128 232.842 113.904 232.148 113.456C231.466 113.008 230.922 112.357 230.516 111.504C230.122 110.651 229.924 109.616 229.924 108.4C229.924 107.184 230.122 106.149 230.516 105.296C230.922 104.443 231.466 103.792 232.148 103.344C232.842 102.896 233.626 102.672 234.5 102.672C235.364 102.672 236.143 102.896 236.836 103.344C237.53 103.792 238.074 104.443 238.468 105.296C238.863 106.149 239.06 107.184 239.06 108.4C239.06 109.616 238.863 110.651 238.468 111.504C238.074 112.357 237.53 113.008 236.836 113.456C236.143 113.904 235.364 114.128 234.5 114.128ZM234.5 112.704C235.087 112.704 235.599 112.544 236.036 112.224C236.484 111.904 236.831 111.424 237.076 110.784C237.332 110.144 237.46 109.349 237.46 108.4C237.46 107.451 237.332 106.656 237.076 106.016C236.831 105.376 236.484 104.896 236.036 104.576C235.599 104.256 235.087 104.096 234.5 104.096C233.914 104.096 233.396 104.256 232.948 104.576C232.5 104.896 232.148 105.376 231.892 106.016C231.647 106.656 231.524 107.451 231.524 108.4C231.524 109.349 231.647 110.144 231.892 110.784C232.148 111.424 232.5 111.904 232.948 112.224C233.396 112.544 233.914 112.704 234.5 112.704ZM242.132 114L249.78 102.8H251.012L243.364 114H242.132ZM243.028 108.816C242.516 108.816 242.063 108.688 241.668 108.432C241.273 108.176 240.964 107.819 240.74 107.36C240.527 106.901 240.42 106.368 240.42 105.76C240.42 105.152 240.527 104.619 240.74 104.16C240.964 103.701 241.273 103.344 241.668 103.088C242.063 102.832 242.516 102.704 243.028 102.704C243.551 102.704 244.004 102.832 244.388 103.088C244.783 103.344 245.087 103.701 245.3 104.16C245.513 104.619 245.62 105.152 245.62 105.76C245.62 106.368 245.513 106.901 245.3 107.36C245.087 107.819 244.783 108.176 244.388 108.432C244.004 108.688 243.551 108.816 243.028 108.816ZM243.028 107.904C243.519 107.904 243.903 107.717 244.18 107.344C244.457 106.96 244.596 106.432 244.596 105.76C244.596 105.088 244.457 104.565 244.18 104.192C243.903 103.808 243.519 103.616 243.028 103.616C242.548 103.616 242.164 103.808 241.876 104.192C241.599 104.565 241.46 105.088 241.46 105.76C241.46 106.421 241.599 106.944 241.876 107.328C242.164 107.712 242.548 107.904 243.028 107.904ZM250.116 114.096C249.604 114.096 249.151 113.968 248.756 113.712C248.361 113.456 248.057 113.099 247.844 112.64C247.631 112.181 247.524 111.648 247.524 111.04C247.524 110.432 247.631 109.899 247.844 109.44C248.057 108.981 248.361 108.624 248.756 108.368C249.151 108.112 249.604 107.984 250.116 107.984C250.639 107.984 251.092 108.112 251.476 108.368C251.871 108.624 252.175 108.981 252.388 109.44C252.612 109.899 252.724 110.432 252.724 111.04C252.724 111.648 252.612 112.181 252.388 112.64C252.175 113.099 251.871 113.456 251.476 113.712C251.092 113.968 250.639 114.096 250.116 114.096ZM250.116 113.184C250.596 113.184 250.975 112.997 251.252 112.624C251.54 112.24 251.684 111.712 251.684 111.04C251.684 110.379 251.54 109.856 251.252 109.472C250.975 109.088 250.596 108.896 250.116 108.896C249.636 108.896 249.252 109.088 248.964 109.472C248.687 109.845 248.548 110.368 248.548 111.04C248.548 111.712 248.687 112.24 248.964 112.624C249.252 112.997 249.636 113.184 250.116 113.184Z" fill="#2CCC39"></path> <path d="M254 143H16V145H254V143Z" fill="#DDDDDD" mask="url(#path-21-inside-1_2148_2595)"></path> <path d="M22.8 178.096C21.9573 178.096 21.1733 177.957 20.448 177.68C19.7333 177.392 19.1093 176.992 18.576 176.48C18.0533 175.957 17.6427 175.355 17.344 174.672C17.056 173.979 16.912 173.221 16.912 172.4C16.912 171.579 17.056 170.827 17.344 170.144C17.6427 169.451 18.0533 168.848 18.576 168.336C19.1093 167.813 19.7333 167.413 20.448 167.136C21.1627 166.848 21.9467 166.704 22.8 166.704C23.6427 166.704 24.4213 166.848 25.136 167.136C25.8507 167.413 26.4693 167.808 26.992 168.32C27.5253 168.832 27.936 169.435 28.224 170.128C28.5227 170.821 28.672 171.579 28.672 172.4C28.672 173.221 28.5227 173.979 28.224 174.672C27.936 175.365 27.5253 175.968 26.992 176.48C26.4693 176.992 25.8507 177.392 25.136 177.68C24.4213 177.957 23.6427 178.096 22.8 178.096ZM22.8 177.04C23.472 177.04 24.0907 176.928 24.656 176.704C25.232 176.469 25.728 176.144 26.144 175.728C26.5707 175.301 26.9013 174.811 27.136 174.256C27.3707 173.691 27.488 173.072 27.488 172.4C27.488 171.728 27.3707 171.115 27.136 170.56C26.9013 169.995 26.5707 169.504 26.144 169.088C25.728 168.661 25.232 168.336 24.656 168.112C24.0907 167.877 23.472 167.76 22.8 167.76C22.128 167.76 21.504 167.877 20.928 168.112C20.352 168.336 19.8507 168.661 19.424 169.088C19.008 169.504 18.6773 169.995 18.432 170.56C18.1973 171.115 18.08 171.728 18.08 172.4C18.08 173.061 18.1973 173.675 18.432 174.24C18.6773 174.805 19.008 175.301 19.424 175.728C19.8507 176.144 20.352 176.469 20.928 176.704C21.504 176.928 22.128 177.04 22.8 177.04ZM36.4094 178.096C35.5667 178.096 34.7827 177.957 34.0574 177.68C33.3427 177.392 32.7187 176.992 32.1854 176.48C31.6627 175.957 31.252 175.355 30.9534 174.672C30.6654 173.979 30.5214 173.221 30.5214 172.4C30.5214 171.579 30.6654 170.827 30.9534 170.144C31.252 169.451 31.6627 168.848 32.1854 168.336C32.7187 167.813 33.3427 167.413 34.0574 167.136C34.772 166.848 35.556 166.704 36.4094 166.704C37.252 166.704 38.0307 166.848 38.7454 167.136C39.46 167.413 40.0787 167.808 40.6014 168.32C41.1347 168.832 41.5454 169.435 41.8334 170.128C42.132 170.821 42.2814 171.579 42.2814 172.4C42.2814 173.221 42.132 173.979 41.8334 174.672C41.5454 175.365 41.1347 175.968 40.6014 176.48C40.0787 176.992 39.46 177.392 38.7454 177.68C38.0307 177.957 37.252 178.096 36.4094 178.096ZM36.4094 177.04C37.0814 177.04 37.7 176.928 38.2654 176.704C38.8414 176.469 39.3374 176.144 39.7534 175.728C40.18 175.301 40.5107 174.811 40.7454 174.256C40.98 173.691 41.0974 173.072 41.0974 172.4C41.0974 171.728 40.98 171.115 40.7454 170.56C40.5107 169.995 40.18 169.504 39.7534 169.088C39.3374 168.661 38.8414 168.336 38.2654 168.112C37.7 167.877 37.0814 167.76 36.4094 167.76C35.7374 167.76 35.1134 167.877 34.5374 168.112C33.9614 168.336 33.46 168.661 33.0334 169.088C32.6174 169.504 32.2867 169.995 32.0414 170.56C31.8067 171.115 31.6894 171.728 31.6894 172.4C31.6894 173.061 31.8067 173.675 32.0414 174.24C32.2867 174.805 32.6174 175.301 33.0334 175.728C33.46 176.144 33.9614 176.469 34.5374 176.704C35.1134 176.928 35.7374 177.04 36.4094 177.04ZM50.0188 178.096C49.1761 178.096 48.3921 177.957 47.6668 177.68C46.9521 177.392 46.3281 176.992 45.7948 176.48C45.2721 175.957 44.8614 175.355 44.5628 174.672C44.2748 173.979 44.1308 173.221 44.1308 172.4C44.1308 171.579 44.2748 170.827 44.5628 170.144C44.8614 169.451 45.2721 168.848 45.7948 168.336C46.3281 167.813 46.9521 167.413 47.6668 167.136C48.3814 166.848 49.1654 166.704 50.0188 166.704C50.8614 166.704 51.6401 166.848 52.3548 167.136C53.0694 167.413 53.6881 167.808 54.2108 168.32C54.7441 168.832 55.1548 169.435 55.4428 170.128C55.7414 170.821 55.8908 171.579 55.8908 172.4C55.8908 173.221 55.7414 173.979 55.4428 174.672C55.1548 175.365 54.7441 175.968 54.2108 176.48C53.6881 176.992 53.0694 177.392 52.3548 177.68C51.6401 177.957 50.8614 178.096 50.0188 178.096ZM50.0188 177.04C50.6908 177.04 51.3094 176.928 51.8748 176.704C52.4508 176.469 52.9468 176.144 53.3628 175.728C53.7894 175.301 54.1201 174.811 54.3548 174.256C54.5894 173.691 54.7068 173.072 54.7068 172.4C54.7068 171.728 54.5894 171.115 54.3548 170.56C54.1201 169.995 53.7894 169.504 53.3628 169.088C52.9468 168.661 52.4508 168.336 51.8748 168.112C51.3094 167.877 50.6908 167.76 50.0188 167.76C49.3468 167.76 48.7228 167.877 48.1468 168.112C47.5708 168.336 47.0694 168.661 46.6428 169.088C46.2268 169.504 45.8961 169.995 45.6508 170.56C45.4161 171.115 45.2988 171.728 45.2988 172.4C45.2988 173.061 45.4161 173.675 45.6508 174.24C45.8961 174.805 46.2268 175.301 46.6428 175.728C47.0694 176.144 47.5708 176.469 48.1468 176.704C48.7228 176.928 49.3468 177.04 50.0188 177.04ZM63.5116 166.128L62.8076 169.088L62.6796 168.4C62.9356 168.4 63.1436 168.48 63.3036 168.64C63.4636 168.789 63.5436 168.992 63.5436 169.248C63.5436 169.504 63.4636 169.712 63.3036 169.872C63.1436 170.032 62.9463 170.112 62.7116 170.112C62.4556 170.112 62.2476 170.032 62.0876 169.872C61.9383 169.701 61.8636 169.493 61.8636 169.248C61.8636 169.152 61.869 169.067 61.8796 168.992C61.8903 168.917 61.9116 168.827 61.9436 168.72C61.9756 168.613 62.0183 168.485 62.0716 168.336L62.7436 166.128H63.5116ZM66.2316 166.128L65.5276 169.088L65.3996 168.4C65.6556 168.4 65.8636 168.48 66.0236 168.64C66.1836 168.789 66.2636 168.992 66.2636 169.248C66.2636 169.504 66.1836 169.712 66.0236 169.872C65.8636 170.032 65.6663 170.112 65.4316 170.112C65.1756 170.112 64.9676 170.032 64.8076 169.872C64.6583 169.701 64.5836 169.493 64.5836 169.248C64.5836 169.152 64.589 169.067 64.5996 168.992C64.6103 168.917 64.6316 168.827 64.6636 168.72C64.6956 168.613 64.7383 168.485 64.7916 168.336L65.4636 166.128H66.2316ZM69.013 178V166.8H73.669C74.853 166.8 75.781 167.045 76.453 167.536C77.1357 168.016 77.477 168.725 77.477 169.664C77.477 170.592 77.1517 171.296 76.501 171.776C75.8503 172.245 74.997 172.48 73.941 172.48L74.213 172.08C75.461 172.08 76.4103 172.325 77.061 172.816C77.7117 173.307 78.037 174.027 78.037 174.976C78.037 175.936 77.6957 176.683 77.013 177.216C76.341 177.739 75.3277 178 73.973 178H69.013ZM70.181 177.056H73.973C74.9223 177.056 75.6423 176.88 76.133 176.528C76.6237 176.176 76.869 175.632 76.869 174.896C76.869 174.171 76.6237 173.637 76.133 173.296C75.6423 172.955 74.9223 172.784 73.973 172.784H70.181V177.056ZM70.181 171.872H73.605C74.469 171.872 75.1303 171.701 75.589 171.36C76.0583 171.008 76.293 170.491 76.293 169.808C76.293 169.125 76.0583 168.613 75.589 168.272C75.1303 167.92 74.469 167.744 73.605 167.744H70.181V171.872ZM82.0534 171.808H87.9734V172.816H82.0534V171.808ZM82.1814 176.976H88.9174V178H80.9974V166.8H88.6774V167.824H82.1814V176.976ZM99.7363 166.8H100.904V178H99.7363V166.8ZM92.7283 178H91.5443V166.8H92.7283V178ZM99.8483 172.832H92.6003V171.792H99.8483V172.832ZM106.909 178V167.504L107.229 167.824H102.973V166.8H112.013V167.824H107.773L108.077 167.504V178H106.909ZM114.091 178V166.8H115.067L120.187 175.536H119.675L124.747 166.8H125.723V178H124.587V168.576H124.859L120.187 176.576H119.627L114.923 168.576H115.227V178H114.091ZM134.409 178.096C133.567 178.096 132.783 177.957 132.057 177.68C131.343 177.392 130.719 176.992 130.185 176.48C129.663 175.957 129.252 175.355 128.953 174.672C128.665 173.979 128.521 173.221 128.521 172.4C128.521 171.579 128.665 170.827 128.953 170.144C129.252 169.451 129.663 168.848 130.185 168.336C130.719 167.813 131.343 167.413 132.057 167.136C132.772 166.848 133.556 166.704 134.409 166.704C135.252 166.704 136.031 166.848 136.745 167.136C137.46 167.413 138.079 167.808 138.601 168.32C139.135 168.832 139.545 169.435 139.833 170.128C140.132 170.821 140.281 171.579 140.281 172.4C140.281 173.221 140.132 173.979 139.833 174.672C139.545 175.365 139.135 175.968 138.601 176.48C138.079 176.992 137.46 177.392 136.745 177.68C136.031 177.957 135.252 178.096 134.409 178.096ZM134.409 177.04C135.081 177.04 135.7 176.928 136.265 176.704C136.841 176.469 137.337 176.144 137.753 175.728C138.18 175.301 138.511 174.811 138.745 174.256C138.98 173.691 139.097 173.072 139.097 172.4C139.097 171.728 138.98 171.115 138.745 170.56C138.511 169.995 138.18 169.504 137.753 169.088C137.337 168.661 136.841 168.336 136.265 168.112C135.7 167.877 135.081 167.76 134.409 167.76C133.737 167.76 133.113 167.877 132.537 168.112C131.961 168.336 131.46 168.661 131.033 169.088C130.617 169.504 130.287 169.995 130.041 170.56C129.807 171.115 129.689 171.728 129.689 172.4C129.689 173.061 129.807 173.675 130.041 174.24C130.287 174.805 130.617 175.301 131.033 175.728C131.46 176.144 131.961 176.469 132.537 176.704C133.113 176.928 133.737 177.04 134.409 177.04ZM151.299 166.8H152.467V178H151.299V166.8ZM144.291 178H143.107V166.8H144.291V178ZM151.411 172.832H144.163V171.792H151.411V172.832ZM158.471 178V167.504L158.791 167.824H154.535V166.8H163.575V167.824H159.335L159.639 167.504V178H158.471ZM163.443 178L168.563 166.8H169.731L174.851 178H173.603L168.899 167.488H169.379L164.675 178H163.443ZM165.459 175.008L165.811 174.048H172.323L172.675 175.008H165.459ZM189.01 178L185.282 172.416L186.29 171.84L190.386 178H189.01ZM182.898 172.864V171.824H186.098V172.864H182.898ZM186.338 172.528L185.25 172.336L188.818 166.8H190.098L186.338 172.528ZM176.354 178H174.978L179.074 171.84L180.082 172.416L176.354 178ZM183.266 178H182.114V166.8H183.266V178ZM182.466 172.864H179.266V171.824H182.466V172.864ZM179.026 172.528L175.266 166.8H176.546L180.098 172.336L179.026 172.528ZM191.787 170.032L192.491 167.088L192.619 167.76C192.373 167.76 192.165 167.685 191.995 167.536C191.835 167.376 191.755 167.168 191.755 166.912C191.755 166.656 191.835 166.448 191.995 166.288C192.165 166.128 192.368 166.048 192.603 166.048C192.848 166.048 193.045 166.133 193.195 166.304C193.355 166.464 193.435 166.667 193.435 166.912C193.435 166.997 193.429 167.083 193.419 167.168C193.408 167.253 193.387 167.349 193.355 167.456C193.333 167.552 193.296 167.675 193.243 167.824L192.555 170.032H191.787ZM194.507 170.032L195.211 167.088L195.339 167.76C195.093 167.76 194.885 167.685 194.715 167.536C194.555 167.376 194.475 167.168 194.475 166.912C194.475 166.656 194.555 166.448 194.715 166.288C194.885 166.128 195.088 166.048 195.323 166.048C195.568 166.048 195.765 166.133 195.915 166.304C196.075 166.464 196.155 166.667 196.155 166.912C196.155 166.997 196.149 167.083 196.139 167.168C196.128 167.253 196.107 167.349 196.075 167.456C196.053 167.552 196.016 167.675 195.963 167.824L195.275 170.032H194.507Z" fill="#49494F"></path> <path d="M254 223H16V225H254V223Z" fill="#DDDDDD" mask="url(#path-25-inside-2_2148_2595)"></path> <path d="M17.652 254V244.2H25.898V254H24.876V244.816L25.142 245.096H18.408L18.674 244.816V254H17.652ZM32.7607 254.07C32.1261 254.07 31.5521 253.925 31.0387 253.636C30.5254 253.337 30.1147 252.913 29.8067 252.362C29.5081 251.802 29.3587 251.121 29.3587 250.318C29.3587 249.515 29.5081 248.839 29.8067 248.288C30.1054 247.728 30.5114 247.303 31.0247 247.014C31.5381 246.725 32.1167 246.58 32.7607 246.58C33.4607 246.58 34.0861 246.739 34.6367 247.056C35.1967 247.364 35.6354 247.803 35.9527 248.372C36.2701 248.932 36.4287 249.581 36.4287 250.318C36.4287 251.065 36.2701 251.718 35.9527 252.278C35.6354 252.838 35.1967 253.277 34.6367 253.594C34.0861 253.911 33.4607 254.07 32.7607 254.07ZM28.9667 256.716V246.65H29.9187V248.862L29.8207 250.332L29.9607 251.816V256.716H28.9667ZM32.6907 253.188C33.2134 253.188 33.6801 253.071 34.0907 252.838C34.5014 252.595 34.8281 252.259 35.0707 251.83C35.3134 251.391 35.4347 250.887 35.4347 250.318C35.4347 249.749 35.3134 249.249 35.0707 248.82C34.8281 248.391 34.5014 248.055 34.0907 247.812C33.6801 247.569 33.2134 247.448 32.6907 247.448C32.1681 247.448 31.6967 247.569 31.2767 247.812C30.8661 248.055 30.5394 248.391 30.2967 248.82C30.0634 249.249 29.9467 249.749 29.9467 250.318C29.9467 250.887 30.0634 251.391 30.2967 251.83C30.5394 252.259 30.8661 252.595 31.2767 252.838C31.6967 253.071 32.1681 253.188 32.6907 253.188ZM41.5884 254.07C40.8791 254.07 40.2397 253.911 39.6704 253.594C39.1104 253.267 38.6671 252.824 38.3404 252.264C38.0137 251.695 37.8504 251.046 37.8504 250.318C37.8504 249.581 38.0137 248.932 38.3404 248.372C38.6671 247.812 39.1104 247.373 39.6704 247.056C40.2304 246.739 40.8697 246.58 41.5884 246.58C42.3164 246.58 42.9604 246.739 43.5204 247.056C44.0897 247.373 44.5331 247.812 44.8504 248.372C45.1771 248.932 45.3404 249.581 45.3404 250.318C45.3404 251.046 45.1771 251.695 44.8504 252.264C44.5331 252.824 44.0897 253.267 43.5204 253.594C42.9511 253.911 42.3071 254.07 41.5884 254.07ZM41.5884 253.188C42.1204 253.188 42.5917 253.071 43.0024 252.838C43.4131 252.595 43.7351 252.259 43.9684 251.83C44.2111 251.391 44.3324 250.887 44.3324 250.318C44.3324 249.739 44.2111 249.235 43.9684 248.806C43.7351 248.377 43.4131 248.045 43.0024 247.812C42.5917 247.569 42.1251 247.448 41.6024 247.448C41.0797 247.448 40.6131 247.569 40.2024 247.812C39.7917 248.045 39.4651 248.377 39.2224 248.806C38.9797 249.235 38.8584 249.739 38.8584 250.318C38.8584 250.887 38.9797 251.391 39.2224 251.83C39.4651 252.259 39.7917 252.595 40.2024 252.838C40.6131 253.071 41.0751 253.188 41.5884 253.188ZM47.4648 254V246.65H48.4588V252.488L53.3728 246.65H54.2548V254H53.2608V248.148L48.3608 254H47.4648ZM58.9271 254.084C59.5337 254.084 60.0797 253.991 60.5651 253.804C61.0597 253.617 61.4517 253.361 61.7411 253.034C62.0304 252.698 62.1751 252.311 62.1751 251.872C62.1751 251.312 61.9371 250.869 61.4611 250.542C60.9944 250.215 60.3411 250.052 59.5011 250.052L59.4591 250.318C59.9351 250.318 60.3597 250.243 60.7331 250.094C61.1064 249.945 61.4051 249.735 61.6291 249.464C61.8531 249.193 61.9651 248.876 61.9651 248.512C61.9651 248.101 61.8251 247.751 61.5451 247.462C61.2651 247.163 60.8871 246.935 60.4111 246.776C59.9444 246.617 59.4171 246.547 58.8291 246.566C58.3997 246.566 57.9704 246.627 57.5411 246.748C57.1211 246.86 56.6964 247.028 56.2671 247.252L56.5471 248.022C56.9297 247.826 57.3171 247.681 57.7091 247.588C58.1011 247.485 58.4791 247.429 58.8431 247.42C59.2444 247.42 59.6037 247.467 59.9211 247.56C60.2384 247.653 60.4857 247.793 60.6631 247.98C60.8497 248.167 60.9431 248.391 60.9431 248.652C60.9431 248.895 60.8637 249.105 60.7051 249.282C60.5557 249.459 60.3411 249.595 60.0611 249.688C59.7811 249.781 59.4591 249.828 59.0951 249.828H57.9051V250.556H59.1651C59.7811 250.556 60.2664 250.668 60.6211 250.892C60.9757 251.107 61.1531 251.41 61.1531 251.802C61.1531 252.073 61.0597 252.315 60.8731 252.53C60.6864 252.745 60.4251 252.913 60.0891 253.034C59.7531 253.155 59.3564 253.221 58.8991 253.23C58.4417 253.23 57.9797 253.165 57.5131 253.034C57.0464 252.894 56.6357 252.693 56.2811 252.432L55.9591 253.174C56.3604 253.482 56.8224 253.711 57.3451 253.86C57.8677 254.009 58.3951 254.084 58.9271 254.084ZM64.4316 254V246.65H67.6796C68.5102 246.65 69.1636 246.809 69.6396 247.126C70.1249 247.443 70.3676 247.91 70.3676 248.526C70.3676 249.123 70.1389 249.585 69.6816 249.912C69.2242 250.229 68.6222 250.388 67.8756 250.388L68.0716 250.094C68.9489 250.094 69.5929 250.257 70.0036 250.584C70.4142 250.911 70.6196 251.382 70.6196 251.998C70.6196 252.633 70.3862 253.127 69.9196 253.482C69.4622 253.827 68.7482 254 67.7776 254H64.4316ZM65.3976 253.216H67.7356C68.3609 253.216 68.8322 253.118 69.1496 252.922C69.4762 252.717 69.6396 252.39 69.6396 251.942C69.6396 251.494 69.4949 251.167 69.2056 250.962C68.9162 250.757 68.4589 250.654 67.8336 250.654H65.3976V253.216ZM65.3976 249.912H67.6096C68.1789 249.912 68.6129 249.805 68.9116 249.59C69.2196 249.375 69.3736 249.063 69.3736 248.652C69.3736 248.241 69.2196 247.933 68.9116 247.728C68.6129 247.523 68.1789 247.42 67.6096 247.42H65.3976V249.912ZM75.9732 254.07C75.2638 254.07 74.6245 253.911 74.0552 253.594C73.4952 253.267 73.0518 252.824 72.7252 252.264C72.3985 251.695 72.2352 251.046 72.2352 250.318C72.2352 249.581 72.3985 248.932 72.7252 248.372C73.0518 247.812 73.4952 247.373 74.0552 247.056C74.6152 246.739 75.2545 246.58 75.9732 246.58C76.7012 246.58 77.3452 246.739 77.9052 247.056C78.4745 247.373 78.9178 247.812 79.2352 248.372C79.5618 248.932 79.7252 249.581 79.7252 250.318C79.7252 251.046 79.5618 251.695 79.2352 252.264C78.9178 252.824 78.4745 253.267 77.9052 253.594C77.3358 253.911 76.6918 254.07 75.9732 254.07ZM75.9732 253.188C76.5052 253.188 76.9765 253.071 77.3872 252.838C77.7978 252.595 78.1198 252.259 78.3532 251.83C78.5958 251.391 78.7172 250.887 78.7172 250.318C78.7172 249.739 78.5958 249.235 78.3532 248.806C78.1198 248.377 77.7978 248.045 77.3872 247.812C76.9765 247.569 76.5098 247.448 75.9872 247.448C75.4645 247.448 74.9978 247.569 74.5872 247.812C74.1765 248.045 73.8498 248.377 73.6072 248.806C73.3645 249.235 73.2432 249.739 73.2432 250.318C73.2432 250.887 73.3645 251.391 73.6072 251.83C73.8498 252.259 74.1765 252.595 74.5872 252.838C74.9978 253.071 75.4598 253.188 75.9732 253.188ZM86.8485 253.524V247.518H83.3065L83.2225 249.156C83.2039 249.651 83.1712 250.136 83.1245 250.612C83.0872 251.088 83.0172 251.527 82.9145 251.928C82.8212 252.32 82.6859 252.642 82.5085 252.894C82.3312 253.137 82.1025 253.277 81.8225 253.314L80.8285 253.132C81.1179 253.141 81.3559 253.039 81.5425 252.824C81.7292 252.6 81.8739 252.297 81.9765 251.914C82.0792 251.531 82.1539 251.097 82.2005 250.612C82.2472 250.117 82.2845 249.613 82.3125 249.1L82.4105 246.65H87.8425V253.524H86.8485ZM80.5205 255.778V253.132H88.9905V255.778H88.0525V254H81.4585V255.778H80.5205ZM94.0077 254.07C93.2797 254.07 92.6263 253.911 92.0477 253.594C91.4783 253.267 91.0303 252.824 90.7037 252.264C90.377 251.695 90.2137 251.046 90.2137 250.318C90.2137 249.581 90.377 248.932 90.7037 248.372C91.0303 247.812 91.4783 247.373 92.0477 247.056C92.6263 246.739 93.2797 246.58 94.0077 246.58C94.633 246.58 95.1977 246.701 95.7017 246.944C96.2057 247.187 96.6023 247.551 96.8917 248.036L96.1497 248.54C95.8977 248.167 95.585 247.891 95.2117 247.714C94.8383 247.537 94.4323 247.448 93.9937 247.448C93.471 247.448 92.9997 247.569 92.5797 247.812C92.1597 248.045 91.8283 248.377 91.5857 248.806C91.343 249.235 91.2217 249.739 91.2217 250.318C91.2217 250.897 91.343 251.401 91.5857 251.83C91.8283 252.259 92.1597 252.595 92.5797 252.838C92.9997 253.071 93.471 253.188 93.9937 253.188C94.4323 253.188 94.8383 253.099 95.2117 252.922C95.585 252.745 95.8977 252.474 96.1497 252.11L96.8917 252.614C96.6023 253.09 96.2057 253.454 95.7017 253.706C95.1977 253.949 94.633 254.07 94.0077 254.07ZM100.08 254V247.252L100.332 247.518H97.2936V246.65H103.86V247.518H100.822L101.074 247.252V254H100.08ZM105.297 254V246.65H108.545C109.375 246.65 110.029 246.809 110.505 247.126C110.99 247.443 111.233 247.91 111.233 248.526C111.233 249.123 111.004 249.585 110.547 249.912C110.089 250.229 109.487 250.388 108.741 250.388L108.937 250.094C109.814 250.094 110.458 250.257 110.869 250.584C111.279 250.911 111.485 251.382 111.485 251.998C111.485 252.633 111.251 253.127 110.785 253.482C110.327 253.827 109.613 254 108.643 254H105.297ZM106.263 253.216H108.601C109.226 253.216 109.697 253.118 110.015 252.922C110.341 252.717 110.505 252.39 110.505 251.942C110.505 251.494 110.36 251.167 110.071 250.962C109.781 250.757 109.324 250.654 108.699 250.654H106.263V253.216ZM106.263 249.912H108.475C109.044 249.912 109.478 249.805 109.777 249.59C110.085 249.375 110.239 249.063 110.239 248.652C110.239 248.241 110.085 247.933 109.777 247.728C109.478 247.523 109.044 247.42 108.475 247.42H106.263V249.912ZM116.838 254.07C116.129 254.07 115.49 253.911 114.92 253.594C114.36 253.267 113.917 252.824 113.59 252.264C113.264 251.695 113.1 251.046 113.1 250.318C113.1 249.581 113.264 248.932 113.59 248.372C113.917 247.812 114.36 247.373 114.92 247.056C115.48 246.739 116.12 246.58 116.838 246.58C117.566 246.58 118.21 246.739 118.77 247.056C119.34 247.373 119.783 247.812 120.1 248.372C120.427 248.932 120.59 249.581 120.59 250.318C120.59 251.046 120.427 251.695 120.1 252.264C119.783 252.824 119.34 253.267 118.77 253.594C118.201 253.911 117.557 254.07 116.838 254.07ZM116.838 253.188C117.37 253.188 117.842 253.071 118.252 252.838C118.663 252.595 118.985 252.259 119.218 251.83C119.461 251.391 119.582 250.887 119.582 250.318C119.582 249.739 119.461 249.235 119.218 248.806C118.985 248.377 118.663 248.045 118.252 247.812C117.842 247.569 117.375 247.448 116.852 247.448C116.33 247.448 115.863 247.569 115.452 247.812C115.042 248.045 114.715 248.377 114.472 248.806C114.23 249.235 114.108 249.739 114.108 250.318C114.108 250.887 114.23 251.391 114.472 251.83C114.715 252.259 115.042 252.595 115.452 252.838C115.863 253.071 116.325 253.188 116.838 253.188ZM126.379 254V246.65H132.987V254H131.993V247.252L132.245 247.518H127.121L127.373 247.252V254H126.379ZM139.606 254.07C138.972 254.07 138.398 253.925 137.884 253.636C137.371 253.337 136.96 252.913 136.652 252.362C136.354 251.802 136.204 251.121 136.204 250.318C136.204 249.515 136.354 248.839 136.652 248.288C136.951 247.728 137.357 247.303 137.87 247.014C138.384 246.725 138.962 246.58 139.606 246.58C140.306 246.58 140.932 246.739 141.482 247.056C142.042 247.364 142.481 247.803 142.798 248.372C143.116 248.932 143.274 249.581 143.274 250.318C143.274 251.065 143.116 251.718 142.798 252.278C142.481 252.838 142.042 253.277 141.482 253.594C140.932 253.911 140.306 254.07 139.606 254.07ZM135.812 256.716V246.65H136.764V248.862L136.666 250.332L136.806 251.816V256.716H135.812ZM139.536 253.188C140.059 253.188 140.526 253.071 140.936 252.838C141.347 252.595 141.674 252.259 141.916 251.83C142.159 251.391 142.28 250.887 142.28 250.318C142.28 249.749 142.159 249.249 141.916 248.82C141.674 248.391 141.347 248.055 140.936 247.812C140.526 247.569 140.059 247.448 139.536 247.448C139.014 247.448 138.542 247.569 138.122 247.812C137.712 248.055 137.385 248.391 137.142 248.82C136.909 249.249 136.792 249.749 136.792 250.318C136.792 250.887 136.909 251.391 137.142 251.83C137.385 252.259 137.712 252.595 138.122 252.838C138.542 253.071 139.014 253.188 139.536 253.188ZM148.434 254.07C147.725 254.07 147.085 253.911 146.516 253.594C145.956 253.267 145.513 252.824 145.186 252.264C144.859 251.695 144.696 251.046 144.696 250.318C144.696 249.581 144.859 248.932 145.186 248.372C145.513 247.812 145.956 247.373 146.516 247.056C147.076 246.739 147.715 246.58 148.434 246.58C149.162 246.58 149.806 246.739 150.366 247.056C150.935 247.373 151.379 247.812 151.696 248.372C152.023 248.932 152.186 249.581 152.186 250.318C152.186 251.046 152.023 251.695 151.696 252.264C151.379 252.824 150.935 253.267 150.366 253.594C149.797 253.911 149.153 254.07 148.434 254.07ZM148.434 253.188C148.966 253.188 149.437 253.071 149.848 252.838C150.259 252.595 150.581 252.259 150.814 251.83C151.057 251.391 151.178 250.887 151.178 250.318C151.178 249.739 151.057 249.235 150.814 248.806C150.581 248.377 150.259 248.045 149.848 247.812C149.437 247.569 148.971 247.448 148.448 247.448C147.925 247.448 147.459 247.569 147.048 247.812C146.637 248.045 146.311 248.377 146.068 248.806C145.825 249.235 145.704 249.739 145.704 250.318C145.704 250.887 145.825 251.391 146.068 251.83C146.311 252.259 146.637 252.595 147.048 252.838C147.459 253.071 147.921 253.188 148.434 253.188ZM158.958 250.892C158.529 251.079 158.095 251.228 157.656 251.34C157.227 251.443 156.798 251.494 156.368 251.494C155.5 251.494 154.814 251.298 154.31 250.906C153.806 250.505 153.554 249.889 153.554 249.058V246.65H154.534V249.002C154.534 249.562 154.716 249.982 155.08 250.262C155.444 250.542 155.934 250.682 156.55 250.682C156.924 250.682 157.316 250.635 157.726 250.542C158.137 250.439 158.552 250.295 158.972 250.108L158.958 250.892ZM158.874 254V246.65H159.868V254H158.874ZM162.691 254V246.65H163.685V252.488L168.599 246.65H169.481V254H168.487V248.148L163.587 254H162.691ZM171.126 254L174.234 249.968L174.22 250.458L171.266 246.65H172.386L174.808 249.8L174.388 249.786L176.81 246.65H177.902L174.92 250.5L174.934 249.968L178.07 254H176.936L174.374 250.64L174.766 250.696L172.246 254H171.126ZM186.443 254.07C185.715 254.07 185.062 253.911 184.483 253.594C183.914 253.267 183.466 252.824 183.139 252.264C182.813 251.695 182.649 251.046 182.649 250.318C182.649 249.581 182.813 248.932 183.139 248.372C183.466 247.812 183.914 247.373 184.483 247.056C185.062 246.739 185.715 246.58 186.443 246.58C187.069 246.58 187.633 246.701 188.137 246.944C188.641 247.187 189.038 247.551 189.327 248.036L188.585 248.54C188.333 248.167 188.021 247.891 187.647 247.714C187.274 247.537 186.868 247.448 186.429 247.448C185.907 247.448 185.435 247.569 185.015 247.812C184.595 248.045 184.264 248.377 184.021 248.806C183.779 249.235 183.657 249.739 183.657 250.318C183.657 250.897 183.779 251.401 184.021 251.83C184.264 252.259 184.595 252.595 185.015 252.838C185.435 253.071 185.907 253.188 186.429 253.188C186.868 253.188 187.274 253.099 187.647 252.922C188.021 252.745 188.333 252.474 188.585 252.11L189.327 252.614C189.038 253.09 188.641 253.454 188.137 253.706C187.633 253.949 187.069 254.07 186.443 254.07ZM192.515 254V247.252L192.767 247.518H189.729V246.65H196.295V247.518H193.257L193.509 247.252V254H192.515ZM201.526 254.07C200.892 254.07 200.318 253.925 199.804 253.636C199.291 253.337 198.88 252.913 198.572 252.362C198.274 251.802 198.124 251.121 198.124 250.318C198.124 249.515 198.274 248.839 198.572 248.288C198.871 247.728 199.277 247.303 199.79 247.014C200.304 246.725 200.882 246.58 201.526 246.58C202.226 246.58 202.852 246.739 203.402 247.056C203.962 247.364 204.401 247.803 204.718 248.372C205.036 248.932 205.194 249.581 205.194 250.318C205.194 251.065 205.036 251.718 204.718 252.278C204.401 252.838 203.962 253.277 203.402 253.594C202.852 253.911 202.226 254.07 201.526 254.07ZM197.732 256.716V246.65H198.684V248.862L198.586 250.332L198.726 251.816V256.716H197.732ZM201.456 253.188C201.979 253.188 202.446 253.071 202.856 252.838C203.267 252.595 203.594 252.259 203.836 251.83C204.079 251.391 204.2 250.887 204.2 250.318C204.2 249.749 204.079 249.249 203.836 248.82C203.594 248.391 203.267 248.055 202.856 247.812C202.446 247.569 201.979 247.448 201.456 247.448C200.934 247.448 200.462 247.569 200.042 247.812C199.632 248.055 199.305 248.391 199.062 248.82C198.829 249.249 198.712 249.749 198.712 250.318C198.712 250.887 198.829 251.391 199.062 251.83C199.305 252.259 199.632 252.595 200.042 252.838C200.462 253.071 200.934 253.188 201.456 253.188ZM210.354 254.07C209.645 254.07 209.005 253.911 208.436 253.594C207.876 253.267 207.433 252.824 207.106 252.264C206.779 251.695 206.616 251.046 206.616 250.318C206.616 249.581 206.779 248.932 207.106 248.372C207.433 247.812 207.876 247.373 208.436 247.056C208.996 246.739 209.635 246.58 210.354 246.58C211.082 246.58 211.726 246.739 212.286 247.056C212.855 247.373 213.299 247.812 213.616 248.372C213.943 248.932 214.106 249.581 214.106 250.318C214.106 251.046 213.943 251.695 213.616 252.264C213.299 252.824 212.855 253.267 212.286 253.594C211.717 253.911 211.073 254.07 210.354 254.07ZM210.354 253.188C210.886 253.188 211.357 253.071 211.768 252.838C212.179 252.595 212.501 252.259 212.734 251.83C212.977 251.391 213.098 250.887 213.098 250.318C213.098 249.739 212.977 249.235 212.734 248.806C212.501 248.377 212.179 248.045 211.768 247.812C211.357 247.569 210.891 247.448 210.368 247.448C209.845 247.448 209.379 247.569 208.968 247.812C208.557 248.045 208.231 248.377 207.988 248.806C207.745 249.235 207.624 249.739 207.624 250.318C207.624 250.887 207.745 251.391 207.988 251.83C208.231 252.259 208.557 252.595 208.968 252.838C209.379 253.071 209.841 253.188 210.354 253.188ZM216.23 254V246.65H217.224V252.488L222.138 246.65H223.02V254H222.026V248.148L217.126 254H216.23ZM227.269 254V247.252L227.521 247.518H224.483V246.65H231.049V247.518H228.011L228.263 247.252V254H227.269ZM235.294 254.07C234.529 254.07 233.857 253.911 233.278 253.594C232.7 253.267 232.247 252.824 231.92 252.264C231.594 251.695 231.43 251.046 231.43 250.318C231.43 249.59 231.584 248.946 231.892 248.386C232.21 247.826 232.639 247.387 233.18 247.07C233.731 246.743 234.347 246.58 235.028 246.58C235.719 246.58 236.33 246.739 236.862 247.056C237.404 247.364 237.828 247.803 238.136 248.372C238.444 248.932 238.598 249.581 238.598 250.318C238.598 250.365 238.594 250.416 238.584 250.472C238.584 250.519 238.584 250.57 238.584 250.626H232.186V249.884H238.052L237.66 250.178C237.66 249.646 237.544 249.175 237.31 248.764C237.086 248.344 236.778 248.017 236.386 247.784C235.994 247.551 235.542 247.434 235.028 247.434C234.524 247.434 234.072 247.551 233.67 247.784C233.269 248.017 232.956 248.344 232.732 248.764C232.508 249.184 232.396 249.665 232.396 250.206V250.36C232.396 250.92 232.518 251.415 232.76 251.844C233.012 252.264 233.358 252.595 233.796 252.838C234.244 253.071 234.753 253.188 235.322 253.188C235.77 253.188 236.186 253.109 236.568 252.95C236.96 252.791 237.296 252.549 237.576 252.222L238.136 252.866C237.81 253.258 237.399 253.557 236.904 253.762C236.419 253.967 235.882 254.07 235.294 254.07ZM239.304 253.986L239.374 253.132C239.44 253.141 239.5 253.155 239.556 253.174C239.622 253.183 239.678 253.188 239.724 253.188C240.023 253.188 240.261 253.076 240.438 252.852C240.625 252.628 240.765 252.329 240.858 251.956C240.952 251.583 241.017 251.163 241.054 250.696C241.092 250.22 241.124 249.744 241.152 249.268L241.278 246.65H246.668V254H245.674V247.224L245.926 247.518H241.922L242.16 247.21L242.048 249.338C242.02 249.973 241.969 250.579 241.894 251.158C241.829 251.737 241.722 252.245 241.572 252.684C241.432 253.123 241.236 253.468 240.984 253.72C240.732 253.963 240.41 254.084 240.018 254.084C239.906 254.084 239.79 254.075 239.668 254.056C239.556 254.037 239.435 254.014 239.304 253.986ZM249.564 254.07C249.359 254.07 249.181 253.995 249.032 253.846C248.892 253.697 248.822 253.515 248.822 253.3C248.822 253.076 248.892 252.894 249.032 252.754C249.181 252.614 249.359 252.544 249.564 252.544C249.769 252.544 249.942 252.614 250.082 252.754C250.231 252.894 250.306 253.076 250.306 253.3C250.306 253.515 250.231 253.697 250.082 253.846C249.942 253.995 249.769 254.07 249.564 254.07ZM252.531 254.07C252.326 254.07 252.148 253.995 251.999 253.846C251.859 253.697 251.789 253.515 251.789 253.3C251.789 253.076 251.859 252.894 251.999 252.754C252.148 252.614 252.326 252.544 252.531 252.544C252.736 252.544 252.909 252.614 253.049 252.754C253.198 252.894 253.273 253.076 253.273 253.3C253.273 253.515 253.198 253.697 253.049 253.846C252.909 253.995 252.736 254.07 252.531 254.07ZM255.498 254.07C255.292 254.07 255.115 253.995 254.966 253.846C254.826 253.697 254.756 253.515 254.756 253.3C254.756 253.076 254.826 252.894 254.966 252.754C255.115 252.614 255.292 252.544 255.498 252.544C255.703 252.544 255.876 252.614 256.016 252.754C256.165 252.894 256.24 253.076 256.24 253.3C256.24 253.515 256.165 253.697 256.016 253.846C255.876 253.995 255.703 254.07 255.498 254.07Z" fill="#49494F"></path> <rect x="0.5" y="0.5" width="269" height="281" rx="15.5" stroke="#E2E4E7"></rect> <defs> <linearGradient id="paint0_linear_2148_2595" x1="19" y1="26.5" x2="36" y2="64" gradientUnits="userSpaceOnUse"> <stop stop-color="#161617"></stop> <stop offset="1" stop-color="#212122"></stop> </linearGradient> </defs> </svg> 