<?xml version="1.0" encoding="UTF-8"?> <svg xmlns="http://www.w3.org/2000/svg" width="270" height="282" viewBox="0 0 270 282" fill="none"> <rect x="0.5" y="0.5" width="269" height="281" rx="15.5" fill="white"></rect> <rect x="16" y="24" width="40" height="40" rx="8" fill="#181819"></rect> <path d="M27.75 53.75H23.25V49.25H27.75V53.75Z" stroke="white" stroke-width="0.5"></path> <path d="M28.75 43.75H24.25V39.25H28.75V43.75Z" stroke="white" stroke-width="0.5"></path> <path d="M32.75 53.75H28.25V49.25H32.75V53.75Z" stroke="white" stroke-width="0.5"></path> <path d="M30.75 48.75H26.25V44.25H30.75V48.75Z" stroke="white" stroke-width="0.5"></path> <path d="M33.75 43.75H29.25V39.25H33.75V43.75Z" stroke="white" stroke-width="0.5"></path> <path d="M30.75 38.75H26.25V34.25H30.75V38.75Z" stroke="white" stroke-width="0.5"></path> <path d="M37.75 53.75H33.25V49.25H37.75V53.75Z" stroke="white" stroke-width="0.5"></path> <path d="M35.75 48.75H31.25V44.25H35.75V48.75Z" stroke="white" stroke-width="0.5"></path> <path d="M38.75 43.75H34.25V39.25H38.75V43.75Z" stroke="white" stroke-width="0.5"></path> <path d="M35.75 38.75H31.25V34.25H35.75V38.75Z" stroke="white" stroke-width="0.5"></path> <path d="M42.75 53.75H38.25V49.25H42.75V53.75Z" stroke="white" stroke-width="0.5"></path> <path d="M40.75 48.75H36.25V44.25H40.75V48.75Z" stroke="white" stroke-width="0.5"></path> <path d="M43.75 43.75H39.25V39.25H43.75V43.75Z" stroke="white" stroke-width="0.5"></path> <path d="M47.75 53.75H43.25V49.25H47.75V53.75Z" stroke="white" stroke-width="0.5"></path> <path d="M45.75 48.75H41.25V44.25H45.75V48.75Z" stroke="white" stroke-width="0.5"></path> <path d="M48.75 43.75H44.25V39.25H48.75V43.75Z" stroke="white" stroke-width="0.5"></path> <path d="M48.75 38.75H44.25V34.25H48.75V38.75Z" stroke="white" stroke-width="0.5"></path> <path d="M26 44H46" stroke="#356BD5" stroke-width="0.1"></path> <path d="M26 49H46" stroke="#356BD5" stroke-width="0.1"></path> <path d="M43 49V54" stroke="#356BD5" stroke-width="0.1"></path> <path d="M38 49V54" stroke="#356BD5" stroke-width="0.1"></path> <path d="M33 49V54" stroke="#356BD5" stroke-width="0.1"></path> <path d="M28 49V54" stroke="#356BD5" stroke-width="0.1"></path> <path d="M31 44V49" stroke="#356BD5" stroke-width="0.1"></path> <path d="M36 44V49" stroke="#356BD5" stroke-width="0.1"></path> <path d="M41 44V49" stroke="#356BD5" stroke-width="0.1"></path> <path d="M44 39V44" stroke="#356BD5" stroke-width="0.1"></path> <path d="M39 39V44" stroke="#356BD5" stroke-width="0.1"></path> <path d="M34 39V44" stroke="#356BD5" stroke-width="0.1"></path> <path d="M29 39V44" stroke="#356BD5" stroke-width="0.1"></path> <path d="M31 34V39" stroke="#356BD5" stroke-width="0.1"></path> <path d="M26 39H49" stroke="#356BD5" stroke-width="0.1"></path> <path d="M128.526 49V39.2H132.74C133.804 39.2 134.639 39.4147 135.246 39.844C135.853 40.2733 136.156 40.8987 136.156 41.72C136.156 42.5227 135.867 43.1387 135.288 43.568C134.709 43.988 133.949 44.198 133.006 44.198L133.258 43.778C134.35 43.778 135.185 43.9973 135.764 44.436C136.352 44.8653 136.646 45.4953 136.646 46.326C136.646 47.166 136.338 47.824 135.722 48.3C135.115 48.7667 134.21 49 133.006 49H128.526ZM129.912 47.894H132.978C133.725 47.894 134.285 47.7587 134.658 47.488C135.041 47.208 135.232 46.7833 135.232 46.214C135.232 45.6447 135.041 45.2293 134.658 44.968C134.285 44.7067 133.725 44.576 132.978 44.576H129.912V47.894ZM129.912 43.512H132.642C133.323 43.512 133.841 43.3767 134.196 43.106C134.56 42.8353 134.742 42.4387 134.742 41.916C134.742 41.384 134.56 40.9827 134.196 40.712C133.841 40.4413 133.323 40.306 132.642 40.306H129.912V43.512ZM146.097 49V41.58H147.441V49H146.097ZM142.107 44.1C143.05 44.1093 143.764 44.324 144.249 44.744C144.744 45.164 144.991 45.7567 144.991 46.522C144.991 47.3247 144.72 47.9453 144.179 48.384C143.647 48.8133 142.882 49.0233 141.883 49.014L138.761 49V41.58H140.105V44.086L142.107 44.1ZM141.785 47.992C142.382 48.0013 142.84 47.88 143.157 47.628C143.474 47.376 143.633 47.0027 143.633 46.508C143.633 46.0227 143.474 45.668 143.157 45.444C142.849 45.22 142.392 45.1033 141.785 45.094L140.105 45.066V47.978L141.785 47.992ZM155.122 48.37V42.756H151.902L151.832 44.184C151.813 44.6507 151.781 45.1033 151.734 45.542C151.697 45.9713 151.631 46.368 151.538 46.732C151.454 47.096 151.328 47.3947 151.16 47.628C150.992 47.8613 150.768 48.006 150.488 48.062L149.158 47.824C149.447 47.8333 149.681 47.74 149.858 47.544C150.035 47.3387 150.171 47.0587 150.264 46.704C150.367 46.3493 150.441 45.948 150.488 45.5C150.535 45.0427 150.572 44.5713 150.6 44.086L150.712 41.58H156.466V48.37H155.122ZM148.864 50.722V47.824H157.6V50.722H156.34V49H150.138V50.722H148.864ZM163.901 49V47.432L163.831 47.138V44.464C163.831 43.8947 163.663 43.456 163.327 43.148C163 42.8307 162.505 42.672 161.843 42.672C161.404 42.672 160.975 42.7467 160.555 42.896C160.135 43.036 159.78 43.2273 159.491 43.47L158.931 42.462C159.313 42.154 159.771 41.9207 160.303 41.762C160.844 41.594 161.409 41.51 161.997 41.51C163.014 41.51 163.798 41.7573 164.349 42.252C164.899 42.7467 165.175 43.5027 165.175 44.52V49H163.901ZM161.465 49.084C160.914 49.084 160.429 48.9907 160.009 48.804C159.598 48.6173 159.281 48.3607 159.057 48.034C158.833 47.698 158.721 47.32 158.721 46.9C158.721 46.4987 158.814 46.1347 159.001 45.808C159.197 45.4813 159.509 45.22 159.939 45.024C160.377 44.828 160.965 44.73 161.703 44.73H164.055V45.696H161.759C161.087 45.696 160.634 45.808 160.401 46.032C160.167 46.256 160.051 46.5267 160.051 46.844C160.051 47.208 160.195 47.502 160.485 47.726C160.774 47.9407 161.175 48.048 161.689 48.048C162.193 48.048 162.631 47.936 163.005 47.712C163.387 47.488 163.663 47.1613 163.831 46.732L164.097 47.656C163.919 48.0947 163.607 48.4447 163.159 48.706C162.711 48.958 162.146 49.084 161.465 49.084ZM167.595 49V41.58H168.939V44.73H173.167V41.58H174.511V49H173.167V45.892H168.939V49H167.595ZM180.1 49V48.048L184.09 44.198C184.445 43.862 184.706 43.568 184.874 43.316C185.051 43.0547 185.168 42.8167 185.224 42.602C185.289 42.378 185.322 42.1633 185.322 41.958C185.322 41.454 185.145 41.0573 184.79 40.768C184.435 40.4787 183.917 40.334 183.236 40.334C182.713 40.334 182.242 40.4227 181.822 40.6C181.402 40.768 181.038 41.034 180.73 41.398L179.778 40.572C180.151 40.096 180.651 39.732 181.276 39.48C181.911 39.2187 182.606 39.088 183.362 39.088C184.043 39.088 184.636 39.2 185.14 39.424C185.644 39.6387 186.031 39.9513 186.302 40.362C186.582 40.7727 186.722 41.258 186.722 41.818C186.722 42.1353 186.68 42.448 186.596 42.756C186.512 43.064 186.353 43.3907 186.12 43.736C185.887 44.0813 185.551 44.4687 185.112 44.898L181.556 48.328L181.22 47.782H187.142V49H180.1ZM192.395 49.112C191.527 49.112 190.785 48.9207 190.169 48.538C189.553 48.1553 189.082 47.6047 188.755 46.886C188.438 46.158 188.279 45.2713 188.279 44.226C188.279 43.1153 188.475 42.1773 188.867 41.412C189.259 40.6467 189.805 40.068 190.505 39.676C191.205 39.284 192.008 39.088 192.913 39.088C193.38 39.088 193.823 39.1347 194.243 39.228C194.673 39.3213 195.041 39.466 195.349 39.662L194.817 40.754C194.565 40.5767 194.276 40.4553 193.949 40.39C193.632 40.3247 193.296 40.292 192.941 40.292C191.943 40.292 191.149 40.6047 190.561 41.23C189.973 41.846 189.679 42.7653 189.679 43.988C189.679 44.184 189.689 44.4173 189.707 44.688C189.726 44.9587 189.773 45.2247 189.847 45.486L189.371 45.01C189.511 44.5807 189.731 44.2213 190.029 43.932C190.337 43.6333 190.701 43.414 191.121 43.274C191.551 43.1247 192.013 43.05 192.507 43.05C193.161 43.05 193.739 43.1713 194.243 43.414C194.747 43.6567 195.144 44.002 195.433 44.45C195.723 44.8887 195.867 45.4113 195.867 46.018C195.867 46.6433 195.713 47.1893 195.405 47.656C195.097 48.1227 194.682 48.482 194.159 48.734C193.637 48.986 193.049 49.112 192.395 49.112ZM192.339 47.978C192.769 47.978 193.142 47.8987 193.459 47.74C193.786 47.5813 194.043 47.362 194.229 47.082C194.416 46.7927 194.509 46.4567 194.509 46.074C194.509 45.4953 194.309 45.038 193.907 44.702C193.506 44.3567 192.96 44.184 192.269 44.184C191.821 44.184 191.429 44.268 191.093 44.436C190.757 44.604 190.491 44.8327 190.295 45.122C190.109 45.402 190.015 45.724 190.015 46.088C190.015 46.424 190.104 46.7367 190.281 47.026C190.459 47.306 190.72 47.5347 191.065 47.712C191.411 47.8893 191.835 47.978 192.339 47.978ZM197.981 49.084C197.719 49.084 197.495 48.9953 197.309 48.818C197.122 48.6313 197.029 48.398 197.029 48.118C197.029 47.838 197.122 47.6093 197.309 47.432C197.495 47.2547 197.719 47.166 197.981 47.166C198.233 47.166 198.447 47.2547 198.625 47.432C198.811 47.6093 198.905 47.838 198.905 48.118C198.905 48.398 198.811 48.6313 198.625 48.818C198.447 48.9953 198.233 49.084 197.981 49.084ZM204.069 49.112C203.303 49.112 202.617 48.916 202.011 48.524C201.413 48.132 200.937 47.5627 200.583 46.816C200.237 46.0693 200.065 45.164 200.065 44.1C200.065 43.036 200.237 42.1307 200.583 41.384C200.937 40.6373 201.413 40.068 202.011 39.676C202.617 39.284 203.303 39.088 204.069 39.088C204.825 39.088 205.506 39.284 206.113 39.676C206.719 40.068 207.195 40.6373 207.541 41.384C207.886 42.1307 208.059 43.036 208.059 44.1C208.059 45.164 207.886 46.0693 207.541 46.816C207.195 47.5627 206.719 48.132 206.113 48.524C205.506 48.916 204.825 49.112 204.069 49.112ZM204.069 47.866C204.582 47.866 205.03 47.726 205.413 47.446C205.805 47.166 206.108 46.746 206.323 46.186C206.547 45.626 206.659 44.9307 206.659 44.1C206.659 43.2693 206.547 42.574 206.323 42.014C206.108 41.454 205.805 41.034 205.413 40.754C205.03 40.474 204.582 40.334 204.069 40.334C203.555 40.334 203.103 40.474 202.711 40.754C202.319 41.034 202.011 41.454 201.787 42.014C201.572 42.574 201.465 43.2693 201.465 44.1C201.465 44.9307 201.572 45.626 201.787 46.186C202.011 46.746 202.319 47.166 202.711 47.446C203.103 47.726 203.555 47.866 204.069 47.866ZM211.001 49L215.159 39.788L215.523 40.418H209.699L210.399 39.732V42.168H209.055V39.2H216.447V40.152L212.485 49H211.001ZM217.873 49.084C217.612 49.084 217.388 48.9953 217.201 48.818C217.015 48.6313 216.921 48.398 216.921 48.118C216.921 47.838 217.015 47.6093 217.201 47.432C217.388 47.2547 217.612 47.166 217.873 47.166C218.125 47.166 218.34 47.2547 218.517 47.432C218.704 47.6093 218.797 47.838 218.797 48.118C218.797 48.398 218.704 48.6313 218.517 48.818C218.34 48.9953 218.125 49.084 217.873 49.084ZM220.104 49V48.048L224.094 44.198C224.449 43.862 224.71 43.568 224.878 43.316C225.055 43.0547 225.172 42.8167 225.228 42.602C225.293 42.378 225.326 42.1633 225.326 41.958C225.326 41.454 225.149 41.0573 224.794 40.768C224.439 40.4787 223.921 40.334 223.24 40.334C222.717 40.334 222.246 40.4227 221.826 40.6C221.406 40.768 221.042 41.034 220.734 41.398L219.782 40.572C220.155 40.096 220.655 39.732 221.28 39.48C221.915 39.2187 222.61 39.088 223.366 39.088C224.047 39.088 224.64 39.2 225.144 39.424C225.648 39.6387 226.035 39.9513 226.306 40.362C226.586 40.7727 226.726 41.258 226.726 41.818C226.726 42.1353 226.684 42.448 226.6 42.756C226.516 43.064 226.357 43.3907 226.124 43.736C225.891 44.0813 225.555 44.4687 225.116 44.898L221.56 48.328L221.224 47.782H227.146V49H220.104ZM232.287 49.112C231.522 49.112 230.836 48.916 230.229 48.524C229.632 48.132 229.156 47.5627 228.801 46.816C228.456 46.0693 228.283 45.164 228.283 44.1C228.283 43.036 228.456 42.1307 228.801 41.384C229.156 40.6373 229.632 40.068 230.229 39.676C230.836 39.284 231.522 39.088 232.287 39.088C233.043 39.088 233.725 39.284 234.331 39.676C234.938 40.068 235.414 40.6373 235.759 41.384C236.105 42.1307 236.277 43.036 236.277 44.1C236.277 45.164 236.105 46.0693 235.759 46.816C235.414 47.5627 234.938 48.132 234.331 48.524C233.725 48.916 233.043 49.112 232.287 49.112ZM232.287 47.866C232.801 47.866 233.249 47.726 233.631 47.446C234.023 47.166 234.327 46.746 234.541 46.186C234.765 45.626 234.877 44.9307 234.877 44.1C234.877 43.2693 234.765 42.574 234.541 42.014C234.327 41.454 234.023 41.034 233.631 40.754C233.249 40.474 232.801 40.334 232.287 40.334C231.774 40.334 231.321 40.474 230.929 40.754C230.537 41.034 230.229 41.454 230.005 42.014C229.791 42.574 229.683 43.2693 229.683 44.1C229.683 44.9307 229.791 45.626 230.005 46.186C230.229 46.746 230.537 47.166 230.929 47.446C231.321 47.726 231.774 47.866 232.287 47.866ZM237.467 49V48.048L241.457 44.198C241.812 43.862 242.073 43.568 242.241 43.316C242.419 43.0547 242.535 42.8167 242.591 42.602C242.657 42.378 242.689 42.1633 242.689 41.958C242.689 41.454 242.512 41.0573 242.157 40.768C241.803 40.4787 241.285 40.334 240.603 40.334C240.081 40.334 239.609 40.4227 239.189 40.6C238.769 40.768 238.405 41.034 238.097 41.398L237.145 40.572C237.519 40.096 238.018 39.732 238.643 39.48C239.278 39.2187 239.973 39.088 240.729 39.088C241.411 39.088 242.003 39.2 242.507 39.424C243.011 39.6387 243.399 39.9513 243.669 40.362C243.949 40.7727 244.089 41.258 244.089 41.818C244.089 42.1353 244.047 42.448 243.963 42.756C243.879 43.064 243.721 43.3907 243.487 43.736C243.254 44.0813 242.918 44.4687 242.479 44.898L238.923 48.328L238.587 47.782H244.509V49H237.467ZM245.506 49V48.048L249.496 44.198C249.851 43.862 250.112 43.568 250.28 43.316C250.458 43.0547 250.574 42.8167 250.63 42.602C250.696 42.378 250.728 42.1633 250.728 41.958C250.728 41.454 250.551 41.0573 250.196 40.768C249.842 40.4787 249.324 40.334 248.642 40.334C248.12 40.334 247.648 40.4227 247.228 40.6C246.808 40.768 246.444 41.034 246.136 41.398L245.184 40.572C245.558 40.096 246.057 39.732 246.682 39.48C247.317 39.2187 248.012 39.088 248.768 39.088C249.45 39.088 250.042 39.2 250.546 39.424C251.05 39.6387 251.438 39.9513 251.708 40.362C251.988 40.7727 252.128 41.258 252.128 41.818C252.128 42.1353 252.086 42.448 252.002 42.756C251.918 43.064 251.76 43.3907 251.526 43.736C251.293 44.0813 250.957 44.4687 250.518 44.898L246.962 48.328L246.626 47.782H252.548V49H245.506Z" fill="#49494F"></path> <path d="M22.288 121.192C21.104 121.192 19.952 121.008 18.832 120.64C17.728 120.272 16.824 119.776 16.12 119.152L17.224 117.256C17.784 117.784 18.512 118.216 19.408 118.552C20.304 118.888 21.264 119.056 22.288 119.056C23.536 119.056 24.504 118.792 25.192 118.264C25.896 117.72 26.248 116.992 26.248 116.08C26.248 115.2 25.912 114.496 25.24 113.968C24.584 113.424 23.536 113.152 22.096 113.152H20.752V111.472L25.744 105.328L26.08 106.288H16.888V104.2H27.976V105.832L23.008 111.952L21.76 111.208H22.552C24.584 111.208 26.104 111.664 27.112 112.576C28.136 113.488 28.648 114.648 28.648 116.056C28.648 117 28.416 117.864 27.952 118.648C27.488 119.432 26.784 120.056 25.84 120.52C24.912 120.968 23.728 121.192 22.288 121.192ZM37.4384 121.192C36.0784 121.192 34.9024 120.992 33.9104 120.592C32.9184 120.192 32.1504 119.624 31.6064 118.888C31.0624 118.136 30.7904 117.256 30.7904 116.248C30.7904 115.256 31.0464 114.416 31.5584 113.728C32.0864 113.024 32.8464 112.496 33.8384 112.144C34.8304 111.776 36.0304 111.592 37.4384 111.592C38.8464 111.592 40.0464 111.776 41.0384 112.144C42.0464 112.496 42.8144 113.024 43.3424 113.728C43.8704 114.432 44.1344 115.272 44.1344 116.248C44.1344 117.256 43.8624 118.136 43.3184 118.888C42.7744 119.624 41.9984 120.192 40.9904 120.592C39.9824 120.992 38.7984 121.192 37.4384 121.192ZM37.4384 119.248C38.7824 119.248 39.8304 118.976 40.5824 118.432C41.3504 117.872 41.7344 117.12 41.7344 116.176C41.7344 115.248 41.3504 114.52 40.5824 113.992C39.8304 113.448 38.7824 113.176 37.4384 113.176C36.1104 113.176 35.0704 113.448 34.3184 113.992C33.5664 114.52 33.1904 115.248 33.1904 116.176C33.1904 117.12 33.5664 117.872 34.3184 118.432C35.0704 118.976 36.1104 119.248 37.4384 119.248ZM37.4384 112.888C36.1584 112.888 35.0704 112.72 34.1744 112.384C33.2784 112.032 32.5904 111.536 32.1104 110.896C31.6304 110.24 31.3904 109.464 31.3904 108.568C31.3904 107.624 31.6384 106.816 32.1344 106.144C32.6464 105.456 33.3584 104.928 34.2704 104.56C35.1824 104.192 36.2384 104.008 37.4384 104.008C38.6544 104.008 39.7184 104.192 40.6304 104.56C41.5424 104.928 42.2544 105.456 42.7664 106.144C43.2784 106.816 43.5344 107.624 43.5344 108.568C43.5344 109.464 43.2944 110.24 42.8144 110.896C42.3344 111.536 41.6384 112.032 40.7264 112.384C39.8144 112.72 38.7184 112.888 37.4384 112.888ZM37.4384 111.352C38.6064 111.352 39.5184 111.112 40.1744 110.632C40.8464 110.152 41.1824 109.496 41.1824 108.664C41.1824 107.816 40.8384 107.152 40.1504 106.672C39.4624 106.192 38.5584 105.952 37.4384 105.952C36.3184 105.952 35.4224 106.192 34.7504 106.672C34.0944 107.152 33.7664 107.816 33.7664 108.664C33.7664 109.496 34.0864 110.152 34.7264 110.632C35.3824 111.112 36.2864 111.352 37.4384 111.352ZM51.7557 121.192C50.5717 121.192 49.4197 121.008 48.2997 120.64C47.1957 120.272 46.2917 119.776 45.5877 119.152L46.6917 117.256C47.2517 117.784 47.9797 118.216 48.8757 118.552C49.7717 118.888 50.7237 119.056 51.7317 119.056C53.0117 119.056 53.9957 118.784 54.6837 118.24C55.3717 117.696 55.7157 116.968 55.7157 116.056C55.7157 115.432 55.5637 114.888 55.2597 114.424C54.9557 113.96 54.4277 113.608 53.6757 113.368C52.9397 113.112 51.9237 112.984 50.6277 112.984H46.8117L47.6997 104.2H57.1797V106.288H48.5877L49.8357 105.112L49.1397 112.048L47.8917 110.896H51.1317C52.8117 110.896 54.1637 111.112 55.1877 111.544C56.2117 111.976 56.9557 112.576 57.4197 113.344C57.8837 114.096 58.1157 114.968 58.1157 115.96C58.1157 116.92 57.8837 117.8 57.4197 118.6C56.9557 119.384 56.2517 120.016 55.3077 120.496C54.3797 120.96 53.1957 121.192 51.7557 121.192ZM69.3903 121V105.16L70.4223 106.288H65.5983V104.2H71.7663V121H69.3903ZM80.8651 121.192C79.6811 121.192 78.5291 121.008 77.4091 120.64C76.3051 120.272 75.4011 119.776 74.6971 119.152L75.8011 117.256C76.3611 117.784 77.0891 118.216 77.9851 118.552C78.8811 118.888 79.8331 119.056 80.8411 119.056C82.1211 119.056 83.1051 118.784 83.7931 118.24C84.4811 117.696 84.8251 116.968 84.8251 116.056C84.8251 115.432 84.6731 114.888 84.3691 114.424C84.0651 113.96 83.5371 113.608 82.7851 113.368C82.0491 113.112 81.0331 112.984 79.7371 112.984H75.9211L76.8091 104.2H86.2891V106.288H77.6971L78.9451 105.112L78.2491 112.048L77.0011 110.896H80.2411C81.9211 110.896 83.2731 111.112 84.2971 111.544C85.3211 111.976 86.0651 112.576 86.5291 113.344C86.9931 114.096 87.2251 114.968 87.2251 115.96C87.2251 116.92 86.9931 117.8 86.5291 118.6C86.0651 119.384 85.3611 120.016 84.4171 120.496C83.4891 120.96 82.3051 121.192 80.8651 121.192ZM88.9823 116.872V115.192L97.5743 104.2H100.166L91.6463 115.192L90.4223 114.808H103.838V116.872H88.9823ZM98.3183 121V116.872L98.3903 114.808V111.16H100.646V121H98.3183ZM105.866 124.552L107.066 119.704L107.378 121.096C106.914 121.096 106.522 120.952 106.202 120.664C105.898 120.376 105.746 119.984 105.746 119.488C105.746 119.008 105.898 118.616 106.202 118.312C106.522 118.008 106.906 117.856 107.354 117.856C107.818 117.856 108.194 118.016 108.482 118.336C108.77 118.64 108.914 119.024 108.914 119.488C108.914 119.648 108.898 119.808 108.866 119.968C108.85 120.112 108.81 120.288 108.746 120.496C108.698 120.688 108.618 120.928 108.506 121.216L107.378 124.552H105.866ZM117.766 121.192C116.454 121.192 115.278 120.856 114.238 120.184C113.214 119.512 112.398 118.536 111.79 117.256C111.198 115.976 110.902 114.424 110.902 112.6C110.902 110.776 111.198 109.224 111.79 107.944C112.398 106.664 113.214 105.688 114.238 105.016C115.278 104.344 116.454 104.008 117.766 104.008C119.062 104.008 120.23 104.344 121.27 105.016C122.31 105.688 123.126 106.664 123.718 107.944C124.31 109.224 124.606 110.776 124.606 112.6C124.606 114.424 124.31 115.976 123.718 117.256C123.126 118.536 122.31 119.512 121.27 120.184C120.23 120.856 119.062 121.192 117.766 121.192ZM117.766 119.056C118.646 119.056 119.414 118.816 120.07 118.336C120.742 117.856 121.262 117.136 121.63 116.176C122.014 115.216 122.206 114.024 122.206 112.6C122.206 111.176 122.014 109.984 121.63 109.024C121.262 108.064 120.742 107.344 120.07 106.864C119.414 106.384 118.646 106.144 117.766 106.144C116.886 106.144 116.11 106.384 115.438 106.864C114.766 107.344 114.238 108.064 113.854 109.024C113.486 109.984 113.302 111.176 113.302 112.6C113.302 114.024 113.486 115.216 113.854 116.176C114.238 117.136 114.766 117.856 115.438 118.336C116.11 118.816 116.886 119.056 117.766 119.056ZM126.646 121V119.368L133.486 112.768C134.094 112.192 134.542 111.688 134.83 111.256C135.134 110.808 135.334 110.4 135.43 110.032C135.542 109.648 135.598 109.28 135.598 108.928C135.598 108.064 135.294 107.384 134.686 106.888C134.078 106.392 133.19 106.144 132.022 106.144C131.126 106.144 130.318 106.296 129.598 106.6C128.878 106.888 128.254 107.344 127.726 107.968L126.094 106.552C126.734 105.736 127.59 105.112 128.662 104.68C129.75 104.232 130.942 104.008 132.238 104.008C133.406 104.008 134.422 104.2 135.286 104.584C136.15 104.952 136.814 105.488 137.278 106.192C137.758 106.896 137.998 107.728 137.998 108.688C137.998 109.232 137.926 109.768 137.782 110.296C137.638 110.824 137.366 111.384 136.966 111.976C136.566 112.568 135.99 113.232 135.238 113.968L129.142 119.848L128.566 118.912H138.718V121H126.646ZM142.707 121V104.2H149.307C151.467 104.2 153.171 104.68 154.419 105.64C155.667 106.584 156.291 107.968 156.291 109.792C156.291 111.616 155.667 113.008 154.419 113.968C153.171 114.928 151.467 115.408 149.307 115.408H144.051L145.131 114.28V121H142.707ZM145.131 114.52L144.051 113.416H149.307C150.779 113.416 151.907 113.104 152.691 112.48C153.475 111.856 153.867 110.968 153.867 109.816C153.867 108.68 153.475 107.808 152.691 107.2C151.907 106.592 150.779 106.288 149.307 106.288H144.051L145.131 105.088V114.52ZM140.259 118.192V116.824H150.459V118.192H140.259Z" fill="#161617"></path> <path d="M224.192 114.128C223.403 114.128 222.635 114.005 221.888 113.76C221.152 113.515 220.549 113.184 220.08 112.768L220.816 111.504C221.189 111.856 221.675 112.144 222.272 112.368C222.869 112.592 223.509 112.704 224.192 112.704C225.024 112.704 225.669 112.528 226.128 112.176C226.597 111.813 226.832 111.328 226.832 110.72C226.832 110.133 226.608 109.664 226.16 109.312C225.723 108.949 225.024 108.768 224.064 108.768H223.168V107.648L226.496 103.552L226.72 104.192H220.592V102.8H227.984V103.888L224.672 107.968L223.84 107.472H224.368C225.723 107.472 226.736 107.776 227.408 108.384C228.091 108.992 228.432 109.765 228.432 110.704C228.432 111.333 228.277 111.909 227.968 112.432C227.659 112.955 227.189 113.371 226.56 113.68C225.941 113.979 225.152 114.128 224.192 114.128ZM234.5 114.128C233.626 114.128 232.842 113.904 232.148 113.456C231.466 113.008 230.922 112.357 230.516 111.504C230.122 110.651 229.924 109.616 229.924 108.4C229.924 107.184 230.122 106.149 230.516 105.296C230.922 104.443 231.466 103.792 232.148 103.344C232.842 102.896 233.626 102.672 234.5 102.672C235.364 102.672 236.143 102.896 236.836 103.344C237.53 103.792 238.074 104.443 238.468 105.296C238.863 106.149 239.06 107.184 239.06 108.4C239.06 109.616 238.863 110.651 238.468 111.504C238.074 112.357 237.53 113.008 236.836 113.456C236.143 113.904 235.364 114.128 234.5 114.128ZM234.5 112.704C235.087 112.704 235.599 112.544 236.036 112.224C236.484 111.904 236.831 111.424 237.076 110.784C237.332 110.144 237.46 109.349 237.46 108.4C237.46 107.451 237.332 106.656 237.076 106.016C236.831 105.376 236.484 104.896 236.036 104.576C235.599 104.256 235.087 104.096 234.5 104.096C233.914 104.096 233.396 104.256 232.948 104.576C232.5 104.896 232.148 105.376 231.892 106.016C231.647 106.656 231.524 107.451 231.524 108.4C231.524 109.349 231.647 110.144 231.892 110.784C232.148 111.424 232.5 111.904 232.948 112.224C233.396 112.544 233.914 112.704 234.5 112.704ZM242.132 114L249.78 102.8H251.012L243.364 114H242.132ZM243.028 108.816C242.516 108.816 242.063 108.688 241.668 108.432C241.273 108.176 240.964 107.819 240.74 107.36C240.527 106.901 240.42 106.368 240.42 105.76C240.42 105.152 240.527 104.619 240.74 104.16C240.964 103.701 241.273 103.344 241.668 103.088C242.063 102.832 242.516 102.704 243.028 102.704C243.551 102.704 244.004 102.832 244.388 103.088C244.783 103.344 245.087 103.701 245.3 104.16C245.513 104.619 245.62 105.152 245.62 105.76C245.62 106.368 245.513 106.901 245.3 107.36C245.087 107.819 244.783 108.176 244.388 108.432C244.004 108.688 243.551 108.816 243.028 108.816ZM243.028 107.904C243.519 107.904 243.903 107.717 244.18 107.344C244.457 106.96 244.596 106.432 244.596 105.76C244.596 105.088 244.457 104.565 244.18 104.192C243.903 103.808 243.519 103.616 243.028 103.616C242.548 103.616 242.164 103.808 241.876 104.192C241.599 104.565 241.46 105.088 241.46 105.76C241.46 106.421 241.599 106.944 241.876 107.328C242.164 107.712 242.548 107.904 243.028 107.904ZM250.116 114.096C249.604 114.096 249.151 113.968 248.756 113.712C248.361 113.456 248.057 113.099 247.844 112.64C247.631 112.181 247.524 111.648 247.524 111.04C247.524 110.432 247.631 109.899 247.844 109.44C248.057 108.981 248.361 108.624 248.756 108.368C249.151 108.112 249.604 107.984 250.116 107.984C250.639 107.984 251.092 108.112 251.476 108.368C251.871 108.624 252.175 108.981 252.388 109.44C252.612 109.899 252.724 110.432 252.724 111.04C252.724 111.648 252.612 112.181 252.388 112.64C252.175 113.099 251.871 113.456 251.476 113.712C251.092 113.968 250.639 114.096 250.116 114.096ZM250.116 113.184C250.596 113.184 250.975 112.997 251.252 112.624C251.54 112.24 251.684 111.712 251.684 111.04C251.684 110.379 251.54 109.856 251.252 109.472C250.975 109.088 250.596 108.896 250.116 108.896C249.636 108.896 249.252 109.088 248.964 109.472C248.687 109.845 248.548 110.368 248.548 111.04C248.548 111.712 248.687 112.24 248.964 112.624C249.252 112.997 249.636 113.184 250.116 113.184Z" fill="#2CCC39"></path> <path d="M254 143H16V145H254V143Z" fill="#DDDDDD" mask="url(#path-36-inside-1_2148_2625)"></path> <path d="M22.8 178.096C21.9573 178.096 21.1733 177.957 20.448 177.68C19.7333 177.392 19.1093 176.992 18.576 176.48C18.0533 175.957 17.6427 175.355 17.344 174.672C17.056 173.979 16.912 173.221 16.912 172.4C16.912 171.579 17.056 170.827 17.344 170.144C17.6427 169.451 18.0533 168.848 18.576 168.336C19.1093 167.813 19.7333 167.413 20.448 167.136C21.1627 166.848 21.9467 166.704 22.8 166.704C23.6427 166.704 24.4213 166.848 25.136 167.136C25.8507 167.413 26.4693 167.808 26.992 168.32C27.5253 168.832 27.936 169.435 28.224 170.128C28.5227 170.821 28.672 171.579 28.672 172.4C28.672 173.221 28.5227 173.979 28.224 174.672C27.936 175.365 27.5253 175.968 26.992 176.48C26.4693 176.992 25.8507 177.392 25.136 177.68C24.4213 177.957 23.6427 178.096 22.8 178.096ZM22.8 177.04C23.472 177.04 24.0907 176.928 24.656 176.704C25.232 176.469 25.728 176.144 26.144 175.728C26.5707 175.301 26.9013 174.811 27.136 174.256C27.3707 173.691 27.488 173.072 27.488 172.4C27.488 171.728 27.3707 171.115 27.136 170.56C26.9013 169.995 26.5707 169.504 26.144 169.088C25.728 168.661 25.232 168.336 24.656 168.112C24.0907 167.877 23.472 167.76 22.8 167.76C22.128 167.76 21.504 167.877 20.928 168.112C20.352 168.336 19.8507 168.661 19.424 169.088C19.008 169.504 18.6773 169.995 18.432 170.56C18.1973 171.115 18.08 171.728 18.08 172.4C18.08 173.061 18.1973 173.675 18.432 174.24C18.6773 174.805 19.008 175.301 19.424 175.728C19.8507 176.144 20.352 176.469 20.928 176.704C21.504 176.928 22.128 177.04 22.8 177.04ZM36.4094 178.096C35.5667 178.096 34.7827 177.957 34.0574 177.68C33.3427 177.392 32.7187 176.992 32.1854 176.48C31.6627 175.957 31.252 175.355 30.9534 174.672C30.6654 173.979 30.5214 173.221 30.5214 172.4C30.5214 171.579 30.6654 170.827 30.9534 170.144C31.252 169.451 31.6627 168.848 32.1854 168.336C32.7187 167.813 33.3427 167.413 34.0574 167.136C34.772 166.848 35.556 166.704 36.4094 166.704C37.252 166.704 38.0307 166.848 38.7454 167.136C39.46 167.413 40.0787 167.808 40.6014 168.32C41.1347 168.832 41.5454 169.435 41.8334 170.128C42.132 170.821 42.2814 171.579 42.2814 172.4C42.2814 173.221 42.132 173.979 41.8334 174.672C41.5454 175.365 41.1347 175.968 40.6014 176.48C40.0787 176.992 39.46 177.392 38.7454 177.68C38.0307 177.957 37.252 178.096 36.4094 178.096ZM36.4094 177.04C37.0814 177.04 37.7 176.928 38.2654 176.704C38.8414 176.469 39.3374 176.144 39.7534 175.728C40.18 175.301 40.5107 174.811 40.7454 174.256C40.98 173.691 41.0974 173.072 41.0974 172.4C41.0974 171.728 40.98 171.115 40.7454 170.56C40.5107 169.995 40.18 169.504 39.7534 169.088C39.3374 168.661 38.8414 168.336 38.2654 168.112C37.7 167.877 37.0814 167.76 36.4094 167.76C35.7374 167.76 35.1134 167.877 34.5374 168.112C33.9614 168.336 33.46 168.661 33.0334 169.088C32.6174 169.504 32.2867 169.995 32.0414 170.56C31.8067 171.115 31.6894 171.728 31.6894 172.4C31.6894 173.061 31.8067 173.675 32.0414 174.24C32.2867 174.805 32.6174 175.301 33.0334 175.728C33.46 176.144 33.9614 176.469 34.5374 176.704C35.1134 176.928 35.7374 177.04 36.4094 177.04ZM50.0188 178.096C49.1761 178.096 48.3921 177.957 47.6668 177.68C46.9521 177.392 46.3281 176.992 45.7948 176.48C45.2721 175.957 44.8614 175.355 44.5628 174.672C44.2748 173.979 44.1308 173.221 44.1308 172.4C44.1308 171.579 44.2748 170.827 44.5628 170.144C44.8614 169.451 45.2721 168.848 45.7948 168.336C46.3281 167.813 46.9521 167.413 47.6668 167.136C48.3814 166.848 49.1654 166.704 50.0188 166.704C50.8614 166.704 51.6401 166.848 52.3548 167.136C53.0694 167.413 53.6881 167.808 54.2108 168.32C54.7441 168.832 55.1548 169.435 55.4428 170.128C55.7414 170.821 55.8908 171.579 55.8908 172.4C55.8908 173.221 55.7414 173.979 55.4428 174.672C55.1548 175.365 54.7441 175.968 54.2108 176.48C53.6881 176.992 53.0694 177.392 52.3548 177.68C51.6401 177.957 50.8614 178.096 50.0188 178.096ZM50.0188 177.04C50.6908 177.04 51.3094 176.928 51.8748 176.704C52.4508 176.469 52.9468 176.144 53.3628 175.728C53.7894 175.301 54.1201 174.811 54.3548 174.256C54.5894 173.691 54.7068 173.072 54.7068 172.4C54.7068 171.728 54.5894 171.115 54.3548 170.56C54.1201 169.995 53.7894 169.504 53.3628 169.088C52.9468 168.661 52.4508 168.336 51.8748 168.112C51.3094 167.877 50.6908 167.76 50.0188 167.76C49.3468 167.76 48.7228 167.877 48.1468 168.112C47.5708 168.336 47.0694 168.661 46.6428 169.088C46.2268 169.504 45.8961 169.995 45.6508 170.56C45.4161 171.115 45.2988 171.728 45.2988 172.4C45.2988 173.061 45.4161 173.675 45.6508 174.24C45.8961 174.805 46.2268 175.301 46.6428 175.728C47.0694 176.144 47.5708 176.469 48.1468 176.704C48.7228 176.928 49.3468 177.04 50.0188 177.04ZM63.5116 166.128L62.8076 169.088L62.6796 168.4C62.9356 168.4 63.1436 168.48 63.3036 168.64C63.4636 168.789 63.5436 168.992 63.5436 169.248C63.5436 169.504 63.4636 169.712 63.3036 169.872C63.1436 170.032 62.9463 170.112 62.7116 170.112C62.4556 170.112 62.2476 170.032 62.0876 169.872C61.9383 169.701 61.8636 169.493 61.8636 169.248C61.8636 169.152 61.869 169.067 61.8796 168.992C61.8903 168.917 61.9116 168.827 61.9436 168.72C61.9756 168.613 62.0183 168.485 62.0716 168.336L62.7436 166.128H63.5116ZM66.2316 166.128L65.5276 169.088L65.3996 168.4C65.6556 168.4 65.8636 168.48 66.0236 168.64C66.1836 168.789 66.2636 168.992 66.2636 169.248C66.2636 169.504 66.1836 169.712 66.0236 169.872C65.8636 170.032 65.6663 170.112 65.4316 170.112C65.1756 170.112 64.9676 170.032 64.8076 169.872C64.6583 169.701 64.5836 169.493 64.5836 169.248C64.5836 169.152 64.589 169.067 64.5996 168.992C64.6103 168.917 64.6316 168.827 64.6636 168.72C64.6956 168.613 64.7383 168.485 64.7916 168.336L65.4636 166.128H66.2316ZM69.013 178V166.8H73.669C74.853 166.8 75.781 167.045 76.453 167.536C77.1357 168.016 77.477 168.725 77.477 169.664C77.477 170.592 77.1517 171.296 76.501 171.776C75.8503 172.245 74.997 172.48 73.941 172.48L74.213 172.08C75.461 172.08 76.4103 172.325 77.061 172.816C77.7117 173.307 78.037 174.027 78.037 174.976C78.037 175.936 77.6957 176.683 77.013 177.216C76.341 177.739 75.3277 178 73.973 178H69.013ZM70.181 177.056H73.973C74.9223 177.056 75.6423 176.88 76.133 176.528C76.6237 176.176 76.869 175.632 76.869 174.896C76.869 174.171 76.6237 173.637 76.133 173.296C75.6423 172.955 74.9223 172.784 73.973 172.784H70.181V177.056ZM70.181 171.872H73.605C74.469 171.872 75.1303 171.701 75.589 171.36C76.0583 171.008 76.293 170.491 76.293 169.808C76.293 169.125 76.0583 168.613 75.589 168.272C75.1303 167.92 74.469 167.744 73.605 167.744H70.181V171.872ZM82.0534 171.808H87.9734V172.816H82.0534V171.808ZM82.1814 176.976H88.9174V178H80.9974V166.8H88.6774V167.824H82.1814V176.976ZM99.7363 166.8H100.904V178H99.7363V166.8ZM92.7283 178H91.5443V166.8H92.7283V178ZM99.8483 172.832H92.6003V171.792H99.8483V172.832ZM106.909 178V167.504L107.229 167.824H102.973V166.8H112.013V167.824H107.773L108.077 167.504V178H106.909ZM114.091 178V166.8H115.067L120.187 175.536H119.675L124.747 166.8H125.723V178H124.587V168.576H124.859L120.187 176.576H119.627L114.923 168.576H115.227V178H114.091ZM134.409 178.096C133.567 178.096 132.783 177.957 132.057 177.68C131.343 177.392 130.719 176.992 130.185 176.48C129.663 175.957 129.252 175.355 128.953 174.672C128.665 173.979 128.521 173.221 128.521 172.4C128.521 171.579 128.665 170.827 128.953 170.144C129.252 169.451 129.663 168.848 130.185 168.336C130.719 167.813 131.343 167.413 132.057 167.136C132.772 166.848 133.556 166.704 134.409 166.704C135.252 166.704 136.031 166.848 136.745 167.136C137.46 167.413 138.079 167.808 138.601 168.32C139.135 168.832 139.545 169.435 139.833 170.128C140.132 170.821 140.281 171.579 140.281 172.4C140.281 173.221 140.132 173.979 139.833 174.672C139.545 175.365 139.135 175.968 138.601 176.48C138.079 176.992 137.46 177.392 136.745 177.68C136.031 177.957 135.252 178.096 134.409 178.096ZM134.409 177.04C135.081 177.04 135.7 176.928 136.265 176.704C136.841 176.469 137.337 176.144 137.753 175.728C138.18 175.301 138.511 174.811 138.745 174.256C138.98 173.691 139.097 173.072 139.097 172.4C139.097 171.728 138.98 171.115 138.745 170.56C138.511 169.995 138.18 169.504 137.753 169.088C137.337 168.661 136.841 168.336 136.265 168.112C135.7 167.877 135.081 167.76 134.409 167.76C133.737 167.76 133.113 167.877 132.537 168.112C131.961 168.336 131.46 168.661 131.033 169.088C130.617 169.504 130.287 169.995 130.041 170.56C129.807 171.115 129.689 171.728 129.689 172.4C129.689 173.061 129.807 173.675 130.041 174.24C130.287 174.805 130.617 175.301 131.033 175.728C131.46 176.144 131.961 176.469 132.537 176.704C133.113 176.928 133.737 177.04 134.409 177.04ZM151.299 166.8H152.467V178H151.299V166.8ZM144.291 178H143.107V166.8H144.291V178ZM151.411 172.832H144.163V171.792H151.411V172.832ZM158.471 178V167.504L158.791 167.824H154.535V166.8H163.575V167.824H159.335L159.639 167.504V178H158.471ZM163.443 178L168.563 166.8H169.731L174.851 178H173.603L168.899 167.488H169.379L164.675 178H163.443ZM165.459 175.008L165.811 174.048H172.323L172.675 175.008H165.459ZM189.01 178L185.282 172.416L186.29 171.84L190.386 178H189.01ZM182.898 172.864V171.824H186.098V172.864H182.898ZM186.338 172.528L185.25 172.336L188.818 166.8H190.098L186.338 172.528ZM176.354 178H174.978L179.074 171.84L180.082 172.416L176.354 178ZM183.266 178H182.114V166.8H183.266V178ZM182.466 172.864H179.266V171.824H182.466V172.864ZM179.026 172.528L175.266 166.8H176.546L180.098 172.336L179.026 172.528ZM191.787 170.032L192.491 167.088L192.619 167.76C192.373 167.76 192.165 167.685 191.995 167.536C191.835 167.376 191.755 167.168 191.755 166.912C191.755 166.656 191.835 166.448 191.995 166.288C192.165 166.128 192.368 166.048 192.603 166.048C192.848 166.048 193.045 166.133 193.195 166.304C193.355 166.464 193.435 166.667 193.435 166.912C193.435 166.997 193.429 167.083 193.419 167.168C193.408 167.253 193.387 167.349 193.355 167.456C193.333 167.552 193.296 167.675 193.243 167.824L192.555 170.032H191.787ZM194.507 170.032L195.211 167.088L195.339 167.76C195.093 167.76 194.885 167.685 194.715 167.536C194.555 167.376 194.475 167.168 194.475 166.912C194.475 166.656 194.555 166.448 194.715 166.288C194.885 166.128 195.088 166.048 195.323 166.048C195.568 166.048 195.765 166.133 195.915 166.304C196.075 166.464 196.155 166.667 196.155 166.912C196.155 166.997 196.149 167.083 196.139 167.168C196.128 167.253 196.107 167.349 196.075 167.456C196.053 167.552 196.016 167.675 195.963 167.824L195.275 170.032H194.507Z" fill="#49494F"></path> <path d="M254 223H16V225H254V223Z" fill="#DDDDDD" mask="url(#path-40-inside-2_2148_2625)"></path> <path d="M17.652 254V244.2H25.898V254H24.876V244.816L25.142 245.096H18.408L18.674 244.816V254H17.652ZM32.7607 254.07C32.1261 254.07 31.5521 253.925 31.0387 253.636C30.5254 253.337 30.1147 252.913 29.8067 252.362C29.5081 251.802 29.3587 251.121 29.3587 250.318C29.3587 249.515 29.5081 248.839 29.8067 248.288C30.1054 247.728 30.5114 247.303 31.0247 247.014C31.5381 246.725 32.1167 246.58 32.7607 246.58C33.4607 246.58 34.0861 246.739 34.6367 247.056C35.1967 247.364 35.6354 247.803 35.9527 248.372C36.2701 248.932 36.4287 249.581 36.4287 250.318C36.4287 251.065 36.2701 251.718 35.9527 252.278C35.6354 252.838 35.1967 253.277 34.6367 253.594C34.0861 253.911 33.4607 254.07 32.7607 254.07ZM28.9667 256.716V246.65H29.9187V248.862L29.8207 250.332L29.9607 251.816V256.716H28.9667ZM32.6907 253.188C33.2134 253.188 33.6801 253.071 34.0907 252.838C34.5014 252.595 34.8281 252.259 35.0707 251.83C35.3134 251.391 35.4347 250.887 35.4347 250.318C35.4347 249.749 35.3134 249.249 35.0707 248.82C34.8281 248.391 34.5014 248.055 34.0907 247.812C33.6801 247.569 33.2134 247.448 32.6907 247.448C32.1681 247.448 31.6967 247.569 31.2767 247.812C30.8661 248.055 30.5394 248.391 30.2967 248.82C30.0634 249.249 29.9467 249.749 29.9467 250.318C29.9467 250.887 30.0634 251.391 30.2967 251.83C30.5394 252.259 30.8661 252.595 31.2767 252.838C31.6967 253.071 32.1681 253.188 32.6907 253.188ZM41.5884 254.07C40.8791 254.07 40.2397 253.911 39.6704 253.594C39.1104 253.267 38.6671 252.824 38.3404 252.264C38.0137 251.695 37.8504 251.046 37.8504 250.318C37.8504 249.581 38.0137 248.932 38.3404 248.372C38.6671 247.812 39.1104 247.373 39.6704 247.056C40.2304 246.739 40.8697 246.58 41.5884 246.58C42.3164 246.58 42.9604 246.739 43.5204 247.056C44.0897 247.373 44.5331 247.812 44.8504 248.372C45.1771 248.932 45.3404 249.581 45.3404 250.318C45.3404 251.046 45.1771 251.695 44.8504 252.264C44.5331 252.824 44.0897 253.267 43.5204 253.594C42.9511 253.911 42.3071 254.07 41.5884 254.07ZM41.5884 253.188C42.1204 253.188 42.5917 253.071 43.0024 252.838C43.4131 252.595 43.7351 252.259 43.9684 251.83C44.2111 251.391 44.3324 250.887 44.3324 250.318C44.3324 249.739 44.2111 249.235 43.9684 248.806C43.7351 248.377 43.4131 248.045 43.0024 247.812C42.5917 247.569 42.1251 247.448 41.6024 247.448C41.0797 247.448 40.6131 247.569 40.2024 247.812C39.7917 248.045 39.4651 248.377 39.2224 248.806C38.9797 249.235 38.8584 249.739 38.8584 250.318C38.8584 250.887 38.9797 251.391 39.2224 251.83C39.4651 252.259 39.7917 252.595 40.2024 252.838C40.6131 253.071 41.0751 253.188 41.5884 253.188ZM47.4648 254V246.65H48.4588V252.488L53.3728 246.65H54.2548V254H53.2608V248.148L48.3608 254H47.4648ZM58.9271 254.084C59.5337 254.084 60.0797 253.991 60.5651 253.804C61.0597 253.617 61.4517 253.361 61.7411 253.034C62.0304 252.698 62.1751 252.311 62.1751 251.872C62.1751 251.312 61.9371 250.869 61.4611 250.542C60.9944 250.215 60.3411 250.052 59.5011 250.052L59.4591 250.318C59.9351 250.318 60.3597 250.243 60.7331 250.094C61.1064 249.945 61.4051 249.735 61.6291 249.464C61.8531 249.193 61.9651 248.876 61.9651 248.512C61.9651 248.101 61.8251 247.751 61.5451 247.462C61.2651 247.163 60.8871 246.935 60.4111 246.776C59.9444 246.617 59.4171 246.547 58.8291 246.566C58.3997 246.566 57.9704 246.627 57.5411 246.748C57.1211 246.86 56.6964 247.028 56.2671 247.252L56.5471 248.022C56.9297 247.826 57.3171 247.681 57.7091 247.588C58.1011 247.485 58.4791 247.429 58.8431 247.42C59.2444 247.42 59.6037 247.467 59.9211 247.56C60.2384 247.653 60.4857 247.793 60.6631 247.98C60.8497 248.167 60.9431 248.391 60.9431 248.652C60.9431 248.895 60.8637 249.105 60.7051 249.282C60.5557 249.459 60.3411 249.595 60.0611 249.688C59.7811 249.781 59.4591 249.828 59.0951 249.828H57.9051V250.556H59.1651C59.7811 250.556 60.2664 250.668 60.6211 250.892C60.9757 251.107 61.1531 251.41 61.1531 251.802C61.1531 252.073 61.0597 252.315 60.8731 252.53C60.6864 252.745 60.4251 252.913 60.0891 253.034C59.7531 253.155 59.3564 253.221 58.8991 253.23C58.4417 253.23 57.9797 253.165 57.5131 253.034C57.0464 252.894 56.6357 252.693 56.2811 252.432L55.9591 253.174C56.3604 253.482 56.8224 253.711 57.3451 253.86C57.8677 254.009 58.3951 254.084 58.9271 254.084ZM64.4316 254V246.65H67.6796C68.5102 246.65 69.1636 246.809 69.6396 247.126C70.1249 247.443 70.3676 247.91 70.3676 248.526C70.3676 249.123 70.1389 249.585 69.6816 249.912C69.2242 250.229 68.6222 250.388 67.8756 250.388L68.0716 250.094C68.9489 250.094 69.5929 250.257 70.0036 250.584C70.4142 250.911 70.6196 251.382 70.6196 251.998C70.6196 252.633 70.3862 253.127 69.9196 253.482C69.4622 253.827 68.7482 254 67.7776 254H64.4316ZM65.3976 253.216H67.7356C68.3609 253.216 68.8322 253.118 69.1496 252.922C69.4762 252.717 69.6396 252.39 69.6396 251.942C69.6396 251.494 69.4949 251.167 69.2056 250.962C68.9162 250.757 68.4589 250.654 67.8336 250.654H65.3976V253.216ZM65.3976 249.912H67.6096C68.1789 249.912 68.6129 249.805 68.9116 249.59C69.2196 249.375 69.3736 249.063 69.3736 248.652C69.3736 248.241 69.2196 247.933 68.9116 247.728C68.6129 247.523 68.1789 247.42 67.6096 247.42H65.3976V249.912ZM75.9732 254.07C75.2638 254.07 74.6245 253.911 74.0552 253.594C73.4952 253.267 73.0518 252.824 72.7252 252.264C72.3985 251.695 72.2352 251.046 72.2352 250.318C72.2352 249.581 72.3985 248.932 72.7252 248.372C73.0518 247.812 73.4952 247.373 74.0552 247.056C74.6152 246.739 75.2545 246.58 75.9732 246.58C76.7012 246.58 77.3452 246.739 77.9052 247.056C78.4745 247.373 78.9178 247.812 79.2352 248.372C79.5618 248.932 79.7252 249.581 79.7252 250.318C79.7252 251.046 79.5618 251.695 79.2352 252.264C78.9178 252.824 78.4745 253.267 77.9052 253.594C77.3358 253.911 76.6918 254.07 75.9732 254.07ZM75.9732 253.188C76.5052 253.188 76.9765 253.071 77.3872 252.838C77.7978 252.595 78.1198 252.259 78.3532 251.83C78.5958 251.391 78.7172 250.887 78.7172 250.318C78.7172 249.739 78.5958 249.235 78.3532 248.806C78.1198 248.377 77.7978 248.045 77.3872 247.812C76.9765 247.569 76.5098 247.448 75.9872 247.448C75.4645 247.448 74.9978 247.569 74.5872 247.812C74.1765 248.045 73.8498 248.377 73.6072 248.806C73.3645 249.235 73.2432 249.739 73.2432 250.318C73.2432 250.887 73.3645 251.391 73.6072 251.83C73.8498 252.259 74.1765 252.595 74.5872 252.838C74.9978 253.071 75.4598 253.188 75.9732 253.188ZM86.8485 253.524V247.518H83.3065L83.2225 249.156C83.2039 249.651 83.1712 250.136 83.1245 250.612C83.0872 251.088 83.0172 251.527 82.9145 251.928C82.8212 252.32 82.6859 252.642 82.5085 252.894C82.3312 253.137 82.1025 253.277 81.8225 253.314L80.8285 253.132C81.1179 253.141 81.3559 253.039 81.5425 252.824C81.7292 252.6 81.8739 252.297 81.9765 251.914C82.0792 251.531 82.1539 251.097 82.2005 250.612C82.2472 250.117 82.2845 249.613 82.3125 249.1L82.4105 246.65H87.8425V253.524H86.8485ZM80.5205 255.778V253.132H88.9905V255.778H88.0525V254H81.4585V255.778H80.5205ZM94.0077 254.07C93.2797 254.07 92.6263 253.911 92.0477 253.594C91.4783 253.267 91.0303 252.824 90.7037 252.264C90.377 251.695 90.2137 251.046 90.2137 250.318C90.2137 249.581 90.377 248.932 90.7037 248.372C91.0303 247.812 91.4783 247.373 92.0477 247.056C92.6263 246.739 93.2797 246.58 94.0077 246.58C94.633 246.58 95.1977 246.701 95.7017 246.944C96.2057 247.187 96.6023 247.551 96.8917 248.036L96.1497 248.54C95.8977 248.167 95.585 247.891 95.2117 247.714C94.8383 247.537 94.4323 247.448 93.9937 247.448C93.471 247.448 92.9997 247.569 92.5797 247.812C92.1597 248.045 91.8283 248.377 91.5857 248.806C91.343 249.235 91.2217 249.739 91.2217 250.318C91.2217 250.897 91.343 251.401 91.5857 251.83C91.8283 252.259 92.1597 252.595 92.5797 252.838C92.9997 253.071 93.471 253.188 93.9937 253.188C94.4323 253.188 94.8383 253.099 95.2117 252.922C95.585 252.745 95.8977 252.474 96.1497 252.11L96.8917 252.614C96.6023 253.09 96.2057 253.454 95.7017 253.706C95.1977 253.949 94.633 254.07 94.0077 254.07ZM100.08 254V247.252L100.332 247.518H97.2936V246.65H103.86V247.518H100.822L101.074 247.252V254H100.08ZM105.297 254V246.65H108.545C109.375 246.65 110.029 246.809 110.505 247.126C110.99 247.443 111.233 247.91 111.233 248.526C111.233 249.123 111.004 249.585 110.547 249.912C110.089 250.229 109.487 250.388 108.741 250.388L108.937 250.094C109.814 250.094 110.458 250.257 110.869 250.584C111.279 250.911 111.485 251.382 111.485 251.998C111.485 252.633 111.251 253.127 110.785 253.482C110.327 253.827 109.613 254 108.643 254H105.297ZM106.263 253.216H108.601C109.226 253.216 109.697 253.118 110.015 252.922C110.341 252.717 110.505 252.39 110.505 251.942C110.505 251.494 110.36 251.167 110.071 250.962C109.781 250.757 109.324 250.654 108.699 250.654H106.263V253.216ZM106.263 249.912H108.475C109.044 249.912 109.478 249.805 109.777 249.59C110.085 249.375 110.239 249.063 110.239 248.652C110.239 248.241 110.085 247.933 109.777 247.728C109.478 247.523 109.044 247.42 108.475 247.42H106.263V249.912ZM116.838 254.07C116.129 254.07 115.49 253.911 114.92 253.594C114.36 253.267 113.917 252.824 113.59 252.264C113.264 251.695 113.1 251.046 113.1 250.318C113.1 249.581 113.264 248.932 113.59 248.372C113.917 247.812 114.36 247.373 114.92 247.056C115.48 246.739 116.12 246.58 116.838 246.58C117.566 246.58 118.21 246.739 118.77 247.056C119.34 247.373 119.783 247.812 120.1 248.372C120.427 248.932 120.59 249.581 120.59 250.318C120.59 251.046 120.427 251.695 120.1 252.264C119.783 252.824 119.34 253.267 118.77 253.594C118.201 253.911 117.557 254.07 116.838 254.07ZM116.838 253.188C117.37 253.188 117.842 253.071 118.252 252.838C118.663 252.595 118.985 252.259 119.218 251.83C119.461 251.391 119.582 250.887 119.582 250.318C119.582 249.739 119.461 249.235 119.218 248.806C118.985 248.377 118.663 248.045 118.252 247.812C117.842 247.569 117.375 247.448 116.852 247.448C116.33 247.448 115.863 247.569 115.452 247.812C115.042 248.045 114.715 248.377 114.472 248.806C114.23 249.235 114.108 249.739 114.108 250.318C114.108 250.887 114.23 251.391 114.472 251.83C114.715 252.259 115.042 252.595 115.452 252.838C115.863 253.071 116.325 253.188 116.838 253.188ZM126.379 254V246.65H132.987V254H131.993V247.252L132.245 247.518H127.121L127.373 247.252V254H126.379ZM139.606 254.07C138.972 254.07 138.398 253.925 137.884 253.636C137.371 253.337 136.96 252.913 136.652 252.362C136.354 251.802 136.204 251.121 136.204 250.318C136.204 249.515 136.354 248.839 136.652 248.288C136.951 247.728 137.357 247.303 137.87 247.014C138.384 246.725 138.962 246.58 139.606 246.58C140.306 246.58 140.932 246.739 141.482 247.056C142.042 247.364 142.481 247.803 142.798 248.372C143.116 248.932 143.274 249.581 143.274 250.318C143.274 251.065 143.116 251.718 142.798 252.278C142.481 252.838 142.042 253.277 141.482 253.594C140.932 253.911 140.306 254.07 139.606 254.07ZM135.812 256.716V246.65H136.764V248.862L136.666 250.332L136.806 251.816V256.716H135.812ZM139.536 253.188C140.059 253.188 140.526 253.071 140.936 252.838C141.347 252.595 141.674 252.259 141.916 251.83C142.159 251.391 142.28 250.887 142.28 250.318C142.28 249.749 142.159 249.249 141.916 248.82C141.674 248.391 141.347 248.055 140.936 247.812C140.526 247.569 140.059 247.448 139.536 247.448C139.014 247.448 138.542 247.569 138.122 247.812C137.712 248.055 137.385 248.391 137.142 248.82C136.909 249.249 136.792 249.749 136.792 250.318C136.792 250.887 136.909 251.391 137.142 251.83C137.385 252.259 137.712 252.595 138.122 252.838C138.542 253.071 139.014 253.188 139.536 253.188ZM148.434 254.07C147.725 254.07 147.085 253.911 146.516 253.594C145.956 253.267 145.513 252.824 145.186 252.264C144.859 251.695 144.696 251.046 144.696 250.318C144.696 249.581 144.859 248.932 145.186 248.372C145.513 247.812 145.956 247.373 146.516 247.056C147.076 246.739 147.715 246.58 148.434 246.58C149.162 246.58 149.806 246.739 150.366 247.056C150.935 247.373 151.379 247.812 151.696 248.372C152.023 248.932 152.186 249.581 152.186 250.318C152.186 251.046 152.023 251.695 151.696 252.264C151.379 252.824 150.935 253.267 150.366 253.594C149.797 253.911 149.153 254.07 148.434 254.07ZM148.434 253.188C148.966 253.188 149.437 253.071 149.848 252.838C150.259 252.595 150.581 252.259 150.814 251.83C151.057 251.391 151.178 250.887 151.178 250.318C151.178 249.739 151.057 249.235 150.814 248.806C150.581 248.377 150.259 248.045 149.848 247.812C149.437 247.569 148.971 247.448 148.448 247.448C147.925 247.448 147.459 247.569 147.048 247.812C146.637 248.045 146.311 248.377 146.068 248.806C145.825 249.235 145.704 249.739 145.704 250.318C145.704 250.887 145.825 251.391 146.068 251.83C146.311 252.259 146.637 252.595 147.048 252.838C147.459 253.071 147.921 253.188 148.434 253.188ZM158.958 250.892C158.529 251.079 158.095 251.228 157.656 251.34C157.227 251.443 156.798 251.494 156.368 251.494C155.5 251.494 154.814 251.298 154.31 250.906C153.806 250.505 153.554 249.889 153.554 249.058V246.65H154.534V249.002C154.534 249.562 154.716 249.982 155.08 250.262C155.444 250.542 155.934 250.682 156.55 250.682C156.924 250.682 157.316 250.635 157.726 250.542C158.137 250.439 158.552 250.295 158.972 250.108L158.958 250.892ZM158.874 254V246.65H159.868V254H158.874ZM162.691 254V246.65H163.685V252.488L168.599 246.65H169.481V254H168.487V248.148L163.587 254H162.691ZM171.126 254L174.234 249.968L174.22 250.458L171.266 246.65H172.386L174.808 249.8L174.388 249.786L176.81 246.65H177.902L174.92 250.5L174.934 249.968L178.07 254H176.936L174.374 250.64L174.766 250.696L172.246 254H171.126ZM186.443 254.07C185.715 254.07 185.062 253.911 184.483 253.594C183.914 253.267 183.466 252.824 183.139 252.264C182.813 251.695 182.649 251.046 182.649 250.318C182.649 249.581 182.813 248.932 183.139 248.372C183.466 247.812 183.914 247.373 184.483 247.056C185.062 246.739 185.715 246.58 186.443 246.58C187.069 246.58 187.633 246.701 188.137 246.944C188.641 247.187 189.038 247.551 189.327 248.036L188.585 248.54C188.333 248.167 188.021 247.891 187.647 247.714C187.274 247.537 186.868 247.448 186.429 247.448C185.907 247.448 185.435 247.569 185.015 247.812C184.595 248.045 184.264 248.377 184.021 248.806C183.779 249.235 183.657 249.739 183.657 250.318C183.657 250.897 183.779 251.401 184.021 251.83C184.264 252.259 184.595 252.595 185.015 252.838C185.435 253.071 185.907 253.188 186.429 253.188C186.868 253.188 187.274 253.099 187.647 252.922C188.021 252.745 188.333 252.474 188.585 252.11L189.327 252.614C189.038 253.09 188.641 253.454 188.137 253.706C187.633 253.949 187.069 254.07 186.443 254.07ZM192.515 254V247.252L192.767 247.518H189.729V246.65H196.295V247.518H193.257L193.509 247.252V254H192.515ZM201.526 254.07C200.892 254.07 200.318 253.925 199.804 253.636C199.291 253.337 198.88 252.913 198.572 252.362C198.274 251.802 198.124 251.121 198.124 250.318C198.124 249.515 198.274 248.839 198.572 248.288C198.871 247.728 199.277 247.303 199.79 247.014C200.304 246.725 200.882 246.58 201.526 246.58C202.226 246.58 202.852 246.739 203.402 247.056C203.962 247.364 204.401 247.803 204.718 248.372C205.036 248.932 205.194 249.581 205.194 250.318C205.194 251.065 205.036 251.718 204.718 252.278C204.401 252.838 203.962 253.277 203.402 253.594C202.852 253.911 202.226 254.07 201.526 254.07ZM197.732 256.716V246.65H198.684V248.862L198.586 250.332L198.726 251.816V256.716H197.732ZM201.456 253.188C201.979 253.188 202.446 253.071 202.856 252.838C203.267 252.595 203.594 252.259 203.836 251.83C204.079 251.391 204.2 250.887 204.2 250.318C204.2 249.749 204.079 249.249 203.836 248.82C203.594 248.391 203.267 248.055 202.856 247.812C202.446 247.569 201.979 247.448 201.456 247.448C200.934 247.448 200.462 247.569 200.042 247.812C199.632 248.055 199.305 248.391 199.062 248.82C198.829 249.249 198.712 249.749 198.712 250.318C198.712 250.887 198.829 251.391 199.062 251.83C199.305 252.259 199.632 252.595 200.042 252.838C200.462 253.071 200.934 253.188 201.456 253.188ZM210.354 254.07C209.645 254.07 209.005 253.911 208.436 253.594C207.876 253.267 207.433 252.824 207.106 252.264C206.779 251.695 206.616 251.046 206.616 250.318C206.616 249.581 206.779 248.932 207.106 248.372C207.433 247.812 207.876 247.373 208.436 247.056C208.996 246.739 209.635 246.58 210.354 246.58C211.082 246.58 211.726 246.739 212.286 247.056C212.855 247.373 213.299 247.812 213.616 248.372C213.943 248.932 214.106 249.581 214.106 250.318C214.106 251.046 213.943 251.695 213.616 252.264C213.299 252.824 212.855 253.267 212.286 253.594C211.717 253.911 211.073 254.07 210.354 254.07ZM210.354 253.188C210.886 253.188 211.357 253.071 211.768 252.838C212.179 252.595 212.501 252.259 212.734 251.83C212.977 251.391 213.098 250.887 213.098 250.318C213.098 249.739 212.977 249.235 212.734 248.806C212.501 248.377 212.179 248.045 211.768 247.812C211.357 247.569 210.891 247.448 210.368 247.448C209.845 247.448 209.379 247.569 208.968 247.812C208.557 248.045 208.231 248.377 207.988 248.806C207.745 249.235 207.624 249.739 207.624 250.318C207.624 250.887 207.745 251.391 207.988 251.83C208.231 252.259 208.557 252.595 208.968 252.838C209.379 253.071 209.841 253.188 210.354 253.188ZM216.23 254V246.65H217.224V252.488L222.138 246.65H223.02V254H222.026V248.148L217.126 254H216.23ZM227.269 254V247.252L227.521 247.518H224.483V246.65H231.049V247.518H228.011L228.263 247.252V254H227.269ZM235.294 254.07C234.529 254.07 233.857 253.911 233.278 253.594C232.7 253.267 232.247 252.824 231.92 252.264C231.594 251.695 231.43 251.046 231.43 250.318C231.43 249.59 231.584 248.946 231.892 248.386C232.21 247.826 232.639 247.387 233.18 247.07C233.731 246.743 234.347 246.58 235.028 246.58C235.719 246.58 236.33 246.739 236.862 247.056C237.404 247.364 237.828 247.803 238.136 248.372C238.444 248.932 238.598 249.581 238.598 250.318C238.598 250.365 238.594 250.416 238.584 250.472C238.584 250.519 238.584 250.57 238.584 250.626H232.186V249.884H238.052L237.66 250.178C237.66 249.646 237.544 249.175 237.31 248.764C237.086 248.344 236.778 248.017 236.386 247.784C235.994 247.551 235.542 247.434 235.028 247.434C234.524 247.434 234.072 247.551 233.67 247.784C233.269 248.017 232.956 248.344 232.732 248.764C232.508 249.184 232.396 249.665 232.396 250.206V250.36C232.396 250.92 232.518 251.415 232.76 251.844C233.012 252.264 233.358 252.595 233.796 252.838C234.244 253.071 234.753 253.188 235.322 253.188C235.77 253.188 236.186 253.109 236.568 252.95C236.96 252.791 237.296 252.549 237.576 252.222L238.136 252.866C237.81 253.258 237.399 253.557 236.904 253.762C236.419 253.967 235.882 254.07 235.294 254.07ZM239.304 253.986L239.374 253.132C239.44 253.141 239.5 253.155 239.556 253.174C239.622 253.183 239.678 253.188 239.724 253.188C240.023 253.188 240.261 253.076 240.438 252.852C240.625 252.628 240.765 252.329 240.858 251.956C240.952 251.583 241.017 251.163 241.054 250.696C241.092 250.22 241.124 249.744 241.152 249.268L241.278 246.65H246.668V254H245.674V247.224L245.926 247.518H241.922L242.16 247.21L242.048 249.338C242.02 249.973 241.969 250.579 241.894 251.158C241.829 251.737 241.722 252.245 241.572 252.684C241.432 253.123 241.236 253.468 240.984 253.72C240.732 253.963 240.41 254.084 240.018 254.084C239.906 254.084 239.79 254.075 239.668 254.056C239.556 254.037 239.435 254.014 239.304 253.986ZM249.564 254.07C249.359 254.07 249.181 253.995 249.032 253.846C248.892 253.697 248.822 253.515 248.822 253.3C248.822 253.076 248.892 252.894 249.032 252.754C249.181 252.614 249.359 252.544 249.564 252.544C249.769 252.544 249.942 252.614 250.082 252.754C250.231 252.894 250.306 253.076 250.306 253.3C250.306 253.515 250.231 253.697 250.082 253.846C249.942 253.995 249.769 254.07 249.564 254.07ZM252.531 254.07C252.326 254.07 252.148 253.995 251.999 253.846C251.859 253.697 251.789 253.515 251.789 253.3C251.789 253.076 251.859 252.894 251.999 252.754C252.148 252.614 252.326 252.544 252.531 252.544C252.736 252.544 252.909 252.614 253.049 252.754C253.198 252.894 253.273 253.076 253.273 253.3C253.273 253.515 253.198 253.697 253.049 253.846C252.909 253.995 252.736 254.07 252.531 254.07ZM255.498 254.07C255.292 254.07 255.115 253.995 254.966 253.846C254.826 253.697 254.756 253.515 254.756 253.3C254.756 253.076 254.826 252.894 254.966 252.754C255.115 252.614 255.292 252.544 255.498 252.544C255.703 252.544 255.876 252.614 256.016 252.754C256.165 252.894 256.24 253.076 256.24 253.3C256.24 253.515 256.165 253.697 256.016 253.846C255.876 253.995 255.703 254.07 255.498 254.07Z" fill="#49494F"></path> <rect x="0.5" y="0.5" width="269" height="281" rx="15.5" stroke="#E2E4E7"></rect> </svg> 