<?xml version="1.0" encoding="UTF-8"?> <svg xmlns="http://www.w3.org/2000/svg" width="270" height="282" viewBox="0 0 270 282" fill="none"> <rect x="0.5" y="0.5" width="269" height="281" rx="15.5" fill="white"></rect> <rect x="16" y="24" width="40" height="40" rx="8" fill="url(#paint0_linear_2148_2688)"></rect> <path fill-rule="evenodd" clip-rule="evenodd" d="M33 54H25V50H33V54ZM32.5 50.5H25.5V53.5H32.5V50.5Z" fill="#FAFAFA"></path> <path fill-rule="evenodd" clip-rule="evenodd" d="M33 46H25V42H33V46ZM32.5 42.5H25.5V45.5H32.5V42.5Z" fill="#FAFAFA"></path> <path fill-rule="evenodd" clip-rule="evenodd" d="M41 54H33V50H41V54ZM40.5 50.5H33.5V53.5H40.5V50.5Z" fill="#FAFAFA"></path> <path fill-rule="evenodd" clip-rule="evenodd" d="M41 46H33V42H41V46ZM40.5 42.5H33.5V45.5H40.5V42.5Z" fill="#FAFAFA"></path> <path fill-rule="evenodd" clip-rule="evenodd" d="M49 54H41V50H49V54ZM48.5 50.5H41.5V53.5H48.5V50.5Z" fill="#FAFAFA"></path> <path fill-rule="evenodd" clip-rule="evenodd" d="M49 46H41V42H49V46ZM48.5 42.5H41.5V45.5H48.5V42.5Z" fill="#FAFAFA"></path> <path fill-rule="evenodd" clip-rule="evenodd" d="M45 42H37V38H45V42ZM44.5 38.5H37.5V41.5H44.5V38.5Z" fill="#FAFAFA"></path> <path fill-rule="evenodd" clip-rule="evenodd" d="M37 42H29V38H37V42ZM36.5 38.5H29.5V41.5H36.5V38.5Z" fill="#FAFAFA"></path> <path fill-rule="evenodd" clip-rule="evenodd" d="M42 38H34V34H42V38ZM41.5 34.5H34.5V37.5H41.5V34.5Z" fill="#FAFAFA"></path> <path fill-rule="evenodd" clip-rule="evenodd" d="M52 50H44V46H52V50ZM51.5 46.5H44.5V49.5H51.5V46.5Z" fill="#FAFAFA"></path> <path fill-rule="evenodd" clip-rule="evenodd" d="M44 50H36V46H44V50ZM43.5 46.5H36.5V49.5H43.5V46.5Z" fill="#FAFAFA"></path> <path fill-rule="evenodd" clip-rule="evenodd" d="M36 50H28V46H36V50ZM35.5 46.5H28.5V49.5H35.5V46.5Z" fill="#FAFAFA"></path> <path fill-rule="evenodd" clip-rule="evenodd" d="M28 50H20V46H28V50ZM27.5 46.5H20.5V49.5H27.5V46.5Z" fill="#FAFAFA"></path> <path fill-rule="evenodd" clip-rule="evenodd" d="M36.9492 37.9502H41.9992V38.0502H37.0492V42.0502H33.0492V46.0502H28.0492V49.9502H33.0492V54.0002H32.9492V50.0502H27.9492V45.9502H32.9492V41.9502H36.9492V37.9502Z" fill="#161617"></path> <path fill-rule="evenodd" clip-rule="evenodd" d="M37 41.9502H41.05V45.9502H44.05V50.0502H41.05V54.0002H40.95V49.9502H43.95V46.0502H40.95V42.0502H37V41.9502Z" fill="#161617"></path> <path fill-rule="evenodd" clip-rule="evenodd" d="M37 38.0502H34V37.9502H37V38.0502ZM45 41.9502V42.0502H29V41.9502H45ZM25 50.0502V49.9502H49V50.0502H25Z" fill="#161617"></path> <path fill-rule="evenodd" clip-rule="evenodd" d="M48.9397 46.0502H25V45.9502H48.9397V46.0502Z" fill="#161617"></path> <path d="M130.526 49V39.2H134.74C135.804 39.2 136.639 39.4147 137.246 39.844C137.853 40.2733 138.156 40.8987 138.156 41.72C138.156 42.5227 137.867 43.1387 137.288 43.568C136.709 43.988 135.949 44.198 135.006 44.198L135.258 43.778C136.35 43.778 137.185 43.9973 137.764 44.436C138.352 44.8653 138.646 45.4953 138.646 46.326C138.646 47.166 138.338 47.824 137.722 48.3C137.115 48.7667 136.21 49 135.006 49H130.526ZM131.912 47.894H134.978C135.725 47.894 136.285 47.7587 136.658 47.488C137.041 47.208 137.232 46.7833 137.232 46.214C137.232 45.6447 137.041 45.2293 136.658 44.968C136.285 44.7067 135.725 44.576 134.978 44.576H131.912V47.894ZM131.912 43.512H134.642C135.323 43.512 135.841 43.3767 136.196 43.106C136.56 42.8353 136.742 42.4387 136.742 41.916C136.742 41.384 136.56 40.9827 136.196 40.712C135.841 40.4413 135.323 40.306 134.642 40.306H131.912V43.512ZM148.097 49V41.58H149.441V49H148.097ZM144.107 44.1C145.05 44.1093 145.764 44.324 146.249 44.744C146.744 45.164 146.991 45.7567 146.991 46.522C146.991 47.3247 146.72 47.9453 146.179 48.384C145.647 48.8133 144.882 49.0233 143.883 49.014L140.761 49V41.58H142.105V44.086L144.107 44.1ZM143.785 47.992C144.382 48.0013 144.84 47.88 145.157 47.628C145.474 47.376 145.633 47.0027 145.633 46.508C145.633 46.0227 145.474 45.668 145.157 45.444C144.849 45.22 144.392 45.1033 143.785 45.094L142.105 45.066V47.978L143.785 47.992ZM157.122 48.37V42.756H153.902L153.832 44.184C153.813 44.6507 153.781 45.1033 153.734 45.542C153.697 45.9713 153.631 46.368 153.538 46.732C153.454 47.096 153.328 47.3947 153.16 47.628C152.992 47.8613 152.768 48.006 152.488 48.062L151.158 47.824C151.447 47.8333 151.681 47.74 151.858 47.544C152.035 47.3387 152.171 47.0587 152.264 46.704C152.367 46.3493 152.441 45.948 152.488 45.5C152.535 45.0427 152.572 44.5713 152.6 44.086L152.712 41.58H158.466V48.37H157.122ZM150.864 50.722V47.824H159.6V50.722H158.34V49H152.138V50.722H150.864ZM165.901 49V47.432L165.831 47.138V44.464C165.831 43.8947 165.663 43.456 165.327 43.148C165 42.8307 164.505 42.672 163.843 42.672C163.404 42.672 162.975 42.7467 162.555 42.896C162.135 43.036 161.78 43.2273 161.491 43.47L160.931 42.462C161.313 42.154 161.771 41.9207 162.303 41.762C162.844 41.594 163.409 41.51 163.997 41.51C165.014 41.51 165.798 41.7573 166.349 42.252C166.899 42.7467 167.175 43.5027 167.175 44.52V49H165.901ZM163.465 49.084C162.914 49.084 162.429 48.9907 162.009 48.804C161.598 48.6173 161.281 48.3607 161.057 48.034C160.833 47.698 160.721 47.32 160.721 46.9C160.721 46.4987 160.814 46.1347 161.001 45.808C161.197 45.4813 161.509 45.22 161.939 45.024C162.377 44.828 162.965 44.73 163.703 44.73H166.055V45.696H163.759C163.087 45.696 162.634 45.808 162.401 46.032C162.167 46.256 162.051 46.5267 162.051 46.844C162.051 47.208 162.195 47.502 162.485 47.726C162.774 47.9407 163.175 48.048 163.689 48.048C164.193 48.048 164.631 47.936 165.005 47.712C165.387 47.488 165.663 47.1613 165.831 46.732L166.097 47.656C165.919 48.0947 165.607 48.4447 165.159 48.706C164.711 48.958 164.146 49.084 163.465 49.084ZM169.595 49V41.58H170.939V44.73H175.167V41.58H176.511V49H175.167V45.892H170.939V49H169.595ZM183.906 49V39.76L184.508 40.418H181.694V39.2H185.292V49H183.906ZM187.296 46.592V45.612L192.308 39.2H193.82L188.85 45.612L188.136 45.388H195.962V46.592H187.296ZM192.742 49V46.592L192.784 45.388V43.26H194.1V49H192.742ZM197.998 49.084C197.737 49.084 197.513 48.9953 197.326 48.818C197.14 48.6313 197.046 48.398 197.046 48.118C197.046 47.838 197.14 47.6093 197.326 47.432C197.513 47.2547 197.737 47.166 197.998 47.166C198.25 47.166 198.465 47.2547 198.642 47.432C198.829 47.6093 198.922 47.838 198.922 48.118C198.922 48.398 198.829 48.6313 198.642 48.818C198.465 48.9953 198.25 49.084 197.998 49.084ZM204.086 49.112C203.321 49.112 202.635 48.916 202.028 48.524C201.431 48.132 200.955 47.5627 200.6 46.816C200.255 46.0693 200.082 45.164 200.082 44.1C200.082 43.036 200.255 42.1307 200.6 41.384C200.955 40.6373 201.431 40.068 202.028 39.676C202.635 39.284 203.321 39.088 204.086 39.088C204.842 39.088 205.523 39.284 206.13 39.676C206.737 40.068 207.213 40.6373 207.558 41.384C207.903 42.1307 208.076 43.036 208.076 44.1C208.076 45.164 207.903 46.0693 207.558 46.816C207.213 47.5627 206.737 48.132 206.13 48.524C205.523 48.916 204.842 49.112 204.086 49.112ZM204.086 47.866C204.599 47.866 205.047 47.726 205.43 47.446C205.822 47.166 206.125 46.746 206.34 46.186C206.564 45.626 206.676 44.9307 206.676 44.1C206.676 43.2693 206.564 42.574 206.34 42.014C206.125 41.454 205.822 41.034 205.43 40.754C205.047 40.474 204.599 40.334 204.086 40.334C203.573 40.334 203.12 40.474 202.728 40.754C202.336 41.034 202.028 41.454 201.804 42.014C201.589 42.574 201.482 43.2693 201.482 44.1C201.482 44.9307 201.589 45.626 201.804 46.186C202.028 46.746 202.336 47.166 202.728 47.446C203.12 47.726 203.573 47.866 204.086 47.866ZM211.018 49L215.176 39.788L215.54 40.418H209.716L210.416 39.732V42.168H209.072V39.2H216.464V40.152L212.502 49H211.018ZM217.891 49.084C217.63 49.084 217.406 48.9953 217.219 48.818C217.032 48.6313 216.939 48.398 216.939 48.118C216.939 47.838 217.032 47.6093 217.219 47.432C217.406 47.2547 217.63 47.166 217.891 47.166C218.143 47.166 218.358 47.2547 218.535 47.432C218.722 47.6093 218.815 47.838 218.815 48.118C218.815 48.398 218.722 48.6313 218.535 48.818C218.358 48.9953 218.143 49.084 217.891 49.084ZM220.122 49V48.048L224.112 44.198C224.466 43.862 224.728 43.568 224.896 43.316C225.073 43.0547 225.19 42.8167 225.246 42.602C225.311 42.378 225.344 42.1633 225.344 41.958C225.344 41.454 225.166 41.0573 224.812 40.768C224.457 40.4787 223.939 40.334 223.258 40.334C222.735 40.334 222.264 40.4227 221.844 40.6C221.424 40.768 221.06 41.034 220.752 41.398L219.8 40.572C220.173 40.096 220.672 39.732 221.298 39.48C221.932 39.2187 222.628 39.088 223.384 39.088C224.065 39.088 224.658 39.2 225.162 39.424C225.666 39.6387 226.053 39.9513 226.324 40.362C226.604 40.7727 226.744 41.258 226.744 41.818C226.744 42.1353 226.702 42.448 226.618 42.756C226.534 43.064 226.375 43.3907 226.142 43.736C225.908 44.0813 225.572 44.4687 225.134 44.898L221.578 48.328L221.242 47.782H227.164V49H220.122ZM232.305 49.112C231.54 49.112 230.854 48.916 230.247 48.524C229.65 48.132 229.174 47.5627 228.819 46.816C228.474 46.0693 228.301 45.164 228.301 44.1C228.301 43.036 228.474 42.1307 228.819 41.384C229.174 40.6373 229.65 40.068 230.247 39.676C230.854 39.284 231.54 39.088 232.305 39.088C233.061 39.088 233.742 39.284 234.349 39.676C234.956 40.068 235.432 40.6373 235.777 41.384C236.122 42.1307 236.295 43.036 236.295 44.1C236.295 45.164 236.122 46.0693 235.777 46.816C235.432 47.5627 234.956 48.132 234.349 48.524C233.742 48.916 233.061 49.112 232.305 49.112ZM232.305 47.866C232.818 47.866 233.266 47.726 233.649 47.446C234.041 47.166 234.344 46.746 234.559 46.186C234.783 45.626 234.895 44.9307 234.895 44.1C234.895 43.2693 234.783 42.574 234.559 42.014C234.344 41.454 234.041 41.034 233.649 40.754C233.266 40.474 232.818 40.334 232.305 40.334C231.792 40.334 231.339 40.474 230.947 40.754C230.555 41.034 230.247 41.454 230.023 42.014C229.808 42.574 229.701 43.2693 229.701 44.1C229.701 44.9307 229.808 45.626 230.023 46.186C230.247 46.746 230.555 47.166 230.947 47.446C231.339 47.726 231.792 47.866 232.305 47.866ZM237.485 49V48.048L241.475 44.198C241.829 43.862 242.091 43.568 242.259 43.316C242.436 43.0547 242.553 42.8167 242.609 42.602C242.674 42.378 242.707 42.1633 242.707 41.958C242.707 41.454 242.529 41.0573 242.175 40.768C241.82 40.4787 241.302 40.334 240.621 40.334C240.098 40.334 239.627 40.4227 239.207 40.6C238.787 40.768 238.423 41.034 238.115 41.398L237.163 40.572C237.536 40.096 238.035 39.732 238.661 39.48C239.295 39.2187 239.991 39.088 240.747 39.088C241.428 39.088 242.021 39.2 242.525 39.424C243.029 39.6387 243.416 39.9513 243.687 40.362C243.967 40.7727 244.107 41.258 244.107 41.818C244.107 42.1353 244.065 42.448 243.981 42.756C243.897 43.064 243.738 43.3907 243.505 43.736C243.271 44.0813 242.935 44.4687 242.497 44.898L238.941 48.328L238.605 47.782H244.527V49H237.485ZM245.524 49V48.048L249.514 44.198C249.869 43.862 250.13 43.568 250.298 43.316C250.475 43.0547 250.592 42.8167 250.648 42.602C250.713 42.378 250.746 42.1633 250.746 41.958C250.746 41.454 250.569 41.0573 250.214 40.768C249.859 40.4787 249.341 40.334 248.66 40.334C248.137 40.334 247.666 40.4227 247.246 40.6C246.826 40.768 246.462 41.034 246.154 41.398L245.202 40.572C245.575 40.096 246.075 39.732 246.7 39.48C247.335 39.2187 248.03 39.088 248.786 39.088C249.467 39.088 250.06 39.2 250.564 39.424C251.068 39.6387 251.455 39.9513 251.726 40.362C252.006 40.7727 252.146 41.258 252.146 41.818C252.146 42.1353 252.104 42.448 252.02 42.756C251.936 43.064 251.777 43.3907 251.544 43.736C251.311 44.0813 250.975 44.4687 250.536 44.898L246.98 48.328L246.644 47.782H252.566V49H245.524Z" fill="#49494F"></path> <path d="M22.288 121.192C21.104 121.192 19.952 121.008 18.832 120.64C17.728 120.272 16.824 119.776 16.12 119.152L17.224 117.256C17.784 117.784 18.512 118.216 19.408 118.552C20.304 118.888 21.264 119.056 22.288 119.056C23.536 119.056 24.504 118.792 25.192 118.264C25.896 117.72 26.248 116.992 26.248 116.08C26.248 115.2 25.912 114.496 25.24 113.968C24.584 113.424 23.536 113.152 22.096 113.152H20.752V111.472L25.744 105.328L26.08 106.288H16.888V104.2H27.976V105.832L23.008 111.952L21.76 111.208H22.552C24.584 111.208 26.104 111.664 27.112 112.576C28.136 113.488 28.648 114.648 28.648 116.056C28.648 117 28.416 117.864 27.952 118.648C27.488 119.432 26.784 120.056 25.84 120.52C24.912 120.968 23.728 121.192 22.288 121.192ZM37.7504 121.192C36.4384 121.192 35.2624 120.856 34.2224 120.184C33.1984 119.512 32.3824 118.536 31.7744 117.256C31.1824 115.976 30.8864 114.424 30.8864 112.6C30.8864 110.776 31.1824 109.224 31.7744 107.944C32.3824 106.664 33.1984 105.688 34.2224 105.016C35.2624 104.344 36.4384 104.008 37.7504 104.008C39.0464 104.008 40.2144 104.344 41.2544 105.016C42.2944 105.688 43.1104 106.664 43.7024 107.944C44.2944 109.224 44.5904 110.776 44.5904 112.6C44.5904 114.424 44.2944 115.976 43.7024 117.256C43.1104 118.536 42.2944 119.512 41.2544 120.184C40.2144 120.856 39.0464 121.192 37.7504 121.192ZM37.7504 119.056C38.6304 119.056 39.3984 118.816 40.0544 118.336C40.7264 117.856 41.2464 117.136 41.6144 116.176C41.9984 115.216 42.1904 114.024 42.1904 112.6C42.1904 111.176 41.9984 109.984 41.6144 109.024C41.2464 108.064 40.7264 107.344 40.0544 106.864C39.3984 106.384 38.6304 106.144 37.7504 106.144C36.8704 106.144 36.0944 106.384 35.4224 106.864C34.7504 107.344 34.2224 108.064 33.8384 109.024C33.4704 109.984 33.2864 111.176 33.2864 112.6C33.2864 114.024 33.4704 115.216 33.8384 116.176C34.2224 117.136 34.7504 117.856 35.4224 118.336C36.0944 118.816 36.8704 119.056 37.7504 119.056ZM49.6341 121L56.7621 105.208L57.3861 106.288H47.4021L48.6021 105.112V109.288H46.2981V104.2H58.9701V105.832L52.1781 121H49.6341ZM72.9672 104.008C74.4872 104.008 75.7672 104.336 76.8072 104.992C77.8632 105.648 78.6632 106.6 79.2072 107.848C79.7512 109.08 80.0232 110.592 80.0232 112.384C80.0232 114.288 79.6872 115.896 79.0152 117.208C78.3432 118.52 77.4152 119.512 76.2312 120.184C75.0472 120.856 73.6632 121.192 72.0792 121.192C71.2952 121.192 70.5352 121.112 69.7992 120.952C69.0792 120.792 68.4472 120.544 67.9032 120.208L68.8152 118.336C69.2632 118.624 69.7592 118.832 70.3032 118.96C70.8632 119.072 71.4472 119.128 72.0552 119.128C73.7512 119.128 75.1032 118.6 76.1112 117.544C77.1192 116.472 77.6232 114.888 77.6232 112.792C77.6232 112.456 77.6072 112.056 77.5752 111.592C77.5432 111.128 77.4712 110.672 77.3592 110.224L78.1512 111.04C77.9272 111.776 77.5512 112.4 77.0232 112.912C76.5112 113.408 75.8872 113.784 75.1512 114.04C74.4312 114.28 73.6392 114.4 72.7752 114.4C71.6712 114.4 70.6872 114.192 69.8232 113.776C68.9592 113.36 68.2792 112.776 67.7832 112.024C67.2872 111.256 67.0392 110.352 67.0392 109.312C67.0392 108.224 67.2952 107.288 67.8072 106.504C68.3352 105.704 69.0472 105.088 69.9432 104.656C70.8552 104.224 71.8632 104.008 72.9672 104.008ZM73.0632 105.952C72.3432 105.952 71.7032 106.088 71.1432 106.36C70.5832 106.632 70.1432 107.008 69.8232 107.488C69.5192 107.968 69.3672 108.544 69.3672 109.216C69.3672 110.208 69.7112 111 70.3992 111.592C71.0872 112.168 72.0152 112.456 73.1832 112.456C73.9512 112.456 74.6232 112.312 75.1992 112.024C75.7912 111.736 76.2472 111.344 76.5672 110.848C76.9032 110.352 77.0712 109.8 77.0712 109.192C77.0712 108.6 76.9192 108.064 76.6152 107.584C76.3112 107.104 75.8632 106.712 75.2712 106.408C74.6792 106.104 73.9432 105.952 73.0632 105.952ZM85.1637 121V105.16L86.1957 106.288H81.3717V104.2H87.5397V121H85.1637ZM94.0465 121V105.16L95.0785 106.288H90.2545V104.2H96.4225V121H94.0465ZM100.217 124.552L101.417 119.704L101.729 121.096C101.265 121.096 100.873 120.952 100.553 120.664C100.249 120.376 100.097 119.984 100.097 119.488C100.097 119.008 100.249 118.616 100.553 118.312C100.873 118.008 101.257 117.856 101.705 117.856C102.169 117.856 102.545 118.016 102.833 118.336C103.121 118.64 103.265 119.024 103.265 119.488C103.265 119.648 103.249 119.808 103.217 119.968C103.201 120.112 103.161 120.288 103.097 120.496C103.049 120.688 102.969 120.928 102.857 121.216L101.729 124.552H100.217ZM110.959 121.192C109.775 121.192 108.623 121.008 107.503 120.64C106.399 120.272 105.495 119.776 104.791 119.152L105.895 117.256C106.455 117.784 107.183 118.216 108.079 118.552C108.975 118.888 109.927 119.056 110.935 119.056C112.215 119.056 113.199 118.784 113.887 118.24C114.575 117.696 114.919 116.968 114.919 116.056C114.919 115.432 114.767 114.888 114.463 114.424C114.159 113.96 113.631 113.608 112.879 113.368C112.143 113.112 111.127 112.984 109.831 112.984H106.015L106.903 104.2H116.383V106.288H107.791L109.039 105.112L108.343 112.048L107.095 110.896H110.335C112.015 110.896 113.367 111.112 114.391 111.544C115.415 111.976 116.159 112.576 116.623 113.344C117.087 114.096 117.319 114.968 117.319 115.96C117.319 116.92 117.087 117.8 116.623 118.6C116.159 119.384 115.455 120.016 114.511 120.496C113.583 120.96 112.399 121.192 110.959 121.192ZM126.372 121.192C124.884 121.192 123.612 120.864 122.556 120.208C121.5 119.552 120.692 118.608 120.132 117.376C119.588 116.128 119.316 114.608 119.316 112.816C119.316 110.912 119.652 109.304 120.324 107.992C120.996 106.68 121.932 105.688 123.132 105.016C124.332 104.344 125.708 104.008 127.26 104.008C128.06 104.008 128.82 104.088 129.54 104.248C130.276 104.408 130.908 104.656 131.436 104.992L130.524 106.864C130.092 106.56 129.596 106.352 129.036 106.24C128.492 106.128 127.916 106.072 127.308 106.072C125.596 106.072 124.236 106.608 123.228 107.68C122.22 108.736 121.716 110.312 121.716 112.408C121.716 112.744 121.732 113.144 121.764 113.608C121.796 114.072 121.876 114.528 122.004 114.976L121.188 114.16C121.428 113.424 121.804 112.808 122.316 112.312C122.844 111.8 123.468 111.424 124.188 111.184C124.924 110.928 125.716 110.8 126.564 110.8C127.684 110.8 128.676 111.008 129.54 111.424C130.404 111.84 131.084 112.432 131.58 113.2C132.076 113.952 132.324 114.848 132.324 115.888C132.324 116.96 132.06 117.896 131.532 118.696C131.004 119.496 130.292 120.112 129.396 120.544C128.5 120.976 127.492 121.192 126.372 121.192ZM126.276 119.248C127.012 119.248 127.652 119.112 128.196 118.84C128.756 118.568 129.196 118.192 129.516 117.712C129.836 117.216 129.996 116.64 129.996 115.984C129.996 114.992 129.652 114.208 128.964 113.632C128.276 113.04 127.34 112.744 126.156 112.744C125.388 112.744 124.716 112.888 124.14 113.176C123.564 113.464 123.108 113.856 122.772 114.352C122.452 114.832 122.292 115.384 122.292 116.008C122.292 116.584 122.444 117.12 122.748 117.616C123.052 118.096 123.5 118.488 124.092 118.792C124.684 119.096 125.412 119.248 126.276 119.248ZM136.379 121V104.2H142.979C145.139 104.2 146.843 104.68 148.091 105.64C149.339 106.584 149.963 107.968 149.963 109.792C149.963 111.616 149.339 113.008 148.091 113.968C146.843 114.928 145.139 115.408 142.979 115.408H137.723L138.803 114.28V121H136.379ZM138.803 114.52L137.723 113.416H142.979C144.451 113.416 145.579 113.104 146.363 112.48C147.147 111.856 147.539 110.968 147.539 109.816C147.539 108.68 147.147 107.808 146.363 107.2C145.579 106.592 144.451 106.288 142.979 106.288H137.723L138.803 105.088V114.52ZM133.931 118.192V116.824H144.131V118.192H133.931Z" fill="#161617"></path> <path d="M224.192 114.128C223.403 114.128 222.635 114.005 221.888 113.76C221.152 113.515 220.549 113.184 220.08 112.768L220.816 111.504C221.189 111.856 221.675 112.144 222.272 112.368C222.869 112.592 223.509 112.704 224.192 112.704C225.024 112.704 225.669 112.528 226.128 112.176C226.597 111.813 226.832 111.328 226.832 110.72C226.832 110.133 226.608 109.664 226.16 109.312C225.723 108.949 225.024 108.768 224.064 108.768H223.168V107.648L226.496 103.552L226.72 104.192H220.592V102.8H227.984V103.888L224.672 107.968L223.84 107.472H224.368C225.723 107.472 226.736 107.776 227.408 108.384C228.091 108.992 228.432 109.765 228.432 110.704C228.432 111.333 228.277 111.909 227.968 112.432C227.659 112.955 227.189 113.371 226.56 113.68C225.941 113.979 225.152 114.128 224.192 114.128ZM234.5 114.128C233.626 114.128 232.842 113.904 232.148 113.456C231.466 113.008 230.922 112.357 230.516 111.504C230.122 110.651 229.924 109.616 229.924 108.4C229.924 107.184 230.122 106.149 230.516 105.296C230.922 104.443 231.466 103.792 232.148 103.344C232.842 102.896 233.626 102.672 234.5 102.672C235.364 102.672 236.143 102.896 236.836 103.344C237.53 103.792 238.074 104.443 238.468 105.296C238.863 106.149 239.06 107.184 239.06 108.4C239.06 109.616 238.863 110.651 238.468 111.504C238.074 112.357 237.53 113.008 236.836 113.456C236.143 113.904 235.364 114.128 234.5 114.128ZM234.5 112.704C235.087 112.704 235.599 112.544 236.036 112.224C236.484 111.904 236.831 111.424 237.076 110.784C237.332 110.144 237.46 109.349 237.46 108.4C237.46 107.451 237.332 106.656 237.076 106.016C236.831 105.376 236.484 104.896 236.036 104.576C235.599 104.256 235.087 104.096 234.5 104.096C233.914 104.096 233.396 104.256 232.948 104.576C232.5 104.896 232.148 105.376 231.892 106.016C231.647 106.656 231.524 107.451 231.524 108.4C231.524 109.349 231.647 110.144 231.892 110.784C232.148 111.424 232.5 111.904 232.948 112.224C233.396 112.544 233.914 112.704 234.5 112.704ZM242.132 114L249.78 102.8H251.012L243.364 114H242.132ZM243.028 108.816C242.516 108.816 242.063 108.688 241.668 108.432C241.273 108.176 240.964 107.819 240.74 107.36C240.527 106.901 240.42 106.368 240.42 105.76C240.42 105.152 240.527 104.619 240.74 104.16C240.964 103.701 241.273 103.344 241.668 103.088C242.063 102.832 242.516 102.704 243.028 102.704C243.551 102.704 244.004 102.832 244.388 103.088C244.783 103.344 245.087 103.701 245.3 104.16C245.513 104.619 245.62 105.152 245.62 105.76C245.62 106.368 245.513 106.901 245.3 107.36C245.087 107.819 244.783 108.176 244.388 108.432C244.004 108.688 243.551 108.816 243.028 108.816ZM243.028 107.904C243.519 107.904 243.903 107.717 244.18 107.344C244.457 106.96 244.596 106.432 244.596 105.76C244.596 105.088 244.457 104.565 244.18 104.192C243.903 103.808 243.519 103.616 243.028 103.616C242.548 103.616 242.164 103.808 241.876 104.192C241.599 104.565 241.46 105.088 241.46 105.76C241.46 106.421 241.599 106.944 241.876 107.328C242.164 107.712 242.548 107.904 243.028 107.904ZM250.116 114.096C249.604 114.096 249.151 113.968 248.756 113.712C248.361 113.456 248.057 113.099 247.844 112.64C247.631 112.181 247.524 111.648 247.524 111.04C247.524 110.432 247.631 109.899 247.844 109.44C248.057 108.981 248.361 108.624 248.756 108.368C249.151 108.112 249.604 107.984 250.116 107.984C250.639 107.984 251.092 108.112 251.476 108.368C251.871 108.624 252.175 108.981 252.388 109.44C252.612 109.899 252.724 110.432 252.724 111.04C252.724 111.648 252.612 112.181 252.388 112.64C252.175 113.099 251.871 113.456 251.476 113.712C251.092 113.968 250.639 114.096 250.116 114.096ZM250.116 113.184C250.596 113.184 250.975 112.997 251.252 112.624C251.54 112.24 251.684 111.712 251.684 111.04C251.684 110.379 251.54 109.856 251.252 109.472C250.975 109.088 250.596 108.896 250.116 108.896C249.636 108.896 249.252 109.088 248.964 109.472C248.687 109.845 248.548 110.368 248.548 111.04C248.548 111.712 248.687 112.24 248.964 112.624C249.252 112.997 249.636 113.184 250.116 113.184Z" fill="#2CCC39"></path> <path d="M254 143H16V145H254V143Z" fill="#DDDDDD" mask="url(#path-21-inside-1_2148_2688)"></path> <path d="M22.8 178.096C21.9573 178.096 21.1733 177.957 20.448 177.68C19.7333 177.392 19.1093 176.992 18.576 176.48C18.0533 175.957 17.6427 175.355 17.344 174.672C17.056 173.979 16.912 173.221 16.912 172.4C16.912 171.579 17.056 170.827 17.344 170.144C17.6427 169.451 18.0533 168.848 18.576 168.336C19.1093 167.813 19.7333 167.413 20.448 167.136C21.1627 166.848 21.9467 166.704 22.8 166.704C23.6427 166.704 24.4213 166.848 25.136 167.136C25.8507 167.413 26.4693 167.808 26.992 168.32C27.5253 168.832 27.936 169.435 28.224 170.128C28.5227 170.821 28.672 171.579 28.672 172.4C28.672 173.221 28.5227 173.979 28.224 174.672C27.936 175.365 27.5253 175.968 26.992 176.48C26.4693 176.992 25.8507 177.392 25.136 177.68C24.4213 177.957 23.6427 178.096 22.8 178.096ZM22.8 177.04C23.472 177.04 24.0907 176.928 24.656 176.704C25.232 176.469 25.728 176.144 26.144 175.728C26.5707 175.301 26.9013 174.811 27.136 174.256C27.3707 173.691 27.488 173.072 27.488 172.4C27.488 171.728 27.3707 171.115 27.136 170.56C26.9013 169.995 26.5707 169.504 26.144 169.088C25.728 168.661 25.232 168.336 24.656 168.112C24.0907 167.877 23.472 167.76 22.8 167.76C22.128 167.76 21.504 167.877 20.928 168.112C20.352 168.336 19.8507 168.661 19.424 169.088C19.008 169.504 18.6773 169.995 18.432 170.56C18.1973 171.115 18.08 171.728 18.08 172.4C18.08 173.061 18.1973 173.675 18.432 174.24C18.6773 174.805 19.008 175.301 19.424 175.728C19.8507 176.144 20.352 176.469 20.928 176.704C21.504 176.928 22.128 177.04 22.8 177.04ZM36.4094 178.096C35.5667 178.096 34.7827 177.957 34.0574 177.68C33.3427 177.392 32.7187 176.992 32.1854 176.48C31.6627 175.957 31.252 175.355 30.9534 174.672C30.6654 173.979 30.5214 173.221 30.5214 172.4C30.5214 171.579 30.6654 170.827 30.9534 170.144C31.252 169.451 31.6627 168.848 32.1854 168.336C32.7187 167.813 33.3427 167.413 34.0574 167.136C34.772 166.848 35.556 166.704 36.4094 166.704C37.252 166.704 38.0307 166.848 38.7454 167.136C39.46 167.413 40.0787 167.808 40.6014 168.32C41.1347 168.832 41.5454 169.435 41.8334 170.128C42.132 170.821 42.2814 171.579 42.2814 172.4C42.2814 173.221 42.132 173.979 41.8334 174.672C41.5454 175.365 41.1347 175.968 40.6014 176.48C40.0787 176.992 39.46 177.392 38.7454 177.68C38.0307 177.957 37.252 178.096 36.4094 178.096ZM36.4094 177.04C37.0814 177.04 37.7 176.928 38.2654 176.704C38.8414 176.469 39.3374 176.144 39.7534 175.728C40.18 175.301 40.5107 174.811 40.7454 174.256C40.98 173.691 41.0974 173.072 41.0974 172.4C41.0974 171.728 40.98 171.115 40.7454 170.56C40.5107 169.995 40.18 169.504 39.7534 169.088C39.3374 168.661 38.8414 168.336 38.2654 168.112C37.7 167.877 37.0814 167.76 36.4094 167.76C35.7374 167.76 35.1134 167.877 34.5374 168.112C33.9614 168.336 33.46 168.661 33.0334 169.088C32.6174 169.504 32.2867 169.995 32.0414 170.56C31.8067 171.115 31.6894 171.728 31.6894 172.4C31.6894 173.061 31.8067 173.675 32.0414 174.24C32.2867 174.805 32.6174 175.301 33.0334 175.728C33.46 176.144 33.9614 176.469 34.5374 176.704C35.1134 176.928 35.7374 177.04 36.4094 177.04ZM50.0188 178.096C49.1761 178.096 48.3921 177.957 47.6668 177.68C46.9521 177.392 46.3281 176.992 45.7948 176.48C45.2721 175.957 44.8614 175.355 44.5628 174.672C44.2748 173.979 44.1308 173.221 44.1308 172.4C44.1308 171.579 44.2748 170.827 44.5628 170.144C44.8614 169.451 45.2721 168.848 45.7948 168.336C46.3281 167.813 46.9521 167.413 47.6668 167.136C48.3814 166.848 49.1654 166.704 50.0188 166.704C50.8614 166.704 51.6401 166.848 52.3548 167.136C53.0694 167.413 53.6881 167.808 54.2108 168.32C54.7441 168.832 55.1548 169.435 55.4428 170.128C55.7414 170.821 55.8908 171.579 55.8908 172.4C55.8908 173.221 55.7414 173.979 55.4428 174.672C55.1548 175.365 54.7441 175.968 54.2108 176.48C53.6881 176.992 53.0694 177.392 52.3548 177.68C51.6401 177.957 50.8614 178.096 50.0188 178.096ZM50.0188 177.04C50.6908 177.04 51.3094 176.928 51.8748 176.704C52.4508 176.469 52.9468 176.144 53.3628 175.728C53.7894 175.301 54.1201 174.811 54.3548 174.256C54.5894 173.691 54.7068 173.072 54.7068 172.4C54.7068 171.728 54.5894 171.115 54.3548 170.56C54.1201 169.995 53.7894 169.504 53.3628 169.088C52.9468 168.661 52.4508 168.336 51.8748 168.112C51.3094 167.877 50.6908 167.76 50.0188 167.76C49.3468 167.76 48.7228 167.877 48.1468 168.112C47.5708 168.336 47.0694 168.661 46.6428 169.088C46.2268 169.504 45.8961 169.995 45.6508 170.56C45.4161 171.115 45.2988 171.728 45.2988 172.4C45.2988 173.061 45.4161 173.675 45.6508 174.24C45.8961 174.805 46.2268 175.301 46.6428 175.728C47.0694 176.144 47.5708 176.469 48.1468 176.704C48.7228 176.928 49.3468 177.04 50.0188 177.04ZM63.5116 166.128L62.8076 169.088L62.6796 168.4C62.9356 168.4 63.1436 168.48 63.3036 168.64C63.4636 168.789 63.5436 168.992 63.5436 169.248C63.5436 169.504 63.4636 169.712 63.3036 169.872C63.1436 170.032 62.9463 170.112 62.7116 170.112C62.4556 170.112 62.2476 170.032 62.0876 169.872C61.9383 169.701 61.8636 169.493 61.8636 169.248C61.8636 169.152 61.869 169.067 61.8796 168.992C61.8903 168.917 61.9116 168.827 61.9436 168.72C61.9756 168.613 62.0183 168.485 62.0716 168.336L62.7436 166.128H63.5116ZM66.2316 166.128L65.5276 169.088L65.3996 168.4C65.6556 168.4 65.8636 168.48 66.0236 168.64C66.1836 168.789 66.2636 168.992 66.2636 169.248C66.2636 169.504 66.1836 169.712 66.0236 169.872C65.8636 170.032 65.6663 170.112 65.4316 170.112C65.1756 170.112 64.9676 170.032 64.8076 169.872C64.6583 169.701 64.5836 169.493 64.5836 169.248C64.5836 169.152 64.589 169.067 64.5996 168.992C64.6103 168.917 64.6316 168.827 64.6636 168.72C64.6956 168.613 64.7383 168.485 64.7916 168.336L65.4636 166.128H66.2316ZM69.013 178V166.8H73.669C74.853 166.8 75.781 167.045 76.453 167.536C77.1357 168.016 77.477 168.725 77.477 169.664C77.477 170.592 77.1517 171.296 76.501 171.776C75.8503 172.245 74.997 172.48 73.941 172.48L74.213 172.08C75.461 172.08 76.4103 172.325 77.061 172.816C77.7117 173.307 78.037 174.027 78.037 174.976C78.037 175.936 77.6957 176.683 77.013 177.216C76.341 177.739 75.3277 178 73.973 178H69.013ZM70.181 177.056H73.973C74.9223 177.056 75.6423 176.88 76.133 176.528C76.6237 176.176 76.869 175.632 76.869 174.896C76.869 174.171 76.6237 173.637 76.133 173.296C75.6423 172.955 74.9223 172.784 73.973 172.784H70.181V177.056ZM70.181 171.872H73.605C74.469 171.872 75.1303 171.701 75.589 171.36C76.0583 171.008 76.293 170.491 76.293 169.808C76.293 169.125 76.0583 168.613 75.589 168.272C75.1303 167.92 74.469 167.744 73.605 167.744H70.181V171.872ZM82.0534 171.808H87.9734V172.816H82.0534V171.808ZM82.1814 176.976H88.9174V178H80.9974V166.8H88.6774V167.824H82.1814V176.976ZM99.7363 166.8H100.904V178H99.7363V166.8ZM92.7283 178H91.5443V166.8H92.7283V178ZM99.8483 172.832H92.6003V171.792H99.8483V172.832ZM106.909 178V167.504L107.229 167.824H102.973V166.8H112.013V167.824H107.773L108.077 167.504V178H106.909ZM114.091 178V166.8H115.067L120.187 175.536H119.675L124.747 166.8H125.723V178H124.587V168.576H124.859L120.187 176.576H119.627L114.923 168.576H115.227V178H114.091ZM134.409 178.096C133.567 178.096 132.783 177.957 132.057 177.68C131.343 177.392 130.719 176.992 130.185 176.48C129.663 175.957 129.252 175.355 128.953 174.672C128.665 173.979 128.521 173.221 128.521 172.4C128.521 171.579 128.665 170.827 128.953 170.144C129.252 169.451 129.663 168.848 130.185 168.336C130.719 167.813 131.343 167.413 132.057 167.136C132.772 166.848 133.556 166.704 134.409 166.704C135.252 166.704 136.031 166.848 136.745 167.136C137.46 167.413 138.079 167.808 138.601 168.32C139.135 168.832 139.545 169.435 139.833 170.128C140.132 170.821 140.281 171.579 140.281 172.4C140.281 173.221 140.132 173.979 139.833 174.672C139.545 175.365 139.135 175.968 138.601 176.48C138.079 176.992 137.46 177.392 136.745 177.68C136.031 177.957 135.252 178.096 134.409 178.096ZM134.409 177.04C135.081 177.04 135.7 176.928 136.265 176.704C136.841 176.469 137.337 176.144 137.753 175.728C138.18 175.301 138.511 174.811 138.745 174.256C138.98 173.691 139.097 173.072 139.097 172.4C139.097 171.728 138.98 171.115 138.745 170.56C138.511 169.995 138.18 169.504 137.753 169.088C137.337 168.661 136.841 168.336 136.265 168.112C135.7 167.877 135.081 167.76 134.409 167.76C133.737 167.76 133.113 167.877 132.537 168.112C131.961 168.336 131.46 168.661 131.033 169.088C130.617 169.504 130.287 169.995 130.041 170.56C129.807 171.115 129.689 171.728 129.689 172.4C129.689 173.061 129.807 173.675 130.041 174.24C130.287 174.805 130.617 175.301 131.033 175.728C131.46 176.144 131.961 176.469 132.537 176.704C133.113 176.928 133.737 177.04 134.409 177.04ZM151.299 166.8H152.467V178H151.299V166.8ZM144.291 178H143.107V166.8H144.291V178ZM151.411 172.832H144.163V171.792H151.411V172.832ZM158.471 178V167.504L158.791 167.824H154.535V166.8H163.575V167.824H159.335L159.639 167.504V178H158.471ZM163.443 178L168.563 166.8H169.731L174.851 178H173.603L168.899 167.488H169.379L164.675 178H163.443ZM165.459 175.008L165.811 174.048H172.323L172.675 175.008H165.459ZM189.01 178L185.282 172.416L186.29 171.84L190.386 178H189.01ZM182.898 172.864V171.824H186.098V172.864H182.898ZM186.338 172.528L185.25 172.336L188.818 166.8H190.098L186.338 172.528ZM176.354 178H174.978L179.074 171.84L180.082 172.416L176.354 178ZM183.266 178H182.114V166.8H183.266V178ZM182.466 172.864H179.266V171.824H182.466V172.864ZM179.026 172.528L175.266 166.8H176.546L180.098 172.336L179.026 172.528ZM191.787 170.032L192.491 167.088L192.619 167.76C192.373 167.76 192.165 167.685 191.995 167.536C191.835 167.376 191.755 167.168 191.755 166.912C191.755 166.656 191.835 166.448 191.995 166.288C192.165 166.128 192.368 166.048 192.603 166.048C192.848 166.048 193.045 166.133 193.195 166.304C193.355 166.464 193.435 166.667 193.435 166.912C193.435 166.997 193.429 167.083 193.419 167.168C193.408 167.253 193.387 167.349 193.355 167.456C193.333 167.552 193.296 167.675 193.243 167.824L192.555 170.032H191.787ZM194.507 170.032L195.211 167.088L195.339 167.76C195.093 167.76 194.885 167.685 194.715 167.536C194.555 167.376 194.475 167.168 194.475 166.912C194.475 166.656 194.555 166.448 194.715 166.288C194.885 166.128 195.088 166.048 195.323 166.048C195.568 166.048 195.765 166.133 195.915 166.304C196.075 166.464 196.155 166.667 196.155 166.912C196.155 166.997 196.149 167.083 196.139 167.168C196.128 167.253 196.107 167.349 196.075 167.456C196.053 167.552 196.016 167.675 195.963 167.824L195.275 170.032H194.507Z" fill="#49494F"></path> <path d="M254 223H16V225H254V223Z" fill="#DDDDDD" mask="url(#path-25-inside-2_2148_2688)"></path> <path d="M17.652 254V244.2H25.898V254H24.876V244.816L25.142 245.096H18.408L18.674 244.816V254H17.652ZM32.7607 254.07C32.1261 254.07 31.5521 253.925 31.0387 253.636C30.5254 253.337 30.1147 252.913 29.8067 252.362C29.5081 251.802 29.3587 251.121 29.3587 250.318C29.3587 249.515 29.5081 248.839 29.8067 248.288C30.1054 247.728 30.5114 247.303 31.0247 247.014C31.5381 246.725 32.1167 246.58 32.7607 246.58C33.4607 246.58 34.0861 246.739 34.6367 247.056C35.1967 247.364 35.6354 247.803 35.9527 248.372C36.2701 248.932 36.4287 249.581 36.4287 250.318C36.4287 251.065 36.2701 251.718 35.9527 252.278C35.6354 252.838 35.1967 253.277 34.6367 253.594C34.0861 253.911 33.4607 254.07 32.7607 254.07ZM28.9667 256.716V246.65H29.9187V248.862L29.8207 250.332L29.9607 251.816V256.716H28.9667ZM32.6907 253.188C33.2134 253.188 33.6801 253.071 34.0907 252.838C34.5014 252.595 34.8281 252.259 35.0707 251.83C35.3134 251.391 35.4347 250.887 35.4347 250.318C35.4347 249.749 35.3134 249.249 35.0707 248.82C34.8281 248.391 34.5014 248.055 34.0907 247.812C33.6801 247.569 33.2134 247.448 32.6907 247.448C32.1681 247.448 31.6967 247.569 31.2767 247.812C30.8661 248.055 30.5394 248.391 30.2967 248.82C30.0634 249.249 29.9467 249.749 29.9467 250.318C29.9467 250.887 30.0634 251.391 30.2967 251.83C30.5394 252.259 30.8661 252.595 31.2767 252.838C31.6967 253.071 32.1681 253.188 32.6907 253.188ZM41.5884 254.07C40.8791 254.07 40.2397 253.911 39.6704 253.594C39.1104 253.267 38.6671 252.824 38.3404 252.264C38.0137 251.695 37.8504 251.046 37.8504 250.318C37.8504 249.581 38.0137 248.932 38.3404 248.372C38.6671 247.812 39.1104 247.373 39.6704 247.056C40.2304 246.739 40.8697 246.58 41.5884 246.58C42.3164 246.58 42.9604 246.739 43.5204 247.056C44.0897 247.373 44.5331 247.812 44.8504 248.372C45.1771 248.932 45.3404 249.581 45.3404 250.318C45.3404 251.046 45.1771 251.695 44.8504 252.264C44.5331 252.824 44.0897 253.267 43.5204 253.594C42.9511 253.911 42.3071 254.07 41.5884 254.07ZM41.5884 253.188C42.1204 253.188 42.5917 253.071 43.0024 252.838C43.4131 252.595 43.7351 252.259 43.9684 251.83C44.2111 251.391 44.3324 250.887 44.3324 250.318C44.3324 249.739 44.2111 249.235 43.9684 248.806C43.7351 248.377 43.4131 248.045 43.0024 247.812C42.5917 247.569 42.1251 247.448 41.6024 247.448C41.0797 247.448 40.6131 247.569 40.2024 247.812C39.7917 248.045 39.4651 248.377 39.2224 248.806C38.9797 249.235 38.8584 249.739 38.8584 250.318C38.8584 250.887 38.9797 251.391 39.2224 251.83C39.4651 252.259 39.7917 252.595 40.2024 252.838C40.6131 253.071 41.0751 253.188 41.5884 253.188ZM47.4648 254V246.65H48.4588V252.488L53.3728 246.65H54.2548V254H53.2608V248.148L48.3608 254H47.4648ZM58.9271 254.084C59.5337 254.084 60.0797 253.991 60.5651 253.804C61.0597 253.617 61.4517 253.361 61.7411 253.034C62.0304 252.698 62.1751 252.311 62.1751 251.872C62.1751 251.312 61.9371 250.869 61.4611 250.542C60.9944 250.215 60.3411 250.052 59.5011 250.052L59.4591 250.318C59.9351 250.318 60.3597 250.243 60.7331 250.094C61.1064 249.945 61.4051 249.735 61.6291 249.464C61.8531 249.193 61.9651 248.876 61.9651 248.512C61.9651 248.101 61.8251 247.751 61.5451 247.462C61.2651 247.163 60.8871 246.935 60.4111 246.776C59.9444 246.617 59.4171 246.547 58.8291 246.566C58.3997 246.566 57.9704 246.627 57.5411 246.748C57.1211 246.86 56.6964 247.028 56.2671 247.252L56.5471 248.022C56.9297 247.826 57.3171 247.681 57.7091 247.588C58.1011 247.485 58.4791 247.429 58.8431 247.42C59.2444 247.42 59.6037 247.467 59.9211 247.56C60.2384 247.653 60.4857 247.793 60.6631 247.98C60.8497 248.167 60.9431 248.391 60.9431 248.652C60.9431 248.895 60.8637 249.105 60.7051 249.282C60.5557 249.459 60.3411 249.595 60.0611 249.688C59.7811 249.781 59.4591 249.828 59.0951 249.828H57.9051V250.556H59.1651C59.7811 250.556 60.2664 250.668 60.6211 250.892C60.9757 251.107 61.1531 251.41 61.1531 251.802C61.1531 252.073 61.0597 252.315 60.8731 252.53C60.6864 252.745 60.4251 252.913 60.0891 253.034C59.7531 253.155 59.3564 253.221 58.8991 253.23C58.4417 253.23 57.9797 253.165 57.5131 253.034C57.0464 252.894 56.6357 252.693 56.2811 252.432L55.9591 253.174C56.3604 253.482 56.8224 253.711 57.3451 253.86C57.8677 254.009 58.3951 254.084 58.9271 254.084ZM64.4316 254V246.65H67.6796C68.5102 246.65 69.1636 246.809 69.6396 247.126C70.1249 247.443 70.3676 247.91 70.3676 248.526C70.3676 249.123 70.1389 249.585 69.6816 249.912C69.2242 250.229 68.6222 250.388 67.8756 250.388L68.0716 250.094C68.9489 250.094 69.5929 250.257 70.0036 250.584C70.4142 250.911 70.6196 251.382 70.6196 251.998C70.6196 252.633 70.3862 253.127 69.9196 253.482C69.4622 253.827 68.7482 254 67.7776 254H64.4316ZM65.3976 253.216H67.7356C68.3609 253.216 68.8322 253.118 69.1496 252.922C69.4762 252.717 69.6396 252.39 69.6396 251.942C69.6396 251.494 69.4949 251.167 69.2056 250.962C68.9162 250.757 68.4589 250.654 67.8336 250.654H65.3976V253.216ZM65.3976 249.912H67.6096C68.1789 249.912 68.6129 249.805 68.9116 249.59C69.2196 249.375 69.3736 249.063 69.3736 248.652C69.3736 248.241 69.2196 247.933 68.9116 247.728C68.6129 247.523 68.1789 247.42 67.6096 247.42H65.3976V249.912ZM75.9732 254.07C75.2638 254.07 74.6245 253.911 74.0552 253.594C73.4952 253.267 73.0518 252.824 72.7252 252.264C72.3985 251.695 72.2352 251.046 72.2352 250.318C72.2352 249.581 72.3985 248.932 72.7252 248.372C73.0518 247.812 73.4952 247.373 74.0552 247.056C74.6152 246.739 75.2545 246.58 75.9732 246.58C76.7012 246.58 77.3452 246.739 77.9052 247.056C78.4745 247.373 78.9178 247.812 79.2352 248.372C79.5618 248.932 79.7252 249.581 79.7252 250.318C79.7252 251.046 79.5618 251.695 79.2352 252.264C78.9178 252.824 78.4745 253.267 77.9052 253.594C77.3358 253.911 76.6918 254.07 75.9732 254.07ZM75.9732 253.188C76.5052 253.188 76.9765 253.071 77.3872 252.838C77.7978 252.595 78.1198 252.259 78.3532 251.83C78.5958 251.391 78.7172 250.887 78.7172 250.318C78.7172 249.739 78.5958 249.235 78.3532 248.806C78.1198 248.377 77.7978 248.045 77.3872 247.812C76.9765 247.569 76.5098 247.448 75.9872 247.448C75.4645 247.448 74.9978 247.569 74.5872 247.812C74.1765 248.045 73.8498 248.377 73.6072 248.806C73.3645 249.235 73.2432 249.739 73.2432 250.318C73.2432 250.887 73.3645 251.391 73.6072 251.83C73.8498 252.259 74.1765 252.595 74.5872 252.838C74.9978 253.071 75.4598 253.188 75.9732 253.188ZM86.8485 253.524V247.518H83.3065L83.2225 249.156C83.2039 249.651 83.1712 250.136 83.1245 250.612C83.0872 251.088 83.0172 251.527 82.9145 251.928C82.8212 252.32 82.6859 252.642 82.5085 252.894C82.3312 253.137 82.1025 253.277 81.8225 253.314L80.8285 253.132C81.1179 253.141 81.3559 253.039 81.5425 252.824C81.7292 252.6 81.8739 252.297 81.9765 251.914C82.0792 251.531 82.1539 251.097 82.2005 250.612C82.2472 250.117 82.2845 249.613 82.3125 249.1L82.4105 246.65H87.8425V253.524H86.8485ZM80.5205 255.778V253.132H88.9905V255.778H88.0525V254H81.4585V255.778H80.5205ZM94.0077 254.07C93.2797 254.07 92.6263 253.911 92.0477 253.594C91.4783 253.267 91.0303 252.824 90.7037 252.264C90.377 251.695 90.2137 251.046 90.2137 250.318C90.2137 249.581 90.377 248.932 90.7037 248.372C91.0303 247.812 91.4783 247.373 92.0477 247.056C92.6263 246.739 93.2797 246.58 94.0077 246.58C94.633 246.58 95.1977 246.701 95.7017 246.944C96.2057 247.187 96.6023 247.551 96.8917 248.036L96.1497 248.54C95.8977 248.167 95.585 247.891 95.2117 247.714C94.8383 247.537 94.4323 247.448 93.9937 247.448C93.471 247.448 92.9997 247.569 92.5797 247.812C92.1597 248.045 91.8283 248.377 91.5857 248.806C91.343 249.235 91.2217 249.739 91.2217 250.318C91.2217 250.897 91.343 251.401 91.5857 251.83C91.8283 252.259 92.1597 252.595 92.5797 252.838C92.9997 253.071 93.471 253.188 93.9937 253.188C94.4323 253.188 94.8383 253.099 95.2117 252.922C95.585 252.745 95.8977 252.474 96.1497 252.11L96.8917 252.614C96.6023 253.09 96.2057 253.454 95.7017 253.706C95.1977 253.949 94.633 254.07 94.0077 254.07ZM100.08 254V247.252L100.332 247.518H97.2936V246.65H103.86V247.518H100.822L101.074 247.252V254H100.08ZM105.297 254V246.65H108.545C109.375 246.65 110.029 246.809 110.505 247.126C110.99 247.443 111.233 247.91 111.233 248.526C111.233 249.123 111.004 249.585 110.547 249.912C110.089 250.229 109.487 250.388 108.741 250.388L108.937 250.094C109.814 250.094 110.458 250.257 110.869 250.584C111.279 250.911 111.485 251.382 111.485 251.998C111.485 252.633 111.251 253.127 110.785 253.482C110.327 253.827 109.613 254 108.643 254H105.297ZM106.263 253.216H108.601C109.226 253.216 109.697 253.118 110.015 252.922C110.341 252.717 110.505 252.39 110.505 251.942C110.505 251.494 110.36 251.167 110.071 250.962C109.781 250.757 109.324 250.654 108.699 250.654H106.263V253.216ZM106.263 249.912H108.475C109.044 249.912 109.478 249.805 109.777 249.59C110.085 249.375 110.239 249.063 110.239 248.652C110.239 248.241 110.085 247.933 109.777 247.728C109.478 247.523 109.044 247.42 108.475 247.42H106.263V249.912ZM116.838 254.07C116.129 254.07 115.49 253.911 114.92 253.594C114.36 253.267 113.917 252.824 113.59 252.264C113.264 251.695 113.1 251.046 113.1 250.318C113.1 249.581 113.264 248.932 113.59 248.372C113.917 247.812 114.36 247.373 114.92 247.056C115.48 246.739 116.12 246.58 116.838 246.58C117.566 246.58 118.21 246.739 118.77 247.056C119.34 247.373 119.783 247.812 120.1 248.372C120.427 248.932 120.59 249.581 120.59 250.318C120.59 251.046 120.427 251.695 120.1 252.264C119.783 252.824 119.34 253.267 118.77 253.594C118.201 253.911 117.557 254.07 116.838 254.07ZM116.838 253.188C117.37 253.188 117.842 253.071 118.252 252.838C118.663 252.595 118.985 252.259 119.218 251.83C119.461 251.391 119.582 250.887 119.582 250.318C119.582 249.739 119.461 249.235 119.218 248.806C118.985 248.377 118.663 248.045 118.252 247.812C117.842 247.569 117.375 247.448 116.852 247.448C116.33 247.448 115.863 247.569 115.452 247.812C115.042 248.045 114.715 248.377 114.472 248.806C114.23 249.235 114.108 249.739 114.108 250.318C114.108 250.887 114.23 251.391 114.472 251.83C114.715 252.259 115.042 252.595 115.452 252.838C115.863 253.071 116.325 253.188 116.838 253.188ZM126.379 254V246.65H132.987V254H131.993V247.252L132.245 247.518H127.121L127.373 247.252V254H126.379ZM139.606 254.07C138.972 254.07 138.398 253.925 137.884 253.636C137.371 253.337 136.96 252.913 136.652 252.362C136.354 251.802 136.204 251.121 136.204 250.318C136.204 249.515 136.354 248.839 136.652 248.288C136.951 247.728 137.357 247.303 137.87 247.014C138.384 246.725 138.962 246.58 139.606 246.58C140.306 246.58 140.932 246.739 141.482 247.056C142.042 247.364 142.481 247.803 142.798 248.372C143.116 248.932 143.274 249.581 143.274 250.318C143.274 251.065 143.116 251.718 142.798 252.278C142.481 252.838 142.042 253.277 141.482 253.594C140.932 253.911 140.306 254.07 139.606 254.07ZM135.812 256.716V246.65H136.764V248.862L136.666 250.332L136.806 251.816V256.716H135.812ZM139.536 253.188C140.059 253.188 140.526 253.071 140.936 252.838C141.347 252.595 141.674 252.259 141.916 251.83C142.159 251.391 142.28 250.887 142.28 250.318C142.28 249.749 142.159 249.249 141.916 248.82C141.674 248.391 141.347 248.055 140.936 247.812C140.526 247.569 140.059 247.448 139.536 247.448C139.014 247.448 138.542 247.569 138.122 247.812C137.712 248.055 137.385 248.391 137.142 248.82C136.909 249.249 136.792 249.749 136.792 250.318C136.792 250.887 136.909 251.391 137.142 251.83C137.385 252.259 137.712 252.595 138.122 252.838C138.542 253.071 139.014 253.188 139.536 253.188ZM148.434 254.07C147.725 254.07 147.085 253.911 146.516 253.594C145.956 253.267 145.513 252.824 145.186 252.264C144.859 251.695 144.696 251.046 144.696 250.318C144.696 249.581 144.859 248.932 145.186 248.372C145.513 247.812 145.956 247.373 146.516 247.056C147.076 246.739 147.715 246.58 148.434 246.58C149.162 246.58 149.806 246.739 150.366 247.056C150.935 247.373 151.379 247.812 151.696 248.372C152.023 248.932 152.186 249.581 152.186 250.318C152.186 251.046 152.023 251.695 151.696 252.264C151.379 252.824 150.935 253.267 150.366 253.594C149.797 253.911 149.153 254.07 148.434 254.07ZM148.434 253.188C148.966 253.188 149.437 253.071 149.848 252.838C150.259 252.595 150.581 252.259 150.814 251.83C151.057 251.391 151.178 250.887 151.178 250.318C151.178 249.739 151.057 249.235 150.814 248.806C150.581 248.377 150.259 248.045 149.848 247.812C149.437 247.569 148.971 247.448 148.448 247.448C147.925 247.448 147.459 247.569 147.048 247.812C146.637 248.045 146.311 248.377 146.068 248.806C145.825 249.235 145.704 249.739 145.704 250.318C145.704 250.887 145.825 251.391 146.068 251.83C146.311 252.259 146.637 252.595 147.048 252.838C147.459 253.071 147.921 253.188 148.434 253.188ZM158.958 250.892C158.529 251.079 158.095 251.228 157.656 251.34C157.227 251.443 156.798 251.494 156.368 251.494C155.5 251.494 154.814 251.298 154.31 250.906C153.806 250.505 153.554 249.889 153.554 249.058V246.65H154.534V249.002C154.534 249.562 154.716 249.982 155.08 250.262C155.444 250.542 155.934 250.682 156.55 250.682C156.924 250.682 157.316 250.635 157.726 250.542C158.137 250.439 158.552 250.295 158.972 250.108L158.958 250.892ZM158.874 254V246.65H159.868V254H158.874ZM162.691 254V246.65H163.685V252.488L168.599 246.65H169.481V254H168.487V248.148L163.587 254H162.691ZM171.126 254L174.234 249.968L174.22 250.458L171.266 246.65H172.386L174.808 249.8L174.388 249.786L176.81 246.65H177.902L174.92 250.5L174.934 249.968L178.07 254H176.936L174.374 250.64L174.766 250.696L172.246 254H171.126ZM186.443 254.07C185.715 254.07 185.062 253.911 184.483 253.594C183.914 253.267 183.466 252.824 183.139 252.264C182.813 251.695 182.649 251.046 182.649 250.318C182.649 249.581 182.813 248.932 183.139 248.372C183.466 247.812 183.914 247.373 184.483 247.056C185.062 246.739 185.715 246.58 186.443 246.58C187.069 246.58 187.633 246.701 188.137 246.944C188.641 247.187 189.038 247.551 189.327 248.036L188.585 248.54C188.333 248.167 188.021 247.891 187.647 247.714C187.274 247.537 186.868 247.448 186.429 247.448C185.907 247.448 185.435 247.569 185.015 247.812C184.595 248.045 184.264 248.377 184.021 248.806C183.779 249.235 183.657 249.739 183.657 250.318C183.657 250.897 183.779 251.401 184.021 251.83C184.264 252.259 184.595 252.595 185.015 252.838C185.435 253.071 185.907 253.188 186.429 253.188C186.868 253.188 187.274 253.099 187.647 252.922C188.021 252.745 188.333 252.474 188.585 252.11L189.327 252.614C189.038 253.09 188.641 253.454 188.137 253.706C187.633 253.949 187.069 254.07 186.443 254.07ZM192.515 254V247.252L192.767 247.518H189.729V246.65H196.295V247.518H193.257L193.509 247.252V254H192.515ZM201.526 254.07C200.892 254.07 200.318 253.925 199.804 253.636C199.291 253.337 198.88 252.913 198.572 252.362C198.274 251.802 198.124 251.121 198.124 250.318C198.124 249.515 198.274 248.839 198.572 248.288C198.871 247.728 199.277 247.303 199.79 247.014C200.304 246.725 200.882 246.58 201.526 246.58C202.226 246.58 202.852 246.739 203.402 247.056C203.962 247.364 204.401 247.803 204.718 248.372C205.036 248.932 205.194 249.581 205.194 250.318C205.194 251.065 205.036 251.718 204.718 252.278C204.401 252.838 203.962 253.277 203.402 253.594C202.852 253.911 202.226 254.07 201.526 254.07ZM197.732 256.716V246.65H198.684V248.862L198.586 250.332L198.726 251.816V256.716H197.732ZM201.456 253.188C201.979 253.188 202.446 253.071 202.856 252.838C203.267 252.595 203.594 252.259 203.836 251.83C204.079 251.391 204.2 250.887 204.2 250.318C204.2 249.749 204.079 249.249 203.836 248.82C203.594 248.391 203.267 248.055 202.856 247.812C202.446 247.569 201.979 247.448 201.456 247.448C200.934 247.448 200.462 247.569 200.042 247.812C199.632 248.055 199.305 248.391 199.062 248.82C198.829 249.249 198.712 249.749 198.712 250.318C198.712 250.887 198.829 251.391 199.062 251.83C199.305 252.259 199.632 252.595 200.042 252.838C200.462 253.071 200.934 253.188 201.456 253.188ZM210.354 254.07C209.645 254.07 209.005 253.911 208.436 253.594C207.876 253.267 207.433 252.824 207.106 252.264C206.779 251.695 206.616 251.046 206.616 250.318C206.616 249.581 206.779 248.932 207.106 248.372C207.433 247.812 207.876 247.373 208.436 247.056C208.996 246.739 209.635 246.58 210.354 246.58C211.082 246.58 211.726 246.739 212.286 247.056C212.855 247.373 213.299 247.812 213.616 248.372C213.943 248.932 214.106 249.581 214.106 250.318C214.106 251.046 213.943 251.695 213.616 252.264C213.299 252.824 212.855 253.267 212.286 253.594C211.717 253.911 211.073 254.07 210.354 254.07ZM210.354 253.188C210.886 253.188 211.357 253.071 211.768 252.838C212.179 252.595 212.501 252.259 212.734 251.83C212.977 251.391 213.098 250.887 213.098 250.318C213.098 249.739 212.977 249.235 212.734 248.806C212.501 248.377 212.179 248.045 211.768 247.812C211.357 247.569 210.891 247.448 210.368 247.448C209.845 247.448 209.379 247.569 208.968 247.812C208.557 248.045 208.231 248.377 207.988 248.806C207.745 249.235 207.624 249.739 207.624 250.318C207.624 250.887 207.745 251.391 207.988 251.83C208.231 252.259 208.557 252.595 208.968 252.838C209.379 253.071 209.841 253.188 210.354 253.188ZM216.23 254V246.65H217.224V252.488L222.138 246.65H223.02V254H222.026V248.148L217.126 254H216.23ZM227.269 254V247.252L227.521 247.518H224.483V246.65H231.049V247.518H228.011L228.263 247.252V254H227.269ZM235.294 254.07C234.529 254.07 233.857 253.911 233.278 253.594C232.7 253.267 232.247 252.824 231.92 252.264C231.594 251.695 231.43 251.046 231.43 250.318C231.43 249.59 231.584 248.946 231.892 248.386C232.21 247.826 232.639 247.387 233.18 247.07C233.731 246.743 234.347 246.58 235.028 246.58C235.719 246.58 236.33 246.739 236.862 247.056C237.404 247.364 237.828 247.803 238.136 248.372C238.444 248.932 238.598 249.581 238.598 250.318C238.598 250.365 238.594 250.416 238.584 250.472C238.584 250.519 238.584 250.57 238.584 250.626H232.186V249.884H238.052L237.66 250.178C237.66 249.646 237.544 249.175 237.31 248.764C237.086 248.344 236.778 248.017 236.386 247.784C235.994 247.551 235.542 247.434 235.028 247.434C234.524 247.434 234.072 247.551 233.67 247.784C233.269 248.017 232.956 248.344 232.732 248.764C232.508 249.184 232.396 249.665 232.396 250.206V250.36C232.396 250.92 232.518 251.415 232.76 251.844C233.012 252.264 233.358 252.595 233.796 252.838C234.244 253.071 234.753 253.188 235.322 253.188C235.77 253.188 236.186 253.109 236.568 252.95C236.96 252.791 237.296 252.549 237.576 252.222L238.136 252.866C237.81 253.258 237.399 253.557 236.904 253.762C236.419 253.967 235.882 254.07 235.294 254.07ZM239.304 253.986L239.374 253.132C239.44 253.141 239.5 253.155 239.556 253.174C239.622 253.183 239.678 253.188 239.724 253.188C240.023 253.188 240.261 253.076 240.438 252.852C240.625 252.628 240.765 252.329 240.858 251.956C240.952 251.583 241.017 251.163 241.054 250.696C241.092 250.22 241.124 249.744 241.152 249.268L241.278 246.65H246.668V254H245.674V247.224L245.926 247.518H241.922L242.16 247.21L242.048 249.338C242.02 249.973 241.969 250.579 241.894 251.158C241.829 251.737 241.722 252.245 241.572 252.684C241.432 253.123 241.236 253.468 240.984 253.72C240.732 253.963 240.41 254.084 240.018 254.084C239.906 254.084 239.79 254.075 239.668 254.056C239.556 254.037 239.435 254.014 239.304 253.986ZM249.564 254.07C249.359 254.07 249.181 253.995 249.032 253.846C248.892 253.697 248.822 253.515 248.822 253.3C248.822 253.076 248.892 252.894 249.032 252.754C249.181 252.614 249.359 252.544 249.564 252.544C249.769 252.544 249.942 252.614 250.082 252.754C250.231 252.894 250.306 253.076 250.306 253.3C250.306 253.515 250.231 253.697 250.082 253.846C249.942 253.995 249.769 254.07 249.564 254.07ZM252.531 254.07C252.326 254.07 252.148 253.995 251.999 253.846C251.859 253.697 251.789 253.515 251.789 253.3C251.789 253.076 251.859 252.894 251.999 252.754C252.148 252.614 252.326 252.544 252.531 252.544C252.736 252.544 252.909 252.614 253.049 252.754C253.198 252.894 253.273 253.076 253.273 253.3C253.273 253.515 253.198 253.697 253.049 253.846C252.909 253.995 252.736 254.07 252.531 254.07ZM255.498 254.07C255.292 254.07 255.115 253.995 254.966 253.846C254.826 253.697 254.756 253.515 254.756 253.3C254.756 253.076 254.826 252.894 254.966 252.754C255.115 252.614 255.292 252.544 255.498 252.544C255.703 252.544 255.876 252.614 256.016 252.754C256.165 252.894 256.24 253.076 256.24 253.3C256.24 253.515 256.165 253.697 256.016 253.846C255.876 253.995 255.703 254.07 255.498 254.07Z" fill="#49494F"></path> <rect x="0.5" y="0.5" width="269" height="281" rx="15.5" stroke="#E2E4E7"></rect> <defs> <linearGradient id="paint0_linear_2148_2688" x1="19" y1="26.5" x2="36" y2="64" gradientUnits="userSpaceOnUse"> <stop stop-color="#161617"></stop> <stop offset="1" stop-color="#212122"></stop> </linearGradient> </defs> </svg> 