<?xml version="1.0" encoding="UTF-8"?> <svg xmlns="http://www.w3.org/2000/svg" width="270" height="282" viewBox="0 0 270 282" fill="none"> <rect x="0.5" y="0.5" width="269" height="281" rx="15.5" fill="white"></rect> <rect x="16" y="24" width="40" height="40" rx="8" fill="#356BD5"></rect> <path d="M27.75 53.75H23.25V49.25H27.75V53.75Z" stroke="white" stroke-width="0.5"></path> <path d="M28.75 43.75H24.25V39.25H28.75V43.75Z" stroke="white" stroke-width="0.5"></path> <path d="M32.75 53.75H28.25V49.25H32.75V53.75Z" stroke="white" stroke-width="0.5"></path> <path d="M30.75 48.75H26.25V44.25H30.75V48.75Z" stroke="white" stroke-width="0.5"></path> <path d="M33.75 43.75H29.25V39.25H33.75V43.75Z" stroke="white" stroke-width="0.5"></path> <path d="M30.75 38.75H26.25V34.25H30.75V38.75Z" stroke="white" stroke-width="0.5"></path> <path d="M37.75 53.75H33.25V49.25H37.75V53.75Z" stroke="white" stroke-width="0.5"></path> <path d="M35.75 48.75H31.25V44.25H35.75V48.75Z" stroke="white" stroke-width="0.5"></path> <path d="M38.75 43.75H34.25V39.25H38.75V43.75Z" stroke="white" stroke-width="0.5"></path> <path d="M35.75 38.75H31.25V34.25H35.75V38.75Z" stroke="white" stroke-width="0.5"></path> <path d="M42.75 53.75H38.25V49.25H42.75V53.75Z" stroke="white" stroke-width="0.5"></path> <path d="M40.75 48.75H36.25V44.25H40.75V48.75Z" stroke="white" stroke-width="0.5"></path> <path d="M43.75 43.75H39.25V39.25H43.75V43.75Z" stroke="white" stroke-width="0.5"></path> <path d="M47.75 53.75H43.25V49.25H47.75V53.75Z" stroke="white" stroke-width="0.5"></path> <path d="M45.75 48.75H41.25V44.25H45.75V48.75Z" stroke="white" stroke-width="0.5"></path> <path d="M48.75 43.75H44.25V39.25H48.75V43.75Z" stroke="white" stroke-width="0.5"></path> <path d="M48.75 38.75H44.25V34.25H48.75V38.75Z" stroke="white" stroke-width="0.5"></path> <path d="M26 44H46" stroke="#356BD5" stroke-width="0.1"></path> <path d="M26 49H46" stroke="#356BD5" stroke-width="0.1"></path> <path d="M43 49V54" stroke="#356BD5" stroke-width="0.1"></path> <path d="M38 49V54" stroke="#356BD5" stroke-width="0.1"></path> <path d="M33 49V54" stroke="#356BD5" stroke-width="0.1"></path> <path d="M28 49V54" stroke="#356BD5" stroke-width="0.1"></path> <path d="M31 44V49" stroke="#356BD5" stroke-width="0.1"></path> <path d="M36 44V49" stroke="#356BD5" stroke-width="0.1"></path> <path d="M41 44V49" stroke="#356BD5" stroke-width="0.1"></path> <path d="M44 39V44" stroke="#356BD5" stroke-width="0.1"></path> <path d="M39 39V44" stroke="#356BD5" stroke-width="0.1"></path> <path d="M34 39V44" stroke="#356BD5" stroke-width="0.1"></path> <path d="M29 39V44" stroke="#356BD5" stroke-width="0.1"></path> <path d="M31 34V39" stroke="#356BD5" stroke-width="0.1"></path> <path d="M26 39H49" stroke="#356BD5" stroke-width="0.1"></path> <path d="M130.526 49V39.2H134.74C135.804 39.2 136.639 39.4147 137.246 39.844C137.853 40.2733 138.156 40.8987 138.156 41.72C138.156 42.5227 137.867 43.1387 137.288 43.568C136.709 43.988 135.949 44.198 135.006 44.198L135.258 43.778C136.35 43.778 137.185 43.9973 137.764 44.436C138.352 44.8653 138.646 45.4953 138.646 46.326C138.646 47.166 138.338 47.824 137.722 48.3C137.115 48.7667 136.21 49 135.006 49H130.526ZM131.912 47.894H134.978C135.725 47.894 136.285 47.7587 136.658 47.488C137.041 47.208 137.232 46.7833 137.232 46.214C137.232 45.6447 137.041 45.2293 136.658 44.968C136.285 44.7067 135.725 44.576 134.978 44.576H131.912V47.894ZM131.912 43.512H134.642C135.323 43.512 135.841 43.3767 136.196 43.106C136.56 42.8353 136.742 42.4387 136.742 41.916C136.742 41.384 136.56 40.9827 136.196 40.712C135.841 40.4413 135.323 40.306 134.642 40.306H131.912V43.512ZM148.097 49V41.58H149.441V49H148.097ZM144.107 44.1C145.05 44.1093 145.764 44.324 146.249 44.744C146.744 45.164 146.991 45.7567 146.991 46.522C146.991 47.3247 146.72 47.9453 146.179 48.384C145.647 48.8133 144.882 49.0233 143.883 49.014L140.761 49V41.58H142.105V44.086L144.107 44.1ZM143.785 47.992C144.382 48.0013 144.84 47.88 145.157 47.628C145.474 47.376 145.633 47.0027 145.633 46.508C145.633 46.0227 145.474 45.668 145.157 45.444C144.849 45.22 144.392 45.1033 143.785 45.094L142.105 45.066V47.978L143.785 47.992ZM157.122 48.37V42.756H153.902L153.832 44.184C153.813 44.6507 153.781 45.1033 153.734 45.542C153.697 45.9713 153.631 46.368 153.538 46.732C153.454 47.096 153.328 47.3947 153.16 47.628C152.992 47.8613 152.768 48.006 152.488 48.062L151.158 47.824C151.447 47.8333 151.681 47.74 151.858 47.544C152.035 47.3387 152.171 47.0587 152.264 46.704C152.367 46.3493 152.441 45.948 152.488 45.5C152.535 45.0427 152.572 44.5713 152.6 44.086L152.712 41.58H158.466V48.37H157.122ZM150.864 50.722V47.824H159.6V50.722H158.34V49H152.138V50.722H150.864ZM165.901 49V47.432L165.831 47.138V44.464C165.831 43.8947 165.663 43.456 165.327 43.148C165 42.8307 164.505 42.672 163.843 42.672C163.404 42.672 162.975 42.7467 162.555 42.896C162.135 43.036 161.78 43.2273 161.491 43.47L160.931 42.462C161.313 42.154 161.771 41.9207 162.303 41.762C162.844 41.594 163.409 41.51 163.997 41.51C165.014 41.51 165.798 41.7573 166.349 42.252C166.899 42.7467 167.175 43.5027 167.175 44.52V49H165.901ZM163.465 49.084C162.914 49.084 162.429 48.9907 162.009 48.804C161.598 48.6173 161.281 48.3607 161.057 48.034C160.833 47.698 160.721 47.32 160.721 46.9C160.721 46.4987 160.814 46.1347 161.001 45.808C161.197 45.4813 161.509 45.22 161.939 45.024C162.377 44.828 162.965 44.73 163.703 44.73H166.055V45.696H163.759C163.087 45.696 162.634 45.808 162.401 46.032C162.167 46.256 162.051 46.5267 162.051 46.844C162.051 47.208 162.195 47.502 162.485 47.726C162.774 47.9407 163.175 48.048 163.689 48.048C164.193 48.048 164.631 47.936 165.005 47.712C165.387 47.488 165.663 47.1613 165.831 46.732L166.097 47.656C165.919 48.0947 165.607 48.4447 165.159 48.706C164.711 48.958 164.146 49.084 163.465 49.084ZM169.595 49V41.58H170.939V44.73H175.167V41.58H176.511V49H175.167V45.892H170.939V49H169.595ZM183.906 49V39.76L184.508 40.418H181.694V39.2H185.292V49H183.906ZM187.296 46.592V45.612L192.308 39.2H193.82L188.85 45.612L188.136 45.388H195.962V46.592H187.296ZM192.742 49V46.592L192.784 45.388V43.26H194.1V49H192.742ZM197.998 49.084C197.737 49.084 197.513 48.9953 197.326 48.818C197.14 48.6313 197.046 48.398 197.046 48.118C197.046 47.838 197.14 47.6093 197.326 47.432C197.513 47.2547 197.737 47.166 197.998 47.166C198.25 47.166 198.465 47.2547 198.642 47.432C198.829 47.6093 198.922 47.838 198.922 48.118C198.922 48.398 198.829 48.6313 198.642 48.818C198.465 48.9953 198.25 49.084 197.998 49.084ZM204.086 49.112C203.321 49.112 202.635 48.916 202.028 48.524C201.431 48.132 200.955 47.5627 200.6 46.816C200.255 46.0693 200.082 45.164 200.082 44.1C200.082 43.036 200.255 42.1307 200.6 41.384C200.955 40.6373 201.431 40.068 202.028 39.676C202.635 39.284 203.321 39.088 204.086 39.088C204.842 39.088 205.523 39.284 206.13 39.676C206.737 40.068 207.213 40.6373 207.558 41.384C207.903 42.1307 208.076 43.036 208.076 44.1C208.076 45.164 207.903 46.0693 207.558 46.816C207.213 47.5627 206.737 48.132 206.13 48.524C205.523 48.916 204.842 49.112 204.086 49.112ZM204.086 47.866C204.599 47.866 205.047 47.726 205.43 47.446C205.822 47.166 206.125 46.746 206.34 46.186C206.564 45.626 206.676 44.9307 206.676 44.1C206.676 43.2693 206.564 42.574 206.34 42.014C206.125 41.454 205.822 41.034 205.43 40.754C205.047 40.474 204.599 40.334 204.086 40.334C203.573 40.334 203.12 40.474 202.728 40.754C202.336 41.034 202.028 41.454 201.804 42.014C201.589 42.574 201.482 43.2693 201.482 44.1C201.482 44.9307 201.589 45.626 201.804 46.186C202.028 46.746 202.336 47.166 202.728 47.446C203.12 47.726 203.573 47.866 204.086 47.866ZM211.018 49L215.176 39.788L215.54 40.418H209.716L210.416 39.732V42.168H209.072V39.2H216.464V40.152L212.502 49H211.018ZM217.891 49.084C217.63 49.084 217.406 48.9953 217.219 48.818C217.032 48.6313 216.939 48.398 216.939 48.118C216.939 47.838 217.032 47.6093 217.219 47.432C217.406 47.2547 217.63 47.166 217.891 47.166C218.143 47.166 218.358 47.2547 218.535 47.432C218.722 47.6093 218.815 47.838 218.815 48.118C218.815 48.398 218.722 48.6313 218.535 48.818C218.358 48.9953 218.143 49.084 217.891 49.084ZM220.122 49V48.048L224.112 44.198C224.466 43.862 224.728 43.568 224.896 43.316C225.073 43.0547 225.19 42.8167 225.246 42.602C225.311 42.378 225.344 42.1633 225.344 41.958C225.344 41.454 225.166 41.0573 224.812 40.768C224.457 40.4787 223.939 40.334 223.258 40.334C222.735 40.334 222.264 40.4227 221.844 40.6C221.424 40.768 221.06 41.034 220.752 41.398L219.8 40.572C220.173 40.096 220.672 39.732 221.298 39.48C221.932 39.2187 222.628 39.088 223.384 39.088C224.065 39.088 224.658 39.2 225.162 39.424C225.666 39.6387 226.053 39.9513 226.324 40.362C226.604 40.7727 226.744 41.258 226.744 41.818C226.744 42.1353 226.702 42.448 226.618 42.756C226.534 43.064 226.375 43.3907 226.142 43.736C225.908 44.0813 225.572 44.4687 225.134 44.898L221.578 48.328L221.242 47.782H227.164V49H220.122ZM232.305 49.112C231.54 49.112 230.854 48.916 230.247 48.524C229.65 48.132 229.174 47.5627 228.819 46.816C228.474 46.0693 228.301 45.164 228.301 44.1C228.301 43.036 228.474 42.1307 228.819 41.384C229.174 40.6373 229.65 40.068 230.247 39.676C230.854 39.284 231.54 39.088 232.305 39.088C233.061 39.088 233.742 39.284 234.349 39.676C234.956 40.068 235.432 40.6373 235.777 41.384C236.122 42.1307 236.295 43.036 236.295 44.1C236.295 45.164 236.122 46.0693 235.777 46.816C235.432 47.5627 234.956 48.132 234.349 48.524C233.742 48.916 233.061 49.112 232.305 49.112ZM232.305 47.866C232.818 47.866 233.266 47.726 233.649 47.446C234.041 47.166 234.344 46.746 234.559 46.186C234.783 45.626 234.895 44.9307 234.895 44.1C234.895 43.2693 234.783 42.574 234.559 42.014C234.344 41.454 234.041 41.034 233.649 40.754C233.266 40.474 232.818 40.334 232.305 40.334C231.792 40.334 231.339 40.474 230.947 40.754C230.555 41.034 230.247 41.454 230.023 42.014C229.808 42.574 229.701 43.2693 229.701 44.1C229.701 44.9307 229.808 45.626 230.023 46.186C230.247 46.746 230.555 47.166 230.947 47.446C231.339 47.726 231.792 47.866 232.305 47.866ZM237.485 49V48.048L241.475 44.198C241.829 43.862 242.091 43.568 242.259 43.316C242.436 43.0547 242.553 42.8167 242.609 42.602C242.674 42.378 242.707 42.1633 242.707 41.958C242.707 41.454 242.529 41.0573 242.175 40.768C241.82 40.4787 241.302 40.334 240.621 40.334C240.098 40.334 239.627 40.4227 239.207 40.6C238.787 40.768 238.423 41.034 238.115 41.398L237.163 40.572C237.536 40.096 238.035 39.732 238.661 39.48C239.295 39.2187 239.991 39.088 240.747 39.088C241.428 39.088 242.021 39.2 242.525 39.424C243.029 39.6387 243.416 39.9513 243.687 40.362C243.967 40.7727 244.107 41.258 244.107 41.818C244.107 42.1353 244.065 42.448 243.981 42.756C243.897 43.064 243.738 43.3907 243.505 43.736C243.271 44.0813 242.935 44.4687 242.497 44.898L238.941 48.328L238.605 47.782H244.527V49H237.485ZM245.524 49V48.048L249.514 44.198C249.869 43.862 250.13 43.568 250.298 43.316C250.475 43.0547 250.592 42.8167 250.648 42.602C250.713 42.378 250.746 42.1633 250.746 41.958C250.746 41.454 250.569 41.0573 250.214 40.768C249.859 40.4787 249.341 40.334 248.66 40.334C248.137 40.334 247.666 40.4227 247.246 40.6C246.826 40.768 246.462 41.034 246.154 41.398L245.202 40.572C245.575 40.096 246.075 39.732 246.7 39.48C247.335 39.2187 248.03 39.088 248.786 39.088C249.467 39.088 250.06 39.2 250.564 39.424C251.068 39.6387 251.455 39.9513 251.726 40.362C252.006 40.7727 252.146 41.258 252.146 41.818C252.146 42.1353 252.104 42.448 252.02 42.756C251.936 43.064 251.777 43.3907 251.544 43.736C251.311 44.0813 250.975 44.4687 250.536 44.898L246.98 48.328L246.644 47.782H252.566V49H245.524Z" fill="#49494F"></path> <path d="M16.912 116.872V115.192L25.504 104.2H28.096L19.576 115.192L18.352 114.808H31.768V116.872H16.912ZM26.248 121V116.872L26.32 114.808V111.16H28.576V121H26.248ZM40.0707 121.192C38.7587 121.192 37.5827 120.856 36.5427 120.184C35.5187 119.512 34.7027 118.536 34.0947 117.256C33.5027 115.976 33.2067 114.424 33.2067 112.6C33.2067 110.776 33.5027 109.224 34.0947 107.944C34.7027 106.664 35.5187 105.688 36.5427 105.016C37.5827 104.344 38.7587 104.008 40.0707 104.008C41.3667 104.008 42.5347 104.344 43.5747 105.016C44.6147 105.688 45.4307 106.664 46.0227 107.944C46.6147 109.224 46.9107 110.776 46.9107 112.6C46.9107 114.424 46.6147 115.976 46.0227 117.256C45.4307 118.536 44.6147 119.512 43.5747 120.184C42.5347 120.856 41.3667 121.192 40.0707 121.192ZM40.0707 119.056C40.9507 119.056 41.7187 118.816 42.3747 118.336C43.0467 117.856 43.5667 117.136 43.9347 116.176C44.3187 115.216 44.5107 114.024 44.5107 112.6C44.5107 111.176 44.3187 109.984 43.9347 109.024C43.5667 108.064 43.0467 107.344 42.3747 106.864C41.7187 106.384 40.9507 106.144 40.0707 106.144C39.1907 106.144 38.4147 106.384 37.7427 106.864C37.0707 107.344 36.5427 108.064 36.1587 109.024C35.7907 109.984 35.6067 111.176 35.6067 112.6C35.6067 114.024 35.7907 115.216 36.1587 116.176C36.5427 117.136 37.0707 117.856 37.7427 118.336C38.4147 118.816 39.1907 119.056 40.0707 119.056ZM56.0785 121.192C54.7665 121.192 53.5905 120.856 52.5505 120.184C51.5265 119.512 50.7105 118.536 50.1025 117.256C49.5105 115.976 49.2145 114.424 49.2145 112.6C49.2145 110.776 49.5105 109.224 50.1025 107.944C50.7105 106.664 51.5265 105.688 52.5505 105.016C53.5905 104.344 54.7665 104.008 56.0785 104.008C57.3745 104.008 58.5425 104.344 59.5825 105.016C60.6225 105.688 61.4385 106.664 62.0305 107.944C62.6225 109.224 62.9185 110.776 62.9185 112.6C62.9185 114.424 62.6225 115.976 62.0305 117.256C61.4385 118.536 60.6225 119.512 59.5825 120.184C58.5425 120.856 57.3745 121.192 56.0785 121.192ZM56.0785 119.056C56.9585 119.056 57.7265 118.816 58.3825 118.336C59.0545 117.856 59.5745 117.136 59.9425 116.176C60.3265 115.216 60.5185 114.024 60.5185 112.6C60.5185 111.176 60.3265 109.984 59.9425 109.024C59.5745 108.064 59.0545 107.344 58.3825 106.864C57.7265 106.384 56.9585 106.144 56.0785 106.144C55.1985 106.144 54.4225 106.384 53.7505 106.864C53.0785 107.344 52.5505 108.064 52.1665 109.024C51.7985 109.984 51.6145 111.176 51.6145 112.6C51.6145 114.024 51.7985 115.216 52.1665 116.176C52.5505 117.136 53.0785 117.856 53.7505 118.336C54.4225 118.816 55.1985 119.056 56.0785 119.056ZM78.5316 121.192C77.2196 121.192 76.0436 120.856 75.0036 120.184C73.9796 119.512 73.1636 118.536 72.5556 117.256C71.9636 115.976 71.6676 114.424 71.6676 112.6C71.6676 110.776 71.9636 109.224 72.5556 107.944C73.1636 106.664 73.9796 105.688 75.0036 105.016C76.0436 104.344 77.2196 104.008 78.5316 104.008C79.8276 104.008 80.9956 104.344 82.0356 105.016C83.0756 105.688 83.8916 106.664 84.4836 107.944C85.0756 109.224 85.3716 110.776 85.3716 112.6C85.3716 114.424 85.0756 115.976 84.4836 117.256C83.8916 118.536 83.0756 119.512 82.0356 120.184C80.9956 120.856 79.8276 121.192 78.5316 121.192ZM78.5316 119.056C79.4116 119.056 80.1796 118.816 80.8356 118.336C81.5076 117.856 82.0276 117.136 82.3956 116.176C82.7796 115.216 82.9716 114.024 82.9716 112.6C82.9716 111.176 82.7796 109.984 82.3956 109.024C82.0276 108.064 81.5076 107.344 80.8356 106.864C80.1796 106.384 79.4116 106.144 78.5316 106.144C77.6516 106.144 76.8756 106.384 76.2036 106.864C75.5316 107.344 75.0036 108.064 74.6196 109.024C74.2516 109.984 74.0676 111.176 74.0676 112.6C74.0676 114.024 74.2516 115.216 74.6196 116.176C75.0036 117.136 75.5316 117.856 76.2036 118.336C76.8756 118.816 77.6516 119.056 78.5316 119.056ZM94.5394 121.192C93.2274 121.192 92.0514 120.856 91.0114 120.184C89.9874 119.512 89.1714 118.536 88.5634 117.256C87.9714 115.976 87.6754 114.424 87.6754 112.6C87.6754 110.776 87.9714 109.224 88.5634 107.944C89.1714 106.664 89.9874 105.688 91.0114 105.016C92.0514 104.344 93.2274 104.008 94.5394 104.008C95.8354 104.008 97.0034 104.344 98.0434 105.016C99.0834 105.688 99.8994 106.664 100.491 107.944C101.083 109.224 101.379 110.776 101.379 112.6C101.379 114.424 101.083 115.976 100.491 117.256C99.8994 118.536 99.0834 119.512 98.0434 120.184C97.0034 120.856 95.8354 121.192 94.5394 121.192ZM94.5394 119.056C95.4194 119.056 96.1874 118.816 96.8434 118.336C97.5154 117.856 98.0354 117.136 98.4034 116.176C98.7874 115.216 98.9794 114.024 98.9794 112.6C98.9794 111.176 98.7874 109.984 98.4034 109.024C98.0354 108.064 97.5154 107.344 96.8434 106.864C96.1874 106.384 95.4194 106.144 94.5394 106.144C93.6594 106.144 92.8834 106.384 92.2114 106.864C91.5394 107.344 91.0114 108.064 90.6274 109.024C90.2594 109.984 90.0754 111.176 90.0754 112.6C90.0754 114.024 90.2594 115.216 90.6274 116.176C91.0114 117.136 91.5394 117.856 92.2114 118.336C92.8834 118.816 93.6594 119.056 94.5394 119.056ZM110.547 121.192C109.235 121.192 108.059 120.856 107.019 120.184C105.995 119.512 105.179 118.536 104.571 117.256C103.979 115.976 103.683 114.424 103.683 112.6C103.683 110.776 103.979 109.224 104.571 107.944C105.179 106.664 105.995 105.688 107.019 105.016C108.059 104.344 109.235 104.008 110.547 104.008C111.843 104.008 113.011 104.344 114.051 105.016C115.091 105.688 115.907 106.664 116.499 107.944C117.091 109.224 117.387 110.776 117.387 112.6C117.387 114.424 117.091 115.976 116.499 117.256C115.907 118.536 115.091 119.512 114.051 120.184C113.011 120.856 111.843 121.192 110.547 121.192ZM110.547 119.056C111.427 119.056 112.195 118.816 112.851 118.336C113.523 117.856 114.043 117.136 114.411 116.176C114.795 115.216 114.987 114.024 114.987 112.6C114.987 111.176 114.795 109.984 114.411 109.024C114.043 108.064 113.523 107.344 112.851 106.864C112.195 106.384 111.427 106.144 110.547 106.144C109.667 106.144 108.891 106.384 108.219 106.864C107.547 107.344 107.019 108.064 106.635 109.024C106.267 109.984 106.083 111.176 106.083 112.6C106.083 114.024 106.267 115.216 106.635 116.176C107.019 117.136 107.547 117.856 108.219 118.336C108.891 118.816 109.667 119.056 110.547 119.056ZM121.707 121V104.2H128.307C130.467 104.2 132.171 104.68 133.419 105.64C134.667 106.584 135.291 107.968 135.291 109.792C135.291 111.616 134.667 113.008 133.419 113.968C132.171 114.928 130.467 115.408 128.307 115.408H123.051L124.131 114.28V121H121.707ZM124.131 114.52L123.051 113.416H128.307C129.779 113.416 130.907 113.104 131.691 112.48C132.475 111.856 132.867 110.968 132.867 109.816C132.867 108.68 132.475 107.808 131.691 107.2C130.907 106.592 129.779 106.288 128.307 106.288H123.051L124.131 105.088V114.52ZM119.259 118.192V116.824H129.459V118.192H119.259Z" fill="#161617"></path> <path d="M224.192 114.128C223.403 114.128 222.635 114.005 221.888 113.76C221.152 113.515 220.549 113.184 220.08 112.768L220.816 111.504C221.189 111.856 221.675 112.144 222.272 112.368C222.869 112.592 223.509 112.704 224.192 112.704C225.024 112.704 225.669 112.528 226.128 112.176C226.597 111.813 226.832 111.328 226.832 110.72C226.832 110.133 226.608 109.664 226.16 109.312C225.723 108.949 225.024 108.768 224.064 108.768H223.168V107.648L226.496 103.552L226.72 104.192H220.592V102.8H227.984V103.888L224.672 107.968L223.84 107.472H224.368C225.723 107.472 226.736 107.776 227.408 108.384C228.091 108.992 228.432 109.765 228.432 110.704C228.432 111.333 228.277 111.909 227.968 112.432C227.659 112.955 227.189 113.371 226.56 113.68C225.941 113.979 225.152 114.128 224.192 114.128ZM234.5 114.128C233.626 114.128 232.842 113.904 232.148 113.456C231.466 113.008 230.922 112.357 230.516 111.504C230.122 110.651 229.924 109.616 229.924 108.4C229.924 107.184 230.122 106.149 230.516 105.296C230.922 104.443 231.466 103.792 232.148 103.344C232.842 102.896 233.626 102.672 234.5 102.672C235.364 102.672 236.143 102.896 236.836 103.344C237.53 103.792 238.074 104.443 238.468 105.296C238.863 106.149 239.06 107.184 239.06 108.4C239.06 109.616 238.863 110.651 238.468 111.504C238.074 112.357 237.53 113.008 236.836 113.456C236.143 113.904 235.364 114.128 234.5 114.128ZM234.5 112.704C235.087 112.704 235.599 112.544 236.036 112.224C236.484 111.904 236.831 111.424 237.076 110.784C237.332 110.144 237.46 109.349 237.46 108.4C237.46 107.451 237.332 106.656 237.076 106.016C236.831 105.376 236.484 104.896 236.036 104.576C235.599 104.256 235.087 104.096 234.5 104.096C233.914 104.096 233.396 104.256 232.948 104.576C232.5 104.896 232.148 105.376 231.892 106.016C231.647 106.656 231.524 107.451 231.524 108.4C231.524 109.349 231.647 110.144 231.892 110.784C232.148 111.424 232.5 111.904 232.948 112.224C233.396 112.544 233.914 112.704 234.5 112.704ZM242.132 114L249.78 102.8H251.012L243.364 114H242.132ZM243.028 108.816C242.516 108.816 242.063 108.688 241.668 108.432C241.273 108.176 240.964 107.819 240.74 107.36C240.527 106.901 240.42 106.368 240.42 105.76C240.42 105.152 240.527 104.619 240.74 104.16C240.964 103.701 241.273 103.344 241.668 103.088C242.063 102.832 242.516 102.704 243.028 102.704C243.551 102.704 244.004 102.832 244.388 103.088C244.783 103.344 245.087 103.701 245.3 104.16C245.513 104.619 245.62 105.152 245.62 105.76C245.62 106.368 245.513 106.901 245.3 107.36C245.087 107.819 244.783 108.176 244.388 108.432C244.004 108.688 243.551 108.816 243.028 108.816ZM243.028 107.904C243.519 107.904 243.903 107.717 244.18 107.344C244.457 106.96 244.596 106.432 244.596 105.76C244.596 105.088 244.457 104.565 244.18 104.192C243.903 103.808 243.519 103.616 243.028 103.616C242.548 103.616 242.164 103.808 241.876 104.192C241.599 104.565 241.46 105.088 241.46 105.76C241.46 106.421 241.599 106.944 241.876 107.328C242.164 107.712 242.548 107.904 243.028 107.904ZM250.116 114.096C249.604 114.096 249.151 113.968 248.756 113.712C248.361 113.456 248.057 113.099 247.844 112.64C247.631 112.181 247.524 111.648 247.524 111.04C247.524 110.432 247.631 109.899 247.844 109.44C248.057 108.981 248.361 108.624 248.756 108.368C249.151 108.112 249.604 107.984 250.116 107.984C250.639 107.984 251.092 108.112 251.476 108.368C251.871 108.624 252.175 108.981 252.388 109.44C252.612 109.899 252.724 110.432 252.724 111.04C252.724 111.648 252.612 112.181 252.388 112.64C252.175 113.099 251.871 113.456 251.476 113.712C251.092 113.968 250.639 114.096 250.116 114.096ZM250.116 113.184C250.596 113.184 250.975 112.997 251.252 112.624C251.54 112.24 251.684 111.712 251.684 111.04C251.684 110.379 251.54 109.856 251.252 109.472C250.975 109.088 250.596 108.896 250.116 108.896C249.636 108.896 249.252 109.088 248.964 109.472C248.687 109.845 248.548 110.368 248.548 111.04C248.548 111.712 248.687 112.24 248.964 112.624C249.252 112.997 249.636 113.184 250.116 113.184Z" fill="#2CCC39"></path> <path d="M254 143H16V145H254V143Z" fill="#DDDDDD" mask="url(#path-36-inside-1_2148_2757)"></path> <path d="M17.888 178V166.8H19.056V176.08L26.224 166.8H27.296V178H26.128V168.736L18.96 178H17.888ZM31.0755 178V166.8H40.4995V178H39.3315V167.504L39.6355 167.824H31.9395L32.2435 167.504V178H31.0755ZM56.1301 178L51.8261 172.416L52.7861 171.84L57.4901 178H56.1301ZM48.4661 178V166.8H49.6181V178H48.4661ZM49.2661 172.864V171.824H52.7701V172.864H49.2661ZM52.8821 172.528L51.7941 172.336L55.9701 166.8H57.2501L52.8821 172.528ZM62.4001 178.08C61.5895 178.08 60.8588 177.899 60.2081 177.536C59.5681 177.163 59.0615 176.656 58.6881 176.016C58.3148 175.365 58.1281 174.624 58.1281 173.792C58.1281 172.949 58.3148 172.208 58.6881 171.568C59.0615 170.928 59.5681 170.427 60.2081 170.064C60.8481 169.701 61.5788 169.52 62.4001 169.52C63.2321 169.52 63.9681 169.701 64.6081 170.064C65.2588 170.427 65.7655 170.928 66.1281 171.568C66.5015 172.208 66.6881 172.949 66.6881 173.792C66.6881 174.624 66.5015 175.365 66.1281 176.016C65.7655 176.656 65.2588 177.163 64.6081 177.536C63.9575 177.899 63.2215 178.08 62.4001 178.08ZM62.4001 177.072C63.0081 177.072 63.5468 176.939 64.0161 176.672C64.4855 176.395 64.8535 176.011 65.1201 175.52C65.3975 175.019 65.5361 174.443 65.5361 173.792C65.5361 173.131 65.3975 172.555 65.1201 172.064C64.8535 171.573 64.4855 171.195 64.0161 170.928C63.5468 170.651 63.0135 170.512 62.4161 170.512C61.8188 170.512 61.2855 170.651 60.8161 170.928C60.3468 171.195 59.9735 171.573 59.6961 172.064C59.4188 172.555 59.2801 173.131 59.2801 173.792C59.2801 174.443 59.4188 175.019 59.6961 175.52C59.9735 176.011 60.3468 176.395 60.8161 176.672C61.2855 176.939 61.8135 177.072 62.4001 177.072ZM72.636 178.08C71.804 178.08 71.0573 177.899 70.396 177.536C69.7453 177.163 69.2333 176.656 68.86 176.016C68.4867 175.365 68.3 174.624 68.3 173.792C68.3 172.949 68.4867 172.208 68.86 171.568C69.2333 170.928 69.7453 170.427 70.396 170.064C71.0573 169.701 71.804 169.52 72.636 169.52C73.3507 169.52 73.996 169.659 74.572 169.936C75.148 170.213 75.6013 170.629 75.932 171.184L75.084 171.76C74.796 171.333 74.4387 171.019 74.012 170.816C73.5853 170.613 73.1213 170.512 72.62 170.512C72.0227 170.512 71.484 170.651 71.004 170.928C70.524 171.195 70.1453 171.573 69.868 172.064C69.5907 172.555 69.452 173.131 69.452 173.792C69.452 174.453 69.5907 175.029 69.868 175.52C70.1453 176.011 70.524 176.395 71.004 176.672C71.484 176.939 72.0227 177.072 72.62 177.072C73.1213 177.072 73.5853 176.971 74.012 176.768C74.4387 176.565 74.796 176.256 75.084 175.84L75.932 176.416C75.6013 176.96 75.148 177.376 74.572 177.664C73.996 177.941 73.3507 178.08 72.636 178.08ZM83.3476 178V176.144L83.2996 175.84V172.736C83.2996 172.021 83.097 171.472 82.6916 171.088C82.297 170.704 81.705 170.512 80.9156 170.512C80.3716 170.512 79.8543 170.603 79.3636 170.784C78.873 170.965 78.457 171.205 78.1156 171.504L77.6036 170.656C78.0303 170.293 78.5423 170.016 79.1396 169.824C79.737 169.621 80.3663 169.52 81.0276 169.52C82.1156 169.52 82.953 169.792 83.5396 170.336C84.137 170.869 84.4356 171.685 84.4356 172.784V178H83.3476ZM80.4516 178.08C79.8223 178.08 79.273 177.979 78.8036 177.776C78.345 177.563 77.993 177.275 77.7476 176.912C77.5023 176.539 77.3796 176.112 77.3796 175.632C77.3796 175.195 77.481 174.8 77.6836 174.448C77.897 174.085 78.2383 173.797 78.7076 173.584C79.1876 173.36 79.8276 173.248 80.6276 173.248H83.5236V174.096H80.6596C79.849 174.096 79.2836 174.24 78.9636 174.528C78.6543 174.816 78.4996 175.173 78.4996 175.6C78.4996 176.08 78.6863 176.464 79.0596 176.752C79.433 177.04 79.9556 177.184 80.6276 177.184C81.2676 177.184 81.817 177.04 82.2756 176.752C82.745 176.453 83.0863 176.027 83.2996 175.472L83.5556 176.256C83.3423 176.811 82.969 177.253 82.4356 177.584C81.913 177.915 81.2516 178.08 80.4516 178.08ZM91.7958 178.08C91.0704 178.08 90.4144 177.915 89.8278 177.584C89.2411 177.243 88.7718 176.757 88.4198 176.128C88.0784 175.488 87.9078 174.709 87.9078 173.792C87.9078 172.875 88.0784 172.101 88.4198 171.472C88.7611 170.832 89.2251 170.347 89.8118 170.016C90.3984 169.685 91.0598 169.52 91.7958 169.52C92.5958 169.52 93.3104 169.701 93.9398 170.064C94.5798 170.416 95.0811 170.917 95.4438 171.568C95.8064 172.208 95.9878 172.949 95.9878 173.792C95.9878 174.645 95.8064 175.392 95.4438 176.032C95.0811 176.672 94.5798 177.173 93.9398 177.536C93.3104 177.899 92.5958 178.08 91.7958 178.08ZM87.4598 181.104V169.6H88.5478V172.128L88.4358 173.808L88.5958 175.504V181.104H87.4598ZM91.7158 177.072C92.3131 177.072 92.8464 176.939 93.3158 176.672C93.7851 176.395 94.1584 176.011 94.4358 175.52C94.7131 175.019 94.8518 174.443 94.8518 173.792C94.8518 173.141 94.7131 172.571 94.4358 172.08C94.1584 171.589 93.7851 171.205 93.3158 170.928C92.8464 170.651 92.3131 170.512 91.7158 170.512C91.1184 170.512 90.5798 170.651 90.0998 170.928C89.6304 171.205 89.2571 171.589 88.9798 172.08C88.7131 172.571 88.5798 173.141 88.5798 173.792C88.5798 174.443 88.7131 175.019 88.9798 175.52C89.2571 176.011 89.6304 176.395 90.0998 176.672C90.5798 176.939 91.1184 177.072 91.7158 177.072ZM102.029 178.08C101.154 178.08 100.386 177.899 99.7245 177.536C99.0632 177.163 98.5458 176.656 98.1725 176.016C97.7992 175.365 97.6125 174.624 97.6125 173.792C97.6125 172.96 97.7885 172.224 98.1405 171.584C98.5032 170.944 98.9938 170.443 99.6125 170.08C100.242 169.707 100.946 169.52 101.725 169.52C102.514 169.52 103.213 169.701 103.821 170.064C104.439 170.416 104.925 170.917 105.277 171.568C105.629 172.208 105.805 172.949 105.805 173.792C105.805 173.845 105.799 173.904 105.789 173.968C105.789 174.021 105.789 174.08 105.789 174.144H98.4765V173.296H105.181L104.733 173.632C104.733 173.024 104.599 172.485 104.333 172.016C104.077 171.536 103.725 171.163 103.277 170.896C102.829 170.629 102.311 170.496 101.725 170.496C101.149 170.496 100.631 170.629 100.173 170.896C99.7138 171.163 99.3565 171.536 99.1005 172.016C98.8445 172.496 98.7165 173.045 98.7165 173.664V173.84C98.7165 174.48 98.8552 175.045 99.1325 175.536C99.4205 176.016 99.8152 176.395 100.317 176.672C100.829 176.939 101.41 177.072 102.061 177.072C102.573 177.072 103.047 176.981 103.485 176.8C103.933 176.619 104.317 176.341 104.637 175.968L105.277 176.704C104.903 177.152 104.434 177.493 103.869 177.728C103.314 177.963 102.701 178.08 102.029 178.08ZM108.319 178V169.6H112.031C112.98 169.6 113.727 169.781 114.271 170.144C114.826 170.507 115.103 171.04 115.103 171.744C115.103 172.427 114.842 172.955 114.319 173.328C113.796 173.691 113.108 173.872 112.255 173.872L112.479 173.536C113.482 173.536 114.218 173.723 114.687 174.096C115.156 174.469 115.391 175.008 115.391 175.712C115.391 176.437 115.124 177.003 114.591 177.408C114.068 177.803 113.252 178 112.143 178H108.319ZM109.423 177.104H112.095C112.81 177.104 113.348 176.992 113.711 176.768C114.084 176.533 114.271 176.16 114.271 175.648C114.271 175.136 114.106 174.763 113.775 174.528C113.444 174.293 112.922 174.176 112.207 174.176H109.423V177.104ZM109.423 173.328H111.951C112.602 173.328 113.098 173.205 113.439 172.96C113.791 172.715 113.967 172.357 113.967 171.888C113.967 171.419 113.791 171.067 113.439 170.832C113.098 170.597 112.602 170.48 111.951 170.48H109.423V173.328ZM123.27 178V176.144L123.222 175.84V172.736C123.222 172.021 123.019 171.472 122.614 171.088C122.219 170.704 121.627 170.512 120.838 170.512C120.294 170.512 119.776 170.603 119.286 170.784C118.795 170.965 118.379 171.205 118.038 171.504L117.526 170.656C117.952 170.293 118.464 170.016 119.062 169.824C119.659 169.621 120.288 169.52 120.95 169.52C122.038 169.52 122.875 169.792 123.462 170.336C124.059 170.869 124.358 171.685 124.358 172.784V178H123.27ZM120.374 178.08C119.744 178.08 119.195 177.979 118.726 177.776C118.267 177.563 117.915 177.275 117.67 176.912C117.424 176.539 117.302 176.112 117.302 175.632C117.302 175.195 117.403 174.8 117.606 174.448C117.819 174.085 118.16 173.797 118.63 173.584C119.11 173.36 119.75 173.248 120.549 173.248H123.446V174.096H120.582C119.771 174.096 119.206 174.24 118.886 174.528C118.576 174.816 118.422 175.173 118.422 175.6C118.422 176.08 118.608 176.464 118.982 176.752C119.355 177.04 119.878 177.184 120.549 177.184C121.19 177.184 121.739 177.04 122.198 176.752C122.667 176.453 123.008 176.027 123.222 175.472L123.478 176.256C123.264 176.811 122.891 177.253 122.358 177.584C121.835 177.915 121.174 178.08 120.374 178.08ZM131.841 178V166.8H141.265V178H140.097V167.504L140.401 167.824H132.705L133.009 167.504V178H131.841ZM144.852 178.08C144.618 178.08 144.415 177.995 144.244 177.824C144.084 177.653 144.004 177.445 144.004 177.2C144.004 176.944 144.084 176.736 144.244 176.576C144.415 176.416 144.618 176.336 144.852 176.336C145.087 176.336 145.284 176.416 145.444 176.576C145.615 176.736 145.7 176.944 145.7 177.2C145.7 177.445 145.615 177.653 145.444 177.824C145.284 177.995 145.087 178.08 144.852 178.08ZM153.034 178.096C152.192 178.096 151.408 177.957 150.682 177.68C149.968 177.392 149.344 176.992 148.81 176.48C148.288 175.957 147.877 175.355 147.578 174.672C147.29 173.979 147.146 173.221 147.146 172.4C147.146 171.579 147.29 170.827 147.578 170.144C147.877 169.451 148.288 168.848 148.81 168.336C149.344 167.813 149.968 167.413 150.682 167.136C151.397 166.848 152.181 166.704 153.034 166.704C153.877 166.704 154.656 166.848 155.37 167.136C156.085 167.413 156.704 167.808 157.226 168.32C157.76 168.832 158.17 169.435 158.458 170.128C158.757 170.821 158.906 171.579 158.906 172.4C158.906 173.221 158.757 173.979 158.458 174.672C158.17 175.365 157.76 175.968 157.226 176.48C156.704 176.992 156.085 177.392 155.37 177.68C154.656 177.957 153.877 178.096 153.034 178.096ZM153.034 177.04C153.706 177.04 154.325 176.928 154.89 176.704C155.466 176.469 155.962 176.144 156.378 175.728C156.805 175.301 157.136 174.811 157.37 174.256C157.605 173.691 157.722 173.072 157.722 172.4C157.722 171.728 157.605 171.115 157.37 170.56C157.136 169.995 156.805 169.504 156.378 169.088C155.962 168.661 155.466 168.336 154.89 168.112C154.325 167.877 153.706 167.76 153.034 167.76C152.362 167.76 151.738 167.877 151.162 168.112C150.586 168.336 150.085 168.661 149.658 169.088C149.242 169.504 148.912 169.995 148.666 170.56C148.432 171.115 148.314 171.728 148.314 172.4C148.314 173.061 148.432 173.675 148.666 174.24C148.912 174.805 149.242 175.301 149.658 175.728C150.085 176.144 150.586 176.469 151.162 176.704C151.738 176.928 152.362 177.04 153.034 177.04ZM161.227 178.08C160.993 178.08 160.79 177.995 160.619 177.824C160.459 177.653 160.379 177.445 160.379 177.2C160.379 176.944 160.459 176.736 160.619 176.576C160.79 176.416 160.993 176.336 161.227 176.336C161.462 176.336 161.659 176.416 161.819 176.576C161.99 176.736 162.075 176.944 162.075 177.2C162.075 177.445 161.99 177.653 161.819 177.824C161.659 177.995 161.462 178.08 161.227 178.08Z" fill="#49494F"></path> <path d="M254 223H16V225H254V223Z" fill="#DDDDDD" mask="url(#path-40-inside-2_2148_2757)"></path> <path d="M24.162 253.51V245.096H19.472L19.388 247.476C19.36 248.213 19.3133 248.923 19.248 249.604C19.192 250.276 19.0987 250.883 18.968 251.424C18.8467 251.956 18.6787 252.39 18.464 252.726C18.2587 253.062 17.988 253.258 17.652 253.314L16.518 253.104C16.8913 253.123 17.1993 252.987 17.442 252.698C17.694 252.409 17.8853 252.003 18.016 251.48C18.156 250.957 18.2587 250.346 18.324 249.646C18.3893 248.946 18.436 248.19 18.464 247.378L18.576 244.2H25.184V253.51H24.162ZM16.154 256.198L16.168 253.104H26.654V256.198H25.688V254H17.134L17.12 256.198H16.154ZM31.4742 254.07C30.7088 254.07 30.0368 253.911 29.4582 253.594C28.8795 253.267 28.4268 252.824 28.1002 252.264C27.7735 251.695 27.6102 251.046 27.6102 250.318C27.6102 249.59 27.7642 248.946 28.0722 248.386C28.3895 247.826 28.8188 247.387 29.3602 247.07C29.9108 246.743 30.5268 246.58 31.2082 246.58C31.8988 246.58 32.5102 246.739 33.0422 247.056C33.5835 247.364 34.0082 247.803 34.3162 248.372C34.6242 248.932 34.7782 249.581 34.7782 250.318C34.7782 250.365 34.7735 250.416 34.7642 250.472C34.7642 250.519 34.7642 250.57 34.7642 250.626H28.3662V249.884H34.2322L33.8402 250.178C33.8402 249.646 33.7235 249.175 33.4902 248.764C33.2662 248.344 32.9582 248.017 32.5662 247.784C32.1742 247.551 31.7215 247.434 31.2082 247.434C30.7042 247.434 30.2515 247.551 29.8502 247.784C29.4488 248.017 29.1362 248.344 28.9122 248.764C28.6882 249.184 28.5762 249.665 28.5762 250.206V250.36C28.5762 250.92 28.6975 251.415 28.9402 251.844C29.1922 252.264 29.5375 252.595 29.9762 252.838C30.4242 253.071 30.9328 253.188 31.5022 253.188C31.9502 253.188 32.3655 253.109 32.7482 252.95C33.1402 252.791 33.4762 252.549 33.7562 252.222L34.3162 252.866C33.9895 253.258 33.5788 253.557 33.0842 253.762C32.5988 253.967 32.0622 254.07 31.4742 254.07ZM41.5194 254V251.354L41.7014 251.564H39.2094C38.2667 251.564 37.5294 251.359 36.9974 250.948C36.4654 250.537 36.1994 249.94 36.1994 249.156C36.1994 248.316 36.484 247.691 37.0534 247.28C37.6227 246.86 38.3834 246.65 39.3354 246.65H42.4294V254H41.5194ZM36.1434 254L38.1594 251.172H39.1954L37.2214 254H36.1434ZM41.5194 251.06V247.224L41.7014 247.518H39.3634C38.682 247.518 38.15 247.649 37.7674 247.91C37.394 248.171 37.2074 248.596 37.2074 249.184C37.2074 250.276 37.9027 250.822 39.2934 250.822H41.7014L41.5194 251.06ZM46.6636 254V247.252L46.9156 247.518H43.8776V246.65H50.4436V247.518H47.4056L47.6576 247.252V254H46.6636ZM54.689 254.07C53.9237 254.07 53.2517 253.911 52.673 253.594C52.0943 253.267 51.6417 252.824 51.315 252.264C50.9883 251.695 50.825 251.046 50.825 250.318C50.825 249.59 50.979 248.946 51.287 248.386C51.6043 247.826 52.0337 247.387 52.575 247.07C53.1257 246.743 53.7417 246.58 54.423 246.58C55.1137 246.58 55.725 246.739 56.257 247.056C56.7983 247.364 57.223 247.803 57.531 248.372C57.839 248.932 57.993 249.581 57.993 250.318C57.993 250.365 57.9883 250.416 57.979 250.472C57.979 250.519 57.979 250.57 57.979 250.626H51.581V249.884H57.447L57.055 250.178C57.055 249.646 56.9383 249.175 56.705 248.764C56.481 248.344 56.173 248.017 55.781 247.784C55.389 247.551 54.9363 247.434 54.423 247.434C53.919 247.434 53.4663 247.551 53.065 247.784C52.6637 248.017 52.351 248.344 52.127 248.764C51.903 249.184 51.791 249.665 51.791 250.206V250.36C51.791 250.92 51.9123 251.415 52.155 251.844C52.407 252.264 52.7523 252.595 53.191 252.838C53.639 253.071 54.1477 253.188 54.717 253.188C55.165 253.188 55.5803 253.109 55.963 252.95C56.355 252.791 56.691 252.549 56.971 252.222L57.531 252.866C57.2043 253.258 56.7937 253.557 56.299 253.762C55.8137 253.967 55.277 254.07 54.689 254.07ZM58.6989 253.986L58.7689 253.132C58.8342 253.141 58.8949 253.155 58.9509 253.174C59.0162 253.183 59.0722 253.188 59.1189 253.188C59.4176 253.188 59.6556 253.076 59.8329 252.852C60.0196 252.628 60.1596 252.329 60.2529 251.956C60.3462 251.583 60.4116 251.163 60.4489 250.696C60.4862 250.22 60.5189 249.744 60.5469 249.268L60.6729 246.65H66.0629V254H65.0689V247.224L65.3209 247.518H61.3169L61.5549 247.21L61.4429 249.338C61.4149 249.973 61.3636 250.579 61.2889 251.158C61.2236 251.737 61.1162 252.245 60.9669 252.684C60.8269 253.123 60.6309 253.468 60.3789 253.72C60.1269 253.963 59.8049 254.084 59.4129 254.084C59.3009 254.084 59.1842 254.075 59.0629 254.056C58.9509 254.037 58.8296 254.014 58.6989 253.986ZM72.0526 249.24C72.9766 249.249 73.6766 249.455 74.1526 249.856C74.6379 250.257 74.8806 250.836 74.8806 251.592C74.8806 252.376 74.6193 252.978 74.0966 253.398C73.5833 253.818 72.8366 254.023 71.8566 254.014L68.8886 254V246.65H69.8826V249.212L72.0526 249.24ZM71.8006 253.258C72.4819 253.267 72.9953 253.132 73.3406 252.852C73.6953 252.563 73.8726 252.143 73.8726 251.592C73.8726 251.041 73.6999 250.64 73.3546 250.388C73.0093 250.127 72.4913 249.991 71.8006 249.982L69.8826 249.954V253.23L71.8006 253.258ZM79.8013 254.07C79.0919 254.07 78.4526 253.911 77.8833 253.594C77.3233 253.267 76.8799 252.824 76.5533 252.264C76.2266 251.695 76.0633 251.046 76.0633 250.318C76.0633 249.581 76.2266 248.932 76.5533 248.372C76.8799 247.812 77.3233 247.373 77.8833 247.056C78.4433 246.739 79.0826 246.58 79.8013 246.58C80.5293 246.58 81.1733 246.739 81.7333 247.056C82.3026 247.373 82.7459 247.812 83.0633 248.372C83.3899 248.932 83.5533 249.581 83.5533 250.318C83.5533 251.046 83.3899 251.695 83.0633 252.264C82.7459 252.824 82.3026 253.267 81.7333 253.594C81.1639 253.911 80.5199 254.07 79.8013 254.07ZM79.8013 253.188C80.3333 253.188 80.8046 253.071 81.2153 252.838C81.6259 252.595 81.9479 252.259 82.1813 251.83C82.4239 251.391 82.5453 250.887 82.5453 250.318C82.5453 249.739 82.4239 249.235 82.1813 248.806C81.9479 248.377 81.6259 248.045 81.2153 247.812C80.8046 247.569 80.3379 247.448 79.8153 247.448C79.2926 247.448 78.8259 247.569 78.4153 247.812C78.0046 248.045 77.6779 248.377 77.4353 248.806C77.1926 249.235 77.0713 249.739 77.0713 250.318C77.0713 250.887 77.1926 251.391 77.4353 251.83C77.6779 252.259 78.0046 252.595 78.4153 252.838C78.8259 253.071 79.2879 253.188 79.8013 253.188ZM88.7577 254.07C88.0297 254.07 87.3763 253.911 86.7977 253.594C86.2283 253.267 85.7803 252.824 85.4537 252.264C85.127 251.695 84.9637 251.046 84.9637 250.318C84.9637 249.581 85.127 248.932 85.4537 248.372C85.7803 247.812 86.2283 247.373 86.7977 247.056C87.3763 246.739 88.0297 246.58 88.7577 246.58C89.383 246.58 89.9477 246.701 90.4517 246.944C90.9557 247.187 91.3523 247.551 91.6417 248.036L90.8997 248.54C90.6477 248.167 90.335 247.891 89.9617 247.714C89.5883 247.537 89.1823 247.448 88.7437 247.448C88.221 247.448 87.7497 247.569 87.3297 247.812C86.9097 248.045 86.5783 248.377 86.3357 248.806C86.093 249.235 85.9717 249.739 85.9717 250.318C85.9717 250.897 86.093 251.401 86.3357 251.83C86.5783 252.259 86.9097 252.595 87.3297 252.838C87.7497 253.071 88.221 253.188 88.7437 253.188C89.1823 253.188 89.5883 253.099 89.9617 252.922C90.335 252.745 90.6477 252.474 90.8997 252.11L91.6417 252.614C91.3523 253.09 90.9557 253.454 90.4517 253.706C89.9477 253.949 89.383 254.07 88.7577 254.07ZM94.8296 254V247.252L95.0816 247.518H92.0436V246.65H98.6096V247.518H95.5716L95.8236 247.252V254H94.8296ZM103.211 249.24C104.135 249.249 104.835 249.455 105.311 249.856C105.796 250.257 106.039 250.836 106.039 251.592C106.039 252.376 105.777 252.978 105.255 253.398C104.741 253.818 103.995 254.023 103.015 254.014L100.047 254V246.65H101.041V249.212L103.211 249.24ZM102.959 253.258C103.64 253.267 104.153 253.132 104.499 252.852C104.853 252.563 105.031 252.143 105.031 251.592C105.031 251.041 104.858 250.64 104.513 250.388C104.167 250.127 103.649 249.991 102.959 249.982L101.041 249.954V253.23L102.959 253.258ZM115.394 254.07C114.759 254.07 114.185 253.925 113.672 253.636C113.158 253.337 112.748 252.913 112.44 252.362C112.141 251.802 111.992 251.121 111.992 250.318C111.992 249.515 112.141 248.839 112.44 248.288C112.738 247.728 113.144 247.303 113.658 247.014C114.171 246.725 114.75 246.58 115.394 246.58C116.094 246.58 116.719 246.739 117.27 247.056C117.83 247.364 118.268 247.803 118.586 248.372C118.903 248.932 119.062 249.581 119.062 250.318C119.062 251.065 118.903 251.718 118.586 252.278C118.268 252.838 117.83 253.277 117.27 253.594C116.719 253.911 116.094 254.07 115.394 254.07ZM111.6 256.716V246.65H112.552V248.862L112.454 250.332L112.594 251.816V256.716H111.6ZM115.324 253.188C115.846 253.188 116.313 253.071 116.724 252.838C117.134 252.595 117.461 252.259 117.704 251.83C117.946 251.391 118.068 250.887 118.068 250.318C118.068 249.749 117.946 249.249 117.704 248.82C117.461 248.391 117.134 248.055 116.724 247.812C116.313 247.569 115.846 247.448 115.324 247.448C114.801 247.448 114.33 247.569 113.91 247.812C113.499 248.055 113.172 248.391 112.93 248.82C112.696 249.249 112.58 249.749 112.58 250.318C112.58 250.887 112.696 251.391 112.93 251.83C113.172 252.259 113.499 252.595 113.91 252.838C114.33 253.071 114.801 253.188 115.324 253.188ZM124.347 254.07C123.582 254.07 122.91 253.911 122.331 253.594C121.753 253.267 121.3 252.824 120.973 252.264C120.647 251.695 120.483 251.046 120.483 250.318C120.483 249.59 120.637 248.946 120.945 248.386C121.263 247.826 121.692 247.387 122.233 247.07C122.784 246.743 123.4 246.58 124.081 246.58C124.772 246.58 125.383 246.739 125.915 247.056C126.457 247.364 126.881 247.803 127.189 248.372C127.497 248.932 127.651 249.581 127.651 250.318C127.651 250.365 127.647 250.416 127.637 250.472C127.637 250.519 127.637 250.57 127.637 250.626H121.239V249.884H127.105L126.713 250.178C126.713 249.646 126.597 249.175 126.363 248.764C126.139 248.344 125.831 248.017 125.439 247.784C125.047 247.551 124.595 247.434 124.081 247.434C123.577 247.434 123.125 247.551 122.723 247.784C122.322 248.017 122.009 248.344 121.785 248.764C121.561 249.184 121.449 249.665 121.449 250.206V250.36C121.449 250.92 121.571 251.415 121.813 251.844C122.065 252.264 122.411 252.595 122.849 252.838C123.297 253.071 123.806 253.188 124.375 253.188C124.823 253.188 125.239 253.109 125.621 252.95C126.013 252.791 126.349 252.549 126.629 252.222L127.189 252.866C126.863 253.258 126.452 253.557 125.957 253.762C125.472 253.967 124.935 254.07 124.347 254.07ZM135.242 254L132.218 250.36L133.044 249.87L136.418 254H135.242ZM129.852 254V246.65H130.846V254H129.852ZM130.538 250.724V249.87H132.904V250.724H130.538ZM133.128 250.43L132.204 250.29L135.13 246.65H136.208L133.128 250.43ZM136.642 253.986L136.712 253.132C136.778 253.141 136.838 253.155 136.894 253.174C136.96 253.183 137.016 253.188 137.062 253.188C137.361 253.188 137.599 253.076 137.776 252.852C137.963 252.628 138.103 252.329 138.196 251.956C138.29 251.583 138.355 251.163 138.392 250.696C138.43 250.22 138.462 249.744 138.49 249.268L138.616 246.65H144.006V254H143.012V247.224L143.264 247.518H139.26L139.498 247.21L139.386 249.338C139.358 249.973 139.307 250.579 139.232 251.158C139.167 251.737 139.06 252.245 138.91 252.684C138.77 253.123 138.574 253.468 138.322 253.72C138.07 253.963 137.748 254.084 137.356 254.084C137.244 254.084 137.128 254.075 137.006 254.056C136.894 254.037 136.773 254.014 136.642 253.986ZM151.396 254V252.376L151.354 252.11V249.394C151.354 248.769 151.177 248.288 150.822 247.952C150.477 247.616 149.959 247.448 149.268 247.448C148.792 247.448 148.339 247.527 147.91 247.686C147.481 247.845 147.117 248.055 146.818 248.316L146.37 247.574C146.743 247.257 147.191 247.014 147.714 246.846C148.237 246.669 148.787 246.58 149.366 246.58C150.318 246.58 151.051 246.818 151.564 247.294C152.087 247.761 152.348 248.475 152.348 249.436V254H151.396ZM148.862 254.07C148.311 254.07 147.831 253.981 147.42 253.804C147.019 253.617 146.711 253.365 146.496 253.048C146.281 252.721 146.174 252.348 146.174 251.928C146.174 251.545 146.263 251.2 146.44 250.892C146.627 250.575 146.925 250.323 147.336 250.136C147.756 249.94 148.316 249.842 149.016 249.842H151.55V250.584H149.044C148.335 250.584 147.84 250.71 147.56 250.962C147.289 251.214 147.154 251.527 147.154 251.9C147.154 252.32 147.317 252.656 147.644 252.908C147.971 253.16 148.428 253.286 149.016 253.286C149.576 253.286 150.057 253.16 150.458 252.908C150.869 252.647 151.167 252.273 151.354 251.788L151.578 252.474C151.391 252.959 151.065 253.347 150.598 253.636C150.141 253.925 149.562 254.07 148.862 254.07ZM154.994 254V246.65H156.002L159.334 252.292H158.914L162.302 246.65H163.226V254H162.316V247.784L162.498 247.868L159.334 253.104H158.886L155.694 247.812L155.904 247.77V254H154.994ZM166.055 254V246.65H167.049V249.898H171.683V246.65H172.677V254H171.683V250.752H167.049V254H166.055ZM182.67 254V246.65H183.664V254H182.67ZM178.596 249.24C179.52 249.249 180.225 249.455 180.71 249.856C181.195 250.257 181.438 250.836 181.438 251.592C181.438 252.376 181.177 252.978 180.654 253.398C180.131 253.818 179.385 254.023 178.414 254.014L175.502 254V246.65H176.496V249.212L178.596 249.24ZM178.344 253.258C179.035 253.267 179.553 253.132 179.898 252.852C180.253 252.563 180.43 252.143 180.43 251.592C180.43 251.041 180.257 250.64 179.912 250.388C179.567 250.127 179.044 249.991 178.344 249.982L176.496 249.954V253.23L178.344 253.258ZM185.29 254L188.398 249.968L188.384 250.458L185.43 246.65H186.55L188.972 249.8L188.552 249.786L190.974 246.65H192.066L189.084 250.5L189.098 249.968L192.234 254H191.1L188.538 250.64L188.93 250.696L186.41 254H185.29ZM202.091 254V252.376L202.049 252.11V249.394C202.049 248.769 201.872 248.288 201.517 247.952C201.172 247.616 200.654 247.448 199.963 247.448C199.487 247.448 199.035 247.527 198.605 247.686C198.176 247.845 197.812 248.055 197.513 248.316L197.065 247.574C197.439 247.257 197.887 247.014 198.409 246.846C198.932 246.669 199.483 246.58 200.061 246.58C201.013 246.58 201.746 246.818 202.259 247.294C202.782 247.761 203.043 248.475 203.043 249.436V254H202.091ZM199.557 254.07C199.007 254.07 198.526 253.981 198.115 253.804C197.714 253.617 197.406 253.365 197.191 253.048C196.977 252.721 196.869 252.348 196.869 251.928C196.869 251.545 196.958 251.2 197.135 250.892C197.322 250.575 197.621 250.323 198.031 250.136C198.451 249.94 199.011 249.842 199.711 249.842H202.245V250.584H199.739C199.03 250.584 198.535 250.71 198.255 250.962C197.985 251.214 197.849 251.527 197.849 251.9C197.849 252.32 198.013 252.656 198.339 252.908C198.666 253.16 199.123 253.286 199.711 253.286C200.271 253.286 200.752 253.16 201.153 252.908C201.564 252.647 201.863 252.273 202.049 251.788L202.273 252.474C202.087 252.959 201.76 253.347 201.293 253.636C200.836 253.925 200.257 254.07 199.557 254.07ZM205.689 254V246.65H210.897V247.518H206.431L206.683 247.266V254H205.689ZM215.142 254.07C214.377 254.07 213.705 253.911 213.126 253.594C212.547 253.267 212.095 252.824 211.768 252.264C211.441 251.695 211.278 251.046 211.278 250.318C211.278 249.59 211.432 248.946 211.74 248.386C212.057 247.826 212.487 247.387 213.028 247.07C213.579 246.743 214.195 246.58 214.876 246.58C215.567 246.58 216.178 246.739 216.71 247.056C217.251 247.364 217.676 247.803 217.984 248.372C218.292 248.932 218.446 249.581 218.446 250.318C218.446 250.365 218.441 250.416 218.432 250.472C218.432 250.519 218.432 250.57 218.432 250.626H212.034V249.884H217.9L217.508 250.178C217.508 249.646 217.391 249.175 217.158 248.764C216.934 248.344 216.626 248.017 216.234 247.784C215.842 247.551 215.389 247.434 214.876 247.434C214.372 247.434 213.919 247.551 213.518 247.784C213.117 248.017 212.804 248.344 212.58 248.764C212.356 249.184 212.244 249.665 212.244 250.206V250.36C212.244 250.92 212.365 251.415 212.608 251.844C212.86 252.264 213.205 252.595 213.644 252.838C214.092 253.071 214.601 253.188 215.17 253.188C215.618 253.188 216.033 253.109 216.416 252.95C216.808 252.791 217.144 252.549 217.424 252.222L217.984 252.866C217.657 253.258 217.247 253.557 216.752 253.762C216.267 253.967 215.73 254.07 215.142 254.07ZM220.646 254V246.65H221.64V249.898H226.274V246.65H227.268V254H226.274V250.752H221.64V254H220.646ZM231.494 254V247.252L231.746 247.518H228.708V246.65H235.274V247.518H232.236L232.488 247.252V254H231.494ZM239.449 254.07C238.721 254.07 238.068 253.911 237.489 253.594C236.92 253.267 236.472 252.824 236.145 252.264C235.818 251.695 235.655 251.046 235.655 250.318C235.655 249.581 235.818 248.932 236.145 248.372C236.472 247.812 236.92 247.373 237.489 247.056C238.068 246.739 238.721 246.58 239.449 246.58C240.074 246.58 240.639 246.701 241.143 246.944C241.647 247.187 242.044 247.551 242.333 248.036L241.591 248.54C241.339 248.167 241.026 247.891 240.653 247.714C240.28 247.537 239.874 247.448 239.435 247.448C238.912 247.448 238.441 247.569 238.021 247.812C237.601 248.045 237.27 248.377 237.027 248.806C236.784 249.235 236.663 249.739 236.663 250.318C236.663 250.897 236.784 251.401 237.027 251.83C237.27 252.259 237.601 252.595 238.021 252.838C238.441 253.071 238.912 253.188 239.435 253.188C239.874 253.188 240.28 253.099 240.653 252.922C241.026 252.745 241.339 252.474 241.591 252.11L242.333 252.614C242.044 253.09 241.647 253.454 241.143 253.706C240.639 253.949 240.074 254.07 239.449 254.07ZM245.521 254V247.252L245.773 247.518H242.735V246.65H249.301V247.518H246.263L246.515 247.252V254H245.521ZM250.738 254V246.65H253.986C254.817 246.65 255.47 246.809 255.946 247.126C256.432 247.443 256.674 247.91 256.674 248.526C256.674 249.123 256.446 249.585 255.988 249.912C255.531 250.229 254.929 250.388 254.182 250.388L254.378 250.094C255.256 250.094 255.9 250.257 256.31 250.584C256.721 250.911 256.926 251.382 256.926 251.998C256.926 252.633 256.693 253.127 256.226 253.482C255.769 253.827 255.055 254 254.084 254H250.738ZM251.704 253.216H254.042C254.668 253.216 255.139 253.118 255.456 252.922C255.783 252.717 255.946 252.39 255.946 251.942C255.946 251.494 255.802 251.167 255.512 250.962C255.223 250.757 254.766 250.654 254.14 250.654H251.704V253.216ZM251.704 249.912H253.916C254.486 249.912 254.92 249.805 255.218 249.59C255.526 249.375 255.68 249.063 255.68 248.652C255.68 248.241 255.526 247.933 255.218 247.728C254.92 247.523 254.486 247.42 253.916 247.42H251.704V249.912Z" fill="#49494F"></path> <rect x="0.5" y="0.5" width="269" height="281" rx="15.5" stroke="#E2E4E7"></rect> </svg> 