<?xml version="1.0" encoding="UTF-8"?> <svg xmlns="http://www.w3.org/2000/svg" width="270" height="282" viewBox="0 0 270 282" fill="none"> <rect x="0.5" y="0.5" width="269" height="281" rx="15.5" fill="white"></rect> <rect x="16" y="24" width="40" height="40" rx="8" fill="url(#paint0_linear_2148_2808)"></rect> <path fill-rule="evenodd" clip-rule="evenodd" d="M33 54H25V50H33V54ZM32.5 50.5H25.5V53.5H32.5V50.5Z" fill="#FAFAFA"></path> <path fill-rule="evenodd" clip-rule="evenodd" d="M33 46H25V42H33V46ZM32.5 42.5H25.5V45.5H32.5V42.5Z" fill="#FAFAFA"></path> <path fill-rule="evenodd" clip-rule="evenodd" d="M41 54H33V50H41V54ZM40.5 50.5H33.5V53.5H40.5V50.5Z" fill="#FAFAFA"></path> <path fill-rule="evenodd" clip-rule="evenodd" d="M41 46H33V42H41V46ZM40.5 42.5H33.5V45.5H40.5V42.5Z" fill="#FAFAFA"></path> <path fill-rule="evenodd" clip-rule="evenodd" d="M49 54H41V50H49V54ZM48.5 50.5H41.5V53.5H48.5V50.5Z" fill="#FAFAFA"></path> <path fill-rule="evenodd" clip-rule="evenodd" d="M49 46H41V42H49V46ZM48.5 42.5H41.5V45.5H48.5V42.5Z" fill="#FAFAFA"></path> <path fill-rule="evenodd" clip-rule="evenodd" d="M45 42H37V38H45V42ZM44.5 38.5H37.5V41.5H44.5V38.5Z" fill="#FAFAFA"></path> <path fill-rule="evenodd" clip-rule="evenodd" d="M37 42H29V38H37V42ZM36.5 38.5H29.5V41.5H36.5V38.5Z" fill="#FAFAFA"></path> <path fill-rule="evenodd" clip-rule="evenodd" d="M42 38H34V34H42V38ZM41.5 34.5H34.5V37.5H41.5V34.5Z" fill="#FAFAFA"></path> <path fill-rule="evenodd" clip-rule="evenodd" d="M52 50H44V46H52V50ZM51.5 46.5H44.5V49.5H51.5V46.5Z" fill="#FAFAFA"></path> <path fill-rule="evenodd" clip-rule="evenodd" d="M44 50H36V46H44V50ZM43.5 46.5H36.5V49.5H43.5V46.5Z" fill="#FAFAFA"></path> <path fill-rule="evenodd" clip-rule="evenodd" d="M36 50H28V46H36V50ZM35.5 46.5H28.5V49.5H35.5V46.5Z" fill="#FAFAFA"></path> <path fill-rule="evenodd" clip-rule="evenodd" d="M28 50H20V46H28V50ZM27.5 46.5H20.5V49.5H27.5V46.5Z" fill="#FAFAFA"></path> <path fill-rule="evenodd" clip-rule="evenodd" d="M36.9492 37.9502H41.9992V38.0502H37.0492V42.0502H33.0492V46.0502H28.0492V49.9502H33.0492V54.0002H32.9492V50.0502H27.9492V45.9502H32.9492V41.9502H36.9492V37.9502Z" fill="#161617"></path> <path fill-rule="evenodd" clip-rule="evenodd" d="M37 41.9502H41.05V45.9502H44.05V50.0502H41.05V54.0002H40.95V49.9502H43.95V46.0502H40.95V42.0502H37V41.9502Z" fill="#161617"></path> <path fill-rule="evenodd" clip-rule="evenodd" d="M37 38.0502H34V37.9502H37V38.0502ZM45 41.9502V42.0502H29V41.9502H45ZM25 50.0502V49.9502H49V50.0502H25Z" fill="#161617"></path> <path fill-rule="evenodd" clip-rule="evenodd" d="M48.9397 46.0502H25V45.9502H48.9397V46.0502Z" fill="#161617"></path> <path d="M128.526 49V39.2H132.74C133.804 39.2 134.639 39.4147 135.246 39.844C135.853 40.2733 136.156 40.8987 136.156 41.72C136.156 42.5227 135.867 43.1387 135.288 43.568C134.709 43.988 133.949 44.198 133.006 44.198L133.258 43.778C134.35 43.778 135.185 43.9973 135.764 44.436C136.352 44.8653 136.646 45.4953 136.646 46.326C136.646 47.166 136.338 47.824 135.722 48.3C135.115 48.7667 134.21 49 133.006 49H128.526ZM129.912 47.894H132.978C133.725 47.894 134.285 47.7587 134.658 47.488C135.041 47.208 135.232 46.7833 135.232 46.214C135.232 45.6447 135.041 45.2293 134.658 44.968C134.285 44.7067 133.725 44.576 132.978 44.576H129.912V47.894ZM129.912 43.512H132.642C133.323 43.512 133.841 43.3767 134.196 43.106C134.56 42.8353 134.742 42.4387 134.742 41.916C134.742 41.384 134.56 40.9827 134.196 40.712C133.841 40.4413 133.323 40.306 132.642 40.306H129.912V43.512ZM146.097 49V41.58H147.441V49H146.097ZM142.107 44.1C143.05 44.1093 143.764 44.324 144.249 44.744C144.744 45.164 144.991 45.7567 144.991 46.522C144.991 47.3247 144.72 47.9453 144.179 48.384C143.647 48.8133 142.882 49.0233 141.883 49.014L138.761 49V41.58H140.105V44.086L142.107 44.1ZM141.785 47.992C142.382 48.0013 142.84 47.88 143.157 47.628C143.474 47.376 143.633 47.0027 143.633 46.508C143.633 46.0227 143.474 45.668 143.157 45.444C142.849 45.22 142.392 45.1033 141.785 45.094L140.105 45.066V47.978L141.785 47.992ZM155.122 48.37V42.756H151.902L151.832 44.184C151.813 44.6507 151.781 45.1033 151.734 45.542C151.697 45.9713 151.631 46.368 151.538 46.732C151.454 47.096 151.328 47.3947 151.16 47.628C150.992 47.8613 150.768 48.006 150.488 48.062L149.158 47.824C149.447 47.8333 149.681 47.74 149.858 47.544C150.035 47.3387 150.171 47.0587 150.264 46.704C150.367 46.3493 150.441 45.948 150.488 45.5C150.535 45.0427 150.572 44.5713 150.6 44.086L150.712 41.58H156.466V48.37H155.122ZM148.864 50.722V47.824H157.6V50.722H156.34V49H150.138V50.722H148.864ZM163.901 49V47.432L163.831 47.138V44.464C163.831 43.8947 163.663 43.456 163.327 43.148C163 42.8307 162.505 42.672 161.843 42.672C161.404 42.672 160.975 42.7467 160.555 42.896C160.135 43.036 159.78 43.2273 159.491 43.47L158.931 42.462C159.313 42.154 159.771 41.9207 160.303 41.762C160.844 41.594 161.409 41.51 161.997 41.51C163.014 41.51 163.798 41.7573 164.349 42.252C164.899 42.7467 165.175 43.5027 165.175 44.52V49H163.901ZM161.465 49.084C160.914 49.084 160.429 48.9907 160.009 48.804C159.598 48.6173 159.281 48.3607 159.057 48.034C158.833 47.698 158.721 47.32 158.721 46.9C158.721 46.4987 158.814 46.1347 159.001 45.808C159.197 45.4813 159.509 45.22 159.939 45.024C160.377 44.828 160.965 44.73 161.703 44.73H164.055V45.696H161.759C161.087 45.696 160.634 45.808 160.401 46.032C160.167 46.256 160.051 46.5267 160.051 46.844C160.051 47.208 160.195 47.502 160.485 47.726C160.774 47.9407 161.175 48.048 161.689 48.048C162.193 48.048 162.631 47.936 163.005 47.712C163.387 47.488 163.663 47.1613 163.831 46.732L164.097 47.656C163.919 48.0947 163.607 48.4447 163.159 48.706C162.711 48.958 162.146 49.084 161.465 49.084ZM167.595 49V41.58H168.939V44.73H173.167V41.58H174.511V49H173.167V45.892H168.939V49H167.595ZM184.258 49.112C183.493 49.112 182.807 48.916 182.2 48.524C181.603 48.132 181.127 47.5627 180.772 46.816C180.427 46.0693 180.254 45.164 180.254 44.1C180.254 43.036 180.427 42.1307 180.772 41.384C181.127 40.6373 181.603 40.068 182.2 39.676C182.807 39.284 183.493 39.088 184.258 39.088C185.014 39.088 185.695 39.284 186.302 39.676C186.909 40.068 187.385 40.6373 187.73 41.384C188.075 42.1307 188.248 43.036 188.248 44.1C188.248 45.164 188.075 46.0693 187.73 46.816C187.385 47.5627 186.909 48.132 186.302 48.524C185.695 48.916 185.014 49.112 184.258 49.112ZM184.258 47.866C184.771 47.866 185.219 47.726 185.602 47.446C185.994 47.166 186.297 46.746 186.512 46.186C186.736 45.626 186.848 44.9307 186.848 44.1C186.848 43.2693 186.736 42.574 186.512 42.014C186.297 41.454 185.994 41.034 185.602 40.754C185.219 40.474 184.771 40.334 184.258 40.334C183.745 40.334 183.292 40.474 182.9 40.754C182.508 41.034 182.2 41.454 181.976 42.014C181.761 42.574 181.654 43.2693 181.654 44.1C181.654 44.9307 181.761 45.626 181.976 46.186C182.2 46.746 182.508 47.166 182.9 47.446C183.292 47.726 183.745 47.866 184.258 47.866ZM191.19 49L195.348 39.788L195.712 40.418H189.888L190.588 39.732V42.168H189.244V39.2H196.636V40.152L192.674 49H191.19ZM198.063 49.084C197.801 49.084 197.577 48.9953 197.391 48.818C197.204 48.6313 197.111 48.398 197.111 48.118C197.111 47.838 197.204 47.6093 197.391 47.432C197.577 47.2547 197.801 47.166 198.063 47.166C198.315 47.166 198.529 47.2547 198.707 47.432C198.893 47.6093 198.987 47.838 198.987 48.118C198.987 48.398 198.893 48.6313 198.707 48.818C198.529 48.9953 198.315 49.084 198.063 49.084ZM204.151 49.112C203.385 49.112 202.699 48.916 202.093 48.524C201.495 48.132 201.019 47.5627 200.665 46.816C200.319 46.0693 200.147 45.164 200.147 44.1C200.147 43.036 200.319 42.1307 200.665 41.384C201.019 40.6373 201.495 40.068 202.093 39.676C202.699 39.284 203.385 39.088 204.151 39.088C204.907 39.088 205.588 39.284 206.195 39.676C206.801 40.068 207.277 40.6373 207.623 41.384C207.968 42.1307 208.141 43.036 208.141 44.1C208.141 45.164 207.968 46.0693 207.623 46.816C207.277 47.5627 206.801 48.132 206.195 48.524C205.588 48.916 204.907 49.112 204.151 49.112ZM204.151 47.866C204.664 47.866 205.112 47.726 205.495 47.446C205.887 47.166 206.19 46.746 206.405 46.186C206.629 45.626 206.741 44.9307 206.741 44.1C206.741 43.2693 206.629 42.574 206.405 42.014C206.19 41.454 205.887 41.034 205.495 40.754C205.112 40.474 204.664 40.334 204.151 40.334C203.637 40.334 203.185 40.474 202.793 40.754C202.401 41.034 202.093 41.454 201.869 42.014C201.654 42.574 201.547 43.2693 201.547 44.1C201.547 44.9307 201.654 45.626 201.869 46.186C202.093 46.746 202.401 47.166 202.793 47.446C203.185 47.726 203.637 47.866 204.151 47.866ZM211.083 49L215.241 39.788L215.605 40.418H209.781L210.481 39.732V42.168H209.137V39.2H216.529V40.152L212.567 49H211.083ZM217.955 49.084C217.694 49.084 217.47 48.9953 217.283 48.818C217.097 48.6313 217.003 48.398 217.003 48.118C217.003 47.838 217.097 47.6093 217.283 47.432C217.47 47.2547 217.694 47.166 217.955 47.166C218.207 47.166 218.422 47.2547 218.599 47.432C218.786 47.6093 218.879 47.838 218.879 48.118C218.879 48.398 218.786 48.6313 218.599 48.818C218.422 48.9953 218.207 49.084 217.955 49.084ZM220.186 49V48.048L224.176 44.198C224.531 43.862 224.792 43.568 224.96 43.316C225.137 43.0547 225.254 42.8167 225.31 42.602C225.375 42.378 225.408 42.1633 225.408 41.958C225.408 41.454 225.231 41.0573 224.876 40.768C224.521 40.4787 224.003 40.334 223.322 40.334C222.799 40.334 222.328 40.4227 221.908 40.6C221.488 40.768 221.124 41.034 220.816 41.398L219.864 40.572C220.237 40.096 220.737 39.732 221.362 39.48C221.997 39.2187 222.692 39.088 223.448 39.088C224.129 39.088 224.722 39.2 225.226 39.424C225.73 39.6387 226.117 39.9513 226.388 40.362C226.668 40.7727 226.808 41.258 226.808 41.818C226.808 42.1353 226.766 42.448 226.682 42.756C226.598 43.064 226.439 43.3907 226.206 43.736C225.973 44.0813 225.637 44.4687 225.198 44.898L221.642 48.328L221.306 47.782H227.228V49H220.186ZM232.369 49.112C231.604 49.112 230.918 48.916 230.311 48.524C229.714 48.132 229.238 47.5627 228.883 46.816C228.538 46.0693 228.365 45.164 228.365 44.1C228.365 43.036 228.538 42.1307 228.883 41.384C229.238 40.6373 229.714 40.068 230.311 39.676C230.918 39.284 231.604 39.088 232.369 39.088C233.125 39.088 233.807 39.284 234.413 39.676C235.02 40.068 235.496 40.6373 235.841 41.384C236.187 42.1307 236.359 43.036 236.359 44.1C236.359 45.164 236.187 46.0693 235.841 46.816C235.496 47.5627 235.02 48.132 234.413 48.524C233.807 48.916 233.125 49.112 232.369 49.112ZM232.369 47.866C232.883 47.866 233.331 47.726 233.713 47.446C234.105 47.166 234.409 46.746 234.623 46.186C234.847 45.626 234.959 44.9307 234.959 44.1C234.959 43.2693 234.847 42.574 234.623 42.014C234.409 41.454 234.105 41.034 233.713 40.754C233.331 40.474 232.883 40.334 232.369 40.334C231.856 40.334 231.403 40.474 231.011 40.754C230.619 41.034 230.311 41.454 230.087 42.014C229.873 42.574 229.765 43.2693 229.765 44.1C229.765 44.9307 229.873 45.626 230.087 46.186C230.311 46.746 230.619 47.166 231.011 47.446C231.403 47.726 231.856 47.866 232.369 47.866ZM237.549 49V48.048L241.539 44.198C241.894 43.862 242.155 43.568 242.323 43.316C242.501 43.0547 242.617 42.8167 242.673 42.602C242.739 42.378 242.771 42.1633 242.771 41.958C242.771 41.454 242.594 41.0573 242.239 40.768C241.885 40.4787 241.367 40.334 240.685 40.334C240.163 40.334 239.691 40.4227 239.271 40.6C238.851 40.768 238.487 41.034 238.179 41.398L237.227 40.572C237.601 40.096 238.1 39.732 238.725 39.48C239.36 39.2187 240.055 39.088 240.811 39.088C241.493 39.088 242.085 39.2 242.589 39.424C243.093 39.6387 243.481 39.9513 243.751 40.362C244.031 40.7727 244.171 41.258 244.171 41.818C244.171 42.1353 244.129 42.448 244.045 42.756C243.961 43.064 243.803 43.3907 243.569 43.736C243.336 44.0813 243 44.4687 242.561 44.898L239.005 48.328L238.669 47.782H244.591V49H237.549ZM245.588 49V48.048L249.578 44.198C249.933 43.862 250.194 43.568 250.362 43.316C250.54 43.0547 250.656 42.8167 250.712 42.602C250.778 42.378 250.81 42.1633 250.81 41.958C250.81 41.454 250.633 41.0573 250.278 40.768C249.924 40.4787 249.406 40.334 248.724 40.334C248.202 40.334 247.73 40.4227 247.31 40.6C246.89 40.768 246.526 41.034 246.218 41.398L245.266 40.572C245.64 40.096 246.139 39.732 246.764 39.48C247.399 39.2187 248.094 39.088 248.85 39.088C249.532 39.088 250.124 39.2 250.628 39.424C251.132 39.6387 251.52 39.9513 251.79 40.362C252.07 40.7727 252.21 41.258 252.21 41.818C252.21 42.1353 252.168 42.448 252.084 42.756C252 43.064 251.842 43.3907 251.608 43.736C251.375 44.0813 251.039 44.4687 250.6 44.898L247.044 48.328L246.708 47.782H252.63V49H245.588Z" fill="#49494F"></path> <path d="M24.208 121.192C22.72 121.192 21.448 120.864 20.392 120.208C19.336 119.552 18.528 118.608 17.968 117.376C17.424 116.128 17.152 114.608 17.152 112.816C17.152 110.912 17.488 109.304 18.16 107.992C18.832 106.68 19.768 105.688 20.968 105.016C22.168 104.344 23.544 104.008 25.096 104.008C25.896 104.008 26.656 104.088 27.376 104.248C28.112 104.408 28.744 104.656 29.272 104.992L28.36 106.864C27.928 106.56 27.432 106.352 26.872 106.24C26.328 106.128 25.752 106.072 25.144 106.072C23.432 106.072 22.072 106.608 21.064 107.68C20.056 108.736 19.552 110.312 19.552 112.408C19.552 112.744 19.568 113.144 19.6 113.608C19.632 114.072 19.712 114.528 19.84 114.976L19.024 114.16C19.264 113.424 19.64 112.808 20.152 112.312C20.68 111.8 21.304 111.424 22.024 111.184C22.76 110.928 23.552 110.8 24.4 110.8C25.52 110.8 26.512 111.008 27.376 111.424C28.24 111.84 28.92 112.432 29.416 113.2C29.912 113.952 30.16 114.848 30.16 115.888C30.16 116.96 29.896 117.896 29.368 118.696C28.84 119.496 28.128 120.112 27.232 120.544C26.336 120.976 25.328 121.192 24.208 121.192ZM24.112 119.248C24.848 119.248 25.488 119.112 26.032 118.84C26.592 118.568 27.032 118.192 27.352 117.712C27.672 117.216 27.832 116.64 27.832 115.984C27.832 114.992 27.488 114.208 26.8 113.632C26.112 113.04 25.176 112.744 23.992 112.744C23.224 112.744 22.552 112.888 21.976 113.176C21.4 113.464 20.944 113.856 20.608 114.352C20.288 114.832 20.128 115.384 20.128 116.008C20.128 116.584 20.28 117.12 20.584 117.616C20.888 118.096 21.336 118.488 21.928 118.792C22.52 119.096 23.248 119.248 24.112 119.248ZM38.8285 121.192C37.5165 121.192 36.3405 120.856 35.3005 120.184C34.2765 119.512 33.4605 118.536 32.8525 117.256C32.2605 115.976 31.9645 114.424 31.9645 112.6C31.9645 110.776 32.2605 109.224 32.8525 107.944C33.4605 106.664 34.2765 105.688 35.3005 105.016C36.3405 104.344 37.5165 104.008 38.8285 104.008C40.1245 104.008 41.2925 104.344 42.3325 105.016C43.3725 105.688 44.1885 106.664 44.7805 107.944C45.3725 109.224 45.6685 110.776 45.6685 112.6C45.6685 114.424 45.3725 115.976 44.7805 117.256C44.1885 118.536 43.3725 119.512 42.3325 120.184C41.2925 120.856 40.1245 121.192 38.8285 121.192ZM38.8285 119.056C39.7085 119.056 40.4765 118.816 41.1325 118.336C41.8045 117.856 42.3245 117.136 42.6925 116.176C43.0765 115.216 43.2685 114.024 43.2685 112.6C43.2685 111.176 43.0765 109.984 42.6925 109.024C42.3245 108.064 41.8045 107.344 41.1325 106.864C40.4765 106.384 39.7085 106.144 38.8285 106.144C37.9485 106.144 37.1725 106.384 36.5005 106.864C35.8285 107.344 35.3005 108.064 34.9165 109.024C34.5485 109.984 34.3645 111.176 34.3645 112.6C34.3645 114.024 34.5485 115.216 34.9165 116.176C35.3005 117.136 35.8285 117.856 36.5005 118.336C37.1725 118.816 37.9485 119.056 38.8285 119.056ZM53.3963 121.192C52.2123 121.192 51.0603 121.008 49.9403 120.64C48.8363 120.272 47.9323 119.776 47.2283 119.152L48.3323 117.256C48.8923 117.784 49.6203 118.216 50.5163 118.552C51.4123 118.888 52.3643 119.056 53.3723 119.056C54.6523 119.056 55.6363 118.784 56.3243 118.24C57.0123 117.696 57.3563 116.968 57.3563 116.056C57.3563 115.432 57.2043 114.888 56.9003 114.424C56.5963 113.96 56.0683 113.608 55.3163 113.368C54.5803 113.112 53.5643 112.984 52.2683 112.984H48.4523L49.3403 104.2H58.8203V106.288H50.2283L51.4763 105.112L50.7803 112.048L49.5323 110.896H52.7723C54.4523 110.896 55.8043 111.112 56.8283 111.544C57.8523 111.976 58.5963 112.576 59.0603 113.344C59.5243 114.096 59.7563 114.968 59.7563 115.96C59.7563 116.92 59.5243 117.8 59.0603 118.6C58.5963 119.384 57.8923 120.016 56.9483 120.496C56.0203 120.96 54.8363 121.192 53.3963 121.192ZM75.0629 121.192C73.7509 121.192 72.5749 120.856 71.5349 120.184C70.5109 119.512 69.6949 118.536 69.0869 117.256C68.4949 115.976 68.1989 114.424 68.1989 112.6C68.1989 110.776 68.4949 109.224 69.0869 107.944C69.6949 106.664 70.5109 105.688 71.5349 105.016C72.5749 104.344 73.7509 104.008 75.0629 104.008C76.3589 104.008 77.5269 104.344 78.5669 105.016C79.6069 105.688 80.4229 106.664 81.0149 107.944C81.6069 109.224 81.9029 110.776 81.9029 112.6C81.9029 114.424 81.6069 115.976 81.0149 117.256C80.4229 118.536 79.6069 119.512 78.5669 120.184C77.5269 120.856 76.3589 121.192 75.0629 121.192ZM75.0629 119.056C75.9429 119.056 76.7109 118.816 77.3669 118.336C78.0389 117.856 78.5589 117.136 78.9269 116.176C79.3109 115.216 79.5029 114.024 79.5029 112.6C79.5029 111.176 79.3109 109.984 78.9269 109.024C78.5589 108.064 78.0389 107.344 77.3669 106.864C76.7109 106.384 75.9429 106.144 75.0629 106.144C74.1829 106.144 73.4069 106.384 72.7349 106.864C72.0629 107.344 71.5349 108.064 71.1509 109.024C70.7829 109.984 70.5989 111.176 70.5989 112.6C70.5989 114.024 70.7829 115.216 71.1509 116.176C71.5349 117.136 72.0629 117.856 72.7349 118.336C73.4069 118.816 74.1829 119.056 75.0629 119.056ZM89.6307 121.192C88.4467 121.192 87.2947 121.008 86.1747 120.64C85.0707 120.272 84.1667 119.776 83.4627 119.152L84.5667 117.256C85.1267 117.784 85.8547 118.216 86.7507 118.552C87.6467 118.888 88.5987 119.056 89.6067 119.056C90.8867 119.056 91.8707 118.784 92.5587 118.24C93.2467 117.696 93.5907 116.968 93.5907 116.056C93.5907 115.432 93.4387 114.888 93.1347 114.424C92.8307 113.96 92.3027 113.608 91.5507 113.368C90.8147 113.112 89.7987 112.984 88.5027 112.984H84.6867L85.5747 104.2H95.0547V106.288H86.4627L87.7107 105.112L87.0147 112.048L85.7667 110.896H89.0067C90.6867 110.896 92.0387 111.112 93.0627 111.544C94.0867 111.976 94.8307 112.576 95.2947 113.344C95.7587 114.096 95.9907 114.968 95.9907 115.96C95.9907 116.92 95.7587 117.8 95.2947 118.6C94.8307 119.384 94.1267 120.016 93.1827 120.496C92.2547 120.96 91.0707 121.192 89.6307 121.192ZM104.852 121.192C103.54 121.192 102.364 120.856 101.324 120.184C100.3 119.512 99.4839 118.536 98.8759 117.256C98.2839 115.976 97.9879 114.424 97.9879 112.6C97.9879 110.776 98.2839 109.224 98.8759 107.944C99.4839 106.664 100.3 105.688 101.324 105.016C102.364 104.344 103.54 104.008 104.852 104.008C106.148 104.008 107.316 104.344 108.356 105.016C109.396 105.688 110.212 106.664 110.804 107.944C111.396 109.224 111.692 110.776 111.692 112.6C111.692 114.424 111.396 115.976 110.804 117.256C110.212 118.536 109.396 119.512 108.356 120.184C107.316 120.856 106.148 121.192 104.852 121.192ZM104.852 119.056C105.732 119.056 106.5 118.816 107.156 118.336C107.828 117.856 108.348 117.136 108.716 116.176C109.1 115.216 109.292 114.024 109.292 112.6C109.292 111.176 109.1 109.984 108.716 109.024C108.348 108.064 107.828 107.344 107.156 106.864C106.5 106.384 105.732 106.144 104.852 106.144C103.972 106.144 103.196 106.384 102.524 106.864C101.852 107.344 101.324 108.064 100.94 109.024C100.572 109.984 100.388 111.176 100.388 112.6C100.388 114.024 100.572 115.216 100.94 116.176C101.324 117.136 101.852 117.856 102.524 118.336C103.196 118.816 103.972 119.056 104.852 119.056ZM116.012 121V104.2H122.612C124.772 104.2 126.476 104.68 127.724 105.64C128.972 106.584 129.596 107.968 129.596 109.792C129.596 111.616 128.972 113.008 127.724 113.968C126.476 114.928 124.772 115.408 122.612 115.408H117.356L118.436 114.28V121H116.012ZM118.436 114.52L117.356 113.416H122.612C124.084 113.416 125.212 113.104 125.996 112.48C126.78 111.856 127.172 110.968 127.172 109.816C127.172 108.68 126.78 107.808 125.996 107.2C125.212 106.592 124.084 106.288 122.612 106.288H117.356L118.436 105.088V114.52ZM113.564 118.192V116.824H123.764V118.192H113.564Z" fill="#161617"></path> <path d="M224.192 114.128C223.403 114.128 222.635 114.005 221.888 113.76C221.152 113.515 220.549 113.184 220.08 112.768L220.816 111.504C221.189 111.856 221.675 112.144 222.272 112.368C222.869 112.592 223.509 112.704 224.192 112.704C225.024 112.704 225.669 112.528 226.128 112.176C226.597 111.813 226.832 111.328 226.832 110.72C226.832 110.133 226.608 109.664 226.16 109.312C225.723 108.949 225.024 108.768 224.064 108.768H223.168V107.648L226.496 103.552L226.72 104.192H220.592V102.8H227.984V103.888L224.672 107.968L223.84 107.472H224.368C225.723 107.472 226.736 107.776 227.408 108.384C228.091 108.992 228.432 109.765 228.432 110.704C228.432 111.333 228.277 111.909 227.968 112.432C227.659 112.955 227.189 113.371 226.56 113.68C225.941 113.979 225.152 114.128 224.192 114.128ZM234.5 114.128C233.626 114.128 232.842 113.904 232.148 113.456C231.466 113.008 230.922 112.357 230.516 111.504C230.122 110.651 229.924 109.616 229.924 108.4C229.924 107.184 230.122 106.149 230.516 105.296C230.922 104.443 231.466 103.792 232.148 103.344C232.842 102.896 233.626 102.672 234.5 102.672C235.364 102.672 236.143 102.896 236.836 103.344C237.53 103.792 238.074 104.443 238.468 105.296C238.863 106.149 239.06 107.184 239.06 108.4C239.06 109.616 238.863 110.651 238.468 111.504C238.074 112.357 237.53 113.008 236.836 113.456C236.143 113.904 235.364 114.128 234.5 114.128ZM234.5 112.704C235.087 112.704 235.599 112.544 236.036 112.224C236.484 111.904 236.831 111.424 237.076 110.784C237.332 110.144 237.46 109.349 237.46 108.4C237.46 107.451 237.332 106.656 237.076 106.016C236.831 105.376 236.484 104.896 236.036 104.576C235.599 104.256 235.087 104.096 234.5 104.096C233.914 104.096 233.396 104.256 232.948 104.576C232.5 104.896 232.148 105.376 231.892 106.016C231.647 106.656 231.524 107.451 231.524 108.4C231.524 109.349 231.647 110.144 231.892 110.784C232.148 111.424 232.5 111.904 232.948 112.224C233.396 112.544 233.914 112.704 234.5 112.704ZM242.132 114L249.78 102.8H251.012L243.364 114H242.132ZM243.028 108.816C242.516 108.816 242.063 108.688 241.668 108.432C241.273 108.176 240.964 107.819 240.74 107.36C240.527 106.901 240.42 106.368 240.42 105.76C240.42 105.152 240.527 104.619 240.74 104.16C240.964 103.701 241.273 103.344 241.668 103.088C242.063 102.832 242.516 102.704 243.028 102.704C243.551 102.704 244.004 102.832 244.388 103.088C244.783 103.344 245.087 103.701 245.3 104.16C245.513 104.619 245.62 105.152 245.62 105.76C245.62 106.368 245.513 106.901 245.3 107.36C245.087 107.819 244.783 108.176 244.388 108.432C244.004 108.688 243.551 108.816 243.028 108.816ZM243.028 107.904C243.519 107.904 243.903 107.717 244.18 107.344C244.457 106.96 244.596 106.432 244.596 105.76C244.596 105.088 244.457 104.565 244.18 104.192C243.903 103.808 243.519 103.616 243.028 103.616C242.548 103.616 242.164 103.808 241.876 104.192C241.599 104.565 241.46 105.088 241.46 105.76C241.46 106.421 241.599 106.944 241.876 107.328C242.164 107.712 242.548 107.904 243.028 107.904ZM250.116 114.096C249.604 114.096 249.151 113.968 248.756 113.712C248.361 113.456 248.057 113.099 247.844 112.64C247.631 112.181 247.524 111.648 247.524 111.04C247.524 110.432 247.631 109.899 247.844 109.44C248.057 108.981 248.361 108.624 248.756 108.368C249.151 108.112 249.604 107.984 250.116 107.984C250.639 107.984 251.092 108.112 251.476 108.368C251.871 108.624 252.175 108.981 252.388 109.44C252.612 109.899 252.724 110.432 252.724 111.04C252.724 111.648 252.612 112.181 252.388 112.64C252.175 113.099 251.871 113.456 251.476 113.712C251.092 113.968 250.639 114.096 250.116 114.096ZM250.116 113.184C250.596 113.184 250.975 112.997 251.252 112.624C251.54 112.24 251.684 111.712 251.684 111.04C251.684 110.379 251.54 109.856 251.252 109.472C250.975 109.088 250.596 108.896 250.116 108.896C249.636 108.896 249.252 109.088 248.964 109.472C248.687 109.845 248.548 110.368 248.548 111.04C248.548 111.712 248.687 112.24 248.964 112.624C249.252 112.997 249.636 113.184 250.116 113.184Z" fill="#2CCC39"></path> <path d="M254 143H16V145H254V143Z" fill="#DDDDDD" mask="url(#path-21-inside-1_2148_2808)"></path> <path d="M22.8 178.096C21.9573 178.096 21.1733 177.957 20.448 177.68C19.7333 177.392 19.1093 176.992 18.576 176.48C18.0533 175.957 17.6427 175.355 17.344 174.672C17.056 173.979 16.912 173.221 16.912 172.4C16.912 171.579 17.056 170.827 17.344 170.144C17.6427 169.451 18.0533 168.848 18.576 168.336C19.1093 167.813 19.7333 167.413 20.448 167.136C21.1627 166.848 21.9467 166.704 22.8 166.704C23.6427 166.704 24.4213 166.848 25.136 167.136C25.8507 167.413 26.4693 167.808 26.992 168.32C27.5253 168.832 27.936 169.435 28.224 170.128C28.5227 170.821 28.672 171.579 28.672 172.4C28.672 173.221 28.5227 173.979 28.224 174.672C27.936 175.365 27.5253 175.968 26.992 176.48C26.4693 176.992 25.8507 177.392 25.136 177.68C24.4213 177.957 23.6427 178.096 22.8 178.096ZM22.8 177.04C23.472 177.04 24.0907 176.928 24.656 176.704C25.232 176.469 25.728 176.144 26.144 175.728C26.5707 175.301 26.9013 174.811 27.136 174.256C27.3707 173.691 27.488 173.072 27.488 172.4C27.488 171.728 27.3707 171.115 27.136 170.56C26.9013 169.995 26.5707 169.504 26.144 169.088C25.728 168.661 25.232 168.336 24.656 168.112C24.0907 167.877 23.472 167.76 22.8 167.76C22.128 167.76 21.504 167.877 20.928 168.112C20.352 168.336 19.8507 168.661 19.424 169.088C19.008 169.504 18.6773 169.995 18.432 170.56C18.1973 171.115 18.08 171.728 18.08 172.4C18.08 173.061 18.1973 173.675 18.432 174.24C18.6773 174.805 19.008 175.301 19.424 175.728C19.8507 176.144 20.352 176.469 20.928 176.704C21.504 176.928 22.128 177.04 22.8 177.04ZM36.4094 178.096C35.5667 178.096 34.7827 177.957 34.0574 177.68C33.3427 177.392 32.7187 176.992 32.1854 176.48C31.6627 175.957 31.252 175.355 30.9534 174.672C30.6654 173.979 30.5214 173.221 30.5214 172.4C30.5214 171.579 30.6654 170.827 30.9534 170.144C31.252 169.451 31.6627 168.848 32.1854 168.336C32.7187 167.813 33.3427 167.413 34.0574 167.136C34.772 166.848 35.556 166.704 36.4094 166.704C37.252 166.704 38.0307 166.848 38.7454 167.136C39.46 167.413 40.0787 167.808 40.6014 168.32C41.1347 168.832 41.5454 169.435 41.8334 170.128C42.132 170.821 42.2814 171.579 42.2814 172.4C42.2814 173.221 42.132 173.979 41.8334 174.672C41.5454 175.365 41.1347 175.968 40.6014 176.48C40.0787 176.992 39.46 177.392 38.7454 177.68C38.0307 177.957 37.252 178.096 36.4094 178.096ZM36.4094 177.04C37.0814 177.04 37.7 176.928 38.2654 176.704C38.8414 176.469 39.3374 176.144 39.7534 175.728C40.18 175.301 40.5107 174.811 40.7454 174.256C40.98 173.691 41.0974 173.072 41.0974 172.4C41.0974 171.728 40.98 171.115 40.7454 170.56C40.5107 169.995 40.18 169.504 39.7534 169.088C39.3374 168.661 38.8414 168.336 38.2654 168.112C37.7 167.877 37.0814 167.76 36.4094 167.76C35.7374 167.76 35.1134 167.877 34.5374 168.112C33.9614 168.336 33.46 168.661 33.0334 169.088C32.6174 169.504 32.2867 169.995 32.0414 170.56C31.8067 171.115 31.6894 171.728 31.6894 172.4C31.6894 173.061 31.8067 173.675 32.0414 174.24C32.2867 174.805 32.6174 175.301 33.0334 175.728C33.46 176.144 33.9614 176.469 34.5374 176.704C35.1134 176.928 35.7374 177.04 36.4094 177.04ZM50.0188 178.096C49.1761 178.096 48.3921 177.957 47.6668 177.68C46.9521 177.392 46.3281 176.992 45.7948 176.48C45.2721 175.957 44.8614 175.355 44.5628 174.672C44.2748 173.979 44.1308 173.221 44.1308 172.4C44.1308 171.579 44.2748 170.827 44.5628 170.144C44.8614 169.451 45.2721 168.848 45.7948 168.336C46.3281 167.813 46.9521 167.413 47.6668 167.136C48.3814 166.848 49.1654 166.704 50.0188 166.704C50.8614 166.704 51.6401 166.848 52.3548 167.136C53.0694 167.413 53.6881 167.808 54.2108 168.32C54.7441 168.832 55.1548 169.435 55.4428 170.128C55.7414 170.821 55.8908 171.579 55.8908 172.4C55.8908 173.221 55.7414 173.979 55.4428 174.672C55.1548 175.365 54.7441 175.968 54.2108 176.48C53.6881 176.992 53.0694 177.392 52.3548 177.68C51.6401 177.957 50.8614 178.096 50.0188 178.096ZM50.0188 177.04C50.6908 177.04 51.3094 176.928 51.8748 176.704C52.4508 176.469 52.9468 176.144 53.3628 175.728C53.7894 175.301 54.1201 174.811 54.3548 174.256C54.5894 173.691 54.7068 173.072 54.7068 172.4C54.7068 171.728 54.5894 171.115 54.3548 170.56C54.1201 169.995 53.7894 169.504 53.3628 169.088C52.9468 168.661 52.4508 168.336 51.8748 168.112C51.3094 167.877 50.6908 167.76 50.0188 167.76C49.3468 167.76 48.7228 167.877 48.1468 168.112C47.5708 168.336 47.0694 168.661 46.6428 169.088C46.2268 169.504 45.8961 169.995 45.6508 170.56C45.4161 171.115 45.2988 171.728 45.2988 172.4C45.2988 173.061 45.4161 173.675 45.6508 174.24C45.8961 174.805 46.2268 175.301 46.6428 175.728C47.0694 176.144 47.5708 176.469 48.1468 176.704C48.7228 176.928 49.3468 177.04 50.0188 177.04ZM63.5116 166.128L62.8076 169.088L62.6796 168.4C62.9356 168.4 63.1436 168.48 63.3036 168.64C63.4636 168.789 63.5436 168.992 63.5436 169.248C63.5436 169.504 63.4636 169.712 63.3036 169.872C63.1436 170.032 62.9463 170.112 62.7116 170.112C62.4556 170.112 62.2476 170.032 62.0876 169.872C61.9383 169.701 61.8636 169.493 61.8636 169.248C61.8636 169.152 61.869 169.067 61.8796 168.992C61.8903 168.917 61.9116 168.827 61.9436 168.72C61.9756 168.613 62.0183 168.485 62.0716 168.336L62.7436 166.128H63.5116ZM66.2316 166.128L65.5276 169.088L65.3996 168.4C65.6556 168.4 65.8636 168.48 66.0236 168.64C66.1836 168.789 66.2636 168.992 66.2636 169.248C66.2636 169.504 66.1836 169.712 66.0236 169.872C65.8636 170.032 65.6663 170.112 65.4316 170.112C65.1756 170.112 64.9676 170.032 64.8076 169.872C64.6583 169.701 64.5836 169.493 64.5836 169.248C64.5836 169.152 64.589 169.067 64.5996 168.992C64.6103 168.917 64.6316 168.827 64.6636 168.72C64.6956 168.613 64.7383 168.485 64.7916 168.336L65.4636 166.128H66.2316ZM69.013 178V166.8H69.989L75.109 175.536H74.597L79.669 166.8H80.645V178H79.509V168.576H79.781L75.109 176.576H74.549L69.845 168.576H70.149V178H69.013ZM89.3633 178V176.144L89.3153 175.84V172.736C89.3153 172.021 89.1126 171.472 88.7073 171.088C88.3126 170.704 87.7206 170.512 86.9313 170.512C86.3873 170.512 85.8699 170.603 85.3793 170.784C84.8886 170.965 84.4726 171.205 84.1313 171.504L83.6193 170.656C84.0459 170.293 84.5579 170.016 85.1553 169.824C85.7526 169.621 86.3819 169.52 87.0433 169.52C88.1313 169.52 88.9686 169.792 89.5553 170.336C90.1526 170.869 90.4513 171.685 90.4513 172.784V178H89.3633ZM86.4673 178.08C85.8379 178.08 85.2886 177.979 84.8193 177.776C84.3606 177.563 84.0086 177.275 83.7633 176.912C83.5179 176.539 83.3953 176.112 83.3953 175.632C83.3953 175.195 83.4966 174.8 83.6993 174.448C83.9126 174.085 84.2539 173.797 84.7233 173.584C85.2033 173.36 85.8433 173.248 86.6432 173.248H89.5393V174.096H86.6753C85.8646 174.096 85.2993 174.24 84.9793 174.528C84.6699 174.816 84.5153 175.173 84.5153 175.6C84.5153 176.08 84.7019 176.464 85.0753 176.752C85.4486 177.04 85.9713 177.184 86.6432 177.184C87.2833 177.184 87.8326 177.04 88.2913 176.752C88.7606 176.453 89.1019 176.027 89.3153 175.472L89.5713 176.256C89.3579 176.811 88.9846 177.253 88.4513 177.584C87.9286 177.915 87.2673 178.08 86.4673 178.08ZM97.8114 178.08C97.086 178.08 96.43 177.915 95.8434 177.584C95.2567 177.243 94.7874 176.757 94.4354 176.128C94.094 175.488 93.9234 174.709 93.9234 173.792C93.9234 172.875 94.094 172.101 94.4354 171.472C94.7767 170.832 95.2407 170.347 95.8274 170.016C96.414 169.685 97.0754 169.52 97.8114 169.52C98.6114 169.52 99.326 169.701 99.9554 170.064C100.595 170.416 101.097 170.917 101.459 171.568C101.822 172.208 102.003 172.949 102.003 173.792C102.003 174.645 101.822 175.392 101.459 176.032C101.097 176.672 100.595 177.173 99.9554 177.536C99.326 177.899 98.6114 178.08 97.8114 178.08ZM93.4754 181.104V169.6H94.5634V172.128L94.4514 173.808L94.6114 175.504V181.104H93.4754ZM97.7314 177.072C98.3287 177.072 98.862 176.939 99.3314 176.672C99.8007 176.395 100.174 176.011 100.451 175.52C100.729 175.019 100.867 174.443 100.867 173.792C100.867 173.141 100.729 172.571 100.451 172.08C100.174 171.589 99.8007 171.205 99.3314 170.928C98.862 170.651 98.3287 170.512 97.7314 170.512C97.134 170.512 96.5954 170.651 96.1154 170.928C95.646 171.205 95.2727 171.589 94.9954 172.08C94.7287 172.571 94.5954 173.141 94.5954 173.792C94.5954 174.443 94.7287 175.019 94.9954 175.52C95.2727 176.011 95.646 176.395 96.1154 176.672C96.5954 176.939 97.134 177.072 97.7314 177.072ZM110.604 178L107.148 173.84L108.092 173.28L111.948 178H110.604ZM104.444 178V169.6H105.58V178H104.444ZM105.228 174.256V173.28H107.932V174.256H105.228ZM108.188 173.92L107.132 173.76L110.476 169.6H111.708L108.188 173.92ZM118.801 178V176.144L118.753 175.84V172.736C118.753 172.021 118.55 171.472 118.145 171.088C117.75 170.704 117.158 170.512 116.369 170.512C115.825 170.512 115.307 170.603 114.817 170.784C114.326 170.965 113.91 171.205 113.569 171.504L113.057 170.656C113.483 170.293 113.995 170.016 114.593 169.824C115.19 169.621 115.819 169.52 116.481 169.52C117.569 169.52 118.406 169.792 118.993 170.336C119.59 170.869 119.889 171.685 119.889 172.784V178H118.801ZM115.905 178.08C115.275 178.08 114.726 177.979 114.257 177.776C113.798 177.563 113.446 177.275 113.201 176.912C112.955 176.539 112.833 176.112 112.833 175.632C112.833 175.195 112.934 174.8 113.137 174.448C113.35 174.085 113.691 173.797 114.161 173.584C114.641 173.36 115.281 173.248 116.081 173.248H118.977V174.096H116.113C115.302 174.096 114.737 174.24 114.417 174.528C114.107 174.816 113.953 175.173 113.953 175.6C113.953 176.08 114.139 176.464 114.513 176.752C114.886 177.04 115.409 177.184 116.081 177.184C116.721 177.184 117.27 177.04 117.729 176.752C118.198 176.453 118.539 176.027 118.753 175.472L119.009 176.256C118.795 176.811 118.422 177.253 117.889 177.584C117.366 177.915 116.705 178.08 115.905 178.08ZM122.193 170.032L122.897 167.088L123.025 167.76C122.78 167.76 122.572 167.685 122.401 167.536C122.241 167.376 122.161 167.168 122.161 166.912C122.161 166.656 122.241 166.448 122.401 166.288C122.572 166.128 122.774 166.048 123.009 166.048C123.254 166.048 123.452 166.133 123.601 166.304C123.761 166.464 123.841 166.667 123.841 166.912C123.841 166.997 123.836 167.083 123.825 167.168C123.814 167.253 123.793 167.349 123.761 167.456C123.74 167.552 123.702 167.675 123.649 167.824L122.961 170.032H122.193ZM124.913 170.032L125.617 167.088L125.745 167.76C125.5 167.76 125.292 167.685 125.121 167.536C124.961 167.376 124.881 167.168 124.881 166.912C124.881 166.656 124.961 166.448 125.121 166.288C125.292 166.128 125.494 166.048 125.729 166.048C125.974 166.048 126.172 166.133 126.321 166.304C126.481 166.464 126.561 166.667 126.561 166.912C126.561 166.997 126.556 167.083 126.545 167.168C126.534 167.253 126.513 167.349 126.481 167.456C126.46 167.552 126.422 167.675 126.369 167.824L125.681 170.032H124.913Z" fill="#49494F"></path> <path d="M254 223H16V225H254V223Z" fill="#DDDDDD" mask="url(#path-25-inside-2_2148_2808)"></path> <path d="M19.598 254V244.816L19.878 245.096H16.154V244.2H24.064V245.096H20.354L20.62 244.816V254H19.598ZM27.9028 254.07C27.1935 254.07 26.5542 253.911 25.9848 253.594C25.4248 253.267 24.9815 252.824 24.6548 252.264C24.3282 251.695 24.1648 251.046 24.1648 250.318C24.1648 249.581 24.3282 248.932 24.6548 248.372C24.9815 247.812 25.4248 247.373 25.9848 247.056C26.5448 246.739 27.1842 246.58 27.9028 246.58C28.6308 246.58 29.2748 246.739 29.8348 247.056C30.4042 247.373 30.8475 247.812 31.1648 248.372C31.4915 248.932 31.6548 249.581 31.6548 250.318C31.6548 251.046 31.4915 251.695 31.1648 252.264C30.8475 252.824 30.4042 253.267 29.8348 253.594C29.2655 253.911 28.6215 254.07 27.9028 254.07ZM27.9028 253.188C28.4348 253.188 28.9062 253.071 29.3168 252.838C29.7275 252.595 30.0495 252.259 30.2828 251.83C30.5255 251.391 30.6468 250.887 30.6468 250.318C30.6468 249.739 30.5255 249.235 30.2828 248.806C30.0495 248.377 29.7275 248.045 29.3168 247.812C28.9062 247.569 28.4395 247.448 27.9168 247.448C27.3942 247.448 26.9275 247.569 26.5168 247.812C26.1062 248.045 25.7795 248.377 25.5368 248.806C25.2942 249.235 25.1728 249.739 25.1728 250.318C25.1728 250.887 25.2942 251.391 25.5368 251.83C25.7795 252.259 26.1062 252.595 26.5168 252.838C26.9275 253.071 27.3895 253.188 27.9028 253.188ZM37.5732 254.07C36.9386 254.07 36.3646 253.925 35.8512 253.636C35.3379 253.337 34.9272 252.913 34.6192 252.362C34.3206 251.802 34.1712 251.121 34.1712 250.318C34.1712 249.515 34.3206 248.839 34.6192 248.288C34.9179 247.728 35.3239 247.303 35.8372 247.014C36.3506 246.725 36.9292 246.58 37.5732 246.58C38.2732 246.58 38.8986 246.739 39.4492 247.056C40.0092 247.364 40.4479 247.803 40.7652 248.372C41.0826 248.932 41.2412 249.581 41.2412 250.318C41.2412 251.065 41.0826 251.718 40.7652 252.278C40.4479 252.838 40.0092 253.277 39.4492 253.594C38.8986 253.911 38.2732 254.07 37.5732 254.07ZM33.7792 256.716V246.65H34.7312V248.862L34.6332 250.332L34.7732 251.816V256.716H33.7792ZM37.5032 253.188C38.0259 253.188 38.4926 253.071 38.9032 252.838C39.3139 252.595 39.6406 252.259 39.8832 251.83C40.1259 251.391 40.2472 250.887 40.2472 250.318C40.2472 249.749 40.1259 249.249 39.8832 248.82C39.6406 248.391 39.3139 248.055 38.9032 247.812C38.4926 247.569 38.0259 247.448 37.5032 247.448C36.9806 247.448 36.5092 247.569 36.0892 247.812C35.6786 248.055 35.3519 248.391 35.1092 248.82C34.8759 249.249 34.7592 249.749 34.7592 250.318C34.7592 250.887 34.8759 251.391 35.1092 251.83C35.3519 252.259 35.6786 252.595 36.0892 252.838C36.5092 253.071 36.9806 253.188 37.5032 253.188ZM43.3769 254V246.65H48.5849V247.518H44.1189L44.3709 247.266V254H43.3769ZM52.7036 254.07C51.9943 254.07 51.355 253.911 50.7856 253.594C50.2256 253.267 49.7823 252.824 49.4556 252.264C49.129 251.695 48.9656 251.046 48.9656 250.318C48.9656 249.581 49.129 248.932 49.4556 248.372C49.7823 247.812 50.2256 247.373 50.7856 247.056C51.3456 246.739 51.985 246.58 52.7036 246.58C53.4316 246.58 54.0756 246.739 54.6356 247.056C55.205 247.373 55.6483 247.812 55.9656 248.372C56.2923 248.932 56.4556 249.581 56.4556 250.318C56.4556 251.046 56.2923 251.695 55.9656 252.264C55.6483 252.824 55.205 253.267 54.6356 253.594C54.0663 253.911 53.4223 254.07 52.7036 254.07ZM52.7036 253.188C53.2356 253.188 53.707 253.071 54.1176 252.838C54.5283 252.595 54.8503 252.259 55.0836 251.83C55.3263 251.391 55.4476 250.887 55.4476 250.318C55.4476 249.739 55.3263 249.235 55.0836 248.806C54.8503 248.377 54.5283 248.045 54.1176 247.812C53.707 247.569 53.2403 247.448 52.7176 247.448C52.195 247.448 51.7283 247.569 51.3176 247.812C50.907 248.045 50.5803 248.377 50.3376 248.806C50.095 249.235 49.9736 249.739 49.9736 250.318C49.9736 250.887 50.095 251.391 50.3376 251.83C50.5803 252.259 50.907 252.595 51.3176 252.838C51.7283 253.071 52.1903 253.188 52.7036 253.188ZM58.58 254V246.65H61.828C62.6587 246.65 63.312 246.809 63.788 247.126C64.2733 247.443 64.516 247.91 64.516 248.526C64.516 249.123 64.2873 249.585 63.83 249.912C63.3727 250.229 62.7707 250.388 62.024 250.388L62.22 250.094C63.0973 250.094 63.7413 250.257 64.152 250.584C64.5627 250.911 64.768 251.382 64.768 251.998C64.768 252.633 64.5347 253.127 64.068 253.482C63.6107 253.827 62.8967 254 61.926 254H58.58ZM59.546 253.216H61.884C62.5093 253.216 62.9807 253.118 63.298 252.922C63.6247 252.717 63.788 252.39 63.788 251.942C63.788 251.494 63.6433 251.167 63.354 250.962C63.0647 250.757 62.6073 250.654 61.982 250.654H59.546V253.216ZM59.546 249.912H61.758C62.3273 249.912 62.7613 249.805 63.06 249.59C63.368 249.375 63.522 249.063 63.522 248.652C63.522 248.241 63.368 247.933 63.06 247.728C62.7613 247.523 62.3273 247.42 61.758 247.42H59.546V249.912ZM65.7536 253.986L65.8236 253.132C65.8889 253.141 65.9496 253.155 66.0056 253.174C66.0709 253.183 66.1269 253.188 66.1736 253.188C66.4723 253.188 66.7103 253.076 66.8876 252.852C67.0743 252.628 67.2143 252.329 67.3076 251.956C67.4009 251.583 67.4663 251.163 67.5036 250.696C67.5409 250.22 67.5736 249.744 67.6016 249.268L67.7276 246.65H73.1176V254H72.1236V247.224L72.3756 247.518H68.3716L68.6096 247.21L68.4976 249.338C68.4696 249.973 68.4183 250.579 68.3436 251.158C68.2783 251.737 68.1709 252.245 68.0216 252.684C67.8816 253.123 67.6856 253.468 67.4336 253.72C67.1816 253.963 66.8596 254.084 66.4676 254.084C66.3556 254.084 66.2389 254.075 66.1176 254.056C66.0056 254.037 65.8843 254.014 65.7536 253.986ZM80.6893 254V251.354L80.8713 251.564H78.3793C77.4366 251.564 76.6993 251.359 76.1673 250.948C75.6353 250.537 75.3693 249.94 75.3693 249.156C75.3693 248.316 75.654 247.691 76.2233 247.28C76.7926 246.86 77.5533 246.65 78.5053 246.65H81.5993V254H80.6893ZM75.3133 254L77.3293 251.172H78.3653L76.3913 254H75.3133ZM80.6893 251.06V247.224L80.8713 247.518H78.5333C77.852 247.518 77.32 247.649 76.9373 247.91C76.564 248.171 76.3773 248.596 76.3773 249.184C76.3773 250.276 77.0726 250.822 78.4633 250.822H80.8713L80.6893 251.06ZM91.1216 254.07C90.4123 254.07 89.7729 253.911 89.2036 253.594C88.6436 253.267 88.2003 252.824 87.8736 252.264C87.5469 251.695 87.3836 251.046 87.3836 250.318C87.3836 249.581 87.5469 248.932 87.8736 248.372C88.2003 247.812 88.6436 247.373 89.2036 247.056C89.7636 246.739 90.4029 246.58 91.1216 246.58C91.8496 246.58 92.4936 246.739 93.0536 247.056C93.6229 247.373 94.0663 247.812 94.3836 248.372C94.7103 248.932 94.8736 249.581 94.8736 250.318C94.8736 251.046 94.7103 251.695 94.3836 252.264C94.0663 252.824 93.6229 253.267 93.0536 253.594C92.4843 253.911 91.8403 254.07 91.1216 254.07ZM91.1216 253.188C91.6536 253.188 92.1249 253.071 92.5356 252.838C92.9463 252.595 93.2683 252.259 93.5016 251.83C93.7443 251.391 93.8656 250.887 93.8656 250.318C93.8656 249.739 93.7443 249.235 93.5016 248.806C93.2683 248.377 92.9463 248.045 92.5356 247.812C92.1249 247.569 91.6583 247.448 91.1356 247.448C90.6129 247.448 90.1463 247.569 89.7356 247.812C89.3249 248.045 88.9983 248.377 88.7556 248.806C88.5129 249.235 88.3916 249.739 88.3916 250.318C88.3916 250.887 88.5129 251.391 88.7556 251.83C88.9983 252.259 89.3249 252.595 89.7356 252.838C90.1463 253.071 90.6083 253.188 91.1216 253.188ZM96.998 254V246.65H103.606V254H102.612V247.252L102.864 247.518H97.74L97.992 247.252V254H96.998ZM107.832 254V247.252L108.084 247.518H105.046V246.65H111.612V247.518H108.574L108.826 247.252V254H107.832ZM115.731 254.07C115.022 254.07 114.382 253.911 113.813 253.594C113.253 253.267 112.81 252.824 112.483 252.264C112.156 251.695 111.993 251.046 111.993 250.318C111.993 249.581 112.156 248.932 112.483 248.372C112.81 247.812 113.253 247.373 113.813 247.056C114.373 246.739 115.012 246.58 115.731 246.58C116.459 246.58 117.103 246.739 117.663 247.056C118.232 247.373 118.676 247.812 118.993 248.372C119.32 248.932 119.483 249.581 119.483 250.318C119.483 251.046 119.32 251.695 118.993 252.264C118.676 252.824 118.232 253.267 117.663 253.594C117.094 253.911 116.45 254.07 115.731 254.07ZM115.731 253.188C116.263 253.188 116.734 253.071 117.145 252.838C117.556 252.595 117.878 252.259 118.111 251.83C118.354 251.391 118.475 250.887 118.475 250.318C118.475 249.739 118.354 249.235 118.111 248.806C117.878 248.377 117.556 248.045 117.145 247.812C116.734 247.569 116.268 247.448 115.745 247.448C115.222 247.448 114.756 247.569 114.345 247.812C113.934 248.045 113.608 248.377 113.365 248.806C113.122 249.235 113.001 249.739 113.001 250.318C113.001 250.887 113.122 251.391 113.365 251.83C113.608 252.259 113.934 252.595 114.345 252.838C114.756 253.071 115.218 253.188 115.731 253.188ZM121.607 254V246.65H124.855C125.686 246.65 126.339 246.809 126.815 247.126C127.301 247.443 127.543 247.91 127.543 248.526C127.543 249.123 127.315 249.585 126.857 249.912C126.4 250.229 125.798 250.388 125.051 250.388L125.247 250.094C126.125 250.094 126.769 250.257 127.179 250.584C127.59 250.911 127.795 251.382 127.795 251.998C127.795 252.633 127.562 253.127 127.095 253.482C126.638 253.827 125.924 254 124.953 254H121.607ZM122.573 253.216H124.911C125.537 253.216 126.008 253.118 126.325 252.922C126.652 252.717 126.815 252.39 126.815 251.942C126.815 251.494 126.671 251.167 126.381 250.962C126.092 250.757 125.635 250.654 125.009 250.654H122.573V253.216ZM122.573 249.912H124.785C125.355 249.912 125.789 249.805 126.087 249.59C126.395 249.375 126.549 249.063 126.549 248.652C126.549 248.241 126.395 247.933 126.087 247.728C125.789 247.523 125.355 247.42 124.785 247.42H122.573V249.912ZM134.689 254V252.376L134.647 252.11V249.394C134.647 248.769 134.47 248.288 134.115 247.952C133.77 247.616 133.252 247.448 132.561 247.448C132.085 247.448 131.632 247.527 131.203 247.686C130.774 247.845 130.41 248.055 130.111 248.316L129.663 247.574C130.036 247.257 130.484 247.014 131.007 246.846C131.53 246.669 132.08 246.58 132.659 246.58C133.611 246.58 134.344 246.818 134.857 247.294C135.38 247.761 135.641 248.475 135.641 249.436V254H134.689ZM132.155 254.07C131.604 254.07 131.124 253.981 130.713 253.804C130.312 253.617 130.004 253.365 129.789 253.048C129.574 252.721 129.467 252.348 129.467 251.928C129.467 251.545 129.556 251.2 129.733 250.892C129.92 250.575 130.218 250.323 130.629 250.136C131.049 249.94 131.609 249.842 132.309 249.842H134.843V250.584H132.337C131.628 250.584 131.133 250.71 130.853 250.962C130.582 251.214 130.447 251.527 130.447 251.9C130.447 252.32 130.61 252.656 130.937 252.908C131.264 253.16 131.721 253.286 132.309 253.286C132.869 253.286 133.35 253.16 133.751 252.908C134.162 252.647 134.46 252.273 134.647 251.788L134.871 252.474C134.684 252.959 134.358 253.347 133.891 253.636C133.434 253.925 132.855 254.07 132.155 254.07ZM143.033 254V251.354L143.215 251.564H140.723C139.78 251.564 139.043 251.359 138.511 250.948C137.979 250.537 137.713 249.94 137.713 249.156C137.713 248.316 137.998 247.691 138.567 247.28C139.136 246.86 139.897 246.65 140.849 246.65H143.943V254H143.033ZM137.657 254L139.673 251.172H140.709L138.735 254H137.657ZM143.033 251.06V247.224L143.215 247.518H140.877C140.196 247.518 139.664 247.649 139.281 247.91C138.908 248.171 138.721 248.596 138.721 249.184C138.721 250.276 139.416 250.822 140.807 250.822H143.215L143.033 251.06ZM150.441 254V246.65H151.435V249.898H156.069V246.65H157.063V254H156.069V250.752H151.435V254H150.441ZM163.039 254.07C162.273 254.07 161.601 253.911 161.023 253.594C160.444 253.267 159.991 252.824 159.665 252.264C159.338 251.695 159.175 251.046 159.175 250.318C159.175 249.59 159.329 248.946 159.637 248.386C159.954 247.826 160.383 247.387 160.925 247.07C161.475 246.743 162.091 246.58 162.773 246.58C163.463 246.58 164.075 246.739 164.607 247.056C165.148 247.364 165.573 247.803 165.881 248.372C166.189 248.932 166.343 249.581 166.343 250.318C166.343 250.365 166.338 250.416 166.329 250.472C166.329 250.519 166.329 250.57 166.329 250.626H159.931V249.884H165.797L165.405 250.178C165.405 249.646 165.288 249.175 165.055 248.764C164.831 248.344 164.523 248.017 164.131 247.784C163.739 247.551 163.286 247.434 162.773 247.434C162.269 247.434 161.816 247.551 161.415 247.784C161.013 248.017 160.701 248.344 160.477 248.764C160.253 249.184 160.141 249.665 160.141 250.206V250.36C160.141 250.92 160.262 251.415 160.505 251.844C160.757 252.264 161.102 252.595 161.541 252.838C161.989 253.071 162.497 253.188 163.067 253.188C163.515 253.188 163.93 253.109 164.313 252.95C164.705 252.791 165.041 252.549 165.321 252.222L165.881 252.866C165.554 253.258 165.143 253.557 164.649 253.762C164.163 253.967 163.627 254.07 163.039 254.07ZM171.623 254.07C170.895 254.07 170.242 253.911 169.663 253.594C169.094 253.267 168.646 252.824 168.319 252.264C167.992 251.695 167.829 251.046 167.829 250.318C167.829 249.581 167.992 248.932 168.319 248.372C168.646 247.812 169.094 247.373 169.663 247.056C170.242 246.739 170.895 246.58 171.623 246.58C172.248 246.58 172.813 246.701 173.317 246.944C173.821 247.187 174.218 247.551 174.507 248.036L173.765 248.54C173.513 248.167 173.2 247.891 172.827 247.714C172.454 247.537 172.048 247.448 171.609 247.448C171.086 247.448 170.615 247.569 170.195 247.812C169.775 248.045 169.444 248.377 169.201 248.806C168.958 249.235 168.837 249.739 168.837 250.318C168.837 250.897 168.958 251.401 169.201 251.83C169.444 252.259 169.775 252.595 170.195 252.838C170.615 253.071 171.086 253.188 171.609 253.188C172.048 253.188 172.454 253.099 172.827 252.922C173.2 252.745 173.513 252.474 173.765 252.11L174.507 252.614C174.218 253.09 173.821 253.454 173.317 253.706C172.813 253.949 172.248 254.07 171.623 254.07ZM176.432 254V246.65H183.04V254H182.046V247.252L182.298 247.518H177.174L177.426 247.252V254H176.432ZM189.015 254.07C188.25 254.07 187.578 253.911 186.999 253.594C186.421 253.267 185.968 252.824 185.641 252.264C185.315 251.695 185.151 251.046 185.151 250.318C185.151 249.59 185.305 248.946 185.613 248.386C185.931 247.826 186.36 247.387 186.901 247.07C187.452 246.743 188.068 246.58 188.749 246.58C189.44 246.58 190.051 246.739 190.583 247.056C191.125 247.364 191.549 247.803 191.857 248.372C192.165 248.932 192.319 249.581 192.319 250.318C192.319 250.365 192.315 250.416 192.305 250.472C192.305 250.519 192.305 250.57 192.305 250.626H185.907V249.884H191.773L191.381 250.178C191.381 249.646 191.265 249.175 191.031 248.764C190.807 248.344 190.499 248.017 190.107 247.784C189.715 247.551 189.263 247.434 188.749 247.434C188.245 247.434 187.793 247.551 187.391 247.784C186.99 248.017 186.677 248.344 186.453 248.764C186.229 249.184 186.117 249.665 186.117 250.206V250.36C186.117 250.92 186.239 251.415 186.481 251.844C186.733 252.264 187.079 252.595 187.517 252.838C187.965 253.071 188.474 253.188 189.043 253.188C189.491 253.188 189.907 253.109 190.289 252.95C190.681 252.791 191.017 252.549 191.297 252.222L191.857 252.866C191.531 253.258 191.12 253.557 190.625 253.762C190.14 253.967 189.603 254.07 189.015 254.07ZM194.519 254V246.65H195.513V253.132H200.007V246.65H201.001V254H194.519ZM201.253 255.778V253.916L201.505 254H200.007V253.132H202.191V255.778H201.253ZM204.09 254V246.65H205.084V252.488L209.998 246.65H210.88V254H209.886V248.148L204.986 254H204.09ZM218.292 254V252.376L218.25 252.11V249.394C218.25 248.769 218.073 248.288 217.718 247.952C217.373 247.616 216.855 247.448 216.164 247.448C215.688 247.448 215.236 247.527 214.806 247.686C214.377 247.845 214.013 248.055 213.714 248.316L213.266 247.574C213.64 247.257 214.088 247.014 214.61 246.846C215.133 246.669 215.684 246.58 216.262 246.58C217.214 246.58 217.947 246.818 218.46 247.294C218.983 247.761 219.244 248.475 219.244 249.436V254H218.292ZM215.758 254.07C215.208 254.07 214.727 253.981 214.316 253.804C213.915 253.617 213.607 253.365 213.392 253.048C213.178 252.721 213.07 252.348 213.07 251.928C213.07 251.545 213.159 251.2 213.336 250.892C213.523 250.575 213.822 250.323 214.232 250.136C214.652 249.94 215.212 249.842 215.912 249.842H218.446V250.584H215.94C215.231 250.584 214.736 250.71 214.456 250.962C214.186 251.214 214.05 251.527 214.05 251.9C214.05 252.32 214.214 252.656 214.54 252.908C214.867 253.16 215.324 253.286 215.912 253.286C216.472 253.286 216.953 253.16 217.354 252.908C217.765 252.647 218.064 252.273 218.25 251.788L218.474 252.474C218.288 252.959 217.961 253.347 217.494 253.636C217.037 253.925 216.458 254.07 215.758 254.07ZM220.547 253.986L220.617 253.132C220.682 253.141 220.743 253.155 220.799 253.174C220.864 253.183 220.92 253.188 220.967 253.188C221.265 253.188 221.503 253.076 221.681 252.852C221.867 252.628 222.007 252.329 222.101 251.956C222.194 251.583 222.259 251.163 222.297 250.696C222.334 250.22 222.367 249.744 222.395 249.268L222.521 246.65H227.911V254H226.917V247.224L227.169 247.518H223.165L223.403 247.21L223.291 249.338C223.263 249.973 223.211 250.579 223.137 251.158C223.071 251.737 222.964 252.245 222.815 252.684C222.675 253.123 222.479 253.468 222.227 253.72C221.975 253.963 221.653 254.084 221.261 254.084C221.149 254.084 221.032 254.075 220.911 254.056C220.799 254.037 220.677 254.014 220.547 253.986ZM230.736 254V246.65H231.73V252.488L236.644 246.65H237.526V254H236.532V248.148L231.632 254H230.736ZM242.199 254.084C242.805 254.084 243.351 253.991 243.837 253.804C244.331 253.617 244.723 253.361 245.013 253.034C245.302 252.698 245.447 252.311 245.447 251.872C245.447 251.312 245.209 250.869 244.733 250.542C244.266 250.215 243.613 250.052 242.773 250.052L242.731 250.318C243.207 250.318 243.631 250.243 244.005 250.094C244.378 249.945 244.677 249.735 244.901 249.464C245.125 249.193 245.237 248.876 245.237 248.512C245.237 248.101 245.097 247.751 244.817 247.462C244.537 247.163 244.159 246.935 243.683 246.776C243.216 246.617 242.689 246.547 242.101 246.566C241.671 246.566 241.242 246.627 240.813 246.748C240.393 246.86 239.968 247.028 239.539 247.252L239.819 248.022C240.201 247.826 240.589 247.681 240.981 247.588C241.373 247.485 241.751 247.429 242.115 247.42C242.516 247.42 242.875 247.467 243.193 247.56C243.51 247.653 243.757 247.793 243.935 247.98C244.121 248.167 244.215 248.391 244.215 248.652C244.215 248.895 244.135 249.105 243.977 249.282C243.827 249.459 243.613 249.595 243.333 249.688C243.053 249.781 242.731 249.828 242.367 249.828H241.177V250.556H242.437C243.053 250.556 243.538 250.668 243.893 250.892C244.247 251.107 244.425 251.41 244.425 251.802C244.425 252.073 244.331 252.315 244.145 252.53C243.958 252.745 243.697 252.913 243.361 253.034C243.025 253.155 242.628 253.221 242.171 253.23C241.713 253.23 241.251 253.165 240.785 253.034C240.318 252.894 239.907 252.693 239.553 252.432L239.231 253.174C239.632 253.482 240.094 253.711 240.617 253.86C241.139 254.009 241.667 254.084 242.199 254.084ZM247.773 254.07C247.568 254.07 247.39 253.995 247.241 253.846C247.101 253.697 247.031 253.515 247.031 253.3C247.031 253.076 247.101 252.894 247.241 252.754C247.39 252.614 247.568 252.544 247.773 252.544C247.978 252.544 248.151 252.614 248.291 252.754C248.44 252.894 248.515 253.076 248.515 253.3C248.515 253.515 248.44 253.697 248.291 253.846C248.151 253.995 247.978 254.07 247.773 254.07ZM250.74 254.07C250.535 254.07 250.357 253.995 250.208 253.846C250.068 253.697 249.998 253.515 249.998 253.3C249.998 253.076 250.068 252.894 250.208 252.754C250.357 252.614 250.535 252.544 250.74 252.544C250.945 252.544 251.118 252.614 251.258 252.754C251.407 252.894 251.482 253.076 251.482 253.3C251.482 253.515 251.407 253.697 251.258 253.846C251.118 253.995 250.945 254.07 250.74 254.07ZM253.707 254.07C253.501 254.07 253.324 253.995 253.175 253.846C253.035 253.697 252.965 253.515 252.965 253.3C252.965 253.076 253.035 252.894 253.175 252.754C253.324 252.614 253.501 252.544 253.707 252.544C253.912 252.544 254.085 252.614 254.225 252.754C254.374 252.894 254.449 253.076 254.449 253.3C254.449 253.515 254.374 253.697 254.225 253.846C254.085 253.995 253.912 254.07 253.707 254.07ZM256.673 254.07C256.468 254.07 256.291 253.995 256.141 253.846C256.001 253.697 255.931 253.515 255.931 253.3C255.931 253.076 256.001 252.894 256.141 252.754C256.291 252.614 256.468 252.544 256.673 252.544C256.879 252.544 257.051 252.614 257.191 252.754C257.341 252.894 257.415 253.076 257.415 253.3C257.415 253.515 257.341 253.697 257.191 253.846C257.051 253.995 256.879 254.07 256.673 254.07Z" fill="#49494F"></path> <rect x="0.5" y="0.5" width="269" height="281" rx="15.5" stroke="#E2E4E7"></rect> <defs> <linearGradient id="paint0_linear_2148_2808" x1="19" y1="26.5" x2="36" y2="64" gradientUnits="userSpaceOnUse"> <stop stop-color="#161617"></stop> <stop offset="1" stop-color="#212122"></stop> </linearGradient> </defs> </svg> 