<?xml version="1.0" encoding="UTF-8"?> <svg xmlns="http://www.w3.org/2000/svg" width="270" height="282" viewBox="0 0 270 282" fill="none"> <rect x="0.5" y="0.5" width="269" height="281" rx="15.5" fill="white"></rect> <rect x="16" y="24" width="40" height="40" rx="8" fill="#356BD5"></rect> <path d="M27.75 53.75H23.25V49.25H27.75V53.75Z" stroke="white" stroke-width="0.5"></path> <path d="M28.75 43.75H24.25V39.25H28.75V43.75Z" stroke="white" stroke-width="0.5"></path> <path d="M32.75 53.75H28.25V49.25H32.75V53.75Z" stroke="white" stroke-width="0.5"></path> <path d="M30.75 48.75H26.25V44.25H30.75V48.75Z" stroke="white" stroke-width="0.5"></path> <path d="M33.75 43.75H29.25V39.25H33.75V43.75Z" stroke="white" stroke-width="0.5"></path> <path d="M30.75 38.75H26.25V34.25H30.75V38.75Z" stroke="white" stroke-width="0.5"></path> <path d="M37.75 53.75H33.25V49.25H37.75V53.75Z" stroke="white" stroke-width="0.5"></path> <path d="M35.75 48.75H31.25V44.25H35.75V48.75Z" stroke="white" stroke-width="0.5"></path> <path d="M38.75 43.75H34.25V39.25H38.75V43.75Z" stroke="white" stroke-width="0.5"></path> <path d="M35.75 38.75H31.25V34.25H35.75V38.75Z" stroke="white" stroke-width="0.5"></path> <path d="M42.75 53.75H38.25V49.25H42.75V53.75Z" stroke="white" stroke-width="0.5"></path> <path d="M40.75 48.75H36.25V44.25H40.75V48.75Z" stroke="white" stroke-width="0.5"></path> <path d="M43.75 43.75H39.25V39.25H43.75V43.75Z" stroke="white" stroke-width="0.5"></path> <path d="M47.75 53.75H43.25V49.25H47.75V53.75Z" stroke="white" stroke-width="0.5"></path> <path d="M45.75 48.75H41.25V44.25H45.75V48.75Z" stroke="white" stroke-width="0.5"></path> <path d="M48.75 43.75H44.25V39.25H48.75V43.75Z" stroke="white" stroke-width="0.5"></path> <path d="M48.75 38.75H44.25V34.25H48.75V38.75Z" stroke="white" stroke-width="0.5"></path> <path d="M26 44H46" stroke="#356BD5" stroke-width="0.1"></path> <path d="M26 49H46" stroke="#356BD5" stroke-width="0.1"></path> <path d="M43 49V54" stroke="#356BD5" stroke-width="0.1"></path> <path d="M38 49V54" stroke="#356BD5" stroke-width="0.1"></path> <path d="M33 49V54" stroke="#356BD5" stroke-width="0.1"></path> <path d="M28 49V54" stroke="#356BD5" stroke-width="0.1"></path> <path d="M31 44V49" stroke="#356BD5" stroke-width="0.1"></path> <path d="M36 44V49" stroke="#356BD5" stroke-width="0.1"></path> <path d="M41 44V49" stroke="#356BD5" stroke-width="0.1"></path> <path d="M44 39V44" stroke="#356BD5" stroke-width="0.1"></path> <path d="M39 39V44" stroke="#356BD5" stroke-width="0.1"></path> <path d="M34 39V44" stroke="#356BD5" stroke-width="0.1"></path> <path d="M29 39V44" stroke="#356BD5" stroke-width="0.1"></path> <path d="M31 34V39" stroke="#356BD5" stroke-width="0.1"></path> <path d="M26 39H49" stroke="#356BD5" stroke-width="0.1"></path> <path d="M123.526 49V39.2H127.74C128.804 39.2 129.639 39.4147 130.246 39.844C130.853 40.2733 131.156 40.8987 131.156 41.72C131.156 42.5227 130.867 43.1387 130.288 43.568C129.709 43.988 128.949 44.198 128.006 44.198L128.258 43.778C129.35 43.778 130.185 43.9973 130.764 44.436C131.352 44.8653 131.646 45.4953 131.646 46.326C131.646 47.166 131.338 47.824 130.722 48.3C130.115 48.7667 129.21 49 128.006 49H123.526ZM124.912 47.894H127.978C128.725 47.894 129.285 47.7587 129.658 47.488C130.041 47.208 130.232 46.7833 130.232 46.214C130.232 45.6447 130.041 45.2293 129.658 44.968C129.285 44.7067 128.725 44.576 127.978 44.576H124.912V47.894ZM124.912 43.512H127.642C128.323 43.512 128.841 43.3767 129.196 43.106C129.56 42.8353 129.742 42.4387 129.742 41.916C129.742 41.384 129.56 40.9827 129.196 40.712C128.841 40.4413 128.323 40.306 127.642 40.306H124.912V43.512ZM141.097 49V41.58H142.441V49H141.097ZM137.107 44.1C138.05 44.1093 138.764 44.324 139.249 44.744C139.744 45.164 139.991 45.7567 139.991 46.522C139.991 47.3247 139.72 47.9453 139.179 48.384C138.647 48.8133 137.882 49.0233 136.883 49.014L133.761 49V41.58H135.105V44.086L137.107 44.1ZM136.785 47.992C137.382 48.0013 137.84 47.88 138.157 47.628C138.474 47.376 138.633 47.0027 138.633 46.508C138.633 46.0227 138.474 45.668 138.157 45.444C137.849 45.22 137.392 45.1033 136.785 45.094L135.105 45.066V47.978L136.785 47.992ZM150.122 48.37V42.756H146.902L146.832 44.184C146.813 44.6507 146.781 45.1033 146.734 45.542C146.697 45.9713 146.631 46.368 146.538 46.732C146.454 47.096 146.328 47.3947 146.16 47.628C145.992 47.8613 145.768 48.006 145.488 48.062L144.158 47.824C144.447 47.8333 144.681 47.74 144.858 47.544C145.035 47.3387 145.171 47.0587 145.264 46.704C145.367 46.3493 145.441 45.948 145.488 45.5C145.535 45.0427 145.572 44.5713 145.6 44.086L145.712 41.58H151.466V48.37H150.122ZM143.864 50.722V47.824H152.6V50.722H151.34V49H145.138V50.722H143.864ZM158.901 49V47.432L158.831 47.138V44.464C158.831 43.8947 158.663 43.456 158.327 43.148C158 42.8307 157.505 42.672 156.843 42.672C156.404 42.672 155.975 42.7467 155.555 42.896C155.135 43.036 154.78 43.2273 154.491 43.47L153.931 42.462C154.313 42.154 154.771 41.9207 155.303 41.762C155.844 41.594 156.409 41.51 156.997 41.51C158.014 41.51 158.798 41.7573 159.349 42.252C159.899 42.7467 160.175 43.5027 160.175 44.52V49H158.901ZM156.465 49.084C155.914 49.084 155.429 48.9907 155.009 48.804C154.598 48.6173 154.281 48.3607 154.057 48.034C153.833 47.698 153.721 47.32 153.721 46.9C153.721 46.4987 153.814 46.1347 154.001 45.808C154.197 45.4813 154.509 45.22 154.939 45.024C155.377 44.828 155.965 44.73 156.703 44.73H159.055V45.696H156.759C156.087 45.696 155.634 45.808 155.401 46.032C155.167 46.256 155.051 46.5267 155.051 46.844C155.051 47.208 155.195 47.502 155.485 47.726C155.774 47.9407 156.175 48.048 156.689 48.048C157.193 48.048 157.631 47.936 158.005 47.712C158.387 47.488 158.663 47.1613 158.831 46.732L159.097 47.656C158.919 48.0947 158.607 48.4447 158.159 48.706C157.711 48.958 157.146 49.084 156.465 49.084ZM162.595 49V41.58H163.939V44.73H168.167V41.58H169.511V49H168.167V45.892H163.939V49H162.595ZM179.258 49.112C178.493 49.112 177.807 48.916 177.2 48.524C176.603 48.132 176.127 47.5627 175.772 46.816C175.427 46.0693 175.254 45.164 175.254 44.1C175.254 43.036 175.427 42.1307 175.772 41.384C176.127 40.6373 176.603 40.068 177.2 39.676C177.807 39.284 178.493 39.088 179.258 39.088C180.014 39.088 180.695 39.284 181.302 39.676C181.909 40.068 182.385 40.6373 182.73 41.384C183.075 42.1307 183.248 43.036 183.248 44.1C183.248 45.164 183.075 46.0693 182.73 46.816C182.385 47.5627 181.909 48.132 181.302 48.524C180.695 48.916 180.014 49.112 179.258 49.112ZM179.258 47.866C179.771 47.866 180.219 47.726 180.602 47.446C180.994 47.166 181.297 46.746 181.512 46.186C181.736 45.626 181.848 44.9307 181.848 44.1C181.848 43.2693 181.736 42.574 181.512 42.014C181.297 41.454 180.994 41.034 180.602 40.754C180.219 40.474 179.771 40.334 179.258 40.334C178.745 40.334 178.292 40.474 177.9 40.754C177.508 41.034 177.2 41.454 176.976 42.014C176.761 42.574 176.654 43.2693 176.654 44.1C176.654 44.9307 176.761 45.626 176.976 46.186C177.2 46.746 177.508 47.166 177.9 47.446C178.292 47.726 178.745 47.866 179.258 47.866ZM184.452 46.592V45.612L189.464 39.2H190.976L186.006 45.612L185.292 45.388H193.118V46.592H184.452ZM189.898 49V46.592L189.94 45.388V43.26H191.256V49H189.898ZM195.155 49.084C194.893 49.084 194.669 48.9953 194.483 48.818C194.296 48.6313 194.203 48.398 194.203 48.118C194.203 47.838 194.296 47.6093 194.483 47.432C194.669 47.2547 194.893 47.166 195.155 47.166C195.407 47.166 195.621 47.2547 195.799 47.432C195.985 47.6093 196.079 47.838 196.079 48.118C196.079 48.398 195.985 48.6313 195.799 48.818C195.621 48.9953 195.407 49.084 195.155 49.084ZM201.242 49.112C200.477 49.112 199.791 48.916 199.184 48.524C198.587 48.132 198.111 47.5627 197.756 46.816C197.411 46.0693 197.238 45.164 197.238 44.1C197.238 43.036 197.411 42.1307 197.756 41.384C198.111 40.6373 198.587 40.068 199.184 39.676C199.791 39.284 200.477 39.088 201.242 39.088C201.998 39.088 202.68 39.284 203.286 39.676C203.893 40.068 204.369 40.6373 204.714 41.384C205.06 42.1307 205.232 43.036 205.232 44.1C205.232 45.164 205.06 46.0693 204.714 46.816C204.369 47.5627 203.893 48.132 203.286 48.524C202.68 48.916 201.998 49.112 201.242 49.112ZM201.242 47.866C201.756 47.866 202.204 47.726 202.586 47.446C202.978 47.166 203.282 46.746 203.496 46.186C203.72 45.626 203.832 44.9307 203.832 44.1C203.832 43.2693 203.72 42.574 203.496 42.014C203.282 41.454 202.978 41.034 202.586 40.754C202.204 40.474 201.756 40.334 201.242 40.334C200.729 40.334 200.276 40.474 199.884 40.754C199.492 41.034 199.184 41.454 198.96 42.014C198.746 42.574 198.638 43.2693 198.638 44.1C198.638 44.9307 198.746 45.626 198.96 46.186C199.184 46.746 199.492 47.166 199.884 47.446C200.276 47.726 200.729 47.866 201.242 47.866ZM208.175 49L212.333 39.788L212.697 40.418H206.873L207.573 39.732V42.168H206.229V39.2H213.621V40.152L209.659 49H208.175ZM215.047 49.084C214.786 49.084 214.562 48.9953 214.375 48.818C214.189 48.6313 214.095 48.398 214.095 48.118C214.095 47.838 214.189 47.6093 214.375 47.432C214.562 47.2547 214.786 47.166 215.047 47.166C215.299 47.166 215.514 47.2547 215.691 47.432C215.878 47.6093 215.971 47.838 215.971 48.118C215.971 48.398 215.878 48.6313 215.691 48.818C215.514 48.9953 215.299 49.084 215.047 49.084ZM218.219 49.084C217.958 49.084 217.734 48.9953 217.547 48.818C217.36 48.6313 217.267 48.398 217.267 48.118C217.267 47.838 217.36 47.6093 217.547 47.432C217.734 47.2547 217.958 47.166 218.219 47.166C218.471 47.166 218.686 47.2547 218.863 47.432C219.05 47.6093 219.143 47.838 219.143 48.118C219.143 48.398 219.05 48.6313 218.863 48.818C218.686 48.9953 218.471 49.084 218.219 49.084ZM220.45 49V48.048L224.44 44.198C224.794 43.862 225.056 43.568 225.224 43.316C225.401 43.0547 225.518 42.8167 225.574 42.602C225.639 42.378 225.672 42.1633 225.672 41.958C225.672 41.454 225.494 41.0573 225.14 40.768C224.785 40.4787 224.267 40.334 223.586 40.334C223.063 40.334 222.592 40.4227 222.172 40.6C221.752 40.768 221.388 41.034 221.08 41.398L220.128 40.572C220.501 40.096 221 39.732 221.626 39.48C222.26 39.2187 222.956 39.088 223.712 39.088C224.393 39.088 224.986 39.2 225.49 39.424C225.994 39.6387 226.381 39.9513 226.652 40.362C226.932 40.7727 227.072 41.258 227.072 41.818C227.072 42.1353 227.03 42.448 226.946 42.756C226.862 43.064 226.703 43.3907 226.47 43.736C226.236 44.0813 225.9 44.4687 225.462 44.898L221.906 48.328L221.57 47.782H227.492V49H220.45ZM232.633 49.112C231.868 49.112 231.182 48.916 230.575 48.524C229.978 48.132 229.502 47.5627 229.147 46.816C228.802 46.0693 228.629 45.164 228.629 44.1C228.629 43.036 228.802 42.1307 229.147 41.384C229.502 40.6373 229.978 40.068 230.575 39.676C231.182 39.284 231.868 39.088 232.633 39.088C233.389 39.088 234.07 39.284 234.677 39.676C235.284 40.068 235.76 40.6373 236.105 41.384C236.45 42.1307 236.623 43.036 236.623 44.1C236.623 45.164 236.45 46.0693 236.105 46.816C235.76 47.5627 235.284 48.132 234.677 48.524C234.07 48.916 233.389 49.112 232.633 49.112ZM232.633 47.866C233.146 47.866 233.594 47.726 233.977 47.446C234.369 47.166 234.672 46.746 234.887 46.186C235.111 45.626 235.223 44.9307 235.223 44.1C235.223 43.2693 235.111 42.574 234.887 42.014C234.672 41.454 234.369 41.034 233.977 40.754C233.594 40.474 233.146 40.334 232.633 40.334C232.12 40.334 231.667 40.474 231.275 40.754C230.883 41.034 230.575 41.454 230.351 42.014C230.136 42.574 230.029 43.2693 230.029 44.1C230.029 44.9307 230.136 45.626 230.351 46.186C230.575 46.746 230.883 47.166 231.275 47.446C231.667 47.726 232.12 47.866 232.633 47.866ZM237.813 49V48.048L241.803 44.198C242.158 43.862 242.419 43.568 242.587 43.316C242.764 43.0547 242.881 42.8167 242.937 42.602C243.002 42.378 243.035 42.1633 243.035 41.958C243.035 41.454 242.858 41.0573 242.503 40.768C242.148 40.4787 241.63 40.334 240.949 40.334C240.426 40.334 239.955 40.4227 239.535 40.6C239.115 40.768 238.751 41.034 238.443 41.398L237.491 40.572C237.864 40.096 238.364 39.732 238.989 39.48C239.624 39.2187 240.319 39.088 241.075 39.088C241.756 39.088 242.349 39.2 242.853 39.424C243.357 39.6387 243.744 39.9513 244.015 40.362C244.295 40.7727 244.435 41.258 244.435 41.818C244.435 42.1353 244.393 42.448 244.309 42.756C244.225 43.064 244.066 43.3907 243.833 43.736C243.6 44.0813 243.264 44.4687 242.825 44.898L239.269 48.328L238.933 47.782H244.855V49H237.813ZM245.852 49V48.048L249.842 44.198C250.197 43.862 250.458 43.568 250.626 43.316C250.803 43.0547 250.92 42.8167 250.976 42.602C251.041 42.378 251.074 42.1633 251.074 41.958C251.074 41.454 250.897 41.0573 250.542 40.768C250.187 40.4787 249.669 40.334 248.988 40.334C248.465 40.334 247.994 40.4227 247.574 40.6C247.154 40.768 246.79 41.034 246.482 41.398L245.53 40.572C245.903 40.096 246.403 39.732 247.028 39.48C247.663 39.2187 248.358 39.088 249.114 39.088C249.795 39.088 250.388 39.2 250.892 39.424C251.396 39.6387 251.783 39.9513 252.054 40.362C252.334 40.7727 252.474 41.258 252.474 41.818C252.474 42.1353 252.432 42.448 252.348 42.756C252.264 43.064 252.105 43.3907 251.872 43.736C251.639 44.0813 251.303 44.4687 250.864 44.898L247.308 48.328L246.972 47.782H252.894V49H245.852Z" fill="#49494F"></path> <path d="M16.888 121V119.368L23.728 112.768C24.336 112.192 24.784 111.688 25.072 111.256C25.376 110.808 25.576 110.4 25.672 110.032C25.784 109.648 25.84 109.28 25.84 108.928C25.84 108.064 25.536 107.384 24.928 106.888C24.32 106.392 23.432 106.144 22.264 106.144C21.368 106.144 20.56 106.296 19.84 106.6C19.12 106.888 18.496 107.344 17.968 107.968L16.336 106.552C16.976 105.736 17.832 105.112 18.904 104.68C19.992 104.232 21.184 104.008 22.48 104.008C23.648 104.008 24.664 104.2 25.528 104.584C26.392 104.952 27.056 105.488 27.52 106.192C28 106.896 28.24 107.728 28.24 108.688C28.24 109.232 28.168 109.768 28.024 110.296C27.88 110.824 27.608 111.384 27.208 111.976C26.808 112.568 26.232 113.232 25.48 113.968L19.384 119.848L18.808 118.912H28.96V121H16.888ZM36.3573 121.192C35.1733 121.192 34.0213 121.008 32.9013 120.64C31.7973 120.272 30.8933 119.776 30.1893 119.152L31.2933 117.256C31.8533 117.784 32.5813 118.216 33.4773 118.552C34.3733 118.888 35.3253 119.056 36.3333 119.056C37.6133 119.056 38.5973 118.784 39.2853 118.24C39.9733 117.696 40.3173 116.968 40.3173 116.056C40.3173 115.432 40.1653 114.888 39.8613 114.424C39.5573 113.96 39.0293 113.608 38.2773 113.368C37.5413 113.112 36.5253 112.984 35.2293 112.984H31.4133L32.3013 104.2H41.7812V106.288H33.1893L34.4373 105.112L33.7413 112.048L32.4933 110.896H35.7333C37.4133 110.896 38.7653 111.112 39.7893 111.544C40.8133 111.976 41.5573 112.576 42.0213 113.344C42.4853 114.096 42.7173 114.968 42.7173 115.96C42.7173 116.92 42.4853 117.8 42.0213 118.6C41.5573 119.384 40.8533 120.016 39.9093 120.496C38.9813 120.96 37.7973 121.192 36.3573 121.192ZM51.5785 121.192C50.2665 121.192 49.0905 120.856 48.0505 120.184C47.0265 119.512 46.2105 118.536 45.6025 117.256C45.0105 115.976 44.7145 114.424 44.7145 112.6C44.7145 110.776 45.0105 109.224 45.6025 107.944C46.2105 106.664 47.0265 105.688 48.0505 105.016C49.0905 104.344 50.2665 104.008 51.5785 104.008C52.8745 104.008 54.0425 104.344 55.0825 105.016C56.1225 105.688 56.9385 106.664 57.5305 107.944C58.1225 109.224 58.4185 110.776 58.4185 112.6C58.4185 114.424 58.1225 115.976 57.5305 117.256C56.9385 118.536 56.1225 119.512 55.0825 120.184C54.0425 120.856 52.8745 121.192 51.5785 121.192ZM51.5785 119.056C52.4585 119.056 53.2265 118.816 53.8825 118.336C54.5545 117.856 55.0745 117.136 55.4425 116.176C55.8265 115.216 56.0185 114.024 56.0185 112.6C56.0185 111.176 55.8265 109.984 55.4425 109.024C55.0745 108.064 54.5545 107.344 53.8825 106.864C53.2265 106.384 52.4585 106.144 51.5785 106.144C50.6985 106.144 49.9225 106.384 49.2505 106.864C48.5785 107.344 48.0505 108.064 47.6665 109.024C47.2985 109.984 47.1145 111.176 47.1145 112.6C47.1145 114.024 47.2985 115.216 47.6665 116.176C48.0505 117.136 48.5785 117.856 49.2505 118.336C49.9225 118.816 50.6985 119.056 51.5785 119.056ZM74.0316 121.192C72.7196 121.192 71.5436 120.856 70.5036 120.184C69.4796 119.512 68.6636 118.536 68.0556 117.256C67.4636 115.976 67.1676 114.424 67.1676 112.6C67.1676 110.776 67.4636 109.224 68.0556 107.944C68.6636 106.664 69.4796 105.688 70.5036 105.016C71.5436 104.344 72.7196 104.008 74.0316 104.008C75.3276 104.008 76.4956 104.344 77.5356 105.016C78.5756 105.688 79.3916 106.664 79.9836 107.944C80.5756 109.224 80.8716 110.776 80.8716 112.6C80.8716 114.424 80.5756 115.976 79.9836 117.256C79.3916 118.536 78.5756 119.512 77.5356 120.184C76.4956 120.856 75.3276 121.192 74.0316 121.192ZM74.0316 119.056C74.9116 119.056 75.6796 118.816 76.3356 118.336C77.0076 117.856 77.5276 117.136 77.8956 116.176C78.2796 115.216 78.4716 114.024 78.4716 112.6C78.4716 111.176 78.2796 109.984 77.8956 109.024C77.5276 108.064 77.0076 107.344 76.3356 106.864C75.6796 106.384 74.9116 106.144 74.0316 106.144C73.1516 106.144 72.3756 106.384 71.7036 106.864C71.0316 107.344 70.5036 108.064 70.1196 109.024C69.7516 109.984 69.5676 111.176 69.5676 112.6C69.5676 114.024 69.7516 115.216 70.1196 116.176C70.5036 117.136 71.0316 117.856 71.7036 118.336C72.3756 118.816 73.1516 119.056 74.0316 119.056ZM90.0394 121.192C88.7274 121.192 87.5514 120.856 86.5114 120.184C85.4874 119.512 84.6714 118.536 84.0634 117.256C83.4714 115.976 83.1754 114.424 83.1754 112.6C83.1754 110.776 83.4714 109.224 84.0634 107.944C84.6714 106.664 85.4874 105.688 86.5114 105.016C87.5514 104.344 88.7274 104.008 90.0394 104.008C91.3354 104.008 92.5034 104.344 93.5434 105.016C94.5834 105.688 95.3994 106.664 95.9914 107.944C96.5834 109.224 96.8794 110.776 96.8794 112.6C96.8794 114.424 96.5834 115.976 95.9914 117.256C95.3994 118.536 94.5834 119.512 93.5434 120.184C92.5034 120.856 91.3354 121.192 90.0394 121.192ZM90.0394 119.056C90.9194 119.056 91.6874 118.816 92.3434 118.336C93.0154 117.856 93.5354 117.136 93.9034 116.176C94.2874 115.216 94.4794 114.024 94.4794 112.6C94.4794 111.176 94.2874 109.984 93.9034 109.024C93.5354 108.064 93.0154 107.344 92.3434 106.864C91.6874 106.384 90.9194 106.144 90.0394 106.144C89.1594 106.144 88.3834 106.384 87.7114 106.864C87.0394 107.344 86.5114 108.064 86.1274 109.024C85.7594 109.984 85.5754 111.176 85.5754 112.6C85.5754 114.024 85.7594 115.216 86.1274 116.176C86.5114 117.136 87.0394 117.856 87.7114 118.336C88.3834 118.816 89.1594 119.056 90.0394 119.056ZM106.047 121.192C104.735 121.192 103.559 120.856 102.519 120.184C101.495 119.512 100.679 118.536 100.071 117.256C99.4793 115.976 99.1833 114.424 99.1833 112.6C99.1833 110.776 99.4793 109.224 100.071 107.944C100.679 106.664 101.495 105.688 102.519 105.016C103.559 104.344 104.735 104.008 106.047 104.008C107.343 104.008 108.511 104.344 109.551 105.016C110.591 105.688 111.407 106.664 111.999 107.944C112.591 109.224 112.887 110.776 112.887 112.6C112.887 114.424 112.591 115.976 111.999 117.256C111.407 118.536 110.591 119.512 109.551 120.184C108.511 120.856 107.343 121.192 106.047 121.192ZM106.047 119.056C106.927 119.056 107.695 118.816 108.351 118.336C109.023 117.856 109.543 117.136 109.911 116.176C110.295 115.216 110.487 114.024 110.487 112.6C110.487 111.176 110.295 109.984 109.911 109.024C109.543 108.064 109.023 107.344 108.351 106.864C107.695 106.384 106.927 106.144 106.047 106.144C105.167 106.144 104.391 106.384 103.719 106.864C103.047 107.344 102.519 108.064 102.135 109.024C101.767 109.984 101.583 111.176 101.583 112.6C101.583 114.024 101.767 115.216 102.135 116.176C102.519 117.136 103.047 117.856 103.719 118.336C104.391 118.816 105.167 119.056 106.047 119.056ZM117.207 121V104.2H123.807C125.967 104.2 127.671 104.68 128.919 105.64C130.167 106.584 130.791 107.968 130.791 109.792C130.791 111.616 130.167 113.008 128.919 113.968C127.671 114.928 125.967 115.408 123.807 115.408H118.551L119.631 114.28V121H117.207ZM119.631 114.52L118.551 113.416H123.807C125.279 113.416 126.407 113.104 127.191 112.48C127.975 111.856 128.367 110.968 128.367 109.816C128.367 108.68 127.975 107.808 127.191 107.2C126.407 106.592 125.279 106.288 123.807 106.288H118.551L119.631 105.088V114.52ZM114.759 118.192V116.824H124.959V118.192H114.759Z" fill="#161617"></path> <path d="M224.192 114.128C223.403 114.128 222.635 114.005 221.888 113.76C221.152 113.515 220.549 113.184 220.08 112.768L220.816 111.504C221.189 111.856 221.675 112.144 222.272 112.368C222.869 112.592 223.509 112.704 224.192 112.704C225.024 112.704 225.669 112.528 226.128 112.176C226.597 111.813 226.832 111.328 226.832 110.72C226.832 110.133 226.608 109.664 226.16 109.312C225.723 108.949 225.024 108.768 224.064 108.768H223.168V107.648L226.496 103.552L226.72 104.192H220.592V102.8H227.984V103.888L224.672 107.968L223.84 107.472H224.368C225.723 107.472 226.736 107.776 227.408 108.384C228.091 108.992 228.432 109.765 228.432 110.704C228.432 111.333 228.277 111.909 227.968 112.432C227.659 112.955 227.189 113.371 226.56 113.68C225.941 113.979 225.152 114.128 224.192 114.128ZM234.5 114.128C233.626 114.128 232.842 113.904 232.148 113.456C231.466 113.008 230.922 112.357 230.516 111.504C230.122 110.651 229.924 109.616 229.924 108.4C229.924 107.184 230.122 106.149 230.516 105.296C230.922 104.443 231.466 103.792 232.148 103.344C232.842 102.896 233.626 102.672 234.5 102.672C235.364 102.672 236.143 102.896 236.836 103.344C237.53 103.792 238.074 104.443 238.468 105.296C238.863 106.149 239.06 107.184 239.06 108.4C239.06 109.616 238.863 110.651 238.468 111.504C238.074 112.357 237.53 113.008 236.836 113.456C236.143 113.904 235.364 114.128 234.5 114.128ZM234.5 112.704C235.087 112.704 235.599 112.544 236.036 112.224C236.484 111.904 236.831 111.424 237.076 110.784C237.332 110.144 237.46 109.349 237.46 108.4C237.46 107.451 237.332 106.656 237.076 106.016C236.831 105.376 236.484 104.896 236.036 104.576C235.599 104.256 235.087 104.096 234.5 104.096C233.914 104.096 233.396 104.256 232.948 104.576C232.5 104.896 232.148 105.376 231.892 106.016C231.647 106.656 231.524 107.451 231.524 108.4C231.524 109.349 231.647 110.144 231.892 110.784C232.148 111.424 232.5 111.904 232.948 112.224C233.396 112.544 233.914 112.704 234.5 112.704ZM242.132 114L249.78 102.8H251.012L243.364 114H242.132ZM243.028 108.816C242.516 108.816 242.063 108.688 241.668 108.432C241.273 108.176 240.964 107.819 240.74 107.36C240.527 106.901 240.42 106.368 240.42 105.76C240.42 105.152 240.527 104.619 240.74 104.16C240.964 103.701 241.273 103.344 241.668 103.088C242.063 102.832 242.516 102.704 243.028 102.704C243.551 102.704 244.004 102.832 244.388 103.088C244.783 103.344 245.087 103.701 245.3 104.16C245.513 104.619 245.62 105.152 245.62 105.76C245.62 106.368 245.513 106.901 245.3 107.36C245.087 107.819 244.783 108.176 244.388 108.432C244.004 108.688 243.551 108.816 243.028 108.816ZM243.028 107.904C243.519 107.904 243.903 107.717 244.18 107.344C244.457 106.96 244.596 106.432 244.596 105.76C244.596 105.088 244.457 104.565 244.18 104.192C243.903 103.808 243.519 103.616 243.028 103.616C242.548 103.616 242.164 103.808 241.876 104.192C241.599 104.565 241.46 105.088 241.46 105.76C241.46 106.421 241.599 106.944 241.876 107.328C242.164 107.712 242.548 107.904 243.028 107.904ZM250.116 114.096C249.604 114.096 249.151 113.968 248.756 113.712C248.361 113.456 248.057 113.099 247.844 112.64C247.631 112.181 247.524 111.648 247.524 111.04C247.524 110.432 247.631 109.899 247.844 109.44C248.057 108.981 248.361 108.624 248.756 108.368C249.151 108.112 249.604 107.984 250.116 107.984C250.639 107.984 251.092 108.112 251.476 108.368C251.871 108.624 252.175 108.981 252.388 109.44C252.612 109.899 252.724 110.432 252.724 111.04C252.724 111.648 252.612 112.181 252.388 112.64C252.175 113.099 251.871 113.456 251.476 113.712C251.092 113.968 250.639 114.096 250.116 114.096ZM250.116 113.184C250.596 113.184 250.975 112.997 251.252 112.624C251.54 112.24 251.684 111.712 251.684 111.04C251.684 110.379 251.54 109.856 251.252 109.472C250.975 109.088 250.596 108.896 250.116 108.896C249.636 108.896 249.252 109.088 248.964 109.472C248.687 109.845 248.548 110.368 248.548 111.04C248.548 111.712 248.687 112.24 248.964 112.624C249.252 112.997 249.636 113.184 250.116 113.184Z" fill="#2CCC39"></path> <path d="M254 143H16V145H254V143Z" fill="#DDDDDD" mask="url(#path-36-inside-1_2148_2838)"></path> <path d="M17.888 178V166.8H19.056V176.08L26.224 166.8H27.296V178H26.128V168.736L18.96 178H17.888ZM31.0755 178V166.8H40.4995V178H39.3315V167.504L39.6355 167.824H31.9395L32.2435 167.504V178H31.0755ZM56.1301 178L51.8261 172.416L52.7861 171.84L57.4901 178H56.1301ZM48.4661 178V166.8H49.6181V178H48.4661ZM49.2661 172.864V171.824H52.7701V172.864H49.2661ZM52.8821 172.528L51.7941 172.336L55.9701 166.8H57.2501L52.8821 172.528ZM62.4001 178.08C61.5895 178.08 60.8588 177.899 60.2081 177.536C59.5681 177.163 59.0615 176.656 58.6881 176.016C58.3148 175.365 58.1281 174.624 58.1281 173.792C58.1281 172.949 58.3148 172.208 58.6881 171.568C59.0615 170.928 59.5681 170.427 60.2081 170.064C60.8481 169.701 61.5788 169.52 62.4001 169.52C63.2321 169.52 63.9681 169.701 64.6081 170.064C65.2588 170.427 65.7655 170.928 66.1281 171.568C66.5015 172.208 66.6881 172.949 66.6881 173.792C66.6881 174.624 66.5015 175.365 66.1281 176.016C65.7655 176.656 65.2588 177.163 64.6081 177.536C63.9575 177.899 63.2215 178.08 62.4001 178.08ZM62.4001 177.072C63.0081 177.072 63.5468 176.939 64.0161 176.672C64.4855 176.395 64.8535 176.011 65.1201 175.52C65.3975 175.019 65.5361 174.443 65.5361 173.792C65.5361 173.131 65.3975 172.555 65.1201 172.064C64.8535 171.573 64.4855 171.195 64.0161 170.928C63.5468 170.651 63.0135 170.512 62.4161 170.512C61.8188 170.512 61.2855 170.651 60.8161 170.928C60.3468 171.195 59.9735 171.573 59.6961 172.064C59.4188 172.555 59.2801 173.131 59.2801 173.792C59.2801 174.443 59.4188 175.019 59.6961 175.52C59.9735 176.011 60.3468 176.395 60.8161 176.672C61.2855 176.939 61.8135 177.072 62.4001 177.072ZM72.636 178.08C71.804 178.08 71.0573 177.899 70.396 177.536C69.7453 177.163 69.2333 176.656 68.86 176.016C68.4867 175.365 68.3 174.624 68.3 173.792C68.3 172.949 68.4867 172.208 68.86 171.568C69.2333 170.928 69.7453 170.427 70.396 170.064C71.0573 169.701 71.804 169.52 72.636 169.52C73.3507 169.52 73.996 169.659 74.572 169.936C75.148 170.213 75.6013 170.629 75.932 171.184L75.084 171.76C74.796 171.333 74.4387 171.019 74.012 170.816C73.5853 170.613 73.1213 170.512 72.62 170.512C72.0227 170.512 71.484 170.651 71.004 170.928C70.524 171.195 70.1453 171.573 69.868 172.064C69.5907 172.555 69.452 173.131 69.452 173.792C69.452 174.453 69.5907 175.029 69.868 175.52C70.1453 176.011 70.524 176.395 71.004 176.672C71.484 176.939 72.0227 177.072 72.62 177.072C73.1213 177.072 73.5853 176.971 74.012 176.768C74.4387 176.565 74.796 176.256 75.084 175.84L75.932 176.416C75.6013 176.96 75.148 177.376 74.572 177.664C73.996 177.941 73.3507 178.08 72.636 178.08ZM83.3476 178V176.144L83.2996 175.84V172.736C83.2996 172.021 83.097 171.472 82.6916 171.088C82.297 170.704 81.705 170.512 80.9156 170.512C80.3716 170.512 79.8543 170.603 79.3636 170.784C78.873 170.965 78.457 171.205 78.1156 171.504L77.6036 170.656C78.0303 170.293 78.5423 170.016 79.1396 169.824C79.737 169.621 80.3663 169.52 81.0276 169.52C82.1156 169.52 82.953 169.792 83.5396 170.336C84.137 170.869 84.4356 171.685 84.4356 172.784V178H83.3476ZM80.4516 178.08C79.8223 178.08 79.273 177.979 78.8036 177.776C78.345 177.563 77.993 177.275 77.7476 176.912C77.5023 176.539 77.3796 176.112 77.3796 175.632C77.3796 175.195 77.481 174.8 77.6836 174.448C77.897 174.085 78.2383 173.797 78.7076 173.584C79.1876 173.36 79.8276 173.248 80.6276 173.248H83.5236V174.096H80.6596C79.849 174.096 79.2836 174.24 78.9636 174.528C78.6543 174.816 78.4996 175.173 78.4996 175.6C78.4996 176.08 78.6863 176.464 79.0596 176.752C79.433 177.04 79.9556 177.184 80.6276 177.184C81.2676 177.184 81.817 177.04 82.2756 176.752C82.745 176.453 83.0863 176.027 83.2996 175.472L83.5556 176.256C83.3423 176.811 82.969 177.253 82.4356 177.584C81.913 177.915 81.2516 178.08 80.4516 178.08ZM91.7958 178.08C91.0704 178.08 90.4144 177.915 89.8278 177.584C89.2411 177.243 88.7718 176.757 88.4198 176.128C88.0784 175.488 87.9078 174.709 87.9078 173.792C87.9078 172.875 88.0784 172.101 88.4198 171.472C88.7611 170.832 89.2251 170.347 89.8118 170.016C90.3984 169.685 91.0598 169.52 91.7958 169.52C92.5958 169.52 93.3104 169.701 93.9398 170.064C94.5798 170.416 95.0811 170.917 95.4438 171.568C95.8064 172.208 95.9878 172.949 95.9878 173.792C95.9878 174.645 95.8064 175.392 95.4438 176.032C95.0811 176.672 94.5798 177.173 93.9398 177.536C93.3104 177.899 92.5958 178.08 91.7958 178.08ZM87.4598 181.104V169.6H88.5478V172.128L88.4358 173.808L88.5958 175.504V181.104H87.4598ZM91.7158 177.072C92.3131 177.072 92.8464 176.939 93.3158 176.672C93.7851 176.395 94.1584 176.011 94.4358 175.52C94.7131 175.019 94.8518 174.443 94.8518 173.792C94.8518 173.141 94.7131 172.571 94.4358 172.08C94.1584 171.589 93.7851 171.205 93.3158 170.928C92.8464 170.651 92.3131 170.512 91.7158 170.512C91.1184 170.512 90.5798 170.651 90.0998 170.928C89.6304 171.205 89.2571 171.589 88.9798 172.08C88.7131 172.571 88.5798 173.141 88.5798 173.792C88.5798 174.443 88.7131 175.019 88.9798 175.52C89.2571 176.011 89.6304 176.395 90.0998 176.672C90.5798 176.939 91.1184 177.072 91.7158 177.072ZM102.029 178.08C101.154 178.08 100.386 177.899 99.7245 177.536C99.0632 177.163 98.5458 176.656 98.1725 176.016C97.7992 175.365 97.6125 174.624 97.6125 173.792C97.6125 172.96 97.7885 172.224 98.1405 171.584C98.5032 170.944 98.9938 170.443 99.6125 170.08C100.242 169.707 100.946 169.52 101.725 169.52C102.514 169.52 103.213 169.701 103.821 170.064C104.439 170.416 104.925 170.917 105.277 171.568C105.629 172.208 105.805 172.949 105.805 173.792C105.805 173.845 105.799 173.904 105.789 173.968C105.789 174.021 105.789 174.08 105.789 174.144H98.4765V173.296H105.181L104.733 173.632C104.733 173.024 104.599 172.485 104.333 172.016C104.077 171.536 103.725 171.163 103.277 170.896C102.829 170.629 102.311 170.496 101.725 170.496C101.149 170.496 100.631 170.629 100.173 170.896C99.7138 171.163 99.3565 171.536 99.1005 172.016C98.8445 172.496 98.7165 173.045 98.7165 173.664V173.84C98.7165 174.48 98.8552 175.045 99.1325 175.536C99.4205 176.016 99.8152 176.395 100.317 176.672C100.829 176.939 101.41 177.072 102.061 177.072C102.573 177.072 103.047 176.981 103.485 176.8C103.933 176.619 104.317 176.341 104.637 175.968L105.277 176.704C104.903 177.152 104.434 177.493 103.869 177.728C103.314 177.963 102.701 178.08 102.029 178.08ZM108.319 178V169.6H112.031C112.98 169.6 113.727 169.781 114.271 170.144C114.826 170.507 115.103 171.04 115.103 171.744C115.103 172.427 114.842 172.955 114.319 173.328C113.796 173.691 113.108 173.872 112.255 173.872L112.479 173.536C113.482 173.536 114.218 173.723 114.687 174.096C115.156 174.469 115.391 175.008 115.391 175.712C115.391 176.437 115.124 177.003 114.591 177.408C114.068 177.803 113.252 178 112.143 178H108.319ZM109.423 177.104H112.095C112.81 177.104 113.348 176.992 113.711 176.768C114.084 176.533 114.271 176.16 114.271 175.648C114.271 175.136 114.106 174.763 113.775 174.528C113.444 174.293 112.922 174.176 112.207 174.176H109.423V177.104ZM109.423 173.328H111.951C112.602 173.328 113.098 173.205 113.439 172.96C113.791 172.715 113.967 172.357 113.967 171.888C113.967 171.419 113.791 171.067 113.439 170.832C113.098 170.597 112.602 170.48 111.951 170.48H109.423V173.328ZM123.27 178V176.144L123.222 175.84V172.736C123.222 172.021 123.019 171.472 122.614 171.088C122.219 170.704 121.627 170.512 120.838 170.512C120.294 170.512 119.776 170.603 119.286 170.784C118.795 170.965 118.379 171.205 118.038 171.504L117.526 170.656C117.952 170.293 118.464 170.016 119.062 169.824C119.659 169.621 120.288 169.52 120.95 169.52C122.038 169.52 122.875 169.792 123.462 170.336C124.059 170.869 124.358 171.685 124.358 172.784V178H123.27ZM120.374 178.08C119.744 178.08 119.195 177.979 118.726 177.776C118.267 177.563 117.915 177.275 117.67 176.912C117.424 176.539 117.302 176.112 117.302 175.632C117.302 175.195 117.403 174.8 117.606 174.448C117.819 174.085 118.16 173.797 118.63 173.584C119.11 173.36 119.75 173.248 120.549 173.248H123.446V174.096H120.582C119.771 174.096 119.206 174.24 118.886 174.528C118.576 174.816 118.422 175.173 118.422 175.6C118.422 176.08 118.608 176.464 118.982 176.752C119.355 177.04 119.878 177.184 120.549 177.184C121.19 177.184 121.739 177.04 122.198 176.752C122.667 176.453 123.008 176.027 123.222 175.472L123.478 176.256C123.264 176.811 122.891 177.253 122.358 177.584C121.835 177.915 121.174 178.08 120.374 178.08ZM131.841 178V166.8H141.265V178H140.097V167.504L140.401 167.824H132.705L133.009 167.504V178H131.841ZM144.852 178.08C144.618 178.08 144.415 177.995 144.244 177.824C144.084 177.653 144.004 177.445 144.004 177.2C144.004 176.944 144.084 176.736 144.244 176.576C144.415 176.416 144.618 176.336 144.852 176.336C145.087 176.336 145.284 176.416 145.444 176.576C145.615 176.736 145.7 176.944 145.7 177.2C145.7 177.445 145.615 177.653 145.444 177.824C145.284 177.995 145.087 178.08 144.852 178.08ZM153.034 178.096C152.192 178.096 151.408 177.957 150.682 177.68C149.968 177.392 149.344 176.992 148.81 176.48C148.288 175.957 147.877 175.355 147.578 174.672C147.29 173.979 147.146 173.221 147.146 172.4C147.146 171.579 147.29 170.827 147.578 170.144C147.877 169.451 148.288 168.848 148.81 168.336C149.344 167.813 149.968 167.413 150.682 167.136C151.397 166.848 152.181 166.704 153.034 166.704C153.877 166.704 154.656 166.848 155.37 167.136C156.085 167.413 156.704 167.808 157.226 168.32C157.76 168.832 158.17 169.435 158.458 170.128C158.757 170.821 158.906 171.579 158.906 172.4C158.906 173.221 158.757 173.979 158.458 174.672C158.17 175.365 157.76 175.968 157.226 176.48C156.704 176.992 156.085 177.392 155.37 177.68C154.656 177.957 153.877 178.096 153.034 178.096ZM153.034 177.04C153.706 177.04 154.325 176.928 154.89 176.704C155.466 176.469 155.962 176.144 156.378 175.728C156.805 175.301 157.136 174.811 157.37 174.256C157.605 173.691 157.722 173.072 157.722 172.4C157.722 171.728 157.605 171.115 157.37 170.56C157.136 169.995 156.805 169.504 156.378 169.088C155.962 168.661 155.466 168.336 154.89 168.112C154.325 167.877 153.706 167.76 153.034 167.76C152.362 167.76 151.738 167.877 151.162 168.112C150.586 168.336 150.085 168.661 149.658 169.088C149.242 169.504 148.912 169.995 148.666 170.56C148.432 171.115 148.314 171.728 148.314 172.4C148.314 173.061 148.432 173.675 148.666 174.24C148.912 174.805 149.242 175.301 149.658 175.728C150.085 176.144 150.586 176.469 151.162 176.704C151.738 176.928 152.362 177.04 153.034 177.04ZM161.227 178.08C160.993 178.08 160.79 177.995 160.619 177.824C160.459 177.653 160.379 177.445 160.379 177.2C160.379 176.944 160.459 176.736 160.619 176.576C160.79 176.416 160.993 176.336 161.227 176.336C161.462 176.336 161.659 176.416 161.819 176.576C161.99 176.736 162.075 176.944 162.075 177.2C162.075 177.445 161.99 177.653 161.819 177.824C161.659 177.995 161.462 178.08 161.227 178.08Z" fill="#49494F"></path> <path d="M254 223H16V225H254V223Z" fill="#DDDDDD" mask="url(#path-40-inside-2_2148_2838)"></path> <path d="M24.162 253.51V245.096H19.472L19.388 247.476C19.36 248.213 19.3133 248.923 19.248 249.604C19.192 250.276 19.0987 250.883 18.968 251.424C18.8467 251.956 18.6787 252.39 18.464 252.726C18.2587 253.062 17.988 253.258 17.652 253.314L16.518 253.104C16.8913 253.123 17.1993 252.987 17.442 252.698C17.694 252.409 17.8853 252.003 18.016 251.48C18.156 250.957 18.2587 250.346 18.324 249.646C18.3893 248.946 18.436 248.19 18.464 247.378L18.576 244.2H25.184V253.51H24.162ZM16.154 256.198L16.168 253.104H26.654V256.198H25.688V254H17.134L17.12 256.198H16.154ZM31.4742 254.07C30.7088 254.07 30.0368 253.911 29.4582 253.594C28.8795 253.267 28.4268 252.824 28.1002 252.264C27.7735 251.695 27.6102 251.046 27.6102 250.318C27.6102 249.59 27.7642 248.946 28.0722 248.386C28.3895 247.826 28.8188 247.387 29.3602 247.07C29.9108 246.743 30.5268 246.58 31.2082 246.58C31.8988 246.58 32.5102 246.739 33.0422 247.056C33.5835 247.364 34.0082 247.803 34.3162 248.372C34.6242 248.932 34.7782 249.581 34.7782 250.318C34.7782 250.365 34.7735 250.416 34.7642 250.472C34.7642 250.519 34.7642 250.57 34.7642 250.626H28.3662V249.884H34.2322L33.8402 250.178C33.8402 249.646 33.7235 249.175 33.4902 248.764C33.2662 248.344 32.9582 248.017 32.5662 247.784C32.1742 247.551 31.7215 247.434 31.2082 247.434C30.7042 247.434 30.2515 247.551 29.8502 247.784C29.4488 248.017 29.1362 248.344 28.9122 248.764C28.6882 249.184 28.5762 249.665 28.5762 250.206V250.36C28.5762 250.92 28.6975 251.415 28.9402 251.844C29.1922 252.264 29.5375 252.595 29.9762 252.838C30.4242 253.071 30.9328 253.188 31.5022 253.188C31.9502 253.188 32.3655 253.109 32.7482 252.95C33.1402 252.791 33.4762 252.549 33.7562 252.222L34.3162 252.866C33.9895 253.258 33.5788 253.557 33.0842 253.762C32.5988 253.967 32.0622 254.07 31.4742 254.07ZM41.5194 254V251.354L41.7014 251.564H39.2094C38.2667 251.564 37.5294 251.359 36.9974 250.948C36.4654 250.537 36.1994 249.94 36.1994 249.156C36.1994 248.316 36.484 247.691 37.0534 247.28C37.6227 246.86 38.3834 246.65 39.3354 246.65H42.4294V254H41.5194ZM36.1434 254L38.1594 251.172H39.1954L37.2214 254H36.1434ZM41.5194 251.06V247.224L41.7014 247.518H39.3634C38.682 247.518 38.15 247.649 37.7674 247.91C37.394 248.171 37.2074 248.596 37.2074 249.184C37.2074 250.276 37.9027 250.822 39.2934 250.822H41.7014L41.5194 251.06ZM46.6636 254V247.252L46.9156 247.518H43.8776V246.65H50.4436V247.518H47.4056L47.6576 247.252V254H46.6636ZM54.689 254.07C53.9237 254.07 53.2517 253.911 52.673 253.594C52.0943 253.267 51.6417 252.824 51.315 252.264C50.9883 251.695 50.825 251.046 50.825 250.318C50.825 249.59 50.979 248.946 51.287 248.386C51.6043 247.826 52.0337 247.387 52.575 247.07C53.1257 246.743 53.7417 246.58 54.423 246.58C55.1137 246.58 55.725 246.739 56.257 247.056C56.7983 247.364 57.223 247.803 57.531 248.372C57.839 248.932 57.993 249.581 57.993 250.318C57.993 250.365 57.9883 250.416 57.979 250.472C57.979 250.519 57.979 250.57 57.979 250.626H51.581V249.884H57.447L57.055 250.178C57.055 249.646 56.9383 249.175 56.705 248.764C56.481 248.344 56.173 248.017 55.781 247.784C55.389 247.551 54.9363 247.434 54.423 247.434C53.919 247.434 53.4663 247.551 53.065 247.784C52.6637 248.017 52.351 248.344 52.127 248.764C51.903 249.184 51.791 249.665 51.791 250.206V250.36C51.791 250.92 51.9123 251.415 52.155 251.844C52.407 252.264 52.7523 252.595 53.191 252.838C53.639 253.071 54.1477 253.188 54.717 253.188C55.165 253.188 55.5803 253.109 55.963 252.95C56.355 252.791 56.691 252.549 56.971 252.222L57.531 252.866C57.2043 253.258 56.7937 253.557 56.299 253.762C55.8137 253.967 55.277 254.07 54.689 254.07ZM58.6989 253.986L58.7689 253.132C58.8342 253.141 58.8949 253.155 58.9509 253.174C59.0162 253.183 59.0722 253.188 59.1189 253.188C59.4176 253.188 59.6556 253.076 59.8329 252.852C60.0196 252.628 60.1596 252.329 60.2529 251.956C60.3462 251.583 60.4116 251.163 60.4489 250.696C60.4862 250.22 60.5189 249.744 60.5469 249.268L60.6729 246.65H66.0629V254H65.0689V247.224L65.3209 247.518H61.3169L61.5549 247.21L61.4429 249.338C61.4149 249.973 61.3636 250.579 61.2889 251.158C61.2236 251.737 61.1162 252.245 60.9669 252.684C60.8269 253.123 60.6309 253.468 60.3789 253.72C60.1269 253.963 59.8049 254.084 59.4129 254.084C59.3009 254.084 59.1842 254.075 59.0629 254.056C58.9509 254.037 58.8296 254.014 58.6989 253.986ZM72.0526 249.24C72.9766 249.249 73.6766 249.455 74.1526 249.856C74.6379 250.257 74.8806 250.836 74.8806 251.592C74.8806 252.376 74.6193 252.978 74.0966 253.398C73.5833 253.818 72.8366 254.023 71.8566 254.014L68.8886 254V246.65H69.8826V249.212L72.0526 249.24ZM71.8006 253.258C72.4819 253.267 72.9953 253.132 73.3406 252.852C73.6953 252.563 73.8726 252.143 73.8726 251.592C73.8726 251.041 73.6999 250.64 73.3546 250.388C73.0093 250.127 72.4913 249.991 71.8006 249.982L69.8826 249.954V253.23L71.8006 253.258ZM76.7773 254V246.65H77.7713V249.898H82.4053V246.65H83.3993V254H82.4053V250.752H77.7713V254H76.7773ZM89.2485 254.07C88.5392 254.07 87.8999 253.911 87.3305 253.594C86.7705 253.267 86.3272 252.824 86.0005 252.264C85.6739 251.695 85.5105 251.046 85.5105 250.318C85.5105 249.581 85.6739 248.932 86.0005 248.372C86.3272 247.812 86.7705 247.373 87.3305 247.056C87.8905 246.739 88.5299 246.58 89.2485 246.58C89.9765 246.58 90.6205 246.739 91.1805 247.056C91.7499 247.373 92.1932 247.812 92.5105 248.372C92.8372 248.932 93.0005 249.581 93.0005 250.318C93.0005 251.046 92.8372 251.695 92.5105 252.264C92.1932 252.824 91.7499 253.267 91.1805 253.594C90.6112 253.911 89.9672 254.07 89.2485 254.07ZM89.2485 253.188C89.7805 253.188 90.2519 253.071 90.6625 252.838C91.0732 252.595 91.3952 252.259 91.6285 251.83C91.8712 251.391 91.9925 250.887 91.9925 250.318C91.9925 249.739 91.8712 249.235 91.6285 248.806C91.3952 248.377 91.0732 248.045 90.6625 247.812C90.2519 247.569 89.7852 247.448 89.2625 247.448C88.7399 247.448 88.2732 247.569 87.8625 247.812C87.4519 248.045 87.1252 248.377 86.8825 248.806C86.6399 249.235 86.5185 249.739 86.5185 250.318C86.5185 250.887 86.6399 251.391 86.8825 251.83C87.1252 252.259 87.4519 252.595 87.8625 252.838C88.2732 253.071 88.7352 253.188 89.2485 253.188ZM98.2049 254.07C97.4769 254.07 96.8236 253.911 96.2449 253.594C95.6756 253.267 95.2276 252.824 94.9009 252.264C94.5743 251.695 94.4109 251.046 94.4109 250.318C94.4109 249.581 94.5743 248.932 94.9009 248.372C95.2276 247.812 95.6756 247.373 96.2449 247.056C96.8236 246.739 97.4769 246.58 98.2049 246.58C98.8303 246.58 99.3949 246.701 99.8989 246.944C100.403 247.187 100.8 247.551 101.089 248.036L100.347 248.54C100.095 248.167 99.7823 247.891 99.4089 247.714C99.0356 247.537 98.6296 247.448 98.1909 247.448C97.6683 247.448 97.1969 247.569 96.7769 247.812C96.3569 248.045 96.0256 248.377 95.7829 248.806C95.5403 249.235 95.4189 249.739 95.4189 250.318C95.4189 250.897 95.5403 251.401 95.7829 251.83C96.0256 252.259 96.3569 252.595 96.7769 252.838C97.1969 253.071 97.6683 253.188 98.1909 253.188C98.6296 253.188 99.0356 253.099 99.4089 252.922C99.7823 252.745 100.095 252.474 100.347 252.11L101.089 252.614C100.8 253.09 100.403 253.454 99.8989 253.706C99.3949 253.949 98.8303 254.07 98.2049 254.07ZM104.277 254V247.252L104.529 247.518H101.491V246.65H108.057V247.518H105.019L105.271 247.252V254H104.277ZM112.658 249.24C113.582 249.249 114.282 249.455 114.758 249.856C115.243 250.257 115.486 250.836 115.486 251.592C115.486 252.376 115.225 252.978 114.702 253.398C114.189 253.818 113.442 254.023 112.462 254.014L109.494 254V246.65H110.488V249.212L112.658 249.24ZM112.406 253.258C113.087 253.267 113.601 253.132 113.946 252.852C114.301 252.563 114.478 252.143 114.478 251.592C114.478 251.041 114.305 250.64 113.96 250.388C113.615 250.127 113.097 249.991 112.406 249.982L110.488 249.954V253.23L112.406 253.258ZM124.841 254.07C124.206 254.07 123.632 253.925 123.119 253.636C122.605 253.337 122.195 252.913 121.887 252.362C121.588 251.802 121.439 251.121 121.439 250.318C121.439 249.515 121.588 248.839 121.887 248.288C122.185 247.728 122.591 247.303 123.105 247.014C123.618 246.725 124.197 246.58 124.841 246.58C125.541 246.58 126.166 246.739 126.717 247.056C127.277 247.364 127.715 247.803 128.033 248.372C128.35 248.932 128.509 249.581 128.509 250.318C128.509 251.065 128.35 251.718 128.033 252.278C127.715 252.838 127.277 253.277 126.717 253.594C126.166 253.911 125.541 254.07 124.841 254.07ZM121.047 256.716V246.65H121.999V248.862L121.901 250.332L122.041 251.816V256.716H121.047ZM124.771 253.188C125.293 253.188 125.76 253.071 126.171 252.838C126.581 252.595 126.908 252.259 127.151 251.83C127.393 251.391 127.515 250.887 127.515 250.318C127.515 249.749 127.393 249.249 127.151 248.82C126.908 248.391 126.581 248.055 126.171 247.812C125.76 247.569 125.293 247.448 124.771 247.448C124.248 247.448 123.777 247.569 123.357 247.812C122.946 248.055 122.619 248.391 122.377 248.82C122.143 249.249 122.027 249.749 122.027 250.318C122.027 250.887 122.143 251.391 122.377 251.83C122.619 252.259 122.946 252.595 123.357 252.838C123.777 253.071 124.248 253.188 124.771 253.188ZM133.794 254.07C133.029 254.07 132.357 253.911 131.778 253.594C131.2 253.267 130.747 252.824 130.42 252.264C130.094 251.695 129.93 251.046 129.93 250.318C129.93 249.59 130.084 248.946 130.392 248.386C130.71 247.826 131.139 247.387 131.68 247.07C132.231 246.743 132.847 246.58 133.528 246.58C134.219 246.58 134.83 246.739 135.362 247.056C135.904 247.364 136.328 247.803 136.636 248.372C136.944 248.932 137.098 249.581 137.098 250.318C137.098 250.365 137.094 250.416 137.084 250.472C137.084 250.519 137.084 250.57 137.084 250.626H130.686V249.884H136.552L136.16 250.178C136.16 249.646 136.044 249.175 135.81 248.764C135.586 248.344 135.278 248.017 134.886 247.784C134.494 247.551 134.042 247.434 133.528 247.434C133.024 247.434 132.572 247.551 132.17 247.784C131.769 248.017 131.456 248.344 131.232 248.764C131.008 249.184 130.896 249.665 130.896 250.206V250.36C130.896 250.92 131.018 251.415 131.26 251.844C131.512 252.264 131.858 252.595 132.296 252.838C132.744 253.071 133.253 253.188 133.822 253.188C134.27 253.188 134.686 253.109 135.068 252.95C135.46 252.791 135.796 252.549 136.076 252.222L136.636 252.866C136.31 253.258 135.899 253.557 135.404 253.762C134.919 253.967 134.382 254.07 133.794 254.07ZM144.689 254L141.665 250.36L142.491 249.87L145.865 254H144.689ZM139.299 254V246.65H140.293V254H139.299ZM139.985 250.724V249.87H142.351V250.724H139.985ZM142.575 250.43L141.651 250.29L144.577 246.65H145.655L142.575 250.43ZM146.09 253.986L146.16 253.132C146.225 253.141 146.286 253.155 146.342 253.174C146.407 253.183 146.463 253.188 146.51 253.188C146.808 253.188 147.046 253.076 147.224 252.852C147.41 252.628 147.55 252.329 147.644 251.956C147.737 251.583 147.802 251.163 147.84 250.696C147.877 250.22 147.91 249.744 147.938 249.268L148.064 246.65H153.454V254H152.46V247.224L152.712 247.518H148.708L148.946 247.21L148.834 249.338C148.806 249.973 148.754 250.579 148.68 251.158C148.614 251.737 148.507 252.245 148.358 252.684C148.218 253.123 148.022 253.468 147.77 253.72C147.518 253.963 147.196 254.084 146.804 254.084C146.692 254.084 146.575 254.075 146.454 254.056C146.342 254.037 146.22 254.014 146.09 253.986ZM160.843 254V252.376L160.801 252.11V249.394C160.801 248.769 160.624 248.288 160.269 247.952C159.924 247.616 159.406 247.448 158.715 247.448C158.239 247.448 157.787 247.527 157.357 247.686C156.928 247.845 156.564 248.055 156.265 248.316L155.817 247.574C156.191 247.257 156.639 247.014 157.161 246.846C157.684 246.669 158.235 246.58 158.813 246.58C159.765 246.58 160.498 246.818 161.011 247.294C161.534 247.761 161.795 248.475 161.795 249.436V254H160.843ZM158.309 254.07C157.759 254.07 157.278 253.981 156.867 253.804C156.466 253.617 156.158 253.365 155.943 253.048C155.729 252.721 155.621 252.348 155.621 251.928C155.621 251.545 155.71 251.2 155.887 250.892C156.074 250.575 156.373 250.323 156.783 250.136C157.203 249.94 157.763 249.842 158.463 249.842H160.997V250.584H158.491C157.782 250.584 157.287 250.71 157.007 250.962C156.737 251.214 156.601 251.527 156.601 251.9C156.601 252.32 156.765 252.656 157.091 252.908C157.418 253.16 157.875 253.286 158.463 253.286C159.023 253.286 159.504 253.16 159.905 252.908C160.316 252.647 160.615 252.273 160.801 251.788L161.025 252.474C160.839 252.959 160.512 253.347 160.045 253.636C159.588 253.925 159.009 254.07 158.309 254.07ZM164.441 254V246.65H165.449L168.781 252.292H168.361L171.749 246.65H172.673V254H171.763V247.784L171.945 247.868L168.781 253.104H168.333L165.141 247.812L165.351 247.77V254H164.441ZM175.502 254V246.65H176.496V249.898H181.13V246.65H182.124V254H181.13V250.752H176.496V254H175.502ZM192.117 254V246.65H193.111V254H192.117ZM188.043 249.24C188.967 249.249 189.672 249.455 190.157 249.856C190.642 250.257 190.885 250.836 190.885 251.592C190.885 252.376 190.624 252.978 190.101 253.398C189.578 253.818 188.832 254.023 187.861 254.014L184.949 254V246.65H185.943V249.212L188.043 249.24ZM187.791 253.258C188.482 253.267 189 253.132 189.345 252.852C189.7 252.563 189.877 252.143 189.877 251.592C189.877 251.041 189.704 250.64 189.359 250.388C189.014 250.127 188.491 249.991 187.791 249.982L185.943 249.954V253.23L187.791 253.258ZM194.737 254L197.845 249.968L197.831 250.458L194.877 246.65H195.997L198.419 249.8L197.999 249.786L200.421 246.65H201.513L198.531 250.5L198.545 249.968L201.681 254H200.547L197.985 250.64L198.377 250.696L195.857 254H194.737ZM211.539 254V252.376L211.497 252.11V249.394C211.497 248.769 211.319 248.288 210.965 247.952C210.619 247.616 210.101 247.448 209.411 247.448C208.935 247.448 208.482 247.527 208.053 247.686C207.623 247.845 207.259 248.055 206.961 248.316L206.513 247.574C206.886 247.257 207.334 247.014 207.857 246.846C208.379 246.669 208.93 246.58 209.509 246.58C210.461 246.58 211.193 246.818 211.707 247.294C212.229 247.761 212.491 248.475 212.491 249.436V254H211.539ZM209.005 254.07C208.454 254.07 207.973 253.981 207.563 253.804C207.161 253.617 206.853 253.365 206.639 253.048C206.424 252.721 206.317 252.348 206.317 251.928C206.317 251.545 206.405 251.2 206.583 250.892C206.769 250.575 207.068 250.323 207.479 250.136C207.899 249.94 208.459 249.842 209.159 249.842H211.693V250.584H209.187C208.477 250.584 207.983 250.71 207.703 250.962C207.432 251.214 207.297 251.527 207.297 251.9C207.297 252.32 207.46 252.656 207.787 252.908C208.113 253.16 208.571 253.286 209.159 253.286C209.719 253.286 210.199 253.16 210.601 252.908C211.011 252.647 211.31 252.273 211.497 251.788L211.721 252.474C211.534 252.959 211.207 253.347 210.741 253.636C210.283 253.925 209.705 254.07 209.005 254.07ZM215.137 254V246.65H220.345V247.518H215.879L216.131 247.266V254H215.137ZM224.589 254.07C223.824 254.07 223.152 253.911 222.573 253.594C221.995 253.267 221.542 252.824 221.215 252.264C220.889 251.695 220.725 251.046 220.725 250.318C220.725 249.59 220.879 248.946 221.187 248.386C221.505 247.826 221.934 247.387 222.475 247.07C223.026 246.743 223.642 246.58 224.323 246.58C225.014 246.58 225.625 246.739 226.157 247.056C226.699 247.364 227.123 247.803 227.431 248.372C227.739 248.932 227.893 249.581 227.893 250.318C227.893 250.365 227.889 250.416 227.879 250.472C227.879 250.519 227.879 250.57 227.879 250.626H221.481V249.884H227.347L226.955 250.178C226.955 249.646 226.839 249.175 226.605 248.764C226.381 248.344 226.073 248.017 225.681 247.784C225.289 247.551 224.837 247.434 224.323 247.434C223.819 247.434 223.367 247.551 222.965 247.784C222.564 248.017 222.251 248.344 222.027 248.764C221.803 249.184 221.691 249.665 221.691 250.206V250.36C221.691 250.92 221.813 251.415 222.055 251.844C222.307 252.264 222.653 252.595 223.091 252.838C223.539 253.071 224.048 253.188 224.617 253.188C225.065 253.188 225.481 253.109 225.863 252.95C226.255 252.791 226.591 252.549 226.871 252.222L227.431 252.866C227.105 253.258 226.694 253.557 226.199 253.762C225.714 253.967 225.177 254.07 224.589 254.07ZM230.094 254V246.65H231.088V249.898H235.722V246.65H236.716V254H235.722V250.752H231.088V254H230.094ZM240.941 254V247.252L241.193 247.518H238.155V246.65H244.721V247.518H241.683L241.935 247.252V254H240.941ZM248.896 254.07C248.168 254.07 247.515 253.911 246.936 253.594C246.367 253.267 245.919 252.824 245.592 252.264C245.266 251.695 245.102 251.046 245.102 250.318C245.102 249.581 245.266 248.932 245.592 248.372C245.919 247.812 246.367 247.373 246.936 247.056C247.515 246.739 248.168 246.58 248.896 246.58C249.522 246.58 250.086 246.701 250.59 246.944C251.094 247.187 251.491 247.551 251.78 248.036L251.038 248.54C250.786 248.167 250.474 247.891 250.1 247.714C249.727 247.537 249.321 247.448 248.882 247.448C248.36 247.448 247.888 247.569 247.468 247.812C247.048 248.045 246.717 248.377 246.474 248.806C246.232 249.235 246.11 249.739 246.11 250.318C246.11 250.897 246.232 251.401 246.474 251.83C246.717 252.259 247.048 252.595 247.468 252.838C247.888 253.071 248.36 253.188 248.882 253.188C249.321 253.188 249.727 253.099 250.1 252.922C250.474 252.745 250.786 252.474 251.038 252.11L251.78 252.614C251.491 253.09 251.094 253.454 250.59 253.706C250.086 253.949 249.522 254.07 248.896 254.07ZM254.968 254V247.252L255.22 247.518H252.182V246.65H258.748V247.518H255.71L255.962 247.252V254H254.968ZM260.185 254V246.65H263.433C264.264 246.65 264.917 246.809 265.393 247.126C265.879 247.443 266.121 247.91 266.121 248.526C266.121 249.123 265.893 249.585 265.435 249.912C264.978 250.229 264.376 250.388 263.629 250.388L263.825 250.094C264.703 250.094 265.347 250.257 265.757 250.584C266.168 250.911 266.373 251.382 266.373 251.998C266.373 252.633 266.14 253.127 265.673 253.482C265.216 253.827 264.502 254 263.531 254H260.185ZM261.151 253.216H263.489C264.115 253.216 264.586 253.118 264.903 252.922C265.23 252.717 265.393 252.39 265.393 251.942C265.393 251.494 265.249 251.167 264.959 250.962C264.67 250.757 264.213 250.654 263.587 250.654H261.151V253.216ZM261.151 249.912H263.363C263.933 249.912 264.367 249.805 264.665 249.59C264.973 249.375 265.127 249.063 265.127 248.652C265.127 248.241 264.973 247.933 264.665 247.728C264.367 247.523 263.933 247.42 263.363 247.42H261.151V249.912Z" fill="#49494F"></path> <rect x="0.5" y="0.5" width="269" height="281" rx="15.5" stroke="#E2E4E7"></rect> </svg> 