<?xml version="1.0" encoding="UTF-8"?> <svg xmlns="http://www.w3.org/2000/svg" width="56" height="56" viewBox="0 0 56 56" fill="none"> <rect y="-9.15527e-05" width="56" height="56" rx="16" fill="#FAFAFA"></rect> <path d="M35 20.9999L21 34.9999" stroke="#54A9C8" stroke-width="2" stroke-linecap="round" stroke-linejoin="round"></path> <path d="M22.5 24.9999C23.8807 24.9999 25 23.8806 25 22.4999C25 21.1192 23.8807 19.9999 22.5 19.9999C21.1193 19.9999 20 21.1192 20 22.4999C20 23.8806 21.1193 24.9999 22.5 24.9999Z" fill="#54A9C8" stroke="#54A9C8" stroke-width="2" stroke-linecap="round" stroke-linejoin="round"></path> <path d="M33.5 35.9999C34.8807 35.9999 36 34.8806 36 33.4999C36 32.1192 34.8807 30.9999 33.5 30.9999C32.1193 30.9999 31 32.1192 31 33.4999C31 34.8806 32.1193 35.9999 33.5 35.9999Z" fill="#54A9C8" stroke="#54A9C8" stroke-width="2" stroke-linecap="round" stroke-linejoin="round"></path> </svg> 