<?xml version="1.0" encoding="UTF-8"?> <svg xmlns="http://www.w3.org/2000/svg" width="56" height="56" viewBox="0 0 56 56" fill="none"> <rect y="-9.15527e-05" width="56" height="56" rx="16" fill="#FAFAFA"></rect> <path d="M37.2099 31.8899C36.5737 33.3944 35.5787 34.7201 34.3118 35.7512C33.0449 36.7823 31.5447 37.4873 29.9424 37.8047C28.34 38.122 26.6843 38.0421 25.1201 37.5717C23.5558 37.1014 22.1305 36.255 20.9689 35.1066C19.8073 33.9581 18.9447 32.5427 18.4565 30.9839C17.9684 29.4251 17.8695 27.7704 18.1685 26.1645C18.4675 24.5587 19.1554 23.0505 20.172 21.7719C21.1885 20.4933 22.5028 19.4832 23.9999 18.8299" stroke="#54A9C8" stroke-width="2" stroke-linecap="round" stroke-linejoin="round"></path> <path d="M38 27.9999C38 26.6867 37.7413 25.3863 37.2388 24.1731C36.7362 22.9598 35.9997 21.8574 35.0711 20.9288C34.1425 20.0003 33.0401 19.2637 31.8268 18.7611C30.6136 18.2586 29.3132 17.9999 28 17.9999V27.9999H38Z" fill="#54A9C8" stroke="#54A9C8" stroke-width="2" stroke-linecap="round" stroke-linejoin="round"></path> </svg> 