<?xml version="1.0" encoding="UTF-8"?> <svg xmlns="http://www.w3.org/2000/svg" width="153" height="36" viewBox="0 0 153 36" fill="none"> <path d="M32 2H0V34H32V2Z" fill="#4AA9F5"></path> <path d="M25.5916 23.7606H6.39437V19.9155H25.5916V23.7606ZM25.5916 16.0845H6.39437V12.2394H25.5916V16.0845Z" fill="white"></path> <path d="M105.294 20.2669C106.265 15.2643 103.671 12.0102 99.6693 12.0102C98.751 11.9774 97.8358 12.1345 96.9811 12.4718C96.1264 12.8092 95.3505 13.3193 94.7022 13.9705C94.0538 14.6216 93.5469 15.3996 93.2132 16.2557C92.8795 17.1118 92.7261 18.0276 92.7628 18.9458C92.7628 23.2587 96.0947 25.9105 100.097 25.9105C101.868 25.9754 103.618 25.5049 105.119 24.5603V21.5685C103.834 22.3236 102.373 22.7257 100.884 22.7341C98.7562 22.7341 97.0563 21.9473 96.5415 20.2669H105.294ZM99.5625 14.9535C101.282 14.9535 102.69 16.158 102.545 17.5956H96.4929C96.5622 16.8432 96.921 16.1471 97.4937 15.6541C98.0664 15.1612 98.8081 14.91 99.5625 14.9535Z" fill="white"></path> <path d="M58.2986 18.9749C58.2986 22.8604 55.7342 25.9105 52.0818 25.9105C51.2566 25.9486 50.4339 25.7928 49.6798 25.4554C48.9258 25.118 48.2613 24.6085 47.7398 23.9678V30H44V12.321H46.8558L47.7398 13.9724C48.2571 13.3269 48.9209 12.814 49.676 12.4761C50.4311 12.1383 51.2558 11.9852 52.0818 12.0296C55.7342 12.0102 58.2986 15.0797 58.2986 18.9749ZM47.7398 17.2556V20.6943C48.0647 21.2809 48.5403 21.7702 49.1174 22.1117C49.6946 22.4532 50.3524 22.6346 51.023 22.637C51.5023 22.6414 51.9775 22.5482 52.4197 22.3633C52.8618 22.1783 53.2618 21.9053 53.5952 21.561C53.9287 21.2167 54.1886 20.8081 54.3593 20.3602C54.5299 19.9123 54.6077 19.4344 54.588 18.9555C54.6078 18.4737 54.5292 17.9928 54.3569 17.5424C54.1845 17.092 53.9221 16.6815 53.5857 16.336C53.2493 15.9905 52.8459 15.7173 52.4003 15.533C51.9546 15.3487 51.4761 15.2573 50.9939 15.2643C50.3225 15.2726 49.6657 15.462 49.093 15.8125C48.5202 16.1629 48.0527 16.6615 47.7398 17.2556Z" fill="white"></path> <path d="M77.2209 25.5608V12.321H80.067L80.951 13.9432C81.5061 13.3224 82.1878 12.8278 82.9502 12.4927C83.7126 12.1576 84.538 11.9897 85.3707 12.0005C88.4694 12.0005 90.2276 14.1181 90.2276 17.4596V25.5511H86.4101V18.2367C86.4101 15.954 85.0307 15.4294 83.8942 15.4294C83.295 15.4587 82.7113 15.6298 82.1912 15.9287C81.6711 16.2276 81.2293 16.6458 80.9024 17.1488V25.5608H77.2209Z" fill="white"></path> <path d="M109.014 25.5608V12.321H111.86L112.744 13.9432C113.299 13.3224 113.981 12.8278 114.743 12.4927C115.506 12.1576 116.331 11.9897 117.164 12.0005C120.262 12.0005 122.021 14.1181 122.021 17.4596V25.5511H118.29V18.2367C118.29 15.954 116.911 15.4294 115.775 15.4294C115.175 15.4587 114.592 15.6298 114.072 15.9287C113.551 16.2276 113.11 16.6458 112.783 17.1488V25.5608H109.014Z" fill="white"></path> <path d="M124.634 23.8027L131.297 15.4489H125.051V12.321H136.407V14.1181L129.675 22.4816H136.795V25.5997H124.634V23.8027Z" fill="white"></path> <path d="M138.602 18.9458C138.602 15.0603 141.166 12.0102 144.819 12.0102C145.644 11.9721 146.467 12.128 147.221 12.4654C147.975 12.8028 148.639 13.3123 149.161 13.9529L150.045 12.3016H152.891V25.5608H150.074L149.19 23.9484C148.672 24.5938 148.009 25.1067 147.254 25.4446C146.499 25.7824 145.674 25.9355 144.848 25.8911C141.166 25.9105 138.602 22.841 138.602 18.9458ZM149.161 20.6651V17.2265C148.836 16.6398 148.36 16.1505 147.783 15.809C147.206 15.4675 146.548 15.2862 145.877 15.2837C145.399 15.2795 144.925 15.3721 144.484 15.5557C144.043 15.7394 143.643 16.0104 143.309 16.3525C142.975 16.6946 142.714 17.1007 142.541 17.5463C142.368 17.992 142.287 18.468 142.303 18.9458C142.28 19.4276 142.356 19.9089 142.526 20.3602C142.696 20.8116 142.956 21.2236 143.291 21.5709C143.626 21.9182 144.028 22.1937 144.472 22.3803C144.917 22.567 145.395 22.6609 145.877 22.6564C146.554 22.6534 147.217 22.4665 147.795 22.1157C148.373 21.7649 148.845 21.2635 149.161 20.6651Z" fill="white"></path> <path d="M73.452 20.2669C74.4233 15.2643 71.8298 12.0102 67.8277 12.0102C66.9119 11.9815 65.9999 12.1417 65.1486 12.4808C64.2973 12.8199 63.5251 13.3308 62.8799 13.9814C62.2346 14.6321 61.7304 15.4087 61.3984 16.2628C61.0665 17.1169 60.914 18.0302 60.9504 18.9458C60.9504 23.2587 64.2822 25.9105 68.2746 25.9105C70.0591 25.9815 71.8234 25.5108 73.3354 24.5603V21.5685C72.0511 22.3236 70.59 22.7257 69.1002 22.7341C66.9729 22.7341 65.273 21.9473 64.7582 20.2669H73.452ZM67.6723 14.9535C69.3916 14.9535 70.8001 16.158 70.6544 17.5956H64.6514C64.7204 16.852 65.0724 16.1632 65.6345 15.6716C66.1967 15.1799 66.9261 14.9229 67.6723 14.9535Z" fill="white"></path> </svg> 