<?xml version="1.0" encoding="UTF-8"?> <svg xmlns="http://www.w3.org/2000/svg" width="50" height="50" viewBox="0 0 50 50" fill="none"> <circle cx="25" cy="25" r="24" stroke="#DDDDDD" stroke-width="2" stroke-linecap="round" stroke-linejoin="round" stroke-dasharray="1 4"></circle> <path d="M25.7375 33.22C24.3442 33.22 23.1488 32.9267 22.1515 32.34C21.1542 31.7387 20.3915 30.8733 19.8635 29.744C19.3355 28.6147 19.0715 27.2213 19.0715 25.564C19.0715 23.804 19.3868 22.3153 20.0175 21.098C20.6628 19.8807 21.5502 18.9567 22.6795 18.326C23.8235 17.6953 25.1362 17.38 26.6175 17.38C27.3948 17.38 28.1355 17.4607 28.8395 17.622C29.5582 17.7833 30.1668 18.0327 30.6655 18.37L29.6095 20.526C29.1842 20.2473 28.7222 20.0567 28.2235 19.954C27.7395 19.8367 27.2262 19.778 26.6835 19.778C25.2315 19.778 24.0802 20.2253 23.2295 21.12C22.3788 22.0147 21.9535 23.3347 21.9535 25.08C21.9535 25.3587 21.9608 25.6887 21.9755 26.07C21.9902 26.4367 22.0415 26.8107 22.1295 27.192L21.2495 26.224C21.5135 25.6227 21.8728 25.124 22.3275 24.728C22.7968 24.3173 23.3468 24.0093 23.9775 23.804C24.6228 23.5987 25.3195 23.496 26.0675 23.496C27.0795 23.496 27.9815 23.694 28.7735 24.09C29.5655 24.4713 30.1962 25.0213 30.6655 25.74C31.1348 26.444 31.3695 27.2727 31.3695 28.226C31.3695 29.238 31.1202 30.118 30.6215 30.866C30.1228 31.614 29.4482 32.1933 28.5975 32.604C27.7468 33.0147 26.7935 33.22 25.7375 33.22ZM25.5835 30.976C26.1702 30.976 26.6908 30.8733 27.1455 30.668C27.6002 30.448 27.9522 30.14 28.2015 29.744C28.4655 29.348 28.5975 28.886 28.5975 28.358C28.5975 27.5513 28.3188 26.9133 27.7615 26.444C27.2042 25.9747 26.4562 25.74 25.5175 25.74C24.9015 25.74 24.3588 25.8573 23.8895 26.092C23.4348 26.312 23.0682 26.62 22.7895 27.016C22.5255 27.412 22.3935 27.8667 22.3935 28.38C22.3935 28.8493 22.5182 29.282 22.7675 29.678C23.0168 30.074 23.3762 30.3893 23.8455 30.624C24.3295 30.8587 24.9088 30.976 25.5835 30.976Z" fill="#161617"></path> </svg> 