<?xml version="1.0" encoding="UTF-8"?> <svg xmlns="http://www.w3.org/2000/svg" width="50" height="50" viewBox="0 0 50 50" fill="none"> <circle cx="25" cy="25" r="24" stroke="#DDDDDD" stroke-width="2" stroke-linecap="round" stroke-linejoin="round" stroke-dasharray="1 4"></circle> <path d="M24.6482 33.22C23.5628 33.22 22.4995 33.066 21.4582 32.758C20.4315 32.4353 19.5662 31.9953 18.8622 31.438L20.0722 29.216C20.6295 29.6707 21.3042 30.0373 22.0962 30.316C22.9028 30.5947 23.7388 30.734 24.6042 30.734C25.6162 30.734 26.4082 30.5213 26.9802 30.096C27.5668 29.6707 27.8602 29.0987 27.8602 28.38C27.8602 27.896 27.7355 27.4707 27.4862 27.104C27.2515 26.7373 26.8262 26.4587 26.2102 26.268C25.6088 26.0773 24.7802 25.982 23.7242 25.982H20.0062L20.7982 17.6H29.8402V19.998H21.8542L23.3502 18.634L22.7562 24.904L21.2602 23.562H24.3622C25.8875 23.562 27.1122 23.7673 28.0362 24.178C28.9748 24.574 29.6568 25.1313 30.0822 25.85C30.5222 26.554 30.7422 27.3607 30.7422 28.27C30.7422 29.1647 30.5222 29.986 30.0822 30.734C29.6422 31.482 28.9675 32.0833 28.0582 32.538C27.1635 32.9927 26.0268 33.22 24.6482 33.22Z" fill="#161617"></path> </svg> 