<?xml version="1.0" encoding="UTF-8"?> <svg xmlns="http://www.w3.org/2000/svg" width="50" height="50" viewBox="0 0 50 50" fill="none"> <circle cx="25" cy="25" r="24" stroke="#DDDDDD" stroke-width="2" stroke-linecap="round" stroke-linejoin="round" stroke-dasharray="1 4"></circle> <path d="M19.3677 33V31.086L25.4837 25.278C25.997 24.794 26.3783 24.3687 26.6277 24.002C26.877 23.6353 27.0383 23.298 27.1117 22.99C27.1997 22.6673 27.2437 22.3667 27.2437 22.088C27.2437 21.384 27.0017 20.8413 26.5177 20.46C26.0337 20.064 25.3223 19.866 24.3837 19.866C23.6357 19.866 22.9537 19.998 22.3377 20.262C21.7363 20.526 21.2157 20.9293 20.7757 21.472L18.7737 19.932C19.375 19.1253 20.1817 18.502 21.1937 18.062C22.2203 17.6073 23.3643 17.38 24.6257 17.38C25.7403 17.38 26.7083 17.5633 27.5297 17.93C28.3657 18.282 29.0037 18.788 29.4437 19.448C29.8983 20.108 30.1257 20.8927 30.1257 21.802C30.1257 22.3007 30.0597 22.7993 29.9277 23.298C29.7957 23.782 29.5463 24.2953 29.1797 24.838C28.813 25.3807 28.2777 25.9893 27.5737 26.664L22.3157 31.658L21.7217 30.58H30.7197V33H19.3677Z" fill="#161617"></path> </svg> 