<?xml version="1.0" encoding="UTF-8"?> <svg xmlns="http://www.w3.org/2000/svg" width="50" height="50" viewBox="0 0 50 50" fill="none"> <circle cx="25" cy="25" r="24" stroke="#DDDDDD" stroke-width="2" stroke-linecap="round" stroke-linejoin="round" stroke-dasharray="1 4"></circle> <path d="M24.9742 33.22C23.6982 33.22 22.5909 33.0293 21.6522 32.648C20.7136 32.2667 19.9876 31.7313 19.4742 31.042C18.9609 30.338 18.7042 29.5167 18.7042 28.578C18.7042 27.6393 18.9536 26.8473 19.4522 26.202C19.9509 25.5567 20.6696 25.0653 21.6082 24.728C22.5469 24.3907 23.6689 24.222 24.9742 24.222C26.2796 24.222 27.4016 24.3907 28.3402 24.728C29.2936 25.0653 30.0196 25.564 30.5182 26.224C31.0316 26.8693 31.2882 27.654 31.2882 28.578C31.2882 29.5167 31.0242 30.338 30.4962 31.042C29.9829 31.7313 29.2496 32.2667 28.2962 32.648C27.3576 33.0293 26.2502 33.22 24.9742 33.22ZM24.9742 30.976C26.0302 30.976 26.8662 30.756 27.4822 30.316C28.0982 29.876 28.4062 29.2673 28.4062 28.49C28.4062 27.7273 28.0982 27.126 27.4822 26.686C26.8662 26.246 26.0302 26.026 24.9742 26.026C23.9182 26.026 23.0896 26.246 22.4882 26.686C21.8869 27.126 21.5862 27.7273 21.5862 28.49C21.5862 29.2673 21.8869 29.876 22.4882 30.316C23.0896 30.756 23.9182 30.976 24.9742 30.976ZM24.9742 25.718C23.7862 25.718 22.7669 25.564 21.9162 25.256C21.0656 24.9333 20.4056 24.4713 19.9362 23.87C19.4816 23.254 19.2542 22.5207 19.2542 21.67C19.2542 20.79 19.4889 20.0347 19.9582 19.404C20.4422 18.7587 21.1169 18.26 21.9822 17.908C22.8476 17.556 23.8449 17.38 24.9742 17.38C26.1182 17.38 27.1229 17.556 27.9882 17.908C28.8536 18.26 29.5282 18.7587 30.0122 19.404C30.4962 20.0347 30.7382 20.79 30.7382 21.67C30.7382 22.5207 30.5036 23.254 30.0342 23.87C29.5796 24.4713 28.9196 24.9333 28.0542 25.256C27.1889 25.564 26.1622 25.718 24.9742 25.718ZM24.9742 23.958C25.8836 23.958 26.6022 23.7673 27.1302 23.386C27.6582 22.99 27.9222 22.462 27.9222 21.802C27.9222 21.1127 27.6509 20.5773 27.1082 20.196C26.5656 19.8147 25.8542 19.624 24.9742 19.624C24.0942 19.624 23.3902 19.8147 22.8622 20.196C22.3342 20.5773 22.0702 21.1127 22.0702 21.802C22.0702 22.462 22.3269 22.99 22.8402 23.386C23.3682 23.7673 24.0796 23.958 24.9742 23.958Z" fill="#161617"></path> </svg> 