<?xml version="1.0" encoding="UTF-8"?> <svg xmlns="http://www.w3.org/2000/svg" width="50" height="50" viewBox="0 0 50 50" fill="none"> <circle cx="25" cy="25" r="24" stroke="#DDDDDD" stroke-width="2" stroke-linecap="round" stroke-linejoin="round" stroke-dasharray="1 4"></circle> <path d="M24.4057 33.22C23.3203 33.22 22.257 33.066 21.2157 32.758C20.189 32.4353 19.3237 31.9953 18.6197 31.438L19.8517 29.216C20.409 29.6707 21.0837 30.0373 21.8757 30.316C22.6677 30.5947 23.4963 30.734 24.3617 30.734C25.3883 30.734 26.1877 30.5287 26.7597 30.118C27.3317 29.6927 27.6177 29.1207 27.6177 28.402C27.6177 27.698 27.3537 27.1407 26.8257 26.73C26.2977 26.3193 25.447 26.114 24.2737 26.114H22.8657V24.156L27.2657 18.92L27.6397 19.998H19.3677V17.6H29.8617V19.514L25.4617 24.75L23.9657 23.87H24.8237C26.7157 23.87 28.131 24.2953 29.0697 25.146C30.023 25.982 30.4997 27.06 30.4997 28.38C30.4997 29.2453 30.2797 30.0447 29.8397 30.778C29.3997 31.5113 28.725 32.1053 27.8157 32.56C26.921 33 25.7843 33.22 24.4057 33.22Z" fill="#161617"></path> </svg> 