<?xml version="1.0" encoding="UTF-8"?> <svg xmlns="http://www.w3.org/2000/svg" width="219" height="34" viewBox="0 0 219 34" fill="none"> <path d="M19.572 33.576C15.796 33.576 12.5 32.92 9.684 31.608C6.868 30.296 4.676 28.424 3.108 25.992C1.572 23.56 0.804 20.728 0.804 17.496V17.064C0.804 13.832 1.572 11 3.108 8.568C4.676 6.136 6.868 4.264 9.684 2.952C12.532 1.608 15.828 0.935998 19.572 0.935998C23.348 0.935998 26.644 1.608 29.46 2.952C32.276 4.264 34.452 6.136 35.988 8.568C37.524 11 38.292 13.832 38.292 17.064V17.496C38.292 20.728 37.524 23.56 35.988 25.992C34.452 28.424 32.276 30.296 29.46 31.608C26.644 32.92 23.348 33.576 19.572 33.576ZM19.572 26.904C23.284 26.904 26.1 26.104 28.02 24.504C29.972 22.904 30.948 20.6 30.948 17.592V17.016C30.948 14.008 29.956 11.688 27.972 10.056C26.02 8.424 23.22 7.608 19.572 7.608C15.892 7.608 13.06 8.424 11.076 10.056C9.124 11.688 8.148 14.008 8.148 17.016V17.592C8.148 20.6 9.124 22.904 11.076 24.504C13.06 26.104 15.892 26.904 19.572 26.904ZM41.2658 15.192V8.952H69.0098V15.192H58.6898V33H51.6818V15.192H41.2658ZM95.7885 20.808C96.9725 21.352 97.8685 22.072 98.4765 22.968C99.1165 23.832 99.4365 24.808 99.4365 25.896V26.232C99.4365 28.632 98.2525 30.456 95.8845 31.704C93.5485 32.952 90.1245 33.576 85.6125 33.576C80.5885 33.576 76.8765 32.728 74.4765 31.032C72.0765 29.304 70.8765 26.648 70.8765 23.064V22.776H77.5965V23.064C77.5965 24.76 78.2365 26.008 79.5165 26.808C80.7965 27.576 82.8445 27.96 85.6605 27.96C87.8045 27.96 89.4205 27.768 90.5085 27.384C91.6285 26.968 92.1885 26.392 92.1885 25.656V25.368C92.1885 24.728 91.8845 24.264 91.2765 23.976C90.6685 23.688 89.7085 23.544 88.3965 23.544H81.2445V18.264H87.9165C89.1965 18.264 90.1245 18.12 90.7005 17.832C91.3085 17.544 91.6125 17.08 91.6125 16.44V16.152C91.6125 15.448 91.0525 14.92 89.9325 14.568C88.8125 14.216 87.1805 14.04 85.0365 14.04C82.3805 14.04 80.4765 14.424 79.3245 15.192C78.1725 15.928 77.5965 17.176 77.5965 18.936V19.224H70.8765V18.936C70.8765 11.896 75.7085 8.376 85.3725 8.376C89.6285 8.376 92.9245 9.016 95.2605 10.296C97.5965 11.576 98.7645 13.4 98.7645 15.768V16.104C98.7645 18.056 97.7725 19.624 95.7885 20.808ZM121.737 14.952C124.969 14.952 127.497 15.752 129.321 17.352C131.177 18.92 132.105 21.064 132.105 23.784V24.312C132.105 26.968 131.177 29.08 129.321 30.648C127.497 32.216 124.969 33 121.737 33H105.033V8.952H111.945V14.952H121.737ZM141.513 8.952V33H134.601V8.952H141.513ZM124.953 23.736C124.953 22.808 124.633 22.088 123.993 21.576C123.385 21.064 122.473 20.808 121.257 20.808H111.945V27.144H121.257C122.473 27.144 123.385 26.904 123.993 26.424C124.633 25.912 124.953 25.208 124.953 24.312V23.736ZM173.306 20.76C175.642 21.784 176.81 23.448 176.81 25.752V26.232C176.81 28.408 175.946 30.088 174.218 31.272C172.49 32.424 170.01 33 166.778 33H148.442V8.952H166.058C169.29 8.952 171.786 9.528 173.546 10.68C175.306 11.832 176.186 13.48 176.186 15.624V16.104C176.186 18.184 175.226 19.736 173.306 20.76ZM155.402 14.04V18.456H165.578C166.698 18.456 167.546 18.28 168.122 17.928C168.698 17.576 168.986 17.08 168.986 16.44V15.96C168.986 14.68 167.85 14.04 165.578 14.04H155.402ZM169.658 25.368C169.658 24.728 169.354 24.232 168.746 23.88C168.17 23.528 167.338 23.352 166.25 23.352H155.402V27.912H166.25C168.522 27.912 169.658 27.224 169.658 25.848V25.368ZM199.128 14.952C202.36 14.952 204.888 15.752 206.712 17.352C208.568 18.92 209.496 21.064 209.496 23.784V24.312C209.496 26.968 208.568 29.08 206.712 30.648C204.888 32.216 202.36 33 199.128 33H182.424V8.952H189.336V14.952H199.128ZM218.904 8.952V33H211.992V8.952H218.904ZM202.344 23.736C202.344 22.808 202.024 22.088 201.384 21.576C200.776 21.064 199.864 20.808 198.648 20.808H189.336V27.144H198.648C199.864 27.144 200.776 26.904 201.384 26.424C202.024 25.912 202.344 25.208 202.344 24.312V23.736Z" fill="white"></path> </svg> 