<?xml version="1.0" encoding="UTF-8"?> <svg xmlns="http://www.w3.org/2000/svg" width="32" height="32" viewBox="0 0 32 32" fill="none"> <rect width="32" height="32" rx="8" fill="#161617"></rect> <path d="M23.1229 9.1716L7.67686 15.4056C7.67686 15.4056 6.94659 15.663 7.00312 16.1378C7.06117 16.6134 7.65708 16.831 7.65708 16.831L11.5436 18.1765C11.5436 18.1765 12.7167 22.134 12.9476 22.8871C13.1785 23.638 13.3637 23.6557 13.3637 23.6557C13.5788 23.7519 13.7742 23.5988 13.7742 23.5988L16.2852 21.2441L20.1988 24.331C21.2573 24.806 21.6425 23.8164 21.6425 23.8164L24.3925 9.54834C24.3925 8.59795 23.1229 9.1716 23.1229 9.1716ZM20.3883 22.6689L16.2015 19.3674L14.9023 20.5853L15.188 17.9941L20.7688 12.865L13.1616 17.2446L9.78721 16.0767L22.6613 10.8803L20.3883 22.6689Z" fill="#FAFAFA"></path> </svg> 