<?xml version="1.0" encoding="UTF-8"?> <svg xmlns="http://www.w3.org/2000/svg" width="32" height="32" viewBox="0 0 32 32" fill="none"> <rect width="32" height="32" rx="8" fill="#161617"></rect> <path d="M26.5396 10.42C26.4208 9.94541 26.1789 9.51057 25.8382 9.15941C25.4976 8.80824 25.0703 8.55318 24.5996 8.42C22.8796 8 15.9996 8 15.9996 8C15.9996 8 9.1196 8 7.3996 8.46C6.92884 8.59318 6.50157 8.84824 6.16094 9.19941C5.82031 9.55057 5.57838 9.98541 5.4596 10.46C5.14481 12.2056 4.99083 13.9763 4.9996 15.75C4.98837 17.537 5.14236 19.3213 5.4596 21.08C5.59055 21.5398 5.8379 21.9581 6.17774 22.2945C6.51758 22.6308 6.93842 22.8738 7.3996 23C9.1196 23.46 15.9996 23.46 15.9996 23.46C15.9996 23.46 22.8796 23.46 24.5996 23C25.0703 22.8668 25.4976 22.6118 25.8382 22.2606C26.1789 21.9094 26.4208 21.4746 26.5396 21C26.852 19.2676 27.0059 17.5103 26.9996 15.75C27.0108 13.963 26.8568 12.1787 26.5396 10.42V10.42Z" stroke="#FAFAFA" stroke-width="1.5" stroke-linecap="round" stroke-linejoin="round"></path> <path d="M13.75 19.02L19.5 15.75L13.75 12.48V19.02Z" stroke="#FAFAFA" stroke-width="1.5" stroke-linecap="round" stroke-linejoin="round"></path> </svg> 