<svg width="19" height="20" viewBox="0 0 19 20" fill="none" xmlns="http://www.w3.org/2000/svg">
<g clip-path="url(#clip0_1_394)">
<mask id="mask0_1_394" style="mask-type:luminance" maskUnits="userSpaceOnUse" x="0" y="0" width="19" height="19">
<path d="M18.6899 0.671875H0.689941V18.6719H18.6899V0.671875Z" fill="white"/>
</mask>
<g mask="url(#mask0_1_394)">
<path d="M9.78178 0.671875L8.12872 2.21732L5.55729 1.67188L4.54708 3.94461L2.343 4.49006L2.61851 6.9446L0.689941 8.67188L2.06749 10.581L1.3328 12.7628L3.44504 14.1264L3.72055 16.4901H6.38382L8.03688 18.6719L9.78178 17.2174L11.9858 18.4901L13.2715 16.4901H15.7511L16.1185 14.1264L18.2307 12.7628L17.4042 10.581L18.6899 8.67188L16.945 6.9446L17.1287 4.49006L15.1083 3.94461L13.9144 1.67188L11.5266 2.21732L9.78178 0.671875Z" fill="#25D366"/>
<path d="M6.65909 9.4883L5.74072 10.5904L8.86317 13.4373L14.0978 7.10054L12.9039 6.09034L8.58766 11.2332L6.65909 9.4883Z" fill="white"/>
</g>
</g>
<defs>
<clipPath id="clip0_1_394">
<rect width="18" height="19" fill="white" transform="translate(0.689941 0.171875)"/>
</clipPath>
</defs>
</svg>
