<svg width="59" height="20" viewBox="0 0 59 20" fill="none" xmlns="http://www.w3.org/2000/svg">
<g clip-path="url(#clip0_1_403)">
<path fill-rule="evenodd" clip-rule="evenodd" d="M3.95833 3.33333C1.77221 3.33333 0 5.10554 0 7.29167V13.3869C0 15.573 1.77221 17.3453 3.95833 17.3453H10.8512C13.007 17.3453 14.7603 15.6218 14.8085 13.4775L17.2416 15.3699C18.1995 16.1149 19.5952 15.4323 19.5952 14.2188V6.45982C19.5952 5.24627 18.1995 4.56363 17.2416 5.30868L14.8085 7.20107C14.7603 5.05678 13.007 3.33333 10.8512 3.33333H3.95833ZM14.8095 8.78383V11.8948L18.009 14.3832C18.1458 14.4897 18.3452 14.3921 18.3452 14.2188V6.45982C18.3452 6.28645 18.1458 6.18893 18.009 6.29537L14.8095 8.78383ZM13.5595 8.1725V7.29167C13.5595 5.7959 12.347 4.58333 10.8512 4.58333H3.95833C2.46257 4.58333 1.25 5.7959 1.25 7.29167V13.3869C1.25 14.8827 2.46257 16.0953 3.95833 16.0953H10.8512C12.347 16.0953 13.5595 14.8827 13.5595 13.3869V12.5061V12.2004V8.47817V8.1725Z" fill="#007AFF"/>
<path d="M45.7322 5.1993L43.9962 3.24624C43.5877 2.78681 42.9442 2.572 42.4177 2.88931C42.1384 3.05764 41.8734 3.26086 41.6283 3.47806C40.4041 4.563 40.1417 6.31915 40.7245 7.84766C41.3347 9.44825 42.3992 11.5664 44.1662 13.3333C46.9491 16.1162 49.9995 17.5 52.4995 17.5C54.0791 17.5 55.2428 16.7202 55.6623 15.7767C55.8679 15.314 55.6027 14.8159 55.2073 14.4996L52.7073 12.4996C52.0987 12.0127 51.2337 12.0127 50.625 12.4996L50.0307 12.9751C49.7609 13.1908 49.3846 13.2191 49.0912 13.0367C47.1687 11.841 46.2277 10.79 45.2282 8.80208C45.085 8.51716 45.1259 8.17528 45.3252 7.92625L45.788 7.34773C46.2952 6.71363 46.2717 5.80623 45.7322 5.1993Z" stroke="#007AFF" stroke-width="1.25"/>
</g>
<defs>
<clipPath id="clip0_1_403">
<rect width="58.3333" height="20" fill="white"/>
</clipPath>
</defs>
</svg>
