<svg width="13" height="13" viewBox="0 0 13 13" fill="none" xmlns="http://www.w3.org/2000/svg">
<g clip-path="url(#clip0_1_429)">
<path d="M8.93396 3.43706C8.68178 3.18205 8.27087 3.17884 8.01474 3.42989L3.21015 8.17844L1.12155 6.01622C0.872448 5.75659 0.460044 5.74807 0.200441 5.99718C-0.0591914 6.24628 -0.0677132 6.65869 0.181394 6.91829C0.182522 6.91945 0.183623 6.9206 0.184752 6.92176L2.73135 9.56086C2.85322 9.68519 3.01979 9.75559 3.1939 9.75629H3.20107C3.37187 9.75576 3.53564 9.68815 3.65709 9.56803L8.9281 4.35628C9.18276 4.10373 9.18536 3.69285 8.93396 3.43706Z" fill="#148F2B"/>
<path d="M6.64026 9.56087C6.76182 9.68489 6.92785 9.75524 7.10151 9.75631H7.10867C7.27948 9.75577 7.44325 9.68816 7.5647 9.56804L12.8357 4.35629C13.0747 4.08727 13.0502 3.67551 12.7812 3.43659C12.5374 3.21999 12.1709 3.21714 11.9237 3.4299L7.12103 8.17845L6.94969 8.0006C6.70062 7.74096 6.28821 7.73241 6.02858 7.98152C5.76895 8.2306 5.7604 8.643 6.0095 8.90263C6.01063 8.90382 6.01176 8.90498 6.01289 8.90613L6.64026 9.56087Z" fill="#148F2B"/>
</g>
<defs>
<clipPath id="clip0_1_429">
<rect width="13" height="13" fill="white"/>
</clipPath>
</defs>
</svg>
