<svg width="251" height="32" viewBox="0 0 251 32" fill="none" xmlns="http://www.w3.org/2000/svg">
<path d="M41.424 20.8515L51.5764 10.6992M51.5764 20.8926L41.424 10.7403" stroke="#6C6C6C" stroke-width="0.92554"/>
<g clip-path="url(#clip0_2_24)">
<path d="M145.704 9.16396L149.654 6.21204H136.427V23.8966H149.654V20.9422H140.205V16.4285H148.281V13.4766H140.205V9.16396H145.704Z" fill="#21A038"/>
<path d="M126.434 13.099H121.851V9.16396H129.182L133.134 6.21204H118.073V23.8966H125.946C130.356 23.8966 132.904 21.869 132.904 18.3385C132.904 14.9526 130.614 13.099 126.434 13.099ZM125.803 20.9422H121.851V16.051H125.803C128.209 16.051 129.324 16.8625 129.324 18.5125C129.324 20.1626 128.123 20.9422 125.803 20.9422Z" fill="#21A038"/>
<path d="M160.364 6.21204H153.177V23.8966H156.956V18.8876H160.393C164.973 18.8876 167.837 16.4579 167.837 12.5498C167.837 8.64173 164.973 6.21204 160.364 6.21204ZM160.278 15.9357H156.929V9.16396H160.278C162.712 9.16396 164.029 10.38 164.029 12.5498C164.029 14.7196 162.712 15.9357 160.278 15.9357Z" fill="#21A038"/>
<path d="M111.6 20.0743C110.6 20.626 109.482 20.9153 108.337 20.9153C104.929 20.9153 102.468 18.4537 102.468 15.0678C102.468 11.6819 104.929 9.22036 108.337 9.22036C109.568 9.19339 110.772 9.59793 111.772 10.3212L114.494 8.29604L114.322 8.12197C112.748 6.7024 110.627 5.97913 108.222 5.97913C105.618 5.97913 103.24 6.87647 101.524 8.49709C99.805 10.1765 98.8317 12.5204 98.8881 14.9526C98.8586 17.4117 99.805 19.785 101.524 21.5208C103.326 23.2297 105.731 24.1859 108.195 24.1271C110.914 24.1271 113.29 23.1709 114.893 21.435L112.461 19.6109L111.6 20.0743Z" fill="#21A038"/>
<path d="M213.277 6.24146V23.9236H217.055V16.6884H225.102V23.9236H228.883V6.24146H225.102V13.506H217.055V6.24146H213.277ZM206.778 23.9236H210.757L203.37 6.24146H199.533L192.003 23.9236H195.811L197.328 20.3636H205.346L206.778 23.9236ZM198.473 17.4117L201.394 10.3212L204.142 17.4117H198.473ZM237.358 16.7767H239.705L245.488 23.8966H250.355L242.625 14.7491L249.382 6.21204H245.059L239.447 13.7953H237.358V6.21204H233.578V23.8966H237.358V16.7767ZM179.519 13.1285V9.19338H189.397V6.24146H175.738V23.9236H183.613C188.022 23.9236 190.571 21.8984 190.571 18.3679C190.571 14.982 188.281 13.1285 184.099 13.1285H179.519ZM179.519 20.9716V16.0804H183.471C185.874 16.0804 186.992 16.8919 186.992 18.5419C186.992 20.192 185.817 21.0011 183.471 21.0011H179.519V20.9716Z" fill="#21A038"/>
<path d="M87.0632 6.09692C87.7497 6.99427 88.3234 7.97743 88.8088 9.01942L75.5816 18.8878L70.0259 15.3572V11.1328L75.5521 14.634L87.0632 6.09692Z" fill="#21A038"/>
<path d="M64.3845 15.0678C64.3845 14.8643 64.3845 14.6926 64.4139 14.4891L61.0648 14.3151C61.0648 14.548 61.0354 14.8079 61.0354 15.0383C61.0354 19.0911 62.6683 22.7663 65.3015 25.4289L67.6772 23.0262C65.6447 21.001 64.3845 18.1938 64.3845 15.0678Z" fill="url(#paint0_linear_2_24)"/>
<path d="M75.5523 3.77993C75.7534 3.77993 75.925 3.77993 76.126 3.80935L76.2977 0.423463C76.0672 0.423463 75.8098 0.394043 75.5818 0.394043C71.5731 0.394043 67.9372 2.04408 65.3015 4.70669L67.6773 7.10942C69.6828 5.05484 72.4876 3.77993 75.5523 3.77993Z" fill="url(#paint1_linear_2_24)"/>
<path d="M75.5522 26.3557C75.3512 26.3557 75.1796 26.3557 74.9785 26.3263L74.8069 29.7122C75.0374 29.7122 75.2948 29.7416 75.5228 29.7416C79.5314 29.7416 83.1698 28.0916 85.803 25.429L83.4273 23.0262C81.4217 25.1102 78.6439 26.3557 75.5522 26.3557Z" fill="url(#paint2_linear_2_24)"/>
<path d="M81.8506 5.74869L84.6848 3.63527C82.1938 1.61012 79.0163 0.364624 75.552 0.364624V3.75051C77.9008 3.77993 80.0755 4.5032 81.8506 5.74869Z" fill="url(#paint3_linear_2_24)"/>
<path d="M90.0984 15.0679C90.0984 14.1705 90.0125 13.3026 89.8679 12.4347L86.7468 14.7786C86.7468 14.8644 86.7468 14.9821 86.7468 15.0679C86.7468 18.3974 85.315 21.3787 83.0544 23.4333L85.315 25.9513C88.2375 23.2886 90.0984 19.3805 90.0984 15.0679Z" fill="#21A038"/>
<path d="M75.5521 26.3557C72.2593 26.3557 69.3099 24.9092 67.2774 22.6217L64.7864 24.9092C67.449 27.8905 71.286 29.7416 75.5521 29.7416V26.3557Z" fill="url(#paint4_linear_2_24)"/>
<path d="M68.0793 6.70253L65.8163 4.18457C62.8669 6.8766 61.0354 10.7553 61.0354 15.0679H64.3845C64.3845 11.7679 65.8163 8.75956 68.0793 6.70253Z" fill="url(#paint5_linear_2_24)"/>
</g>
<rect x="0.5" width="31.575" height="31.575" rx="4.93359" fill="url(#paint6_linear_2_24)"/>
<path fill-rule="evenodd" clip-rule="evenodd" d="M20.2877 26.7478C22.2241 26.3481 24.0162 25.4428 25.4838 24.1288C25.7376 23.9016 25.7365 23.5097 25.4957 23.2688L24.0091 21.7823C23.7715 21.5447 23.3889 21.5432 23.1295 21.7568C21.7933 22.8566 20.0819 23.517 18.2163 23.517C13.9438 23.517 10.4802 20.0535 10.4802 15.781C10.4802 11.5085 13.9438 8.04494 18.2163 8.04494C19.9294 8.04494 21.5125 8.6018 22.7944 9.54439C23.0657 9.7439 23.4487 9.72098 23.6727 9.46957L25.055 7.9188C25.2816 7.66454 25.2602 7.27325 24.9939 7.06099C23.4532 5.83331 21.6122 5.03226 19.656 4.74436C17.4961 4.42648 15.2903 4.74815 13.3111 5.66966C11.3319 6.59118 9.66595 8.07217 8.51891 9.92979C7.37188 11.7874 6.794 13.9403 6.85666 16.1226C6.91931 18.3049 7.61973 20.4211 8.87145 22.2098C10.1232 23.9986 11.8714 25.3816 13.9002 26.188C15.929 26.9945 18.1496 27.1891 20.2877 26.7478Z" fill="white"/>
<defs>
<linearGradient id="paint0_linear_2_24" x1="64.9443" y1="25.0172" x2="61.5047" y2="15.0295" gradientUnits="userSpaceOnUse">
<stop offset="0.1444" stop-color="#F2E913"/>
<stop offset="0.3037" stop-color="#E7E518"/>
<stop offset="0.5823" stop-color="#CADB26"/>
<stop offset="0.891" stop-color="#A3CD39"/>
</linearGradient>
<linearGradient id="paint1_linear_2_24" x1="66.2568" y1="4.32447" x2="74.9476" y2="0.997526" gradientUnits="userSpaceOnUse">
<stop offset="0.0592" stop-color="#0FA8E0"/>
<stop offset="0.5385" stop-color="#0099F9"/>
<stop offset="0.9234" stop-color="#0291EB"/>
</linearGradient>
<linearGradient id="paint2_linear_2_24" x1="74.6112" y1="26.8619" x2="84.9669" y2="24.5109" gradientUnits="userSpaceOnUse">
<stop offset="0.1226" stop-color="#A3CD39"/>
<stop offset="0.2846" stop-color="#86C339"/>
<stop offset="0.8693" stop-color="#21A038"/>
</linearGradient>
<linearGradient id="paint3_linear_2_24" x1="74.8638" y1="2.52202" x2="83.4759" y2="5.19131" gradientUnits="userSpaceOnUse">
<stop offset="0.0566" stop-color="#0291EB"/>
<stop offset="0.79" stop-color="#0C8ACB"/>
</linearGradient>
<linearGradient id="paint4_linear_2_24" x1="65.638" y1="25.4448" x2="74.8904" y2="28.9176" gradientUnits="userSpaceOnUse">
<stop offset="0.1324" stop-color="#F2E913"/>
<stop offset="0.2977" stop-color="#EBE716"/>
<stop offset="0.5306" stop-color="#D9E01F"/>
<stop offset="0.8023" stop-color="#BBD62D"/>
<stop offset="0.9829" stop-color="#A3CD39"/>
</linearGradient>
<linearGradient id="paint5_linear_2_24" x1="63.6024" y1="15.4771" x2="67.3205" y2="5.76109" gradientUnits="userSpaceOnUse">
<stop offset="0.0698" stop-color="#A3CD39"/>
<stop offset="0.2599" stop-color="#81C55F"/>
<stop offset="0.9216" stop-color="#0FA8E0"/>
</linearGradient>
<linearGradient id="paint6_linear_2_24" x1="-0.0618631" y1="18.0346" x2="30.617" y2="13.7812" gradientUnits="userSpaceOnUse">
<stop offset="0.1226" stop-color="#A3CD39"/>
<stop offset="0.2846" stop-color="#86C339"/>
<stop offset="0.8693" stop-color="#21A038"/>
</linearGradient>
<clipPath id="clip0_2_24">
<rect width="189.551" height="31.5918" fill="white" transform="translate(60.9495)"/>
</clipPath>
</defs>
</svg>
