<svg width="36" height="36" viewBox="0 0 36 36" fill="none" xmlns="http://www.w3.org/2000/svg">
<g clip-path="url(#clip0_1_157)">
<rect x="0.70459" y="0.5" width="35" height="35" rx="2.73438" fill="url(#paint0_linear_1_157)"/>
<g filter="url(#filter0_f_1_157)">
<circle cx="18.2047" cy="18" r="13.545" fill="white"/>
</g>
<g filter="url(#filter1_d_1_157)">
<path d="M18.417 31.405C25.8383 31.405 31.8545 25.4112 31.8545 18.0175C31.8545 10.6238 25.8383 4.62999 18.417 4.62999C10.9958 4.62999 4.97961 10.6238 4.97961 18.0175C4.97961 25.4112 10.9958 31.405 18.417 31.405Z" fill="#F9A123"/>
<path d="M31.4297 18.0177C31.4297 25.4114 25.4136 31.4052 17.9923 31.4052C12.6399 31.4052 8.01844 28.2875 5.8577 23.7754C5.57185 23.1787 5.32916 22.5575 5.13348 21.9159C4.75721 20.6825 4.55481 19.3736 4.55481 18.0177C4.55481 17.0057 4.66749 16.02 4.88115 15.0722C4.97591 14.6517 5.09053 14.2386 5.22398 13.8341L5.22404 13.8341C6.12271 11.11 7.87516 8.77185 10.166 7.13393L10.1662 7.1338C10.554 6.85656 10.9571 6.59936 11.3742 6.36381L11.3744 6.36375L11.3745 6.36362C13.328 5.2602 15.5863 4.63018 17.9923 4.63018C21.7939 4.63018 25.2268 6.20302 27.6711 8.73119C28.0873 9.16155 28.4748 9.61962 28.8305 10.1023C30.4646 12.3193 31.4297 15.0562 31.4297 18.0177Z" fill="#F8D631"/>
<mask id="mask0_1_157" style="mask-type:luminance" maskUnits="userSpaceOnUse" x="4" y="4" width="28" height="28">
<path d="M31.4294 18.0175C31.4294 25.4112 25.4133 31.405 17.992 31.405C12.6397 31.405 8.01817 28.2873 5.85741 23.7752C5.5716 23.1785 5.3289 22.5574 5.13322 21.9158C4.75692 20.6824 4.55457 19.3734 4.55457 18.0175C4.55457 10.6238 10.5708 4.63 17.992 4.63C21.7936 4.63 25.2265 6.20283 27.6708 8.731C28.087 9.1614 28.4745 9.61944 28.8302 10.1022C30.4643 12.3192 31.4294 15.0561 31.4294 18.0175Z" fill="white"/>
</mask>
<g mask="url(#mask0_1_157)">
<path d="M33.4805 12.9122L15.8059 32.959L17.4922 33.6102L34.4046 13.7887L33.4805 12.9122Z" fill="#FFF16C"/>
</g>
<path d="M17.992 28.6763C23.9007 28.6763 28.6906 23.9042 28.6906 18.0175C28.6906 12.1308 23.9007 7.35865 17.992 7.35865C12.0834 7.35865 7.29346 12.1308 7.29346 18.0175C7.29346 23.9042 12.0834 28.6763 17.992 28.6763Z" fill="#F99C1C"/>
<path d="M18.3629 28.67C18.2398 28.6742 18.1162 28.6763 17.992 28.6763C13.6387 28.6763 9.89261 26.0859 8.22222 22.3677C7.95229 21.7671 7.73659 21.137 7.58126 20.4836C7.39307 19.6921 7.29346 18.8664 7.29346 18.0175C7.29346 12.1308 12.0834 7.35861 17.992 7.35861C18.1162 7.35861 18.2398 7.36076 18.3629 7.36497C12.626 7.5597 8.03523 12.2544 8.03523 18.0175C8.03523 18.7297 8.10533 19.4257 8.23914 20.0987C8.37088 20.7619 8.56433 21.403 8.81349 22.0157C10.3569 25.8133 14.0335 28.523 18.3629 28.67Z" fill="#DA751C"/>
<path d="M23.6109 11.9288C22.8713 11.3373 21.8122 11.0414 20.4337 11.0414H15.9656L15.143 16.4727H12.5366V18.8209H14.7874L14.6587 19.6706H12.5366V22.0188H14.303L13.8525 24.9936H16.8412L17.1704 22.0188H19.7547V19.6706H17.4303L17.5244 18.8209H19.7547V18.8125C20.7133 18.7856 21.5509 18.6065 22.2675 18.2748C23.0475 17.914 23.6513 17.4028 24.079 16.741C24.5066 16.0794 24.7204 15.3074 24.7204 14.4252C24.7204 13.3526 24.3505 12.5204 23.6109 11.9288ZM21.1581 16.0042C21.0988 16.0533 21.0379 16.1008 20.9734 16.1432C20.7294 16.3037 20.4213 16.3628 20.1356 16.4035C19.4668 16.4989 18.7847 16.4553 18.1114 16.4553C18.0329 16.4553 17.9544 16.4553 17.8759 16.4553L18.4902 13.3874H20.0411C20.5643 13.3874 20.9718 13.4902 21.2637 13.6958C21.5556 13.9014 21.7015 14.2297 21.7015 14.6808C21.7015 15.2623 21.5203 15.7034 21.1581 16.0042Z" fill="#CE6421"/>
<path d="M22.9742 11.9288C22.2346 11.3373 21.1755 11.0414 19.7969 11.0414H15.4951C15.3996 11.0414 15.3184 11.111 15.3041 11.2051L14.5311 16.309C14.5168 16.4031 14.4357 16.4727 14.3401 16.4727H12.093C11.9864 16.4727 11.8999 16.5588 11.8999 16.6651V18.6285C11.8999 18.7347 11.9864 18.8209 12.093 18.8209H13.9262C14.0443 18.8209 14.1348 18.9256 14.1172 19.042L14.0467 19.5069C14.0325 19.601 13.9513 19.6706 13.8558 19.6706H12.093C11.9864 19.6706 11.8999 19.7568 11.8999 19.863V21.8264C11.8999 21.9327 11.9864 22.0188 12.093 22.0188H13.4418C13.56 22.0188 13.6504 22.1236 13.6328 22.2399L13.2492 24.7724C13.2316 24.8888 13.3221 24.9935 13.4402 24.9935H16.0314C16.1299 24.9935 16.2126 24.9197 16.2234 24.8222L16.5147 22.1901C16.5255 22.0926 16.6082 22.0188 16.7067 22.0188H18.9248C19.0315 22.0188 19.118 21.9327 19.118 21.8264V19.863C19.118 19.7568 19.0315 19.6706 18.9248 19.6706H17.0092C16.8941 19.6706 16.8046 19.571 16.8172 19.4571L16.8687 18.9922C16.8795 18.8947 16.9622 18.8209 17.0606 18.8209H19.118V18.8125C20.0765 18.7856 20.9142 18.6065 21.6308 18.2748C22.4108 17.914 23.0146 17.4027 23.4422 16.741C23.8699 16.0794 24.0837 15.3074 24.0837 14.4251C24.0837 13.3526 23.7138 12.5204 22.9742 11.9288ZM20.5214 16.0042C20.4621 16.0533 20.4012 16.1008 20.3367 16.1432C20.0927 16.3037 19.7846 16.3628 19.4989 16.4035C18.8301 16.4989 18.148 16.4553 17.4746 16.4553C17.3528 16.4553 17.2614 16.3442 17.2853 16.2252L17.8225 13.5421C17.8405 13.4522 17.9198 13.3874 18.0119 13.3874H19.4044C19.9276 13.3874 20.3351 13.4902 20.627 13.6958C20.9189 13.9014 21.0648 14.2297 21.0648 14.6808C21.0648 15.2623 20.8836 15.7034 20.5214 16.0042Z" fill="#F8D631"/>
<path d="M23.3979 8.8142L25.215 6.72668C25.5474 6.91757 25.928 7.20815 26.3858 7.56272L24.5519 9.59686L23.3979 8.8142Z" fill="#FFF16C"/>
<mask id="mask1_1_157" style="mask-type:luminance" maskUnits="userSpaceOnUse" x="11" y="11" width="14" height="14">
<path d="M22.9742 11.9288C22.2346 11.3373 21.1755 11.0414 19.7969 11.0414H15.3289L14.5063 16.4727H11.8999V18.8209H14.1507L14.022 19.6706H11.8999V22.0188H13.6663L13.2158 24.9936H16.2044L16.5337 22.0188H19.118V19.6706H16.7936L16.8877 18.8209H19.118V18.8125C20.0765 18.7856 20.9142 18.6065 21.6308 18.2748C22.4108 17.914 23.0146 17.4028 23.4422 16.741C23.8699 16.0794 24.0837 15.3074 24.0837 14.4252C24.0837 13.3526 23.7138 12.5204 22.9742 11.9288ZM20.5214 16.0042C20.4621 16.0533 20.4012 16.1008 20.3367 16.1432C20.0927 16.3037 19.7846 16.3628 19.4989 16.4035C18.8301 16.4989 18.148 16.4553 17.4746 16.4553C17.3962 16.4553 17.3177 16.4553 17.2392 16.4553L17.8535 13.3874H19.4044C19.9276 13.3874 20.3351 13.4902 20.627 13.6958C20.9189 13.9014 21.0648 14.2297 21.0648 14.6808C21.0648 15.2623 20.8836 15.7034 20.5214 16.0042Z" fill="white"/>
</mask>
<g mask="url(#mask1_1_157)">
<path d="M21.7011 9.17211L21.1992 7.72753L8.15417 21.4911L8.83597 22.125L21.7011 9.17211Z" fill="#FFF16C"/>
</g>
<path d="M9.71893 24.7761L7.68762 26.6104C8.03902 27.0426 8.38508 27.4095 8.72615 27.7156L10.7563 25.8816L9.71893 24.7761Z" fill="#FFF16C"/>
</g>
</g>
<defs>
<filter id="filter0_f_1_157" x="-2.34033" y="-2.54501" width="41.09" height="41.09" filterUnits="userSpaceOnUse" color-interpolation-filters="sRGB">
<feFlood flood-opacity="0" result="BackgroundImageFix"/>
<feBlend mode="normal" in="SourceGraphic" in2="BackgroundImageFix" result="shape"/>
<feGaussianBlur stdDeviation="3.5" result="effect1_foregroundBlur_1_157"/>
</filter>
<filter id="filter1_d_1_157" x="4.55457" y="4.62999" width="27.86" height="28.4202" filterUnits="userSpaceOnUse" color-interpolation-filters="sRGB">
<feFlood flood-opacity="0" result="BackgroundImageFix"/>
<feColorMatrix in="SourceAlpha" type="matrix" values="0 0 0 0 0 0 0 0 0 0 0 0 0 0 0 0 0 0 127 0" result="hardAlpha"/>
<feOffset dx="0.42" dy="1.505"/>
<feGaussianBlur stdDeviation="0.07"/>
<feComposite in2="hardAlpha" operator="out"/>
<feColorMatrix type="matrix" values="0 0 0 0 0 0 0 0 0 0 0 0 0 0 0 0 0 0 0.25 0"/>
<feBlend mode="normal" in2="BackgroundImageFix" result="effect1_dropShadow_1_157"/>
<feBlend mode="normal" in="SourceGraphic" in2="effect1_dropShadow_1_157" result="shape"/>
</filter>
<linearGradient id="paint0_linear_1_157" x1="0.70459" y1="0.5" x2="39.6439" y2="5.63654" gradientUnits="userSpaceOnUse">
<stop stop-color="#1C2CD8"/>
<stop offset="1" stop-color="#168CD5"/>
</linearGradient>
<clipPath id="clip0_1_157">
<rect x="0.70459" y="0.5" width="35" height="35" rx="2.73438" fill="white"/>
</clipPath>
</defs>
</svg>
