<svg width="17" height="9" viewBox="0 0 17 9" fill="none" xmlns="http://www.w3.org/2000/svg">
<g id="SVG">
<path id="Vector" d="M0.645264 4.12565L4.07921 7.8379C4.23623 8.01279 4.47622 8.09066 4.70728 8.0396C4.93706 7.98853 5.12215 7.81747 5.19109 7.59152C5.26002 7.36557 5.20258 7.12047 5.03918 6.94941L3.03115 4.77925H15.6704C15.9065 4.78308 16.1248 4.65926 16.2435 4.45501C16.3635 4.25203 16.3635 3.99928 16.2435 3.7963C16.1248 3.59205 15.9065 3.46822 15.6704 3.47205H3.03115L5.03918 1.3019C5.20258 1.13084 5.26002 0.88574 5.19109 0.659787C5.12215 0.433835 4.93706 0.262776 4.70728 0.211714C4.47622 0.160651 4.23623 0.238521 4.07921 0.41341L0.645264 4.12565Z" fill="#9FAFBD"/>
</g>
</svg>
