<svg width="298" height="92" viewBox="0 0 298 92" fill="none" xmlns="http://www.w3.org/2000/svg">
<path d="M0.66825 7.59877C0.22275 6.87112 0 5.943 0 4.8144C0 3.6858 0.226463 2.78366 0.679388 2.10799C1.13974 1.42489 1.8117 1.08334 2.69527 1.08334C3.58627 1.08334 4.25452 1.42489 4.70002 2.10799C5.15295 2.78366 5.37941 3.6858 5.37941 4.8144C5.37941 5.943 5.15666 6.87112 4.71116 7.59877C4.26566 8.319 3.5937 8.67911 2.69527 8.67911C1.79685 8.67911 1.12117 8.319 0.66825 7.59877ZM4.47728 4.82554C4.47728 2.86534 3.88327 1.88524 2.69527 1.88524C1.49985 1.88524 0.902138 2.86534 0.902138 4.82554C0.902138 5.79079 1.05064 6.54071 1.34764 7.07531C1.64464 7.60991 2.09385 7.87721 2.69527 7.87721C3.2967 7.87721 3.7422 7.60991 4.03178 7.07531C4.32878 6.54071 4.47728 5.79079 4.47728 4.82554ZM8.81236 1.20585H9.13535V8.5566H8.26663V2.2305L6.66283 2.73169L6.45122 1.98547L8.81236 1.20585ZM11.3952 8.47864C11.2616 8.34499 11.1948 8.17792 11.1948 7.97745C11.1948 7.77697 11.2616 7.60991 11.3952 7.47626C11.5363 7.34261 11.7034 7.27579 11.8964 7.27579C12.0895 7.27579 12.2528 7.34261 12.3865 7.47626C12.5276 7.60991 12.5981 7.77697 12.5981 7.97745C12.5981 8.17792 12.5276 8.34499 12.3865 8.47864C12.2528 8.61229 12.0895 8.67911 11.8964 8.67911C11.7034 8.67911 11.5363 8.61229 11.3952 8.47864ZM17.1149 4.88122C17.0926 3.8343 17.4602 2.93587 18.2174 2.18595C18.9749 1.43602 19.877 1.06849 20.9239 1.08334C21.9634 1.06849 22.8656 1.43602 23.6303 2.18595C24.3951 2.93587 24.7664 3.8343 24.7441 4.88122C24.7664 5.92815 24.3951 6.82657 23.6303 7.5765C22.8656 8.32642 21.9634 8.69396 20.9239 8.67911C19.8844 8.70139 18.9822 8.33385 18.2174 7.5765C17.4602 6.81915 17.0926 5.92072 17.1149 4.88122ZM23.842 4.87009C23.8568 4.03849 23.5784 3.3294 23.0066 2.74282C22.4349 2.15625 21.7444 1.87039 20.9351 1.88524C20.1035 1.88524 19.4092 2.1711 18.8524 2.74282C18.2955 3.30712 18.017 4.01621 18.017 4.87009C18.017 5.72396 18.2955 6.44047 18.8524 7.01962C19.4092 7.59135 20.1035 7.87721 20.9351 7.87721C21.7444 7.89206 22.4349 7.6062 23.0066 7.01962C23.5784 6.42562 23.8568 5.70911 23.842 4.87009ZM25.8383 5.83905C25.8235 5.06685 26.0982 4.3986 26.6625 3.8343C27.2268 3.27 27.8988 2.99527 28.6784 3.01012C29.1462 3.01012 29.5731 3.11407 29.9592 3.32197C30.3453 3.52987 30.6646 3.81945 30.917 4.1907L30.3045 4.68075C29.8738 4.09417 29.3355 3.80089 28.6895 3.80089C28.1327 3.80089 27.6649 4.00136 27.2862 4.40231C26.9075 4.79584 26.7182 5.27475 26.7182 5.83905C26.7182 6.41077 26.9075 6.89711 27.2862 7.29806C27.6649 7.69159 28.1327 7.88835 28.6895 7.88835C29.3281 7.88835 29.8627 7.59877 30.2934 7.01962L30.9058 7.49854C30.3713 8.28559 29.6288 8.67911 28.6784 8.67911C27.8914 8.67911 27.2194 8.40439 26.6625 7.85494C26.1131 7.29806 25.8383 6.6261 25.8383 5.83905ZM32.3624 8.5566V3.13264H33.22V5.29331H35.8819V3.13264H36.7395V8.5566H35.8819V6.05066H33.22V8.5566H32.3624ZM38.2266 5.83905C38.2117 5.06685 38.4865 4.3986 39.0508 3.8343C39.6225 3.27 40.2945 2.99527 41.0667 3.01012C41.8463 2.99527 42.5182 3.27 43.0825 3.8343C43.6468 4.3986 43.9216 5.06685 43.9067 5.83905C43.9216 6.60382 43.6431 7.27207 43.0714 7.8438C42.4997 8.4081 41.8277 8.68282 41.0555 8.66797C40.2833 8.68282 39.6151 8.4081 39.0508 7.8438C38.4865 7.27207 38.2117 6.60382 38.2266 5.83905ZM43.0269 5.85019C43.0269 5.27104 42.8375 4.7847 42.4588 4.39117C42.0876 3.99765 41.6235 3.80089 41.0667 3.80089C40.5098 3.80089 40.042 3.99765 39.6633 4.39117C39.2921 4.77727 39.1065 5.26361 39.1065 5.85019C39.1065 6.42191 39.2921 6.90454 39.6633 7.29806C40.042 7.68416 40.5061 7.87721 41.0555 7.87721C41.605 7.87721 42.069 7.68045 42.4477 7.28692C42.8338 6.8934 43.0269 6.41449 43.0269 5.85019ZM49.858 6.91939C49.858 7.40944 49.6798 7.80667 49.3234 8.1111C48.9745 8.4081 48.5104 8.5566 47.9313 8.5566H45.4142V3.13264H47.6528C48.1874 3.13264 48.6106 3.26257 48.9225 3.52245C49.2418 3.78232 49.4014 4.1313 49.4014 4.56937C49.4014 5.0223 49.2121 5.37127 48.8334 5.6163C49.5165 5.8539 49.858 6.28826 49.858 6.91939ZM46.2718 3.90112V5.349H47.6639C48.2579 5.349 48.555 5.10397 48.555 4.61392C48.555 4.13872 48.2579 3.90112 47.6639 3.90112H46.2718ZM49.0005 6.91939C49.0005 6.66694 48.9002 6.47017 48.6997 6.3291C48.5067 6.1806 48.232 6.10635 47.8756 6.10635H46.2718V7.79925H47.8756C48.2245 7.79925 48.4993 7.72129 48.6997 7.56536C48.9002 7.40201 49.0005 7.18669 49.0005 6.91939ZM55.5376 5.21535V8.5566H54.7357V7.85494C54.3199 8.40439 53.7111 8.67911 52.9092 8.67911C52.3449 8.67911 51.8882 8.54175 51.5392 8.26702C51.1903 7.98487 51.0158 7.61362 51.0158 7.15327C51.0158 6.69292 51.194 6.32539 51.5504 6.05066C51.9068 5.77594 52.3783 5.63857 52.9648 5.63857H54.68V5.1708C54.68 4.73272 54.5612 4.39489 54.3236 4.15729C54.0934 3.91969 53.7742 3.80089 53.3658 3.80089C52.7569 3.80089 52.2298 4.09046 51.7843 4.66961L51.2163 4.20184C51.6989 3.40736 52.434 3.01012 53.4215 3.01012C54.0749 3.01012 54.5909 3.20317 54.9696 3.58927C55.3483 3.96795 55.5376 4.50997 55.5376 5.21535ZM54.68 6.47389V6.34024H53.0651C52.2855 6.34024 51.8956 6.5964 51.8956 7.10872C51.8956 7.37602 51.9996 7.58764 52.2075 7.74356C52.4228 7.89206 52.6938 7.96631 53.0205 7.96631C53.4735 7.96631 53.8633 7.82152 54.19 7.53195C54.5167 7.24237 54.68 6.88969 54.68 6.47389ZM58.3395 8.5566V3.90112H56.513V3.13264H61.0125V3.90112H59.186V8.5566H58.3395ZM66.9748 6.10635H62.6869C62.7388 6.64095 62.9504 7.0716 63.3217 7.3983C63.6929 7.725 64.1459 7.88835 64.6805 7.88835C65.2967 7.88835 65.8499 7.64332 66.34 7.15327L66.8411 7.73242C66.2323 8.36355 65.5084 8.67911 64.6693 8.67911C63.86 8.67911 63.1769 8.4081 62.62 7.86607C62.0706 7.31662 61.7959 6.64466 61.7959 5.85019C61.7959 5.06314 62.0632 4.39489 62.5978 3.84544C63.1398 3.28856 63.7969 3.01012 64.5691 3.01012C65.2745 3.01012 65.861 3.2403 66.3288 3.70065C66.804 4.161 67.0416 4.74757 67.0416 5.46037C67.0416 5.66827 67.0193 5.8836 66.9748 6.10635ZM62.7203 5.349H66.1618C66.1543 4.8738 65.9984 4.49512 65.694 4.21297C65.3896 3.93082 65.0072 3.78975 64.5468 3.78975C64.0939 3.78975 63.7004 3.93454 63.3662 4.22411C63.0321 4.50626 62.8168 4.88122 62.7203 5.349ZM68.9717 3.13264H72.647V8.5566H71.7894V3.90112H69.7736L69.7513 4.56937C69.6993 6.0321 69.5508 7.06417 69.3058 7.6656C69.0608 8.26702 68.6264 8.57887 68.0027 8.60115C67.8913 8.60115 67.7948 8.5863 67.7131 8.5566V7.83266C67.8319 7.84751 67.9062 7.85494 67.9359 7.85494C68.2774 7.85494 68.5224 7.59135 68.6709 7.06417C68.8269 6.537 68.916 5.69797 68.9382 4.5471L68.9717 3.13264ZM74.5413 8.5566V3.13264H75.3989V5.00374H76.6909C77.3071 5.00374 77.7972 5.16709 78.161 5.49379C78.5323 5.81306 78.7179 6.24 78.7179 6.7746C78.7179 7.3092 78.5323 7.73985 78.161 8.06655C77.7972 8.39325 77.3071 8.5566 76.6909 8.5566H74.5413ZM75.3989 7.79925H76.6463C77.0176 7.79925 77.3071 7.71015 77.515 7.53195C77.7304 7.34632 77.838 7.09759 77.838 6.78574C77.838 6.47389 77.7304 6.22515 77.515 6.03952C77.2997 5.8539 77.0064 5.76109 76.6352 5.76109H75.3989V7.79925ZM83.3404 8.5566V3.13264H84.198V8.5566H83.3404ZM85.3563 5.59402L87.9068 8.5566H86.8265L84.3094 5.6163L86.5926 3.13264H87.6618L85.3563 5.59402ZM88.5194 5.83905C88.5045 5.06685 88.7792 4.3986 89.3435 3.8343C89.9153 3.27 90.5872 2.99527 91.3594 3.01012C92.1387 2.99527 92.8106 3.27 93.3749 3.8343C93.9392 4.3986 94.214 5.06685 94.1991 5.83905C94.214 6.60382 93.9355 7.27207 93.3638 7.8438C92.7921 8.4081 92.1201 8.68282 91.3483 8.66797C90.5761 8.68282 89.9078 8.4081 89.3435 7.8438C88.7792 7.27207 88.5045 6.60382 88.5194 5.83905ZM93.3193 5.85019C93.3193 5.27104 93.1299 4.7847 92.7512 4.39117C92.38 3.99765 91.9163 3.80089 91.3594 3.80089C90.8026 3.80089 90.3348 3.99765 89.9561 4.39117C89.5849 4.77727 89.3992 5.26361 89.3992 5.85019C89.3992 6.42191 89.5849 6.90454 89.9561 7.29806C90.3348 7.68416 90.7988 7.87721 91.3483 7.87721C91.8977 7.87721 92.3614 7.68045 92.7401 7.28692C93.1262 6.8934 93.3193 6.41449 93.3193 5.85019ZM95.7073 8.5566V3.01012H96.0192L98.5919 6.0618L101.154 3.01012H101.454V8.5566H100.597V4.89236L98.7479 7.09759H98.4137L96.5649 4.89236V8.5566H95.7073ZM103.342 8.5566V3.13264H107.675V8.5566H106.806V3.90112H104.2V8.5566H103.342ZM113.618 5.21535V8.5566H112.816V7.85494C112.401 8.40439 111.792 8.67911 110.99 8.67911C110.426 8.67911 109.969 8.54175 109.62 8.26702C109.271 7.98487 109.096 7.61362 109.096 7.15327C109.096 6.69292 109.275 6.32539 109.631 6.05066C109.987 5.77594 110.459 5.63857 111.046 5.63857H112.761V5.1708C112.761 4.73272 112.642 4.39489 112.404 4.15729C112.174 3.91969 111.855 3.80089 111.446 3.80089C110.838 3.80089 110.31 4.09046 109.865 4.66961L109.297 4.20184C109.78 3.40736 110.515 3.01012 111.502 3.01012C112.156 3.01012 112.672 3.20317 113.05 3.58927C113.429 3.96795 113.618 4.50997 113.618 5.21535ZM112.761 6.47389V6.34024H111.146C110.366 6.34024 109.976 6.5964 109.976 7.10872C109.976 7.37602 110.08 7.58764 110.288 7.74356C110.503 7.89206 110.775 7.96631 111.101 7.96631C111.554 7.96631 111.944 7.82152 112.271 7.53195C112.597 7.24237 112.761 6.88969 112.761 6.47389ZM115.436 8.5566V3.13264H116.294V5.29331H118.956V3.13264H119.814V8.5566H118.956V6.05066H116.294V8.5566H115.436ZM125.857 3.01012H126.168V8.5566H125.311V4.7253L122.003 8.67911H121.691V3.13264H122.549V6.97507L125.857 3.01012ZM132.219 3.01012H132.531V8.5566H131.673V4.7253L128.365 8.67911H128.053V3.13264H128.911V6.97507L132.219 3.01012ZM128.733 0.415087V0.0698242H129.457V0.392812C129.457 0.756637 129.538 1.03879 129.702 1.23926C129.873 1.43231 130.11 1.52884 130.415 1.52884C130.726 1.52884 130.964 1.43231 131.127 1.23926C131.298 1.03879 131.384 0.756637 131.384 0.392812V0.0698242H132.107V0.415087C132.107 0.942262 131.952 1.3692 131.64 1.6959C131.335 2.01517 130.927 2.17481 130.415 2.17481C129.91 2.17481 129.501 2.01517 129.189 1.6959C128.885 1.3692 128.733 0.942262 128.733 0.415087Z" fill="#1F1F1F"/>
<path d="M7.60879 17.6802V20.3584H2.90587V30.9763H0V17.6802H7.60879Z" fill="#1F1F1F"/>
<path d="M16.2931 20.7193H19.2754L14.7637 30.8433C14.1264 32.2616 13.4764 33.2556 12.8137 33.8254C12.151 34.3953 11.2524 34.6802 10.1181 34.6802H8.97107V32.1729H9.94606C10.6088 32.1729 11.0804 32.0526 11.3608 31.812C11.6412 31.5714 11.947 31.0586 12.2784 30.2735L12.3166 30.1975L7.93872 20.7193H10.9784L13.7313 27.0254L16.2931 20.7193Z" fill="#1F1F1F"/>
<path d="M34.0832 28.431H35.4214V33.3316H32.8979V30.9763H20.6627V20.7193H23.3965V28.431H26.0538V20.7193H28.7111V28.431H31.3494V20.7193H34.0832V28.431Z" fill="#1F1F1F"/>
<path d="M45.0157 20.7193H46.5834V30.9763H43.8878V25.5439L39.0893 30.9763H37.5025V20.7193H40.1981V26.0947L45.0157 20.7193Z" fill="#1F1F1F"/>
<path d="M55.8025 20.7193H58.5937V30.9763H55.8025V27.0444H52.0555V30.9763H49.2643V20.7193H52.0555V24.5182H55.8025V20.7193Z" fill="#1F1F1F"/>
<path d="M82.4369 30.9763H79.4928L78.1737 22.2958L74.1781 30.9573H73.4707L69.4752 22.2958L68.1561 30.9763H65.1928L67.2958 17.6802H70.2016L73.8149 25.8288L77.4472 17.6802H80.3531L82.4369 30.9763Z" fill="#1F1F1F"/>
<path d="M92.7751 20.7003H94.859V30.9573H92.6604L92.431 30.0455C91.4879 30.856 90.3727 31.2612 89.0855 31.2612C87.5306 31.2612 86.2369 30.7483 85.2046 29.7226C84.185 28.6843 83.6752 27.3863 83.6752 25.8288C83.6752 24.2839 84.185 22.9986 85.2046 21.9729C86.2369 20.9472 87.5306 20.4344 89.0855 20.4344C90.3982 20.4344 91.5261 20.8522 92.4693 21.688L92.7751 20.7003ZM87.2884 27.8422C87.8237 28.374 88.4928 28.64 89.2957 28.64C90.1114 28.64 90.7869 28.374 91.3222 27.8422C91.8575 27.3103 92.1251 26.6392 92.1251 25.8288C92.1251 25.0184 91.8575 24.3472 91.3222 23.8154C90.7869 23.2835 90.1178 23.0176 89.3149 23.0176C88.7796 23.0176 88.2953 23.1442 87.8619 23.3975C87.4413 23.6381 87.11 23.9737 86.8678 24.4042C86.6257 24.8221 86.5046 25.2969 86.5046 25.8288C86.5046 26.6392 86.7659 27.3103 87.2884 27.8422Z" fill="#1F1F1F"/>
<path d="M107.026 30.9763H103.661L100.335 26.0757V30.9763H97.5436V20.7193H100.335V25.2779L103.47 20.7193H106.644L103.145 25.6198L107.026 30.9763Z" fill="#1F1F1F"/>
<path d="M112.61 31.2612C111.591 31.2612 110.66 31.0269 109.819 30.5584C108.991 30.0772 108.334 29.4187 107.85 28.583C107.379 27.7472 107.143 26.8228 107.143 25.8098C107.143 24.2776 107.665 22.9986 108.71 21.9729C109.755 20.9472 111.062 20.4344 112.629 20.4344C113.968 20.4344 115.115 20.8206 116.071 21.593C117.027 22.3528 117.632 23.3658 117.887 24.6321H115.115C114.885 24.1383 114.548 23.7521 114.102 23.4735C113.668 23.1822 113.171 23.0366 112.61 23.0366C111.858 23.0366 111.228 23.3025 110.718 23.8344C110.221 24.3662 109.972 25.031 109.972 25.8288C109.972 26.6265 110.227 27.2977 110.737 27.8422C111.247 28.3867 111.871 28.6589 112.61 28.6589C113.171 28.6589 113.668 28.5133 114.102 28.2221C114.535 27.9182 114.873 27.4876 115.115 26.9305H117.925C117.67 28.2347 117.058 29.2858 116.09 30.0835C115.121 30.8686 113.961 31.2612 112.61 31.2612Z" fill="#1F1F1F"/>
<path d="M127.274 20.7193H128.841V30.9763H126.146V25.5439L121.347 30.9763H119.76V20.7193H122.456V26.0947L127.274 20.7193Z" fill="#1F1F1F"/>
<path d="M145 30.9763H142.304L141.349 24.8031L138.156 30.9953H137.621L134.428 24.8031L133.472 30.9763H130.777L132.497 20.7193H134.887L137.888 26.5316L140.928 20.7193H143.299L145 30.9763Z" fill="#1F1F1F"/>
<path d="M190.616 6.58526C190.171 5.85761 189.948 4.92949 189.948 3.80089C189.948 2.67229 190.175 1.77015 190.627 1.09447C191.088 0.411374 191.76 0.0698242 192.643 0.0698242C193.534 0.0698242 194.203 0.411374 194.648 1.09447C195.101 1.77015 195.327 2.67229 195.327 3.80089C195.327 4.92949 195.105 5.85761 194.659 6.58526C194.214 7.30549 193.542 7.6656 192.643 7.6656C191.745 7.6656 191.069 7.30549 190.616 6.58526ZM194.425 3.81202C194.425 1.85182 193.831 0.871724 192.643 0.871724C191.448 0.871724 190.85 1.85182 190.85 3.81202C190.85 4.77727 190.999 5.5272 191.296 6.0618C191.593 6.5964 192.042 6.8637 192.643 6.8637C193.245 6.8637 193.69 6.5964 193.98 6.0618C194.277 5.5272 194.425 4.77727 194.425 3.81202ZM198.237 6.76346H201.701V7.54309H196.589V7.32034L199.206 4.53596C199.681 4.03849 200.015 3.63382 200.208 3.32197C200.402 3.0027 200.498 2.676 200.498 2.34187C200.498 1.92607 200.368 1.5771 200.108 1.29495C199.848 1.0128 199.507 0.871724 199.084 0.871724C198.638 0.871724 198.282 1.02022 198.014 1.31722C197.747 1.62165 197.613 1.97805 197.613 2.38642C197.613 2.59432 197.636 2.79851 197.68 2.99899H196.789C196.737 2.81336 196.711 2.59804 196.711 2.35301C196.711 1.74416 196.934 1.21327 197.38 0.760349C197.825 0.299999 198.393 0.0698242 199.084 0.0698242C199.752 0.0698242 200.305 0.285149 200.743 0.715799C201.181 1.13902 201.4 1.6662 201.4 2.29732C201.4 2.6463 201.33 2.973 201.189 3.27742C201.055 3.567 200.892 3.83801 200.699 4.09046C200.505 4.34291 200.227 4.66219 199.863 5.04829L198.237 6.76346ZM203.356 7.46512C203.222 7.33147 203.155 7.16441 203.155 6.96394C203.155 6.76346 203.222 6.5964 203.356 6.46275C203.497 6.3291 203.664 6.26227 203.857 6.26227C204.05 6.26227 204.213 6.3291 204.347 6.46275C204.488 6.5964 204.559 6.76346 204.559 6.96394C204.559 7.16441 204.488 7.33147 204.347 7.46512C204.213 7.59877 204.05 7.6656 203.857 7.6656C203.664 7.6656 203.497 7.59877 203.356 7.46512ZM214.833 6.76346H215.724V9.11347H214.855V7.54309H209.52V9.11347H208.652V6.76346H209.22C209.613 6.39221 209.903 5.76851 210.088 4.89236C210.274 4.01621 210.367 2.75767 210.367 1.11675L210.378 0.192337H214.833V6.76346ZM210.189 6.76346H213.964V0.971962H211.169C211.161 3.97909 210.835 5.90959 210.189 6.76346ZM216.504 4.82554C216.49 4.05334 216.764 3.38509 217.329 2.82079C217.9 2.25649 218.572 1.98176 219.345 1.99661C220.124 1.98176 220.796 2.25649 221.36 2.82079C221.925 3.38509 222.199 4.05334 222.185 4.82554C222.199 5.59031 221.921 6.25856 221.349 6.83029C220.778 7.39459 220.106 7.66931 219.333 7.65446C218.561 7.66931 217.893 7.39459 217.329 6.83029C216.764 6.25856 216.49 5.59031 216.504 4.82554ZM221.305 4.83667C221.305 4.25752 221.115 3.77119 220.737 3.37766C220.365 2.98414 219.901 2.78737 219.345 2.78737C218.788 2.78737 218.32 2.98414 217.941 3.37766C217.57 3.76376 217.384 4.2501 217.384 4.83667C217.384 5.4084 217.57 5.89102 217.941 6.28455C218.32 6.67065 218.784 6.8637 219.333 6.8637C219.883 6.8637 220.347 6.66694 220.726 6.27341C221.112 5.87989 221.305 5.40097 221.305 4.83667ZM227.883 7.54309H226.892L225.344 5.31559L223.807 7.54309H222.805L224.82 4.71416L222.972 2.11912H223.963L225.344 4.11274L226.736 2.11912H227.727L225.845 4.71416L227.883 7.54309ZM228.512 4.82554C228.497 4.05334 228.772 3.38509 229.336 2.82079C229.908 2.25649 230.58 1.98176 231.352 1.99661C232.131 1.98176 232.803 2.25649 233.368 2.82079C233.932 3.38509 234.207 4.05334 234.192 4.82554C234.207 5.59031 233.928 6.25856 233.356 6.83029C232.785 7.39459 232.113 7.66931 231.341 7.65446C230.568 7.66931 229.9 7.39459 229.336 6.83029C228.772 6.25856 228.497 5.59031 228.512 4.82554ZM233.312 4.83667C233.312 4.25752 233.123 3.77119 232.744 3.37766C232.373 2.98414 231.909 2.78737 231.352 2.78737C230.795 2.78737 230.327 2.98414 229.948 3.37766C229.577 3.76376 229.392 4.2501 229.392 4.83667C229.392 5.4084 229.577 5.89102 229.948 6.28455C230.327 6.67065 230.791 6.8637 231.341 6.8637C231.89 6.8637 232.354 6.66694 232.733 6.27341C233.119 5.87989 233.312 5.40097 233.312 4.83667ZM239.747 6.78574H240.626V9.11347H239.769V7.54309H235.503V9.11347H234.646V6.78574H235.258C235.704 6.32539 235.941 5.27846 235.971 3.64496L236.004 2.11912H239.747V6.78574ZM236.16 6.78574H238.889V2.88761H236.817L236.784 3.6561C236.747 5.20792 236.539 6.25114 236.16 6.78574ZM244.706 4.82554C244.692 4.05334 244.966 3.38509 245.531 2.82079C246.095 2.25649 246.767 1.98176 247.547 1.99661C248.014 1.99661 248.441 2.10056 248.827 2.30846C249.213 2.51636 249.533 2.80594 249.785 3.17719L249.173 3.66724C248.742 3.08066 248.204 2.78737 247.558 2.78737C247.001 2.78737 246.533 2.98785 246.154 3.3888C245.776 3.78232 245.586 4.26124 245.586 4.82554C245.586 5.39726 245.776 5.8836 246.154 6.28455C246.533 6.67807 247.001 6.87484 247.558 6.87484C248.196 6.87484 248.731 6.58526 249.162 6.00611L249.774 6.48502C249.239 7.27207 248.497 7.6656 247.547 7.6656C246.76 7.6656 246.088 7.39087 245.531 6.84142C244.981 6.28455 244.706 5.61259 244.706 4.82554ZM252.334 7.54309V2.88761H250.507V2.11912H255.007V2.88761H253.18V7.54309H252.334ZM260.099 2.11912H261.012L258.339 8.30044C257.938 9.21371 257.325 9.67035 256.501 9.67035C256.212 9.67035 255.933 9.63322 255.666 9.55897V8.83504C255.978 8.87216 256.197 8.89072 256.323 8.89072C256.62 8.89072 256.865 8.8239 257.058 8.69025C257.251 8.56402 257.414 8.34127 257.548 8.022L257.838 7.37602L255.588 2.11912H256.512L258.305 6.44047L260.099 2.11912ZM265.926 6.78574H266.806V9.11347H265.949V7.54309H261.683V9.11347H260.825V6.78574H261.438C261.883 6.32539 262.121 5.27846 262.151 3.64496L262.184 2.11912H265.926V6.78574ZM262.34 6.78574H265.069V2.88761H262.997L262.964 3.6561C262.927 5.20792 262.719 6.25114 262.34 6.78574ZM272.835 5.09284H268.547C268.599 5.62744 268.811 6.05809 269.182 6.38479C269.553 6.71149 270.006 6.87484 270.541 6.87484C271.157 6.87484 271.71 6.62981 272.2 6.13976L272.702 6.71891C272.093 7.35004 271.369 7.6656 270.53 7.6656C269.72 7.6656 269.037 7.39459 268.48 6.85256C267.931 6.30311 267.656 5.63115 267.656 4.83667C267.656 4.04962 267.924 3.38137 268.458 2.83192C269 2.27505 269.657 1.99661 270.429 1.99661C271.135 1.99661 271.721 2.22679 272.189 2.68714C272.664 3.14749 272.902 3.73406 272.902 4.44686C272.902 4.65476 272.88 4.87009 272.835 5.09284ZM268.581 4.33549H272.022C272.015 3.86029 271.859 3.48161 271.554 3.19946C271.25 2.91731 270.868 2.77624 270.407 2.77624C269.954 2.77624 269.561 2.92102 269.227 3.2106C268.893 3.49275 268.677 3.86771 268.581 4.33549ZM274.408 7.54309V2.11912H275.266V4.2798H277.928V2.11912H278.785V7.54309H277.928V5.03715H275.266V7.54309H274.408ZM281.766 7.54309V2.88761H279.939V2.11912H284.439V2.88761H282.612V7.54309H281.766ZM285.222 4.82554C285.207 4.05334 285.482 3.38509 286.046 2.82079C286.618 2.25649 287.29 1.98176 288.062 1.99661C288.842 1.98176 289.514 2.25649 290.078 2.82079C290.642 3.38509 290.917 4.05334 290.902 4.82554C290.917 5.59031 290.638 6.25856 290.067 6.83029C289.495 7.39459 288.823 7.66931 288.051 7.65446C287.279 7.66931 286.61 7.39459 286.046 6.83029C285.482 6.25856 285.207 5.59031 285.222 4.82554ZM290.022 4.83667C290.022 4.25752 289.833 3.77119 289.454 3.37766C289.083 2.98414 288.619 2.78737 288.062 2.78737C287.505 2.78737 287.037 2.98414 286.659 3.37766C286.287 3.76376 286.102 4.2501 286.102 4.83667C286.102 5.4084 286.287 5.89102 286.659 6.28455C287.037 6.67065 287.501 6.8637 288.051 6.8637C288.6 6.8637 289.064 6.66694 289.443 6.27341C289.829 5.87989 290.022 5.40097 290.022 4.83667ZM296.853 5.90587C296.853 6.39592 296.675 6.79316 296.319 7.09759C295.97 7.39459 295.506 7.54309 294.926 7.54309H292.409V2.11912H294.648C295.183 2.11912 295.606 2.24906 295.918 2.50894C296.237 2.76881 296.397 3.11779 296.397 3.55586C296.397 4.00879 296.207 4.35776 295.829 4.60279C296.512 4.84039 296.853 5.27475 296.853 5.90587ZM293.267 2.88761V4.33549H294.659C295.253 4.33549 295.55 4.09046 295.55 3.60041C295.55 3.12521 295.253 2.88761 294.659 2.88761H293.267ZM295.996 5.90587C295.996 5.65342 295.895 5.45666 295.695 5.31559C295.502 5.16709 295.227 5.09284 294.871 5.09284H293.267V6.78574H294.871C295.22 6.78574 295.494 6.70777 295.695 6.55185C295.895 6.3885 295.996 6.17317 295.996 5.90587Z" fill="#1F1F1F"/>
<path d="M194.762 17.4051H195.639V30.2689H193.008V20.5236L190.572 21.3032L189.948 18.9838L194.762 17.4051ZM198.512 23.7395C198.512 21.7645 198.947 20.1792 199.818 18.9838C200.688 17.7754 201.955 17.1712 203.618 17.1712C205.282 17.1712 206.542 17.7754 207.4 18.9838C208.27 20.1792 208.705 21.7645 208.705 23.7395C208.705 25.7276 208.264 27.3518 207.38 28.6122C206.497 29.8726 205.243 30.5028 203.618 30.5028C201.981 30.5028 200.721 29.8726 199.837 28.6122C198.954 27.3518 198.512 25.7276 198.512 23.7395ZM205.996 23.759C205.996 20.9914 205.204 19.6075 203.618 19.6075C202.02 19.6075 201.221 20.9914 201.221 23.759C201.221 26.6306 202.02 28.0664 203.618 28.0664C205.204 28.0664 205.996 26.6306 205.996 23.759ZM216.347 23.7395C216.347 21.7645 216.782 20.1792 217.653 18.9838C218.523 17.7754 219.79 17.1712 221.453 17.1712C223.116 17.1712 224.377 17.7754 225.234 18.9838C226.105 20.1792 226.54 21.7645 226.54 23.7395C226.54 25.7276 226.099 27.3518 225.215 28.6122C224.331 29.8726 223.077 30.5028 221.453 30.5028C219.816 30.5028 218.556 29.8726 217.672 28.6122C216.788 27.3518 216.347 25.7276 216.347 23.7395ZM223.831 23.759C223.831 20.9914 223.038 19.6075 221.453 19.6075C219.855 19.6075 219.056 20.9914 219.056 23.759C219.056 26.6306 219.855 28.0664 221.453 28.0664C223.038 28.0664 223.831 26.6306 223.831 23.759ZM228.719 23.7395C228.719 21.7645 229.154 20.1792 230.024 18.9838C230.895 17.7754 232.162 17.1712 233.825 17.1712C235.488 17.1712 236.749 17.7754 237.606 18.9838C238.477 20.1792 238.912 21.7645 238.912 23.7395C238.912 25.7276 238.47 27.3518 237.587 28.6122C236.703 29.8726 235.449 30.5028 233.825 30.5028C232.188 30.5028 230.928 29.8726 230.044 28.6122C229.16 27.3518 228.719 25.7276 228.719 23.7395ZM236.203 23.759C236.203 20.9914 235.41 19.6075 233.825 19.6075C232.227 19.6075 231.428 20.9914 231.428 23.759C231.428 26.6306 232.227 28.0664 233.825 28.0664C235.41 28.0664 236.203 26.6306 236.203 23.759ZM241.091 23.7395C241.091 21.7645 241.526 20.1792 242.396 18.9838C243.267 17.7754 244.534 17.1712 246.197 17.1712C247.86 17.1712 249.121 17.7754 249.978 18.9838C250.849 20.1792 251.284 21.7645 251.284 23.7395C251.284 25.7276 250.842 27.3518 249.959 28.6122C249.075 29.8726 247.821 30.5028 246.197 30.5028C244.56 30.5028 243.299 29.8726 242.416 28.6122C241.532 27.3518 241.091 25.7276 241.091 23.7395ZM248.575 23.759C248.575 20.9914 247.782 19.6075 246.197 19.6075C244.599 19.6075 243.8 20.9914 243.8 23.759C243.8 26.6306 244.599 28.0664 246.197 28.0664C247.782 28.0664 248.575 26.6306 248.575 23.759ZM264.207 29.7816V32.1595H261.907V29.7426C260.335 29.3918 259.185 28.5147 258.458 27.1114L260.231 25.786C260.985 26.9685 261.966 27.5597 263.174 27.5597C263.694 27.5597 264.103 27.4622 264.402 27.2673C264.714 27.0724 264.87 26.7866 264.87 26.4097C264.87 26.1109 264.753 25.8705 264.519 25.6886C264.298 25.4937 263.915 25.2858 263.369 25.0649L262.044 24.5776C260.108 23.85 259.14 22.7195 259.14 21.1863C259.14 20.4066 259.393 19.731 259.9 19.1592C260.407 18.5875 261.076 18.2042 261.907 18.0093V15.6704H264.207V17.9703C265.507 18.2432 266.475 18.9903 267.111 20.2117L265.357 21.5371C264.76 20.6535 264.012 20.2117 263.116 20.2117C262.7 20.2117 262.362 20.2962 262.102 20.4651C261.842 20.634 261.713 20.8809 261.713 21.2057C261.713 21.4786 261.81 21.706 262.005 21.8879C262.213 22.0568 262.551 22.2388 263.018 22.4337L264.48 22.9404C266.455 23.6681 267.443 24.8115 267.443 26.3708C267.443 27.2673 267.15 28.021 266.566 28.6317C265.981 29.2424 265.195 29.6257 264.207 29.7816Z" fill="#1F1F1F"/>
<path d="M0.66825 66.2091C0.22275 65.4815 0 64.5534 0 63.4248C0 62.2962 0.226463 61.394 0.679388 60.7183C1.13974 60.0352 1.8117 59.6937 2.69527 59.6937C3.58627 59.6937 4.25452 60.0352 4.70002 60.7183C5.15295 61.394 5.37941 62.2962 5.37941 63.4248C5.37941 64.5534 5.15666 65.4815 4.71116 66.2091C4.26566 66.9294 3.5937 67.2895 2.69527 67.2895C1.79685 67.2895 1.12117 66.9294 0.66825 66.2091ZM4.47728 63.4359C4.47728 61.4757 3.88327 60.4956 2.69527 60.4956C1.49985 60.4956 0.902138 61.4757 0.902138 63.4359C0.902138 64.4011 1.05064 65.1511 1.34764 65.6857C1.64464 66.2203 2.09385 66.4876 2.69527 66.4876C3.2967 66.4876 3.7422 66.2203 4.03178 65.6857C4.32878 65.1511 4.47728 64.4011 4.47728 63.4359ZM11.5076 64.8392C11.5076 65.5594 11.2515 66.1497 10.7391 66.6101C10.2342 67.063 9.62169 67.2895 8.90146 67.2895C8.35945 67.2895 7.8694 67.1521 7.43132 66.8774C7.00067 66.5952 6.65912 66.224 6.40667 65.7636L7.01923 65.3293C7.54641 66.1015 8.17011 66.4876 8.89032 66.4876C9.39522 66.4876 9.80731 66.3391 10.1266 66.0421C10.4459 65.7376 10.6055 65.3404 10.6055 64.8503C10.6055 64.3751 10.4421 64.0039 10.1154 63.7366C9.79617 63.4693 9.33954 63.3356 8.74554 63.3356H8.02161V63.0795L9.94839 60.6181H6.90786V59.8162H11.3183V60.0724L9.36924 62.5783C9.96324 62.6377 10.4681 62.8679 10.8839 63.2688C11.2997 63.6624 11.5076 64.1858 11.5076 64.8392ZM13.1681 67.089C13.0344 66.9553 12.9676 66.7883 12.9676 66.5878C12.9676 66.3873 13.0344 66.2203 13.1681 66.0866C13.3091 65.953 13.4762 65.8861 13.6692 65.8861C13.8623 65.8861 14.0256 65.953 14.1593 66.0866C14.3004 66.2203 14.3709 66.3873 14.3709 66.5878C14.3709 66.7883 14.3004 66.9553 14.1593 67.089C14.0256 67.2226 13.8623 67.2895 13.6692 67.2895C13.4762 67.2895 13.3091 67.2226 13.1681 67.089ZM25.7707 63.4916C25.793 64.5385 25.4254 65.4369 24.6681 66.1868C23.9107 66.9368 23.0086 67.3043 21.9617 67.2895C21.3157 67.2895 20.7217 67.1484 20.1797 66.8662C19.6376 66.5841 19.2107 66.198 18.8989 65.7079L19.556 65.1956C20.1574 66.0569 20.9556 66.4876 21.9505 66.4876C22.7227 66.4876 23.3798 66.2351 23.9219 65.7302C24.4639 65.2253 24.7757 64.5868 24.8574 63.8146H21.4159V63.0349H24.8351C24.7312 62.2924 24.4082 61.6836 23.8662 61.2084C23.3316 60.7332 22.693 60.4956 21.9505 60.4956C20.9556 60.4956 20.1574 60.9262 19.556 61.7875L18.8989 61.2752C19.2181 60.7852 19.6451 60.3991 20.1797 60.1169C20.7217 59.8348 21.3157 59.6937 21.9617 59.6937C23.0086 59.6788 23.9107 60.0464 24.6681 60.7963C25.4254 61.5462 25.793 62.4446 25.7707 63.4916ZM27.2614 67.1669V61.6205H27.5732L30.146 64.6721L32.7076 61.6205H33.0083V67.1669H32.1507V63.5027L30.3019 65.7079H29.9678L28.1189 63.5027V67.1669H27.2614ZM39.0621 61.6205H39.3739V67.1669H38.5164V63.3356L35.2085 67.2895H34.8967V61.743H35.7543V65.5854L39.0621 61.6205ZM41.2594 67.1669V61.743H44.9125V62.5115H42.117V67.1669H41.2594ZM50.8663 62.4335C51.3786 62.9755 51.6347 63.6475 51.6347 64.4494C51.6347 65.2513 51.3749 65.927 50.8551 66.4764C50.3428 67.0184 49.708 67.2895 48.9506 67.2895C48.0967 67.2895 47.4322 66.9888 46.957 66.3873V69.1717H46.0994V61.743H46.9013V62.6117C47.1092 62.2999 47.3951 62.0585 47.7589 61.8878C48.1227 61.7096 48.52 61.6205 48.9506 61.6205C49.7228 61.6205 50.3614 61.8915 50.8663 62.4335ZM50.198 65.9195C50.5693 65.5334 50.7549 65.0471 50.7549 64.4605C50.7549 63.874 50.5693 63.3876 50.198 63.0015C49.8342 62.608 49.3775 62.4112 48.8281 62.4112C48.3083 62.4112 47.8628 62.5894 47.4916 62.9458C47.1278 63.3022 46.9459 63.8034 46.9459 64.4494C46.9459 65.1102 47.1241 65.6188 47.4805 65.9752C47.8443 66.3242 48.2935 66.4987 48.8281 66.4987C49.3775 66.4987 49.8342 66.3056 50.198 65.9195ZM57.2016 63.8257V67.1669H56.3997V66.4653C55.9839 67.0147 55.3751 67.2895 54.5732 67.2895C54.0089 67.2895 53.5523 67.1521 53.2033 66.8774C52.8543 66.5952 52.6798 66.224 52.6798 65.7636C52.6798 65.3033 52.858 64.9357 53.2144 64.661C53.5708 64.3863 54.0423 64.2489 54.6289 64.2489H56.3441V63.7811C56.3441 63.3431 56.2253 63.0052 55.9877 62.7676C55.7575 62.53 55.4382 62.4112 55.0298 62.4112C54.421 62.4112 53.8938 62.7008 53.4483 63.28L52.8803 62.8122C53.3629 62.0177 54.098 61.6205 55.0855 61.6205C55.7389 61.6205 56.255 61.8135 56.6336 62.1996C57.0123 62.5783 57.2016 63.1203 57.2016 63.8257ZM56.3441 65.0842V64.9506H54.7291C53.9495 64.9506 53.5597 65.2068 53.5597 65.7191C53.5597 65.9864 53.6636 66.198 53.8715 66.3539C54.0869 66.5024 54.3579 66.5767 54.6846 66.5767C55.1375 66.5767 55.5273 66.4319 55.854 66.1423C56.1807 65.8527 56.3441 65.5 56.3441 65.0842ZM59.0207 67.1669V61.743H59.8783V63.9037H62.5401V61.743H63.3977V67.1669H62.5401V64.661H59.8783V67.1669H59.0207ZM66.3773 67.1669V62.5115H64.5507V61.743H69.0503V62.5115H67.2237V67.1669H66.3773ZM73.3558 67.1669V61.743H77.6883V67.1669H76.8196V62.5115H74.2134V67.1669H73.3558ZM79.1765 64.4494C79.1616 63.6772 79.4364 63.009 80.0007 62.4447C80.5724 61.8804 81.2444 61.6056 82.0166 61.6205C82.7962 61.6056 83.4681 61.8804 84.0324 62.4447C84.5967 63.009 84.8715 63.6772 84.8566 64.4494C84.8715 65.2142 84.593 65.8824 84.0213 66.4541C83.4496 67.0184 82.7776 67.2932 82.0054 67.2783C81.2332 67.2932 80.565 67.0184 80.0007 66.4541C79.4364 65.8824 79.1616 65.2142 79.1765 64.4494ZM83.9767 64.4605C83.9767 63.8814 83.7874 63.395 83.4087 63.0015C83.0375 62.608 82.5734 62.4112 82.0166 62.4112C81.4597 62.4112 80.9919 62.608 80.6132 63.0015C80.242 63.3876 80.0563 63.874 80.0563 64.4605C80.0563 65.0323 80.242 65.5149 80.6132 65.9084C80.9919 66.2945 81.456 66.4876 82.0054 66.4876C82.5549 66.4876 83.0189 66.2908 83.3976 65.8973C83.7837 65.5038 83.9767 65.0248 83.9767 64.4605ZM86.3641 67.1669V61.743H87.2217V67.1669H86.3641ZM88.38 64.2044L90.9304 67.1669H89.8501L87.333 64.2266L89.6162 61.743H90.6854L88.38 64.2044ZM91.543 64.4494C91.5282 63.6772 91.8029 63.009 92.367 62.4447C92.9387 61.8804 93.6107 61.6056 94.3829 61.6205C95.1625 61.6056 95.8345 61.8804 96.3988 62.4447C96.9631 63.009 97.2378 63.6772 97.2229 64.4494C97.2378 65.2142 96.9594 65.8824 96.3876 66.4541C95.8159 67.0184 95.1439 67.2932 94.3717 67.2783C93.5995 67.2932 92.9313 67.0184 92.367 66.4541C91.8029 65.8824 91.5282 65.2142 91.543 64.4494ZM96.3431 64.4605C96.3431 63.8814 96.1537 63.395 95.7751 63.0015C95.4038 62.608 94.9398 62.4112 94.3829 62.4112C93.826 62.4112 93.3582 62.608 92.9796 63.0015C92.6083 63.3876 92.4227 63.874 92.4227 64.4605C92.4227 65.0323 92.6083 65.5149 92.9796 65.9084C93.3582 66.2945 93.8223 66.4876 94.3717 66.4876C94.9212 66.4876 95.3853 66.2908 95.7639 65.8973C96.15 65.5038 96.3431 65.0248 96.3431 64.4605ZM103.497 62.4335C104.009 62.9755 104.266 63.6475 104.266 64.4494C104.266 65.2513 104.006 65.927 103.486 66.4764C102.974 67.0184 102.339 67.2895 101.581 67.2895C100.728 67.2895 100.063 66.9888 99.5878 66.3873V69.1717H98.7302V61.743H99.5321V62.6117C99.74 62.2999 100.026 62.0585 100.39 61.8878C100.754 61.7096 101.151 61.6205 101.581 61.6205C102.354 61.6205 102.992 61.8915 103.497 62.4335ZM102.829 65.9195C103.2 65.5334 103.386 65.0471 103.386 64.4605C103.386 63.874 103.2 63.3876 102.829 63.0015C102.465 62.608 102.008 62.4112 101.459 62.4112C100.939 62.4112 100.494 62.5894 100.122 62.9458C99.7586 63.3022 99.5767 63.8034 99.5767 64.4494C99.5767 65.1102 99.7549 65.6188 100.111 65.9752C100.475 66.3242 100.924 66.4987 101.459 66.4987C102.008 66.4987 102.465 66.3056 102.829 65.9195ZM109.933 61.6205H110.245V67.1669H109.387V63.3356L106.079 67.2895H105.767V61.743H106.625V65.5854L109.933 61.6205ZM116.574 65.5297C116.574 66.0198 116.396 66.417 116.04 66.7214C115.691 67.0184 115.227 67.1669 114.648 67.1669H112.13V61.743H114.369C114.904 61.743 115.327 61.8729 115.639 62.1328C115.958 62.3927 116.118 62.7417 116.118 63.1797C116.118 63.6327 115.928 63.9816 115.55 64.2266C116.233 64.4642 116.574 64.8986 116.574 65.5297ZM112.988 62.5115V63.9593H114.38C114.974 63.9593 115.271 63.7143 115.271 63.2243C115.271 62.7491 114.974 62.5115 114.38 62.5115H112.988ZM115.717 65.5297C115.717 65.2773 115.617 65.0805 115.416 64.9394C115.223 64.7909 114.948 64.7167 114.592 64.7167H112.988V66.4096H114.592C114.941 66.4096 115.216 66.3316 115.416 66.1757C115.617 66.0124 115.717 65.797 115.717 65.5297ZM118.188 67.1669V61.743H119.046V66.4096H121.318V61.743H122.176V66.4096H124.459V61.743H125.316V67.1669H118.188ZM131.359 61.6205H131.671V67.1669H130.814V63.3356L127.506 67.2895H127.194V61.743H128.052V65.5854L131.359 61.6205ZM137.723 61.6205H138.034V67.1669H137.177V63.3356L133.869 67.2895H133.557V61.743H134.415V65.5854L137.723 61.6205ZM134.237 59.0254V58.6802H134.96V59.0032C134.96 59.367 135.042 59.6491 135.206 59.8496C135.376 60.0427 135.614 60.1392 135.918 60.1392C136.23 60.1392 136.468 60.0427 136.631 59.8496C136.802 59.6491 136.887 59.367 136.887 59.0032V58.6802H137.611V59.0254C137.611 59.5526 137.455 59.9795 137.143 60.3062C136.839 60.6255 136.431 60.7852 135.918 60.7852C135.413 60.7852 135.005 60.6255 134.693 60.3062C134.389 59.9795 134.237 59.5526 134.237 59.0254Z" fill="#1F1F1F"/>
<path d="M0 89.9081V77.0443H2.63123V81.9754H8.3225V77.0443H10.9537V89.9081H8.3225V84.3533H2.63123V89.9081H0ZM13.8947 89.9081V77.0443H16.5259V81.4687H18.8648C20.2421 81.4687 21.3661 81.865 22.2367 82.6576C23.1202 83.4372 23.562 84.4442 23.562 85.6786C23.562 86.939 23.1202 87.959 22.2367 88.7387C21.3661 89.5183 20.2421 89.9081 18.8648 89.9081H13.8947ZM16.5259 87.5887H18.8648C19.4885 87.5887 19.9758 87.4198 20.3266 87.082C20.6904 86.7311 20.8723 86.2699 20.8723 85.6981C20.8723 85.1134 20.6904 84.6456 20.3266 84.2948C19.9758 83.944 19.4885 83.7686 18.8648 83.7686H16.5259V87.5887ZM43.215 83.4762C43.241 85.3083 42.5913 86.8871 41.2659 88.2124C39.9406 89.5378 38.3748 90.181 36.5687 90.142C34.8795 90.142 33.4242 89.5962 32.2028 88.5048C30.9814 87.4003 30.2732 86.0165 30.0783 84.3533H28.4411V89.9081H25.8099V77.0443H28.4411V81.9754H30.1758C30.4876 80.4551 31.2347 79.2142 32.4172 78.2527C33.5996 77.2912 34.9834 76.8104 36.5687 76.8104C38.3748 76.7714 39.9406 77.4146 41.2659 78.74C42.6043 80.0653 43.254 81.6441 43.215 83.4762ZM39.3948 86.5167C40.1355 85.7111 40.5058 84.6976 40.5058 83.4762C40.5058 82.2548 40.1355 81.2478 39.3948 80.4551C38.6542 79.6495 37.7121 79.2467 36.5687 79.2467C35.4252 79.2467 34.4767 79.643 33.7231 80.4357C32.9824 81.2283 32.6121 82.2418 32.6121 83.4762C32.6121 84.7106 32.9824 85.7241 33.7231 86.5167C34.4767 87.3094 35.4252 87.7057 36.5687 87.7057C37.7121 87.7057 38.6542 87.3094 39.3948 86.5167ZM44.8295 84.7626V82.5601H49.7411V84.7626H44.8295ZM62.2502 76.8104H63.1273V89.9081H60.496V81.9364L52.9532 90.142H52.0956V77.0443H54.7268V84.938L62.2502 76.8104ZM54.6099 72.464V72.1716H56.7148V72.542C56.7148 73.0097 56.8253 73.3736 57.0462 73.6334C57.2671 73.8933 57.5789 74.0232 57.9817 74.0232C58.3845 74.0232 58.6964 73.8933 58.9173 73.6334C59.1382 73.3736 59.2486 73.0097 59.2486 72.542V72.1716H61.3341V72.464C61.3341 73.4645 61.0223 74.2896 60.3986 74.9393C59.7749 75.576 58.9693 75.8943 57.9817 75.8943C56.9812 75.8943 56.1691 75.576 55.5454 74.9393C54.9217 74.2896 54.6099 73.4645 54.6099 72.464ZM65.3257 83.4762C65.2997 81.6441 65.9624 80.0653 67.3137 78.74C68.6781 77.4146 70.2893 76.7714 72.1474 76.8104C74.0055 76.7714 75.6168 77.4146 76.9811 78.74C78.3584 80.0653 79.0341 81.6441 79.0081 83.4762C79.0341 85.3083 78.3584 86.8871 76.9811 88.2124C75.6168 89.5378 74.0055 90.181 72.1474 90.142C70.2893 90.181 68.6781 89.5378 67.3137 88.2124C65.9624 86.8871 65.2997 85.3083 65.3257 83.4762ZM76.2989 83.4762C76.2989 82.2548 75.9026 81.2478 75.11 80.4551C74.3304 79.6495 73.3493 79.2467 72.1669 79.2467C70.9715 79.2467 69.984 79.643 69.2043 80.4357C68.4247 81.2283 68.0349 82.2418 68.0349 83.4762C68.0349 84.7106 68.4247 85.7241 69.2043 86.5167C69.984 87.3094 70.9715 87.7057 72.1669 87.7057C73.3493 87.7057 74.3304 87.3094 75.11 86.5167C75.9026 85.7241 76.2989 84.7106 76.2989 83.4762ZM81.2363 89.9081V77.0443H86.07C87.4213 77.0443 88.5323 77.4276 89.4029 78.1942C90.2734 78.9609 90.7087 79.9614 90.7087 81.1958C90.7087 82.4172 90.2734 83.4177 89.4029 84.1973C88.5323 84.977 87.4213 85.3668 86.07 85.3668H83.8675V89.9081H81.2363ZM83.8675 83.0669H86.07C86.6807 83.0669 87.1549 82.898 87.4928 82.5601C87.8436 82.2093 88.019 81.7545 88.019 81.1958C88.019 80.6501 87.8371 80.2083 87.4733 79.8704C87.1224 79.5326 86.6547 79.3637 86.07 79.3637H83.8675V83.0669ZM104.133 89.9081H100.956L95.44 83.2033V89.9081H92.8088V77.0443H95.44V83.0084L100.352 77.0443H103.49L98.5585 83.1059L104.133 89.9081Z" fill="#1F1F1F"/>
<path d="M183.703 65.196C183.257 64.4684 183.034 63.5403 183.034 62.4117C183.034 61.2831 183.261 60.3809 183.714 59.7053C184.174 59.0222 184.846 58.6806 185.73 58.6806C186.621 58.6806 187.289 59.0222 187.734 59.7053C188.187 60.3809 188.414 61.2831 188.414 62.4117C188.414 63.5403 188.191 64.4684 187.746 65.196C187.3 65.9163 186.628 66.2764 185.73 66.2764C184.831 66.2764 184.156 65.9163 183.703 65.196ZM187.512 62.4228C187.512 60.4626 186.918 59.4825 185.73 59.4825C184.534 59.4825 183.937 60.4626 183.937 62.4228C183.937 63.3881 184.085 64.138 184.382 64.6726C184.679 65.2072 185.128 65.4745 185.73 65.4745C186.331 65.4745 186.777 65.2072 187.066 64.6726C187.363 64.138 187.512 63.3881 187.512 62.4228ZM195.01 64.0266V64.784H193.941V66.1539H193.072V64.784H189.386V64.5389L191.802 58.8031H192.693L190.488 64.0266H193.072V61.5764H193.941V64.0266H195.01ZM196.528 66.0759C196.395 65.9423 196.328 65.7752 196.328 65.5747C196.328 65.3742 196.395 65.2072 196.528 65.0735C196.67 64.9399 196.837 64.8731 197.03 64.8731C197.223 64.8731 197.386 64.9399 197.52 65.0735C197.661 65.2072 197.731 65.3742 197.731 65.5747C197.731 65.7752 197.661 65.9423 197.52 66.0759C197.386 66.2096 197.223 66.2764 197.03 66.2764C196.837 66.2764 196.67 66.2096 196.528 66.0759ZM202.248 62.4785C202.226 61.4316 202.594 60.5331 203.351 59.7832C204.116 59.0333 205.022 58.6658 206.069 58.6806C206.715 58.6806 207.305 58.8217 207.84 59.1038C208.382 59.386 208.808 59.7721 209.12 60.2621L208.474 60.7745C207.873 59.9132 207.075 59.4825 206.08 59.4825C205.248 59.4825 204.55 59.7684 203.986 60.3401C203.429 60.9118 203.151 61.6246 203.151 62.4785C203.151 63.3324 203.429 64.0452 203.986 64.6169C204.55 65.1886 205.248 65.4745 206.08 65.4745C207.075 65.4745 207.873 65.0438 208.474 64.1825L209.12 64.6949C208.808 65.1849 208.382 65.571 207.84 65.8532C207.305 66.1353 206.715 66.2764 206.069 66.2764C205.022 66.2912 204.116 65.9237 203.351 65.1738C202.594 64.4238 202.226 63.5254 202.248 62.4785ZM215.066 64.5167C215.066 65.0067 214.888 65.4039 214.531 65.7084C214.182 66.0054 213.718 66.1539 213.139 66.1539H210.622V60.7299H212.861C213.395 60.7299 213.819 60.8598 214.13 61.1197C214.45 61.3796 214.609 61.7286 214.609 62.1666C214.609 62.6196 214.42 62.9685 214.041 63.2136C214.724 63.4512 215.066 63.8855 215.066 64.5167ZM211.48 61.4984V62.9463H212.872C213.466 62.9463 213.763 62.7012 213.763 62.2112C213.763 61.736 213.466 61.4984 212.872 61.4984H211.48ZM214.208 64.5167C214.208 64.2642 214.108 64.0674 213.908 63.9264C213.715 63.7779 213.44 63.7036 213.083 63.7036H211.48V65.3965H213.083C213.432 65.3965 213.707 65.3186 213.908 65.1626C214.108 64.9993 214.208 64.784 214.208 64.5167ZM216.29 63.4363C216.275 62.6641 216.55 61.9959 217.114 61.4316C217.686 60.8673 218.358 60.5925 219.13 60.6074C219.91 60.5925 220.582 60.8673 221.146 61.4316C221.71 61.9959 221.985 62.6641 221.97 63.4363C221.985 64.2011 221.707 64.8693 221.135 65.4411C220.563 66.0054 219.891 66.2801 219.119 66.2653C218.347 66.2801 217.679 66.0054 217.114 65.4411C216.55 64.8693 216.275 64.2011 216.29 63.4363ZM221.09 63.4475C221.09 62.8683 220.901 62.382 220.522 61.9884C220.151 61.5949 219.687 61.3982 219.13 61.3982C218.573 61.3982 218.106 61.5949 217.727 61.9884C217.356 62.3745 217.17 62.8609 217.17 63.4475C217.17 64.0192 217.356 64.5018 217.727 64.8953C218.106 65.2814 218.57 65.4745 219.119 65.4745C219.668 65.4745 220.133 65.2777 220.511 64.8842C220.897 64.4907 221.09 64.0118 221.09 63.4475ZM225.108 60.7299H227.269V66.1539H226.411V64.1714H225.387L223.894 66.1539H222.892L224.473 64.06C224.072 63.9412 223.757 63.7445 223.527 63.4697C223.304 63.1876 223.193 62.8535 223.193 62.4674C223.193 61.9402 223.367 61.5207 223.716 61.2088C224.065 60.8895 224.529 60.7299 225.108 60.7299ZM226.411 63.414V61.4984H225.164C224.822 61.4984 224.555 61.5838 224.362 61.7546C224.169 61.9253 224.072 62.1592 224.072 62.4562C224.072 62.7458 224.169 62.9797 224.362 63.1579C224.562 63.3287 224.833 63.414 225.175 63.414H226.411ZM236.142 60.7299H237.055L234.382 66.9112C233.981 67.8245 233.369 68.2811 232.544 68.2811C232.255 68.2811 231.976 68.244 231.709 68.1698V67.4458C232.021 67.4829 232.24 67.5015 232.366 67.5015C232.663 67.5015 232.908 67.4347 233.101 67.301C233.294 67.1748 233.458 66.9521 233.591 66.6328L233.881 65.9868L231.631 60.7299H232.555L234.349 65.0513L236.142 60.7299ZM238.292 66.1539V60.7299H239.15V62.8906H241.812V60.7299H242.669V66.1539H241.812V63.6479H239.15V66.1539H238.292ZM248.711 60.6074H249.023V66.1539H248.166V62.3226L244.858 66.2764H244.546V60.7299H245.404V64.5723L248.711 60.6074ZM250.908 66.1539V60.7299H251.766V66.1539H250.908ZM252.924 63.1913L255.475 66.1539H254.394L251.877 63.2136L254.16 60.7299H255.23L252.924 63.1913ZM260.652 62.8126V66.1539H259.85V65.4522C259.434 66.0017 258.825 66.2764 258.023 66.2764C257.459 66.2764 257.002 66.139 256.653 65.8643C256.304 65.5822 256.13 65.2109 256.13 64.7505C256.13 64.2902 256.308 63.9227 256.664 63.6479C257.021 63.3732 257.492 63.2359 258.079 63.2359H259.794V62.7681C259.794 62.33 259.675 61.9922 259.438 61.7546C259.208 61.517 258.888 61.3982 258.48 61.3982C257.871 61.3982 257.344 61.6877 256.898 62.2669L256.33 61.7991C256.813 61.0046 257.548 60.6074 258.536 60.6074C259.189 60.6074 259.705 60.8005 260.084 61.1866C260.462 61.5652 260.652 62.1072 260.652 62.8126ZM259.794 64.0712V63.9375H258.179C257.4 63.9375 257.01 64.1937 257.01 64.706C257.01 64.9733 257.114 65.1849 257.322 65.3408C257.537 65.4893 257.808 65.5636 258.135 65.5636C258.588 65.5636 258.977 65.4188 259.304 65.1292C259.631 64.8397 259.794 64.487 259.794 64.0712ZM262.893 60.7299H266.568V66.1539H265.711V61.4984H263.695L263.673 62.1666C263.621 63.6294 263.472 64.6614 263.227 65.2629C262.982 65.8643 262.548 66.1761 261.924 66.1984C261.813 66.1984 261.716 66.1836 261.635 66.1539V65.4299C261.753 65.4448 261.828 65.4522 261.857 65.4522C262.199 65.4522 262.444 65.1886 262.592 64.6614C262.748 64.1343 262.837 63.2952 262.86 62.1444L262.893 60.7299ZM268.463 66.1539V60.7299H269.32V62.601H270.612C271.229 62.601 271.719 62.7644 272.082 63.0911C272.454 63.4103 272.639 63.8373 272.639 64.3719C272.639 64.9065 272.454 65.3371 272.082 65.6638C271.719 65.9905 271.229 66.1539 270.612 66.1539H268.463ZM269.32 65.3965H270.568C270.939 65.3965 271.229 65.3074 271.437 65.1292C271.652 64.9436 271.759 64.6949 271.759 64.383C271.759 64.0712 271.652 63.8224 271.437 63.6368C271.221 63.4512 270.928 63.3584 270.557 63.3584H269.32V65.3965ZM274.141 66.1539V60.7299H274.999V62.8906H277.661V60.7299H278.518V66.1539H277.661V63.6479H274.999V66.1539H274.141ZM284.46 62.8126V66.1539H283.658V65.4522C283.242 66.0017 282.633 66.2764 281.831 66.2764C281.267 66.2764 280.811 66.139 280.462 65.8643C280.113 65.5822 279.938 65.2109 279.938 64.7505C279.938 64.2902 280.116 63.9227 280.473 63.6479C280.829 63.3732 281.301 63.2359 281.887 63.2359H283.602V62.7681C283.602 62.33 283.484 61.9922 283.246 61.7546C283.016 61.517 282.697 61.3982 282.288 61.3982C281.679 61.3982 281.152 61.6877 280.707 62.2669L280.139 61.7991C280.621 61.0046 281.356 60.6074 282.344 60.6074C282.997 60.6074 283.513 60.8005 283.892 61.1866C284.271 61.5652 284.46 62.1072 284.46 62.8126ZM283.602 64.0712V63.9375H281.987C281.208 63.9375 280.818 64.1937 280.818 64.706C280.818 64.9733 280.922 65.1849 281.13 65.3408C281.345 65.4893 281.616 65.5636 281.943 65.5636C282.396 65.5636 282.786 65.4188 283.112 65.1292C283.439 64.8397 283.602 64.487 283.602 64.0712ZM288.072 60.7299H290.233V66.1539H289.375V64.1714H288.351L286.858 66.1539H285.856L287.437 64.06C287.036 63.9412 286.721 63.7445 286.491 63.4697C286.268 63.1876 286.157 62.8535 286.157 62.4674C286.157 61.9402 286.331 61.5207 286.68 61.2088C287.029 60.8895 287.493 60.7299 288.072 60.7299ZM289.375 63.414V61.4984H288.128C287.786 61.4984 287.519 61.5838 287.326 61.7546C287.133 61.9253 287.036 62.1592 287.036 62.4562C287.036 62.7458 287.133 62.9797 287.326 63.1579C287.526 63.3287 287.797 63.414 288.139 63.414H289.375Z" fill="#1F1F1F"/>
<path d="M195.903 75.2829H196.76V88.3806H194.129V81.5199L190.894 85.574H190.036L186.801 81.5199V88.3806H184.17V75.2829H185.027L190.465 82.2411L195.903 75.2829ZM199.72 88.3806V75.5168H208.374V77.8947H202.352V80.5064H206.776V82.7478H202.352V86.0028H208.608V88.3806H199.72ZM213.797 88.3806V77.8947H209.685V75.5168H220.56V77.8947H216.428V88.3806H213.797ZM221.307 81.9487C221.281 80.1166 221.943 78.5379 223.295 77.2125C224.659 75.8871 226.27 75.2439 228.128 75.2829C229.986 75.2439 231.598 75.8871 232.962 77.2125C234.339 78.5379 235.015 80.1166 234.989 81.9487C235.015 83.7808 234.339 85.3596 232.962 86.6849C231.598 88.0103 229.986 88.6535 228.128 88.6145C226.27 88.6535 224.659 88.0103 223.295 86.6849C221.943 85.3596 221.281 83.7808 221.307 81.9487ZM232.28 81.9487C232.28 80.7273 231.884 79.7203 231.091 78.9277C230.311 78.1221 229.33 77.7192 228.148 77.7192C226.952 77.7192 225.965 78.1156 225.185 78.9082C224.406 79.7008 224.016 80.7143 224.016 81.9487C224.016 83.1831 224.406 84.1966 225.185 84.9893C225.965 85.7819 226.952 86.1782 228.148 86.1782C229.33 86.1782 230.311 85.7819 231.091 84.9893C231.884 84.1966 232.28 83.1831 232.28 81.9487ZM247.282 86.0028H248.997V91.1293H246.366V88.3806H238.355V91.1293H235.724V86.0028H236.757C237.81 85.1322 238.336 82.345 238.336 77.6413V75.5168H247.282V86.0028ZM239.622 86.0028H244.651V77.8947H240.811C240.746 81.8837 240.35 84.5864 239.622 86.0028ZM261.094 75.2829H261.971V88.3806H259.34V80.409L251.797 88.6145H250.94V75.5168H253.571V83.4105L261.094 75.2829ZM276.235 88.3806H273.058L267.542 81.6758V88.3806H264.911V75.5168H267.542V81.4809L272.454 75.5168H275.592L270.661 81.5784L276.235 88.3806ZM286.272 88.3806L285.551 86.7044H280.288L279.567 88.3806H276.741L282.49 75.2829H283.368L289.098 88.3806H286.272ZM284.634 84.541L282.919 80.1946L281.204 84.541H284.634Z" fill="#1F1F1F"/>
</svg>
