<?xml version="1.0" encoding="UTF-8"?> <svg xmlns="http://www.w3.org/2000/svg" width="1204" height="302" viewBox="0 0 1204 302" fill="none"> <g filter="url(#filter0_b_3_143)"> <path d="M23.4004 1H1180.4C1180.4 1 1202.8 78.1657 1202.8 152.014C1202.8 225.861 1180.4 301 1180.4 301L23.4004 301C23.4004 301 1 225.861 1 152.014C1 78.1657 23.4004 1 23.4004 1Z" fill="url(#paint0_linear_3_143)"></path> <path d="M23.4004 1H1180.4C1180.4 1 1202.8 78.1657 1202.8 152.014C1202.8 225.861 1180.4 301 1180.4 301L23.4004 301C23.4004 301 1 225.861 1 152.014C1 78.1657 23.4004 1 23.4004 1Z" fill="white" fill-opacity="0.2"></path> <path d="M23.4004 0.601182H23.1008L23.0173 0.888817L23.4004 1C23.0173 0.888817 23.0172 0.88916 23.0171 0.889796L23.0163 0.892537L23.0132 0.903293L23.0009 0.945802L22.9526 1.11399C22.9101 1.26278 22.8471 1.48448 22.7649 1.77663C22.6005 2.36094 22.3595 3.22707 22.053 4.35537C21.4398 6.61197 20.5641 9.9173 19.5134 14.1142C17.412 22.5077 14.6104 34.468 11.8088 48.737C6.20625 77.272 0.601182 115.054 0.601182 152.014C0.601182 188.974 6.20633 226.249 11.8091 254.278C14.6108 268.294 17.4125 280.001 19.514 288.205C20.5647 292.307 21.4404 295.533 22.0536 297.734C22.3602 298.835 22.6012 299.679 22.7656 300.249C22.8478 300.533 22.9109 300.75 22.9534 300.895L23.0017 301.058L23.014 301.1L23.0171 301.11L23.0179 301.113C23.0181 301.114 23.0182 301.114 23.4004 301L23.0182 301.114L23.1031 301.399H23.4004L1180.4 301.399H1180.7L1180.78 301.114L1180.4 301C1180.78 301.114 1180.78 301.114 1180.78 301.113L1180.78 301.11L1180.79 301.1L1180.8 301.058L1180.85 300.894C1180.89 300.749 1180.95 300.533 1181.04 300.249C1181.2 299.679 1181.44 298.835 1181.75 297.734C1182.36 295.533 1183.24 292.307 1184.29 288.205C1186.39 280.001 1189.19 268.294 1191.99 254.278C1197.59 226.249 1203.2 188.974 1203.2 152.014C1203.2 115.054 1197.59 77.2721 1191.99 48.737C1189.19 34.468 1186.39 22.5077 1184.29 14.1142C1183.24 9.9173 1182.36 6.61197 1181.75 4.35537C1181.44 3.22707 1181.2 2.36094 1181.04 1.77663C1180.95 1.48448 1180.89 1.26278 1180.85 1.11399L1180.8 0.945801L1180.79 0.903293L1180.78 0.892536L1180.78 0.889795C1180.78 0.889159 1180.78 0.888817 1180.4 1L1180.78 0.888817L1180.7 0.601182H1180.4H23.4004Z" stroke="url(#paint1_radial_3_143)" stroke-opacity="0.46" stroke-width="0.797636"></path> <path d="M23.4004 0.601182H23.1008L23.0173 0.888817L23.4004 1C23.0173 0.888817 23.0172 0.88916 23.0171 0.889796L23.0163 0.892537L23.0132 0.903293L23.0009 0.945802L22.9526 1.11399C22.9101 1.26278 22.8471 1.48448 22.7649 1.77663C22.6005 2.36094 22.3595 3.22707 22.053 4.35537C21.4398 6.61197 20.5641 9.9173 19.5134 14.1142C17.412 22.5077 14.6104 34.468 11.8088 48.737C6.20625 77.272 0.601182 115.054 0.601182 152.014C0.601182 188.974 6.20633 226.249 11.8091 254.278C14.6108 268.294 17.4125 280.001 19.514 288.205C20.5647 292.307 21.4404 295.533 22.0536 297.734C22.3602 298.835 22.6012 299.679 22.7656 300.249C22.8478 300.533 22.9109 300.75 22.9534 300.895L23.0017 301.058L23.014 301.1L23.0171 301.11L23.0179 301.113C23.0181 301.114 23.0182 301.114 23.4004 301L23.0182 301.114L23.1031 301.399H23.4004L1180.4 301.399H1180.7L1180.78 301.114L1180.4 301C1180.78 301.114 1180.78 301.114 1180.78 301.113L1180.78 301.11L1180.79 301.1L1180.8 301.058L1180.85 300.894C1180.89 300.749 1180.95 300.533 1181.04 300.249C1181.2 299.679 1181.44 298.835 1181.75 297.734C1182.36 295.533 1183.24 292.307 1184.29 288.205C1186.39 280.001 1189.19 268.294 1191.99 254.278C1197.59 226.249 1203.2 188.974 1203.2 152.014C1203.2 115.054 1197.59 77.2721 1191.99 48.737C1189.19 34.468 1186.39 22.5077 1184.29 14.1142C1183.24 9.9173 1182.36 6.61197 1181.75 4.35537C1181.44 3.22707 1181.2 2.36094 1181.04 1.77663C1180.95 1.48448 1180.89 1.26278 1180.85 1.11399L1180.8 0.945801L1180.79 0.903293L1180.78 0.892536L1180.78 0.889795C1180.78 0.889159 1180.78 0.888817 1180.4 1L1180.78 0.888817L1180.7 0.601182H1180.4H23.4004Z" stroke="url(#paint2_radial_3_143)" stroke-opacity="0.33" stroke-width="0.797636"></path> <path d="M23.4004 0.601182H23.1008L23.0173 0.888817L23.4004 1C23.0173 0.888817 23.0172 0.88916 23.0171 0.889796L23.0163 0.892537L23.0132 0.903293L23.0009 0.945802L22.9526 1.11399C22.9101 1.26278 22.8471 1.48448 22.7649 1.77663C22.6005 2.36094 22.3595 3.22707 22.053 4.35537C21.4398 6.61197 20.5641 9.9173 19.5134 14.1142C17.412 22.5077 14.6104 34.468 11.8088 48.737C6.20625 77.272 0.601182 115.054 0.601182 152.014C0.601182 188.974 6.20633 226.249 11.8091 254.278C14.6108 268.294 17.4125 280.001 19.514 288.205C20.5647 292.307 21.4404 295.533 22.0536 297.734C22.3602 298.835 22.6012 299.679 22.7656 300.249C22.8478 300.533 22.9109 300.75 22.9534 300.895L23.0017 301.058L23.014 301.1L23.0171 301.11L23.0179 301.113C23.0181 301.114 23.0182 301.114 23.4004 301L23.0182 301.114L23.1031 301.399H23.4004L1180.4 301.399H1180.7L1180.78 301.114L1180.4 301C1180.78 301.114 1180.78 301.114 1180.78 301.113L1180.78 301.11L1180.79 301.1L1180.8 301.058L1180.85 300.894C1180.89 300.749 1180.95 300.533 1181.04 300.249C1181.2 299.679 1181.44 298.835 1181.75 297.734C1182.36 295.533 1183.24 292.307 1184.29 288.205C1186.39 280.001 1189.19 268.294 1191.99 254.278C1197.59 226.249 1203.2 188.974 1203.2 152.014C1203.2 115.054 1197.59 77.2721 1191.99 48.737C1189.19 34.468 1186.39 22.5077 1184.29 14.1142C1183.24 9.9173 1182.36 6.61197 1181.75 4.35537C1181.44 3.22707 1181.2 2.36094 1181.04 1.77663C1180.95 1.48448 1180.89 1.26278 1180.85 1.11399L1180.8 0.945801L1180.79 0.903293L1180.78 0.892536L1180.78 0.889795C1180.78 0.889159 1180.78 0.888817 1180.4 1L1180.78 0.888817L1180.7 0.601182H1180.4H23.4004Z" stroke="url(#paint3_radial_3_143)" stroke-width="0.797636"></path> </g> <defs> <filter id="filter0_b_3_143" x="-30.7976" y="-30.7976" width="1265.4" height="363.595" filterUnits="userSpaceOnUse" color-interpolation-filters="sRGB"> <feFlood flood-opacity="0" result="BackgroundImageFix"></feFlood> <feGaussianBlur in="BackgroundImage" stdDeviation="15.5"></feGaussianBlur> <feComposite in2="SourceAlpha" operator="in" result="effect1_backgroundBlur_3_143"></feComposite> <feBlend mode="normal" in="SourceGraphic" in2="effect1_backgroundBlur_3_143" result="shape"></feBlend> </filter> <linearGradient id="paint0_linear_3_143" x1="-218.963" y1="452.968" x2="-46.9225" y2="1014.45" gradientUnits="userSpaceOnUse"> <stop stop-color="#0A1121" stop-opacity="0.03"></stop> <stop offset="0.852269" stop-color="#141B2F" stop-opacity="0.01"></stop> <stop offset="1" stop-color="#161D32" stop-opacity="0"></stop> </linearGradient> <radialGradient id="paint1_radial_3_143" cx="0" cy="0" r="1" gradientUnits="userSpaceOnUse" gradientTransform="translate(2654.94 867.82) rotate(-162.563) scale(3136.71 1068.74)"> <stop stop-color="white"></stop> <stop offset="1" stop-color="white" stop-opacity="0"></stop> </radialGradient> <radialGradient id="paint2_radial_3_143" cx="0" cy="0" r="1" gradientUnits="userSpaceOnUse" gradientTransform="translate(-464.684 -255.624) rotate(12.6384) scale(2920.15 676.616)"> <stop stop-color="white"></stop> <stop offset="1" stop-color="white" stop-opacity="0"></stop> </radialGradient> <radialGradient id="paint3_radial_3_143" cx="0" cy="0" r="1" gradientUnits="userSpaceOnUse" gradientTransform="translate(2022.94 466.848) rotate(-169.771) scale(2023.93 488.513)"> <stop stop-color="white"></stop> <stop offset="1" stop-color="#151515" stop-opacity="0"></stop> </radialGradient> </defs> </svg> 