<?xml version="1.0" encoding="UTF-8"?> <svg xmlns="http://www.w3.org/2000/svg" width="165" height="16" viewBox="0 0 165 16" fill="none"> <path d="M136 8.00663H163.89V9.16431H136V8.00663Z" fill="#523B24"></path> <path d="M161.13 11.1814L164.174 8.00665L165 8.58564L161.915 12L161.13 11.1814Z" fill="#523B24"></path> <path d="M161.792 5L165 8.58564L164.174 9.12161L161.007 5.81861L161.792 5Z" fill="#523B24"></path> <path d="M7.008 12H5.556L3.636 9.048L1.728 12H0.264L2.94 7.956L0.432 4.08H1.896L3.648 6.876L5.376 4.08H6.828L4.368 7.956L7.008 12ZM7.50038 8.04C7.48438 6.912 7.88838 5.944 8.71238 5.136C9.53638 4.328 10.5164 3.932 11.6524 3.948C12.7804 3.932 13.7604 4.328 14.5924 5.136C15.4324 5.944 15.8404 6.912 15.8164 8.04C15.8404 9.168 15.4324 10.136 14.5924 10.944C13.7604 11.752 12.7804 12.148 11.6524 12.132C10.5164 12.148 9.53238 11.752 8.70038 10.944C7.87638 10.136 7.47638 9.168 7.50038 8.04ZM14.5084 8.028C14.5084 7.196 14.2364 6.504 13.6924 5.952C13.1484 5.392 12.4724 5.112 11.6644 5.112C10.8484 5.112 10.1684 5.388 9.62438 5.94C9.08838 6.492 8.82038 7.188 8.82038 8.028C8.82038 8.876 9.08838 9.58 9.62438 10.14C10.1604 10.692 10.8404 10.968 11.6644 10.968C12.4724 10.968 13.1484 10.688 13.6924 10.128C14.2364 9.568 14.5084 8.868 14.5084 8.028ZM21.7868 4.08H23.0588V12H21.7868V8.94C21.2588 9.148 20.6668 9.252 20.0108 9.252C19.0108 9.252 18.2348 8.992 17.6828 8.472C17.1388 7.944 16.8668 7.18 16.8668 6.18V4.08H18.1388V6.072C18.1388 7.424 18.8108 8.1 20.1548 8.1C20.8108 8.1 21.3548 8 21.7868 7.8V4.08ZM30.3226 4.08H31.6546L28.8706 10.068C28.5106 10.836 28.1706 11.368 27.8506 11.664C27.5306 11.96 27.0626 12.116 26.4466 12.132C26.2226 12.132 25.9666 12.088 25.6786 12V10.908C25.8466 10.94 26.0546 10.956 26.3026 10.956C26.8066 10.956 27.1946 10.732 27.4666 10.284L24.4066 4.08H25.8346L28.1626 8.856L30.3226 4.08ZM40.9515 4.08H42.2835L39.4995 10.068C39.1395 10.836 38.7995 11.368 38.4795 11.664C38.1595 11.96 37.6915 12.116 37.0755 12.132C36.8515 12.132 36.5955 12.088 36.3075 12V10.908C36.4755 10.94 36.6835 10.956 36.9315 10.956C37.4355 10.956 37.8235 10.732 38.0955 10.284L35.0355 4.08H36.4635L38.7915 8.856L40.9515 4.08ZM48.1188 4.08H49.3908V12H48.1188V8.94C47.5908 9.148 46.9988 9.252 46.3428 9.252C45.3428 9.252 44.5668 8.992 44.0148 8.472C43.4708 7.944 43.1988 7.18 43.1988 6.18V4.08H44.4708V6.072C44.4708 7.424 45.1428 8.1 46.4868 8.1C47.1428 8.1 47.6868 8 48.1188 7.8V4.08ZM56.7026 12L56.1386 10.68H52.5746L52.0106 12H50.6546L54.1466 3.948H54.5786L58.0706 12H56.7026ZM55.6826 9.588L54.3626 6.312L53.0306 9.588H55.6826ZM58.6644 8.04C58.6404 6.912 59.0444 5.944 59.8764 5.136C60.7084 4.328 61.6924 3.932 62.8284 3.948C63.5484 3.948 64.2084 4.112 64.8084 4.44C65.4084 4.768 65.8804 5.212 66.2244 5.772L65.2644 6.48C64.6804 5.568 63.8724 5.112 62.8404 5.112C62.0244 5.112 61.3444 5.392 60.8004 5.952C60.2564 6.504 59.9844 7.2 59.9844 8.04C59.9844 8.88 60.2564 9.58 60.8004 10.14C61.3444 10.692 62.0244 10.968 62.8404 10.968C63.8724 10.968 64.6804 10.512 65.2644 9.6L66.2244 10.308C65.8804 10.876 65.4084 11.324 64.8084 11.652C64.2164 11.972 63.5564 12.132 62.8284 12.132C61.6924 12.148 60.7084 11.752 59.8764 10.944C59.0444 10.136 58.6404 9.168 58.6644 8.04ZM69.606 12V5.22H66.942V4.08H73.554V5.22H70.878V12H69.606ZM80.7061 9.696C80.7061 10.368 80.4701 10.92 79.9981 11.352C79.5261 11.784 78.9061 12 78.1381 12H74.7421V4.08H77.5141C78.2261 4.08 78.7981 4.28 79.2301 4.68C79.6701 5.072 79.8901 5.576 79.8901 6.192C79.8901 6.808 79.6701 7.304 79.2301 7.68C79.6941 7.832 80.0541 8.084 80.3101 8.436C80.5741 8.788 80.7061 9.208 80.7061 9.696ZM77.3941 5.196H75.9901V7.332H77.3941C77.7781 7.332 78.0781 7.236 78.2941 7.044C78.5101 6.852 78.6181 6.588 78.6181 6.252C78.6181 5.924 78.5101 5.668 78.2941 5.484C78.0861 5.292 77.7861 5.196 77.3941 5.196ZM79.4221 9.66C79.4221 9.276 79.2981 8.976 79.0501 8.76C78.8021 8.536 78.4621 8.424 78.0301 8.424H75.9901V10.884H78.0301C78.4701 10.884 78.8101 10.776 79.0501 10.56C79.2981 10.336 79.4221 10.036 79.4221 9.66ZM81.6801 8.04C81.6641 6.912 82.0681 5.944 82.8921 5.136C83.7161 4.328 84.6961 3.932 85.8321 3.948C86.9601 3.932 87.9401 4.328 88.7721 5.136C89.6121 5.944 90.0201 6.912 89.9961 8.04C90.0201 9.168 89.6121 10.136 88.7721 10.944C87.9401 11.752 86.9601 12.148 85.8321 12.132C84.6961 12.148 83.7121 11.752 82.8801 10.944C82.0561 10.136 81.6561 9.168 81.6801 8.04ZM88.6881 8.028C88.6881 7.196 88.4161 6.504 87.8721 5.952C87.3281 5.392 86.6521 5.112 85.8441 5.112C85.0281 5.112 84.3481 5.388 83.8041 5.94C83.2681 6.492 83.0001 7.188 83.0001 8.028C83.0001 8.876 83.2681 9.58 83.8041 10.14C84.3401 10.692 85.0201 10.968 85.8441 10.968C86.6521 10.968 87.3281 10.688 87.8721 10.128C88.4161 9.568 88.6881 8.868 88.6881 8.028ZM97.4873 9.696C97.4873 10.368 97.2513 10.92 96.7793 11.352C96.3073 11.784 95.6873 12 94.9193 12H91.5233V4.08H94.2953C95.0073 4.08 95.5793 4.28 96.0113 4.68C96.4513 5.072 96.6713 5.576 96.6713 6.192C96.6713 6.808 96.4513 7.304 96.0113 7.68C96.4753 7.832 96.8353 8.084 97.0913 8.436C97.3553 8.788 97.4873 9.208 97.4873 9.696ZM94.1753 5.196H92.7713V7.332H94.1753C94.5593 7.332 94.8593 7.236 95.0753 7.044C95.2913 6.852 95.3993 6.588 95.3993 6.252C95.3993 5.924 95.2913 5.668 95.0753 5.484C94.8673 5.292 94.5673 5.196 94.1753 5.196ZM96.2033 9.66C96.2033 9.276 96.0793 8.976 95.8313 8.76C95.5833 8.536 95.2433 8.424 94.8113 8.424H92.7713V10.884H94.8113C95.2513 10.884 95.5913 10.776 95.8313 10.56C96.0793 10.336 96.2033 10.036 96.2033 9.66ZM104.14 12L103.576 10.68H100.012L99.4481 12H98.0921L101.584 3.948H102.016L105.508 12H104.14ZM103.12 9.588L101.8 6.312L100.468 9.588H103.12ZM107.727 12V5.22H105.063V4.08H111.675V5.22H108.999V12H107.727ZM112.863 12V4.08H114.135V7.008H115.731C116.547 7.008 117.211 7.24 117.723 7.704C118.243 8.168 118.503 8.768 118.503 9.504C118.503 10.24 118.247 10.84 117.735 11.304C117.223 11.768 116.555 12 115.731 12H112.863ZM114.135 10.872H115.719C116.175 10.872 116.535 10.748 116.799 10.5C117.063 10.252 117.195 9.92 117.195 9.504C117.195 9.088 117.063 8.756 116.799 8.508C116.535 8.26 116.175 8.136 115.719 8.136H114.135V10.872Z" fill="#523B24"></path> <path d="M0 15.024H119.031V15.936H0V15.024Z" fill="#523B24"></path> </svg> 