<?xml version="1.0" encoding="UTF-8"?> <svg xmlns="http://www.w3.org/2000/svg" width="290" height="76" viewBox="0 0 290 76" fill="none"> <path d="M4.40049 1.18622H284.042C284.042 1.18622 289.437 23.5467 289.437 38.5521C289.437 53.5575 284.042 75.918 284.042 75.918H4.40049C4.40049 75.918 0 53.6919 0 38.5521C0 23.4123 4.40049 1.18622 4.40049 1.18622Z" fill="#AC8B68"></path> <g filter="url(#filter0_i_3_195)"> <path d="M4.40049 0H284.042C284.042 0 289.437 22.3605 289.437 37.3659C289.437 52.3713 284.042 74.7318 284.042 74.7318H4.40049C4.40049 74.7318 0 52.5057 0 37.3659C0 22.2261 4.40049 0 4.40049 0Z" fill="url(#paint0_linear_3_195)"></path> </g> <path d="M34.4607 37.0031C34.4394 35.4991 34.978 34.2084 36.0767 33.1311C37.1754 32.0537 38.482 31.5257 39.9967 31.5471C41.5007 31.5257 42.8074 32.0537 43.9167 33.1311C45.0367 34.2084 45.5807 35.4991 45.5487 37.0031C45.5807 38.5071 45.0367 39.7977 43.9167 40.8751C42.8074 41.9524 41.5007 42.4804 39.9967 42.4591C38.482 42.4804 37.17 41.9524 36.0607 40.8751C34.962 39.7977 34.4287 38.5071 34.4607 37.0031ZM43.8047 36.9871C43.8047 35.8777 43.442 34.9551 42.7167 34.2191C41.9914 33.4724 41.09 33.0991 40.0127 33.0991C38.9247 33.0991 38.018 33.4671 37.2927 34.2031C36.578 34.9391 36.2207 35.8671 36.2207 36.9871C36.2207 38.1177 36.578 39.0564 37.2927 39.8031C38.0074 40.5391 38.914 40.9071 40.0127 40.9071C41.09 40.9071 41.9914 40.5337 42.7167 39.7871C43.442 39.0404 43.8047 38.1071 43.8047 36.9871ZM49.8307 42.2831V33.2431H46.2787V31.7231H55.0947V33.2431H51.5267V42.2831H49.8307ZM56.6788 42.2831V31.7231H65.2228V42.2831H63.5268V33.2431H58.3748V42.2831H56.6788ZM67.8976 42.2831V31.7231H71.7536C72.8202 31.7231 73.6842 32.0271 74.3456 32.6351C75.0069 33.2324 75.3376 34.0057 75.3376 34.9551C75.3376 35.9044 75.0016 36.6831 74.3296 37.2911C73.6682 37.8991 72.8096 38.2031 71.7536 38.2031H69.5936V42.2831H67.8976ZM69.5936 36.6991H71.7216C72.3082 36.6991 72.7669 36.5444 73.0976 36.2351C73.4282 35.9257 73.5936 35.5044 73.5936 34.9711C73.5936 34.4377 73.4282 34.0164 73.0976 33.7071C72.7669 33.3871 72.3082 33.2271 71.7216 33.2271H69.5936V36.6991ZM83.0325 42.2831L82.2805 40.5231H77.5285L76.7765 42.2831H74.9685L79.6245 31.5471H80.2005L84.8565 42.2831H83.0325ZM81.6725 39.0671L79.9125 34.6991L78.1365 39.0671H81.6725ZM94.4902 39.2111C94.4902 40.1071 94.1755 40.8431 93.5462 41.4191C92.9169 41.9951 92.0902 42.2831 91.0662 42.2831H86.5382V31.7231H90.2342C91.1835 31.7231 91.9462 31.9897 92.5222 32.5231C93.1089 33.0457 93.4022 33.7177 93.4022 34.5391C93.4022 35.3604 93.1089 36.0217 92.5222 36.5231C93.1409 36.7257 93.6209 37.0617 93.9622 37.5311C94.3142 38.0004 94.4902 38.5604 94.4902 39.2111ZM90.0742 33.2111H88.2022V36.0591H90.0742C90.5862 36.0591 90.9862 35.9311 91.2742 35.6751C91.5622 35.4191 91.7062 35.0671 91.7062 34.6191C91.7062 34.1817 91.5622 33.8404 91.2742 33.5951C90.9969 33.3391 90.5969 33.2111 90.0742 33.2111ZM92.7782 39.1631C92.7782 38.6511 92.6129 38.2511 92.2822 37.9631C91.9515 37.6644 91.4982 37.5151 90.9222 37.5151H88.2022V40.7951H90.9222C91.5089 40.7951 91.9622 40.6511 92.2822 40.3631C92.6129 40.0644 92.7782 39.6644 92.7782 39.1631ZM104.669 31.5471H105.261V42.2831H103.565V34.9071L97.0208 42.4591H96.4288V31.7231H98.1248V39.0831L104.669 31.5471ZM110.393 42.2831V33.2431H106.841V31.7231H115.657V33.2431H112.089V42.2831H110.393ZM117.241 42.2831V31.7231H118.937V35.6271H121.065C122.153 35.6271 123.039 35.9364 123.721 36.5551C124.415 37.1737 124.761 37.9737 124.761 38.9551C124.761 39.9364 124.42 40.7364 123.737 41.3551C123.055 41.9737 122.164 42.2831 121.065 42.2831H117.241ZM118.937 40.7791H121.049C121.657 40.7791 122.137 40.6137 122.489 40.2831C122.841 39.9524 123.017 39.5097 123.017 38.9551C123.017 38.4004 122.841 37.9577 122.489 37.6271C122.137 37.2964 121.657 37.1311 121.049 37.1311H118.937V40.7791ZM138.148 39.1951C138.148 40.1551 137.78 40.9391 137.044 41.5471C136.319 42.1551 135.386 42.4591 134.244 42.4591C133.348 42.4591 132.543 42.2511 131.828 41.8351C131.114 41.4084 130.559 40.8271 130.164 40.0911L131.364 39.2111C132.111 40.3417 133.066 40.9071 134.228 40.9071C134.868 40.9071 135.396 40.7417 135.812 40.4111C136.228 40.0804 136.436 39.6484 136.436 39.1151C136.436 38.6244 136.255 38.2351 135.892 37.9471C135.54 37.6591 135.023 37.5151 134.34 37.5151H133.044V36.0591H134.292C134.804 36.0591 135.204 35.9311 135.492 35.6751C135.78 35.4084 135.924 35.0564 135.924 34.6191C135.924 34.1497 135.775 33.7817 135.476 33.5151C135.178 33.2377 134.756 33.0991 134.212 33.0991C133.22 33.0991 132.426 33.5737 131.828 34.5231L130.628 33.6431C131.386 32.2457 132.596 31.5471 134.26 31.5471C135.284 31.5471 136.1 31.8137 136.708 32.3471C137.327 32.8804 137.636 33.5951 137.636 34.4911C137.636 35.3764 137.252 36.0911 136.484 36.6351C137.594 37.1684 138.148 38.0217 138.148 39.1951ZM147.095 42.2831L146.343 40.5231H141.591L140.839 42.2831H139.031L143.687 31.5471H144.263L148.919 42.2831H147.095ZM145.735 39.0671L143.975 34.6991L142.199 39.0671H145.735ZM154.329 31.7231H157.945V42.2831H156.249V38.4751H154.505L151.785 42.2831H149.929L152.809 38.2191C152.094 37.9631 151.529 37.5577 151.113 37.0031C150.697 36.4484 150.489 35.8084 150.489 35.0831C150.489 34.0911 150.841 33.2857 151.545 32.6671C152.259 32.0377 153.187 31.7231 154.329 31.7231ZM156.249 36.9551V33.2271H154.297C153.667 33.2271 153.166 33.3977 152.793 33.7391C152.419 34.0804 152.233 34.5337 152.233 35.0991C152.233 35.6644 152.419 36.1177 152.793 36.4591C153.177 36.7897 153.678 36.9551 154.297 36.9551H156.249ZM168.568 39.2111C168.568 40.1071 168.254 40.8431 167.624 41.4191C166.995 41.9951 166.168 42.2831 165.144 42.2831H160.616V31.7231H164.312C165.262 31.7231 166.024 31.9897 166.6 32.5231C167.187 33.0457 167.48 33.7177 167.48 34.5391C167.48 35.3604 167.187 36.0217 166.6 36.5231C167.219 36.7257 167.699 37.0617 168.04 37.5311C168.392 38.0004 168.568 38.5604 168.568 39.2111ZM164.152 33.2111H162.28V36.0591H164.152C164.664 36.0591 165.064 35.9311 165.352 35.6751C165.64 35.4191 165.784 35.0671 165.784 34.6191C165.784 34.1817 165.64 33.8404 165.352 33.5951C165.075 33.3391 164.675 33.2111 164.152 33.2111ZM166.856 39.1631C166.856 38.6511 166.691 38.2511 166.36 37.9631C166.03 37.6644 165.576 37.5151 165 37.5151H162.28V40.7951H165C165.587 40.7951 166.04 40.6511 166.36 40.3631C166.691 40.0644 166.856 39.6644 166.856 39.1631ZM170.507 42.2831V31.7231H172.203V42.2831H170.507ZM174.379 36.6671L179.243 42.2831H177.147L172.251 36.6671L176.683 31.7231H178.763L174.379 36.6671ZM187.953 31.7231H189.729L186.017 39.7071C185.537 40.7311 185.083 41.4404 184.657 41.8351C184.23 42.2297 183.606 42.4377 182.785 42.4591C182.486 42.4591 182.145 42.4004 181.761 42.2831V40.8271C181.985 40.8697 182.262 40.8911 182.593 40.8911C183.265 40.8911 183.782 40.5924 184.145 39.9951L180.065 31.7231H181.969L185.073 38.0911L187.953 31.7231Z" fill="#523B24"></path> <path fill-rule="evenodd" clip-rule="evenodd" d="M232.663 47.9047C230.938 46.7587 229.213 45.6127 227.488 44.4667V45.3206C227.488 45.8824 227.748 46.3542 228.22 46.6688C229.709 47.6575 231.174 48.6463 232.663 49.635C234.128 48.6463 235.616 47.68 237.081 46.6913C237.554 46.3767 237.814 45.9048 237.814 45.3431V44.4892L237.223 44.8712C235.711 45.8824 234.199 46.8935 232.663 47.9047ZM233.135 45.9048C233.135 40.8264 233.135 35.7705 233.135 30.6921C235.947 30.6921 238.759 30.6921 241.547 30.6921V34.4223L240.035 35.4335V32.1302H234.6C234.6 35.8155 234.6 39.5007 234.6 43.1859C236.42 41.9724 238.216 40.7815 240.035 39.5681V38.9389L241.547 37.9277V39.4332C241.547 39.995 241.288 40.4669 240.815 40.7815C238.239 42.4893 235.687 44.197 233.135 45.9048ZM241.547 27.0968C235.616 27.0968 229.685 27.0968 223.754 27.0968V29.254H225.243V28.5125C230.181 28.5125 235.096 28.5125 240.035 28.5125V29.254H241.547V27.0968ZM232.19 45.9048C229.638 44.197 227.062 42.4893 224.51 40.7815C224.038 40.4669 223.778 39.995 223.778 39.4332V37.9277L225.266 38.9164V39.5456L230.725 43.1859C230.725 42.287 230.725 41.4107 230.725 40.5118L223.778 35.8829C223.778 34.1526 223.778 32.4224 223.778 30.6697C226.59 30.6697 229.402 30.6697 232.19 30.6697V35.411L230.701 34.4223V32.1078C228.882 32.1078 227.062 32.1078 225.243 32.1078V35.1413L232.19 39.7703C232.19 41.8151 232.19 43.86 232.19 45.9048Z" fill="#503A23"></path> <defs> <filter id="filter0_i_3_195" x="0" y="-1.10026" width="289.438" height="75.8321" filterUnits="userSpaceOnUse" color-interpolation-filters="sRGB"> <feFlood flood-opacity="0" result="BackgroundImageFix"></feFlood> <feBlend mode="normal" in="SourceGraphic" in2="BackgroundImageFix" result="shape"></feBlend> <feColorMatrix in="SourceAlpha" type="matrix" values="0 0 0 0 0 0 0 0 0 0 0 0 0 0 0 0 0 0 127 0" result="hardAlpha"></feColorMatrix> <feOffset dy="-1.10026"></feOffset> <feGaussianBlur stdDeviation="3.85091"></feGaussianBlur> <feComposite in2="hardAlpha" operator="arithmetic" k2="-1" k3="1"></feComposite> <feColorMatrix type="matrix" values="0 0 0 0 0.929167 0 0 0 0 0.84282 0 0 0 0 0.751076 0 0 0 1 0"></feColorMatrix> <feBlend mode="normal" in2="shape" result="effect1_innerShadow_3_195"></feBlend> </filter> <linearGradient id="paint0_linear_3_195" x1="134.782" y1="-4.8012e-07" x2="134.782" y2="74.8178" gradientUnits="userSpaceOnUse"> <stop stop-color="#DCBE9E"></stop> <stop offset="1" stop-color="#CDB194"></stop> </linearGradient> </defs> </svg> 