<?xml version="1.0" encoding="UTF-8"?> <svg xmlns="http://www.w3.org/2000/svg" width="180" height="59" viewBox="0 0 180 59" fill="none"> <path d="M0 0H180V51C180 51 125.409 59 90 59C54.5913 59 0 51 0 51V0Z" fill="#D8BA9B"></path> <path d="M56.96 27.4C56.92 25.52 57.58 23.9067 58.94 22.56C60.3 21.2133 61.92 20.5533 63.8 20.58C65.6667 20.5533 67.2867 21.2133 68.66 22.56C70.0333 23.9067 70.7 25.52 70.66 27.4C70.7 29.28 70.0333 30.8933 68.66 32.24C67.2867 33.5867 65.6667 34.2467 63.8 34.22C61.9333 34.26 60.3133 33.6 58.94 32.24C57.58 30.88 56.92 29.2667 56.96 27.4ZM69.04 27.38C69.0667 25.8867 68.5667 24.6133 67.54 23.56C66.5133 22.5067 65.2733 21.9933 63.82 22.02C62.3267 22.02 61.08 22.5333 60.08 23.56C59.08 24.5733 58.58 25.8467 58.58 27.38C58.58 28.9133 59.08 30.2 60.08 31.24C61.08 32.2667 62.3267 32.78 63.82 32.78C65.2733 32.8067 66.5133 32.2933 67.54 31.24C68.5667 30.1733 69.0667 28.8867 69.04 27.38ZM78.2305 29.12C78.2038 27.7333 78.6971 26.5333 79.7105 25.52C80.7238 24.5067 81.9305 24.0133 83.3305 24.04C84.1705 24.04 84.9371 24.2267 85.6305 24.6C86.3238 24.9733 86.8971 25.4933 87.3505 26.16L86.2505 27.04C85.4771 25.9867 84.5105 25.46 83.3505 25.46C82.3505 25.46 81.5105 25.82 80.8305 26.54C80.1505 27.2467 79.8105 28.1067 79.8105 29.12C79.8105 30.1467 80.1505 31.02 80.8305 31.74C81.5105 32.4467 82.3505 32.8 83.3505 32.8C84.4971 32.8 85.4571 32.28 86.2305 31.24L87.3305 32.1C86.3705 33.5133 85.0371 34.22 83.3305 34.22C81.9171 34.22 80.7105 33.7267 79.7105 32.74C78.7238 31.74 78.2305 30.5333 78.2305 29.12ZM89.9461 34V24.26H97.7261V34H96.1661V25.64H91.4861V34H89.9461ZM108.578 24.04H109.138V34H107.598V27.12L101.658 34.22H101.098V24.26H102.638V31.16L108.578 24.04ZM112.524 34V24.26H114.064V34H112.524ZM116.144 28.68L120.724 34H118.784L114.264 28.72L118.364 24.26H120.284L116.144 28.68ZM131.124 29.6H123.424C123.518 30.56 123.898 31.3333 124.564 31.92C125.231 32.5067 126.044 32.8 127.004 32.8C128.111 32.8 129.104 32.36 129.984 31.48L130.884 32.52C129.791 33.6533 128.491 34.22 126.984 34.22C125.531 34.22 124.304 33.7333 123.304 32.76C122.318 31.7733 121.824 30.5667 121.824 29.14C121.824 27.7267 122.304 26.5267 123.264 25.54C124.238 24.54 125.418 24.04 126.804 24.04C128.071 24.04 129.124 24.4533 129.964 25.28C130.818 26.1067 131.244 27.16 131.244 28.44C131.244 28.8133 131.204 29.2 131.124 29.6ZM123.484 28.24H129.664C129.651 27.3867 129.371 26.7067 128.824 26.2C128.278 25.6933 127.591 25.44 126.764 25.44C125.951 25.44 125.244 25.7 124.644 26.22C124.044 26.7267 123.658 27.4 123.484 28.24ZM142.51 25.5C143.43 26.4733 143.89 27.68 143.89 29.12C143.89 30.56 143.423 31.7733 142.49 32.76C141.57 33.7333 140.43 34.22 139.07 34.22C137.537 34.22 136.343 33.68 135.49 32.6V37.6H133.95V24.26H135.39V25.82C135.763 25.26 136.277 24.8267 136.93 24.52C137.583 24.2 138.297 24.04 139.07 24.04C140.457 24.04 141.603 24.5267 142.51 25.5ZM141.31 31.76C141.977 31.0667 142.31 30.1933 142.31 29.14C142.31 28.0867 141.977 27.2133 141.31 26.52C140.657 25.8133 139.837 25.46 138.85 25.46C137.917 25.46 137.117 25.78 136.45 26.42C135.797 27.06 135.47 27.96 135.47 29.12C135.47 30.3067 135.79 31.22 136.43 31.86C137.083 32.4867 137.89 32.8 138.85 32.8C139.837 32.8 140.657 32.4533 141.31 31.76ZM155.187 29.6H147.487C147.58 30.56 147.96 31.3333 148.627 31.92C149.293 32.5067 150.107 32.8 151.067 32.8C152.173 32.8 153.167 32.36 154.047 31.48L154.947 32.52C153.853 33.6533 152.553 34.22 151.047 34.22C149.593 34.22 148.367 33.7333 147.367 32.76C146.38 31.7733 145.887 30.5667 145.887 29.14C145.887 27.7267 146.367 26.5267 147.327 25.54C148.3 24.54 149.48 24.04 150.867 24.04C152.133 24.04 153.187 24.4533 154.027 25.28C154.88 26.1067 155.307 27.16 155.307 28.44C155.307 28.8133 155.267 29.2 155.187 29.6ZM147.547 28.24H153.727C153.713 27.3867 153.433 26.7067 152.887 26.2C152.34 25.6933 151.653 25.44 150.827 25.44C150.013 25.44 149.307 25.7 148.707 26.22C148.107 26.7267 147.72 27.4 147.547 28.24Z" fill="#523B24"></path> <path d="M33.0003 27C31.9723 27 30.9784 26.5827 30.2004 25.8254C29.444 25.0868 28.982 24.1018 28.9005 23.0527C28.8135 21.9336 29.189 20.9045 29.9575 20.1545C30.7259 19.4045 31.8004 19 33.0003 19C34.1917 19 35.2691 19.4118 36.0351 20.16C36.8086 20.9155 37.185 21.9427 37.098 23.0523C37.0145 24.1027 36.5531 25.0873 35.7981 25.825C35.0222 26.5827 34.0287 27 33.0003 27ZM39.5914 35H26.4097C26.1977 35.001 25.9884 34.9578 25.7977 34.8737C25.607 34.7897 25.4401 34.6669 25.3097 34.515C25.1715 34.3503 25.076 34.1593 25.0305 33.9562C24.9849 33.7532 24.9905 33.5435 25.0467 33.3427C25.4677 31.8059 26.5107 30.5314 28.0626 29.6573C29.44 28.8818 31.1934 28.4545 33.0003 28.4545C34.8427 28.4545 36.5501 28.8636 37.9355 29.6386C39.4909 30.5082 40.5353 31.79 40.9543 33.3454C41.0099 33.5464 41.0148 33.7561 40.9688 33.959C40.9227 34.1619 40.8268 34.3527 40.6883 34.5173C40.5581 34.6685 40.3916 34.7906 40.2015 34.8743C40.0113 34.958 39.8026 35.001 39.5914 35Z" fill="#523B24"></path> </svg> 