<svg width="2102" height="701" viewBox="0 0 2102 701" fill="none" xmlns="http://www.w3.org/2000/svg">
<path d="M794.608 394.641C787.603 384.143 780.597 370.373 773.591 353.332L748.462 288.515C747.701 286.841 747.244 285.015 747.092 283.037C746.787 278.777 748.005 275.125 750.747 272.082C753.64 269.039 757.296 267.518 761.712 267.518C766.433 267.518 769.936 268.583 772.221 270.713C774.658 272.691 776.637 275.277 778.16 278.473L799.863 337.812C802.3 344.051 804.66 349.984 806.945 355.614C809.381 361.092 812.047 366.113 814.94 370.677C817.834 375.242 821.108 377.676 824.763 377.981C828.266 377.676 831.388 375.242 834.13 370.677C837.176 366.113 839.841 361.092 842.125 355.614C844.562 349.984 846.999 344.051 849.436 337.812L870.681 278.473C872.204 275.277 874.108 272.691 876.392 270.713C878.829 268.583 882.561 267.518 887.586 267.518C892.003 267.518 895.582 269.039 898.323 272.082C901.217 275.125 902.512 278.777 902.207 283.037C902.055 285.015 901.598 286.841 900.836 288.515L875.707 353.332C868.701 370.677 861.696 384.523 854.69 394.87C847.837 405.064 837.861 410.237 824.763 410.389C811.514 410.237 801.462 404.988 794.608 394.641Z" fill="black"/>
<path d="M961.21 272.082H1049.39C1053.65 272.234 1057.16 273.832 1059.9 276.875C1062.79 279.918 1064.24 283.57 1064.24 287.83C1063.48 296.959 1058.53 301.904 1049.39 302.665H968.977C963.19 302.969 958.393 305.175 954.585 309.284C950.778 313.392 947.96 318.108 946.133 323.434C944.457 328.607 943.62 333.932 943.62 339.41C943.62 344.887 944.457 350.289 946.133 355.614C947.96 360.787 950.778 365.428 954.585 369.536C958.393 373.644 963.19 375.85 968.977 376.155H1049.39C1053.65 376.307 1057.16 377.905 1059.9 380.948C1062.79 383.991 1064.24 387.642 1064.24 391.903C1064.09 396.011 1062.56 399.51 1059.67 402.401C1056.93 405.14 1053.5 406.585 1049.39 406.738H961.21C950.549 406.129 941.716 402.097 934.71 394.641C927.857 387.034 922.907 378.437 919.861 368.851C916.968 359.266 915.521 349.452 915.521 339.41C915.521 329.368 917.044 319.554 920.09 309.968C923.136 300.383 928.085 291.862 934.939 284.407C941.792 276.799 950.549 272.691 961.21 272.082ZM1063.78 338.497C1063.78 342.757 1062.26 346.333 1059.21 349.224C1056.32 352.267 1052.74 353.788 1048.48 353.788H979.486C975.222 353.788 971.566 352.343 968.521 349.452C965.627 346.409 964.18 342.757 964.18 338.497C964.18 334.237 965.627 330.585 968.521 327.542C971.566 324.651 975.222 323.206 979.486 323.206H1048.48C1052.74 323.206 1056.32 324.727 1059.21 327.77C1062.26 330.661 1063.78 334.237 1063.78 338.497Z" fill="black"/>
<path d="M1227.87 287.374C1227.87 291.634 1226.35 295.209 1223.3 298.1C1220.41 301.143 1216.83 302.665 1212.57 302.665H1121.19C1118.29 302.817 1115.86 303.502 1113.88 304.719C1112.05 305.784 1110.68 307.077 1109.76 308.599C1108.85 309.968 1108.39 311.414 1108.39 312.935C1108.39 314.457 1108.85 315.978 1109.76 317.5C1110.68 318.869 1112.05 320.162 1113.88 321.38C1115.86 322.445 1118.29 323.053 1121.19 323.206H1186.07C1196.73 323.51 1205.48 326.02 1212.34 330.737C1219.34 335.302 1224.29 340.627 1227.19 346.713C1230.23 352.647 1231.76 358.733 1231.76 364.972C1231.76 371.058 1230.23 377.144 1227.19 383.23C1224.14 389.164 1219.19 394.489 1212.34 399.206C1205.48 403.771 1196.73 406.053 1186.07 406.053H1184.7C1183.78 406.205 1182.87 406.281 1181.95 406.281H1095.6C1091.34 406.281 1087.68 404.836 1084.64 401.945C1081.74 398.902 1080.29 395.25 1080.29 390.99C1080.29 386.729 1081.82 383.154 1084.86 380.263C1087.76 377.22 1091.34 375.698 1095.6 375.698H1187.44C1190.33 375.85 1192.69 375.318 1194.52 374.101C1196.5 372.883 1197.94 371.514 1198.86 369.993C1199.77 368.319 1200.23 366.645 1200.23 364.972C1200.23 363.906 1199.77 362.461 1198.86 360.635C1197.94 358.657 1196.5 357.06 1194.52 355.842C1192.69 354.625 1190.33 353.94 1187.44 353.788H1122.56C1111.9 353.484 1103.06 351.05 1096.06 346.485C1089.2 341.92 1084.25 336.747 1081.21 330.965C1078.31 325.031 1076.87 319.021 1076.87 312.935C1076.87 307.001 1078.39 301.143 1081.44 295.362C1084.48 289.428 1089.43 284.178 1096.29 279.614C1103.14 275.049 1111.9 272.615 1122.56 272.31H1123.93C1124.84 272.158 1125.76 272.082 1126.67 272.082H1212.57C1216.83 272.082 1220.41 273.604 1223.3 276.647C1226.35 279.538 1227.87 283.113 1227.87 287.374Z" fill="black"/>
<path d="M1398.13 287.374C1398.13 291.634 1396.61 295.209 1393.56 298.1C1390.67 301.143 1387.09 302.665 1382.82 302.665H1291.44C1288.55 302.817 1286.11 303.502 1284.13 304.719C1282.31 305.784 1280.94 307.077 1280.02 308.599C1279.11 309.968 1278.65 311.414 1278.65 312.935C1278.65 314.457 1279.11 315.978 1280.02 317.5C1280.94 318.869 1282.31 320.162 1284.13 321.38C1286.11 322.445 1288.55 323.053 1291.44 323.206H1356.32C1366.98 323.51 1375.74 326.02 1382.59 330.737C1389.6 335.302 1394.55 340.627 1397.44 346.713C1400.49 352.647 1402.01 358.733 1402.01 364.972C1402.01 371.058 1400.49 377.144 1397.44 383.23C1394.4 389.164 1389.45 394.489 1382.59 399.206C1375.74 403.771 1366.98 406.053 1356.32 406.053H1354.95C1354.04 406.205 1353.12 406.281 1352.21 406.281H1265.86C1261.59 406.281 1257.94 404.836 1254.89 401.945C1252 398.902 1250.55 395.25 1250.55 390.99C1250.55 386.729 1252.07 383.154 1255.12 380.263C1258.01 377.22 1261.59 375.698 1265.86 375.698H1357.69C1360.59 375.85 1362.95 375.318 1364.78 374.101C1366.76 372.883 1368.2 371.514 1369.12 369.993C1370.03 368.319 1370.49 366.645 1370.49 364.972C1370.49 363.906 1370.03 362.461 1369.12 360.635C1368.2 358.657 1366.76 357.06 1364.78 355.842C1362.95 354.625 1360.59 353.94 1357.69 353.788H1292.81C1282.15 353.484 1273.32 351.05 1266.31 346.485C1259.46 341.92 1254.51 336.747 1251.47 330.965C1248.57 325.031 1247.12 319.021 1247.12 312.935C1247.12 307.001 1248.65 301.143 1251.69 295.362C1254.74 289.428 1259.69 284.178 1266.54 279.614C1273.4 275.049 1282.15 272.615 1292.81 272.31H1294.19C1295.1 272.158 1296.01 272.082 1296.93 272.082H1382.82C1387.09 272.082 1390.67 273.604 1393.56 276.647C1396.61 279.538 1398.13 283.113 1398.13 287.374Z" fill="black"/>
<path d="M1416.24 287.374C1416.24 283.113 1417.69 279.538 1420.58 276.647C1423.63 273.604 1427.28 272.082 1431.55 272.082H1564.5C1568.77 272.082 1572.42 273.528 1575.47 276.419C1578.36 279.462 1579.81 283.113 1579.81 287.374C1579.81 291.634 1578.28 295.285 1575.24 298.329C1572.34 301.219 1568.77 302.665 1564.5 302.665H1513.56V395.098C1512.64 404.227 1507.62 409.172 1498.48 409.933C1494.22 409.933 1490.48 408.563 1487.29 405.825C1484.24 402.934 1482.72 399.358 1482.72 395.098V302.665H1431.55C1427.28 302.665 1423.7 301.143 1420.81 298.1C1417.76 295.209 1416.24 291.634 1416.24 287.374Z" fill="black"/>
<path d="M1591.98 391.446C1591.98 387.186 1593.43 383.61 1596.32 380.719C1599.37 377.676 1603.02 376.155 1607.29 376.155H1651.15V302.665H1607.29C1603.02 302.665 1599.44 301.143 1596.55 298.1C1593.5 295.209 1591.98 291.634 1591.98 287.374C1591.98 283.113 1593.43 279.538 1596.32 276.647C1599.37 273.604 1603.02 272.082 1607.29 272.082H1725.62C1729.88 272.082 1733.54 273.528 1736.59 276.419C1739.48 279.462 1740.93 283.113 1740.93 287.374C1740.93 291.634 1739.4 295.285 1736.36 298.329C1733.46 301.219 1729.88 302.665 1725.62 302.665H1681.99V376.155H1725.62C1729.88 376.155 1733.54 377.6 1736.59 380.491C1739.48 383.534 1740.93 387.186 1740.93 391.446C1740.93 395.706 1739.4 399.358 1736.36 402.401C1733.46 405.292 1729.88 406.738 1725.62 406.738H1607.29C1603.02 406.738 1599.44 405.216 1596.55 402.173C1593.5 399.282 1591.98 395.706 1591.98 391.446Z" fill="black"/>
<path d="M1885.14 272.082C1892.91 272.234 1899.84 274.669 1905.93 279.386C1912.02 284.102 1916.89 289.732 1920.55 296.274C1924.36 302.817 1927.17 309.74 1929 317.043C1930.83 324.347 1931.74 331.802 1931.74 339.41C1931.74 349.452 1930.14 359.342 1926.95 369.08C1923.9 378.665 1918.8 387.186 1911.64 394.641C1904.63 402.097 1895.8 406.129 1885.14 406.738H1858.64V422.029C1857.73 431.158 1852.7 436.103 1843.56 436.864C1839.3 436.864 1835.57 435.418 1832.37 432.527C1829.32 429.789 1827.8 426.289 1827.8 422.029V406.738H1800.84C1790.18 406.281 1781.27 402.325 1774.12 394.87C1766.96 387.414 1761.86 378.817 1758.81 369.08C1755.92 359.342 1754.47 349.452 1754.47 339.41C1754.47 329.368 1755.99 319.554 1759.04 309.968C1762.08 300.23 1767.11 291.634 1774.12 284.178C1781.27 276.571 1790.18 272.539 1800.84 272.082H1885.14ZM1877.37 376.155C1883.16 375.85 1887.96 373.72 1891.77 369.764C1895.73 365.656 1898.54 360.939 1900.22 355.614C1901.89 350.289 1902.73 344.887 1902.73 339.41C1902.73 333.932 1901.82 328.607 1899.99 323.434C1898.31 318.108 1895.57 313.392 1891.77 309.284C1887.96 305.175 1883.16 302.969 1877.37 302.665H1807.93C1802.14 302.969 1797.34 305.175 1793.53 309.284C1789.73 313.392 1786.91 318.108 1785.08 323.434C1783.41 328.607 1782.57 333.932 1782.57 339.41C1782.57 344.887 1783.41 350.289 1785.08 355.614C1786.76 360.939 1789.5 365.656 1793.3 369.764C1797.26 373.72 1802.14 375.85 1807.93 376.155H1827.8V364.972C1827.95 360.711 1829.55 357.212 1832.6 354.473C1835.64 351.582 1839.3 350.137 1843.56 350.137C1847.68 350.289 1851.18 351.81 1854.07 354.701C1856.97 357.44 1858.49 360.863 1858.64 364.972V376.155H1877.37Z" fill="black"/>
<path d="M2098.12 287.374C2098.12 291.634 2096.59 295.209 2093.55 298.1C2090.65 301.143 2087.08 302.665 2082.81 302.665H1991.43C1988.54 302.817 1986.1 303.502 1984.12 304.719C1982.29 305.784 1980.92 307.077 1980.01 308.599C1979.1 309.968 1978.64 311.414 1978.64 312.935C1978.64 314.457 1979.1 315.978 1980.01 317.5C1980.92 318.869 1982.29 320.162 1984.12 321.38C1986.1 322.445 1988.54 323.053 1991.43 323.206H2056.31C2066.97 323.51 2075.73 326.02 2082.58 330.737C2089.59 335.302 2094.54 340.627 2097.43 346.713C2100.48 352.647 2102 358.733 2102 364.972C2102 371.058 2100.48 377.144 2097.43 383.23C2094.39 389.164 2089.44 394.489 2082.58 399.206C2075.73 403.771 2066.97 406.053 2056.31 406.053H2054.94C2054.03 406.205 2053.11 406.281 2052.2 406.281H1965.85C1961.58 406.281 1957.93 404.836 1954.88 401.945C1951.99 398.902 1950.54 395.25 1950.54 390.99C1950.54 386.729 1952.06 383.154 1955.11 380.263C1958 377.22 1961.58 375.698 1965.85 375.698H2057.68C2060.58 375.85 2062.94 375.318 2064.76 374.101C2066.74 372.883 2068.19 371.514 2069.1 369.993C2070.02 368.319 2070.47 366.645 2070.47 364.972C2070.47 363.906 2070.02 362.461 2069.1 360.635C2068.19 358.657 2066.74 357.06 2064.76 355.842C2062.94 354.625 2060.58 353.94 2057.68 353.788H1992.8C1982.14 353.484 1973.31 351.05 1966.3 346.485C1959.45 341.92 1954.5 336.747 1951.45 330.965C1948.56 325.031 1947.11 319.021 1947.11 312.935C1947.11 307.001 1948.64 301.143 1951.68 295.362C1954.73 289.428 1959.68 284.178 1966.53 279.614C1973.38 275.049 1982.14 272.615 1992.8 272.31H1994.17C1995.09 272.158 1996 272.082 1996.91 272.082H2082.81C2087.08 272.082 2090.65 273.604 2093.55 276.647C2096.59 279.538 2098.12 283.113 2098.12 287.374Z" fill="black"/>
<path d="M295.174 402.508C315.181 422.584 295.763 456.184 268.357 448.913L159.331 419.985C154.658 418.745 149.743 418.745 145.07 419.985L36.0441 448.913C8.6377 456.184 -10.7798 422.584 9.22692 402.508L88.8157 322.643C92.2268 319.22 94.6846 314.967 95.9463 310.304L125.383 201.511C132.783 174.163 171.618 174.163 179.018 201.511L208.454 310.304C209.716 314.967 212.174 319.22 215.585 322.643L295.174 402.508Z" fill="#EF3355"/>
<path d="M127.675 277.352C126.738 279.16 125.965 281.137 125.385 283.281L115.085 321.343C113.824 326.006 111.365 330.26 107.954 333.683L80.11 361.625C78.5424 363.198 77.2158 364.854 76.1171 366.567L9.22786 299.445C-10.7784 279.369 8.63799 245.771 36.0442 253.042L127.675 277.352Z" fill="black"/>
<path d="M179.018 500.443C171.619 527.791 132.785 527.791 125.384 500.444L100.645 409.011C102.68 408.917 104.779 408.6 106.927 408.03L145.072 397.909C149.744 396.669 154.659 396.669 159.332 397.909L197.476 408.028C199.624 408.598 201.723 408.917 203.758 409.011L179.018 500.443Z" fill="black"/>
<path d="M268.356 253.042C295.763 245.77 315.181 279.37 295.175 299.446L228.287 366.566C227.188 364.853 225.862 363.198 224.294 361.625L196.448 333.682C193.037 330.259 190.58 326.006 189.318 321.343L179.019 283.281C178.439 281.136 177.666 279.159 176.73 277.351L268.356 253.042Z" fill="black"/>
<path d="M418 391.274C418 387.014 419.447 383.438 422.34 380.547C425.386 377.504 429.042 375.983 433.306 375.983H477.168V302.493H433.306C429.042 302.493 425.463 300.971 422.569 297.928C419.523 295.037 418 291.462 418 287.202C418 282.941 419.447 279.366 422.34 276.475C425.386 273.432 429.042 271.91 433.306 271.91H551.641C555.906 271.91 559.561 273.356 562.607 276.247C565.5 279.29 566.947 282.941 566.947 287.202C566.947 291.462 565.424 295.114 562.378 298.157C559.485 301.048 555.906 302.493 551.641 302.493H508.008V375.983H551.641C555.906 375.983 559.561 377.428 562.607 380.319C565.5 383.362 566.947 387.014 566.947 391.274C566.947 395.535 565.424 399.186 562.378 402.229C559.485 405.12 555.906 406.566 551.641 406.566H433.306C429.042 406.566 425.463 405.044 422.569 402.001C419.523 399.11 418 395.535 418 391.274Z" fill="#EF3355"/>
<path d="M656.334 265.748C664.253 265.748 672.021 266.661 679.635 268.487C687.403 270.313 694.789 273.051 701.795 276.703C708.801 280.203 714.969 284.919 720.299 290.853C725.782 296.787 728.752 303.862 729.208 312.079V394.469C728.295 403.599 723.269 408.544 714.131 409.304C709.867 409.304 706.135 407.935 702.937 405.196C699.891 402.305 698.368 398.73 698.368 394.469V319.154C698.064 314.437 696.236 310.557 692.885 307.514C689.687 304.319 686.032 301.808 681.92 299.982C677.96 298.157 673.772 296.787 669.355 295.874C665.091 294.961 660.751 294.505 656.334 294.505C651.917 294.505 647.501 294.961 643.084 295.874C638.82 296.787 634.631 298.157 630.519 299.982C626.56 301.808 622.905 304.319 619.554 307.514C616.356 310.557 614.604 314.437 614.3 319.154V394.469C613.538 403.599 608.589 408.544 599.451 409.304C595.186 409.304 591.455 407.935 588.257 405.196C585.211 402.305 583.688 398.73 583.688 394.469V312.079C584.145 303.862 587.038 296.787 592.369 290.853C597.699 284.919 603.867 280.203 610.873 276.703C617.879 273.051 625.189 270.313 632.804 268.487C640.571 266.661 648.414 265.748 656.334 265.748Z" fill="#EF3355"/>
</svg>
