<svg width="90" height="30" viewBox="0 0 90 30" fill="none" xmlns="http://www.w3.org/2000/svg">
<path fill-rule="evenodd" clip-rule="evenodd" d="M10.6846 27.0308C8.61568 25.5855 6.54679 24.14 4.47792 22.6947V23.7716C4.47792 24.4801 4.78967 25.0753 5.35649 25.4721C7.14198 26.7191 8.89911 27.9661 10.6846 29.2131C12.4417 27.9661 14.2272 26.7474 15.9844 25.5004C16.5512 25.1037 16.8629 24.5085 16.8629 23.7999V22.723L16.1544 23.2048C14.3406 24.4801 12.5268 25.7555 10.6846 27.0308ZM21.3408 0.787109C14.2272 0.787109 7.11365 0.787109 5.60503e-05 0.787109V3.50784H1.78553V2.57259C7.70878 2.57259 13.6037 2.57259 19.527 2.57259V3.50784H21.3408V0.787109Z" fill="#C6A37E"/>
<path fill-rule="evenodd" clip-rule="evenodd" d="M10.0893 24.6139C10.0893 18.2089 10.0893 11.8321 10.0893 5.42708C6.71681 5.42708 3.34424 5.42708 0 5.42708V14.5528L1.8138 16.6217V7.2409H8.3322C8.3322 11.8888 8.3322 16.5367 8.3322 21.1847C6.14995 19.6542 3.99605 18.1522 1.8138 16.6217L0 14.5528V16.4517C0 17.1602 0.311704 17.7554 0.878563 18.1522C3.96771 20.3061 7.02852 22.46 10.0893 24.6139Z" fill="#C6A37E"/>
<path fill-rule="evenodd" clip-rule="evenodd" d="M11.3422 24.6139C11.3422 18.2089 11.3422 11.8321 11.3422 5.42708C14.7147 5.42708 18.0873 5.42708 21.4315 5.42708V14.5528L19.6177 16.6217V7.2409H13.0993C13.0993 11.8888 13.0993 16.5367 13.0993 21.1847C15.2816 19.6542 17.4355 18.1522 19.6177 16.6217L21.4315 14.5528V16.4517C21.4315 17.1602 21.1198 17.7554 20.553 18.1522C17.4638 20.3061 14.403 22.46 11.3422 24.6139Z" fill="#C6A37E"/>
<path d="M28.0435 19V10.0568H28.989V19H28.0435ZM35.1311 12.2287C35.6762 12.2287 36.1532 12.3352 36.562 12.5481C36.9794 12.7525 37.3031 13.0677 37.533 13.4935C37.7715 13.9194 37.8908 14.456 37.8908 15.1033V19H36.9837V15.1927C36.9837 14.4858 36.8048 13.9535 36.4471 13.5957C36.0979 13.2295 35.6038 13.0464 34.965 13.0464C34.4881 13.0464 34.0707 13.1443 33.713 13.3402C33.3638 13.5276 33.0912 13.8044 32.8953 14.1707C32.7079 14.5284 32.6143 14.9628 32.6143 15.4738V19H31.7072V12.2926H32.5759V14.1323L32.4354 13.7874C32.6483 13.3019 32.989 12.9229 33.4575 12.6503C33.9259 12.3692 34.4838 12.2287 35.1311 12.2287ZM41.941 19L38.9641 12.2926H39.9096L42.6436 18.5145H42.1965L44.9689 12.2926H45.8632L42.8736 19H41.941ZM49.8026 19.0639C49.1042 19.0639 48.4909 18.9191 47.9629 18.6295C47.4348 18.3314 47.0217 17.9268 46.7236 17.4158C46.4255 16.8962 46.2764 16.3043 46.2764 15.6399C46.2764 14.9755 46.417 14.3879 46.698 13.8768C46.9876 13.3658 47.3794 12.9655 47.8734 12.6759C48.376 12.3778 48.9381 12.2287 49.5599 12.2287C50.1901 12.2287 50.748 12.3735 51.2335 12.6631C51.7275 12.9442 52.1151 13.3445 52.3961 13.864C52.6772 14.3751 52.8178 14.967 52.8178 15.6399C52.8178 15.6825 52.8135 15.7293 52.805 15.7804C52.805 15.823 52.805 15.8699 52.805 15.921H46.9663V15.2438H52.3195L51.9618 15.5121C51.9618 15.0267 51.8553 14.5965 51.6424 14.2218C51.4379 13.8385 51.1569 13.5404 50.7991 13.3274C50.4414 13.1145 50.0283 13.008 49.5599 13.008C49.0999 13.008 48.6868 13.1145 48.3206 13.3274C47.9543 13.5404 47.669 13.8385 47.4646 14.2218C47.2602 14.605 47.158 15.0437 47.158 15.5377V15.6782C47.158 16.1893 47.2687 16.6407 47.4901 17.0325C47.7201 17.4158 48.0353 17.7181 48.4356 17.9396C48.8444 18.1525 49.3086 18.259 49.8282 18.259C50.237 18.259 50.616 18.1866 50.9652 18.0418C51.323 17.897 51.6296 17.6756 51.8851 17.3774L52.3961 17.9651C52.098 18.3229 51.7233 18.5954 51.2719 18.7828C50.829 18.9702 50.3392 19.0639 49.8026 19.0639ZM56.4655 19.0639C55.9119 19.0639 55.3881 18.9872 54.8941 18.8339C54.4001 18.6721 54.0125 18.4719 53.7314 18.2334L54.1403 17.518C54.4128 17.7224 54.762 17.9013 55.1879 18.0546C55.6138 18.1994 56.0609 18.2718 56.5294 18.2718C57.1682 18.2718 57.6281 18.1738 57.9092 17.9779C58.1903 17.7735 58.3308 17.5052 58.3308 17.173C58.3308 16.926 58.2499 16.7344 58.0881 16.5981C57.9348 16.4533 57.7303 16.3468 57.4748 16.2787C57.2193 16.202 56.934 16.1382 56.6188 16.0871C56.3037 16.036 55.9885 15.9763 55.6734 15.9082C55.3668 15.8401 55.0857 15.7421 54.8302 15.6144C54.5747 15.4781 54.366 15.295 54.2042 15.065C54.0508 14.835 53.9742 14.5284 53.9742 14.1451C53.9742 13.7789 54.0764 13.4509 54.2808 13.1614C54.4852 12.8718 54.7833 12.6461 55.1751 12.4842C55.5754 12.3139 56.0609 12.2287 56.6316 12.2287C57.066 12.2287 57.5004 12.2883 57.9348 12.4076C58.3691 12.5183 58.7269 12.6673 59.0079 12.8547L58.6119 13.583C58.3138 13.3785 57.9944 13.2337 57.6537 13.1486C57.313 13.0549 56.9723 13.008 56.6316 13.008C56.0269 13.008 55.5797 13.1145 55.2901 13.3274C55.009 13.5319 54.8685 13.7959 54.8685 14.1196C54.8685 14.3751 54.9452 14.5752 55.0985 14.72C55.2603 14.8648 55.469 14.9798 55.7245 15.065C55.9885 15.1416 56.2739 15.2055 56.5805 15.2566C56.8956 15.3077 57.2065 15.3716 57.5131 15.4483C57.8283 15.5164 58.1136 15.6144 58.3691 15.7421C58.6332 15.8614 58.8419 16.036 58.9952 16.2659C59.157 16.4874 59.2379 16.7812 59.2379 17.1475C59.2379 17.5393 59.1272 17.88 58.9057 18.1696C58.6928 18.4506 58.3777 18.6721 57.9603 18.8339C57.5515 18.9872 57.0532 19.0639 56.4655 19.0639ZM62.7038 19.0639C62.1502 19.0639 61.6264 18.9872 61.1324 18.8339C60.6383 18.6721 60.2508 18.4719 59.9697 18.2334L60.3786 17.518C60.6511 17.7224 61.0003 17.9013 61.4262 18.0546C61.8521 18.1994 62.2992 18.2718 62.7677 18.2718C63.4065 18.2718 63.8664 18.1738 64.1475 17.9779C64.4286 17.7735 64.5691 17.5052 64.5691 17.173C64.5691 16.926 64.4882 16.7344 64.3264 16.5981C64.173 16.4533 63.9686 16.3468 63.7131 16.2787C63.4576 16.202 63.1723 16.1382 62.8571 16.0871C62.542 16.036 62.2268 15.9763 61.9117 15.9082C61.6051 15.8401 61.324 15.7421 61.0685 15.6144C60.813 15.4781 60.6043 15.295 60.4424 15.065C60.2891 14.835 60.2125 14.5284 60.2125 14.1451C60.2125 13.7789 60.3147 13.4509 60.5191 13.1614C60.7235 12.8718 61.0216 12.6461 61.4134 12.4842C61.8137 12.3139 62.2992 12.2287 62.8699 12.2287C63.3043 12.2287 63.7387 12.2883 64.1731 12.4076C64.6074 12.5183 64.9652 12.6673 65.2462 12.8547L64.8502 13.583C64.5521 13.3785 64.2327 13.2337 63.892 13.1486C63.5513 13.0549 63.2106 13.008 62.8699 13.008C62.2652 13.008 61.818 13.1145 61.5284 13.3274C61.2473 13.5319 61.1068 13.7959 61.1068 14.1196C61.1068 14.3751 61.1835 14.5752 61.3368 14.72C61.4986 14.8648 61.7073 14.9798 61.9628 15.065C62.2268 15.1416 62.5122 15.2055 62.8188 15.2566C63.1339 15.3077 63.4448 15.3716 63.7514 15.4483C64.0666 15.5164 64.3519 15.6144 64.6074 15.7421C64.8715 15.8614 65.0801 16.036 65.2335 16.2659C65.3953 16.4874 65.4762 16.7812 65.4762 17.1475C65.4762 17.5393 65.3655 17.88 65.144 18.1696C64.9311 18.4506 64.616 18.6721 64.1986 18.8339C63.7898 18.9872 63.2915 19.0639 62.7038 19.0639ZM69.2615 19.0639C68.6312 19.0639 68.1457 18.8935 67.805 18.5528C67.4643 18.2121 67.294 17.7309 67.294 17.1091V10.8106H68.2011V17.058C68.2011 17.4498 68.299 17.7522 68.4949 17.9651C68.6994 18.1781 68.989 18.2845 69.3637 18.2845C69.764 18.2845 70.0962 18.1696 70.3602 17.9396L70.6796 18.5912C70.5008 18.753 70.2836 18.8722 70.0281 18.9489C69.7811 19.0256 69.5255 19.0639 69.2615 19.0639ZM66.0931 13.0464V12.2926H70.2453V13.0464H66.0931ZM74.8791 19.0639C74.2147 19.0639 73.6185 18.9191 73.0904 18.6295C72.5709 18.3314 72.162 17.9268 71.8639 17.4158C71.5658 16.8962 71.4168 16.3043 71.4168 15.6399C71.4168 14.967 71.5658 14.3751 71.8639 13.864C72.162 13.353 72.5709 12.9527 73.0904 12.6631C73.6185 12.3735 74.2147 12.2287 74.8791 12.2287C75.4497 12.2287 75.965 12.3394 76.425 12.5609C76.8849 12.7823 77.2469 13.1145 77.5109 13.5574L76.8338 14.0173C76.6038 13.6767 76.3185 13.4254 75.9778 13.2636C75.6371 13.1017 75.2666 13.0208 74.8663 13.0208C74.3893 13.0208 73.9592 13.1315 73.5759 13.353C73.1926 13.5659 72.8903 13.8683 72.6688 14.2601C72.4474 14.6519 72.3366 15.1118 72.3366 15.6399C72.3366 16.168 72.4474 16.6279 72.6688 17.0197C72.8903 17.4115 73.1926 17.7181 73.5759 17.9396C73.9592 18.1525 74.3893 18.259 74.8663 18.259C75.2666 18.259 75.6371 18.1781 75.9778 18.0162C76.3185 17.8544 76.6038 17.6074 76.8338 17.2752L77.5109 17.7352C77.2469 18.1696 76.8849 18.5017 76.425 18.7317C75.965 18.9532 75.4497 19.0639 74.8791 19.0639ZM81.9147 19.0639C81.2674 19.0639 80.6839 18.9191 80.1644 18.6295C79.6533 18.3314 79.2487 17.9268 78.9506 17.4158C78.6525 16.8962 78.5035 16.3043 78.5035 15.6399C78.5035 14.967 78.6525 14.3751 78.9506 13.864C79.2487 13.353 79.6533 12.9527 80.1644 12.6631C80.6754 12.3735 81.2588 12.2287 81.9147 12.2287C82.579 12.2287 83.1667 12.3735 83.6778 12.6631C84.1973 12.9527 84.6019 13.353 84.8915 13.864C85.1896 14.3751 85.3386 14.967 85.3386 15.6399C85.3386 16.3043 85.1896 16.8962 84.8915 17.4158C84.6019 17.9268 84.1973 18.3314 83.6778 18.6295C83.1582 18.9191 82.5705 19.0639 81.9147 19.0639ZM81.9147 18.259C82.4002 18.259 82.8303 18.1525 83.205 17.9396C83.5798 17.7181 83.8737 17.4115 84.0866 17.0197C84.308 16.6194 84.4188 16.1595 84.4188 15.6399C84.4188 15.1118 84.308 14.6519 84.0866 14.2601C83.8737 13.8683 83.5798 13.5659 83.205 13.353C82.8303 13.1315 82.4044 13.0208 81.9274 13.0208C81.4505 13.0208 81.0246 13.1315 80.6498 13.353C80.2751 13.5659 79.977 13.8683 79.7555 14.2601C79.5341 14.6519 79.4233 15.1118 79.4233 15.6399C79.4233 16.1595 79.5341 16.6194 79.7555 17.0197C79.977 17.4115 80.2751 17.7181 80.6498 17.9396C81.0246 18.1525 81.4462 18.259 81.9147 18.259Z" fill="#0B0B0B"/>
</svg>
