<svg xmlns="http://www.w3.org/2000/svg" xml:space="preserve" viewBox="0 0 341.931 341.926"><path fill="#FFFFFF" fill-opacity="0.3" d="M150.143 319.478c-14.444-3.336-19.685-16.889-19.358-29.32l-.896-.306c.273 16.571-17.558 24.771-4.117 47.425-25.34-10.496-28.58-38.566-22.156-60.1l-1.124-.722c-3.549 7.133-11.79 10.624-7.603 23.758-12.083-8.618-11.724-23.169-6.648-34.538l-.711-.627c-6.072 15.456-25.722 16.188-21.969 42.282-19.4-19.398-11.644-46.581 2.538-64.016l-.761-1.094c-6.01 5.238-14.968 5.306-16.126 19.049-7.861-12.581-1.971-25.88 7.062-34.442l-.417-.849c-11.525 11.926-29.938 5.104-36.455 30.634-10.495-25.339 7.06-47.477 26.826-58.16l-.283-1.306c-7.557 2.539-15.856-.825-22.185 11.427-2.45-14.646 8.103-24.683 19.737-29.131l-.06-.946C30.213 185.138 15.8 171.753 0 192.863c0-27.435 24.704-41.17 47.058-43.472l.234-1.313c-7.958-.541-14.341-6.835-24.881 2.066 3.339-14.459 16.916-19.698 29.361-19.362l.305-.895c-16.582.283-24.779-17.562-47.439-4.116 10.499-25.344 38.577-28.581 60.111-22.152l.72-1.12c-7.154-3.542-10.639-11.813-23.793-7.619 8.629-12.096 23.2-11.726 34.575-6.637l.625-.71c-15.467-6.066-16.19-25.727-42.293-21.973 19.402-19.402 46.589-11.641 64.025 2.545l1.091-.761c-5.262-6.012-5.31-14.992-19.074-16.151 12.594-7.869 25.907-1.963 34.47 7.084l.846-.417c-11.934-11.524-5.105-29.943-30.64-36.459 25.341-10.497 47.48 7.062 58.164 26.831l1.303-.283c-2.556-7.563.83-15.877-11.438-22.213 14.658-2.453 24.702 8.118 29.146 19.763l.944-.06c-6.645-15.225 6.742-29.638-14.368-45.44 27.435 0 41.17 24.704 43.472 47.06l1.312.233c.543-7.955 6.832-14.336-2.065-24.873 14.453 3.338 19.691 16.908 19.357 29.349l.896.306c-.296-16.592 17.565-24.788 4.115-47.455 25.35 10.5 28.582 38.585 22.149 60.12l1.127.724c3.545-7.146 11.805-10.633 7.614-23.778 12.089 8.623 11.724 23.185 6.64 34.557l.711.626c6.063-15.476 25.731-16.195 21.979-42.303 19.403 19.403 11.639 46.594-2.55 64.027l.767 1.099c6.01-5.25 14.979-5.308 16.139-19.061 7.864 12.586 1.967 25.891-7.071 34.451l.417.849c11.524-11.94 29.948-5.107 36.465-30.646 10.497 25.341-7.063 47.482-26.833 58.164l.286 1.313c7.559-2.546 15.861.826 22.192-11.431 2.451 14.647-8.105 24.687-19.742 29.133l.061.944c15.227-6.646 29.641 6.743 45.443-14.369 0 27.436-24.704 41.17-47.06 43.472l-.235 1.319c7.96.54 14.342 6.837 24.885-2.066-3.339 14.46-16.916 19.698-29.361 19.362l-.305.894c16.583-.284 24.78 17.562 47.44 4.116-10.497 25.344-38.574 28.579-60.107 22.151l-.726 1.128c7.155 3.542 10.639 11.813 23.793 7.618-8.627 12.095-23.197 11.727-34.572 6.639l-.624.709c15.465 6.066 16.19 25.727 42.292 21.973-19.4 19.4-46.586 11.642-64.021-2.541l-1.1.765c5.261 6.011 5.311 14.99 19.071 16.149-12.592 7.868-25.903 1.964-34.467-7.081l-.845.416c11.931 11.523 5.104 29.941 30.638 36.458-25.339 10.496-47.479-7.062-58.162-26.828l-1.312.286c2.556 7.563-.829 15.875 11.438 22.211-14.657 2.453-24.7-8.116-29.146-19.762l-.942.06c6.644 15.225-6.743 29.638 14.368 45.439-27.435 0-41.169-24.702-43.472-47.06l-1.324-.234c-.559 7.944-6.822 14.322 2.066 24.847"/></svg>