<svg width="0" height="0" class="hidden">
  <symbol xmlns="http://www.w3.org/2000/svg" xml:space="preserve" viewBox="0 0 526.088 488.864" id="logo">
    <path fill-rule="evenodd" clip-rule="evenodd" fill="#D9261C" d="m245.4 436.064-3.631-.029-3.9-.036-4.148-.043-4.376-.052-4.58-.059-4.767-.07-4.93-.08-5.071-.091-5.193-.103-5.294-.115-5.373-.127-5.431-.142-5.467-.156-5.485-.171-5.479-.187-5.453-.204-5.407-.221-5.342-.24-5.254-.257-5.148-.279-5.021-.299-4.876-.321-4.702-.343-6.174-.496-5.895-.516-5.631-.542-5.377-.576-5.136-.61-4.901-.648-4.679-.697-4.469-.747-4.271-.804-4.082-.868-3.908-.941-3.742-1.021-3.585-1.113-3.444-1.215-3.306-1.329-3.17-1.456-3.038-1.592-2.908-1.744-2.765-1.898-2.613-2.059-2.449-2.214-2.273-2.368-2.089-2.499-1.894-2.62-1.705-2.717-1.519-2.799-1.346-2.868-1.187-2.928-1.044-2.979-.92-3.033-.814-3.087-.634-2.776-.115-.463-.178-.723-.239-.988-.297-1.256-.353-1.522-.406-1.787-.458-2.049-.506-2.315-.552-2.577-.596-2.84-.636-3.101-.676-3.364-.71-3.628-.745-3.885-.776-4.148-.805-4.407-.83-4.666-.856-4.928-.875-5.183-.893-5.444-.911-5.702-.924-5.958-.935-6.215-.945-6.472-.95-6.728-.954-6.983-.955-7.239-.956-7.493-.95-7.747-.944-8.002-.936-8.26-.908-8.409-.838-8.275-.775-8.122-.712-7.964-.651-7.798-.593-7.622-.538-7.442-.487-7.249-.436-7.05-.389-6.844-.344-6.628-.303-6.405-.262-6.173-.226-5.935-.189-5.687-.16-5.431-.13-5.166-.103-4.896-.077-4.615-.057-4.328-.038-4.031-.02-3.727L0 99.394.004 96.3l.015-2.764.02-2.43.025-2.084.026-1.731.025-1.368.022-1 .014-.634.004-.145.048-2.637.16-2.934.273-2.899.389-2.862.508-2.826.636-2.787.764-2.744.896-2.696 1.03-2.642 1.167-2.582 1.304-2.517 1.439-2.441 1.573-2.362 1.706-2.276 1.828-2.181 1.95-2.082 2.066-1.986 2.174-1.881 2.276-1.778 2.376-1.674 2.469-1.574 2.56-1.474 2.646-1.377 2.73-1.284 2.813-1.193 2.897-1.104 2.978-1.022 3.062-.941 3.145-.863 3.228-.787 3.313-.714 2.977-.563.939-.21 1.415-.309 1.94-.417 2.444-.515 2.928-.604 3.4-.684 3.854-.76 4.293-.822 4.713-.881 5.12-.928 5.509-.97 5.882-1.003 6.238-1.025 6.581-1.043 6.905-1.052 7.212-1.05 7.506-1.043 7.782-1.027 8.041-1.002 8.286-.969 8.516-.927 8.724-.88 8.923-.821 9.102-.757 9.266-.682 9.414-.601 9.545-.51 9.663-.41 9.763-.305 9.847-.188L263.203 0l9.915.066 9.844.188 9.761.305 9.656.41 9.539.51 9.405.601 9.257.682 9.092.757 8.91.822 8.715.879 8.5.927 8.273.97 8.028 1.001 7.767 1.027 7.491 1.043 7.198 1.051 6.891 1.051 6.565 1.043 6.223 1.027 5.87 1.001 5.496.972 5.106.928 4.701.881 4.282.823 3.843.758 3.391.685 2.92.603 2.436.515 1.934.418 1.414.309.928.208 2.973.563 3.313.714 3.228.787 3.145.863 3.061.941 2.979 1.022 2.896 1.104 2.815 1.193 2.73 1.285 2.647 1.376 2.557 1.474 2.47 1.572 2.376 1.676 2.277 1.779 2.174 1.879 2.067 1.985 1.948 2.084 1.83 2.183 1.705 2.274 1.574 2.362 1.438 2.442 1.305 2.516 1.167 2.581 1.03 2.642.896 2.697.764 2.744.635 2.787.509 2.826.389 2.862.274 2.899.16 2.933.047 2.649.004.149.014.622.023.999.024 1.368.025 1.732.026 2.081.02 2.429.015 2.765.004 3.095-.006 3.413-.021 3.728-.038 4.031-.055 4.329-.079 4.613-.103 4.897-.129 5.166-.16 5.431-.19 5.687-.226 5.935-.262 6.173-.302 6.407-.345 6.626-.389 6.844-.436 7.05-.487 7.25-.538 7.44-.594 7.623-.65 7.798-.713 7.964-.774 8.122-.839 8.275-.907 8.41-.936 8.259-.944 8.002-.95 7.746-.956 7.493-.955 7.24-.954 6.983-.95 6.729-.943 6.471-.937 6.214-.924 5.959-.911 5.702-.893 5.444-.875 5.183-.855 4.927-.831 4.666-.804 4.408-.777 4.148-.744 3.888-.71 3.623-.676 3.365-.637 3.102-.596 2.841-.551 2.576-.506 2.315-.459 2.051-.405 1.785-.353 1.519-.297 1.257-.24.991-.176.725-.113.449-.638 2.789-.813 3.086-.921 3.033-1.043 2.98-1.188 2.924-1.347 2.87-1.519 2.799-1.705 2.72-1.895 2.617-2.087 2.499-2.273 2.367-2.45 2.215-2.614 2.059-2.764 1.898-2.906 1.744-3.04 1.592-3.171 1.456-3.304 1.329-3.444 1.215-3.585 1.113-3.743 1.021-3.907.941-4.082.868-4.271.804-4.469.747-4.679.695-4.902.65-5.135.61-5.377.576-5.63.542-5.896.516-6.174.496-4.706.343-4.888.321-5.039.299-5.17.279-5.282.257-5.374.24-5.447.221-5.494.204-5.524.187-5.531.171-5.519.156-5.483.142-5.429.127-5.349.115-5.251.103-5.128.091-4.986.08-4.824.07-4.637.059-4.43.052-4.201.043-3.951.036-3.678.029-3.384.024-3.068.018-2.731.013-2.373.009-1.991.007-1.59.003-1.165.003h-1.912l-1.15-.003-1.566-.003-1.964-.007-2.34-.009-2.694-.013-3.027-.018z"></path>
    <path fill="none" stroke="currentColor" stroke-width=".216" stroke-miterlimit="10" d="m294.674 331.778-4.282.049-4.075.042-3.839.034-3.556.03-3.282.021-2.964.018-2.608.013-2.294.009-1.906.005-2.475.006h-1.912l-2.435-.006-1.878-.005-2.259-.009-2.57-.013-2.922-.018-3.235-.021-3.507-.03-3.789-.034-4.018-.042-4.226-.049-4.429-.058-4.606-.069-4.763-.076-4.885-.088-4.995-.099-5.085-.11-5.15-.123-5.183-.134-5.191-.149-5.198-.163-5.168-.177-5.095-.189-5.019-.205-4.916-.22-4.773-.234-4.606-.249-4.421-.265-4.182-.274-3.944-.289-5.422-.434-5.063-.444-2.847-.274-.439-2.35-.724-3.96-.748-4.208-.778-4.475-.794-4.714-.82-4.989-.837-5.25-.853-5.491-.865-5.749-.877-6.012-.885-6.261-.89-6.511-.892-6.767-.896-7.027-.891-7.266-.888-7.524-.878-7.746-.841-7.793-.774-7.635-.715-7.501-.657-7.355-.602-7.207-.548-7.043-.499-6.894-.45-6.703-.404-6.521-.359-6.331-.318-6.123-.279-5.915-.243-5.698-.208-5.465-.174-5.232-.147-5.003-.118-4.73-.05-2.34 4.539-.823 4.96-.873 5.312-.906 5.642-.927 5.967-.946 6.26-.953 6.539-.953 6.81-.946 7.057-.931 7.278-.907 7.488-.875 7.695-.838 7.853-.793 8.011-.737 8.155-.678 8.267-.608 8.367-.534 8.441-.451 8.512-.362 8.549-.267 8.564-.163 8.577-.057 8.575.057 8.563.163 8.543.267 8.503.362 8.433.451 8.358.534 8.257.608 8.135.676 8.004.739 7.847.791 7.664.837 7.478.877 7.27.906 7.032.93 6.784.943 6.524.954 6.249.954 5.949.945 5.629.927 5.284.903 4.942.873 4.501.819-.049 2.364-.118 4.73-.147 4.98-.175 5.233-.208 5.475-.243 5.7-.279 5.914-.318 6.122-.36 6.331-.403 6.521-.45 6.704-.498 6.885-.549 7.051-.602 7.207-.658 7.355-.715 7.501-.774 7.635-.841 7.802-.877 7.737-.888 7.524-.891 7.265-.896 7.027-.893 6.769-.889 6.51-.886 6.27-.875 6.002-.864 5.74-.855 5.501-.837 5.25-.819 4.986-.798 4.727-.774 4.463-.749 4.211-.724 3.96-.438 2.349-2.849.274-5.062.444-5.417.434-3.941.288-4.187.274-4.433.263-4.627.249-4.801.236-4.946.219-5.057.206-5.135.189-5.216.177-5.245.163-5.244.149-5.237.134-5.206.122-5.14.112-5.056.098-4.942.088-4.822.077-4.665.068z"></path>
    <path fill-rule="evenodd" clip-rule="evenodd" fill="#FFF" d="M262.429 421.746s-82.219.036-130.257-3.659c-66.314-5.097-81.719-13.041-88.076-42.795 0 0-11.698-45.577-21.547-134.268-9.939-89.516-8.002-156.547-8.002-156.547 0-26.467 14.772-42.063 47.922-47.921 0 0 96.685-22.161 200.735-22.161 104.049 0 200.415 22.161 200.415 22.161 33.15 5.858 47.924 21.454 47.924 47.921 0 0 1.937 67.031-8.003 156.547-9.849 88.691-21.546 134.268-21.546 134.268-6.359 29.754-21.762 37.698-88.077 42.795-48.039 3.695-131.488 3.659-131.488 3.659z"></path>
    <path fill-rule="evenodd" clip-rule="evenodd" fill="#D9261C" d="M242.224 366.582c-14.444-3.336-19.685-16.888-19.358-29.32l-.896-.306c.273 16.572-17.558 24.771-4.117 47.425-25.34-10.496-28.58-38.566-22.156-60.099l-1.124-.722c-3.549 7.133-11.79 10.624-7.603 23.758-12.083-8.619-11.724-23.169-6.648-34.538l-.711-.627c-6.072 15.456-25.722 16.187-21.969 42.282-19.4-19.399-11.644-46.581 2.538-64.016l-.761-1.094c-6.01 5.239-14.968 5.306-16.126 19.049-7.861-12.581-1.971-25.88 7.062-34.442l-.417-.849c-11.525 11.926-29.938 5.104-36.455 30.634-10.495-25.339 7.06-47.477 26.826-58.16l-.283-1.306c-7.557 2.539-15.856-.825-22.185 11.427-2.45-14.646 8.103-24.683 19.737-29.131l-.06-.946c-15.224 6.641-29.637-6.743-45.437 14.367 0-27.435 24.704-41.17 47.058-43.472l.234-1.312c-7.958-.541-14.341-6.835-24.881 2.066 3.339-14.459 16.916-19.698 29.361-19.362l.305-.895c-16.582.284-24.779-17.561-47.439-4.116 10.499-25.344 38.577-28.581 60.111-22.152l.72-1.12c-7.154-3.542-10.639-11.813-23.793-7.619 8.629-12.096 23.2-11.726 34.575-6.637l.625-.71c-15.467-6.066-16.19-25.727-42.293-21.973 19.402-19.402 46.589-11.64 64.025 2.545l1.091-.761c-5.262-6.011-5.31-14.992-19.074-16.151 12.594-7.869 25.907-1.963 34.47 7.084l.846-.417c-11.934-11.524-5.105-29.943-30.64-36.459 25.341-10.497 47.48 7.062 58.164 26.831l1.303-.283c-2.556-7.564.83-15.877-11.438-22.213 14.658-2.453 24.702 8.118 29.146 19.763l.944-.06c-6.645-15.224 6.742-29.638-14.368-45.44 27.434 0 41.17 24.704 43.472 47.059l1.311.234c.543-7.955 6.832-14.336-2.066-24.873 14.454 3.338 19.692 16.908 19.358 29.348l.896.306c-.296-16.592 17.565-24.788 4.115-47.455 25.349 10.5 28.582 38.585 22.149 60.12l1.127.724c3.545-7.147 11.805-10.633 7.614-23.779 12.089 8.623 11.724 23.185 6.64 34.557l.711.626c6.063-15.476 25.731-16.195 21.978-42.303 19.404 19.404 11.639 46.594-2.549 64.028l.766 1.098c6.01-5.25 14.979-5.307 16.139-19.06 7.864 12.586 1.967 25.89-7.071 34.451l.417.848c11.524-11.94 29.948-5.107 36.465-30.645 10.497 25.341-7.063 47.482-26.833 58.164l.286 1.313c7.558-2.545 15.861.827 22.192-11.43 2.451 14.647-8.105 24.686-19.742 29.133l.06.944c15.227-6.647 29.641 6.743 45.444-14.369 0 27.435-24.704 41.17-47.06 43.471l-.235 1.32c7.96.54 14.342 6.837 24.885-2.067-3.339 14.46-16.916 19.699-29.362 19.363l-.304.893c16.583-.284 24.78 17.562 47.44 4.116-10.497 25.344-38.574 28.58-60.107 22.152l-.726 1.128c7.155 3.542 10.639 11.812 23.793 7.618-8.627 12.095-23.197 11.726-34.572 6.639l-.624.709c15.465 6.066 16.19 25.726 42.292 21.972-19.401 19.401-46.586 11.642-64.021-2.541l-1.099.765c5.26 6.011 5.31 14.99 19.071 16.149-12.592 7.868-25.903 1.964-34.467-7.081l-.845.416c11.931 11.524 5.105 29.942 30.638 36.458-25.339 10.496-47.479-7.061-58.162-26.828l-1.311.286c2.555 7.563-.83 15.875 11.438 22.211-14.657 2.453-24.701-8.116-29.146-19.762l-.942.06c6.644 15.225-6.743 29.638 14.368 45.439-27.435 0-41.169-24.702-43.472-47.059l-1.324-.235c-.559 7.944-6.822 14.322 2.066 24.846"></path>
    <path fill-rule="evenodd" clip-rule="evenodd" fill="#FFF" d="M258.045 192.201h-22.636v71.915h-22.635v-71.915H190.14v-20.176h67.905zM313.313 201.646c0-2.501-.905-4.658-2.717-6.468-1.81-1.897-4.182-2.846-7.112-2.846h-12.806v18.624h12.806c2.931 0 5.303-.905 7.112-2.715 1.812-1.897 2.717-4.095 2.717-6.595m22.635 0c0 8.105-2.672 14.916-8.019 20.435-5.864 6.122-13.668 9.183-23.411 9.183h-13.84v32.853h-22.635v-92.091h36.475c9.743 0 17.547 3.062 23.411 9.183 5.347 5.518 8.019 12.331 8.019 20.437z"></path>
    <path fill="currentColor" d="M476.708 458.03v-5.206h5.399v5.206h-5.399zm-.221 30.347v-28.702h5.794v28.702h-5.794zm-22.962-16.566h4.283c2.78 0 4.518-.114 5.213-.348a3.144 3.144 0 0 0 1.624-1.217c.388-.574.588-1.289.588-2.151 0-.969-.261-1.744-.775-2.339s-1.243-.97-2.186-1.13c-.467-.06-1.877-.094-4.229-.094h-4.518v7.279zm-5.8 16.566v-28.702h12.203c3.067 0 5.292.26 6.683.774 1.39.515 2.506 1.431 3.341 2.747.836 1.323 1.25 2.827 1.25 4.524 0 2.151-.635 3.936-1.898 5.339-1.263 1.397-3.16 2.286-5.68 2.646 1.256.735 2.292 1.537 3.107 2.413.815.875 1.911 2.426 3.294 4.657l3.51 5.601h-6.931l-4.19-6.249c-1.49-2.231-2.506-3.635-3.054-4.217-.548-.581-1.13-.976-1.744-1.195-.615-.214-1.584-.321-2.92-.321h-1.17v11.982h-5.801zm-26.758 0v-28.702h21.277v4.857h-15.483v6.362h14.408v4.832h-14.408v7.812h16.031v4.839h-21.825zm-24.339 0v-28.469h5.794v23.63h14.408v4.839h-20.202zm-24.492 0v-28.469h5.794v23.63h14.408v4.839h-20.202zm-26.551-14.368c0 3.248.755 5.714 2.252 7.391 1.503 1.678 3.408 2.514 5.72 2.514 2.306 0 4.204-.829 5.688-2.5 1.477-1.664 2.219-4.156 2.219-7.484 0-3.288-.722-5.74-2.159-7.364-1.443-1.617-3.361-2.426-5.747-2.426-2.392 0-4.316.821-5.78 2.459-1.459 1.636-2.193 4.102-2.193 7.41zm-5.968.194c0-2.928.435-5.38 1.31-7.364a13.615 13.615 0 0 1 2.673-3.937c1.13-1.156 2.366-2.019 3.709-2.58 1.791-.762 3.85-1.136 6.188-1.136 4.229 0 7.611 1.31 10.151 3.937 2.539 2.619 3.809 6.268 3.809 10.939 0 4.638-1.263 8.26-3.782 10.879-2.52 2.613-5.888 3.923-10.098 3.923-4.271 0-7.665-1.303-10.185-3.902-2.519-2.607-3.775-6.194-3.775-10.759zm-21.967-2.392h4.284c2.779 0 4.518-.114 5.212-.348a3.144 3.144 0 0 0 1.624-1.217c.388-.574.588-1.289.588-2.151 0-.969-.26-1.744-.775-2.339-.514-.595-1.242-.97-2.185-1.13-.468-.06-1.878-.094-4.23-.094h-4.518v7.279zm-5.8 16.566v-28.702h12.203c3.067 0 5.293.26 6.683.774s2.506 1.431 3.342 2.747c.835 1.323 1.249 2.827 1.249 4.524 0 2.151-.635 3.936-1.897 5.339-1.263 1.397-3.161 2.286-5.681 2.646 1.256.735 2.292 1.537 3.107 2.413.815.875 1.911 2.426 3.295 4.657l3.509 5.601h-6.931l-4.19-6.249c-1.489-2.231-2.506-3.635-3.054-4.217-.548-.581-1.129-.976-1.744-1.195-.615-.214-1.584-.321-2.92-.321h-1.17v11.982h-5.801zm-18.051 0v-23.845h-8.514v-4.857h22.809v4.857H299.6v23.845h-5.801zm-33.2 0v-28.702h21.278v4.857h-15.484v6.362h14.409v4.832h-14.409v7.812h16.032v4.839h-21.826zm-20.95-23.845v8.14h3.168c2.285 0 3.815-.146 4.584-.447.769-.301 1.37-.769 1.811-1.41.434-.642.655-1.383.655-2.232 0-1.042-.308-1.904-.922-2.586-.608-.675-1.39-1.103-2.326-1.27-.695-.134-2.085-.194-4.17-.194h-2.8zm-5.794 23.845v-28.702h9.296c3.522 0 5.821.146 6.89.434 1.644.428 3.027 1.363 4.136 2.807 1.11 1.444 1.664 3.309 1.664 5.587 0 1.765-.321 3.248-.962 4.444-.642 1.203-1.45 2.146-2.439 2.833-.982.682-1.985 1.137-3 1.357-1.383.273-3.388.414-6.015.414h-3.776v10.826h-5.794zm-37.885 0v-28.702h21.278v4.857h-15.484v6.362h14.408v4.832h-14.408v7.812h16.032v4.839H195.97zm-19.212 0v-12.082l-10.512-16.62h6.796l6.756 11.354 6.616-11.354h6.676l-10.552 16.659v12.043h-5.78zm-18.632-30.347v-5.206h5.4v5.206h-5.4zm-.221 30.347v-28.702h5.794v28.702h-5.794zm-28.702 0v-28.702h5.794v12.743l11.708-12.743h7.792l-10.806 11.18 11.395 17.522h-7.499l-7.886-13.473-4.705 4.798v8.675h-5.793zm-23.216-16.566h4.284c2.78 0 4.518-.114 5.212-.348a3.144 3.144 0 0 0 1.624-1.217c.388-.574.588-1.289.588-2.151 0-.969-.26-1.744-.775-2.339-.514-.595-1.243-.97-2.185-1.13-.468-.06-1.878-.094-4.23-.094h-4.518v7.279zm-5.801 16.566v-28.702h12.203c3.067 0 5.293.26 6.683.774 1.39.515 2.506 1.431 3.342 2.747.835 1.323 1.25 2.827 1.25 4.524 0 2.151-.635 3.936-1.898 5.339-1.263 1.397-3.161 2.286-5.68 2.646 1.256.735 2.292 1.537 3.107 2.413.815.875 1.911 2.426 3.294 4.657l3.509 5.601h-6.93l-4.19-6.249c-1.49-2.231-2.506-3.635-3.054-4.217-.548-.581-1.129-.976-1.744-1.195-.615-.214-1.584-.321-2.92-.321h-1.169v11.982h-5.803zM84.521 458.03v-4.718h4.738v4.718h-4.738zm-8.413 0v-4.718h4.718v4.718h-4.718zm-4.932 1.645h5.794v15.544c0 2.466.074 4.069.214 4.798.247 1.177.842 2.118 1.771 2.827.935.715 2.212 1.069 3.829 1.069 1.644 0 2.887-.335 3.722-1.01.835-.668 1.336-1.497 1.503-2.473.174-.982.254-2.605.254-4.878v-15.878h5.794v15.076c0 3.448-.153 5.881-.467 7.304-.314 1.424-.889 2.62-1.731 3.603-.842.976-1.972 1.757-3.375 2.339-1.41.581-3.254.868-5.526.868-2.74 0-4.819-.313-6.236-.948-1.417-.635-2.533-1.457-3.354-2.466-.822-1.01-1.363-2.072-1.624-3.182-.381-1.644-.568-4.069-.568-7.284v-15.309zm-17.997 28.702v-23.845h-8.514v-4.857h22.809v4.857H58.98v23.845h-5.801z"></path>
  </symbol>
    <symbol xmlns="http://www.w3.org/2000/svg" viewBox="0 0 512 512" id="facebook-circle">
    <path fill="currentColor" d="M504 256C504 119 393 8 256 8S8 119 8 256c0 123.78 90.69 226.38 209.25 245V327.69h-63V256h63v-54.64c0-62.15 37-96.48 93.67-96.48 27.14 0 55.52 4.84 55.52 4.84v61h-31.28c-30.8 0-40.41 19.12-40.41 38.73V256h68.78l-11 71.69h-57.78V501C413.31 482.38 504 379.78 504 256z"></path>
  </symbol>
  <symbol xmlns="http://www.w3.org/2000/svg" viewBox="0 0 320 512" id="facebook">
    <path fill="currentColor" d="M279.14 288l14.22-92.66h-88.91v-60.13c0-25.35 12.42-50.06 52.24-50.06h40.42V6.26S260.43 0 225.36 0c-73.22 0-121.08 44.38-121.08 124.72v70.62H22.89V288h81.39v224h100.17V288z"></path>
  </symbol>
	<symbol xmlns="http://www.w3.org/2000/svg" id="square-facebook" viewBox="0 0 448 512">
		<path fill="currentColor" d="M64 32C28.7 32 0 60.7 0 96V416c0 35.3 28.7 64 64 64h98.2V334.2H109.4V256h52.8V222.3c0-87.1 39.4-127.5 125-127.5c16.2 0 44.2 3.2 55.7 6.4V172c-6-.6-16.5-1-29.6-1c-42 0-58.2 15.9-58.2 57.2V256h83.6l-14.4 78.2H255V480H384c35.3 0 64-28.7 64-64V96c0-35.3-28.7-64-64-64H64z"/>
	</symbol>
  <symbol xmlns="http://www.w3.org/2000/svg" viewBox="0 0 448 512" id="instagram">
    <path fill="currentColor" d="M224.1 141c-63.6 0-114.9 51.3-114.9 114.9s51.3 114.9 114.9 114.9S339 319.5 339 255.9 287.7 141 224.1 141zm0 189.6c-41.1 0-74.7-33.5-74.7-74.7s33.5-74.7 74.7-74.7 74.7 33.5 74.7 74.7-33.6 74.7-74.7 74.7zm146.4-194.3c0 14.9-12 26.8-26.8 26.8-14.9 0-26.8-12-26.8-26.8s12-26.8 26.8-26.8 26.8 12 26.8 26.8zm76.1 27.2c-1.7-35.9-9.9-67.7-36.2-93.9-26.2-26.2-58-34.4-93.9-36.2-37-2.1-147.9-2.1-184.9 0-35.8 1.7-67.6 9.9-93.9 36.1s-34.4 58-36.2 93.9c-2.1 37-2.1 147.9 0 184.9 1.7 35.9 9.9 67.7 36.2 93.9s58 34.4 93.9 36.2c37 2.1 147.9 2.1 184.9 0 35.9-1.7 67.7-9.9 93.9-36.2 26.2-26.2 34.4-58 36.2-93.9 2.1-37 2.1-147.8 0-184.8zM398.8 388c-7.8 19.6-22.9 34.7-42.6 42.6-29.5 11.7-99.5 9-132.1 9s-102.7 2.6-132.1-9c-19.6-7.8-34.7-22.9-42.6-42.6-11.7-29.5-9-99.5-9-132.1s-2.6-102.7 9-132.1c7.8-19.6 22.9-34.7 42.6-42.6 29.5-11.7 99.5-9 132.1-9s102.7-2.6 132.1 9c19.6 7.8 34.7 22.9 42.6 42.6 11.7 29.5 9 99.5 9 132.1s2.7 102.7-9 132.1z"></path>
  </symbol>
	<symbol xmlns="http://www.w3.org/2000/svg" id="square-instagram" viewBox="0 0 448 512">
		<path fill="currentColor" d="M194.4 211.7a53.3 53.3 0 1 0 59.3 88.7 53.3 53.3 0 1 0 -59.3-88.7zm142.3-68.4c-5.2-5.2-11.5-9.3-18.4-12c-18.1-7.1-57.6-6.8-83.1-6.5c-4.1 0-7.9 .1-11.2 .1c-3.3 0-7.2 0-11.4-.1c-25.5-.3-64.8-.7-82.9 6.5c-6.9 2.7-13.1 6.8-18.4 12s-9.3 11.5-12 18.4c-7.1 18.1-6.7 57.7-6.5 83.2c0 4.1 .1 7.9 .1 11.1s0 7-.1 11.1c-.2 25.5-.6 65.1 6.5 83.2c2.7 6.9 6.8 13.1 12 18.4s11.5 9.3 18.4 12c18.1 7.1 57.6 6.8 83.1 6.5c4.1 0 7.9-.1 11.2-.1c3.3 0 7.2 0 11.4 .1c25.5 .3 64.8 .7 82.9-6.5c6.9-2.7 13.1-6.8 18.4-12s9.3-11.5 12-18.4c7.2-18 6.8-57.4 6.5-83c0-4.2-.1-8.1-.1-11.4s0-7.1 .1-11.4c.3-25.5 .7-64.9-6.5-83l0 0c-2.7-6.9-6.8-13.1-12-18.4zm-67.1 44.5A82 82 0 1 1 178.4 324.2a82 82 0 1 1 91.1-136.4zm29.2-1.3c-3.1-2.1-5.6-5.1-7.1-8.6s-1.8-7.3-1.1-11.1s2.6-7.1 5.2-9.8s6.1-4.5 9.8-5.2s7.6-.4 11.1 1.1s6.5 3.9 8.6 7s3.2 6.8 3.2 10.6c0 2.5-.5 5-1.4 7.3s-2.4 4.4-4.1 6.2s-3.9 3.2-6.2 4.2s-4.8 1.5-7.3 1.5l0 0c-3.8 0-7.5-1.1-10.6-3.2zM448 96c0-35.3-28.7-64-64-64H64C28.7 32 0 60.7 0 96V416c0 35.3 28.7 64 64 64H384c35.3 0 64-28.7 64-64V96zM357 389c-18.7 18.7-41.4 24.6-67 25.9c-26.4 1.5-105.6 1.5-132 0c-25.6-1.3-48.3-7.2-67-25.9s-24.6-41.4-25.8-67c-1.5-26.4-1.5-105.6 0-132c1.3-25.6 7.1-48.3 25.8-67s41.5-24.6 67-25.8c26.4-1.5 105.6-1.5 132 0c25.6 1.3 48.3 7.1 67 25.8s24.6 41.4 25.8 67c1.5 26.3 1.5 105.4 0 131.9c-1.3 25.6-7.1 48.3-25.8 67z"/>
	</symbol>
  <symbol xmlns="http://www.w3.org/2000/svg" viewBox="0 0 512 512" id="twitch">
    <path fill="currentColor" d="M391.17,103.47H352.54v109.7h38.63ZM285,103H246.37V212.75H285ZM120.83,0,24.31,91.42V420.58H140.14V512l96.53-91.42h77.25L487.69,256V0ZM449.07,237.75l-77.22,73.12H294.61l-67.6,64v-64H140.14V36.58H449.07Z"></path>
  </symbol>
  <symbol xmlns="http://www.w3.org/2000/svg" viewBox="0 0 1200 1227" id="twitter">
    <path fill="currentColor" d="M714.163 519.284L1160.89 0H1055.03L667.137 450.887L357.328 0H0L468.492 681.821L0 1226.37H105.866L515.491 750.218L842.672 1226.37H1200L714.137 519.284H714.163ZM569.165 687.828L521.697 619.934L144.011 79.6944H306.615L611.412 515.685L658.88 583.579L1055.08 1150.3H892.476L569.165 687.854V687.828Z"></path>
  </symbol>
	<symbol xmlns="http://www.w3.org/2000/svg" id="square-twitter" viewBox="0 0 448 512">
		<path fill="currentColor" d="M64 32C28.7 32 0 60.7 0 96V416c0 35.3 28.7 64 64 64H384c35.3 0 64-28.7 64-64V96c0-35.3-28.7-64-64-64H64zm297.1 84L257.3 234.6 379.4 396H283.8L209 298.1 123.3 396H75.8l111-126.9L69.7 116h98l67.7 89.5L313.6 116h47.5zM323.3 367.6L153.4 142.9H125.1L296.9 367.6h26.3z"/>
	</symbol>
  <symbol xmlns="http://www.w3.org/2000/svg" viewBox="0 0 576 512" id="youtube">
    <path fill="currentColor" d="M549.655 124.083c-6.281-23.65-24.787-42.276-48.284-48.597C458.781 64 288 64 288 64S117.22 64 74.629 75.486c-23.497 6.322-42.003 24.947-48.284 48.597-11.412 42.867-11.412 132.305-11.412 132.305s0 89.438 11.412 132.305c6.281 23.65 24.787 41.5 48.284 47.821C117.22 448 288 448 288 448s170.78 0 213.371-11.486c23.497-6.321 42.003-24.171 48.284-47.821 11.412-42.867 11.412-132.305 11.412-132.305s0-89.438-11.412-132.305zm-317.51 213.508V175.185l142.739 81.205-142.739 81.201z"></path>
  </symbol>
  <symbol xmlns="http://www.w3.org/2000/svg" viewBox="0 0 448 512" id="square-linkedin">
	  <path fill="currentColor" d="M416 32H31.9C14.3 32 0 46.5 0 64.3v383.4C0 465.5 14.3 480 31.9 480H416c17.6 0 32-14.5 32-32.3V64.3c0-17.8-14.4-32.3-32-32.3zM135.4 416H69V202.2h66.5V416zm-33.2-243c-21.3 0-38.5-17.3-38.5-38.5S80.9 96 102.2 96c21.2 0 38.5 17.3 38.5 38.5 0 21.3-17.2 38.5-38.5 38.5zm282.1 243h-66.4V312c0-24.8-.5-56.7-34.5-56.7-34.6 0-39.9 27-39.9 54.9V416h-66.4V202.2h63.7v29.2h.9c8.9-16.8 30.6-34.5 62.9-34.5 67.2 0 79.7 44.3 79.7 101.9V416z"></path>
  </symbol>
   <symbol xmlns="http://www.w3.org/2000/svg" viewBox="0 0 448 512" id="linkedin">
    <path fill="currentColor" d="M100.28 448H7.4V148.9h92.88zM53.79 108.1C24.09 108.1 0 83.5 0 53.8a53.79 53.79 0 0 1 107.58 0c0 29.7-24.1 54.3-53.79 54.3zM447.9 448h-92.68V302.4c0-34.7-.7-79.2-48.29-79.2-48.29 0-55.69 37.7-55.69 76.7V448h-92.78V148.9h89.08v40.8h1.3c12.4-23.5 42.69-48.3 87.88-48.3 94 0 111.28 61.9 111.28 142.3V448z"></path>
  </symbol>
  <symbol xmlns="http://www.w3.org/2000/svg" viewBox="0 0 448 512" id="whatsapp">
    <path fill="currentColor" d="M380.9 97.1C339 55.1 283.2 32 223.9 32c-122.4 0-222 99.6-222 222 0 39.1 10.2 77.3 29.6 111L0 480l117.7-30.9c32.4 17.7 68.9 27 106.1 27h.1c122.3 0 224.1-99.6 224.1-222 0-59.3-25.2-115-67.1-157zm-157 341.6c-33.2 0-65.7-8.9-94-25.7l-6.7-4-69.8 18.3L72 359.2l-4.4-7c-18.5-29.4-28.2-63.3-28.2-98.2 0-101.7 82.8-184.5 184.6-184.5 49.3 0 95.6 19.2 130.4 54.1 34.8 34.9 56.2 81.2 56.1 130.5 0 101.8-84.9 184.6-186.6 184.6zm101.2-138.2c-5.5-2.8-32.8-16.2-37.9-18-5.1-1.9-8.8-2.8-12.5 2.8-3.7 5.6-14.3 18-17.6 21.8-3.2 3.7-6.5 4.2-12 1.4-32.6-16.3-54-29.1-75.5-66-5.7-9.8 5.7-9.1 16.3-30.3 1.8-3.7.9-6.9-.5-9.7-1.4-2.8-12.5-30.1-17.1-41.2-4.5-10.8-9.1-9.3-12.5-9.5-3.2-.2-6.9-.2-10.6-.2-3.7 0-9.7 1.4-14.8 6.9-5.1 5.6-19.4 19-19.4 46.3 0 27.3 19.9 53.7 22.6 57.4 2.8 3.7 39.1 59.7 94.8 83.8 35.2 15.2 49 16.5 66.6 13.9 10.7-1.6 32.8-13.4 37.4-26.4 4.6-13 4.6-24.1 3.2-26.4-1.3-2.5-5-3.9-10.5-6.6z"></path>
  </symbol>
  <symbol xmlns="http://www.w3.org/2000/svg" viewBox="0 0 512 512" id="envelope">
    <path fill="currentColor" d="M0 128C0 92.65 28.65 64 64 64H448C483.3 64 512 92.65 512 128V384C512 419.3 483.3 448 448 448H64C28.65 448 0 419.3 0 384V128zM48 128V150.1L220.5 291.7C241.1 308.7 270.9 308.7 291.5 291.7L464 150.1V127.1C464 119.2 456.8 111.1 448 111.1H64C55.16 111.1 48 119.2 48 127.1L48 128zM48 212.2V384C48 392.8 55.16 400 64 400H448C456.8 400 464 392.8 464 384V212.2L322 328.8C283.6 360.3 228.4 360.3 189.1 328.8L48 212.2z"></path>
  </symbol>
  <symbol xmlns="http://www.w3.org/2000/svg" viewBox="0 0 48 48" id="search">
        <path fill="currentColor" d="M39.8 41.95 26.65 28.8q-1.5 1.3-3.5 2.025-2 .725-4.25.725-5.4 0-9.15-3.75T6 18.75q0-5.3 3.75-9.05 3.75-3.75 9.1-3.75 5.3 0 9.025 3.75 3.725 3.75 3.725 9.05 0 2.15-.7 4.15-.7 2-2.1 3.75L42 39.75Zm-20.95-13.4q4.05 0 6.9-2.875Q28.6 22.8 28.6 18.75t-2.85-6.925Q22.9 8.95 18.85 8.95q-4.1 0-6.975 2.875T9 18.75q0 4.05 2.875 6.925t6.975 2.875Z"></path>
    </symbol>
	<symbol xmlns="http://www.w3.org/2000/svg" viewBox="0 0 512 512" id="triangle-exclamation">
        <path fill="currentColor" d="M256 32c14.2 0 27.3 7.5 34.5 19.8l216 368c7.3 12.4 7.3 27.7 .2 40.1S486.3 480 472 480H40c-14.3 0-27.6-7.7-34.7-20.1s-7-27.8 .2-40.1l216-368C228.7 39.5 241.8 32 256 32zm0 128c-13.3 0-24 10.7-24 24V296c0 13.3 10.7 24 24 24s24-10.7 24-24V184c0-13.3-10.7-24-24-24zm32 224c0-17.7-14.3-32-32-32s-32 14.3-32 32s14.3 32 32 32s32-14.3 32-32z"></path>
    </symbol>
	<symbol xmlns="http://www.w3.org/2000/svg" viewBox="0 0 32 32" id="info-circle">
		<path fill="currentColor" d="M 16 3 C 8.832031 3 3 8.832031 3 16 C 3 23.167969 8.832031 29 16 29 C 23.167969 29 29 23.167969 29 16 C 29 8.832031 23.167969 3 16 3 Z M 16 5 C 22.085938 5 27 9.914063 27 16 C 27 22.085938 22.085938 27 16 27 C 9.914063 27 5 22.085938 5 16 C 5 9.914063 9.914063 5 16 5 Z M 15 10 L 15 12 L 17 12 L 17 10 Z M 15 14 L 15 22 L 17 22 L 17 14 Z"></path>
	</symbol>
    <symbol xmlns="http://www.w3.org/2000/svg" viewBox="0 0 448 512" id="trash-can">
        <path fill="currentColor" d="M135.2 17.7C140.6 6.8 151.7 0 163.8 0H284.2c12.1 0 23.2 6.8 28.6 17.7L320 32h96c17.7 0 32 14.3 32 32s-14.3 32-32 32H32C14.3 96 0 81.7 0 64S14.3 32 32 32h96l7.2-14.3zM32 128H416V448c0 35.3-28.7 64-64 64H96c-35.3 0-64-28.7-64-64V128zm96 64c-8.8 0-16 7.2-16 16V432c0 8.8 7.2 16 16 16s16-7.2 16-16V208c0-8.8-7.2-16-16-16zm96 0c-8.8 0-16 7.2-16 16V432c0 8.8 7.2 16 16 16s16-7.2 16-16V208c0-8.8-7.2-16-16-16zm96 0c-8.8 0-16 7.2-16 16V432c0 8.8 7.2 16 16 16s16-7.2 16-16V208c0-8.8-7.2-16-16-16z"></path>
    </symbol>
    <symbol xmlns="http://www.w3.org/2000/svg" viewBox="0 0 320 512" id="angle-left">
        <path fill="currentColor" d="M41.4 233.4c-12.5 12.5-12.5 32.8 0 45.3l160 160c12.5 12.5 32.8 12.5 45.3 0s12.5-32.8 0-45.3L109.3 256 246.6 118.6c12.5-12.5 12.5-32.8 0-45.3s-32.8-12.5-45.3 0l-160 160z"></path>
    </symbol>
    <symbol xmlns="http://www.w3.org/2000/svg" viewBox="0 0 448 512" id="angle-up">
        <path fill="currentColor" d="M201.4 137.4c12.5-12.5 32.8-12.5 45.3 0l160 160c12.5 12.5 12.5 32.8 0 45.3s-32.8 12.5-45.3 0L224 205.3 86.6 342.6c-12.5 12.5-32.8 12.5-45.3 0s-12.5-32.8 0-45.3l160-160z"></path>
    </symbol>
    <symbol xmlns="http://www.w3.org/2000/svg" viewBox="0 0 320 512" id="angle-right">
        <path fill="currentColor" d="M278.6 233.4c12.5 12.5 12.5 32.8 0 45.3l-160 160c-12.5 12.5-32.8 12.5-45.3 0s-12.5-32.8 0-45.3L210.7 256 73.4 118.6c-12.5-12.5-12.5-32.8 0-45.3s32.8-12.5 45.3 0l160 160z"></path>
    </symbol>
    <symbol xmlns="http://www.w3.org/2000/svg" viewBox="0 0 448 512" id="angle-down">
        <path fill="currentColor" d="M201.4 374.6c12.5 12.5 32.8 12.5 45.3 0l160-160c12.5-12.5 12.5-32.8 0-45.3s-32.8-12.5-45.3 0L224 306.7 86.6 169.4c-12.5-12.5-32.8-12.5-45.3 0s-12.5 32.8 0 45.3l160 160z"></path>
    </symbol>

  <symbol xmlns="http://www.w3.org/2000/svg" xml:space="preserve" viewBox="124.023 46.588 286.402 548.938" id="angle-right-thin">
    <path fill="currentColor" d="M407.441 330.007c3.979-5.967 3.979-11.934 0-17.9L144.907 49.571c-5.967-3.978-11.934-3.978-17.9 0-3.978 5.967-3.978 11.934 0 17.9l255.077 253.585-255.078 253.586c-3.978 5.967-3.978 11.934 0 17.9 5.967 3.978 11.934 3.978 17.9 0l262.535-262.535z"></path>
  </symbol>
  <symbol xmlns="http://www.w3.org/2000/svg" xml:space="preserve" viewBox="124.023 46.588 286.402 548.938" id="angle-left-thin">
    <path fill="currentColor" d="M127.007 312.106c-3.979 5.967-3.979 11.934 0 17.9l262.534 262.535c5.967 3.978 11.934 3.978 17.9 0 3.978-5.967 3.978-11.934 0-17.9L152.365 321.057 407.442 67.472c3.978-5.967 3.978-11.934 0-17.9-5.967-3.978-11.934-3.978-17.9 0L127.007 312.106z"></path>
  </symbol>
  <symbol xmlns="http://www.w3.org/2000/svg" xml:space="preserve" viewBox="-7.243 177.854 548.938 286.402" id="angle-down-thin">
    <path fill="currentColor" d="M258.276 461.272c5.967 3.979 11.934 3.979 17.9 0l262.535-262.535c3.978-5.967 3.978-11.934 0-17.9-5.967-3.978-11.934-3.978-17.9 0L267.226 435.915 13.641 180.837c-5.967-3.978-11.934-3.978-17.9 0-3.978 5.967-3.978 11.934 0 17.9l262.535 262.535z"></path>
  </symbol>
  <symbol xmlns="http://www.w3.org/2000/svg" xml:space="preserve" viewBox="-7.243 177.854 548.938 286.402" id="angle-up-thin">
    <path fill="currentColor" d="M276.176 180.839c-5.967-3.979-11.934-3.979-17.9 0L-4.259 443.374c-3.978 5.967-3.978 11.934 0 17.9 5.967 3.978 11.934 3.978 17.9 0l253.585-255.078 253.585 255.077c5.967 3.979 11.934 3.979 17.9 0 3.978-5.967 3.978-11.934 0-17.9L276.176 180.839z"></path>
  </symbol>
  <symbol xmlns="http://www.w3.org/2000/svg" viewBox="0 0 512 512" id="circle-xmark">
        <path fill="currentColor" d="M256 512c141.4 0 256-114.6 256-256S397.4 0 256 0S0 114.6 0 256S114.6 512 256 512zM175 175c9.4-9.4 24.6-9.4 33.9 0l47 47 47-47c9.4-9.4 24.6-9.4 33.9 0s9.4 24.6 0 33.9l-47 47 47 47c9.4 9.4 9.4 24.6 0 33.9s-24.6 9.4-33.9 0l-47-47-47 47c-9.4 9.4-24.6 9.4-33.9 0s-9.4-24.6 0-33.9l47-47-47-47c-9.4-9.4-9.4-24.6 0-33.9z"></path>
    </symbol>
    <symbol xmlns="http://www.w3.org/2000/svg" viewBox="0 0 512 512" id="circle-xmark2">
        <path fill="currentColor" d="M175 175C184.4 165.7 199.6 165.7 208.1 175L255.1 222.1L303 175C312.4 165.7 327.6 165.7 336.1 175C346.3 184.4 346.3 199.6 336.1 208.1L289.9 255.1L336.1 303C346.3 312.4 346.3 327.6 336.1 336.1C327.6 346.3 312.4 346.3 303 336.1L255.1 289.9L208.1 336.1C199.6 346.3 184.4 346.3 175 336.1C165.7 327.6 165.7 312.4 175 303L222.1 255.1L175 208.1C165.7 199.6 165.7 184.4 175 175V175zM512 256C512 397.4 397.4 512 256 512C114.6 512 0 397.4 0 256C0 114.6 114.6 0 256 0C397.4 0 512 114.6 512 256zM256 48C141.1 48 48 141.1 48 256C48 370.9 141.1 464 256 464C370.9 464 464 370.9 464 256C464 141.1 370.9 48 256 48z"></path>
    </symbol>
    <symbol xmlns="http://www.w3.org/2000/svg" viewBox="0 0 512 512" id="circle-check">
        <path fill="currentColor" d="M243.8 339.8C232.9 350.7 215.1 350.7 204.2 339.8L140.2 275.8C129.3 264.9 129.3 247.1 140.2 236.2C151.1 225.3 168.9 225.3 179.8 236.2L224 280.4L332.2 172.2C343.1 161.3 360.9 161.3 371.8 172.2C382.7 183.1 382.7 200.9 371.8 211.8L243.8 339.8zM512 256C512 397.4 397.4 512 256 512C114.6 512 0 397.4 0 256C0 114.6 114.6 0 256 0C397.4 0 512 114.6 512 256zM256 48C141.1 48 48 141.1 48 256C48 370.9 141.1 464 256 464C370.9 464 464 370.9 464 256C464 141.1 370.9 48 256 48z"></path>
    </symbol>
    <symbol xmlns="http://www.w3.org/2000/svg" viewBox="0 0 512 512" id="pen-to-square">
        <path fill="currentColor" d="M471.6 21.7c-21.9-21.9-57.3-21.9-79.2 0L362.3 51.7l97.9 97.9 30.1-30.1c21.9-21.9 21.9-57.3 0-79.2L471.6 21.7zm-299.2 220c-6.1 6.1-10.8 13.6-13.5 21.9l-29.6 88.8c-2.9 8.6-.6 18.1 5.8 24.6s15.9 8.7 24.6 5.8l88.8-29.6c8.2-2.8 15.7-7.4 21.9-13.5L437.7 172.3 339.7 74.3 172.4 241.7zM96 64C43 64 0 107 0 160V416c0 53 43 96 96 96H352c53 0 96-43 96-96V320c0-17.7-14.3-32-32-32s-32 14.3-32 32v96c0 17.7-14.3 32-32 32H96c-17.7 0-32-14.3-32-32V160c0-17.7 14.3-32 32-32h96c17.7 0 32-14.3 32-32s-14.3-32-32-32H96z"></path>
    </symbol>
    <symbol xmlns="http://www.w3.org/2000/svg" viewBox="0 0 512 512" id="phone-flip">
        <path fill="currentColor" d="M347.1 24.6c7.7-18.6 28-28.5 47.4-23.2l88 24C499.9 30.2 512 46 512 64c0 247.4-200.6 448-448 448c-18 0-33.8-12.1-38.6-29.5l-24-88c-5.3-19.4 4.6-39.7 23.2-47.4l96-40c16.3-6.8 35.2-2.1 46.3 11.6L207.3 368c70.4-33.3 127.4-90.3 160.7-160.7L318.7 167c-13.7-11.2-18.4-30-11.6-46.3l40-96z"></path>
    </symbol>
	<symbol xmlns="http://www.w3.org/2000/svg" viewBox="0 0 576 512" id="home">
        <path fill="currentColor" d="M575.8 255.5c0 18-15 32.1-32 32.1h-32l.7 160.2c0 2.7-.2 5.4-.5 8.1V472c0 22.1-17.9 40-40 40H456c-1.1 0-2.2 0-3.3-.1c-1.4 .1-2.8 .1-4.2 .1H416 392c-22.1 0-40-17.9-40-40V448 384c0-17.7-14.3-32-32-32H256c-17.7 0-32 14.3-32 32v64 24c0 22.1-17.9 40-40 40H160 128.1c-1.5 0-3-.1-4.5-.2c-1.2 .1-2.4 .2-3.6 .2H104c-22.1 0-40-17.9-40-40V360c0-.9 0-1.9 .1-2.8V287.6H32c-18 0-32-14-32-32.1c0-9 3-17 10-24L266.4 8c7-7 15-8 22-8s15 2 21 7L564.8 231.5c8 7 12 15 11 24z"></path>
    </symbol>
    <symbol xmlns="http://www.w3.org/2000/svg" viewBox="0 0 32 32" id="plus">
      <path fill="currentColor" d="M 15 5 L 15 15 L 5 15 L 5 17 L 15 17 L 15 27 L 17 27 L 17 17 L 27 17 L 27 15 L 17 15 L 17 5 Z"></path>
    </symbol>
    <symbol xmlns="http://www.w3.org/2000/svg" viewBox="0 0 32 32" id="minus">
      <path fill="currentColor" d="M 5 15 L 5 17 L 27 17 L 27 15 Z"></path>
    </symbol>
	<symbol xmlns="http://www.w3.org/2000/svg" viewBox="0 0 32 32" id="map-marker-solid">
    <path fill="currentColor" d="M 16 3 C 11.042969 3 7 7.042969 7 12 C 7 13.40625 7.570313 15.019531 8.34375 16.78125 C 9.117188 18.542969 10.113281 20.414063 11.125 22.15625 C 13.148438 25.644531 15.1875 28.5625 15.1875 28.5625 L 16 29.75 L 16.8125 28.5625 C 16.8125 28.5625 18.851563 25.644531 20.875 22.15625 C 21.886719 20.414063 22.882813 18.542969 23.65625 16.78125 C 24.429688 15.019531 25 13.40625 25 12 C 25 7.042969 20.957031 3 16 3 Z M 16 5 C 19.878906 5 23 8.121094 23 12 C 23 12.800781 22.570313 14.316406 21.84375 15.96875 C 21.117188 17.621094 20.113281 19.453125 19.125 21.15625 C 17.554688 23.867188 16.578125 25.300781 16 26.15625 C 15.421875 25.300781 14.445313 23.867188 12.875 21.15625 C 11.886719 19.453125 10.882813 17.621094 10.15625 15.96875 C 9.429688 14.316406 9 12.800781 9 12 C 9 8.121094 12.121094 5 16 5 Z M 16 10 C 14.894531 10 14 10.894531 14 12 C 14 13.105469 14.894531 14 16 14 C 17.105469 14 18 13.105469 18 12 C 18 10.894531 17.105469 10 16 10 Z"></path>
  </symbol>
	<symbol xmlns="http://www.w3.org/2000/svg" id="certificate" viewBox="0 0 512 512">
		<path fill="currentColor" d="M211 7.3C205 1 196-1.4 187.6 .8s-14.9 8.9-17.1 17.3L154.7 80.6l-62-17.5c-8.4-2.4-17.4 0-23.5 6.1s-8.5 15.1-6.1 23.5l17.5 62L18.1 170.6c-8.4 2.1-15 8.7-17.3 17.1S1 205 7.3 211l46.2 45L7.3 301C1 307-1.4 316 .8 324.4s8.9 14.9 17.3 17.1l62.5 15.8-17.5 62c-2.4 8.4 0 17.4 6.1 23.5s15.1 8.5 23.5 6.1l62-17.5 15.8 62.5c2.1 8.4 8.7 15 17.1 17.3s17.3-.2 23.4-6.4l45-46.2 45 46.2c6.1 6.2 15 8.7 23.4 6.4s14.9-8.9 17.1-17.3l15.8-62.5 62 17.5c8.4 2.4 17.4 0 23.5-6.1s8.5-15.1 6.1-23.5l-17.5-62 62.5-15.8c8.4-2.1 15-8.7 17.3-17.1s-.2-17.4-6.4-23.4l-46.2-45 46.2-45c6.2-6.1 8.7-15 6.4-23.4s-8.9-14.9-17.3-17.1l-62.5-15.8 17.5-62c2.4-8.4 0-17.4-6.1-23.5s-15.1-8.5-23.5-6.1l-62 17.5L341.4 18.1c-2.1-8.4-8.7-15-17.1-17.3S307 1 301 7.3L256 53.5 211 7.3z"/>
	</symbol>
</svg>