<svg width="174" height="28" viewBox="0 0 174 28" fill="none" xmlns="http://www.w3.org/2000/svg">
<path d="M103.316 4.76562V12.1673H104.397L108.635 6.84074V12.1673H109.874V4.76562H108.793L104.566 10.0832V4.76562H103.316Z" fill="#006DF0"/>
<path d="M97.1049 8.2684L94.477 4.76631H93.3433V12.168H94.5826V6.85037L97.1158 10.2182L99.6272 6.86111V12.168H100.877V4.76631H99.7437L97.1049 8.2684Z" fill="#006DF0"/>
<path fill-rule="evenodd" clip-rule="evenodd" d="M114.702 9.60338H113.547V12.1673H112.307V4.76562H114.702C116.249 4.76562 117.308 5.8184 117.308 7.1845C117.308 8.55061 116.249 9.60338 114.702 9.60338ZM114.691 5.91329H113.547V8.4575H114.691C115.581 8.4575 116.091 7.90426 116.091 7.18629C116.091 6.46475 115.581 5.91329 114.691 5.91329Z" fill="#006DF0"/>
<path d="M93.3433 15.1822V22.5839H94.4243L98.6627 17.2573V22.5839H99.902V15.1822H98.821L94.5935 20.4998V15.1822H93.3433Z" fill="#006DF0"/>
<path d="M102.335 15.1822H103.574V18.2474H107.294V15.1822H108.533V22.5839H107.294V19.4041H103.574V22.5839H102.335V15.1822Z" fill="#006DF0"/>
<path fill-rule="evenodd" clip-rule="evenodd" d="M113.57 15.1822H110.975V22.5839H113.899C115.33 22.5839 116.325 21.635 116.325 20.4157C116.325 19.499 115.805 18.935 115.117 18.6539C115.53 18.3513 115.815 17.8929 115.815 17.2251C115.815 16.1097 114.916 15.1822 113.57 15.1822ZM114.598 17.2985C114.598 17.8715 114.185 18.2994 113.506 18.2994H112.214V16.2977H113.506C114.185 16.2977 114.598 16.756 114.598 17.2985ZM115.117 20.4049C115.117 21.0298 114.673 21.4684 113.866 21.4684H112.214V19.3414H113.866C114.671 19.3414 115.117 19.789 115.117 20.4049Z" fill="#006DF0"/>
<path d="M118.293 15.1822H122.817V16.3496H119.532V18.2474H122.182V19.4148H119.532V21.4165H122.817V22.5839H118.293V15.1822Z" fill="#006DF0"/>
<path d="M128.134 15.0571C125.888 15.0571 124.214 16.7151 124.214 18.8833C124.214 21.0515 125.888 22.7095 128.134 22.7095C129.945 22.7095 131.386 21.551 131.757 20.1026H130.421C130.103 20.9477 129.191 21.5313 128.132 21.5313C126.565 21.5313 125.462 20.3747 125.462 18.8833C125.462 17.3919 126.563 16.2352 128.132 16.2352C129.193 16.2352 130.103 16.8189 130.421 17.664H131.757C131.388 16.2138 129.946 15.0571 128.134 15.0571Z" fill="#006DF0"/>
<path d="M135.125 16.3496H132.941V15.1822H138.558V16.3496H136.365V22.5839H135.125V16.3496Z" fill="#006DF0"/>
<path d="M140.319 15.1822V22.5839H141.4L145.639 17.2573V22.5839H146.878V15.1822H145.797L141.57 20.4998V15.1822H140.319Z" fill="#006DF0"/>
<path d="M156.135 21.4165V24.1272H154.991V22.5839H149.311V15.1822H150.561V21.4165H153.932V15.1822H155.182V21.4165H156.135Z" fill="#006DF0"/>
<path d="M158.014 15.1822V22.5839H159.095L163.333 17.2573V22.5839H164.573V15.1822H163.492L159.264 20.4998V15.1822H158.014Z" fill="#006DF0"/>
<path d="M167.007 22.5838V15.1822H168.257V20.4998L172.485 15.1822H173.566V22.5838H172.326V17.2573L168.088 22.5838H167.007Z" fill="#006DF0"/>
<path d="M168.628 12.9817H169.444C169.444 13.6066 169.804 13.9933 170.386 13.9933C170.969 13.9933 171.329 13.6084 171.329 12.9817H172.144C172.144 14.0453 171.36 14.7131 170.385 14.7131C169.413 14.7131 168.628 14.0453 168.628 12.9817Z" fill="#006DF0"/>
<path d="M72.1515 20.4922C72.9919 21.3362 73.9849 22.0001 75.1305 22.4866C76.276 22.9731 77.55 23.2284 78.923 23.2337C79.9401 23.2337 80.9331 23.0806 81.8752 22.7473C82.8174 22.4382 83.6819 22.0054 84.4714 21.4168C85.2369 20.8551 85.898 20.1643 86.4574 19.3714C87.0168 18.5812 87.4236 17.7104 87.6779 16.7401H83.6819C83.5052 17.1997 83.2509 17.6083 82.919 17.9657C82.5872 18.3232 82.2071 18.6296 81.7735 18.8608C81.3399 19.1161 80.909 19.3204 80.4246 19.4494C79.9401 19.5757 79.4316 19.6537 78.923 19.6537C78.0585 19.6537 77.269 19.5005 76.5811 19.1941C75.8665 18.9145 75.2562 18.506 74.7477 17.9684C74.2391 17.4309 73.8591 16.818 73.5781 16.1273C73.2997 15.4392 73.1712 14.6705 73.1712 13.8534C73.1712 13.0364 73.2971 12.2704 73.5781 11.5796C73.8564 10.8888 74.2391 10.276 74.7477 9.73845C75.2589 9.2009 75.8692 8.79238 76.5811 8.48598C77.269 8.20376 78.0585 8.05053 78.923 8.05053C79.4316 8.05053 79.9401 8.12579 80.4246 8.2548C80.909 8.38112 81.3399 8.58542 81.7735 8.81657C82.2071 9.0719 82.5872 9.37829 82.919 9.73576C83.2482 10.0932 83.5025 10.5018 83.6819 10.9614H87.6779C87.4236 9.99112 87.0168 9.09612 86.4574 8.30323C85.898 7.51033 85.2342 6.84643 84.4714 6.2578C83.6819 5.69337 82.8174 5.26065 81.8752 4.92737C80.9331 4.62097 79.9401 4.46777 78.923 4.46777C77.5473 4.46777 76.276 4.69621 75.1305 5.1827C73.9849 5.66918 72.9919 6.33304 72.1515 7.177C71.3111 8.02096 70.65 9.01816 70.1655 10.1685C69.6838 11.3189 69.4536 12.5445 69.4536 13.8481C69.4536 15.1516 69.6811 16.3772 70.1655 17.5276C70.65 18.678 71.3111 19.6483 72.1515 20.4922Z" fill="#006DF0"/>
<path fill-rule="evenodd" clip-rule="evenodd" d="M48.7571 13.1347C48.2228 12.6472 47.5628 12.2647 46.8254 11.9819C46.0639 11.7018 45.2517 11.5725 44.362 11.5698H39.1973V8.29202H48.9602V4.7583H35.4888V22.9439H44.362C45.249 22.9439 46.0639 22.7904 46.8254 22.5076C47.5628 22.2275 48.2228 21.8423 48.7571 21.3305C49.2915 20.843 49.7217 20.229 50.053 19.5368C50.3576 18.8473 50.5099 18.1039 50.5099 17.2582C50.5099 16.4125 50.3576 15.6449 50.053 14.9527C49.7217 14.2605 49.2915 13.6464 48.7571 13.1347ZM44.3112 14.9796C45.0994 14.9796 45.7327 15.1843 46.2163 15.5695C46.6999 15.9519 46.927 16.5149 46.927 17.2582C46.927 18.0016 46.6999 18.5375 46.2163 18.9227C45.7327 19.3078 45.0994 19.5125 44.3112 19.5125H39.1973V14.9796H44.3112Z" fill="#006DF0"/>
<path d="M57.432 22.9439H53.8794V4.7583H57.432V12.4667L63.7507 4.7583H68.1674L60.9605 13.4928L69.6708 22.9439H65.0321L57.432 14.6968V22.9439Z" fill="#006DF0"/>
<path d="M14.0166 28C21.7577 28 28.0331 21.732 28.0331 14C28.0331 6.26801 21.7577 0 14.0166 0C6.27543 0 0 6.26801 0 14C0 21.732 6.27543 28 14.0166 28Z" fill="url(#paint0_linear_1_5)"/>
<path d="M14.0166 28C21.7577 28 28.0331 21.732 28.0331 14C28.0331 6.26801 21.7577 0 14.0166 0C6.27543 0 0 6.26801 0 14C0 21.732 6.27543 28 14.0166 28Z" fill="url(#paint1_linear_1_5)"/>
<path d="M6.35864 2.39061C1.69864 6.62449 2.20436 14.2528 7.48961 19.4272C12.773 24.6015 20.8333 25.3656 25.4951 21.1299C26.0233 20.65 26.4851 20.1266 26.8812 19.5682C27.6226 17.8617 28.0336 15.9788 28.0336 14C28.0336 6.26801 21.7582 0 14.0171 0C11.4116 0 8.9721 0.710072 6.88208 1.94704C6.70327 2.08826 6.52869 2.23611 6.35864 2.39061Z" fill="url(#paint2_radial_1_5)"/>
<path d="M7.30992 2.38977C5.10432 5.74493 7.67291 10.959 13.0478 14.0325C18.4226 17.1079 24.5659 16.8797 26.7733 13.5227C27.3967 12.5747 27.6392 11.4786 27.5452 10.3244C25.9289 4.37543 20.4843 0 14.0166 0C12.0634 0 10.2035 0.399043 8.51421 1.11996C8.03846 1.47616 7.63213 1.89962 7.30992 2.38977Z" fill="url(#paint3_linear_1_5)"/>
<defs>
<linearGradient id="paint0_linear_1_5" x1="13.6662" y1="27.65" x2="13.8713" y2="1.60188" gradientUnits="userSpaceOnUse">
<stop stop-color="#1E66E6"/>
<stop offset="0.479167" stop-color="#8CB4F2"/>
<stop offset="1" stop-color="#F1F7FE"/>
</linearGradient>
<linearGradient id="paint1_linear_1_5" x1="25.9306" y1="20.3" x2="11.226" y2="9.08324" gradientUnits="userSpaceOnUse">
<stop stop-color="#4D87EA"/>
<stop offset="1" stop-color="#7EAAF0" stop-opacity="0"/>
</linearGradient>
<radialGradient id="paint2_radial_1_5" cx="0" cy="0" r="1" gradientUnits="userSpaceOnUse" gradientTransform="translate(30.6187 17.2935) rotate(-152.981) scale(33.3634 68.7427)">
<stop offset="0.103242" stop-color="#4382EF"/>
<stop offset="0.459935" stop-color="#7EAAF0"/>
<stop offset="0.630708" stop-color="#B2CDF6"/>
<stop offset="0.794216" stop-color="#F0F6FD"/>
</radialGradient>
<linearGradient id="paint3_linear_1_5" x1="26.2542" y1="4.89294" x2="6.30845" y2="7.70652" gradientUnits="userSpaceOnUse">
<stop stop-color="#9CBFF4"/>
<stop offset="0.476252" stop-color="#CCE0FD"/>
<stop offset="0.770833" stop-color="#E9F2FE"/>
<stop offset="1" stop-color="#F1F7FE"/>
</linearGradient>
</defs>
</svg>
