<svg width="32" height="32" viewBox="0 0 32 32" fill="none" xmlns="http://www.w3.org/2000/svg">
<rect width="32" height="32" rx="16" fill="#17181E"/>
<path d="M17.008 25H9.5V7H16.7061C20.2083 7 22.2489 8.97187 22.2489 12.0563C22.2489 14.0529 20.9383 15.3432 20.0312 15.7728C21.114 16.2782 22.5 17.4155 22.5 19.8184C22.5 23.1796 20.2083 25 17.008 25ZM16.4289 10.1354H13.0022V14.2815H16.4289C17.9151 14.2815 18.7467 13.4471 18.7467 12.2078C18.7467 10.9698 17.9151 10.1354 16.4289 10.1354ZM16.6553 17.4417H13.0022V21.8659H16.6553C18.2431 21.8659 18.9978 20.8553 18.9978 19.6408C18.9978 18.4276 18.2417 17.4417 16.6553 17.4417Z" fill="url(#paint0_linear_1_1585)"/>
<defs>
<linearGradient id="paint0_linear_1_1585" x1="9.26867" y1="17.281" x2="22.0147" y2="16.0047" gradientUnits="userSpaceOnUse">
<stop stop-color="#FFAA00"/>
<stop offset="1" stop-color="#FFC54E"/>
</linearGradient>
</defs>
</svg>
