<svg width="17" height="16" viewBox="0 0 17 16" fill="none" xmlns="http://www.w3.org/2000/svg">
<path d="M16 8C16 8.64 15.2137 9.1675 15.0562 9.7575C14.8937 10.3675 15.305 11.2175 14.9963 11.7513C14.6825 12.2938 13.7387 12.3588 13.2987 12.7987C12.8588 13.2387 12.7938 14.1825 12.2513 14.4963C11.7175 14.805 10.8675 14.3937 10.2575 14.5562C9.6675 14.7137 9.14 15.5 8.5 15.5C7.86 15.5 7.3325 14.7137 6.7425 14.5562C6.1325 14.3937 5.2825 14.805 4.74875 14.4963C4.20625 14.1825 4.14125 13.2387 3.70125 12.7987C3.26125 12.3588 2.3175 12.2938 2.00375 11.7513C1.695 11.2175 2.10625 10.3675 1.94375 9.7575C1.78625 9.1675 1 8.64 1 8C1 7.36 1.78625 6.8325 1.94375 6.2425C2.10625 5.6325 1.695 4.7825 2.00375 4.24875C2.3175 3.70625 3.26125 3.64125 3.70125 3.20125C4.14125 2.76125 4.20625 1.8175 4.74875 1.50375C5.2825 1.195 6.1325 1.60625 6.7425 1.44375C7.3325 1.28625 7.86 0.5 8.5 0.5C9.14 0.5 9.6675 1.28625 10.2575 1.44375C10.8675 1.60625 11.7175 1.195 12.2513 1.50375C12.7938 1.8175 12.8588 2.76125 13.2987 3.20125C13.7387 3.64125 14.6825 3.70625 14.9963 4.24875C15.305 4.7825 14.8937 5.6325 15.0562 6.2425C15.2137 6.8325 16 7.36 16 8Z" fill="#504137"/>
<path d="M10.6675 5.765L7.81251 8.62L6.33251 7.14125C6.01126 6.82 5.49001 6.82 5.16876 7.14125C4.84751 7.4625 4.84751 7.98375 5.16876 8.305L7.24501 10.3813C7.55751 10.6938 8.06501 10.6938 8.37751 10.3813L11.83 6.92875C12.1513 6.6075 12.1513 6.08625 11.83 5.765C11.5088 5.44375 10.9888 5.44375 10.6675 5.765Z" fill="white"/>
</svg>
