<svg width="175" height="29" viewBox="0 0 175 29" fill="none" xmlns="http://www.w3.org/2000/svg">
<g clip-path="url(#clip0_1_660)">
<path d="M103.816 5.26562V12.6673H104.897L109.135 7.34074V12.6673H110.374V5.26562H109.293L105.066 10.5832V5.26562H103.816Z" fill="white"/>
<path d="M97.6049 8.7684L94.977 5.26631H93.8433V12.668H95.0826V7.35037L97.6158 10.7182L100.127 7.36111V12.668H101.377V5.26631H100.244L97.6049 8.7684Z" fill="white"/>
<path fill-rule="evenodd" clip-rule="evenodd" d="M115.202 10.1034H114.047V12.6673H112.807V5.26562H115.202C116.749 5.26562 117.808 6.3184 117.808 7.6845C117.808 9.05061 116.749 10.1034 115.202 10.1034ZM115.191 6.41329H114.047V8.9575H115.191C116.081 8.9575 116.591 8.40426 116.591 7.68629C116.591 6.96475 116.081 6.41329 115.191 6.41329Z" fill="white"/>
<path d="M93.8433 15.6822V23.0839H94.9243L99.1627 17.7573V23.0839H100.402V15.6822H99.321L95.0935 20.9998V15.6822H93.8433Z" fill="white"/>
<path d="M102.835 15.6822H104.074V18.7474H107.794V15.6822H109.033V23.0839H107.794V19.9041H104.074V23.0839H102.835V15.6822Z" fill="white"/>
<path fill-rule="evenodd" clip-rule="evenodd" d="M114.07 15.6822H111.475V23.0839H114.399C115.83 23.0839 116.825 22.135 116.825 20.9157C116.825 19.999 116.305 19.435 115.617 19.1539C116.03 18.8513 116.315 18.3929 116.315 17.7251C116.315 16.6097 115.416 15.6822 114.07 15.6822ZM115.098 17.7985C115.098 18.3715 114.685 18.7994 114.006 18.7994H112.714V16.7977H114.006C114.685 16.7977 115.098 17.256 115.098 17.7985ZM115.617 20.9049C115.617 21.5298 115.173 21.9684 114.366 21.9684H112.714V19.8414H114.366C115.171 19.8414 115.617 20.289 115.617 20.9049Z" fill="white"/>
<path d="M118.793 15.6822H123.317V16.8496H120.032V18.7474H122.682V19.9148H120.032V21.9165H123.317V23.0839H118.793V15.6822Z" fill="white"/>
<path d="M128.634 15.5571C126.388 15.5571 124.714 17.2151 124.714 19.3833C124.714 21.5515 126.388 23.2095 128.634 23.2095C130.445 23.2095 131.886 22.051 132.257 20.6026H130.921C130.603 21.4477 129.691 22.0313 128.632 22.0313C127.065 22.0313 125.962 20.8747 125.962 19.3833C125.962 17.8919 127.063 16.7352 128.632 16.7352C129.693 16.7352 130.603 17.3189 130.921 18.164H132.257C131.888 16.7138 130.446 15.5571 128.634 15.5571Z" fill="white"/>
<path d="M135.625 16.8496H133.441V15.6822H139.058V16.8496H136.865V23.0839H135.625V16.8496Z" fill="white"/>
<path d="M140.819 15.6822V23.0839H141.9L146.139 17.7573V23.0839H147.378V15.6822H146.297L142.07 20.9998V15.6822H140.819Z" fill="white"/>
<path d="M156.635 21.9165V24.6272H155.491V23.0839H149.811V15.6822H151.061V21.9165H154.432V15.6822H155.682V21.9165H156.635Z" fill="white"/>
<path d="M158.514 15.6822V23.0839H159.595L163.833 17.7573V23.0839H165.073V15.6822H163.992L159.764 20.9998V15.6822H158.514Z" fill="white"/>
<path d="M167.507 23.0838V15.6822H168.757V20.9998L172.985 15.6822H174.066V23.0838H172.826V17.7573L168.588 23.0838H167.507Z" fill="white"/>
<path d="M169.128 13.4817H169.944C169.944 14.1066 170.304 14.4933 170.886 14.4933C171.469 14.4933 171.829 14.1084 171.829 13.4817H172.644C172.644 14.5453 171.86 15.2131 170.885 15.2131C169.913 15.2131 169.128 14.5453 169.128 13.4817Z" fill="white"/>
<path d="M72.6515 20.9922C73.4919 21.8362 74.4849 22.5001 75.6305 22.9866C76.776 23.4731 78.05 23.7284 79.423 23.7337C80.4401 23.7337 81.4331 23.5806 82.3752 23.2473C83.3174 22.9382 84.1819 22.5054 84.9714 21.9168C85.7369 21.3551 86.398 20.6643 86.9574 19.8714C87.5168 19.0812 87.9236 18.2104 88.1779 17.2401H84.1819C84.0052 17.6997 83.7509 18.1083 83.419 18.4657C83.0872 18.8232 82.7071 19.1296 82.2735 19.3608C81.8399 19.6161 81.409 19.8204 80.9246 19.9494C80.4401 20.0757 79.9316 20.1537 79.423 20.1537C78.5585 20.1537 77.769 20.0005 77.0811 19.6941C76.3665 19.4145 75.7562 19.006 75.2477 18.4684C74.7391 17.9309 74.3591 17.318 74.0781 16.6273C73.7997 15.9392 73.6712 15.1705 73.6712 14.3534C73.6712 13.5364 73.7971 12.7704 74.0781 12.0796C74.3564 11.3888 74.7391 10.776 75.2477 10.2384C75.7589 9.7009 76.3692 9.29238 77.0811 8.98598C77.769 8.70376 78.5585 8.55053 79.423 8.55053C79.9316 8.55053 80.4401 8.62579 80.9246 8.7548C81.409 8.88112 81.8399 9.08542 82.2735 9.31657C82.7071 9.5719 83.0872 9.87829 83.419 10.2358C83.7482 10.5932 84.0025 11.0018 84.1819 11.4614H88.1779C87.9236 10.4911 87.5168 9.59612 86.9574 8.80323C86.398 8.01033 85.7342 7.34643 84.9714 6.7578C84.1819 6.19337 83.3174 5.76065 82.3752 5.42737C81.4331 5.12097 80.4401 4.96777 79.423 4.96777C78.0473 4.96777 76.776 5.19621 75.6305 5.6827C74.4849 6.16918 73.4919 6.83304 72.6515 7.677C71.8111 8.52096 71.15 9.51816 70.6655 10.6685C70.1838 11.8189 69.9536 13.0445 69.9536 14.3481C69.9536 15.6516 70.1811 16.8772 70.6655 18.0276C71.15 19.178 71.8111 20.1483 72.6515 20.9922Z" fill="white"/>
<path fill-rule="evenodd" clip-rule="evenodd" d="M49.2571 13.6347C48.7228 13.1472 48.0628 12.7647 47.3254 12.4819C46.5639 12.2018 45.7517 12.0725 44.862 12.0698H39.6973V8.79202H49.4602V5.2583H35.9888V23.4439H44.862C45.749 23.4439 46.5639 23.2904 47.3254 23.0076C48.0628 22.7275 48.7228 22.3423 49.2571 21.8305C49.7915 21.343 50.2217 20.729 50.553 20.0368C50.8576 19.3473 51.0099 18.6039 51.0099 17.7582C51.0099 16.9125 50.8576 16.1449 50.553 15.4527C50.2217 14.7605 49.7915 14.1464 49.2571 13.6347ZM44.8112 15.4796C45.5994 15.4796 46.2327 15.6843 46.7163 16.0695C47.1999 16.4519 47.427 17.0149 47.427 17.7582C47.427 18.5016 47.1999 19.0375 46.7163 19.4227C46.2327 19.8078 45.5994 20.0125 44.8112 20.0125H39.6973V15.4796H44.8112Z" fill="white"/>
<path d="M57.932 23.4439H54.3794V5.2583H57.932V12.9667L64.2507 5.2583H68.6674L61.4605 13.9928L70.1708 23.4439H65.5321L57.932 15.1968V23.4439Z" fill="white"/>
<path d="M14.5166 28.5C22.2577 28.5 28.5331 22.232 28.5331 14.5C28.5331 6.76801 22.2577 0.5 14.5166 0.5C6.77543 0.5 0.5 6.76801 0.5 14.5C0.5 22.232 6.77543 28.5 14.5166 28.5Z" fill="url(#paint0_linear_1_660)"/>
<path d="M14.5166 28.5C22.2577 28.5 28.5331 22.232 28.5331 14.5C28.5331 6.76801 22.2577 0.5 14.5166 0.5C6.77543 0.5 0.5 6.76801 0.5 14.5C0.5 22.232 6.77543 28.5 14.5166 28.5Z" fill="url(#paint1_linear_1_660)"/>
<path d="M6.85864 2.89061C2.19864 7.12449 2.70436 14.7528 7.98961 19.9272C13.273 25.1015 21.3333 25.8656 25.9951 21.6299C26.5233 21.15 26.9851 20.6266 27.3812 20.0682C28.1226 18.3617 28.5336 16.4788 28.5336 14.5C28.5336 6.76801 22.2582 0.5 14.5171 0.5C11.9116 0.5 9.4721 1.21007 7.38208 2.44704C7.20327 2.58826 7.02869 2.73611 6.85864 2.89061Z" fill="url(#paint2_radial_1_660)"/>
<path d="M7.80992 2.88977C5.60432 6.24493 8.17291 11.459 13.5478 14.5325C18.9226 17.6079 25.0659 17.3797 27.2733 14.0227C27.8967 13.0747 28.1392 11.9786 28.0452 10.8244C26.4289 4.87543 20.9843 0.5 14.5166 0.5C12.5634 0.5 10.7035 0.899043 9.01421 1.61996C8.53846 1.97616 8.13213 2.39962 7.80992 2.88977Z" fill="url(#paint3_linear_1_660)"/>
</g>
<defs>
<linearGradient id="paint0_linear_1_660" x1="14.1662" y1="28.15" x2="14.3713" y2="2.10188" gradientUnits="userSpaceOnUse">
<stop stop-color="#1E66E6"/>
<stop offset="0.479167" stop-color="#8CB4F2"/>
<stop offset="1" stop-color="#F1F7FE"/>
</linearGradient>
<linearGradient id="paint1_linear_1_660" x1="26.4306" y1="20.8" x2="11.726" y2="9.58324" gradientUnits="userSpaceOnUse">
<stop stop-color="#4D87EA"/>
<stop offset="1" stop-color="#7EAAF0" stop-opacity="0"/>
</linearGradient>
<radialGradient id="paint2_radial_1_660" cx="0" cy="0" r="1" gradientUnits="userSpaceOnUse" gradientTransform="translate(31.1187 17.7935) rotate(-152.981) scale(33.3634 68.7427)">
<stop offset="0.103242" stop-color="#4382EF"/>
<stop offset="0.459935" stop-color="#7EAAF0"/>
<stop offset="0.630708" stop-color="#B2CDF6"/>
<stop offset="0.794216" stop-color="#F0F6FD"/>
</radialGradient>
<linearGradient id="paint3_linear_1_660" x1="26.7542" y1="5.39294" x2="6.80845" y2="8.20652" gradientUnits="userSpaceOnUse">
<stop stop-color="#9CBFF4"/>
<stop offset="0.476252" stop-color="#CCE0FD"/>
<stop offset="0.770833" stop-color="#E9F2FE"/>
<stop offset="1" stop-color="#F1F7FE"/>
</linearGradient>
<clipPath id="clip0_1_660">
<rect width="174" height="28" fill="white" transform="translate(0.5 0.5)"/>
</clipPath>
</defs>
</svg>
