<svg width="241" height="296" viewBox="0 0 241 296" fill="none" xmlns="http://www.w3.org/2000/svg">
<path fill-rule="evenodd" clip-rule="evenodd" d="M157 67.1603C153.874 64.4314 149.377 64.4939 146.797 65.2861C148.487 63.2211 152.425 61.5268 153.583 61.3216C154.466 61.6511 157 64.2426 157 67.1603ZM166.984 55.8605C164.927 44.9108 139.365 52.1671 126.491 47.5161C126.245 50.7083 130.454 55.8227 134.481 57.7147C127.598 63.6619 121.419 75.6433 120.171 90.2809C118.928 75.6433 112.748 63.6619 105.865 57.7154C109.892 55.8234 114.105 50.709 113.855 47.5174C100.982 52.1685 75.4185 44.9129 73.3585 55.8625C72.9254 58.1808 74.0454 61.7115 75.255 62.7275C75.4716 61.993 76.6019 59.5902 80.1654 59.052C98.175 56.3431 113.212 83.9733 99.6384 95.1447C99.4315 95.3164 99.5488 95.6287 99.8281 95.6287H140.522C140.798 95.6287 140.915 95.3157 140.711 95.1454C127.134 83.9747 142.171 56.3445 160.181 59.0534C163.747 59.5916 164.874 61.9937 165.091 62.7282C166.301 61.7122 167.42 58.1788 166.984 55.8605ZM171.365 30.7312C171.04 29.6966 181.601 29.6705 181.601 36.2506C181.601 40.6593 175.284 42.7476 175.284 47.3239C175.284 49.4547 177.587 51.0172 178.294 51.0172C176.667 43.6717 183.394 47.5161 185.211 48.8891C181.601 39.0103 189.727 39.0721 188.927 34.5426C188.371 31.3778 181.307 32.3334 178.751 30.7312C174.214 27.889 168.847 16.8275 165.311 27.889C171.904 33.9817 168.067 42.9508 159.697 42.9508C159.697 42.9508 159.651 44.2655 159.727 44.3698C169.711 43.8838 173.191 36.5794 171.365 30.7312ZM54.8909 48.8891C56.7074 47.5161 63.4343 43.6717 61.8109 51.0172C62.5143 51.0172 64.8178 49.4547 64.8178 47.3239C64.8178 42.7476 58.5005 40.6593 58.5005 36.2506C58.5005 29.6705 69.0605 29.6966 68.7371 30.7312C66.9136 36.5801 70.3936 43.8845 80.3771 44.3698C80.4509 44.2655 80.4047 42.9502 80.4047 42.9502C72.0378 42.9502 68.2012 33.9817 74.7909 27.8884C71.2543 16.8275 65.8874 27.8884 61.3509 30.7305C58.7943 32.3334 51.7302 31.3772 51.1744 34.5426C50.3778 39.0735 58.5005 39.0103 54.8909 48.8891ZM83.2378 67.1603C86.3674 64.4314 90.8653 64.4939 93.4412 65.2861C91.7584 63.2211 87.8136 61.5268 86.6578 61.3216C85.775 61.6511 83.2378 64.2426 83.2378 67.1603ZM124.92 5.91076L120.052 0L115.181 5.91076L120.05 12.1304L124.92 5.91076ZM152.72 23.7824L149.258 19.5824L145.798 23.7824L149.258 27.8877L152.72 23.7824ZM180.81 145.198L176.421 140.574L172.031 145.197L176.421 149.255L180.81 145.198ZM94.3067 23.7824L90.8447 19.5824L87.3847 23.7824L90.8453 27.8877L94.3067 23.7824ZM84.3874 44.3705H97.3046C108.165 44.3705 113.051 37.7348 114.527 31.9806H125.578C127.055 37.7348 131.938 44.3698 142.802 44.3698H155.719C155.719 44.3698 157.978 41.3184 158.545 39.8074C160.585 34.3703 157.978 31.8337 154.175 31.8337L149.258 36.2698L144.342 31.835C140.538 31.835 137.931 34.3703 139.971 39.8081C140.232 40.5028 140.856 41.5243 141.446 42.4222C136.863 41.7955 131.012 38.6719 129.729 31.9806C129.729 31.9806 133.115 26.6259 133.966 24.4586C137.019 16.6648 133.119 13.4794 127.416 13.4794L120.052 22.095L112.689 13.4794C106.985 13.4794 103.086 16.6648 106.143 24.4586C106.989 26.6259 110.379 31.9813 110.379 31.9813C109.093 38.6719 103.243 41.7955 98.6598 42.4229C99.2529 41.5236 99.8736 40.5028 100.133 39.8074C102.169 34.3703 99.5695 31.8344 95.7633 31.8344L90.846 36.2705L85.9288 31.8357C82.1233 31.8357 79.5233 34.371 81.5598 39.8087C82.1267 41.319 84.3874 44.3705 84.3874 44.3705ZM217.931 84.226C215.438 85.4822 200.811 92.3026 182.074 89.7797C182.268 88.8902 182.433 87.9945 182.568 87.0941C195.038 85.6092 205.175 83.5038 211.635 79.9271C218.998 75.8472 222.218 66.1079 218.502 58.8632C218.405 58.6806 218.138 58.6477 218.005 58.8014C215.968 61.1355 203.162 75.0028 182.985 79.314C182.933 78.2734 182.838 77.2354 182.698 76.2028C192.498 70.671 202.065 64.2969 206.622 58.4685C213.508 49.6566 212.875 38.4158 206.322 32.6849C206.288 32.6561 206.249 32.6348 206.206 32.6224C206.164 32.6099 206.119 32.6067 206.075 32.6129C206.031 32.619 205.989 32.6345 205.951 32.6582C205.914 32.6818 205.882 32.7132 205.858 32.7502C203.785 36.1552 184.378 67.3772 163.071 80.8573C162.812 81.0227 162.549 81.1848 162.285 81.3433C161.674 81.7127 161.607 82.5035 162.127 82.9724C164.585 85.1884 166.111 88.2722 166.111 91.6964C166.111 97.6505 161.501 102.601 155.407 103.676C152.311 104.273 147.842 104.099 143.547 102.686C143.354 102.624 143.154 102.751 143.154 102.944V121.798C143.154 122.102 143.618 122.177 143.727 121.887C146.338 115.003 154.151 113.541 157.568 113.541C158.798 120.897 160.994 126.991 163.847 130.271C168.494 135.6 176.082 135.525 179.371 131.841C179.398 131.811 179.418 131.775 179.428 131.736C179.439 131.697 179.441 131.657 179.434 131.617C179.427 131.578 179.411 131.54 179.387 131.508C179.364 131.475 179.333 131.448 179.298 131.429C177.365 130.324 166.305 123.564 164.091 112.487C164.96 112.193 165.809 111.846 166.634 111.446C170.205 117.327 175.401 122.565 179.585 124.566C186.612 127.921 193.045 126.289 195.898 121.377C196.002 121.204 195.875 120.989 195.665 120.969C191.318 120.624 177.978 116.818 172.298 107.546C172.955 106.952 173.583 106.327 174.178 105.672C180.123 110.177 188.526 114.159 194.542 114.972C201.582 115.924 209.559 113.688 209.752 105.539C209.756 105.376 209.609 105.242 209.435 105.252C206.931 105.403 190.362 106.12 178.556 99.3743C178.966 98.598 179.348 97.8076 179.702 97.0045C179.702 97.0045 197.542 101.202 205.996 99.8122C214.396 98.4324 219.316 92.199 218.366 84.4436C218.338 84.2514 218.111 84.1347 217.931 84.226ZM60.4012 97.0017C60.7563 97.8051 61.1397 98.5958 61.5509 99.3722C49.7475 106.115 33.1854 105.403 30.6709 105.25C30.4944 105.24 30.3468 105.38 30.3509 105.54C30.5475 113.686 38.5213 115.922 45.5613 114.969C51.575 114.157 59.9819 110.175 65.9247 105.671C66.5212 106.325 67.1486 106.95 67.8047 107.545C62.1219 116.816 48.784 120.623 44.4378 120.968C44.2275 120.989 44.1047 121.204 44.2047 121.377C47.0578 126.288 53.4909 127.92 60.5219 124.565C64.7012 122.564 69.8978 117.326 73.4667 111.445C74.2927 111.844 75.1426 112.192 76.0116 112.486C73.7978 123.563 62.7378 130.322 60.8047 131.429C60.7694 131.448 60.7389 131.475 60.7154 131.508C60.692 131.541 60.6761 131.578 60.6691 131.617C60.662 131.657 60.6639 131.697 60.6746 131.736C60.6853 131.775 60.7045 131.811 60.7309 131.841C64.0205 135.525 71.6109 135.599 76.2578 130.27C79.1109 126.99 81.3047 120.897 82.5336 113.54C85.9543 113.54 93.7646 115.002 96.375 121.886C96.4874 122.176 96.9509 122.101 96.9509 121.797V102.943C96.9509 102.751 96.7474 102.623 96.5543 102.685C92.2612 104.099 87.7909 104.271 84.6978 103.674C78.6012 102.601 73.9909 97.6498 73.9909 91.6964C73.9909 88.2736 75.5219 85.1864 77.9743 82.971C78.4985 82.5042 78.4274 81.7134 77.8212 81.344C77.5548 81.1855 77.2904 81.0237 77.0281 80.8587C55.7343 67.3861 36.3385 36.1854 34.2475 32.7584C34.2229 32.7205 34.1905 32.6883 34.1524 32.6639C34.1143 32.6395 34.0714 32.6235 34.0266 32.617C33.9818 32.6105 33.9361 32.6136 33.8926 32.6262C33.8491 32.6387 33.8088 32.6604 33.7744 32.6897C27.2309 38.4241 26.5951 49.66 33.4813 58.4699C38.0385 64.2982 47.6054 70.6724 57.4019 76.2042C57.2639 77.2364 57.1695 78.2739 57.1192 79.314C36.9585 75.007 24.162 61.163 22.1054 58.8124C21.9675 58.6518 21.6951 58.684 21.602 58.8673C17.8916 66.1168 21.1123 75.8479 28.4682 79.9278C34.9289 83.5044 45.0661 85.6099 57.5357 87.0948C57.6704 87.9952 57.8349 88.8909 58.0288 89.7804C39.3116 92.2999 24.6923 85.4953 22.1792 84.2294C21.993 84.1347 21.7668 84.252 21.7433 84.4477C20.7965 92.2024 25.713 98.4296 34.113 99.8102C42.5633 101.2 60.4012 97.0017 60.4012 97.0017ZM176.422 155.21L169.921 150.119C167.327 151.657 165.42 154.098 164.68 156.96C160.769 157.504 150.11 155.148 151.147 153.584C162.829 137.227 153.894 127.488 143.154 128.03V139.014C143.154 142.543 140.06 145.402 136.25 145.402H128.834C123.514 145.402 120.05 150.725 120.05 150.725C120.05 150.725 116.587 145.401 111.267 145.401H103.851C100.037 145.401 96.9509 142.542 96.9509 139.014V128.03C86.2109 127.488 77.2681 137.226 88.9543 153.584C89.9819 155.131 79.0247 157.608 73.8854 156.982C72.5309 155.584 70.5778 154.703 68.3909 154.703C67.461 154.703 66.5386 154.868 65.6667 155.19C65.6667 155.19 45.4709 136.156 45.1013 135.969L45.2668 135.585C46.4185 133.443 44.6578 131.109 43.5447 131.274C44.8378 129.729 44.8978 122.971 37.724 121.407C37.9344 122.765 38.0413 125.535 38.0413 125.535C38.0413 125.535 32.5047 122.556 29.724 125.128C27.2813 128.006 30.6709 133.228 30.6709 133.228C30.6709 133.228 27.8378 133.297 26.4413 133.179C28.4944 140.092 35.3813 139.602 36.8709 138.238C36.7744 139.337 39.264 140.904 41.3744 139.648L42.3013 139.202C42.4647 139.419 62.1343 157.918 62.1343 157.918C61.2309 159.253 60.8012 160.891 61.0978 162.637C61.5647 165.366 63.8474 167.628 66.7647 168.216C68.8247 168.628 70.7612 168.229 72.3143 167.325L77.5212 172.135C77.9833 172.554 78.6109 172.815 79.3102 172.765C80.584 172.68 81.5378 171.653 81.4412 170.474C81.3998 169.942 81.1267 169.486 80.7502 169.139C80.6674 169.048 75.4467 164.224 75.4467 164.224C79.7536 161.219 87.7778 159.101 94.4371 159.101C95.6067 159.101 96.1571 158.115 95.7543 157.149C92.7371 149.927 99.2233 144.695 105.934 148.954C108.86 150.811 111.834 154.469 114.074 160.573C103.065 163.226 89.2412 170.537 86.4447 178.517C85.3674 181.598 88.9247 185.798 93.2446 186.643C93.2825 186.651 93.3216 186.652 93.3597 186.645C93.3978 186.638 93.4341 186.624 93.4666 186.603C93.4991 186.582 93.5272 186.555 93.5491 186.523C93.571 186.491 93.5864 186.455 93.5943 186.418C95.8508 174.505 108.721 165.628 115.418 164.12C115.754 165.017 115.644 164.727 115.98 165.621C108.687 169.055 101.614 176.296 99.5943 184.906C98.6667 188.849 103.084 192.403 106.73 193.375C106.914 193.423 107.094 193.297 107.104 193.121C107.797 182.233 112.627 172.986 116.954 168.78C117.072 169.603 117.161 170.429 117.22 171.258C117.22 171.258 112.79 183.545 112.79 192.51C112.79 196.681 119.018 199.593 119.937 200C121.087 199.593 127.309 196.681 127.309 192.51C127.309 183.545 122.88 171.258 122.88 171.258C122.941 170.429 123.031 169.602 123.151 168.779C127.475 172.988 132.307 182.23 132.998 193.118C133.002 193.161 133.015 193.202 133.037 193.239C133.059 193.276 133.088 193.308 133.124 193.333C133.159 193.357 133.2 193.374 133.242 193.381C133.285 193.388 133.328 193.386 133.37 193.375C137.021 192.403 141.434 188.849 140.511 184.906C138.487 176.297 131.418 169.055 124.125 165.621C124.458 164.727 124.347 165.017 124.685 164.119C131.385 165.627 144.25 174.504 146.507 186.417C146.524 186.493 146.57 186.559 146.636 186.601C146.701 186.643 146.781 186.658 146.857 186.641C151.174 185.797 154.737 181.596 153.654 178.515C150.864 170.535 137.037 163.225 126.026 160.572C128.27 154.469 131.244 150.81 134.171 148.953C140.877 144.694 147.364 149.925 144.347 157.148C143.944 158.114 144.49 159.1 145.664 159.1C153.197 159.1 162.478 161.808 166.15 165.441C168.497 168.946 172.833 171.188 177.727 170.708C183.287 170.166 187.82 166.009 188.447 160.868C188.993 156.365 186.654 152.321 182.924 150.118L176.422 155.21ZM128.512 122.401C130.827 121.545 134.458 122.237 134.334 125.566C134.305 126.321 135.367 126.321 135.445 125.55C136.138 120.566 132.755 119.131 129.214 119.715C128.774 118.001 128.414 116.503 128.005 115.019C127.678 113.818 127.558 111.562 128.954 111.562C129.707 111.562 129.405 113.66 129.334 114.564C129.272 115.357 129.558 115.837 130.205 115.859C130.607 115.876 131.111 115.364 131.412 115.024C133.438 112.742 133.908 109.211 131.534 107.508C129.548 106.078 124.574 107.142 123.207 109.179C123 108.411 122.014 107.145 121.541 106.593C121.081 106.055 120.962 105.686 121.598 105.214C121.898 104.984 122.805 104.086 122.805 103.16C122.805 102.612 122.377 101.6 121.021 101.6C119.951 101.6 118.761 102.337 118.761 103.982C118.761 104.348 118.851 104.739 119.087 105.161C118.412 105.05 116.574 105.095 115.631 105.327L128.674 140.956C132.408 139.122 135.145 136.217 135.145 133.1C135.145 130.443 131.214 131.325 129.305 133.397C128.692 130.029 128.145 126.918 127.548 123.818C127.385 122.962 127.822 122.658 128.512 122.401ZM110.067 98.1969L112.808 105.776C110.462 106.332 106.688 108.034 106.688 110.29C106.688 113.292 112.026 115.247 115.112 115.013C114.958 115.698 115.135 116.308 115.615 116.866C114.495 116.866 112.382 117.385 111.688 118.129C110.052 116.612 107.492 116.06 106.274 116.983C105.052 117.914 105.015 119.49 106.292 121.272C107.181 122.506 107.515 123.723 106.515 125.152C110.234 125.152 108.865 120.339 110.322 120.339C110.131 121.272 110.247 122.352 110.671 123.55C110.951 124.346 110.951 124.912 110.471 125.678C109.271 127.588 107.405 131.973 107.657 135.94C106.438 135.933 105.818 135.637 106.247 133.978C106.407 133.361 106.025 132.921 105.518 133.681C104.958 134.52 104.687 135.954 104.687 136.566C104.687 140.097 108.915 140.809 110.527 140.062C115.194 144.558 124.362 143.358 127.431 141.85L111.291 97.7678C110.961 96.9351 109.778 97.3319 110.067 98.1969ZM109.509 134.509C109.175 132.695 111.712 129.451 114.938 126.321C114.252 128.361 114.678 131.876 116.025 133.087C113.685 133.087 110.905 133.524 109.509 134.509Z" fill="url(#paint0_linear_0_598)"/>
<path d="M0 254.56V220.96H30.72V254.56H21.84V229.12H8.88V254.56H0Z" fill="white"/>
<path d="M33.6895 254.56L42.8095 220.96H59.1295L68.2495 254.56H59.1295L57.4495 247.84H44.4895L42.8095 254.56H33.6895ZM46.4095 240.16H55.5295L52.6495 229.12H49.2895L46.4095 240.16Z" fill="white"/>
<path d="M66.6665 229.12V220.96H96.6665V229.12H86.1065V254.56H77.2265V229.12H66.6665Z" fill="white"/>
<path d="M100.116 254.56V220.96H116.436C120.564 220.96 123.908 222.144 126.468 224.512C129.06 226.848 130.356 229.744 130.356 233.2C130.356 236.656 129.06 239.568 126.468 241.936C123.908 244.272 120.564 245.44 116.436 245.44H108.996V254.56H100.116ZM108.996 237.28H116.196C117.86 237.28 119.108 236.912 119.94 236.176C120.804 235.44 121.236 234.448 121.236 233.2C121.236 231.952 120.804 230.96 119.94 230.224C119.108 229.488 117.86 229.12 116.196 229.12H108.996V237.28Z" fill="white"/>
<path d="M134.769 254.56V220.96H143.649V237.52L142.929 241.84H143.409L155.649 220.96H165.969V254.56H157.089V238L157.809 233.68H157.329L145.089 254.56H134.769Z" fill="white"/>
<path d="M175.934 250.336C172.414 246.848 170.654 242.656 170.654 237.76C170.654 232.864 172.414 228.688 175.934 225.232C179.486 221.744 183.966 220 189.374 220C194.782 220 199.246 221.744 202.766 225.232C206.318 228.688 208.094 232.864 208.094 237.76C208.094 242.656 206.318 246.848 202.766 250.336C199.246 253.792 194.782 255.52 189.374 255.52C183.966 255.52 179.486 253.792 175.934 250.336ZM182.606 230.8C180.878 232.56 180.014 234.88 180.014 237.76C180.014 240.64 180.878 242.96 182.606 244.72C184.334 246.48 186.59 247.36 189.374 247.36C192.158 247.36 194.414 246.48 196.142 244.72C197.87 242.96 198.734 240.64 198.734 237.76C198.734 234.88 197.87 232.56 196.142 230.8C194.414 229.04 192.158 228.16 189.374 228.16C186.59 228.16 184.334 229.04 182.606 230.8Z" fill="white"/>
<path d="M210.108 229.12V220.96H240.108V229.12H229.548V254.56H220.668V229.12H210.108Z" fill="white"/>
<path d="M40.0537 292.362V275.988H42.1741V289.438L42.1505 289.672H42.1976L50.5377 275.988H53.3648V292.362H51.2445V278.912L51.268 278.678H51.2209L42.8809 292.362H40.0537Z" fill="#D2D2D2"/>
<path d="M56.9098 292.362V275.988H59.0301V283.122H67.8649V275.988H69.9853V292.362H67.8649V285.111H59.0301V292.362H56.9098Z" fill="#D2D2D2"/>
<path d="M73.5357 292.362V275.988H81.4282C82.8732 275.988 84.0354 276.393 84.915 277.204C85.8103 278 86.2579 278.998 86.2579 280.198C86.2579 281.352 85.8652 282.288 85.0799 283.005C84.7187 283.317 84.326 283.551 83.9019 283.707V283.824C84.4517 283.933 84.9621 284.152 85.4333 284.479C86.4542 285.212 86.9647 286.28 86.9647 287.684C86.9647 289.072 86.4699 290.202 85.4804 291.076C84.4909 291.933 83.1009 292.362 81.3104 292.362H73.5357ZM75.6561 282.888H81.3104C82.1899 282.888 82.881 282.662 83.3836 282.21C83.8862 281.742 84.1375 281.15 84.1375 280.432C84.1375 279.715 83.8862 279.13 83.3836 278.678C82.881 278.21 82.1899 277.976 81.3104 277.976H75.6561V282.888ZM75.6561 290.374H81.3104C82.4412 290.374 83.3129 290.124 83.9255 289.625C84.538 289.126 84.8443 288.479 84.8443 287.684C84.8443 286.826 84.538 286.148 83.9255 285.649C83.3287 285.134 82.457 284.877 81.3104 284.877H75.6561V290.374Z" fill="#D2D2D2"/>
<path d="M89.8166 292.362V275.988H101.361V277.976H91.937V283.122H99.5938V285.111H91.937V290.374H101.361V292.362H89.8166Z" fill="#D2D2D2"/>
<path d="M105.583 290.397C103.965 288.76 103.156 286.686 103.156 284.175C103.156 281.664 103.965 279.598 105.583 277.976C107.216 276.339 109.274 275.52 111.755 275.52C114.535 275.52 116.727 276.518 118.329 278.514C119.035 279.372 119.554 280.362 119.883 281.485H117.763C117.433 280.705 117.017 280.042 116.514 279.497C115.274 278.171 113.687 277.508 111.755 277.508C109.855 277.508 108.3 278.124 107.091 279.356C105.881 280.588 105.277 282.194 105.277 284.175C105.277 286.155 105.881 287.762 107.091 288.994C108.3 290.226 109.855 290.842 111.755 290.842C113.719 290.842 115.344 290.124 116.632 288.69C117.151 288.097 117.567 287.372 117.881 286.514H120.001C119.624 287.731 119.075 288.783 118.352 289.672C116.703 291.777 114.504 292.83 111.755 292.83C109.274 292.83 107.216 292.019 105.583 290.397Z" fill="#D2D2D2"/>
<path d="M120.959 277.976V275.988H134.388V277.976H128.734V292.362H126.614V277.976H120.959Z" fill="#D2D2D2"/>
<path d="M136.289 292.362V275.988H138.41V289.438L138.386 289.672H138.433L146.773 275.988H149.601V292.362H147.48V278.912L147.504 278.678H147.457L139.117 292.362H136.289Z" fill="#D2D2D2"/>
<path d="M153.146 292.362V275.988H155.266V290.374H163.394V275.988H165.514V290.374H167.752V295.52H165.632V292.362H153.146Z" fill="#D2D2D2"/>
<path d="M169.887 292.362V275.988H172.007V289.438L171.983 289.672H172.03L180.371 275.988H183.198V292.362H181.077V278.912L181.101 278.678H181.054L172.714 292.362H169.887Z" fill="#D2D2D2"/>
<path d="M186.743 292.362V275.988H188.863V289.438L188.839 289.672H188.886L197.227 275.988H200.054V292.362H197.933V278.912L197.957 278.678H197.91L189.57 292.362H186.743Z" fill="#D2D2D2"/>
<defs>
<linearGradient id="paint0_linear_0_598" x1="181.927" y1="0" x2="28.7498" y2="0" gradientUnits="userSpaceOnUse">
<stop stop-color="#FEDA3B"/>
<stop offset="0.47" stop-color="#EF5541"/>
<stop offset="0.815" stop-color="#821EE0"/>
<stop offset="0.98" stop-color="#7F2A8A"/>
</linearGradient>
</defs>
</svg>
