<svg width="151" height="26" viewBox="0 0 151 26" fill="none" xmlns="http://www.w3.org/2000/svg">
<g clip-path="url(#clip0_1_2280)">
<path d="M68.0479 7.85149L71.1748 5.55856H60.7065V19.2937H71.1748V17.0008H63.6975V13.4939H70.0872V11.201H63.6975V7.85149H68.0479Z" fill="#21A038"/>
<path d="M52.7989 10.9087H49.1736V7.85149H54.9742L58.1011 5.55856H46.1826V19.2937H52.4137C55.9032 19.2937 57.9197 17.7201 57.9197 14.9776C57.9197 12.3474 56.1071 10.9087 52.7989 10.9087ZM52.3004 17.0008H49.1736V13.2017H52.3004C54.2038 13.2017 55.0875 13.8311 55.0875 15.1124C55.0875 16.3938 54.1358 17.0008 52.3004 17.0008Z" fill="#21A038"/>
<path d="M79.6471 5.55856H73.96V19.2937H76.9508V15.4046H79.6699C83.2952 15.4046 85.5611 13.5164 85.5611 10.4816C85.5611 7.44685 83.2952 5.55856 79.6471 5.55856ZM79.5793 13.1117H76.9282V7.85149H79.5793C81.5053 7.85149 82.5475 8.79564 82.5475 10.4816C82.5475 12.1676 81.5053 13.1117 79.5793 13.1117Z" fill="#21A038"/>
<path d="M41.0618 16.323C40.2688 16.7502 39.3851 16.975 38.4787 16.975C35.7823 16.975 33.8336 15.0642 33.8336 12.4341C33.8336 9.80397 35.7823 7.89319 38.4787 7.89319C39.453 7.87071 40.4047 8.18542 41.1978 8.74742L43.3503 7.17383L43.2143 7.03895C41.9682 5.93744 40.2914 5.37546 38.3881 5.37546C36.3261 5.37546 34.4454 6.07232 33.086 7.33119C31.7264 8.63503 30.956 10.4559 31.0014 12.3442C30.9787 14.255 31.7264 16.0984 33.086 17.447C34.5135 18.7734 36.4167 19.5152 38.3654 19.4703C40.518 19.4703 42.3986 18.7284 43.6675 17.3796L41.7416 15.9634L41.0618 16.323Z" fill="#21A038"/>
<path d="M121.521 5.58105V19.3161H124.512V13.6962H130.879V19.3161H133.87V5.58105H130.879V11.2235H124.512V5.58105H121.521ZM116.378 19.3161H119.527L113.681 5.58105H110.645L104.686 19.3161H107.7L108.9 16.5511H115.245L116.378 19.3161ZM109.807 14.2582L112.118 8.75068L114.293 14.2582H109.807ZM140.577 13.7637H142.435L147.012 19.2937H150.864L144.746 12.1901L150.094 5.55856H146.673L142.231 11.4483H140.577V5.55856H137.586V19.2937H140.577V13.7637ZM94.8069 10.9312V7.87397H102.624V5.58105H91.8159V19.3161H98.047C101.537 19.3161 103.553 17.7426 103.553 15C103.553 12.3699 101.74 10.9312 98.4322 10.9312H94.8069ZM94.8069 17.0233V13.2241H97.9337C99.837 13.2241 100.721 13.8536 100.721 15.1349C100.721 16.4163 99.7917 17.0456 97.9337 17.0456H94.8069V17.0233Z" fill="#21A038"/>
<path d="M21.641 5.46335C22.1848 6.16023 22.638 6.92454 23.0232 7.73381L12.555 15.3993L8.15918 12.6569V9.37483L12.5323 12.0949L21.641 5.46335Z" fill="#21A038"/>
<path d="M3.69842 12.4346C3.69842 12.2772 3.69842 12.1423 3.72108 11.9849L1.07002 11.8501C1.07002 12.0299 1.04736 12.2322 1.04736 12.4121C1.04736 15.5593 2.3389 18.4141 4.42349 20.4823L6.30415 18.6165C4.6954 17.0428 3.69842 14.8624 3.69842 12.4346Z" fill="url(#paint0_linear_1_2280)"/>
<path d="M12.5317 3.66965C12.6903 3.66965 12.8263 3.66965 12.9849 3.69213L13.1208 1.062C12.9396 1.062 12.7356 1.03952 12.5544 1.03952C9.38215 1.03952 6.50451 2.32087 4.41992 4.389L6.30059 6.25482C7.88668 4.65876 10.1072 3.66965 12.5317 3.66965Z" fill="url(#paint1_linear_1_2280)"/>
<path d="M12.5349 21.2028C12.3763 21.2028 12.2404 21.2028 12.0817 21.1803L11.9458 23.8105C12.1271 23.8105 12.331 23.8329 12.5123 23.8329C15.6844 23.8329 18.5621 22.5516 20.6466 20.4835L18.766 18.6176C17.1799 20.2361 14.982 21.2028 12.5349 21.2028Z" fill="url(#paint2_linear_1_2280)"/>
<path d="M17.52 5.19881L19.7632 3.55779C17.7919 1.98421 15.2769 1.01758 12.5352 1.01758V3.6477C14.3932 3.67019 16.1153 4.23217 17.52 5.19881Z" fill="url(#paint3_linear_1_2280)"/>
<path d="M24.0457 12.4309C24.0457 11.734 23.9777 11.0597 23.8644 10.3853L21.3946 12.2061C21.3946 12.2736 21.3946 12.3635 21.3946 12.4309C21.3946 15.0161 20.2616 17.3316 18.4717 18.9275L20.2616 20.8833C22.5728 18.8151 24.0457 15.7804 24.0457 12.4309Z" fill="#21A038"/>
<path d="M12.5333 21.2026C9.92758 21.2026 7.59374 20.0787 5.98498 18.3027L4.01367 20.0787C6.12092 22.394 9.15717 23.8327 12.5333 23.8327V21.2026Z" fill="url(#paint4_linear_1_2280)"/>
<path d="M6.62138 5.93961L4.83136 3.98386C2.49752 6.07447 1.04736 9.08676 1.04736 12.4362H3.69842C3.69842 9.87355 4.83136 7.53567 6.62138 5.93961Z" fill="url(#paint5_linear_1_2280)"/>
</g>
<defs>
<linearGradient id="paint0_linear_1_2280" x1="4.1406" y1="20.1623" x2="1.50818" y2="12.3745" gradientUnits="userSpaceOnUse">
<stop offset="0.1444" stop-color="#F2E913"/>
<stop offset="0.3037" stop-color="#E7E518"/>
<stop offset="0.5823" stop-color="#CADB26"/>
<stop offset="0.891" stop-color="#A3CD39"/>
</linearGradient>
<linearGradient id="paint1_linear_1_2280" x1="5.1756" y1="4.09221" x2="12.0198" y2="1.42281" gradientUnits="userSpaceOnUse">
<stop offset="0.0592" stop-color="#0FA8E0"/>
<stop offset="0.5385" stop-color="#0099F9"/>
<stop offset="0.9234" stop-color="#0291EB"/>
</linearGradient>
<linearGradient id="paint2_linear_1_2280" x1="11.7901" y1="21.5961" x2="19.9698" y2="19.7041" gradientUnits="userSpaceOnUse">
<stop offset="0.1226" stop-color="#A3CD39"/>
<stop offset="0.2846" stop-color="#86C339"/>
<stop offset="0.8693" stop-color="#21A038"/>
</linearGradient>
<linearGradient id="paint3_linear_1_2280" x1="11.9905" y1="2.69278" x2="18.783" y2="4.83777" gradientUnits="userSpaceOnUse">
<stop offset="0.0566" stop-color="#0291EB"/>
<stop offset="0.79" stop-color="#0C8ACB"/>
</linearGradient>
<linearGradient id="paint4_linear_1_2280" x1="4.68774" y1="20.4953" x2="11.9754" y2="23.2822" gradientUnits="userSpaceOnUse">
<stop offset="0.1324" stop-color="#F2E913"/>
<stop offset="0.2977" stop-color="#EBE716"/>
<stop offset="0.5306" stop-color="#D9E01F"/>
<stop offset="0.8023" stop-color="#BBD62D"/>
<stop offset="0.9829" stop-color="#A3CD39"/>
</linearGradient>
<linearGradient id="paint5_linear_1_2280" x1="3.07866" y1="12.7539" x2="5.92644" y2="5.17196" gradientUnits="userSpaceOnUse">
<stop offset="0.0698" stop-color="#A3CD39"/>
<stop offset="0.2599" stop-color="#81C55F"/>
<stop offset="0.9216" stop-color="#0FA8E0"/>
</linearGradient>
<clipPath id="clip0_1_2280">
<rect width="150" height="24.375" fill="white" transform="translate(0.978516 0.8125)"/>
</clipPath>
</defs>
</svg>
