<svg width="26" height="26" viewBox="0 0 26 26" fill="none" xmlns="http://www.w3.org/2000/svg">
<g clip-path="url(#clip0_1_2295)">
<rect x="0.582031" y="0.5" width="25" height="25" rx="1.95312" fill="url(#paint0_linear_1_2295)"/>
<g filter="url(#filter0_f_1_2295)">
<circle cx="13.0822" cy="13" r="9.675" fill="white"/>
</g>
<g filter="url(#filter1_d_1_2295)">
<path d="M13.2339 22.5751C18.5348 22.5751 22.8321 18.2938 22.8321 13.0126C22.8321 7.73135 18.5348 3.45007 13.2339 3.45007C7.93298 3.45007 3.63574 7.73135 3.63574 13.0126C3.63574 18.2938 7.93298 22.5751 13.2339 22.5751Z" fill="#F9A123"/>
<path d="M22.5284 13.0127C22.5284 18.294 18.2311 22.5752 12.9302 22.5752C9.10712 22.5752 5.80605 20.3483 4.26267 17.1254C4.05849 16.6992 3.88514 16.2555 3.74537 15.7972C3.4766 14.9162 3.33203 13.9812 3.33203 13.0127C3.33203 12.2899 3.41252 11.5858 3.56513 10.9088C3.63282 10.6084 3.71469 10.3134 3.81001 10.0245L3.81005 10.0244C4.45196 8.07865 5.70371 6.40856 7.34006 5.23861L7.3402 5.23852C7.61714 5.04049 7.90513 4.85678 8.203 4.68853L8.20314 4.68849L8.20323 4.68839C9.59863 3.90023 11.2117 3.45023 12.9302 3.45023C15.6457 3.45023 18.0977 4.57368 19.8436 6.37951C20.141 6.68692 20.4177 7.01411 20.6718 7.35889C21.839 8.94248 22.5284 10.8974 22.5284 13.0127Z" fill="#F8D631"/>
<mask id="mask0_1_2295" style="mask-type:luminance" maskUnits="userSpaceOnUse" x="3" y="3" width="20" height="20">
<path d="M22.5284 13.0125C22.5284 18.2938 18.2311 22.575 12.9302 22.575C9.10712 22.575 5.80604 20.3481 4.26263 17.1252C4.05849 16.699 3.88513 16.2553 3.74536 15.797C3.47657 14.916 3.33203 13.9811 3.33203 13.0125C3.33203 7.7313 7.62931 3.45004 12.9302 3.45004C15.6457 3.45004 18.0977 4.5735 19.8436 6.37933C20.1409 6.68676 20.4177 7.01393 20.6718 7.35873C21.839 8.94233 22.5284 10.8972 22.5284 13.0125Z" fill="white"/>
</mask>
<g mask="url(#mask0_1_2295)">
<path d="M23.9934 9.36597L11.3687 23.6851L12.5732 24.1502L24.6534 9.99202L23.9934 9.36597Z" fill="#FFF16C"/>
</g>
<path d="M12.9304 20.626C17.1509 20.626 20.5723 17.2173 20.5723 13.0125C20.5723 8.80774 17.1509 5.39908 12.9304 5.39908C8.70995 5.39908 5.28857 8.80774 5.28857 13.0125C5.28857 17.2173 8.70995 20.626 12.9304 20.626Z" fill="#F99C1C"/>
<path d="M13.1953 20.6215C13.1074 20.6245 13.0191 20.626 12.9304 20.626C9.82089 20.626 7.14511 18.7757 5.95198 16.1198C5.75917 15.6908 5.6051 15.2408 5.49415 14.7741C5.35973 14.2087 5.28857 13.6189 5.28857 13.0125C5.28857 8.80777 8.70993 5.39908 12.9304 5.39908C13.0191 5.39908 13.1074 5.40061 13.1953 5.40362C9.0975 5.54271 5.81841 8.89608 5.81841 13.0125C5.81841 13.5213 5.86848 14.0184 5.96406 14.4992C6.05816 14.9729 6.19634 15.4308 6.37431 15.8685C7.47674 18.581 10.1029 20.5165 13.1953 20.6215Z" fill="#DA751C"/>
<path d="M16.9439 8.66346C16.4156 8.24102 15.6591 8.02966 14.6744 8.02966H11.483L10.8954 11.9091H9.03369V13.5864H10.6414L10.5494 14.1934H9.03369V15.8707H10.2954L9.97358 17.9955H12.1084L12.3435 15.8707H14.1894V14.1934H12.5292L12.5964 13.5864H14.1894V13.5804C14.8741 13.5612 15.4724 13.4333 15.9843 13.1964C16.5415 12.9387 16.9727 12.5735 17.2782 12.1008C17.5837 11.6282 17.7364 11.0768 17.7364 10.4466C17.7364 9.68046 17.4722 9.08603 16.9439 8.66346ZM15.1919 11.5745C15.1495 11.6096 15.106 11.6435 15.06 11.6738C14.8857 11.7884 14.6656 11.8306 14.4615 11.8597C13.9838 11.9278 13.4966 11.8967 13.0156 11.8967C12.9596 11.8967 12.9035 11.8967 12.8475 11.8967L13.2863 9.70533H14.3941C14.7678 9.70533 15.0588 9.77876 15.2673 9.92561C15.4758 10.0725 15.5801 10.307 15.5801 10.6292C15.5801 11.0445 15.4506 11.3596 15.1919 11.5745Z" fill="#CE6421"/>
<path d="M16.4893 8.66346C15.961 8.24102 15.2045 8.02966 14.2198 8.02966H11.1471C11.0789 8.02966 11.0209 8.07937 11.0107 8.14659L10.4585 11.7922C10.4483 11.8594 10.3904 11.9091 10.3221 11.9091H8.71705C8.64086 11.9091 8.5791 11.9706 8.5791 12.0465V13.449C8.5791 13.5249 8.64086 13.5864 8.71705 13.5864H10.0265C10.1108 13.5864 10.1754 13.6612 10.1629 13.7443L10.1126 14.0764C10.1024 14.1437 10.0444 14.1934 9.97616 14.1934H8.71705C8.64086 14.1934 8.5791 14.2549 8.5791 14.3308V15.7332C8.5791 15.8091 8.64086 15.8706 8.71705 15.8706H9.68049C9.76487 15.8706 9.82948 15.9455 9.81689 16.0286L9.54291 17.8375C9.53032 17.9206 9.59493 17.9954 9.67932 17.9954H11.5302C11.6005 17.9954 11.6596 17.9427 11.6673 17.8731L11.8754 15.993C11.8831 15.9234 11.9422 15.8706 12.0125 15.8706H13.5969C13.6731 15.8706 13.7349 15.8091 13.7349 15.7332V14.3308C13.7349 14.2549 13.6731 14.1934 13.5969 14.1934H12.2286C12.1464 14.1934 12.0825 14.1222 12.0915 14.0409L12.1282 13.7088C12.1359 13.6391 12.195 13.5864 12.2653 13.5864H13.7349V13.5804C14.4195 13.5612 15.0179 13.4333 15.5297 13.1964C16.0869 12.9386 16.5181 12.5734 16.8236 12.1007C17.1291 11.6282 17.2818 11.0768 17.2818 10.4466C17.2818 9.68046 17.0176 9.08603 16.4893 8.66346ZM14.7373 11.5745C14.6949 11.6096 14.6514 11.6435 14.6054 11.6738C14.4311 11.7884 14.211 11.8306 14.007 11.8597C13.5292 11.9278 13.042 11.8967 12.5611 11.8967C12.474 11.8967 12.4088 11.8174 12.4258 11.7323L12.8095 9.81587C12.8224 9.7516 12.879 9.70533 12.9448 9.70533H13.9395C14.3132 9.70533 14.6042 9.77876 14.8127 9.92561C15.0212 10.0725 15.1255 10.307 15.1255 10.6292C15.1255 11.0445 14.996 11.3596 14.7373 11.5745Z" fill="#F8D631"/>
<path d="M16.7915 6.43878L18.0894 4.94769C18.3269 5.08405 18.5987 5.2916 18.9257 5.54487L17.6157 6.99783L16.7915 6.43878Z" fill="#FFF16C"/>
<mask id="mask1_1_2295" style="mask-type:luminance" maskUnits="userSpaceOnUse" x="8" y="8" width="10" height="10">
<path d="M16.4893 8.66346C15.961 8.24102 15.2045 8.02966 14.2198 8.02966H11.0284L10.4408 11.9091H8.5791V13.5864H10.1868L10.0949 14.1934H8.57911V15.8707H9.84081L9.51899 17.9955H11.6538L11.889 15.8707H13.7349V14.1934H12.0746L12.1418 13.5864H13.7349V13.5804C14.4196 13.5612 15.0179 13.4333 15.5297 13.1964C16.0869 12.9387 16.5182 12.5735 16.8236 12.1008C17.1291 11.6282 17.2818 11.0768 17.2818 10.4466C17.2818 9.68046 17.0176 9.08603 16.4893 8.66346ZM14.7373 11.5745C14.6949 11.6096 14.6514 11.6435 14.6054 11.6738C14.4311 11.7884 14.211 11.8306 14.007 11.8597C13.5292 11.9278 13.042 11.8967 12.5611 11.8967C12.505 11.8967 12.4489 11.8967 12.3929 11.8967L12.8317 9.70533H13.9395C14.3132 9.70533 14.6042 9.77876 14.8127 9.92561C15.0212 10.0725 15.1255 10.307 15.1255 10.6292C15.1255 11.0445 14.996 11.3596 14.7373 11.5745Z" fill="white"/>
</mask>
<g mask="url(#mask1_1_2295)">
<path d="M15.5802 6.69438L15.2217 5.66254L5.90381 15.4936L6.3908 15.9465L15.5802 6.69438Z" fill="#FFF16C"/>
</g>
<path d="M7.02076 17.8401L5.56982 19.1503C5.82083 19.459 6.06801 19.7211 6.31163 19.9398L7.76176 18.6298L7.02076 17.8401Z" fill="#FFF16C"/>
</g>
</g>
<defs>
<filter id="filter0_f_1_2295" x="-1.59277" y="-1.67499" width="29.3501" height="29.35" filterUnits="userSpaceOnUse" color-interpolation-filters="sRGB">
<feFlood flood-opacity="0" result="BackgroundImageFix"/>
<feBlend mode="normal" in="SourceGraphic" in2="BackgroundImageFix" result="shape"/>
<feGaussianBlur stdDeviation="2.5" result="effect1_foregroundBlur_1_2295"/>
</filter>
<filter id="filter1_d_1_2295" x="3.33203" y="3.45004" width="19.9" height="20.3002" filterUnits="userSpaceOnUse" color-interpolation-filters="sRGB">
<feFlood flood-opacity="0" result="BackgroundImageFix"/>
<feColorMatrix in="SourceAlpha" type="matrix" values="0 0 0 0 0 0 0 0 0 0 0 0 0 0 0 0 0 0 127 0" result="hardAlpha"/>
<feOffset dx="0.3" dy="1.075"/>
<feGaussianBlur stdDeviation="0.05"/>
<feComposite in2="hardAlpha" operator="out"/>
<feColorMatrix type="matrix" values="0 0 0 0 0 0 0 0 0 0 0 0 0 0 0 0 0 0 0.25 0"/>
<feBlend mode="normal" in2="BackgroundImageFix" result="effect1_dropShadow_1_2295"/>
<feBlend mode="normal" in="SourceGraphic" in2="effect1_dropShadow_1_2295" result="shape"/>
</filter>
<linearGradient id="paint0_linear_1_2295" x1="0.582031" y1="0.5" x2="28.3958" y2="4.16896" gradientUnits="userSpaceOnUse">
<stop stop-color="#1C2CD8"/>
<stop offset="1" stop-color="#168CD5"/>
</linearGradient>
<clipPath id="clip0_1_2295">
<rect x="0.582031" y="0.5" width="25" height="25" rx="1.95312" fill="white"/>
</clipPath>
</defs>
</svg>
