<svg width="141" height="32" viewBox="0 0 141 32" fill="none" xmlns="http://www.w3.org/2000/svg">
<path fill-rule="evenodd" clip-rule="evenodd" d="M17.2474 17.1513C20.1112 17.5934 20.4983 19.2879 20.7298 20.865L20.7684 21.1339L20.7947 21.3169L20.9341 22.245C21.2069 24.0171 21.7761 27.6955 21.7761 29.615C21.7761 30.0947 21.7339 30.4629 21.6568 30.6652C21.5283 30.977 21.1539 31.2762 20.6369 31.5256C19.386 31.8335 18.0785 32 16.7317 32C16.5891 32 16.4488 31.9931 16.308 31.9889C15.7637 31.8343 15.3546 31.5762 15.138 31.2235C14.484 30.1589 14.4446 27.787 14.4315 25.0152L14.43 24.6937L14.4247 23.8629C14.4034 20.9286 14.3851 18.3986 15.4512 17.4907C15.8641 17.1415 16.4508 17.0259 17.2474 17.1513ZM11.0036 23.5398C11.6242 23.5049 12.0233 26.5574 12.1035 28.8721C12.1597 30.4836 11.9905 31.1465 11.7203 31.3845C11.4144 31.2824 11.1138 31.1719 10.8176 31.0519C10.62 30.6928 10.469 30.128 10.3731 29.3882C10.0801 27.0633 10.3346 23.5808 11.0036 23.5398ZM26.5621 28.1014C26.5234 28.3134 26.4688 28.4772 26.4015 28.6154C25.8709 29.0412 25.3132 29.4321 24.7296 29.7838C24.5437 29.8151 24.3786 29.7933 24.2979 29.6569C23.5244 28.2978 23.2341 24.0342 23.9826 23.6631C24.9585 23.1917 26.7068 27.3643 26.5621 28.1014ZM16.5007 0C25.2144 0 32.3005 6.90062 32.4959 15.4873L32.4999 15.7841V15.9213C32.4839 19.8 31.0565 23.3486 28.7049 26.0952C28.6196 26.0524 28.464 25.9123 28.1821 25.4906C27.8904 25.0667 25.3748 21.1953 25.3748 16.7581C25.3748 15.8873 26.63 14.527 27.7407 13.333C28.571 12.4345 29.3575 11.587 29.6471 10.9209C30.016 10.0614 29.7579 9.46125 29.3497 9.25782C28.9802 9.07703 28.4255 9.2089 28.0362 9.9003C27.3974 11.0193 27.1927 11.2284 26.2609 11.9771C25.344 12.7254 23.8863 13.4787 23.8863 12.5036C23.8863 11.9771 24.6982 10.7847 25.0993 9.9489C25.5089 9.10377 25.0674 8.49196 24.2216 8.49196C22.5607 8.49196 21.4582 10.6077 21.4582 11.3407C21.4582 12.0731 21.8135 12.1774 21.8135 13.0303C21.8135 13.8896 19.9912 15.0042 18.2746 15.0042C16.6219 15.0042 15.6635 14.6697 15.2664 13.7273L15.2157 13.595L15.1009 13.2554C14.6937 12.0653 14.4016 11.2022 13.8931 10.3002C13.6231 9.8232 13.2065 9.49252 12.8462 9.20156C12.3753 8.83579 12.131 8.49901 12.08 8.24784C12.033 7.99865 12.0077 7.52904 12.8127 6.4465C13.616 5.37014 13.7286 4.557 13.3266 4.13743C13.1809 3.98817 12.9325 3.89254 12.6135 3.89254C12.0493 3.89254 11.2653 4.19149 10.4574 5.01265C9.20144 6.2996 9.91445 7.52149 9.91445 8.05788C9.91445 8.59392 9.68436 8.89713 8.93065 9.6264C8.17142 10.3589 7.90939 10.9869 7.82256 13.5109C7.78929 14.8114 7.56025 15.56 7.35465 16.2238C7.17699 16.8056 7.0136 17.3526 7.00477 18.1429C6.9907 19.0187 7.13648 19.5831 7.3066 20.2343C7.47363 20.8362 7.65103 21.5259 7.76469 22.6796C7.94547 24.4655 7.88262 25.9741 7.55394 27.516L7.46622 27.9023L7.44572 28.0133C7.37841 28.2843 7.2984 28.6134 7.19025 28.7367C3.1407 25.8604 0.499939 21.163 0.499939 15.8531C0.499939 7.09843 7.66344 0 16.5007 0Z" fill="#F14635"/>
<path d="M93.6046 9.59775C95.1877 9.59775 96.4185 10.1583 97.2972 11.2795C98.1757 12.4007 98.6149 13.9419 98.6149 15.903V16.0855C98.6149 18.001 98.1658 19.5308 97.2675 20.6748C96.3689 21.8188 95.156 22.3909 93.6283 22.3909C92.449 22.3909 91.4793 21.9765 90.7194 21.148V27.373H86.7184V9.82585H90.4583L90.5771 10.966C91.3448 10.0538 92.354 9.59775 93.6046 9.59775ZM65.7044 9.59775C67.3428 9.59775 68.6369 9.98165 69.5868 10.7493C70.5366 11.5171 71.0234 12.5699 71.0471 13.9077V19.3693C71.063 20.5019 71.245 21.3684 71.5933 21.9689V22.1628H67.5921C67.4497 21.9119 67.323 21.5433 67.2122 21.0568C66.4761 21.9461 65.4471 22.3909 64.1253 22.3909C62.9142 22.3909 61.8853 22.0392 61.0383 21.3361C60.1914 20.633 59.7679 19.7494 59.7679 18.6852C59.7679 17.3474 60.2824 16.3363 61.3114 15.6522C62.3404 14.9681 63.8364 14.626 65.7993 14.626H67.0341V13.9761C67.0341 12.8435 66.5236 12.2772 65.5025 12.2772C64.5527 12.2772 64.0778 12.7257 64.0778 13.6226H60.0766C60.0766 12.4292 60.6049 11.4601 61.6617 10.7151C62.7183 9.97025 64.0659 9.59775 65.7044 9.59775ZM78.7285 9.59775C80.4222 9.59775 81.7836 9.96645 82.8126 10.7037C83.8417 11.4411 84.3561 12.4102 84.3561 13.6112H80.3432C80.3432 12.6231 79.8009 12.129 78.7166 12.129C78.297 12.129 77.9448 12.2411 77.6599 12.4653C77.3749 12.6896 77.2324 12.9689 77.2324 13.3034C77.2324 13.6455 77.4066 13.9229 77.7548 14.1357C78.1031 14.3486 78.6591 14.5234 79.4229 14.6602C80.1867 14.7971 80.8576 14.9605 81.4355 15.1505C83.3668 15.789 84.3323 16.9331 84.3323 18.5826C84.3323 19.7076 83.812 20.6236 82.7711 21.3305C81.7302 22.0373 80.3827 22.3909 78.7285 22.3909C77.6282 22.3909 76.6467 22.2008 75.784 21.8207C74.9212 21.4406 74.2484 20.9237 73.7655 20.2701C73.2827 19.6164 73.0413 18.9284 73.0413 18.2063H76.7813C76.7971 18.7763 76.9949 19.1925 77.3749 19.4548C77.7548 19.717 78.2415 19.8482 78.8352 19.8482C79.3813 19.8482 79.7911 19.7417 80.0641 19.5289C80.3372 19.316 80.4736 19.0386 80.4736 18.6965C80.4736 18.3697 80.2957 18.1074 79.9394 17.9098C79.5832 17.7122 78.9064 17.5069 77.9092 17.2941C76.9119 17.0813 76.0887 16.8019 75.4396 16.456C74.7906 16.1102 74.2959 15.6902 73.9555 15.1961C73.6152 14.7021 73.445 14.1357 73.445 13.4972C73.445 12.3646 73.9318 11.4316 74.9053 10.698C75.8789 9.96455 77.1533 9.59775 78.7285 9.59775ZM48.6673 4.62744V12.8815L54.3302 4.62744H59.483L53.1552 12.9043L58.9967 22.1628H54.0576L50.377 15.983L48.6673 17.7844V22.1628H44.4999V4.62744H48.6673ZM105.085 9.82585V22.1628H101.072V9.82585H105.085ZM140.369 9.82585V11.9009L134.647 19.1982H140.5V22.1628H129.589V20.0192L135.288 12.7903H128.574L131.248 9.82585H140.369ZM110.45 18.1832C111.545 18.1832 112.431 19.0381 112.431 20.0928C112.431 21.1474 111.545 22.0024 110.45 22.0024C109.356 22.0024 108.469 21.1474 108.469 20.0928C108.469 19.0381 109.356 18.1832 110.45 18.1832ZM119.742 4.62695V13.8408L120.146 13.3327L123.17 9.76455H127.979L123.468 14.7893L128.277 21.982H123.682L120.873 17.4315L119.742 18.5042V21.982H115.73V4.62695H119.742ZM67.0341 16.6784H65.8706C64.4775 16.6784 63.781 17.2789 63.781 18.4799C63.781 18.8296 63.9036 19.1127 64.149 19.3294C64.3944 19.546 64.707 19.6543 65.087 19.6543C65.5856 19.6543 65.9992 19.5518 66.3277 19.3465C66.6562 19.1412 66.8916 18.9094 67.0341 18.6509V16.6784ZM92.6192 12.5623C91.6694 12.5623 91.036 12.8891 90.7194 13.5428V18.4001C91.0677 19.0842 91.7089 19.4263 92.6429 19.4263C93.9173 19.4263 94.5742 18.3698 94.6137 16.2565V15.8461C94.6137 13.6569 93.949 12.5623 92.6192 12.5623ZM103.133 4.62695C104.227 4.62695 105.114 5.52259 105.114 6.62745C105.114 7.73231 104.227 8.62795 103.133 8.62795C102.039 8.62795 101.152 7.73231 101.152 6.62745C101.152 5.52259 102.039 4.62695 103.133 4.62695Z" fill="black"/>
</svg>
