<svg width="16" height="16" viewBox="0 0 16 16" fill="none" xmlns="http://www.w3.org/2000/svg">
<g clip-path="url(#clip0_1_777)">
<path d="M15.5 8C15.5 8.64 14.7137 9.1675 14.5562 9.7575C14.3937 10.3675 14.805 11.2175 14.4963 11.7513C14.1825 12.2938 13.2387 12.3588 12.7987 12.7987C12.3588 13.2387 12.2938 14.1825 11.7513 14.4963C11.2175 14.805 10.3675 14.3937 9.7575 14.5562C9.1675 14.7137 8.64 15.5 8 15.5C7.36 15.5 6.8325 14.7137 6.2425 14.5562C5.6325 14.3937 4.7825 14.805 4.24875 14.4963C3.70625 14.1825 3.64125 13.2387 3.20125 12.7987C2.76125 12.3588 1.8175 12.2938 1.50375 11.7513C1.195 11.2175 1.60625 10.3675 1.44375 9.7575C1.28625 9.1675 0.5 8.64 0.5 8C0.5 7.36 1.28625 6.8325 1.44375 6.2425C1.60625 5.6325 1.195 4.7825 1.50375 4.24875C1.8175 3.70625 2.76125 3.64125 3.20125 3.20125C3.64125 2.76125 3.70625 1.8175 4.24875 1.50375C4.7825 1.195 5.6325 1.60625 6.2425 1.44375C6.8325 1.28625 7.36 0.5 8 0.5C8.64 0.5 9.1675 1.28625 9.7575 1.44375C10.3675 1.60625 11.2175 1.195 11.7513 1.50375C12.2938 1.8175 12.3588 2.76125 12.7987 3.20125C13.2387 3.64125 14.1825 3.70625 14.4963 4.24875C14.805 4.7825 14.3937 5.6325 14.5562 6.2425C14.7137 6.8325 15.5 7.36 15.5 8Z" fill="white"/>
<path d="M10.1675 5.76499L7.31251 8.61999L5.83251 7.14124C5.51126 6.81999 4.99001 6.81999 4.66876 7.14124C4.34751 7.46249 4.34751 7.98374 4.66876 8.30499L6.74501 10.3812C7.05751 10.6937 7.56501 10.6937 7.87751 10.3812L11.33 6.92874C11.6513 6.60749 11.6513 6.08624 11.33 5.76499C11.0088 5.44374 10.4888 5.44374 10.1675 5.76499Z" fill="#55C173"/>
</g>
<defs>
<clipPath id="clip0_1_777">
<rect width="16" height="16" fill="white"/>
</clipPath>
</defs>
</svg>
