<svg width="40" height="41" viewBox="0 0 40 41" fill="none" xmlns="http://www.w3.org/2000/svg">
<g clip-path="url(#clip0_1_415)">
<path fill-rule="evenodd" clip-rule="evenodd" d="M31.164 2.66816C29.982 1.51616 28.501 0.910156 26.714 0.910156H13.282C11.495 0.910156 9.982 1.51616 8.836 2.66816L1.723 9.75916C0.605 10.8792 0 12.3622 0 14.0002V27.6642C0 29.5422 0.637 30.9972 1.906 32.2402L8.653 38.9972C9.983 40.3282 11.467 40.9372 13.373 40.9062H26.627C28.474 40.9062 29.987 40.3602 31.347 38.9962L38.093 32.2402C39.335 30.9972 40 29.5142 40 27.6642V14.0002C40 12.3622 39.395 10.8802 38.277 9.75916L31.164 2.66816ZM37.365 18.6682C37.365 19.1222 37.155 19.3652 36.728 19.3652H34.702V17.9422C34.702 16.8822 34.552 16.3362 33.644 16.3362H32.736C31.829 16.3362 31.678 16.8822 31.678 17.9422V19.3652H30.257C29.198 19.3652 28.653 19.5172 28.653 20.4252V21.3952C28.653 22.3032 29.198 22.4552 30.257 22.4552H31.677V23.8782C31.677 24.9382 31.829 25.4842 32.737 25.4842H33.644C34.551 25.4842 34.703 24.9382 34.703 23.8782V22.4552H36.728C37.122 22.4552 37.333 22.6652 37.365 23.0602V27.6642C37.365 28.7842 37.031 29.6342 36.247 30.3912L29.5 37.1502C28.712 37.9402 27.837 38.3022 26.746 38.3022H13.25C12.16 38.3022 11.284 37.9392 10.495 37.1502L3.753 30.3902C2.965 29.6002 2.603 28.7832 2.635 27.6632V14.3032C2.635 13.1822 2.997 12.2092 3.817 11.3932L10.679 4.42516C11.375 3.72716 12.251 3.51516 13.249 3.51516H26.746C27.746 3.51516 28.621 3.72716 29.317 4.42516L36.187 11.3922C36.975 12.2092 37.365 13.1822 37.365 14.3022V18.6682ZM12.29 11.7562H9.537C8.479 11.7562 7.933 11.9392 7.933 12.8162V13.8162C7.933 14.6982 8.479 14.8772 9.537 14.8772H10.174C10.568 14.8772 10.747 15.0882 10.747 15.6942V28.7842C10.747 29.8442 10.93 30.3912 11.806 30.3912H12.833C13.713 30.3912 13.891 29.8452 13.891 28.7842V12.8202C13.891 11.9402 13.351 11.7562 12.291 11.7562H12.29ZM27.168 17.1852C27.168 18.2132 27.14 19.4852 25.445 20.7292C27.471 21.5142 27.622 23.2442 27.622 25.5162C27.622 28.8802 26.444 30.5462 21.875 30.6382C17.305 30.5462 16.127 28.8802 16.127 25.5162C16.127 23.2442 16.279 21.5182 18.304 20.7292C16.613 19.4892 16.581 18.2132 16.581 17.1852V16.1572C16.761 12.7332 17.911 11.4292 21.875 11.4292C25.839 11.4292 26.985 12.7332 27.168 16.1572V17.1852ZM24.203 16.8462C24.203 14.8172 23.538 14.2112 21.875 14.2112C20.211 14.2112 19.546 14.8172 19.546 16.8462C19.546 18.8162 20.211 19.4812 21.875 19.4812C23.538 19.4812 24.203 18.8152 24.203 16.8462ZM19.243 25.0892C19.243 26.9992 19.94 27.7562 21.875 27.7562C23.813 27.7562 24.505 26.9992 24.505 25.0892C24.505 23.1802 23.813 22.3032 21.875 22.3032C19.94 22.3032 19.243 23.1802 19.243 25.0892Z" fill="white"/>
</g>
<defs>
<clipPath id="clip0_1_415">
<rect width="40" height="40" fill="white" transform="translate(0 0.910156)"/>
</clipPath>
</defs>
</svg>
