<svg width="25" height="25" viewBox="0 0 25 25" fill="none" xmlns="http://www.w3.org/2000/svg">
<g clip-path="url(#clip0_1_617)">
<path d="M12.8008 24.1699C19.4282 24.1699 24.8008 18.7973 24.8008 12.1699C24.8008 5.5425 19.4282 0.169922 12.8008 0.169922C6.17336 0.169922 0.800781 5.5425 0.800781 12.1699C0.800781 18.7973 6.17336 24.1699 12.8008 24.1699Z" fill="#FE2525"/>
<path fill-rule="evenodd" clip-rule="evenodd" d="M7.27442 12.5029C6.92425 12.1528 6.64648 11.737 6.45697 11.2795C6.26746 10.822 6.16992 10.3316 6.16992 9.83642C6.16992 9.34121 6.26746 8.85084 6.45697 8.39332C6.64648 7.9358 6.92425 7.52009 7.27442 7.16992L9.94142 9.83692L12.6084 12.5029C12.2582 12.8532 11.8425 13.1311 11.3848 13.3207C10.9272 13.5103 10.4368 13.6079 9.94142 13.6079C9.44609 13.6079 8.95561 13.5103 8.498 13.3207C8.04039 13.1311 7.62461 12.8532 7.27442 12.5029ZM17.9414 7.16992C18.2916 7.52009 18.5694 7.9358 18.7589 8.39332C18.9484 8.85084 19.0459 9.34121 19.0459 9.83642C19.0459 10.3316 18.9484 10.822 18.7589 11.2795C18.5694 11.737 18.2916 12.1528 17.9414 12.5029C17.5913 12.8531 17.1755 13.1309 16.718 13.3204C16.2605 13.5099 15.7701 13.6074 15.2749 13.6074C14.2748 13.6074 13.3156 13.2101 12.6084 12.5029L15.2744 9.83692L17.9414 7.16992ZM7.80142 17.1699C7.80142 16.9047 7.90678 16.6504 8.09432 16.4628C8.28185 16.2753 8.53621 16.1699 8.80142 16.1699H16.8014C17.0666 16.1699 17.321 16.2753 17.5085 16.4628C17.6961 16.6504 17.8014 16.9047 17.8014 17.1699C17.8014 17.4351 17.6961 17.6895 17.5085 17.877C17.321 18.0646 17.0666 18.1699 16.8014 18.1699H8.80142C8.53621 18.1699 8.28185 18.0646 8.09432 17.877C7.90678 17.6895 7.80142 17.4351 7.80142 17.1699Z" fill="white"/>
</g>
<defs>
<clipPath id="clip0_1_617">
<rect width="24" height="24" fill="white" transform="translate(0.800781 0.169922)"/>
</clipPath>
</defs>
</svg>
