<svg width="30" height="30" viewBox="0 0 30 30" fill="none" xmlns="http://www.w3.org/2000/svg">
<path fill-rule="evenodd" clip-rule="evenodd" d="M13.875 17.25H13.149L12.699 17.8192L9.588 21.7485C9.147 22.3057 8.25 21.9937 8.25 21.2835V9.375C8.25 8.87772 8.44754 8.40081 8.79917 8.04917C9.15081 7.69754 9.62772 7.5 10.125 7.5H19.875C20.3723 7.5 20.8492 7.69754 21.2008 8.04917C21.5525 8.40081 21.75 8.87772 21.75 9.375V16.5C21.75 16.6989 21.671 16.8897 21.5303 17.0303C21.3897 17.171 21.1989 17.25 21 17.25H13.875ZM10.764 22.68L13.875 18.75H21C21.5967 18.75 22.169 18.5129 22.591 18.091C23.0129 17.669 23.25 17.0967 23.25 16.5V9.375C23.25 8.47989 22.8944 7.62145 22.2615 6.98851C21.6285 6.35558 20.7701 6 19.875 6H10.125C9.22989 6 8.37145 6.35558 7.73851 6.98851C7.10558 7.62145 6.75 8.47989 6.75 9.375V21.2827C6.75 23.4157 9.44025 24.3525 10.764 22.68ZM10.5 10.5H19.5V9.75H10.5V10.5ZM19.5 12.75H10.5V12H19.5V12.75ZM10.5 15H19.5V14.25H10.5V15Z" fill="#7B7B7B"/>
</svg>
