<svg width="25" height="25" viewBox="0 0 25 25" fill="none" xmlns="http://www.w3.org/2000/svg">
<g clip-path="url(#clip0_1_577)">
<path d="M2.89927 11.1652C2.14527 11.2922 1.57227 11.8872 1.57227 12.6052C1.57227 13.4152 2.29927 14.0712 3.19727 14.0712H9.46227C9.46227 14.0712 8.53427 16.1232 8.53427 18.1912C8.53427 20.7752 10.6513 22.2812 12.2473 21.2892V19.0292C12.2473 15.7132 15.9603 15.3292 15.9603 11.9762V4.43516C15.9603 3.97116 15.5443 3.59716 15.0323 3.59716H4.79827C4.02927 3.59716 3.40627 4.15816 3.40627 4.85416C3.40627 5.34016 3.71427 5.75516 4.16027 5.96416C3.38027 6.07116 2.77927 6.67416 2.77927 7.40916C2.77927 7.85016 2.99927 8.24116 3.33927 8.50916C2.64327 8.67616 2.12927 9.24216 2.12927 9.92216C2.12927 10.4502 2.43927 10.9072 2.89927 11.1652ZM19.5093 14.0552H22.4573C22.9703 14.0552 23.3863 13.6802 23.3863 13.2172V3.58116C23.3863 3.11816 22.9703 2.74316 22.4583 2.74316H19.5083C18.9963 2.74316 18.5813 3.11816 18.5813 3.58116V13.2172C18.5813 13.6802 18.9963 14.0552 19.5093 14.0552Z" fill="#FE2525"/>
<path fill-rule="evenodd" clip-rule="evenodd" d="M9.46152 14.0709C9.46152 14.0709 9.36552 14.2849 9.23452 14.6439C8.95952 15.3969 8.53352 16.7899 8.53352 18.1919C8.53352 20.7749 10.6505 22.2809 12.2465 21.2899V19.0299C12.2465 17.3759 13.1695 16.4499 14.0965 15.5239C15.0265 14.5909 15.9595 13.6569 15.9595 11.9759V4.43495C15.9595 3.97095 15.5435 3.59695 15.0315 3.59695H4.79752C4.02852 3.59695 3.40552 4.15795 3.40552 4.85395C3.40552 5.09495 3.48152 5.31895 3.61252 5.50895C3.74552 5.70095 3.93552 5.85895 4.15952 5.96395C3.90752 5.99895 3.67452 6.08395 3.47352 6.21095C3.05352 6.47395 2.77852 6.91095 2.77852 7.40895C2.77852 7.63295 2.83552 7.84395 2.93552 8.03195C3.03252 8.21495 3.17152 8.37795 3.33952 8.50995C3.12452 8.55995 2.92752 8.64995 2.75752 8.76795C2.37452 9.03495 2.12752 9.45195 2.12752 9.92195C2.12752 10.2129 2.22252 10.4819 2.38452 10.7089C2.51652 10.8939 2.69252 11.0489 2.89952 11.1649C2.65952 11.2049 2.43952 11.2919 2.24952 11.4149C1.83952 11.6809 1.57152 12.1149 1.57152 12.6049C1.57152 13.4149 2.29852 14.0709 3.19652 14.0709H9.46152ZM8.60652 14.6439C8.54952 14.8079 8.48852 14.9939 8.42752 15.1959C8.18752 15.9939 7.94052 17.0819 7.94052 18.1919C7.94052 19.6319 8.53152 20.8259 9.41552 21.5239C10.3075 22.2289 11.5165 22.4239 12.5675 21.7709L12.8395 21.6019V19.0299C12.8395 17.6249 13.5945 16.8499 14.5295 15.9139L14.5535 15.8899C15.4725 14.9699 16.5535 13.8879 16.5535 11.9759V4.43495C16.5535 3.61895 15.8335 3.02395 15.0315 3.02395H4.79752C3.73952 3.02395 2.81152 3.80595 2.81152 4.85395C2.81152 5.19495 2.91252 5.50795 3.08452 5.77395C2.54652 6.13795 2.18452 6.72195 2.18452 7.40895C2.18452 7.73395 2.26852 8.03595 2.41252 8.30295C1.88752 8.66795 1.53452 9.24595 1.53452 9.92295C1.53452 10.3149 1.65552 10.6759 1.85952 10.9809C1.33152 11.3459 0.978516 11.9269 0.978516 12.6049C0.978516 13.7669 2.00852 14.6439 3.19652 14.6439H8.60652ZM22.4565 14.6279H19.5085C18.7065 14.6279 17.9865 14.0319 17.9865 13.2179V3.57995C17.9865 2.76495 18.7065 2.16895 19.5085 2.16895H22.4565C23.2585 2.16995 23.9785 2.76595 23.9785 3.57995V13.2169C23.9785 14.0319 23.2575 14.6279 22.4565 14.6279ZM22.4565 14.0549H19.5085C18.9955 14.0549 18.5805 13.6799 18.5805 13.2169V3.58095C18.5805 3.11795 18.9955 2.74295 19.5085 2.74295H22.4565C22.9695 2.74295 23.3855 3.11795 23.3855 3.58095V13.2169C23.3855 13.6799 22.9685 14.0549 22.4565 14.0549Z" fill="#FE2525"/>
</g>
<defs>
<clipPath id="clip0_1_577">
<rect width="24" height="24" fill="white" transform="translate(0.478516 0.169922)"/>
</clipPath>
</defs>
</svg>
