<svg width="30" height="31" viewBox="0 0 30 31" fill="none" xmlns="http://www.w3.org/2000/svg">
<path fill-rule="evenodd" clip-rule="evenodd" d="M15.0353 24.9102H14.9633C11.3903 24.9102 9.30075 24.5502 7.84425 23.1237C6.34575 21.5952 6 19.5199 6 15.9612V15.8599C6 12.3004 6.34575 10.2102 7.845 8.69741C9.3135 7.27016 11.3895 6.91016 14.964 6.91016H15.036C18.5955 6.91016 20.685 7.27016 22.1535 8.69666C23.652 10.2252 23.9985 12.3004 23.9985 15.8592V15.9604C23.9985 19.5207 23.652 21.6102 22.1535 23.1229C20.685 24.5502 18.6098 24.9102 15.0353 24.9102ZM21.7327 15.6454C21.8017 15.6492 21.8572 15.7054 21.8572 15.7744V16.0609C21.8573 16.0945 21.8442 16.1267 21.8208 16.1508C21.7974 16.1749 21.7656 16.1889 21.732 16.1899C19.272 16.2829 17.7758 16.5957 16.7265 17.6449C15.6795 18.6919 15.366 20.1867 15.2715 22.6422C15.27 22.6752 15.256 22.7064 15.2323 22.7296C15.2086 22.7527 15.1771 22.7659 15.144 22.7667H14.8552C14.8219 22.7665 14.79 22.7534 14.7661 22.7302C14.7422 22.707 14.7282 22.6755 14.727 22.6422C14.6325 20.1867 14.3197 18.6919 13.272 17.6442C12.2242 16.5972 10.7273 16.2829 8.2665 16.1892C8.23352 16.1876 8.20237 16.1736 8.17938 16.1499C8.15638 16.1262 8.14329 16.0947 8.14275 16.0617V15.7744C8.14275 15.7047 8.19825 15.6477 8.2665 15.6454C10.7265 15.5524 12.2235 15.2397 13.272 14.1904C14.322 13.1412 14.6347 11.6412 14.7277 9.17666C14.7293 9.14335 14.7435 9.1119 14.7675 9.08875C14.7915 9.0656 14.8234 9.0525 14.8568 9.05216H15.1432C15.213 9.05216 15.27 9.10841 15.2723 9.17666C15.3653 11.6427 15.678 13.1412 16.7272 14.1912C17.7757 15.2389 19.2728 15.5524 21.7335 15.6462L21.7327 15.6454Z" fill="white"/>
</svg>
