<svg width="32" height="31" viewBox="0 0 32 31" fill="none" xmlns="http://www.w3.org/2000/svg">
<path d="M17.8443 4.29396C17.9007 3.37911 18.2106 2.46426 18.7185 1.63356C18.8591 1.41178 19.0007 1.21772 19.1413 0.995939C20.4116 1.27317 21.6245 1.68901 22.7809 2.27019C22.3859 2.79693 22.076 3.40683 21.9631 4.12762C21.8499 4.86694 21.9378 5.62308 22.2175 6.31673C22.5274 7.0098 22.9789 7.6197 23.5146 8.09099C24.0512 8.59 24.6433 8.9494 25.2918 9.28208C26.5621 9.89198 27.9156 10.2524 29.2987 10.3633C29.5809 10.391 29.8631 10.391 30.1453 10.391C30.2017 10.5573 30.2859 10.7514 30.3433 10.9454C29.8067 11.0009 29.2987 11.0563 28.7631 11.0563C26.7878 11.1118 24.7849 10.8623 22.9512 10.2247C21.1166 9.5593 19.4235 8.47911 18.5215 6.89891C18.0207 6.12638 17.7831 5.2126 17.8443 4.29396ZM27.973 17.5138C24.7562 17.3474 21.5403 16.6821 18.6057 15.3247C17.1383 14.6593 15.7274 13.7999 14.4868 12.7187C13.2453 11.6385 12.173 10.3355 11.5245 8.81079C10.8498 7.28936 10.6244 5.60665 10.875 3.96128C11.0166 3.01871 11.3265 2.10386 11.7215 1.27317C9.94882 1.7627 8.28371 2.58048 6.81259 3.68406C6.78388 3.90584 6.75616 4.15535 6.72745 4.37713C6.58771 6.18666 6.98004 7.99757 7.85616 9.58703C8.70269 11.1672 10.0007 12.5524 11.468 13.6613C12.9749 14.7685 14.6267 15.6636 16.3769 16.3217C19.9037 17.6801 23.7403 18.2346 27.5492 18.2068C28.6492 18.2068 29.7502 18.1237 30.8502 18.0128C30.8789 17.8464 30.9067 17.6801 30.9354 17.486C29.9472 17.5692 28.9601 17.5692 27.973 17.5138ZM15.7849 11.1672C16.9136 12.0266 18.1829 12.692 19.5076 13.2177C22.1888 14.2435 25.1225 14.687 28.0294 14.6316C29.0443 14.6316 30.0324 14.5484 31.0195 14.4375C31.0195 14.3544 31.0195 14.2712 30.9918 14.2157C30.9918 14.1326 30.9631 14.0494 30.9631 13.9662C30.2016 13.994 29.4394 13.994 28.6779 13.9662C26.3928 13.8276 24.1076 13.3286 21.9908 12.3583C20.9472 11.8603 19.9314 11.2494 19.0571 10.5019C18.1829 9.72564 17.3928 8.78307 16.8849 7.70287C16.3769 6.62168 16.1789 5.37415 16.3769 4.18307C16.5453 3.01871 17.0542 1.93851 17.7314 1.02366C17.7878 0.940493 17.8443 0.885048 17.8997 0.829603C16.8075 0.667306 15.7004 0.630102 14.5997 0.718712C14.1482 0.746435 13.7245 0.829602 13.3017 0.885048C12.7651 1.9098 12.3987 3.01871 12.3136 4.12762C12.1752 5.48911 12.4505 6.8607 13.1037 8.06327C13.6968 9.28208 14.6562 10.3355 15.7849 11.1672ZM27.4928 21.1167C23.374 20.9504 19.2552 20.1187 15.474 18.4563C13.5829 17.6247 11.7779 16.5712 10.17 15.2138C8.5621 13.8831 7.17992 12.2751 6.27596 10.3633C5.48814 8.71415 5.12013 6.89588 5.20467 5.0702C3.65294 6.58883 2.4581 8.43334 1.70656 10.4703C0.955018 12.5073 0.665563 14.6859 0.859127 16.8484C1.59279 25.0247 8.95715 31.0662 17.2799 30.3177C23.1195 29.8187 27.8878 26.1048 29.9472 21.1167C29.1294 21.1445 28.3106 21.1445 27.4928 21.1167ZM23.7968 2.82465C23.5433 3.29594 23.4017 3.79495 23.4017 4.26624C23.4017 4.73752 23.5433 5.18109 23.7977 5.54049C24.3047 6.31673 25.2076 6.84346 26.1948 7.14841C26.9849 7.39792 27.8314 7.48109 28.6779 7.48109C27.4041 5.59645 25.7393 4.00829 23.7968 2.82465Z" fill="#002981"/>
</svg>
