<svg width="30" height="31" viewBox="0 0 30 31" fill="none" xmlns="http://www.w3.org/2000/svg">
<path d="M18.2781 7.94141H18.2819ZM18.2781 7.94141L15.6531 14.5039H21.8406L11.7156 23.8789L14.3429 17.3164H8.1576L18.2781 7.94141ZM18.2781 6.81641H18.2564C17.979 6.82141 17.7134 6.9291 17.5109 7.11866L7.39335 16.4914C7.22751 16.6452 7.11186 16.8453 7.06148 17.0658C7.0111 17.2862 7.02832 17.5167 7.11091 17.7273C7.1935 17.9378 7.33762 18.1185 7.52446 18.2459C7.71131 18.3733 7.93221 18.4414 8.15835 18.4414H12.6809L10.6709 23.4612C10.5759 23.6983 10.5644 23.9607 10.6384 24.2053C10.7124 24.4498 10.8674 24.6619 11.0779 24.8066C11.2884 24.9513 11.542 25.0201 11.7968 25.0015C12.0516 24.983 12.2925 24.8783 12.4799 24.7047L22.6049 15.3297C22.771 15.176 22.8869 14.9757 22.9374 14.7552C22.9879 14.5346 22.9708 14.3039 22.8882 14.0932C22.8055 13.8825 22.6613 13.7016 22.4743 13.5742C22.2873 13.4468 22.0662 13.3787 21.8399 13.3789H17.3144L19.2996 8.41616C19.3793 8.24495 19.4146 8.05643 19.4023 7.86798C19.39 7.67953 19.3304 7.49722 19.2291 7.33785C19.1278 7.17848 18.988 7.04718 18.8225 6.95605C18.6571 6.86492 18.4715 6.8169 18.2826 6.81641H18.2781Z" fill="white"/>
</svg>
