<svg width="25" height="25" viewBox="0 0 25 25" fill="none" xmlns="http://www.w3.org/2000/svg">
<g clip-path="url(#clip0_1_567)">
<path d="M21.7409 13.1728C22.4949 13.0468 23.0679 12.4528 23.0679 11.7358C23.0679 10.9268 22.3409 10.2718 21.4429 10.2718H15.1779C15.1779 10.2718 16.1059 8.22475 16.1059 6.15975C16.1059 3.58075 13.9889 2.07775 12.3929 3.06775V5.32375C12.3929 8.63375 8.67991 9.01775 8.67991 12.3638V19.8908C8.67991 20.3528 9.09591 20.7268 9.60791 20.7268H19.8419C20.6109 20.7268 21.2339 20.1668 21.2339 19.4718C21.2339 18.9868 20.9259 18.5718 20.4799 18.3638C21.2599 18.2568 21.8599 17.6558 21.8599 16.9218C21.8599 16.4818 21.6399 16.0908 21.2999 15.8228C21.9959 15.6578 22.5119 15.0928 22.5119 14.4128C22.5109 13.8868 22.2019 13.4308 21.7409 13.1728ZM5.13091 10.2878H2.18291C1.66991 10.2878 1.25391 10.6628 1.25391 11.1248V20.7428C1.25391 21.2048 1.66991 21.5788 2.18291 21.5788H5.13091C5.64391 21.5788 6.05891 21.2048 6.05891 20.7428V11.1248C6.05891 10.6628 5.64391 10.2878 5.13091 10.2878Z" fill="#FFB800"/>
<path fill-rule="evenodd" clip-rule="evenodd" d="M15.1772 10.2722C15.1772 10.2722 15.2772 10.0522 15.4112 9.68225C15.6862 8.92625 16.1052 7.54725 16.1052 6.16025C16.1052 3.58125 13.9882 2.07825 12.3922 3.06825V5.32425C12.3922 6.97425 11.4692 7.89725 10.5432 8.82325C9.61316 9.75325 8.67916 10.6862 8.67916 12.3632V19.8913C8.67916 20.3533 9.09516 20.7272 9.60716 20.7272H19.8412C20.6102 20.7272 21.2332 20.1672 21.2332 19.4722C21.2332 19.2372 21.1612 19.0193 21.0362 18.8323C20.8964 18.6286 20.7039 18.4668 20.4792 18.3643C20.7352 18.3293 20.9722 18.2412 21.1742 18.1122C21.5892 17.8482 21.8602 17.4152 21.8602 16.9222C21.8602 16.7052 21.8062 16.4992 21.7102 16.3152C21.6102 16.1239 21.4704 15.9561 21.3002 15.8232C21.5172 15.7722 21.7172 15.6812 21.8892 15.5602C22.2672 15.2932 22.5112 14.8802 22.5112 14.4132C22.5112 14.1292 22.4192 13.8652 22.2642 13.6422C22.1269 13.4479 21.9474 13.2873 21.7392 13.1722C21.9832 13.1322 22.2072 13.0422 22.3992 12.9172C22.8042 12.6512 23.0672 12.2222 23.0672 11.7362C23.0672 10.9272 22.3402 10.2722 21.4422 10.2722H15.1772ZM16.0412 9.68225H21.4422C22.6112 9.68225 23.6602 10.5472 23.6602 11.7362C23.6602 12.4202 23.3092 12.9982 22.7902 13.3642C22.9862 13.6662 23.1032 14.0222 23.1042 14.4122C23.1042 15.0962 22.7512 15.6732 22.2352 16.0382C22.3732 16.3022 22.4532 16.6002 22.4532 16.9222C22.4532 17.6162 22.0932 18.1973 21.5662 18.5613C21.7292 18.8243 21.8262 19.1332 21.8262 19.4732C21.8262 20.5472 20.8802 21.3183 19.8412 21.3183H9.60716C8.82516 21.3183 8.08616 20.7343 8.08616 19.8913V12.3632C8.08616 10.4422 9.17316 9.35525 10.0882 8.44025L10.1152 8.41325C11.0542 7.47525 11.7992 6.70925 11.7992 5.32325V2.74025L12.0792 2.56625C13.1232 1.91825 14.3242 2.11025 15.2152 2.81325C16.1022 3.51125 16.6982 4.71125 16.6982 6.16025C16.6982 7.27325 16.4502 8.36225 16.2092 9.16025C16.1522 9.35025 16.0952 9.52525 16.0412 9.68225ZM2.18116 9.69825H5.13116C5.91316 9.69825 6.65116 10.2832 6.65116 11.1252V20.7432C6.65116 21.5852 5.91316 22.1702 5.13116 22.1702H2.18016C1.40016 22.1702 0.660156 21.5852 0.660156 20.7432V11.1252C0.660156 10.2832 1.39916 9.69825 2.18216 9.69825H2.18116ZM2.18116 10.2882H5.13116C5.64316 10.2882 6.05816 10.6632 6.05816 11.1252V20.7432C6.05816 21.2052 5.64316 21.5793 5.13016 21.5793H2.18216C1.66916 21.5793 1.25316 21.2052 1.25316 20.7432V11.1252C1.25316 10.6632 1.66916 10.2882 2.18216 10.2882H2.18116Z" fill="#FFB800"/>
</g>
<defs>
<clipPath id="clip0_1_567">
<rect width="24" height="24" fill="white" transform="translate(0.160156 0.169922)"/>
</clipPath>
</defs>
</svg>
