<svg width="30" height="31" viewBox="0 0 30 31" fill="none" xmlns="http://www.w3.org/2000/svg">
<path d="M14.0368 11.6352C14.2805 11.3914 14.6293 11.2324 15.0118 11.2324C15.392 11.2324 15.7415 11.3809 15.9853 11.6352C16.229 11.8789 16.3873 12.2284 16.3873 12.6102C16.3873 12.9912 16.2395 13.3302 15.9853 13.5852C15.7415 13.8282 15.3928 13.9872 15.011 13.9872C14.63 13.9872 14.291 13.8387 14.0368 13.5844C13.7795 13.3251 13.6351 12.9747 13.6348 12.6094C13.6348 12.2284 13.7833 11.8894 14.0368 11.6352Z" fill="white"/>
<path fill-rule="evenodd" clip-rule="evenodd" d="M7.281 8.18141C6.0105 9.45266 6.0105 11.4867 6.0105 15.5659L6 16.2754C6 20.3442 6 22.3887 7.2705 23.6494C8.541 24.9102 10.575 24.9102 14.6505 24.9102H15.3705C19.4362 24.9102 21.48 24.9102 22.74 23.6494C24 22.3887 24 20.3547 24 16.2754V15.5554C24 11.4867 24 9.44291 22.74 8.18141C21.48 6.91016 19.4475 6.91016 15.3705 6.91016H14.6505C10.5848 6.91016 8.541 6.91016 7.281 8.18141ZM15.0105 15.6612C15.4115 15.6625 15.8088 15.5846 16.1795 15.4317C16.5502 15.2789 16.887 15.0542 17.1704 14.7705C17.4539 14.4869 17.6785 14.15 17.8311 13.7793C17.9838 13.4085 18.0616 13.0111 18.06 12.6102C18.0616 12.2092 17.9838 11.8118 17.8311 11.4411C17.6785 11.0703 17.4539 10.7334 17.1704 10.4498C16.887 10.1662 16.5502 9.94146 16.1795 9.7886C15.8088 9.63575 15.4115 9.55777 15.0105 9.55916C14.6095 9.55777 14.2122 9.63575 13.8415 9.7886C13.4708 9.94146 13.134 10.1662 12.8506 10.4498C12.5671 10.7334 12.3425 11.0703 12.1899 11.4411C12.0372 11.8118 11.9594 12.2092 11.961 12.6102C11.9594 13.0111 12.0372 13.4085 12.1899 13.7793C12.3425 14.15 12.5671 14.4869 12.8506 14.7705C13.134 15.0542 13.4708 15.2789 13.8415 15.4317C14.2122 15.5846 14.6095 15.6625 15.0105 15.6612ZM19.1085 16.9009L18.219 15.6822C18.1665 15.6079 18.0705 15.5974 18.0173 15.6612C17.1705 16.3812 16.1332 16.8477 15.021 16.8477C13.9095 16.8477 12.8715 16.3819 12.0248 15.6612C11.9939 15.636 11.9543 15.6241 11.9147 15.628C11.875 15.632 11.8386 15.6514 11.8133 15.6822L10.9132 16.9009C10.8705 16.9639 10.881 17.0487 10.9343 17.0914C11.6756 17.6931 12.5447 18.1172 13.4752 18.3312L11.739 21.6574C11.6865 21.7527 11.76 21.8697 11.8665 21.8697H13.719C13.7715 21.8697 13.824 21.8374 13.8465 21.7849L15.0105 19.0407L16.1752 21.7849C16.1962 21.8374 16.2495 21.8697 16.3027 21.8697H18.1448C18.2505 21.8697 18.3248 21.7527 18.2723 21.6574L16.5458 18.3312C17.4763 18.1172 18.3455 17.6932 19.0867 17.0914C19.14 17.0494 19.1505 16.9639 19.1085 16.9009Z" fill="white"/>
</svg>
