<svg width="30" height="31" viewBox="0 0 30 31" fill="none" xmlns="http://www.w3.org/2000/svg">
<path d="M17.4879 16.7942H9.87764V13.7447H17.4879C17.9326 13.7447 18.2416 13.8234 18.3969 13.9607C18.5521 14.0972 18.6481 14.3514 18.6481 14.7227V15.8177C18.6481 16.2084 18.5521 16.4627 18.3969 16.5999C18.2416 16.7364 17.9326 16.7942 17.4879 16.7942ZM18.0106 10.8707H6.65039V23.9102H9.87764V19.6674H15.8251L18.6481 23.9102H22.2624L19.1506 19.6479C20.2981 19.4754 20.8126 19.1199 21.2379 18.5327C21.6631 17.9462 21.8754 17.0087 21.8754 15.7569V14.7789C21.8754 14.0364 21.7981 13.4499 21.6624 12.9999C21.5274 12.5499 21.2956 12.1599 20.9671 11.8082C20.6273 11.4797 20.2176 11.2323 19.7686 11.0844C19.3044 10.9472 18.7246 10.8692 18.0106 10.8692V10.8707ZM24.7426 10.8692C25.4002 10.8692 26.0309 10.6079 26.4959 10.1429C26.9609 9.67793 27.2221 9.04726 27.2221 8.38966C27.2221 7.73205 26.9609 7.10138 26.4959 6.63639C26.0309 6.17139 25.4002 5.91016 24.7426 5.91016C24.085 5.91016 23.4544 6.17139 22.9894 6.63639C22.5244 7.10138 22.2631 7.73205 22.2631 8.38966C22.2631 9.04726 22.5244 9.67793 22.9894 10.1429C23.4544 10.6079 24.085 10.8692 24.7426 10.8692Z" fill="white"/>
</svg>
