<svg width="25" height="25" viewBox="0 0 25 25" fill="none" xmlns="http://www.w3.org/2000/svg">
<g clip-path="url(#clip0_1_607)">
<path d="M12.4727 24.1699C19.1001 24.1699 24.4727 18.7973 24.4727 12.1699C24.4727 5.5425 19.1001 0.169922 12.4727 0.169922C5.84524 0.169922 0.472656 5.5425 0.472656 12.1699C0.472656 18.7973 5.84524 24.1699 12.4727 24.1699Z" fill="white"/>
<path fill-rule="evenodd" clip-rule="evenodd" d="M22.4727 12.1699C22.4727 17.6929 17.9957 22.1699 12.4727 22.1699C6.94966 22.1699 2.47266 17.6929 2.47266 12.1699C2.47266 6.64692 6.94966 2.16992 12.4727 2.16992C17.9957 2.16992 22.4727 6.64692 22.4727 12.1699ZM24.4727 12.1699C24.4727 18.7969 19.0997 24.1699 12.4727 24.1699C5.84566 24.1699 0.472656 18.7969 0.472656 12.1699C0.472656 5.54292 5.84566 0.169922 12.4727 0.169922C19.0997 0.169922 24.4727 5.54292 24.4727 12.1699ZM19.2137 17.1429C18.1837 16.0199 16.3207 14.6789 14.0077 14.2829C11.6277 13.8759 8.88866 14.4929 6.26966 17.1109L7.68366 18.5259C9.86366 16.3449 11.9587 15.9609 13.6707 16.2539C15.4487 16.5579 16.9357 17.6169 17.7397 18.4939L19.2137 17.1429ZM10.4727 9.66992C10.4727 10.0677 10.3146 10.4493 10.0333 10.7306C9.75201 11.0119 9.37048 11.1699 8.97266 11.1699C8.57483 11.1699 8.1933 11.0119 7.912 10.7306C7.63069 10.4493 7.47266 10.0677 7.47266 9.66992C7.47266 9.2721 7.63069 8.89057 7.912 8.60926C8.1933 8.32796 8.57483 8.16992 8.97266 8.16992C9.37048 8.16992 9.75201 8.32796 10.0333 8.60926C10.3146 8.89057 10.4727 9.2721 10.4727 9.66992ZM15.9727 11.1699C16.3705 11.1699 16.752 11.0119 17.0333 10.7306C17.3146 10.4493 17.4727 10.0677 17.4727 9.66992C17.4727 9.2721 17.3146 8.89057 17.0333 8.60926C16.752 8.32796 16.3705 8.16992 15.9727 8.16992C15.5748 8.16992 15.1933 8.32796 14.912 8.60926C14.6307 8.89057 14.4727 9.2721 14.4727 9.66992C14.4727 10.0677 14.6307 10.4493 14.912 10.7306C15.1933 11.0119 15.5748 11.1699 15.9727 11.1699Z" fill="#7B7B7B"/>
</g>
<defs>
<clipPath id="clip0_1_607">
<rect width="24" height="24" fill="white" transform="translate(0.472656 0.169922)"/>
</clipPath>
</defs>
</svg>
