<svg width="30" height="30" viewBox="0 0 30 30" fill="none" xmlns="http://www.w3.org/2000/svg">
<path fill-rule="evenodd" clip-rule="evenodd" d="M17.7441 16.9911L17.7531 16.9821C18.8746 15.855 19.5029 14.3288 19.4999 12.7388C19.497 11.1488 18.863 9.62496 17.7373 8.50205C16.6116 7.37913 15.0862 6.74895 13.4962 6.74994C11.9062 6.75092 10.3816 7.38299 9.25729 8.50729C8.13299 9.6316 7.50092 11.1562 7.49994 12.7462C7.49895 14.3362 8.12913 15.8616 9.25205 16.9873C10.375 18.113 11.8988 18.747 13.4888 18.7499C15.0788 18.7529 16.605 18.1246 17.7321 17.0031L17.7411 16.9941L17.7426 16.9926L17.7441 16.9911ZM19.3071 17.4966C21.7213 14.5506 21.5533 10.1961 18.8031 7.44656C15.8743 4.51781 11.1253 4.51781 8.19656 7.44656C5.26781 10.3753 5.26781 15.1243 8.19656 18.0531C10.9461 20.8033 15.3006 20.9706 18.2466 18.5571L21.4551 21.7656L22.8028 23.1133C22.9435 23.2539 23.1344 23.3329 23.3333 23.3328C23.5323 23.3328 23.7231 23.2537 23.8637 23.1129C24.0043 22.9722 24.0833 22.7814 24.0832 22.5824C24.0831 22.3835 24.004 22.1927 23.8633 22.0521L22.5156 20.7051L19.3071 17.4966Z" fill="#7B7B7B"/>
</svg>
