<svg width="30" height="31" viewBox="0 0 30 31" fill="none" xmlns="http://www.w3.org/2000/svg">
<path fill-rule="evenodd" clip-rule="evenodd" d="M16.1668 18.835V21.073C16.1668 21.4037 16.3963 21.6955 16.7308 21.832C17.0653 21.9685 17.462 21.8905 17.7125 21.6572L23.1635 16.4792C23.2435 16.4057 23.3069 16.3161 23.3496 16.2162C23.3923 16.1164 23.4134 16.0086 23.4114 15.9C23.4094 15.7914 23.3845 15.6845 23.3381 15.5863C23.2918 15.4881 23.2251 15.4008 23.1425 15.3302L17.6495 10.1522C17.5227 10.0349 17.365 9.95608 17.195 9.925C17.0251 9.89392 16.8497 9.91187 16.6895 9.97673C16.355 10.0937 16.1248 10.4057 16.1248 10.7365V12.9752C13.2845 13.111 11.1335 13.948 9.5248 15.4472C7.01905 17.8022 6.99805 20.956 6.99805 21.0925C6.99805 21.4622 7.26955 21.793 7.6663 21.8905C7.7503 21.91 7.81255 21.91 7.89655 21.91C8.05126 21.911 8.20363 21.8722 8.33895 21.7971C8.47426 21.7221 8.58795 21.6135 8.66905 21.4817C9.9013 19.4357 12.8953 18.9422 14.924 18.8492C15.338 18.8298 15.7525 18.8256 16.1668 18.835ZM8.4193 19.816C9.45055 18.811 10.823 18.277 12.0425 17.986C13.658 17.599 15.2735 17.5712 16.1945 17.5915L17.4095 17.6185V20.23L21.9515 15.916L17.3683 11.5952V14.1602L16.1848 14.2165C13.5695 14.3417 11.7223 15.1 10.3745 16.354C9.17305 17.4842 8.64805 18.844 8.4193 19.816Z" fill="#7B7B7B"/>
</svg>
