<svg width="25" height="25" viewBox="0 0 25 25" fill="none" xmlns="http://www.w3.org/2000/svg">
<g clip-path="url(#clip0_1_587)">
<path d="M12.8066 24.1699C19.4341 24.1699 24.8066 18.7973 24.8066 12.1699C24.8066 5.5425 19.4341 0.169922 12.8066 0.169922C6.17922 0.169922 0.806641 5.5425 0.806641 12.1699C0.806641 18.7973 6.17922 24.1699 12.8066 24.1699Z" fill="#FFB800"/>
<path fill-rule="evenodd" clip-rule="evenodd" d="M10.8073 9.66992C10.8073 10.0677 10.6493 10.4493 10.368 10.7306C10.0867 11.0119 9.70514 11.1699 9.30731 11.1699C8.90949 11.1699 8.52796 11.0119 8.24665 10.7306C7.96535 10.4493 7.80731 10.0677 7.80731 9.66992C7.80731 9.2721 7.96535 8.89057 8.24665 8.60926C8.52796 8.32796 8.90949 8.16992 9.30731 8.16992C9.70514 8.16992 10.0867 8.32796 10.368 8.60926C10.6493 8.89057 10.8073 9.2721 10.8073 9.66992ZM11.7763 18.7059C9.46331 18.3099 7.59931 16.9689 6.57031 15.8459L8.04431 14.4939C8.84831 15.3709 10.3343 16.4299 12.1133 16.7339C13.8253 17.0269 15.9193 16.6439 18.1003 14.4629L19.5143 15.8769C16.8943 18.4969 14.1553 19.1129 11.7763 18.7059ZM16.3063 11.1699C16.7041 11.1699 17.0857 11.0119 17.367 10.7306C17.6483 10.4493 17.8063 10.0677 17.8063 9.66992C17.8063 9.2721 17.6483 8.89057 17.367 8.60926C17.0857 8.32796 16.7041 8.16992 16.3063 8.16992C15.9085 8.16992 15.527 8.32796 15.2457 8.60926C14.9643 8.89057 14.8063 9.2721 14.8063 9.66992C14.8063 10.0677 14.9643 10.4493 15.2457 10.7306C15.527 11.0119 15.9085 11.1699 16.3063 11.1699Z" fill="white"/>
</g>
<defs>
<clipPath id="clip0_1_587">
<rect width="24" height="24" fill="white" transform="translate(0.806641 0.169922)"/>
</clipPath>
</defs>
</svg>
