<svg width="30" height="31" viewBox="0 0 30 31" fill="none" xmlns="http://www.w3.org/2000/svg">
<path fill-rule="evenodd" clip-rule="evenodd" d="M5.67461 15.7973C10.8571 13.5398 14.3131 12.051 16.0426 11.3318C20.9791 9.27827 22.0051 8.92127 22.6741 8.90927C22.8211 8.90702 23.1496 8.94377 23.3626 9.11627C23.5426 9.26252 23.5921 9.45977 23.6161 9.59777C23.6394 9.73652 23.6686 10.0515 23.6461 10.2983C23.3776 13.1093 22.2204 19.9305 21.6316 23.079C21.3819 24.4118 20.8914 24.858 20.4166 24.9015C19.3839 24.9968 18.6001 24.219 17.6004 23.5643C16.0351 22.5383 15.1516 21.8993 13.6329 20.8988C11.8779 19.7423 13.0156 19.1063 14.0154 18.0675C14.2779 17.796 18.8259 13.6583 18.9144 13.2825C18.9256 13.236 18.9354 13.0613 18.8319 12.969C18.7269 12.8768 18.5739 12.9083 18.4636 12.933C18.3061 12.969 15.8071 14.6205 10.9644 17.8898C10.2549 18.3773 9.61211 18.6143 9.03686 18.6023C8.40161 18.5873 7.18061 18.2423 6.27311 17.9475C5.16011 17.586 4.27511 17.3948 4.35236 16.7798C4.39211 16.4595 4.83311 16.1325 5.67461 15.7973Z" fill="white"/>
</svg>
