<svg width="30" height="30" viewBox="0 0 30 30" fill="none" xmlns="http://www.w3.org/2000/svg">
<path fill-rule="evenodd" clip-rule="evenodd" d="M19.5 9.75C19.5 10.9435 19.0259 12.0881 18.182 12.932C17.3381 13.7759 16.1935 14.25 15 14.25C13.8065 14.25 12.6619 13.7759 11.818 12.932C10.9741 12.0881 10.5 10.9435 10.5 9.75C10.5 8.55653 10.9741 7.41193 11.818 6.56802C12.6619 5.72411 13.8065 5.25 15 5.25C16.1935 5.25 17.3381 5.72411 18.182 6.56802C19.0259 7.41193 19.5 8.55653 19.5 9.75ZM18 9.75C18 10.5456 17.6839 11.3087 17.1213 11.8713C16.5587 12.4339 15.7956 12.75 15 12.75C14.2044 12.75 13.4413 12.4339 12.8787 11.8713C12.3161 11.3087 12 10.5456 12 9.75C12 8.95435 12.3161 8.19129 12.8787 7.62868C13.4413 7.06607 14.2044 6.75 15 6.75C15.7956 6.75 16.5587 7.06607 17.1213 7.62868C17.6839 8.19129 18 8.95435 18 9.75ZM6 19.125C6 18.2299 6.35558 17.3715 6.98851 16.7385C7.62145 16.1056 8.47989 15.75 9.375 15.75H20.625C21.5201 15.75 22.3785 16.1056 23.0115 16.7385C23.6444 17.3715 24 18.2299 24 19.125V21C24 21.5967 23.7629 22.169 23.341 22.591C22.919 23.0129 22.3467 23.25 21.75 23.25H8.25C7.65326 23.25 7.08097 23.0129 6.65901 22.591C6.23705 22.169 6 21.5967 6 21V19.125ZM7.5 19.125C7.5 18.6277 7.69754 18.1508 8.04917 17.7992C8.40081 17.4475 8.87772 17.25 9.375 17.25H20.625C21.1223 17.25 21.5992 17.4475 21.9508 17.7992C22.3025 18.1508 22.5 18.6277 22.5 19.125V21C22.5 21.1989 22.421 21.3897 22.2803 21.5303C22.1397 21.671 21.9489 21.75 21.75 21.75H8.25C8.05109 21.75 7.86032 21.671 7.71967 21.5303C7.57902 21.3897 7.5 21.1989 7.5 21V19.125Z" fill="#7B7B7B"/>
</svg>
