<svg width="30" height="31" viewBox="0 0 30 31" fill="none" xmlns="http://www.w3.org/2000/svg">
<path d="M22.3417 7.861C21.8452 7.402 19.8367 5.944 15.3629 5.9245C15.3629 5.9245 10.0874 5.6065 7.51566 7.96525C6.08316 9.39775 5.58066 11.4925 5.52741 14.0897C5.47416 16.6877 5.40516 21.5552 10.0979 22.8752H10.1024L10.0994 24.8897C10.0994 24.8897 10.0694 25.705 10.6064 25.8715C11.2559 26.0733 11.6369 25.453 12.2564 24.7855C12.6519 24.3527 13.0402 23.9134 13.4212 23.4677C16.6312 23.7377 19.0987 23.1205 19.3792 23.029C20.0272 22.819 23.6939 22.3495 24.2902 17.482C24.9052 12.4645 23.9924 9.29125 22.3417 7.861ZM22.8862 17.122C22.3822 21.187 19.4084 21.442 18.8602 21.6175C18.6277 21.6925 16.4594 22.2325 13.7332 22.054C13.7332 22.054 11.7022 24.5042 11.0677 25.1417C10.9687 25.2415 10.8517 25.2813 10.7744 25.2618C10.6649 25.2348 10.6349 25.1057 10.6364 24.9167L10.6537 21.5695C6.68391 20.467 6.91566 16.324 6.96066 14.155C7.00566 11.9852 7.41291 10.2077 8.62416 9.01225C10.7992 7.042 15.2804 7.33675 15.2804 7.33675C19.0649 7.35325 20.8777 8.4925 21.2984 8.87425C22.6949 10.0697 23.4059 12.9302 22.8854 17.1205V17.122H22.8862Z" fill="white"/>
<path d="M17.2058 14.2298C17.141 14.2297 17.0788 14.2047 17.0319 14.1601C16.985 14.1154 16.9571 14.0545 16.9538 13.9898C16.911 13.1303 16.506 12.7103 15.6803 12.6653C15.6134 12.6616 15.5506 12.6315 15.5059 12.5816C15.4612 12.5316 15.4381 12.466 15.4418 12.399C15.4455 12.3321 15.4756 12.2694 15.5255 12.2246C15.5754 12.1799 15.6411 12.1569 15.708 12.1605C16.797 12.2205 17.403 12.843 17.4585 13.9643C17.4618 14.0312 17.4384 14.0967 17.3933 14.1463C17.3483 14.196 17.2855 14.2257 17.2185 14.229L17.2058 14.2298Z" fill="white"/>
<path d="M18.5038 14.6644H18.4978C18.4646 14.6637 18.4318 14.6565 18.4013 14.6431C18.3709 14.6297 18.3433 14.6105 18.3203 14.5864C18.2974 14.5624 18.2793 14.5341 18.2673 14.503C18.2553 14.472 18.2495 14.4389 18.2503 14.4057C18.2706 13.5409 18.0238 12.8412 17.4958 12.2652C16.9686 11.6892 16.2493 11.3772 15.2908 11.3074C15.2571 11.3056 15.2241 11.2971 15.1938 11.2824C15.1634 11.2677 15.1363 11.2471 15.114 11.2218C15.0917 11.1965 15.0747 11.1669 15.064 11.135C15.0532 11.103 15.049 11.0692 15.0515 11.0355C15.054 11.0019 15.0632 10.9691 15.0785 10.939C15.0938 10.909 15.115 10.8823 15.1408 10.8605C15.1666 10.8388 15.1965 10.8224 15.2287 10.8123C15.2609 10.8023 15.2947 10.7987 15.3283 10.8019C16.4068 10.8807 17.2611 11.2579 17.8686 11.9224C18.4761 12.5877 18.7791 13.4284 18.7566 14.4162C18.755 14.4822 18.7277 14.5451 18.6805 14.5913C18.6333 14.6375 18.5699 14.6635 18.5038 14.6637V14.6644Z" fill="white"/>
<path d="M19.8313 15.183C19.7646 15.1828 19.7006 15.1564 19.6533 15.1093C19.606 15.0623 19.5791 14.9985 19.5785 14.9318C19.5665 13.3853 19.121 12.204 18.2165 11.3213C17.3233 10.4513 16.1938 10.0043 14.8603 9.99453C14.8104 9.99409 14.7617 9.9789 14.7203 9.95088C14.679 9.92285 14.6468 9.88324 14.6279 9.83701C14.609 9.79078 14.6042 9.73999 14.614 9.69103C14.6239 9.64206 14.648 9.5971 14.6833 9.56178C14.7307 9.51463 14.7949 9.4882 14.8618 9.48828H14.864C16.3325 9.49953 17.579 9.99378 18.5698 10.959C19.5605 11.9243 20.0713 13.2623 20.0848 14.9288C20.0852 14.9959 20.059 15.0604 20.0119 15.1082C19.9648 15.156 19.9007 15.1832 19.8335 15.1838L19.8313 15.183ZM15.7423 17.3648C15.7423 17.3648 16.0978 17.3948 16.2898 17.1593L16.6625 16.689C16.8425 16.4565 17.2775 16.308 17.7028 16.545C18.0223 16.7265 18.332 16.9245 18.6305 17.1375C18.9133 17.3453 19.4915 17.8275 19.493 17.8275C19.769 18.06 19.8328 18.402 19.6453 18.762L19.6438 18.7695C19.4372 19.1277 19.1749 19.4508 18.8668 19.7265C18.863 19.728 18.863 19.7303 18.8593 19.7318C18.5915 19.9553 18.329 20.0828 18.0703 20.1135C17.9186 20.1314 17.7648 20.1161 17.6195 20.0685L17.612 20.0565C17.213 19.944 16.5485 19.6635 15.4423 19.053C14.8019 18.7039 14.1922 18.3013 13.6198 17.8493C13.3328 17.6227 13.0591 17.3798 12.8 17.1218L12.773 17.0948L12.7453 17.067L12.7175 17.0393L12.6898 17.0115C12.4318 16.7528 12.1895 16.479 11.9623 16.1918C11.5106 15.6193 11.1082 15.0096 10.7593 14.3693C10.1488 13.263 9.86755 12.5993 9.7558 12.2003L9.74305 12.1928C9.70793 12.0843 9.6907 11.9708 9.69205 11.8568C9.69009 11.8181 9.69261 11.7794 9.69955 11.7413C9.73105 11.4833 9.85855 11.22 10.0813 10.9515L10.0865 10.9448C10.3618 10.6373 10.685 10.3748 11.0428 10.1678L11.0503 10.1663C11.4103 9.97878 11.7523 10.0425 11.9848 10.3163C11.9863 10.3185 12.4678 10.8968 12.6748 11.1788C12.8878 11.4788 13.0858 11.7885 13.2673 12.1073C13.5043 12.5333 13.3558 12.9683 13.1233 13.1475L12.653 13.521C12.416 13.7123 12.4475 14.0685 12.4475 14.0685C12.4475 14.0685 13.1428 16.701 15.7423 17.3648Z" fill="white"/>
</svg>
