<svg width="24" height="25" viewBox="0 0 24 25" fill="none" xmlns="http://www.w3.org/2000/svg">
<path d="M12.0003 18.0765C8.99429 18.0765 5.90309 16.2069 3.29609 12.8121C3.15464 12.6278 3.07802 12.402 3.07813 12.1697C3.07823 11.9374 3.15507 11.7116 3.29669 11.5275C5.90309 8.13327 8.99429 6.26367 12.0003 6.26367C15.0063 6.26367 18.0975 8.13327 20.7045 11.5281C20.8459 11.7123 20.9226 11.9382 20.9225 12.1705C20.9223 12.4028 20.8455 12.6285 20.7039 12.8127C18.0975 16.2069 15.0063 18.0765 12.0003 18.0765ZM4.69829 12.1701C6.10709 13.9329 8.75969 16.5765 12.0003 16.5765C15.2415 16.5765 17.8941 13.9323 19.3023 12.1701C17.8935 10.4073 15.2409 7.76367 12.0003 7.76367C8.75909 7.76367 6.10649 10.4073 4.69829 12.1701Z" fill="#7B7B7B"/>
<path d="M12.0008 14.8697C13.492 14.8697 14.7008 13.6609 14.7008 12.1697C14.7008 10.6786 13.492 9.46973 12.0008 9.46973C10.5096 9.46973 9.30078 10.6786 9.30078 12.1697C9.30078 13.6609 10.5096 14.8697 12.0008 14.8697Z" fill="#7B7B7B"/>
</svg>
