<svg width="30" height="31" viewBox="0 0 30 31" fill="none" xmlns="http://www.w3.org/2000/svg">
<path fill-rule="evenodd" clip-rule="evenodd" d="M7.26525 8.17541C6 9.44066 6 11.4769 6 15.5502V16.2702C6 20.3427 6 22.3797 7.26525 23.6449C8.5305 24.9102 10.5675 24.9102 14.64 24.9102H15.36C19.4325 24.9102 21.4695 24.9102 22.7347 23.6449C24 22.3797 24 20.3427 24 16.2702V15.5502C24 11.4777 24 9.44066 22.7347 8.17541C21.4695 6.91016 19.4325 6.91016 15.36 6.91016H14.64C10.5675 6.91016 8.5305 6.91016 7.26525 8.17541ZM9.0375 12.3852C9.135 17.0652 11.475 19.8777 15.5775 19.8777H15.81V17.2002C17.3175 17.3502 18.4575 18.4527 18.915 19.8777H21.045C20.46 17.7477 18.9225 16.5702 17.9625 16.1202C18.9225 15.5652 20.2725 14.2152 20.595 12.3852H18.66C18.24 13.8702 16.995 15.2202 15.81 15.3477V12.3852H13.875V17.5752C12.675 17.2752 11.16 15.8202 11.0925 12.3852H9.0375Z" fill="white"/>
</svg>
