<svg width="25" height="25" viewBox="0 0 25 25" fill="none" xmlns="http://www.w3.org/2000/svg">
<g clip-path="url(#clip0_1_597)">
<path d="M12.1445 24.1699C18.7719 24.1699 24.1445 18.7973 24.1445 12.1699C24.1445 5.5425 18.7719 0.169922 12.1445 0.169922C5.51711 0.169922 0.144531 5.5425 0.144531 12.1699C0.144531 18.7973 5.51711 24.1699 12.1445 24.1699Z" fill="#29DDB2"/>
<path fill-rule="evenodd" clip-rule="evenodd" d="M10.1445 6.66992C10.1445 7.06775 9.9865 7.44928 9.70519 7.73058C9.42389 8.01189 9.04236 8.16992 8.64453 8.16992C8.24671 8.16992 7.86518 8.01189 7.58387 7.73058C7.30257 7.44928 7.14453 7.06775 7.14453 6.66992C7.14453 6.2721 7.30257 5.89057 7.58387 5.60926C7.86518 5.32796 8.24671 5.16992 8.64453 5.16992C9.04236 5.16992 9.42389 5.32796 9.70519 5.60926C9.9865 5.89057 10.1445 6.2721 10.1445 6.66992ZM12.1445 18.1699C13.6265 18.1699 15.1445 16.7869 15.1445 14.6699C15.1445 12.5529 13.6265 11.1699 12.1445 11.1699C10.6625 11.1699 9.14453 12.5529 9.14453 14.6699C9.14453 16.7869 10.6625 18.1699 12.1445 18.1699ZM12.1445 20.1699C14.9055 20.1699 17.1445 17.7079 17.1445 14.6699C17.1445 11.6319 14.9055 9.16992 12.1445 9.16992C9.38353 9.16992 7.14453 11.6319 7.14453 14.6699C7.14453 17.7079 9.38353 20.1699 12.1445 20.1699ZM15.6445 8.16992C16.0424 8.16992 16.4239 8.01189 16.7052 7.73058C16.9865 7.44928 17.1445 7.06775 17.1445 6.66992C17.1445 6.2721 16.9865 5.89057 16.7052 5.60926C16.4239 5.32796 16.0424 5.16992 15.6445 5.16992C15.2467 5.16992 14.8652 5.32796 14.5839 5.60926C14.3026 5.89057 14.1445 6.2721 14.1445 6.66992C14.1445 7.06775 14.3026 7.44928 14.5839 7.73058C14.8652 8.01189 15.2467 8.16992 15.6445 8.16992Z" fill="white"/>
</g>
<defs>
<clipPath id="clip0_1_597">
<rect width="24" height="24" fill="white" transform="translate(0.144531 0.169922)"/>
</clipPath>
</defs>
</svg>
