<svg width="36" height="37" viewBox="0 0 36 37" fill="none" xmlns="http://www.w3.org/2000/svg">
<path fill-rule="evenodd" clip-rule="evenodd" d="M18.0415 28.9701H17.9551C13.6675 28.9701 11.1601 28.5381 9.41232 26.8263C7.61412 24.9921 7.19922 22.5018 7.19922 18.2313V18.1098C7.19922 13.8384 7.61412 11.3301 9.41322 9.51482C11.1754 7.80212 13.6666 7.37012 17.956 7.37012H18.0424C22.3138 7.37012 24.8212 7.80212 26.5834 9.51392C28.3816 11.3481 28.7974 13.8384 28.7974 18.1089V18.2304C28.7974 22.5027 28.3816 25.0101 26.5834 26.8254C24.8212 28.5381 22.3309 28.9701 18.0415 28.9701ZM26.0785 17.8524C26.1613 17.8569 26.2279 17.9244 26.2279 18.0072V18.351C26.2279 18.3913 26.2122 18.43 26.1842 18.4589C26.1561 18.4878 26.1179 18.5046 26.0776 18.5058C23.1256 18.6174 21.3301 18.9927 20.071 20.2518C18.8146 21.5082 18.4384 23.3019 18.325 26.2485C18.3232 26.2882 18.3064 26.3257 18.278 26.3534C18.2496 26.3811 18.2117 26.397 18.172 26.3979H17.8255C17.7855 26.3977 17.7472 26.382 17.7185 26.3542C17.6898 26.3263 17.673 26.2885 17.6716 26.2485C17.5582 23.3019 17.1829 21.5082 15.9256 20.2509C14.6683 18.9945 12.8719 18.6174 9.91902 18.5049C9.87945 18.5031 9.84206 18.4862 9.81447 18.4578C9.78688 18.4294 9.77116 18.3915 9.77052 18.3519V18.0072C9.77052 17.9235 9.83712 17.8551 9.91902 17.8524C12.871 17.7408 14.6674 17.3655 15.9256 16.1064C17.1856 14.8473 17.5609 13.0473 17.6725 10.0899C17.6744 10.05 17.6914 10.0122 17.7202 9.98443C17.749 9.95665 17.7873 9.94093 17.8273 9.94052H18.1711C18.2548 9.94052 18.3232 10.008 18.3259 10.0899C18.4375 13.0491 18.8128 14.8473 20.0719 16.1073C21.3301 17.3646 23.1265 17.7408 26.0794 17.8533L26.0785 17.8524Z" fill="black"/>
</svg>
