<svg width="1521" height="1016" viewBox="0 0 1521 1016" fill="none" xmlns="http://www.w3.org/2000/svg">
<path d="M641.588 454.102V306.309C641.588 286.933 625.879 271.225 606.504 271.225H511.755C492.379 271.225 476.671 286.933 476.671 306.309V477.965C522.334 476.418 579.083 468.091 641.588 454.102Z" fill="url(#paint0_linear_3_28)"/>
<path d="M927.534 429.562V643.991H1092.45V347.81C1045.05 375.757 989.197 403.532 927.534 429.562Z" fill="url(#paint1_linear_3_28)"/>
<path d="M610.694 564.666H641.588V524.054C582.709 538.303 526.871 548.39 476.671 553.792V643.991H641.588V604.457L610.694 564.666Z" fill="url(#paint2_linear_3_28)"/>
<path d="M801.472 477.414C767.312 489.023 733.383 499.508 700.106 508.797V564.666H733.869L700.106 608.152V643.991H865.023V454.556C844.294 462.416 823.102 470.064 801.472 477.414Z" fill="url(#paint3_linear_3_28)"/>
<path d="M836.018 233.069L865.023 195.708V186.435C865.023 168.381 850.386 153.743 832.332 153.743H732.798C714.74 153.743 700.106 168.381 700.106 186.435V439.781C739.23 429.428 779.816 417.192 820.751 403.278C835.895 398.13 850.636 392.9 865.023 387.617V233.065L836.018 233.069Z" fill="url(#paint4_linear_3_28)"/>
<path d="M927.535 42.1398V192.291L959.193 233.068H927.535V363.349C993.294 336.348 1048.86 308.655 1092.45 282.749V42.1429C1092.45 18.8683 1073.58 0 1050.31 0H969.678C946.4 0 927.535 18.8683 927.535 42.1398Z" fill="url(#paint5_linear_3_28)"/>
<path d="M1254.36 141.057L1163.45 206.822L1210.44 206.769C1175.36 265.6 1021.39 352.404 826.031 418.808C591.647 498.478 386.525 518.593 367.876 463.735C358.957 437.498 394.348 398.862 459.309 356.976V310.671C330.177 379.957 252.825 451.374 268.508 497.513C292.697 568.677 528.951 552.731 796.195 461.894C1015.32 387.413 1187.2 285.718 1228.67 212.277L1254.5 245.758L1254.36 141.057Z" fill="url(#paint6_linear_3_28)"/>
<path d="M14.96 918.991V764.991H45.98V918.991H14.96ZM75.9756 764.991H106.996L197.196 873.671V764.991H227.996V918.991H197.196L106.996 810.311V918.991H75.9756V764.991ZM247.163 764.991H279.943L332.743 886.431L385.323 764.991H418.323L350.123 918.991H315.363L247.163 764.991ZM565.608 918.991H437.128V764.991H565.608V794.031H468.148V828.351H554.608V855.631H468.148V889.951H565.608V918.991ZM580.709 872.351H612.389C614.296 879.098 618.549 884.084 625.149 887.311C631.749 890.391 641.356 891.931 653.969 891.931C677.289 891.931 688.949 886.724 688.949 876.311C688.949 871.324 685.869 867.291 679.709 864.211C673.549 861.131 662.769 858.271 647.369 855.631C622.729 851.231 605.789 845.731 596.549 839.131C587.456 832.384 582.909 822.338 582.909 808.991C582.909 793.298 588.189 781.784 598.749 774.451C609.309 766.971 625.662 763.231 647.809 763.231C669.369 763.231 685.576 767.044 696.429 774.671C707.282 782.151 713.882 794.544 716.229 811.851H683.889C682.422 804.958 678.609 799.971 672.449 796.891C666.436 793.664 657.562 792.051 645.829 792.051C623.976 792.051 613.049 797.111 613.049 807.231C613.049 811.778 615.836 815.444 621.409 818.231C627.129 821.018 637.469 823.804 652.429 826.591C677.949 831.284 695.476 837.004 705.009 843.751C714.542 850.498 719.309 860.618 719.309 874.111C719.309 889.951 713.736 901.758 702.589 909.531C691.442 917.158 674.282 920.971 651.109 920.971C628.816 920.971 612.096 917.158 600.949 909.531C589.802 901.904 583.056 889.511 580.709 872.351ZM726.736 794.031V764.991H877.436V794.031H817.596V918.991H786.576V794.031H726.736ZM898.183 918.991V764.991H929.203V889.951H1020.5V918.991H898.183ZM1111.11 763.011C1138.69 763.011 1158.71 769.244 1171.17 781.711C1183.79 794.178 1190.09 814.271 1190.09 841.991C1190.09 869.564 1183.79 889.658 1171.17 902.271C1158.71 914.738 1138.69 920.971 1111.11 920.971C1083.39 920.971 1063.3 914.738 1050.83 902.271C1038.37 889.658 1032.13 869.564 1032.13 841.991C1032.13 814.271 1038.37 794.178 1050.83 781.711C1063.3 769.244 1083.39 763.011 1111.11 763.011ZM1074.37 803.931C1066.75 811.851 1062.93 824.538 1062.93 841.991C1062.93 859.444 1066.75 872.131 1074.37 880.051C1082 887.971 1094.25 891.931 1111.11 891.931C1127.98 891.931 1140.23 887.971 1147.85 880.051C1155.48 872.131 1159.29 859.444 1159.29 841.991C1159.29 824.538 1155.48 811.851 1147.85 803.931C1140.23 795.864 1127.98 791.831 1111.11 791.831C1094.25 791.831 1082 795.864 1074.37 803.931ZM1246.1 918.991H1215.08V764.991H1297.58C1316.5 764.991 1330.21 768.658 1338.72 775.991C1347.37 783.178 1351.7 794.838 1351.7 810.971C1351.7 830.184 1345.54 843.384 1333.22 850.571C1344.36 856.144 1349.94 866.558 1349.94 881.811V918.991H1319.14V883.131C1319.14 876.971 1317.23 872.498 1313.42 869.711C1309.75 866.924 1303.81 865.531 1295.6 865.531H1246.1V918.991ZM1246.1 836.711H1295.6C1304.54 836.711 1311 835.024 1314.96 831.651C1318.92 828.131 1320.9 822.631 1320.9 815.151C1320.9 807.671 1318.92 802.318 1314.96 799.091C1311 795.718 1304.54 794.031 1295.6 794.031H1246.1V836.711ZM1508.77 918.991H1380.29V764.991H1508.77V794.031H1411.31V828.351H1497.77V855.631H1411.31V889.951H1508.77V918.991Z" fill="#101624"/>
<defs>
<linearGradient id="paint0_linear_3_28" x1="385.068" y1="755.1" x2="743.386" y2="-24.5731" gradientUnits="userSpaceOnUse">
<stop stop-color="#1277C5"/>
<stop offset="1" stop-color="#5ED376"/>
</linearGradient>
<linearGradient id="paint1_linear_3_28" x1="812.531" y1="966.436" x2="1187.56" y2="150.411" gradientUnits="userSpaceOnUse">
<stop stop-color="#1277C5"/>
<stop offset="1" stop-color="#5ED376"/>
</linearGradient>
<linearGradient id="paint2_linear_3_28" x1="463.857" y1="806.196" x2="838.881" y2="-9.83019" gradientUnits="userSpaceOnUse">
<stop stop-color="#1277C5"/>
<stop offset="1" stop-color="#5ED376"/>
</linearGradient>
<linearGradient id="paint3_linear_3_28" x1="639.795" y1="887.052" x2="1014.82" y2="71.0265" gradientUnits="userSpaceOnUse">
<stop stop-color="#1277C5"/>
<stop offset="1" stop-color="#5ED376"/>
</linearGradient>
<linearGradient id="paint4_linear_3_28" x1="534.48" y1="823.255" x2="897.349" y2="33.6802" gradientUnits="userSpaceOnUse">
<stop stop-color="#1277C5"/>
<stop offset="1" stop-color="#5ED376"/>
</linearGradient>
<linearGradient id="paint5_linear_3_28" x1="677.312" y1="881.71" x2="1039.43" y2="93.7771" gradientUnits="userSpaceOnUse">
<stop stop-color="#1277C5"/>
<stop offset="1" stop-color="#5ED376"/>
</linearGradient>
<linearGradient id="paint6_linear_3_28" x1="749.813" y1="640.154" x2="768.333" y2="163.27" gradientUnits="userSpaceOnUse">
<stop stop-color="#1277C5"/>
<stop offset="1" stop-color="#5ED376"/>
</linearGradient>
</defs>
</svg>
