<svg width="151" height="47" viewBox="0 0 151 47" fill="none" xmlns="http://www.w3.org/2000/svg">
<path d="M0.499756 0.000144958H46.7721V23.3208C46.7721 29.3009 43.5528 34.8142 38.3185 37.8155L23.6359 46.3746L8.96886 37.8155C3.73464 34.8366 0.52222 29.3009 0.52222 23.3208V0.000144958H0.499756Z" fill="#FFDD2D"/>
<path fill-rule="evenodd" clip-rule="evenodd" d="M12.9575 12.2716V19.5189C13.9684 18.4074 15.788 17.6515 17.8548 17.6515H20.1237V26.0772C20.1237 28.3224 19.5172 30.2788 18.5962 31.3681H28.6723C27.7513 30.2788 27.1952 28.3224 27.1952 26.0772V17.6515H29.402C31.4912 17.6515 33.3255 18.4074 34.314 19.5189V12.2716H12.9575Z" fill="#333333"/>
<path d="M58.6646 18.1928V14.8634H72.9336V18.1928H67.5827V31.5106H64.0154V18.1928H58.6646Z" fill="white"/>
<path d="M73.2978 26.5164V23.6626H82.2159V26.5164H73.2978Z" fill="white"/>
<path d="M85.0781 31.5106V14.8634H98.0392V18.1928H88.6454V20.8088H93.045C94.9634 20.8088 96.4696 21.3082 97.5635 22.3071C98.6733 23.2901 99.2283 24.5743 99.2283 26.1597C99.2283 27.7452 98.6733 29.0373 97.5635 30.0361C96.4696 31.0191 94.9634 31.5106 93.045 31.5106H85.0781ZM88.6454 28.1812H92.9261C93.7981 28.1812 94.4481 28.0068 94.8762 27.658C95.3201 27.2933 95.5421 26.7939 95.5421 26.1597C95.5421 25.5255 95.3201 25.034 94.8762 24.6852C94.4481 24.3206 93.7981 24.1383 92.9261 24.1383H88.6454V28.1812Z" fill="white"/>
<path d="M100.071 31.5106L104.47 14.8634H111.962L116.361 31.5106H112.675L111.724 27.8244H104.708L103.757 31.5106H100.071ZM105.541 24.495H110.892L109.227 18.1928H107.205L105.541 24.495Z" fill="white"/>
<path d="M118.034 31.5106V14.8634H121.601V21.4034H128.973V14.8634H132.54V31.5106H128.973V24.7328H121.601V31.5106H118.034Z" fill="white"/>
<path d="M135.638 31.5106V14.8634H139.205V21.4034H141.583L146.102 14.8634H150.144L144.675 22.8303L150.501 31.5106H146.339L141.702 24.7328H139.205V31.5106H135.638Z" fill="white"/>
</svg>
