<svg width="51" height="50" viewBox="0 0 51 50" fill="none" xmlns="http://www.w3.org/2000/svg">
<path d="M0.5 25C0.5 38.8011 11.6989 50 25.5 50C39.3011 50 50.5 38.8011 50.5 25C50.5 11.1989 39.3011 0 25.5 0C11.6989 0 0.5 11.1989 0.5 25ZM1.3829 25C1.3829 11.6636 12.21 0.836431 25.5465 0.836431C38.8829 0.836431 49.71 11.6636 49.71 25C49.71 38.29 38.8829 49.1171 25.5465 49.1171C12.21 49.1636 1.3829 38.3364 1.3829 25ZM8.30669 18.1691C14.7193 13.987 21.7825 11.5242 33.7714 13.6152C34.4219 13.2435 34.7937 12.8717 34.9795 12.0818C32.0056 11.013 28.7528 10.6413 24.5706 10.6877C20.8067 10.7807 14.0223 12.1747 10.3978 14.3123L11.513 12.9182C14.0688 11.4312 20.6673 9.47955 25.5929 9.34015C29.0781 9.29368 30.8903 9.47955 35.026 10.5948C34.6543 9.89777 33.8178 9.52602 32.5632 8.9684C28.5669 7.15613 21.039 7.01673 14.9052 9.7119C15.6952 9.20074 16.4387 8.73606 17.461 8.27137C19.5056 7.34201 22.8048 6.45911 26.9405 6.50558C30.2398 6.55204 34.1896 7.71376 36.6059 10.0836C37.0242 10.5483 37.2565 11.0595 37.3494 11.4777C39.2546 12.4535 40.3699 13.3364 40.974 14.4052C41.2063 14.9628 41.3457 15.5669 41.2063 16.2175C41.9963 16.6822 42.368 17.1004 42.7862 17.6115C43.0651 18.0297 43.2974 18.5409 43.3439 19.0056C43.4368 19.6097 43.4833 20.2602 42.8792 21.0502C43.5297 21.3755 44.0409 22.2584 44.1338 22.6766C44.4126 24.1171 43.5297 25.5112 42.2751 26.6264C40.881 27.881 37.7677 29.3216 35.2584 29.9721C30.2398 31.2268 25.8253 31.7844 22.2937 32.4349C23.8736 32.8067 26.0112 33.3178 29.5428 33.3178C37.0242 33.3178 43.6227 29.7862 43.6227 29.7862C43.6227 29.7862 43.4833 30.2509 43.3439 30.6691C38.6041 33.5502 31.0297 34.7584 27.8234 34.619C24.5242 34.4796 21.7825 33.9684 19.0874 33.132C18.2509 33.3643 17.461 33.5967 16.671 33.9684C20.7602 35.8271 23.8736 36.2454 27.4052 36.5242C30.9833 36.803 36.8848 35.9201 41.9033 34.1078C41.671 34.3401 41.5781 34.7119 41.3457 34.8978C38.79 36.2454 33.3532 37.5929 30.658 37.6859C27.9628 37.7788 24.6636 37.6859 21.7825 37.1747C19.3197 36.71 17.2751 35.9201 15.184 34.9907C14.8123 35.2695 14.6264 35.6413 14.5335 36.0595C22.5725 40.3346 30.2862 40.4275 39.0688 37.6859L38.2788 38.4758C28.6134 42.3792 21.0855 40.8457 15.2305 38.0576C15.0446 37.9647 14.8123 37.8717 14.6264 37.7788C15.184 38.7082 19.645 41.961 24.6171 42.3792C28.0558 42.658 32.2379 42.0539 34.7472 41.0781L33.2602 41.8216C32.052 42.4257 28.8457 43.7732 24.3848 43.448C18.4368 43.0297 15.0911 40.4275 13.5576 39.0335C12.8606 38.3829 12.5353 37.6394 12.303 36.71C10.9554 36.013 10.119 35.2695 9.42193 34.2007C9.00372 33.5502 9.09665 32.8532 9.18959 32.2491L9.329 31.6915C8.67844 31.2268 8.02788 30.7156 7.74907 30.2045C7.14498 29.1357 7.51673 28.2528 7.93494 27.5093C7.5632 27.0911 7.23792 26.7193 7.09851 26.3011C6.95911 25.79 6.91264 25.3253 6.95911 24.8141C7.05204 23.9312 7.5632 23.0948 8.16729 22.3978C9.4684 20.9108 11.513 19.7491 15.0446 18.5874C18.4833 17.4721 19.8309 17.2862 22.4331 16.6822C25.4535 15.9851 29.0781 15.7528 32.0985 14.684C23.6877 13.197 14.9052 14.5446 7.79554 19.4703L8.30669 18.1691ZM36.9777 12.9647C36.8848 13.3829 36.4201 13.8476 36.1413 14.1729C37.0706 14.4052 38 14.7305 38.8829 15.1022C38.7435 14.2658 37.8141 13.4758 36.9777 12.9647ZM11.0483 29.7862C10.4907 29.461 10.119 29.2751 9.70074 28.9498C9.4684 29.461 9.93309 30.0651 10.3978 30.3439C10.5836 30.158 10.816 29.9721 11.0483 29.7862ZM39.4405 18.7732C40.0446 19.052 40.6022 19.2844 41.1134 19.6561C41.4851 18.9126 41.2528 18.448 40.4628 17.7974C40.184 18.1691 39.8123 18.4944 39.4405 18.7732ZM37.6283 19.8885C36.4201 20.4461 34.6078 21.0502 32.0985 21.7007C30.0539 22.2119 24.9888 22.9554 19.552 24.1171C17.8327 24.4888 13.1859 25.6041 10.9089 27.5093C11.5595 28.0204 11.9312 28.1599 12.6747 28.5316C13.6041 27.9275 14.9052 27.3699 16.8104 26.8587C20.1561 25.9758 22.619 25.6041 25.6394 25.0929C28.6134 24.6283 34.1896 23.4665 37.303 22.3513C38.3253 21.9796 39.2546 21.5149 39.9517 20.9572C39.7193 20.7714 37.7212 19.7955 37.6283 19.8885ZM14.2082 32.8532C14.6729 32.5743 15.2305 32.2955 15.8346 32.0632C14.9517 31.6914 14.0688 31.3197 13.1859 30.9015C12.7677 31.1338 12.3959 31.4126 12.1171 31.6915C12.8141 32.0632 13.4647 32.4814 14.2082 32.8532ZM11.3271 33.132C11.3271 33.6896 11.6524 34.2007 12.3959 34.8048C12.4888 34.4796 12.6283 34.2937 12.8606 34.0149C12.303 33.7361 11.8383 33.4108 11.3271 33.132ZM15.5558 22.816C21.6431 21.0502 28.0558 20.4926 34.5613 18.7732C32.0056 18.0762 30.658 17.7974 27.9628 18.1227C24.0595 18.5874 19.7844 19.4238 16.1134 20.4926C14.6729 20.9108 7.09851 23.0483 9.28253 26.0688C9.28253 26.1152 10.5836 24.303 15.5558 22.816ZM38.4182 16.5892C37.4424 16.1245 36.1877 15.7063 34.8401 15.3346C34.2361 15.7993 33.5855 16.2175 32.5632 16.5892C34.1896 16.868 35.4442 17.3327 36.8383 17.7509C37.1171 17.8903 38.2323 16.8216 38.4182 16.5892ZM41.4387 22.4442C41.2528 22.5836 41.0669 22.7695 40.8346 22.9089C39.4405 23.9777 37.2565 24.8141 34.2361 25.6506C27.9628 27.3234 23.4089 27.6022 18.2045 28.8569C17.1822 29.0892 16.1599 29.461 15.184 29.8327C16.1599 30.3439 17.1822 30.7621 18.2509 31.1803C20.342 30.5762 21.3643 30.2974 24.4312 29.7862C25.5929 29.6004 29.171 28.9498 31.7732 28.3922C36.4201 27.4628 43.2509 25.2788 41.4387 22.4442Z" fill="#00487C"/>
</svg>
