<svg width="836" height="242" viewBox="0 0 836 242" fill="none" xmlns="http://www.w3.org/2000/svg">
<path d="M27.7202 121.121C27.7202 119.445 27.7202 118.031 27.9637 116.355L0.243516 114.921C0.243516 116.839 0 118.98 0 120.879C0 154.265 13.5151 184.54 35.3098 206.473L54.9739 186.681C38.1508 169.998 27.7202 146.872 27.7202 121.121Z" fill="#189F3E"/>
<path d="M120.154 28.1344C121.819 28.1344 123.239 28.1344 124.903 28.3768L126.323 0.484759C124.416 0.484759 122.285 0.242401 120.398 0.242401C87.2188 0.242401 57.1243 13.835 35.3096 35.7689L54.9734 55.5617C71.5733 38.6368 94.7881 28.1344 120.154 28.1344Z" fill="#189F3E"/>
<path d="M120.155 214.108C118.491 214.108 117.071 214.108 115.406 213.866L113.986 241.758C115.893 241.758 118.024 242 119.911 242C153.09 242 183.205 228.407 205 206.473L185.336 186.681C168.736 203.848 145.744 214.108 120.155 214.108Z" fill="#189F3E"/>
<path d="M172.287 44.3526L195.746 26.9428C175.128 10.26 148.829 0 120.155 0V27.892C139.595 28.1344 157.595 34.0925 172.287 44.3526Z" fill="#189F3E"/>
<path d="M120.155 214.108C92.9013 214.108 68.4888 202.192 51.6661 183.348L31.0484 202.192C53.0865 226.751 84.845 242 120.155 242L120.155 214.108Z" fill="#189F3E"/>
<path d="M58.3015 52.2093L39.5713 31.4669C15.1588 53.6432 0 85.595 0 121.121L27.7202 121.121C27.7202 93.9363 39.5713 69.1543 58.3015 52.2093Z" fill="#189F3E"/>
<path d="M272.747 93.7507V8H286.853V64.963L285.627 75.9881H286.853L325.493 8H344.507V93.7507H330.4V36.7878L331.627 25.7627H330.4L291.76 93.7507H272.747ZM362.859 93.7507V31.2752H375.739V56.3879H406.405V31.2752H419.285V93.7507H406.405V68.0255H375.739V93.7507H362.859ZM436.468 93.7507V31.2752H467.748C473.718 31.2752 478.38 32.7047 481.732 35.5627C485.085 38.4207 486.762 42.0958 486.762 46.5878C486.762 51.4059 485.126 55.1224 481.855 57.7354C480.22 58.9604 478.583 59.7359 476.948 60.0629V60.5529C479.074 60.88 481.119 61.6959 483.082 63.003C487.17 65.78 489.215 70.0676 489.215 75.8656C489.215 80.9286 487.293 85.1757 483.45 88.6057C479.606 92.0357 474.577 93.7507 468.362 93.7507H436.468ZM449.348 55.7754H466.522C471.428 55.7754 473.882 53.5299 473.882 49.0379C473.882 44.9548 471.428 42.9128 466.522 42.9128H449.348V55.7754ZM449.348 82.1131H467.748C470.447 82.1131 472.532 81.4186 474.004 80.0306C475.558 78.5606 476.335 76.6006 476.335 74.1506C476.335 71.9455 475.558 70.1901 474.004 68.883C472.532 67.495 470.447 66.8005 467.748 66.8005H449.348V82.1131ZM508.89 85.6657C502.756 79.3776 499.69 71.6601 499.69 62.513C499.69 53.3659 502.756 45.6898 508.89 39.4828C515.105 33.1947 522.669 30.0502 531.583 30.0502C540.497 30.0502 548.02 33.1947 554.154 39.4828C560.369 45.6898 563.476 53.3659 563.476 62.513V66.8005H512.57C513.551 71.9455 515.799 75.9881 519.316 78.9281C522.833 81.8681 526.922 83.3381 531.583 83.3381C537.308 83.3381 541.887 81.9086 545.322 79.0506C546.876 77.9076 548.225 76.4781 549.37 74.7631H562.863C561.146 78.7651 558.978 82.1536 556.362 84.9307C549.655 91.6278 541.396 94.9757 531.583 94.9757C522.669 94.9757 515.105 91.8727 508.89 85.6657ZM513.183 56.3879H549.983C549.247 52.3049 547.284 48.8333 544.095 45.9753C540.988 43.1173 536.817 41.6878 531.583 41.6878C527.167 41.6878 523.242 43.0353 519.807 45.7303C516.372 48.3433 514.164 51.8959 513.183 56.3879ZM582.254 85.7882C576.284 79.6631 573.299 71.9051 573.299 62.513C573.299 53.1209 576.284 45.3628 582.254 39.2378C588.224 33.1127 595.665 30.0502 604.579 30.0502C614.556 30.0502 622.693 33.8477 628.99 41.4428C631.689 44.9548 633.569 48.7108 634.633 52.7129H621.139C620.566 50.6708 619.504 48.8333 617.95 47.2003C614.761 43.5253 610.304 41.6878 604.579 41.6878C599.509 41.6878 595.257 43.6073 591.822 47.4453C588.469 51.2834 586.793 56.3059 586.793 62.513C586.793 68.72 588.469 73.7426 591.822 77.5806C595.257 81.4186 599.509 83.3381 604.579 83.3381C610.467 83.3381 615.088 81.5006 618.44 77.8256C619.912 76.1926 621.017 74.3551 621.753 72.313H634.633C633.569 76.4781 631.689 80.2756 628.99 83.7056C622.774 91.2187 614.638 94.9757 604.579 94.9757C595.665 94.9757 588.224 91.9132 582.254 85.7882ZM640.727 42.9128V31.2752H695.314V42.9128H674.461V93.7507H661.581V42.9128H640.727ZM266 232.23L288.08 146.479H323.04L345.733 232.23H331.013L325.125 210.18H285.627L280.107 232.23H266ZM289.307 196.705H321.691L312 159.955H298.507L289.307 196.705ZM357.348 232.23V169.755H370.228V194.867H400.895V169.755H413.775V232.23H400.895V206.505H370.228V232.23H357.348ZM435.619 224.513C430.059 218.47 427.278 210.63 427.278 200.992C427.278 191.355 430.059 183.557 435.619 177.595C441.262 171.552 448.294 168.53 456.718 168.53C462.033 168.53 466.899 170.082 471.315 173.185C473.196 174.492 474.873 176.002 476.345 177.717H476.958V169.755H489.838V232.23H476.958V223.655H476.345C475.118 225.37 473.441 227.003 471.315 228.555C466.899 231.822 462.033 233.455 456.718 233.455C448.294 233.455 441.262 230.475 435.619 224.513ZM445.678 185.557C442.406 189.15 440.771 194.295 440.771 200.992C440.771 207.69 442.406 212.835 445.678 216.428C448.949 220.021 453.446 221.818 459.171 221.818C464.569 221.818 468.862 220.021 472.051 216.428C475.323 212.753 476.958 207.607 476.958 200.992C476.958 194.377 475.323 189.273 472.051 185.68C468.862 182.005 464.569 180.167 459.171 180.167C453.446 180.167 448.949 181.964 445.678 185.557ZM500.216 232.23L517.39 169.755H544.99L562.163 232.23H548.67L535.176 181.392H527.203L513.71 232.23H500.216ZM572.547 232.23V169.755H585.427V211.405L585.305 212.63H586.531L614.867 169.755H628.974V232.23H616.094V190.58L616.216 189.355H614.99L586.654 232.23H572.547ZM639.41 181.392V169.755H693.997V181.392H673.143V232.23H660.263V181.392H639.41ZM704.433 232.23V169.755H717.313V211.405L717.19 212.63H718.417L746.753 169.755H760.86V232.23H747.98V190.58L748.102 189.355H746.876L718.54 232.23H704.433ZM778.043 232.23V169.755H790.923V194.255H800.123L819.136 169.755H833.856L811.163 198.542L835.696 232.23H819.749L800.736 205.892H790.923V232.23H778.043Z" fill="#22333F"/>
</svg>
