<svg width="18" height="19" viewBox="0 0 18 19" fill="none" xmlns="http://www.w3.org/2000/svg">
<g clip-path="url(#clip0_926_175)">
<path d="M9.09184 0.5L7.43878 2.04545L4.86735 1.5L3.85714 3.77273L1.65306 4.31818L1.92857 6.77273L0 8.5L1.37755 10.4091L0.642857 12.5909L2.7551 13.9545L3.03061 16.3182H5.69388L7.34694 18.5L9.09184 17.0455L11.2959 18.3182L12.5816 16.3182H15.0612L15.4286 13.9545L17.5408 12.5909L16.7143 10.4091L18 8.5L16.2551 6.77273L16.4388 4.31818L14.4184 3.77273L13.2245 1.5L10.8367 2.04545L9.09184 0.5Z" fill="#25D366"/>
<path d="M5.96915 9.31642L5.05078 10.4185L8.17323 13.2654L13.4079 6.92866L12.214 5.91846L7.89772 11.0613L5.96915 9.31642Z" fill="white"/>
</g>
<defs>
<clipPath id="clip0_926_175">
<rect width="18" height="18" fill="white" transform="translate(0 0.5)"/>
</clipPath>
</defs>
</svg>
