<svg width="254" height="29" viewBox="0 0 254 29" fill="none" xmlns="http://www.w3.org/2000/svg">
<g clip-path="url(#clip0_1_988)">
<mask id="mask0_1_988" style="mask-type:luminance" maskUnits="userSpaceOnUse" x="0" y="0" width="254" height="29">
<path d="M253.5 0.5H0.5V28.5H253.5V0.5Z" fill="white"/>
</mask>
<g mask="url(#mask0_1_988)">
<path d="M14.5146 28.5C22.2546 28.5 28.5292 22.232 28.5292 14.5C28.5292 6.76801 22.2546 0.5 14.5146 0.5C6.77454 0.5 0.5 6.76801 0.5 14.5C0.5 22.232 6.77454 28.5 14.5146 28.5Z" fill="url(#paint0_linear_1_988)"/>
<path d="M14.5146 28.5C22.2546 28.5 28.5292 22.232 28.5292 14.5C28.5292 6.76801 22.2546 0.5 14.5146 0.5C6.77454 0.5 0.5 6.76801 0.5 14.5C0.5 22.232 6.77454 28.5 14.5146 28.5Z" fill="url(#paint1_linear_1_988)"/>
<path d="M6.85745 2.89061C2.19812 7.12449 2.70377 14.7528 7.98827 19.9272C13.2709 25.1015 21.3301 25.8656 25.9912 21.6299C26.5193 21.15 26.9811 20.6266 27.3771 20.0682C28.1184 18.3617 28.5294 16.4788 28.5294 14.5C28.5294 6.76801 22.2548 0.5 14.5148 0.5C11.9097 0.5 9.47054 1.21007 7.38082 2.44704C7.20203 2.58826 7.02748 2.73611 6.85745 2.89061Z" fill="url(#paint2_radial_1_988)"/>
<path d="M7.80883 2.88977C5.60354 6.24493 8.17177 11.459 13.5459 14.5325C18.92 17.6079 25.0623 17.3797 27.2695 14.0227C27.8928 13.0747 28.1352 11.9786 28.0412 10.8244C26.4252 4.87543 20.9814 0.5 14.5146 0.5C12.5617 0.5 10.702 0.899043 9.01295 1.61996C8.53726 1.97616 8.13099 2.39962 7.80883 2.88977Z" fill="url(#paint3_linear_1_988)"/>
<path d="M71.4998 20.5916C72.3285 21.4244 73.3076 22.0794 74.4371 22.5594C75.5666 23.0394 76.8227 23.2913 78.1765 23.2966C79.1793 23.2966 80.1584 23.1455 81.0873 22.8167C82.0163 22.5117 82.8686 22.0847 83.6472 21.5039C84.4019 20.9496 85.0537 20.2681 85.6053 19.4858C86.1568 18.7061 86.558 17.8469 86.8087 16.8895H82.8687C82.6945 17.343 82.4438 17.7461 82.1165 18.0988C81.7893 18.4515 81.4145 18.7539 80.987 18.982C80.5595 19.2339 80.1347 19.4354 79.657 19.5627C79.1794 19.6874 78.6779 19.7643 78.1765 19.7643C77.3241 19.7643 76.5456 19.6131 75.8674 19.3108C75.1628 19.035 74.561 18.6319 74.0596 18.1015C73.5582 17.5711 73.1835 16.9664 72.9064 16.2849C72.632 15.606 72.5053 14.8475 72.5053 14.0413C72.5053 13.2352 72.6293 12.4794 72.9064 11.7978C73.1809 11.1163 73.5582 10.5116 74.0596 9.98119C74.5637 9.4508 75.1654 9.04773 75.8674 8.74541C76.5456 8.46696 77.3241 8.31576 78.1765 8.31576C78.6779 8.31576 79.1794 8.39002 79.657 8.51731C80.1347 8.64196 80.5595 8.84353 80.987 9.07159C81.4145 9.32353 81.7893 9.62583 82.1165 9.97854C82.4411 10.3313 82.6918 10.7344 82.8687 11.1878H86.8087C86.558 10.2305 86.1568 9.34742 85.6053 8.5651C85.0537 7.78277 84.3993 7.12771 83.6472 6.54694C82.8686 5.99003 82.0163 5.56308 81.0873 5.23423C80.1584 4.93191 79.1793 4.78076 78.1765 4.78076C76.8201 4.78076 75.5666 5.00615 74.4371 5.48616C73.3076 5.96616 72.3285 6.62117 71.4998 7.45388C70.6712 8.28659 70.0194 9.2705 69.5417 10.4055C69.0667 11.5406 68.8398 12.7498 68.8398 14.036C68.8398 15.3222 69.064 16.5315 69.5417 17.6665C70.0194 18.8016 70.6712 19.7589 71.4998 20.5916Z" fill="#006DFF"/>
<path fill-rule="evenodd" clip-rule="evenodd" d="M48.4333 13.3322C47.9064 12.8512 47.2557 12.4738 46.5286 12.1948C45.7778 11.9184 44.977 11.7908 44.0997 11.7882H39.0074V8.55404H48.6335V5.06742H35.3508V23.0106H44.0997C44.9743 23.0106 45.7778 22.8592 46.5286 22.5801C47.2557 22.3038 47.9064 21.9237 48.4333 21.4188C48.9602 20.9378 49.3844 20.3319 49.711 19.6489C50.0114 18.9686 50.1615 18.2352 50.1615 17.4007C50.1615 16.5663 50.0114 15.8089 49.711 15.1259C49.3844 14.443 48.9602 13.8371 48.4333 13.3322ZM44.0497 15.1525C44.8268 15.1525 45.4512 15.3545 45.9281 15.7345C46.4049 16.1119 46.6288 16.6673 46.6288 17.4007C46.6288 18.1342 46.4049 18.663 45.9281 19.043C45.4512 19.4231 44.8268 19.625 44.0497 19.625H39.0074V15.1525H44.0497Z" fill="#006DFF"/>
<path d="M102.228 5.07484V12.3778H103.294L107.473 7.12229V12.3778H108.695V5.07484H107.629L103.461 10.3216V5.07484H102.228Z" fill="#006DFF"/>
<path d="M96.1045 8.53093L93.5135 5.07551H92.3956V12.3785H93.6176V7.1318L96.1153 10.4547L98.5915 7.1424V12.3785H99.8243V5.07551H98.7064L96.1045 8.53093Z" fill="#006DFF"/>
<path fill-rule="evenodd" clip-rule="evenodd" d="M113.455 9.84811H112.316V12.3778H111.094V5.07484H113.455C114.981 5.07484 116.025 6.11358 116.025 7.46148C116.025 8.80937 114.981 9.84811 113.455 9.84811ZM113.445 6.20721H112.316V8.71751H113.445C114.322 8.71751 114.825 8.17164 114.825 7.46324C114.825 6.75131 114.322 6.20721 113.445 6.20721Z" fill="#006DFF"/>
<path d="M92.3956 15.3526V22.6556H93.4614L97.6405 17.4001V22.6556H98.8625V15.3526H97.7966L93.6283 20.5993V15.3526H92.3956Z" fill="#006DFF"/>
<path d="M101.261 15.3526H102.483V18.377H106.151V15.3526H107.373V22.6556H106.151V19.5182H102.483V22.6556H101.261V15.3526Z" fill="#006DFF"/>
<path fill-rule="evenodd" clip-rule="evenodd" d="M112.339 15.3526H109.78V22.6556H112.663C114.074 22.6556 115.055 21.7193 115.055 20.5163C115.055 19.6118 114.542 19.0553 113.864 18.778C114.271 18.4794 114.553 18.0272 114.553 17.3683C114.553 16.2677 113.667 15.3526 112.339 15.3526ZM113.352 17.4407C113.352 18.006 112.945 18.4282 112.276 18.4282H111.002V16.4532H112.276C112.945 16.4532 113.352 16.9054 113.352 17.4407ZM113.864 20.5057C113.864 21.1222 113.426 21.555 112.631 21.555H111.002V19.4564H112.631C113.424 19.4564 113.864 19.898 113.864 20.5057Z" fill="#006DFF"/>
<path d="M116.996 15.3526H121.457V16.5044H118.218V18.377H120.831V19.5288H118.218V21.5038H121.457V22.6556H116.996V15.3526Z" fill="#006DFF"/>
<path d="M126.699 15.2292C124.485 15.2292 122.834 16.865 122.834 19.0043C122.834 21.1437 124.485 22.7795 126.699 22.7795C128.484 22.7795 129.905 21.6365 130.271 20.2074H128.954C128.64 21.0412 127.741 21.6171 126.697 21.6171C125.152 21.6171 124.065 20.4759 124.065 19.0043C124.065 17.5328 125.15 16.3916 126.697 16.3916C127.743 16.3916 128.64 16.9675 128.954 17.8013H130.271C129.907 16.3704 128.486 15.2292 126.699 15.2292Z" fill="#006DFF"/>
<path d="M133.592 16.5044H131.439V15.3526H136.976V16.5044H134.814V22.6556H133.592V16.5044Z" fill="#006DFF"/>
<path d="M138.714 15.3526V22.6556H139.779L143.958 17.4001V22.6556H145.18V15.3526H144.115L139.946 20.5993V15.3526H138.714Z" fill="#006DFF"/>
<path d="M154.308 21.5038V24.1784H153.179V22.6556H147.579V15.3526H148.812V21.5038H152.135V15.3526H153.368V21.5038H154.308Z" fill="#006DFF"/>
<path d="M156.16 15.3526V22.6556H157.226L161.405 17.4001V22.6556H162.627V15.3526H161.561L157.393 20.5993V15.3526H156.16Z" fill="#006DFF"/>
<path d="M165.027 22.6556V15.3526H166.26V20.5993L170.428 15.3526H171.494V22.6556H170.272V17.4L166.093 22.6556H165.027Z" fill="#006DFF"/>
<path d="M166.626 13.1814H167.43C167.43 13.798 167.785 14.1796 168.359 14.1796C168.934 14.1796 169.289 13.7997 169.289 13.1814H170.093C170.093 14.2308 169.319 14.8897 168.358 14.8897C167.399 14.8897 166.626 14.2308 166.626 13.1814Z" fill="#006DFF"/>
<path d="M56.9866 23.0106H53.4838V5.06742H56.9866V12.6731L63.2168 5.06742H67.5716L60.4657 13.6856L69.054 23.0106H64.4803L56.9866 14.8735V23.0106Z" fill="#006DFF"/>
<path fill-rule="evenodd" clip-rule="evenodd" d="M178.633 28.5V0.5L179.739 0.5V28.5H178.633Z" fill="#006DFF"/>
<path fill-rule="evenodd" clip-rule="evenodd" d="M210.497 14.1317C210.497 17.8755 207.459 20.9105 203.712 20.9105C199.964 20.9105 196.926 17.8755 196.926 14.1317C196.926 10.3878 199.964 7.35285 203.712 7.35285C207.459 7.35285 210.497 10.3878 210.497 14.1317ZM212.932 14.1317C212.932 19.2185 208.804 23.3422 203.712 23.3422C198.619 23.3422 194.491 19.2185 194.491 14.1317C194.491 9.04484 198.619 4.92114 203.712 4.92114C208.804 4.92114 212.932 9.04484 212.932 14.1317Z" fill="url(#paint4_linear_1_988)"/>
<path d="M193.016 21.0856C194.967 21.0856 196.43 19.9572 196.43 18.0195C196.43 15.7383 194.735 14.9534 192.227 14.9534H191.414V12.525H192.111C194.711 12.525 196.012 11.6175 196.012 9.77782C196.012 7.98723 194.642 7.15325 193.086 7.15325C191.042 7.15325 189.905 8.45327 189.649 10.5382H186.956C187.211 7.15325 189.533 4.92114 193.248 4.92114C196.058 4.92114 198.845 6.27022 198.845 9.60612C198.845 11.3722 197.869 12.8439 196.383 13.6043C198.427 14.3892 199.286 16.1062 199.286 17.9459C199.286 21.5761 196.337 23.3422 192.97 23.3422C189.069 23.3422 186.932 20.644 186.747 17.5044H189.44C189.696 19.4667 190.857 21.0856 193.016 21.0856Z" fill="#006DFF"/>
<path d="M233.23 6.23432V12.3854H234.435V6.23432H236.567V5.08228H231.109V6.23432H233.23Z" fill="#006DFF"/>
<path fill-rule="evenodd" clip-rule="evenodd" d="M223.9 19.0047C223.9 21.1133 225.578 22.7797 227.679 22.7797C229.769 22.7797 231.458 21.1133 231.458 19.0047C231.458 16.896 229.769 15.2297 227.679 15.2297C225.578 15.2297 223.9 16.896 223.9 19.0047ZM230.232 19.0047C230.232 20.4447 229.12 21.6174 227.679 21.6174C226.227 21.6174 225.115 20.4447 225.115 19.0047C225.115 17.5646 226.227 16.392 227.679 16.392C229.12 16.392 230.232 17.5646 230.232 19.0047Z" fill="#006DFF"/>
<path fill-rule="evenodd" clip-rule="evenodd" d="M234.352 18.2435H235.927C237.348 18.2435 238.409 19.087 238.409 20.455C238.409 21.8025 237.348 22.6562 235.927 22.6562H233.137V15.3531H237.75V16.5051H234.352V18.2435ZM237.215 20.455C237.215 19.7453 236.741 19.3544 235.917 19.3544H234.352V21.535H235.917C236.741 21.535 237.215 21.1545 237.215 20.455Z" fill="#006DFF"/>
<path d="M240.35 15.3531V22.6562H244.746V21.5042H241.554V19.5293H244.129V18.3772H241.554V16.5051H244.746V15.3531H240.35Z" fill="#006DFF"/>
<path fill-rule="evenodd" clip-rule="evenodd" d="M252.399 22.6562V24.1786H253.5V21.5042H252.574V15.3531H247.353V19.1898C247.353 21.0413 246.91 21.5042 246.416 21.5042H246.282V24.1786H247.384V22.6562H252.399ZM248.568 19.3338V16.5051H251.369V21.5042H248.136C248.414 21.0516 248.568 20.4447 248.568 19.3338Z" fill="#006DFF"/>
<path d="M221.017 22.6561V16.505H217.506V22.6561H216.312V15.3529H222.212V22.6561H221.017Z" fill="#006DFF"/>
<path d="M225.3 12.3854V5.08228H229.697V6.23432H226.505V8.10639H229.079V9.25844H226.505V11.2334H229.697V12.3854H225.3Z" fill="#006DFF"/>
<path d="M217.547 5.08228V10.071C217.547 11.1202 217.28 11.3774 216.785 11.3774C216.6 11.3774 216.446 11.3671 216.312 11.3465V12.4677C216.466 12.4986 216.682 12.5089 216.94 12.5089C218.031 12.5089 218.762 11.8094 218.762 10.2356V6.23432H221.563V12.3854H222.778V5.08228H217.547Z" fill="#006DFF"/>
</g>
</g>
<defs>
<linearGradient id="paint0_linear_1_988" x1="14.1642" y1="28.15" x2="14.3694" y2="2.10188" gradientUnits="userSpaceOnUse">
<stop stop-color="#1E66E6"/>
<stop offset="0.479167" stop-color="#8CB4F2"/>
<stop offset="1" stop-color="#F1F7FE"/>
</linearGradient>
<linearGradient id="paint1_linear_1_988" x1="26.427" y1="20.8" x2="11.7229" y2="9.58525" gradientUnits="userSpaceOnUse">
<stop stop-color="#4D87EA"/>
<stop offset="1" stop-color="#7EAAF0" stop-opacity="0"/>
</linearGradient>
<radialGradient id="paint2_radial_1_988" cx="0" cy="0" r="1" gradientUnits="userSpaceOnUse" gradientTransform="translate(31.114 17.7935) rotate(-152.977) scale(33.3597 68.7407)">
<stop offset="0.103242" stop-color="#4382EF"/>
<stop offset="0.459935" stop-color="#7EAAF0"/>
<stop offset="0.630708" stop-color="#B2CDF6"/>
<stop offset="0.794216" stop-color="#F0F6FD"/>
</radialGradient>
<linearGradient id="paint3_linear_1_988" x1="26.7504" y1="5.39294" x2="6.8074" y2="8.20573" gradientUnits="userSpaceOnUse">
<stop stop-color="#9CBFF4"/>
<stop offset="0.476252" stop-color="#CCE0FD"/>
<stop offset="0.770833" stop-color="#E9F2FE"/>
<stop offset="1" stop-color="#F1F7FE"/>
</linearGradient>
<linearGradient id="paint4_linear_1_988" x1="203.716" y1="17.9626" x2="195.634" y2="17.9626" gradientUnits="userSpaceOnUse">
<stop stop-color="#006DFF"/>
<stop offset="1" stop-color="#006DFF" stop-opacity="0"/>
</linearGradient>
<clipPath id="clip0_1_988">
<rect width="253" height="28" fill="white" transform="translate(0.5 0.5)"/>
</clipPath>
</defs>
</svg>
