<svg width="87" height="28" viewBox="0 0 87 28" fill="none" xmlns="http://www.w3.org/2000/svg">
<mask id="mask0_1_280" style="mask-type:luminance" maskUnits="userSpaceOnUse" x="0" y="0" width="87" height="28">
<path d="M87 0H0V28H87V0Z" fill="white"/>
</mask>
<g mask="url(#mask0_1_280)">
<path d="M14.0146 28C21.7546 28 28.0292 21.732 28.0292 14C28.0292 6.26801 21.7546 0 14.0146 0C6.27454 0 0 6.26801 0 14C0 21.732 6.27454 28 14.0146 28Z" fill="url(#paint0_linear_1_280)"/>
<path d="M14.0146 28C21.7546 28 28.0292 21.732 28.0292 14C28.0292 6.26801 21.7546 0 14.0146 0C6.27454 0 0 6.26801 0 14C0 21.732 6.27454 28 14.0146 28Z" fill="url(#paint1_linear_1_280)"/>
<path d="M6.35745 2.39061C1.69812 6.62449 2.20377 14.2528 7.48827 19.4272C12.7709 24.6015 20.8301 25.3656 25.4912 21.1299C26.0193 20.65 26.4811 20.1266 26.8771 19.5682C27.6184 17.8617 28.0294 15.9788 28.0294 14C28.0294 6.26801 21.7548 0 14.0148 0C11.4097 0 8.97054 0.710072 6.88082 1.94704C6.70203 2.08826 6.52748 2.23611 6.35745 2.39061Z" fill="url(#paint2_radial_1_280)"/>
<path d="M7.30883 2.38977C5.10354 5.74493 7.67177 10.959 13.0459 14.0325C18.42 17.1079 24.5623 16.8797 26.7695 13.5227C27.3928 12.5747 27.6352 11.4786 27.5412 10.3244C25.9252 4.37543 20.4814 0 14.0146 0C12.0617 0 10.202 0.399043 8.51295 1.11996C8.03726 1.47616 7.63099 1.89962 7.30883 2.38977Z" fill="url(#paint3_linear_1_280)"/>
<path d="M70.9998 20.0916C71.8285 20.9244 72.8076 21.5794 73.9371 22.0594C75.0666 22.5394 76.3227 22.7913 77.6765 22.7966C78.6793 22.7966 79.6584 22.6455 80.5873 22.3167C81.5163 22.0117 82.3686 21.5847 83.1472 21.0039C83.9019 20.4496 84.5537 19.7681 85.1053 18.9858C85.6568 18.2061 86.058 17.3469 86.3087 16.3895H82.3687C82.1945 16.843 81.9438 17.2461 81.6165 17.5988C81.2893 17.9515 80.9145 18.2539 80.487 18.482C80.0595 18.7339 79.6347 18.9354 79.157 19.0627C78.6794 19.1874 78.1779 19.2643 77.6765 19.2643C76.8241 19.2643 76.0456 19.1131 75.3674 18.8108C74.6628 18.535 74.061 18.1319 73.5596 17.6015C73.0582 17.0711 72.6835 16.4664 72.4064 15.7849C72.132 15.106 72.0053 14.3475 72.0053 13.5413C72.0053 12.7352 72.1293 11.9794 72.4064 11.2978C72.6809 10.6163 73.0582 10.0116 73.5596 9.48119C74.0637 8.9508 74.6654 8.54773 75.3674 8.24541C76.0456 7.96696 76.8241 7.81576 77.6765 7.81576C78.1779 7.81576 78.6794 7.89002 79.157 8.01731C79.6347 8.14196 80.0595 8.34353 80.487 8.57159C80.9145 8.82353 81.2893 9.12583 81.6165 9.47854C81.9411 9.83125 82.1918 10.2344 82.3687 10.6878H86.3087C86.058 9.73049 85.6568 8.84742 85.1053 8.0651C84.5537 7.28277 83.8993 6.62771 83.1472 6.04694C82.3686 5.49003 81.5163 5.06308 80.5873 4.73423C79.6584 4.43191 78.6793 4.28076 77.6765 4.28076C76.3201 4.28076 75.0666 4.50615 73.9371 4.98616C72.8076 5.46616 71.8285 6.12117 70.9998 6.95388C70.1712 7.78659 69.5194 8.7705 69.0417 9.90553C68.5667 11.0406 68.3398 12.2498 68.3398 13.536C68.3398 14.8222 68.564 16.0315 69.0417 17.1665C69.5194 18.3016 70.1712 19.2589 70.9998 20.0916Z" fill="#006DFF"/>
<path fill-rule="evenodd" clip-rule="evenodd" d="M47.9333 12.8322C47.4064 12.3512 46.7557 11.9738 46.0286 11.6948C45.2778 11.4184 44.477 11.2908 43.5997 11.2882H38.5074V8.054H48.1335V4.56738H34.8508V22.5106H43.5997C44.4743 22.5106 45.2778 22.3592 46.0286 22.0801C46.7557 21.8038 47.4064 21.4237 47.9333 20.9188C48.4602 20.4378 48.8844 19.8319 49.211 19.1489C49.5114 18.4686 49.6615 17.7352 49.6615 16.9007C49.6615 16.0663 49.5114 15.3089 49.211 14.6259C48.8844 13.943 48.4602 13.3371 47.9333 12.8322ZM43.5497 14.6525C44.3268 14.6525 44.9512 14.8545 45.4281 15.2345C45.9049 15.6119 46.1288 16.1673 46.1288 16.9007C46.1288 17.6342 45.9049 18.163 45.4281 18.543C44.9512 18.9231 44.3268 19.125 43.5497 19.125H38.5074V14.6525H43.5497Z" fill="#006DFF"/>
<path d="M56.4862 22.5106H52.9834V4.56738H56.4862V12.1731L62.7164 4.56738H67.0712L59.9653 13.1856L68.5536 22.5106H63.9799L56.4862 14.3735V22.5106Z" fill="#006DFF"/>
</g>
<defs>
<linearGradient id="paint0_linear_1_280" x1="13.6642" y1="27.65" x2="13.8694" y2="1.60188" gradientUnits="userSpaceOnUse">
<stop stop-color="#1E66E6"/>
<stop offset="0.479167" stop-color="#8CB4F2"/>
<stop offset="1" stop-color="#F1F7FE"/>
</linearGradient>
<linearGradient id="paint1_linear_1_280" x1="25.927" y1="20.3" x2="11.2229" y2="9.08525" gradientUnits="userSpaceOnUse">
<stop stop-color="#4D87EA"/>
<stop offset="1" stop-color="#7EAAF0" stop-opacity="0"/>
</linearGradient>
<radialGradient id="paint2_radial_1_280" cx="0" cy="0" r="1" gradientUnits="userSpaceOnUse" gradientTransform="translate(30.614 17.2935) rotate(-152.977) scale(33.3597 68.7407)">
<stop offset="0.103242" stop-color="#4382EF"/>
<stop offset="0.459935" stop-color="#7EAAF0"/>
<stop offset="0.630708" stop-color="#B2CDF6"/>
<stop offset="0.794216" stop-color="#F0F6FD"/>
</radialGradient>
<linearGradient id="paint3_linear_1_280" x1="26.2504" y1="4.89294" x2="6.3074" y2="7.70573" gradientUnits="userSpaceOnUse">
<stop stop-color="#9CBFF4"/>
<stop offset="0.476252" stop-color="#CCE0FD"/>
<stop offset="0.770833" stop-color="#E9F2FE"/>
<stop offset="1" stop-color="#F1F7FE"/>
</linearGradient>
</defs>
</svg>
