<svg width="70" height="24" viewBox="0 0 70 24" fill="none" xmlns="http://www.w3.org/2000/svg">
<path fill-rule="evenodd" clip-rule="evenodd" d="M4.75 4C2.12665 4 0 6.12665 0 8.75V16.0643C0 18.6876 2.12665 20.8143 4.75 20.8143H13.0214C15.6084 20.8143 17.7124 18.7461 17.7702 16.173L20.6899 18.4439C21.8394 19.3379 23.5143 18.5188 23.5143 17.0625V7.75178C23.5143 6.29552 21.8394 5.47636 20.6899 6.37042L17.7702 8.64128C17.7124 6.06814 15.6084 4 13.0214 4H4.75ZM17.7714 10.5406V14.2737L21.6108 17.2598C21.775 17.3876 22.0143 17.2705 22.0143 17.0625V7.75178C22.0143 7.54374 21.775 7.42672 21.6108 7.55444L17.7714 10.5406ZM16.2714 9.807V8.75C16.2714 6.95508 14.8164 5.5 13.0214 5.5H4.75C2.95508 5.5 1.5 6.95508 1.5 8.75V16.0643C1.5 17.8592 2.95508 19.3143 4.75 19.3143H13.0214C14.8164 19.3143 16.2714 17.8592 16.2714 16.0643V15.0073V14.6405V10.1738V9.807Z" fill="#007AFF"/>
<path d="M54.8793 6.23916L52.796 3.89549C52.3059 3.34418 51.5336 3.0864 50.9018 3.46718C50.5667 3.66917 50.2487 3.91304 49.9546 4.17368C48.4855 5.4756 48.1707 7.58299 48.87 9.4172C49.6023 11.3379 50.8797 13.8797 53 16C56.3395 19.3395 60 21 63 21C64.8955 21 66.292 20.0643 66.7953 18.932C67.0421 18.3768 66.7238 17.7791 66.2494 17.3995L63.2494 14.9995C62.519 14.4152 61.481 14.4152 60.7506 14.9995L60.0374 15.5701C59.7137 15.829 59.2621 15.8629 58.9101 15.644C56.603 14.2092 55.4738 12.948 54.2745 10.5625C54.1026 10.2206 54.1517 9.81034 54.3908 9.5115L54.9462 8.81728C55.5549 8.05636 55.5266 6.96748 54.8793 6.23916Z" stroke="#007AFF" stroke-width="1.5"/>
</svg>
