<svg width="17" height="17" viewBox="0 0 17 17" fill="none" xmlns="http://www.w3.org/2000/svg">
<g clip-path="url(#clip0_248_183)">
<path d="M16.4706 8.5C16.4706 9.14 15.6843 9.6675 15.5268 10.2575C15.3643 10.8675 15.7756 11.7175 15.4668 12.2513C15.1531 12.7938 14.2093 12.8588 13.7693 13.2987C13.3293 13.7387 13.2643 14.6825 12.7218 14.9963C12.1881 15.305 11.3381 14.8937 10.7281 15.0562C10.1381 15.2137 9.61058 16 8.97058 16C8.33058 16 7.80308 15.2137 7.21308 15.0562C6.60308 14.8937 5.75308 15.305 5.21933 14.9963C4.67683 14.6825 4.61183 13.7387 4.17183 13.2987C3.73183 12.8588 2.78808 12.7938 2.47433 12.2513C2.16558 11.7175 2.57683 10.8675 2.41433 10.2575C2.25683 9.6675 1.47058 9.14 1.47058 8.5C1.47058 7.86 2.25683 7.3325 2.41433 6.7425C2.57683 6.1325 2.16558 5.2825 2.47433 4.74875C2.78808 4.20625 3.73183 4.14125 4.17183 3.70125C4.61183 3.26125 4.67683 2.3175 5.21933 2.00375C5.75308 1.695 6.60308 2.10625 7.21308 1.94375C7.80308 1.78625 8.33058 1 8.97058 1C9.61058 1 10.1381 1.78625 10.7281 1.94375C11.3381 2.10625 12.1881 1.695 12.7218 2.00375C13.2643 2.3175 13.3293 3.26125 13.7693 3.70125C14.2093 4.14125 15.1531 4.20625 15.4668 4.74875C15.7756 5.2825 15.3643 6.1325 15.5268 6.7425C15.6843 7.3325 16.4706 7.86 16.4706 8.5Z" fill="#2568EF"/>
<path d="M11.1381 6.26499L8.28306 9.11999L6.80306 7.64124C6.48181 7.31999 5.96056 7.31999 5.63931 7.64124C5.31806 7.96249 5.31806 8.48374 5.63931 8.80499L7.71556 10.8812C8.02806 11.1937 8.53556 11.1937 8.84806 10.8812L12.3006 7.42874C12.6218 7.10749 12.6218 6.58624 12.3006 6.26499C11.9793 5.94374 11.4593 5.94374 11.1381 6.26499Z" fill="#FFFCEE"/>
</g>
<defs>
<clipPath id="clip0_248_183">
<rect width="16" height="16" fill="white" transform="translate(0.970581 0.5)"/>
</clipPath>
</defs>
</svg>
