<svg width="201" height="77" viewBox="0 0 201 77" fill="none" xmlns="http://www.w3.org/2000/svg">
<g clip-path="url(#clip0_1_14)">
<path d="M43.431 44.2162C43.2562 41.5153 39.6275 40.33 37.4171 41.6708V40.4855H36.4992V41.6708C34.2839 40.3153 30.6697 41.5153 30.49 44.2162C30.2227 47.466 33.9535 48.5493 36.4992 47.2815C36.4992 47.2815 36.4992 49.9386 35.9695 51.0365C36.5477 51.0365 37.4707 51.0365 37.937 51.0365C37.3492 49.9534 37.4026 47.2815 37.4026 47.2815C39.9627 48.559 43.6887 47.4759 43.431 44.2162ZM36.4992 46.3974C35.134 47.8548 31.9375 47.437 31.4519 45.3773C30.7086 42.375 34.0702 40.6797 36.4992 42.5402V46.3974ZM42.4595 45.3773C41.9739 47.437 38.7726 47.85 37.4074 46.3974V42.5402C39.8316 40.6797 43.2028 42.375 42.4595 45.3773Z" fill="#002B50"/>
<path d="M36.9461 51.9355C35.1001 49.2735 35.0371 42.9632 32.8607 39.8445H31.4033C33.157 41.569 32.9385 50.4539 30.4854 51.5032L32.7003 51.4692C33.4048 49.1324 33.4485 43.0166 33.1329 41.3261C34.7748 45.0374 34.6678 49.764 36.9657 53.2715L36.9461 51.9355Z" fill="#002B50"/>
<path d="M36.9461 51.9355C38.7921 49.2735 38.8554 42.9632 41.0315 39.8445H42.4889C40.7352 41.569 40.9637 50.4539 43.4119 51.5032L41.2307 51.4499C40.5263 49.1131 40.4778 42.9972 40.7985 41.3065C39.1565 45.0181 39.2633 49.7446 36.9609 53.2519V51.9355H36.9461Z" fill="#002B50"/>
<path d="M37.1547 2.35638C37.3159 2.36091 37.4762 2.33332 37.6264 2.27523C37.7769 2.21714 37.9141 2.1297 38.0302 2.01802C38.1464 1.90634 38.2394 1.77265 38.3032 1.62474C38.3672 1.47683 38.4013 1.31766 38.403 1.1565C38.3835 0.843268 38.2452 0.549309 38.0162 0.334455C37.7875 0.119599 37.4854 0 37.1715 0C36.8577 0 36.5558 0.119599 36.327 0.334455C36.0981 0.549309 35.9598 0.843268 35.9403 1.1565C35.9453 1.47566 36.0752 1.78011 36.3024 2.00445C36.5293 2.2288 36.8356 2.35515 37.1547 2.35638Z" fill="#002B50"/>
<path d="M28.5122 8.96281C28.6561 8.96088 28.7963 8.91658 28.9153 8.83547C29.0345 8.75432 29.127 8.63996 29.1813 8.5066C29.2357 8.37325 29.2497 8.22683 29.2215 8.08558C29.1933 7.94434 29.1242 7.81455 29.0225 7.71237C28.9211 7.61018 28.7918 7.54014 28.6507 7.51099C28.5097 7.48184 28.3631 7.49488 28.2294 7.54845C28.0957 7.60202 27.9808 7.69376 27.8988 7.81224C27.8169 7.93074 27.7717 8.07071 27.7689 8.2147C27.7681 8.31272 27.7869 8.4099 27.824 8.50062C27.8611 8.59137 27.9158 8.67389 27.9849 8.74342C28.0538 8.81295 28.1361 8.86812 28.2266 8.90578C28.3171 8.94345 28.4141 8.96281 28.5122 8.96281Z" fill="#002B50"/>
<path d="M58.718 11.0133C58.7472 10.4644 59.4466 9.09932 58.5624 8.84187C55.2544 7.89945 54.1904 7.50596 51.9899 5.25678C51.8102 5.07729 51.5927 4.94047 51.353 4.85637C51.1134 4.77228 50.858 4.74311 50.6054 4.77101C49.7553 4.87787 49.1482 5.59198 49.3909 6.1992C49.548 6.5949 49.7312 6.97953 49.9398 7.3505C49.969 7.3505 52.8837 12.5921 47.919 13.6268V13.3645C47.9228 13.2244 47.9762 13.0901 48.0697 12.9856C48.3172 12.7364 48.5373 12.4612 48.7256 12.1646C48.8936 11.8981 48.9919 11.5937 49.0115 11.2793C49.0313 10.9649 48.9716 10.6506 48.8382 10.3652C48.7048 10.0799 48.5017 9.83269 48.2476 9.64629C47.9937 9.45988 47.6969 9.34029 47.3848 9.29848C47.2359 9.26593 47.0849 9.24481 46.933 9.23533C46.8778 9.98845 46.7142 10.7296 46.4471 11.4359C46.3403 11.6497 46.2189 11.6497 46.0488 11.6497H45.5192C45.3347 11.6497 45.2326 11.6497 45.1258 11.4359C44.8661 10.7274 44.7027 9.9873 44.6399 9.23533C44.4865 9.24448 44.3337 9.2656 44.1835 9.29848C43.8717 9.341 43.5754 9.4611 43.322 9.64779C43.0687 9.83447 42.8664 10.0818 42.7335 10.367C42.6003 10.6523 42.5411 10.9663 42.5612 11.2804C42.581 11.5944 42.6796 11.8985 42.8476 12.1646C43.0298 12.464 43.2486 12.7398 43.4984 12.9856C43.5477 13.0355 43.5863 13.0947 43.612 13.1598C43.6379 13.2249 43.6506 13.2945 43.6491 13.3645V13.5588C41.5698 13.4374 40.676 11.1299 40.7053 10.4449V9.61424C40.7078 9.38156 40.8 9.15884 40.9627 8.99246C41.3683 8.57589 41.7297 8.11843 42.0412 7.6274C42.3215 7.18524 42.4859 6.67948 42.5192 6.15693C42.5523 5.63439 42.4532 5.1119 42.2308 4.63782C42.0087 4.16374 41.6704 3.75338 41.2476 3.44466C40.8244 3.13594 40.3307 2.93884 39.8115 2.8716C39.5812 2.82163 39.3472 2.79076 39.1119 2.7793C39.1119 2.7793 38.8544 5.16448 38.2278 6.42268C38.0626 6.77244 37.8633 6.77244 37.5767 6.77244H36.7266C36.4399 6.77244 36.241 6.77244 36.0758 6.42268C35.4684 5.16448 35.1917 2.7793 35.1917 2.7793C34.9645 2.79208 34.7386 2.82293 34.5164 2.8716C34.0021 2.94367 33.5136 3.14306 33.0959 3.4517C32.6781 3.76034 32.3441 4.16842 32.1241 4.63892C31.904 5.10941 31.8049 5.62743 31.8359 6.14593C31.8669 6.66443 32.0267 7.16697 32.3012 7.60796C32.6117 8.09968 32.9731 8.55724 33.3797 8.97302C33.5424 9.1394 33.6346 9.36214 33.6372 9.59483V10.4012C33.6372 11.0716 32.7579 13.3936 30.6933 13.5151V13.3305C30.6971 13.1904 30.7505 13.0561 30.8438 12.9516C31.0895 12.7019 31.3078 12.4267 31.4948 12.1306C31.6585 11.8639 31.753 11.5606 31.7698 11.2481C31.7868 10.9356 31.7253 10.6239 31.5912 10.3412C31.457 10.0585 31.2544 9.81368 31.0018 9.62906C30.7492 9.44443 30.4544 9.3258 30.1444 9.28392C29.994 9.25104 29.8412 9.22992 29.6877 9.22077C29.6326 9.97386 29.4689 10.7151 29.2018 11.4214C29.1716 11.4974 29.1157 11.5604 29.0438 11.5995C28.9718 11.6385 28.8887 11.6511 28.8084 11.6351H28.2692C28.0847 11.6351 27.9777 11.6351 27.871 11.4214C27.6112 10.7129 27.4478 9.97274 27.3851 9.22077C27.2331 9.23023 27.0821 9.25134 26.9332 9.28392C26.6211 9.32573 26.3243 9.44532 26.0704 9.6317C25.8164 9.8181 25.6134 10.0653 25.4799 10.3507C25.3464 10.636 25.2868 10.9503 25.3065 11.2647C25.3261 11.5791 25.4245 11.8836 25.5926 12.15C25.7777 12.4515 26.0013 12.7275 26.258 12.971C26.3073 13.0209 26.3459 13.0802 26.3716 13.1452C26.3975 13.2103 26.4102 13.2799 26.4087 13.3499V13.6122C21.4003 12.5872 24.3149 7.30679 24.3635 7.32136C24.5722 6.9504 24.7556 6.56575 24.9125 6.17007C25.1553 5.56283 24.5481 4.84873 23.698 4.74186C23.4455 4.71289 23.1898 4.74156 22.95 4.8257C22.7102 4.90984 22.4926 5.04728 22.3135 5.22763C20.1129 7.49139 19.0491 7.8703 15.7555 8.81272C14.8762 9.07017 15.5563 10.4352 15.6049 10.9842C15.6632 12.0335 15.7263 12.4707 12.5833 14.4478C16.2995 13.8697 17.4411 13.6851 17.9852 16.6484C18.6586 15.7593 19.0221 14.6741 19.0199 13.5588C19.0409 12.389 18.6717 11.2456 17.9706 10.3089C17.9706 10.3089 17.9706 10.3089 17.9706 10.2798C17.8664 10.1277 17.796 9.95503 17.764 9.77345C17.7321 9.59188 17.7394 9.40555 17.7854 9.22702C17.8314 9.04847 17.9151 8.88186 18.0308 8.73833C18.1466 8.59482 18.2917 8.47772 18.4564 8.39495C20.2975 7.5011 23.5134 5.90773 23.1491 7.5594C22.8767 8.56466 22.7443 9.60268 22.7556 10.6441C22.8187 11.538 22.9062 12.1938 23.392 12.7524C23.7809 13.148 24.2559 13.4485 24.78 13.6306C25.3041 13.8126 25.8631 13.8711 26.4135 13.8017H29.7119C29.9988 13.8438 30.29 13.8438 30.5767 13.8017H30.6837C31.6989 13.6365 33.3261 12.9224 34.8565 10.4012H39.5053C41.0405 12.937 42.6628 13.6511 43.6831 13.8017H43.7899C44.0768 13.8431 44.3678 13.8431 44.6547 13.8017H47.9482C48.4987 13.8704 49.0575 13.8114 49.5815 13.6295C50.1053 13.4475 50.5805 13.1474 50.9698 12.7524C51.4555 12.1938 51.548 11.538 51.6061 10.6441C51.6189 9.60738 51.4865 8.57401 51.2128 7.57396C50.8483 5.92232 54.0692 7.51566 55.9053 8.40951C56.0717 8.49045 56.2189 8.60662 56.336 8.74997C56.4532 8.8933 56.5375 9.06039 56.5838 9.23965C56.63 9.41892 56.6366 9.60608 56.6034 9.78819C56.5703 9.9703 56.4976 10.143 56.3912 10.2943C56.3912 10.2943 56.3912 10.2943 56.3912 10.3235C55.6971 11.258 55.3302 12.3949 55.3467 13.5588C55.3495 14.677 55.7103 15.7649 56.3764 16.6629C56.9256 13.6997 58.0623 13.8843 61.7833 14.4623C58.5772 12.4998 58.6549 12.0626 58.718 11.0133Z" fill="#002B50"/>
<path d="M45.7771 8.96281C45.9212 8.96088 46.0615 8.91658 46.1804 8.83547C46.2993 8.75432 46.3918 8.63996 46.4462 8.5066C46.5008 8.37325 46.5148 8.22683 46.4866 8.08558C46.4581 7.94434 46.389 7.81455 46.2876 7.71237C46.186 7.61018 46.0566 7.54014 45.9156 7.51099C45.7745 7.48184 45.6282 7.49488 45.4945 7.54845C45.3606 7.60202 45.2457 7.69376 45.1639 7.81224C45.0818 7.93074 45.0368 8.07071 45.0338 8.2147C45.0325 8.3129 45.0508 8.41036 45.0876 8.50139C45.1245 8.59242 45.1791 8.67519 45.2482 8.74487C45.3176 8.81453 45.4 8.86967 45.4907 8.9071C45.5814 8.94454 45.6787 8.96347 45.7771 8.96281Z" fill="#002B50"/>
<path d="M20.4782 21.0249C22.7711 20.5974 26.8225 21.9965 28.5422 23.4101C32.0885 26.2957 32.822 32.1104 29.3729 36.8761H44.5292C41.0852 32.1104 41.843 26.2957 45.3648 23.4101C47.0992 21.9965 51.1358 20.5974 53.4288 21.0249C53.5066 21.0249 54.9638 16.104 45.5348 16.104H39.7056C39.7056 16.104 42.5472 18.5766 40.949 21.0687C37.8207 25.0764 37.1114 28.4039 36.9706 32.0814C36.8199 28.4039 36.1203 25.0764 32.992 21.0687C31.4133 18.596 34.2405 16.104 34.2405 16.104H28.411C18.9723 16.104 20.4005 21.0395 20.4782 21.0249Z" fill="#002B50"/>
<path d="M12.472 48.9382C14.6143 48.6223 18.214 47.3593 21.7504 44.5661C21.7504 44.5661 19.8073 48.4086 11.549 51.9013C14.8718 53.0088 17.4075 52.1735 18.9718 51.1387C20.8857 49.8175 21.799 49.1956 24.9857 45.7951C23.4361 48.666 22.5568 50.3809 17.9079 53.9951C17.9079 53.9951 20.1571 54.8015 23.1349 53.2518C23.8325 52.9041 24.4415 52.4017 24.9154 51.7829C25.3894 51.1641 25.7158 50.4454 25.8699 49.6813C26.1856 47.7382 28.6291 47.6945 28.7506 49.8513C28.7506 49.8513 28.7506 40.5875 28.7506 38.0955C26.1856 41.1461 22.7074 39.5237 21.9496 37.1239C21.9496 37.1239 21.0995 34.0586 23.8927 32.5819C23.8927 32.5819 24.9274 32.096 23.6207 31.3674C23.6207 31.3674 11.5927 23.3034 6.35116 10.4788C6.35116 10.4788 2.8924 16.5073 6.70092 21.8363C9.93624 25.9994 12.8849 29.1232 15.6636 31.144C15.6636 31.144 10.6358 31.2215 2.20744 21.1854C2.20744 21.1854 0.463488 26.665 4.63634 29.9926C7.78483 32.725 11.6378 34.5176 15.7559 35.1661C15.7559 35.1661 7.94938 37.2307 0.512066 29.7303C0.512066 29.7303 0.0262849 35.4673 5.21929 37.6388C7.3033 38.5229 11.0973 39.4945 16.7177 39.203C16.7177 39.203 9.9168 42.3946 0.847255 38.5374C1.33304 42.6375 4.97639 44.2599 7.95423 44.1532C11.629 44.2175 15.2902 43.6894 18.7969 42.589C18.7969 42.589 14.148 46.1885 4.70922 46.7229C7.26442 49.7298 10.9272 49.1664 12.472 48.9382Z" fill="#002B50"/>
<path d="M57.1638 39.1884C62.7989 39.4751 66.5783 38.5035 68.6622 37.6242C73.865 35.4529 73.3793 29.7109 73.3793 29.7109C65.9516 37.1968 58.145 35.1467 58.145 35.1467C62.2688 34.4995 66.1272 32.705 69.2792 29.9683C73.4667 26.6456 71.7082 21.1612 71.7082 21.1612C63.2797 31.1973 58.252 31.1246 58.252 31.1246C61.0355 29.1038 63.9841 25.9752 67.2195 21.8169C71.0281 16.4734 67.5691 10.4594 67.5691 10.4594C62.3277 23.2597 50.2998 31.348 50.2998 31.348C48.993 32.0913 50.0276 32.5625 50.0276 32.5625C52.8063 34.0199 51.9709 37.0997 51.9709 37.0997C51.2276 39.4995 47.8078 41.1122 45.2428 38.1635V49.3607C45.6703 47.7043 47.7641 47.8743 48.0505 49.6669C48.2022 50.4311 48.5277 51.1505 49.0019 51.7688C49.4764 52.3871 50.0866 52.888 50.7854 53.2324C53.7633 54.782 56.0078 53.9757 56.0078 53.9757C51.3636 50.347 50.4843 48.6321 48.9346 45.7757C52.1069 49.1762 53.0202 49.8029 54.9486 51.1193C56.513 52.1493 59.0487 52.9846 62.3714 51.8771C54.1132 48.3843 52.1699 44.5419 52.1699 44.5419C55.7115 47.335 59.2916 48.5981 61.4484 48.9139C63.0126 49.1566 66.6609 49.7203 69.221 46.7132C59.7628 46.1838 55.1333 42.5841 55.1333 42.5841C58.6294 43.6812 62.2779 44.2141 65.942 44.163C68.9051 44.2697 72.563 42.6278 73.0197 38.5279C63.9552 42.3899 57.1638 39.1884 57.1638 39.1884Z" fill="#002B50"/>
<path d="M56.4835 59.6302C56.7206 59.6302 56.9526 59.5598 57.1501 59.4282C57.3473 59.2963 57.5011 59.1087 57.592 58.8897C57.6828 58.6704 57.7066 58.4289 57.6601 58.1964C57.6139 57.9636 57.4995 57.7496 57.3318 57.5819C57.1641 57.4142 56.9504 57.2998 56.7176 57.2536C56.4848 57.2073 56.2434 57.231 56.0243 57.3219C55.805 57.4127 55.6177 57.5664 55.4858 57.7639C55.3539 57.9611 55.2835 58.1931 55.2835 58.4305C55.2835 58.7486 55.4098 59.0538 55.635 59.2787C55.8599 59.5039 56.1651 59.6302 56.4835 59.6302Z" fill="#002B50"/>
<path d="M58.7334 60.3831C58.4521 60.7025 58.1059 60.9582 57.7181 61.1333C57.3303 61.3086 56.9097 61.3994 56.4841 61.3994C56.0587 61.3994 55.6378 61.3086 55.25 61.1333C54.8622 60.9582 54.5163 60.7025 54.235 60.3831C53.6091 60.8576 53.1468 61.5155 52.9125 62.2654C52.6782 63.0151 52.6838 63.8192 52.9283 64.5656C50.4119 63.8128 47.5847 62.9188 49.2704 60.1013C51.6993 55.6565 47.128 52.7368 45.2627 52.7516C46.0739 59.7079 37.5191 52.7516 37.0043 58.8578C36.4846 52.7516 27.9494 59.6835 28.7461 52.7661C27.2887 53.0428 23.3247 54.2573 24.204 58.9793C24.7286 60.349 26.0986 62.6565 23.7911 63.5651C19.9048 65.576 20.7549 63.1861 17.9617 63.7302L11.8409 57.6578C11.8888 57.3346 11.8267 57.0047 11.6646 56.7211C11.5025 56.4375 11.2498 56.2164 10.947 56.0936C11.1592 55.5963 11.2175 55.0469 11.1145 54.516C11.0114 53.9854 10.7518 53.4977 10.3689 53.1157L9.33907 54.1651C8.00316 53.072 6.10375 54.9325 7.1482 56.288L6.08919 57.3518C6.47503 57.7381 6.96871 57.9988 7.5054 58.0992C8.04207 58.1999 8.59663 58.1358 9.09618 57.9152C9.21308 58.2245 9.43158 58.4845 9.7158 58.6532C10 58.8217 10.3331 58.8888 10.6604 58.8431L16.7764 64.93C16.6302 65.3119 16.5979 65.7282 16.6831 66.1282C16.7684 66.5285 16.9677 66.8952 17.2569 67.1844C17.5462 67.4736 17.913 67.6731 18.313 67.7582C18.7131 67.8436 19.1293 67.811 19.5113 67.6649C19.8951 67.9371 21.0173 69.4428 21.5613 69.3506C23.5579 68.9717 21.4107 67.1404 20.7549 66.5427C22.12 64.4685 26.8175 65.6248 27.1042 64.1577C26.3026 63.3851 25.2193 59.1541 29.5621 58.3867C30.728 58.2504 34.3568 58.7363 33.5456 62.1368C33.4645 62.4019 33.3156 62.6413 33.1138 62.8314C32.9118 63.0212 32.6637 63.1551 32.3944 63.2199C27.0508 64.8814 23.0235 70.1376 28.095 71.6921C29.188 67.2131 30.6795 66.5623 34.3082 65.0855C32.5156 66.6205 27.1623 72.6781 32.6518 73.9704C32.9237 70.9051 33.6233 69.0349 35.7657 66.6837C35.3382 70.2057 33.1618 74.699 36.9024 76.239C40.5311 74.9663 38.5247 70.1958 38.1021 66.6837C40.2444 69.0543 40.944 70.9246 41.216 73.9704C46.7054 72.6492 41.3667 66.6352 39.5596 65.0855C43.1883 66.5427 44.6798 67.2131 45.7728 71.6921C50.8393 70.128 46.8803 64.8911 41.5026 63.2199C41.2315 63.1574 40.9819 63.0243 40.7789 62.8339C40.5758 62.6438 40.4266 62.4032 40.3466 62.1368C39.5451 58.7363 43.1641 58.2504 44.3346 58.4156C48.7067 59.2027 47.5847 63.4047 46.7977 64.1867C46.8269 65.0659 48.0704 64.9008 48.0704 64.9008C49.863 64.9592 53.8416 66.1152 53.8416 66.1152C57.5626 69.7732 62.9014 63.4436 58.7334 60.3831Z" fill="#002B50"/>
<path d="M112.538 32.7213L112.519 19.5398H110.975L105.551 28.8047L100.053 19.5398H98.5086V32.7213H100.317V23.1742L105.081 31.1208H105.947L110.711 23.1177L110.73 32.7213H112.538ZM116.339 32.7213H117.997L124.098 25.4527V32.7213H125.906V22.741H124.267L118.147 30.0098V22.741H116.339V32.7213ZM129.414 32.7213H131.222V28.5409H136.909V32.7213H138.717V22.741H136.909V26.978H131.222V22.741H129.414V32.7213ZM154.83 27.7124C154.83 24.6241 152.645 22.854 148.936 22.6469V18.7489H147.166V22.6469C143.418 22.8352 141.29 24.6241 141.29 27.7124C141.29 30.8382 143.437 32.6461 147.166 32.8532V36.3747H148.936V32.8532C152.664 32.6461 154.83 30.8194 154.83 27.7124ZM143.079 27.7124C143.079 25.641 144.416 24.4358 147.166 24.2475V31.2527C144.435 31.0644 143.079 29.8403 143.079 27.7124ZM148.936 31.2715V24.2475C151.666 24.4358 153.041 25.6222 153.041 27.7124C153.041 29.8591 151.666 31.0644 148.936 31.2715ZM157.385 32.7213H159.042L165.143 25.4527V32.7213H166.951V22.741H165.313L159.193 30.0098V22.741H157.385V32.7213ZM170.46 32.7213H172.268V28.5409H177.955V32.7213H179.763V22.741H177.955V26.978H172.268V22.741H170.46V32.7213ZM103.649 44.9528H98.5086V58.1343H100.392V54.1422H103.649C107.077 54.1422 109.148 52.4098 109.148 49.5475C109.148 46.6852 107.077 44.9528 103.649 44.9528ZM103.593 52.504H100.392V46.591H103.593C106.003 46.591 107.265 47.6644 107.265 49.5475C107.265 51.4306 106.003 52.504 103.593 52.504ZM115.704 58.2474C118.698 58.2474 120.882 56.1195 120.882 53.1442C120.882 50.1688 118.698 48.0598 115.704 48.0598C112.71 48.0598 110.507 50.1688 110.507 53.1442C110.507 56.1195 112.71 58.2474 115.704 58.2474ZM115.704 56.6657C113.783 56.6657 112.333 55.272 112.333 53.1442C112.333 51.0164 113.783 49.6415 115.704 49.6415C117.625 49.6415 119.056 51.0164 119.056 53.1442C119.056 55.272 117.625 56.6657 115.704 56.6657ZM127.843 58.2474C129.632 58.2474 131.12 57.4941 131.91 56.1007L130.536 55.2344C129.895 56.2136 128.916 56.6657 127.824 56.6657C125.866 56.6657 124.397 55.3096 124.397 53.1442C124.397 51.0164 125.866 49.6415 127.824 49.6415C128.916 49.6415 129.895 50.0936 130.536 51.0728L131.91 50.1877C131.12 48.7943 129.632 48.0598 127.843 48.0598C124.773 48.0598 122.57 50.1688 122.57 53.1442C122.57 56.1195 124.773 58.2474 127.843 58.2474ZM138.454 58.2474C140.243 58.2474 141.73 57.4941 142.521 56.1007L141.146 55.2344C140.506 56.2136 139.527 56.6657 138.435 56.6657C136.476 56.6657 135.008 55.3096 135.008 53.1442C135.008 51.0164 136.476 49.6415 138.435 49.6415C139.527 49.6415 140.506 50.0936 141.146 51.0728L142.521 50.1877C141.73 48.7943 140.243 48.0598 138.454 48.0598C135.384 48.0598 133.181 50.1688 133.181 53.1442C133.181 56.1195 135.384 58.2474 138.454 58.2474ZM144.862 58.1343H146.519L152.62 50.8657V58.1343H154.428V48.1541H152.789L146.67 55.4227V48.1541H144.862V58.1343ZM157.937 58.1343H159.594L165.695 50.8657V58.1343H167.503V48.1541H165.864L159.744 55.4227V48.1541H157.937V58.1343Z" fill="#002B50"/>
</g>
<defs>
<clipPath id="clip0_1_14">
<rect width="200" height="76.2389" fill="white" transform="translate(0.5)"/>
</clipPath>
</defs>
</svg>
