<svg width="201" height="34" viewBox="0 0 201 34" fill="none" xmlns="http://www.w3.org/2000/svg">
<g clip-path="url(#clip0_1_28)">
<path d="M89.9276 9.90796L94.0951 6.7933H80.1387V25.4528H94.0951V22.3355H84.1251V17.573H92.6464V14.4583H84.1251V9.90796H89.9276Z" fill="#21A038"/>
<path d="M69.594 14.06H64.7591V9.90796H72.494L76.6641 6.7933H60.7726V25.4528H69.0792C73.7331 25.4528 76.4209 23.3134 76.4209 19.5882C76.4209 16.0157 74.0047 14.06 69.594 14.06ZM68.9292 22.3355H64.7591V17.1746H68.9292C71.467 17.1746 72.644 18.0309 72.644 19.7719C72.644 21.5129 71.3764 22.3355 68.9292 22.3355Z" fill="#21A038"/>
<path d="M105.394 6.7933H97.812V25.4528H101.798V20.1677H105.425C110.258 20.1677 113.279 17.604 113.279 13.4805C113.279 9.35694 110.258 6.7933 105.394 6.7933ZM105.304 17.053H101.77V9.90796H105.304C107.873 9.90796 109.262 11.1911 109.262 13.4805C109.262 15.7699 107.873 17.053 105.304 17.053Z" fill="#21A038"/>
<path d="M53.9433 21.4198C52.8878 22.0018 51.7082 22.3071 50.5001 22.3071C46.9043 22.3071 44.307 19.7098 44.307 16.1373C44.307 12.5647 46.9043 9.96746 50.5001 9.96746C51.7987 9.939 53.0689 10.3658 54.1244 11.129L56.9959 8.99219L56.8148 8.80852C55.154 7.31069 52.9163 6.54755 50.3785 6.54755C47.6312 6.54755 45.1219 7.49436 43.3111 9.20431C41.4976 10.9764 40.4706 13.4495 40.5301 16.0157C40.4991 18.6104 41.4976 21.1145 43.3111 22.946C45.2124 24.7491 47.7502 25.758 50.3501 25.6959C53.219 25.6959 55.7257 24.687 57.4175 22.8555L54.8513 20.9308L53.9433 21.4198Z" fill="#21A038"/>
<path d="M161.225 6.82435V25.4812H165.211V17.8472H173.702V25.4812H177.691V6.82435H173.702V14.4894H165.211V6.82435H161.225ZM154.367 25.4812H158.566L150.771 6.82435H146.723L138.778 25.4812H142.796L144.397 21.725H152.856L154.367 25.4812ZM145.605 18.6104L148.686 11.129L151.586 18.6104H145.605ZM186.634 17.9403H189.109L195.212 25.4528H200.347L192.19 15.801L199.32 6.7933H194.759L188.838 14.7946H186.634V6.7933H182.645V25.4528H186.634V17.9403ZM125.606 14.091V9.939H136.028V6.82435H121.617V25.4812H129.926C134.577 25.4812 137.267 23.3444 137.267 19.6193C137.267 16.0467 134.851 14.091 130.438 14.091H125.606ZM125.606 22.3666V17.2057H129.776C132.311 17.2057 133.491 18.0619 133.491 19.8029C133.491 21.5439 132.251 22.3976 129.776 22.3976H125.606V22.3666Z" fill="#21A038"/>
<path d="M28.0533 6.67169C28.7777 7.6185 29.383 8.65586 29.8952 9.7553L15.9388 20.1677L10.0768 16.4425V11.9852L15.9077 15.6793L28.0533 6.67169Z" fill="#21A038"/>
<path d="M4.12406 16.1373C4.12406 15.9225 4.12406 15.7415 4.15511 15.5267L0.621375 15.3431C0.621375 15.5888 0.590332 15.863 0.590332 16.1062C0.590332 20.3824 2.31322 24.2602 5.09157 27.0696L7.5983 24.5344C5.45374 22.3976 4.12406 19.4356 4.12406 16.1373Z" fill="url(#paint0_linear_1_28)"/>
<path d="M15.9074 4.22708C16.1195 4.22708 16.3006 4.22708 16.5127 4.25812L16.6938 0.685583C16.4506 0.685583 16.179 0.654541 15.9384 0.654541C11.7088 0.654541 7.87242 2.39554 5.09148 5.20493L7.5982 7.74012C9.7143 5.57228 12.6737 4.22708 15.9074 4.22708Z" fill="url(#paint1_linear_1_28)"/>
<path d="M15.9072 28.0474C15.6951 28.0474 15.514 28.0474 15.3019 28.0164L15.1208 31.5889C15.3639 31.5889 15.6356 31.62 15.8762 31.62C20.1058 31.62 23.9448 29.879 26.7231 27.0696L24.2164 24.5344C22.1003 26.7333 19.1693 28.0474 15.9072 28.0474Z" fill="url(#paint2_linear_1_28)"/>
<path d="M22.5535 6.30441L25.544 4.07449C22.9157 1.93769 19.563 0.623535 15.9077 0.623535V4.19607C18.386 4.22712 20.6806 4.99026 22.5535 6.30441Z" fill="url(#paint3_linear_1_28)"/>
<path d="M31.2558 16.1373C31.2558 15.1905 31.1652 14.2747 31.0126 13.3589L27.7195 15.832C27.7195 15.9226 27.7195 16.0467 27.7195 16.1373C27.7195 19.6503 26.2087 22.796 23.8236 24.9638L26.2087 27.6206C29.2923 24.8112 31.2558 20.6877 31.2558 16.1373Z" fill="#21A038"/>
<path d="M15.9078 28.0475C12.4336 28.0475 9.32153 26.5212 7.17697 24.1076L4.54866 26.5212C7.35806 29.6669 11.4066 31.62 15.9078 31.62V28.0475Z" fill="url(#paint4_linear_1_28)"/>
<path d="M8.02256 7.3107L5.63483 4.65393C2.52276 7.49437 0.590332 11.5869 0.590332 16.1373H4.12407C4.12407 12.6553 5.63483 9.48112 8.02256 7.3107Z" fill="url(#paint5_linear_1_28)"/>
</g>
<defs>
<linearGradient id="paint0_linear_1_28" x1="4.71474" y1="26.6352" x2="1.08545" y2="16.0969" gradientUnits="userSpaceOnUse">
<stop offset="0.1444" stop-color="#F2E913"/>
<stop offset="0.3037" stop-color="#E7E518"/>
<stop offset="0.5823" stop-color="#CADB26"/>
<stop offset="0.891" stop-color="#A3CD39"/>
</linearGradient>
<linearGradient id="paint1_linear_1_28" x1="6.09942" y1="4.80164" x2="15.2694" y2="1.29129" gradientUnits="userSpaceOnUse">
<stop offset="0.0592" stop-color="#0FA8E0"/>
<stop offset="0.5385" stop-color="#0099F9"/>
<stop offset="0.9234" stop-color="#0291EB"/>
</linearGradient>
<linearGradient id="paint2_linear_1_28" x1="14.9143" y1="28.5814" x2="25.8409" y2="26.1008" gradientUnits="userSpaceOnUse">
<stop offset="0.1226" stop-color="#A3CD39"/>
<stop offset="0.2846" stop-color="#86C339"/>
<stop offset="0.8693" stop-color="#21A038"/>
</linearGradient>
<linearGradient id="paint3_linear_1_28" x1="15.1816" y1="2.89987" x2="24.2685" y2="5.71631" gradientUnits="userSpaceOnUse">
<stop offset="0.0566" stop-color="#0291EB"/>
<stop offset="0.79" stop-color="#0C8ACB"/>
</linearGradient>
<linearGradient id="paint4_linear_1_28" x1="5.44724" y1="27.0863" x2="15.2097" y2="30.7506" gradientUnits="userSpaceOnUse">
<stop offset="0.1324" stop-color="#F2E913"/>
<stop offset="0.2977" stop-color="#EBE716"/>
<stop offset="0.5306" stop-color="#D9E01F"/>
<stop offset="0.8023" stop-color="#BBD62D"/>
<stop offset="0.9829" stop-color="#A3CD39"/>
</linearGradient>
<linearGradient id="paint5_linear_1_28" x1="3.29882" y1="16.569" x2="7.22189" y2="6.31736" gradientUnits="userSpaceOnUse">
<stop offset="0.0698" stop-color="#A3CD39"/>
<stop offset="0.2599" stop-color="#81C55F"/>
<stop offset="0.9216" stop-color="#0FA8E0"/>
</linearGradient>
<clipPath id="clip0_1_28">
<rect width="200" height="33.3333" fill="white" transform="translate(0.5 0.238892)"/>
</clipPath>
</defs>
</svg>
