<svg width="71" height="70" viewBox="0 0 71 70" fill="none" xmlns="http://www.w3.org/2000/svg">
<g clip-path="url(#clip0_1_52)">
<rect x="0.5" width="70" height="70" rx="35" fill="#FF6744"/>
<g clip-path="url(#clip1_1_52)">
<path fill-rule="evenodd" clip-rule="evenodd" d="M27.5138 31.4798C27.3847 31.4798 27.2739 31.4337 27.1817 31.3322L26.1021 30.2526C25.6776 29.8189 26.3235 29.1453 26.7664 29.5882L27.5231 30.3356L29.47 28.3795C29.9037 27.955 30.5773 28.6009 30.1344 29.0438L27.846 31.3322C27.7537 31.4245 27.6338 31.4798 27.5138 31.4798ZM48.3674 55H22.6326C21.756 55 21.0271 54.2803 21.0271 53.3945V21.1176C21.0271 20.2318 21.7468 19.5121 22.6326 19.5121H27.8737V17.6574C27.8737 17.3991 28.0859 17.1869 28.3443 17.1869H31.703V16.9193C31.703 15.8581 32.5704 15 33.6315 15H37.3593C38.4296 15 39.2878 15.8581 39.2878 16.9193V17.1869H42.6742C42.9325 17.1869 43.1447 17.3991 43.1447 17.6574V19.5121H48.3581C49.2439 19.5121 49.9729 20.2226 49.9729 21.1176V53.3945C49.9729 54.2803 49.2532 55 48.3674 55ZM27.8737 20.4441H22.6326C22.2728 20.4441 21.9683 20.7393 21.9683 21.1176V53.3945C21.9683 53.7636 22.2635 54.068 22.6326 54.068H48.3581C48.7272 54.068 49.0317 53.7728 49.0317 53.3945V21.1176C49.0317 20.7486 48.7364 20.4441 48.3581 20.4441H43.1447V22.1142C43.1355 22.3725 42.9325 22.5848 42.6649 22.5848H28.3443C28.0859 22.5848 27.8737 22.3725 27.8737 22.1142V20.4441ZM42.2036 20.0657V18.128H28.8056V21.6528H42.2036V20.0657ZM32.6534 17.1776H38.365V16.9193C38.365 16.3749 37.9221 15.9412 37.3777 15.9412H33.6407C33.0963 15.9412 32.6626 16.3841 32.6626 16.9193V17.1776H32.6534ZM30.808 32.8362H25.4193C25.1609 32.8362 24.9487 32.624 24.9487 32.3656V27.3552C24.9487 27.0969 25.1609 26.8847 25.4193 26.8847H30.808C31.0663 26.8847 31.2785 27.0969 31.2785 27.3552V32.3656C31.2785 32.624 31.0663 32.8362 30.808 32.8362ZM25.8898 31.895H30.3374V27.8166H25.8898V31.895ZM45.5531 28.8316H34.6465C34.0283 28.8316 34.0283 27.8904 34.6465 27.8904H45.5531C46.1713 27.8904 46.1713 28.8316 45.5531 28.8316ZM43.7445 31.8397H34.6465C34.0283 31.8397 34.0283 30.8985 34.6465 30.8985H43.7445C44.3627 30.8985 44.3627 31.8397 43.7445 31.8397ZM30.974 41.519H25.5853C25.327 41.519 25.1148 41.3068 25.1148 41.0484V36.0288C25.1148 35.7705 25.327 35.5582 25.5853 35.5582H30.974C31.2324 35.5582 31.4446 35.7705 31.4446 36.0288V41.0484C31.4446 41.3068 31.2324 41.519 30.974 41.519ZM26.0467 40.5779H30.5035V36.4994H26.0467V40.5779ZM45.7099 37.496H34.8126C34.1943 37.496 34.1943 36.564 34.8126 36.564H45.7099C46.3281 36.564 46.3281 37.496 45.7099 37.496ZM43.9106 40.504H34.8126C34.1943 40.504 34.1943 39.5721 34.8126 39.5721H43.9106C44.5288 39.5721 44.5288 40.504 43.9106 40.504ZM31.1401 50.1834H25.7422C25.4838 50.1834 25.2808 49.9804 25.2808 49.722V44.7024C25.2808 44.4441 25.4838 44.2318 25.7422 44.2318H31.1401C31.3985 44.2318 31.6015 44.4441 31.6015 44.7024V49.722C31.6015 49.9804 31.3985 50.1834 31.1401 50.1834ZM26.2128 49.2514H30.6695V45.173H26.2128V49.2514ZM45.8668 46.1695H34.9694C34.3512 46.1695 34.3512 45.2376 34.9694 45.2376H45.876C46.4942 45.2376 46.5035 46.1695 45.8668 46.1695ZM44.0675 49.1776H34.9694C34.3512 49.1776 34.3512 48.2457 34.9694 48.2457H44.0767C44.6857 48.2457 44.6949 49.1776 44.0675 49.1776Z" fill="black"/>
<path fill-rule="evenodd" clip-rule="evenodd" d="M31.4446 36.0288V41.0484C31.4446 41.3068 31.2324 41.519 30.974 41.519H25.5853C25.327 41.519 25.1148 41.3068 25.1148 41.0484V36.0288C25.1148 35.7704 25.327 35.5582 25.5853 35.5582H30.974C31.2324 35.5582 31.4446 35.7704 31.4446 36.0288ZM30.808 32.8362H25.4193C25.1609 32.8362 24.9487 32.624 24.9487 32.3656V27.3552C24.9487 27.0969 25.1609 26.8846 25.4193 26.8846H30.808C31.0663 26.8846 31.2785 27.0969 31.2785 27.3552V32.3656C31.2785 32.624 31.0663 32.8362 30.808 32.8362ZM34.9694 46.1695C34.3512 46.1695 34.3512 45.2376 34.9694 45.2376H45.876C46.4942 45.2376 46.5035 46.1695 45.8668 46.1695H34.9694ZM34.9694 48.2456H44.0767C44.6857 48.2456 44.6949 49.1776 44.0675 49.1776H34.9694C34.3512 49.1776 34.3512 48.2456 34.9694 48.2456ZM22.6326 54.068H48.3581C48.7272 54.068 49.0317 53.7727 49.0317 53.3944V21.1176C49.0317 20.7485 48.7364 20.444 48.3581 20.444H43.1447V22.1142C43.1355 22.3725 42.9325 22.5847 42.6649 22.5847H28.3443C28.0859 22.5847 27.8737 22.3725 27.8737 22.1142V20.444H22.6326C22.2728 20.444 21.9683 20.7393 21.9683 21.1176V53.3944C21.9683 53.7635 22.2635 54.068 22.6326 54.068ZM43.7445 31.8396H34.6465C34.0283 31.8396 34.0283 30.8985 34.6465 30.8985H43.7445C44.3627 30.8985 44.3627 31.8396 43.7445 31.8396ZM45.553 28.8316H34.6465C34.0283 28.8316 34.0283 27.8904 34.6465 27.8904H45.553C46.1713 27.8904 46.1713 28.8316 45.553 28.8316ZM45.7099 37.4959H34.8126C34.1943 37.4959 34.1943 36.564 34.8126 36.564H45.7099C46.3281 36.564 46.3281 37.4959 45.7099 37.4959ZM34.8126 39.5721H43.9106C44.5288 39.5721 44.5288 40.504 43.9106 40.504H34.8126C34.1943 40.504 34.1943 39.5721 34.8126 39.5721ZM25.7422 44.2318H31.1401C31.3985 44.2318 31.6015 44.444 31.6015 44.7024V49.722C31.6015 49.9804 31.3985 50.1834 31.1401 50.1834H25.7422C25.4838 50.1834 25.2808 49.9804 25.2808 49.722V44.7024C25.2808 44.444 25.4838 44.2318 25.7422 44.2318Z" fill="#EFEDEF"/>
<path fill-rule="evenodd" clip-rule="evenodd" d="M30.5035 40.5778V36.4994H26.0467V40.5778H30.5035Z" fill="#9BE69D"/>
<path fill-rule="evenodd" clip-rule="evenodd" d="M30.6695 45.173H26.2128V49.2514H30.6695V45.173Z" fill="#9BE69D"/>
<path fill-rule="evenodd" clip-rule="evenodd" d="M25.8898 31.895H30.3374V27.8166H25.8898V31.895ZM30.1344 29.0438L27.846 31.3322C27.7537 31.4244 27.6338 31.4798 27.5138 31.4798C27.3847 31.4798 27.2739 31.4337 27.1817 31.3322L26.1021 30.2526C25.6776 29.8189 26.3235 29.1453 26.7664 29.5882L27.5231 30.3356L29.47 28.3794C29.9037 27.955 30.5773 28.6009 30.1344 29.0438Z" fill="#9BE69D"/>
<path fill-rule="evenodd" clip-rule="evenodd" d="M28.8056 21.6528H42.2036V20.0658V18.1281H28.8056V21.6528Z" fill="#015F98"/>
<path fill-rule="evenodd" clip-rule="evenodd" d="M32.6626 17.1776H38.3651V16.9192C38.3651 16.3748 37.9221 15.9412 37.3777 15.9412H33.6407C33.0963 15.9412 32.6626 16.3841 32.6626 16.9192V17.1776Z" fill="#015F98"/>
</g>
</g>
<defs>
<clipPath id="clip0_1_52">
<rect width="70" height="70" fill="white" transform="translate(0.5)"/>
</clipPath>
<clipPath id="clip1_1_52">
<rect width="40" height="40" fill="white" transform="translate(15.5 15)"/>
</clipPath>
</defs>
</svg>
