<svg width="71" height="70" viewBox="0 0 71 70" fill="none" xmlns="http://www.w3.org/2000/svg">
<g clip-path="url(#clip0_1_69)">
<rect x="0.5" width="70" height="70" rx="35" fill="#FF6744"/>
<g clip-path="url(#clip1_1_69)">
<path fill-rule="evenodd" clip-rule="evenodd" d="M52.5473 49.3806H18.4527C16.8287 49.3806 15.5 48.0611 15.5 46.4279V43.6782C15.5 43.4198 15.7122 43.2076 15.9706 43.2076H18.2589V23.2122C18.2589 21.782 19.4216 20.6194 20.8518 20.6194H49.733C51.1632 20.6194 52.3258 21.782 52.3258 23.2122V43.2076H55.0294C55.2878 43.2076 55.5 43.4198 55.5 43.6782V46.4279C55.5 48.0519 54.1805 49.3806 52.5473 49.3806ZM19.1909 43.2076H51.3939V23.2122C51.3939 22.2987 50.6465 21.5606 49.733 21.5606H20.8518C19.9383 21.5606 19.1909 22.2987 19.1909 23.2122V43.2076ZM49.2439 41.2422H21.3408C21.0825 41.2422 20.8795 41.03 20.8795 40.7716V23.9965C20.8795 23.7382 21.0825 23.526 21.3408 23.526H49.2532C49.5115 23.526 49.7145 23.7382 49.7145 23.9965V40.7716C49.7145 41.03 49.5023 41.2422 49.2439 41.2422ZM21.8114 40.301H48.7826V24.4671H21.8114V40.301ZM40.109 46.4279H30.891C30.6695 46.4279 30.4758 46.2711 30.4296 46.0588L30.0144 44.1396H16.4412V46.4279C16.4412 47.5352 17.3454 48.4395 18.4527 48.4395H52.5565C53.6638 48.4395 54.568 47.5352 54.568 46.4279V44.1396H40.9856L40.5611 46.0588C40.5242 46.2711 40.3304 46.4279 40.109 46.4279ZM31.2693 45.4867H39.7307L40.026 44.1396H30.974L31.2693 45.4867Z" fill="black"/>
<path fill-rule="evenodd" clip-rule="evenodd" d="M21.8114 40.3011H48.7826V24.4672H21.8114V40.3011Z" fill="#5CAEFF"/>
<path fill-rule="evenodd" clip-rule="evenodd" d="M49.2439 41.2422H21.3408C21.0825 41.2422 20.8795 41.03 20.8795 40.7716V23.9965C20.8795 23.7382 21.0825 23.5259 21.3408 23.5259H49.2532C49.5115 23.5259 49.7145 23.7382 49.7145 23.9965V40.7716C49.7145 41.03 49.5023 41.2422 49.2439 41.2422ZM19.1909 43.2076H51.3939V23.2122C51.3939 22.2987 50.6465 21.5605 49.733 21.5605H20.8518C19.9383 21.5605 19.1909 22.2987 19.1909 23.2122V43.2076Z" fill="#726872"/>
<path fill-rule="evenodd" clip-rule="evenodd" d="M40.9856 44.1396L40.5611 46.0588C40.5242 46.2711 40.3304 46.4279 40.109 46.4279H30.891C30.6696 46.4279 30.4758 46.2711 30.4296 46.0588L30.0144 44.1396H16.4412V46.4279C16.4412 47.5352 17.3454 48.4395 18.4527 48.4395H52.5565C53.6638 48.4395 54.5681 47.5352 54.5681 46.4279V44.1396H40.9856Z" fill="#585A60"/>
<path fill-rule="evenodd" clip-rule="evenodd" d="M39.7307 45.4868L40.0259 44.1396H30.974L31.2693 45.4868H39.7307Z" fill="#675E67"/>
</g>
</g>
<defs>
<clipPath id="clip0_1_69">
<rect width="70" height="70" fill="white" transform="translate(0.5)"/>
</clipPath>
<clipPath id="clip1_1_69">
<rect width="40" height="40" fill="white" transform="translate(15.5 15)"/>
</clipPath>
</defs>
</svg>
