<svg width="41" height="41" viewBox="0 0 41 41" fill="none" xmlns="http://www.w3.org/2000/svg">
<path d="M5.97623 8.37453L3.71322 6.11152C3.32244 5.72074 3.32244 5.08652 3.71322 4.69574L5.97623 2.43273C6.36701 2.04195 7.00123 2.04195 7.39201 2.43273C7.78279 2.82352 7.78279 3.45773 7.39201 3.84852L6.83787 4.40266H20.5008C24.5664 4.40266 28.6496 6.11873 31.7037 9.11045C34.8596 12.2015 36.5981 16.2462 36.5981 20.5C36.5981 23.776 35.6196 26.9294 33.7681 29.6193C33.5744 29.9011 33.2612 30.0525 32.9425 30.0525C32.7471 30.0525 32.5494 29.9956 32.3756 29.8763C31.9199 29.5632 31.8054 28.9394 32.1185 28.4845C33.7393 26.1303 34.5962 23.3692 34.5962 20.5C34.5962 16.7891 33.0715 13.2521 30.3032 10.5406C27.6197 7.91248 24.0467 6.40461 20.5008 6.40461H6.83707L7.39121 6.95875C7.78199 7.34953 7.78199 7.98375 7.39121 8.37453C7.19582 8.56992 6.93957 8.66762 6.68332 8.66762C6.42707 8.66762 6.17082 8.56992 5.97543 8.37453H5.97623ZM37.2876 34.8884L35.0246 32.6254C34.6338 32.2346 33.9996 32.2346 33.6088 32.6254C33.218 33.0162 33.218 33.6504 33.6088 34.0412L34.1629 34.5953H20.5C12.7276 34.5953 6.40465 28.2723 6.40465 20.5C6.40465 17.6292 7.26228 14.8673 8.88467 12.5122C9.19857 12.0565 9.08326 11.4335 8.62842 11.1196C8.17357 10.8057 7.54976 10.921 7.23666 11.3759C5.38285 14.0665 4.40269 17.2216 4.40269 20.4992C4.40269 29.375 11.6241 36.5965 20.5 36.5965H34.1629L33.6088 37.1506C33.218 37.5414 33.218 38.1756 33.6088 38.5664C33.8042 38.7618 34.0604 38.8595 34.3167 38.8595C34.5729 38.8595 34.8292 38.7618 35.0246 38.5664L37.2876 36.3034C37.475 36.116 37.5807 35.8613 37.5807 35.5955C37.5807 35.3296 37.475 35.0758 37.2876 34.8876V34.8884ZM24.4711 20.496C24.4711 22.6853 22.6901 24.4662 20.5008 24.4662C18.3115 24.4662 16.5305 22.6853 16.5305 20.496C16.5305 18.3066 18.3115 16.5257 20.5008 16.5257C22.6901 16.5257 24.4711 18.3066 24.4711 20.496ZM22.4691 20.496C22.4691 19.4109 21.5859 18.5276 20.5008 18.5276C19.4157 18.5276 18.5325 19.4109 18.5325 20.496C18.5325 21.581 19.4157 22.4643 20.5008 22.4643C21.5859 22.4643 22.4691 21.581 22.4691 20.496ZM28.5863 23.5678C28.5246 23.7295 28.4582 23.8905 28.3869 24.0482L28.9218 24.5831C29.8483 25.5096 29.8483 27.0175 28.9218 27.944L27.9449 28.921C27.0184 29.8475 25.5105 29.8475 24.584 28.921L24.0491 28.3861C23.8905 28.4573 23.7304 28.5238 23.5686 28.5854V29.3414C23.5686 30.6515 22.5028 31.7173 21.1927 31.7173H19.8105C18.5004 31.7173 17.4346 30.6515 17.4346 29.3414V28.5854C17.2729 28.5238 17.1119 28.4573 16.9541 28.3861L16.4192 28.921C15.4927 29.8475 13.9856 29.8475 13.0583 28.921L12.0814 27.944C11.1549 27.0175 11.1549 25.5096 12.0814 24.5831L12.6163 24.0482C12.545 23.8897 12.4786 23.7295 12.4169 23.5678H11.661C10.3509 23.5678 9.28506 22.5019 9.28506 21.1918V19.8097C9.28506 18.4996 10.3509 17.4338 11.661 17.4338H12.4169C12.4786 17.272 12.545 17.1111 12.6163 16.9533L12.0814 16.4184C11.1549 15.4919 11.1549 13.984 12.0814 13.0575L13.0583 12.0805C13.9848 11.154 15.4927 11.154 16.4192 12.0805L16.9541 12.6155C17.1127 12.5442 17.2729 12.4777 17.4346 12.4161V11.6601C17.4346 10.3501 18.5004 9.28422 19.8105 9.28422H21.1927C22.5028 9.28422 23.5686 10.3501 23.5686 11.6601V12.4161C23.7312 12.4777 23.8913 12.5442 24.0491 12.6155L24.584 12.0805C25.5105 11.154 27.0176 11.154 27.9449 12.0805L28.9218 13.0575C29.8483 13.984 29.8483 15.4919 28.9218 16.4184L28.3869 16.9533C28.4582 17.1119 28.5246 17.272 28.5863 17.4338H29.3422C30.6523 17.4338 31.7181 18.4996 31.7181 19.8097V21.1918C31.7181 22.5019 30.6523 23.5678 29.3422 23.5678H28.5863ZM29.3422 21.5658C29.5488 21.5658 29.7162 21.3976 29.7162 21.1918V19.8097C29.7162 19.6031 29.548 19.4357 29.3422 19.4357H27.8632C27.4139 19.4357 27.02 19.137 26.899 18.7046C26.7573 18.1985 26.5539 17.7084 26.2953 17.248C26.075 16.8564 26.1423 16.3663 26.4594 16.0492L27.506 15.0026C27.6518 14.8569 27.6518 14.619 27.506 14.4733L26.5291 13.4963C26.3833 13.3506 26.1455 13.3506 25.9998 13.4963L24.9531 14.5429C24.636 14.8609 24.146 14.9273 23.7544 14.7071C23.2939 14.4477 22.8038 14.2451 22.2978 14.1033C21.8653 13.9824 21.5666 13.5884 21.5666 13.1392V11.6601C21.5666 11.4535 21.3985 11.2862 21.1927 11.2862H19.8105C19.6039 11.2862 19.4366 11.4543 19.4366 11.6601V13.1392C19.4366 13.5884 19.1379 13.9824 18.7054 14.1033C18.1994 14.2451 17.7093 14.4485 17.2488 14.7071C16.858 14.9273 16.3672 14.8601 16.0501 14.5429L15.0034 13.4963C14.8577 13.3506 14.6199 13.3506 14.4741 13.4963L13.4972 14.4733C13.3514 14.619 13.3514 14.8569 13.4972 15.0026L14.5438 16.0492C14.8609 16.3663 14.9282 16.8564 14.7079 17.248C14.4485 17.7084 14.2459 18.1985 14.1042 18.7046C13.9832 19.137 13.5893 19.4357 13.14 19.4357H11.661C11.4544 19.4357 11.287 19.6039 11.287 19.8097V21.1918C11.287 21.3984 11.4552 21.5658 11.661 21.5658H13.14C13.5893 21.5658 13.9832 21.8645 14.1042 22.2969C14.2459 22.803 14.4493 23.2931 14.7079 23.7535C14.9282 24.1451 14.8609 24.6352 14.5438 24.9523L13.4972 25.9989C13.3514 26.1447 13.3514 26.3825 13.4972 26.5282L14.4741 27.5052C14.6199 27.6509 14.8577 27.6509 15.0034 27.5052L16.0501 26.4586C16.243 26.2656 16.4993 26.1655 16.7579 26.1655C16.9261 26.1655 17.0951 26.2079 17.2488 26.2944C17.7093 26.5539 18.1994 26.7565 18.7054 26.8982C19.1379 27.0191 19.4366 27.4131 19.4366 27.8623V29.3414C19.4366 29.548 19.6047 29.7154 19.8105 29.7154H21.1927C21.3993 29.7154 21.5666 29.5472 21.5666 29.3414V27.8623C21.5666 27.4131 21.8653 27.0191 22.2978 26.8982C22.8038 26.7565 23.2939 26.5531 23.7544 26.2944C24.146 26.0742 24.636 26.1415 24.9531 26.4586L25.9998 27.5052C26.1455 27.6509 26.3833 27.6509 26.5291 27.5052L27.506 26.5282C27.6518 26.3825 27.6518 26.1447 27.506 25.9989L26.4594 24.9523C26.1423 24.6352 26.075 24.1443 26.2953 23.7535C26.5547 23.2931 26.7573 22.803 26.899 22.2969C27.02 21.8645 27.4139 21.5658 27.8632 21.5658H29.3422Z" fill="#3C3C3C"/>
</svg>
