<svg width="71" height="70" viewBox="0 0 71 70" fill="none" xmlns="http://www.w3.org/2000/svg">
<g clip-path="url(#clip0_1_37)">
<rect x="0.5" width="70" height="70" rx="35" fill="#FF6744"/>
<g clip-path="url(#clip1_1_37)">
<path fill-rule="evenodd" clip-rule="evenodd" d="M34.8034 43.5952C34.8034 42.4879 34.8403 36.9423 34.7941 36.3149C34.7111 35.7797 34.1298 32.707 32.2566 31.7289C31.4723 31.323 30.808 30.8339 30.2728 30.2895C29.2301 29.2284 25.9268 25.4452 28.0306 24.2641C29.4054 23.5075 32.8841 21.9573 35.8091 23.9412C35.8737 23.9965 38.9833 26.4971 42.6096 25.5744C43.0156 25.4637 43.3478 25.9158 43.1171 26.2849C43.0156 26.4418 40.6073 30.1326 37.4054 32.504C36.8149 32.9377 36.4366 33.3898 36.0583 34.5248C35.6615 35.7336 35.7722 35.8074 35.7353 36.3702V43.5952H38.3097C40.9948 43.5952 43.1817 45.782 43.1817 48.4671V49.5283H45.7099V45.6713C45.7099 41.9804 43.9937 38.5479 41.124 36.4902C40.1551 35.7982 40.1736 34.3587 41.1701 33.7036C44.2151 31.6828 46.0329 28.1672 46.0329 24.3287V20.4717H25.5208V24.3287C25.5208 28.0196 27.2278 31.4521 30.1067 33.5098C31.0663 34.2018 31.0571 35.6413 30.0606 36.2964C27.0156 38.3172 25.1886 41.8235 25.1886 45.6713V49.5283H27.8091V48.4671C27.8091 45.782 29.996 43.5952 32.6811 43.5952H34.8034ZM48.8656 20.4717H46.9741V24.3287C46.9741 28.481 44.9994 32.2826 41.6869 34.4879C41.2347 34.7832 41.2347 35.4198 41.6684 35.7243C44.7872 37.9481 46.6419 41.6759 46.6419 45.6713V49.5283H48.8749C50.0559 49.5283 51.0156 50.4971 51.0156 51.6782V52.8501C51.0156 54.0311 50.0467 55 48.8656 55H22.1252C20.9441 55 19.9844 54.0311 19.9844 52.8501V51.6782C19.9844 50.4879 20.9533 49.5283 22.1252 49.5283H24.2659V45.6713C24.2659 41.519 26.2405 37.7174 29.5531 35.5121C29.996 35.2168 30.0052 34.5802 29.5623 34.2757C26.4527 32.0427 24.5888 28.3241 24.5888 24.3287V20.4717H22.1252C20.9441 20.4717 19.9844 19.5029 19.9844 18.3218V17.1499C19.9844 15.9596 20.9533 15 22.1252 15H48.8749C50.0559 15 51.0156 15.9689 51.0156 17.1499V18.3218C51.0156 19.5121 50.0467 20.4717 48.8656 20.4717ZM22.1252 15.9412C21.4608 15.9412 20.9164 16.4856 20.9164 17.1499V18.3218C20.9164 18.9954 21.4608 19.5306 22.1252 19.5306H48.8749C49.5392 19.5306 50.0836 18.9862 50.0836 18.3218V17.1499C50.0836 16.4764 49.53 15.9412 48.8749 15.9412H22.1252ZM22.1252 50.4694C21.4608 50.4694 20.9164 51.0138 20.9164 51.6782V52.8501C20.9164 53.5236 21.4608 54.0588 22.1252 54.0588H48.8749C49.5392 54.0588 50.0836 53.5144 50.0836 52.8501V51.6782C50.0836 51.0046 49.53 50.4694 48.8749 50.4694H22.1252ZM32.5519 23.9227C30.8633 23.9227 29.2855 24.6517 28.4919 25.0946C28.3443 25.1684 28.2705 25.3345 28.2889 25.5006C28.4919 26.9585 30.5588 29.8005 32.6903 30.9077C33.9914 31.5813 34.7572 32.9654 35.1909 34.1742C35.5784 33.03 36.0306 32.3749 36.8518 31.7659C38.9648 30.1972 40.7734 27.9458 41.6869 26.7001C38.3743 27.0046 35.9106 25.2053 35.2739 24.7255C34.3974 24.1349 33.4562 23.9227 32.5519 23.9227ZM28.7503 49.5283H42.2497V48.4671C42.2497 46.2987 40.4781 44.5271 38.3097 44.5271H32.6811C30.5127 44.5271 28.7503 46.2987 28.7503 48.4671V49.5283Z" fill="black"/>
<path fill-rule="evenodd" clip-rule="evenodd" d="M42.6096 25.5744C43.0156 25.4637 43.3478 25.9158 43.1171 26.2849C43.0156 26.4418 40.6073 30.1326 37.4054 32.504C36.8149 32.9377 36.4366 33.3898 36.0583 34.5248C35.6615 35.7336 35.7722 35.8074 35.7353 36.3702V43.5952H38.3097C40.9948 43.5952 43.1817 45.782 43.1817 48.4671V49.5283H45.7099V45.6713C45.7099 41.9804 43.9937 38.5479 41.124 36.4902C40.1551 35.7982 40.1736 34.3587 41.1701 33.7036C44.2151 31.6828 46.0329 28.1672 46.0329 24.3287V20.4717H25.5208V24.3287C25.5208 28.0196 27.2278 31.4521 30.1067 33.5098C31.0663 34.2018 31.0571 35.6413 30.0606 36.2964C27.0156 38.3172 25.1886 41.8235 25.1886 45.6713V49.5283H27.8091V48.4671C27.8091 45.782 29.996 43.5952 32.6811 43.5952H34.8034C34.8034 42.4879 34.8403 36.9423 34.7941 36.3149C34.7111 35.7797 34.1298 32.707 32.2566 31.7289C31.4723 31.323 30.808 30.8339 30.2728 30.2895C29.2301 29.2284 25.9268 25.4452 28.0306 24.2641C29.4054 23.5075 32.8841 21.9573 35.8091 23.9412C35.8737 23.9965 38.9833 26.4971 42.6096 25.5744Z" fill="#EFEDEF"/>
<path fill-rule="evenodd" clip-rule="evenodd" d="M41.6868 26.7001C38.3743 27.0046 35.9106 25.2053 35.2739 24.7255C34.3973 24.135 33.4562 23.9227 32.5519 23.9227C30.8633 23.9227 29.2855 24.6517 28.4919 25.0946C28.3443 25.1684 28.2705 25.3345 28.2889 25.5006C28.4919 26.9585 30.5588 29.8005 32.6903 30.9077C33.9913 31.5813 34.7572 32.9654 35.1909 34.1742C35.5784 33.03 36.0306 32.3749 36.8518 31.7659C38.9648 30.1972 40.7733 27.9458 41.6868 26.7001Z" fill="#FCCB01"/>
<path fill-rule="evenodd" clip-rule="evenodd" d="M48.8749 50.4694H22.1251C21.4608 50.4694 20.9164 51.0138 20.9164 51.6782V52.85C20.9164 53.5236 21.4608 54.0588 22.1251 54.0588H48.8749C49.5392 54.0588 50.0836 53.5144 50.0836 52.85V51.6782C50.0836 51.0046 49.53 50.4694 48.8749 50.4694Z" fill="#015F98"/>
<path fill-rule="evenodd" clip-rule="evenodd" d="M28.7503 49.5283H42.2497V48.4671C42.2497 46.2987 40.4781 44.5271 38.3097 44.5271H32.6811C30.5127 44.5271 28.7503 46.2987 28.7503 48.4671V49.5283Z" fill="#FCCB01"/>
<path fill-rule="evenodd" clip-rule="evenodd" d="M22.1251 19.5306H48.8749C49.5392 19.5306 50.0836 18.9861 50.0836 18.3218V17.1499C50.0836 16.4763 49.53 15.9412 48.8749 15.9412H22.1251C21.4608 15.9412 20.9164 16.4856 20.9164 17.1499V18.3218C20.9164 18.9954 21.4608 19.5306 22.1251 19.5306Z" fill="#015F98"/>
</g>
</g>
<defs>
<clipPath id="clip0_1_37">
<rect width="70" height="70" fill="white" transform="translate(0.5)"/>
</clipPath>
<clipPath id="clip1_1_37">
<rect width="40" height="40" fill="white" transform="translate(15.5 15)"/>
</clipPath>
</defs>
</svg>
