<svg width="17" height="16" viewBox="0 0 17 16" fill="none" xmlns="http://www.w3.org/2000/svg">
<g clip-path="url(#clip0_1_80)">
<path d="M15.9571 8C15.9571 8.64 15.1708 9.1675 15.0133 9.7575C14.8508 10.3675 15.2621 11.2175 14.9533 11.7513C14.6396 12.2938 13.6958 12.3587 13.2558 12.7987C12.8158 13.2387 12.7508 14.1825 12.2083 14.4963C11.6746 14.805 10.8246 14.3937 10.2146 14.5562C9.62459 14.7137 9.09709 15.5 8.45709 15.5C7.81709 15.5 7.28959 14.7137 6.69959 14.5562C6.08959 14.3937 5.23959 14.805 4.70584 14.4963C4.16334 14.1825 4.09834 13.2387 3.65834 12.7987C3.21834 12.3587 2.27459 12.2938 1.96084 11.7513C1.65209 11.2175 2.06334 10.3675 1.90084 9.7575C1.74334 9.1675 0.957092 8.64 0.957092 8C0.957092 7.36 1.74334 6.8325 1.90084 6.2425C2.06334 5.6325 1.65209 4.7825 1.96084 4.24875C2.27459 3.70625 3.21834 3.64125 3.65834 3.20125C4.09834 2.76125 4.16334 1.8175 4.70584 1.50375C5.23959 1.195 6.08959 1.60625 6.69959 1.44375C7.28959 1.28625 7.81709 0.5 8.45709 0.5C9.09709 0.5 9.62459 1.28625 10.2146 1.44375C10.8246 1.60625 11.6746 1.195 12.2083 1.50375C12.7508 1.8175 12.8158 2.76125 13.2558 3.20125C13.6958 3.64125 14.6396 3.70625 14.9533 4.24875C15.2621 4.7825 14.8508 5.6325 15.0133 6.2425C15.1708 6.8325 15.9571 7.36 15.9571 8Z" fill="#2568EF"/>
<path d="M10.6246 5.76499L7.76958 8.61999L6.28958 7.14124C5.96833 6.81999 5.44708 6.81999 5.12583 7.14124C4.80458 7.46249 4.80458 7.98374 5.12583 8.30499L7.20208 10.3812C7.51458 10.6937 8.02208 10.6937 8.33458 10.3812L11.7871 6.92874C12.1083 6.60749 12.1083 6.08624 11.7871 5.76499C11.4658 5.44374 10.9458 5.44374 10.6246 5.76499Z" fill="#FFFCEE"/>
</g>
<defs>
<clipPath id="clip0_1_80">
<rect width="16" height="16" fill="white" transform="translate(0.457092)"/>
</clipPath>
</defs>
</svg>
