<svg width="54" height="55" viewBox="0 0 54 55" fill="none" xmlns="http://www.w3.org/2000/svg">
<path d="M32.5969 54.5707C29.0686 55.2063 25.4506 55.1355 21.9496 54.3622C18.4485 53.589 15.1328 52.1286 12.1919 50.0642C9.251 47.9999 6.74243 45.3722 4.80943 42.331C2.87643 39.2899 1.55685 35.8949 0.926036 32.3399L9.91348 30.7209C10.3333 33.0867 11.2114 35.346 12.4978 37.3699C13.7842 39.3937 15.4536 41.1424 17.4108 42.5162C19.3679 43.89 21.5744 44.8619 23.9044 45.3765C26.2343 45.891 28.642 45.9382 30.99 45.5152L32.5969 54.5707Z" fill="url(#paint0_linear_1_24)"/>
<path d="M50.0582 32.1009C52.5279 32.6112 54.1547 35.064 53.2441 37.4328C51.661 41.5508 49.1079 45.2464 45.7773 48.1859C41.2956 52.1415 35.6523 54.5108 29.7089 54.9322C23.7655 55.3535 17.8486 53.8037 12.8613 50.5194C7.87394 47.2351 4.09025 42.3967 2.08775 36.7427C0.0852444 31.0888 -0.0260485 24.9299 1.77086 19.2062C3.56776 13.4826 7.17414 8.50856 12.0395 5.0435C16.9049 1.57844 22.7619 -0.187325 28.7165 0.0157461C33.1417 0.166655 37.44 1.3987 41.253 3.57651C43.4463 4.82923 43.7282 7.76556 42.1371 9.73605C40.546 11.7065 37.682 11.9403 35.392 10.8776C33.2108 9.86534 30.838 9.29246 28.4077 9.20958C24.445 9.07444 20.5472 10.2495 17.3093 12.5555C14.0715 14.8614 11.6715 18.1716 10.4757 21.9806C9.27988 25.7896 9.35395 29.8883 10.6866 33.6509C12.0192 37.4135 14.5372 40.6334 17.8562 42.8191C21.1752 45.0048 25.1129 46.0361 29.0681 45.7557C33.0233 45.4753 36.7789 43.8986 39.7614 41.2662C41.5905 39.6518 43.0673 37.6948 44.1197 35.5198C45.2246 33.2365 47.5884 31.5905 50.0582 32.1009Z" fill="url(#paint1_linear_1_24)"/>
<rect x="24.5" y="14" width="6" height="28" rx="3" fill="url(#paint2_linear_1_24)"/>
<rect x="13.5" y="31" width="6" height="28" rx="3" transform="rotate(-90 13.5 31)" fill="url(#paint3_linear_1_24)"/>
<defs>
<linearGradient id="paint0_linear_1_24" x1="6.36058" y1="42.1755" x2="8.00665" y2="11.2442" gradientUnits="userSpaceOnUse">
<stop stop-color="#DFF332"/>
<stop offset="1" stop-color="#9FE93A"/>
</linearGradient>
<linearGradient id="paint1_linear_1_24" x1="27" y1="0" x2="27" y2="55" gradientUnits="userSpaceOnUse">
<stop stop-color="#9FD916"/>
<stop offset="0.844746" stop-color="#60A510"/>
</linearGradient>
<linearGradient id="paint2_linear_1_24" x1="30.5" y1="28" x2="24.5" y2="28" gradientUnits="userSpaceOnUse">
<stop stop-color="#A7E017"/>
<stop offset="1" stop-color="#5AA010"/>
</linearGradient>
<linearGradient id="paint3_linear_1_24" x1="19.5" y1="45" x2="13.5" y2="45" gradientUnits="userSpaceOnUse">
<stop stop-color="#A7E017"/>
<stop offset="1" stop-color="#5AA010"/>
</linearGradient>
</defs>
</svg>
