<svg width="50" height="50" viewBox="0 0 50 50" fill="none" xmlns="http://www.w3.org/2000/svg">
<rect x="0.219727" y="0.414627" width="49.1707" height="49.1707" rx="2.45854" fill="url(#paint0_linear_0_2981)"/>
<path fill-rule="evenodd" clip-rule="evenodd" d="M28.6574 10.3814C28.2329 10.2645 27.7474 10.2489 26.0828 10.2489H20.7483C19.1689 10.2489 18.0952 10.2504 17.2653 10.3182C16.4569 10.3842 16.0435 10.5039 15.7551 10.6509C15.0612 11.0044 14.497 11.5686 14.1435 12.2625C13.9965 12.5509 13.8768 12.9643 13.8108 13.7727C13.743 14.6026 13.7415 15.6763 13.7415 17.2558V32.7446C13.7415 34.3241 13.743 35.3978 13.8108 36.2275C13.8768 37.0361 13.9965 37.4495 14.1435 37.7379C14.497 38.4317 15.0612 38.996 15.7551 39.3494C16.0435 39.4964 16.4569 39.6161 17.2653 39.6821C18.0952 39.7499 19.1689 39.7514 20.7483 39.7514H28.8615C30.441 39.7514 31.5147 39.7499 32.3446 39.6821C33.153 39.6161 33.5664 39.4964 33.8548 39.3494C34.5487 38.996 35.1129 38.4317 35.4664 37.7379C35.6133 37.4495 35.733 37.0361 35.799 36.2275C35.8669 35.3978 35.8683 34.3241 35.8683 32.7446V20.7292C35.8683 19.5047 35.8597 19.1481 35.7931 18.8236C35.7262 18.4981 35.6157 18.1831 35.4645 17.8872C35.3139 17.5922 35.098 17.3083 34.3329 16.3521L31.5542 12.8786C30.5142 11.5787 30.1987 11.2093 29.8423 10.9509C29.4848 10.6916 29.0833 10.4987 28.6574 10.3814ZM26.3009 6.56105C27.651 6.56031 28.6703 6.55976 29.6369 6.82602C30.4888 7.06069 31.2914 7.44649 32.0068 7.96507C32.8185 8.55346 33.4549 9.34984 34.2977 10.4045C34.3425 10.4606 34.3879 10.5173 34.4338 10.5749L37.2125 14.0483C37.2461 14.0903 37.2793 14.1316 37.3119 14.1725C37.9352 14.9507 38.4061 15.539 38.7487 16.2094C39.0509 16.8012 39.272 17.4312 39.4055 18.0822C39.5569 18.8196 39.5565 19.5733 39.5561 20.5702V20.7292V32.8207C39.5561 34.3049 39.5561 35.53 39.4746 36.5279C39.39 37.5644 39.2082 38.5171 38.7522 39.4119C38.0451 40.7999 36.9168 41.9281 35.5291 42.6353C34.634 43.0913 33.6813 43.2731 32.6448 43.3577C31.6469 43.4392 30.422 43.4392 28.9377 43.4392H20.6722C19.1879 43.4392 17.9629 43.4392 16.965 43.3577C15.9285 43.2731 14.9758 43.0913 14.0809 42.6353C12.6931 41.9281 11.5647 40.7999 10.8576 39.4119C10.4016 38.5171 10.2199 37.5644 10.1352 36.5279C10.0537 35.53 10.0537 34.3051 10.0537 32.8207V17.1796C10.0537 15.6953 10.0537 14.4703 10.1352 13.4724C10.2199 12.4359 10.4016 11.4832 10.8576 10.5883C11.5647 9.20047 12.6931 8.07215 14.0809 7.36503C14.9758 6.90905 15.9285 6.7273 16.965 6.64262C17.9629 6.56109 19.1879 6.56111 20.6722 6.56112H26.0828C26.1565 6.56112 26.2292 6.56109 26.3009 6.56105Z" fill="white"/>
<path d="M18.5588 35.119C18.4061 35.119 18.2822 34.9952 18.2822 34.8425V16.9961C18.2822 16.8433 18.4061 16.7195 18.5588 16.7195C18.7115 16.7195 18.8354 16.8433 18.8354 16.9961V34.8425C18.8354 34.9952 18.7115 35.119 18.5588 35.119Z" fill="white"/>
<path d="M31.0248 29.1303C30.8755 29.1303 30.7544 29.0184 30.7544 28.8802V13.1542C30.7544 13.016 30.8755 12.904 31.0248 12.904C31.1742 12.904 31.2953 13.016 31.2953 13.1542V28.8802C31.2953 29.0183 31.1742 29.1303 31.0248 29.1303Z" fill="white"/>
<path d="M22.7156 39.3401C22.5628 39.3401 22.439 39.2163 22.439 39.0635V21.5331C22.439 21.3803 22.5628 21.2565 22.7156 21.2565C22.8683 21.2565 22.9921 21.3803 22.9921 21.5331V39.0635C22.9921 39.2163 22.8683 39.3401 22.7156 39.3401Z" fill="white"/>
<path d="M26.8723 38.2921C26.7196 38.2921 26.5957 38.1683 26.5957 38.0155V19.5029C26.5957 19.3501 26.7196 19.2263 26.8723 19.2263C27.025 19.2263 27.1489 19.3501 27.1489 19.5029V38.0155C27.1489 38.1682 27.0251 38.2921 26.8723 38.2921Z" fill="white"/>
<path d="M18.8522 31.4956H18.266C17.6955 31.4956 17.2329 31.0331 17.2329 30.4625V21.3527C17.2329 20.7822 17.6954 20.3196 18.266 20.3196H18.8522C19.4227 20.3196 19.8853 20.7821 19.8853 21.3527V30.4625C19.8853 31.0331 19.4228 31.4956 18.8522 31.4956Z" fill="white"/>
<path d="M23.0089 35.9778H22.4227C21.8522 35.9778 21.3896 35.5153 21.3896 34.9447V25.835C21.3896 25.2644 21.8521 24.8018 22.4227 24.8018H23.0089C23.5795 24.8018 24.042 25.2644 24.042 25.835V34.9447C24.042 35.5153 23.5795 35.9778 23.0089 35.9778Z" fill="white"/>
<path d="M27.1652 34.1237H26.579C26.0085 34.1237 25.5459 33.6612 25.5459 33.0906V23.9808C25.5459 23.4103 26.0084 22.9477 26.579 22.9477H27.1652C27.7357 22.9477 28.1983 23.4102 28.1983 23.9808V33.0906C28.1983 33.6612 27.7357 34.1237 27.1652 34.1237Z" fill="white"/>
<path d="M31.3219 26.3939H30.7357C30.1652 26.3939 29.7026 25.9313 29.7026 25.3607V16.251C29.7026 15.6804 30.1651 15.2179 30.7357 15.2179H31.3219C31.8925 15.2179 32.355 15.6804 32.355 16.251V25.3607C32.355 25.9313 31.8925 26.3939 31.3219 26.3939Z" fill="white"/>
<defs>
<linearGradient id="paint0_linear_0_2981" x1="24.8051" y1="0.414627" x2="24.8051" y2="49.5854" gradientUnits="userSpaceOnUse">
<stop stop-color="#406F56"/>
<stop offset="1" stop-color="#093023"/>
</linearGradient>
</defs>
</svg>
