<svg width="41" height="40" viewBox="0 0 41 40" fill="none" xmlns="http://www.w3.org/2000/svg">
<g clip-path="url(#clip0_0_344)">
<path fill-rule="evenodd" clip-rule="evenodd" d="M20.3604 0.330231C9.54712 0.330231 0.689453 9.0717 0.689453 19.9985C0.689453 30.8103 9.43209 39.6668 20.3604 39.6668C31.1736 39.6668 40.0313 30.9253 40.0313 19.9985C40.0313 9.0717 31.1736 0.330231 20.3604 0.330231ZM20.3604 38.0565C10.3524 38.0565 2.29994 30.0052 2.29994 19.9985C2.29994 9.99185 10.3524 1.9405 20.3604 1.9405C30.3684 1.9405 38.4208 9.99185 38.4208 19.9985C38.5359 29.8902 30.3684 38.0565 20.3604 38.0565Z" fill="#77787B"/>
<path fill-rule="evenodd" clip-rule="evenodd" d="M20.3605 34.606C21.0507 34.606 21.3958 34.1459 21.5109 33.5708C21.6259 33.8009 21.856 34.0309 22.086 34.1459C22.3161 34.1459 22.6612 34.1459 22.8913 34.0309C23.1213 33.9159 23.3514 33.6858 23.4664 33.4558C23.5815 33.2258 23.5815 32.8807 23.4664 32.6507C23.8115 33.1107 24.2717 33.2258 24.8469 32.9957C25.5371 32.6507 25.7671 32.1906 25.422 31.5005C24.6168 29.5451 23.8115 27.7048 23.0063 25.7495C22.8913 25.5195 22.8913 25.4044 22.7762 25.1744C22.6612 25.0594 22.6612 24.9444 22.5462 24.8294C22.5462 24.7143 22.4311 24.7143 22.3161 24.5993C23.5815 24.7143 24.1567 25.1744 24.5018 25.4044C24.6168 25.5195 24.6168 25.5195 24.9619 25.4044H25.422C25.5371 25.5195 25.7671 25.6345 25.8822 25.6345L27.2626 26.6697C27.4927 26.8997 27.7227 27.1297 27.7227 27.4748C27.7227 27.7048 27.0325 28.2799 26.9175 28.51C26.4573 28.97 27.1476 29.6602 28.0678 29.6602C27.8378 29.4301 27.7227 29.2001 27.8378 28.97C27.9528 28.97 28.0678 28.97 28.2979 28.855C28.528 28.74 28.4129 28.1649 28.528 28.0499C28.8731 27.7048 29.7934 27.7048 30.4836 27.7048C30.7136 27.7048 31.0587 27.5898 30.9437 27.2448C31.2888 27.2448 31.4038 27.5898 31.4038 27.8199C31.7489 27.5898 31.979 26.7847 30.8287 26.5546C31.0587 26.3246 31.4038 26.3246 31.6339 26.5546C31.864 26.2096 31.2888 25.6345 30.3685 25.9795C30.3685 25.9795 29.9084 25.4044 28.758 26.7847C28.643 26.6697 28.4129 26.5546 28.2979 26.4396L26.6874 24.8294C26.6874 24.1392 26.5724 22.874 25.7671 22.1839C25.422 21.8389 25.0769 21.7238 24.2717 21.4938C24.2717 21.4938 24.6168 20.9187 24.7318 20.6887C25.422 21.3788 26.8024 21.6088 26.8024 20.4586C27.9528 21.6088 28.9881 20.9187 28.9881 20.2286C28.9881 20.5736 29.1031 20.9187 29.2182 21.2638C29.3332 21.6088 29.9084 23.1041 31.1738 23.1041C31.1738 23.5641 31.1738 25.2894 32.7843 25.6345C32.8993 25.6345 32.8993 25.6345 33.0143 25.7495C33.7045 26.5546 36.3503 27.3598 36.5804 27.1297C36.3503 27.0147 36.0052 26.7847 36.0052 25.8645C36.0052 25.2894 35.8902 22.0689 35.8902 17.5831C35.8902 15.9729 35.7752 10.797 30.5986 10.1069C29.7934 9.99189 29.1031 10.1069 28.4129 10.567C27.4927 11.2571 27.0325 12.4073 27.6077 13.6725V13.7875C27.8378 14.1326 27.7227 14.3626 27.4927 14.5926C27.0325 15.0527 26.5724 15.2828 25.9972 15.3978C25.6521 15.3978 25.307 15.2828 25.0769 15.0527C24.5018 14.4776 24.1567 13.7875 23.9266 12.9824C23.6965 11.4871 24.0416 10.682 24.0416 10.567C24.5018 9.76185 25.307 9.07174 26.3423 9.07174C26.8024 8.15158 28.1829 8.49664 28.1829 8.49664C28.528 8.61166 28.643 8.61166 28.758 8.8417C28.758 8.8417 29.3332 7.92154 28.758 7.57649C28.1829 7.23143 26.9175 7.11641 26.9175 7.11641C26.9175 6.54131 25.9972 6.08124 24.1567 6.42629C22.086 6.77135 21.6259 5.96622 21.6259 5.96622C21.5109 7.00139 22.3161 7.46147 22.5462 7.69151C21.7409 8.61166 20.5906 10.3369 20.3605 12.7523C20.1304 10.3369 18.9801 8.61166 18.1748 7.69151C18.4049 7.57649 19.2102 7.00139 19.0951 5.96622C19.0951 5.96622 18.635 6.77135 16.5644 6.42629C14.8388 6.08124 13.8035 6.54131 13.8035 7.11641C13.8035 7.11641 12.5381 7.23143 11.963 7.57649C11.3878 7.92154 11.963 8.8417 11.963 8.8417C12.078 8.72668 12.1931 8.61166 12.5381 8.49664C12.5381 8.49664 13.9186 8.15158 14.3787 9.07174C15.414 9.18676 16.2193 9.76185 16.6794 10.567C16.6794 10.567 17.1395 11.3721 16.7944 12.9824C16.6794 13.7875 16.2193 14.4776 15.6441 15.0527C15.414 15.2828 15.0689 15.5128 14.7238 15.3978C14.1486 15.2828 13.6885 15.0527 13.2284 14.5926C12.9983 14.3626 12.8833 14.1326 13.1133 13.7875V13.6725C13.6885 12.4073 13.2284 11.2571 12.3081 10.567C11.6179 10.1069 10.9277 9.99189 10.1224 10.1069C5.0609 10.797 4.83083 15.9729 4.83083 17.5831C4.83083 22.0689 4.7158 25.2894 4.7158 25.8645C4.7158 26.7847 4.37069 27.0147 4.14062 27.1297C4.48573 27.3598 7.13153 26.5546 7.7067 25.7495C7.7067 25.7495 7.82174 25.6345 7.93677 25.6345C9.54726 25.2894 9.54726 23.5641 9.54726 23.1041C10.8126 23.1041 11.3878 21.6088 11.5028 21.2638C11.6179 20.9187 11.7329 20.5736 11.7329 20.2286C11.7329 20.9187 12.7682 21.4938 13.9186 20.4586C13.9186 21.6088 15.299 21.3788 15.9892 20.6887C16.1042 20.9187 16.4493 21.4938 16.4493 21.4938C15.6441 21.6088 15.299 21.8389 14.9539 22.1839C14.0336 22.989 14.0336 24.2543 14.0336 24.8294L12.4231 26.4396C12.3081 26.5546 12.078 26.6697 11.963 26.7847C10.6976 25.4044 10.3525 25.9795 10.3525 25.9795C9.43222 25.6345 8.97208 26.2096 9.08712 26.5546C9.31719 26.3246 9.66229 26.4396 9.89236 26.5546C8.62698 26.7847 8.97208 27.7048 9.31719 27.8199C9.31719 27.5898 9.43222 27.2448 9.77733 27.2448C9.77733 27.5898 10.0074 27.7048 10.2375 27.7048C10.8126 27.7048 11.8479 27.7048 12.1931 28.0499C12.4231 28.1649 12.3081 28.74 12.4231 28.855C12.5381 28.97 12.7682 28.97 12.8833 28.97C12.8833 29.2001 12.8833 29.3151 12.6532 29.6602C13.5735 29.7752 14.1486 28.97 13.8035 28.51C13.5735 28.2799 12.9983 27.7048 12.9983 27.4748C12.9983 27.2448 13.2284 26.8997 13.4584 26.6697L14.8388 25.6345C14.9539 25.5195 15.0689 25.4044 15.299 25.4044C15.414 25.2894 15.6441 25.2894 15.7591 25.4044C16.1042 25.5195 16.1042 25.5195 16.2193 25.4044C16.5644 25.1744 17.1395 24.7143 18.4049 24.5993C18.2899 24.5993 18.2899 24.7143 18.1748 24.8294C18.0598 24.9444 18.0598 25.0594 17.9448 25.1744C17.8297 25.2894 17.8297 25.5195 17.7147 25.7495C16.9095 27.7048 16.1042 29.5451 15.299 31.5005C15.0689 32.1906 15.299 32.6507 15.8742 32.9957C16.3343 33.2258 16.9095 33.1107 17.2546 32.6507C17.1395 32.9957 17.1395 33.2258 17.2546 33.4558C17.3696 33.6858 17.5997 33.9159 17.8297 34.0309C18.0598 34.1459 18.4049 34.1459 18.635 34.1459C18.9801 34.0309 19.0951 33.9159 19.2102 33.5708C19.3252 34.1459 19.6703 34.606 20.3605 34.606Z" fill="#77787B"/>
</g>
<defs>
<clipPath id="clip0_0_344">
<rect width="39.3366" height="39.3366" fill="white" transform="translate(0.69043 0.331696)"/>
</clipPath>
</defs>
</svg>
