<svg width="36" height="36" viewBox="0 0 36 36" fill="none" xmlns="http://www.w3.org/2000/svg">
<path fill-rule="evenodd" clip-rule="evenodd" d="M21.0993 6.3051C20.7597 6.21156 20.3713 6.19914 19.0395 6.19914H14.772C13.5085 6.19914 12.6495 6.20029 11.9856 6.25455C11.3388 6.30739 11.0081 6.40315 10.7774 6.52071C10.2223 6.80356 9.77095 7.25489 9.48811 7.81001C9.37056 8.04072 9.27478 8.37145 9.22194 9.01816C9.1677 9.6821 9.16655 10.541 9.16655 11.8046V24.1957C9.16655 25.4592 9.1677 26.3182 9.22194 26.982C9.27478 27.6289 9.37056 27.9596 9.48811 28.1903C9.77095 28.7454 10.2223 29.1968 10.7774 29.4796C11.0081 29.5971 11.3388 29.6929 11.9856 29.7457C12.6495 29.7999 13.5085 29.8011 14.772 29.8011H21.2626C22.5261 29.8011 23.3851 29.7999 24.0491 29.7457C24.6958 29.6929 25.0265 29.5971 25.2572 29.4796C25.8123 29.1968 26.2637 28.7454 26.5464 28.1903C26.664 27.9596 26.7597 27.6289 26.8126 26.982C26.8668 26.3182 26.868 25.4592 26.868 24.1957V14.5834C26.868 13.6037 26.8611 13.3185 26.8078 13.0588C26.7543 12.7985 26.6659 12.5465 26.545 12.3097C26.4244 12.0738 26.2517 11.8466 25.6397 11.0817L23.4167 8.3029C22.5847 7.26299 22.3323 6.96742 22.0472 6.76072C21.7611 6.55329 21.44 6.39896 21.0993 6.3051ZM19.2141 3.24884C20.2941 3.24825 21.1096 3.24781 21.8828 3.46082C22.5643 3.64855 23.2065 3.95719 23.7788 4.37206C24.4282 4.84277 24.9372 5.47987 25.6115 6.32358C25.6474 6.36844 25.6836 6.41388 25.7204 6.4599L27.9434 9.23866C27.9702 9.27221 27.9968 9.30529 28.0229 9.33797C28.5215 9.96057 28.8982 10.4312 29.1723 10.9675C29.4141 11.441 29.5909 11.9449 29.6977 12.4657C29.8188 13.0557 29.8186 13.6586 29.8183 14.4562V14.5834V24.2566C29.8183 25.4439 29.8183 26.424 29.7531 27.2223C29.6853 28.0515 29.5399 28.8137 29.1751 29.5296C28.6094 30.6399 27.7068 31.5425 26.5966 32.1082C25.8806 32.473 25.1184 32.6185 24.2892 32.6862C23.4909 32.7514 22.5109 32.7514 21.3235 32.7514H14.7111C13.5237 32.7514 12.5436 32.7514 11.7453 32.6862C10.9162 32.6185 10.154 32.473 9.43803 32.1082C8.32778 31.5425 7.42513 30.6399 6.85942 29.5296C6.49463 28.8137 6.34925 28.0515 6.28149 27.2223C6.21628 26.424 6.21629 25.4441 6.21631 24.2566V11.7437C6.21629 10.5563 6.21628 9.57624 6.28149 8.77792C6.34925 7.94876 6.49463 7.18656 6.85942 6.47062C7.42513 5.36037 8.32778 4.45772 9.43803 3.89202C10.154 3.52724 10.9162 3.38184 11.7453 3.3141C12.5437 3.24887 13.5237 3.24888 14.7111 3.2489H19.0395C19.0985 3.2489 19.1567 3.24887 19.2141 3.24884Z" fill="white"/>
<path d="M13.0202 26.0952C12.898 26.0952 12.799 25.9962 12.799 25.874V11.5968C12.799 11.4746 12.898 11.3756 13.0202 11.3756C13.1424 11.3756 13.2415 11.4746 13.2415 11.5968V25.874C13.2415 25.9962 13.1424 26.0952 13.0202 26.0952Z" fill="white"/>
<path d="M22.9932 21.3043C22.8737 21.3043 22.7769 21.2147 22.7769 21.1041V8.52331C22.7769 8.4128 22.8737 8.32318 22.9932 8.32318C23.1127 8.32318 23.2096 8.4128 23.2096 8.52331V21.1041C23.2096 21.2146 23.1127 21.3043 22.9932 21.3043Z" fill="white"/>
<path d="M16.3458 29.4721C16.2236 29.4721 16.1245 29.373 16.1245 29.2508V15.2264C16.1245 15.1042 16.2236 15.0052 16.3458 15.0052C16.468 15.0052 16.567 15.1042 16.567 15.2264V29.2508C16.567 29.373 16.468 29.4721 16.3458 29.4721Z" fill="white"/>
<path d="M19.671 28.6336C19.5488 28.6336 19.4497 28.5346 19.4497 28.4124V13.6023C19.4497 13.4801 19.5488 13.381 19.671 13.381C19.7932 13.381 19.8922 13.4801 19.8922 13.6023V28.4124C19.8922 28.5346 19.7932 28.6336 19.671 28.6336Z" fill="white"/>
<path d="M13.2549 23.1965H12.786C12.3295 23.1965 11.9595 22.8265 11.9595 22.37V15.0822C11.9595 14.6257 12.3295 14.2557 12.786 14.2557H13.2549C13.7113 14.2557 14.0814 14.6257 14.0814 15.0822V22.37C14.0814 22.8265 13.7114 23.1965 13.2549 23.1965Z" fill="white"/>
<path d="M16.5803 26.7823H16.1114C15.655 26.7823 15.2849 26.4122 15.2849 25.9558V18.6679C15.2849 18.2115 15.6549 17.8415 16.1114 17.8415H16.5803C17.0368 17.8415 17.4068 18.2115 17.4068 18.6679V25.9558C17.4068 26.4122 17.0368 26.7823 16.5803 26.7823Z" fill="white"/>
<path d="M19.9053 25.299H19.4363C18.9799 25.299 18.6099 24.929 18.6099 24.4725V17.1847C18.6099 16.7282 18.9799 16.3582 19.4363 16.3582H19.9053C20.3617 16.3582 20.7318 16.7282 20.7318 17.1847V24.4725C20.7318 24.929 20.3617 25.299 19.9053 25.299Z" fill="white"/>
<path d="M23.2307 19.1151H22.7618C22.3054 19.1151 21.9353 18.7451 21.9353 18.2886V11.0008C21.9353 10.5443 22.3053 10.1743 22.7618 10.1743H23.2307C23.6872 10.1743 24.0572 10.5443 24.0572 11.0008V18.2886C24.0572 18.7451 23.6872 19.1151 23.2307 19.1151Z" fill="white"/>
</svg>
