<svg width="197" height="50" viewBox="0 0 197 50" fill="none" xmlns="http://www.w3.org/2000/svg">
<g clip-path="url(#clip0_0_3832)">
<path fill-rule="evenodd" clip-rule="evenodd" d="M25.5679 0.412842C12.0513 0.412842 0.979248 11.3397 0.979248 24.9982C0.979248 38.5129 11.9075 49.5835 25.5679 49.5835C39.0845 49.5835 50.1566 38.6567 50.1566 24.9982C50.1566 11.3397 39.0845 0.412842 25.5679 0.412842ZM25.5679 47.5707C13.0579 47.5707 2.99235 37.5065 2.99235 24.9982C2.99235 12.4899 13.0579 2.42568 25.5679 2.42568C38.0779 2.42568 48.1435 12.4899 48.1435 24.9982C48.2873 37.3628 38.0779 47.5707 25.5679 47.5707Z" fill="#77787B"/>
<path fill-rule="evenodd" clip-rule="evenodd" d="M25.5678 43.2575C26.4306 43.2575 26.862 42.6824 27.0058 41.9635C27.1495 42.2511 27.4371 42.5386 27.7247 42.6824C28.0123 42.6824 28.4437 42.6824 28.7313 42.5386C29.0189 42.3948 29.3064 42.1073 29.4502 41.8197C29.594 41.5322 29.594 41.1009 29.4502 40.8133C29.8816 41.3884 30.4568 41.5322 31.1758 41.2446C32.0385 40.8133 32.3261 40.2382 31.8947 39.3756C30.8882 36.9314 29.8816 34.631 28.8751 32.1869C28.7313 31.8993 28.7313 31.7556 28.5875 31.468C28.4437 31.3242 28.4437 31.1805 28.2999 31.0367C28.2999 30.8929 28.1561 30.8929 28.0123 30.7491C29.594 30.8929 30.313 31.468 30.7444 31.7556C30.8882 31.8993 30.8882 31.8993 31.3196 31.7556H31.8947C32.0385 31.8993 32.3261 32.0431 32.4699 32.0431L34.1954 33.3371C34.483 33.6246 34.7706 33.9122 34.7706 34.3435C34.7706 34.631 33.9078 35.3499 33.764 35.6375C33.1889 36.2125 34.0516 37.0752 35.202 37.0752C34.9144 36.7876 34.7706 36.5001 34.9144 36.2126C35.0582 36.2126 35.202 36.2126 35.4896 36.0688C35.7772 35.925 35.6334 35.2061 35.7771 35.0624C36.2085 34.631 37.3589 34.631 38.2216 34.631C38.5092 34.631 38.9406 34.4873 38.7968 34.0559C39.2282 34.0559 39.372 34.4873 39.372 34.7748C39.8034 34.4873 40.091 33.4808 38.653 33.1933C38.9406 32.9057 39.372 32.9057 39.6596 33.1933C39.9472 32.762 39.2282 32.0431 38.0778 32.4744C38.0778 32.4744 37.5027 31.7556 36.0647 33.4808C35.9209 33.3371 35.6334 33.1933 35.4896 33.0495L33.4765 31.0367C33.4765 30.174 33.3327 28.5925 32.3261 27.7299C31.8947 27.2986 31.4634 27.1548 30.4568 26.8672C30.4568 26.8672 30.8882 26.1484 31.032 25.8608C31.8947 26.7235 33.6202 27.011 33.6202 25.5733C35.0582 27.011 36.3523 26.1484 36.3523 25.2857C36.3523 25.717 36.4961 26.1484 36.6399 26.5797C36.7837 27.011 37.5027 28.8801 39.0844 28.8801C39.0844 29.4552 39.0844 31.6118 41.0975 32.0431C41.2413 32.0431 41.2413 32.0431 41.3851 32.1869C42.2479 33.1933 45.5551 34.1997 45.8427 33.9122C45.5551 33.7684 45.1237 33.4808 45.1237 32.3307C45.1237 31.6118 44.9799 27.5861 44.9799 21.9789C44.9799 19.9661 44.8361 13.4963 38.3654 12.6336C37.3589 12.4899 36.4961 12.6336 35.6334 13.2087C34.483 14.0714 33.9078 15.5091 34.6268 17.0906V17.2344C34.9144 17.6657 34.7706 17.9532 34.483 18.2408C33.9078 18.8159 33.3327 19.1034 32.6137 19.2472C32.1823 19.2472 31.7509 19.1034 31.4633 18.8159C30.7444 18.097 30.313 17.2344 30.0254 16.228C29.7378 14.3589 30.1692 13.3525 30.1692 13.2087C30.7444 12.2023 31.7509 11.3397 33.0451 11.3397C33.6203 10.1895 35.3458 10.6208 35.3458 10.6208C35.7772 10.7646 35.9209 10.7646 36.0647 11.0521C36.0647 11.0521 36.7837 9.90192 36.0647 9.4706C35.3458 9.03928 33.764 8.8955 33.764 8.8955C33.764 8.17663 32.6137 7.60154 30.313 8.03286C27.7247 8.46418 27.1495 7.45776 27.1495 7.45776C27.0058 8.75173 28.0123 9.32683 28.2999 9.61437C27.2933 10.7646 25.8554 12.9212 25.5678 15.9404C25.2802 12.9212 23.8423 10.7646 22.8357 9.61437C23.1233 9.4706 24.1299 8.75173 23.9861 7.45776C23.9861 7.45776 23.4109 8.46418 20.8226 8.03286C18.6657 7.60154 17.3716 8.17663 17.3716 8.8955C17.3716 8.8955 15.7899 9.03928 15.0709 9.4706C14.352 9.90192 15.0709 11.0521 15.0709 11.0521C15.2147 10.9083 15.3585 10.7646 15.7899 10.6208C15.7899 10.6208 17.5154 10.1895 18.0906 11.3397C19.3847 11.4834 20.3913 12.2023 20.9664 13.2087C20.9664 13.2087 21.5416 14.2151 21.1102 16.228C20.9664 17.2344 20.3913 18.097 19.6723 18.8159C19.3847 19.1034 18.9533 19.391 18.5219 19.2472C17.803 19.1034 17.2278 18.8159 16.6526 18.2408C16.365 17.9532 16.2213 17.6657 16.5088 17.2344V17.0906C17.2278 15.5091 16.6526 14.0714 15.5023 13.2087C14.6395 12.6336 13.7768 12.4899 12.7702 12.6336C6.44332 13.4963 6.15573 19.9661 6.15573 21.9789C6.15573 27.5861 6.01194 31.6118 6.01194 32.3307C6.01194 33.4808 5.58056 33.7684 5.29297 33.9122C5.72435 34.1997 9.0316 33.1933 9.75056 32.1869C9.75056 32.1869 9.89436 32.0431 10.0381 32.0431C12.0513 31.6118 12.0513 29.4552 12.0513 28.8801C13.633 28.8801 14.352 27.011 14.4957 26.5797C14.6395 26.1484 14.7833 25.717 14.7833 25.2857C14.7833 26.1484 16.0775 26.8672 17.5154 25.5733C17.5154 27.011 19.2409 26.7235 20.1037 25.8608C20.2475 26.1484 20.6788 26.8672 20.6788 26.8672C19.6723 27.011 19.2409 27.2986 18.8095 27.7299C17.6592 28.7363 17.6592 30.3178 17.6592 31.0367L15.6461 33.0495C15.5023 33.1933 15.2147 33.3371 15.0709 33.4808C13.4892 31.7556 13.0578 32.4744 13.0578 32.4744C11.9075 32.0431 11.3323 32.762 11.4761 33.1933C11.7637 32.9057 12.1951 33.0495 12.4826 33.1933C10.9009 33.4808 11.3323 34.631 11.7637 34.7748C11.7637 34.4873 11.9075 34.0559 12.3388 34.0559C12.3388 34.4873 12.6264 34.631 12.914 34.631C13.633 34.631 14.9271 34.631 15.3585 35.0624C15.6461 35.2061 15.5023 35.925 15.6461 36.0688C15.7899 36.2126 16.0775 36.2126 16.2213 36.2126C16.2213 36.5001 16.2213 36.6439 15.9337 37.0752C17.084 37.219 17.803 36.2125 17.3716 35.6375C17.084 35.3499 16.365 34.631 16.365 34.3435C16.365 34.0559 16.6526 33.6246 16.9402 33.3371L18.6657 32.0431C18.8095 31.8993 18.9533 31.7556 19.2409 31.7556C19.3847 31.6118 19.6723 31.6118 19.8161 31.7556C20.2475 31.8993 20.2475 31.8993 20.3913 31.7556C20.8226 31.468 21.5416 30.8929 23.1233 30.7491C22.9795 30.7491 22.9795 30.8929 22.8357 31.0367C22.692 31.1805 22.692 31.3242 22.5482 31.468C22.4044 31.6118 22.4044 31.8993 22.2606 32.1869C21.254 34.631 20.2475 36.9314 19.2409 39.3756C18.9533 40.2382 19.2409 40.8133 19.9599 41.2446C20.5351 41.5322 21.254 41.3884 21.6854 40.8133C21.5416 41.2446 21.5416 41.5322 21.6854 41.8197C21.8292 42.1073 22.1168 42.3948 22.4044 42.5386C22.692 42.6824 23.1233 42.6824 23.4109 42.6824C23.8423 42.5386 23.9861 42.3948 24.1299 41.9635C24.2737 42.6824 24.7051 43.2575 25.5678 43.2575Z" fill="#77787B"/>
<path fill-rule="evenodd" clip-rule="evenodd" d="M66.9803 16.3718C68.2744 16.3718 71.1503 16.228 72.732 16.0842V17.8095C71.2941 17.6657 68.9934 17.522 68.2744 17.522C67.6993 17.522 65.8299 17.522 64.6796 17.6657V23.7043H65.9737C68.562 23.7043 73.7386 24.1356 73.7386 28.5926C73.7386 32.1869 70.7189 33.7684 66.8365 33.7684H62.2351C62.3789 31.0367 62.3789 27.4424 62.3789 24.4231C62.3789 21.6914 62.3789 17.522 62.2351 16.228C63.8168 16.228 66.4051 16.3718 66.9803 16.3718ZM64.6796 32.3307H66.6927C69.5686 32.3307 71.1503 31.0367 71.1503 28.4488C71.1503 25.7171 69.1372 24.8544 64.5358 24.8544V32.3307H64.6796ZM76.4707 22.8416C77.4772 21.6914 79.2027 21.1163 80.6407 21.1163C83.2289 21.1163 84.9545 22.4103 84.9545 25.4295V31.4681C84.9545 32.762 85.242 33.0496 85.6734 33.0496C85.8172 33.0496 86.1048 33.0496 86.2486 32.9058L86.3924 33.4809C85.6734 33.9122 84.9545 33.9122 84.5231 33.9122C83.6603 33.9122 83.2289 33.4809 83.0851 32.9058L82.9414 32.3307C81.6472 33.3371 80.2093 33.9122 79.0589 33.9122C76.902 33.9122 75.4641 32.762 75.4641 30.7492C75.4641 28.5926 77.0458 27.5862 79.3465 27.1548L81.791 26.7235C82.6538 26.5797 83.0851 26.2922 83.0851 25.7171C83.0851 23.1292 81.9348 22.4103 80.0655 22.4103C78.6276 22.4103 77.621 22.8416 76.7582 24.4231H76.4707V22.8416ZM83.0851 27.4424L81.5034 27.7299C79.7779 28.0175 77.7648 28.5926 77.7648 30.4616C77.7648 31.8994 78.4838 32.6182 80.0655 32.6182C81.072 32.6182 81.9348 32.3307 82.9414 31.1805V27.4424H83.0851ZM89.8434 21.5476H90.9938C90.85 23.4167 90.7062 26.436 90.7062 26.5797C91.7128 26.5797 93.1507 26.7235 94.0134 26.7235C94.8762 26.7235 96.3141 26.7235 97.0331 26.5797C97.0331 26.436 97.0331 23.4167 96.8893 21.5476H99.3338C99.19 23.4167 99.0462 26.436 99.0462 27.7299C99.0462 28.7363 99.0462 32.0432 99.3338 33.9122H96.8893C97.0331 32.0432 97.0331 28.7363 97.0331 28.0175C96.0266 27.8737 94.4448 27.8737 94.0134 27.8737C93.2945 27.8737 91.7128 27.8737 90.7062 28.0175C90.7062 28.8801 90.7062 32.0432 90.9938 33.9122H88.5493C88.6931 32.0432 88.8369 28.7363 88.8369 27.7299C88.8369 26.436 88.8369 23.4167 88.5493 21.5476H89.8434ZM103.791 21.5476H104.942C104.798 23.4167 104.798 26.436 104.798 26.8673H105.229C106.092 26.8673 110.118 22.2665 110.55 21.5476H112.85L107.099 26.7235C107.818 27.5862 111.7 31.8994 113.426 33.7684H110.406C109.543 32.3307 106.811 29.1677 105.229 27.4424H104.798C104.798 28.305 104.798 31.8994 104.942 33.7684H102.497C102.641 31.8994 102.785 28.5926 102.785 27.5862C102.785 26.2922 102.785 23.2729 102.497 21.4039C102.929 21.5476 103.36 21.5476 103.791 21.5476ZM123.922 16.228C124.785 16.228 125.792 16.0842 126.511 16.0842C130.968 16.0842 132.694 17.3782 132.694 20.5412C132.694 24.4231 129.387 25.7171 125.36 25.7171C125.073 25.7171 124.21 25.7171 123.779 25.5733V29.7428C123.779 30.893 123.779 32.4745 123.922 33.6247H121.334C121.478 30.893 121.478 27.2986 121.478 24.2794C121.478 21.5476 121.478 17.3782 121.334 16.0842C122.341 16.0842 123.347 16.228 123.922 16.228ZM124.929 24.4231C128.38 24.4231 130.249 23.1292 130.249 20.5412C130.249 18.0971 128.38 17.522 125.936 17.522H123.779V24.2794C124.21 24.4231 124.641 24.4231 124.929 24.4231ZM145.348 27.5862C145.348 31.3243 142.903 34.056 139.165 34.056C135.426 34.056 133.125 31.3243 133.125 27.8737C133.125 23.848 135.714 21.2601 139.452 21.2601C143.047 21.2601 145.348 23.848 145.348 27.5862ZM135.426 27.7299C135.426 30.4616 136.576 33.0496 139.165 33.0496C141.609 33.0496 143.047 30.6054 143.047 27.4424C143.047 24.8544 142.04 22.1227 139.308 22.1227C136.72 22.1227 135.426 24.8544 135.426 27.7299ZM157.139 24.1356H156.851C155.988 22.6978 154.838 22.2665 153.544 22.2665C150.668 22.2665 149.374 24.9982 149.374 27.7299C149.374 30.7492 151.099 33.1933 154.119 33.1933C155.126 33.1933 155.988 33.0496 157.426 31.4681L157.714 31.7556L157.426 32.9058C156.276 33.6247 154.982 34.056 153.4 34.056C149.661 34.056 147.217 31.4681 147.217 27.7299C147.217 23.848 149.949 21.4039 153.832 21.4039C155.126 21.4039 156.42 21.6914 158.002 22.4103L157.139 24.1356ZM169.505 24.1356H169.217C168.355 22.6978 167.204 22.2665 165.91 22.2665C163.034 22.2665 161.74 24.9982 161.74 27.7299C161.74 30.7492 163.466 33.1933 166.485 33.1933C167.492 33.1933 168.355 33.0496 169.793 31.4681L169.936 31.7556L169.649 32.9058C168.498 33.6247 167.204 34.056 165.623 34.056C161.884 34.056 159.439 31.4681 159.439 27.7299C159.439 23.848 162.172 21.4039 166.054 21.4039C167.348 21.4039 168.642 21.6914 170.224 22.4103L169.505 24.1356ZM173.1 33.6247H172.381C172.525 31.7556 172.668 28.4488 172.668 27.4424C172.668 26.1484 172.668 23.1292 172.381 21.2601H174.825C174.682 23.1292 174.538 26.1484 174.538 27.4424V30.6054C175.832 29.0239 180.577 22.9854 181.727 21.4039H183.309C183.165 23.2729 183.022 26.2922 183.022 27.5862C183.022 28.5926 183.022 31.8994 183.309 33.7684H180.865C181.008 31.8994 181.152 28.5926 181.152 27.5862V24.2794C179.571 26.0046 175.113 31.6118 173.819 33.7684C173.531 33.6247 173.244 33.6247 173.1 33.6247ZM186.76 33.6247H186.041C186.185 31.7556 186.185 28.4488 186.185 27.4424C186.185 26.1484 186.185 23.1292 186.041 21.2601H188.486C188.198 23.2729 188.198 26.2922 188.198 27.5862V30.7492C189.492 29.1677 194.237 23.1292 195.388 21.5476H196.97C196.826 23.2729 196.826 26.2922 196.826 27.5862C196.826 28.5926 196.826 31.8994 196.97 33.7684H194.525C194.669 31.8994 194.669 28.5926 194.669 27.5862V24.2794C193.087 26.0046 188.63 31.6118 187.335 33.7684C187.192 33.6247 187.048 33.6247 186.76 33.6247Z" fill="#77787B"/>
</g>
<defs>
<clipPath id="clip0_0_3832">
<rect width="196" height="50" fill="white" transform="translate(0.712158)"/>
</clipPath>
</defs>
</svg>
