<svg width="24" height="26" viewBox="0 0 24 26" fill="none" xmlns="http://www.w3.org/2000/svg">
<g clip-path="url(#clip0_1_5557)">
<path d="M-1.91309 -0.0255737H25.913V25.0179H-1.91309V-0.0255737Z" fill="#74ACDF"/>
<path d="M-1.91309 8.32385H25.913V16.6733H-1.91309V8.32385Z" fill="white"/>
<path d="M11.8219 12.5613L13.408 15.6667C13.408 15.6667 13.4358 15.7268 13.4803 15.7117C13.5249 15.6917 13.497 15.6316 13.497 15.6316L12.1781 12.426M12.1391 13.6381C12.1169 14.1089 12.4396 14.3694 12.4007 14.7901C12.3562 15.2159 12.6122 15.4513 12.6789 15.6166C12.7346 15.7819 12.6122 15.877 12.6622 15.9021C12.7179 15.9271 12.8292 15.7969 12.7958 15.5615C12.7569 15.3311 12.5621 15.2609 12.6066 14.7451C12.6511 14.2292 12.3729 14.1089 12.4396 13.6431" fill="#F6B40E"/>
<path d="M11.8219 12.5613L13.408 15.6667C13.408 15.6667 13.4358 15.7268 13.4803 15.7117C13.5249 15.6917 13.497 15.6316 13.497 15.6316L12.1781 12.426M12.1391 13.6381C12.1169 14.1089 12.4396 14.3694 12.4007 14.7901C12.3562 15.2159 12.6122 15.4513 12.6789 15.6166C12.7346 15.7819 12.6122 15.877 12.6622 15.9021C12.7179 15.9271 12.8292 15.7969 12.7958 15.5615C12.7569 15.3311 12.5621 15.2609 12.6066 14.7451C12.6511 14.2292 12.3729 14.1089 12.4396 13.6431" stroke="#85340A" stroke-width="0.1408"/>
<path d="M11.8077 12.495L11.9527 15.9102C11.9527 15.9102 11.9528 15.9754 12.0003 15.9768C12.05 15.9736 12.0498 15.9085 12.0498 15.9085L12.1943 12.4927M11.6429 13.5991C11.4222 14.0264 11.6096 14.3782 11.3947 14.7535C11.1726 15.1315 11.309 15.4372 11.3004 15.6129C11.2815 15.7848 11.128 15.8305 11.1636 15.8709C11.2044 15.9132 11.3626 15.8312 11.4318 15.6022C11.4938 15.3759 11.3436 15.2441 11.6041 14.7828C11.8646 14.3215 11.6587 14.1146 11.9184 13.7072" fill="#F6B40E"/>
<path d="M11.8077 12.495L11.9527 15.9102C11.9527 15.9102 11.9528 15.9754 12.0003 15.9768C12.05 15.9736 12.0498 15.9085 12.0498 15.9085L12.1943 12.4927M11.6429 13.5991C11.4222 14.0264 11.6096 14.3782 11.3947 14.7535C11.1726 15.1315 11.309 15.4372 11.3004 15.6129C11.2815 15.7848 11.128 15.8305 11.1636 15.8709C11.2044 15.9132 11.3626 15.8312 11.4318 15.6022C11.4938 15.3759 11.3436 15.2441 11.6041 14.7828C11.8646 14.3215 11.6587 14.1146 11.9184 13.7072" stroke="#85340A" stroke-width="0.1408"/>
<path d="M11.8228 12.4288L10.5045 15.6341C10.5045 15.6341 10.477 15.6943 10.5203 15.712C10.5675 15.7262 10.595 15.6659 10.595 15.6659L12.1809 12.5599M11.2011 13.3922C10.8154 13.7109 10.839 14.1005 10.4809 14.3732C10.115 14.6459 10.111 14.9753 10.0284 15.1347C9.93787 15.287 9.77652 15.2764 9.79226 15.3259C9.81194 15.3791 9.99296 15.3578 10.1543 15.1701C10.3078 14.9824 10.2251 14.8089 10.6619 14.4724C11.0988 14.1359 10.9964 13.8739 11.4096 13.587" fill="#F6B40E"/>
<path d="M11.8228 12.4288L10.5045 15.6341C10.5045 15.6341 10.477 15.6943 10.5203 15.712C10.5675 15.7262 10.595 15.6659 10.595 15.6659L12.1809 12.5599M11.2011 13.3922C10.8154 13.7109 10.839 14.1005 10.4809 14.3732C10.115 14.6459 10.111 14.9753 10.0284 15.1347C9.93787 15.287 9.77652 15.2764 9.79226 15.3259C9.81194 15.3791 9.99296 15.3578 10.1543 15.1701C10.3078 14.9824 10.2251 14.8089 10.6619 14.4724C11.0988 14.1359 10.9964 13.8739 11.4096 13.587" stroke="#85340A" stroke-width="0.1408"/>
<path d="M11.865 12.373L9.28415 14.8802C9.28415 14.8802 9.23309 14.9263 9.26556 14.9576C9.30316 14.9869 9.35421 14.9408 9.35421 14.9408L12.1401 12.6174M10.8809 13.0488C10.3891 13.2105 10.2452 13.5786 9.79845 13.7072C9.34437 13.8331 9.20069 14.136 9.05657 14.2548C8.90819 14.3643 8.76365 14.299 8.75711 14.3502C8.7527 14.406 8.92897 14.4488 9.15785 14.3309C9.37945 14.2103 9.3769 14.0216 9.92352 13.8611C10.4701 13.7007 10.4871 13.4234 10.9908 13.3006" fill="#F6B40E"/>
<path d="M11.865 12.373L9.28415 14.8802C9.28415 14.8802 9.23309 14.9263 9.26556 14.9576C9.30316 14.9869 9.35421 14.9408 9.35421 14.9408L12.1401 12.6174M10.8809 13.0488C10.3891 13.2105 10.2452 13.5786 9.79845 13.7072C9.34437 13.8331 9.20069 14.136 9.05657 14.2548C8.90819 14.3643 8.76365 14.299 8.75711 14.3502C8.7527 14.406 8.92897 14.4488 9.15785 14.3309C9.37945 14.2103 9.3769 14.0216 9.92352 13.8611C10.4701 13.7007 10.4871 13.4234 10.9908 13.3006" stroke="#85340A" stroke-width="0.1408"/>
<path d="M12.2392 13.7183C12.2671 14.1691 12.5509 14.3694 12.4952 14.7851C12.6177 14.4596 12.3227 14.2041 12.3394 13.7233M11.9109 12.5312L12.9961 14.6649L12.089 12.4661" fill="#85340A"/>
<path d="M11.7013 13.7077C11.5354 14.1337 11.7124 14.4166 11.4842 14.7815C11.7358 14.5229 11.5719 14.1853 11.7918 13.7468M11.9027 12.4979L11.9981 14.8429L12.095 12.499" fill="#85340A"/>
<path d="M11.2089 13.5126C10.8745 13.8491 10.9177 14.1714 10.5518 14.4299C10.8941 14.2776 10.8863 13.9093 11.2758 13.5799M11.9094 12.4643L11.0004 14.6637L12.0865 12.5316" fill="#85340A"/>
<path d="M10.837 13.1628C10.3849 13.3584 10.2878 13.6711 9.83977 13.7839C10.2208 13.7611 10.3702 13.4181 10.8702 13.248M11.9299 12.4355L10.1548 14.1544L12.0649 12.5587" fill="#85340A"/>
<path d="M11.9276 12.3359L8.47719 13.7634C8.47719 13.7634 8.4104 13.7884 8.4271 13.8285C8.44936 13.8685 8.51614 13.8435 8.51614 13.8435L12.0779 12.6564M10.7311 12.6214C10.208 12.6013 9.91858 12.8918 9.4511 12.8568C8.97806 12.8167 8.71649 13.0471 8.53284 13.1072C8.34919 13.1573 8.24345 13.0471 8.21562 13.0922C8.18779 13.1423 8.33249 13.2425 8.59405 13.2124C8.85005 13.1773 8.92797 13.002 9.50119 13.0421C10.0744 13.0822 10.208 12.8317 10.7255 12.8918" fill="#F6B40E"/>
<path d="M11.9276 12.3359L8.47719 13.7634C8.47719 13.7634 8.4104 13.7884 8.4271 13.8285C8.44936 13.8685 8.51614 13.8435 8.51614 13.8435L12.0779 12.6564M10.7311 12.6214C10.208 12.6013 9.91858 12.8918 9.4511 12.8568C8.97806 12.8167 8.71649 13.0471 8.53284 13.1072C8.34919 13.1573 8.24345 13.0471 8.21562 13.0922C8.18779 13.1423 8.33249 13.2425 8.59405 13.2124C8.85005 13.1773 8.92797 13.002 9.50119 13.0421C10.0744 13.0822 10.208 12.8317 10.7255 12.8918" stroke="#85340A" stroke-width="0.1408"/>
<path d="M12.0013 12.3232L8.20656 12.4536C8.20656 12.4536 8.13421 12.4537 8.1326 12.4965C8.13613 12.5412 8.20847 12.541 8.20847 12.541L12.0038 12.6711M10.7745 12.1748C10.2997 11.9761 9.9088 12.1449 9.49182 11.9515C9.07182 11.7515 8.7322 11.8743 8.53697 11.8666C8.346 11.8496 8.29516 11.7114 8.25029 11.7434C8.20328 11.7801 8.29437 11.9225 8.5488 11.9848C8.80022 12.0406 8.94675 11.9055 9.45929 12.1399C9.97184 12.3744 10.2017 12.189 10.6543 12.4228" fill="#F6B40E"/>
<path d="M12.0013 12.3232L8.20656 12.4536C8.20656 12.4536 8.13421 12.4537 8.1326 12.4965C8.13613 12.5412 8.20847 12.541 8.20847 12.541L12.0038 12.6711M10.7745 12.1748C10.2997 11.9761 9.9088 12.1449 9.49182 11.9515C9.07182 11.7515 8.7322 11.8743 8.53697 11.8666C8.346 11.8496 8.29516 11.7114 8.25029 11.7434C8.20328 11.7801 8.29437 11.9225 8.5488 11.9848C8.80022 12.0406 8.94675 11.9055 9.45929 12.1399C9.97184 12.3744 10.2017 12.189 10.6543 12.4228" stroke="#85340A" stroke-width="0.1408"/>
<path d="M12.0748 12.3368L8.51342 11.1503C8.51342 11.1503 8.44652 11.1255 8.42685 11.1645C8.41111 11.207 8.478 11.2318 8.478 11.2318L11.9292 12.6591M11.0044 11.7772C10.6502 11.4301 10.2174 11.4514 9.91435 11.1291C9.61134 10.7997 9.24537 10.7961 9.06828 10.7218C8.89907 10.6403 8.91088 10.4951 8.85578 10.5093C8.79676 10.527 8.82037 10.6899 9.02893 10.8351C9.2375 10.9732 9.43032 10.8989 9.80417 11.292C10.178 11.6851 10.4692 11.593 10.788 11.9649" fill="#F6B40E"/>
<path d="M12.0748 12.3368L8.51342 11.1503C8.51342 11.1503 8.44652 11.1255 8.42685 11.1645C8.41111 11.207 8.478 11.2318 8.478 11.2318L11.9292 12.6591M11.0044 11.7772C10.6502 11.4301 10.2174 11.4514 9.91435 11.1291C9.61134 10.7997 9.24537 10.7961 9.06828 10.7218C8.89907 10.6403 8.91088 10.4951 8.85578 10.5093C8.79676 10.527 8.82037 10.6899 9.02893 10.8351C9.2375 10.9732 9.43032 10.8989 9.80417 11.292C10.178 11.6851 10.4692 11.593 10.788 11.9649" stroke="#85340A" stroke-width="0.1408"/>
<path d="M12.1368 12.3747L9.35106 10.0519C9.35106 10.0519 9.29979 10.006 9.26505 10.0352C9.23243 10.069 9.2837 10.115 9.2837 10.115L11.8653 12.6223M11.3859 11.489C11.2062 11.0464 10.7973 10.9169 10.6544 10.5148C10.5145 10.1061 10.1779 9.97681 10.0459 9.84711C9.9242 9.71357 9.99686 9.58348 9.93993 9.5776C9.87787 9.57363 9.83041 9.73227 9.96136 9.93826C10.0953 10.1377 10.3051 10.1354 10.4833 10.6274C10.6615 11.1193 10.9697 11.1345 11.1061 11.5879" fill="#F6B40E"/>
<path d="M12.1368 12.3747L9.35106 10.0519C9.35106 10.0519 9.29979 10.006 9.26505 10.0352C9.23243 10.069 9.2837 10.115 9.2837 10.115L11.8653 12.6223M11.3859 11.489C11.2062 11.0464 10.7973 10.9169 10.6544 10.5148C10.5145 10.1061 10.1779 9.97681 10.0459 9.84711C9.9242 9.71357 9.99686 9.58348 9.93993 9.5776C9.87787 9.57363 9.83041 9.73227 9.96136 9.93826C10.0953 10.1377 10.3051 10.1354 10.4833 10.6274C10.6615 11.1193 10.9697 11.1345 11.1061 11.5879" stroke="#85340A" stroke-width="0.1408"/>
<path d="M10.642 12.7115C10.1412 12.7366 9.91854 12.992 9.45663 12.9419C9.81837 13.0521 10.1022 12.7867 10.6365 12.8017M11.961 12.416L9.5902 13.3927L12.0333 12.5763" fill="#85340A"/>
<path d="M10.6539 12.2274C10.1805 12.0781 9.86622 12.2374 9.46076 12.032C9.74811 12.2584 10.1232 12.1109 10.6104 12.3088M11.9981 12.4087L9.39249 12.4945L11.9968 12.5817" fill="#85340A"/>
<path d="M10.8706 11.7843C10.4967 11.4832 10.1386 11.5222 9.85135 11.1928C10.0206 11.5009 10.4298 11.4939 10.7958 11.8445M12.0354 12.4147L9.59163 11.5966L11.9606 12.5741" fill="#85340A"/>
<path d="M11.2592 11.4495C11.0418 11.0426 10.6944 10.9553 10.569 10.552C10.5944 10.895 10.9755 11.0294 11.1645 11.4794M12.0673 12.4331L10.1574 10.8356L11.9304 12.5546" fill="#85340A"/>
<path d="M12.1779 12.431L10.5918 9.3256C10.5918 9.3256 10.5639 9.26549 10.5194 9.28052C10.4749 9.30055 10.5027 9.36066 10.5027 9.36066L11.8217 12.5662M11.8606 11.3541C11.8829 10.8833 11.5601 10.6229 11.5991 10.2021C11.6436 9.77638 11.3876 9.54097 11.3208 9.37569C11.2652 9.2104 11.3876 9.11523 11.3375 9.09019C11.2819 9.06515 11.1706 9.19537 11.2039 9.43078C11.2429 9.66118 11.4377 9.7313 11.3932 10.2472C11.3486 10.7631 11.6269 10.8833 11.5601 11.3491" fill="#F6B40E"/>
<path d="M12.1779 12.431L10.5918 9.3256C10.5918 9.3256 10.5639 9.26549 10.5194 9.28052C10.4749 9.30055 10.5027 9.36066 10.5027 9.36066L11.8217 12.5662M11.8606 11.3541C11.8829 10.8833 11.5601 10.6229 11.5991 10.2021C11.6436 9.77638 11.3876 9.54097 11.3208 9.37569C11.2652 9.2104 11.3876 9.11523 11.3375 9.09019C11.2819 9.06515 11.1706 9.19537 11.2039 9.43078C11.2429 9.66118 11.4377 9.7313 11.3932 10.2472C11.3486 10.7631 11.6269 10.8833 11.5601 11.3491" stroke="#85340A" stroke-width="0.1408"/>
<path d="M12.192 12.4973L12.0471 9.082C12.0471 9.082 12.0469 9.01689 11.9994 9.01544C11.9498 9.01861 11.9499 9.08373 11.9499 9.08373L11.8055 12.4996M12.3568 11.3931C12.5776 10.9658 12.3901 10.614 12.605 10.2387C12.8272 9.86074 12.6908 9.55508 12.6993 9.37937C12.7182 9.2075 12.8718 9.16175 12.8362 9.12136C12.7954 9.07905 12.6372 9.16103 12.5679 9.39002C12.506 9.6163 12.6561 9.74817 12.3956 10.2095C12.1351 10.6708 12.3411 10.8776 12.0813 11.285" fill="#F6B40E"/>
<path d="M12.192 12.4973L12.0471 9.082C12.0471 9.082 12.0469 9.01689 11.9994 9.01544C11.9498 9.01861 11.9499 9.08373 11.9499 9.08373L11.8055 12.4996M12.3568 11.3931C12.5776 10.9658 12.3901 10.614 12.605 10.2387C12.8272 9.86074 12.6908 9.55508 12.6993 9.37937C12.7182 9.2075 12.8718 9.16175 12.8362 9.12136C12.7954 9.07905 12.6372 9.16103 12.5679 9.39002C12.506 9.6163 12.6561 9.74817 12.3956 10.2095C12.1351 10.6708 12.3411 10.8776 12.0813 11.285" stroke="#85340A" stroke-width="0.1408"/>
<path d="M12.1769 12.5634L13.4952 9.35818C13.4952 9.35818 13.5228 9.29797 13.4795 9.28026C13.4323 9.26609 13.4047 9.3263 13.4047 9.3263L11.8188 12.4324M12.7987 11.6001C13.1843 11.2813 13.1607 10.8917 13.5188 10.619C13.8848 10.3463 13.8887 10.0169 13.9714 9.85756C14.0619 9.70526 14.2232 9.71589 14.2075 9.66631C14.1878 9.61318 14.0068 9.63443 13.8455 9.82214C13.692 10.0098 13.7746 10.1834 13.3378 10.5199C12.901 10.8563 13.0033 11.1184 12.5901 11.4053" fill="#F6B40E"/>
<path d="M12.1769 12.5634L13.4952 9.35818C13.4952 9.35818 13.5228 9.29797 13.4795 9.28026C13.4323 9.26609 13.4047 9.3263 13.4047 9.3263L11.8188 12.4324M12.7987 11.6001C13.1843 11.2813 13.1607 10.8917 13.5188 10.619C13.8848 10.3463 13.8887 10.0169 13.9714 9.85756C14.0619 9.70526 14.2232 9.71589 14.2075 9.66631C14.1878 9.61318 14.0068 9.63443 13.8455 9.82214C13.692 10.0098 13.7746 10.1834 13.3378 10.5199C12.901 10.8563 13.0033 11.1184 12.5901 11.4053" stroke="#85340A" stroke-width="0.1408"/>
<path d="M12.1348 12.6193L14.7156 10.1121C14.7156 10.1121 14.7667 10.0659 14.7342 10.0347C14.6966 10.0053 14.6455 10.0514 14.6455 10.0514L11.8597 12.3749M13.1188 11.9434C13.6107 11.7817 13.7545 11.4137 14.2013 11.2851C14.6554 11.1592 14.7991 10.8562 14.9432 10.7374C15.0916 10.6279 15.2361 10.6933 15.2426 10.6421C15.2471 10.5862 15.0708 10.5435 14.8419 10.6613C14.6203 10.7819 14.6229 10.9707 14.0762 11.1311C13.5296 11.2915 13.5127 11.5689 13.009 11.6916" fill="#F6B40E"/>
<path d="M12.1348 12.6193L14.7156 10.1121C14.7156 10.1121 14.7667 10.0659 14.7342 10.0347C14.6966 10.0053 14.6455 10.0514 14.6455 10.0514L11.8597 12.3749M13.1188 11.9434C13.6107 11.7817 13.7545 11.4137 14.2013 11.2851C14.6554 11.1592 14.7991 10.8562 14.9432 10.7374C15.0916 10.6279 15.2361 10.6933 15.2426 10.6421C15.2471 10.5862 15.0708 10.5435 14.8419 10.6613C14.6203 10.7819 14.6229 10.9707 14.0762 11.1311C13.5296 11.2915 13.5127 11.5689 13.009 11.6916" stroke="#85340A" stroke-width="0.1408"/>
<path d="M11.7605 11.274C11.7327 10.8232 11.4489 10.6228 11.5045 10.2071C11.3821 10.5327 11.677 10.7881 11.6603 11.269M12.0889 12.461L11.0036 10.3273L11.9108 12.5262" fill="#85340A"/>
<path d="M12.2984 11.2846C12.4644 10.8585 12.2873 10.5757 12.5155 10.2108C12.264 10.4694 12.4279 10.807 12.208 11.2455M12.097 12.4944L12.0017 10.1493L11.9048 12.4932" fill="#85340A"/>
<path d="M12.7908 11.4796C13.1253 11.1432 13.082 10.8209 13.448 10.5623C13.1056 10.7146 13.1135 11.083 12.7239 11.4123M12.0903 12.528L12.9994 10.3286L11.9133 12.4607" fill="#85340A"/>
<path d="M13.1628 11.8294C13.6149 11.6338 13.7119 11.3211 14.16 11.2083C13.7789 11.2311 13.6296 11.5741 13.1296 11.7442M12.0699 12.5567L13.8449 10.8378L11.9349 12.4336" fill="#85340A"/>
<path d="M12.0721 12.6564L15.5226 11.229C15.5226 11.229 15.5894 11.2039 15.5727 11.1638C15.5504 11.1238 15.4836 11.1488 15.4836 11.1488L11.9219 12.3359M13.2687 12.3709C13.7918 12.391 14.0812 12.1005 14.5487 12.1355C15.0217 12.1756 15.2833 11.9452 15.4669 11.8851C15.6506 11.835 15.7563 11.9452 15.7841 11.9001C15.812 11.85 15.6673 11.7499 15.4057 11.7799C15.1497 11.815 15.0718 11.9903 14.4986 11.9502C13.9254 11.9101 13.7918 12.1606 13.2742 12.1005" fill="#F6B40E"/>
<path d="M12.0721 12.6564L15.5226 11.229C15.5226 11.229 15.5894 11.2039 15.5727 11.1638C15.5504 11.1238 15.4836 11.1488 15.4836 11.1488L11.9219 12.3359M13.2687 12.3709C13.7918 12.391 14.0812 12.1005 14.5487 12.1355C15.0217 12.1756 15.2833 11.9452 15.4669 11.8851C15.6506 11.835 15.7563 11.9452 15.7841 11.9001C15.812 11.85 15.6673 11.7499 15.4057 11.7799C15.1497 11.815 15.0718 11.9903 14.4986 11.9502C13.9254 11.9101 13.7918 12.1606 13.2742 12.1005" stroke="#85340A" stroke-width="0.1408"/>
<path d="M11.9984 12.6692L15.7932 12.5387C15.7932 12.5387 15.8655 12.5386 15.8672 12.4958C15.8636 12.4511 15.7913 12.4513 15.7913 12.4513L11.9959 12.3212M13.2253 12.8175C13.7001 13.0162 14.091 12.8475 14.5079 13.0409C14.9279 13.2408 15.2676 13.118 15.4628 13.1257C15.6538 13.1427 15.7046 13.2809 15.7495 13.2489C15.7965 13.2122 15.7054 13.0698 15.451 13.0075C15.1995 12.9517 15.053 13.0868 14.5405 12.8524C14.0279 12.6179 13.798 12.8033 13.3454 12.5695" fill="#F6B40E"/>
<path d="M11.9984 12.6692L15.7932 12.5387C15.7932 12.5387 15.8655 12.5386 15.8672 12.4958C15.8636 12.4511 15.7913 12.4513 15.7913 12.4513L11.9959 12.3212M13.2253 12.8175C13.7001 13.0162 14.091 12.8475 14.5079 13.0409C14.9279 13.2408 15.2676 13.118 15.4628 13.1257C15.6538 13.1427 15.7046 13.2809 15.7495 13.2489C15.7965 13.2122 15.7054 13.0698 15.451 13.0075C15.1995 12.9517 15.053 13.0868 14.5405 12.8524C14.0279 12.6179 13.798 12.8033 13.3454 12.5695" stroke="#85340A" stroke-width="0.1408"/>
<path d="M11.925 12.6555L15.4863 13.842C15.4863 13.842 15.5532 13.8668 15.5729 13.8278C15.5887 13.7853 15.5218 13.7605 15.5218 13.7605L12.0706 12.3332M12.9954 13.2151C13.3495 13.5622 13.7824 13.541 14.0854 13.8632C14.3884 14.1926 14.7544 14.1962 14.9315 14.2705C15.1007 14.352 15.0889 14.4972 15.144 14.483C15.203 14.4653 15.1794 14.3024 14.9708 14.1572C14.7623 14.0191 14.5694 14.0935 14.1956 13.7003C13.8217 13.3072 13.5305 13.3993 13.2118 13.0274" fill="#F6B40E"/>
<path d="M11.925 12.6555L15.4863 13.842C15.4863 13.842 15.5532 13.8668 15.5729 13.8278C15.5887 13.7853 15.5218 13.7605 15.5218 13.7605L12.0706 12.3332M12.9954 13.2151C13.3495 13.5622 13.7824 13.541 14.0854 13.8632C14.3884 14.1926 14.7544 14.1962 14.9315 14.2705C15.1007 14.352 15.0889 14.4972 15.144 14.483C15.203 14.4653 15.1794 14.3024 14.9708 14.1572C14.7623 14.0191 14.5694 14.0935 14.1956 13.7003C13.8217 13.3072 13.5305 13.3993 13.2118 13.0274" stroke="#85340A" stroke-width="0.1408"/>
<path d="M11.8629 12.6176L14.6487 14.9404C14.6487 14.9404 14.7 14.9863 14.7347 14.9571C14.7673 14.9233 14.7161 14.8773 14.7161 14.8773L12.1345 12.37M12.6139 13.5033C12.7935 13.9459 13.2025 14.0754 13.3454 14.4775C13.4853 14.8862 13.8219 15.0155 13.9539 15.1452C14.0756 15.2787 14.0029 15.4088 14.0598 15.4147C14.1219 15.4187 14.1693 15.26 14.0384 15.054C13.9044 14.8546 13.6947 14.8569 13.5164 14.3649C13.3382 13.873 13.03 13.8578 12.8937 13.4044" fill="#F6B40E"/>
<path d="M11.8629 12.6176L14.6487 14.9404C14.6487 14.9404 14.7 14.9863 14.7347 14.9571C14.7673 14.9233 14.7161 14.8773 14.7161 14.8773L12.1345 12.37M12.6139 13.5033C12.7935 13.9459 13.2025 14.0754 13.3454 14.4775C13.4853 14.8862 13.8219 15.0155 13.9539 15.1452C14.0756 15.2787 14.0029 15.4088 14.0598 15.4147C14.1219 15.4187 14.1693 15.26 14.0384 15.054C13.9044 14.8546 13.6947 14.8569 13.5164 14.3649C13.3382 13.873 13.03 13.8578 12.8937 13.4044" stroke="#85340A" stroke-width="0.1408"/>
<path d="M13.3577 12.2808C13.8586 12.2557 14.0812 12.0003 14.5431 12.0504C14.1814 11.9402 13.8976 12.2056 13.3633 12.1906M12.0388 12.5763L14.4096 11.5996L11.9664 12.416" fill="#85340A"/>
<path d="M13.3459 12.7649C13.8193 12.9142 14.1335 12.7549 14.539 12.9603C14.2516 12.7339 13.8765 12.8814 13.3893 12.6835M12.0017 12.5836L14.6073 12.4978L12.003 12.4106" fill="#85340A"/>
<path d="M13.1292 13.208C13.503 13.5091 13.8611 13.4701 14.1484 13.7995C13.9792 13.4914 13.5699 13.4984 13.204 13.1478M11.9644 12.5776L14.4081 13.3957L12.0391 12.4182" fill="#85340A"/>
<path d="M12.7404 13.5428C12.9578 13.9497 13.3052 14.0371 13.4306 14.4403C13.4053 14.0973 13.0242 13.9629 12.8351 13.513M11.9323 12.5592L13.8422 14.1567L12.0692 12.4377" fill="#85340A"/>
<path d="M12 13.8853C12.8525 13.8853 13.5435 13.2633 13.5435 12.4961C13.5435 11.7289 12.8525 11.107 12 11.107C11.1476 11.107 10.4565 11.7289 10.4565 12.4961C10.4565 13.2633 11.1476 13.8853 12 13.8853Z" fill="#F6B40E" stroke="#85340A" stroke-width="0.1875"/>
<path d="M12.527 12.2026C12.4184 12.2026 12.3205 12.2418 12.2607 12.3249C12.3803 12.4228 12.6412 12.4325 12.8205 12.3151C12.783 12.2787 12.7376 12.2495 12.6872 12.2293C12.6367 12.2092 12.5822 12.1984 12.527 12.1978V12.2026ZM12.527 12.2222C12.6303 12.2222 12.7227 12.2613 12.739 12.3054C12.6194 12.4228 12.4292 12.413 12.3097 12.3249C12.364 12.2516 12.4455 12.2222 12.527 12.2222Z" fill="#843511"/>
<path d="M12.549 12.1342C12.3968 12.1342 12.3588 12.1636 12.2882 12.2174C12.2175 12.2712 12.1795 12.2614 12.1686 12.2712C12.1577 12.281 12.1686 12.3152 12.1903 12.3054C12.2175 12.2907 12.2664 12.2712 12.3371 12.2174C12.4077 12.1685 12.4784 12.1685 12.5545 12.1685C12.761 12.1685 12.8805 12.325 12.9077 12.3152C12.9295 12.3054 12.7882 12.1342 12.549 12.1342Z" fill="#85340A"/>
<path d="M12.978 12.1978C12.7063 11.9826 12.3585 11.9532 12.1682 12.1097C12.1237 12.163 12.0939 12.225 12.0813 12.2907C12.0541 12.413 12.0976 12.5451 12.2063 12.682C12.19 12.682 12.1682 12.6869 12.1519 12.7016C12.0595 12.5353 12.0269 12.369 12.0595 12.2124L12.0976 12.0902C12.3585 11.8945 12.7172 11.8749 12.978 12.1978Z" fill="#85340A"/>
<path d="M12.5218 12.4032C12.5818 12.4032 12.6305 12.3594 12.6305 12.3054C12.6305 12.2514 12.5818 12.2076 12.5218 12.2076C12.4618 12.2076 12.4131 12.2514 12.4131 12.3054C12.4131 12.3594 12.4618 12.4032 12.5218 12.4032Z" fill="#85340A"/>
<path d="M12.8315 12.3689C12.6304 12.5059 12.4293 12.4961 12.3097 12.4325C12.1902 12.3689 12.1902 12.3445 12.2173 12.3445C12.2391 12.3445 12.2663 12.3689 12.3587 12.413C12.4565 12.4521 12.5978 12.4521 12.8369 12.364L12.8315 12.3689Z" fill="#85340A"/>
<path d="M11.7608 12.6918C11.7426 12.6941 11.7254 12.7005 11.7107 12.7105C11.696 12.7204 11.6843 12.7335 11.6768 12.7486C11.6693 12.7637 11.6662 12.7803 11.6677 12.7968C11.6692 12.8133 11.6754 12.8291 11.6856 12.8429C11.6958 12.8567 11.7097 12.8679 11.726 12.8755C11.7423 12.8831 11.7605 12.8869 11.7789 12.8864C11.7973 12.886 11.8152 12.8814 11.8311 12.873C11.8469 12.8646 11.8601 12.8528 11.8695 12.8385C11.913 12.8679 11.9673 12.8679 11.9999 12.8679H12.0163C12.0434 12.8679 12.1032 12.8679 12.1413 12.8385C12.163 12.863 12.1956 12.8777 12.2282 12.8777C12.2532 12.8755 12.2765 12.8656 12.2943 12.8496C12.3121 12.8337 12.3232 12.8127 12.3258 12.7903C12.3283 12.7678 12.3222 12.7452 12.3083 12.7264C12.2945 12.7076 12.2739 12.6936 12.2499 12.6869C12.2771 12.6967 12.2989 12.7211 12.2989 12.7505C12.2989 12.768 12.2911 12.7848 12.2774 12.7972C12.2636 12.8096 12.2449 12.8165 12.2255 12.8165C12.206 12.8165 12.1874 12.8096 12.1736 12.7972C12.1599 12.7848 12.1521 12.768 12.1521 12.7505C12.1396 12.7763 12.1191 12.7983 12.0931 12.8139C12.0671 12.8295 12.0366 12.8381 12.0054 12.8385C11.9746 12.8365 11.9449 12.8273 11.9192 12.8119C11.8934 12.7964 11.8726 12.7753 11.8586 12.7505C11.8586 12.7847 11.826 12.8141 11.788 12.8141C11.7693 12.8167 11.7501 12.8124 11.7348 12.8024C11.7196 12.7923 11.7094 12.7771 11.7065 12.7603C11.7036 12.7434 11.7083 12.7262 11.7195 12.7124C11.7307 12.6987 11.7475 12.6895 11.7663 12.6869L11.7608 12.6918ZM11.8804 12.9755C11.7608 12.9755 11.7173 13.0733 11.6086 13.1369C11.663 13.1124 11.7173 13.0733 11.7989 13.0293C11.8804 12.9853 11.951 13.0391 11.9999 13.0391C12.0489 13.0391 12.1195 12.9853 12.201 13.0293C12.2826 13.0733 12.3315 13.1124 12.3913 13.1369C12.2826 13.0684 12.2391 12.9755 12.1195 12.9755C12.0779 12.9783 12.0374 12.9883 11.9999 13.0048C11.9456 12.9853 11.9021 12.9755 11.8804 12.9755Z" fill="#85340A"/>
<path d="M11.8368 13.0977C11.7933 13.0977 11.7281 13.1124 11.6411 13.1368C11.8585 13.0879 11.902 13.1564 11.9998 13.1564C12.0922 13.1564 12.1411 13.0928 12.3585 13.1368C12.1194 13.0684 12.0705 13.1124 11.9998 13.1124C11.9509 13.1124 11.9183 13.0977 11.8368 13.0977Z" fill="#85340A"/>
<path d="M11.6521 13.132H11.6086C11.8586 13.1565 11.7391 13.2836 11.9999 13.2836C12.2608 13.2836 12.1413 13.1565 12.3913 13.1369C12.1304 13.1125 12.2119 13.2543 11.9999 13.2543C11.7989 13.2543 11.8586 13.132 11.6521 13.132Z" fill="#85340A"/>
<path d="M11.0378 12.1978C11.3096 11.9826 11.6574 11.9532 11.8476 12.1097C11.8921 12.163 11.9219 12.225 11.9346 12.2907C11.9618 12.413 11.9183 12.5451 11.8096 12.682C11.8259 12.682 11.8476 12.6869 11.8639 12.7016C11.9563 12.5353 11.9889 12.369 11.9563 12.2124L11.9183 12.0902C11.6574 11.8945 11.2987 11.8749 11.0378 12.1978Z" fill="#85340A"/>
<path d="M11.4673 12.1342C11.6195 12.1342 11.6576 12.1636 11.7282 12.2174C11.7989 12.2712 11.8369 12.2614 11.8478 12.2712C11.8586 12.281 11.8478 12.3152 11.826 12.3054C11.7989 12.2907 11.7499 12.2712 11.6793 12.2174C11.6086 12.1685 11.538 12.1685 11.4619 12.1685C11.2554 12.1685 11.1358 12.325 11.1086 12.3152C11.0869 12.3054 11.2282 12.1342 11.4673 12.1342Z" fill="#85340A"/>
<path d="M11.4619 12.2026C11.3532 12.2026 11.2553 12.2418 11.1956 12.3249C11.3151 12.4228 11.576 12.4325 11.7553 12.3151C11.7178 12.2787 11.6724 12.2495 11.622 12.2293C11.5715 12.2092 11.5171 12.1984 11.4619 12.1978V12.2026ZM11.4619 12.2222C11.5651 12.2222 11.6575 12.2613 11.6738 12.3054C11.5543 12.4228 11.364 12.413 11.2445 12.3249C11.2988 12.2516 11.3803 12.2222 11.4619 12.2222Z" fill="#843511"/>
<path d="M11.4727 12.4032C11.5327 12.4032 11.5814 12.3594 11.5814 12.3054C11.5814 12.2514 11.5327 12.2076 11.4727 12.2076C11.4127 12.2076 11.364 12.2514 11.364 12.3054C11.364 12.3594 11.4127 12.4032 11.4727 12.4032Z" fill="#85340A"/>
<path d="M11.1846 12.3689C11.3857 12.5059 11.5868 12.4961 11.7064 12.4325C11.8259 12.3689 11.8259 12.3445 11.7988 12.3445C11.777 12.3445 11.7499 12.3689 11.6575 12.413C11.5596 12.4521 11.4183 12.4521 11.1792 12.364L11.1846 12.3689Z" fill="#85340A"/>
</g>
<defs>
<clipPath id="clip0_1_5557">
<rect width="24" height="25.0435" fill="white"/>
</clipPath>
</defs>
</svg>
