<svg width="24" height="25" viewBox="0 0 24 25" fill="none" xmlns="http://www.w3.org/2000/svg">
<g clip-path="url(#clip0_1_5769)">
<path d="M3.80151 0.0434875H20.7843V24.0435H3.80151V0.0434875Z" fill="white"/>
<path d="M-4.6875 0.0434875H3.80156V24.0435H-4.6875V0.0434875ZM20.7844 0.0434875H29.2734V24.0435H20.7844V0.0434875ZM6.34219 11.6404L5.68594 11.8654L8.75156 14.5607C8.98594 15.2544 8.67188 15.456 8.47031 15.8216L11.7984 15.3997L11.7141 18.7513L12.4078 18.7279L12.2531 15.4044L15.5906 15.7982C15.3844 15.3622 15.2016 15.1326 15.3891 14.4388L18.4547 11.8841L17.9203 11.6919C17.4797 11.3497 18.1078 10.0607 18.2016 9.24505C18.2016 9.24505 16.4156 9.85911 16.2984 9.53568L15.8344 8.66849L14.2125 10.4497C14.0344 10.4966 13.9594 10.4216 13.9172 10.2716L14.6672 6.53568L13.4766 7.20599C13.3781 7.24818 13.2797 7.20599 13.2141 7.09349L12.0656 4.79661L10.8844 7.18255C10.7953 7.26693 10.7062 7.2763 10.6312 7.22005L9.49688 6.58255L10.1766 10.295C10.125 10.4357 9.99375 10.4826 9.84375 10.4029L8.28281 8.63099C8.08125 8.95911 7.94063 9.49349 7.67344 9.61536C7.40625 9.72317 6.50156 9.38568 5.89688 9.25443C6.10313 9.99974 6.75 11.2372 6.34219 11.6451V11.6404Z" fill="#D52B1E"/>
</g>
<defs>
<clipPath id="clip0_1_5769">
<rect width="24" height="24" fill="white" transform="translate(0 0.0434875)"/>
</clipPath>
</defs>
</svg>
