<svg width="24" height="24" viewBox="0 0 24 24" fill="none" xmlns="http://www.w3.org/2000/svg">
<g clip-path="url(#clip0_1_5774)">
<path d="M0 0.0434875H43.776V23.0835H0" fill="#B31942"/>
<path d="M0 2.70197H43.776ZM43.776 6.24658H0ZM0 9.7912H43.776ZM43.776 13.3358H0ZM0 16.8804H43.776ZM43.776 20.425H0Z" fill="black"/>
<path d="M0 2.70197H43.776M43.776 6.24658H0M0 9.7912H43.776M43.776 13.3358H0M0 16.8804H43.776M43.776 20.425H0" stroke="white" stroke-width="0.610994"/>
<path d="M0 0.0434875H17.5104V12.4496H0" fill="#0A3161"/>
<path d="M1.45926 0.575165L1.87595 1.85762L0.785034 1.06502H2.13349L1.04257 1.85762L1.45926 0.575165Z" fill="white"/>
<path d="M1.45889 3.05643L1.87559 4.33888L0.784668 3.54628H2.13312L1.0422 4.33888L1.45889 3.05643Z" fill="white"/>
<path d="M1.45889 5.53766L1.87559 6.82011L0.784668 6.02751H2.13312L1.0422 6.82011L1.45889 5.53766Z" fill="white"/>
<path d="M1.45889 8.01889L1.87559 9.30134L0.784668 8.50874H2.13312L1.0422 9.30134L1.45889 8.01889Z" fill="white"/>
<path d="M1.45889 10.5001L1.87559 11.7826L0.784668 10.99H2.13312L1.0422 11.7826L1.45889 10.5001Z" fill="white"/>
<path d="M2.918 1.8158L3.33469 3.09825L2.24377 2.30565H3.59223L2.50131 3.09825L2.918 1.8158Z" fill="white"/>
<path d="M2.91788 4.29703L3.33457 5.57948L2.24365 4.78688H3.5921L2.50118 5.57948L2.91788 4.29703Z" fill="white"/>
<path d="M2.91788 6.77826L3.33457 8.06071L2.24365 7.26811H3.5921L2.50118 8.06071L2.91788 6.77826Z" fill="white"/>
<path d="M2.91788 9.25949L3.33457 10.5419L2.24365 9.74934H3.5921L2.50118 10.5419L2.91788 9.25949Z" fill="white"/>
<path d="M4.37711 0.575195L4.7938 1.85765L3.70288 1.06505H5.05133L3.96041 1.85765L4.37711 0.575195Z" fill="white"/>
<path d="M4.37735 3.05646L4.79405 4.33891L3.70312 3.54631H5.05158L3.96066 4.33891L4.37735 3.05646Z" fill="white"/>
<path d="M4.37735 5.53769L4.79405 6.82014L3.70312 6.02754H5.05158L3.96066 6.82014L4.37735 5.53769Z" fill="white"/>
<path d="M4.37735 8.01892L4.79405 9.30137L3.70312 8.50877H5.05158L3.96066 9.30137L4.37735 8.01892Z" fill="white"/>
<path d="M4.37735 10.5002L4.79405 11.7826L3.70312 10.99H5.05158L3.96066 11.7826L4.37735 10.5002Z" fill="white"/>
<path d="M5.83682 1.81583L6.25352 3.09828L5.1626 2.30568H6.51105L5.42013 3.09828L5.83682 1.81583Z" fill="white"/>
<path d="M5.83695 4.29706L6.25364 5.57951L5.16272 4.78691H6.51117L5.42025 5.57951L5.83695 4.29706Z" fill="white"/>
<path d="M5.83695 6.77829L6.25364 8.06074L5.16272 7.26814H6.51117L5.42025 8.06074L5.83695 6.77829Z" fill="white"/>
<path d="M5.83695 9.25952L6.25364 10.542L5.16272 9.74938H6.51117L5.42025 10.542L5.83695 9.25952Z" fill="white"/>
<path d="M7.29581 0.575195L7.7125 1.85765L6.62158 1.06505H7.97003L6.87911 1.85765L7.29581 0.575195Z" fill="white"/>
<path d="M7.29544 3.05646L7.71214 4.33891L6.62122 3.54631H7.96967L6.87875 4.33891L7.29544 3.05646Z" fill="white"/>
<path d="M7.29544 5.53769L7.71214 6.82014L6.62122 6.02754H7.96967L6.87875 6.82014L7.29544 5.53769Z" fill="white"/>
<path d="M7.29544 8.01892L7.71214 9.30137L6.62122 8.50877H7.96967L6.87875 9.30137L7.29544 8.01892Z" fill="white"/>
<path d="M7.29544 10.5002L7.71214 11.7826L6.62122 10.99H7.96967L6.87875 11.7826L7.29544 10.5002Z" fill="white"/>
<path d="M8.75455 1.81583L9.17124 3.09828L8.08032 2.30568H9.42877L8.33785 3.09828L8.75455 1.81583Z" fill="white"/>
<path d="M8.75455 4.29706L9.17124 5.57951L8.08032 4.78691H9.42877L8.33785 5.57951L8.75455 4.29706Z" fill="white"/>
<path d="M8.75455 6.77829L9.17124 8.06074L8.08032 7.26814H9.42877L8.33785 8.06074L8.75455 6.77829Z" fill="white"/>
<path d="M8.75455 9.25952L9.17124 10.542L8.08032 9.74938H9.42877L8.33785 10.542L8.75455 9.25952Z" fill="white"/>
<path d="M10.2137 0.575226L10.6303 1.85768L9.53943 1.06508H10.8879L9.79696 1.85768L10.2137 0.575226Z" fill="white"/>
<path d="M10.2139 3.05649L10.6306 4.33894L9.53967 3.54634H10.8881L9.7972 4.33894L10.2139 3.05649Z" fill="white"/>
<path d="M10.2139 5.53772L10.6306 6.82017L9.53967 6.02757H10.8881L9.7972 6.82017L10.2139 5.53772Z" fill="white"/>
<path d="M10.2139 8.01895L10.6306 9.30141L9.53967 8.50881H10.8881L9.7972 9.30141L10.2139 8.01895Z" fill="white"/>
<path d="M10.2139 10.5002L10.6306 11.7826L9.53967 10.99H10.8881L9.7972 11.7826L10.2139 10.5002Z" fill="white"/>
<path d="M11.6734 1.81586L12.0901 3.09831L10.9991 2.30571H12.3476L11.2567 3.09831L11.6734 1.81586Z" fill="white"/>
<path d="M11.6735 4.29709L12.0902 5.57954L10.9993 4.78694H12.3477L11.2568 5.57954L11.6735 4.29709Z" fill="white"/>
<path d="M11.6735 6.77832L12.0902 8.06077L10.9993 7.26817H12.3477L11.2568 8.06077L11.6735 6.77832Z" fill="white"/>
<path d="M11.6735 9.25955L12.0902 10.542L10.9993 9.74941H12.3477L11.2568 10.542L11.6735 9.25955Z" fill="white"/>
<path d="M13.1326 0.575195L13.5493 1.85765L12.4584 1.06505H13.8068L12.7159 1.85765L13.1326 0.575195Z" fill="white"/>
<path d="M13.1322 3.05646L13.5489 4.33891L12.458 3.54631H13.8065L12.7155 4.33891L13.1322 3.05646Z" fill="white"/>
<path d="M13.1322 5.53769L13.5489 6.82014L12.458 6.02754H13.8065L12.7155 6.82014L13.1322 5.53769Z" fill="white"/>
<path d="M13.1322 8.01892L13.5489 9.30137L12.458 8.50877H13.8065L12.7155 9.30137L13.1322 8.01892Z" fill="white"/>
<path d="M13.1322 10.5002L13.5489 11.7826L12.458 10.99H13.8065L12.7155 11.7826L13.1322 10.5002Z" fill="white"/>
<path d="M14.5913 1.81583L15.008 3.09828L13.9171 2.30568H15.2656L14.1746 3.09828L14.5913 1.81583Z" fill="white"/>
<path d="M14.5913 4.29706L15.008 5.57951L13.9171 4.78691H15.2656L14.1746 5.57951L14.5913 4.29706Z" fill="white"/>
<path d="M14.5913 6.77829L15.008 8.06074L13.9171 7.26814H15.2656L14.1746 8.06074L14.5913 6.77829Z" fill="white"/>
<path d="M14.5913 9.25952L15.008 10.542L13.9171 9.74938H15.2656L14.1746 10.542L14.5913 9.25952Z" fill="white"/>
<path d="M16.0508 0.575195L16.4675 1.85765L15.3766 1.06505H16.725L15.6341 1.85765L16.0508 0.575195Z" fill="white"/>
<path d="M16.0511 3.05646L16.4678 4.33891L15.3768 3.54631H16.7253L15.6344 4.33891L16.0511 3.05646Z" fill="white"/>
<path d="M16.0511 5.53769L16.4678 6.82014L15.3768 6.02754H16.7253L15.6344 6.82014L16.0511 5.53769Z" fill="white"/>
<path d="M16.0511 8.01892L16.4678 9.30137L15.3768 8.50877H16.7253L15.6344 9.30137L16.0511 8.01892Z" fill="white"/>
<path d="M16.0511 10.5002L16.4678 11.7826L15.3768 10.99H16.7253L15.6344 11.7826L16.0511 10.5002Z" fill="white"/>
</g>
<defs>
<clipPath id="clip0_1_5774">
<rect width="24" height="23.04" fill="white" transform="translate(0 0.0434875)"/>
</clipPath>
</defs>
</svg>
