<svg width="25" height="24" viewBox="0 0 25 24" fill="none" xmlns="http://www.w3.org/2000/svg">
<g clip-path="url(#clip0_1_5543)">
<path d="M0.5 0H36.5V24H0.5V0Z" fill="#E30A17"/>
<path d="M17.2 12L22.6272 10.2368L19.2728 14.8532V9.1468L22.6272 13.7632L17.2 12ZM17.57 15.2084C16.8749 16.3069 15.8418 17.1499 14.6262 17.6106C13.4106 18.0713 12.0782 18.1247 10.8297 17.7628C9.58108 17.401 8.4838 16.6434 7.70294 15.6041C6.92207 14.5648 6.49988 13.3 6.49988 12C6.49988 10.7 6.92207 9.43524 7.70294 8.39593C8.4838 7.35662 9.58108 6.59903 10.8297 6.23716C12.0782 5.87529 13.4106 5.92871 14.6262 6.3894C15.8418 6.85008 16.8749 7.6931 17.57 8.7916C16.9209 8.06927 16.0679 7.56083 15.1237 7.33343C14.1796 7.10604 13.1886 7.17039 12.2818 7.51799C11.375 7.86559 10.5949 8.48008 10.0447 9.2803C9.49441 10.0805 9.19982 11.0288 9.19982 12C9.19982 12.9712 9.49441 13.9195 10.0447 14.7197C10.5949 15.5199 11.375 16.1344 12.2818 16.482C13.1886 16.8296 14.1796 16.894 15.1237 16.6666C16.0679 16.4392 16.9209 15.9307 17.57 15.2084Z" fill="white"/>
</g>
<defs>
<clipPath id="clip0_1_5543">
<rect width="24" height="24" fill="white" transform="translate(0.5)"/>
</clipPath>
</defs>
</svg>
