<svg width="24" height="25" viewBox="0 0 24 25" fill="none" xmlns="http://www.w3.org/2000/svg">
<g clip-path="url(#clip0_1_5614)">
<path d="M0 16.0279H24V24.0435H0V16.0279Z" fill="#0038A8"/>
<path d="M0 8.04504H24V16.0419H0V8.04504Z" fill="white"/>
<path d="M0 0.0434875H24V8.04505H0V0.0434875Z" fill="#D52B1E"/>
<path d="M12.0214 15.1126C13.7164 15.1126 15.0905 13.7385 15.0905 12.0435C15.0905 10.3485 13.7164 8.97443 12.0214 8.97443C10.3264 8.97443 8.95227 10.3485 8.95227 12.0435C8.95227 13.7385 10.3264 15.1126 12.0214 15.1126Z" stroke="black" stroke-width="0.213334"/>
<path d="M12.0213 14.5672C13.4151 14.5672 14.545 13.4373 14.545 12.0435C14.545 10.6498 13.4151 9.51988 12.0213 9.51988C10.6276 9.51988 9.49768 10.6498 9.49768 12.0435C9.49768 13.4373 10.6276 14.5672 12.0213 14.5672Z" stroke="black" stroke-width="0.09697"/>
<path d="M12.0213 13.9781C13.0898 13.9781 13.9559 13.112 13.9559 12.0435C13.9559 10.9751 13.0898 10.109 12.0213 10.109C10.9529 10.109 10.0868 10.9751 10.0868 12.0435C10.0868 13.112 10.9529 13.9781 12.0213 13.9781Z" stroke="black" stroke-width="0.077576"/>
<path d="M10.3875 13.2294L10.0313 13.4404L9.92346 13.2529C9.90723 13.2282 9.8946 13.2014 9.88596 13.1732C9.88213 13.1524 9.88543 13.1309 9.89534 13.1122C9.90471 13.0888 9.91877 13.0747 9.94221 13.0607C9.9589 13.0501 9.97808 13.0441 9.99783 13.0432C10.0176 13.0424 10.0372 13.0468 10.0547 13.056L10.0922 13.0841C10.0908 13.0732 10.0908 13.0622 10.0922 13.0513L10.0969 13.0232L10.111 12.9904L10.1813 12.8779L10.2563 12.9997L10.1813 13.1263C10.1739 13.1376 10.1691 13.1504 10.1672 13.1638C10.1661 13.1734 10.1677 13.1832 10.1719 13.1919L10.1813 13.2013L10.3219 13.1169L10.3875 13.2294ZM10.111 13.2435L10.0828 13.1966C10.0773 13.1868 10.071 13.1774 10.0641 13.1685C10.061 13.1655 10.0573 13.1631 10.0533 13.1615C10.0493 13.1599 10.045 13.1591 10.0406 13.1591C10.0325 13.1581 10.0243 13.1597 10.0172 13.1638C10.0031 13.1732 9.99846 13.1779 9.99377 13.1919L10.0125 13.2388L10.0406 13.2857L10.111 13.2435ZM9.77815 12.9669L9.67034 12.6388L9.75471 12.6154L9.82034 12.8169L9.88127 12.7982L9.82034 12.6107L9.90002 12.5826L9.96096 12.7701L10.0406 12.7466L9.97034 12.5357L10.0641 12.5076L10.1719 12.8357L9.77815 12.9669ZM9.63752 12.4841L9.6094 12.2732C9.6094 12.2263 9.6094 12.1888 9.63284 12.1654C9.65159 12.1419 9.67971 12.1232 9.7219 12.1185C9.76409 12.1185 9.7969 12.1232 9.82502 12.1466C9.84846 12.1701 9.86721 12.2076 9.8719 12.2591L9.88127 12.3247L10.0313 12.3107L10.0453 12.4372L9.63752 12.4841ZM9.7969 12.3388L9.79221 12.306C9.79221 12.2826 9.78284 12.2638 9.77346 12.2591C9.76935 12.2545 9.76429 12.2509 9.75862 12.2484C9.75295 12.246 9.74681 12.2449 9.74065 12.2451C9.72829 12.2452 9.71649 12.2503 9.70784 12.2591C9.69846 12.2685 9.69846 12.2872 9.69846 12.3107L9.70315 12.3482L9.7969 12.3388ZM9.62346 11.706L9.63752 11.5794L9.88127 11.6076C9.90471 11.6076 9.92815 11.6169 9.9469 11.6263C9.97034 11.6357 9.98909 11.6497 10.0031 11.6685L10.0313 11.7247C10.0384 11.754 10.0384 11.7845 10.0313 11.8138C10.0313 11.8326 10.0313 11.856 10.0219 11.8794C10.0219 11.9029 10.0125 11.9216 9.99846 11.9357L9.96096 11.9732C9.94569 11.9847 9.92809 11.9927 9.9094 11.9966C9.88127 12.0013 9.86252 12.006 9.83909 12.0013L9.59534 11.9732L9.6094 11.8466L9.85784 11.8747C9.88127 11.8747 9.90002 11.8747 9.91409 11.8607C9.92815 11.8513 9.93284 11.8326 9.93752 11.8138C9.93931 11.804 9.93899 11.7939 9.93656 11.7842C9.93414 11.7745 9.92967 11.7654 9.92346 11.7576C9.91409 11.7435 9.89534 11.7388 9.87659 11.7341L9.62346 11.706ZM9.67502 11.406L9.75471 11.1763C9.76877 11.1388 9.78752 11.1154 9.81565 11.1013C9.82777 11.0947 9.84119 11.0909 9.85497 11.0901C9.86874 11.0892 9.88253 11.0915 9.89534 11.0966C9.91422 11.1036 9.93034 11.1165 9.94131 11.1334C9.95229 11.1503 9.95753 11.1703 9.95627 11.1904C9.97502 11.1622 9.99377 11.1435 10.0125 11.1435C10.0351 11.1344 10.0603 11.1344 10.0828 11.1435C10.1017 11.1497 10.1185 11.1608 10.1317 11.1756C10.1449 11.1904 10.1539 11.2084 10.1578 11.2279V11.2747L10.1391 11.331L10.0688 11.5419L9.67502 11.406ZM9.8719 11.3357L9.89065 11.2841C9.90002 11.2654 9.90002 11.2513 9.89534 11.2372C9.89534 11.2326 9.88596 11.2232 9.8719 11.2185C9.86679 11.216 9.86118 11.2147 9.85549 11.2147C9.84981 11.2147 9.8442 11.216 9.83909 11.2185L9.81565 11.256L9.7969 11.3122L9.8719 11.3357ZM10.0266 11.3919L10.05 11.3263V11.2794C10.0482 11.274 10.0451 11.269 10.041 11.265C10.037 11.2609 10.032 11.2578 10.0266 11.256C10.0215 11.2535 10.0159 11.2522 10.0102 11.2522C10.0045 11.2522 9.99889 11.2535 9.99377 11.256C9.9844 11.2654 9.97502 11.2794 9.97034 11.3029L9.9469 11.3638L10.0266 11.3919ZM9.8719 10.9091L9.93752 10.7966L10.2047 10.956L10.3078 10.7872L10.3969 10.8388L10.2281 11.1201L9.8719 10.9091ZM10.125 10.5294L10.2047 10.431L10.5235 10.6935L10.4391 10.7919L10.125 10.5294ZM10.6781 10.3138L10.786 10.2669C10.8 10.2951 10.8094 10.3232 10.8094 10.3513C10.811 10.3771 10.8062 10.4029 10.7953 10.4263C10.7813 10.4532 10.7622 10.477 10.7391 10.4966C10.712 10.5216 10.6801 10.5408 10.6453 10.5529C10.6125 10.5622 10.5797 10.5622 10.5422 10.5529C10.4993 10.5374 10.4618 10.5097 10.4344 10.4732C10.3875 10.4263 10.3688 10.3701 10.3735 10.3185C10.3735 10.2669 10.4016 10.2201 10.4531 10.1779C10.4841 10.1481 10.5233 10.1285 10.5656 10.1216C10.6067 10.1178 10.6479 10.1277 10.6828 10.1497L10.6125 10.2435C10.604 10.2373 10.5945 10.2325 10.5844 10.2294C10.5736 10.227 10.5624 10.227 10.5516 10.2294C10.5392 10.2328 10.5279 10.2392 10.5188 10.2482C10.4953 10.2669 10.486 10.2904 10.4906 10.3185C10.4906 10.3372 10.5047 10.3654 10.5328 10.3888C10.561 10.4263 10.5891 10.4451 10.6078 10.4497C10.6313 10.4497 10.65 10.4497 10.6688 10.431C10.6875 10.4122 10.6969 10.3982 10.6969 10.3794C10.6969 10.3607 10.6922 10.3372 10.6781 10.3138ZM11.1188 10.1544L10.9922 10.2247L11.0063 10.2951L10.8891 10.356L10.8328 9.91537L10.9547 9.84974L11.2875 10.1451L11.1703 10.206L11.1188 10.1544ZM11.0531 10.0888L10.9453 9.98099L10.9735 10.131L11.0531 10.0888ZM11.4469 9.66693L11.6344 9.63412C11.6653 9.62754 11.6972 9.62754 11.7281 9.63412C11.7516 9.63881 11.7703 9.64818 11.7891 9.66693C11.8078 9.68099 11.8219 9.69974 11.836 9.72318L11.8547 9.80287C11.8641 9.84974 11.8641 9.88256 11.8547 9.90599C11.8508 9.93126 11.8412 9.9553 11.8266 9.97631C11.8145 9.99385 11.7984 10.0083 11.7797 10.0185L11.7047 10.0419L11.5172 10.0747L11.4469 9.66693ZM11.5875 9.73724L11.625 9.95756H11.6578C11.6813 9.94818 11.7047 9.94349 11.7094 9.93412C11.7235 9.92943 11.7281 9.91537 11.7328 9.90131V9.82631C11.7235 9.78412 11.7094 9.75599 11.6953 9.74193C11.6766 9.72787 11.6485 9.72318 11.6203 9.73256L11.5875 9.73724ZM11.9766 9.59662L12.3188 9.60599V9.69974L12.1031 9.69037L12.0985 9.75599L12.2953 9.76068V9.84506L12.0938 9.84037V9.92006L12.3141 9.92943L12.3094 10.0232L11.9578 10.0091L11.9766 9.59662ZM12.4735 9.63412L12.6 9.66224L12.525 9.96693L12.7172 10.0138L12.6938 10.1122L12.375 10.0372L12.4735 9.63412ZM13.1391 9.85443L13.3219 9.96224C13.3641 9.98568 13.3875 10.0091 13.3969 10.0419C13.4016 10.0747 13.3969 10.1076 13.3781 10.1404C13.3697 10.1568 13.3578 10.1712 13.3432 10.1825C13.3287 10.1939 13.3118 10.2019 13.2938 10.206C13.261 10.2154 13.2235 10.206 13.1766 10.1779L13.1156 10.1451L13.0406 10.2763L12.9281 10.2107L13.1391 9.85443ZM13.1625 10.0701L13.186 10.0888L13.2375 10.1029C13.2433 10.1019 13.2487 10.0997 13.2535 10.0964C13.2584 10.0932 13.2625 10.089 13.2656 10.0841C13.2698 10.0789 13.2728 10.0728 13.2744 10.0664C13.276 10.0599 13.2762 10.0532 13.275 10.0466C13.2703 10.0326 13.261 10.0232 13.2375 10.0091L13.2094 9.99037L13.1625 10.0701ZM13.5188 10.5529L13.411 10.4544L13.35 10.4919L13.2563 10.3982L13.65 10.206L13.7531 10.2997L13.5844 10.7076L13.4906 10.6138L13.5188 10.5529ZM13.561 10.4685L13.6266 10.3279L13.4953 10.4076L13.561 10.4685ZM13.6078 10.7451L13.95 10.5107L14.0719 10.6841L14.1188 10.7685L14.1141 10.8294C14.1047 10.8482 14.0906 10.8669 14.0672 10.881C14.0516 10.8949 14.0318 10.9031 14.011 10.9044C13.9917 10.906 13.9724 10.9028 13.9547 10.8951C13.9409 10.8876 13.9282 10.8782 13.9172 10.8669V10.9326L13.9031 10.9607L13.8375 11.0779L13.7578 10.9607L13.8235 10.8341L13.8375 10.7966C13.8375 10.7872 13.8375 10.7732 13.8281 10.7638L13.8188 10.7544L13.6781 10.8482L13.6078 10.7451ZM13.8891 10.7122L13.9172 10.7591L13.9406 10.7779C13.9433 10.7818 13.9468 10.785 13.9508 10.7875C13.9549 10.7899 13.9594 10.7914 13.9641 10.7919C13.9688 10.7919 13.9781 10.7919 13.9875 10.7826C13.9926 10.7797 13.997 10.7756 14.0002 10.7707C14.0035 10.7658 14.0056 10.7603 14.0063 10.7544L13.9875 10.7076L13.9547 10.6607L13.8891 10.7122ZM14.0156 11.331L13.9594 11.1951L13.8891 11.1997L13.8422 11.0826L14.2828 11.0732L14.3297 11.1997L14.0063 11.4997L13.9594 11.3732L14.0156 11.331ZM14.086 11.2747L14.2078 11.1763L14.0531 11.1857L14.086 11.2747ZM14.1938 11.7247L14.2781 11.7107L14.311 11.9076L14.1328 11.9357C14.1066 11.9077 14.0845 11.8761 14.0672 11.8419C14.0345 11.7717 14.0262 11.6924 14.0438 11.6169C14.0578 11.5841 14.0766 11.5607 14.1094 11.5372C14.1415 11.5149 14.1785 11.5004 14.2172 11.4951C14.258 11.4873 14.3 11.4906 14.3391 11.5044C14.3755 11.5178 14.4067 11.5425 14.4281 11.5747C14.4422 11.6029 14.4563 11.6357 14.461 11.6826C14.4664 11.7167 14.4664 11.7515 14.461 11.7857C14.4584 11.8076 14.4503 11.8286 14.4375 11.8466L14.3766 11.8935L14.3344 11.7716C14.3485 11.7669 14.3578 11.7576 14.3672 11.7435C14.3719 11.7294 14.3766 11.7107 14.3719 11.6966C14.3712 11.6835 14.3674 11.6708 14.3609 11.6594C14.3544 11.648 14.3453 11.6383 14.3344 11.631C14.311 11.6169 14.2781 11.6169 14.2406 11.6216C14.1938 11.6263 14.161 11.6404 14.1469 11.6591C14.1383 11.6694 14.1322 11.6815 14.129 11.6945C14.1257 11.7075 14.1254 11.721 14.1281 11.7341L14.1422 11.7763L14.1703 11.8138H14.2078L14.1938 11.7247ZM14.4656 12.3247L14.4516 12.4513L14.2078 12.4326C14.1851 12.43 14.1629 12.4237 14.1422 12.4138C14.1204 12.4044 14.1011 12.3899 14.086 12.3716C14.0731 12.3566 14.0635 12.339 14.0578 12.3201C14.0506 12.2894 14.049 12.2576 14.0531 12.2263C14.0531 12.2076 14.0531 12.1841 14.0625 12.1607L14.0813 12.1044C14.0924 12.0877 14.1067 12.0733 14.1235 12.0622C14.1374 12.0514 14.1533 12.0434 14.1703 12.0388C14.1952 12.035 14.2205 12.035 14.2453 12.0388L14.4891 12.0576L14.4797 12.1841L14.2266 12.1607C14.2031 12.1607 14.1844 12.1607 14.1703 12.1747C14.1563 12.1888 14.1516 12.2029 14.1469 12.2263C14.1469 12.2497 14.1469 12.2638 14.161 12.2779C14.175 12.2919 14.1891 12.3013 14.2125 12.3013L14.4656 12.3247ZM14.0063 12.7654L14.0531 12.6247L13.9969 12.5826L14.0344 12.4607L14.3813 12.7372L14.3344 12.8685L13.8938 12.8872L13.9406 12.7607L14.0063 12.7654ZM14.1 12.7654H14.2547L14.1281 12.681L14.1 12.7654ZM14.25 13.1029L14.175 13.2247H14.0156L14.0906 13.3654L14.0156 13.4872L13.8938 13.2247L13.7438 13.1404L13.8094 13.0279L13.9594 13.1169L14.25 13.1029Z" fill="black"/>
<path d="M12.4312 10.6091C12.4312 10.6091 13.5984 11.1154 13.3922 12.156C13.1906 13.1919 12.539 13.1872 12.2859 13.2997C12.0281 13.4169 11.8547 13.581 11.7515 13.5576C11.6531 13.5341 11.5172 13.4544 11.5172 13.4544C11.5172 13.4544 11.5078 13.6279 11.714 13.656C11.9203 13.6888 12.1828 13.3888 12.3187 13.356C12.4547 13.3232 13.2375 13.2341 13.4343 12.1794C13.6593 11.0497 12.4359 10.6419 12.4312 10.6091Z" fill="#009B3A" stroke="black" stroke-width="0.0125"/>
<path d="M13.0172 10.8341C13.0234 10.8672 13.0259 10.8966 13.0243 10.9175C13.0228 10.9385 13.0173 10.9499 13.0087 10.9499C13.0001 10.9499 12.9889 10.9385 12.9769 10.9175C12.9648 10.8966 12.9526 10.8672 12.9422 10.8341C12.935 10.8113 12.9289 10.7875 12.9243 10.7644C12.9197 10.7413 12.9168 10.7197 12.9158 10.701C12.9147 10.6824 12.9156 10.6674 12.9183 10.657C12.921 10.6466 12.9255 10.6412 12.9314 10.6412C12.9373 10.6412 12.9445 10.6466 12.9524 10.657C12.9603 10.6674 12.9687 10.6824 12.977 10.701C12.9853 10.7197 12.9932 10.7413 13.0002 10.7644C13.0071 10.7875 13.013 10.8113 13.0172 10.8341ZM12.9797 10.8435C12.9914 10.8645 13.0022 10.8867 13.0115 10.9084C13.0207 10.9301 13.0281 10.9508 13.0331 10.9689C13.0382 10.987 13.0407 11.0021 13.0405 11.0131C13.0403 11.0242 13.0374 11.0308 13.0321 11.0326C13.0267 11.0344 13.019 11.0313 13.0096 11.0235C13.0001 11.0156 12.9891 11.0034 12.9773 10.9875C12.9656 10.9716 12.9534 10.9526 12.9416 10.9317C12.9299 10.9108 12.9189 10.8887 12.9094 10.8669C12.8948 10.8334 12.8846 10.8023 12.8805 10.7789C12.8764 10.7555 12.8787 10.7413 12.887 10.7385C12.8952 10.7358 12.9089 10.7447 12.9258 10.7638C12.9427 10.7829 12.9617 10.8111 12.9797 10.8435ZM12.8625 10.9185C12.883 10.9245 12.9032 10.9315 12.9219 10.9391C12.9407 10.9467 12.9575 10.9547 12.9716 10.9627C12.9857 10.9706 12.9967 10.9784 13.004 10.9855C13.0112 10.9927 13.0147 10.9991 13.014 11.0043C13.0134 11.0095 13.0088 11.0135 13.0004 11.016C12.9919 11.0186 12.9799 11.0196 12.965 11.019C12.95 11.0184 12.9325 11.0163 12.9133 11.0127C12.8941 11.0092 12.8737 11.0042 12.8531 10.9982C12.8117 10.986 12.7725 10.9701 12.7441 10.954C12.7156 10.9379 12.7004 10.923 12.7016 10.9124C12.7029 10.9018 12.7205 10.8965 12.7507 10.8977C12.7809 10.8988 12.8211 10.9063 12.8625 10.9185Z" fill="#009B3A" stroke="black" stroke-width="0.0125"/>
<path d="M12.8812 10.8763C12.8992 10.8884 12.9165 10.9012 12.9321 10.914C12.9477 10.9269 12.9614 10.9394 12.9724 10.951C12.9833 10.9626 12.9913 10.973 12.9959 10.9817C13.0005 10.9903 13.0016 10.9969 12.9992 11.0012C12.9967 11.0055 12.9907 11.0074 12.9816 11.0068C12.9724 11.0061 12.9603 11.003 12.9459 10.9974C12.9314 10.9919 12.915 10.9842 12.8975 10.9747C12.8799 10.9652 12.8617 10.954 12.8437 10.9419C12.823 10.9297 12.802 10.9158 12.7822 10.9012C12.7625 10.8865 12.7446 10.8716 12.7298 10.8575C12.7151 10.8434 12.7039 10.8305 12.6971 10.8198C12.6904 10.8091 12.6882 10.8009 12.6907 10.7957C12.6933 10.7906 12.7006 10.7887 12.712 10.7901C12.7234 10.7916 12.7386 10.7964 12.7565 10.8042C12.7744 10.8119 12.7945 10.8225 12.8153 10.835C12.8361 10.8475 12.8571 10.8616 12.8765 10.8763H12.8812Z" fill="#009B3A" stroke="black" stroke-width="0.0125"/>
<path d="M12.9281 10.8576C12.948 10.874 12.9691 10.8937 12.9891 10.9148C13.0091 10.9359 13.0275 10.9576 13.0424 10.978C13.0573 10.9983 13.0683 11.0165 13.0742 11.0308C13.0802 11.0451 13.0809 11.055 13.0763 11.0596C13.0717 11.0642 13.062 11.0633 13.0481 11.0569C13.0342 11.0506 13.0166 11.039 12.9969 11.0234C12.9773 11.0078 12.9563 10.9886 12.9361 10.9678C12.9158 10.9469 12.8969 10.9251 12.8812 10.9044C12.8647 10.8826 12.8523 10.8629 12.8455 10.8474C12.8387 10.8318 12.8376 10.8211 12.8424 10.8163C12.8473 10.8115 12.8578 10.8127 12.8729 10.82C12.888 10.8273 12.907 10.8403 12.9281 10.8576Z" fill="#009B3A" stroke="black" stroke-width="0.0125"/>
<path d="M13.0078 11.0029L12.9563 11.031C12.9422 11.0357 12.9281 11.0169 12.9 11.031C12.8719 11.0497 12.8531 11.0779 12.8438 11.0919C12.8391 11.1107 12.8531 11.1154 12.8906 11.1013C12.9235 11.0826 12.9375 11.0544 12.9516 11.0451C12.9656 11.031 12.9985 11.0169 13.0125 11.0122L13.0594 10.9419C13.0688 10.9232 13.1156 10.8951 13.1344 10.8529C13.1485 10.8247 13.1438 10.7966 13.1203 10.806C13.0967 10.8232 13.0775 10.8457 13.0641 10.8716C13.05 10.8951 13.0641 10.9185 13.05 10.9419L13.0078 11.0029ZM13.3735 11.1247C13.3745 11.1934 13.3695 11.2578 13.3597 11.3037C13.3499 11.3496 13.336 11.3733 13.3211 11.3695C13.3061 11.3658 13.2914 11.335 13.2802 11.2838C13.2689 11.2326 13.262 11.1653 13.261 11.0966C13.2604 11.0626 13.2614 11.0293 13.2638 10.9986C13.2661 10.9679 13.2698 10.9404 13.2747 10.9177C13.2796 10.895 13.2855 10.8774 13.2921 10.8661C13.2987 10.8548 13.306 10.85 13.3133 10.8518C13.3207 10.8537 13.3281 10.8622 13.3352 10.8769C13.3422 10.8916 13.3487 10.9122 13.3542 10.9376C13.3598 10.9629 13.3644 10.9925 13.3677 11.0246C13.371 11.0567 13.3729 11.0907 13.3735 11.1247Z" fill="#009B3A" stroke="black" stroke-width="0.0125"/>
<path d="M13.3125 11.12C13.3267 11.1864 13.3346 11.2504 13.3346 11.2978C13.3345 11.3452 13.3264 11.3721 13.3121 11.3728C13.2978 11.3734 13.2785 11.3476 13.2583 11.3011C13.2382 11.2546 13.2189 11.1911 13.2047 11.1247C13.1978 11.0922 13.1924 11.0599 13.1887 11.0298C13.185 10.9997 13.1832 10.9723 13.1834 10.9493C13.1835 10.9263 13.1856 10.908 13.1895 10.8955C13.1934 10.8831 13.199 10.8766 13.2061 10.8766C13.2132 10.8766 13.2215 10.8831 13.2307 10.8955C13.2399 10.908 13.2497 10.9263 13.2596 10.9493C13.2695 10.9723 13.2792 10.9997 13.2883 11.0298C13.2974 11.0599 13.3056 11.0922 13.3125 11.1247V11.12Z" fill="#009B3A" stroke="black" stroke-width="0.0125"/>
<path d="M13.125 11.181C13.1538 11.1984 13.183 11.2182 13.2103 11.2391C13.2377 11.26 13.2626 11.2814 13.2832 11.3017C13.3038 11.322 13.3195 11.3407 13.3294 11.3565C13.3392 11.3723 13.3428 11.3847 13.34 11.3929C13.3371 11.4011 13.3279 11.4049 13.3129 11.4039C13.2979 11.4029 13.2776 11.3972 13.2534 11.3872C13.2292 11.3773 13.2018 11.3632 13.1731 11.3462C13.1444 11.3292 13.1151 11.3096 13.0875 11.2888C13.0617 11.2714 13.0367 11.2527 13.0138 11.2338C12.9909 11.2149 12.9707 11.1962 12.9542 11.1786C12.9377 11.1611 12.9253 11.1451 12.9177 11.1317C12.9101 11.1182 12.9075 11.1074 12.91 11.1001C12.9124 11.0927 12.9199 11.0888 12.9321 11.0886C12.9442 11.0884 12.9607 11.092 12.9807 11.0991C13.0007 11.1062 13.0237 11.1166 13.0485 11.1299C13.0732 11.1431 13.0992 11.1589 13.125 11.1763V11.181Z" fill="#009B3A" stroke="black" stroke-width="0.0125"/>
<path d="M13.1625 11.1247C13.2051 11.1764 13.2423 11.2302 13.2658 11.2742C13.2894 11.3182 13.2974 11.3488 13.288 11.3594C13.2787 11.37 13.2528 11.3596 13.2161 11.3305C13.1794 11.3015 13.1348 11.2561 13.0922 11.2044C13.0711 11.1788 13.0511 11.1525 13.0334 11.1268C13.0157 11.1012 13.0005 11.0768 12.9889 11.055C12.9772 11.0332 12.9693 11.0145 12.9655 10.9998C12.9617 10.9852 12.9621 10.975 12.9667 10.9698C12.9713 10.9645 12.98 10.9644 12.9924 10.9693C13.0047 10.9743 13.0204 10.9843 13.0386 10.9987C13.0568 11.013 13.0771 11.0316 13.0984 11.0532C13.1196 11.0749 13.1414 11.0992 13.1625 11.1247Z" fill="#009B3A" stroke="black" stroke-width="0.0125"/>
<path d="M13.2375 11.1201C13.2544 11.1515 13.2699 11.1833 13.2832 11.2135C13.2966 11.2437 13.3074 11.2719 13.3152 11.2963C13.323 11.3207 13.3275 11.3409 13.3286 11.3558C13.3296 11.3707 13.3272 11.3799 13.3213 11.383C13.3155 11.3861 13.3064 11.3829 13.2945 11.3737C13.2827 11.3645 13.2683 11.3495 13.2522 11.3294C13.2362 11.3094 13.2188 11.2847 13.201 11.2568C13.1831 11.2289 13.1653 11.1984 13.1484 11.1669C13.1316 11.1355 13.1161 11.1037 13.1027 11.0735C13.0894 11.0432 13.0785 11.0151 13.0707 10.9907C13.063 10.9663 13.0584 10.9461 13.0574 10.9312C13.0563 10.9163 13.0588 10.9071 13.0646 10.904C13.0705 10.9009 13.0796 10.904 13.0914 10.9132C13.1033 10.9224 13.1177 10.9375 13.1337 10.9576C13.1498 10.9776 13.1672 11.0023 13.185 11.0302C13.2028 11.0581 13.2207 11.0886 13.2375 11.1201Z" fill="#009B3A" stroke="black" stroke-width="0.0125"/>
<path d="M13.3032 11.3638L13.2141 11.3825C13.2 11.3825 13.186 11.3497 13.1391 11.3591C13.0922 11.3685 13.0547 11.4013 13.0454 11.42C13.0266 11.4388 13.0454 11.4575 13.1016 11.4482C13.1579 11.4388 13.1766 11.4013 13.2047 11.3966L13.3032 11.3779L13.3875 11.2982C13.411 11.2747 13.4813 11.2513 13.5188 11.2044C13.5516 11.1669 13.5516 11.1294 13.5188 11.1341C13.4809 11.1472 13.447 11.1698 13.4204 11.1997C13.3969 11.2279 13.4016 11.27 13.3735 11.2935L13.3032 11.3638ZM13.561 11.6075C13.5554 11.6409 13.5486 11.6734 13.5409 11.7031C13.5332 11.7327 13.5248 11.759 13.516 11.7805C13.5073 11.8019 13.4986 11.818 13.4902 11.828C13.4818 11.8379 13.474 11.8414 13.4672 11.8384C13.4605 11.8353 13.4548 11.8257 13.4507 11.81C13.4466 11.7944 13.444 11.7731 13.4431 11.7473C13.4423 11.7215 13.4431 11.6918 13.4456 11.6598C13.4482 11.6277 13.4523 11.5941 13.4579 11.5607C13.4634 11.5273 13.4702 11.4948 13.4779 11.4652C13.4856 11.4355 13.4941 11.4092 13.5028 11.3878C13.5115 11.3663 13.5203 11.3502 13.5287 11.3402C13.5371 11.3303 13.5448 11.3268 13.5516 11.3299C13.5584 11.3329 13.564 11.3426 13.5681 11.3582C13.5723 11.3738 13.5749 11.3951 13.5757 11.4209C13.5766 11.4467 13.5757 11.4764 13.5732 11.5085C13.5707 11.5405 13.5665 11.5742 13.561 11.6075Z" fill="#009B3A" stroke="black" stroke-width="0.0125"/>
<path d="M13.5 11.5935C13.5036 11.6318 13.5054 11.6724 13.5052 11.7117C13.505 11.751 13.5029 11.7881 13.499 11.8198C13.4951 11.8515 13.4895 11.877 13.4827 11.8941C13.4759 11.9113 13.4681 11.9196 13.4599 11.9184C13.4517 11.9173 13.4434 11.9066 13.4356 11.8874C13.4278 11.8681 13.4207 11.8409 13.415 11.8078C13.4093 11.7747 13.4052 11.7368 13.4028 11.6971C13.4005 11.6574 13.4 11.6171 13.4016 11.5794C13.3999 11.5442 13.3997 11.5089 13.401 11.4757C13.4024 11.4425 13.4052 11.4122 13.4093 11.3867C13.4135 11.3612 13.4188 11.3412 13.425 11.3278C13.4312 11.3144 13.4382 11.308 13.4454 11.309C13.4526 11.3099 13.46 11.3183 13.467 11.3335C13.474 11.3487 13.4805 11.3704 13.4861 11.3972C13.4917 11.424 13.4962 11.4553 13.4994 11.4891C13.5026 11.5229 13.5044 11.5585 13.5047 11.5935H13.5Z" fill="#009B3A" stroke="black" stroke-width="0.0125"/>
<path d="M13.3125 11.6122C13.3349 11.6342 13.3565 11.6575 13.3759 11.6807C13.3954 11.704 13.4123 11.7267 13.4257 11.7475C13.4392 11.7684 13.4488 11.7869 13.454 11.802C13.4592 11.8171 13.46 11.8284 13.4562 11.8354C13.4524 11.8423 13.4442 11.8447 13.432 11.8424C13.4198 11.8401 13.4038 11.8331 13.3852 11.8219C13.3665 11.8107 13.3455 11.7955 13.3233 11.7772C13.3012 11.7589 13.2784 11.7379 13.2563 11.7154C13.2309 11.693 13.2053 11.6678 13.1815 11.6417C13.1577 11.6155 13.1363 11.5891 13.1189 11.5643C13.1015 11.5396 13.0886 11.5173 13.0812 11.499C13.0738 11.4808 13.0721 11.4671 13.0761 11.459C13.0801 11.4509 13.0899 11.4487 13.1045 11.4524C13.1192 11.4561 13.1385 11.4657 13.1608 11.4805C13.1832 11.4953 13.208 11.5148 13.2335 11.5376C13.259 11.5605 13.2844 11.586 13.3078 11.6122H13.3125Z" fill="#009B3A" stroke="black" stroke-width="0.0125"/>
<path d="M13.3594 11.57C13.3756 11.5999 13.3907 11.6302 13.4036 11.6594C13.4165 11.6886 13.427 11.7161 13.4346 11.7402C13.4422 11.7644 13.4466 11.7847 13.4477 11.8001C13.4488 11.8155 13.4466 11.8256 13.441 11.8299C13.4355 11.8342 13.4268 11.8326 13.4155 11.8252C13.4041 11.8178 13.3903 11.8047 13.3749 11.7866C13.3595 11.7686 13.3427 11.746 13.3256 11.7201C13.3085 11.6942 13.2913 11.6655 13.275 11.6357C13.2564 11.6045 13.2385 11.5713 13.2227 11.5385C13.2069 11.5057 13.1936 11.474 13.1836 11.4457C13.1737 11.4175 13.1674 11.3933 13.1652 11.375C13.163 11.3566 13.1649 11.3446 13.1709 11.3397C13.1769 11.3347 13.1867 11.3371 13.1997 11.3465C13.2127 11.356 13.2285 11.3723 13.2461 11.3943C13.2636 11.4163 13.2825 11.4434 13.3012 11.4738C13.32 11.5042 13.3383 11.5371 13.3547 11.57H13.3594Z" fill="#009B3A" stroke="black" stroke-width="0.0125"/>
<path d="M13.4297 11.5747C13.4408 11.6094 13.4505 11.6442 13.4583 11.6772C13.4661 11.7101 13.4719 11.7406 13.4754 11.7668C13.4788 11.7931 13.4798 11.8146 13.4783 11.8301C13.4769 11.8456 13.4729 11.8549 13.4668 11.8574C13.4606 11.8598 13.4524 11.8554 13.4425 11.8445C13.4326 11.8335 13.4212 11.8161 13.4091 11.7933C13.3969 11.7706 13.3842 11.7429 13.3717 11.7118C13.3591 11.6807 13.347 11.6469 13.336 11.6122C13.325 11.5776 13.3153 11.5428 13.3074 11.5098C13.2996 11.4769 13.2938 11.4464 13.2904 11.4202C13.2869 11.3939 13.2859 11.3724 13.2874 11.3569C13.2889 11.3414 13.2928 11.3321 13.2989 11.3296C13.3051 11.3272 13.3134 11.3316 13.3233 11.3425C13.3332 11.3535 13.3445 11.3709 13.3567 11.3937C13.3688 11.4164 13.3815 11.4441 13.3941 11.4752C13.4066 11.5063 13.4187 11.5401 13.4297 11.5747Z" fill="#009B3A" stroke="black" stroke-width="0.0125"/>
<path d="M13.4531 11.8326H13.3594C13.3453 11.8326 13.3406 11.7951 13.2938 11.7951C13.2469 11.7951 13.2 11.8185 13.1859 11.8372C13.1672 11.8513 13.1859 11.8747 13.2375 11.8747C13.2938 11.8747 13.3219 11.8466 13.35 11.8419H13.4484L13.5422 11.781C13.5703 11.7622 13.65 11.7529 13.6922 11.7154C13.7297 11.6872 13.7391 11.6451 13.7063 11.6497C13.6653 11.6552 13.6265 11.6713 13.5938 11.6966C13.5656 11.7154 13.5656 11.7576 13.5328 11.7763L13.4484 11.8326M13.575 12.1466C13.5391 12.2039 13.5006 12.2545 13.4682 12.2871C13.4357 12.3197 13.4119 12.3318 13.402 12.3206C13.392 12.3094 13.3968 12.2759 13.4152 12.2274C13.4335 12.179 13.4641 12.1196 13.5 12.0622C13.5359 12.0049 13.5744 11.9544 13.6068 11.9218C13.6393 11.8891 13.6631 11.8771 13.673 11.8883C13.683 11.8995 13.6782 11.933 13.6598 11.9814C13.6415 12.0299 13.6109 12.0893 13.575 12.1466Z" fill="#009B3A"/>
<path d="M13.4531 11.8326H13.3594C13.3453 11.8326 13.3406 11.7951 13.2938 11.7951C13.2469 11.7951 13.2 11.8185 13.1859 11.8372C13.1672 11.8513 13.1859 11.8747 13.2375 11.8747C13.2938 11.8747 13.3219 11.8466 13.35 11.8419H13.4484L13.5422 11.781C13.5703 11.7622 13.65 11.7529 13.6922 11.7154C13.7297 11.6872 13.7391 11.6451 13.7063 11.6497C13.6653 11.6552 13.6265 11.6713 13.5938 11.6966C13.5656 11.7154 13.5656 11.7576 13.5328 11.7763L13.4484 11.8326M13.575 12.1466C13.5391 12.2039 13.5006 12.2545 13.4682 12.2871C13.4357 12.3197 13.4119 12.3318 13.402 12.3206C13.392 12.3094 13.3968 12.2759 13.4152 12.2274C13.4335 12.179 13.4641 12.1196 13.5 12.0622C13.5359 12.0049 13.5744 11.9544 13.6068 11.9218C13.6393 11.8891 13.6631 11.8771 13.673 11.8883C13.683 11.8995 13.6782 11.933 13.6598 11.9814C13.6415 12.0299 13.6109 12.0893 13.575 12.1466Z" stroke="black" stroke-width="0.0125"/>
<path d="M13.5281 12.1091C13.515 12.1433 13.5009 12.1763 13.4865 12.2065C13.4722 12.2366 13.4579 12.2632 13.4445 12.2847C13.4311 12.3063 13.4188 12.3223 13.4084 12.332C13.398 12.3416 13.3896 12.3447 13.3838 12.341C13.3779 12.3373 13.3747 12.3269 13.3743 12.3105C13.3739 12.294 13.3764 12.2717 13.3815 12.245C13.3867 12.2182 13.3944 12.1875 13.4043 12.1545C13.4141 12.1215 13.426 12.087 13.4391 12.0529C13.4656 11.9839 13.4956 11.9207 13.5227 11.8772C13.5498 11.8337 13.5716 11.8135 13.5835 11.821C13.5953 11.8284 13.5961 11.863 13.5857 11.917C13.5753 11.971 13.5546 12.0401 13.5281 12.1091ZM13.3453 12.0482C13.368 12.1068 13.3847 12.167 13.392 12.2155C13.3992 12.264 13.3963 12.2968 13.3838 12.3068C13.3714 12.3167 13.3505 12.303 13.3257 12.2685C13.3009 12.2341 13.2742 12.1818 13.2516 12.1232C13.2289 12.0645 13.2122 12.0043 13.2049 11.9558C13.1977 11.9073 13.2006 11.8745 13.2131 11.8646C13.2255 11.8546 13.2464 11.8684 13.2712 11.9028C13.296 11.9372 13.3227 11.9895 13.3453 12.0482Z" fill="#009B3A" stroke="black" stroke-width="0.0125"/>
<path d="M13.4063 12.0294C13.4133 12.1058 13.4146 12.1805 13.4099 12.2372C13.4051 12.2938 13.3948 12.3277 13.3811 12.3314C13.3675 12.3352 13.3516 12.3084 13.3369 12.257C13.3223 12.2057 13.3101 12.1339 13.3031 12.0576C13.2997 12.0197 13.2976 11.9819 13.2969 11.9463C13.2963 11.9106 13.2972 11.8779 13.2995 11.8498C13.3019 11.8218 13.3056 11.799 13.3105 11.7828C13.3155 11.7667 13.3215 11.7574 13.3283 11.7555C13.335 11.7537 13.3424 11.7593 13.35 11.7721C13.3576 11.7848 13.3652 11.8045 13.3725 11.8299C13.3797 11.8554 13.3864 11.8861 13.3922 11.9203C13.398 11.9545 13.4028 11.9916 13.4063 12.0294Z" fill="#009B3A" stroke="black" stroke-width="0.0125"/>
<path d="M13.4718 12.0669C13.4682 12.1042 13.4634 12.1409 13.4575 12.175C13.4516 12.2092 13.4448 12.2401 13.4375 12.266C13.4301 12.2919 13.4224 12.3122 13.4148 12.3259C13.4072 12.3396 13.3998 12.3463 13.393 12.3457C13.3862 12.3451 13.3802 12.3371 13.3754 12.3223C13.3705 12.3075 13.3668 12.2861 13.3645 12.2594C13.3623 12.2326 13.3615 12.201 13.3622 12.1664C13.3629 12.1318 13.3651 12.0948 13.3687 12.0576C13.3723 12.0203 13.3771 11.9836 13.383 11.9494C13.3889 11.9153 13.3957 11.8844 13.4031 11.8585C13.4104 11.8326 13.4181 11.8122 13.4257 11.7986C13.4333 11.7849 13.4407 11.7782 13.4475 11.7788C13.4543 11.7794 13.4603 11.7873 13.4652 11.8022C13.47 11.817 13.4737 11.8384 13.476 11.8651C13.4782 11.8919 13.479 11.9235 13.4783 11.9581C13.4776 11.9927 13.4754 12.0297 13.4718 12.0669Z" fill="#009B3A" stroke="black" stroke-width="0.0125"/>
<path d="M13.3875 12.3107L13.3078 12.2732C13.2937 12.2638 13.3031 12.231 13.2609 12.2122C13.214 12.1935 13.1672 12.1935 13.1484 12.2029C13.125 12.2122 13.1297 12.2357 13.1812 12.2638C13.2281 12.2872 13.2656 12.2685 13.2937 12.2825L13.3875 12.32L13.4906 12.3013C13.5234 12.3013 13.5984 12.32 13.65 12.3013C13.6968 12.2919 13.7203 12.2544 13.6922 12.245C13.6527 12.2323 13.6106 12.2307 13.5703 12.2404C13.5375 12.2497 13.5187 12.2872 13.4859 12.2966C13.4625 12.2966 13.3922 12.3154 13.3875 12.3107ZM13.4343 12.695C13.4053 12.72 13.3758 12.7432 13.3475 12.7632C13.3192 12.7832 13.2928 12.7996 13.2696 12.8116C13.2465 12.8236 13.2271 12.8309 13.2125 12.8331C13.198 12.8352 13.1886 12.8322 13.1849 12.8242C13.1812 12.8162 13.1833 12.8034 13.191 12.7864C13.1987 12.7695 13.2119 12.7488 13.2298 12.7254C13.2478 12.7021 13.2701 12.6767 13.2955 12.6506C13.321 12.6244 13.349 12.5981 13.3781 12.5732C13.4065 12.5489 13.4353 12.5264 13.4628 12.507C13.4904 12.4876 13.5161 12.4716 13.5386 12.4601C13.561 12.4486 13.5798 12.4416 13.5938 12.4397C13.6078 12.4378 13.6168 12.441 13.6201 12.449C13.6235 12.457 13.6213 12.4697 13.6136 12.4864C13.6058 12.5031 13.5927 12.5234 13.575 12.5463C13.5573 12.5691 13.5354 12.594 13.5105 12.6196C13.4855 12.6451 13.4581 12.6707 13.4297 12.695" fill="#009B3A"/>
<path d="M13.4343 12.695C13.4053 12.72 13.3758 12.7432 13.3475 12.7632C13.3192 12.7832 13.2928 12.7996 13.2696 12.8116C13.2465 12.8236 13.2271 12.8309 13.2125 12.8331C13.198 12.8352 13.1886 12.8322 13.1849 12.8242C13.1812 12.8162 13.1833 12.8034 13.191 12.7864C13.1987 12.7695 13.2119 12.7488 13.2298 12.7254C13.2478 12.7021 13.2701 12.6767 13.2955 12.6506C13.321 12.6244 13.349 12.5981 13.3781 12.5732C13.4065 12.5489 13.4353 12.5264 13.4628 12.507C13.4904 12.4876 13.5161 12.4716 13.5386 12.4601C13.561 12.4486 13.5798 12.4416 13.5938 12.4397C13.6078 12.4378 13.6168 12.441 13.6201 12.449C13.6235 12.457 13.6213 12.4697 13.6136 12.4864C13.6058 12.5031 13.5927 12.5234 13.575 12.5463C13.5573 12.5691 13.5354 12.594 13.5105 12.6196C13.4855 12.6451 13.4581 12.6707 13.4297 12.695M13.3875 12.3107L13.3078 12.2732C13.2937 12.2638 13.3031 12.231 13.2609 12.2122C13.214 12.1935 13.1672 12.1935 13.1484 12.2029C13.125 12.2122 13.1297 12.2357 13.1812 12.2638C13.2281 12.2872 13.2656 12.2685 13.2937 12.2825L13.3875 12.32L13.4906 12.3013C13.5234 12.3013 13.5984 12.32 13.65 12.3013C13.6968 12.2919 13.7203 12.2544 13.6922 12.245C13.6527 12.2323 13.6106 12.2307 13.5703 12.2404C13.5375 12.2497 13.5187 12.2872 13.4859 12.2966C13.4625 12.2966 13.3922 12.3154 13.3875 12.3107Z" stroke="black" stroke-width="0.0125"/>
<path d="M13.3875 12.6388C13.3625 12.6751 13.3346 12.7116 13.3061 12.7453C13.2775 12.7791 13.249 12.8091 13.223 12.8331C13.1969 12.8572 13.174 12.8744 13.156 12.8836C13.138 12.8928 13.1254 12.8936 13.1193 12.8859C13.1132 12.8783 13.1137 12.8625 13.1208 12.8397C13.1279 12.8169 13.1414 12.7877 13.1602 12.7546C13.1789 12.7215 13.2025 12.6853 13.2289 12.6489C13.2554 12.6125 13.284 12.577 13.3125 12.5451C13.3375 12.5088 13.3654 12.4723 13.394 12.4385C13.4226 12.4048 13.451 12.3747 13.4771 12.3507C13.5031 12.3267 13.5261 12.3094 13.5441 12.3003C13.5621 12.2911 13.5746 12.2903 13.5807 12.2979C13.5868 12.3056 13.5863 12.3214 13.5792 12.3442C13.5722 12.367 13.5587 12.3961 13.5399 12.4293C13.5211 12.4624 13.4976 12.4986 13.4711 12.535C13.4447 12.5713 13.4161 12.6069 13.3875 12.6388Z" fill="#009B3A" stroke="black" stroke-width="0.0125"/>
<path d="M13.2094 12.5029C13.2123 12.5405 13.2135 12.5784 13.2131 12.6143C13.2127 12.6502 13.2106 12.6836 13.207 12.7123C13.2033 12.7411 13.1982 12.7648 13.1919 12.7821C13.1856 12.7993 13.1783 12.8098 13.1703 12.8128C13.1623 12.8159 13.1538 12.8116 13.1453 12.8C13.1368 12.7884 13.1285 12.7699 13.1208 12.7455C13.1131 12.7211 13.1062 12.6912 13.1005 12.6576C13.0948 12.624 13.0904 12.5874 13.0875 12.5497C13.0847 12.5121 13.0834 12.4742 13.0838 12.4383C13.0842 12.4024 13.0863 12.3691 13.09 12.3403C13.0936 12.3115 13.0987 12.2878 13.105 12.2706C13.1113 12.2533 13.1187 12.2429 13.1267 12.2398C13.1347 12.2367 13.1432 12.2411 13.1516 12.2526C13.1601 12.2642 13.1685 12.2827 13.1761 12.3071C13.1838 12.3316 13.1907 12.3614 13.1964 12.395C13.2021 12.4286 13.2065 12.4652 13.2094 12.5029Z" fill="#009B3A" stroke="black" stroke-width="0.0125"/>
<path d="M13.2797 12.5029C13.264 12.5622 13.2458 12.6138 13.2279 12.6501C13.2099 12.6864 13.1931 12.7054 13.1799 12.7043C13.1668 12.7033 13.158 12.6822 13.1548 12.6442C13.1517 12.6063 13.1544 12.5534 13.1625 12.4935C13.1684 12.45 13.177 12.4043 13.1875 12.36C13.198 12.3157 13.2103 12.2739 13.2232 12.2382C13.2361 12.2024 13.2494 12.1736 13.262 12.154C13.2745 12.1344 13.2861 12.1246 13.2956 12.1253C13.3051 12.1261 13.3124 12.1374 13.3169 12.1584C13.3214 12.1793 13.3229 12.2093 13.3214 12.246C13.3198 12.2827 13.3153 12.325 13.308 12.3696C13.3008 12.4142 13.2911 12.4599 13.2797 12.5029Z" fill="#009B3A" stroke="black" stroke-width="0.0125"/>
<path d="M13.3406 12.5638C13.3254 12.6014 13.3089 12.638 13.2921 12.6717C13.2754 12.7053 13.2586 12.7353 13.2428 12.7599C13.227 12.7845 13.2126 12.8033 13.2002 12.8151C13.1878 12.8269 13.1778 12.8316 13.1707 12.8288C13.1564 12.8232 13.1549 12.7877 13.1666 12.7301C13.1782 12.6725 13.2021 12.5975 13.2328 12.5216C13.2483 12.4835 13.2651 12.4464 13.2822 12.4123C13.2992 12.3783 13.3162 12.348 13.3322 12.3232C13.3482 12.2984 13.3628 12.2796 13.3753 12.2679C13.3878 12.2562 13.3978 12.2517 13.4049 12.2548C13.412 12.2579 13.4159 12.2684 13.4165 12.2858C13.4171 12.3033 13.4144 12.3272 13.4084 12.3564C13.4024 12.3855 13.3934 12.4192 13.3818 12.4556C13.3701 12.492 13.3562 12.5304 13.3406 12.5685" fill="#009B3A"/>
<path d="M13.3406 12.5638C13.3254 12.6014 13.3089 12.638 13.2921 12.6717C13.2754 12.7053 13.2586 12.7353 13.2428 12.7599C13.227 12.7845 13.2126 12.8033 13.2002 12.8151C13.1878 12.8269 13.1778 12.8316 13.1707 12.8288C13.1564 12.8232 13.1549 12.7877 13.1666 12.7301C13.1782 12.6725 13.2021 12.5975 13.2328 12.5216C13.2483 12.4835 13.2651 12.4464 13.2822 12.4123C13.2992 12.3783 13.3162 12.348 13.3322 12.3232C13.3482 12.2984 13.3628 12.2796 13.3753 12.2679C13.3878 12.2562 13.3978 12.2517 13.4049 12.2548C13.412 12.2579 13.4159 12.2684 13.4165 12.2858C13.4171 12.3033 13.4144 12.3272 13.4084 12.3564C13.4024 12.3855 13.3934 12.4192 13.3818 12.4556C13.3701 12.492 13.3562 12.5304 13.3406 12.5685" stroke="black" stroke-width="0.0125"/>
<path d="M13.1719 12.8075L13.0922 12.7372C13.0829 12.7232 13.1016 12.6904 13.0594 12.6529C13.026 12.6228 12.9826 12.6061 12.9375 12.606C12.9094 12.606 12.9094 12.6341 12.9563 12.681C13.0032 12.7279 13.05 12.7185 13.0735 12.7419C13.1062 12.7631 13.1361 12.7883 13.1625 12.8169L13.2891 12.8357C13.3219 12.8404 13.3969 12.8966 13.4625 12.8966C13.5188 12.8966 13.5563 12.8685 13.5235 12.8451C13.4861 12.8187 13.4425 12.8025 13.3969 12.7982C13.3547 12.7982 13.3219 12.831 13.2797 12.8263L13.1672 12.8075M13.0547 13.1732C13.0101 13.1832 12.9638 13.1911 12.9192 13.1962C12.8746 13.2013 12.833 13.2035 12.7975 13.2027C12.762 13.2019 12.7336 13.198 12.7145 13.1913C12.6954 13.1847 12.686 13.1755 12.6871 13.1644C12.6882 13.1533 12.6998 13.1407 12.7209 13.1275C12.742 13.1142 12.7721 13.1007 12.809 13.088C12.8458 13.0753 12.8884 13.0636 12.9334 13.054C12.9784 13.0444 13.0248 13.0371 13.0688 13.0326C13.1134 13.0225 13.1598 13.0146 13.2043 13.0095C13.2489 13.0044 13.2905 13.0022 13.326 13.003C13.3615 13.0039 13.3899 13.0078 13.409 13.0144C13.4282 13.021 13.4375 13.0302 13.4364 13.0413C13.4353 13.0524 13.4238 13.065 13.4026 13.0783C13.3815 13.0915 13.3514 13.105 13.3146 13.1177C13.2777 13.1305 13.2352 13.1421 13.1901 13.1517C13.1451 13.1613 13.0988 13.1686 13.0547 13.1732Z" fill="#009B3A"/>
<path d="M13.1719 12.8075L13.0922 12.7372C13.0829 12.7232 13.1016 12.6904 13.0594 12.6529C13.026 12.6228 12.9826 12.6061 12.9375 12.606C12.9094 12.606 12.9094 12.6341 12.9563 12.681C13.0032 12.7279 13.05 12.7185 13.0735 12.7419C13.1062 12.7631 13.1361 12.7883 13.1625 12.8169L13.2891 12.8357C13.3219 12.8404 13.3969 12.8966 13.4625 12.8966C13.5188 12.8966 13.5563 12.8685 13.5235 12.8451C13.4861 12.8187 13.4425 12.8025 13.3969 12.7982C13.3547 12.7982 13.3219 12.831 13.2797 12.8263L13.1672 12.8075M13.0547 13.1732C13.0101 13.1832 12.9638 13.1911 12.9192 13.1962C12.8746 13.2013 12.833 13.2035 12.7975 13.2027C12.762 13.2019 12.7336 13.198 12.7145 13.1913C12.6954 13.1847 12.686 13.1755 12.6871 13.1644C12.6882 13.1533 12.6998 13.1407 12.7209 13.1275C12.742 13.1142 12.7721 13.1007 12.809 13.088C12.8458 13.0753 12.8884 13.0636 12.9334 13.054C12.9784 13.0444 13.0248 13.0371 13.0688 13.0326C13.1134 13.0225 13.1598 13.0146 13.2043 13.0095C13.2489 13.0044 13.2905 13.0022 13.326 13.003C13.3615 13.0039 13.3899 13.0078 13.409 13.0144C13.4282 13.021 13.4375 13.0302 13.4364 13.0413C13.4353 13.0524 13.4238 13.065 13.4026 13.0783C13.3815 13.0915 13.3514 13.105 13.3146 13.1177C13.2777 13.1305 13.2352 13.1421 13.1901 13.1517C13.1451 13.1613 13.0988 13.1686 13.0547 13.1732Z" stroke="black" stroke-width="0.0125"/>
<path d="M13.05 13.0935C12.9753 13.1207 12.9045 13.1399 12.8517 13.1472C12.7989 13.1545 12.768 13.1494 12.765 13.1328C12.762 13.1163 12.7873 13.0895 12.8358 13.0579C12.8842 13.0263 12.9523 12.9922 13.0265 12.9622C13.1012 12.935 13.172 12.9158 13.2248 12.9085C13.2776 12.9012 13.3085 12.9064 13.3115 12.9229C13.3144 12.9395 13.2892 12.9662 13.2407 12.9978C13.1923 13.0294 13.1242 13.0636 13.05 13.0935Z" fill="#009B3A" stroke="black" stroke-width="0.0125"/>
<path d="M12.9422 12.8638C12.9089 12.9278 12.8724 12.9848 12.8394 13.0246C12.8064 13.0644 12.779 13.0844 12.7621 13.0811C12.7451 13.0777 12.7398 13.0511 12.747 13.0061C12.7543 12.9612 12.7736 12.9007 12.8015 12.8357C12.8185 12.7961 12.8382 12.7561 12.8591 12.7183C12.8801 12.6806 12.9018 12.6461 12.9229 12.6172C12.9439 12.5883 12.9638 12.5656 12.981 12.5508C12.9983 12.536 13.0126 12.5295 13.0229 12.5315C13.0332 12.5336 13.0393 12.5442 13.0407 12.5628C13.0422 12.5813 13.0389 12.6073 13.0313 12.6389C13.0236 12.6704 13.0117 12.7069 12.9963 12.7458C12.9809 12.7846 12.9624 12.8249 12.9422 12.8638Z" fill="#009B3A" stroke="black" stroke-width="0.0125"/>
<path d="M13.0171 12.906C12.9885 12.9385 12.9586 12.9696 12.9293 12.9977C12.9 13.0258 12.8717 13.0503 12.8462 13.0698C12.8207 13.0893 12.7984 13.1033 12.7806 13.1112C12.7628 13.1191 12.7499 13.1206 12.7425 13.1157C12.7351 13.1108 12.7334 13.0995 12.7376 13.0825C12.7417 13.0655 12.7516 13.0432 12.7667 13.0168C12.7817 12.9903 12.8017 12.9603 12.8253 12.9284C12.849 12.8966 12.876 12.8635 12.9046 12.831C12.9626 12.7654 13.0241 12.7065 13.0756 12.6672C13.1271 12.6279 13.1644 12.6114 13.1793 12.6213C13.1942 12.6312 13.1855 12.6668 13.1551 12.7202C13.1247 12.7736 13.0751 12.8404 13.0171 12.906Z" fill="#009B3A" stroke="black" stroke-width="0.0125"/>
<path d="M13.0359 12.9997C12.9999 13.0285 12.9623 13.0561 12.9254 13.0808C12.8885 13.1054 12.8532 13.1265 12.8219 13.1427C12.7905 13.1588 12.7638 13.1697 12.7435 13.1745C12.7232 13.1793 12.7098 13.178 12.7041 13.1707C12.6984 13.1633 12.7007 13.1501 12.7106 13.1319C12.7206 13.1137 12.738 13.0909 12.7618 13.065C12.7857 13.0391 12.8153 13.0107 12.8488 12.9817C12.8823 12.9526 12.9189 12.9237 12.9562 12.8966C13.0264 12.843 13.0981 12.797 13.1556 12.7688C13.2131 12.7406 13.2517 12.7324 13.2629 12.7461C13.2741 12.7597 13.257 12.7942 13.2153 12.8417C13.1736 12.8893 13.1107 12.9461 13.0406 12.9997" fill="#009B3A"/>
<path d="M13.0359 12.9997C12.9999 13.0285 12.9623 13.0561 12.9254 13.0808C12.8885 13.1054 12.8532 13.1265 12.8219 13.1427C12.7905 13.1588 12.7638 13.1697 12.7435 13.1745C12.7232 13.1793 12.7098 13.178 12.7041 13.1707C12.6984 13.1633 12.7007 13.1501 12.7106 13.1319C12.7206 13.1137 12.738 13.0909 12.7618 13.065C12.7857 13.0391 12.8153 13.0107 12.8488 12.9817C12.8823 12.9526 12.9189 12.9237 12.9562 12.8966C13.0264 12.843 13.0981 12.797 13.1556 12.7688C13.2131 12.7406 13.2517 12.7324 13.2629 12.7461C13.2741 12.7597 13.257 12.7942 13.2153 12.8417C13.1736 12.8893 13.1107 12.9461 13.0406 12.9997" stroke="black" stroke-width="0.0125"/>
<path d="M12.7406 13.131L12.7078 13.0232C12.7031 12.9997 12.7406 12.9763 12.7219 12.9201C12.706 12.8708 12.6727 12.8291 12.6281 12.8029C12.6047 12.7888 12.5812 12.8169 12.6047 12.8872C12.6234 12.9575 12.675 12.981 12.6891 13.0138L12.7266 13.1357C12.7547 13.1497 12.8062 13.2013 12.8391 13.2294C12.8719 13.2529 12.9141 13.3466 12.9797 13.3841C13.0266 13.4169 13.0734 13.4122 13.0641 13.37C13.0417 13.3232 13.0079 13.2829 12.9656 13.2529C12.9281 13.2247 12.8719 13.2388 12.8391 13.2107C12.8156 13.1919 12.7406 13.1357 12.7453 13.131" fill="#009B3A"/>
<path d="M12.7406 13.131L12.7078 13.0232C12.7031 12.9997 12.7406 12.9763 12.7219 12.9201C12.706 12.8708 12.6727 12.8291 12.6281 12.8029C12.6047 12.7888 12.5812 12.8169 12.6047 12.8872C12.6234 12.9575 12.675 12.981 12.6891 13.0138L12.7266 13.1357C12.7547 13.1497 12.8062 13.2013 12.8391 13.2294C12.8719 13.2529 12.9141 13.3466 12.9797 13.3841C13.0266 13.4169 13.0734 13.4122 13.0641 13.37C13.0417 13.3232 13.0079 13.2829 12.9656 13.2529C12.9281 13.2247 12.8719 13.2388 12.8391 13.2107C12.8156 13.1919 12.7406 13.1357 12.7453 13.131" stroke="black" stroke-width="0.0125"/>
<path d="M12.5625 13.445C12.4826 13.4459 12.4064 13.4376 12.3504 13.4218C12.2943 13.4061 12.2629 13.3841 12.2629 13.3608C12.2629 13.3374 12.2943 13.3145 12.3504 13.2969C12.4064 13.2794 12.4826 13.2686 12.5625 13.2669C12.6424 13.266 12.7186 13.2744 12.7746 13.2901C12.8307 13.3059 12.8621 13.3278 12.8621 13.3512C12.8621 13.3746 12.8307 13.3975 12.7746 13.4151C12.7186 13.4326 12.6424 13.4434 12.5625 13.445Z" fill="#009B3A" stroke="black" stroke-width="0.0125"/>
<path d="M12.5203 13.1685C12.4673 13.2368 12.4095 13.2964 12.3597 13.3342C12.3099 13.3719 12.2722 13.3848 12.2548 13.3699C12.2374 13.3549 12.2417 13.3135 12.2669 13.2546C12.2921 13.1958 12.336 13.1243 12.389 13.056C12.4421 12.9877 12.4998 12.9281 12.5496 12.8903C12.5994 12.8525 12.6372 12.8397 12.6546 12.8546C12.672 12.8695 12.6676 12.911 12.6424 12.9699C12.6172 13.0287 12.5733 13.1002 12.5203 13.1685Z" fill="#009B3A" stroke="black" stroke-width="0.0125"/>
<path d="M12.5624 13.3091C12.4964 13.3331 12.4344 13.3479 12.387 13.3509C12.3396 13.3539 12.3098 13.345 12.3026 13.3256C12.2954 13.3062 12.3113 13.2776 12.3476 13.2447C12.3839 13.2118 12.4383 13.1765 12.5015 13.1451C12.5675 13.121 12.6295 13.1063 12.6769 13.1033C12.7243 13.1003 12.7542 13.1092 12.7613 13.1286C12.7685 13.148 12.7526 13.1765 12.7164 13.2095C12.6801 13.2424 12.6257 13.2776 12.5624 13.3091ZM12.6468 10.6372C12.6806 10.6688 12.7087 10.6998 12.7256 10.7244C12.7425 10.7489 12.747 10.7651 12.7382 10.7698C12.7294 10.7745 12.7079 10.7673 12.678 10.7497C12.648 10.7322 12.6119 10.7054 12.5765 10.6747C12.5568 10.6577 12.538 10.6399 12.5213 10.6226C12.5046 10.6053 12.4903 10.5889 12.4793 10.5743C12.4684 10.5597 12.461 10.5473 12.4577 10.5379C12.4544 10.5285 12.4552 10.5223 12.4601 10.5197C12.465 10.5171 12.4739 10.5181 12.4862 10.5227C12.4985 10.5273 12.5139 10.5354 12.5314 10.5465C12.549 10.5575 12.5683 10.5713 12.5882 10.587C12.6081 10.6026 12.628 10.6197 12.6468 10.6372ZM12.5531 10.7169C12.6049 10.7237 12.6553 10.7345 12.6932 10.7467C12.7312 10.759 12.7535 10.7719 12.7554 10.7824C12.7573 10.793 12.7385 10.8004 12.7032 10.8031C12.6679 10.8057 12.6189 10.8034 12.5671 10.7966C12.5153 10.7898 12.4649 10.7791 12.427 10.7668C12.389 10.7545 12.3667 10.7417 12.3648 10.7311C12.3629 10.7206 12.3817 10.7131 12.417 10.7105C12.4523 10.7078 12.5013 10.7101 12.5531 10.7169Z" fill="#009B3A" stroke="black" stroke-width="0.0125"/>
<path d="M12.5906 10.6654C12.6386 10.6897 12.6826 10.7165 12.713 10.7399C12.7434 10.7633 12.7577 10.7813 12.7527 10.79C12.7478 10.7987 12.7239 10.7974 12.6865 10.7863C12.649 10.7752 12.6011 10.7553 12.5531 10.731C12.5293 10.7189 12.5063 10.7062 12.4853 10.6934C12.4643 10.6806 12.4457 10.6681 12.4306 10.6565C12.4002 10.6331 12.3859 10.6151 12.3909 10.6064C12.3959 10.5977 12.4197 10.599 12.4572 10.6101C12.4946 10.6211 12.5426 10.641 12.5906 10.6654ZM11.2078 13.1451C11.2078 13.1451 11.4656 13.2013 11.6906 13.281C11.9109 13.3607 12.2531 13.6419 12.3468 13.656C12.4453 13.6607 12.5859 13.6279 12.6421 13.4779C12.4828 13.5247 12.389 13.5857 12.239 13.5013C12.1875 13.4826 12.014 13.3232 11.8171 13.2388C11.6305 13.1661 11.4395 13.105 11.2453 13.056L11.2078 13.1451ZM11.4843 10.8201L11.7796 10.6607L11.4515 10.7451L11.414 10.8013L11.4843 10.8201Z" fill="#009B3A" stroke="black" stroke-width="0.0125"/>
<path d="M11.7656 10.8904C11.6484 10.8716 11.4703 10.8294 11.3578 10.82C11.4375 10.7357 11.5453 10.5904 11.6109 10.5013C11.564 10.5857 11.4984 10.6982 11.4703 10.7825C11.55 10.8247 11.6765 10.8575 11.7656 10.8904Z" fill="#009B3A" stroke="black" stroke-width="0.0125"/>
<path d="M11.4281 10.8388L11.6906 10.6326L11.3859 10.7732L11.3578 10.8341H11.4281" fill="#009B3A"/>
<path d="M11.4281 10.8388L11.6906 10.6326L11.3859 10.7732L11.3578 10.8341H11.4281" stroke="black" stroke-width="0.0125"/>
<path d="M11.7094 10.8857C11.5922 10.8669 11.4188 10.8247 11.3063 10.8154C11.3813 10.7263 11.4844 10.581 11.55 10.4872C11.5031 10.5716 11.4422 10.6888 11.4141 10.7732C11.4938 10.8201 11.6203 10.8529 11.7094 10.8857Z" fill="#009B3A" stroke="black" stroke-width="0.0125"/>
<path d="M11.386 10.8529L11.6954 10.7263L11.3625 10.7779L11.3157 10.8341L11.386 10.8529Z" fill="#009B3A" stroke="black" stroke-width="0.0125"/>
<path d="M11.6719 10.8904C11.5594 10.881 11.3765 10.8575 11.264 10.8622C11.3297 10.7638 11.414 10.5997 11.4703 10.5013C11.4375 10.595 11.3859 10.7169 11.3719 10.806C11.4562 10.8435 11.5828 10.8669 11.6765 10.8904" fill="#009B3A"/>
<path d="M11.6719 10.8904C11.5594 10.881 11.3765 10.8575 11.264 10.8622C11.3297 10.7638 11.414 10.5997 11.4703 10.5013C11.4375 10.595 11.3859 10.7169 11.3719 10.806C11.4562 10.8435 11.5828 10.8669 11.6765 10.8904" stroke="black" stroke-width="0.0125"/>
<path d="M11.3531 10.8576L11.564 10.5997L11.2969 10.7966L11.2875 10.8669L11.3531 10.8529" fill="#009B3A"/>
<path d="M11.3531 10.8576L11.564 10.5997L11.2969 10.7966L11.2875 10.8669L11.3531 10.8529" stroke="black" stroke-width="0.0125"/>
<path d="M11.6719 10.9091C11.55 10.9091 11.3531 10.8951 11.236 10.9091C11.2969 10.7919 11.3672 10.6091 11.4141 10.4966C11.3906 10.5997 11.3485 10.7404 11.3391 10.8388C11.4328 10.8716 11.5735 10.8857 11.6719 10.9091Z" fill="#009B3A" stroke="black" stroke-width="0.0125"/>
<path d="M11.311 10.9185C11.3944 10.8347 11.4787 10.7519 11.5641 10.6701L11.2594 10.8435L11.236 10.9138H11.311" fill="#009B3A"/>
<path d="M11.311 10.9185C11.3944 10.8347 11.4787 10.7519 11.5641 10.6701L11.2594 10.8435L11.236 10.9138H11.311" stroke="black" stroke-width="0.0125"/>
<path d="M11.6156 10.9185C11.4844 10.9185 11.2781 10.9091 11.1469 10.9232C11.2312 10.7966 11.3531 10.5951 11.4281 10.4685C11.3812 10.581 11.3015 10.7404 11.2734 10.8435C11.3672 10.881 11.5125 10.8904 11.6156 10.9138" fill="#009B3A"/>
<path d="M11.6156 10.9185C11.4844 10.9185 11.2781 10.9091 11.1469 10.9232C11.2312 10.7966 11.3531 10.5951 11.4281 10.4685C11.3812 10.581 11.3015 10.7404 11.2734 10.8435C11.3672 10.881 11.5125 10.8904 11.6156 10.9138" stroke="black" stroke-width="0.0125"/>
<path d="M11.2265 10.9326L11.5547 10.656L11.1797 10.8529L11.1469 10.9326H11.2265Z" fill="#009B3A" stroke="black" stroke-width="0.0125"/>
<path d="M11.5687 10.9232C11.4375 10.9419 11.2312 10.9654 11.1 10.9982C11.1773 10.8404 11.2476 10.6793 11.3109 10.5154C11.2828 10.6326 11.2312 10.7966 11.2172 10.9044C11.3156 10.9232 11.4609 10.9185 11.5687 10.9232Z" fill="#009B3A" stroke="black" stroke-width="0.0125"/>
<path d="M11.1844 10.9888C11.2662 10.8724 11.349 10.7568 11.4329 10.6419L11.1188 10.9232L11.1047 11.0122L11.1797 10.9888" fill="#009B3A"/>
<path d="M11.1844 10.9888C11.2662 10.8724 11.349 10.7568 11.4329 10.6419L11.1188 10.9232L11.1047 11.0122L11.1797 10.9888" stroke="black" stroke-width="0.0125"/>
<path d="M11.4938 10.9654C11.3625 10.9794 11.1563 10.9888 11.025 11.0122C11.1 10.8857 11.2031 10.6747 11.2594 10.5435C11.2266 10.6607 11.1656 10.82 11.1469 10.9279C11.2406 10.9513 11.3906 10.9513 11.4938 10.9654Z" fill="#009B3A" stroke="black" stroke-width="0.0125"/>
<path d="M11.1375 11.0263L11.4563 10.7451L11.0954 10.9419L11.0579 11.0263H11.1375Z" fill="#009B3A" stroke="black" stroke-width="0.0125"/>
<path d="M11.4563 10.9794C11.3204 11.0076 11.1141 11.0404 10.9875 11.0826C11.0485 10.9466 11.1282 10.7263 11.175 10.5904C11.1516 10.7122 11.1094 10.8716 11.1 10.9841C11.1985 10.9982 11.3485 10.9794 11.4563 10.9794Z" fill="#009B3A" stroke="black" stroke-width="0.0125"/>
<path d="M11.086 11.0404L11.2875 10.6607L11.011 10.9888V11.0732L11.086 11.0404Z" fill="#009B3A" stroke="black" stroke-width="0.0125"/>
<path d="M11.4563 11.0029C11.3156 11.0357 11.0906 11.0872 10.9547 11.1388C11.0063 10.9841 11.0672 10.7357 11.1047 10.581C11.0906 10.7169 11.0578 10.8997 11.0672 11.0216C11.175 11.031 11.3391 11.0076 11.4563 11.0029Z" fill="#009B3A" stroke="black" stroke-width="0.0125"/>
<path d="M11.0437 11.1247L11.3015 10.7497L10.9734 11.0544L10.9594 11.1482L11.0437 11.1247Z" fill="#009B3A" stroke="black" stroke-width="0.0125"/>
<path d="M11.4 11.0451C11.2594 11.0919 11.0391 11.1482 10.9078 11.2044C10.9547 11.0497 11.0016 10.8013 11.0297 10.6466C11.0203 10.7826 11.0016 10.9654 11.011 11.0826C11.1235 11.0872 11.2828 11.0544 11.4 11.0451Z" fill="#009B3A" stroke="black" stroke-width="0.0125"/>
<path d="M10.9922 11.181L11.1891 10.7591L10.9078 11.1247V11.2185L10.9922 11.181Z" fill="#009B3A" stroke="black" stroke-width="0.0125"/>
<path d="M11.3438 11.1013C11.2031 11.1341 10.9781 11.1763 10.8375 11.2232C10.8985 11.0732 10.9688 10.8247 11.011 10.6747C10.9922 10.8107 10.9547 10.9888 10.9547 11.1107C11.0672 11.1247 11.2266 11.1013 11.3438 11.1013Z" fill="#009B3A" stroke="black" stroke-width="0.0125"/>
<path d="M10.9453 11.2232L11.264 10.8951L10.889 11.1388L10.8562 11.2325L10.95 11.2232" fill="#009B3A"/>
<path d="M10.9453 11.2232L11.264 10.8951L10.889 11.1388L10.8562 11.2325L10.95 11.2232" stroke="black" stroke-width="0.0125"/>
<path d="M11.2828 11.1576C11.1422 11.1763 10.9172 11.1951 10.7812 11.2326C10.8469 11.0826 10.9313 10.8435 10.9828 10.6935C10.9547 10.8247 10.9078 11.0076 10.8984 11.1294C11.0062 11.1529 11.1656 11.1482 11.2828 11.1576Z" fill="#009B3A" stroke="black" stroke-width="0.0125"/>
<path d="M10.8844 11.1904L11.1 10.7779L10.8047 11.1247V11.2185L10.8844 11.1904Z" fill="#009B3A" stroke="black" stroke-width="0.0125"/>
<path d="M11.2969 11.106C11.1422 11.1716 10.9031 11.2607 10.7578 11.3404C10.8047 11.1529 10.8516 10.8622 10.8844 10.6841C10.8797 10.8388 10.8562 11.0544 10.8703 11.1904C10.9969 11.1904 11.1703 11.1341 11.3016 11.1107" fill="#009B3A"/>
<path d="M11.2969 11.106C11.1422 11.1716 10.9031 11.2607 10.7578 11.3404C10.8047 11.1529 10.8516 10.8622 10.8844 10.6841C10.8797 10.8388 10.8562 11.0544 10.8703 11.1904C10.9969 11.1904 11.1703 11.1341 11.3016 11.1107" stroke="black" stroke-width="0.0125"/>
<path d="M10.8515 11.3122L11.114 10.8435L10.7718 11.2419L10.7625 11.3544L10.8562 11.3122" fill="#009B3A"/>
<path d="M10.8515 11.3122L11.114 10.8435L10.7718 11.2419L10.7625 11.3544L10.8562 11.3122" stroke="black" stroke-width="0.0125"/>
<path d="M11.2407 11.1669C11.086 11.2372 10.8469 11.3404 10.7063 11.4247C10.7438 11.2372 10.7813 10.9513 10.8047 10.7685C10.8047 10.9232 10.7954 11.1388 10.8141 11.2701C10.9407 11.2607 11.1094 11.1997 11.236 11.1669" fill="#009B3A"/>
<path d="M11.2407 11.1669C11.086 11.2372 10.8469 11.3404 10.7063 11.4247C10.7438 11.2372 10.7813 10.9513 10.8047 10.7685C10.8047 10.9232 10.7954 11.1388 10.8141 11.2701C10.9407 11.2607 11.1094 11.1997 11.236 11.1669" stroke="black" stroke-width="0.0125"/>
<path d="M10.8 11.3872L10.9875 10.881L10.7063 11.331L10.711 11.4388L10.8 11.3872Z" fill="#009B3A" stroke="black" stroke-width="0.0125"/>
<path d="M11.1703 11.2091C11.0203 11.2841 10.7812 11.3872 10.6406 11.4716C10.6781 11.2841 10.7156 10.9982 10.7344 10.8154C10.7391 10.9701 10.7297 11.181 10.7484 11.3169C10.8703 11.3029 11.0438 11.2419 11.1703 11.2091Z" fill="#009B3A" stroke="black" stroke-width="0.0125"/>
<path d="M10.7578 11.4482L11.0484 10.9982L10.6781 11.3638L10.6641 11.4763L10.7578 11.4482Z" fill="#009B3A" stroke="black" stroke-width="0.0125"/>
<path d="M11.1562 11.1857C11.025 11.2935 10.8093 11.4529 10.6875 11.5747C10.6875 11.3872 10.6593 11.0966 10.6453 10.9185C10.6828 11.0685 10.7156 11.2747 10.7625 11.3966C10.8796 11.3544 11.039 11.2513 11.1609 11.1857" fill="#009B3A"/>
<path d="M11.1562 11.1857C11.025 11.2935 10.8093 11.4529 10.6875 11.5747C10.6875 11.3872 10.6593 11.0966 10.6453 10.9185C10.6828 11.0685 10.7156 11.2747 10.7625 11.3966C10.8796 11.3544 11.039 11.2513 11.1609 11.1857" stroke="black" stroke-width="0.0125"/>
<path d="M10.7719 11.4669L10.8047 10.9326L10.6641 11.4482L10.7016 11.5513L10.7719 11.4669Z" fill="#009B3A" stroke="black" stroke-width="0.0125"/>
<path d="M11.1187 11.2372C10.9828 11.3451 10.7672 11.4997 10.65 11.6169C10.65 11.4294 10.6219 11.1482 10.6078 10.9654C10.6406 11.1154 10.6734 11.3216 10.7203 11.4435C10.8422 11.4013 11.0015 11.2982 11.1187 11.2372Z" fill="#009B3A" stroke="black" stroke-width="0.0125"/>
<path d="M10.7344 11.556C10.7797 11.3821 10.8266 11.2087 10.875 11.0357L10.6406 11.5138L10.6547 11.6216L10.7391 11.556" fill="#009B3A"/>
<path d="M10.7344 11.556C10.7797 11.3821 10.8266 11.2087 10.875 11.0357L10.6406 11.5138L10.6547 11.6216L10.7391 11.556" stroke="black" stroke-width="0.0125"/>
<path d="M11.1047 11.2466C10.9781 11.3732 10.7719 11.5607 10.6594 11.6966C10.6359 11.5091 10.5797 11.2138 10.5469 11.0357C10.5938 11.181 10.6547 11.3872 10.7156 11.5091C10.8375 11.4529 10.9875 11.3263 11.1047 11.2466Z" fill="#009B3A" stroke="black" stroke-width="0.0125"/>
<path d="M10.7344 11.6216L10.7625 11.0685L10.6266 11.6076L10.6688 11.7107L10.7391 11.6263" fill="#009B3A"/>
<path d="M10.7344 11.6216L10.7625 11.0685L10.6266 11.6076L10.6688 11.7107L10.7391 11.6263" stroke="black" stroke-width="0.0125"/>
<path d="M11.0625 11.3404C10.9265 11.4529 10.7109 11.6216 10.5843 11.7482C10.5843 11.5513 10.5468 11.256 10.5281 11.0685C10.5703 11.2232 10.6078 11.4341 10.6593 11.5607C10.7812 11.5138 10.9406 11.406 11.0625 11.3404Z" fill="#009B3A" stroke="black" stroke-width="0.0125"/>
<path d="M10.6968 11.6872L10.889 11.1622L10.5984 11.631L10.6078 11.7435L10.6968 11.6872Z" fill="#009B3A" stroke="black" stroke-width="0.0125"/>
<path d="M11.0625 11.3404C10.9406 11.4716 10.7485 11.6638 10.6406 11.7997C10.6219 11.6076 10.5656 11.3122 10.5328 11.1294C10.5797 11.2747 10.636 11.4857 10.6969 11.6075C10.8094 11.5513 10.95 11.4201 11.0625 11.3404Z" fill="#009B3A" stroke="black" stroke-width="0.0125"/>
<path d="M10.7063 11.7154L10.6829 11.1622L10.5891 11.7107L10.6454 11.8044L10.7063 11.7107" fill="#009B3A"/>
<path d="M10.7063 11.7154L10.6829 11.1622L10.5891 11.7107L10.6454 11.8044L10.7063 11.7107" stroke="black" stroke-width="0.0125"/>
<path d="M11.0015 11.3872C10.8844 11.5138 10.6969 11.706 10.5937 11.8466C10.5703 11.6497 10.5047 11.3544 10.4672 11.1716C10.5187 11.3216 10.5797 11.5326 10.6453 11.6544C10.7531 11.5935 10.8937 11.4669 11.0015 11.3826" fill="#009B3A"/>
<path d="M11.0015 11.3872C10.8844 11.5138 10.6969 11.706 10.5937 11.8466C10.5703 11.6497 10.5047 11.3544 10.4672 11.1716C10.5187 11.3216 10.5797 11.5326 10.6453 11.6544C10.7531 11.5935 10.8937 11.4669 11.0015 11.3826" stroke="black" stroke-width="0.0125"/>
<path d="M10.6734 11.7716L10.7344 11.2091L10.5703 11.7388L10.6031 11.8466L10.6734 11.7716Z" fill="#009B3A" stroke="black" stroke-width="0.0125"/>
<path d="M10.9781 11.406C10.8703 11.5466 10.6969 11.7576 10.6031 11.9029C10.5656 11.7154 10.4813 11.4247 10.4297 11.2466C10.4906 11.3872 10.5703 11.5935 10.6406 11.7107C10.7438 11.6404 10.875 11.495 10.9781 11.406Z" fill="#009B3A" stroke="black" stroke-width="0.0125"/>
<path d="M10.6688 11.8232L10.636 11.2607L10.5657 11.8185L10.6125 11.9122L10.6688 11.8185" fill="#009B3A"/>
<path d="M10.6688 11.8232L10.636 11.2607L10.5657 11.8185L10.6125 11.9122L10.6688 11.8185" stroke="black" stroke-width="0.0125"/>
<path d="M10.9688 11.4341C10.8656 11.5841 10.7016 11.8091 10.6172 11.9591C10.5703 11.7716 10.4672 11.4857 10.4062 11.3076C10.4766 11.4482 10.5656 11.6497 10.6406 11.7622C10.7438 11.6872 10.8656 11.5372 10.9688 11.4341Z" fill="#009B3A" stroke="black" stroke-width="0.0125"/>
<path d="M10.7063 11.8747L10.7625 11.3122L10.6031 11.8419L10.636 11.9544L10.7063 11.8747Z" fill="#009B3A" stroke="black" stroke-width="0.0125"/>
<path d="M10.9454 11.4904C10.8563 11.6497 10.7157 11.8935 10.6454 12.0575C10.5797 11.8747 10.4579 11.6075 10.3782 11.4388C10.4625 11.57 10.5657 11.7575 10.6547 11.8607C10.7485 11.7669 10.8563 11.6029 10.9454 11.4857" fill="#009B3A"/>
<path d="M10.9454 11.4904C10.8563 11.6497 10.7157 11.8935 10.6454 12.0575C10.5797 11.8747 10.4579 11.6075 10.3782 11.4388C10.4625 11.57 10.5657 11.7575 10.6547 11.8607C10.7485 11.7669 10.8563 11.6029 10.9454 11.4857" stroke="black" stroke-width="0.0125"/>
<path d="M10.6875 11.9216L10.5281 11.3872L10.5796 11.9497L10.6546 12.0294L10.6875 11.9216Z" fill="#009B3A" stroke="black" stroke-width="0.0125"/>
<path d="M10.9406 11.5513C10.8469 11.7107 10.7063 11.9544 10.6313 12.1185C10.5609 11.9357 10.4391 11.6685 10.3594 11.4997C10.4437 11.631 10.5469 11.8185 10.6406 11.9216C10.7344 11.8279 10.8516 11.6638 10.9406 11.5513Z" fill="#009B3A" stroke="black" stroke-width="0.0125"/>
<path d="M10.6922 12.0247L10.6359 11.4622L10.5844 12.0247L10.6406 12.1185L10.6922 12.0247Z" fill="#009B3A" stroke="black" stroke-width="0.0125"/>
<path d="M10.95 11.6029C10.8563 11.7622 10.7063 11.9966 10.6313 12.1607C10.5656 11.9779 10.4438 11.706 10.3688 11.5372C10.4531 11.6685 10.5563 11.856 10.6406 11.9591C10.7438 11.8747 10.8563 11.7107 10.95 11.6029Z" fill="#009B3A" stroke="black" stroke-width="0.0125"/>
<path d="M10.6875 12.0669L10.5844 11.5138L10.5797 12.081L10.6406 12.1701L10.6875 12.0669Z" fill="#009B3A" stroke="black" stroke-width="0.0125"/>
<path d="M10.9125 11.6825C10.8094 11.8325 10.65 12.0575 10.5657 12.2169C10.5094 12.0294 10.4016 11.7482 10.3313 11.5794C10.411 11.7154 10.5047 11.9075 10.5844 12.02C10.6875 11.9357 10.8141 11.7857 10.9125 11.6825Z" fill="#009B3A" stroke="black" stroke-width="0.0125"/>
<path d="M10.6406 12.1279L10.6875 11.5654L10.5328 12.0997L10.5703 12.2076L10.6406 12.1279Z" fill="#009B3A" stroke="black" stroke-width="0.0125"/>
<path d="M10.9172 11.6966C10.8329 11.8607 10.6922 12.1091 10.6219 12.2732C10.5516 12.095 10.4157 11.8326 10.3313 11.6685C10.425 11.7951 10.5329 11.9779 10.6266 12.0716C10.7204 11.9779 10.8282 11.8091 10.9172 11.6966Z" fill="#009B3A" stroke="black" stroke-width="0.0125"/>
<path d="M10.6219 12.1747L10.4485 11.6497L10.5141 12.2122L10.5891 12.2872L10.6219 12.1747Z" fill="#009B3A" stroke="black" stroke-width="0.0125"/>
<path d="M10.8937 11.7388C10.8328 11.9169 10.7344 12.1935 10.6875 12.3716C10.5938 12.2122 10.4203 11.9825 10.3125 11.8419C10.4203 11.945 10.5563 12.0997 10.6641 12.1701C10.7438 12.0622 10.8234 11.8701 10.8937 11.7388Z" fill="#009B3A" stroke="black" stroke-width="0.0125"/>
<path d="M10.7766 12.2216L10.5891 11.7013L10.6688 12.2591L10.7438 12.3294L10.7766 12.2169" fill="#009B3A"/>
<path d="M10.7766 12.2216L10.5891 11.7013L10.6688 12.2591L10.7438 12.3294L10.7766 12.2169" stroke="black" stroke-width="0.0125"/>
<path d="M10.8935 11.7951C10.8325 11.9732 10.7341 12.2497 10.6919 12.4279C10.5981 12.2685 10.42 12.0435 10.3169 11.9029C10.42 12.006 10.556 12.156 10.6638 12.231C10.7435 12.1185 10.8231 11.9263 10.8935 11.7951Z" fill="#009B3A" stroke="black" stroke-width="0.0125"/>
<path d="M10.7766 12.306L10.5328 11.8232L10.6735 12.3622L10.7578 12.4232L10.7766 12.306Z" fill="#009B3A" stroke="black" stroke-width="0.0125"/>
<path d="M10.875 11.8372C10.8375 12.0247 10.7719 12.3107 10.7484 12.4935C10.6313 12.3529 10.4344 12.1513 10.3125 12.0247C10.4297 12.1185 10.5844 12.245 10.6969 12.306C10.7625 12.1794 10.8187 11.9779 10.875 11.8372Z" fill="#009B3A" stroke="black" stroke-width="0.0125"/>
<path d="M10.7906 12.3857L10.6641 11.8372L10.6828 12.4044L10.7531 12.4888L10.7906 12.3857Z" fill="#009B3A" stroke="black" stroke-width="0.0125"/>
<path d="M10.875 11.8982C10.8562 12.0857 10.8141 12.381 10.8141 12.5685C10.6828 12.4419 10.4672 12.2685 10.3359 12.1607C10.4625 12.231 10.6266 12.3435 10.7437 12.3857C10.7953 12.2544 10.8375 12.0435 10.875 11.8982Z" fill="#009B3A" stroke="black" stroke-width="0.0125"/>
<path d="M10.8 12.4232L10.4531 12.0294L10.7156 12.5076L10.8094 12.5404L10.8 12.4232Z" fill="#009B3A" stroke="black" stroke-width="0.0125"/>
<path d="M10.8843 11.9638C10.8609 12.1513 10.8187 12.4466 10.8187 12.6341C10.6875 12.5076 10.4718 12.3341 10.3406 12.2263C10.4671 12.2966 10.6312 12.4091 10.7484 12.4513C10.8046 12.3201 10.8421 12.1138 10.8843 11.9638Z" fill="#009B3A" stroke="black" stroke-width="0.0125"/>
<path d="M10.8375 12.5122C10.7469 12.3568 10.6579 12.2006 10.5703 12.0435L10.7391 12.5732L10.8281 12.6294L10.8375 12.5169" fill="#009B3A"/>
<path d="M10.8375 12.5122C10.7469 12.3568 10.6579 12.2006 10.5703 12.0435L10.7391 12.5732L10.8281 12.6294L10.8375 12.5169" stroke="black" stroke-width="0.0125"/>
<path d="M10.8985 12.0435C10.8844 12.231 10.8563 12.531 10.861 12.7185C10.725 12.5966 10.5047 12.4372 10.3688 12.3388C10.4953 12.3997 10.6641 12.5029 10.786 12.5357C10.8328 12.3997 10.861 12.1935 10.8985 12.0435Z" fill="#009B3A" stroke="black" stroke-width="0.0125"/>
<path d="M10.875 12.606C10.8656 12.606 10.5469 12.1841 10.5469 12.1841L10.7812 12.681L10.875 12.7185V12.606Z" fill="#009B3A" stroke="black" stroke-width="0.0125"/>
<path d="M10.9031 12.1326C10.889 12.3201 10.8656 12.6201 10.8703 12.8076C10.7113 12.674 10.5454 12.5489 10.3734 12.4326C10.5 12.4935 10.6734 12.5919 10.7953 12.6247C10.8422 12.4888 10.8656 12.2826 10.9031 12.1326Z" fill="#009B3A" stroke="black" stroke-width="0.0125"/>
<path d="M10.9031 12.6716L10.6687 12.1747L10.8 12.7185L10.8796 12.7888L10.9031 12.6716Z" fill="#009B3A" stroke="black" stroke-width="0.0125"/>
<path d="M10.9125 12.1841C10.9125 12.381 10.9172 12.681 10.9406 12.8638C10.8 12.7701 10.561 12.6341 10.4156 12.5544C10.5469 12.6013 10.725 12.681 10.8469 12.695C10.8797 12.5544 10.8938 12.3435 10.9078 12.1888" fill="#009B3A"/>
<path d="M10.9125 12.1841C10.9125 12.381 10.9172 12.681 10.9406 12.8638C10.8 12.7701 10.561 12.6341 10.4156 12.5544C10.5469 12.6013 10.725 12.681 10.8469 12.695C10.8797 12.5544 10.8938 12.3435 10.9078 12.1888" stroke="black" stroke-width="0.0125"/>
<path d="M10.9407 12.6529L10.5188 12.3669L10.875 12.756L10.9735 12.7654L10.9407 12.6529Z" fill="#009B3A" stroke="black" stroke-width="0.0125"/>
<path d="M10.9219 12.2076C10.9407 12.3997 10.9547 12.6997 10.9875 12.8825C10.8128 12.7782 10.6329 12.6827 10.4485 12.5966C10.5797 12.6341 10.7625 12.7044 10.8844 12.7185C10.9125 12.5779 10.9125 12.3622 10.9219 12.2076Z" fill="#009B3A" stroke="black" stroke-width="0.0125"/>
<path d="M10.9875 12.7607L10.636 12.3576L10.9032 12.8404L10.9969 12.8779L10.9875 12.7607Z" fill="#009B3A" stroke="black" stroke-width="0.0125"/>
<path d="M10.9547 12.2779C10.9782 12.4747 11.0063 12.77 11.0485 12.9529C10.8938 12.8685 10.65 12.7654 10.4954 12.695C10.636 12.7279 10.8141 12.7888 10.9407 12.7935C10.9594 12.6529 10.95 12.4372 10.9547 12.2779Z" fill="#009B3A" stroke="black" stroke-width="0.0125"/>
<path d="M11.0531 12.8263L10.6406 12.5357L10.9922 12.9341H11.0859L11.0531 12.8263Z" fill="#009B3A" stroke="black" stroke-width="0.0125"/>
<path d="M10.9688 12.3622C11.0063 12.5497 11.0532 12.8451 11.1047 13.0279C10.9454 12.9529 10.6969 12.8732 10.5422 12.8216C10.6782 12.8404 10.8657 12.8826 10.9875 12.8779C10.9969 12.7326 10.9735 12.5216 10.9688 12.3622Z" fill="#009B3A" stroke="black" stroke-width="0.0125"/>
<path d="M11.1 12.8872L10.7578 12.4794L11.0156 12.9669L11.1094 13.0044L11.1 12.8872Z" fill="#009B3A" stroke="black" stroke-width="0.0125"/>
<path d="M10.9875 12.4185C11.0438 12.6013 11.1188 12.8872 11.1891 13.0607C11.025 13.0138 10.7672 12.9622 10.6125 12.9294C10.7485 12.9294 10.936 12.9482 11.0579 12.9294C11.0579 12.7794 11.011 12.5732 10.9875 12.4138" fill="#009B3A"/>
<path d="M10.9875 12.4185C11.0438 12.6013 11.1188 12.8872 11.1891 13.0607C11.025 13.0138 10.7672 12.9622 10.6125 12.9294C10.7485 12.9294 10.936 12.9482 11.0579 12.9294C11.0579 12.7794 11.011 12.5732 10.9875 12.4138" stroke="black" stroke-width="0.0125"/>
<path d="M11.1187 12.8872L10.6406 12.7841L11.0953 13.0091L11.1891 12.9763L11.1187 12.8872Z" fill="#009B3A" stroke="black" stroke-width="0.0125"/>
<path d="M11.0203 12.4747C11.0766 12.6575 11.1516 12.9435 11.2172 13.1169C11.0531 13.07 10.7953 13.0185 10.6406 12.9857C10.7766 12.9857 10.9688 13.0044 11.0859 12.9857C11.0859 12.8357 11.0391 12.6294 11.0203 12.47" fill="#009B3A"/>
<path d="M11.0203 12.4747C11.0766 12.6575 11.1516 12.9435 11.2172 13.1169C11.0531 13.07 10.7953 13.0185 10.6406 12.9857C10.7766 12.9857 10.9688 13.0044 11.0859 12.9857C11.0859 12.8357 11.0391 12.6294 11.0203 12.47" stroke="black" stroke-width="0.0125"/>
<path d="M11.1984 12.9341C11.1984 12.9435 10.739 12.7138 10.739 12.7138L11.1515 13.0513L11.2453 13.0419L11.1984 12.9388" fill="#009B3A"/>
<path d="M11.1984 12.9341C11.1984 12.9435 10.739 12.7138 10.739 12.7138L11.1515 13.0513L11.2453 13.0419L11.1984 12.9388" stroke="black" stroke-width="0.0125"/>
<path d="M10.9969 12.5076C11.0906 12.6716 11.2219 12.9388 11.325 13.0935C11.1563 13.0794 10.8938 13.0888 10.7344 13.0935C10.8656 13.0607 11.0531 13.0372 11.1656 12.9904C11.1375 12.8497 11.0484 12.6529 10.9969 12.5076Z" fill="#009B3A" stroke="black" stroke-width="0.0125"/>
<path d="M11.2688 12.9857L10.7906 12.8544L11.2406 13.1076L11.3344 13.0794L11.2688 12.9857Z" fill="#009B3A" stroke="black" stroke-width="0.0125"/>
<path d="M11.0484 12.5779C11.1421 12.7419 11.2734 13.0091 11.3765 13.1591C11.2078 13.1497 10.9453 13.1591 10.7859 13.1685C10.9218 13.1357 11.1093 13.1076 11.2218 13.0607C11.1843 12.9201 11.1 12.7232 11.0437 12.5779" fill="#009B3A"/>
<path d="M11.0484 12.5779C11.1421 12.7419 11.2734 13.0091 11.3765 13.1591C11.2078 13.1497 10.9453 13.1591 10.7859 13.1685C10.9218 13.1357 11.1093 13.1076 11.2218 13.0607C11.1843 12.9201 11.1 12.7232 11.0437 12.5779" stroke="black" stroke-width="0.0125"/>
<path d="M11.3297 13.0279L10.8844 12.7607L11.2735 13.1357H11.3766L11.3297 13.0279Z" fill="#009B3A" stroke="black" stroke-width="0.0125"/>
<path d="M11.0813 12.6201C11.1891 12.7747 11.3485 13.0232 11.4656 13.1638C11.2969 13.1732 11.0438 13.2201 10.8844 13.2482C11.0156 13.2013 11.1938 13.1451 11.3016 13.0794C11.2547 12.9388 11.1469 12.7607 11.0813 12.6201Z" fill="#009B3A" stroke="black" stroke-width="0.0125"/>
<path d="M11.3625 13.0654L10.8844 13.056L11.3578 13.1966L11.4422 13.1451L11.3625 13.0654ZM11.6438 10.7404L11.986 10.6794L11.6438 10.6888L11.5828 10.7216L11.6438 10.7404Z" fill="#009B3A" stroke="black" stroke-width="0.0125"/>
<path d="M11.8312 10.8107C11.7328 10.7826 11.5781 10.731 11.475 10.7076C11.6025 10.657 11.7276 10.6007 11.85 10.5388C11.7703 10.5857 11.6625 10.6513 11.6015 10.6982C11.6578 10.7357 11.7609 10.7779 11.8359 10.8107" fill="#009B3A"/>
<path d="M11.8312 10.8107C11.7328 10.7826 11.5781 10.731 11.475 10.7076C11.6025 10.657 11.7276 10.6007 11.85 10.5388C11.7703 10.5857 11.6625 10.6513 11.6015 10.6982C11.6578 10.7357 11.7609 10.7779 11.8359 10.8107" stroke="black" stroke-width="0.0125"/>
<path d="M11.625 10.7497L11.9625 10.656L11.6156 10.7029L11.5641 10.7404L11.625 10.7497Z" fill="#009B3A" stroke="black" stroke-width="0.0125"/>
<path d="M11.85 10.8388C11.7328 10.8247 11.55 10.8013 11.4375 10.8013C11.5219 10.7263 11.6437 10.5951 11.7188 10.5201C11.6719 10.5904 11.5875 10.6888 11.5547 10.7591C11.6344 10.7919 11.7609 10.8107 11.85 10.8388Z" fill="#009B3A" stroke="black" stroke-width="0.0125"/>
<path d="M11.5031 10.7779L11.85 10.731L11.5125 10.7263L11.4469 10.7544L11.5031 10.7732" fill="#009B3A"/>
<path d="M11.5031 10.7779L11.85 10.731L11.5125 10.7263L11.4469 10.7544L11.5031 10.7732" stroke="black" stroke-width="0.0125"/>
<path d="M11.761 10.8482C11.6532 10.8294 11.4938 10.7919 11.386 10.7825C11.4844 10.7357 11.6344 10.6419 11.7282 10.595C11.6579 10.6419 11.5594 10.7122 11.5079 10.7591C11.5735 10.7919 11.6813 10.82 11.761 10.8529" fill="#009B3A"/>
<path d="M11.761 10.8482C11.6532 10.8294 11.4938 10.7919 11.386 10.7825C11.4844 10.7357 11.6344 10.6419 11.7282 10.595C11.6579 10.6419 11.5594 10.7122 11.5079 10.7591C11.5735 10.7919 11.6813 10.82 11.761 10.8529" stroke="black" stroke-width="0.0125"/>
<path d="M11.475 10.7685L11.7797 10.6372L11.4422 10.731L11.4047 10.7685H11.475Z" fill="#009B3A" stroke="black" stroke-width="0.0125"/>
<path d="M11.7516 10.8904C11.6578 10.8529 11.5266 10.7919 11.4375 10.7638C11.5078 10.7029 11.6016 10.5904 11.6625 10.5247C11.6156 10.5904 11.5547 10.6794 11.5312 10.745C11.5875 10.7919 11.6812 10.8435 11.7516 10.8857" fill="#009B3A"/>
<path d="M11.7516 10.8904C11.6578 10.8529 11.5266 10.7919 11.4375 10.7638C11.5078 10.7029 11.6016 10.5904 11.6625 10.5247C11.6156 10.5904 11.5547 10.6794 11.5312 10.745C11.5875 10.7919 11.6812 10.8435 11.7516 10.8857" stroke="black" stroke-width="0.0125"/>
<path d="M11.4891 10.7919L11.7282 10.6888L11.4704 10.7263L11.4375 10.7732L11.4891 10.7919ZM11.2969 13.0279H10.8L11.3016 13.1544L11.386 13.0982L11.2922 13.0279" fill="#009B3A"/>
<path d="M11.2969 13.0279H10.8L11.3016 13.1544L11.386 13.0982L11.2922 13.0279M11.4891 10.7919L11.7282 10.6888L11.4704 10.7263L11.4375 10.7732L11.4891 10.7919Z" stroke="black" stroke-width="0.0125"/>
<path d="M11.3813 13.056L10.875 12.9341L11.3578 13.1685L11.4516 13.1404L11.3766 13.0466" fill="#009B3A"/>
<path d="M11.3813 13.056L10.875 12.9341L11.3578 13.1685L11.4516 13.1404L11.3766 13.0466" stroke="black" stroke-width="0.0125"/>
<path d="M11.461 13.0888L10.9641 13.0607L11.461 13.2154L11.5454 13.1685L11.461 13.0888Z" fill="#009B3A" stroke="black" stroke-width="0.0125"/>
<path d="M11.1469 12.7372C11.2735 12.8779 11.4704 13.1076 11.6063 13.2341C11.4375 13.2576 11.1844 13.3279 11.0344 13.3654C11.1563 13.3091 11.3297 13.2388 11.4282 13.1685C11.3625 13.0372 11.2313 12.8685 11.1469 12.7372Z" fill="#009B3A" stroke="black" stroke-width="0.0125"/>
<path d="M11.5313 13.1122L11.0344 12.9482L11.5032 13.2294L11.5969 13.206L11.5313 13.1122Z" fill="#009B3A" stroke="black" stroke-width="0.0125"/>
<path d="M11.1937 12.7701C11.3344 12.8966 11.5453 13.1029 11.6906 13.2154C11.5312 13.2622 11.2922 13.3607 11.1469 13.4216C11.2594 13.3466 11.4281 13.2576 11.5125 13.1732C11.4375 13.0466 11.2875 12.8919 11.1937 12.7701Z" fill="#009B3A" stroke="black" stroke-width="0.0125"/>
<path d="M11.5687 13.1451L11.1 13.2388L11.5969 13.2716L11.6672 13.2013L11.5734 13.1451" fill="#009B3A"/>
<path d="M11.5687 13.1451L11.1 13.2388L11.5969 13.2716L11.6672 13.2013L11.5734 13.1451" stroke="black" stroke-width="0.0125"/>
<path d="M11.475 13.1122L10.9828 13.1497L11.489 13.2388L11.5687 13.1779L11.475 13.1122Z" fill="#009B3A" stroke="black" stroke-width="0.0125"/>
<path d="M11.564 13.1404L11.0531 13.0607L11.5547 13.2622L11.6484 13.2247L11.564 13.1404Z" fill="#009B3A" stroke="black" stroke-width="0.0125"/>
<path d="M11.6485 13.1685L11.1516 13.1779L11.6579 13.2904L11.7375 13.2388L11.6485 13.1685Z" fill="#009B3A" stroke="black" stroke-width="0.0125"/>
<path d="M11.3062 12.8404C11.4469 12.9716 11.6578 13.1872 11.8031 13.2997C11.6344 13.3372 11.3906 13.4216 11.2406 13.4732C11.3578 13.4076 11.5265 13.3325 11.6203 13.2529C11.5453 13.1216 11.4 12.9622 11.3062 12.8404Z" fill="#009B3A" stroke="black" stroke-width="0.0125"/>
<path d="M11.7188 13.1872L11.2125 13.0607L11.7 13.3044L11.7938 13.2763L11.7188 13.1872Z" fill="#009B3A" stroke="black" stroke-width="0.0125"/>
<path d="M11.3531 12.8685C11.5078 12.9857 11.7328 13.1779 11.8875 13.2763C11.708 13.351 11.5313 13.4323 11.3578 13.52C11.4656 13.4404 11.625 13.3372 11.7047 13.2482C11.6203 13.1263 11.461 12.9857 11.3531 12.8685Z" fill="#009B3A" stroke="black" stroke-width="0.0125"/>
<path d="M11.7656 13.2154L11.2969 13.3419H11.7984L11.8594 13.2669L11.7656 13.2154Z" fill="#009B3A" stroke="black" stroke-width="0.0125"/>
<path d="M12.4032 12.5169L12.0235 12.2544L11.6485 12.5169L11.7891 12.095L11.4563 11.8372H11.8782L12.0235 11.4154L12.1641 11.8372H12.5907L12.2625 12.0997L12.4032 12.5216V12.5169Z" fill="#FEDF00" stroke="black" stroke-width="0.0625"/>
</g>
<defs>
<clipPath id="clip0_1_5614">
<rect width="24" height="24" fill="white" transform="translate(0 0.0434875)"/>
</clipPath>
</defs>
</svg>
