<svg width="25" height="24" viewBox="0 0 25 24" fill="none" xmlns="http://www.w3.org/2000/svg">
<g clip-path="url(#clip0_1_5393)">
<path d="M10.1 0H24.5V24H10.0953L10.1 0Z" fill="#FF0000"/>
<path d="M0.500049 0H10.1V24H0.495361L0.500049 0Z" fill="#006600"/>
<path fill-rule="evenodd" clip-rule="evenodd" d="M14.2719 15.3094C12.6594 15.2625 5.27185 10.65 5.22498 9.91406L5.6281 9.23438C6.35935 10.2984 13.9156 14.7844 14.6562 14.625L14.2719 15.3094Z" fill="#FFFF00" stroke="black" stroke-width="0.0875" stroke-linecap="round" stroke-linejoin="round"/>
<path fill-rule="evenodd" clip-rule="evenodd" d="M5.54373 9.14063C5.39841 9.52969 7.47029 10.8094 9.96404 12.3281C12.4578 13.8422 14.6047 14.7797 14.7687 14.6484L14.839 14.5125C14.8109 14.5594 14.7359 14.5734 14.6234 14.5406C13.9484 14.3438 12.1906 13.5375 10.0156 12.2203C7.8406 10.9031 5.94685 9.68438 5.65623 9.16876C5.63227 9.12084 5.62098 9.06759 5.62341 9.01407H5.61404L5.5531 9.12188L5.54373 9.14063ZM14.3094 15.3281C14.2812 15.3797 14.2297 15.3797 14.1359 15.375C13.5312 15.3047 11.6984 14.4141 9.54216 13.1203C7.02029 11.6109 4.93904 10.2375 5.16873 9.88126L5.22966 9.76876L5.23904 9.77344C5.03748 10.3828 9.34529 12.8438 9.59841 13.0031C12.0875 14.55 14.1922 15.45 14.3797 15.2156L14.3094 15.3281Z" fill="#FFFF00" stroke="black" stroke-width="0.0875" stroke-linecap="round" stroke-linejoin="round"/>
<path fill-rule="evenodd" clip-rule="evenodd" d="M10.1093 10.3594C11.7171 10.3453 13.7093 10.1391 14.853 9.68438L14.6093 9.28126C13.9296 9.65626 11.9327 9.90469 10.0952 9.93751C7.92021 9.91876 6.3874 9.71719 5.61865 9.20157L5.38428 9.62813C6.7999 10.2234 8.24365 10.3547 10.1093 10.3594Z" fill="#FFFF00" stroke="black" stroke-width="0.0875" stroke-linecap="round" stroke-linejoin="round"/>
<path fill-rule="evenodd" clip-rule="evenodd" d="M14.9234 9.69374C14.8812 9.75468 14.1359 10.0125 13.0343 10.2C12.063 10.3457 11.0821 10.4177 10.0999 10.4156C9.15948 10.4199 8.21983 10.3603 7.28743 10.2375C6.13899 10.0547 5.53899 9.80156 5.31868 9.71249L5.37493 9.60468C5.99828 9.85037 6.64788 10.0234 7.31086 10.1203C8.23555 10.2412 9.16738 10.2992 10.0999 10.2937C11.0743 10.2943 12.0473 10.2223 13.0109 10.0781C14.1359 9.89531 14.7546 9.66093 14.839 9.55312L14.9234 9.69374ZM14.7031 9.28124C14.5812 9.37499 13.9718 9.59531 12.9031 9.76406C11.9793 9.89666 11.0472 9.96245 10.114 9.96093C9.21411 9.96776 8.31491 9.9098 7.42336 9.78749C6.33118 9.64687 5.75461 9.38906 5.54836 9.31406L5.6093 9.20624C5.76868 9.29062 6.33118 9.51562 7.43743 9.67499C8.32489 9.79002 9.21912 9.84483 10.114 9.83906C11.0394 9.84033 11.9637 9.77453 12.8796 9.64218C13.9577 9.49218 14.539 9.22031 14.6281 9.14999L14.7031 9.28124ZM4.81243 12.3C5.80618 12.8344 8.00461 13.1062 10.0906 13.125C11.989 13.125 14.464 12.8297 15.3874 12.3375L15.3593 11.8031C15.0734 12.2578 12.4249 12.6937 10.0718 12.675C7.71868 12.6562 5.5343 12.2906 4.80774 11.8219V12.3" fill="#FFFF00"/>
<path d="M4.81243 12.3C5.80618 12.8344 8.00461 13.1062 10.0906 13.125C11.989 13.125 14.464 12.8297 15.3874 12.3375L15.3593 11.8031C15.0734 12.2578 12.4249 12.6937 10.0718 12.675C7.71868 12.6562 5.5343 12.2906 4.80774 11.8219V12.3M14.9234 9.69374C14.8812 9.75468 14.1359 10.0125 13.0343 10.2C12.063 10.3457 11.0821 10.4177 10.0999 10.4156C9.15948 10.4199 8.21983 10.3603 7.28743 10.2375C6.13899 10.0547 5.53899 9.80156 5.31868 9.71249L5.37493 9.60468C5.99828 9.85037 6.64788 10.0234 7.31086 10.1203C8.23555 10.2412 9.16738 10.2992 10.0999 10.2937C11.0743 10.2943 12.0473 10.2223 13.0109 10.0781C14.1359 9.89531 14.7546 9.66093 14.839 9.55312L14.9234 9.69374ZM14.7031 9.28124C14.5812 9.37499 13.9718 9.59531 12.9031 9.76406C11.9793 9.89666 11.0472 9.96245 10.114 9.96093C9.21411 9.96776 8.31491 9.9098 7.42336 9.78749C6.33118 9.64687 5.75461 9.38906 5.54836 9.31406L5.6093 9.20624C5.76868 9.29062 6.33118 9.51562 7.43743 9.67499C8.32489 9.79002 9.21912 9.84483 10.114 9.83906C11.0394 9.84033 11.9637 9.77453 12.8796 9.64218C13.9577 9.49218 14.539 9.22031 14.6281 9.14999L14.7031 9.28124Z" stroke="black" stroke-width="0.0875" stroke-linecap="round" stroke-linejoin="round"/>
<path fill-rule="evenodd" clip-rule="evenodd" d="M15.439 12.225V12.3516C15.2984 12.5203 14.4265 12.7734 13.3343 12.9469C12.2525 13.1041 11.1603 13.1793 10.0671 13.1719C8.78276 13.1719 7.76089 13.0781 6.96401 12.9563C6.19943 12.8694 5.45211 12.6687 4.74683 12.3609V12.2109C5.23433 12.5344 6.54214 12.7688 6.98276 12.8391C7.77026 12.9609 8.78745 13.05 10.0671 13.05C11.4125 13.05 12.4906 12.9563 13.3156 12.8297C14.1031 12.7172 15.2187 12.4219 15.439 12.225ZM15.439 11.7703V11.9016C15.2984 12.0656 14.4265 12.3188 13.3343 12.4922C12.2525 12.6494 11.1603 12.7246 10.0671 12.7172C8.78276 12.7172 7.76089 12.6234 6.9687 12.5063C6.2023 12.4182 5.45338 12.2159 4.74683 11.9063V11.7563C5.23433 12.0797 6.54214 12.3188 6.98276 12.3844C7.77495 12.5063 8.79214 12.6 10.0671 12.6C11.4125 12.6 12.4906 12.5063 13.3156 12.375C14.1031 12.2625 15.2187 11.9672 15.439 11.7703ZM10.0859 15.2156C7.80776 15.2016 5.85308 14.5969 5.44058 14.4938L5.74058 14.9625C6.46714 15.2719 8.37495 15.7313 10.1093 15.6797C11.8437 15.6281 13.3578 15.4922 14.4218 14.9766L14.7312 14.4844C14.0046 14.8266 11.5296 15.2156 10.0906 15.2156" fill="#FFFF00"/>
<path d="M10.0859 15.2156C7.80776 15.2016 5.85308 14.5969 5.44058 14.4938L5.74058 14.9625C6.46714 15.2719 8.37495 15.7313 10.1093 15.6797C11.8437 15.6281 13.3578 15.4922 14.4218 14.9766L14.7312 14.4844C14.0046 14.8266 11.5296 15.2156 10.0906 15.2156M15.439 12.225V12.3516C15.2984 12.5203 14.4265 12.7734 13.3343 12.9469C12.2525 13.1041 11.1603 13.1793 10.0671 13.1719C8.78276 13.1719 7.76089 13.0781 6.96401 12.9563C6.19943 12.8694 5.45211 12.6687 4.74683 12.3609V12.2109C5.23433 12.5344 6.54214 12.7688 6.98276 12.8391C7.77026 12.9609 8.78745 13.05 10.0671 13.05C11.4125 13.05 12.4906 12.9563 13.3156 12.8297C14.1031 12.7172 15.2187 12.4219 15.439 12.225ZM15.439 11.7703V11.9016C15.2984 12.0656 14.4265 12.3188 13.3343 12.4922C12.2525 12.6494 11.1603 12.7246 10.0671 12.7172C8.78276 12.7172 7.76089 12.6234 6.9687 12.5063C6.2023 12.4182 5.45338 12.2159 4.74683 11.9063V11.7563C5.23433 12.0797 6.54214 12.3188 6.98276 12.3844C7.77495 12.5063 8.79214 12.6 10.0671 12.6C11.4125 12.6 12.4906 12.5063 13.3156 12.375C14.1031 12.2625 15.2187 11.9672 15.439 11.7703Z" stroke="black" stroke-width="0.0875" stroke-linecap="round" stroke-linejoin="round"/>
<path fill-rule="evenodd" clip-rule="evenodd" d="M14.539 14.8641C14.4933 14.9336 14.4464 15.0024 14.3984 15.0703C13.8665 15.2467 13.323 15.3861 12.7718 15.4875C11.8873 15.6502 10.9899 15.7318 10.0906 15.7312C8.07024 15.7031 6.41555 15.3094 5.63743 14.9719L5.5718 14.8641L5.58586 14.8453L5.68899 14.8875C7.1122 15.3591 8.60065 15.6043 10.0999 15.6141C11.0374 15.6187 11.9749 15.5062 12.7296 15.375C13.8921 15.1406 14.3609 14.9672 14.5062 14.8875L14.539 14.8641ZM14.8062 14.4234H14.8109C14.7769 14.4831 14.7425 14.5424 14.7077 14.6016C14.4406 14.6953 13.7093 14.9109 12.6452 15.0609C11.9421 15.1547 11.5062 15.2484 10.114 15.2766C8.51886 15.2594 6.93368 15.0228 5.40305 14.5734L5.3468 14.4562C6.9015 14.8829 8.50231 15.119 10.114 15.1594C11.389 15.1312 11.9327 15.0375 12.6265 14.9391C13.8687 14.7516 14.4921 14.5453 14.6796 14.4844C14.6782 14.4812 14.6766 14.4781 14.6749 14.475L14.8062 14.4234Z" fill="#FFFF00" stroke="black" stroke-width="0.075" stroke-linecap="round" stroke-linejoin="round"/>
<path fill-rule="evenodd" clip-rule="evenodd" d="M14.8343 11.8781C14.8437 13.3781 14.075 14.7281 13.4562 15.3234C12.5473 16.2074 11.3349 16.7105 10.0672 16.7297C8.5531 16.7578 7.1281 15.7688 6.74373 15.3375C5.99373 14.4891 5.38435 13.4156 5.3656 11.9625C5.45935 10.3219 6.10154 9.18282 7.03435 8.40001C7.93699 7.65756 9.07189 7.25603 10.2406 7.26563C11.4312 7.29844 12.8281 7.88438 13.789 9.04688C14.4172 9.80626 14.6937 10.6313 14.8343 11.8828V11.8781ZM10.0812 6.74063C12.9875 6.74063 15.3781 9.10782 15.3781 12.0047C15.3694 13.4038 14.8075 14.7427 13.8151 15.729C12.8227 16.7152 11.4804 17.2688 10.0812 17.2688C7.17498 17.2688 4.8031 14.9063 4.8031 12.0047C4.8031 9.10313 7.17498 6.74063 10.0812 6.74063Z" fill="#FFFF00" stroke="black" stroke-width="0.0875" stroke-linecap="round" stroke-linejoin="round"/>
<path fill-rule="evenodd" clip-rule="evenodd" d="M10.0953 6.72188C13.0016 6.72188 15.3734 9.09844 15.3734 12.0047C15.3734 14.9109 13.0016 17.2875 10.0953 17.2875C8.69455 17.2838 7.3523 16.7254 6.36225 15.7344C5.3722 14.7435 4.81497 13.4008 4.8125 12C4.81621 10.6001 5.37398 9.25851 6.3639 8.26859C7.35382 7.27868 8.69536 6.72091 10.0953 6.71719V6.72188ZM4.92969 12.0047C4.92969 14.8453 7.26406 17.1703 10.0953 17.1703C12.9266 17.1703 15.2562 14.8453 15.2562 12.0047C15.2562 9.16407 12.9266 6.84376 10.0953 6.84376C8.72763 6.84869 7.41731 7.39386 6.44977 8.36053C5.48223 9.32719 4.93586 10.637 4.92969 12.0047Z" fill="#FFFF00" stroke="black" stroke-width="0.0875" stroke-linecap="round" stroke-linejoin="round"/>
<path fill-rule="evenodd" clip-rule="evenodd" d="M10.1 7.16251C12.7484 7.16251 14.9328 9.34219 14.9328 12C14.9328 14.6625 12.7484 16.8375 10.1 16.8375C8.81772 16.8338 7.58895 16.3231 6.6818 15.4168C5.77465 14.5106 5.26276 13.2823 5.25781 12C5.25781 9.34219 7.44219 7.16251 10.0953 7.16251H10.1ZM5.375 12C5.375 14.5969 7.50781 16.7203 10.1 16.7203C12.6875 16.7203 14.8203 14.5969 14.8203 12C14.8203 9.40313 12.6875 7.27969 10.0953 7.27969C7.50312 7.27969 5.375 9.40313 5.375 12Z" fill="#FFFF00" stroke="black" stroke-width="0.0875" stroke-linecap="round" stroke-linejoin="round"/>
<path fill-rule="evenodd" clip-rule="evenodd" d="M10.3109 6.70312H9.8562V17.3156H10.3109V6.70312Z" fill="#FFFF00" stroke="black" stroke-width="0.0875" stroke-linecap="round" stroke-linejoin="round"/>
<path fill-rule="evenodd" clip-rule="evenodd" d="M10.264 6.64218H10.3812V17.3766H10.264V6.64218ZM9.81396 6.64218H9.93115V17.3766H9.81396V6.64218Z" fill="#FFFF00" stroke="black" stroke-width="0.0875" stroke-linecap="round" stroke-linejoin="round"/>
<path fill-rule="evenodd" clip-rule="evenodd" d="M15.3781 12.2109V11.8125L15.0593 11.5172L13.2453 11.0344L10.6296 10.7672L7.48901 10.9266L5.2437 11.4609L4.7937 11.7984V12.1875L5.93745 11.6719L8.6562 11.25H11.2718L13.1937 11.4609L14.525 11.7844L15.3781 12.2109Z" fill="#FFFF00" stroke="black" stroke-width="0.0875" stroke-linecap="round" stroke-linejoin="round"/>
<path fill-rule="evenodd" clip-rule="evenodd" d="M10.0953 11.1891C11.2413 11.1844 12.3853 11.2864 13.5125 11.4938C14.5015 11.6906 15.2 11.9391 15.4343 12.2156V12.3563C15.1531 12.0094 14.2156 11.7563 13.489 11.6063C12.5375 11.4234 11.3328 11.3063 10.0953 11.3063C8.78276 11.3063 7.56401 11.4328 6.62651 11.6156C5.87651 11.7656 4.87339 12.0609 4.74683 12.3563V12.2156C4.81714 12.0094 5.56245 11.7047 6.61245 11.4938C7.76155 11.2853 8.92743 11.1833 10.0953 11.1891ZM10.0953 10.7344C11.2429 10.7299 12.3884 10.8319 13.5171 11.0391C14.5015 11.2359 15.2046 11.4844 15.439 11.7656V11.9016C15.1531 11.5547 14.2109 11.3016 13.489 11.1563C12.5375 10.9688 11.3328 10.8516 10.0953 10.8516C8.93507 10.848 7.77703 10.9515 6.63589 11.1609C5.90933 11.3016 4.86401 11.6109 4.74683 11.9016V11.7609C4.81714 11.5594 5.5812 11.2453 6.61245 11.0438C7.7614 10.8337 8.92728 10.7301 10.0953 10.7344ZM10.0718 8.42344C12.0359 8.41407 13.7515 8.7 14.5343 9.10313L14.8203 9.59532C14.1406 9.22969 12.289 8.84532 10.0718 8.90625C8.26714 8.91563 6.34058 9.10313 5.37026 9.61875L5.71245 9.04688C6.50933 8.63438 8.38433 8.42813 10.0718 8.42344Z" fill="#FFFF00" stroke="black" stroke-width="0.0875" stroke-linecap="round" stroke-linejoin="round"/>
<path fill-rule="evenodd" clip-rule="evenodd" d="M10.0952 8.83124C11.2202 8.83124 12.2983 8.89218 13.1608 9.04687C13.9624 9.19687 14.7312 9.42187 14.839 9.54374L14.9233 9.69374C14.6562 9.5203 13.9952 9.32343 13.1421 9.16405C12.1347 9.00355 11.1151 8.93296 10.0952 8.95312C8.82959 8.95312 7.84521 9.01405 7.00146 9.16405C6.11084 9.32812 5.49209 9.56718 5.3374 9.67968L5.42178 9.52499C5.71709 9.3703 6.19053 9.18749 6.98272 9.04687C7.85459 8.88749 8.84365 8.84062 10.0952 8.83124ZM10.0952 8.38124C11.0852 8.36566 12.0748 8.43467 13.053 8.58749C13.7046 8.71405 14.3468 8.91093 14.5858 9.08437L14.7077 9.28124C14.4968 9.04687 13.7046 8.82655 13.0015 8.70468C12.1858 8.56405 11.1687 8.5078 10.0952 8.49843C8.97021 8.49843 7.92959 8.56874 7.12334 8.71405C6.35459 8.86405 5.85772 9.03749 5.64678 9.17343L5.75459 9.00468C6.04521 8.85468 6.51396 8.71405 7.10459 8.59687C7.91553 8.45155 8.96553 8.38124 10.0952 8.38124ZM12.7202 14.1984C11.8535 14.049 10.9745 13.9831 10.0952 14.0016C6.81865 14.0391 5.76396 14.6719 5.63271 14.8641L5.38897 14.4656C6.21865 13.8609 7.9999 13.5234 10.1093 13.5562C11.2015 13.575 12.1437 13.65 12.9405 13.8L12.7155 14.1984" fill="#FFFF00"/>
<path d="M12.7202 14.1984C11.8535 14.049 10.9745 13.9831 10.0952 14.0016C6.81865 14.0391 5.76396 14.6719 5.63271 14.8641L5.38897 14.4656C6.21865 13.8609 7.9999 13.5234 10.1093 13.5562C11.2015 13.575 12.1437 13.65 12.9405 13.8L12.7155 14.1984M10.0952 8.83124C11.2202 8.83124 12.2983 8.89218 13.1608 9.04687C13.9624 9.19687 14.7312 9.42187 14.839 9.54374L14.9233 9.69374C14.6562 9.5203 13.9952 9.32343 13.1421 9.16405C12.1347 9.00355 11.1151 8.93296 10.0952 8.95312C8.82959 8.95312 7.84521 9.01405 7.00146 9.16405C6.11084 9.32812 5.49209 9.56718 5.3374 9.67968L5.42178 9.52499C5.71709 9.3703 6.19053 9.18749 6.98272 9.04687C7.85459 8.88749 8.84365 8.84062 10.0952 8.83124ZM10.0952 8.38124C11.0852 8.36566 12.0748 8.43467 13.053 8.58749C13.7046 8.71405 14.3468 8.91093 14.5858 9.08437L14.7077 9.28124C14.4968 9.04687 13.7046 8.82655 13.0015 8.70468C12.1858 8.56405 11.1687 8.5078 10.0952 8.49843C8.97021 8.49843 7.92959 8.56874 7.12334 8.71405C6.35459 8.86405 5.85772 9.03749 5.64678 9.17343L5.75459 9.00468C6.04521 8.85468 6.51396 8.71405 7.10459 8.59687C7.91553 8.45155 8.96553 8.38124 10.0952 8.38124Z" stroke="black" stroke-width="0.0875" stroke-linecap="round" stroke-linejoin="round"/>
<path fill-rule="evenodd" clip-rule="evenodd" d="M10.0765 13.9453C10.9859 13.9594 11.8812 13.9922 12.7484 14.1562L12.6828 14.2687C11.8238 14.1204 10.9528 14.0529 10.0812 14.0672C8.87185 14.0578 7.64373 14.1703 6.58435 14.475C6.24685 14.5687 5.69373 14.7844 5.63279 14.9625L5.57185 14.8594C5.5906 14.7562 5.9281 14.5359 6.55623 14.3625C7.77498 14.0109 8.91404 13.9547 10.0719 13.9406L10.0765 13.9453ZM10.1187 13.4859C11.0788 13.485 12.0372 13.5681 12.9828 13.7344L12.9172 13.8515C11.9956 13.683 11.0602 13.6013 10.1234 13.6078C8.90935 13.6078 7.62498 13.6969 6.4531 14.0344C6.0781 14.1469 5.42185 14.3812 5.4031 14.5687L5.34216 14.4609C5.35623 14.2922 5.91873 14.0672 6.42966 13.9172C7.63327 13.6023 8.87496 13.4572 10.1187 13.4859Z" fill="#FFFF00" stroke="black" stroke-width="0.075" stroke-linecap="round" stroke-linejoin="round"/>
<path fill-rule="evenodd" clip-rule="evenodd" d="M14.7687 14.5266L14.375 15.1359L13.2453 14.1328L10.3109 12.1641L7.0062 10.3453L5.28589 9.75938L5.65151 9.07969L5.77808 9.01407L6.84683 9.28126L10.3625 11.0953L12.3921 12.375L14.0937 13.5938L14.7875 14.3953L14.7687 14.5266Z" fill="#FFFF00" stroke="black" stroke-width="0.0875" stroke-linecap="round" stroke-linejoin="round"/>
<path fill-rule="evenodd" clip-rule="evenodd" d="M5.22493 9.77343C5.52961 9.57187 7.74211 10.5562 10.0531 11.9531C12.364 13.3547 14.5718 14.9344 14.3749 15.2344L14.3093 15.3328L14.2765 15.3562C14.2859 15.3562 14.3187 15.3094 14.2765 15.2016C14.1734 14.8781 12.6124 13.6312 10.0109 12.0609C7.47961 10.5516 5.37024 9.64218 5.1593 9.90468L5.22493 9.77343ZM14.8484 14.5172C15.0359 14.1422 12.9874 12.5953 10.4421 11.0906C7.84055 9.61406 5.96086 8.74687 5.61868 9.00468L5.54368 9.14531C5.54368 9.15 5.54368 9.13593 5.56243 9.12187C5.62336 9.07031 5.72649 9.075 5.77336 9.075C6.36399 9.07968 8.05149 9.85312 10.414 11.2125C11.4499 11.8125 14.7921 13.9594 14.7781 14.5594C14.7781 14.6109 14.7827 14.6203 14.764 14.6484L14.8484 14.5172Z" fill="#FFFF00" stroke="black" stroke-width="0.0875" stroke-linecap="round" stroke-linejoin="round"/>
<path d="M6.93042 12.5846C6.93121 12.9986 7.01411 13.4083 7.17432 13.7901C7.33452 14.1718 7.56886 14.518 7.86376 14.8086C8.15506 15.1044 8.50201 15.3396 8.88462 15.5007C9.26724 15.6618 9.67795 15.7456 10.0931 15.7473C10.9333 15.7472 11.739 15.4134 12.3331 14.8193C12.627 14.5271 12.8602 14.1797 13.0195 13.7972C13.1787 13.4146 13.2608 13.0043 13.2611 12.5899V8.36592L6.93042 8.35526V12.5846Z" fill="white" stroke="black" stroke-width="0.0995558"/>
<path d="M7.05847 12.5899C7.0596 12.9871 7.13935 13.3801 7.29314 13.7462C7.44692 14.1124 7.67169 14.4444 7.95447 14.7233C8.52229 15.2941 9.29336 15.6163 10.0985 15.6193C10.9022 15.6197 11.6732 15.3013 12.2425 14.7339C12.5243 14.4547 12.7481 14.1224 12.9009 13.7563C13.0538 13.3901 13.1327 12.9974 13.1332 12.6006V8.49393H7.05847V12.5899ZM11.9118 9.72593V12.3339L11.9065 12.6059C11.9083 12.8442 11.862 13.0804 11.7703 13.3003C11.6787 13.5203 11.5436 13.7194 11.3731 13.8859C11.034 14.2263 10.5736 14.4181 10.0931 14.4193C9.59181 14.4193 9.14914 14.2059 8.81848 13.8753C8.47814 13.5361 8.28632 13.0757 8.28514 12.5953V9.71526L11.9118 9.72593Z" fill="#FF0000" stroke="black" stroke-width="0.0711113"/>
<path d="M7.4425 9.56591C7.44784 9.27258 7.65584 9.20325 7.65584 9.20325C7.66117 9.20325 7.88517 9.27791 7.88517 9.57125L7.4425 9.56591Z" fill="#FFFF00"/>
<path d="M7.26112 9.20858L7.22378 9.54458H7.44778C7.44778 9.26725 7.66112 9.22458 7.66112 9.22458C7.66645 9.22458 7.87445 9.28325 7.87978 9.54458H8.10378L8.06112 9.20325L7.26112 9.20858ZM7.20778 9.54991H8.11445C8.13045 9.54991 8.14645 9.56591 8.14645 9.58725C8.14645 9.61391 8.13045 9.62991 8.11445 9.62991H7.20778C7.19178 9.62991 7.17578 9.61391 7.17578 9.58725C7.17578 9.56591 7.19178 9.54991 7.21311 9.54991H7.20778Z" fill="#FFFF00" stroke="black" stroke-width="0.0711113"/>
<path d="M7.53848 9.54458C7.53848 9.36858 7.66114 9.32058 7.66114 9.32058C7.66114 9.32058 7.78381 9.37391 7.78381 9.54458H7.53848ZM7.22914 9.06458H8.09848C8.11448 9.06458 8.13048 9.08591 8.13048 9.10725C8.13048 9.12325 8.11448 9.13925 8.09848 9.13925H7.22914C7.21314 9.13925 7.19714 9.12325 7.19714 9.10191C7.19714 9.08591 7.21314 9.06991 7.22914 9.06991V9.06458ZM7.25048 9.14458H8.07181C8.08781 9.14458 8.10381 9.16058 8.10381 9.18191C8.10381 9.20325 8.08781 9.21925 8.07181 9.21925H7.24514C7.22381 9.21925 7.21314 9.20325 7.21314 9.18191C7.21314 9.16058 7.22381 9.14458 7.24514 9.14458H7.25048ZM7.51714 8.57925H7.58114V8.62191H7.62914V8.57925H7.69848V8.62725H7.74648V8.57391H7.81048V8.68058C7.81048 8.70191 7.79981 8.71258 7.78381 8.71258H7.54914C7.53314 8.71258 7.51714 8.70191 7.51714 8.68591V8.57925ZM7.76248 8.72325L7.77848 9.06458H7.54914L7.56514 8.71791H7.76248" fill="#FFFF00"/>
<path d="M7.76248 8.72325L7.77848 9.06458H7.54914L7.56514 8.71791H7.76248M7.53848 9.54458C7.53848 9.36858 7.66114 9.32058 7.66114 9.32058C7.66114 9.32058 7.78381 9.37391 7.78381 9.54458H7.53848ZM7.22914 9.06458H8.09848C8.11448 9.06458 8.13048 9.08591 8.13048 9.10725C8.13048 9.12325 8.11448 9.13925 8.09848 9.13925H7.22914C7.21314 9.13925 7.19714 9.12325 7.19714 9.10191C7.19714 9.08591 7.21314 9.06991 7.22914 9.06991V9.06458ZM7.25048 9.14458H8.07181C8.08781 9.14458 8.10381 9.16058 8.10381 9.18191C8.10381 9.20325 8.08781 9.21925 8.07181 9.21925H7.24514C7.22381 9.21925 7.21314 9.20325 7.21314 9.18191C7.21314 9.16058 7.22381 9.14458 7.24514 9.14458H7.25048ZM7.51714 8.57925H7.58114V8.62191H7.62914V8.57925H7.69848V8.62725H7.74648V8.57391H7.81048V8.68058C7.81048 8.70191 7.79981 8.71258 7.78381 8.71258H7.54914C7.53314 8.71258 7.51714 8.70191 7.51714 8.68591V8.57925Z" stroke="black" stroke-width="0.0711113"/>
<path d="M7.48506 8.88324V9.06457H7.27173V8.88324H7.48506Z" fill="#FFFF00" stroke="black" stroke-width="0.0711113"/>
<path d="M8.05049 8.88324V9.06457H7.83716V8.88324H8.05049Z" fill="#FFFF00" stroke="black" stroke-width="0.0711113"/>
<path d="M7.2345 8.74457H7.2985V8.7979H7.3465V8.74457H7.4105V8.7979H7.4585V8.74457H7.5225V8.85123C7.5225 8.87257 7.51183 8.88324 7.49583 8.88324H7.2665C7.25801 8.88324 7.24987 8.87986 7.24387 8.87386C7.23787 8.86786 7.2345 8.85972 7.2345 8.85123V8.74457Z" fill="#FFFF00" stroke="black" stroke-width="0.0711113"/>
<path d="M7.7998 8.74457H7.8638V8.7979H7.9118V8.74457H7.97581V8.7979H8.0238V8.74457H8.0878V8.85123C8.0878 8.87257 8.07714 8.88324 8.06114 8.88324H7.8318C7.82332 8.88324 7.81518 8.87986 7.80918 8.87386C7.80318 8.86786 7.7998 8.85972 7.7998 8.85123V8.74457Z" fill="#FFFF00" stroke="black" stroke-width="0.0711113"/>
<path d="M7.63977 8.82991C7.63977 8.79791 7.68777 8.79791 7.68777 8.82991V8.91524H7.63977V8.82991Z" fill="#000001"/>
<path d="M7.35706 8.94725C7.35706 8.91525 7.39972 8.91525 7.39972 8.94725V9.01125H7.35706V8.94725Z" fill="#000001"/>
<path d="M7.92249 8.94725C7.92249 8.91525 7.96515 8.91525 7.96515 8.94725V9.01125H7.92249V8.94725Z" fill="#000001"/>
<path d="M7.4425 12.0352C7.44784 11.7419 7.65584 11.6726 7.65584 11.6726C7.66117 11.6726 7.88517 11.7472 7.88517 12.0406L7.4425 12.0352Z" fill="#FFFF00"/>
<path d="M7.26112 11.6779L7.22378 12.0139H7.44778C7.44778 11.7366 7.66112 11.6939 7.66112 11.6939C7.66645 11.6939 7.87445 11.7526 7.87978 12.0139H8.10378L8.06112 11.6726L7.26112 11.6779ZM7.20778 12.0192H8.11445C8.13045 12.0192 8.14645 12.0352 8.14645 12.0566C8.14645 12.0832 8.13045 12.0992 8.11445 12.0992H7.20778C7.19178 12.0992 7.17578 12.0832 7.17578 12.0566C7.17578 12.0352 7.19178 12.0192 7.21311 12.0192H7.20778Z" fill="#FFFF00" stroke="black" stroke-width="0.0711113"/>
<path d="M7.53848 12.0139C7.53848 11.8379 7.66114 11.7899 7.66114 11.7899C7.66114 11.7899 7.78381 11.8432 7.78381 12.0139H7.53848ZM7.22914 11.5339H8.09848C8.11448 11.5339 8.13048 11.5552 8.13048 11.5766C8.13048 11.5926 8.11448 11.6086 8.09848 11.6086H7.22914C7.21314 11.6086 7.19714 11.5926 7.19714 11.5712C7.19714 11.5552 7.21314 11.5392 7.22914 11.5392V11.5339ZM7.25048 11.6139H8.07181C8.08781 11.6139 8.10381 11.6299 8.10381 11.6512C8.10381 11.6726 8.08781 11.6886 8.07181 11.6886H7.24514C7.22381 11.6886 7.21314 11.6726 7.21314 11.6512C7.21314 11.6299 7.22381 11.6139 7.24514 11.6139H7.25048ZM7.51714 11.0486H7.58114V11.0912H7.62914V11.0486H7.69848V11.0966H7.74648V11.0432H7.81048V11.1499C7.81048 11.1712 7.79981 11.1819 7.78381 11.1819H7.54914C7.53314 11.1819 7.51714 11.1712 7.51714 11.1552V11.0486ZM7.76248 11.1926L7.77848 11.5339H7.54914L7.56514 11.1872H7.76248" fill="#FFFF00"/>
<path d="M7.76248 11.1926L7.77848 11.5339H7.54914L7.56514 11.1872H7.76248M7.53848 12.0139C7.53848 11.8379 7.66114 11.7899 7.66114 11.7899C7.66114 11.7899 7.78381 11.8432 7.78381 12.0139H7.53848ZM7.22914 11.5339H8.09848C8.11448 11.5339 8.13048 11.5552 8.13048 11.5766C8.13048 11.5926 8.11448 11.6086 8.09848 11.6086H7.22914C7.21314 11.6086 7.19714 11.5926 7.19714 11.5712C7.19714 11.5552 7.21314 11.5392 7.22914 11.5392V11.5339ZM7.25048 11.6139H8.07181C8.08781 11.6139 8.10381 11.6299 8.10381 11.6512C8.10381 11.6726 8.08781 11.6886 8.07181 11.6886H7.24514C7.22381 11.6886 7.21314 11.6726 7.21314 11.6512C7.21314 11.6299 7.22381 11.6139 7.24514 11.6139H7.25048ZM7.51714 11.0486H7.58114V11.0912H7.62914V11.0486H7.69848V11.0966H7.74648V11.0432H7.81048V11.1499C7.81048 11.1712 7.79981 11.1819 7.78381 11.1819H7.54914C7.53314 11.1819 7.51714 11.1712 7.51714 11.1552V11.0486Z" stroke="black" stroke-width="0.0711113"/>
<path d="M7.48506 11.3526V11.5339H7.27173V11.3526H7.48506Z" fill="#FFFF00" stroke="black" stroke-width="0.0711113"/>
<path d="M8.05049 11.3526V11.5339H7.83716V11.3526H8.05049Z" fill="#FFFF00" stroke="black" stroke-width="0.0711113"/>
<path d="M7.2345 11.2139H7.2985V11.2672H7.3465V11.2139H7.4105V11.2672H7.4585V11.2139H7.5225V11.3206C7.5225 11.3419 7.51183 11.3526 7.49583 11.3526H7.2665C7.25801 11.3526 7.24987 11.3492 7.24387 11.3432C7.23787 11.3372 7.2345 11.3291 7.2345 11.3206V11.2139Z" fill="#FFFF00" stroke="black" stroke-width="0.0711113"/>
<path d="M7.7998 11.2139H7.8638V11.2672H7.9118V11.2139H7.97581V11.2672H8.0238V11.2139H8.0878V11.3206C8.0878 11.3419 8.07714 11.3526 8.06114 11.3526H7.8318C7.82332 11.3526 7.81518 11.3492 7.80918 11.3432C7.80318 11.3372 7.7998 11.3291 7.7998 11.3206V11.2139Z" fill="#FFFF00" stroke="black" stroke-width="0.0711113"/>
<path d="M7.63977 11.2992C7.63977 11.2672 7.68777 11.2672 7.68777 11.2992V11.3846H7.63977V11.2992Z" fill="#000001"/>
<path d="M7.35706 11.4166C7.35706 11.3846 7.39972 11.3846 7.39972 11.4166V11.4806H7.35706V11.4166Z" fill="#000001"/>
<path d="M7.92249 11.4166C7.92249 11.3846 7.96515 11.3846 7.96515 11.4166V11.4806H7.92249V11.4166Z" fill="#000001"/>
<path d="M8.40504 14.6088C8.20066 14.3984 8.29803 14.2019 8.29803 14.2019C8.30179 14.1981 8.51261 14.0918 8.72075 14.2985L8.40504 14.6088Z" fill="#FFFF00"/>
<path d="M8.02363 14.4857L8.23574 14.749L8.39358 14.59C8.19679 14.3946 8.31684 14.2132 8.31684 14.2132C8.3206 14.2094 8.50879 14.1031 8.69798 14.2835L8.85582 14.1245L8.58355 13.9143L8.02363 14.4857ZM8.22825 14.7641L8.86712 14.1207C8.87839 14.1094 8.90102 14.1093 8.91616 14.1243C8.93508 14.1431 8.93516 14.1658 8.92389 14.1771L8.28502 14.8204C8.27374 14.8318 8.25111 14.8319 8.23219 14.8131C8.21705 14.7981 8.21698 14.7754 8.23201 14.7603L8.22825 14.7641Z" fill="#FFFF00" stroke="black" stroke-width="0.0711113"/>
<path d="M8.45747 14.5257C8.33259 14.4017 8.38496 14.2808 8.38496 14.2808C8.38496 14.2808 8.50924 14.2313 8.63034 14.3516L8.45747 14.5257ZM7.89891 14.407L8.51147 13.7901C8.52275 13.7788 8.54916 13.7824 8.5643 13.7975C8.57565 13.8087 8.57573 13.8314 8.56445 13.8427L7.95189 14.4596C7.94062 14.4709 7.91799 14.471 7.90285 14.456C7.8915 14.4447 7.89142 14.4221 7.90269 14.4107L7.89891 14.407ZM7.97071 14.4482L8.54945 13.8654C8.56072 13.854 8.58335 13.854 8.59849 13.869C8.61362 13.884 8.6137 13.9067 8.60243 13.918L8.01993 14.5046C8.0049 14.5197 7.98603 14.516 7.97089 14.501C7.95575 14.486 7.95192 14.4671 7.96695 14.452L7.97071 14.4482ZM7.75747 13.8606L7.80256 13.8152L7.83284 13.8453L7.86666 13.8112L7.83638 13.7811L7.88524 13.7319L7.9193 13.7658L7.95312 13.7317L7.91528 13.6941L7.96037 13.6487L8.03606 13.7239C8.0512 13.7389 8.05125 13.754 8.03998 13.7654L7.87462 13.9319C7.86335 13.9432 7.84451 13.9471 7.83315 13.9358L7.75747 13.8606ZM8.03251 13.788L8.28599 14.0172L8.12439 14.1799L7.88968 13.9243L8.02873 13.7842" fill="#FFFF00"/>
<path d="M8.03251 13.788L8.28599 14.0172L8.12439 14.1799L7.88968 13.9243L8.02873 13.7842M8.45747 14.5257C8.33259 14.4017 8.38496 14.2808 8.38496 14.2808C8.38496 14.2808 8.50924 14.2313 8.63034 14.3516L8.45747 14.5257ZM7.89891 14.407L8.51147 13.7901C8.52275 13.7788 8.54916 13.7824 8.5643 13.7975C8.57565 13.8087 8.57573 13.8314 8.56445 13.8427L7.95189 14.4596C7.94062 14.4709 7.91799 14.471 7.90285 14.456C7.8915 14.4447 7.89142 14.4221 7.90269 14.4107L7.89891 14.407ZM7.97071 14.4482L8.54945 13.8654C8.56072 13.854 8.58335 13.854 8.59849 13.869C8.61362 13.884 8.6137 13.9067 8.60243 13.918L8.01993 14.5046C8.0049 14.5197 7.98603 14.516 7.97089 14.501C7.95575 14.486 7.95192 14.4671 7.96695 14.452L7.97071 14.4482ZM7.75747 13.8606L7.80256 13.8152L7.83284 13.8453L7.86666 13.8112L7.83638 13.7811L7.88524 13.7319L7.9193 13.7658L7.95312 13.7317L7.91528 13.6941L7.96037 13.6487L8.03606 13.7239C8.0512 13.7389 8.05125 13.754 8.03998 13.7654L7.87462 13.9319C7.86335 13.9432 7.84451 13.9471 7.83315 13.9358L7.75747 13.8606Z" stroke="black" stroke-width="0.0711113"/>
<path d="M7.95062 14.0975L8.07928 14.2253L7.92896 14.3767L7.80029 14.2489L7.95062 14.0975Z" fill="#FFFF00" stroke="black" stroke-width="0.0711113"/>
<path d="M8.34905 13.6964L8.47772 13.8242L8.3274 13.9756L8.19873 13.8478L8.34905 13.6964Z" fill="#FFFF00" stroke="black" stroke-width="0.0711113"/>
<path d="M7.67566 14.1777L7.72076 14.1323L7.7586 14.1699L7.79242 14.1358L7.75458 14.0982L7.79968 14.0528L7.83752 14.0904L7.87134 14.0563L7.8335 14.0188L7.87859 13.9733L7.95428 14.0485C7.96942 14.0635 7.96947 14.0786 7.9582 14.09L7.7966 14.2527C7.79062 14.2587 7.78249 14.2621 7.77401 14.2622C7.76552 14.2622 7.75737 14.2588 7.75135 14.2529L7.67566 14.1777Z" fill="#FFFF00" stroke="black" stroke-width="0.0711113"/>
<path d="M8.07397 13.7766L8.11907 13.7311L8.15692 13.7687L8.19074 13.7347L8.15289 13.6971L8.19799 13.6517L8.23583 13.6892L8.26966 13.6552L8.23181 13.6176L8.27691 13.5722L8.3526 13.6474C8.36773 13.6624 8.36779 13.6775 8.35651 13.6888L8.19492 13.8516C8.18894 13.8576 8.18081 13.861 8.17232 13.861C8.16384 13.861 8.15568 13.8577 8.14966 13.8517L8.07397 13.7766Z" fill="#FFFF00" stroke="black" stroke-width="0.0711113"/>
<path d="M8.02179 13.9502C7.99908 13.9277 8.03291 13.8936 8.05561 13.9161L8.11616 13.9763L8.08234 14.0103L8.02179 13.9502Z" fill="#000001"/>
<path d="M7.90582 14.2335C7.88312 14.2109 7.91318 14.1806 7.93589 14.2032L7.9813 14.2483L7.95124 14.2786L7.90582 14.2335Z" fill="#000001"/>
<path d="M8.30426 13.8323C8.28155 13.8098 8.31162 13.7795 8.33433 13.802L8.37974 13.8471L8.34967 13.8774L8.30426 13.8323Z" fill="#000001"/>
<path d="M9.87976 9.56591C9.88509 9.27258 10.0931 9.20325 10.0931 9.20325C10.0984 9.20325 10.3224 9.27791 10.3224 9.57125L9.87976 9.56591Z" fill="#FFFF00"/>
<path d="M9.69837 9.20858L9.66104 9.54458H9.88504C9.88504 9.26725 10.0984 9.22458 10.0984 9.22458C10.1037 9.22458 10.3117 9.28325 10.317 9.54458H10.541L10.4984 9.20325L9.69837 9.20858ZM9.64504 9.54991H10.5517C10.5677 9.54991 10.5837 9.56591 10.5837 9.58725C10.5837 9.61391 10.5677 9.62991 10.5517 9.62991H9.64504C9.62904 9.62991 9.61304 9.61391 9.61304 9.58725C9.61304 9.56591 9.62904 9.54991 9.65037 9.54991H9.64504Z" fill="#FFFF00" stroke="black" stroke-width="0.0711113"/>
<path d="M9.97573 9.54458C9.97573 9.36858 10.0984 9.32058 10.0984 9.32058C10.0984 9.32058 10.2211 9.37391 10.2211 9.54458H9.97573ZM9.6664 9.06458H10.5357C10.5517 9.06458 10.5677 9.08591 10.5677 9.10725C10.5677 9.12325 10.5517 9.13925 10.5357 9.13925H9.6664C9.6504 9.13925 9.6344 9.12325 9.6344 9.10191C9.6344 9.08591 9.6504 9.06991 9.6664 9.06991V9.06458ZM9.68773 9.14458H10.5091C10.5251 9.14458 10.5411 9.16058 10.5411 9.18191C10.5411 9.20325 10.5251 9.21925 10.5091 9.21925H9.6824C9.66107 9.21925 9.6504 9.20325 9.6504 9.18191C9.6504 9.16058 9.66107 9.14458 9.6824 9.14458H9.68773ZM9.9544 8.57925H10.0184V8.62191H10.0664V8.57925H10.1357V8.62725H10.1837V8.57391H10.2477V8.68058C10.2477 8.70191 10.2371 8.71258 10.2211 8.71258H9.9864C9.9704 8.71258 9.9544 8.70191 9.9544 8.68591V8.57925ZM10.1997 8.72325L10.2157 9.06458H9.9864L10.0024 8.71791H10.1997" fill="#FFFF00"/>
<path d="M10.1997 8.72325L10.2157 9.06458H9.9864L10.0024 8.71791H10.1997M9.97573 9.54458C9.97573 9.36858 10.0984 9.32058 10.0984 9.32058C10.0984 9.32058 10.2211 9.37391 10.2211 9.54458H9.97573ZM9.6664 9.06458H10.5357C10.5517 9.06458 10.5677 9.08591 10.5677 9.10725C10.5677 9.12325 10.5517 9.13925 10.5357 9.13925H9.6664C9.6504 9.13925 9.6344 9.12325 9.6344 9.10191C9.6344 9.08591 9.6504 9.06991 9.6664 9.06991V9.06458ZM9.68773 9.14458H10.5091C10.5251 9.14458 10.5411 9.16058 10.5411 9.18191C10.5411 9.20325 10.5251 9.21925 10.5091 9.21925H9.6824C9.66107 9.21925 9.6504 9.20325 9.6504 9.18191C9.6504 9.16058 9.66107 9.14458 9.6824 9.14458H9.68773ZM9.9544 8.57925H10.0184V8.62191H10.0664V8.57925H10.1357V8.62725H10.1837V8.57391H10.2477V8.68058C10.2477 8.70191 10.2371 8.71258 10.2211 8.71258H9.9864C9.9704 8.71258 9.9544 8.70191 9.9544 8.68591V8.57925Z" stroke="black" stroke-width="0.0711113"/>
<path d="M9.92232 8.88324V9.06457H9.70898V8.88324H9.92232Z" fill="#FFFF00" stroke="black" stroke-width="0.0711113"/>
<path d="M10.4877 8.88324V9.06457H10.2744V8.88324H10.4877Z" fill="#FFFF00" stroke="black" stroke-width="0.0711113"/>
<path d="M9.67175 8.74457H9.73575V8.7979H9.78375V8.74457H9.84775V8.7979H9.89575V8.74457H9.95975V8.85123C9.95975 8.87257 9.94909 8.88324 9.93309 8.88324H9.70375C9.69527 8.88324 9.68713 8.87986 9.68113 8.87386C9.67512 8.86786 9.67175 8.85972 9.67175 8.85123V8.74457Z" fill="#FFFF00" stroke="black" stroke-width="0.0711113"/>
<path d="M10.2371 8.74457H10.3011V8.7979H10.3491V8.74457H10.4131V8.7979H10.4611V8.74457H10.5251V8.85123C10.5251 8.87257 10.5144 8.88324 10.4984 8.88324H10.2691C10.2606 8.88324 10.2524 8.87986 10.2464 8.87386C10.2404 8.86786 10.2371 8.85972 10.2371 8.85123V8.74457Z" fill="#FFFF00" stroke="black" stroke-width="0.0711113"/>
<path d="M10.077 8.82991C10.077 8.79791 10.125 8.79791 10.125 8.82991V8.91524H10.077V8.82991Z" fill="#000001"/>
<path d="M9.79431 8.94725C9.79431 8.91525 9.83698 8.91525 9.83698 8.94725V9.01125H9.79431V8.94725Z" fill="#000001"/>
<path d="M10.3597 8.94725C10.3597 8.91525 10.4024 8.91525 10.4024 8.94725V9.01125H10.3597V8.94725Z" fill="#000001"/>
<path d="M12.7437 9.56591C12.7383 9.27258 12.5303 9.20325 12.5303 9.20325C12.525 9.20325 12.301 9.27791 12.301 9.57125L12.7437 9.56591Z" fill="#FFFF00"/>
<path d="M12.925 9.20858L12.9624 9.54458H12.7384C12.7384 9.26725 12.525 9.22458 12.525 9.22458C12.5197 9.22458 12.3117 9.28325 12.3064 9.54458H12.0824L12.125 9.20325L12.925 9.20858ZM12.9784 9.54991H12.0717C12.0557 9.54991 12.0397 9.56591 12.0397 9.58725C12.0397 9.61391 12.0557 9.62991 12.0717 9.62991H12.9784C12.9944 9.62991 13.0104 9.61391 13.0104 9.58725C13.0104 9.56591 12.9944 9.54991 12.973 9.54991H12.9784Z" fill="#FFFF00" stroke="black" stroke-width="0.0711113"/>
<path d="M12.6477 9.54458C12.6477 9.36858 12.525 9.32058 12.525 9.32058C12.525 9.32058 12.4023 9.37391 12.4023 9.54458H12.6477ZM12.957 9.06458H12.0877C12.0717 9.06458 12.0557 9.08591 12.0557 9.10725C12.0557 9.12325 12.0717 9.13925 12.0877 9.13925H12.957C12.973 9.13925 12.989 9.12325 12.989 9.10191C12.989 9.08591 12.973 9.06991 12.957 9.06991V9.06458ZM12.9357 9.14458H12.1143C12.0983 9.14458 12.0823 9.16058 12.0823 9.18191C12.0823 9.20325 12.0983 9.21925 12.1143 9.21925H12.941C12.9623 9.21925 12.973 9.20325 12.973 9.18191C12.973 9.16058 12.9623 9.14458 12.941 9.14458H12.9357ZM12.669 8.57925H12.605V8.62191H12.557V8.57925H12.4877V8.62725H12.4397V8.57391H12.3757V8.68058C12.3757 8.70191 12.3863 8.71258 12.4023 8.71258H12.637C12.653 8.71258 12.669 8.70191 12.669 8.68591V8.57925ZM12.4237 8.72325L12.4077 9.06458H12.637L12.621 8.71791H12.4237" fill="#FFFF00"/>
<path d="M12.4237 8.72325L12.4077 9.06458H12.637L12.621 8.71791H12.4237M12.6477 9.54458C12.6477 9.36858 12.525 9.32058 12.525 9.32058C12.525 9.32058 12.4023 9.37391 12.4023 9.54458H12.6477ZM12.957 9.06458H12.0877C12.0717 9.06458 12.0557 9.08591 12.0557 9.10725C12.0557 9.12325 12.0717 9.13925 12.0877 9.13925H12.957C12.973 9.13925 12.989 9.12325 12.989 9.10191C12.989 9.08591 12.973 9.06991 12.957 9.06991V9.06458ZM12.9357 9.14458H12.1143C12.0983 9.14458 12.0823 9.16058 12.0823 9.18191C12.0823 9.20325 12.0983 9.21925 12.1143 9.21925H12.941C12.9623 9.21925 12.973 9.20325 12.973 9.18191C12.973 9.16058 12.9623 9.14458 12.941 9.14458H12.9357ZM12.669 8.57925H12.605V8.62191H12.557V8.57925H12.4877V8.62725H12.4397V8.57391H12.3757V8.68058C12.3757 8.70191 12.3863 8.71258 12.4023 8.71258H12.637C12.653 8.71258 12.669 8.70191 12.669 8.68591V8.57925Z" stroke="black" stroke-width="0.0711113"/>
<path d="M12.7011 8.88324V9.06457H12.9144V8.88324H12.7011Z" fill="#FFFF00" stroke="black" stroke-width="0.0711113"/>
<path d="M12.1357 8.88324V9.06457H12.349V8.88324H12.1357Z" fill="#FFFF00" stroke="black" stroke-width="0.0711113"/>
<path d="M12.9517 8.74457H12.8877V8.7979H12.8397V8.74457H12.7757V8.7979H12.7277V8.74457H12.6637V8.85123C12.6637 8.87257 12.6743 8.88324 12.6903 8.88324H12.9197C12.9281 8.88324 12.9363 8.87986 12.9423 8.87386C12.9483 8.86786 12.9517 8.85972 12.9517 8.85123V8.74457Z" fill="#FFFF00" stroke="black" stroke-width="0.0711113"/>
<path d="M12.3864 8.74457H12.3224V8.7979H12.2744V8.74457H12.2104V8.7979H12.1624V8.74457H12.0984V8.85123C12.0984 8.87257 12.109 8.88324 12.125 8.88324H12.3544C12.3628 8.88324 12.371 8.87986 12.377 8.87386C12.383 8.86786 12.3864 8.85972 12.3864 8.85123V8.74457Z" fill="#FFFF00" stroke="black" stroke-width="0.0711113"/>
<path d="M12.5464 8.82991C12.5464 8.79791 12.4984 8.79791 12.4984 8.82991V8.91524H12.5464V8.82991Z" fill="#000001"/>
<path d="M12.8291 8.94725C12.8291 8.91525 12.7864 8.91525 12.7864 8.94725V9.01125H12.8291V8.94725Z" fill="#000001"/>
<path d="M12.2637 8.94725C12.2637 8.91525 12.221 8.91525 12.221 8.94725V9.01125H12.2637V8.94725Z" fill="#000001"/>
<path d="M12.7437 12.0352C12.7383 11.7419 12.5303 11.6726 12.5303 11.6726C12.525 11.6726 12.301 11.7472 12.301 12.0406L12.7437 12.0352Z" fill="#FFFF00"/>
<path d="M12.925 11.6779L12.9624 12.0139H12.7384C12.7384 11.7366 12.525 11.6939 12.525 11.6939C12.5197 11.6939 12.3117 11.7526 12.3064 12.0139H12.0824L12.125 11.6726L12.925 11.6779ZM12.9784 12.0192H12.0717C12.0557 12.0192 12.0397 12.0352 12.0397 12.0566C12.0397 12.0832 12.0557 12.0992 12.0717 12.0992H12.9784C12.9944 12.0992 13.0104 12.0832 13.0104 12.0566C13.0104 12.0352 12.9944 12.0192 12.973 12.0192H12.9784Z" fill="#FFFF00" stroke="black" stroke-width="0.0711113"/>
<path d="M12.6477 12.0139C12.6477 11.8379 12.525 11.7899 12.525 11.7899C12.525 11.7899 12.4023 11.8432 12.4023 12.0139H12.6477ZM12.957 11.5339H12.0877C12.0717 11.5339 12.0557 11.5552 12.0557 11.5766C12.0557 11.5926 12.0717 11.6086 12.0877 11.6086H12.957C12.973 11.6086 12.989 11.5926 12.989 11.5712C12.989 11.5552 12.973 11.5392 12.957 11.5392V11.5339ZM12.9357 11.6139H12.1143C12.0983 11.6139 12.0823 11.6299 12.0823 11.6512C12.0823 11.6726 12.0983 11.6886 12.1143 11.6886H12.941C12.9623 11.6886 12.973 11.6726 12.973 11.6512C12.973 11.6299 12.9623 11.6139 12.941 11.6139H12.9357ZM12.669 11.0486H12.605V11.0912H12.557V11.0486H12.4877V11.0966H12.4397V11.0432H12.3757V11.1499C12.3757 11.1712 12.3863 11.1819 12.4023 11.1819H12.637C12.653 11.1819 12.669 11.1712 12.669 11.1552V11.0486ZM12.4237 11.1926L12.4077 11.5339H12.637L12.621 11.1872H12.4237" fill="#FFFF00"/>
<path d="M12.4237 11.1926L12.4077 11.5339H12.637L12.621 11.1872H12.4237M12.6477 12.0139C12.6477 11.8379 12.525 11.7899 12.525 11.7899C12.525 11.7899 12.4023 11.8432 12.4023 12.0139H12.6477ZM12.957 11.5339H12.0877C12.0717 11.5339 12.0557 11.5552 12.0557 11.5766C12.0557 11.5926 12.0717 11.6086 12.0877 11.6086H12.957C12.973 11.6086 12.989 11.5926 12.989 11.5712C12.989 11.5552 12.973 11.5392 12.957 11.5392V11.5339ZM12.9357 11.6139H12.1143C12.0983 11.6139 12.0823 11.6299 12.0823 11.6512C12.0823 11.6726 12.0983 11.6886 12.1143 11.6886H12.941C12.9623 11.6886 12.973 11.6726 12.973 11.6512C12.973 11.6299 12.9623 11.6139 12.941 11.6139H12.9357ZM12.669 11.0486H12.605V11.0912H12.557V11.0486H12.4877V11.0966H12.4397V11.0432H12.3757V11.1499C12.3757 11.1712 12.3863 11.1819 12.4023 11.1819H12.637C12.653 11.1819 12.669 11.1712 12.669 11.1552V11.0486Z" stroke="black" stroke-width="0.0711113"/>
<path d="M12.7011 11.3526V11.5339H12.9144V11.3526H12.7011Z" fill="#FFFF00" stroke="black" stroke-width="0.0711113"/>
<path d="M12.1357 11.3526V11.5339H12.349V11.3526H12.1357Z" fill="#FFFF00" stroke="black" stroke-width="0.0711113"/>
<path d="M12.9517 11.2139H12.8877V11.2672H12.8397V11.2139H12.7757V11.2672H12.7277V11.2139H12.6637V11.3206C12.6637 11.3419 12.6743 11.3526 12.6903 11.3526H12.9197C12.9281 11.3526 12.9363 11.3492 12.9423 11.3432C12.9483 11.3372 12.9517 11.3291 12.9517 11.3206V11.2139Z" fill="#FFFF00" stroke="black" stroke-width="0.0711113"/>
<path d="M12.3864 11.2139H12.3224V11.2672H12.2744V11.2139H12.2104V11.2672H12.1624V11.2139H12.0984V11.3206C12.0984 11.3419 12.109 11.3526 12.125 11.3526H12.3544C12.3628 11.3526 12.371 11.3492 12.377 11.3432C12.383 11.3372 12.3864 11.3291 12.3864 11.3206V11.2139Z" fill="#FFFF00" stroke="black" stroke-width="0.0711113"/>
<path d="M12.5464 11.2992C12.5464 11.2672 12.4984 11.2672 12.4984 11.2992V11.3846H12.5464V11.2992Z" fill="#000001"/>
<path d="M12.8291 11.4166C12.8291 11.3846 12.7864 11.3846 12.7864 11.4166V11.4806H12.8291V11.4166Z" fill="#000001"/>
<path d="M12.2637 11.4166C12.2637 11.3846 12.221 11.3846 12.221 11.4166V11.4806H12.2637V11.4166Z" fill="#000001"/>
<path d="M11.7812 14.6088C11.9856 14.3984 11.8883 14.2019 11.8883 14.2019C11.8845 14.1981 11.6737 14.0918 11.4655 14.2985L11.7812 14.6088Z" fill="#FFFF00"/>
<path d="M12.1625 14.4857L11.9504 14.749L11.7926 14.59C11.9894 14.3946 11.8693 14.2132 11.8693 14.2132C11.8656 14.2094 11.6774 14.1031 11.4882 14.2835L11.3303 14.1245L11.6026 13.9143L12.1625 14.4857ZM11.9579 14.7641L11.319 14.1207C11.3078 14.1094 11.2851 14.1093 11.27 14.1243C11.2511 14.1431 11.251 14.1658 11.2623 14.1771L11.9011 14.8204C11.9124 14.8318 11.935 14.8319 11.954 14.8131C11.9691 14.7981 11.9692 14.7754 11.9541 14.7603L11.9579 14.7641Z" fill="#FFFF00" stroke="black" stroke-width="0.0711113"/>
<path d="M11.7287 14.5257C11.8536 14.4017 11.8012 14.2808 11.8012 14.2808C11.8012 14.2808 11.6769 14.2313 11.5558 14.3516L11.7287 14.5257ZM12.2872 14.407L11.6747 13.7901C11.6634 13.7788 11.637 13.7824 11.6219 13.7975C11.6105 13.8087 11.6104 13.8314 11.6217 13.8427L12.2343 14.4596C12.2455 14.4709 12.2682 14.471 12.2833 14.456C12.2947 14.4447 12.2947 14.4221 12.2835 14.4107L12.2872 14.407ZM12.2154 14.4482L11.6367 13.8654C11.6254 13.854 11.6028 13.854 11.5877 13.869C11.5725 13.884 11.5725 13.9067 11.5837 13.918L12.1662 14.5046C12.1813 14.5197 12.2001 14.516 12.2153 14.501C12.2304 14.486 12.2342 14.4671 12.2192 14.452L12.2154 14.4482ZM12.4287 13.8606L12.3836 13.8152L12.3533 13.8453L12.3195 13.8112L12.3498 13.7811L12.3009 13.7319L12.2669 13.7658L12.233 13.7317L12.2709 13.6941L12.2258 13.6487L12.1501 13.7239C12.135 13.7389 12.1349 13.754 12.1462 13.7654L12.3115 13.9319C12.3228 13.9432 12.3417 13.9471 12.353 13.9358L12.4287 13.8606ZM12.1536 13.788L11.9002 14.0172L12.0618 14.1799L12.2965 13.9243L12.1574 13.7842" fill="#FFFF00"/>
<path d="M12.1536 13.788L11.9002 14.0172L12.0618 14.1799L12.2965 13.9243L12.1574 13.7842M11.7287 14.5257C11.8536 14.4017 11.8012 14.2808 11.8012 14.2808C11.8012 14.2808 11.6769 14.2313 11.5558 14.3516L11.7287 14.5257ZM12.2872 14.407L11.6747 13.7901C11.6634 13.7788 11.637 13.7824 11.6219 13.7975C11.6105 13.8087 11.6104 13.8314 11.6217 13.8427L12.2343 14.4596C12.2455 14.4709 12.2682 14.471 12.2833 14.456C12.2947 14.4447 12.2947 14.4221 12.2835 14.4107L12.2872 14.407ZM12.2154 14.4482L11.6367 13.8654C11.6254 13.854 11.6028 13.854 11.5877 13.869C11.5725 13.884 11.5725 13.9067 11.5837 13.918L12.1662 14.5046C12.1813 14.5197 12.2001 14.516 12.2153 14.501C12.2304 14.486 12.2342 14.4671 12.2192 14.452L12.2154 14.4482ZM12.4287 13.8606L12.3836 13.8152L12.3533 13.8453L12.3195 13.8112L12.3498 13.7811L12.3009 13.7319L12.2669 13.7658L12.233 13.7317L12.2709 13.6941L12.2258 13.6487L12.1501 13.7239C12.135 13.7389 12.1349 13.754 12.1462 13.7654L12.3115 13.9319C12.3228 13.9432 12.3417 13.9471 12.353 13.9358L12.4287 13.8606Z" stroke="black" stroke-width="0.0711113"/>
<path d="M12.2355 14.0975L12.1069 14.2253L12.2572 14.3767L12.3859 14.2489L12.2355 14.0975Z" fill="#FFFF00" stroke="black" stroke-width="0.0711113"/>
<path d="M11.8371 13.6964L11.7084 13.8242L11.8588 13.9756L11.9874 13.8478L11.8371 13.6964Z" fill="#FFFF00" stroke="black" stroke-width="0.0711113"/>
<path d="M12.5105 14.1777L12.4654 14.1323L12.4276 14.1698L12.3937 14.1358L12.4316 14.0982L12.3865 14.0528L12.3486 14.0904L12.3148 14.0563L12.3527 14.0187L12.3076 13.9733L12.2319 14.0485C12.2167 14.0635 12.2167 14.0786 12.228 14.0899L12.3896 14.2527C12.3955 14.2587 12.4037 14.2621 12.4122 14.2621C12.4206 14.2622 12.4288 14.2588 12.4348 14.2528L12.5105 14.1777Z" fill="#FFFF00" stroke="black" stroke-width="0.0711113"/>
<path d="M12.1122 13.7766L12.0671 13.7311L12.0292 13.7687L11.9954 13.7347L12.0333 13.6971L11.9882 13.6517L11.9503 13.6892L11.9165 13.6552L11.9543 13.6176L11.9092 13.5722L11.8336 13.6474C11.8184 13.6624 11.8184 13.6775 11.8296 13.6888L11.9912 13.8516C11.9972 13.8576 12.0053 13.861 12.0138 13.861C12.0223 13.861 12.0305 13.8577 12.0365 13.8517L12.1122 13.7766Z" fill="#FFFF00" stroke="black" stroke-width="0.0711113"/>
<path d="M12.1644 13.9502C12.1871 13.9277 12.1533 13.8936 12.1305 13.9161L12.07 13.9763L12.1038 14.0103L12.1644 13.9502Z" fill="#000001"/>
<path d="M12.2803 14.2335C12.303 14.2109 12.273 14.1806 12.2503 14.2032L12.2049 14.2483L12.2349 14.2786L12.2803 14.2335Z" fill="#000001"/>
<path d="M11.8819 13.8323C11.9046 13.8098 11.8745 13.7795 11.8518 13.802L11.8064 13.8471L11.8365 13.8774L11.8819 13.8323Z" fill="#000001"/>
<path d="M9.70375 12.1259C9.70279 12.2385 9.74474 12.3472 9.82109 12.4299C9.8567 12.4698 9.90024 12.5017 9.94891 12.5238C9.99759 12.5458 10.0503 12.5574 10.1038 12.5579C10.2158 12.5579 10.3171 12.5046 10.3864 12.4299C10.4628 12.3472 10.5047 12.2385 10.5038 12.1259V11.5499H9.70375V12.1259Z" fill="#003399"/>
<path d="M9.89042 11.8486C9.93461 11.8486 9.97043 11.8128 9.97043 11.7686C9.97043 11.7244 9.93461 11.6886 9.89042 11.6886C9.84624 11.6886 9.81042 11.7244 9.81042 11.7686C9.81042 11.8128 9.84624 11.8486 9.89042 11.8486Z" fill="white"/>
<path d="M10.3331 11.8486C10.3772 11.8486 10.4131 11.8128 10.4131 11.7686C10.4131 11.7244 10.3772 11.6886 10.3331 11.6886C10.2889 11.6886 10.2531 11.7244 10.2531 11.7686C10.2531 11.8128 10.2889 11.8486 10.3331 11.8486Z" fill="white"/>
<path d="M10.1091 12.0619C10.1532 12.0619 10.1891 12.0261 10.1891 11.9819C10.1891 11.9377 10.1532 11.9019 10.1091 11.9019C10.0649 11.9019 10.0291 11.9377 10.0291 11.9819C10.0291 12.0261 10.0649 12.0619 10.1091 12.0619Z" fill="white"/>
<path d="M9.89042 12.2859C9.93461 12.2859 9.97043 12.2501 9.97043 12.2059C9.97043 12.1617 9.93461 12.1259 9.89042 12.1259C9.84624 12.1259 9.81042 12.1617 9.81042 12.2059C9.81042 12.2501 9.84624 12.2859 9.89042 12.2859Z" fill="white"/>
<path d="M10.3331 12.2859C10.3772 12.2859 10.4131 12.2501 10.4131 12.2059C10.4131 12.1617 10.3772 12.1259 10.3331 12.1259C10.2889 12.1259 10.2531 12.1617 10.2531 12.2059C10.2531 12.2501 10.2889 12.2859 10.3331 12.2859Z" fill="white"/>
<path d="M9.70375 10.7393C9.70279 10.8518 9.74474 10.9605 9.82109 11.0433C9.8567 11.0831 9.90024 11.1151 9.94891 11.1371C9.99759 11.1591 10.0503 11.1708 10.1038 11.1713C10.2158 11.1713 10.3171 11.1179 10.3864 11.0433C10.4628 10.9605 10.5047 10.8518 10.5038 10.7393V10.1633H9.70375V10.7393Z" fill="#003399"/>
<path d="M9.89042 10.4619C9.93461 10.4619 9.97043 10.4261 9.97043 10.3819C9.97043 10.3378 9.93461 10.3019 9.89042 10.3019C9.84624 10.3019 9.81042 10.3378 9.81042 10.3819C9.81042 10.4261 9.84624 10.4619 9.89042 10.4619Z" fill="white"/>
<path d="M10.3331 10.4619C10.3772 10.4619 10.4131 10.4261 10.4131 10.3819C10.4131 10.3378 10.3772 10.3019 10.3331 10.3019C10.2889 10.3019 10.2531 10.3378 10.2531 10.3819C10.2531 10.4261 10.2889 10.4619 10.3331 10.4619Z" fill="white"/>
<path d="M10.1091 10.6753C10.1532 10.6753 10.1891 10.6394 10.1891 10.5953C10.1891 10.5511 10.1532 10.5153 10.1091 10.5153C10.0649 10.5153 10.0291 10.5511 10.0291 10.5953C10.0291 10.6394 10.0649 10.6753 10.1091 10.6753Z" fill="white"/>
<path d="M9.89042 10.8993C9.93461 10.8993 9.97043 10.8634 9.97043 10.8193C9.97043 10.7751 9.93461 10.7393 9.89042 10.7393C9.84624 10.7393 9.81042 10.7751 9.81042 10.8193C9.81042 10.8634 9.84624 10.8993 9.89042 10.8993Z" fill="white"/>
<path d="M10.3331 10.8993C10.3772 10.8993 10.4131 10.8634 10.4131 10.8193C10.4131 10.7751 10.3772 10.7393 10.3331 10.7393C10.2889 10.7393 10.2531 10.7751 10.2531 10.8193C10.2531 10.8634 10.2889 10.8993 10.3331 10.8993Z" fill="white"/>
<path d="M8.59438 12.1259C8.59341 12.2385 8.63537 12.3472 8.71171 12.4299C8.74733 12.4698 8.79087 12.5017 8.83954 12.5238C8.88821 12.5458 8.94095 12.5574 8.99438 12.5579C9.10638 12.5579 9.20771 12.5046 9.27704 12.4299C9.35339 12.3472 9.39534 12.2385 9.39438 12.1259V11.5499H8.59438V12.1259Z" fill="#003399"/>
<path d="M8.78105 11.8486C8.82523 11.8486 8.86105 11.8128 8.86105 11.7686C8.86105 11.7244 8.82523 11.6886 8.78105 11.6886C8.73687 11.6886 8.70105 11.7244 8.70105 11.7686C8.70105 11.8128 8.73687 11.8486 8.78105 11.8486Z" fill="white"/>
<path d="M9.22368 11.8486C9.26786 11.8486 9.30368 11.8128 9.30368 11.7686C9.30368 11.7244 9.26786 11.6886 9.22368 11.6886C9.17949 11.6886 9.14368 11.7244 9.14368 11.7686C9.14368 11.8128 9.17949 11.8486 9.22368 11.8486Z" fill="white"/>
<path d="M8.99968 12.0619C9.04386 12.0619 9.07968 12.0261 9.07968 11.9819C9.07968 11.9377 9.04386 11.9019 8.99968 11.9019C8.9555 11.9019 8.91968 11.9377 8.91968 11.9819C8.91968 12.0261 8.9555 12.0619 8.99968 12.0619Z" fill="white"/>
<path d="M8.78105 12.2859C8.82523 12.2859 8.86105 12.2501 8.86105 12.2059C8.86105 12.1617 8.82523 12.1259 8.78105 12.1259C8.73687 12.1259 8.70105 12.1617 8.70105 12.2059C8.70105 12.2501 8.73687 12.2859 8.78105 12.2859Z" fill="white"/>
<path d="M9.22368 12.2859C9.26786 12.2859 9.30368 12.2501 9.30368 12.2059C9.30368 12.1617 9.26786 12.1259 9.22368 12.1259C9.17949 12.1259 9.14368 12.1617 9.14368 12.2059C9.14368 12.2501 9.17949 12.2859 9.22368 12.2859Z" fill="white"/>
<path d="M10.8131 12.1259C10.8122 12.2385 10.8541 12.3472 10.9305 12.4299C10.9661 12.4698 11.0096 12.5017 11.0583 12.5238C11.107 12.5458 11.1597 12.5574 11.2131 12.5579C11.3251 12.5579 11.4265 12.5046 11.4958 12.4299C11.5721 12.3472 11.6141 12.2385 11.6131 12.1259V11.5499H10.8131V12.1259Z" fill="#003399"/>
<path d="M10.9998 11.8486C11.044 11.8486 11.0798 11.8128 11.0798 11.7686C11.0798 11.7244 11.044 11.6886 10.9998 11.6886C10.9556 11.6886 10.9198 11.7244 10.9198 11.7686C10.9198 11.8128 10.9556 11.8486 10.9998 11.8486Z" fill="white"/>
<path d="M11.4424 11.8486C11.4866 11.8486 11.5224 11.8128 11.5224 11.7686C11.5224 11.7244 11.4866 11.6886 11.4424 11.6886C11.3982 11.6886 11.3624 11.7244 11.3624 11.7686C11.3624 11.8128 11.3982 11.8486 11.4424 11.8486Z" fill="white"/>
<path d="M11.2184 12.0619C11.2626 12.0619 11.2984 12.0261 11.2984 11.9819C11.2984 11.9377 11.2626 11.9019 11.2184 11.9019C11.1742 11.9019 11.1384 11.9377 11.1384 11.9819C11.1384 12.0261 11.1742 12.0619 11.2184 12.0619Z" fill="white"/>
<path d="M10.9998 12.2859C11.044 12.2859 11.0798 12.2501 11.0798 12.2059C11.0798 12.1617 11.044 12.1259 10.9998 12.1259C10.9556 12.1259 10.9198 12.1617 10.9198 12.2059C10.9198 12.2501 10.9556 12.2859 10.9998 12.2859Z" fill="white"/>
<path d="M11.4424 12.2859C11.4866 12.2859 11.5224 12.2501 11.5224 12.2059C11.5224 12.1617 11.4866 12.1259 11.4424 12.1259C11.3982 12.1259 11.3624 12.1617 11.3624 12.2059C11.3624 12.2501 11.3982 12.2859 11.4424 12.2859Z" fill="white"/>
<path d="M9.70375 13.5019C9.70279 13.6145 9.74474 13.7232 9.82109 13.8059C9.8567 13.8458 9.90024 13.8777 9.94891 13.8998C9.99759 13.9218 10.0503 13.9334 10.1038 13.9339C10.2158 13.9339 10.3171 13.8806 10.3864 13.8059C10.4628 13.7232 10.5047 13.6145 10.5038 13.5019V12.9259H9.70375V13.5019Z" fill="#003399"/>
<path d="M9.89042 13.2246C9.93461 13.2246 9.97043 13.1888 9.97043 13.1446C9.97043 13.1004 9.93461 13.0646 9.89042 13.0646C9.84624 13.0646 9.81042 13.1004 9.81042 13.1446C9.81042 13.1888 9.84624 13.2246 9.89042 13.2246Z" fill="white"/>
<path d="M10.3331 13.2246C10.3772 13.2246 10.4131 13.1888 10.4131 13.1446C10.4131 13.1004 10.3772 13.0646 10.3331 13.0646C10.2889 13.0646 10.2531 13.1004 10.2531 13.1446C10.2531 13.1888 10.2889 13.2246 10.3331 13.2246Z" fill="white"/>
<path d="M10.1091 13.4379C10.1532 13.4379 10.1891 13.4021 10.1891 13.3579C10.1891 13.3137 10.1532 13.2779 10.1091 13.2779C10.0649 13.2779 10.0291 13.3137 10.0291 13.3579C10.0291 13.4021 10.0649 13.4379 10.1091 13.4379Z" fill="white"/>
<path d="M9.89042 13.6619C9.93461 13.6619 9.97043 13.6261 9.97043 13.5819C9.97043 13.5377 9.93461 13.5019 9.89042 13.5019C9.84624 13.5019 9.81042 13.5377 9.81042 13.5819C9.81042 13.6261 9.84624 13.6619 9.89042 13.6619Z" fill="white"/>
<path d="M10.3331 13.6619C10.3772 13.6619 10.4131 13.6261 10.4131 13.5819C10.4131 13.5377 10.3772 13.5019 10.3331 13.5019C10.2889 13.5019 10.2531 13.5377 10.2531 13.5819C10.2531 13.6261 10.2889 13.6619 10.3331 13.6619Z" fill="white"/>
</g>
<defs>
<clipPath id="clip0_1_5393">
<rect width="24" height="24" fill="white" transform="translate(0.5)"/>
</clipPath>
</defs>
</svg>
