<svg width="25" height="24" viewBox="0 0 25 24" fill="none" xmlns="http://www.w3.org/2000/svg">
<g clip-path="url(#clip0_1_4691)">
<mask id="mask0_1_4691" style="mask-type:luminance" maskUnits="userSpaceOnUse" x="-1" y="0" width="26" height="24">
<path d="M-0.00152588 0H24.997V23.9986H-0.00152588V0Z" fill="white"/>
</mask>
<g mask="url(#mask0_1_4691)">
<path fill-rule="evenodd" clip-rule="evenodd" d="M-3.02734 0H46.9748V23.9986H-3.02734V0Z" fill="white"/>
<path fill-rule="evenodd" clip-rule="evenodd" d="M-3.02734 16.0023H46.9748V23.9986H-3.02734V16.0023Z" fill="#D50000"/>
<path fill-rule="evenodd" clip-rule="evenodd" d="M-3.02734 8.00116H46.9748V16.0023H-3.02734V8.00116Z" fill="#0000BF"/>
<path fill-rule="evenodd" clip-rule="evenodd" d="M11.1484 4.35768C10.9524 7.24832 10.8418 8.83118 10.3843 9.56469C9.88668 10.3513 9.4041 10.9256 7.46876 11.6205C5.53845 10.9256 5.05587 10.3513 4.55821 9.56469C4.10579 8.83118 3.99018 7.24832 3.79413 4.35768L4.08066 4.26599C4.65372 4.09708 5.08603 3.96196 5.40272 3.90405C5.85514 3.80754 6.24221 3.7062 7.46373 3.68207C8.68526 3.70137 9.07233 3.81236 9.52474 3.90405C9.84646 3.96679 10.2939 4.09708 10.8619 4.26599L11.1484 4.35768Z" fill="#D50000"/>
<path fill-rule="evenodd" clip-rule="evenodd" d="M10.8669 4.26117C10.6809 7.14698 10.5301 8.46925 10.2838 9.10142C9.81627 10.1921 9.0723 10.7904 7.46873 11.3551C5.87019 10.7856 5.12621 10.1921 4.65369 9.10142C4.4124 8.46925 4.25657 7.15181 4.08063 4.26117C4.64364 4.09226 5.086 3.96197 5.40269 3.89923C5.85511 3.80754 6.24218 3.69655 7.4637 3.67725C8.68523 3.69655 9.07732 3.80754 9.52974 3.89923C9.85146 3.96197 10.2988 4.09226 10.8669 4.26117Z" fill="#0000BF"/>
<path fill-rule="evenodd" clip-rule="evenodd" d="M7.46872 5.14429L7.54412 5.32284L7.88092 5.36627L7.66476 5.49174L7.87589 5.62687L7.56925 5.67512L7.47374 5.83437L7.37321 5.6703L7.07159 5.63169L7.27267 5.49174L7.07159 5.36627L7.39331 5.31802L7.46872 5.14429Z" fill="#FFDF00"/>
<path fill-rule="evenodd" clip-rule="evenodd" d="M10.1682 8.42099L9.98218 8.27622L9.84645 8.06388L9.58505 7.8419L9.4443 7.61991L9.18291 7.3931L9.05221 7.17112L8.91146 7.06012L8.81595 6.97808L8.57968 7.17594L8.44898 7.39793L8.2831 7.53787L8.10716 7.40275L7.97143 7.17594L7.46875 6.32178L6.96606 7.17594L6.83536 7.40275L6.6544 7.53787L6.49354 7.3931L6.36284 7.17594L6.12658 6.97808L6.03107 7.06012L5.89031 7.17112L5.75962 7.3931L5.49822 7.61991L5.35747 7.8419L5.09105 8.06388L4.96035 8.27622L4.77435 8.42099C4.88166 9.0647 5.19839 9.65931 5.67919 10.1197C6.00091 10.414 6.65942 10.8146 7.46372 11.08C8.12425 10.8792 8.73498 10.5507 9.25831 10.1148C9.74001 9.65642 10.0585 9.06357 10.1682 8.42099Z" fill="white"/>
<path fill-rule="evenodd" clip-rule="evenodd" d="M8.27305 3.93302L8.34845 4.10675L8.68525 4.155L8.4691 4.27565L8.68022 4.4156L8.37359 4.46385L8.27808 4.6231L8.17754 4.45903L7.88095 4.42042L8.08203 4.27565L7.87593 4.155L8.19765 4.10675L8.27305 3.93302ZM6.66446 3.93302L6.73986 4.10192L7.07666 4.15018L6.8605 4.27565L7.07163 4.41077L6.76499 4.45903L6.66948 4.61828L6.56392 4.4542L6.27236 4.4156L6.47344 4.27565L6.26733 4.15018L6.58905 4.10192L6.66446 3.92819V3.93302Z" fill="#FFDF00"/>
<path fill-rule="evenodd" clip-rule="evenodd" d="M9.75094 9.51644H9.38901L9.05221 9.49231L8.64504 9.29928L8.18257 9.3041L7.78544 9.49231L7.47378 9.51644L7.15709 9.49231L6.75997 9.3041H6.30252L5.89535 9.49714L5.55855 9.51644H5.18656L5.01062 9.22689L5.01565 9.21724L5.56357 9.3041L5.89535 9.27998L6.30252 9.08694H6.76499L7.16714 9.27998L7.47881 9.3041L7.79047 9.27515L8.19262 9.09177H8.64504L9.05724 9.27998L9.39404 9.3041L9.92186 9.21241L9.93191 9.22689L9.75094 9.51644ZM5.52839 9.96524L5.89032 9.94111L6.2975 9.74808H6.75494L7.15709 9.93628L7.46875 9.96524L7.78042 9.93628L8.18257 9.74808H8.64001L9.04719 9.94111L9.41415 9.96524L9.65041 9.68534L9.64035 9.67569L9.38901 9.74808L9.05221 9.72395L8.64504 9.53092H8.18759L7.78544 9.72395L7.47378 9.74808L7.16211 9.72395L6.75997 9.53092H6.30252L5.89535 9.72395L5.55855 9.74808L5.30721 9.69017V9.69982L5.52839 9.96524Z" fill="#0000BF"/>
</g>
</g>
<defs>
<clipPath id="clip0_1_4691">
<rect width="25" height="24" fill="white"/>
</clipPath>
</defs>
</svg>
