<svg width="25" height="24" viewBox="0 0 25 24" fill="none" xmlns="http://www.w3.org/2000/svg">
<g clip-path="url(#clip0_1_5533)">
<path d="M0.5 0H24.5V24H0.5V0Z" fill="#EE1C25"/>
<path d="M0.5 0H24.5V15.9984H0.5V0Z" fill="#0B4EA2"/>
<path d="M0.5 0H24.5V8.00156H0.5V0Z" fill="white"/>
<path d="M10.025 18.5391C7.87346 17.5078 4.79846 15.4453 4.79846 11.3766C4.79846 7.30781 4.99065 5.46094 4.99065 5.46094H15.0594C15.0594 5.46094 15.2563 7.30781 15.2563 11.3766C15.2563 15.4453 12.1719 17.5031 10.025 18.5391Z" fill="white"/>
<path d="M10.025 18C8.05161 17.0484 5.22974 15.1641 5.22974 11.4281C5.22974 7.69219 5.40786 6 5.40786 6H14.6422C14.6422 6 14.8204 7.69688 14.8204 11.4281C14.8204 15.1594 11.9985 17.0531 10.025 18Z" fill="#EE1C25"/>
<path d="M10.4469 10.4531C10.9813 10.4625 12.0266 10.4813 12.9547 10.1719C12.9547 10.1719 12.9266 10.5 12.9266 10.8891C12.9266 11.2781 12.9547 11.6063 12.9547 11.6063C12.1387 11.3815 11.2924 11.2865 10.4469 11.325V13.3875H9.60315V11.325C8.75763 11.2865 7.91133 11.3815 7.09534 11.6063C7.09534 11.6063 7.12346 11.2781 7.12346 10.8891C7.12346 10.5 7.09534 10.1719 7.09534 10.1719C8.02815 10.4813 9.06877 10.4625 9.60315 10.4531V9.15469C8.93086 9.13821 8.26058 9.23487 7.62034 9.44063C7.62034 9.44063 7.64377 9.11251 7.64377 8.72344C7.64377 8.33438 7.62034 8.00157 7.62034 8.00157C8.41721 8.26876 9.11565 8.29219 9.59846 8.28282C9.57502 7.46719 9.33596 6.43594 9.33596 6.43594C9.33596 6.43594 9.82815 6.47344 10.025 6.47344C10.2219 6.47344 10.7141 6.43594 10.7141 6.43594C10.7141 6.43594 10.475 7.46719 10.4469 8.28751C11.119 8.30731 11.7896 8.21219 12.4297 8.00626C12.4297 8.00626 12.4063 8.33438 12.4063 8.72344C12.4063 9.11251 12.4297 9.44063 12.4297 9.44063C11.6328 9.17344 10.9344 9.15469 10.4469 9.15938V10.4531Z" fill="white"/>
<path d="M10.025 13.1625C9.03127 13.1625 8.4969 14.5406 8.4969 14.5406C8.4969 14.5406 8.20159 13.8844 7.39065 13.8844C6.84221 13.8844 6.43909 14.3766 6.18127 14.8313C7.17971 16.4156 8.77346 17.3953 10.025 18C11.2766 17.3953 12.8703 16.4156 13.8688 14.8266C13.611 14.3766 13.2078 13.8891 12.6594 13.8891C11.8485 13.8891 11.5531 14.5453 11.5531 14.5453C11.5531 14.5453 11.0188 13.1625 10.025 13.1625Z" fill="#0B4EA2"/>
</g>
<defs>
<clipPath id="clip0_1_5533">
<rect width="24" height="24" fill="white" transform="translate(0.5)"/>
</clipPath>
</defs>
</svg>
