<svg width="23" height="24" viewBox="0 0 23 24" fill="none" xmlns="http://www.w3.org/2000/svg">
<g clip-path="url(#clip0_1_4185)">
<path d="M0 0H22.5V24H0V0Z" fill="#012169"/>
<path d="M22.5 0V3L14.1504 12L22.5 20.7656V24H19.5557L11.1621 15.1875L2.98828 24H0V20.8125L8.17383 12.0469L0 3.46875V0H2.72461L11.1621 8.8125L19.3359 0H22.5Z" fill="white"/>
<path d="M8.08594 15.1875L8.56934 16.7812L1.8457 24H0V23.8594L8.08594 15.1875ZM13.5352 14.625L15.9082 15L22.5 21.8906V24L13.5352 14.625ZM22.5 0L14.0625 9.1875L13.8867 7.125L20.4785 0H22.5ZM0 0.046875L8.48145 8.90625L5.88867 8.53125L0 2.29688V0.046875Z" fill="#C8102E"/>
<path d="M7.73438 0V24H14.7656V0H7.73438ZM0 8.25V15.75H22.5V8.25H0Z" fill="white"/>
<path d="M0 9.75V14.25H22.5V9.75H0ZM9.14062 0V24H13.3594V0H9.14062Z" fill="#C8102E"/>
</g>
<defs>
<clipPath id="clip0_1_4185">
<rect width="22.5" height="24" fill="white"/>
</clipPath>
</defs>
</svg>
