<svg width="320" height="82" viewBox="0 0 320 82" fill="none" xmlns="http://www.w3.org/2000/svg">
<g clip-path="url(#clip0_0_169)">
<mask id="mask0_0_169" style="mask-type:luminance" maskUnits="userSpaceOnUse" x="0" y="0" width="320" height="82">
<path d="M319.961 0H0V81.59H319.961V0Z" fill="white"/>
</mask>
<g mask="url(#mask0_0_169)">
<mask id="mask1_0_169" style="mask-type:luminance" maskUnits="userSpaceOnUse" x="0" y="7" width="335" height="68">
<path d="M334.359 7.99902H0V74.8708H334.359V7.99902Z" fill="white"/>
</mask>
<g mask="url(#mask1_0_169)">
<path d="M58.5899 20.8818C60.1437 22.9178 61.459 25.1299 62.5093 27.4734L32.7155 49.7345L20.2639 41.8232V32.3052L32.7155 40.2167L58.5899 20.8818Z" fill="white"/>
<path d="M7.55631 41.1526C7.55631 40.7254 7.56658 40.3011 7.58713 39.8793L0.041097 39.5046C0.0154128 40.0512 9.11904e-06 40.6032 9.11904e-06 41.1602C-0.00320151 45.5127 0.841417 49.8227 2.48544 53.8433C4.12945 57.8641 6.54048 61.5163 9.58022 64.5902L14.9328 59.1675C12.5929 56.8054 10.7367 53.9979 9.47076 50.9061C8.20485 47.8145 7.55424 44.4997 7.55631 41.1526Z" fill="white"/>
<path d="M32.708 15.656C33.1292 15.656 33.5477 15.6716 33.9638 15.6924L34.3414 8.04122C33.8005 8.01518 33.2559 8.00217 32.708 8.00217C28.4119 7.99686 24.1574 8.85171 20.1882 10.5177C16.2191 12.1836 12.6138 14.6279 9.57929 17.71L14.9319 23.1354C17.2624 20.7629 20.0327 18.8807 23.0834 17.5972C26.1341 16.3135 29.4049 15.6539 32.708 15.656Z" fill="white"/>
<path d="M32.7088 66.6445C32.2876 66.6445 31.8689 66.6445 31.4504 66.6106L31.0728 74.2592C31.6155 74.2869 32.1609 74.301 32.7088 74.301C37.003 74.3055 41.2556 73.45 45.2226 71.7835C49.1895 70.1172 52.7926 67.6725 55.8247 64.5905L50.4825 59.1678C48.1514 61.539 45.3815 63.4201 42.3315 64.7031C39.2813 65.9863 36.0111 66.6461 32.7088 66.6445Z" fill="white"/>
<path d="M46.8864 20.1046L53.2458 15.3535C47.4332 10.5828 40.1776 7.98577 32.6984 7.99907V15.6555C37.7631 15.6491 42.7101 17.2005 46.8864 20.1046Z" fill="white"/>
<path d="M65.4163 41.1521C65.4203 39.1603 65.2485 37.1721 64.9024 35.2114L57.8625 40.4701C57.8625 40.6966 57.8625 40.9231 57.8625 41.1521C57.8644 44.7142 57.1276 48.237 55.7004 51.4919C54.2729 54.7471 52.1866 57.6617 49.5768 60.047L54.6546 65.7355C58.0476 62.6307 60.7589 58.8379 62.6128 54.6031C64.467 50.3681 65.4219 45.7853 65.4163 41.1521Z" fill="white"/>
<path d="M32.7082 66.6443C29.1935 66.6456 25.7178 65.8986 22.506 64.4519C19.2943 63.0052 16.4181 60.8908 14.0639 58.246L8.45444 63.3901C11.5172 66.8299 15.259 69.5785 19.4371 71.4581C23.6155 73.3376 28.1367 74.3061 32.7082 74.3007V66.6443Z" fill="white"/>
<path d="M15.8421 22.255L10.7669 16.5668C7.37286 19.6709 4.66048 23.4634 2.80564 27.6985C0.950818 31.9335 -0.0050569 36.5163 2.01188e-05 41.15H7.55632C7.55477 37.588 8.29156 34.0653 9.7189 30.8103C11.1463 27.5553 13.2324 24.6407 15.8421 22.255Z" fill="white"/>
<mask id="mask2_0_169" style="mask-type:luminance" maskUnits="userSpaceOnUse" x="82" y="14" width="240" height="31">
<path d="M321.348 14.292H82.6064V44.9452H321.348V14.292Z" fill="white"/>
</mask>
<g mask="url(#mask2_0_169)">
<path d="M156.549 19.484L163.095 14.6513H141.187V43.6913H163.095V38.8586H147.438V31.42H160.793V26.5875H147.438V19.484H156.549Z" fill="white"/>
<path d="M126.448 25.9621H118.842V19.4799H130.98L137.522 14.6326H112.595V43.6726H125.643C132.959 43.6726 137.157 40.3498 137.157 34.5551C137.157 29.0115 133.355 25.9621 126.448 25.9621ZM125.362 38.8383H118.842V30.7917H125.362C129.319 30.7917 131.174 32.1402 131.174 34.8151C131.174 37.49 129.2 38.8383 125.362 38.8383Z" fill="white"/>
<path d="M179.197 14.6451H167.272V43.6849H173.523V35.4584H179.197C186.806 35.4584 191.513 31.4465 191.513 25.0363C191.513 18.626 186.806 14.6451 179.197 14.6451ZM179.066 30.6222H173.523V19.4815H179.066C183.067 19.4815 185.276 21.4609 185.276 25.0539C185.276 28.647 183.067 30.6222 179.066 30.6222Z" fill="white"/>
<path d="M103.215 36.8332C101.6 37.7095 99.7911 38.1632 97.9552 38.1523C92.46 38.1523 88.4736 34.2209 88.4736 28.8075C88.4736 23.3939 92.46 19.4541 97.9552 19.4541C99.9369 19.4203 101.877 20.0225 103.493 21.1726L107.865 17.946L107.57 17.7354C105.019 15.4884 101.612 14.2982 97.7109 14.2982C93.4801 14.2982 89.6439 15.7247 86.9049 18.3197C85.5198 19.6558 84.4245 21.2638 83.687 23.0431C82.9497 24.8224 82.5857 26.7348 82.6185 28.6613C82.5891 30.6073 82.9513 32.5394 83.6833 34.342C84.4154 36.1447 85.5023 37.781 86.8791 39.1534C89.6309 41.8515 93.4588 43.338 97.6594 43.338C102.049 43.338 105.885 41.8042 108.483 39.0117L104.569 36.09L103.215 36.8332Z" fill="white"/>
<path d="M216.298 25.9621H208.696V19.4799H225.033V14.6326H202.444V43.6726H215.476C222.792 43.6726 226.99 40.3498 226.99 34.5551C227.007 29.0115 223.205 25.9621 216.298 25.9621ZM215.214 38.8383H208.696V30.7917H215.214C219.17 30.7917 221.024 32.1402 221.024 34.8151C221.024 37.49 219.068 38.8383 215.214 38.8383Z" fill="white"/>
<path d="M298.051 43.6319H291.715V14.592H298.051V26.7889H301.499L310.813 14.592H317.995L306.948 28.4066L319.775 43.6319H311.368L301.939 32.2108H298.051V43.6319Z" fill="white"/>
<path d="M250.009 38.1145H236.605L234.333 43.7537H227.59L240.163 14.7138H246.904L259.272 43.7537H252.283L250.009 38.1145ZM247.91 32.8528L243.348 21.5742L238.758 32.8528H247.91Z" fill="white"/>
<path d="M267.802 14.7138V26.8404H280.914V14.7138H287.448V43.7537H280.914V32.3109H267.802V43.7537H261.267V14.7138H267.802Z" fill="white"/>
</g>
<path d="M237.448 65.9762V50.5688H241.006V60.9201L247.646 50.5688H250.968V65.9762H247.408V55.6901L240.854 65.9762H237.448Z" fill="white"/>
<path d="M219.271 65.9762V50.5688H222.829V60.9201L229.469 50.5688H232.789V65.9762H229.231V55.6901L222.677 65.9762H219.271Z" fill="white"/>
<path d="M212.403 68.9275V65.9762H201.031V50.5688H204.589V62.8513H209.862V50.5688H213.422V62.8513H215.527V68.9275H212.403Z" fill="white"/>
<path d="M182.939 65.9762V50.5688H186.499V60.9201L193.138 50.5688H196.459V65.9762H192.9V55.6901L186.347 65.9762H182.939Z" fill="white"/>
<path d="M179.6 53.6937H174.913V65.9762H171.355V53.6937H166.645V50.5688H179.6V53.6937Z" fill="white"/>
<path d="M150.507 58.1417C150.507 57.2013 150.681 56.2827 151.028 55.3857C151.375 54.4743 151.882 53.6496 152.547 52.9117C153.213 52.1739 154.023 51.5881 154.978 51.154C155.933 50.7056 157.018 50.4813 158.233 50.4813C159.679 50.4813 160.931 50.7923 161.987 51.4145C163.057 52.0365 163.854 52.8466 164.373 53.8449L161.639 55.7546C161.409 55.2049 161.097 54.7781 160.707 54.4743C160.331 54.1705 159.911 53.9606 159.448 53.8449C159 53.7147 158.566 53.6496 158.146 53.6496C157.466 53.6496 156.873 53.787 156.367 54.0619C155.86 54.3223 155.441 54.6768 155.108 55.1252C154.775 55.5737 154.529 56.0728 154.37 56.6227C154.211 57.1724 154.131 57.722 154.131 58.2719C154.131 58.8795 154.225 59.4654 154.413 60.0296C154.602 60.5939 154.869 61.093 155.216 61.527C155.578 61.961 156.012 62.3082 156.518 62.5686C157.025 62.8145 157.582 62.9376 158.189 62.9376C158.623 62.9376 159.065 62.8653 159.513 62.7205C159.962 62.5758 160.374 62.3516 160.75 62.0478C161.14 61.7295 161.438 61.3171 161.639 60.8108L164.548 62.5251C164.244 63.2775 163.745 63.9213 163.05 64.4566C162.356 64.9919 161.567 65.4041 160.684 65.6935C159.817 65.9684 158.956 66.1058 158.103 66.1058C156.989 66.1058 155.961 65.8815 155.021 65.4331C154.095 64.9701 153.292 64.3625 152.612 63.6103C151.947 62.8435 151.426 61.99 151.05 61.0496C150.688 60.0947 150.507 59.1254 150.507 58.1417Z" fill="white"/>
<path d="M147.966 62.8513V65.9762H137.137V50.5688H147.771V53.6937H140.696V56.6884H146.772V59.5746H140.696V62.8513H147.966Z" fill="white"/>
<path d="M133.526 62.0268C133.526 62.9092 133.287 63.6471 132.81 64.2403C132.347 64.8189 131.717 65.253 130.922 65.5424C130.126 65.8316 129.251 65.9762 128.296 65.9762H120.788V50.5688H129.359C130.083 50.5688 130.705 50.7642 131.226 51.1547C131.761 51.5308 132.166 52.0227 132.441 52.6303C132.73 53.238 132.875 53.8673 132.875 54.5183C132.875 55.2417 132.687 55.9362 132.311 56.6015C131.935 57.2527 131.385 57.7444 130.661 58.0772C131.544 58.3376 132.238 58.8006 132.745 59.4661C133.265 60.1315 133.526 60.9852 133.526 62.0268ZM129.902 61.3107C129.902 60.978 129.837 60.6886 129.707 60.4427C129.576 60.1822 129.403 59.9797 129.186 59.8351C128.983 59.6759 128.737 59.5964 128.448 59.5964H124.347V62.96H128.296C128.6 62.96 128.867 62.8877 129.099 62.7429C129.345 62.5982 129.54 62.4029 129.685 62.157C129.83 61.911 129.902 61.6289 129.902 61.3107ZM124.347 53.6069V56.7969H127.84C128.101 56.7969 128.339 56.739 128.556 56.6233C128.788 56.5076 128.976 56.3339 129.121 56.1026C129.265 55.8565 129.338 55.5527 129.338 55.191C129.338 54.8438 129.272 54.5544 129.142 54.3231C129.027 54.0916 128.867 53.9179 128.665 53.8022C128.462 53.672 128.231 53.6069 127.971 53.6069H124.347Z" fill="white"/>
<path d="M116.315 50.5688V65.9762H112.756V59.6613H106.614V65.9762H103.055V50.5688H106.614V56.5364H112.756V50.5688H116.315Z" fill="white"/>
<path d="M84.9669 65.9762V50.5688H88.5258V60.9201L95.1663 50.5688H98.4865V65.9762H94.9276V55.6901L88.374 65.9762H84.9669Z" fill="white"/>
</g>
</g>
</g>
<defs>
<clipPath id="clip0_0_169">
<rect width="319.961" height="81.59" fill="white"/>
</clipPath>
</defs>
</svg>
