<svg width="100" height="18" viewBox="0 0 100 18" fill="none" xmlns="http://www.w3.org/2000/svg">
<g clip-path="url(#clip0_1_3297)">
<path d="M44.7138 5.50142L46.7976 3.94409H39.8193V13.2738H46.7976V11.7152H41.8126V9.33394H46.0732V7.77661H41.8126V5.50142H44.7138Z" fill="#21A038"/>
<path d="M34.5469 7.57742H32.1295V5.50142H35.9969L38.082 3.94409H30.1362V13.2738H34.2895C36.6165 13.2738 37.9604 12.2041 37.9604 10.3415C37.9604 8.55528 36.7523 7.57742 34.5469 7.57742ZM34.2145 11.7152H32.1295V9.13475H34.2145C35.4834 9.13475 36.0719 9.56288 36.0719 10.4334C36.0719 11.3039 35.4381 11.7152 34.2145 11.7152Z" fill="#21A038"/>
<path d="M52.4469 3.94409H48.6558V13.2738H50.649V10.6313H52.4624C54.8786 10.6313 56.3894 9.34946 56.3894 7.28769C56.3894 5.22591 54.8786 3.94409 52.4469 3.94409ZM52.4016 9.07396H50.6348V5.50142H52.4016C53.686 5.50142 54.3806 6.14297 54.3806 7.28769C54.3806 8.4324 53.686 9.07396 52.4016 9.07396Z" fill="#21A038"/>
<path d="M26.7215 11.2571C26.1938 11.5482 25.6039 11.7008 24.9999 11.7008C23.202 11.7008 21.9033 10.4022 21.9033 8.6159C21.9033 6.82963 23.202 5.531 24.9999 5.531C25.6492 5.51677 26.2843 5.73019 26.812 6.11176L28.2478 5.04336L28.1572 4.95153C27.3268 4.20262 26.208 3.82104 24.9391 3.82104C23.5654 3.82104 22.3108 4.29445 21.4054 5.14943C20.4987 6.03545 19.9851 7.272 20.0149 8.55511C19.9994 9.85245 20.4987 11.1045 21.4054 12.0203C22.3561 12.9218 23.6249 13.4263 24.9249 13.3952C26.3593 13.3952 27.6127 12.8908 28.4586 11.975L27.1755 11.0127L26.7215 11.2571Z" fill="#21A038"/>
<path d="M80.3623 3.95961V13.288H82.3555V9.47105H86.6006V13.288H88.5951V3.95961H86.6006V7.79214H82.3555V3.95961H80.3623ZM76.9333 13.288H79.0326L75.1354 3.95961H73.1111L69.1389 13.288H71.1477L71.9483 11.4099H76.1779L76.9333 13.288ZM72.5524 9.85262L74.0929 6.11193L75.5428 9.85262H72.5524ZM93.0666 9.51761H94.3045L97.3558 13.2738H99.9233L95.845 8.44792L99.4098 3.94409H97.1294L94.1687 7.94476H93.0666V3.94409H91.0721V13.2738H93.0666V9.51761ZM62.5526 7.59294V5.51694H67.764V3.95961H60.5581V13.288H64.7127C67.0383 13.288 68.3835 12.2197 68.3835 10.3571C68.3835 8.5708 67.1754 7.59294 64.9688 7.59294H62.5526ZM62.5526 11.7307V9.15027H64.6377C65.9053 9.15027 66.4951 9.5784 66.4951 10.4489C66.4951 11.3194 65.8755 11.7462 64.6377 11.7462H62.5526V11.7307Z" fill="#21A038"/>
<path d="M13.7763 3.8833C14.1385 4.35671 14.4412 4.87538 14.6973 5.42511L7.71907 10.6313L4.78809 8.7687V6.54007L7.70355 8.38713L13.7763 3.8833Z" fill="#21A038"/>
<path d="M1.81179 8.61609C1.81179 8.50873 1.81179 8.41819 1.82731 8.31083L0.0604434 8.21899C0.0604434 8.34187 0.0449219 8.47898 0.0449219 8.60056C0.0449219 10.7387 0.906366 12.6776 2.29554 14.0823L3.54891 12.8147C2.47663 11.7463 1.81179 10.2652 1.81179 8.61609Z" fill="url(#paint0_linear_1_3297)"/>
<path d="M7.70337 2.66102C7.80943 2.66102 7.89997 2.66102 8.00604 2.67655L8.09658 0.890277C7.97499 0.890277 7.83918 0.874756 7.71889 0.874756C5.60408 0.874756 3.68588 1.74525 2.29541 3.14995L3.54877 4.41754C4.60682 3.33362 6.08654 2.66102 7.70337 2.66102Z" fill="url(#paint1_linear_1_3297)"/>
<path d="M7.70327 14.571C7.59721 14.571 7.50666 14.571 7.4006 14.5555L7.31006 16.3417C7.43164 16.3417 7.56746 16.3572 7.68775 16.3572C9.80256 16.3572 11.7221 15.4867 13.1112 14.082L11.8579 12.8145C10.7998 13.9139 9.33432 14.571 7.70327 14.571Z" fill="url(#paint2_linear_1_3297)"/>
<path d="M11.0265 3.69957L12.5218 2.58461C11.2076 1.51621 9.53127 0.859131 7.70361 0.859131V2.6454C8.94275 2.66092 10.09 3.04249 11.0265 3.69957Z" fill="url(#paint3_linear_1_3297)"/>
<path d="M15.3777 8.61598C15.3777 8.14258 15.3325 7.68469 15.2561 7.22681L13.6096 8.46335C13.6096 8.50863 13.6096 8.57071 13.6096 8.61598C13.6096 10.3725 12.8542 11.9453 11.6616 13.0293L12.8542 14.3577C14.396 12.953 15.3777 10.8912 15.3777 8.61598Z" fill="#21A038"/>
<path d="M7.70351 14.571C5.96639 14.571 4.41036 13.8079 3.33808 12.6011L2.02393 13.8079C3.42862 15.3807 5.45289 16.3573 7.70351 16.3573V14.571Z" fill="url(#paint4_linear_1_3297)"/>
<path d="M3.76103 4.20265L2.56717 2.87427C1.01114 4.29449 0.0449219 6.34074 0.0449219 8.61594H1.81179C1.81179 6.87494 2.56717 5.28786 3.76103 4.20265Z" fill="url(#paint5_linear_1_3297)"/>
</g>
<defs>
<linearGradient id="paint0_linear_1_3297" x1="2.10713" y1="13.8651" x2="0.292482" y2="8.59593" gradientUnits="userSpaceOnUse">
<stop offset="0.1444" stop-color="#F2E913"/>
<stop offset="0.3037" stop-color="#E7E518"/>
<stop offset="0.5823" stop-color="#CADB26"/>
<stop offset="0.891" stop-color="#A3CD39"/>
</linearGradient>
<linearGradient id="paint1_linear_1_3297" x1="2.79938" y1="2.94831" x2="7.38436" y2="1.19313" gradientUnits="userSpaceOnUse">
<stop offset="0.0592" stop-color="#0FA8E0"/>
<stop offset="0.5385" stop-color="#0099F9"/>
<stop offset="0.9234" stop-color="#0291EB"/>
</linearGradient>
<linearGradient id="paint2_linear_1_3297" x1="7.20683" y1="14.838" x2="12.6701" y2="13.5977" gradientUnits="userSpaceOnUse">
<stop offset="0.1226" stop-color="#A3CD39"/>
<stop offset="0.2846" stop-color="#86C339"/>
<stop offset="0.8693" stop-color="#21A038"/>
</linearGradient>
<linearGradient id="paint3_linear_1_3297" x1="7.34056" y1="1.9973" x2="11.884" y2="3.40552" gradientUnits="userSpaceOnUse">
<stop offset="0.0566" stop-color="#0291EB"/>
<stop offset="0.79" stop-color="#0C8ACB"/>
</linearGradient>
<linearGradient id="paint4_linear_1_3297" x1="2.47321" y1="14.0905" x2="7.35446" y2="15.9226" gradientUnits="userSpaceOnUse">
<stop offset="0.1324" stop-color="#F2E913"/>
<stop offset="0.2977" stop-color="#EBE716"/>
<stop offset="0.5306" stop-color="#D9E01F"/>
<stop offset="0.8023" stop-color="#BBD62D"/>
<stop offset="0.9829" stop-color="#A3CD39"/>
</linearGradient>
<linearGradient id="paint5_linear_1_3297" x1="1.39917" y1="8.83179" x2="3.3607" y2="3.70598" gradientUnits="userSpaceOnUse">
<stop offset="0.0698" stop-color="#A3CD39"/>
<stop offset="0.2599" stop-color="#81C55F"/>
<stop offset="0.9216" stop-color="#0FA8E0"/>
</linearGradient>
<clipPath id="clip0_1_3297">
<rect width="100" height="16.6667" fill="white" transform="translate(0 0.666748)"/>
</clipPath>
</defs>
</svg>
