<svg width="100" height="31" viewBox="0 0 100 31" fill="none" xmlns="http://www.w3.org/2000/svg">
<g clip-path="url(#clip0_1_2044)">
<path d="M3.689 0.219971H96.31C98.323 0.219971 100 1.92497 100 3.96997V26.47C100 28.516 98.323 30.22 96.311 30.22H3.69C1.677 30.22 0 28.516 0 26.47V3.96997C0 1.92497 1.677 0.219971 3.689 0.219971Z" fill="#9CA3AF"/>
<path d="M3.689 0.219971H96.31C98.323 0.219971 100 1.92497 100 3.96997V26.47C100 28.516 98.323 30.22 96.311 30.22H3.69C1.677 30.22 0 28.516 0 26.47V3.96997C0 1.92497 1.677 0.219971 3.689 0.219971Z" fill="#6B7280"/>
<path d="M18.5451 15.424C18.6141 14.811 18.7501 14.197 19.0911 13.652C19.3698 13.113 19.7951 12.6637 20.3181 12.356C19.9781 11.879 19.5681 11.47 19.0231 11.197C18.5451 10.857 17.9321 10.72 17.3181 10.72C16.0911 10.584 14.8641 11.47 14.2501 11.47C13.5681 11.47 12.6141 10.72 11.5231 10.72C10.8289 10.7884 10.156 10.9973 9.54508 11.334C9.00008 11.674 8.52308 12.22 8.18208 12.765C6.75008 15.288 7.77208 18.97 9.20508 21.015C9.88608 22.038 10.7051 23.129 11.7271 23.061C12.8181 23.061 13.1591 22.447 14.4541 22.447C15.6821 22.447 16.0231 23.061 17.1141 23.061C18.2731 23.061 18.9541 22.038 19.6361 21.083C20.1141 20.333 20.5231 19.583 20.7961 18.765C20.1141 18.493 19.5681 18.015 19.1591 17.402C18.8191 16.856 18.5451 16.174 18.5451 15.424ZM16.5001 9.35597C16.8121 9.00453 17.051 8.59457 17.2032 8.14993C17.3553 7.7053 17.4174 7.23485 17.3861 6.76597C16.4321 6.83397 15.5461 7.31097 14.9321 7.99297C14.6591 8.33297 14.4541 8.74297 14.2501 9.15197C14.1141 9.62897 14.0451 10.038 14.1141 10.515C14.5827 10.5236 15.0477 10.4309 15.4771 10.243C15.8871 10.038 16.2271 9.76497 16.5001 9.35597ZM36.7051 20.606H33.1591L32.3411 23.061H30.8411L34.1811 13.788H35.7501L39.0901 23.061H37.5901L36.7041 20.606H36.7051ZM33.5681 19.379H36.3641L35.0001 15.356H34.9321L33.5681 19.379ZM46.3861 19.719C46.3861 21.833 45.2271 23.129 43.5231 23.129C43.1131 23.197 42.7041 23.061 42.2951 22.856C41.9064 22.6716 41.5934 22.3586 41.4091 21.97H41.3411V25.31H39.9771V16.31H41.3411V17.402C41.5451 17.061 41.8861 16.72 42.2951 16.515C42.6361 16.311 43.0451 16.243 43.5231 16.243C45.2271 16.243 46.3861 17.605 46.3861 19.719ZM44.9551 19.719C44.9551 18.356 44.2051 17.402 43.1141 17.402C42.0911 17.402 41.3411 18.356 41.3411 19.72C41.3411 21.083 42.0911 21.97 43.1141 21.97C44.2041 21.97 44.9541 21.083 44.9541 19.72L44.9551 19.719ZM53.8181 19.719C53.8181 21.833 52.7281 23.129 51.0231 23.129C50.5451 23.197 50.1361 23.061 49.7951 22.856C49.3861 22.652 49.1141 22.379 48.8411 21.97V25.31H47.4771V16.31H48.7731V17.402H48.8411C49.0642 17.042 49.3674 16.7385 49.7271 16.515C50.109 16.3279 50.5299 16.2347 50.9551 16.243C52.7271 16.243 53.8181 17.605 53.8181 19.719ZM52.3861 19.719C52.3861 18.356 51.7051 17.402 50.6141 17.402C49.5231 17.402 48.8411 18.356 48.8411 19.72C48.8411 21.083 49.5231 21.97 50.6141 21.97C51.7041 21.97 52.3861 21.082 52.3861 19.719ZM58.7961 20.469C58.8641 21.425 59.7501 22.039 60.9771 22.039C62.2051 22.039 63.0231 21.425 63.0231 20.606C63.0231 19.856 62.5451 19.447 61.3181 19.106L60.0911 18.833C58.3861 18.424 57.5681 17.606 57.5681 16.311C57.5681 14.743 59.0001 13.651 60.9781 13.651C62.9551 13.651 64.3181 14.743 64.3861 16.311H62.9551C62.8861 15.424 62.0681 14.811 60.9771 14.811C59.8181 14.811 59.0681 15.425 59.0681 16.243C59.0681 16.924 59.5451 17.265 60.7731 17.606L61.7951 17.811C63.7051 18.288 64.5231 19.038 64.5231 20.401C64.5231 22.174 63.0911 23.265 60.9091 23.265C58.8641 23.265 57.4321 22.175 57.3641 20.47H58.7951L58.7961 20.469ZM67.5231 14.675V16.311H68.8181V17.401H67.5231V21.151C67.5231 21.697 67.7951 21.97 68.3411 21.97H68.8181V23.06C68.5451 23.129 68.2731 23.129 68.0001 23.129C66.6361 23.129 66.0901 22.583 66.0901 21.289V17.402H65.1361V16.31H66.0911V14.673H67.5231V14.675ZM69.5681 19.72C69.5681 17.538 70.7951 16.243 72.7731 16.243C74.7501 16.243 75.9771 17.538 75.9771 19.72C75.9771 21.833 74.7501 23.197 72.7731 23.197C70.7951 23.197 69.5681 21.833 69.5681 19.72ZM74.5451 19.72C74.5451 18.22 73.9321 17.333 72.7731 17.333C71.6131 17.333 71.0001 18.22 71.0001 19.72C71.0001 21.152 71.6141 22.038 72.7731 22.038C73.9321 22.038 74.5451 21.152 74.5451 19.72ZM77.1361 16.31H78.5001V17.47C78.5354 17.2876 78.6082 17.1146 78.7139 16.962C78.8196 16.8093 78.9559 16.6802 79.1141 16.583C79.3861 16.311 79.7951 16.243 80.1361 16.243C80.2731 16.243 80.4771 16.243 80.6141 16.311V17.606C80.4091 17.538 80.2041 17.47 80.0001 17.47C79.7951 17.47 79.5901 17.538 79.3861 17.606C79.1821 17.675 79.0461 17.811 78.9091 17.947C78.7731 18.083 78.6361 18.288 78.5691 18.493C78.5001 18.629 78.5001 18.833 78.5001 19.038V23.061H77.1361V16.31ZM87.0231 21.083C86.8181 22.311 85.6591 23.197 84.0911 23.197C82.1141 23.197 80.8861 21.833 80.8861 19.72C80.8861 17.606 82.1141 16.243 84.0231 16.243C85.9321 16.243 87.0911 17.538 87.0911 19.583V20.061H82.3181V20.129C82.3181 20.402 82.3181 20.606 82.3861 20.879L82.7961 21.493C83.0001 21.697 83.2041 21.833 83.4091 21.902C83.6141 22.038 83.8861 22.038 84.1591 22.038C84.5001 22.106 84.8411 22.038 85.1141 21.833C85.3861 21.629 85.5911 21.424 85.7271 21.083H87.0231ZM82.3181 19.038H85.7281C85.7281 18.833 85.7281 18.629 85.5911 18.424C85.5231 18.22 85.4551 18.015 85.2501 17.879C85.1183 17.6858 84.9263 17.5417 84.7041 17.469C84.5001 17.402 84.2951 17.333 84.0231 17.333C83.8181 17.333 83.6131 17.402 83.4091 17.47C83.1873 17.5426 82.9958 17.6864 82.8641 17.879C82.6709 18.0108 82.5268 18.2027 82.4541 18.425C82.3861 18.629 82.3181 18.834 82.3181 19.038ZM33.3641 6.76497C33.6361 6.76497 33.9771 6.76497 34.2501 6.90197C34.5231 7.03797 34.7271 7.17397 34.9321 7.37897C35.1361 7.58397 35.2721 7.85597 35.4091 8.12897C35.4771 8.40197 35.5451 8.67397 35.4771 9.01497C35.4771 10.447 34.7271 11.265 33.3641 11.265H31.7271V6.76497H33.3641ZM32.4771 10.584H33.2951C33.5001 10.652 33.7051 10.584 33.9091 10.515C34.1141 10.447 34.2501 10.311 34.3861 10.175C34.5231 9.96997 34.6591 9.83397 34.7271 9.62897C34.7951 9.42397 34.7951 9.21897 34.7951 9.01497C34.7951 8.81097 34.7951 8.60597 34.7271 8.40197C34.655 8.19731 34.5389 8.01094 34.3871 7.85597C34.2501 7.71997 34.1141 7.58397 33.9091 7.51597C33.7051 7.44697 33.5001 7.37897 33.2951 7.37897H32.4771V10.584ZM36.2271 9.56097C36.2271 9.35597 36.2951 9.08397 36.3641 8.87897C36.4321 8.67397 36.5001 8.46897 36.6361 8.33397C36.8411 8.12897 36.9771 8.06097 37.1821 7.92397C37.3861 7.85597 37.6591 7.78797 37.8641 7.78797C38.0681 7.78797 38.2731 7.85597 38.4771 7.92397C38.6821 8.06097 38.8871 8.12897 39.0231 8.33397C39.1591 8.46997 39.2951 8.67397 39.3631 8.87897C39.4321 9.08397 39.5001 9.35597 39.4321 9.56097C39.5001 9.76497 39.4321 9.96997 39.3641 10.243C39.2951 10.447 39.1591 10.652 39.0231 10.788C38.8861 10.924 38.6821 11.061 38.4771 11.198C38.2731 11.265 38.0681 11.334 37.8641 11.334C37.6591 11.334 37.3861 11.265 37.1821 11.197C36.9771 11.061 36.8411 10.924 36.6361 10.788C36.5001 10.652 36.4321 10.448 36.3641 10.243C36.2951 9.96997 36.2271 9.76497 36.2271 9.56097ZM38.7501 9.56097C38.7501 8.81097 38.4101 8.40097 37.8641 8.40097C37.2501 8.40097 36.9771 8.81097 36.9771 9.56097C36.9771 10.311 37.2501 10.72 37.8641 10.72C38.4091 10.72 38.7501 10.311 38.7501 9.56097ZM43.6601 11.265H42.9771L42.2951 8.74297H42.2271L41.5451 11.265H40.8641L39.9091 7.85597H40.5911L41.2051 10.447H41.2731L41.9541 7.85697H42.5681L43.3181 10.447L43.9321 7.85697H44.6141L43.6601 11.265ZM45.3641 7.85597H46.0451V8.40197H46.1141C46.1821 8.19697 46.3181 8.06097 46.5231 7.92397C46.6591 7.85597 46.8631 7.78797 47.0681 7.78797C47.2731 7.78797 47.4091 7.78797 47.5451 7.85597C47.7501 7.92397 47.8861 8.06097 47.9551 8.12897C48.0911 8.26497 48.1591 8.40197 48.2271 8.53897C48.295 8.71428 48.295 8.90865 48.2271 9.08397V11.265H47.6141V9.21997C47.6141 8.67397 47.3411 8.40197 46.8641 8.40197C46.7271 8.40197 46.6591 8.40197 46.5231 8.46997C46.4541 8.53797 46.3181 8.60597 46.2501 8.67397C46.1821 8.74297 46.1141 8.81097 46.1141 8.94697C46.0451 9.01497 46.0451 9.15197 46.0451 9.28797V11.265H45.3641V7.85597ZM49.3181 6.56097H50.0001V11.265H49.3181V6.56097ZM50.8861 9.56097C50.8861 9.35597 50.8861 9.08397 50.9551 8.87897C51.0911 8.67397 51.1591 8.46897 51.2951 8.33397C51.5001 8.12897 51.6361 8.06097 51.8411 7.92397C52.0451 7.85597 52.2501 7.78797 52.5231 7.78797C52.7271 7.78797 52.9321 7.85597 53.1361 7.92397C53.3411 8.06097 53.5461 8.12897 53.6821 8.33397C53.8181 8.46997 53.9551 8.67397 54.0221 8.87897C54.0911 9.08397 54.0911 9.35597 54.0911 9.56097C54.0911 9.76497 54.0911 9.96997 54.0231 10.243C53.9541 10.447 53.8181 10.652 53.6821 10.788C53.5451 10.924 53.3411 11.061 53.1361 11.198C52.9321 11.265 52.7271 11.334 52.5231 11.334C52.2501 11.334 52.0451 11.265 51.8411 11.197C51.6361 11.061 51.5001 10.924 51.2951 10.788C51.1591 10.652 51.0911 10.448 50.9551 10.243C50.8861 9.96997 50.8861 9.76497 50.8861 9.56097ZM53.4091 9.56097C53.4091 8.81097 53.0691 8.40097 52.5231 8.40097C51.9091 8.40097 51.5681 8.81097 51.5681 9.56097C51.5681 10.311 51.9091 10.72 52.5231 10.72C53.0681 10.72 53.4091 10.311 53.4091 9.56097ZM54.7731 10.311C54.7731 9.69697 55.2501 9.35597 56.0681 9.28797L56.9551 9.21997V8.94697C56.9551 8.60697 56.7501 8.40197 56.2731 8.40197C55.9321 8.40197 55.6591 8.53797 55.5911 8.74197H54.9091C54.9771 8.19697 55.5231 7.78797 56.3411 7.78797C57.1591 7.78797 57.6361 8.19797 57.6361 8.94797V11.265H57.0231V10.788H56.9541C56.8101 10.9412 56.6502 11.0786 56.4771 11.198C56.3411 11.265 56.1371 11.334 55.9321 11.265C55.7951 11.334 55.6591 11.265 55.5221 11.265L55.1141 11.061C55.0451 10.925 54.9771 10.856 54.9091 10.72C54.8411 10.584 54.7731 10.448 54.7731 10.311ZM56.9541 9.96997V9.69697L56.1361 9.76497C55.6591 9.83397 55.4551 9.96997 55.4551 10.243C55.4551 10.583 55.7271 10.72 56.0681 10.72H56.4091C56.5451 10.652 56.6141 10.652 56.6821 10.584C56.7501 10.515 56.8181 10.379 56.8861 10.311C56.9551 10.243 56.9551 10.106 56.9551 9.96997H56.9541ZM58.5231 9.55997C58.5231 8.46997 59.0681 7.78797 59.8861 7.78797C60.0911 7.78797 60.3641 7.85597 60.5001 7.92397C60.7051 8.06097 60.8401 8.19697 60.9771 8.40197V6.55997H61.6591V11.264H61.0451V10.72H60.9771C60.8411 10.924 60.7051 11.06 60.5001 11.129C60.3641 11.265 60.1601 11.333 59.8861 11.265C59.0681 11.265 58.5231 10.651 58.5231 9.55997ZM59.2041 9.55997C59.2041 10.243 59.5451 10.72 60.0911 10.72C60.6361 10.72 60.9771 10.243 60.9771 9.55997C60.9771 8.87897 60.6371 8.40197 60.0911 8.40197C59.5451 8.40197 59.2051 8.81097 59.2051 9.56097L59.2041 9.55997ZM64.4541 9.55997C64.3861 9.35597 64.4541 9.08397 64.5231 8.87897C64.5911 8.67397 64.6591 8.46897 64.8631 8.33397C65.0001 8.12897 65.1361 8.06097 65.3411 7.92397C65.5451 7.85597 65.8181 7.78797 66.0231 7.78797C66.2271 7.78797 66.4321 7.85597 66.6361 7.92397C66.8411 8.06097 67.0461 8.12897 67.1821 8.33397C67.3181 8.46997 67.4541 8.67397 67.5221 8.87897C67.5911 9.08397 67.6591 9.35597 67.5911 9.56097C67.6591 9.76497 67.5911 9.96997 67.5231 10.243C67.4541 10.447 67.3181 10.652 67.1821 10.788C67.0451 10.924 66.8411 11.061 66.6361 11.198C66.4321 11.265 66.2271 11.334 66.0231 11.334C65.8181 11.334 65.5451 11.265 65.3411 11.197C65.168 11.0779 65.0081 10.9408 64.8641 10.788C64.6591 10.652 64.5911 10.448 64.5231 10.243C64.4541 9.96997 64.3861 9.76397 64.4541 9.55997ZM66.9091 9.55997C66.9091 8.80997 66.5691 8.40197 66.0231 8.40197C65.4091 8.40197 65.1361 8.81097 65.1361 9.56097C65.1361 10.311 65.4091 10.72 66.0231 10.72C66.5681 10.72 66.9091 10.31 66.9091 9.55997ZM68.4771 7.85597H69.1591V8.40197H69.2271C69.2951 8.19697 69.4321 8.06097 69.5681 7.92397C69.7731 7.85597 69.9781 7.78797 70.1821 7.78797C70.3861 7.78797 70.5221 7.78797 70.6591 7.85597C70.8641 7.92397 71.0001 8.06097 71.0691 8.12897C71.2041 8.26497 71.2731 8.40197 71.3411 8.53897C71.4091 8.71426 71.4091 8.90867 71.3411 9.08397V11.265H70.7271V9.21997C70.7271 8.67397 70.4541 8.40197 69.9771 8.40197C69.8411 8.40197 69.7731 8.40197 69.6371 8.46997C69.5681 8.53797 69.4321 8.60597 69.3641 8.67397C69.2951 8.74297 69.2271 8.81097 69.2271 8.94697C69.1591 9.01497 69.1591 9.15197 69.1591 9.28797V11.265H68.4771V7.85597ZM75.1591 7.03797V7.85597H75.8411V8.46997H75.1591V10.174C75.1591 10.515 75.2951 10.72 75.6361 10.72C75.7051 10.72 75.7731 10.652 75.8411 10.652V11.197C75.7731 11.265 75.6361 11.265 75.5001 11.265C74.7501 11.265 74.4771 10.993 74.4771 10.379V8.46897H73.9321V7.85597H74.4771V7.03797H75.1591ZM76.7951 6.56097H77.4091V8.40097H77.4771C77.6141 8.19697 77.7501 8.06097 77.8871 7.92397C78.0911 7.85597 78.2951 7.78797 78.5001 7.78797C78.7041 7.78797 78.8401 7.85597 78.9771 7.85597C79.1821 7.92397 79.3181 8.06097 79.3871 8.12897C79.5231 8.26497 79.5911 8.40197 79.6591 8.60597C79.6591 8.74297 79.7271 8.87897 79.6591 9.08397V11.265H79.0451V9.21997C79.0451 8.67397 78.7731 8.40197 78.2951 8.40197C78.1591 8.40197 78.0911 8.40197 77.9551 8.46997C77.8181 8.46997 77.7501 8.53797 77.6821 8.67397C77.6141 8.74297 77.5451 8.81097 77.4771 8.94697C77.4771 9.01497 77.4091 9.15197 77.4771 9.28797V11.265H76.7951V6.56097ZM83.5451 10.311C83.4771 10.651 83.2731 10.925 83.0001 11.061C82.7271 11.265 82.4541 11.334 82.1141 11.334C81.9091 11.334 81.6361 11.265 81.4321 11.197C81.2271 11.129 81.0911 10.993 80.9541 10.788C80.7501 10.652 80.6821 10.448 80.6141 10.243C80.5451 10.038 80.5451 9.76497 80.5451 9.56097C80.5451 9.35597 80.5451 9.15097 80.6141 8.87897C80.6821 8.67397 80.7501 8.46897 80.9541 8.33397C81.0911 8.12897 81.2271 8.06097 81.4321 7.92397C81.6361 7.85597 81.9091 7.78797 82.1141 7.78797C83.0681 7.78797 83.6141 8.46997 83.6141 9.49297V9.76497H81.2271C81.2271 9.90197 81.2271 10.038 81.2951 10.106C81.2977 10.2325 81.3464 10.3538 81.4321 10.447C81.5681 10.515 81.6361 10.652 81.7721 10.652C81.9091 10.72 81.9771 10.72 82.1141 10.72C82.3181 10.788 82.4541 10.72 82.5911 10.652C82.7359 10.5748 82.8544 10.4561 82.9311 10.311H83.5451ZM81.2271 9.21997H82.9321C82.9321 9.15197 82.9321 9.01497 82.8641 8.87897C82.8469 8.77625 82.7992 8.68109 82.7271 8.60597C82.6591 8.53797 82.5231 8.46997 82.4541 8.40197C82.3181 8.40197 82.1821 8.33397 82.1141 8.40197C81.9771 8.33397 81.8411 8.40197 81.7731 8.40197C81.6361 8.46997 81.5681 8.53797 81.5001 8.60597C81.4321 8.67397 81.3641 8.81097 81.2951 8.87897C81.2271 9.01497 81.2271 9.15197 81.2271 9.21897V9.21997Z" fill="white"/>
</g>
<defs>
<clipPath id="clip0_1_2044">
<rect width="100" height="30" fill="white" transform="translate(0 0.219971)"/>
</clipPath>
</defs>
</svg>
