<svg width="50" height="32" viewBox="0 0 50 32" fill="none" xmlns="http://www.w3.org/2000/svg">
<g clip-path="url(#clip0_1_2073)">
<path d="M46 0.221985H4C1.79086 0.221985 0 2.01285 0 4.22198V26.222C0 28.4311 1.79086 30.222 4 30.222H46C48.2091 30.222 50 28.4311 50 26.222V4.22198C50 2.01285 48.2091 0.221985 46 0.221985Z" fill="#6B7280"/>
<path d="M19 15.555H17V23.555H19V15.555ZM26 15.555H24V23.555H26V15.555ZM33 15.555H31V23.555H33V15.555Z" fill="#86A9AF"/>
<path d="M19.333 13.888V15.555C19.333 15.739 19.184 15.888 19 15.888H17C16.9117 15.888 16.827 15.8529 16.7645 15.7905C16.7021 15.728 16.667 15.6433 16.667 15.555V13.888H19.333ZM26.333 13.888V15.555C26.333 15.739 26.184 15.888 26 15.888H24C23.9117 15.888 23.827 15.8529 23.7645 15.7905C23.7021 15.728 23.667 15.6433 23.667 15.555V13.888H26.333ZM33.333 13.888V15.555C33.333 15.739 33.184 15.888 33 15.888H31C30.9117 15.888 30.827 15.8529 30.7645 15.7905C30.7021 15.728 30.667 15.6433 30.667 15.555V13.888H33.333Z" fill="#C0DADC"/>
<path d="M34 12.555V13.888C34 14.073 33.85 14.222 33.667 14.222H16.333C16.2892 14.222 16.2458 14.2133 16.2053 14.1965C16.1649 14.1798 16.1281 14.1551 16.0972 14.1241C16.0662 14.0931 16.0417 14.0563 16.0251 14.0157C16.0084 13.9752 15.9999 13.9318 16 13.888V12.555H34Z" fill="#86A9AF"/>
<path d="M24.795 5.62195L15.49 12.2119C15.4267 12.2573 15.3791 12.3214 15.3541 12.3952C15.329 12.469 15.3277 12.5488 15.3503 12.6234C15.3729 12.698 15.4183 12.7636 15.4802 12.811C15.542 12.8585 15.6171 12.8854 15.695 12.8879H34.305C34.383 12.8857 34.4582 12.8591 34.5202 12.8117C34.5822 12.7644 34.6277 12.6988 34.6504 12.6242C34.673 12.5496 34.6717 12.4697 34.6465 12.396C34.6213 12.3222 34.5736 12.2581 34.51 12.2129L25.205 5.62195C25.1452 5.57912 25.0735 5.55609 25 5.55609C24.9265 5.55609 24.8548 5.57912 24.795 5.62195ZM16 23.2219H34C34.368 23.2219 34.667 23.5199 34.667 23.8889V24.5549C34.667 24.7389 34.517 24.8889 34.333 24.8889H15.667C15.6231 24.8891 15.5796 24.8805 15.539 24.8638C15.4985 24.8471 15.4616 24.8225 15.4305 24.7914C15.3995 24.7604 15.3749 24.7235 15.3582 24.6829C15.3414 24.6423 15.3329 24.5988 15.333 24.5549V23.8889C15.333 23.5199 15.632 23.2219 16 23.2219Z" fill="#C0DADC"/>
<path d="M26 10.222C26 9.95677 25.8946 9.70241 25.7071 9.51488C25.5196 9.32734 25.2652 9.22198 25 9.22198C24.9115 9.22198 24.8267 9.18685 24.7642 9.1243C24.7016 9.06176 24.6665 8.97693 24.6665 8.88848C24.6665 8.80004 24.7016 8.71521 24.7642 8.65267C24.8267 8.59012 24.9115 8.55499 25 8.55499C25.0758 8.55721 25.1502 8.57558 25.2183 8.60886C25.2864 8.64214 25.3467 8.68957 25.395 8.74798C25.4462 8.81999 25.5239 8.86871 25.611 8.88344C25.6981 8.89816 25.7875 8.87767 25.8595 8.82648C25.9315 8.7753 25.9802 8.6976 25.9949 8.61049C26.0097 8.52338 25.9892 8.43399 25.938 8.36199C25.7849 8.1618 25.5736 8.01401 25.333 7.93898V7.55499C25.333 7.46667 25.2979 7.38197 25.2355 7.31952C25.173 7.25707 25.0883 7.22198 25 7.22198C24.9117 7.22198 24.827 7.25707 24.7645 7.31952C24.7021 7.38197 24.667 7.46667 24.667 7.55499V7.94999C24.4456 8.02893 24.2593 8.18344 24.1407 8.38631C24.0221 8.58918 23.9789 8.82739 24.0187 9.05899C24.0585 9.29059 24.1787 9.50072 24.3582 9.65237C24.5377 9.80402 24.765 9.88745 25 9.88799C25.0438 9.88799 25.0871 9.89661 25.1276 9.91337C25.1681 9.93013 25.2048 9.9547 25.2358 9.98567C25.2668 10.0166 25.2913 10.0534 25.3081 10.0939C25.3249 10.1343 25.3335 10.1777 25.3335 10.2215C25.3335 10.2653 25.3249 10.3086 25.3081 10.3491C25.2913 10.3896 25.2668 10.4263 25.2358 10.4573C25.2048 10.4883 25.1681 10.5128 25.1276 10.5296C25.0871 10.5464 25.0438 10.555 25 10.555C24.9236 10.5527 24.8487 10.534 24.7802 10.5002C24.7117 10.4663 24.6512 10.4182 24.603 10.359C24.5513 10.2872 24.4732 10.239 24.3859 10.2248C24.2986 10.2107 24.2092 10.2318 24.1375 10.2835C24.0657 10.3352 24.0175 10.4133 24.0033 10.5006C23.9892 10.5879 24.0103 10.6772 24.062 10.749C24.215 10.949 24.426 11.096 24.667 11.171V11.555C24.667 11.6433 24.7021 11.728 24.7645 11.7905C24.827 11.8529 24.9117 11.888 25 11.888C25.0883 11.888 25.173 11.8529 25.2355 11.7905C25.2979 11.728 25.333 11.6433 25.333 11.555V11.16C25.5272 11.0914 25.6956 10.9645 25.815 10.7966C25.9343 10.6287 25.999 10.428 26 10.222Z" fill="#63A63D"/>
</g>
<defs>
<clipPath id="clip0_1_2073">
<rect width="50" height="31" fill="white" transform="translate(0 0.219971)"/>
</clipPath>
</defs>
</svg>
