<svg width="143" height="32" viewBox="0 0 143 32" fill="none" xmlns="http://www.w3.org/2000/svg">
<g clip-path="url(#clip0_1_2209)">
<g clip-path="url(#clip1_1_2209)">
<g clip-path="url(#clip2_1_2209)">
<path d="M12.9873 31.0262C12.9873 31.0262 0 27.1699 0 8.24299V0.973633H26.019V8.24299C25.9747 26.505 12.9873 31.0262 12.9873 31.0262Z" fill="#51AF3D"/>
<path d="M20.4783 8.28734H10.0176V14.3156H20.4783V16.1329C20.4783 19.1914 19.6362 21.6292 14.982 21.6736H10.0176V29.6077C11.7463 30.6715 12.9874 31.0262 12.9874 31.0262C12.9874 31.0262 25.9747 26.505 25.9747 8.24301V2.79102C25.9747 5.80512 24.6449 8.24301 20.4783 8.28734Z" fill="#0F5431"/>
<path d="M33.1997 21.6293V8.68628H41.1341V9.66143C41.1341 10.6366 40.3362 11.4344 39.361 11.4344H36.347V14.1383H40.2919V15.0691C40.2919 16.0442 39.494 16.8864 38.4744 16.8864H36.3026V21.6736H33.1997V21.6293Z" fill="black"/>
<path d="M46.1428 14.5372H47.5167C48.0486 14.5372 48.4475 14.4042 48.7135 14.1383C49.0238 13.8723 49.1568 13.4734 49.1568 12.9415C49.1568 12.2323 48.8908 11.7891 48.4032 11.5674C48.1372 11.4344 47.7383 11.3901 47.2066 11.3901H46.1428V14.5372ZM42.9512 21.6293V8.68628H47.4726C48.6248 8.68628 49.4671 8.77493 49.999 8.99655C50.7526 9.30684 51.3288 9.75006 51.7721 10.415C52.2154 11.0798 52.3927 11.8334 52.3927 12.7642C52.3927 13.4734 52.2154 14.1826 51.9051 14.8475C51.5505 15.5124 51.1072 15.9999 50.4866 16.3102V16.3545C50.6196 16.5318 50.7526 16.7535 50.9742 17.1524L53.5006 21.6736H49.9547L47.6496 17.2854H46.1428V21.6736H42.9512V21.6293Z" fill="black"/>
<path d="M54.8745 21.6293V8.68628H62.9859V11.3901H58.0658V13.7393H62.0107V16.4875H58.0658V18.9254H63.2519V21.6293H54.8745Z" fill="black"/>
<path d="M65.291 21.6293V8.68628H73.4024V11.3901H68.438V13.7393H72.4272V16.4875H68.438V18.9254H73.6684V21.6293H65.291Z" fill="black"/>
<path d="M78.8545 18.9254H80.14C81.2482 18.9254 82.1345 18.6151 82.7551 17.9503C83.3757 17.2854 83.686 16.3545 83.686 15.1577C83.686 13.961 83.3757 13.0301 82.7551 12.3653C82.1345 11.7447 81.2482 11.3901 80.1843 11.3901H78.8989V18.9254H78.8545ZM75.7075 21.6293V8.68628H80.3173C82.3561 8.68628 83.9963 9.26249 85.1931 10.415C86.3899 11.5674 87.0105 13.1188 87.0105 15.1577C87.0105 17.1967 86.3899 18.7924 85.1931 19.9449C83.9963 21.0973 82.3561 21.6736 80.3173 21.6736H75.7075V21.6293Z" fill="black"/>
<path d="M91.6203 15.0692C91.6203 16.1773 91.9306 17.1082 92.5955 17.8617C93.2604 18.6152 94.1027 18.9698 95.1219 18.9698C96.1415 18.9698 96.9837 18.6152 97.6486 17.8617C98.3135 17.1082 98.6238 16.2216 98.6238 15.0692C98.6238 14.0054 98.3135 13.1189 97.6486 12.4097C96.9837 11.7005 96.1415 11.3459 95.1219 11.3459C94.1027 11.3459 93.2604 11.7005 92.5955 12.4097C91.9306 13.1189 91.6203 14.0054 91.6203 15.0692ZM88.3403 15.0692C88.3403 13.1632 88.9609 11.6118 90.2462 10.3264C91.5317 9.0853 93.1274 8.42041 95.1219 8.42041C97.1167 8.42041 98.7125 9.04097 99.9977 10.3264C101.283 11.6118 101.904 13.1632 101.904 15.0692C101.904 17.0195 101.283 18.6152 99.9977 19.9007C98.7125 21.1861 97.1167 21.851 95.1219 21.851C93.1274 21.851 91.5317 21.1861 90.2462 19.9007C88.9609 18.6152 88.3403 17.0195 88.3403 15.0692Z" fill="black"/>
<path d="M103.411 21.6293L104.475 8.68628H107.932L109.838 14.1383L110.503 16.2659H110.547C110.769 15.3794 110.99 14.6702 111.212 14.1383L113.118 8.68628H116.575L117.639 21.6293H114.448L114.049 15.7783C114.004 15.468 114.004 15.1578 114.004 14.8031C114.004 14.4486 114.004 14.1383 114.004 13.9166V13.6064H113.96C113.65 14.4929 113.428 15.2464 113.251 15.7783L111.877 19.546H109.173L107.799 15.7783L107.09 13.6064H107.045C107.09 14.4042 107.09 15.1134 107.045 15.7783L106.646 21.6293H103.411Z" fill="black"/>
<path d="M122.648 21.5851C122.559 21.0532 122.515 20.6099 122.515 20.211C122.515 19.4574 122.648 18.7926 122.914 18.172C123.18 17.5515 123.535 17.0196 123.934 16.6206C124.332 16.2217 124.775 15.8228 125.263 15.4682C125.751 15.1136 126.194 14.8033 126.593 14.5373C126.992 14.2714 127.346 14.0054 127.612 13.7395C127.878 13.4292 128.011 13.1633 128.011 12.8973C128.011 12.4984 127.878 12.1881 127.612 11.9665C127.346 11.7448 127.036 11.6562 126.637 11.6562C126.238 11.6562 125.884 11.7892 125.573 12.0551C125.263 12.3211 124.953 12.6314 124.775 13.0303L122.471 11.4789C122.87 10.681 123.49 10.0162 124.244 9.48425C124.997 8.95235 125.928 8.73071 126.992 8.73071C128.144 8.73071 129.164 9.08531 130.05 9.75019C130.937 10.4151 131.336 11.3902 131.336 12.6313C131.336 13.3849 131.158 14.0498 130.804 14.626C130.449 15.2465 130.006 15.7341 129.518 16.1331C128.987 16.532 128.499 16.8866 127.967 17.1969C127.435 17.5072 126.992 17.8174 126.637 18.1277C126.238 18.438 126.061 18.7483 126.017 19.0142H131.513V21.6737H122.648V21.5851Z" fill="#51AF3D"/>
<path d="M132.754 18.4823V16.5763L137.674 8.81934H141.486V15.8671H142.993V18.4379H141.486V21.4964H138.428V18.4379H132.754V18.4823ZM135.901 15.9114H138.383V13.0745L138.472 11.6562H138.428C138.25 12.1881 138.029 12.6313 137.807 12.9859L135.901 15.9114Z" fill="#51AF3D"/>
</g>
</g>
</g>
<defs>
<clipPath id="clip0_1_2209">
<rect width="143" height="32" fill="white"/>
</clipPath>
<clipPath id="clip1_1_2209">
<rect width="143" height="32" fill="white"/>
</clipPath>
<clipPath id="clip2_1_2209">
<rect width="143" height="30.0525" fill="white" transform="translate(0 0.973633)"/>
</clipPath>
</defs>
</svg>
