<svg width="50" height="50" viewBox="0 0 50 50" fill="none" xmlns="http://www.w3.org/2000/svg">
<path fill-rule="evenodd" clip-rule="evenodd" d="M12.2744 16.1349C12.1758 15.9526 12.1536 15.7386 12.2126 15.54C12.2716 15.3413 12.407 15.1741 12.5891 15.0752L20.6152 10.7237C20.7345 10.6591 20.8686 10.6266 21.0042 10.6295C21.1398 10.6325 21.2724 10.6706 21.3888 10.7403L28.589 15.0489L34.5839 9.01768H33.9919C33.7847 9.01768 33.586 8.93537 33.4395 8.78885C33.293 8.64234 33.2106 8.44363 33.2106 8.23643C33.2106 8.02923 33.293 7.83051 33.4395 7.684C33.586 7.53749 33.7847 7.45518 33.9919 7.45518H36.4904C36.6976 7.45518 36.8963 7.53749 37.0429 7.684C37.1894 7.83051 37.2717 8.02923 37.2717 8.23643V10.7336C37.2717 10.9408 37.1894 11.1395 37.0429 11.286C36.8963 11.4325 36.6976 11.5148 36.4904 11.5148C36.2832 11.5148 36.0845 11.4325 35.938 11.286C35.7915 11.1395 35.7092 10.9408 35.7092 10.7336V10.1024L29.2669 16.5829C29.144 16.7067 28.9832 16.7858 28.8101 16.8076C28.637 16.8294 28.4616 16.7926 28.3118 16.7031L20.9681 12.3097L13.3345 16.4493C13.1522 16.5478 12.9383 16.57 12.7397 16.5111C12.5411 16.4522 12.3739 16.317 12.2748 16.1351L12.2744 16.1349ZM41.791 30.5909H40.1554V13.7516C40.1554 13.5444 40.0731 13.3456 39.9265 13.1991C39.78 13.0526 39.5813 12.9703 39.3741 12.9703H34.7032C34.496 12.9703 34.2973 13.0526 34.1508 13.1991C34.0043 13.3456 33.922 13.5444 33.922 13.7516V30.5909H32.1297V21.8741C32.1295 21.667 32.0472 21.4683 31.9007 21.3219C31.7542 21.1754 31.5556 21.093 31.3484 21.0929H26.6779C26.4707 21.0929 26.272 21.1752 26.1255 21.3217C25.979 21.4682 25.8967 21.6669 25.8967 21.8741V30.5909H24.1034V16.6505C24.1034 16.4433 24.0211 16.2446 23.8746 16.0981C23.7281 15.9515 23.5294 15.8692 23.3222 15.8692H18.6513C18.4441 15.8694 18.2455 15.9517 18.099 16.0982C17.9525 16.2447 17.8701 16.4433 17.87 16.6505V30.5909H16.0781V21.002C16.0781 20.7948 15.9958 20.596 15.8493 20.4495C15.7028 20.303 15.5041 20.2207 15.2969 20.2207H10.626C10.4188 20.2207 10.2201 20.303 10.0735 20.4495C9.92704 20.596 9.84473 20.7948 9.84473 21.002V30.5909H8.20898C8.00178 30.5909 7.80307 30.6732 7.65656 30.8197C7.51004 30.9663 7.42773 31.165 7.42773 31.3722C7.42773 31.5794 7.51004 31.7781 7.65656 31.9246C7.80307 32.0711 8.00178 32.1534 8.20898 32.1534H41.791C41.9982 32.1534 42.1969 32.0711 42.3434 31.9246C42.49 31.7781 42.5723 31.5794 42.5723 31.3722C42.5723 31.165 42.49 30.9663 42.3434 30.8197C42.1969 30.6732 41.9982 30.5909 41.791 30.5909ZM48.4375 35.6446V5.54385C48.4361 5.43212 48.3911 5.32536 48.3121 5.24634C48.233 5.16733 48.1263 5.12232 48.0146 5.1209H1.98506C1.87336 5.12229 1.76663 5.16731 1.68767 5.24634C1.60871 5.32537 1.56379 5.43214 1.5625 5.54385V35.6446C1.56384 35.7563 1.60878 35.8629 1.68772 35.9419C1.76666 36.0208 1.87333 36.0657 1.98496 36.0671H48.0145C48.1262 36.0658 48.2329 36.0209 48.312 35.942C48.391 35.863 48.4361 35.7563 48.4375 35.6446ZM26.8719 39.9395H23.128V37.6299H26.8719V39.9395ZM48.0145 3.55859H1.98506C1.45878 3.55932 0.95426 3.76872 0.58214 4.14087C0.210021 4.51303 0.000671738 5.01757 0 5.54385L0 35.6446C0.000749171 36.1709 0.21015 36.6754 0.582295 37.0476C0.95444 37.4197 1.45896 37.6291 1.98525 37.6299H21.5653V39.9395H16.3017C15.3911 39.9405 14.5182 40.3026 13.8743 40.9464C13.2304 41.5902 12.8682 42.4631 12.867 43.3736V46.0274C12.867 46.2346 12.9493 46.4334 13.0958 46.5799C13.2423 46.7264 13.441 46.8087 13.6482 46.8087H36.3512C36.5584 46.8087 36.7571 46.7264 36.9036 46.5799C37.0501 46.4334 37.1324 46.2346 37.1324 46.0274V43.3736C37.1313 42.4631 36.7691 41.5901 36.1252 40.9463C35.4813 40.3025 34.6083 39.9404 33.6978 39.9395H28.4341V37.6299H48.0142C48.5405 37.6293 49.0452 37.4199 49.4175 37.0478C49.7897 36.6756 49.9992 36.171 50 35.6446V5.54385C49.9993 5.01748 49.7899 4.51287 49.4177 4.1407C49.0455 3.76853 48.5408 3.55919 48.0145 3.55859Z" fill="#0022A0"/>
</svg>
