<svg width="50" height="50" viewBox="0 0 50 50" fill="none" xmlns="http://www.w3.org/2000/svg">
<path d="M44 40.5C44 42.709 42.209 44.5 40 44.5H10C7.791 44.5 6 42.709 6 40.5V10C6 7.791 7.791 6 10 6H40C42.209 6 44 7.791 44 10V40.5Z" stroke="#0022A0" stroke-width="2" stroke-miterlimit="10" stroke-linecap="round" stroke-linejoin="round"/>
<path d="M6 15H44" stroke="#0022A0" stroke-width="2" stroke-miterlimit="10" stroke-linecap="round" stroke-linejoin="round"/>
<path d="M11 11H18" stroke="#0022A0" stroke-width="2" stroke-miterlimit="10" stroke-linecap="round" stroke-linejoin="round"/>
<path d="M28.7835 12.0666C29.5567 12.0666 30.1835 11.4398 30.1835 10.6666C30.1835 9.8934 29.5567 9.2666 28.7835 9.2666C28.0103 9.2666 27.3835 9.8934 27.3835 10.6666C27.3835 11.4398 28.0103 12.0666 28.7835 12.0666Z" fill="black" stroke="#0022A0" stroke-width="0.5" stroke-miterlimit="10"/>
<path d="M33.7835 12.0666C34.5567 12.0666 35.1835 11.4398 35.1835 10.6666C35.1835 9.8934 34.5567 9.2666 33.7835 9.2666C33.0103 9.2666 32.3835 9.8934 32.3835 10.6666C32.3835 11.4398 33.0103 12.0666 33.7835 12.0666Z" fill="black" stroke="#0022A0" stroke-width="0.5" stroke-miterlimit="10"/>
<path d="M38.7835 12.0666C39.5567 12.0666 40.1835 11.4398 40.1835 10.6666C40.1835 9.8934 39.5567 9.2666 38.7835 9.2666C38.0103 9.2666 37.3835 9.8934 37.3835 10.6666C37.3835 11.4398 38.0103 12.0666 38.7835 12.0666Z" fill="black" stroke="#0022A0" stroke-width="0.5" stroke-miterlimit="10"/>
<path d="M44 40.5C44 42.709 42.209 44.5 40 44.5H10C7.791 44.5 6 42.709 6 40.5V10C6 7.791 7.791 6 10 6H40C42.209 6 44 7.791 44 10V40.5Z" stroke="#0022A0" stroke-width="2" stroke-miterlimit="10" stroke-linecap="round" stroke-linejoin="round"/>
<path d="M6 15H44H6Z" fill="white"/>
<path d="M6 15H44" stroke="#0022A0" stroke-width="2" stroke-miterlimit="10" stroke-linecap="round" stroke-linejoin="round"/>
<path d="M11 11H18" stroke="#0022A0" stroke-width="2" stroke-miterlimit="10" stroke-linecap="round" stroke-linejoin="round"/>
<path d="M28.7835 12.0666C29.5567 12.0666 30.1835 11.4398 30.1835 10.6666C30.1835 9.8934 29.5567 9.2666 28.7835 9.2666C28.0103 9.2666 27.3835 9.8934 27.3835 10.6666C27.3835 11.4398 28.0103 12.0666 28.7835 12.0666Z" fill="black" stroke="#0022A0" stroke-width="0.5" stroke-miterlimit="10"/>
<path d="M33.7835 12.0666C34.5567 12.0666 35.1835 11.4398 35.1835 10.6666C35.1835 9.8934 34.5567 9.2666 33.7835 9.2666C33.0103 9.2666 32.3835 9.8934 32.3835 10.6666C32.3835 11.4398 33.0103 12.0666 33.7835 12.0666Z" fill="black" stroke="#0022A0" stroke-width="0.5" stroke-miterlimit="10"/>
<path d="M38.7835 12.0666C39.5567 12.0666 40.1835 11.4398 40.1835 10.6666C40.1835 9.8934 39.5567 9.2666 38.7835 9.2666C38.0103 9.2666 37.3835 9.8934 37.3835 10.6666C37.3835 11.4398 38.0103 12.0666 38.7835 12.0666Z" fill="black" stroke="#0022A0" stroke-width="0.5" stroke-miterlimit="10"/>
<path d="M44 40.5C44 42.709 42.209 44.5 40 44.5H10C7.791 44.5 6 42.709 6 40.5V10C6 7.791 7.791 6 10 6H40C42.209 6 44 7.791 44 10V40.5Z" stroke="#0022A0" stroke-width="2" stroke-miterlimit="10" stroke-linecap="round" stroke-linejoin="round"/>
<path d="M6 15H44" stroke="#0022A0" stroke-width="2" stroke-miterlimit="10" stroke-linecap="round" stroke-linejoin="round"/>
<path d="M11 11H18" stroke="#0022A0" stroke-width="2" stroke-miterlimit="10" stroke-linecap="round" stroke-linejoin="round"/>
<path d="M28.7835 12.0666C29.5567 12.0666 30.1835 11.4398 30.1835 10.6666C30.1835 9.8934 29.5567 9.2666 28.7835 9.2666C28.0103 9.2666 27.3835 9.8934 27.3835 10.6666C27.3835 11.4398 28.0103 12.0666 28.7835 12.0666Z" fill="black" stroke="#0022A0" stroke-width="0.5" stroke-miterlimit="10"/>
<path d="M33.7835 12.0666C34.5567 12.0666 35.1835 11.4398 35.1835 10.6666C35.1835 9.8934 34.5567 9.2666 33.7835 9.2666C33.0103 9.2666 32.3835 9.8934 32.3835 10.6666C32.3835 11.4398 33.0103 12.0666 33.7835 12.0666Z" fill="black" stroke="#0022A0" stroke-width="0.5" stroke-miterlimit="10"/>
<path d="M38.7835 12.0666C39.5567 12.0666 40.1835 11.4398 40.1835 10.6666C40.1835 9.8934 39.5567 9.2666 38.7835 9.2666C38.0103 9.2666 37.3835 9.8934 37.3835 10.6666C37.3835 11.4398 38.0103 12.0666 38.7835 12.0666Z" fill="black" stroke="#0022A0" stroke-width="0.5" stroke-miterlimit="10"/>
<path d="M44 40.5C44 42.709 42.209 44.5 40 44.5H10C7.791 44.5 6 42.709 6 40.5V10C6 7.791 7.791 6 10 6H40C42.209 6 44 7.791 44 10V40.5Z" stroke="#0022A0" stroke-width="2" stroke-miterlimit="10" stroke-linecap="round" stroke-linejoin="round"/>
<path d="M6 15H44H6Z" fill="white"/>
<path d="M6 15H44" stroke="#0022A0" stroke-width="2" stroke-miterlimit="10" stroke-linecap="round" stroke-linejoin="round"/>
<path d="M11 11H18" stroke="#0022A0" stroke-width="2" stroke-miterlimit="10" stroke-linecap="round" stroke-linejoin="round"/>
<path d="M28.7835 12.0666C29.5567 12.0666 30.1835 11.4398 30.1835 10.6666C30.1835 9.8934 29.5567 9.2666 28.7835 9.2666C28.0103 9.2666 27.3835 9.8934 27.3835 10.6666C27.3835 11.4398 28.0103 12.0666 28.7835 12.0666Z" fill="#0022A0" stroke="#0022A0" stroke-width="0.5" stroke-miterlimit="10"/>
<path d="M33.7835 12.0666C34.5567 12.0666 35.1835 11.4398 35.1835 10.6666C35.1835 9.8934 34.5567 9.2666 33.7835 9.2666C33.0103 9.2666 32.3835 9.8934 32.3835 10.6666C32.3835 11.4398 33.0103 12.0666 33.7835 12.0666Z" fill="#0022A0" stroke="#0022A0" stroke-width="0.5" stroke-miterlimit="10"/>
<path d="M38.7835 12.0666C39.5567 12.0666 40.1835 11.4398 40.1835 10.6666C40.1835 9.8934 39.5567 9.2666 38.7835 9.2666C38.0103 9.2666 37.3835 9.8934 37.3835 10.6666C37.3835 11.4398 38.0103 12.0666 38.7835 12.0666Z" fill="#0022A0" stroke="#0022A0" stroke-width="0.5" stroke-miterlimit="10"/>
<path d="M11.5 37H32.5" stroke="#0022A0" stroke-width="2" stroke-miterlimit="10" stroke-linecap="round" stroke-linejoin="round"/>
<path d="M38.0335 38.4836C38.8067 38.4836 39.4335 37.8568 39.4335 37.0836C39.4335 36.3104 38.8067 35.6836 38.0335 35.6836C37.2603 35.6836 36.6335 36.3104 36.6335 37.0836C36.6335 37.8568 37.2603 38.4836 38.0335 38.4836Z" fill="#0022A0" stroke="#0022A0" stroke-width="0.5" stroke-miterlimit="10"/>
<path d="M11.5 29.5H32.5" stroke="#0022A0" stroke-width="2" stroke-miterlimit="10" stroke-linecap="round" stroke-linejoin="round"/>
<path d="M38.0335 30.9836C38.8067 30.9836 39.4335 30.3568 39.4335 29.5836C39.4335 28.8104 38.8067 28.1836 38.0335 28.1836C37.2603 28.1836 36.6335 28.8104 36.6335 29.5836C36.6335 30.3568 37.2603 30.9836 38.0335 30.9836Z" fill="#0022A0" stroke="#0022A0" stroke-width="0.5" stroke-miterlimit="10"/>
<path d="M11.5 22H32.5" stroke="#0022A0" stroke-width="2" stroke-miterlimit="10" stroke-linecap="round" stroke-linejoin="round"/>
<path d="M38.0335 23.4836C38.8067 23.4836 39.4335 22.8568 39.4335 22.0836C39.4335 21.3104 38.8067 20.6836 38.0335 20.6836C37.2603 20.6836 36.6335 21.3104 36.6335 22.0836C36.6335 22.8568 37.2603 23.4836 38.0335 23.4836Z" fill="#0022A0" stroke="#0022A0" stroke-width="0.5" stroke-miterlimit="10"/>
</svg>
