<svg width="50" height="50" viewBox="0 0 50 50" fill="none" xmlns="http://www.w3.org/2000/svg">
<g clip-path="url(#clip0_1_1895)">
<path d="M36.6126 29.7786C35.7937 28.9259 34.8059 28.4701 33.7591 28.4701C32.7207 28.4701 31.7245 28.9175 30.8718 29.7702L28.2041 32.4295C27.9846 32.3113 27.7651 32.2015 27.554 32.0918C27.2501 31.9398 26.9631 31.7963 26.7182 31.6444C24.2193 30.0572 21.9483 27.9888 19.7702 25.3126C18.7149 23.9788 18.0058 22.8559 17.4908 21.7162C18.1831 21.0831 18.8247 20.4246 19.4494 19.7914C19.6858 19.555 19.9222 19.3102 20.1586 19.0738C21.9315 17.3009 21.9315 15.0046 20.1586 13.2318L17.8538 10.927C17.5921 10.6653 17.322 10.3952 17.0687 10.125C16.5622 9.60158 16.0303 9.06127 15.4816 8.55473C14.6627 7.74428 13.6834 7.31372 12.6534 7.31372C11.6234 7.31372 10.6272 7.74428 9.78302 8.55473C9.77458 8.56318 9.77458 8.56318 9.76614 8.57162L6.89576 11.4673C5.81515 12.5479 5.19887 13.8649 5.06379 15.393C4.86118 17.8581 5.58721 20.1544 6.1444 21.6571C7.51205 25.3464 9.55508 28.7655 12.6027 32.4295C16.3005 36.8448 20.7495 40.3315 25.8318 42.7882C27.7735 43.7084 30.3653 44.7974 33.261 44.9831C33.4383 44.9916 33.624 45 33.7928 45C35.743 45 37.3808 44.2993 38.664 42.9063C38.6725 42.8895 38.6894 42.881 38.6978 42.8641C39.1368 42.3323 39.6433 41.8511 40.1752 41.3361C40.5382 40.99 40.9097 40.6269 41.2727 40.247C42.1085 39.3775 42.5475 38.3644 42.5475 37.326C42.5475 36.2792 42.1 35.2745 41.2474 34.4303L36.6126 29.7786ZM39.6349 38.6683C39.6265 38.6683 39.6265 38.6768 39.6349 38.6683C39.3057 39.0229 38.968 39.3437 38.6049 39.6983C38.0562 40.2217 37.499 40.7705 36.9756 41.3867C36.1229 42.2985 35.1183 42.7291 33.8013 42.7291C33.6747 42.7291 33.5396 42.7291 33.4129 42.7206C30.9056 42.5602 28.5755 41.5809 26.828 40.7451C22.0496 38.4319 17.8538 35.1479 14.3672 30.9859C11.4884 27.5161 9.56352 24.308 8.28874 20.8636C7.50361 18.7614 7.21657 17.1236 7.34321 15.5787C7.42763 14.591 7.80753 13.7721 8.50824 13.0714L11.3871 10.1925C11.8007 9.80419 12.2397 9.59313 12.6703 9.59313C13.2021 9.59313 13.6327 9.91394 13.9029 10.1841C13.9113 10.1925 13.9197 10.201 13.9282 10.2094C14.4432 10.6906 14.9328 11.1887 15.4478 11.7206C15.7095 11.9907 15.9797 12.2609 16.2498 12.5395L18.5545 14.8442C19.4494 15.7391 19.4494 16.5665 18.5545 17.4613C18.3097 17.7062 18.0733 17.951 17.8285 18.1874C17.1194 18.9134 16.444 19.5888 15.7095 20.2473C15.6926 20.2642 15.6757 20.2726 15.6673 20.2895C14.9413 21.0155 15.0763 21.7247 15.2283 22.2059C15.2367 22.2312 15.2452 22.2565 15.2536 22.2819C15.853 23.7339 16.6972 25.1016 17.9805 26.7309L17.9889 26.7394C20.319 29.6098 22.7757 31.847 25.4857 33.5607C25.8318 33.7802 26.1864 33.9575 26.5241 34.1264C26.828 34.2783 27.115 34.4219 27.3598 34.5738C27.3936 34.5907 27.4274 34.616 27.4611 34.6329C27.7482 34.7764 28.0183 34.844 28.2969 34.844C28.9976 34.844 29.4366 34.405 29.5802 34.2615L32.4674 31.3742C32.7544 31.0872 33.2103 30.741 33.7422 30.741C34.2656 30.741 34.6962 31.0703 34.9579 31.3573C34.9663 31.3658 34.9663 31.3658 34.9748 31.3742L39.6265 36.0259C40.496 36.887 40.496 37.7734 39.6349 38.6683Z" fill="#0022A0"/>
<path d="M26.6168 14.5148C28.8287 14.8863 30.838 15.9331 32.442 17.5371C34.046 19.1412 35.0844 21.1504 35.4643 23.3623C35.5572 23.9195 36.0384 24.3078 36.5872 24.3078C36.6547 24.3078 36.7138 24.2994 36.7813 24.291C37.4061 24.1897 37.8197 23.5987 37.7184 22.974C37.2625 20.2978 35.9962 17.858 34.0629 15.9247C32.1296 13.9914 29.6898 12.725 27.0136 12.2692C26.3889 12.1679 25.8064 12.5815 25.6966 13.1978C25.5869 13.8141 25.9921 14.4135 26.6168 14.5148Z" fill="#0022A0"/>
<path d="M44.9537 22.6448C44.2024 18.238 42.1255 14.2279 38.9344 11.0367C35.7432 7.84554 31.7331 5.76874 27.3262 5.01738C26.71 4.90763 26.1274 5.32974 26.0177 5.94603C25.9164 6.57075 26.3301 7.15327 26.9548 7.26302C30.8889 7.92996 34.4768 9.7957 37.3303 12.6407C40.1838 15.4942 42.0411 19.0822 42.7081 23.0163C42.8009 23.5735 43.2821 23.9618 43.8309 23.9618C43.8984 23.9618 43.9575 23.9534 44.0251 23.945C44.6413 23.8521 45.0635 23.2611 44.9537 22.6448Z" fill="#0022A0"/>
</g>
<defs>
<clipPath id="clip0_1_1895">
<rect width="40" height="40" fill="white" transform="translate(5 5)"/>
</clipPath>
</defs>
</svg>
