<svg width="31" height="30" viewBox="0 0 31 30" fill="none" xmlns="http://www.w3.org/2000/svg">
<g clip-path="url(#clip0_1_980)">
<path d="M17.5045 21.1363C17.1978 21.1649 16.8899 21.0957 16.6249 20.9386C16.4313 20.7398 16.3385 20.4639 16.3727 20.1886C16.3798 19.9594 16.4072 19.7312 16.4545 19.5068C16.5002 19.2493 16.5594 18.9944 16.6317 18.7431L17.4363 15.9749C17.5192 15.7017 17.5741 15.4207 17.5999 15.1363C17.5999 14.8295 17.6408 14.6181 17.6408 14.4954C17.6579 13.9485 17.4244 13.4238 17.0067 13.0704C16.4929 12.6759 15.8531 12.482 15.2067 12.5249C14.7435 12.5319 14.2839 12.6077 13.8431 12.7499C13.3613 12.8999 12.8544 13.0795 12.3226 13.2886L12.0908 14.1886C12.2476 14.134 12.4386 14.0727 12.6567 14.0045C12.8648 13.9428 13.0806 13.9107 13.2976 13.909C13.6021 13.876 13.9085 13.9508 14.1635 14.1204C14.3367 14.327 14.418 14.5955 14.3885 14.8636C14.3878 15.0929 14.3626 15.3214 14.3135 15.5454C14.2658 15.784 14.2044 16.0363 14.1294 16.3022L13.3181 19.084C13.2527 19.3425 13.2004 19.6042 13.1613 19.8681C13.1294 20.094 13.1135 20.3218 13.1135 20.5499C13.1102 21.1005 13.362 21.6216 13.7953 21.9612C14.317 22.3618 14.966 22.5604 15.6226 22.5203C16.0849 22.5298 16.5456 22.463 16.9862 22.3226C17.3726 22.1907 17.8885 22.0021 18.534 21.7567L18.7522 20.8976C18.5773 20.9701 18.3973 21.0293 18.2135 21.0748C17.9811 21.1279 17.7425 21.1485 17.5045 21.1363Z" fill="white"/>
<path d="M18.3567 8.01136C17.9856 7.67058 17.4967 7.48724 16.993 7.50001C16.4897 7.48865 16.0012 7.67181 15.6294 8.01136C14.9478 8.59906 14.8717 9.62802 15.4595 10.3096C15.5118 10.3704 15.5686 10.4272 15.6294 10.4796C16.4059 11.1741 17.5802 11.1741 18.3566 10.4796C19.0382 9.88607 19.1096 8.85248 18.5161 8.17091C18.4668 8.11414 18.4135 8.06082 18.3567 8.01136Z" fill="white"/>
<path d="M15.5 0C7.21572 0 0.5 6.71572 0.5 15C0.5 23.2843 7.21572 30 15.5 30C23.7843 30 30.5 23.2843 30.5 15C30.5 6.71572 23.7843 0 15.5 0ZM15.5 28.6363C7.96883 28.6363 1.86365 22.5312 1.86365 15C1.86365 7.46883 7.96883 1.36365 15.5 1.36365C23.0312 1.36365 29.1363 7.46883 29.1363 15C29.1363 22.5312 23.0312 28.6363 15.5 28.6363Z" fill="white"/>
</g>
<defs>
<clipPath id="clip0_1_980">
<rect width="30" height="30" fill="white" transform="translate(0.5)"/>
</clipPath>
</defs>
</svg>
