<svg width="32" height="42" viewBox="0 0 32 42" fill="none" xmlns="http://www.w3.org/2000/svg">
<path d="M30.3367 22.7092C27.155 14.4291 15.3292 14.3333 19.8142 0.89748C11.2467 4.74998 4.46166 14.6591 11.17 27.75C1.6825 23.7633 5.84166 13.7775 5.84166 13.7775C5.84166 13.7775 0.666664 16.9591 0.666664 26.5808C1.395 37.3142 10.4608 40.6108 13.7192 41.0325C18.3767 41.6267 23.4175 40.7642 27.04 37.4483C31.0267 33.7492 32.4833 27.8458 30.3367 22.7092ZM12.55 32.35C15.31 31.6792 16.7283 29.6858 17.1117 27.9225C17.7442 25.1817 15.2717 22.4983 16.9392 18.1666C17.5717 21.7508 23.2067 23.9933 23.2067 27.9033C23.36 32.7525 18.1083 36.9117 12.55 32.35Z" fill="#0022A0"/>
</svg>
