<svg width="46" height="46" viewBox="0 0 46 46" fill="none" xmlns="http://www.w3.org/2000/svg">
<g clip-path="url(#clip0_1_1981)">
<mask id="mask0_1_1981" style="mask-type:luminance" maskUnits="userSpaceOnUse" x="0" y="0" width="46" height="46">
<path d="M0 0H46V46H0V0Z" fill="white"/>
</mask>
<g mask="url(#mask0_1_1981)">
<path d="M37.3365 23.7092C34.1548 15.4291 22.329 15.3333 26.814 1.89748C18.2465 5.74998 11.4615 15.6591 18.1698 28.75C8.68234 24.7633 12.8415 14.7775 12.8415 14.7775C12.8415 14.7775 7.6665 17.9591 7.6665 27.5808C8.39484 38.3142 17.4607 41.6108 20.719 42.0325C25.3765 42.6267 30.4173 41.7642 34.0398 38.4483C38.0265 34.7492 39.4832 28.8458 37.3365 23.7092ZM19.5498 33.35C22.3098 32.6792 23.7282 30.6858 24.1115 28.9225C24.744 26.1817 22.2715 23.4983 23.939 19.1666C24.5715 22.7508 30.2065 24.9933 30.2065 28.9033C30.3598 33.7525 25.1082 37.9117 19.5498 33.35Z" fill="#0F8DD4"/>
</g>
</g>
<defs>
<clipPath id="clip0_1_1981">
<rect width="46" height="46" fill="white"/>
</clipPath>
</defs>
</svg>
