<svg width="35" height="36" viewBox="0 0 35 36" fill="none" xmlns="http://www.w3.org/2000/svg">
<g clip-path="url(#clip0_1_1429)">
<path d="M29.8727 5.72965C23.0346 -1.10859 11.9664 -1.10961 5.12727 5.72965C-1.11212 11.969 -1.61248 21.6336 3.3831 28.4432C3.65371 28.8121 4.08419 29.03 4.54177 29.03H12.3215C12.775 29.03 13.1427 28.6623 13.1427 28.2088V23.9197H11.6943C10.915 23.9197 10.2512 23.3137 10.2235 22.5348C10.1944 21.7172 10.8486 21.0452 11.6598 21.0452H13.1427V19.5396H11.6942C10.9149 19.5396 10.2512 18.9336 10.2235 18.1547C10.1944 17.3371 10.8486 16.6651 11.6597 16.6651H13.1426V10.8022C13.1426 10.0084 13.7861 9.36493 14.5798 9.36493H19.6251C22.4259 9.36493 24.7499 11.6014 24.777 14.4021C24.8044 17.2301 22.5118 19.5395 19.6899 19.5395H16.017V21.0452H18.9254C19.7048 21.0452 20.3685 21.6512 20.3962 22.43C20.4253 23.2477 19.7711 23.9196 18.9599 23.9196H16.017V28.2087C16.017 28.6623 16.3848 29.03 16.8383 29.03H30.4581C30.9156 29.03 31.3461 28.8121 31.6168 28.4431C36.6127 21.6333 36.1118 11.9687 29.8727 5.72965Z" fill="#0022A0"/>
<path d="M19.69 16.6649C20.9102 16.6649 21.9029 15.6722 21.9029 14.4521C21.9029 13.232 20.9101 12.2393 19.69 12.2393H16.0171V16.665H19.69V16.6649Z" fill="#0022A0"/>
<path d="M33.5604 35.5998H1.43966C0.645907 35.5998 0.00244141 34.9563 0.00244141 34.1626C0.00244141 33.3688 0.645907 32.7253 1.43966 32.7253H33.5604C34.3542 32.7253 34.9977 33.3688 34.9977 34.1626C34.9977 34.9563 34.3542 35.5998 33.5604 35.5998Z" fill="#0022A0"/>
</g>
<defs>
<clipPath id="clip0_1_1429">
<rect width="35" height="35" fill="white" transform="translate(0 0.600098)"/>
</clipPath>
</defs>
</svg>
