<svg width="68" height="69" viewBox="0 0 68 69" fill="none" xmlns="http://www.w3.org/2000/svg">
<g clip-path="url(#clip0_2_7)">
<g opacity="0.75">
<path d="M68 39.615V39.595C68 39.595 63.473 40.085 61.2 37.811L54.117 30.729C52.939 29.552 51.887 29.552 50.713 30.729L48.163 33.279L42.781 27.899C42.194 27.307 41.624 27.009 41.083 27.009C40.543 27.009 39.97 27.307 39.383 27.896L36.833 30.446L29.746 23.363L19.831 33.278L17.283 30.728C16.106 29.552 15.058 29.55 13.88 30.728L6.797 37.812C5 39.616 1.125 39.616 1 39.616H0V38.616H1C1.023 38.616 4.038 38.878 5.952 36.962L13.034 29.882C14.68 28.237 16.49 28.239 18.132 29.882L19.835 31.582L29.75 21.664L36.834 28.747L38.534 27.045C39.357 26.223 40.211 25.805 41.084 25.805C41.954 25.805 42.814 26.223 43.634 27.047L48.166 31.579L49.869 29.879C51.511 28.234 53.319 28.234 54.966 29.879L62.046 36.961C63.962 38.873 66.976 38.616 66.999 38.616L67.999 38.636L68 39.615ZM68 32.417V32.73C68 32.73 63 32.617 61.2 30.73L54.117 23.76C52.939 22.582 51.887 22.584 50.713 23.76L48.163 26.306L42.781 20.926C41.608 19.749 40.557 19.749 39.384 20.926L36.834 23.476L29.751 16.391L19.835 26.307L17.285 23.76C16.11 22.584 15.06 22.582 13.885 23.76L6.8 30.84C4.827 32.816 0.386 32.73 1 32.73L0 32.708V31.75L1 31.73C1.023 31.73 4.04 31.905 5.953 29.992L13.033 22.908C14.678 21.265 16.487 21.265 18.133 22.908L19.836 24.61L29.751 14.693L36.837 21.776L38.537 20.076C40.179 18.432 41.989 18.432 43.637 20.076L48.169 24.608L49.869 22.908C51.514 21.268 53.321 21.265 54.969 22.908L62.049 29.992C63.966 31.905 66.976 31.729 67.001 31.729H68.001V32.416L68 32.417ZM68 25.955H66C65.42 25.625 63.473 26.259 61.2 23.985L54.116 16.9C52.938 15.723 51.886 15.725 50.712 16.9L48.162 19.447L42.78 14.067C41.607 12.887 40.556 12.887 39.383 14.067L36.833 16.613L29.748 9.53104L19.834 19.446L17.284 16.898C16.107 15.718 15.057 15.721 13.882 16.898L6.8 23.984C4.663 26.12 2 25.954 1 25.954L0 25.934V24.954H1C1.023 24.954 4.04 25.049 5.953 23.136L13.033 16.054C14.678 14.409 16.488 14.409 18.133 16.054L19.836 17.754L29.75 7.84004L36.836 14.92L38.536 13.22C40.178 11.576 41.992 11.576 43.636 13.22L48.168 17.754L49.868 16.052C51.513 14.412 53.32 14.409 54.968 16.052L62.048 23.136C63.965 25.049 66.975 24.956 67 24.956H68V25.955ZM68 18.96L67 18.98C66.875 18.98 63 18.98 61.2 16.86L54.117 9.78004C52.939 8.60204 51.887 8.60204 50.713 9.78004L48.163 12.328L42.781 6.94404C42.194 6.35704 41.624 6.05904 41.083 6.05904C40.543 6.05904 39.97 6.35604 39.383 6.94304L36.833 9.49304L29.746 2.41304L19.831 12.327L17.283 9.77704C16.106 8.60104 15.058 8.59904 13.88 9.77704L6.795 16.86C4.523 19.134 1.126 18.98 1 18.98L0 18.96V17.96H1.416C1.439 17.96 4.038 17.924 5.952 16.01L13.034 8.92804C14.68 7.28404 16.49 7.28604 18.132 8.92804L19.835 10.63L29.75 0.712036L36.834 7.79604L38.534 6.09404C39.357 5.27404 40.211 4.85704 41.084 4.85704C41.954 4.85704 42.814 5.27304 43.634 6.09404L48.166 10.628L49.869 8.92804C51.511 7.28204 53.319 7.28204 54.966 8.92804L62.046 16.011C63.978 17.937 66.558 17.961 66.581 17.961H67.997L67.999 18.521V18.961L68 18.96Z" fill="black"/>
</g>
<path d="M68 40.6149V40.5949C68 40.5949 63.473 41.0849 61.2 38.8109L54.117 31.7289C52.939 30.5519 51.887 30.5519 50.713 31.7289L48.163 34.2789L42.781 28.8989C42.194 28.3069 41.624 28.0089 41.083 28.0089C40.543 28.0089 39.97 28.3069 39.383 28.8959L36.833 31.4459L29.746 24.3629L19.831 34.2779L17.283 31.7279C16.106 30.5519 15.058 30.5499 13.88 31.7279L6.797 38.8119C5 40.6159 1.125 40.6159 1 40.6159H0V39.6159H1C1.023 39.6159 4.038 39.8779 5.952 37.9619L13.034 30.8819C14.68 29.2369 16.49 29.2389 18.132 30.8819L19.835 32.5819L29.75 22.6639L36.834 29.7469L38.534 28.0449C39.357 27.2229 40.211 26.8049 41.084 26.8049C41.954 26.8049 42.814 27.2229 43.634 28.0469L48.166 32.5789L49.869 30.8789C51.511 29.2339 53.319 29.2339 54.966 30.8789L62.046 37.9609C63.962 39.8729 66.976 39.6159 66.999 39.6159L67.999 39.6359L68 40.6149Z" fill="#8DC63F"/>
<path d="M68 33.417V33.73C68 33.73 63 33.617 61.2 31.73L54.117 24.76C52.939 23.582 51.887 23.584 50.713 24.76L48.163 27.306L42.781 21.926C41.608 20.749 40.557 20.749 39.384 21.926L36.834 24.476L29.751 17.391L19.835 27.307L17.285 24.76C16.11 23.584 15.06 23.582 13.885 24.76L6.8 31.84C4.827 33.816 0.386 33.73 1 33.73L0 33.708V32.75L1 32.73C1.023 32.73 4.04 32.905 5.953 30.992L13.033 23.908C14.678 22.265 16.487 22.265 18.133 23.908L19.836 25.61L29.751 15.693L36.837 22.776L38.537 21.076C40.179 19.432 41.989 19.432 43.637 21.076L48.169 25.608L49.869 23.908C51.514 22.268 53.321 22.265 54.969 23.908L62.049 30.992C63.966 32.905 66.976 32.729 67.001 32.729H68.001V33.416L68 33.417Z" fill="#BEB632"/>
<path d="M68 26.955H66C65.42 26.625 63.473 27.259 61.2 24.985L54.116 17.9C52.938 16.723 51.886 16.725 50.712 17.9L48.162 20.447L42.78 15.067C41.607 13.887 40.556 13.887 39.383 15.067L36.833 17.613L29.748 10.531L19.834 20.446L17.284 17.898C16.107 16.718 15.057 16.721 13.882 17.898L6.8 24.984C4.663 27.12 2 26.954 1 26.954L0 26.934V25.954H1C1.023 25.954 4.04 26.049 5.953 24.136L13.033 17.054C14.678 15.409 16.488 15.409 18.133 17.054L19.836 18.754L29.75 8.83997L36.836 15.92L38.536 14.22C40.178 12.576 41.992 12.576 43.636 14.22L48.168 18.754L49.868 17.052C51.513 15.412 53.32 15.409 54.968 17.052L62.048 24.136C63.965 26.049 66.975 25.956 67 25.956H68V26.955Z" fill="#D88D2A"/>
<path d="M68 19.96L67 19.98C66.875 19.98 63 19.98 61.2 17.86L54.117 10.78C52.939 9.60204 51.887 9.60204 50.713 10.78L48.163 13.328L42.781 7.94404C42.194 7.35704 41.624 7.05904 41.083 7.05904C40.543 7.05904 39.97 7.35604 39.383 7.94304L36.833 10.493L29.746 3.41304L19.831 13.327L17.283 10.777C16.106 9.60104 15.058 9.59904 13.88 10.777L6.795 17.86C4.523 20.134 1.126 19.98 1 19.98L0 19.96V18.96H1.416C1.439 18.96 4.038 18.924 5.952 17.01L13.034 9.92804C14.68 8.28404 16.49 8.28604 18.132 9.92804L19.835 11.63L29.75 1.71204L36.834 8.79604L38.534 7.09404C39.357 6.27404 40.211 5.85704 41.084 5.85704C41.954 5.85704 42.814 6.27304 43.634 7.09404L48.166 11.628L49.869 9.92804C51.511 8.28204 53.319 8.28204 54.966 9.92804L62.046 17.011C63.978 18.937 66.558 18.961 66.581 18.961H67.997L67.999 19.521V19.961L68 19.96Z" fill="#F15A22"/>
<g opacity="0.75">
<path d="M68 39.614V39.594C68 39.594 63.473 40.084 61.2 37.808L54.117 30.726C52.939 29.549 51.887 29.549 50.713 30.726L48.163 33.276L42.781 27.896C42.194 27.304 41.624 27.006 41.083 27.006C40.543 27.006 39.97 27.304 39.383 27.893L36.833 30.443L29.746 23.36L19.831 33.275L17.283 30.725C16.106 29.549 15.058 29.547 13.88 30.725L6.796 37.81C5 39.613 1.125 39.613 1 39.613H0V38.613H1C1.023 38.613 4.038 38.875 5.952 36.959L13.034 29.879C14.68 28.233 16.49 28.235 18.132 29.879L19.835 31.579L29.75 21.659L36.834 28.743L38.534 27.041C39.357 26.219 40.211 25.801 41.084 25.801C41.954 25.801 42.814 26.219 43.634 27.043L48.166 31.575L49.869 29.875C51.511 28.23 53.319 28.23 54.966 29.875L62.046 36.957C63.962 38.871 66.976 38.613 66.999 38.613L67.999 38.633V39.613L68 39.614ZM68 32.417V32.73C68 32.73 63 32.617 61.2 30.73L54.117 23.76C52.939 22.582 51.887 22.584 50.713 23.76L48.163 26.306L42.781 20.926C41.608 19.749 40.557 19.749 39.384 20.926L36.834 23.476L29.751 16.39L19.835 26.305L17.285 23.758C16.11 22.583 15.06 22.581 13.885 23.758L6.8 30.84C4.827 32.815 0.386 32.73 1 32.73L0 32.708V31.75L1 31.73C1.023 31.73 4.04 31.905 5.953 29.992L13.033 22.908C14.678 21.265 16.487 21.265 18.133 22.908L19.836 24.61L29.751 14.693L36.837 21.776L38.537 20.076C40.179 18.432 41.989 18.432 43.637 20.076L48.169 24.608L49.869 22.908C51.514 21.268 53.321 21.265 54.969 22.908L62.049 29.992C63.966 31.905 66.976 31.729 67.001 31.729H68.001V32.416L68 32.417ZM68 25.955H66C65.42 25.625 63.473 26.259 61.2 23.985L54.116 16.9C52.938 15.723 51.886 15.725 50.712 16.9L48.162 19.447L42.78 14.067C41.607 12.887 40.556 12.887 39.383 14.067L36.833 16.613L29.748 9.53096L19.834 19.446L17.284 16.898C16.107 15.718 15.057 15.721 13.882 16.898L6.8 23.984C4.663 26.12 2 25.954 1 25.954L0 25.934V24.954H1C1.023 24.954 4.04 25.049 5.953 23.136L13.033 16.054C14.678 14.409 16.488 14.409 18.133 16.054L19.836 17.754L29.75 7.83996L36.836 14.92L38.536 13.22C40.178 11.576 41.992 11.576 43.636 13.22L48.168 17.754L49.868 16.052C51.513 14.412 53.32 14.409 54.968 16.052L62.048 23.136C63.965 25.049 66.975 24.956 67 24.956H68V25.955ZM68 18.958L67 18.978C66.875 18.978 63 18.978 61.2 16.858L54.117 9.77796C52.939 8.60096 51.887 8.60096 50.713 9.77796L48.163 12.328L42.781 6.94296C42.194 6.35596 41.624 6.05796 41.083 6.05796C40.543 6.05796 39.97 6.35596 39.383 6.94296L36.833 9.49296L29.746 2.41296L19.831 12.327L17.283 9.77696C16.106 8.60096 15.058 8.59896 13.88 9.77696L6.796 16.86C4.524 19.132 1.127 18.98 1 18.98L0 18.958V17.958H1.416C1.439 17.958 4.038 17.923 5.952 16.01L13.034 8.92696C14.68 7.28296 16.49 7.28496 18.132 8.92696L19.835 10.629L29.75 0.709961L36.834 7.79496L38.534 6.09296C39.357 5.27296 40.211 4.85596 41.084 4.85596C41.954 4.85596 42.814 5.27196 43.634 6.09296L48.166 10.627L49.869 8.92696C51.511 7.28096 53.319 7.28096 54.966 8.92696L62.046 16.01C63.978 17.935 66.558 17.958 66.581 17.958H67.997L67.999 18.521V18.959L68 18.958Z" fill="black"/>
</g>
<path d="M68 40.6141V40.5941C68 40.5941 63.473 41.0841 61.2 38.8081L54.117 31.7261C52.939 30.5491 51.887 30.5491 50.713 31.7261L48.163 34.2761L42.781 28.8961C42.194 28.3041 41.624 28.0061 41.083 28.0061C40.543 28.0061 39.97 28.3041 39.383 28.8931L36.833 31.4431L29.746 24.3601L19.831 34.2751L17.283 31.7251C16.106 30.5491 15.058 30.5471 13.88 31.7251L6.796 38.8101C5 40.6131 1.125 40.6131 1 40.6131H0V39.6131H1C1.023 39.6131 4.038 39.8751 5.952 37.9591L13.034 30.8791C14.68 29.2331 16.49 29.2351 18.132 30.8791L19.835 32.5791L29.75 22.6591L36.834 29.7431L38.534 28.0411C39.357 27.2191 40.211 26.8011 41.084 26.8011C41.954 26.8011 42.814 27.2191 43.634 28.0431L48.166 32.5751L49.869 30.8751C51.511 29.2301 53.319 29.2301 54.966 30.8751L62.046 37.9571C63.962 39.8711 66.976 39.6131 66.999 39.6131L67.999 39.6331V40.6131L68 40.6141Z" fill="#8DC63F"/>
<path d="M68 33.417V33.73C68 33.73 63 33.617 61.2 31.73L54.117 24.76C52.939 23.582 51.887 23.584 50.713 24.76L48.163 27.306L42.781 21.926C41.608 20.749 40.557 20.749 39.384 21.926L36.834 24.476L29.751 17.39L19.835 27.305L17.285 24.758C16.11 23.583 15.06 23.581 13.885 24.758L6.8 31.84C4.827 33.815 0.386 33.73 1 33.73L0 33.708V32.75L1 32.73C1.023 32.73 4.04 32.905 5.953 30.992L13.033 23.908C14.678 22.265 16.487 22.265 18.133 23.908L19.836 25.61L29.751 15.693L36.837 22.776L38.537 21.076C40.179 19.432 41.989 19.432 43.637 21.076L48.169 25.608L49.869 23.908C51.514 22.268 53.321 22.265 54.969 23.908L62.049 30.992C63.966 32.905 66.976 32.729 67.001 32.729H68.001V33.416L68 33.417Z" fill="#BEB632"/>
<path d="M68 26.955H66C65.42 26.625 63.473 27.259 61.2 24.985L54.116 17.9C52.938 16.723 51.886 16.725 50.712 17.9L48.162 20.447L42.78 15.067C41.607 13.887 40.556 13.887 39.383 15.067L36.833 17.613L29.748 10.531L19.834 20.446L17.284 17.898C16.107 16.718 15.057 16.721 13.882 17.898L6.8 24.984C4.663 27.12 2 26.954 1 26.954L0 26.934V25.954H1C1.023 25.954 4.04 26.049 5.953 24.136L13.033 17.054C14.678 15.409 16.488 15.409 18.133 17.054L19.836 18.754L29.75 8.83997L36.836 15.92L38.536 14.22C40.178 12.576 41.992 12.576 43.636 14.22L48.168 18.754L49.868 17.052C51.513 15.412 53.32 15.409 54.968 17.052L62.048 24.136C63.965 26.049 66.975 25.956 67 25.956H68V26.955Z" fill="#D88D2A"/>
<path d="M68 19.958L67 19.978C66.875 19.978 63 19.978 61.2 17.858L54.117 10.778C52.939 9.60098 51.887 9.60098 50.713 10.778L48.163 13.328L42.781 7.94298C42.194 7.35598 41.624 7.05798 41.083 7.05798C40.543 7.05798 39.97 7.35598 39.383 7.94298L36.833 10.493L29.746 3.41298L19.831 13.327L17.283 10.777C16.106 9.60099 15.058 9.59899 13.88 10.777L6.796 17.86C4.524 20.132 1.127 19.98 1 19.98L0 19.958V18.958H1.416C1.439 18.958 4.038 18.923 5.952 17.01L13.034 9.92698C14.68 8.28298 16.49 8.28498 18.132 9.92698L19.835 11.629L29.75 1.70898L36.834 8.79398L38.534 7.09198C39.357 6.27198 40.211 5.85498 41.084 5.85498C41.954 5.85498 42.814 6.27098 43.634 7.09198L48.166 11.626L49.869 9.92598C51.511 8.27998 53.319 8.27998 54.966 9.92598L62.046 17.009C63.978 18.934 66.558 18.957 66.581 18.957H67.997L67.999 19.52L68 19.958Z" fill="#F15A22"/>
<g opacity="0.75">
<path d="M4.95501 50.746C4.95501 51.451 5.30801 51.451 5.30801 51.451H10.941C12.704 51.451 12.704 52.861 12.704 53.214V53.564H7.77401C7.07001 53.564 4.25201 53.564 4.25201 56.558V56.911C4.25201 59.901 7.06901 59.901 7.77401 59.901H14.114V53.214C14.114 52.859 14.114 50.044 10.944 50.044H5.30701C5.30701 50.044 4.95401 50.044 4.95401 50.747L4.95501 50.746ZM7.77101 58.492C7.06901 58.492 5.66101 58.492 5.66101 56.908V56.556C5.66101 54.972 7.06901 54.972 7.77101 54.972H12.703V58.492H7.77301H7.77101ZM39.104 50.746C39.104 51.451 39.456 51.451 39.456 51.451H45.089C46.852 51.451 46.852 52.861 46.852 53.214V53.564H41.922C41.219 53.564 38.402 53.564 38.402 56.558V56.911C38.402 59.901 41.217 59.901 41.922 59.901H48.258V53.214C48.258 52.86 48.258 50.044 45.088 50.044H39.454C39.454 50.044 39.102 50.044 39.102 50.747L39.104 50.746ZM41.921 58.492C41.219 58.492 39.811 58.492 39.811 56.908V56.556C39.811 54.972 41.219 54.972 41.921 54.972H46.851V58.492H41.921ZM54.243 59.9H52.833V53.212C52.833 52.857 52.833 50.042 56.003 50.042H58.113C58.113 50.042 58.468 50.042 58.468 50.744C58.468 51.449 58.114 51.449 58.114 51.449H56.004C54.244 51.449 54.244 52.855 54.244 53.209V59.899L54.243 59.9ZM25.374 66.94C26.08 66.94 26.08 66.588 26.08 66.588V59.9H29.6C31.008 59.9 34.53 59.9 34.53 55.674V54.264C34.53 50.041 31.008 50.041 29.6 50.041H24.67V66.59C24.67 66.592 24.67 66.943 25.374 66.943V66.94ZM29.6 51.45C31.008 51.45 33.12 51.45 33.12 54.265V55.675C33.12 58.49 31.008 58.49 29.6 58.49H26.08V51.45H29.6ZM18.687 59.9H20.095V43.352C20.095 43.352 20.095 43 19.39 43C18.687 43 18.687 43.352 18.687 43.352V59.9ZM61.99 59.9H63.397V50.394C63.397 50.394 63.397 50.041 62.69 50.041C61.99 50.041 61.99 50.395 61.99 50.395V59.9ZM63.75 47.225C63.75 47.93 63.573 48.108 63.573 48.108C63.573 48.108 63.397 48.283 62.69 48.283C61.99 48.283 61.81 48.108 61.81 48.108C61.81 48.108 61.635 47.93 61.635 47.225C61.635 46.522 61.811 46.345 61.811 46.345C61.811 46.345 61.991 46.17 62.691 46.17C63.398 46.17 63.574 46.346 63.574 46.346C63.574 46.346 63.75 46.521 63.75 47.226V47.225Z" fill="black"/>
</g>
<path d="M4.95501 51.746C4.95501 52.451 5.30801 52.451 5.30801 52.451H10.941C12.704 52.451 12.704 53.861 12.704 54.214V54.564H7.77401C7.07001 54.564 4.25201 54.564 4.25201 57.558V57.911C4.25201 60.901 7.06901 60.901 7.77401 60.901H14.114V54.214C14.114 53.859 14.114 51.044 10.944 51.044H5.30701C5.30701 51.044 4.95401 51.044 4.95401 51.747L4.95501 51.746ZM7.77101 59.492C7.06901 59.492 5.66101 59.492 5.66101 57.908V57.556C5.66101 55.972 7.06901 55.972 7.77101 55.972H12.703V59.492H7.77301H7.77101ZM39.104 51.746C39.104 52.451 39.456 52.451 39.456 52.451H45.089C46.852 52.451 46.852 53.861 46.852 54.214V54.564H41.922C41.219 54.564 38.402 54.564 38.402 57.558V57.911C38.402 60.901 41.217 60.901 41.922 60.901H48.258V54.214C48.258 53.86 48.258 51.044 45.088 51.044H39.454C39.454 51.044 39.102 51.044 39.102 51.747L39.104 51.746ZM41.921 59.492C41.219 59.492 39.811 59.492 39.811 57.908V57.556C39.811 55.972 41.219 55.972 41.921 55.972H46.851V59.492H41.921ZM54.243 60.9H52.833V54.212C52.833 53.857 52.833 51.042 56.003 51.042H58.113C58.113 51.042 58.468 51.042 58.468 51.744C58.468 52.449 58.114 52.449 58.114 52.449H56.004C54.244 52.449 54.244 53.855 54.244 54.209V60.899L54.243 60.9ZM25.374 67.94C26.08 67.94 26.08 67.588 26.08 67.588V60.9H29.6C31.008 60.9 34.53 60.9 34.53 56.674V55.264C34.53 51.041 31.008 51.041 29.6 51.041H24.67V67.59C24.67 67.592 24.67 67.943 25.374 67.943V67.94ZM29.6 52.45C31.008 52.45 33.12 52.45 33.12 55.265V56.675C33.12 59.49 31.008 59.49 29.6 59.49H26.08V52.45H29.6ZM18.687 60.9H20.095V44.352C20.095 44.352 20.095 44 19.39 44C18.687 44 18.687 44.352 18.687 44.352V60.9ZM61.99 60.9H63.397V51.394C63.397 51.394 63.397 51.041 62.69 51.041C61.99 51.041 61.99 51.395 61.99 51.395V60.9ZM63.75 48.225C63.75 48.93 63.573 49.108 63.573 49.108C63.573 49.108 63.397 49.283 62.69 49.283C61.99 49.283 61.81 49.108 61.81 49.108C61.81 49.108 61.635 48.93 61.635 48.225C61.635 47.522 61.811 47.345 61.811 47.345C61.811 47.345 61.991 47.17 62.691 47.17C63.398 47.17 63.574 47.346 63.574 47.346C63.574 47.346 63.75 47.521 63.75 48.226V48.225Z" fill="white"/>
<g opacity="0.75">
<path d="M4.95501 50.746C4.95501 51.451 5.30801 51.451 5.30801 51.451H10.941C12.704 51.451 12.704 52.861 12.704 53.214V53.564H7.77401C7.07001 53.564 4.25201 53.564 4.25201 56.558V56.911C4.25201 59.901 7.06901 59.901 7.77401 59.901H14.114V53.214C14.114 52.859 14.114 50.044 10.944 50.044H5.30701C5.30701 50.044 4.95401 50.044 4.95401 50.747L4.95501 50.746ZM7.77101 58.492C7.06901 58.492 5.66101 58.492 5.66101 56.908V56.556C5.66101 54.972 7.06901 54.972 7.77101 54.972H12.703V58.492H7.77301H7.77101ZM39.104 50.746C39.104 51.451 39.456 51.451 39.456 51.451H45.089C46.852 51.451 46.852 52.861 46.852 53.214V53.564H41.922C41.219 53.564 38.402 53.564 38.402 56.558V56.911C38.402 59.901 41.217 59.901 41.922 59.901H48.258V53.214C48.258 52.86 48.258 50.044 45.088 50.044H39.454C39.454 50.044 39.102 50.044 39.102 50.747L39.104 50.746ZM41.921 58.492C41.219 58.492 39.811 58.492 39.811 56.908V56.556C39.811 54.972 41.219 54.972 41.921 54.972H46.851V58.492H41.921ZM54.243 59.9H52.833V53.212C52.833 52.857 52.833 50.042 56.003 50.042H58.113C58.113 50.042 58.468 50.042 58.468 50.744C58.468 51.449 58.114 51.449 58.114 51.449H56.004C54.244 51.449 54.244 52.855 54.244 53.209V59.899L54.243 59.9ZM25.374 66.94C26.08 66.94 26.08 66.588 26.08 66.588V59.9H29.6C31.008 59.9 34.53 59.9 34.53 55.674V54.264C34.53 50.041 31.008 50.041 29.6 50.041H24.67V66.59C24.67 66.592 24.67 66.943 25.374 66.943V66.94ZM29.6 51.45C31.008 51.45 33.12 51.45 33.12 54.265V55.675C33.12 58.49 31.008 58.49 29.6 58.49H26.08V51.45H29.6ZM18.687 59.9H20.095V43.352C20.095 43.352 20.095 43 19.39 43C18.687 43 18.687 43.352 18.687 43.352V59.9ZM61.99 59.9H63.397V50.394C63.397 50.394 63.397 50.041 62.69 50.041C61.99 50.041 61.99 50.395 61.99 50.395V59.9ZM63.75 47.225C63.75 47.93 63.573 48.108 63.573 48.108C63.573 48.108 63.397 48.283 62.69 48.283C61.99 48.283 61.81 48.108 61.81 48.108C61.81 48.108 61.635 47.93 61.635 47.225C61.635 46.522 61.811 46.345 61.811 46.345C61.811 46.345 61.991 46.17 62.691 46.17C63.398 46.17 63.574 46.346 63.574 46.346C63.574 46.346 63.75 46.521 63.75 47.226V47.225Z" fill="black"/>
</g>
<path d="M4.95501 51.746C4.95501 52.451 5.30801 52.451 5.30801 52.451H10.941C12.704 52.451 12.704 53.861 12.704 54.214V54.564H7.77401C7.07001 54.564 4.25201 54.564 4.25201 57.558V57.911C4.25201 60.901 7.06901 60.901 7.77401 60.901H14.114V54.214C14.114 53.859 14.114 51.044 10.944 51.044H5.30701C5.30701 51.044 4.95401 51.044 4.95401 51.747L4.95501 51.746ZM7.77101 59.492C7.06901 59.492 5.66101 59.492 5.66101 57.908V57.556C5.66101 55.972 7.06901 55.972 7.77101 55.972H12.703V59.492H7.77301H7.77101ZM39.104 51.746C39.104 52.451 39.456 52.451 39.456 52.451H45.089C46.852 52.451 46.852 53.861 46.852 54.214V54.564H41.922C41.219 54.564 38.402 54.564 38.402 57.558V57.911C38.402 60.901 41.217 60.901 41.922 60.901H48.258V54.214C48.258 53.86 48.258 51.044 45.088 51.044H39.454C39.454 51.044 39.102 51.044 39.102 51.747L39.104 51.746ZM41.921 59.492C41.219 59.492 39.811 59.492 39.811 57.908V57.556C39.811 55.972 41.219 55.972 41.921 55.972H46.851V59.492H41.921ZM54.243 60.9H52.833V54.212C52.833 53.857 52.833 51.042 56.003 51.042H58.113C58.113 51.042 58.468 51.042 58.468 51.744C58.468 52.449 58.114 52.449 58.114 52.449H56.004C54.244 52.449 54.244 53.855 54.244 54.209V60.899L54.243 60.9ZM25.374 67.94C26.08 67.94 26.08 67.588 26.08 67.588V60.9H29.6C31.008 60.9 34.53 60.9 34.53 56.674V55.264C34.53 51.041 31.008 51.041 29.6 51.041H24.67V67.59C24.67 67.592 24.67 67.943 25.374 67.943V67.94ZM29.6 52.45C31.008 52.45 33.12 52.45 33.12 55.265V56.675C33.12 59.49 31.008 59.49 29.6 59.49H26.08V52.45H29.6ZM18.687 60.9H20.095V44.352C20.095 44.352 20.095 44 19.39 44C18.687 44 18.687 44.352 18.687 44.352V60.9ZM61.99 60.9H63.397V51.394C63.397 51.394 63.397 51.041 62.69 51.041C61.99 51.041 61.99 51.395 61.99 51.395V60.9ZM63.75 48.225C63.75 48.93 63.573 49.108 63.573 49.108C63.573 49.108 63.397 49.283 62.69 49.283C61.99 49.283 61.81 49.108 61.81 49.108C61.81 49.108 61.635 48.93 61.635 48.225C61.635 47.522 61.811 47.345 61.811 47.345C61.811 47.345 61.991 47.17 62.691 47.17C63.398 47.17 63.574 47.346 63.574 47.346C63.574 47.346 63.75 47.521 63.75 48.226V48.225Z" fill="white"/>
</g>
<defs>
<clipPath id="clip0_2_7">
<rect width="68" height="69" fill="white"/>
</clipPath>
</defs>
</svg>
