<svg width="68" height="69" viewBox="0 0 68 69" fill="none" xmlns="http://www.w3.org/2000/svg">
<g clip-path="url(#clip0_2_1170)">
<g clip-path="url(#clip1_2_1170)">
<g opacity="0.75">
<path d="M68 39.6149V39.5949C68 39.5949 63.473 40.0849 61.2 37.8109L54.117 30.7289C52.939 29.5519 51.887 29.5519 50.713 30.7289L48.163 33.2789L42.781 27.8989C42.194 27.3069 41.624 27.0089 41.083 27.0089C40.543 27.0089 39.97 27.3069 39.383 27.8959L36.833 30.4459L29.746 23.3629L19.831 33.2779L17.283 30.7279C16.106 29.5519 15.058 29.5499 13.88 30.7279L6.797 37.8119C5 39.6159 1.125 39.6159 1 39.6159H0V38.6159H1C1.023 38.6159 4.038 38.8779 5.952 36.9619L13.034 29.8819C14.68 28.2369 16.49 28.2389 18.132 29.8819L19.835 31.5819L29.75 21.6639L36.834 28.7469L38.534 27.0449C39.357 26.2229 40.211 25.8049 41.084 25.8049C41.954 25.8049 42.814 26.2229 43.634 27.0469L48.166 31.5789L49.869 29.8789C51.511 28.2339 53.319 28.2339 54.966 29.8789L62.046 36.9609C63.962 38.8729 66.976 38.6159 66.999 38.6159L67.999 38.6359L68 39.6149ZM68 32.4169V32.7299C68 32.7299 63 32.6169 61.2 30.7299L54.117 23.7599C52.939 22.5819 51.887 22.5839 50.713 23.7599L48.163 26.3059L42.781 20.9259C41.608 19.7489 40.557 19.7489 39.384 20.9259L36.834 23.4759L29.751 16.3909L19.835 26.3069L17.285 23.7599C16.11 22.5839 15.06 22.5819 13.885 23.7599L6.8 30.8399C4.827 32.8159 0.386 32.7299 1 32.7299L0 32.7079V31.7499L1 31.7299C1.023 31.7299 4.04 31.9049 5.953 29.9919L13.033 22.9079C14.678 21.2649 16.487 21.2649 18.133 22.9079L19.836 24.6099L29.751 14.6929L36.837 21.7759L38.537 20.0759C40.179 18.4319 41.989 18.4319 43.637 20.0759L48.169 24.6079L49.869 22.9079C51.514 21.2679 53.321 21.2649 54.969 22.9079L62.049 29.9919C63.966 31.9049 66.976 31.7289 67.001 31.7289H68.001V32.4159L68 32.4169ZM68 25.9549H66C65.42 25.6249 63.473 26.2589 61.2 23.9849L54.116 16.8999C52.938 15.7229 51.886 15.7249 50.712 16.8999L48.162 19.4469L42.78 14.0669C41.607 12.8869 40.556 12.8869 39.383 14.0669L36.833 16.6129L29.748 9.53091L19.834 19.4459L17.284 16.8979C16.107 15.7179 15.057 15.7209 13.882 16.8979L6.8 23.9839C4.663 26.1199 2 25.9539 1 25.9539L0 25.9339V24.9539H1C1.023 24.9539 4.04 25.0489 5.953 23.1359L13.033 16.0539C14.678 14.4089 16.488 14.4089 18.133 16.0539L19.836 17.7539L29.75 7.83991L36.836 14.9199L38.536 13.2199C40.178 11.5759 41.992 11.5759 43.636 13.2199L48.168 17.7539L49.868 16.0519C51.513 14.4119 53.32 14.4089 54.968 16.0519L62.048 23.1359C63.965 25.0489 66.975 24.9559 67 24.9559H68V25.9549ZM68 18.9599L67 18.9799C66.875 18.9799 63 18.9799 61.2 16.8599L54.117 9.77991C52.939 8.60191 51.887 8.60191 50.713 9.77991L48.163 12.3279L42.781 6.94391C42.194 6.35691 41.624 6.05891 41.083 6.05891C40.543 6.05891 39.97 6.35591 39.383 6.94291L36.833 9.49291L29.746 2.41291L19.831 12.3269L17.283 9.77691C16.106 8.60091 15.058 8.59891 13.88 9.77691L6.795 16.8599C4.523 19.1339 1.126 18.9799 1 18.9799L0 18.9599V17.9599H1.416C1.439 17.9599 4.038 17.9239 5.952 16.0099L13.034 8.92791C14.68 7.28391 16.49 7.28591 18.132 8.92791L19.835 10.6299L29.75 0.711914L36.834 7.79591L38.534 6.09391C39.357 5.27391 40.211 4.85691 41.084 4.85691C41.954 4.85691 42.814 5.27291 43.634 6.09391L48.166 10.6279L49.869 8.92791C51.511 7.28191 53.319 7.28191 54.966 8.92791L62.046 16.0109C63.978 17.9369 66.558 17.9609 66.581 17.9609H67.997L67.999 18.5209V18.9609L68 18.9599Z" fill="black"/>
</g>
<path d="M68 40.6151V40.5951C68 40.5951 63.473 41.0851 61.2 38.8111L54.117 31.7291C52.939 30.5521 51.887 30.5521 50.713 31.7291L48.163 34.2791L42.781 28.8991C42.194 28.3071 41.624 28.0091 41.083 28.0091C40.543 28.0091 39.97 28.3071 39.383 28.8961L36.833 31.4461L29.746 24.3631L19.831 34.2781L17.283 31.7281C16.106 30.5521 15.058 30.5501 13.88 31.7281L6.797 38.8121C5 40.6161 1.125 40.6161 1 40.6161H0V39.6161H1C1.023 39.6161 4.038 39.8781 5.952 37.9621L13.034 30.8821C14.68 29.2371 16.49 29.2391 18.132 30.8821L19.835 32.5821L29.75 22.6641L36.834 29.7471L38.534 28.0451C39.357 27.2231 40.211 26.8051 41.084 26.8051C41.954 26.8051 42.814 27.2231 43.634 28.0471L48.166 32.5791L49.869 30.8791C51.511 29.2341 53.319 29.2341 54.966 30.8791L62.046 37.9611C63.962 39.8731 66.976 39.6161 66.999 39.6161L67.999 39.6361L68 40.6151Z" fill="#8DC63F"/>
<path d="M68 33.4171V33.7301C68 33.7301 63 33.6171 61.2 31.7301L54.117 24.7601C52.939 23.5821 51.887 23.5841 50.713 24.7601L48.163 27.3061L42.781 21.9261C41.608 20.7491 40.557 20.7491 39.384 21.9261L36.834 24.4761L29.751 17.3911L19.835 27.3071L17.285 24.7601C16.11 23.5841 15.06 23.5821 13.885 24.7601L6.8 31.8401C4.827 33.8161 0.386 33.7301 1 33.7301L0 33.7081V32.7501L1 32.7301C1.023 32.7301 4.04 32.9051 5.953 30.9921L13.033 23.9081C14.678 22.2651 16.487 22.2651 18.133 23.9081L19.836 25.6101L29.751 15.6931L36.837 22.7761L38.537 21.0761C40.179 19.4321 41.989 19.4321 43.637 21.0761L48.169 25.6081L49.869 23.9081C51.514 22.2681 53.321 22.2651 54.969 23.9081L62.049 30.9921C63.966 32.9051 66.976 32.7291 67.001 32.7291H68.001V33.4161L68 33.4171Z" fill="#BEB632"/>
<path d="M68 26.9551H66C65.42 26.6251 63.473 27.2591 61.2 24.9851L54.116 17.9001C52.938 16.7231 51.886 16.7251 50.712 17.9001L48.162 20.4471L42.78 15.0671C41.607 13.8871 40.556 13.8871 39.383 15.0671L36.833 17.6131L29.748 10.5311L19.834 20.4461L17.284 17.8981C16.107 16.7181 15.057 16.7211 13.882 17.8981L6.8 24.9841C4.663 27.1201 2 26.9541 1 26.9541L0 26.9341V25.9541H1C1.023 25.9541 4.04 26.0491 5.953 24.1361L13.033 17.0541C14.678 15.4091 16.488 15.4091 18.133 17.0541L19.836 18.7541L29.75 8.84009L36.836 15.9201L38.536 14.2201C40.178 12.5761 41.992 12.5761 43.636 14.2201L48.168 18.7541L49.868 17.0521C51.513 15.4121 53.32 15.4091 54.968 17.0521L62.048 24.1361C63.965 26.0491 66.975 25.9561 67 25.9561H68V26.9551Z" fill="#D88D2A"/>
<path d="M68 19.9599L67 19.9799C66.875 19.9799 63 19.9799 61.2 17.8599L54.117 10.7799C52.939 9.60191 51.887 9.60191 50.713 10.7799L48.163 13.3279L42.781 7.94391C42.194 7.35691 41.624 7.05891 41.083 7.05891C40.543 7.05891 39.97 7.35591 39.383 7.94291L36.833 10.4929L29.746 3.41291L19.831 13.3269L17.283 10.7769C16.106 9.60091 15.058 9.59891 13.88 10.7769L6.795 17.8599C4.523 20.1339 1.126 19.9799 1 19.9799L0 19.9599V18.9599H1.416C1.439 18.9599 4.038 18.9239 5.952 17.0099L13.034 9.92791C14.68 8.28391 16.49 8.28591 18.132 9.92791L19.835 11.6299L29.75 1.71191L36.834 8.79591L38.534 7.09391C39.357 6.27391 40.211 5.85691 41.084 5.85691C41.954 5.85691 42.814 6.27291 43.634 7.09391L48.166 11.6279L49.869 9.92791C51.511 8.28191 53.319 8.28191 54.966 9.92791L62.046 17.0109C63.978 18.9369 66.558 18.9609 66.581 18.9609H67.997L67.999 19.5209V19.9609L68 19.9599Z" fill="#F15A22"/>
<g opacity="0.75">
<path d="M68 39.614V39.594C68 39.594 63.473 40.084 61.2 37.808L54.117 30.726C52.939 29.549 51.887 29.549 50.713 30.726L48.163 33.276L42.781 27.896C42.194 27.304 41.624 27.006 41.083 27.006C40.543 27.006 39.97 27.304 39.383 27.893L36.833 30.443L29.746 23.36L19.831 33.275L17.283 30.725C16.106 29.549 15.058 29.547 13.88 30.725L6.796 37.81C5 39.613 1.125 39.613 1 39.613H0V38.613H1C1.023 38.613 4.038 38.875 5.952 36.959L13.034 29.879C14.68 28.233 16.49 28.235 18.132 29.879L19.835 31.579L29.75 21.659L36.834 28.743L38.534 27.041C39.357 26.219 40.211 25.801 41.084 25.801C41.954 25.801 42.814 26.219 43.634 27.043L48.166 31.575L49.869 29.875C51.511 28.23 53.319 28.23 54.966 29.875L62.046 36.957C63.962 38.871 66.976 38.613 66.999 38.613L67.999 38.633V39.613L68 39.614ZM68 32.417V32.73C68 32.73 63 32.617 61.2 30.73L54.117 23.76C52.939 22.582 51.887 22.584 50.713 23.76L48.163 26.306L42.781 20.926C41.608 19.749 40.557 19.749 39.384 20.926L36.834 23.476L29.751 16.39L19.835 26.305L17.285 23.758C16.11 22.583 15.06 22.581 13.885 23.758L6.8 30.84C4.827 32.815 0.386 32.73 1 32.73L0 32.708V31.75L1 31.73C1.023 31.73 4.04 31.905 5.953 29.992L13.033 22.908C14.678 21.265 16.487 21.265 18.133 22.908L19.836 24.61L29.751 14.693L36.837 21.776L38.537 20.076C40.179 18.432 41.989 18.432 43.637 20.076L48.169 24.608L49.869 22.908C51.514 21.268 53.321 21.265 54.969 22.908L62.049 29.992C63.966 31.905 66.976 31.729 67.001 31.729H68.001V32.416L68 32.417ZM68 25.955H66C65.42 25.625 63.473 26.259 61.2 23.985L54.116 16.9C52.938 15.723 51.886 15.725 50.712 16.9L48.162 19.447L42.78 14.067C41.607 12.887 40.556 12.887 39.383 14.067L36.833 16.613L29.748 9.53096L19.834 19.446L17.284 16.898C16.107 15.718 15.057 15.721 13.882 16.898L6.8 23.984C4.663 26.12 2 25.954 1 25.954L0 25.934V24.954H1C1.023 24.954 4.04 25.049 5.953 23.136L13.033 16.054C14.678 14.409 16.488 14.409 18.133 16.054L19.836 17.754L29.75 7.83996L36.836 14.92L38.536 13.22C40.178 11.576 41.992 11.576 43.636 13.22L48.168 17.754L49.868 16.052C51.513 14.412 53.32 14.409 54.968 16.052L62.048 23.136C63.965 25.049 66.975 24.956 67 24.956H68V25.955ZM68 18.958L67 18.978C66.875 18.978 63 18.978 61.2 16.858L54.117 9.77796C52.939 8.60096 51.887 8.60096 50.713 9.77796L48.163 12.328L42.781 6.94296C42.194 6.35596 41.624 6.05796 41.083 6.05796C40.543 6.05796 39.97 6.35596 39.383 6.94296L36.833 9.49296L29.746 2.41296L19.831 12.327L17.283 9.77696C16.106 8.60096 15.058 8.59896 13.88 9.77696L6.796 16.86C4.524 19.132 1.127 18.98 1 18.98L0 18.958V17.958H1.416C1.439 17.958 4.038 17.923 5.952 16.01L13.034 8.92696C14.68 7.28296 16.49 7.28496 18.132 8.92696L19.835 10.629L29.75 0.709961L36.834 7.79496L38.534 6.09296C39.357 5.27296 40.211 4.85596 41.084 4.85596C41.954 4.85596 42.814 5.27196 43.634 6.09296L48.166 10.627L49.869 8.92696C51.511 7.28096 53.319 7.28096 54.966 8.92696L62.046 16.01C63.978 17.935 66.558 17.958 66.581 17.958H67.997L67.999 18.521V18.959L68 18.958Z" fill="black"/>
</g>
<path d="M68 40.6139V40.5939C68 40.5939 63.473 41.0839 61.2 38.8079L54.117 31.7259C52.939 30.5489 51.887 30.5489 50.713 31.7259L48.163 34.2759L42.781 28.8959C42.194 28.3039 41.624 28.0059 41.083 28.0059C40.543 28.0059 39.97 28.3039 39.383 28.8929L36.833 31.4429L29.746 24.3599L19.831 34.2749L17.283 31.7249C16.106 30.5489 15.058 30.5469 13.88 31.7249L6.796 38.8099C5 40.6129 1.125 40.6129 1 40.6129H0V39.6129H1C1.023 39.6129 4.038 39.8749 5.952 37.9589L13.034 30.8789C14.68 29.2329 16.49 29.2349 18.132 30.8789L19.835 32.5789L29.75 22.6589L36.834 29.7429L38.534 28.0409C39.357 27.2189 40.211 26.8009 41.084 26.8009C41.954 26.8009 42.814 27.2189 43.634 28.0429L48.166 32.5749L49.869 30.8749C51.511 29.2299 53.319 29.2299 54.966 30.8749L62.046 37.9569C63.962 39.8709 66.976 39.6129 66.999 39.6129L67.999 39.6329V40.6129L68 40.6139Z" fill="#8DC63F"/>
<path d="M68 33.4171V33.7301C68 33.7301 63 33.6171 61.2 31.7301L54.117 24.7601C52.939 23.5821 51.887 23.5841 50.713 24.7601L48.163 27.3061L42.781 21.9261C41.608 20.7491 40.557 20.7491 39.384 21.9261L36.834 24.4761L29.751 17.3901L19.835 27.3051L17.285 24.7581C16.11 23.5831 15.06 23.5811 13.885 24.7581L6.8 31.8401C4.827 33.8151 0.386 33.7301 1 33.7301L0 33.7081V32.7501L1 32.7301C1.023 32.7301 4.04 32.9051 5.953 30.9921L13.033 23.9081C14.678 22.2651 16.487 22.2651 18.133 23.9081L19.836 25.6101L29.751 15.6931L36.837 22.7761L38.537 21.0761C40.179 19.4321 41.989 19.4321 43.637 21.0761L48.169 25.6081L49.869 23.9081C51.514 22.2681 53.321 22.2651 54.969 23.9081L62.049 30.9921C63.966 32.9051 66.976 32.7291 67.001 32.7291H68.001V33.4161L68 33.4171Z" fill="#BEB632"/>
<path d="M68 26.9551H66C65.42 26.6251 63.473 27.2591 61.2 24.9851L54.116 17.9001C52.938 16.7231 51.886 16.7251 50.712 17.9001L48.162 20.4471L42.78 15.0671C41.607 13.8871 40.556 13.8871 39.383 15.0671L36.833 17.6131L29.748 10.5311L19.834 20.4461L17.284 17.8981C16.107 16.7181 15.057 16.7211 13.882 17.8981L6.8 24.9841C4.663 27.1201 2 26.9541 1 26.9541L0 26.9341V25.9541H1C1.023 25.9541 4.04 26.0491 5.953 24.1361L13.033 17.0541C14.678 15.4091 16.488 15.4091 18.133 17.0541L19.836 18.7541L29.75 8.84009L36.836 15.9201L38.536 14.2201C40.178 12.5761 41.992 12.5761 43.636 14.2201L48.168 18.7541L49.868 17.0521C51.513 15.4121 53.32 15.4091 54.968 17.0521L62.048 24.1361C63.965 26.0491 66.975 25.9561 67 25.9561H68V26.9551Z" fill="#D88D2A"/>
<path d="M68 19.958L67 19.978C66.875 19.978 63 19.978 61.2 17.858L54.117 10.778C52.939 9.60098 51.887 9.60098 50.713 10.778L48.163 13.328L42.781 7.94298C42.194 7.35598 41.624 7.05798 41.083 7.05798C40.543 7.05798 39.97 7.35598 39.383 7.94298L36.833 10.493L29.746 3.41298L19.831 13.327L17.283 10.777C16.106 9.60099 15.058 9.59899 13.88 10.777L6.796 17.86C4.524 20.132 1.127 19.98 1 19.98L0 19.958V18.958H1.416C1.439 18.958 4.038 18.923 5.952 17.01L13.034 9.92698C14.68 8.28298 16.49 8.28498 18.132 9.92698L19.835 11.629L29.75 1.70898L36.834 8.79398L38.534 7.09198C39.357 6.27198 40.211 5.85498 41.084 5.85498C41.954 5.85498 42.814 6.27098 43.634 7.09198L48.166 11.626L49.869 9.92598C51.511 8.27998 53.319 8.27998 54.966 9.92598L62.046 17.009C63.978 18.934 66.558 18.957 66.581 18.957H67.997L67.999 19.52L68 19.958Z" fill="#F15A22"/>
<g opacity="0.75">
<path d="M4.95495 50.746C4.95495 51.451 5.30795 51.451 5.30795 51.451H10.941C12.704 51.451 12.704 52.861 12.704 53.214V53.564H7.77395C7.06995 53.564 4.25195 53.564 4.25195 56.558V56.911C4.25195 59.901 7.06895 59.901 7.77395 59.901H14.114V53.214C14.114 52.859 14.114 50.044 10.944 50.044H5.30695C5.30695 50.044 4.95395 50.044 4.95395 50.747L4.95495 50.746ZM7.77095 58.492C7.06895 58.492 5.66095 58.492 5.66095 56.908V56.556C5.66095 54.972 7.06895 54.972 7.77095 54.972H12.703V58.492H7.77295H7.77095ZM39.104 50.746C39.104 51.451 39.456 51.451 39.456 51.451H45.089C46.852 51.451 46.852 52.861 46.852 53.214V53.564H41.922C41.219 53.564 38.402 53.564 38.402 56.558V56.911C38.402 59.901 41.217 59.901 41.922 59.901H48.258V53.214C48.258 52.86 48.258 50.044 45.088 50.044H39.454C39.454 50.044 39.102 50.044 39.102 50.747L39.104 50.746ZM41.921 58.492C41.219 58.492 39.811 58.492 39.811 56.908V56.556C39.811 54.972 41.219 54.972 41.921 54.972H46.851V58.492H41.921ZM54.243 59.9H52.833V53.212C52.833 52.857 52.833 50.042 56.003 50.042H58.113C58.113 50.042 58.468 50.042 58.468 50.744C58.468 51.449 58.114 51.449 58.114 51.449H56.004C54.244 51.449 54.244 52.855 54.244 53.209V59.899L54.243 59.9ZM25.374 66.94C26.08 66.94 26.08 66.588 26.08 66.588V59.9H29.6C31.008 59.9 34.53 59.9 34.53 55.674V54.264C34.53 50.041 31.008 50.041 29.6 50.041H24.67V66.59C24.67 66.592 24.67 66.943 25.374 66.943V66.94ZM29.6 51.45C31.008 51.45 33.12 51.45 33.12 54.265V55.675C33.12 58.49 31.008 58.49 29.6 58.49H26.08V51.45H29.6ZM18.687 59.9H20.095V43.352C20.095 43.352 20.095 43 19.39 43C18.687 43 18.687 43.352 18.687 43.352V59.9ZM61.99 59.9H63.397V50.394C63.397 50.394 63.397 50.041 62.69 50.041C61.99 50.041 61.99 50.395 61.99 50.395V59.9ZM63.75 47.225C63.75 47.93 63.573 48.108 63.573 48.108C63.573 48.108 63.397 48.283 62.69 48.283C61.99 48.283 61.81 48.108 61.81 48.108C61.81 48.108 61.635 47.93 61.635 47.225C61.635 46.522 61.811 46.345 61.811 46.345C61.811 46.345 61.991 46.17 62.691 46.17C63.398 46.17 63.574 46.346 63.574 46.346C63.574 46.346 63.75 46.521 63.75 47.226V47.225Z" fill="black"/>
</g>
<path d="M4.95495 51.746C4.95495 52.451 5.30795 52.451 5.30795 52.451H10.941C12.704 52.451 12.704 53.861 12.704 54.214V54.564H7.77395C7.06995 54.564 4.25195 54.564 4.25195 57.558V57.911C4.25195 60.901 7.06895 60.901 7.77395 60.901H14.114V54.214C14.114 53.859 14.114 51.044 10.944 51.044H5.30695C5.30695 51.044 4.95395 51.044 4.95395 51.747L4.95495 51.746ZM7.77095 59.492C7.06895 59.492 5.66095 59.492 5.66095 57.908V57.556C5.66095 55.972 7.06895 55.972 7.77095 55.972H12.703V59.492H7.77295H7.77095ZM39.104 51.746C39.104 52.451 39.456 52.451 39.456 52.451H45.089C46.852 52.451 46.852 53.861 46.852 54.214V54.564H41.922C41.219 54.564 38.402 54.564 38.402 57.558V57.911C38.402 60.901 41.217 60.901 41.922 60.901H48.258V54.214C48.258 53.86 48.258 51.044 45.088 51.044H39.454C39.454 51.044 39.102 51.044 39.102 51.747L39.104 51.746ZM41.921 59.492C41.219 59.492 39.811 59.492 39.811 57.908V57.556C39.811 55.972 41.219 55.972 41.921 55.972H46.851V59.492H41.921ZM54.243 60.9H52.833V54.212C52.833 53.857 52.833 51.042 56.003 51.042H58.113C58.113 51.042 58.468 51.042 58.468 51.744C58.468 52.449 58.114 52.449 58.114 52.449H56.004C54.244 52.449 54.244 53.855 54.244 54.209V60.899L54.243 60.9ZM25.374 67.94C26.08 67.94 26.08 67.588 26.08 67.588V60.9H29.6C31.008 60.9 34.53 60.9 34.53 56.674V55.264C34.53 51.041 31.008 51.041 29.6 51.041H24.67V67.59C24.67 67.592 24.67 67.943 25.374 67.943V67.94ZM29.6 52.45C31.008 52.45 33.12 52.45 33.12 55.265V56.675C33.12 59.49 31.008 59.49 29.6 59.49H26.08V52.45H29.6ZM18.687 60.9H20.095V44.352C20.095 44.352 20.095 44 19.39 44C18.687 44 18.687 44.352 18.687 44.352V60.9ZM61.99 60.9H63.397V51.394C63.397 51.394 63.397 51.041 62.69 51.041C61.99 51.041 61.99 51.395 61.99 51.395V60.9ZM63.75 48.225C63.75 48.93 63.573 49.108 63.573 49.108C63.573 49.108 63.397 49.283 62.69 49.283C61.99 49.283 61.81 49.108 61.81 49.108C61.81 49.108 61.635 48.93 61.635 48.225C61.635 47.522 61.811 47.345 61.811 47.345C61.811 47.345 61.991 47.17 62.691 47.17C63.398 47.17 63.574 47.346 63.574 47.346C63.574 47.346 63.75 47.521 63.75 48.226V48.225Z" fill="#363636"/>
<g opacity="0.75">
<path d="M4.95495 50.746C4.95495 51.451 5.30795 51.451 5.30795 51.451H10.941C12.704 51.451 12.704 52.861 12.704 53.214V53.564H7.77395C7.06995 53.564 4.25195 53.564 4.25195 56.558V56.911C4.25195 59.901 7.06895 59.901 7.77395 59.901H14.114V53.214C14.114 52.859 14.114 50.044 10.944 50.044H5.30695C5.30695 50.044 4.95395 50.044 4.95395 50.747L4.95495 50.746ZM7.77095 58.492C7.06895 58.492 5.66095 58.492 5.66095 56.908V56.556C5.66095 54.972 7.06895 54.972 7.77095 54.972H12.703V58.492H7.77295H7.77095ZM39.104 50.746C39.104 51.451 39.456 51.451 39.456 51.451H45.089C46.852 51.451 46.852 52.861 46.852 53.214V53.564H41.922C41.219 53.564 38.402 53.564 38.402 56.558V56.911C38.402 59.901 41.217 59.901 41.922 59.901H48.258V53.214C48.258 52.86 48.258 50.044 45.088 50.044H39.454C39.454 50.044 39.102 50.044 39.102 50.747L39.104 50.746ZM41.921 58.492C41.219 58.492 39.811 58.492 39.811 56.908V56.556C39.811 54.972 41.219 54.972 41.921 54.972H46.851V58.492H41.921ZM54.243 59.9H52.833V53.212C52.833 52.857 52.833 50.042 56.003 50.042H58.113C58.113 50.042 58.468 50.042 58.468 50.744C58.468 51.449 58.114 51.449 58.114 51.449H56.004C54.244 51.449 54.244 52.855 54.244 53.209V59.899L54.243 59.9ZM25.374 66.94C26.08 66.94 26.08 66.588 26.08 66.588V59.9H29.6C31.008 59.9 34.53 59.9 34.53 55.674V54.264C34.53 50.041 31.008 50.041 29.6 50.041H24.67V66.59C24.67 66.592 24.67 66.943 25.374 66.943V66.94ZM29.6 51.45C31.008 51.45 33.12 51.45 33.12 54.265V55.675C33.12 58.49 31.008 58.49 29.6 58.49H26.08V51.45H29.6ZM18.687 59.9H20.095V43.352C20.095 43.352 20.095 43 19.39 43C18.687 43 18.687 43.352 18.687 43.352V59.9ZM61.99 59.9H63.397V50.394C63.397 50.394 63.397 50.041 62.69 50.041C61.99 50.041 61.99 50.395 61.99 50.395V59.9ZM63.75 47.225C63.75 47.93 63.573 48.108 63.573 48.108C63.573 48.108 63.397 48.283 62.69 48.283C61.99 48.283 61.81 48.108 61.81 48.108C61.81 48.108 61.635 47.93 61.635 47.225C61.635 46.522 61.811 46.345 61.811 46.345C61.811 46.345 61.991 46.17 62.691 46.17C63.398 46.17 63.574 46.346 63.574 46.346C63.574 46.346 63.75 46.521 63.75 47.226V47.225Z" fill="black"/>
</g>
<path d="M4.95495 51.746C4.95495 52.451 5.30795 52.451 5.30795 52.451H10.941C12.704 52.451 12.704 53.861 12.704 54.214V54.564H7.77395C7.06995 54.564 4.25195 54.564 4.25195 57.558V57.911C4.25195 60.901 7.06895 60.901 7.77395 60.901H14.114V54.214C14.114 53.859 14.114 51.044 10.944 51.044H5.30695C5.30695 51.044 4.95395 51.044 4.95395 51.747L4.95495 51.746ZM7.77095 59.492C7.06895 59.492 5.66095 59.492 5.66095 57.908V57.556C5.66095 55.972 7.06895 55.972 7.77095 55.972H12.703V59.492H7.77295H7.77095ZM39.104 51.746C39.104 52.451 39.456 52.451 39.456 52.451H45.089C46.852 52.451 46.852 53.861 46.852 54.214V54.564H41.922C41.219 54.564 38.402 54.564 38.402 57.558V57.911C38.402 60.901 41.217 60.901 41.922 60.901H48.258V54.214C48.258 53.86 48.258 51.044 45.088 51.044H39.454C39.454 51.044 39.102 51.044 39.102 51.747L39.104 51.746ZM41.921 59.492C41.219 59.492 39.811 59.492 39.811 57.908V57.556C39.811 55.972 41.219 55.972 41.921 55.972H46.851V59.492H41.921ZM54.243 60.9H52.833V54.212C52.833 53.857 52.833 51.042 56.003 51.042H58.113C58.113 51.042 58.468 51.042 58.468 51.744C58.468 52.449 58.114 52.449 58.114 52.449H56.004C54.244 52.449 54.244 53.855 54.244 54.209V60.899L54.243 60.9ZM25.374 67.94C26.08 67.94 26.08 67.588 26.08 67.588V60.9H29.6C31.008 60.9 34.53 60.9 34.53 56.674V55.264C34.53 51.041 31.008 51.041 29.6 51.041H24.67V67.59C24.67 67.592 24.67 67.943 25.374 67.943V67.94ZM29.6 52.45C31.008 52.45 33.12 52.45 33.12 55.265V56.675C33.12 59.49 31.008 59.49 29.6 59.49H26.08V52.45H29.6ZM18.687 60.9H20.095V44.352C20.095 44.352 20.095 44 19.39 44C18.687 44 18.687 44.352 18.687 44.352V60.9ZM61.99 60.9H63.397V51.394C63.397 51.394 63.397 51.041 62.69 51.041C61.99 51.041 61.99 51.395 61.99 51.395V60.9ZM63.75 48.225C63.75 48.93 63.573 49.108 63.573 49.108C63.573 49.108 63.397 49.283 62.69 49.283C61.99 49.283 61.81 49.108 61.81 49.108C61.81 49.108 61.635 48.93 61.635 48.225C61.635 47.522 61.811 47.345 61.811 47.345C61.811 47.345 61.991 47.17 62.691 47.17C63.398 47.17 63.574 47.346 63.574 47.346C63.574 47.346 63.75 47.521 63.75 48.226V48.225Z" fill="#363636"/>
</g>
</g>
<defs>
<clipPath id="clip0_2_1170">
<rect width="68" height="69" fill="white"/>
</clipPath>
<clipPath id="clip1_2_1170">
<rect width="68" height="69" fill="white"/>
</clipPath>
</defs>
</svg>
