<svg width="100" height="32" viewBox="0 0 100 32" fill="none" xmlns="http://www.w3.org/2000/svg">
<g clip-path="url(#clip0_1_2051)">
<path d="M92.946 0.219971H6.253C6.023 0.219971 5.796 0.227971 5.566 0.227971C5.06995 0.236809 4.57524 0.282602 4.086 0.364971C3.589 0.446971 3.132 0.594971 2.68 0.821971C1.79074 1.2853 1.06533 2.01071 0.602 2.89997C0.372 3.34997 0.227 3.81697 0.145 4.31297C0.055 4.80097 0.023 5.29697 0.008 5.79297C0.008 6.01597 0 6.24297 0 6.47297V23.97C0 24.2 0.008 24.427 0.008 24.657C0.023 25.153 0.054 25.649 0.145 26.137C0.227 26.634 0.375 27.099 0.602 27.551C0.832 27.985 1.122 28.399 1.481 28.742C1.832 29.094 2.235 29.391 2.68 29.613C3.13 29.851 3.589 29.995 4.085 30.086C4.581 30.169 5.077 30.2 5.565 30.216C5.795 30.216 6.023 30.223 6.253 30.223H93.746C93.969 30.223 94.204 30.215 94.426 30.215C94.923 30.2 95.419 30.169 95.907 30.085C96.3992 30.0001 96.8756 29.841 97.32 29.613C97.762 29.391 98.168 29.093 98.52 28.743C98.8725 28.3934 99.1687 27.9913 99.398 27.551C99.628 27.101 99.773 26.634 99.855 26.138C99.9381 25.6488 99.9839 25.1541 99.992 24.658V23.97C100 23.704 100 23.435 100 23.161V7.28197C100 7.00797 100 6.73897 99.992 6.47297V5.79297C99.9839 5.29688 99.9381 4.80213 99.855 4.31297C99.7754 3.82147 99.6213 3.34498 99.398 2.89997C98.9348 2.01063 98.2093 1.2852 97.32 0.821971C96.8756 0.597137 96.3989 0.442952 95.907 0.364971C95.4178 0.281897 94.9231 0.236099 94.427 0.227971C94.204 0.227971 93.969 0.219971 93.747 0.219971L92.946 0.219971Z" fill="#6B7280"/>
<path d="M34.06 19.25L32.395 14.754L30.739 19.249H34.059L34.06 19.25ZM28.259 22.585L31.709 13.547H33.09L36.54 22.585H35.266L34.442 20.265H30.372L29.548 22.585H28.258H28.259ZM38.883 21.57V25.164H37.77V15.805H38.883V16.828C39.118 16.425 39.413 16.128 39.769 15.934C40.131 15.735 40.557 15.637 41.051 15.637C41.875 15.637 42.544 15.966 43.059 16.622C43.578 17.272 43.836 18.133 43.836 19.202C43.836 20.267 43.578 21.125 43.059 21.784C42.544 22.435 41.875 22.761 41.051 22.761C40.557 22.761 40.131 22.665 39.769 22.471C39.413 22.272 39.119 21.971 38.883 21.57ZM42.676 19.203C42.676 18.383 42.506 17.74 42.165 17.273C41.834 16.805 41.374 16.57 40.782 16.57C40.193 16.57 39.726 16.805 39.384 17.273C39.049 17.74 38.881 18.383 38.881 19.203C38.881 20.022 39.049 20.665 39.384 21.133C39.725 21.595 40.191 21.828 40.782 21.828C41.372 21.828 41.834 21.595 42.165 21.133C42.505 20.665 42.676 20.022 42.676 19.203ZM46.761 21.57V25.164H45.64V15.805H46.761V16.828C46.996 16.425 47.288 16.128 47.639 15.934C48.001 15.735 48.43 15.637 48.929 15.637C49.748 15.637 50.414 15.966 50.929 16.622C51.448 17.272 51.706 18.133 51.706 19.202C51.706 20.267 51.448 21.125 50.929 21.784C50.414 22.435 49.748 22.761 48.929 22.761C48.43 22.761 48.001 22.665 47.639 22.471C47.289 22.272 46.994 21.971 46.761 21.57ZM50.546 19.203C50.546 18.383 50.376 17.74 50.035 17.273C49.704 16.805 49.245 16.57 48.652 16.57C48.063 16.57 47.596 16.805 47.255 17.273C46.924 17.74 46.758 18.383 46.758 19.203C46.758 20.022 46.924 20.665 47.255 21.133C47.595 21.595 48.061 21.828 48.652 21.828C49.242 21.828 49.704 21.595 50.035 21.133C50.375 20.665 50.546 20.022 50.546 19.203ZM59.721 21.296V18.87H57.73V17.862H60.937V21.748C60.464 22.084 59.942 22.337 59.371 22.51C58.805 22.678 58.201 22.76 57.554 22.76C56.139 22.76 55.033 22.347 54.234 21.523C53.441 20.699 53.044 19.549 53.044 18.073C53.044 16.598 53.441 15.449 54.234 14.624C55.033 13.795 56.141 13.379 57.554 13.379C58.144 13.379 58.702 13.454 59.226 13.601C59.747 13.7375 60.2439 13.9537 60.699 14.242V15.547C60.2724 15.1755 59.7844 14.8812 59.257 14.677C58.7452 14.483 58.2022 14.3847 57.655 14.387C56.552 14.387 55.72 14.694 55.159 15.309C54.609 15.929 54.335 16.852 54.335 18.071C54.335 19.291 54.609 20.211 55.159 20.826C55.72 21.44 56.552 21.748 57.655 21.748C58.087 21.748 58.475 21.712 58.815 21.642C59.1338 21.5758 59.439 21.459 59.721 21.296ZM67.271 19.172H66.165C65.263 19.172 64.641 19.275 64.295 19.485C63.948 19.689 63.775 20.04 63.775 20.539C63.775 20.937 63.905 21.252 64.165 21.484C64.424 21.714 64.778 21.828 65.227 21.828C65.847 21.828 66.343 21.608 66.715 21.172C67.088 20.735 67.273 20.152 67.273 19.422V19.172H67.271ZM68.385 18.715V22.585H67.27V21.555C67.0434 21.9403 66.7164 22.2569 66.324 22.471C65.942 22.665 65.477 22.761 64.926 22.761C64.234 22.761 63.681 22.567 63.27 22.179C62.862 21.787 62.66 21.262 62.66 20.606C62.66 19.849 62.914 19.273 63.423 18.88C63.937 18.492 64.699 18.299 65.712 18.299H67.27V18.193C67.27 17.679 67.102 17.281 66.766 17.002C66.43 16.722 65.957 16.583 65.348 16.583C64.96 16.583 64.585 16.63 64.218 16.72C63.852 16.81 63.498 16.953 63.157 17.139V16.108C63.5428 15.9568 63.941 15.8391 64.347 15.756C64.7129 15.676 65.0864 15.6354 65.461 15.635C66.443 15.635 67.177 15.888 67.661 16.397C68.143 16.911 68.383 17.681 68.383 18.715H68.385ZM70.681 22.585V13.167H71.795V22.585H70.681ZM74.126 22.585V13.167H75.239V22.585H74.126ZM83.336 18.914V19.464H78.216C78.262 20.226 78.49 20.813 78.903 21.218C79.319 21.616 79.898 21.813 80.637 21.813C81.063 21.813 81.477 21.761 81.874 21.66C82.2913 21.5503 82.6941 21.3915 83.074 21.187V22.241C82.6768 22.4085 82.2651 22.5391 81.844 22.631C81.427 22.717 81.001 22.761 80.57 22.761C79.49 22.761 78.634 22.445 77.996 21.815C77.366 21.19 77.05 20.34 77.05 19.265C77.05 18.151 77.35 17.27 77.952 16.625C78.552 15.968 79.362 15.64 80.378 15.64C81.29 15.64 82.008 15.934 82.538 16.526C83.071 17.11 83.337 17.906 83.337 18.913L83.336 18.914ZM78.246 18.594H82.223C82.213 17.984 82.04 17.495 81.703 17.128C81.373 16.766 80.933 16.586 80.383 16.586C79.763 16.586 79.265 16.761 78.888 17.113C78.515 17.464 78.304 17.958 78.247 18.593L78.246 18.594ZM89.046 15.699L89.055 16.844C88.9253 16.7712 88.7859 16.7173 88.641 16.684C88.4837 16.6469 88.3225 16.6288 88.161 16.63C87.531 16.63 87.044 16.836 86.703 17.247C86.368 17.655 86.199 18.242 86.199 19.009V22.582H85.086V15.805H86.2V16.86C86.4098 16.4713 86.7285 16.1522 87.117 15.942C87.494 15.738 87.949 15.637 88.484 15.637C88.561 15.637 88.646 15.645 88.742 15.661C88.832 15.666 88.935 15.679 89.046 15.699ZM96.023 15.805L93.046 23.21C92.731 24.019 92.424 24.549 92.124 24.797C91.824 25.042 91.424 25.164 90.925 25.164H90.031V24.234H90.687C90.992 24.234 91.233 24.159 91.406 24.011C91.574 23.869 91.76 23.525 91.964 22.981L92.171 22.476L89.421 15.806H90.605L92.726 21.102L94.84 15.805H96.023ZM28.19 10.372V5.70797H31.135V6.23497H28.815V7.61697H31.037V8.15197H28.815V9.83997H31.197V10.375H28.189V10.373L28.19 10.372ZM33.458 7.88297L32.008 5.70797H32.688L33.848 7.44197L35.008 5.70797H35.688L34.19 7.94497L35.785 10.372H35.105L33.8 8.38697L32.472 10.372H31.792L33.458 7.88297ZM38.036 6.22697H37.243V7.97697H38.036C38.331 7.97697 38.561 7.90197 38.723 7.75397C38.881 7.60197 38.961 7.38197 38.961 7.09797C38.961 6.82397 38.881 6.60997 38.723 6.45797C38.561 6.30497 38.331 6.22697 38.036 6.22697ZM36.618 10.372V5.70797H38.036C38.561 5.70797 38.956 5.82397 39.227 6.05897C39.491 6.29897 39.625 6.64297 39.625 7.09797C39.625 7.56097 39.493 7.90897 39.227 8.14397C38.959 8.37997 38.561 8.49597 38.037 8.49597H37.243V10.374H36.618V10.372ZM40.473 10.372V5.70797H41.106V9.83697H43.379V10.372H40.473ZM45.707 6.13697C45.25 6.13697 44.883 6.30697 44.609 6.64797C44.346 6.98897 44.211 7.45497 44.211 8.04597C44.211 8.62997 44.343 9.09797 44.609 9.44397C44.883 9.78497 45.25 9.95597 45.707 9.95597C46.165 9.95597 46.527 9.78597 46.79 9.44397C47.059 9.09797 47.196 8.63297 47.196 8.04597C47.196 7.45697 47.061 6.98997 46.79 6.64797C46.526 6.30497 46.165 6.13697 45.707 6.13697ZM45.707 5.62497C46.358 5.62497 46.88 5.84497 47.273 6.28197C47.666 6.71797 47.86 7.30697 47.86 8.04397C47.86 8.78297 47.663 9.36897 47.273 9.80597C46.88 10.242 46.358 10.462 45.707 10.462C45.051 10.462 44.524 10.242 44.127 9.80597C43.733 9.36897 43.54 8.77997 43.54 8.04397C43.54 7.30397 43.736 6.71797 44.126 6.28197C44.524 5.84197 45.051 5.62497 45.707 5.62497ZM51.058 8.18097C51.2151 8.24202 51.3527 8.34469 51.456 8.47797C51.583 8.62497 51.712 8.83197 51.846 9.09497L52.487 10.369H51.807L51.213 9.16997C51.056 8.85997 50.906 8.65297 50.763 8.55297C50.617 8.45197 50.417 8.39997 50.17 8.39997H49.482V10.37H48.849V5.70697H50.275C50.81 5.70697 51.208 5.81797 51.475 6.04297C51.733 6.26297 51.865 6.59797 51.865 7.05097C51.865 7.34497 51.795 7.59097 51.658 7.78397C51.5102 7.98183 51.298 8.12289 51.058 8.18097ZM50.273 6.22697H49.48V7.88297H50.273C50.578 7.88297 50.808 7.81097 50.96 7.66897C51.118 7.52697 51.198 7.31997 51.198 7.05197C51.198 6.77797 51.118 6.57097 50.96 6.43397C50.808 6.29697 50.578 6.22697 50.273 6.22697ZM53.296 10.372V5.70797H56.241V6.23497H53.93V7.61697H56.152V8.15197H53.93V9.83997H56.304V10.375H53.297V10.373L53.296 10.372ZM59.37 10.372V5.70797H60.003V10.372H59.37ZM60.616 6.23497V5.70797H64.561V6.23497H62.905V10.372H62.272V6.23497H60.616ZM69.096 6.13697C68.638 6.13697 68.274 6.30697 68.006 6.64797C67.736 6.98897 67.6 7.45497 67.6 8.04597C67.6 8.62997 67.734 9.09797 68.005 9.44397C68.274 9.78497 68.638 9.95597 69.095 9.95597C69.553 9.95597 69.917 9.78597 70.185 9.44397C70.449 9.09797 70.584 8.63297 70.584 8.04597C70.584 7.45697 70.452 6.98997 70.186 6.64797C69.917 6.30497 69.553 6.13697 69.096 6.13697ZM69.096 5.62497C69.752 5.62497 70.276 5.84497 70.669 6.28197C71.062 6.71797 71.256 7.30697 71.256 8.04397C71.256 8.78297 71.059 9.36897 70.669 9.80597C70.279 10.242 69.752 10.462 69.096 10.462C68.439 10.462 67.915 10.242 67.522 9.80597C67.129 9.36897 66.935 8.77997 66.935 8.04397C66.935 7.30397 67.132 6.71797 67.522 6.28197C67.915 5.84197 68.44 5.62497 69.096 5.62497ZM72.24 10.372V5.70797H73.087L75.157 9.60897V5.70797H75.775V10.372H74.919L72.85 6.46997V10.372H72.24Z" fill="white"/>
<path d="M20.2048 5.72296H11.9008C7.9838 5.72296 6.5498 7.14896 6.5498 11.066V19.37C6.5498 23.287 7.9838 24.721 11.8998 24.721H20.2048C24.1148 24.721 25.5478 23.287 25.5478 19.371V11.066C25.5478 7.14896 24.1218 5.72296 20.2048 5.72296Z" fill="#CE152D"/>
<path fill-rule="evenodd" clip-rule="evenodd" d="M14.6578 17.187L14.4278 17.699H13.9158L15.0058 15.219H15.4478L16.5378 17.699H16.0118L15.7888 17.187H14.6578ZM14.8378 16.737H15.6008L15.2178 15.852L14.8378 16.737ZM22.9318 15.22H23.4358V17.7H22.9318V15.22ZM20.9548 17.25H22.3378V17.7H20.4588V15.22H22.2838V15.677H20.9548V16.181H21.8728V16.638H20.9548V17.25ZM19.5258 15.22H20.0528L19.1898 17.708H18.7628L18.1978 16.075L17.6318 17.708H17.2178L16.3478 15.22H16.8898L17.4398 16.93L17.9988 15.22H18.4118L18.9778 16.93L19.5258 15.22ZM13.1538 15.22H13.6578V16.625C13.6578 17.335 13.2678 17.747 12.5808 17.747C11.9088 17.747 11.5178 17.341 11.5178 16.641V15.22H12.0218V16.626C12.0218 17.044 12.2218 17.266 12.5878 17.266C12.9548 17.266 13.1538 17.044 13.1538 16.641V15.22ZM10.3138 15.22H10.8178V17.708H10.3148V16.69H9.17783V17.706H8.67383V15.218H9.17783V16.218H10.3138V15.218V15.22ZM16.0528 12.06C15.2147 12.06 14.411 11.727 13.8184 11.1344C13.2258 10.5418 12.8928 9.73805 12.8928 8.89996H13.3348C13.3348 9.62082 13.6212 10.3122 14.1309 10.8219C14.6406 11.3316 15.332 11.618 16.0528 11.618C16.7737 11.618 17.465 11.3316 17.9747 10.8219C18.4845 10.3122 18.7708 9.62082 18.7708 8.89996H19.2128C19.2112 9.73756 18.8778 10.5404 18.2855 11.1327C17.6933 11.7249 16.8904 12.0584 16.0528 12.06Z" fill="white"/>
</g>
<defs>
<clipPath id="clip0_1_2051">
<rect width="100" height="31" fill="white" transform="translate(0 0.219971)"/>
</clipPath>
</defs>
</svg>
