<svg width="100" height="31" viewBox="0 0 100 31" fill="none" xmlns="http://www.w3.org/2000/svg">
<g clip-path="url(#clip0_1_2030)">
<path d="M3.689 0.219971H96.31C98.323 0.219971 100 1.92497 100 3.96997V26.47C100 28.516 98.323 30.22 96.311 30.22H3.69C1.677 30.22 0 28.516 0 26.47V3.96997C0 1.92497 1.677 0.219971 3.689 0.219971Z" fill="#9CA3AF"/>
<path d="M3.689 0.219971H96.31C98.323 0.219971 100 1.92497 100 3.96997V26.47C100 28.516 98.323 30.22 96.311 30.22H3.69C1.677 30.22 0 28.516 0 26.47V3.96997C0 1.92497 1.677 0.219971 3.689 0.219971Z" fill="#6B7280"/>
<path d="M53.5909 10.174C52.9089 10.174 52.2959 9.90098 51.8859 9.42398C51.4089 9.01398 51.1359 8.33398 51.1359 7.71898C51.1359 7.03798 51.4089 6.42398 51.8859 6.01498C52.0895 5.78049 52.3409 5.59225 52.6232 5.46289C52.9056 5.33354 53.2123 5.26606 53.5229 5.26498C54.2049 5.26498 54.8179 5.53798 55.2269 6.01498C55.7049 6.49198 55.9769 7.03798 55.9769 7.71898C55.9089 8.40098 55.7049 8.94698 55.2269 9.42398C55.0234 9.65835 54.7721 9.84652 54.49 9.97587C54.2078 10.1052 53.9013 10.1728 53.5909 10.174ZM33.3409 10.174C32.7269 10.174 32.1139 9.90098 31.6369 9.42398C31.1589 9.01398 30.9549 8.40098 30.9549 7.71898C30.9549 7.03798 31.1589 6.42398 31.6369 6.01498C32.1139 5.53798 32.6589 5.26498 33.3409 5.26498C33.6819 5.26498 34.0229 5.33298 34.2959 5.46898C34.6359 5.60598 34.8409 5.80998 35.0459 6.01498L35.1139 6.08298L34.5679 6.55998L34.4999 6.49198C34.2269 6.15198 33.8859 6.01498 33.3409 6.01498C32.8639 6.01498 32.5229 6.15098 32.1819 6.49198C31.8419 6.76498 31.7049 7.24198 31.7049 7.71898C31.7049 8.19698 31.8409 8.67398 32.1819 8.94698C32.5219 9.28698 32.8639 9.42398 33.3419 9.42398C33.8179 9.42398 34.2279 9.28798 34.5679 8.94698C34.7729 8.80998 34.8409 8.53698 34.9089 8.19698H33.2729V7.51498H35.5909V7.58298C35.5909 7.65098 35.6589 7.78798 35.6589 7.92398C35.6589 8.53798 35.4549 9.08398 35.0459 9.42398C34.6359 9.90098 34.0229 10.174 33.3409 10.174ZM60.2049 10.038H59.5229L57.2729 6.55998L57.3409 7.17398V10.038H56.5909V5.39998H57.4769L59.5229 8.74098V5.40098H60.2049V10.038ZM48.2049 10.038H47.4549V6.08298H46.1589V5.40098H49.4319V6.08298H48.2049V10.038ZM45.6139 10.038H44.8639V5.39998H45.6139V10.038ZM41.5229 10.038H40.8409V6.08298H39.5459V5.40098H42.8179V6.08298H41.5229V10.038ZM39.0679 10.038H36.3409V5.39998H39.0679V6.08198H37.0229V7.37998H38.8629V8.06098H37.0229V9.35698H39.0679V10.039V10.038ZM52.3639 8.94698C52.7039 9.28698 53.1139 9.42398 53.5909 9.42398C54.0009 9.42398 54.4089 9.28798 54.7509 8.94698C55.0229 8.60598 55.2269 8.19698 55.2269 7.71898C55.2269 7.24198 55.0229 6.76498 54.7499 6.49198C54.4099 6.15198 53.9999 6.01498 53.5909 6.01498C53.1139 6.01498 52.7049 6.15098 52.3639 6.49198C52.0909 6.83298 51.8869 7.24198 51.8869 7.71898C51.8869 8.19698 52.0909 8.67398 52.3639 8.94698ZM51.0679 16.515C49.3639 16.515 47.9319 17.879 47.9319 19.719C47.9319 21.56 49.3639 22.924 51.0679 22.924C52.8409 22.924 54.2729 21.56 54.2729 19.72C54.2729 17.879 52.8409 16.515 51.0679 16.515ZM51.0679 21.629C50.1139 21.629 49.2959 20.879 49.2959 19.719C49.2959 18.56 50.1139 17.81 51.0679 17.81C52.0909 17.81 52.9089 18.56 52.9089 19.72C52.9089 20.879 52.0899 21.629 51.0679 21.629ZM44.1139 16.515C42.3409 16.515 40.9089 17.879 40.9089 19.719C40.9089 21.56 42.3409 22.924 44.1139 22.924C45.8869 22.924 47.3179 21.56 47.3179 19.72C47.3179 17.879 45.8869 16.515 44.1139 16.515ZM44.1139 21.629C43.1589 21.629 42.3409 20.879 42.3409 19.719C42.3409 18.56 43.1589 17.81 44.1139 17.81C45.0679 17.81 45.8869 18.56 45.8869 19.72C45.8869 20.879 45.0679 21.629 44.1139 21.629ZM35.7959 17.538V18.833H39.0679C38.9319 19.651 38.7279 20.197 38.3179 20.538C37.8409 21.015 37.0909 21.56 35.7959 21.56C33.8179 21.56 32.2499 19.924 32.2499 17.947C32.2499 15.969 33.8179 14.333 35.7959 14.333C36.8859 14.333 37.7049 14.743 38.2499 15.288L39.2049 14.333C38.3859 13.583 37.3639 12.969 35.7949 12.969C33.0679 12.969 30.8179 15.219 30.8179 17.947C30.8179 20.674 33.0679 22.924 35.7959 22.924C37.2959 22.924 38.3859 22.379 39.2729 21.492C40.1589 20.606 40.4319 19.379 40.4319 18.356C40.4319 18.015 40.4319 17.742 40.3639 17.47H35.7959V17.538ZM69.8179 18.56C69.5459 17.879 68.7279 16.515 67.0909 16.515C65.3869 16.515 64.0229 17.81 64.0229 19.719C64.0229 21.492 65.3869 22.924 67.2269 22.924C67.7547 22.927 68.2748 22.7975 68.7395 22.5473C69.2043 22.2971 69.5988 21.9342 69.8869 21.492L68.7959 20.742C68.4549 21.288 67.9089 21.629 67.2269 21.629C66.4769 21.629 65.9999 21.356 65.6589 20.674L69.9549 18.901L69.8179 18.56ZM65.4549 19.651C65.3859 18.424 66.4089 17.742 67.0909 17.742C67.6369 17.742 68.1139 18.015 68.3179 18.424L65.4549 19.651ZM61.9779 22.72H63.4089V13.379H61.9779V22.72ZM59.6589 17.265H59.5909C59.3179 16.855 58.7049 16.515 57.9549 16.515C56.3179 16.515 54.8859 17.947 54.8859 19.719C54.8859 21.492 56.3179 22.924 57.9549 22.924C58.7049 22.924 59.3179 22.584 59.5909 22.174H59.6589V22.651C59.6589 23.879 59.0459 24.492 57.9549 24.492C57.1359 24.492 56.5909 23.879 56.3859 23.402L55.1589 23.879C55.4999 24.697 56.4549 25.788 57.9549 25.788C59.5909 25.788 61.0229 24.833 61.0229 22.447V16.72H59.6589V17.265ZM58.0909 21.629C57.0679 21.629 56.3179 20.879 56.3179 19.719C56.3179 18.629 57.0679 17.81 58.0909 17.81C59.0459 17.81 59.7959 18.629 59.7959 19.72C59.7959 20.879 59.0459 21.629 58.0909 21.629ZM76.3639 13.379H73.0229V22.719H74.3869V19.174H76.3639C77.9319 19.174 79.4319 18.014 79.4319 16.242C79.4319 14.47 77.9319 13.379 76.3639 13.379ZM76.3639 17.879H74.3859V14.674H76.3639C77.4539 14.674 78.0679 15.492 78.0679 16.242C78.0679 16.992 77.4549 17.879 76.3639 17.879ZM85.0229 16.515C83.9999 16.515 82.9769 16.992 82.5679 17.947L83.7959 18.492C84.0679 17.947 84.5459 17.742 85.0909 17.742C85.7729 17.742 86.5229 18.22 86.5229 18.97V19.106C86.0878 18.8506 85.5952 18.7095 85.0909 18.696C83.7279 18.696 82.3639 19.446 82.3639 20.81C82.3639 22.106 83.4539 22.924 84.6819 22.924C85.6359 22.924 86.1819 22.447 86.4549 21.97H86.5229V22.72H87.8869V19.106C87.8869 17.47 86.6589 16.515 85.0229 16.515ZM84.8869 21.629C84.4089 21.629 83.7959 21.424 83.7959 20.879C83.7959 20.129 84.5459 19.856 85.2269 19.856C85.8409 19.856 86.1819 19.992 86.5229 20.196C86.4549 21.015 85.7049 21.629 84.8869 21.629ZM92.7959 16.719L91.2269 20.81H91.1589L89.4549 16.72H87.9549L90.4779 22.379L89.0459 25.583H90.4769L94.3639 16.72L92.7959 16.719ZM80.1819 22.719H81.6139V13.379H80.1819V22.719Z" fill="white"/>
<path d="M7.84 5.87897C7.636 6.08397 7.5 6.49297 7.5 6.90197V23.538C7.5 23.948 7.636 24.356 7.84 24.561L7.91 24.629L17.182 15.289V15.083L7.909 5.81097L7.84 5.87897Z" fill="url(#paint0_linear_1_2030)"/>
<path d="M20.2501 18.424L17.1821 15.356V15.083L20.2501 12.015L20.3181 12.083L24.0001 14.13C25.0901 14.743 25.0901 15.698 24.0001 16.311L20.3181 18.357L20.2501 18.424Z" fill="url(#paint1_linear_1_2030)"/>
<path d="M20.3178 18.356L17.1818 15.22L7.83984 24.56C8.17984 24.97 8.72584 24.97 9.40784 24.63L20.3178 18.356Z" fill="url(#paint2_linear_1_2030)"/>
<path d="M20.3178 12.084L9.4098 5.81097C8.7278 5.47097 8.1828 5.53897 7.8418 5.87997L17.1798 15.22L20.3168 12.084H20.3178Z" fill="url(#paint3_linear_1_2030)"/>
<path opacity="0.2" d="M20.2498 18.288L9.40882 24.493C8.79482 24.833 8.24882 24.833 7.90882 24.493L7.84082 24.561L7.90882 24.629C8.24882 24.902 8.79482 24.97 9.40882 24.629L20.3188 18.357L20.2498 18.288Z" fill="white"/>
<path opacity="0.1" d="M24 16.174L20.25 18.288L20.318 18.356L24 16.311C24.546 15.97 24.75 15.629 24.75 15.22C24.75 15.56 24.477 15.902 24 16.174Z" fill="white"/>
<path opacity="0.3" d="M9.41 5.94696L24 14.265C24.477 14.538 24.75 14.879 24.818 15.22C24.818 14.81 24.545 14.47 24 14.129L9.41 5.81096C8.317 5.19696 7.5 5.74296 7.5 6.89996V7.03696C7.5 5.80996 8.318 5.33296 9.41 5.94696Z" fill="white"/>
</g>
<defs>
<linearGradient id="paint0_linear_1_2030" x1="16.364" y1="6.76497" x2="1.432" y2="10.72" gradientUnits="userSpaceOnUse">
<stop stop-color="#00A0FF"/>
<stop offset="0.007" stop-color="#00A1FF"/>
<stop offset="0.26" stop-color="#00BEFF"/>
<stop offset="0.512" stop-color="#00D2FF"/>
<stop offset="0.76" stop-color="#00DFFF"/>
<stop offset="1" stop-color="#00E3FF"/>
</linearGradient>
<linearGradient id="paint1_linear_1_2030" x1="25.3631" y1="15.219" x2="7.22713" y2="15.219" gradientUnits="userSpaceOnUse">
<stop stop-color="#FFE000"/>
<stop offset="0.409" stop-color="#FFBD00"/>
<stop offset="0.775" stop-color="#FFA500"/>
<stop offset="1" stop-color="#FF9C00"/>
</linearGradient>
<linearGradient id="paint2_linear_1_2030" x1="18.6138" y1="16.924" x2="6.68184" y2="37.038" gradientUnits="userSpaceOnUse">
<stop stop-color="#FF3A44"/>
<stop offset="1" stop-color="#C31162"/>
</linearGradient>
<linearGradient id="paint3_linear_1_2030" x1="5.4538" y1="0.356967" x2="10.7728" y2="9.35697" gradientUnits="userSpaceOnUse">
<stop stop-color="#32A071"/>
<stop offset="0.069" stop-color="#2DA771"/>
<stop offset="0.476" stop-color="#15CF74"/>
<stop offset="0.801" stop-color="#06E775"/>
<stop offset="1" stop-color="#00F076"/>
</linearGradient>
<clipPath id="clip0_1_2030">
<rect width="100" height="30" fill="white" transform="translate(0 0.219971)"/>
</clipPath>
</defs>
</svg>
