<svg width="50" height="32" viewBox="0 0 50 32" fill="none" xmlns="http://www.w3.org/2000/svg">
<g clip-path="url(#clip0_1_2059)">
<path d="M46 0.221985H4C1.79086 0.221985 0 2.01285 0 4.22198V26.222C0 28.4311 1.79086 30.222 4 30.222H46C48.2091 30.222 50 28.4311 50 26.222V4.22198C50 2.01285 48.2091 0.221985 46 0.221985Z" fill="#6B7280"/>
<path d="M28.765 9.21997L21 9.24297L21.235 21.22L29 21.198L28.765 9.21997Z" fill="#FF5F00"/>
<path d="M21.8599 15.214C21.8366 14.0104 22.0882 12.8173 22.5956 11.7255C23.103 10.6338 23.8528 9.67224 24.7879 8.914C23.3755 7.81198 21.6343 7.21551 19.8429 7.22C18.798 7.22174 17.7639 7.43194 16.8012 7.8383C15.8386 8.24465 14.9667 8.83899 14.2366 9.5865C13.5065 10.334 12.9329 11.2197 12.5493 12.1917C12.1658 13.1636 11.98 14.2023 12.0029 15.247C12.0759 19.669 15.7029 23.235 20.1119 23.22C21.8904 23.217 23.6146 22.6074 24.9999 21.492C24.04 20.7472 23.2596 19.7965 22.7161 18.71C22.1727 17.6234 21.8801 16.4287 21.8599 15.214Z" fill="#EB001B"/>
<path d="M37.999 15.193C38.0219 16.2376 37.8361 17.2763 37.4526 18.2483C37.069 19.2203 36.4954 20.1059 35.7653 20.8534C35.0352 21.601 34.1633 22.1953 33.2006 22.6017C32.238 23.008 31.2039 23.2182 30.159 23.22C28.3669 23.2247 26.625 22.6283 25.212 21.526C27.048 20.053 28.184 17.782 28.141 15.226C28.1181 14.0118 27.8242 12.8181 27.2808 11.732C26.7373 10.646 25.9581 9.69517 25 8.94896C26.3856 7.83276 28.1107 7.22281 29.89 7.21996C34.298 7.20496 37.925 10.793 37.999 15.193Z" fill="#F79E1B"/>
</g>
<defs>
<clipPath id="clip0_1_2059">
<rect width="50" height="31" fill="white" transform="translate(0 0.219971)"/>
</clipPath>
</defs>
</svg>
