<svg width="220" height="24" viewBox="0 0 220 24" fill="none" xmlns="http://www.w3.org/2000/svg">
<g clip-path="url(#clip0_1_1930)">
<path d="M23.3193 0H0.0493164V23.27H23.3193V0Z" fill="#219653"/>
<path d="M48.5283 0H25.2583V23.27H48.5283V0Z" fill="#219653"/>
<path d="M73.7378 0H50.4678V23.27H73.7378V0Z" fill="#219653"/>
<path d="M98.9468 0H75.6768V23.27H98.9468V0Z" fill="#219653"/>
<path d="M124.157 0H100.886V23.27H124.157V0Z" fill="#D9D9D9"/>
<path d="M112.327 0H100.886V23.27H112.327V0Z" fill="#219653"/>
<path d="M11.6841 15.6829L15.223 14.7861L16.7016 19.3432L11.6841 15.6829ZM19.8285 9.79274H13.599L11.6841 3.92676L9.76913 9.79274H3.53955L8.58139 13.4286L6.66646 19.2947L11.7083 15.6587L14.8109 13.4286L19.8285 9.79274Z" fill="white"/>
<path d="M36.893 15.6829L40.4321 14.7861L41.9106 19.3432L36.893 15.6829ZM45.0375 9.79274H38.8079L36.893 3.92676L34.9781 9.79274H28.7485L33.7903 13.4286L31.8754 19.2947L36.9172 15.6587L40.0199 13.4286L45.0375 9.79274Z" fill="white"/>
<path d="M62.1025 15.6829L65.6414 14.7861L67.1201 19.3432L62.1025 15.6829ZM70.247 9.79274H64.0174L62.1025 3.92676L60.1875 9.79274H53.958L58.9998 13.4286L57.0849 19.2947L62.1267 15.6587L65.2294 13.4286L70.247 9.79274Z" fill="white"/>
<path d="M87.3115 15.6829L90.8505 14.7861L92.3291 19.3432L87.3115 15.6829ZM95.456 9.79274H89.2265L87.3115 3.92676L85.3966 9.79274H79.167L84.2089 13.4286L82.2939 19.2947L87.3358 15.6587L90.4384 13.4286L95.456 9.79274Z" fill="white"/>
<path d="M112.52 15.6829L116.059 14.7861L117.538 19.3432L112.52 15.6829ZM120.665 9.79274H114.435L112.52 3.92676L110.606 9.79274H104.376L109.418 13.4286L107.503 19.2947L112.545 15.6587L115.647 13.4286L120.665 9.79274Z" fill="white"/>
<path d="M147.426 15.683L150.964 14.7861L152.443 19.3431L147.426 15.683ZM155.571 9.79274H149.34L147.426 3.92676L145.511 9.79274H139.282L144.323 13.4287L142.408 19.2946L147.45 15.6587L150.553 13.4287L155.571 9.79274Z" fill="#219653"/>
<path d="M218.895 8.91261V9.88067H214.907V8.91261H218.895ZM216.257 7.11963H217.518V14.462C217.518 14.7119 217.557 14.9005 217.633 15.0278C217.711 15.1551 217.811 15.2392 217.934 15.28C218.057 15.321 218.188 15.3413 218.329 15.3413C218.434 15.3413 218.543 15.3323 218.656 15.3141C218.775 15.2914 218.863 15.2733 218.922 15.2595L218.929 16.289C218.829 16.3208 218.697 16.3503 218.534 16.3777C218.374 16.4094 218.181 16.4254 217.954 16.4254C217.645 16.4254 217.361 16.3641 217.102 16.2413C216.843 16.1186 216.636 15.914 216.481 15.6277C216.331 15.3368 216.257 14.946 216.257 14.4551V7.11963Z" fill="black"/>
<path d="M207.51 12.6827V12.5259C207.51 11.9942 207.588 11.5011 207.741 11.0466C207.896 10.5875 208.119 10.1898 208.41 9.85351C208.701 9.51264 209.053 9.24904 209.467 9.06269C209.88 8.87181 210.344 8.77637 210.857 8.77637C211.376 8.77637 211.841 8.87181 212.255 9.06269C212.673 9.24904 213.027 9.51264 213.318 9.85351C213.613 10.1898 213.839 10.5875 213.994 11.0466C214.148 11.5011 214.225 11.9942 214.225 12.5259V12.6827C214.225 13.2145 214.148 13.7075 213.994 14.1621C213.839 14.6166 213.613 15.0143 213.318 15.3552C213.027 15.6914 212.676 15.9551 212.261 16.146C211.853 16.3323 211.389 16.4255 210.871 16.4255C210.353 16.4255 209.887 16.3323 209.474 16.146C209.06 15.9551 208.706 15.6914 208.41 15.3552C208.119 15.0143 207.896 14.6166 207.741 14.1621C207.588 13.7075 207.51 13.2145 207.51 12.6827ZM208.771 12.5259V12.6827C208.771 13.0509 208.814 13.3985 208.901 13.7258C208.987 14.0485 209.117 14.3348 209.29 14.5848C209.467 14.8347 209.687 15.0324 209.951 15.1779C210.214 15.3188 210.521 15.3893 210.871 15.3893C211.217 15.3893 211.519 15.3188 211.777 15.1779C212.042 15.0324 212.259 14.8347 212.433 14.5848C212.605 14.3348 212.734 14.0485 212.821 13.7258C212.912 13.3985 212.957 13.0509 212.957 12.6827V12.5259C212.957 12.1623 212.912 11.8192 212.821 11.4965C212.734 11.1693 212.602 10.8807 212.426 10.6307C212.252 10.3762 212.035 10.1762 211.77 10.0308C211.512 9.88532 211.207 9.8126 210.857 9.8126C210.512 9.8126 210.208 9.88532 209.944 10.0308C209.684 10.1762 209.467 10.3762 209.29 10.6307C209.117 10.8807 208.987 11.1693 208.901 11.4965C208.814 11.8192 208.771 12.1623 208.771 12.5259Z" fill="black"/>
<path d="M205.819 5.81738V16.2889H204.551V5.81738H205.819Z" fill="black"/>
<path d="M202.424 8.91262V16.289H201.155V8.91262H202.424ZM201.06 6.95603C201.06 6.7515 201.122 6.5788 201.244 6.4379C201.372 6.29701 201.558 6.22656 201.804 6.22656C202.044 6.22656 202.228 6.29701 202.356 6.4379C202.488 6.5788 202.553 6.7515 202.553 6.95603C202.553 7.15145 202.488 7.31962 202.356 7.46051C202.228 7.59686 202.044 7.66503 201.804 7.66503C201.558 7.66503 201.372 7.59686 201.244 7.46051C201.122 7.31962 201.06 7.15145 201.06 6.95603Z" fill="black"/>
<path d="M194.475 10.3307V19.1252H193.207V8.91272H194.365L194.475 10.3307ZM199.445 12.5395V12.6827C199.445 13.219 199.381 13.7167 199.254 14.1757C199.126 14.6302 198.94 15.0257 198.695 15.3619C198.454 15.6983 198.156 15.9596 197.802 16.146C197.447 16.3323 197.04 16.4255 196.582 16.4255C196.113 16.4255 195.7 16.3482 195.34 16.1937C194.982 16.0392 194.677 15.8142 194.427 15.5188C194.177 15.2234 193.977 14.8688 193.827 14.4552C193.681 14.0417 193.582 13.5758 193.528 13.0577V12.2941C193.582 11.7488 193.684 11.2602 193.834 10.8284C193.984 10.3966 194.182 10.0285 194.427 9.72398C194.677 9.41493 194.98 9.18086 195.333 9.0218C195.688 8.85817 196.098 8.77637 196.561 8.77637C197.025 8.77637 197.436 8.86726 197.795 9.04906C198.154 9.22632 198.456 9.48083 198.702 9.8126C198.947 10.1444 199.131 10.5421 199.254 11.0056C199.381 11.4647 199.445 11.976 199.445 12.5395ZM198.177 12.6827V12.5395C198.177 12.1714 198.139 11.8261 198.061 11.5033C197.984 11.1761 197.863 10.8898 197.7 10.6443C197.541 10.3944 197.336 10.1989 197.086 10.058C196.835 9.91259 196.539 9.83988 196.193 9.83988C195.874 9.83988 195.598 9.89442 195.361 10.0035C195.13 10.1126 194.932 10.2603 194.768 10.4466C194.604 10.6284 194.47 10.8375 194.365 11.0738C194.265 11.3056 194.191 11.5465 194.141 11.7965V13.5621C194.232 13.8803 194.36 14.1803 194.522 14.4621C194.687 14.7393 194.904 14.9642 195.177 15.137C195.45 15.3051 195.793 15.3893 196.206 15.3893C196.547 15.3893 196.84 15.3188 197.086 15.1779C197.336 15.0324 197.541 14.8347 197.7 14.5848C197.863 14.3348 197.984 14.0485 198.061 13.7258C198.139 13.3985 198.177 13.0509 198.177 12.6827Z" fill="black"/>
<path d="M191.735 8.91261V9.88067H187.746V8.91261H191.735ZM189.096 7.11963H190.357V14.462C190.357 14.7119 190.395 14.9005 190.473 15.0278C190.55 15.1551 190.65 15.2392 190.772 15.28C190.896 15.321 191.027 15.3413 191.168 15.3413C191.273 15.3413 191.382 15.3323 191.496 15.3141C191.614 15.2914 191.702 15.2733 191.761 15.2595L191.768 16.289C191.668 16.3208 191.537 16.3503 191.373 16.3777C191.213 16.4094 191.02 16.4254 190.793 16.4254C190.484 16.4254 190.2 16.3641 189.942 16.2413C189.682 16.1186 189.475 15.914 189.32 15.6277C189.171 15.3368 189.096 14.946 189.096 14.4551V7.11963Z" fill="black"/>
<path d="M185.729 14.3326C185.729 14.1507 185.687 13.9826 185.605 13.8281C185.529 13.6689 185.367 13.5258 185.121 13.3985C184.881 13.2667 184.518 13.1531 184.031 13.0577C183.622 12.9713 183.252 12.869 182.919 12.7509C182.592 12.6327 182.313 12.4896 182.081 12.3214C181.853 12.1532 181.679 11.9555 181.556 11.7283C181.433 11.5011 181.371 11.2352 181.371 10.9307C181.371 10.6398 181.435 10.3648 181.562 10.1058C181.695 9.84669 181.879 9.61717 182.115 9.4172C182.356 9.21723 182.644 9.06042 182.981 8.9468C183.317 8.83318 183.693 8.77637 184.106 8.77637C184.697 8.77637 185.2 8.8809 185.619 9.08997C186.037 9.29903 186.358 9.57854 186.58 9.9285C186.803 10.2739 186.914 10.658 186.914 11.0806H185.653C185.653 10.8761 185.591 10.6784 185.469 10.4875C185.351 10.2921 185.176 10.1308 184.945 10.0035C184.716 9.87624 184.437 9.8126 184.106 9.8126C183.755 9.8126 183.472 9.86715 183.254 9.97623C183.04 10.0808 182.883 10.2148 182.783 10.3784C182.687 10.5421 182.64 10.7148 182.64 10.8966C182.64 11.0329 182.663 11.1556 182.708 11.2647C182.758 11.3692 182.844 11.467 182.968 11.5579C183.09 11.6442 183.262 11.726 183.486 11.8032C183.708 11.8805 183.992 11.9578 184.337 12.0351C184.942 12.1714 185.44 12.3351 185.83 12.5259C186.221 12.7168 186.512 12.9509 186.703 13.2281C186.895 13.5053 186.99 13.8417 186.99 14.2371C186.99 14.5598 186.921 14.8552 186.785 15.1233C186.653 15.3915 186.459 15.6233 186.206 15.8187C185.956 16.0096 185.655 16.1596 185.305 16.2686C184.96 16.3732 184.571 16.4255 184.139 16.4255C183.49 16.4255 182.94 16.3096 182.49 16.0778C182.04 15.8459 181.7 15.546 181.467 15.1779C181.235 14.8097 181.12 14.4211 181.12 14.0122H182.387C182.406 14.3575 182.506 14.6325 182.687 14.8371C182.87 15.037 183.092 15.1802 183.355 15.2665C183.619 15.3483 183.881 15.3893 184.139 15.3893C184.485 15.3893 184.773 15.3438 185.005 15.2529C185.242 15.1619 185.422 15.037 185.544 14.8779C185.667 14.7189 185.729 14.537 185.729 14.3326Z" fill="black"/>
<path d="M178.243 14.5847V8.9126H179.511V16.289H178.304L178.243 14.5847ZM178.481 13.0303L179.006 13.0167C179.006 13.5075 178.953 13.962 178.849 14.3802C178.75 14.7937 178.586 15.1527 178.359 15.4573C178.131 15.7618 177.833 16.0005 177.465 16.1731C177.098 16.3412 176.65 16.4254 176.123 16.4254C175.763 16.4254 175.434 16.3731 175.134 16.2685C174.838 16.164 174.583 16.0027 174.37 15.7845C174.156 15.5664 173.991 15.2823 173.873 14.9324C173.758 14.5824 173.703 14.162 173.703 13.6711V8.9126H174.964V13.6847C174.964 14.0166 175 14.2915 175.072 14.5097C175.15 14.7233 175.252 14.8937 175.379 15.021C175.511 15.1437 175.656 15.23 175.816 15.28C175.98 15.33 176.147 15.3551 176.321 15.3551C176.857 15.3551 177.282 15.2528 177.595 15.0482C177.909 14.8392 178.133 14.5597 178.269 14.2097C178.41 13.8552 178.481 13.462 178.481 13.0303Z" fill="black"/>
<path d="M170.26 10.0717V16.2891H168.999V8.91272H170.225L170.26 10.0717ZM172.564 8.87181L172.557 10.0444C172.452 10.0217 172.352 10.008 172.257 10.0035C172.166 9.9944 172.061 9.98986 171.944 9.98986C171.653 9.98986 171.396 10.0353 171.174 10.1262C170.95 10.2171 170.762 10.3444 170.607 10.508C170.453 10.6716 170.33 10.867 170.239 11.0943C170.153 11.317 170.096 11.5624 170.069 11.8306L169.715 12.0351C169.715 11.5897 169.758 11.1715 169.844 10.7807C169.934 10.3898 170.073 10.0444 170.26 9.74443C170.446 9.43992 170.683 9.20359 170.969 9.03542C171.26 8.86272 171.605 8.77637 172.006 8.77637C172.096 8.77637 172.201 8.78772 172.319 8.81046C172.437 8.82863 172.519 8.84909 172.564 8.87181Z" fill="black"/>
<path d="M165.044 6.36279V16.2889H163.749V6.36279H165.044ZM168.235 6.36279V7.43994H160.566V6.36279H168.235Z" fill="black"/>
</g>
<defs>
<clipPath id="clip0_1_1930">
<rect width="219.902" height="23.27" fill="white" transform="translate(0.0493164)"/>
</clipPath>
</defs>
</svg>
