<svg width="50" height="32" viewBox="0 0 50 32" fill="none" xmlns="http://www.w3.org/2000/svg">
<g clip-path="url(#clip0_1_2066)">
<path d="M46 0.221985H4C1.79086 0.221985 0 2.01285 0 4.22198V26.222C0 28.4311 1.79086 30.222 4 30.222H46C48.2091 30.222 50 28.4311 50 26.222V4.22198C50 2.01285 48.2091 0.221985 46 0.221985Z" fill="#6B7280"/>
<path d="M36.16 11.22H34.44C33.92 11.22 33.52 11.377 33.28 11.887L30 19.22H32.32C32.32 19.22 32.72 18.24 32.8 18.005H35.64C35.72 18.279 35.92 19.181 35.92 19.181H38L36.16 11.22ZM33.44 16.357C33.64 15.887 34.32 14.122 34.32 14.122C34.32 14.162 34.52 13.652 34.6 13.377L34.76 14.083C34.76 14.083 35.2 16.004 35.28 16.397H33.44V16.357ZM30.747 16.553C30.747 18.153 29.374 19.22 27.241 19.22C26.337 19.22 25.47 19.03 25 18.801L25.29 17.049L25.542 17.163C26.192 17.468 26.626 17.582 27.422 17.582C28 17.582 28.614 17.353 28.614 16.82C28.614 16.477 28.361 16.249 27.566 15.868C26.807 15.487 25.796 14.878 25.796 13.773C25.796 12.249 27.205 11.22 29.193 11.22C29.952 11.22 30.603 11.372 31 11.563L30.71 13.239L30.566 13.087C30.0871 12.8797 29.5698 12.7758 29.048 12.782C28.289 12.82 27.928 13.163 27.928 13.468C27.928 13.811 28.361 14.078 29.048 14.42C30.205 14.992 30.747 15.64 30.747 16.553Z" fill="white"/>
<path d="M12 11.37L12.039 11.22H15.346C15.808 11.22 16.154 11.37 16.269 11.856L17 15.22C16.27 13.426 14.577 11.968 12 11.37Z" fill="#F9B50B"/>
<path d="M22 11.26L18.449 19.22H16.041L14 12.553C15.47 13.455 16.694 14.867 17.143 15.848L17.388 16.671L19.592 11.221H22V11.259V11.26ZM22.555 11.22H25L23.444 19.22H21L22.555 11.22Z" fill="white"/>
</g>
<defs>
<clipPath id="clip0_1_2066">
<rect width="50" height="31" fill="white" transform="translate(0 0.219971)"/>
</clipPath>
</defs>
</svg>
