<svg width="33" height="32" viewBox="0 0 33 32" fill="none" xmlns="http://www.w3.org/2000/svg">
<rect x="0.5" width="32" height="32" rx="10" fill="#7E9F2F"/>
<g clip-path="url(#clip0_2_900)">
<g clip-path="url(#clip1_2_900)">
<g opacity="0.75">
<path d="M28.326 17.779V17.7721C28.326 17.7721 26.7514 17.9425 25.9608 17.1516L23.4971 14.6883C23.0874 14.2789 22.7215 14.2789 22.3131 14.6883L21.4262 15.5752L19.5542 13.7039C19.35 13.498 19.1517 13.3943 18.9636 13.3943C18.7757 13.3943 18.5764 13.498 18.3723 13.7029L17.4853 14.5898L15.0203 12.1262L11.5716 15.5749L10.6853 14.6879C10.2759 14.2789 9.91139 14.2782 9.50165 14.6879L7.038 17.1519C6.41296 17.7794 5.06513 17.7794 5.02165 17.7794H4.67383V17.4316H5.02165C5.02965 17.4316 6.07835 17.5227 6.74409 16.8563L9.20739 14.3936C9.77992 13.8215 10.4095 13.8222 10.9806 14.3936L11.573 14.985L15.0217 11.5352L17.4857 13.9989L18.077 13.4069C18.3632 13.1209 18.6603 12.9756 18.9639 12.9756C19.2665 12.9756 19.5657 13.121 19.8509 13.4076L21.4272 14.9839L22.0196 14.3926C22.5907 13.8204 23.2196 13.8204 23.7924 14.3926L26.255 16.8559C26.9215 17.5209 27.9698 17.4316 27.9778 17.4316L28.3257 17.4385L28.326 17.779ZM28.326 15.2754V15.3843C28.326 15.3843 26.5869 15.3449 25.9608 14.6886L23.4971 12.2643C23.0874 11.8545 22.7215 11.8552 22.3131 12.2643L21.4262 13.1498L19.5542 11.2785C19.1462 10.8691 18.7806 10.8691 18.3726 11.2785L17.4857 12.1655L15.022 9.70112L11.573 13.1502L10.686 12.2643C10.2773 11.8552 9.91209 11.8545 9.50339 12.2643L7.03905 14.7269C6.35278 15.4142 4.80809 15.3843 5.02165 15.3843L4.67383 15.3766V15.0434L5.02165 15.0364C5.02965 15.0364 6.07905 15.0973 6.74444 14.4319L9.20705 11.9679C9.77922 11.3964 10.4084 11.3964 10.981 11.9679L11.5733 12.5599L15.022 9.11052L17.4867 11.5742L18.078 10.9829C18.6491 10.411 19.2787 10.411 19.8519 10.9829L21.4283 12.5592L22.0196 11.9679C22.5917 11.3975 23.2203 11.3964 23.7935 11.9679L26.2561 14.4319C26.9229 15.0973 27.9698 15.0361 27.9785 15.0361H28.3263V15.275L28.326 15.2754ZM28.326 13.0277H27.6304C27.4286 12.913 26.7514 13.1335 25.9608 12.3425L23.4968 9.87817C23.087 9.46878 22.7211 9.46947 22.3128 9.87817L21.4258 10.7641L19.5538 8.89278C19.1458 8.48234 18.7803 8.48234 18.3723 8.89278L17.4853 9.77834L15.021 7.31504L11.5726 10.7637L10.6857 9.87747C10.2763 9.46704 9.91105 9.46808 9.50235 9.87747L7.03905 12.3422C6.29574 13.0851 5.36948 13.0274 5.02165 13.0274L4.67383 13.0204V12.6796H5.02165C5.02965 12.6796 6.07905 12.7126 6.74444 12.0472L9.20705 9.58391C9.77922 9.01173 10.4088 9.01173 10.981 9.58391L11.5733 10.1752L15.0217 6.72686L17.4864 9.18947L18.0777 8.59817C18.6488 8.02634 19.2797 8.02634 19.8516 8.59817L21.4279 10.1752L22.0192 9.58321C22.5914 9.01278 23.2199 9.01173 23.7931 9.58321L26.2557 12.0472C26.9225 12.7126 27.9695 12.6803 27.9782 12.6803H28.326V13.0277ZM28.326 10.5947L27.9782 10.6016C27.9347 10.6016 26.5869 10.6016 25.9608 9.86425L23.4971 7.40165C23.0874 6.99191 22.7215 6.99191 22.3131 7.40165L21.4262 8.28791L19.5542 6.41521C19.35 6.21104 19.1517 6.10738 18.9636 6.10738C18.7757 6.10738 18.5764 6.21069 18.3723 6.41486L17.4853 7.30182L15.0203 4.83921L11.5716 8.28756L10.6853 7.4006C10.2759 6.99156 9.91139 6.99086 9.50165 7.4006L7.03731 9.86425C6.24705 10.6552 5.06548 10.6016 5.02165 10.6016L4.67383 10.5947V10.2469H5.16635C5.17435 10.2469 6.07835 10.2343 6.74409 9.5686L9.20739 7.1053C9.77992 6.53347 10.4095 6.53417 10.9806 7.1053L11.573 7.6973L15.0217 4.24756L17.4857 6.71156L18.077 6.11956C18.3632 5.83434 18.6603 5.6893 18.9639 5.6893C19.2665 5.6893 19.5657 5.83399 19.8509 6.11956L21.4272 7.6966L22.0196 7.1053C22.5907 6.53278 23.2196 6.53278 23.7924 7.1053L26.255 9.56895C26.927 10.2389 27.8244 10.2472 27.8324 10.2472H28.325L28.3257 10.442V10.595L28.326 10.5947Z" fill="black"/>
</g>
<path d="M28.326 18.127V18.12C28.326 18.12 26.7514 18.2905 25.9608 17.4995L23.4971 15.0362C23.0874 14.6268 22.7215 14.6268 22.3131 15.0362L21.4262 15.9232L19.5542 14.0519C19.35 13.846 19.1517 13.7423 18.9636 13.7423C18.7757 13.7423 18.5764 13.846 18.3723 14.0508L17.4853 14.9378L15.0203 12.4741L11.5716 15.9228L10.6853 15.0359C10.2759 14.6268 9.91139 14.6261 9.50165 15.0359L7.038 17.4999C6.41296 18.1274 5.06513 18.1274 5.02165 18.1274H4.67383V17.7795H5.02165C5.02965 17.7795 6.07835 17.8707 6.74409 17.2042L9.20739 14.7416C9.77992 14.1694 10.4095 14.1701 10.9806 14.7416L11.573 15.3329L15.0217 11.8832L17.4857 14.3468L18.077 13.7548C18.3632 13.4689 18.6603 13.3235 18.9639 13.3235C19.2665 13.3235 19.5657 13.4689 19.8509 13.7555L21.4272 15.3319L22.0196 14.7406C22.5907 14.1684 23.2196 14.1684 23.7924 14.7406L26.255 17.2039C26.9215 17.8689 27.9698 17.7795 27.9778 17.7795L28.3257 17.7865L28.326 18.127Z" fill="#8DC63F"/>
<path d="M28.326 15.6232V15.7321C28.326 15.7321 26.5869 15.6928 25.9608 15.0365L23.4971 12.6121C23.0874 12.2024 22.7215 12.2031 22.3131 12.6121L21.4262 13.4977L19.5542 11.6264C19.1462 11.217 18.7806 11.217 18.3726 11.6264L17.4857 12.5133L15.022 10.049L11.573 13.498L10.686 12.6121C10.2773 12.2031 9.91209 12.2024 9.50339 12.6121L7.03905 15.0747C6.35278 15.762 4.80809 15.7321 5.02165 15.7321L4.67383 15.7245V15.3912L5.02165 15.3843C5.02965 15.3843 6.07905 15.4452 6.74444 14.7798L9.20705 12.3158C9.77922 11.7443 10.4084 11.7443 10.981 12.3158L11.5733 12.9078L15.022 9.45837L17.4867 11.922L18.078 11.3307C18.6491 10.7589 19.2787 10.7589 19.8519 11.3307L21.4283 12.9071L22.0196 12.3158C22.5917 11.7453 23.2203 11.7443 23.7935 12.3158L26.2561 14.7798C26.9229 15.4452 27.9698 15.3839 27.9785 15.3839H28.3263V15.6229L28.326 15.6232Z" fill="#BEB632"/>
<path d="M28.326 13.3758H27.6304C27.4286 13.261 26.7514 13.4816 25.9608 12.6906L23.4968 10.2263C23.087 9.81686 22.7211 9.81756 22.3128 10.2263L21.4258 11.1122L19.5538 9.24086C19.1458 8.83043 18.7803 8.83043 18.3723 9.24086L17.4853 10.1264L15.021 7.66313L11.5726 11.1118L10.6857 10.2256C10.2763 9.81513 9.91105 9.81617 9.50235 10.2256L7.03905 12.6903C6.29574 13.4332 5.36948 13.3755 5.02165 13.3755L4.67383 13.3685V13.0276H5.02165C5.02965 13.0276 6.07905 13.0607 6.74444 12.3953L9.20705 9.93199C9.77922 9.35982 10.4088 9.35982 10.981 9.93199L11.5733 10.5233L15.0217 7.07495L17.4864 9.53756L18.0777 8.94626C18.6488 8.37443 19.2797 8.37443 19.8516 8.94626L21.4279 10.5233L22.0192 9.9313C22.5914 9.36086 23.2199 9.35982 23.7931 9.9313L26.2557 12.3953C26.9225 13.0607 27.9695 13.0283 27.9782 13.0283H28.326V13.3758Z" fill="#D88D2A"/>
<path d="M28.326 10.9425L27.9782 10.9494C27.9347 10.9494 26.5869 10.9494 25.9608 10.212L23.4971 7.74942C23.0874 7.33968 22.7215 7.33968 22.3131 7.74942L21.4262 8.63568L19.5542 6.76299C19.35 6.55882 19.1517 6.45516 18.9636 6.45516C18.7757 6.45516 18.5764 6.55847 18.3723 6.76264L17.4853 7.6496L15.0203 5.18699L11.5716 8.63534L10.6853 7.74838C10.2759 7.33934 9.91139 7.33864 9.50165 7.74838L7.03731 10.212C6.24705 11.003 5.06548 10.9494 5.02165 10.9494L4.67383 10.9425V10.5946H5.16635C5.17435 10.5946 6.07835 10.5821 6.74409 9.91638L9.20739 7.45308C9.77992 6.88125 10.4095 6.88195 10.9806 7.45308L11.573 8.04508L15.0217 4.59534L17.4857 7.05934L18.077 6.46734C18.3632 6.18212 18.6603 6.03708 18.9639 6.03708C19.2665 6.03708 19.5657 6.18177 19.8509 6.46734L21.4272 8.04438L22.0196 7.45308C22.5907 6.88055 23.2196 6.88055 23.7924 7.45308L26.255 9.91673C26.927 10.5866 27.8244 10.595 27.8324 10.595H28.325L28.3257 10.7898V10.9428L28.326 10.9425Z" fill="#F15A22"/>
<g opacity="0.75">
<path d="M28.326 17.7788V17.7718C28.326 17.7718 26.7514 17.9423 25.9608 17.1506L23.4971 14.6873C23.0874 14.2779 22.7215 14.2779 22.3131 14.6873L21.4262 15.5743L19.5542 13.7029C19.35 13.497 19.1517 13.3934 18.9636 13.3934C18.7757 13.3934 18.5764 13.497 18.3723 13.7019L17.4853 14.5889L15.0203 12.1252L11.5716 15.5739L10.6853 14.6869C10.2759 14.2779 9.91139 14.2772 9.50165 14.6869L7.03765 17.1513C6.41296 17.7784 5.06513 17.7784 5.02165 17.7784H4.67383V17.4306H5.02165C5.02965 17.4306 6.07835 17.5217 6.74409 16.8553L9.20739 14.3927C9.77992 13.8202 10.4095 13.8209 10.9806 14.3927L11.573 14.984L15.0217 11.5336L17.4857 13.9976L18.077 13.4056C18.3632 13.1196 18.6603 12.9743 18.9639 12.9743C19.2665 12.9743 19.5657 13.1196 19.8509 13.4063L21.4272 14.9826L22.0196 14.3913C22.5907 13.8191 23.2196 13.8191 23.7924 14.3913L26.255 16.8546C26.9215 17.5203 27.9698 17.4306 27.9778 17.4306L28.3257 17.4376V17.7784L28.326 17.7788ZM28.326 15.2755V15.3843C28.326 15.3843 26.5869 15.345 25.9608 14.6887L23.4971 12.2643C23.0874 11.8546 22.7215 11.8553 22.3131 12.2643L21.4262 13.1499L19.5542 11.2786C19.1462 10.8692 18.7806 10.8692 18.3726 11.2786L17.4857 12.1656L15.022 9.70086L11.573 13.1496L10.686 12.2636C10.2773 11.8549 9.91209 11.8543 9.50339 12.2636L7.03905 14.7269C6.35278 15.4139 4.80809 15.3843 5.02165 15.3843L4.67383 15.3767V15.0435L5.02165 15.0365C5.02965 15.0365 6.07905 15.0974 6.74444 14.432L9.20705 11.968C9.77922 11.3965 10.4084 11.3965 10.981 11.968L11.5733 12.56L15.022 9.1106L17.4867 11.5743L18.078 10.9829C18.6491 10.4111 19.2787 10.4111 19.8519 10.9829L21.4283 12.5593L22.0196 11.968C22.5917 11.3976 23.2203 11.3965 23.7935 11.968L26.2561 14.432C26.9229 15.0974 27.9698 15.0362 27.9785 15.0362H28.3263V15.2751L28.326 15.2755ZM28.326 13.0278H27.6304C27.4286 12.913 26.7514 13.1336 25.9608 12.3426L23.4968 9.87825C23.087 9.46886 22.7211 9.46956 22.3128 9.87825L21.4258 10.7642L19.5538 8.89286C19.1458 8.48243 18.7803 8.48243 18.3723 8.89286L17.4853 9.77843L15.021 7.31512L11.5726 10.7638L10.6857 9.87756C10.2763 9.46712 9.91105 9.46817 9.50235 9.87756L7.03905 12.3423C6.29574 13.0852 5.36948 13.0275 5.02165 13.0275L4.67383 13.0205V12.6796H5.02165C5.02965 12.6796 6.07905 12.7127 6.74444 12.0473L9.20705 9.58399C9.77922 9.01182 10.4088 9.01182 10.981 9.58399L11.5733 10.1753L15.0217 6.72695L17.4864 9.18956L18.0777 8.59825C18.6488 8.02643 19.2797 8.02643 19.8516 8.59825L21.4279 10.1753L22.0192 9.5833C22.5914 9.01286 23.2199 9.01182 23.7931 9.5833L26.2557 12.0473C26.9225 12.7127 27.9695 12.6803 27.9782 12.6803H28.326V13.0278ZM28.326 10.5941L27.9782 10.601C27.9347 10.601 26.5869 10.601 25.9608 9.86364L23.4971 7.40103C23.0874 6.99164 22.7215 6.99164 22.3131 7.40103L21.4262 8.28799L19.5542 6.41495C19.35 6.21077 19.1517 6.10712 18.9636 6.10712C18.7757 6.10712 18.5764 6.21077 18.3723 6.41495L17.4853 7.3019L15.0203 4.8393L11.5716 8.28764L10.6853 7.40069C10.2759 6.99164 9.91139 6.99095 9.50165 7.40069L7.03765 9.86434C6.24739 10.6546 5.06583 10.6017 5.02165 10.6017L4.67383 10.5941V10.2463H5.16635C5.17435 10.2463 6.07835 10.2341 6.74409 9.56869L9.20739 7.10504C9.77992 6.53321 10.4095 6.5339 10.9806 7.10504L11.573 7.69703L15.0217 4.24695L17.4857 6.7113L18.077 6.1193C18.3632 5.83408 18.6603 5.68904 18.9639 5.68904C19.2665 5.68904 19.5657 5.83373 19.8509 6.1193L21.4272 7.69634L22.0196 7.10504C22.5907 6.53251 23.2196 6.53251 23.7924 7.10504L26.255 9.56869C26.927 10.2383 27.8244 10.2463 27.8324 10.2463H28.325L28.3257 10.4421V10.5944L28.326 10.5941Z" fill="black"/>
</g>
<path d="M28.326 18.1264V18.1195C28.326 18.1195 26.7514 18.2899 25.9608 17.4983L23.4971 15.035C23.0874 14.6256 22.7215 14.6256 22.3131 15.035L21.4262 15.9219L19.5542 14.0506C19.35 13.8447 19.1517 13.7411 18.9636 13.7411C18.7757 13.7411 18.5764 13.8447 18.3723 14.0496L17.4853 14.9365L15.0203 12.4729L11.5716 15.9216L10.6853 15.0346C10.2759 14.6256 9.91139 14.6249 9.50165 15.0346L7.03765 17.499C6.41296 18.1261 5.06513 18.1261 5.02165 18.1261H4.67383V17.7783H5.02165C5.02965 17.7783 6.07835 17.8694 6.74409 17.203L9.20739 14.7404C9.77992 14.1678 10.4095 14.1685 10.9806 14.7404L11.573 15.3317L15.0217 11.8812L17.4857 14.3452L18.077 13.7532C18.3632 13.4673 18.6603 13.3219 18.9639 13.3219C19.2665 13.3219 19.5657 13.4673 19.8509 13.7539L21.4272 15.3303L22.0196 14.739C22.5907 14.1668 23.2196 14.1668 23.7924 14.739L26.255 17.2023C26.9215 17.868 27.9698 17.7783 27.9778 17.7783L28.3257 17.7852V18.1261L28.326 18.1264Z" fill="#8DC63F"/>
<path d="M28.326 15.6232V15.7321C28.326 15.7321 26.5869 15.6928 25.9608 15.0365L23.4971 12.6121C23.0874 12.2024 22.7215 12.2031 22.3131 12.6121L21.4262 13.4977L19.5542 11.6264C19.1462 11.217 18.7806 11.217 18.3726 11.6264L17.4857 12.5133L15.022 10.0486L11.573 13.4973L10.686 12.6114C10.2773 12.2027 9.91209 12.202 9.50339 12.6114L7.03905 15.0747C6.35278 15.7617 4.80809 15.7321 5.02165 15.7321L4.67383 15.7245V15.3912L5.02165 15.3843C5.02965 15.3843 6.07905 15.4452 6.74444 14.7798L9.20705 12.3158C9.77922 11.7443 10.4084 11.7443 10.981 12.3158L11.5733 12.9078L15.022 9.45837L17.4867 11.922L18.078 11.3307C18.6491 10.7589 19.2787 10.7589 19.8519 11.3307L21.4283 12.9071L22.0196 12.3158C22.5917 11.7453 23.2203 11.7443 23.7935 12.3158L26.2561 14.7798C26.9229 15.4452 27.9698 15.3839 27.9785 15.3839H28.3263V15.6229L28.326 15.6232Z" fill="#BEB632"/>
<path d="M28.326 13.3758H27.6304C27.4286 13.261 26.7514 13.4816 25.9608 12.6906L23.4968 10.2263C23.087 9.81686 22.7211 9.81756 22.3128 10.2263L21.4258 11.1122L19.5538 9.24086C19.1458 8.83043 18.7803 8.83043 18.3723 9.24086L17.4853 10.1264L15.021 7.66313L11.5726 11.1118L10.6857 10.2256C10.2763 9.81513 9.91105 9.81617 9.50235 10.2256L7.03905 12.6903C6.29574 13.4332 5.36948 13.3755 5.02165 13.3755L4.67383 13.3685V13.0276H5.02165C5.02965 13.0276 6.07905 13.0607 6.74444 12.3953L9.20705 9.93199C9.77922 9.35982 10.4088 9.35982 10.981 9.93199L11.5733 10.5233L15.0217 7.07495L17.4864 9.53756L18.0777 8.94626C18.6488 8.37443 19.2797 8.37443 19.8516 8.94626L21.4279 10.5233L22.0192 9.9313C22.5914 9.36086 23.2199 9.35982 23.7931 9.9313L26.2557 12.3953C26.9225 13.0607 27.9695 13.0283 27.9782 13.0283H28.326V13.3758Z" fill="#D88D2A"/>
<path d="M28.326 10.942L27.9782 10.9489C27.9347 10.9489 26.5869 10.9489 25.9608 10.2115L23.4971 7.74892C23.0874 7.33953 22.7215 7.33953 22.3131 7.74892L21.4262 8.63587L19.5542 6.76283C19.35 6.55866 19.1517 6.455 18.9636 6.455C18.7757 6.455 18.5764 6.55866 18.3723 6.76283L17.4853 7.64979L15.0203 5.18718L11.5716 8.63553L10.6853 7.74857C10.2759 7.33953 9.91139 7.33883 9.50165 7.74857L7.03765 10.2122C6.24739 11.0025 5.06583 10.9496 5.02165 10.9496L4.67383 10.942V10.5941H5.16635C5.17435 10.5941 6.07835 10.582 6.74409 9.91657L9.20739 7.45292C9.77992 6.88109 10.4095 6.88179 10.9806 7.45292L11.573 8.04492L15.0217 4.59448L17.4857 7.05883L18.077 6.46683C18.3632 6.18161 18.6603 6.03657 18.9639 6.03657C19.2665 6.03657 19.5657 6.18126 19.8509 6.46683L21.4272 8.04387L22.0196 7.45257C22.5907 6.88005 23.2196 6.88005 23.7924 7.45257L26.255 9.91622C26.927 10.5858 27.8244 10.5938 27.8324 10.5938H28.325L28.3257 10.7896L28.326 10.942Z" fill="#F15A22"/>
<g opacity="0.75">
<path d="M6.39735 21.6507C6.39735 21.8959 6.52014 21.8959 6.52014 21.8959H8.47944C9.09266 21.8959 9.09266 22.3863 9.09266 22.5091V22.6309H7.37788C7.13301 22.6309 6.15283 22.6309 6.15283 23.6722V23.795C6.15283 24.835 7.13266 24.835 7.37788 24.835H9.58309V22.5091C9.58309 22.3856 9.58309 21.4065 8.48048 21.4065H6.51979C6.51979 21.4065 6.39701 21.4065 6.39701 21.651L6.39735 21.6507ZM7.37683 24.3449C7.13266 24.3449 6.64292 24.3449 6.64292 23.794V23.6716C6.64292 23.1206 7.13266 23.1206 7.37683 23.1206H9.09231V24.3449H7.37753H7.37683ZM18.2753 21.6507C18.2753 21.8959 18.3977 21.8959 18.3977 21.8959H20.357C20.9702 21.8959 20.9702 22.3863 20.9702 22.5091V22.6309H19.2554C19.0109 22.6309 18.0311 22.6309 18.0311 23.6722V23.795C18.0311 24.835 19.0102 24.835 19.2554 24.835H21.4593V22.5091C21.4593 22.386 21.4593 21.4065 20.3567 21.4065H18.397C18.397 21.4065 18.2746 21.4065 18.2746 21.651L18.2753 21.6507ZM19.2551 24.3449C19.0109 24.3449 18.5212 24.3449 18.5212 23.794V23.6716C18.5212 23.1206 19.0109 23.1206 19.2551 23.1206H20.9699V24.3449H19.2551ZM23.541 24.8347H23.0506V22.5084C23.0506 22.3849 23.0506 21.4058 24.1532 21.4058H24.8871C24.8871 21.4058 25.0106 21.4058 25.0106 21.65C25.0106 21.8952 24.8874 21.8952 24.8874 21.8952H24.1535C23.5414 21.8952 23.5414 22.3842 23.5414 22.5074V24.8343L23.541 24.8347ZM13.4996 27.2834C13.7452 27.2834 13.7452 27.1609 13.7452 27.1609V24.8347H14.9695C15.4593 24.8347 16.6843 24.8347 16.6843 23.3648V22.8743C16.6843 21.4055 15.4593 21.4055 14.9695 21.4055H13.2547V27.1616C13.2547 27.1623 13.2547 27.2844 13.4996 27.2844V27.2834ZM14.9695 21.8956C15.4593 21.8956 16.1939 21.8956 16.1939 22.8747V23.3651C16.1939 24.3442 15.4593 24.3442 14.9695 24.3442H13.7452V21.8956H14.9695ZM11.1737 24.8347H11.6634V19.0789C11.6634 19.0789 11.6634 18.9564 11.4182 18.9564C11.1737 18.9564 11.1737 19.0789 11.1737 19.0789V24.8347ZM26.2356 24.8347H26.725V21.5282C26.725 21.5282 26.725 21.4055 26.4791 21.4055C26.2356 21.4055 26.2356 21.5286 26.2356 21.5286V24.8347ZM26.8478 20.426C26.8478 20.6712 26.7862 20.7331 26.7862 20.7331C26.7862 20.7331 26.725 20.794 26.4791 20.794C26.2356 20.794 26.173 20.7331 26.173 20.7331C26.173 20.7331 26.1121 20.6712 26.1121 20.426C26.1121 20.1815 26.1734 20.1199 26.1734 20.1199C26.1734 20.1199 26.236 20.059 26.4794 20.059C26.7254 20.059 26.7866 20.1202 26.7866 20.1202C26.7866 20.1202 26.8478 20.1811 26.8478 20.4263V20.426Z" fill="black"/>
</g>
<path d="M6.39735 21.9986C6.39735 22.2438 6.52014 22.2438 6.52014 22.2438H8.47944C9.09266 22.2438 9.09266 22.7342 9.09266 22.857V22.9788H7.37788C7.13301 22.9788 6.15283 22.9788 6.15283 24.0201V24.1429C6.15283 25.1829 7.13266 25.1829 7.37788 25.1829H9.58309V22.857C9.58309 22.7335 9.58309 21.7544 8.48048 21.7544H6.51979C6.51979 21.7544 6.39701 21.7544 6.39701 21.9989L6.39735 21.9986ZM7.37683 24.6928C7.13266 24.6928 6.64292 24.6928 6.64292 24.1419V24.0195C6.64292 23.4685 7.13266 23.4685 7.37683 23.4685H9.09231V24.6928H7.37753H7.37683ZM18.2753 21.9986C18.2753 22.2438 18.3977 22.2438 18.3977 22.2438H20.357C20.9702 22.2438 20.9702 22.7342 20.9702 22.857V22.9788H19.2554C19.0109 22.9788 18.0311 22.9788 18.0311 24.0201V24.1429C18.0311 25.1829 19.0102 25.1829 19.2554 25.1829H21.4593V22.857C21.4593 22.7339 21.4593 21.7544 20.3567 21.7544H18.397C18.397 21.7544 18.2746 21.7544 18.2746 21.9989L18.2753 21.9986ZM19.2551 24.6928C19.0109 24.6928 18.5212 24.6928 18.5212 24.1419V24.0195C18.5212 23.4685 19.0109 23.4685 19.2551 23.4685H20.9699V24.6928H19.2551ZM23.541 25.1826H23.0506V22.8563C23.0506 22.7328 23.0506 21.7537 24.1532 21.7537H24.8871C24.8871 21.7537 25.0106 21.7537 25.0106 21.9979C25.0106 22.2431 24.8874 22.2431 24.8874 22.2431H24.1535C23.5414 22.2431 23.5414 22.7321 23.5414 22.8553V25.1822L23.541 25.1826ZM13.4996 27.6313C13.7452 27.6313 13.7452 27.5088 13.7452 27.5088V25.1826H14.9695C15.4593 25.1826 16.6843 25.1826 16.6843 23.7127V23.2222C16.6843 21.7534 15.4593 21.7534 14.9695 21.7534H13.2547V27.5095C13.2547 27.5102 13.2547 27.6323 13.4996 27.6323V27.6313ZM14.9695 22.2435C15.4593 22.2435 16.1939 22.2435 16.1939 23.2226V23.713C16.1939 24.6921 15.4593 24.6921 14.9695 24.6921H13.7452V22.2435H14.9695ZM11.1737 25.1826H11.6634V19.4268C11.6634 19.4268 11.6634 19.3043 11.4182 19.3043C11.1737 19.3043 11.1737 19.4268 11.1737 19.4268V25.1826ZM26.2356 25.1826H26.725V21.8761C26.725 21.8761 26.725 21.7534 26.4791 21.7534C26.2356 21.7534 26.2356 21.8765 26.2356 21.8765V25.1826ZM26.8478 20.7739C26.8478 21.0191 26.7862 21.081 26.7862 21.081C26.7862 21.081 26.725 21.1419 26.4791 21.1419C26.2356 21.1419 26.173 21.081 26.173 21.081C26.173 21.081 26.1121 21.0191 26.1121 20.7739C26.1121 20.5294 26.1734 20.4678 26.1734 20.4678C26.1734 20.4678 26.236 20.4069 26.4794 20.4069C26.7254 20.4069 26.7866 20.4681 26.7866 20.4681C26.7866 20.4681 26.8478 20.529 26.8478 20.7742V20.7739Z" fill="white"/>
<g opacity="0.75">
<path d="M6.39735 21.6507C6.39735 21.8959 6.52014 21.8959 6.52014 21.8959H8.47944C9.09266 21.8959 9.09266 22.3863 9.09266 22.5091V22.6309H7.37788C7.13301 22.6309 6.15283 22.6309 6.15283 23.6722V23.795C6.15283 24.835 7.13266 24.835 7.37788 24.835H9.58309V22.5091C9.58309 22.3856 9.58309 21.4065 8.48048 21.4065H6.51979C6.51979 21.4065 6.39701 21.4065 6.39701 21.651L6.39735 21.6507ZM7.37683 24.3449C7.13266 24.3449 6.64292 24.3449 6.64292 23.794V23.6716C6.64292 23.1206 7.13266 23.1206 7.37683 23.1206H9.09231V24.3449H7.37753H7.37683ZM18.2753 21.6507C18.2753 21.8959 18.3977 21.8959 18.3977 21.8959H20.357C20.9702 21.8959 20.9702 22.3863 20.9702 22.5091V22.6309H19.2554C19.0109 22.6309 18.0311 22.6309 18.0311 23.6722V23.795C18.0311 24.835 19.0102 24.835 19.2554 24.835H21.4593V22.5091C21.4593 22.386 21.4593 21.4065 20.3567 21.4065H18.397C18.397 21.4065 18.2746 21.4065 18.2746 21.651L18.2753 21.6507ZM19.2551 24.3449C19.0109 24.3449 18.5212 24.3449 18.5212 23.794V23.6716C18.5212 23.1206 19.0109 23.1206 19.2551 23.1206H20.9699V24.3449H19.2551ZM23.541 24.8347H23.0506V22.5084C23.0506 22.3849 23.0506 21.4058 24.1532 21.4058H24.8871C24.8871 21.4058 25.0106 21.4058 25.0106 21.65C25.0106 21.8952 24.8874 21.8952 24.8874 21.8952H24.1535C23.5414 21.8952 23.5414 22.3842 23.5414 22.5074V24.8343L23.541 24.8347ZM13.4996 27.2834C13.7452 27.2834 13.7452 27.1609 13.7452 27.1609V24.8347H14.9695C15.4593 24.8347 16.6843 24.8347 16.6843 23.3648V22.8743C16.6843 21.4055 15.4593 21.4055 14.9695 21.4055H13.2547V27.1616C13.2547 27.1623 13.2547 27.2844 13.4996 27.2844V27.2834ZM14.9695 21.8956C15.4593 21.8956 16.1939 21.8956 16.1939 22.8747V23.3651C16.1939 24.3442 15.4593 24.3442 14.9695 24.3442H13.7452V21.8956H14.9695ZM11.1737 24.8347H11.6634V19.0789C11.6634 19.0789 11.6634 18.9564 11.4182 18.9564C11.1737 18.9564 11.1737 19.0789 11.1737 19.0789V24.8347ZM26.2356 24.8347H26.725V21.5282C26.725 21.5282 26.725 21.4055 26.4791 21.4055C26.2356 21.4055 26.2356 21.5286 26.2356 21.5286V24.8347ZM26.8478 20.426C26.8478 20.6712 26.7862 20.7331 26.7862 20.7331C26.7862 20.7331 26.725 20.794 26.4791 20.794C26.2356 20.794 26.173 20.7331 26.173 20.7331C26.173 20.7331 26.1121 20.6712 26.1121 20.426C26.1121 20.1815 26.1734 20.1199 26.1734 20.1199C26.1734 20.1199 26.236 20.059 26.4794 20.059C26.7254 20.059 26.7866 20.1202 26.7866 20.1202C26.7866 20.1202 26.8478 20.1811 26.8478 20.4263V20.426Z" fill="black"/>
</g>
<path d="M6.39735 21.9986C6.39735 22.2438 6.52014 22.2438 6.52014 22.2438H8.47944C9.09266 22.2438 9.09266 22.7342 9.09266 22.857V22.9788H7.37788C7.13301 22.9788 6.15283 22.9788 6.15283 24.0201V24.1429C6.15283 25.1829 7.13266 25.1829 7.37788 25.1829H9.58309V22.857C9.58309 22.7335 9.58309 21.7544 8.48048 21.7544H6.51979C6.51979 21.7544 6.39701 21.7544 6.39701 21.9989L6.39735 21.9986ZM7.37683 24.6928C7.13266 24.6928 6.64292 24.6928 6.64292 24.1419V24.0195C6.64292 23.4685 7.13266 23.4685 7.37683 23.4685H9.09231V24.6928H7.37753H7.37683ZM18.2753 21.9986C18.2753 22.2438 18.3977 22.2438 18.3977 22.2438H20.357C20.9702 22.2438 20.9702 22.7342 20.9702 22.857V22.9788H19.2554C19.0109 22.9788 18.0311 22.9788 18.0311 24.0201V24.1429C18.0311 25.1829 19.0102 25.1829 19.2554 25.1829H21.4593V22.857C21.4593 22.7339 21.4593 21.7544 20.3567 21.7544H18.397C18.397 21.7544 18.2746 21.7544 18.2746 21.9989L18.2753 21.9986ZM19.2551 24.6928C19.0109 24.6928 18.5212 24.6928 18.5212 24.1419V24.0195C18.5212 23.4685 19.0109 23.4685 19.2551 23.4685H20.9699V24.6928H19.2551ZM23.541 25.1826H23.0506V22.8563C23.0506 22.7328 23.0506 21.7537 24.1532 21.7537H24.8871C24.8871 21.7537 25.0106 21.7537 25.0106 21.9979C25.0106 22.2431 24.8874 22.2431 24.8874 22.2431H24.1535C23.5414 22.2431 23.5414 22.7321 23.5414 22.8553V25.1822L23.541 25.1826ZM13.4996 27.6313C13.7452 27.6313 13.7452 27.5088 13.7452 27.5088V25.1826H14.9695C15.4593 25.1826 16.6843 25.1826 16.6843 23.7127V23.2222C16.6843 21.7534 15.4593 21.7534 14.9695 21.7534H13.2547V27.5095C13.2547 27.5102 13.2547 27.6323 13.4996 27.6323V27.6313ZM14.9695 22.2435C15.4593 22.2435 16.1939 22.2435 16.1939 23.2226V23.713C16.1939 24.6921 15.4593 24.6921 14.9695 24.6921H13.7452V22.2435H14.9695ZM11.1737 25.1826H11.6634V19.4268C11.6634 19.4268 11.6634 19.3043 11.4182 19.3043C11.1737 19.3043 11.1737 19.4268 11.1737 19.4268V25.1826ZM26.2356 25.1826H26.725V21.8761C26.725 21.8761 26.725 21.7534 26.4791 21.7534C26.2356 21.7534 26.2356 21.8765 26.2356 21.8765V25.1826ZM26.8478 20.7739C26.8478 21.0191 26.7862 21.081 26.7862 21.081C26.7862 21.081 26.725 21.1419 26.4791 21.1419C26.2356 21.1419 26.173 21.081 26.173 21.081C26.173 21.081 26.1121 21.0191 26.1121 20.7739C26.1121 20.5294 26.1734 20.4678 26.1734 20.4678C26.1734 20.4678 26.236 20.4069 26.4794 20.4069C26.7254 20.4069 26.7866 20.4681 26.7866 20.4681C26.7866 20.4681 26.8478 20.529 26.8478 20.7742V20.7739Z" fill="white"/>
</g>
</g>
<defs>
<clipPath id="clip0_2_900">
<rect width="23.6522" height="24" fill="white" transform="translate(4.67383 4)"/>
</clipPath>
<clipPath id="clip1_2_900">
<rect width="23.6522" height="24" fill="white" transform="translate(4.67383 4)"/>
</clipPath>
</defs>
</svg>
