<svg width="21" height="31" viewBox="0 0 21 31" fill="none" xmlns="http://www.w3.org/2000/svg">
<path fill-rule="evenodd" clip-rule="evenodd" d="M3.58494 17.698C1.94894 14.08 1.22494 10.316 1.79194 6.34804C2.00994 4.81804 2.50494 3.43804 3.76994 2.42804C4.98994 1.45504 6.39994 1.01804 7.91994 0.853042C8.09294 0.833042 8.27594 0.868042 8.44994 0.899042C8.95594 0.989042 9.26194 1.22404 9.35594 1.79904C9.62894 3.46604 9.95194 5.12904 10.2889 6.78904C10.4889 7.77904 10.4689 8.08504 9.21294 8.61504C8.53994 8.90004 7.83094 9.09504 7.14294 9.33804C6.29694 9.63804 6.09494 9.90804 6.09894 10.798C6.10594 12.018 6.43494 13.168 6.90894 14.278C7.96194 16.734 9.30094 19.03 10.8709 21.191C11.4949 22.049 11.7639 22.093 12.6989 21.555C13.3189 21.198 13.9349 20.828 14.5549 20.469C14.6729 20.399 14.7969 20.339 14.9249 20.295C15.7089 20.033 15.9509 20.093 16.4699 20.73C17.6099 22.13 18.7279 23.544 19.8759 24.934C20.1459 25.261 20.1329 25.551 19.9519 25.877C19.5419 26.622 18.9219 27.177 18.2059 27.597C15.6319 29.112 13.1489 28.817 10.7659 27.141C8.91394 25.841 7.42594 24.178 6.19994 22.301C5.23794 20.826 3.55694 17.716 3.58494 17.698Z" fill="#749A4C"/>
<path fill-rule="evenodd" clip-rule="evenodd" d="M3.58503 18.434C1.94803 14.816 1.22503 11.052 1.79103 7.08397C2.01103 5.55397 2.50603 4.17397 3.77103 3.16397C4.99003 2.18997 6.40003 1.75397 7.91803 1.58997C8.09203 1.56997 8.27503 1.60397 8.45003 1.63497C8.95403 1.72697 9.26003 1.96197 9.35403 2.53497C9.62703 4.20497 9.95003 5.86697 10.287 7.52497C10.487 8.51697 10.469 8.82297 9.21303 9.35297C8.54103 9.63697 7.83303 9.83297 7.14303 10.076C6.29803 10.376 6.09603 10.648 6.10003 11.536C6.10703 12.756 6.43603 13.906 6.91003 15.016C7.96303 17.473 9.30203 19.769 10.872 21.93C11.496 22.788 11.765 22.832 12.7 22.294C13.32 21.937 13.936 21.567 14.556 21.208C14.674 21.138 14.798 21.076 14.926 21.033C15.71 20.771 15.952 20.831 16.471 21.468C17.611 22.866 18.729 24.281 19.877 25.671C20.147 26.001 20.134 26.291 19.953 26.616C19.543 27.361 18.923 27.916 18.207 28.336C15.633 29.851 13.15 29.556 10.767 27.88C8.91703 26.577 7.43003 24.914 6.20403 23.036C5.24203 21.562 3.56103 18.454 3.58903 18.436L3.58503 18.434Z" fill="#93B44E"/>
</svg>
