<svg width="19" height="18" viewBox="0 0 19 18" fill="none" xmlns="http://www.w3.org/2000/svg">
<g clip-path="url(#clip0_2_157)">
<rect x="0.609985" width="18" height="18" rx="4" fill="#0083BE"/>
<g clip-path="url(#clip1_2_157)">
<path fill-rule="evenodd" clip-rule="evenodd" d="M3.79448 6.71541H6.35198V14.4262H3.79448V6.71541ZM5.08823 3.01416C4.21298 3.01416 3.64148 3.59091 3.64148 4.34616C3.64148 5.08641 4.19648 5.67891 5.05448 5.67891H5.07098C5.96348 5.67891 6.51848 5.08641 6.51848 4.34616C6.50123 3.59091 5.96348 3.01416 5.08823 3.01416ZM12.6272 6.55041C11.2697 6.55041 10.6622 7.29816 10.3225 7.82391V6.73191H7.76498C7.79873 7.45566 7.76498 14.4427 7.76498 14.4427H10.3225V10.1362C10.3225 9.90591 10.339 9.67566 10.4065 9.51066C10.591 9.05091 11.0117 8.57316 11.719 8.57316C12.6437 8.57316 13.0142 9.28116 13.0142 10.3169V14.4427H15.5717V10.0207C15.5717 7.65216 14.3095 6.55041 12.6272 6.55041Z" fill="white"/>
</g>
</g>
<defs>
<clipPath id="clip0_2_157">
<rect x="0.609985" width="18" height="18" rx="4" fill="white"/>
</clipPath>
<clipPath id="clip1_2_157">
<rect width="18" height="18" fill="white" transform="translate(0.609985)"/>
</clipPath>
</defs>
</svg>
