<svg width="19" height="18" viewBox="0 0 19 18" fill="none" xmlns="http://www.w3.org/2000/svg">
<g clip-path="url(#clip0_2_171)">
<rect x="0.609985" width="18" height="18" rx="4" fill="#FF7700"/>
<g clip-path="url(#clip1_2_171)">
<path fill-rule="evenodd" clip-rule="evenodd" d="M11.7325 8.07741C11.4571 8.35443 11.1297 8.57426 10.769 8.72428C10.4083 8.87429 10.0216 8.95151 9.63098 8.95151C9.24037 8.95151 8.85362 8.87429 8.49296 8.72428C8.13231 8.57426 7.80487 8.35443 7.52948 8.07741C7.25246 7.80203 7.03263 7.47459 6.88262 7.11393C6.73261 6.75328 6.65538 6.36652 6.65538 5.97591C6.65538 5.5853 6.73261 5.19855 6.88262 4.83789C7.03263 4.47724 7.25246 4.1498 7.52948 3.87441C7.80482 3.59731 8.13224 3.37739 8.4929 3.22733C8.85356 3.07726 9.24034 3 9.63098 3C10.0216 3 10.4084 3.07726 10.7691 3.22733C11.1297 3.37739 11.4571 3.59731 11.7325 3.87441C12.0095 4.1498 12.2293 4.47724 12.3793 4.83789C12.5294 5.19855 12.6066 5.5853 12.6066 5.97591C12.6066 6.36652 12.5294 6.75328 12.3793 7.11393C12.2293 7.47459 12.0095 7.80203 11.7325 8.07741ZM9.63098 4.61616C9.26048 4.61616 8.92448 4.76616 8.67773 5.01366C8.55188 5.13847 8.45198 5.28696 8.38381 5.45057C8.31564 5.61418 8.28054 5.78967 8.28054 5.96691C8.28054 6.14416 8.31564 6.31965 8.38381 6.48326C8.45198 6.64687 8.55188 6.79536 8.67773 6.92016C8.8025 7.04622 8.95102 7.14629 9.1147 7.21458C9.27839 7.28288 9.45399 7.31804 9.63135 7.31804C9.80872 7.31804 9.98432 7.28288 10.148 7.21458C10.3117 7.14629 10.4602 7.04622 10.585 6.92016C10.711 6.7954 10.8111 6.64687 10.8794 6.48319C10.9477 6.3195 10.9829 6.1439 10.9829 5.96654C10.9829 5.78918 10.9477 5.61357 10.8794 5.44989C10.8111 5.2862 10.711 5.13768 10.585 5.01291C10.3305 4.76178 9.98848 4.61926 9.63098 4.61541V4.61616ZM12.757 8.96016L13.6315 10.1527C13.6757 10.2142 13.6667 10.2937 13.6045 10.3379C12.8717 10.9379 12.0152 11.3354 11.1235 11.5477L12.8102 14.7967C12.8545 14.8942 12.7922 14.9999 12.6865 14.9999H10.885C10.857 14.9985 10.83 14.9895 10.8067 14.9739C10.7835 14.9584 10.7649 14.9367 10.753 14.9114L9.63098 12.2272L8.50073 14.9024C8.49082 14.9292 8.47273 14.9521 8.44903 14.968C8.42534 14.9839 8.39724 14.9919 8.36873 14.9909H6.56723C6.46148 14.9909 6.39923 14.8762 6.44348 14.7884L8.13023 11.5477C7.22279 11.3361 6.37475 10.9226 5.64923 10.3379C5.59598 10.2929 5.57798 10.2052 5.62223 10.1519L6.49673 8.96016C6.54923 8.88966 6.63773 8.88066 6.69923 8.93391C7.52123 9.63141 8.53673 10.0904 9.62273 10.0904C10.7087 10.0904 11.7152 9.64041 12.5455 8.93391C12.616 8.88141 12.7127 8.88891 12.757 8.96016Z" fill="white"/>
</g>
</g>
<defs>
<clipPath id="clip0_2_171">
<rect x="0.609985" width="18" height="18" rx="4" fill="white"/>
</clipPath>
<clipPath id="clip1_2_171">
<rect width="18" height="18" fill="white" transform="translate(0.609985)"/>
</clipPath>
</defs>
</svg>
