<svg width="19" height="18" viewBox="0 0 19 18" fill="none" xmlns="http://www.w3.org/2000/svg">
<g clip-path="url(#clip0_2_150)">
<rect x="0.609985" width="18" height="18" rx="4" fill="#0D425A"/>
<g clip-path="url(#clip1_2_150)">
<path fill-rule="evenodd" clip-rule="evenodd" d="M13.9712 9.97497C14.1385 10.7805 14.3035 11.5845 14.4685 12.3885C14.629 13.1677 14.7887 13.947 14.9507 14.727C14.9785 14.8605 14.8397 15.0157 14.7002 14.9602C13.5422 14.5365 12.403 14.109 11.2615 13.6807L10.1927 13.2802C10.0968 13.2498 10.0132 13.1893 9.95424 13.1077L4.41174 6.43047C4.36149 6.36897 4.35024 6.26922 4.36674 6.19047C4.60074 5.26797 4.90674 4.58322 5.68074 3.92622C6.45924 3.26997 7.19424 3.07497 8.14524 3.00297C8.26224 2.99172 8.31249 3.01347 8.37924 3.10272L9.39249 4.32147C10.8685 6.09672 12.3437 7.87197 13.8152 9.64647C13.897 9.73947 13.9502 9.85272 13.9712 9.97497ZM5.24124 6.34647C5.75874 5.00022 6.96624 4.09347 8.11749 3.87072L7.97874 3.70347C7.29791 3.7488 6.6497 4.01181 6.12977 4.45368C5.60985 4.89555 5.24575 5.49287 5.09124 6.15747L5.24124 6.34647ZM5.61924 6.79722C6.16449 5.47872 7.19949 4.58847 8.50749 4.34397L9.17499 5.13897C8.02299 5.36772 6.88824 6.28047 6.29799 7.61547L5.61924 6.79722ZM7.63299 6.67497L10.5775 10.2142H10.576C10.999 10.7257 10.5655 12.2062 10.3487 12.495L6.68124 8.07747C6.90867 7.55494 7.23142 7.07933 7.63299 6.67497ZM10.8055 10.0357L7.84524 6.47472C8.36274 6.02397 8.95824 5.71797 9.55299 5.60097L13.12 9.89097C12.6475 10.281 11.1392 10.4422 10.8055 10.0357ZM11.128 10.6537C11.9005 10.8097 12.868 10.6035 13.3255 10.2592L13.648 11.8275L13.9105 13.0965C13.6322 13.2135 13.393 13.386 13.2257 13.6695L12.0797 13.2465L10.666 12.7125C11.056 12.0727 11.1835 11.271 11.128 10.6537Z" fill="white"/>
</g>
</g>
<defs>
<clipPath id="clip0_2_150">
<rect x="0.609985" width="18" height="18" rx="4" fill="white"/>
</clipPath>
<clipPath id="clip1_2_150">
<rect width="18" height="18" fill="white" transform="translate(0.609985)"/>
</clipPath>
</defs>
</svg>
