<svg width="45" height="45" viewBox="0 0 45 45" fill="none" xmlns="http://www.w3.org/2000/svg">
<g clip-path="url(#clip0_2_258)">
<path opacity="0.5" fill-rule="evenodd" clip-rule="evenodd" d="M22.5751 -9.83565e-05C10.3271 -0.0720984 0.0530587 9.8359 5.87382e-05 22.3749C-0.102941 34.6809 9.86406 44.8959 22.3271 44.9999C34.5741 45.1019 44.9101 35.1409 44.9991 22.6159C45.0831 10.7409 35.5131 0.0769016 22.5751 -9.83565e-05ZM22.4831 40.5229C12.5891 40.5089 4.50406 32.4339 4.47306 22.5309C4.44106 12.6229 12.5551 4.5019 22.5111 4.4779C32.3561 4.4529 40.5701 12.6559 40.5221 22.4649C40.4741 32.4549 32.4021 40.5369 22.4831 40.5229ZM24.1941 9.7679C23.1301 8.7149 21.8391 8.7309 20.7721 9.7879C17.5311 13.0009 14.3131 16.2349 11.0881 19.4649C10.9161 19.6369 10.7501 19.8239 10.6251 20.0309C10.1571 20.7999 10.1201 21.6119 10.5751 22.3799C11.0291 23.1489 11.7571 23.6299 12.6451 23.4139C13.2871 23.2579 13.9591 22.9129 14.4391 22.4599C16.1751 20.8209 17.8351 19.1009 19.5271 17.4139C19.7221 17.2219 19.9401 17.0519 20.2691 16.7619V17.9899C20.2691 23.0429 20.2681 28.0969 20.2731 33.1499C20.2741 33.5759 20.2651 34.0189 20.3721 34.4239C20.6611 35.4989 21.6781 36.0889 22.8771 35.9389C23.9611 35.8039 24.7121 34.9189 24.7161 33.6729C24.7321 29.5069 24.7231 25.3429 24.7231 21.1769V16.7539C25.0231 17.0089 25.1661 17.1169 25.2911 17.2409C27.1121 19.0579 28.9161 20.8949 30.7581 22.6899C31.8211 23.7239 33.1901 23.7339 34.1031 22.7899C34.9931 21.8699 34.9591 20.5349 33.9441 19.5099C30.7091 16.2469 27.4621 12.9979 24.1941 9.7679Z" fill="#C9C9C9"/>
</g>
<defs>
<clipPath id="clip0_2_258">
<rect width="45" height="45" fill="white"/>
</clipPath>
</defs>
</svg>
