<svg width="19" height="18" viewBox="0 0 19 18" fill="none" xmlns="http://www.w3.org/2000/svg">
<g clip-path="url(#clip0_2_164)">
<rect x="0.609985" width="18" height="18" rx="4" fill="#168DE2"/>
<g clip-path="url(#clip1_2_164)">
<path fill-rule="evenodd" clip-rule="evenodd" d="M7.27673 7.25025C7.54198 7.25025 7.79637 7.14488 7.98393 6.95732C8.17149 6.76976 8.27686 6.51537 8.27686 6.25012C8.27686 5.98488 8.17149 5.73049 7.98393 5.54293C7.79637 5.35537 7.54198 5.25 7.27673 5.25C7.01148 5.25 6.7571 5.35537 6.56954 5.54293C6.38198 5.73049 6.27661 5.98488 6.27661 6.25012C6.27661 6.51537 6.38198 6.76976 6.56954 6.95732C6.7571 7.14488 7.01148 7.25025 7.27673 7.25025ZM11.9432 7.25025C12.2085 7.25025 12.4629 7.14488 12.6504 6.95732C12.838 6.76976 12.9434 6.51537 12.9434 6.25012C12.9434 5.98488 12.838 5.73049 12.6504 5.54293C12.4629 5.35537 12.2085 5.25 11.9432 5.25C11.678 5.25 11.4236 5.35537 11.236 5.54293C11.0485 5.73049 10.9431 5.98488 10.9431 6.25012C10.9431 6.51537 11.0485 6.76976 11.236 6.95732C11.4236 7.14488 11.678 7.25025 11.9432 7.25025ZM15.5207 11.8312L14.1692 9.56025C14.0801 9.41328 13.937 9.30695 13.7706 9.26394C13.6041 9.22092 13.4274 9.24463 13.2782 9.33C13.2046 9.37122 13.14 9.42677 13.0881 9.49336C13.0363 9.55996 12.9983 9.63625 12.9765 9.71775C12.9546 9.79925 12.9493 9.88431 12.9608 9.9679C12.9723 10.0515 13.0004 10.1319 13.0435 10.2045L13.204 10.4745C12.7341 10.9505 12.1741 11.328 11.5566 11.5851C10.9391 11.8421 10.2766 11.9735 9.60773 11.9715C8.93949 11.9735 8.27753 11.8425 7.66048 11.586C7.04342 11.3295 6.48362 10.9526 6.01373 10.4775L6.17648 10.2045C6.21947 10.1319 6.24751 10.0515 6.25896 9.9679C6.27042 9.88433 6.26505 9.79931 6.24318 9.71784C6.22131 9.63637 6.18338 9.56009 6.13161 9.49349C6.07984 9.42688 6.01529 9.3713 5.94173 9.33C5.79249 9.2442 5.61559 9.22026 5.44891 9.26329C5.28223 9.30633 5.13903 9.41293 5.04998 9.56025L3.69998 11.8312C3.65697 11.9038 3.62888 11.9842 3.61737 12.0677C3.60586 12.1513 3.61116 12.2363 3.63296 12.3177C3.65476 12.3992 3.69262 12.4755 3.74431 12.5421C3.796 12.6088 3.86049 12.6644 3.93398 12.7057C4.08331 12.7912 4.26009 12.8149 4.42666 12.7719C4.59322 12.7289 4.73642 12.6225 4.82573 12.4755L5.33798 11.6153C6.50902 12.6717 8.03133 13.2545 9.60848 13.2502C11.1871 13.2547 12.7107 12.6707 13.882 11.6122L14.3957 12.4755C14.4841 12.6236 14.6273 12.7308 14.7943 12.7739C14.9612 12.817 15.1385 12.7925 15.2875 12.7057C15.361 12.6644 15.4255 12.6088 15.4772 12.5421C15.5288 12.4755 15.5667 12.3992 15.5885 12.3177C15.6103 12.2363 15.6156 12.1513 15.6041 12.0677C15.5926 11.9842 15.5637 11.9038 15.5207 11.8312Z" fill="white"/>
</g>
</g>
<defs>
<clipPath id="clip0_2_164">
<rect x="0.609985" width="18" height="18" rx="4" fill="white"/>
</clipPath>
<clipPath id="clip1_2_164">
<rect width="18" height="18" fill="white" transform="translate(0.609985)"/>
</clipPath>
</defs>
</svg>
