<svg width="21" height="21" viewBox="0 0 21 21" fill="none" xmlns="http://www.w3.org/2000/svg">
<g clip-path="url(#clip0_2_270)">
<path d="M9.218 20.015H1.052C0.94487 20.015 0.84 19.9842 0.749919 19.9262C0.659837 19.8682 0.588351 19.7855 0.544001 19.688C0.502838 19.5881 0.491322 19.4785 0.51083 19.3723C0.530339 19.266 0.580045 19.1677 0.654001 19.089L2.649 17.021C1.26523 15.4387 0.504563 13.407 0.509001 11.305C0.509532 8.99527 1.42722 6.78031 3.06033 5.14701C4.69344 3.51371 6.9083 2.59577 9.218 2.59497C9.69 2.59497 10.162 2.63097 10.633 2.70397C10.7729 2.7299 10.8977 2.8081 10.982 2.9227C11.0663 3.0373 11.1039 3.1797 11.087 3.32097C11.033 3.61097 10.76 3.82897 10.47 3.77397C10.0551 3.71693 9.63684 3.68687 9.218 3.68397C8.21725 3.68384 7.22626 3.88084 6.30165 4.26372C5.37703 4.6466 4.53689 5.20787 3.8292 5.91546C3.12151 6.62306 2.56014 7.46313 2.17713 8.38769C1.79413 9.31226 1.597 10.3032 1.597 11.304C1.597 13.319 2.377 15.224 3.792 16.658C3.992 16.875 4.01 17.202 3.792 17.42L2.341 18.926H9.218C10.2188 18.9261 11.2099 18.7291 12.1346 18.3461C13.0593 17.9632 13.8995 17.4018 14.6072 16.6941C15.3149 15.9864 15.8762 15.1462 16.2592 14.2216C16.6421 13.2969 16.8391 12.3058 16.839 11.305C16.839 11.069 16.821 10.833 16.803 10.597C16.766 10.307 17.003 10.034 17.293 9.99797C17.601 9.97997 17.855 10.198 17.892 10.488C17.91 10.76 17.928 11.014 17.928 11.287C17.928 16.113 14.027 20.015 9.218 20.015Z" fill="#9AB25C"/>
<path d="M12.3029 10.2161H6.13294C6.06117 10.2173 5.98988 10.204 5.92333 10.1771C5.85678 10.1502 5.79632 10.1102 5.74556 10.0594C5.6948 10.0087 5.65478 9.94823 5.62787 9.88167C5.60096 9.81512 5.58773 9.74384 5.58894 9.67206C5.58894 9.36306 5.82494 9.12706 6.13294 9.12706H12.3029C12.6109 9.12706 12.8469 9.36306 12.8469 9.67206C12.8482 9.74384 12.8349 9.81512 12.808 9.88167C12.7811 9.94823 12.7411 10.0087 12.6903 10.0594C12.6396 10.1102 12.5791 10.1502 12.5126 10.1771C12.446 10.204 12.3747 10.2173 12.3029 10.2161ZM9.57994 13.4821H6.13294C6.06117 13.4833 5.98988 13.47 5.92333 13.4431C5.85678 13.4162 5.79632 13.3762 5.74556 13.3254C5.6948 13.2747 5.65478 13.2142 5.62787 13.1477C5.60096 13.0811 5.58773 13.0098 5.58894 12.9381C5.58894 12.6291 5.82494 12.3931 6.13294 12.3931H9.58094C9.88894 12.3931 10.1249 12.6291 10.1249 12.9381C10.1262 13.0098 10.1129 13.0811 10.086 13.1477C10.0591 13.2142 10.0191 13.2747 9.96832 13.3254C9.91756 13.3762 9.85711 13.4162 9.79056 13.4431C9.724 13.47 9.65272 13.4833 9.58094 13.4821H9.57994ZM12.4829 13.4821H12.3019C12.2301 13.4834 12.1587 13.4703 12.092 13.4434C12.0254 13.4166 11.9648 13.3766 11.9139 13.3258C11.863 13.275 11.8229 13.2145 11.796 13.1479C11.769 13.0813 11.7557 13.0099 11.7569 12.9381C11.7569 12.6291 11.9929 12.3931 12.3019 12.3931H12.4829C12.7919 12.3931 13.0279 12.6291 13.0279 12.9381C13.0292 13.0099 13.0159 13.0813 12.9889 13.1479C12.962 13.2145 12.9218 13.275 12.871 13.3258C12.8201 13.3766 12.7595 13.4166 12.6929 13.4434C12.6262 13.4703 12.5548 13.4834 12.4829 13.4821ZM20.3779 6.84006L16.5299 0.436062C16.4493 0.301626 16.3349 0.190645 16.198 0.114154C16.0612 0.0376632 15.9067 -0.00167151 15.7499 6.16939e-05C15.5933 -0.00177456 15.4389 0.0374087 15.302 0.113719C15.1652 0.19003 15.0507 0.300812 14.9699 0.435062L11.1219 6.84106C10.9589 7.13106 10.9409 7.45806 11.1039 7.74806C11.2669 8.03806 11.5579 8.20206 11.9019 8.20206H19.5779C19.7385 8.20483 19.8969 8.16488 20.0369 8.0863C20.1769 8.00773 20.2936 7.89335 20.3749 7.75488C20.4562 7.61641 20.4992 7.45882 20.4996 7.29825C20.4999 7.13768 20.4576 6.9799 20.3769 6.84106L20.3779 6.84006Z" fill="#9AB25C"/>
<path d="M15.75 5.13493C15.6782 5.13615 15.6069 5.12291 15.5404 5.09601C15.4738 5.0691 15.4134 5.02907 15.3626 4.97831C15.3119 4.92755 15.2718 4.8671 15.2449 4.80055C15.218 4.73399 15.2048 4.66271 15.206 4.59093V2.77593C15.206 2.46793 15.442 2.23193 15.75 2.23193C16.059 2.23193 16.295 2.46793 16.295 2.77593V4.59093C16.2962 4.66279 16.2829 4.73416 16.256 4.80078C16.229 4.8674 16.1889 4.9279 16.138 4.97868C16.0872 5.02945 16.0266 5.06946 15.9599 5.0963C15.8932 5.12315 15.8218 5.13629 15.75 5.13493ZM15.75 6.94993C15.6786 6.95171 15.6076 6.93796 15.542 6.90965C15.4764 6.88133 15.4177 6.83913 15.37 6.78593C15.351 6.76793 15.315 6.73193 15.297 6.69593C15.279 6.65893 15.26 6.64093 15.242 6.60493C15.224 6.56893 15.224 6.53193 15.206 6.49593C15.206 6.45993 15.188 6.42393 15.188 6.38693C15.188 6.24193 15.242 6.09693 15.351 6.00693C15.551 5.80693 15.914 5.80693 16.113 6.00693C16.1648 6.05575 16.2061 6.11464 16.2343 6.17999C16.2625 6.24533 16.277 6.31576 16.277 6.38693C16.277 6.42393 16.277 6.45993 16.259 6.49693C16.259 6.53193 16.24 6.56893 16.222 6.60493C16.204 6.64093 16.186 6.67793 16.168 6.69493C16.15 6.73193 16.131 6.74993 16.095 6.78593C16.041 6.89593 15.895 6.94993 15.75 6.94993Z" fill="#DDEEB0"/>
</g>
<defs>
<clipPath id="clip0_2_270">
<rect width="20" height="21" fill="white" transform="translate(0.5)"/>
</clipPath>
</defs>
</svg>
