<svg width="32" height="33" viewBox="0 0 32 33" fill="none" xmlns="http://www.w3.org/2000/svg">
<rect y="0.714294" width="32" height="32" rx="16" fill="#0A2896"/>
<mask id="mask0_1_83" style="mask-type:luminance" maskUnits="userSpaceOnUse" x="4" y="12" width="24" height="10">
<path d="M28 12.7143H4V21.2857H28V12.7143Z" fill="white"/>
</mask>
<g mask="url(#mask0_1_83)">
<path fill-rule="evenodd" clip-rule="evenodd" d="M5.6338 12.7143L5.2251 13.8356H10.8888L11.2975 12.7143H5.6338ZM5.02062 14.396L4.61191 15.5171H10.2757L10.6844 14.396H5.02062ZM4.40871 16.0778L4 17.1989H9.66375L10.0722 16.0778H4.40871Z" fill="#00AAFF"/>
<path fill-rule="evenodd" clip-rule="evenodd" d="M16.0408 17.6261V17.6498C16.2996 17.7449 16.5468 17.9113 16.6764 18.0182C17.0766 18.351 17.2533 18.7906 17.2533 19.361C17.2533 20.3001 16.7588 20.9774 15.9465 21.1914C15.6992 21.2626 15.4405 21.2866 14.9575 21.2866H12.4974V14.4175H14.6753C15.1227 14.4175 15.4286 14.4412 15.6992 14.5124C16.4882 14.7264 17.0061 15.2732 17.0061 16.1405C17.0061 16.6041 16.8412 16.9964 16.5706 17.2577C16.4529 17.3765 16.288 17.5193 16.0408 17.6261ZM13.863 18.351V20.1574H14.8048C15.0871 20.1574 15.3462 20.1337 15.5347 19.9554C15.723 19.777 15.8054 19.5514 15.8054 19.2542C15.8054 19.0285 15.7464 18.8145 15.6287 18.6601C15.4286 18.4105 15.1813 18.351 14.7577 18.351H13.863ZM13.8511 17.1625H14.6163C14.8517 17.1625 14.9694 17.1625 15.0871 17.1269C15.4052 17.0318 15.6053 16.7468 15.6053 16.3545C15.6053 15.8912 15.3933 15.6889 15.0871 15.594C14.9575 15.5584 14.8282 15.5464 14.5692 15.5464H13.8511V17.1625ZM19.3016 21.2866V15.5701H17.3357V14.4175H22.798L22.4097 15.5701H20.6672V21.2866H19.3016ZM23.2217 21.2866V14.4175H27.6482L27.2598 15.5701H24.5756V17.0913H25.6705C26.5533 17.0913 27.0125 17.3053 27.3303 17.5785C27.5776 17.7925 28.0013 18.2678 28.0013 19.2069C28.0013 20.1337 27.5657 20.6446 27.2008 20.9062C26.7772 21.2031 26.3298 21.2866 25.4232 21.2866H23.2217ZM24.5756 20.1337H25.5999C25.9883 20.1337 26.2236 20.0386 26.3885 19.8246C26.4709 19.7178 26.5886 19.5274 26.5886 19.171C26.5886 18.8145 26.4709 18.5649 26.2355 18.3866C26.0944 18.2797 25.9058 18.2205 25.588 18.2205H24.5756V20.1337Z" fill="white"/>
</g>
</svg>
