<svg width="101" height="36" viewBox="0 0 101 36" fill="none" xmlns="http://www.w3.org/2000/svg">
<mask id="mask0_1_73" style="mask-type:luminance" maskUnits="userSpaceOnUse" x="0" y="0" width="101" height="36">
<path d="M100.5 0L0.5 0L0.5 35.7143L100.5 35.7143V0Z" fill="white"/>
</mask>
<g mask="url(#mask0_1_73)">
<path fill-rule="evenodd" clip-rule="evenodd" d="M7.30751 0L5.60458 4.67222L29.2035 4.67222L30.9065 0L7.30751 0ZM4.75257 7.00725L3.04963 11.6784L26.6486 11.6784L28.3515 7.00725L4.75257 7.00725ZM2.20294 14.0145L0.5 18.6857H24.0989L25.8008 14.0145L2.20294 14.0145Z" fill="#00AAFF"/>
<path fill-rule="evenodd" clip-rule="evenodd" d="M50.67 20.466V20.5646C51.7483 20.9611 52.7785 21.6544 53.3183 22.0996C54.9859 23.4863 55.7222 25.3181 55.7222 27.6949C55.7222 31.6078 53.6617 34.4298 50.2771 35.3214C49.2469 35.6182 48.1686 35.7179 46.1564 35.7179H35.906V7.09698L44.9803 7.09698C46.8444 7.09698 48.1191 7.19557 49.2469 7.49236C52.534 8.38394 54.692 10.6621 54.692 14.276C54.692 16.2076 54.0051 17.8423 52.8774 18.931C52.387 19.4261 51.7002 20.0208 50.67 20.466ZM41.5957 23.4863V31.0131H45.5201C46.6961 31.0131 47.7757 30.9145 48.5615 30.1713C49.3458 29.4282 49.6892 28.4879 49.6892 27.2497C49.6892 26.3093 49.4433 25.4178 48.9529 24.7743C48.1191 23.7343 47.0889 23.4863 45.3237 23.4863H41.5957ZM41.5463 18.5345H44.7345C45.7153 18.5345 46.2058 18.5345 46.6961 18.3861C48.0216 17.9896 48.8554 16.8023 48.8554 15.1676C48.8554 13.2371 47.9722 12.3943 46.6961 11.9989C46.1564 11.8505 45.6177 11.8007 44.5381 11.8007H41.5463V18.5345ZM64.2565 35.7179V11.8993L56.0656 11.8993V7.09698L78.8252 7.09698L77.2071 11.8993L69.9465 11.8993V35.7179H64.2565ZM80.5903 35.7179V7.09698L99.034 7.09698L97.4158 11.8993H86.2318V18.2377H90.7936C94.4722 18.2377 96.3856 19.1292 97.7098 20.2678C98.74 21.1593 100.506 23.1396 100.506 27.0525C100.506 30.9145 98.6906 33.0432 97.17 34.133C95.4049 35.3701 93.5409 35.7179 89.7634 35.7179H80.5903ZM86.2318 30.9145H90.4996C92.1178 30.9145 93.0985 30.518 93.7854 29.6264C94.1288 29.1812 94.6191 28.3882 94.6191 26.903C94.6191 25.4178 94.1288 24.3778 93.148 23.6347C92.5601 23.1894 91.7744 22.9425 90.4502 22.9425H86.2318V30.9145Z" fill="white"/>
</g>
</svg>
