<svg width="16" height="16" viewBox="0 0 16 16" fill="none" xmlns="http://www.w3.org/2000/svg">
<path fill-rule="evenodd" clip-rule="evenodd" d="M10.9247 4.63077C11.1779 4.86533 11.1931 5.26077 10.9585 5.51401L5.3296 11.5911C4.86867 12.0887 4.10008 12.0887 3.63916 11.5911L1.29148 9.05648C1.05692 8.80323 1.07206 8.40779 1.32529 8.17323C1.57853 7.93867 1.97397 7.95386 2.20853 8.20704L4.48438 10.6641L10.0415 4.66459C10.2761 4.41135 10.6715 4.39621 10.9247 4.63077ZM14.05 4.63077C14.3032 4.86533 14.3184 5.26077 14.0838 5.51401L8.45488 11.5911C8.22031 11.8443 7.82487 11.8595 7.57162 11.6249C7.31837 11.3904 7.30325 10.9949 7.53781 10.7417L13.1667 4.66459C13.4013 4.41135 13.7968 4.39621 14.05 4.63077Z" fill="#CECECE"/>
</svg>
