<svg width="100" height="100" viewBox="0 0 100 100" fill="none" xmlns="http://www.w3.org/2000/svg">
<rect width="100" height="100" rx="50" fill="url(#paint0_linear_0_991)"/>
<rect x="19" y="19" width="61.1765" height="61.1765" rx="30.5882" fill="#4AD8D5"/>
<path d="M36.0173 49.682C36.0173 48.734 36.1733 47.864 36.4853 47.072C36.8093 46.28 37.2653 45.596 37.8533 45.02C38.4413 44.444 39.1493 44 39.9773 43.688C40.8053 43.364 41.7353 43.202 42.7673 43.202C43.7753 43.202 44.6933 43.352 45.5213 43.652C46.3613 43.952 47.0753 44.384 47.6633 44.948C48.2513 45.5 48.7073 46.178 49.0313 46.982C49.3553 47.786 49.5173 48.698 49.5173 49.718C49.5173 50.666 49.3553 51.536 49.0313 52.328C48.7193 53.12 48.2693 53.804 47.6813 54.38C47.0933 54.956 46.3793 55.406 45.5393 55.73C44.7113 56.042 43.7873 56.198 42.7673 56.198C41.7593 56.198 40.8353 56.054 39.9953 55.766C39.1673 55.466 38.4593 55.04 37.8713 54.488C37.2833 53.924 36.8273 53.24 36.5033 52.436C36.1793 51.62 36.0173 50.702 36.0173 49.682ZM38.3933 49.7C38.3933 50.312 38.4833 50.888 38.6633 51.428C38.8553 51.968 39.1373 52.436 39.5093 52.832C39.8813 53.228 40.3373 53.546 40.8773 53.786C41.4293 54.014 42.0653 54.128 42.7853 54.128C43.4573 54.128 44.0573 54.02 44.5853 53.804C45.1253 53.588 45.5813 53.288 45.9533 52.904C46.3373 52.52 46.6313 52.058 46.8353 51.518C47.0393 50.966 47.1413 50.36 47.1413 49.7C47.1413 49.088 47.0453 48.512 46.8533 47.972C46.6733 47.432 46.3973 46.964 46.0253 46.568C45.6533 46.172 45.1913 45.86 44.6393 45.632C44.0993 45.392 43.4693 45.272 42.7493 45.272C42.0773 45.272 41.4713 45.38 40.9313 45.596C40.3913 45.812 39.9293 46.118 39.5453 46.514C39.1733 46.898 38.8853 47.36 38.6813 47.9C38.4893 48.44 38.3933 49.04 38.3933 49.7ZM54.1263 56H51.8763V43.4H54.1263V48.692H56.0163L60.0663 43.4H62.8023L57.9963 49.394L63.5763 56H60.6963L56.1243 50.546H54.1263V56Z" fill="white"/>
<defs>
<linearGradient id="paint0_linear_0_991" x1="50" y1="0" x2="50" y2="100" gradientUnits="userSpaceOnUse">
<stop stop-color="#175268"/>
<stop offset="1" stop-color="#45CACA"/>
</linearGradient>
</defs>
</svg>
