<svg width="111" height="30" viewBox="0 0 111 30" fill="none" xmlns="http://www.w3.org/2000/svg">
<path d="M87.7157 9.00907L91.7393 6.02481H78.1527V24.0875H91.7393V21.0508H82.0198V16.4436H90.3286V13.4593H82.0198V9.00907H87.7157Z" fill="white"/>
<path d="M67.8592 13.0367H63.1038V9.00533H70.6813L74.7573 6.02108H59.2371V24.0837H67.3367C71.8831 24.0837 74.496 22.0418 74.496 18.4293C74.5481 14.9739 72.1444 13.0367 67.8592 13.0367ZM67.1798 21.0471H63.1038V16.021H67.1798C69.6359 16.021 70.7857 16.8587 70.7857 18.5341C70.7857 20.2618 69.5839 21.0471 67.1798 21.0471Z" fill="white"/>
<path d="M102.818 6.02108H95.3979V24.0837H99.265V18.9529H102.818C107.574 18.9529 110.5 16.4398 110.5 12.4608C110.448 8.4818 107.521 6.02108 102.818 6.02108ZM102.714 15.9686H99.265V9.00533H102.714C105.222 9.00533 106.581 10.2095 106.581 12.4608C106.581 14.7121 105.222 15.9686 102.714 15.9686Z" fill="white"/>
<path d="M52.5477 20.1559C51.5551 20.7318 50.4053 20.9936 49.2035 20.9936C45.7024 20.9936 43.1415 18.4805 43.1415 15.0251C43.1415 11.5696 45.7024 9.05656 49.2035 9.05656C50.5098 9.05656 51.7116 9.42305 52.757 10.156L55.5263 8.11416L55.3175 7.95708C53.6976 6.54349 51.5027 5.75814 49.0467 5.75814C46.3293 5.75814 43.9257 6.64819 42.1489 8.32356C40.3722 9.99893 39.4316 12.355 39.4316 14.9203C39.4316 17.5382 40.3722 19.8941 42.1489 21.6219C43.9257 23.3496 46.3293 24.292 49.0467 24.292C51.8684 24.292 54.2725 23.2972 55.9444 21.5172C54.6905 20.5748 53.4363 19.6847 53.4363 19.6847L52.5477 20.1559Z" fill="white"/>
<path d="M30.443 15.026C30.443 14.0836 30.3385 13.1936 30.1817 12.3559L26.9418 14.7119C26.9418 14.8166 26.9418 14.9213 26.9418 15.026C26.9418 21.361 21.7684 26.5442 15.4454 26.5442C9.12231 26.5442 3.94893 21.361 3.94893 15.026C3.94893 8.69099 9.12231 3.5078 15.4454 3.5078C17.8492 3.5078 20.0962 4.2408 21.9252 5.49734L24.8516 3.35075C22.291 1.25653 18.9988 0 15.4454 0C7.18886 0.0523558 0.5 6.75384 0.5 15.026C0.5 23.2982 7.18886 29.9997 15.4454 29.9997C23.7542 30.052 30.443 23.3505 30.443 15.026Z" fill="white"/>
<path d="M27.307 5.86325C28.0386 6.7533 28.6135 7.80041 29.0838 8.84751L15.4448 18.9521L9.74884 15.3919V11.0464L15.4448 14.6066L27.307 5.86325Z" fill="white"/>
</svg>
