<svg width="140" height="67" viewBox="0 0 140 67" fill="none" xmlns="http://www.w3.org/2000/svg">
<path d="M43.9355 20.6395H52.7569V23.5218H48.5605V43.7739H43.9355V20.6395Z" fill="#4AA8FB"/>
<path d="M57.987 35.0891L58.7797 23.5219H59.0451L59.8378 35.0891H57.987ZM52.8652 43.7739H57.3935L57.8221 37.63H60.0028L60.4332 43.7739H64.9596L62.5475 20.6395H55.2773L52.8652 43.7739Z" fill="#4AA8FB"/>
<path d="M71.5829 35.6769V40.0383C71.5829 40.6261 72.038 40.7968 72.3035 40.7968C72.7397 40.7968 73.043 40.4365 73.043 40.0383V34.6529C73.043 33.9323 72.9103 33.1359 71.1847 33.1359H69.3074V30.5949H71.2606C72.569 30.5949 73.043 30.2915 73.043 28.8693V24.2804C73.043 23.8822 72.7397 23.5219 72.3035 23.5219C72.038 23.5219 71.5829 23.6736 71.5829 24.2804V28.0539H66.9561V24.7734C66.9561 23.1616 67.1457 20.6395 70.3883 20.6395H74.2187C77.4613 20.6395 77.6699 23.1616 77.6699 24.7734V28.4711C77.6699 30.9931 75.9064 31.6758 74.5221 31.6189V31.8464C77.632 31.7706 77.6699 34.1599 77.6699 34.9753V39.6401C77.6699 41.2709 77.4613 43.7739 74.2187 43.7739H70.3883C67.1457 43.7739 66.9561 41.2709 66.9561 39.6401V35.6769H71.5829Z" fill="#4AA8FB"/>
<path d="M80.7041 20.6395H91.418V43.7739H86.7911V23.5219H85.331V43.7739H80.7041V20.6395Z" fill="#4AA8FB"/>
<path d="M99.079 33.3635V23.5219H99.6858C100.179 23.5219 100.539 23.939 100.539 24.6786V32.2067C100.539 32.9463 100.179 33.3635 99.6858 33.3635H99.079ZM94.4521 43.7739H99.079V35.9045H101.734C104.957 35.9045 105.166 33.4014 105.166 31.7706V24.7734C105.166 23.1616 104.957 20.6395 101.734 20.6395H94.4521V43.7739Z" fill="#4AA8FB"/>
<path d="M114.287 40.0383C114.287 40.4365 113.983 40.7968 113.547 40.7968C113.282 40.7968 112.827 40.6261 112.827 40.0383V24.2804C112.827 23.6736 113.282 23.5219 113.547 23.5219C113.983 23.5219 114.287 23.8822 114.287 24.2804V40.0383ZM108.2 39.6401C108.2 41.2709 108.408 43.7739 111.632 43.7739H115.481C118.705 43.7739 118.914 41.2709 118.914 39.6401V24.7734C118.914 23.1616 118.705 20.6395 115.481 20.6395H111.632C108.408 20.6395 108.2 23.1616 108.2 24.7734V39.6401Z" fill="#4AA8FB"/>
<path d="M133.97 20.6395H140V43.7739H135.373V29.2675H135.203L132.813 43.7739H129.116L126.745 29.2675H126.575V43.7739H121.948V20.6395H127.959L130.974 36.9095L133.97 20.6395Z" fill="#4AA8FB"/>
<path d="M36.9354 12.0602C35.5189 5.85945 31.9691 0.815393 31.4799 0C30.7062 1.15672 27.8751 5.61293 26.4358 10.5432C24.8638 16.0613 24.6324 20.9537 25.1748 25.7512C25.7133 30.5677 27.748 35.517 27.748 35.517C28.8289 38.0959 30.4483 40.8834 31.5026 42.2487C33.048 40.2387 36.5998 34.2465 37.7072 26.4339C38.3235 22.0725 38.35 18.261 36.9354 12.0602ZM31.4799 40.6938C30.7839 39.3854 29.7031 36.9013 29.6007 33.0329C29.5741 29.3162 31.0665 26.1115 31.5026 25.4478C31.8913 26.1115 33.177 28.899 33.3306 32.7105C33.4349 36.4272 32.1985 39.3664 31.4799 40.6938ZM36.5239 22.5845C36.4708 24.9548 36.1883 27.4579 35.828 28.9559C35.9569 26.377 35.6478 22.7551 35.0562 19.9108C34.4646 17.0853 32.7902 12.3447 31.4533 10.164C30.2188 12.2499 28.698 16.3458 27.9016 19.8918C27.1014 23.4378 27.0786 27.7423 27.0786 29.0318C26.8662 27.9509 26.3353 24.0636 26.4851 20.1762C26.6102 16.9715 27.3612 13.6531 27.7727 12.1361C29.3428 7.07306 31.1196 3.83045 31.4533 3.31845C31.787 3.83045 34.0246 7.83156 35.1852 12.0223C36.34 16.213 36.5732 20.2331 36.5239 22.5845Z" fill="#4AA8FB"/>
<path d="M23.1135 43.6899V50.9146C23.123 50.9146 23.1306 50.8957 23.1401 50.8957C25.6773 48.3547 29.7922 48.3547 32.3313 50.8957C34.8685 53.4177 34.8685 57.5326 32.3313 60.0736C32.3199 60.0926 32.3085 60.0926 32.2971 60.1115C32.2839 60.1115 32.2706 60.1305 32.2592 60.1494C29.7277 62.6525 26.4206 63.904 23.1135 63.904C19.7913 63.904 16.469 62.6525 13.9356 60.1115C9.46803 55.6553 8.93899 48.7339 12.3447 43.6899C12.8036 43.0072 13.3326 42.3625 13.9356 41.7557C16.469 39.2147 19.7913 37.9632 23.1135 37.9632V20.5934C10.3479 20.5934 0 30.928 0 43.6899C0 56.4517 10.3479 66.8053 23.1135 66.8053C29.7694 66.8053 35.7654 63.9799 39.9827 59.4857V43.6899H23.1135Z" fill="#4AA8FB"/>
<path fill-rule="evenodd" clip-rule="evenodd" d="M139.98 45.7746H43.9355V66.8227H139.98V45.7746ZM116.924 53.7944C116.596 53.7944 116.302 53.8535 116.042 53.9718C115.791 54.09 115.577 54.2603 115.402 54.4829C115.226 54.6984 115.093 54.9627 115.001 55.2756C114.917 55.5885 114.875 55.9397 114.875 56.3291C114.875 56.8576 114.944 57.3096 115.081 57.6852C115.226 58.0537 115.451 58.3354 115.756 58.5301C116.061 58.7248 116.451 58.8221 116.924 58.8221C117.259 58.8221 117.591 58.7874 117.919 58.7178C118.255 58.6483 118.617 58.5509 119.006 58.4258V59.7505C118.648 59.8826 118.293 59.98 117.942 60.0425C117.591 60.1051 117.198 60.1364 116.763 60.1364C115.924 60.1364 115.23 59.98 114.681 59.667C114.139 59.3472 113.738 58.9021 113.479 58.3319C113.22 57.7547 113.09 57.0836 113.09 56.3187C113.09 55.7554 113.174 55.2408 113.342 54.7749C113.51 54.3021 113.754 53.8953 114.074 53.5545C114.402 53.2138 114.803 52.9495 115.276 52.7618C115.756 52.574 116.306 52.4801 116.924 52.4801C117.328 52.4801 117.732 52.5288 118.137 52.6262C118.549 52.7166 118.941 52.8417 119.315 53.0017L118.755 54.2847C118.449 54.1526 118.14 54.0378 117.828 53.9405C117.522 53.8431 117.221 53.7944 116.924 53.7944ZM51.6224 52.5844H50.066V60.0321H52.1488L55.9366 54.3264H55.9824C55.9748 54.3751 55.9633 54.4794 55.9481 54.6393C55.9404 54.7923 55.929 54.9731 55.9137 55.1817C55.9061 55.3904 55.8985 55.6094 55.8908 55.8389C55.8832 56.0614 55.8794 56.2666 55.8794 56.4543V60.0321H57.4243V52.5844H55.353L51.5766 58.238H51.5423C51.5499 58.1824 51.5575 58.0815 51.5652 57.9355C51.5728 57.7825 51.5804 57.6052 51.588 57.4035C51.5957 57.1949 51.6033 56.9828 51.6109 56.7672C51.6186 56.5517 51.6224 56.357 51.6224 56.1831V52.5844ZM72.2351 60.0321H73.9631V52.5844H72.2351V55.5051H68.9966V52.5844H67.2686V60.0321H68.9966V56.8194H72.2351V60.0321ZM86.3411 52.5844C87.0659 52.5844 87.6724 52.647 88.1606 52.7722C88.6565 52.8904 89.0265 53.0886 89.2707 53.3668C89.5224 53.638 89.6483 54.0065 89.6483 54.4724C89.6483 54.7506 89.5987 55.0044 89.4995 55.2339C89.4004 55.4634 89.2554 55.6511 89.0647 55.7972C88.8816 55.9432 88.6565 56.0371 88.3895 56.0788V56.131C88.6641 56.1796 88.9121 56.2666 89.1333 56.3917C89.3546 56.5169 89.53 56.6977 89.6597 56.9341C89.7894 57.1706 89.8543 57.4835 89.8543 57.8729C89.8543 58.3249 89.7322 58.7143 89.4881 59.0412C89.2516 59.3611 88.9083 59.6079 88.4582 59.7818C88.008 59.9487 87.474 60.0321 86.8561 60.0321H83.8006V52.5844H86.3411ZM86.5356 55.5364C87.0392 55.5364 87.3863 55.4634 87.577 55.3173C87.7754 55.1713 87.8745 54.9592 87.8745 54.6811C87.8745 54.3959 87.7601 54.1908 87.5312 54.0656C87.3024 53.9405 86.94 53.8779 86.4441 53.8779H85.5286V55.5364H86.5356ZM85.5286 56.7881V58.7282H86.6615C87.1803 58.7282 87.5427 58.6378 87.7487 58.457C87.9546 58.2693 88.0576 58.0224 88.0576 57.7164C88.0576 57.5287 88.0119 57.3653 87.9203 57.2262C87.8364 57.0871 87.6876 56.9793 87.474 56.9028C87.2604 56.8263 86.9705 56.7881 86.6043 56.7881H85.5286ZM99.271 60.0321H103.974V58.7282H100.999V56.809H103.768V55.5155H100.999V53.8779H103.974V52.5844H99.271V60.0321ZM129.943 60.0321H131.671V53.8987H133.891V52.5844H127.723V53.8987H129.943V60.0321Z" fill="#4AA8FB"/>
</svg>
