<svg width="37" height="38" viewBox="0 0 37 38" fill="none" xmlns="http://www.w3.org/2000/svg">
<g clip-path="url(#clip0_1_252)">
<path d="M36.1919 18.9297C36.1346 28.8677 28.0304 36.8784 18.0901 36.8213C8.15394 36.7639 0.142705 28.6603 0.201187 18.7228C0.25718 8.78399 8.36131 0.772854 18.2985 0.83004C28.2379 0.886686 36.2491 8.99141 36.1917 18.9299L36.1918 18.9297L36.1919 18.9297Z" fill="#F4F9FB"/>
<path d="M25.3033 14.4572C25.0854 12.045 23.0088 11.2249 20.3824 10.9797L20.4018 7.63559L18.366 7.62421L18.3473 10.8802C17.8121 10.8771 17.265 10.8846 16.7214 10.8923L16.7407 7.61468L14.7061 7.60301L14.6861 10.9462C14.2454 10.9527 13.8124 10.9585 13.3904 10.9563L13.3902 10.9458L10.5825 10.9287L10.5705 13.1027C10.5705 13.1027 12.0739 13.0828 12.0488 13.1102C12.8733 13.1151 13.139 13.5954 13.2148 14.0089L13.1929 17.8185C13.2497 17.8191 13.3239 17.8219 13.408 17.834C13.3401 17.8337 13.2677 17.8329 13.1929 17.8332L13.1615 23.1702C13.1239 23.4294 12.969 23.8424 12.3929 23.84C12.4189 23.8632 10.9131 23.8312 10.9131 23.8312L10.4945 26.2599L13.1438 26.275C13.6368 26.2785 14.1218 26.2897 14.5981 26.2952L14.5795 29.6775L16.613 29.6894L16.6322 26.3429C17.1906 26.3577 17.7308 26.3652 18.2585 26.3678L18.2383 29.6987L20.2742 29.7101L20.2942 26.3339C23.7179 26.1572 26.1183 25.3089 26.4342 22.0967C26.6893 19.5104 25.4787 18.3489 23.5387 17.8712C24.7225 17.277 25.4666 16.2224 25.3041 14.4573L25.3034 14.457L25.3033 14.4572ZM22.4134 21.6728C22.3998 24.2004 18.0733 23.8882 16.6936 23.8815L16.72 19.4003C18.1001 19.4086 22.4288 19.0365 22.4134 21.6728L22.4134 21.6728ZM21.503 15.345C21.4892 17.6444 17.8811 17.3555 16.7319 17.3489L16.7555 13.2848C17.9047 13.2913 21.5168 12.9466 21.5032 15.3449L21.503 15.345Z" fill="#141414"/>
</g>
<rect x="0.50545" y="1.51793" width="35" height="35" rx="17.5" transform="rotate(-0.627946 0.50545 1.51793)" stroke="#DEDEDF"/>
<defs>
<clipPath id="clip0_1_252">
<rect y="1.02344" width="36" height="36" rx="18" transform="rotate(-0.627946 0 1.02344)" fill="white"/>
</clipPath>
</defs>
</svg>
