<svg width="226" height="36" viewBox="0 0 226 36" fill="none" xmlns="http://www.w3.org/2000/svg">
<path d="M122.763 0H121.453C121.04 0 120.705 0.427392 120.705 0.954607V35.0454C120.705 35.5726 121.04 36 121.453 36H122.763C123.176 36 123.51 35.5726 123.51 35.0454V0.954607C123.51 0.427392 123.176 0 122.763 0Z" fill="#50C8EC"/>
<mask id="mask0_1_7" style="mask-type:luminance" maskUnits="userSpaceOnUse" x="131" y="9" width="95" height="24">
<path d="M225.129 9.11688H131.389V32.9611H225.129V9.11688Z" fill="white"/>
</mask>
<g mask="url(#mask0_1_7)">
<path d="M144.91 9.9717C144.969 10.0319 145 10.1036 145 10.1892V12.6902C145 12.7758 144.969 12.8475 144.91 12.9077C144.85 12.9678 144.776 12.9968 144.69 12.9968H140.076C139.99 12.9968 139.948 13.0396 139.948 13.124V27.443C139.948 27.5286 139.917 27.6003 139.858 27.6605C139.797 27.7206 139.724 27.7496 139.638 27.7496H136.622C136.536 27.7496 136.463 27.7206 136.403 27.6605C136.342 27.6015 136.313 27.5286 136.313 27.443V13.124C136.313 13.0396 136.269 12.9968 136.184 12.9968H131.699C131.612 12.9968 131.54 12.9678 131.479 12.9077C131.418 12.8487 131.389 12.7758 131.389 12.6902V10.1892C131.389 10.1047 131.418 10.0319 131.479 9.9717C131.54 9.91155 131.612 9.88263 131.699 9.88263H144.691C144.776 9.88263 144.849 9.91271 144.91 9.9717Z" fill="#50C8EC"/>
<path d="M155.474 22.006C155.457 22.2096 155.346 22.3126 155.139 22.3126H147.173C147.07 22.3126 147.035 22.3554 147.07 22.4398C147.121 22.7799 147.216 23.12 147.354 23.4613C147.8 24.4145 148.712 24.8911 150.087 24.8911C151.186 24.8738 152.054 24.4319 152.69 23.5642C152.759 23.4624 152.836 23.4115 152.922 23.4115C152.974 23.4115 153.035 23.4462 153.102 23.5133L154.959 25.3261C155.044 25.4117 155.087 25.488 155.087 25.5563C155.087 25.591 155.052 25.6581 154.985 25.7599C154.418 26.4574 153.686 26.9977 152.794 27.3806C151.9 27.7635 150.921 27.9543 149.855 27.9543C148.377 27.9543 147.127 27.6223 146.105 26.9595C145.083 26.2955 144.348 25.3689 143.901 24.1774C143.54 23.3271 143.36 22.2119 143.36 20.8342C143.36 19.8983 143.489 19.0735 143.747 18.3586C144.142 17.1509 144.834 16.1896 145.822 15.4747C146.811 14.7598 147.984 14.4023 149.341 14.4023C151.06 14.4023 152.439 14.8963 153.479 15.883C154.518 16.8698 155.149 18.1886 155.374 19.8393C155.476 20.486 155.512 21.209 155.476 22.0083L155.474 22.006ZM147.225 19.0203C147.156 19.2412 147.097 19.5143 147.045 19.837C147.045 19.9226 147.089 19.9643 147.174 19.9643H151.634C151.736 19.9643 151.772 19.9215 151.736 19.837C151.65 19.3442 151.608 19.1059 151.608 19.1221C151.454 18.6119 151.183 18.2163 150.796 17.9352C150.409 17.6541 149.932 17.5141 149.365 17.5141C148.282 17.5141 147.569 18.0162 147.225 19.0203Z" fill="#50C8EC"/>
<path d="M157.06 27.6593C156.999 27.6003 156.97 27.5274 156.97 27.4418V10.1892C156.97 10.1047 157 10.0319 157.06 9.9717C157.119 9.91271 157.193 9.88263 157.279 9.88263H160.295C160.38 9.88263 160.454 9.91271 160.515 9.9717C160.574 10.0319 160.605 10.1036 160.605 10.1892V18.7901C160.605 18.841 160.621 18.871 160.656 18.8791C160.69 18.8884 160.725 18.8757 160.759 18.841L164.265 14.8083C164.385 14.6892 164.514 14.6302 164.652 14.6302H168.08C168.252 14.6302 168.338 14.6903 168.338 14.8083C168.338 14.8592 168.312 14.9275 168.261 15.0131L164.987 19.1221C164.952 19.1903 164.944 19.2493 164.961 19.3002L168.803 27.3909C168.837 27.4592 168.854 27.5101 168.854 27.5436C168.854 27.6801 168.76 27.7472 168.571 27.7472H165.4C165.228 27.7472 165.107 27.6709 165.039 27.517L162.487 21.5444C162.469 21.5109 162.439 21.4889 162.397 21.4808C162.354 21.4727 162.323 21.4854 162.307 21.519L160.657 23.5607C160.622 23.629 160.606 23.6799 160.606 23.7134V27.4395C160.606 27.5251 160.575 27.5969 160.516 27.657C160.456 27.7172 160.383 27.7461 160.296 27.7461H157.281C157.194 27.7461 157.122 27.7172 157.061 27.657L157.06 27.6593Z" fill="#50C8EC"/>
<path d="M180.195 15.676C181.037 16.51 181.458 17.6414 181.458 19.07V27.4419C181.458 27.5275 181.427 27.5992 181.368 27.6593C181.308 27.7195 181.235 27.7484 181.148 27.7484H178.133C178.046 27.7484 177.974 27.7195 177.913 27.6593C177.852 27.6003 177.823 27.5275 177.823 27.4419V19.8104C177.823 19.1302 177.63 18.5772 177.243 18.1515C176.857 17.727 176.345 17.513 175.709 17.513C175.074 17.513 174.562 17.7258 174.175 18.1515C173.789 18.5772 173.596 19.1302 173.596 19.8104V27.4419C173.596 27.5275 173.565 27.5992 173.506 27.6593C173.446 27.7195 173.373 27.7484 173.286 27.7484H170.271C170.184 27.7484 170.112 27.7195 170.051 27.6593C169.99 27.6003 169.961 27.5275 169.961 27.4419V14.9356C169.961 14.8511 169.991 14.7783 170.051 14.7181C170.11 14.658 170.184 14.629 170.271 14.629H173.286C173.371 14.629 173.445 14.6591 173.506 14.7181C173.565 14.7783 173.596 14.85 173.596 14.9356V15.8287C173.596 15.8796 173.612 15.9143 173.647 15.9305C173.681 15.9478 173.707 15.9397 173.724 15.905C174.429 14.9182 175.477 14.4243 176.87 14.4243C178.262 14.4243 179.352 14.8419 180.195 15.6748V15.676Z" fill="#50C8EC"/>
<path d="M185.426 26.8299C184.394 26.0814 183.69 25.06 183.312 23.7667C183.072 22.9673 182.951 22.0997 182.951 21.1638C182.951 20.1597 183.072 19.2586 183.312 18.4581C183.707 17.1994 184.421 16.2115 185.452 15.4978C186.483 14.7829 187.72 14.4254 189.163 14.4254C190.606 14.4254 191.776 14.7782 192.773 15.4851C193.769 16.1907 194.474 17.174 194.886 18.4326C195.161 19.284 195.299 20.1771 195.299 21.1129C195.299 22.0488 195.178 22.8909 194.938 23.6903C194.559 25.0172 193.859 26.0594 192.837 26.8172C191.814 27.5749 190.581 27.9531 189.138 27.9531C187.695 27.9531 186.456 27.5795 185.426 26.8299ZM190.582 24.3543C190.977 24.0142 191.261 23.5469 191.432 22.9511C191.569 22.4062 191.638 21.8116 191.638 21.165C191.638 20.4501 191.569 19.8462 191.432 19.3523C191.243 18.7739 190.951 18.3227 190.556 18C190.16 17.6772 189.68 17.5153 189.112 17.5153C188.544 17.5153 188.042 17.6772 187.655 18C187.268 18.3227 186.989 18.7739 186.817 19.3523C186.679 19.7606 186.611 20.3645 186.611 21.165C186.611 21.9655 186.67 22.5266 186.79 22.9511C186.962 23.5469 187.25 24.0142 187.654 24.3543C188.057 24.6944 188.551 24.8645 189.137 24.8645C189.722 24.8645 190.185 24.6944 190.581 24.3543H190.582Z" fill="#50C8EC"/>
<path d="M196.948 27.6593C196.888 27.6003 196.858 27.5274 196.858 27.4418V10.1892C196.858 10.1047 196.889 10.0319 196.948 9.9717C197.008 9.91271 197.082 9.88263 197.168 9.88263H200.184C200.269 9.88263 200.343 9.91271 200.403 9.9717C200.463 10.0319 200.493 10.1036 200.493 10.1892V27.443C200.493 27.5286 200.463 27.6003 200.403 27.6605C200.344 27.7206 200.27 27.7496 200.184 27.7496H197.168C197.082 27.7496 197.009 27.7206 196.948 27.6605V27.6593Z" fill="#50C8EC"/>
<path d="M204.558 26.8299C203.526 26.0814 202.821 25.06 202.444 23.7667C202.203 22.9673 202.083 22.0997 202.083 21.1638C202.083 20.1597 202.203 19.2586 202.444 18.4581C202.839 17.1994 203.553 16.2115 204.583 15.4978C205.615 14.7829 206.852 14.4254 208.295 14.4254C209.738 14.4254 210.908 14.7782 211.904 15.4851C212.901 16.1907 213.606 17.174 214.018 18.4326C214.293 19.284 214.43 20.1771 214.43 21.1129C214.43 22.0488 214.31 22.8909 214.069 23.6903C213.691 25.0172 212.991 26.0594 211.969 26.8172C210.946 27.5749 209.713 27.9531 208.27 27.9531C206.827 27.9531 205.588 27.5795 204.558 26.8299ZM209.714 24.3543C210.109 24.0142 210.393 23.5469 210.564 22.9511C210.701 22.4062 210.77 21.8116 210.77 21.165C210.77 20.4501 210.701 19.8462 210.564 19.3523C210.375 18.7739 210.083 18.3227 209.688 18C209.292 17.6772 208.812 17.5153 208.244 17.5153C207.676 17.5153 207.174 17.6772 206.787 18C206.4 18.3227 206.121 18.7739 205.949 19.3523C205.811 19.7606 205.742 20.3645 205.742 21.165C205.742 21.9655 205.802 22.5266 205.922 22.9511C206.094 23.5469 206.381 24.0142 206.786 24.3543C207.189 24.6944 207.683 24.8645 208.268 24.8645C208.854 24.8645 209.316 24.6944 209.713 24.3543H209.714Z" fill="#50C8EC"/>
<path d="M212.909 32.6498V30.2251C212.909 30.0042 213.022 29.9105 213.245 29.944C214.259 29.9776 214.968 29.833 215.371 29.5102C215.774 29.1863 215.976 28.6172 215.976 27.8004L215.925 14.9367C215.925 14.8523 215.954 14.7794 216.015 14.7192C216.075 14.6603 216.148 14.6302 216.235 14.6302H219.25C219.335 14.6302 219.409 14.6603 219.47 14.7192C219.529 14.7794 219.56 14.8511 219.56 14.9367V27.7496C219.56 29.1273 219.371 30.195 218.993 30.9528C218.615 31.7093 217.975 32.2414 217.072 32.548C216.169 32.8546 214.885 32.9899 213.218 32.9564C213.012 32.9564 212.909 32.8545 212.909 32.6498ZM216.286 12.5757C215.907 12.1928 215.719 11.7127 215.719 11.1331C215.719 10.5536 215.909 10.0527 216.286 9.67787C216.663 9.30307 217.145 9.11682 217.73 9.11682C218.315 9.11682 218.821 9.30422 219.2 9.67787C219.577 10.0527 219.767 10.5374 219.767 11.1331C219.767 11.7289 219.573 12.1928 219.187 12.5757C218.802 12.9586 218.314 13.1495 217.73 13.1495C217.146 13.1495 216.665 12.9586 216.286 12.5757Z" fill="#50C8EC"/>
<path d="M221.636 12.5757C221.249 12.1928 221.057 11.7127 221.057 11.1331C221.057 10.5536 221.246 10.0527 221.623 9.67787C222.001 9.30307 222.491 9.11682 223.093 9.11682C223.695 9.11682 224.184 9.30422 224.563 9.67787C224.94 10.0527 225.13 10.5374 225.13 11.1331C225.13 11.7289 224.936 12.1928 224.55 12.5757C224.165 12.9586 223.677 13.1495 223.093 13.1495C222.509 13.1495 222.023 12.9586 221.636 12.5757ZM221.327 27.6605C221.266 27.6015 221.237 27.5286 221.237 27.443V14.9101C221.237 14.8257 221.266 14.7528 221.327 14.6926C221.386 14.6336 221.46 14.6036 221.546 14.6036H224.562C224.647 14.6036 224.721 14.6336 224.781 14.6926C224.841 14.7528 224.871 14.8245 224.871 14.9101V27.4418C224.871 27.5274 224.841 27.5992 224.781 27.6593C224.722 27.7195 224.648 27.7484 224.562 27.7484H221.546C221.46 27.7484 221.387 27.7195 221.327 27.6593V27.6605Z" fill="#50C8EC"/>
</g>
<path d="M41.8884 18.3168C43.5809 19.1899 44.4283 20.6416 44.4283 22.673C44.4283 24.4017 43.8403 25.7073 42.6645 26.5886C41.4887 27.471 39.947 27.9117 38.0406 27.9117H31.1176C31.0276 27.9117 30.9528 27.8813 30.8909 27.8182C30.8278 27.7562 30.7974 27.6803 30.7974 27.5914V9.52247C30.7974 9.43364 30.8278 9.35766 30.8909 9.29572C30.9528 9.23377 31.0288 9.20221 31.1176 9.20221H37.8267C42.0497 9.20221 44.1618 10.9134 44.1618 14.3345C44.1618 16.117 43.4044 17.391 41.8896 18.1566C41.782 18.2104 41.782 18.2642 41.8896 18.3168H41.8884ZM34.5645 12.5696V16.74C34.5645 16.8288 34.6089 16.8732 34.6978 16.8732H37.8255C38.6624 16.8732 39.3135 16.6781 39.7763 16.2853C40.2392 15.8938 40.4718 15.3584 40.4718 14.6817C40.4718 14.0049 40.2392 13.4381 39.7763 13.0371C39.3123 12.6362 38.6624 12.4352 37.8255 12.4352H34.6978C34.6089 12.4352 34.5645 12.4796 34.5645 12.5684V12.5696ZM39.9645 24.0242C40.4274 23.6057 40.66 23.0306 40.66 22.3001C40.66 21.5696 40.4274 20.9945 39.9645 20.5761C39.5005 20.1577 38.8506 19.9473 38.0137 19.9473H34.6989C34.6101 19.9473 34.5657 19.9917 34.5657 20.0805V24.5174C34.5657 24.6062 34.6101 24.6506 34.6989 24.6506H38.0406C38.86 24.6506 39.5016 24.4414 39.9657 24.023L39.9645 24.0242Z" fill="#141414"/>
<path d="M53.689 17.1012C53.6271 17.1643 53.5511 17.1947 53.4622 17.1947H50.8967C50.8067 17.1947 50.7634 17.2391 50.7634 17.328V22.9945C50.7634 23.5824 50.8838 24.0195 51.1246 24.3047C51.3654 24.5899 51.7534 24.7325 52.2876 24.7325H53.17C53.2589 24.7325 53.3348 24.7641 53.3968 24.826C53.4587 24.8891 53.4903 24.964 53.4903 25.0528V27.5927C53.4903 27.789 53.3828 27.9047 53.17 27.9398C52.4208 27.9749 51.8867 27.9936 51.5664 27.9936C50.0867 27.9936 48.9821 27.7493 48.2516 27.2584C47.5211 26.7686 47.1459 25.8464 47.1283 24.4917V17.328C47.1283 17.2391 47.0839 17.1947 46.9951 17.1947H45.4721C45.3821 17.1947 45.3073 17.1643 45.2454 17.1012C45.1822 17.0393 45.1519 16.9633 45.1519 16.8745V14.4959C45.1519 14.4071 45.1822 14.3311 45.2454 14.2692C45.3073 14.2072 45.3833 14.1756 45.4721 14.1756H46.9951C47.0839 14.1756 47.1283 14.1312 47.1283 14.0424V10.862C47.1283 10.7732 47.1587 10.6972 47.2219 10.6353C47.2838 10.5733 47.3598 10.5417 47.4486 10.5417H50.442C50.5308 10.5417 50.6068 10.5733 50.6687 10.6353C50.7307 10.6984 50.7622 10.7732 50.7622 10.862V14.0424C50.7622 14.1324 50.8067 14.1756 50.8955 14.1756H53.4611C53.5499 14.1756 53.6259 14.2072 53.6878 14.2692C53.7498 14.3323 53.7813 14.4071 53.7813 14.4959V16.8745C53.7813 16.9645 53.7498 17.0393 53.6878 17.1012H53.689Z" fill="#141414"/>
<path d="M80.0588 9.29577C80.1208 9.35888 80.1523 9.43369 80.1523 9.52252V12.1419C80.1523 12.2319 80.1208 12.3067 80.0588 12.3686C79.9969 12.4317 79.9209 12.4621 79.8321 12.4621H75.0469C74.958 12.4621 74.9136 12.5065 74.9136 12.5954V27.5903C74.9136 27.6803 74.8821 27.7551 74.8201 27.8171C74.757 27.8802 74.6822 27.9106 74.5934 27.9106H71.4656C71.3756 27.9106 71.3008 27.8802 71.2388 27.8171C71.1757 27.7551 71.1453 27.6791 71.1453 27.5903V12.5965C71.1453 12.5077 71.1009 12.4633 71.0121 12.4633H66.3613C66.2713 12.4633 66.1965 12.4329 66.1345 12.3698C66.0714 12.3078 66.041 12.2319 66.041 12.143V9.52369C66.041 9.43486 66.0714 9.35889 66.1345 9.29694C66.1965 9.23499 66.2724 9.20343 66.3613 9.20343H79.8332C79.9221 9.20343 79.998 9.23499 80.06 9.29694L80.0588 9.29577Z" fill="#141414"/>
<path d="M87.1703 14.268C87.2322 14.206 87.3082 14.1745 87.397 14.1745H90.5248C90.6137 14.1745 90.6896 14.206 90.7516 14.268C90.8135 14.3311 90.8451 14.4059 90.8451 14.4947V27.5927C90.8451 27.6827 90.8135 27.7575 90.7516 27.8194C90.6885 27.8825 90.6137 27.9129 90.5248 27.9129H87.397C87.3082 27.9129 87.2322 27.8825 87.1703 27.8194C87.1072 27.7575 87.0768 27.6815 87.0768 27.5927V26.6845C87.0768 26.6307 87.0581 26.6003 87.023 26.591C86.9868 26.5828 86.9517 26.6038 86.9155 26.6576C86.2025 27.6195 85.0979 28.1011 83.6007 28.1011C82.246 28.1011 81.1321 27.6908 80.259 26.8715C79.3859 26.0521 78.9487 24.902 78.9487 23.4234V14.4959C78.9487 14.4071 78.9791 14.3311 79.0422 14.2691C79.1042 14.2072 79.1802 14.1756 79.269 14.1756H82.3699C82.4587 14.1756 82.5347 14.2072 82.5967 14.2691C82.6586 14.3323 82.6902 14.4071 82.6902 14.4959V22.4884C82.6902 23.2014 82.8818 23.7811 83.2652 24.2264C83.6486 24.6717 84.1781 24.895 84.856 24.895C85.4615 24.895 85.9606 24.7127 86.3533 24.3468C86.7448 23.9821 86.9856 23.5052 87.0756 22.9173V14.4971C87.0756 14.4082 87.106 14.3323 87.1691 14.2703L87.1703 14.268Z" fill="#141414"/>
<path d="M100.921 14.3615C101.064 14.4328 101.118 14.5672 101.082 14.7624L100.521 17.8095C100.502 18.0234 100.378 18.0854 100.146 17.9965C99.8789 17.9077 99.568 17.8633 99.2115 17.8633C99.0689 17.8633 98.8725 17.882 98.6236 17.9171C97.9819 17.9708 97.4384 18.2069 96.993 18.6254C96.5477 19.0438 96.3245 19.6014 96.3245 20.2956V27.5927C96.3245 27.6827 96.2929 27.7575 96.231 27.8194C96.169 27.8814 96.093 27.9129 96.0042 27.9129H92.8764C92.7876 27.9129 92.7116 27.8825 92.6497 27.8194C92.5865 27.7575 92.5562 27.6815 92.5562 27.5927V14.4947C92.5562 14.4059 92.5865 14.3299 92.6497 14.268C92.7116 14.206 92.7876 14.1745 92.8764 14.1745H96.0042C96.093 14.1745 96.169 14.206 96.231 14.268C96.2929 14.3311 96.3245 14.4059 96.3245 14.4947V15.5104C96.3245 15.5642 96.342 15.6004 96.3782 15.618C96.4133 15.6367 96.4402 15.6273 96.4589 15.5911C97.1894 14.5216 98.1689 13.9875 99.3997 13.9875C100.041 13.9875 100.549 14.1125 100.923 14.3615H100.921Z" fill="#141414"/>
<path d="M102.213 27.8194C102.15 27.7575 102.12 27.6815 102.12 27.5927V9.52253C102.12 9.4337 102.15 9.35772 102.213 9.29578C102.276 9.23383 102.351 9.20227 102.44 9.20227H105.568C105.657 9.20227 105.732 9.23383 105.794 9.29578C105.856 9.35889 105.888 9.4337 105.888 9.52253V18.5307C105.888 18.5845 105.905 18.616 105.942 18.6242C105.977 18.6336 106.013 18.6195 106.049 18.5845L109.684 14.3615C109.808 14.2376 109.943 14.1745 110.085 14.1745H113.64C113.817 14.1745 113.907 14.2376 113.907 14.3615C113.907 14.4153 113.88 14.4866 113.827 14.5754L110.432 18.879C110.396 18.9503 110.388 19.0123 110.405 19.066L114.389 27.5401C114.424 27.6114 114.443 27.6651 114.443 27.7002C114.443 27.8428 114.344 27.9141 114.148 27.9141H110.86C110.681 27.9141 110.556 27.8334 110.486 27.6733L107.84 21.4189C107.822 21.3838 107.791 21.3616 107.746 21.3523C107.702 21.3441 107.67 21.3569 107.653 21.392L105.943 23.531C105.907 23.6023 105.889 23.656 105.889 23.6911V27.5938C105.889 27.6838 105.858 27.7586 105.796 27.8206C105.732 27.8837 105.658 27.9141 105.569 27.9141H102.441C102.352 27.9141 102.276 27.8837 102.214 27.8206L102.213 27.8194Z" fill="#141414"/>
<path d="M59.4235 17.5992C59.8139 17.3151 60.2931 17.1725 60.8611 17.1725C61.4292 17.1725 61.9528 17.3233 62.3794 17.6249C62.8061 17.9264 63.0807 18.3086 63.2058 18.7703L63.2853 19.197C63.3391 19.3746 63.4454 19.4635 63.6055 19.4635H63.6593L66.7228 19.0111C66.9005 18.976 66.9893 18.8779 66.9893 18.7177V18.664C66.9893 18.4512 66.918 18.1322 66.7766 17.7055C66.4213 16.622 65.7071 15.7255 64.633 15.016C63.5588 14.3054 62.3117 13.9501 60.8904 13.9501C59.4691 13.9501 58.2359 14.296 57.1875 14.9892C56.1402 15.6811 55.4027 16.6314 54.9772 17.8388C54.6757 18.7084 54.5249 19.7393 54.5249 20.928C54.5249 22.1167 54.6757 23.1827 54.9772 24.071C55.4214 25.3146 56.1624 26.2906 57.2015 27.0012C58.2406 27.7119 59.4702 28.066 60.8904 28.066C62.3105 28.066 63.5319 27.7294 64.6061 27.0538C65.6802 26.3794 66.4037 25.4467 66.7766 24.2568C66.883 23.8664 66.9367 23.5999 66.9367 23.4573C66.9367 23.2984 66.8479 23.2002 66.6702 23.164L63.6067 22.6847C63.4817 22.666 63.3882 22.6824 63.325 22.7362C63.2596 22.7923 63.2444 22.8928 63.2339 22.9512C63.2339 22.9571 63.2304 22.9711 63.2268 22.9945C63.2163 23.0553 63.2105 23.0868 63.2011 23.1242C63.2011 23.1242 63.193 23.1535 63.1813 23.1909C63.0211 23.7063 62.7324 24.1096 62.3152 24.4029C61.8979 24.6963 61.414 24.8424 60.8635 24.8424C60.313 24.8424 59.8115 24.6916 59.4118 24.3901C59.012 24.0885 58.7327 23.6712 58.5726 23.1383C58.3949 22.6053 58.3061 21.8771 58.3061 20.9537C58.3061 20.0303 58.4031 19.3022 58.5994 18.7703C58.7584 18.2736 59.0343 17.882 59.4246 17.598L59.4235 17.5992Z" fill="#141414"/>
<path fill-rule="evenodd" clip-rule="evenodd" d="M17.0742 8.04312C15.5126 6.91317 14.5793 5.50985 15.01 4.8902C15.1357 4.70795 15.387 4.61682 15.728 4.61682C16.446 4.61682 17.5409 5.05422 18.6178 5.81967C20.1794 6.94962 21.1128 8.35294 20.682 8.97259C20.2512 9.59224 18.6358 9.17307 17.0742 8.04312ZM3.77379 6.20234C3.34301 7.27761 5.44308 9.17301 8.47651 10.4488C11.5099 11.7245 14.31 11.8703 14.7588 10.795C15.1895 9.71976 13.0895 7.82436 10.056 6.54861C8.36881 5.85606 6.77132 5.49156 5.58667 5.49156C4.63536 5.49156 3.97124 5.72849 3.77379 6.20234ZM22.3691 11.7246C21.8306 10.6857 21.6691 9.71982 21.9921 9.53757C22.028 9.51935 22.0639 9.51935 22.0998 9.51935C22.4588 9.51935 23.0691 10.1754 23.5537 11.1049C24.0922 12.1437 24.2537 13.1097 23.9307 13.2919C23.6076 13.4559 22.9076 12.7634 22.3691 11.7246ZM16.8231 12.326C16.4462 12.9821 17.0026 14.0027 18.0436 14.6041C19.0847 15.2055 20.2155 15.1873 20.5924 14.5312C20.9694 13.8751 20.4129 12.8545 19.3719 12.2531C18.8693 11.9615 18.3488 11.8157 17.9 11.8157C17.4154 11.8157 17.0026 11.9797 16.8231 12.326ZM21.8667 15.9892C21.5795 15.4606 21.5975 14.8774 21.9206 14.677C21.9924 14.6405 22.0642 14.6041 22.1539 14.6223C22.4591 14.6223 22.818 14.8774 23.0514 15.2966C23.3386 15.8251 23.3206 16.4083 22.9975 16.6088C22.6744 16.7911 22.1719 16.5177 21.8667 15.9892ZM9.41006 18.3037C9.41006 19.7253 10.9896 20.8734 12.9461 20.8734C14.8846 20.8917 16.4641 19.7435 16.4641 18.3037C16.4641 16.8822 14.8846 15.734 12.9281 15.734C10.9896 15.734 9.41006 16.8822 9.41006 18.3037ZM19.2462 19.4519C18.5462 19.4519 17.9718 18.9416 17.9718 18.3037C17.9718 17.6841 18.5462 17.1556 19.2462 17.1556C19.9642 17.1556 20.5386 17.6659 20.5386 18.3037C20.5386 18.9416 19.9462 19.4519 19.2462 19.4519ZM21.8309 20.5818C21.5258 21.1104 21.5437 21.6936 21.8848 21.894C22.2079 22.0945 22.7284 21.8029 23.0156 21.2744C23.3207 20.7459 23.3028 20.1627 22.9617 19.9622C22.8899 19.9257 22.8181 19.9075 22.7284 19.9075C22.4412 19.9075 22.0822 20.1809 21.8309 20.5818ZM16.7689 24.2451C16.4099 23.589 16.9484 22.5684 17.9894 21.9669C18.492 21.6753 19.0125 21.5295 19.4613 21.5295C19.9459 21.5295 20.3408 21.6936 20.5382 22.0398C20.8972 22.6959 20.3587 23.7165 19.3177 24.318C18.2766 24.9194 17.1458 24.9012 16.7689 24.2451ZM22.3691 24.8466C21.8306 25.8854 21.6691 26.8695 21.9921 27.0336C22.3152 27.2158 23.0152 26.505 23.5537 25.4662C24.0922 24.4274 24.2537 23.4432 23.9307 23.2792C23.8948 23.261 23.8589 23.261 23.823 23.261C23.464 23.2428 22.8537 23.9171 22.3691 24.8466ZM3.77379 30.3687C3.34301 29.2935 5.44308 27.3981 8.47651 26.1223C10.1458 25.4115 11.7612 25.047 12.9459 25.0653C13.8972 25.0653 14.5613 25.3022 14.7588 25.776C15.1895 26.8513 13.0895 28.7467 10.056 30.0225C7.02261 31.28 4.20458 31.444 3.77379 30.3687ZM15.0278 31.6809C14.5971 31.0612 15.5304 29.6579 17.092 28.528C18.169 27.7443 19.2639 27.3069 19.9818 27.3251C20.3229 27.3251 20.5742 27.398 20.6998 27.5985C21.1306 28.2181 20.1972 29.6215 18.6356 30.7514C17.0741 31.8814 15.4586 32.3005 15.0278 31.6809Z" fill="#141414"/>
</svg>
