<svg width="36" height="36" viewBox="0 0 36 36" fill="none" xmlns="http://www.w3.org/2000/svg">
<path fill-rule="evenodd" clip-rule="evenodd" d="M29.6414 18.0004C29.6414 11.3047 24.2771 5.87662 17.66 5.87662C11.0433 5.87662 5.67944 11.3036 5.67857 17.9985V18.0005V18.0028C5.67989 24.6973 11.0437 30.1239 17.66 30.1239C24.277 30.1239 29.6413 24.696 29.6414 18.0004ZM26.7179 15.0853C25.4979 11.1999 21.9038 8.38492 17.66 8.38492C13.4162 8.38492 9.82211 11.1999 8.60196 15.0853C10.7989 14.143 14.0422 13.5469 17.66 13.5469C21.2777 13.5469 24.5211 14.143 26.7179 15.0853ZM26.7178 20.9159C25.4974 24.8008 21.9035 27.6155 17.66 27.6155C13.4163 27.6155 9.82251 24.8008 8.60219 20.9159C10.7991 21.8581 14.0423 22.4542 17.66 22.4542C21.2777 22.4542 24.5208 21.8581 26.7178 20.9159ZM17.66 19.9458C14.5651 19.9458 11.8723 19.4754 10.0426 18.7952C9.29595 18.5177 8.77759 18.2364 8.4489 18.0005C8.77759 17.7648 9.29595 17.4834 10.0426 17.206C11.8723 16.5257 14.5651 16.0553 17.66 16.0553C20.7549 16.0553 23.4476 16.5257 25.2774 17.206C26.0239 17.4834 26.5424 17.7648 26.871 18.0005C26.5424 18.2364 26.0239 18.5177 25.2774 18.7952C23.4476 19.4754 20.7549 19.9458 17.66 19.9458Z" fill="white"/>
<path fill-rule="evenodd" clip-rule="evenodd" d="M17.6623 0.128067C27.4169 0.128067 35.3245 8.1296 35.3245 18C35.3245 27.8703 27.4169 35.8719 17.6623 35.8719C7.90767 35.8719 0 27.8703 0 18C0 8.1296 7.90767 0.128067 17.6623 0.128067ZM32.2258 18C32.2258 9.86125 25.7054 3.26349 17.6623 3.26349C9.61899 3.26349 3.09864 9.86125 3.09864 18C3.09864 26.1387 9.61899 32.7365 17.6623 32.7365C25.7054 32.7365 32.2258 26.1387 32.2258 18Z" fill="white"/>
</svg>
