<svg width="36" height="37" viewBox="0 0 36 37" fill="none" xmlns="http://www.w3.org/2000/svg">
<path fill-rule="evenodd" clip-rule="evenodd" d="M29.6415 18.491C29.6415 11.7953 24.2772 6.36719 17.6601 6.36719C11.0435 6.36719 5.67958 11.7942 5.67871 18.4891V18.4911V18.4934C5.68003 25.1879 11.0438 30.6145 17.6601 30.6145C24.2771 30.6145 29.6414 25.1866 29.6415 18.491ZM26.718 15.5759C25.498 11.6905 21.9039 8.87549 17.6601 8.87549C13.4163 8.87549 9.82224 11.6905 8.6021 15.5759C10.799 14.6335 14.0423 14.0375 17.6601 14.0375C21.2778 14.0375 24.5212 14.6335 26.718 15.5759ZM26.7179 21.4065C25.4975 25.2914 21.9037 28.1061 17.6601 28.1061C13.4165 28.1061 9.82264 25.2914 8.60233 21.4065C10.7992 22.3487 14.0424 22.9447 17.6601 22.9447C21.2778 22.9447 24.521 22.3487 26.7179 21.4065ZM17.6601 20.4363C14.5652 20.4363 11.8725 19.9659 10.0427 19.2858C9.29609 19.0083 8.77773 18.7269 8.44904 18.4911C8.77773 18.2554 9.29609 17.974 10.0427 17.6965C11.8725 17.0163 14.5652 16.5459 17.6601 16.5459C20.755 16.5459 23.4477 17.0163 25.2775 17.6965C26.0241 17.974 26.5425 18.2554 26.8712 18.4911C26.5425 18.7269 26.0241 19.0083 25.2775 19.2858C23.4477 19.9659 20.755 20.4363 17.6601 20.4363Z" fill="url(#paint0_linear_1_570)"/>
<path fill-rule="evenodd" clip-rule="evenodd" d="M17.6623 0.618652C27.4169 0.618652 35.3245 8.62019 35.3245 18.4906C35.3245 28.3609 27.4169 36.3625 17.6623 36.3625C7.90767 36.3625 0 28.3609 0 18.4906C0 8.62019 7.90767 0.618652 17.6623 0.618652ZM32.2258 18.4906C32.2258 10.3518 25.7054 3.75407 17.6623 3.75407C9.61899 3.75407 3.09864 10.3518 3.09864 18.4906C3.09864 26.6293 9.61899 33.227 17.6623 33.227C25.7054 33.227 32.2258 26.6293 32.2258 18.4906Z" fill="url(#paint1_linear_1_570)"/>
<defs>
<linearGradient id="paint0_linear_1_570" x1="5.67871" y1="6.36719" x2="31.8445" y2="9.03882" gradientUnits="userSpaceOnUse">
<stop stop-color="#7731CF"/>
<stop offset="1" stop-color="#3C0D8F"/>
</linearGradient>
<linearGradient id="paint1_linear_1_570" x1="0" y1="0.618652" x2="38.5719" y2="4.557" gradientUnits="userSpaceOnUse">
<stop stop-color="#7731CF"/>
<stop offset="1" stop-color="#3C0D8F"/>
</linearGradient>
</defs>
</svg>
