<svg width="43" height="43" viewBox="0 0 43 43" fill="none" xmlns="http://www.w3.org/2000/svg">
<path d="M38.6863 14.7359H34.476C34.476 13.6833 34.2655 12.8413 33.8445 11.9992L37.6337 8.21001C37.8442 8.42049 38.2653 8.42049 38.6863 8.42049C41.002 8.42049 42.8966 6.52587 42.8966 4.2102C42.8966 1.89462 41.002 0 38.6863 0C36.3706 0 34.476 1.89462 34.476 4.2103C34.476 4.63135 34.476 5.05232 34.6865 5.26289L30.8973 9.05213C30.0552 8.63107 29.2131 8.42059 28.1606 8.42059H15.5298C14.4772 8.42059 13.6352 8.63107 12.7932 9.05213L9.00396 5.26289C9.21444 4.84184 9.21444 4.63135 9.21444 4.2103C9.21444 1.89462 7.31982 0 5.00424 0C2.68856 0 0.793945 1.89462 0.793945 4.2103C0.793945 6.52597 2.68856 8.42059 5.00424 8.42059C5.4253 8.42059 5.84626 8.42059 6.05684 8.21011L9.84608 11.9993C9.42502 12.8414 9.21454 13.6835 9.21454 14.736H5.00424C2.68856 14.7359 0.793945 16.6305 0.793945 18.9462V33.6821C0.793945 35.9977 2.68856 37.8924 5.00424 37.8924H7.10934V39.9975C7.10934 41.0501 7.95136 42.1026 9.21444 42.1026H34.476C35.5286 42.1026 36.5811 41.05 36.5811 39.9975V37.8924H38.6863C41.002 37.8924 42.8966 35.9977 42.8966 33.6821V18.9462C42.8966 16.6305 41.002 14.7359 38.6863 14.7359ZM7.10934 23.1565C7.10934 20.8408 9.00396 18.9462 11.3196 18.9462C13.6353 18.9462 15.5299 20.8408 15.5299 23.1565C15.5299 25.4722 13.6353 27.3668 11.3196 27.3668C9.00396 27.3667 7.10934 25.4721 7.10934 23.1565ZM29.0027 34.5242C28.3712 35.3662 27.3186 35.7873 26.0555 35.7873H17.635C15.3194 35.7873 13.4247 33.8927 13.4247 31.577H30.2658C30.2658 32.6296 29.8448 33.6821 29.0027 34.5242ZM32.3709 27.3667C30.0552 27.3667 28.1606 25.4721 28.1606 23.1564C28.1606 20.8407 30.0552 18.9462 32.3709 18.9462C34.6866 18.9462 36.5812 20.8408 36.5812 23.1565C36.5812 25.4722 34.6866 27.3667 32.3709 27.3667Z" fill="white"/>
</svg>
