<svg width="20" height="20" viewBox="0 0 20 20" fill="none" xmlns="http://www.w3.org/2000/svg">
<path d="M0.228809 5.48578C-0.0762695 5.18066 -0.0762695 4.68602 0.228809 4.38094L2.4385 2.17125C2.74361 1.86613 3.2383 1.86613 3.54338 2.17125C3.84846 2.47637 3.84846 2.97102 3.54338 3.27609L1.33369 5.48578C1.02861 5.7909 0.533926 5.7909 0.228809 5.48578Z" fill="white"/>
<path d="M18.6663 5.48578L16.4566 3.27609C16.1515 2.97098 16.1515 2.47633 16.4566 2.17125C16.7617 1.86613 17.2564 1.86613 17.5615 2.17125L19.7712 4.38094C20.0763 4.68605 20.0763 5.1807 19.7712 5.48578C19.4661 5.7909 18.9714 5.7909 18.6663 5.48578Z" fill="white"/>
<path d="M11.0101 13.5212L9.44756 11.9587C9.30107 11.8122 9.21877 11.6134 9.21877 11.4062V8.28125C9.21877 7.84977 9.56854 7.5 10 7.5C10.4315 7.5 10.7813 7.84977 10.7813 8.28125V11.0827L12.115 12.4163C12.4201 12.7214 12.4201 13.2161 12.115 13.5212C11.8099 13.8262 11.3152 13.8263 11.0101 13.5212Z" fill="white"/>
<path d="M10.7813 2.84789V1.5625H11.5625C11.994 1.5625 12.3438 1.21273 12.3438 0.78125C12.3438 0.349766 11.994 0 11.5625 0H8.43752C8.00604 0 7.65627 0.349766 7.65627 0.78125C7.65627 1.21273 8.00604 1.5625 8.43752 1.5625H9.21877V2.84789C4.85002 3.23906 1.40627 6.90719 1.40627 11.4062C1.40627 16.1557 5.24982 20 10 20C14.7496 20 18.5938 16.1563 18.5938 11.4062C18.5938 6.91227 15.1547 3.23945 10.7813 2.84789ZM10 18.4375C6.12299 18.4375 2.96877 15.2833 2.96877 11.4062C2.96877 7.52922 6.12299 4.375 10 4.375C13.8771 4.375 17.0313 7.52922 17.0313 11.4062C17.0313 15.2833 13.8771 18.4375 10 18.4375Z" fill="white"/>
</svg>
