<svg width="14" height="18" viewBox="0 0 14 18" fill="none" xmlns="http://www.w3.org/2000/svg">
<path d="M1.51688 17.9404H12.6731C12.7838 17.9404 12.8889 17.9183 12.9886 17.874C13.0882 17.8298 13.1712 17.7744 13.2376 17.708C13.304 17.6416 13.3593 17.5586 13.4036 17.459C13.4479 17.3594 13.47 17.2542 13.47 17.1436V5.9873C13.47 5.9873 13.47 5.98177 13.47 5.9707C13.47 5.95964 13.47 5.9541 13.47 5.9541C13.47 5.9541 13.47 5.94857 13.47 5.9375C13.47 5.92643 13.47 5.9209 13.47 5.9209C13.4479 5.89876 13.4368 5.88216 13.4368 5.87109C13.4368 5.86003 13.4257 5.84342 13.4036 5.82129L9.15359 1.04004C9.13146 1.0179 9.10932 1.0013 9.08719 0.990234C9.06505 0.979166 9.04292 0.962564 9.02078 0.94043C9.02078 0.94043 9.00972 0.94043 8.98758 0.94043C8.98758 0.94043 8.98205 0.94043 8.97098 0.94043C8.95991 0.94043 8.95438 0.94043 8.95438 0.94043H1.51688C1.4062 0.94043 1.30106 0.962564 1.20145 1.00684C1.10184 1.05111 1.01883 1.10645 0.952423 1.17285C0.886017 1.23926 0.830678 1.32227 0.786407 1.42188C0.742137 1.52148 0.720001 1.62663 0.720001 1.7373V17.1436C0.720001 17.2542 0.742137 17.3594 0.786407 17.459C0.830678 17.5586 0.886017 17.6416 0.952423 17.708C1.01883 17.7744 1.10184 17.8298 1.20145 17.874C1.30106 17.9183 1.4062 17.9404 1.51688 17.9404ZM9.22 1.90332L12.6067 5.72168H9.48563C9.41922 5.72168 9.35835 5.67741 9.30301 5.58887C9.24767 5.50033 9.22 5.41178 9.22 5.32324V1.90332ZM1.25125 1.7373C1.25125 1.6709 1.27892 1.61003 1.33426 1.55469C1.3896 1.49935 1.45047 1.47168 1.51688 1.47168H8.68875V5.32324C8.68875 5.43392 8.71089 5.5446 8.75516 5.65527C8.79943 5.76595 8.85477 5.86556 8.92117 5.9541C8.98758 6.04264 9.07059 6.11458 9.1702 6.16992C9.26981 6.22526 9.37495 6.25293 9.48563 6.25293H12.9388V17.1436C12.9388 17.21 12.9111 17.2708 12.8557 17.3262C12.8004 17.3815 12.7395 17.4092 12.6731 17.4092H1.51688C1.45047 17.4092 1.3896 17.3815 1.33426 17.3262C1.27892 17.2708 1.25125 17.21 1.25125 17.1436V1.7373ZM3.64188 8.37793H10.5481C10.6145 8.37793 10.6754 8.35026 10.7307 8.29492C10.7861 8.23958 10.8138 8.17871 10.8138 8.1123C10.8138 8.0459 10.7861 7.98503 10.7307 7.92969C10.6754 7.87435 10.6145 7.84668 10.5481 7.84668H3.64188C3.57547 7.84668 3.5146 7.87435 3.45926 7.92969C3.40392 7.98503 3.37625 8.0459 3.37625 8.1123C3.37625 8.17871 3.40392 8.23958 3.45926 8.29492C3.5146 8.35026 3.57547 8.37793 3.64188 8.37793ZM3.64188 10.5029H10.5481C10.6145 10.5029 10.6754 10.4753 10.7307 10.4199C10.7861 10.3646 10.8138 10.3037 10.8138 10.2373C10.8138 10.1709 10.7861 10.11 10.7307 10.0547C10.6754 9.99935 10.6145 9.97168 10.5481 9.97168H3.64188C3.57547 9.97168 3.5146 9.99935 3.45926 10.0547C3.40392 10.11 3.37625 10.1709 3.37625 10.2373C3.37625 10.3037 3.40392 10.3646 3.45926 10.4199C3.5146 10.4753 3.57547 10.5029 3.64188 10.5029ZM3.64188 6.25293H6.82938C6.89578 6.25293 6.95666 6.22526 7.01199 6.16992C7.06733 6.11458 7.095 6.05371 7.095 5.9873C7.095 5.9209 7.06733 5.86003 7.01199 5.80469C6.95666 5.74935 6.89578 5.72168 6.82938 5.72168H3.64188C3.57547 5.72168 3.5146 5.74935 3.45926 5.80469C3.40392 5.86003 3.37625 5.9209 3.37625 5.9873C3.37625 6.05371 3.40392 6.11458 3.45926 6.16992C3.5146 6.22526 3.57547 6.25293 3.64188 6.25293ZM3.64188 12.6279H10.5481C10.6145 12.6279 10.6754 12.6003 10.7307 12.5449C10.7861 12.4896 10.8138 12.4287 10.8138 12.3623C10.8138 12.2959 10.7861 12.235 10.7307 12.1797C10.6754 12.1243 10.6145 12.0967 10.5481 12.0967H3.64188C3.57547 12.0967 3.5146 12.1243 3.45926 12.1797C3.40392 12.235 3.37625 12.2959 3.37625 12.3623C3.37625 12.4287 3.40392 12.4896 3.45926 12.5449C3.5146 12.6003 3.57547 12.6279 3.64188 12.6279ZM3.64188 14.7529H10.5481C10.6145 14.7529 10.6754 14.7253 10.7307 14.6699C10.7861 14.6146 10.8138 14.5537 10.8138 14.4873C10.8138 14.4209 10.7861 14.36 10.7307 14.3047C10.6754 14.2493 10.6145 14.2217 10.5481 14.2217H3.64188C3.57547 14.2217 3.5146 14.2493 3.45926 14.3047C3.40392 14.36 3.37625 14.4209 3.37625 14.4873C3.37625 14.5537 3.40392 14.6146 3.45926 14.6699C3.5146 14.7253 3.57547 14.7529 3.64188 14.7529Z" fill="white"/>
</svg>
