<svg width="17" height="18" viewBox="0 0 17 18" fill="none" xmlns="http://www.w3.org/2000/svg">
<path d="M15.4062 3.53125H1.59375C1.3724 3.53125 1.16764 3.57552 0.979492 3.66406C0.791341 3.7526 0.619792 3.86328 0.464844 3.99609C0.309896 4.15104 0.193685 4.32259 0.116211 4.51074C0.038737 4.69889 0 4.90365 0 5.125V13.0938C0 13.3151 0.038737 13.5199 0.116211 13.708C0.193685 13.8962 0.309896 14.0677 0.464844 14.2227C0.619792 14.3555 0.791341 14.4661 0.979492 14.5547C1.16764 14.6432 1.3724 14.6875 1.59375 14.6875H15.4062C15.6276 14.6875 15.8324 14.6432 16.0205 14.5547C16.2087 14.4661 16.3802 14.3555 16.5352 14.2227C16.6901 14.0677 16.8063 13.8962 16.8838 13.708C16.9613 13.5199 17 13.3151 17 13.0938V5.125C17 4.90365 16.9613 4.69889 16.8838 4.51074C16.8063 4.32259 16.6901 4.15104 16.5352 3.99609C16.3802 3.86328 16.2087 3.7526 16.0205 3.66406C15.8324 3.57552 15.6276 3.53125 15.4062 3.53125ZM1.59375 4.59375H15.4062C15.5612 4.59375 15.6885 4.64355 15.7881 4.74316C15.8877 4.84277 15.9375 4.97005 15.9375 5.125V6.1875H1.0625V5.125C1.0625 4.97005 1.1123 4.84277 1.21191 4.74316C1.31152 4.64355 1.4388 4.59375 1.59375 4.59375ZM15.4062 13.625H1.59375C1.4388 13.625 1.31152 13.5752 1.21191 13.4756C1.1123 13.376 1.0625 13.2487 1.0625 13.0938V8.3125H15.9375V13.0938C15.9375 13.2487 15.8877 13.376 15.7881 13.4756C15.6885 13.5752 15.5612 13.625 15.4062 13.625Z" fill="#333333"/>
</svg>
