<svg width="21" height="21" viewBox="0 0 21 21" fill="none" xmlns="http://www.w3.org/2000/svg">
<path d="M0.75 10.1899C0.75 11.5701 1.01042 12.8657 1.53125 14.0767C2.05208 15.2876 2.76823 16.3488 3.67969 17.2603C4.59115 18.1717 5.65234 18.8879 6.86328 19.4087C8.07422 19.9295 9.36979 20.1899 10.75 20.1899C12.1302 20.1899 13.4258 19.9295 14.6367 19.4087C15.8477 18.8879 16.9089 18.1717 17.8203 17.2603C18.7318 16.3488 19.4479 15.2876 19.9688 14.0767C20.4896 12.8657 20.75 11.5701 20.75 10.1899C20.75 8.80973 20.4896 7.51416 19.9688 6.30322C19.4479 5.09229 18.7318 4.03109 17.8203 3.11963C16.9089 2.20817 15.8477 1.49203 14.6367 0.971191C13.4258 0.450357 12.1302 0.189941 10.75 0.189941C9.36979 0.189941 8.07422 0.450357 6.86328 0.971191C5.65234 1.49203 4.59115 2.20817 3.67969 3.11963C2.76823 4.03109 2.05208 5.09229 1.53125 6.30322C1.01042 7.51416 0.75 8.80973 0.75 10.1899ZM19.5391 10.1899C19.5391 11.3879 19.3047 12.5207 18.8359 13.5884C18.3672 14.6561 17.7422 15.5806 16.9609 16.3618C16.1536 17.1691 15.2161 17.8006 14.1484 18.2563C13.0807 18.7121 11.9479 18.9399 10.75 18.9399C9.55208 18.9399 8.41927 18.7121 7.35156 18.2563C6.28385 17.8006 5.35938 17.1691 4.57812 16.3618C3.77083 15.5806 3.13932 14.6561 2.68359 13.5884C2.22786 12.5207 2 11.3879 2 10.1899C2 8.99202 2.22786 7.85921 2.68359 6.7915C3.13932 5.7238 3.77083 4.79932 4.57812 4.01807C5.35938 3.21078 6.28385 2.57926 7.35156 2.12354C8.41927 1.66781 9.55208 1.43994 10.75 1.43994C11.9479 1.43994 13.0807 1.66781 14.1484 2.12354C15.2161 2.57926 16.1536 3.21078 16.9609 4.01807C17.7422 4.79932 18.3672 5.7238 18.8359 6.7915C19.3047 7.85921 19.5391 8.99202 19.5391 10.1899ZM10.125 5.81494V12.8462L7.85938 10.5806C7.72917 10.4504 7.57943 10.3853 7.41016 10.3853C7.24089 10.3853 7.09115 10.4504 6.96094 10.5806C6.85677 10.7108 6.80469 10.8605 6.80469 11.0298C6.80469 11.1991 6.85677 11.3488 6.96094 11.479L10.75 15.1509L14.5391 11.479C14.6172 11.4009 14.6693 11.3293 14.6953 11.2642C14.7214 11.1991 14.7344 11.1144 14.7344 11.0103C14.7344 10.9321 14.7214 10.8605 14.6953 10.7954C14.6693 10.7303 14.6172 10.6587 14.5391 10.5806C14.4349 10.4504 14.2917 10.3853 14.1094 10.3853C13.9271 10.3853 13.7839 10.4504 13.6797 10.5806L11.375 12.8853V5.81494C11.375 5.63265 11.3099 5.48291 11.1797 5.36572C11.0495 5.24854 10.9062 5.18994 10.75 5.18994C10.5677 5.18994 10.418 5.24854 10.3008 5.36572C10.1836 5.48291 10.125 5.63265 10.125 5.81494Z" fill="white"/>
</svg>
