<svg width="26" height="25" viewBox="0 0 26 25" fill="none" xmlns="http://www.w3.org/2000/svg">
<path d="M14.5625 25H9.875V12.5H6.75V8.20312H9.875V5.66406C9.875 4.78516 9.94824 3.99577 10.0947 3.2959C10.2412 2.59603 10.4935 2.00195 10.8516 1.51367C11.2422 1.02539 11.763 0.651041 12.4141 0.390625C13.0651 0.130209 13.9115 0 14.9531 0H18.4199V4.29688H16.2715C15.8483 4.29688 15.5228 4.33756 15.2949 4.41895C15.0671 4.50033 14.9043 4.60612 14.8066 4.73633C14.709 4.89909 14.6439 5.08626 14.6113 5.29785C14.5788 5.50944 14.5625 5.76172 14.5625 6.05469V8.20312H18.4199L17.9805 12.5H14.5625V25Z" fill="#3B5998"/>
</svg>
