<svg width="18" height="18" viewBox="0 0 18 18" fill="none" xmlns="http://www.w3.org/2000/svg">
<path d="M17.2272 8.64258L9.25844 0.275391C9.21417 0.231119 9.15883 0.192383 9.09242 0.15918C9.02602 0.125977 8.95961 0.109375 8.8932 0.109375C8.80466 0.109375 8.72719 0.125977 8.66078 0.15918C8.59438 0.192383 8.53904 0.231119 8.49477 0.275391L0.492813 8.64258C0.382136 8.73112 0.326797 8.85286 0.326797 9.00781C0.326797 9.16276 0.382136 9.28451 0.492813 9.37305C0.60349 9.48372 0.730769 9.53906 0.874649 9.53906C1.01853 9.53906 1.14581 9.48372 1.25648 9.37305L1.95375 8.60938V16.5781C1.95375 16.7109 2.00909 16.8327 2.11977 16.9434C2.23044 17.054 2.35219 17.1094 2.485 17.1094H6.20375C6.3587 17.1094 6.48598 17.054 6.58559 16.9434C6.6852 16.8327 6.735 16.7109 6.735 16.5781L6.7682 11.2656H10.985V16.5781C10.985 16.7109 11.0348 16.8327 11.1344 16.9434C11.234 17.054 11.3613 17.1094 11.5163 17.1094H15.235C15.3678 17.1094 15.4896 17.054 15.6002 16.9434C15.7109 16.8327 15.7663 16.7109 15.7663 16.5781V8.60938L16.4635 9.37305C16.5299 9.41732 16.5963 9.45605 16.6627 9.48926C16.7291 9.52246 16.7955 9.53906 16.862 9.53906C16.9284 9.53906 16.9948 9.52799 17.0612 9.50586C17.1276 9.48372 17.1829 9.43945 17.2272 9.37305C17.3379 9.28451 17.3932 9.16276 17.3932 9.00781C17.3932 8.85286 17.3379 8.73112 17.2272 8.64258ZM14.7038 7.64648V16.0469H12.0475V10.7344C12.0475 10.5794 11.9977 10.4521 11.8981 10.3525C11.7985 10.2529 11.6712 10.2031 11.5163 10.2031H6.23695C6.08201 10.2031 5.95473 10.2529 5.85512 10.3525C5.75551 10.4521 5.7057 10.5794 5.7057 10.7344L5.6725 16.0469H3.01625V7.64648C3.01625 7.62435 3.01625 7.60775 3.01625 7.59668C3.01625 7.58561 3.01625 7.56901 3.01625 7.54688L8.8932 1.4043L14.7038 7.51367C14.7038 7.53581 14.7038 7.55794 14.7038 7.58008C14.7038 7.60221 14.7038 7.62435 14.7038 7.64648Z" fill="#333333"/>
</svg>
