<svg width="26" height="25" viewBox="0 0 26 25" fill="none" xmlns="http://www.w3.org/2000/svg">
<path d="M20.8796 0H4.18039C3.59445 0 3.05734 0.105795 2.56906 0.317383C2.08078 0.528971 1.64133 0.830078 1.2507 1.2207C0.860077 1.61133 0.55897 2.05078 0.347382 2.53906C0.135793 3.02734 0.0299988 3.56445 0.0299988 4.15039V20.8496C0.0299988 21.4355 0.135793 21.9727 0.347382 22.4609C0.55897 22.9492 0.860077 23.3887 1.2507 23.7793C1.64133 24.1699 2.08078 24.471 2.56906 24.6826C3.05734 24.8942 3.59445 25 4.18039 25H20.8796C21.4655 25 22.0027 24.8942 22.4909 24.6826C22.9792 24.471 23.4187 24.1699 23.8093 23.7793C24.1999 23.3887 24.501 22.9492 24.7126 22.4609C24.9242 21.9727 25.03 21.4355 25.03 20.8496V4.15039C25.03 3.56445 24.9242 3.02734 24.7126 2.53906C24.501 2.05078 24.1999 1.61133 23.8093 1.2207C23.4187 0.830078 22.9792 0.528971 22.4909 0.317383C22.0027 0.105795 21.4655 0 20.8796 0ZM8.03781 10.9375H17.0222C17.1198 11.1979 17.1849 11.4583 17.2175 11.7188C17.2501 11.9792 17.2663 12.2396 17.2663 12.5C17.2663 13.151 17.1361 13.7695 16.8757 14.3555C16.6153 14.9414 16.2735 15.446 15.8503 15.8691C15.4271 16.2923 14.9226 16.626 14.3366 16.8701C13.7507 17.1143 13.1322 17.2363 12.4812 17.2363C11.8301 17.2363 11.2116 17.1143 10.6257 16.8701C10.0398 16.626 9.53521 16.2923 9.11203 15.8691C8.68885 15.446 8.35519 14.9414 8.11105 14.3555C7.86691 13.7695 7.74484 13.151 7.74484 12.5C7.74484 12.2396 7.76112 11.9792 7.79367 11.7188C7.82622 11.4583 7.89133 11.1979 7.98898 10.9375H8.03781ZM21.8562 10.9375V20.3125C21.8562 20.5404 21.8155 20.7438 21.7341 20.9229C21.6527 21.1019 21.5469 21.2728 21.4167 21.4355C21.254 21.5658 21.0831 21.6715 20.904 21.7529C20.725 21.8343 20.5215 21.875 20.2937 21.875H4.66867C4.44081 21.875 4.23736 21.8343 4.05832 21.7529C3.87928 21.6715 3.70838 21.5658 3.54562 21.4355C3.41542 21.2728 3.30962 21.1019 3.22824 20.9229C3.14686 20.7438 3.10617 20.5404 3.10617 20.3125V10.9375H5.54758C5.48247 11.1979 5.44178 11.4583 5.42551 11.7188C5.40923 11.9792 5.40109 12.2396 5.40109 12.5C5.40109 13.4766 5.58013 14.3962 5.9382 15.2588C6.29627 16.1214 6.80083 16.8783 7.45187 17.5293C8.10292 18.1803 8.85975 18.6849 9.72238 19.043C10.585 19.401 11.5046 19.5801 12.4812 19.5801C13.4577 19.5801 14.3773 19.401 15.24 19.043C16.1026 18.6849 16.8594 18.1803 17.5105 17.5293C18.1615 16.8783 18.6661 16.1214 19.0241 15.2588C19.3822 14.3962 19.5612 13.4766 19.5612 12.5C19.5612 12.2396 19.545 11.9792 19.5124 11.7188C19.4799 11.4583 19.431 11.1979 19.3659 10.9375H21.8073H21.8562ZM21.8073 5.46875C21.8073 5.69662 21.7341 5.88379 21.5876 6.03027C21.4411 6.17676 21.254 6.25 21.0261 6.25H19.4636C19.2357 6.25 19.0486 6.17676 18.9021 6.03027C18.7556 5.88379 18.6823 5.69662 18.6823 5.46875V3.90625C18.6823 3.67838 18.7556 3.49121 18.9021 3.34473C19.0486 3.19824 19.2357 3.125 19.4636 3.125H21.0261C21.254 3.125 21.4411 3.19824 21.5876 3.34473C21.7341 3.49121 21.8073 3.67838 21.8073 3.90625V5.46875Z" fill="#517FA4"/>
</svg>
