<svg width="18" height="18" viewBox="0 0 18 18" fill="none" xmlns="http://www.w3.org/2000/svg">
<path d="M16.502 3.17773L11.1895 0.953125L5.84375 3.04492L0.53125 0.953125C0.486979 0.953125 0.45931 0.947592 0.448242 0.936523C0.437174 0.925455 0.409505 0.919922 0.365234 0.919922C0.276693 0.919922 0.193685 0.958658 0.116211 1.03613C0.038737 1.11361 0.0110677 1.21875 0.0332031 1.35156L0 15.1309C0.0221354 15.2637 0.077474 15.3965 0.166016 15.5293C0.254557 15.6621 0.376302 15.7507 0.53125 15.7949L5.87695 17.9199L11.1895 15.7617L16.502 17.8535C16.5462 17.8535 16.5739 17.8535 16.585 17.8535C16.596 17.8535 16.6237 17.8535 16.668 17.8535C16.7344 17.8535 16.8118 17.8203 16.9004 17.7539C16.9889 17.6875 17.0221 17.5879 17 17.4551L17.0332 3.8418C17.0111 3.68685 16.9557 3.54297 16.8672 3.41016C16.7786 3.27734 16.6569 3.19987 16.502 3.17773ZM6.4082 3.94141L10.625 2.24805L10.6582 14.8984L6.375 16.5918L6.4082 3.94141ZM1.0625 2.34766L5.3457 3.94141L5.3125 16.5918L1.0957 14.832L1.0625 2.34766ZM15.9707 16.4922L11.6875 14.8984L11.7207 2.28125L15.9375 4.10742L15.9707 16.4922Z" fill="#333333"/>
</svg>
