<svg width="25" height="25" viewBox="0 0 25 25" fill="none" xmlns="http://www.w3.org/2000/svg">
<g clip-path="url(#clip0_1_348)">
<rect x="0.5" y="0.919922" width="24" height="24" rx="4" fill="#FF7700"/>
<g clip-path="url(#clip1_1_348)">
<path fill-rule="evenodd" clip-rule="evenodd" d="M15.33 11.6898C14.9628 12.0592 14.5262 12.3523 14.0454 12.5523C13.5645 12.7523 13.0488 12.8553 12.528 12.8553C12.0072 12.8553 11.4915 12.7523 11.0106 12.5523C10.5298 12.3523 10.0932 12.0592 9.726 11.6898C9.35664 11.3226 9.06353 10.886 8.86352 10.4052C8.6635 9.92429 8.56053 9.40862 8.56053 8.88781C8.56053 8.36699 8.6635 7.85132 8.86352 7.37045C9.06353 6.88957 9.35664 6.45299 9.726 6.08581C10.0931 5.71633 10.5297 5.42311 11.0106 5.22302C11.4914 5.02293 12.0071 4.91992 12.528 4.91992C13.0488 4.91992 13.5646 5.02293 14.0454 5.22302C14.5263 5.42311 14.9629 5.71633 15.33 6.08581C15.6994 6.45299 15.9925 6.88957 16.1925 7.37045C16.3925 7.85132 16.4955 8.36699 16.4955 8.88781C16.4955 9.40862 16.3925 9.92429 16.1925 10.4052C15.9925 10.886 15.6994 11.3226 15.33 11.6898ZM12.528 7.07481C12.034 7.07481 11.586 7.27481 11.257 7.60481C11.0892 7.77121 10.956 7.9692 10.8651 8.18735C10.7742 8.4055 10.7274 8.63948 10.7274 8.87581C10.7274 9.11213 10.7742 9.34612 10.8651 9.56426C10.956 9.78241 11.0892 9.9804 11.257 10.1468C11.4234 10.3149 11.6214 10.4483 11.8396 10.5394C12.0579 10.6304 12.292 10.6773 12.5285 10.6773C12.765 10.6773 12.9991 10.6304 13.2174 10.5394C13.4356 10.4483 13.6336 10.3149 13.8 10.1468C13.9681 9.98045 14.1015 9.78242 14.1926 9.56417C14.2836 9.34593 14.3305 9.11179 14.3305 8.87531C14.3305 8.63882 14.2836 8.40469 14.1926 8.18644C14.1015 7.96819 13.9681 7.77016 13.8 7.60381C13.4607 7.26896 13.0047 7.07894 12.528 7.07381V7.07481ZM16.696 12.8668L17.862 14.4568C17.921 14.5388 17.909 14.6448 17.826 14.7038C16.849 15.5038 15.707 16.0338 14.518 16.3168L16.767 20.6488C16.826 20.7788 16.743 20.9198 16.602 20.9198H14.2C14.1627 20.9179 14.1267 20.906 14.0957 20.8852C14.0647 20.8644 14.0399 20.8356 14.024 20.8018L12.528 17.2228L11.021 20.7898C11.0078 20.8255 10.9837 20.8561 10.9521 20.8773C10.9205 20.8984 10.883 20.9091 10.845 20.9078H8.443C8.302 20.9078 8.219 20.7548 8.278 20.6378L10.527 16.3168C9.31708 16.0347 8.18636 15.4834 7.219 14.7038C7.148 14.6438 7.124 14.5268 7.183 14.4558L8.349 12.8668C8.419 12.7728 8.537 12.7608 8.619 12.8318C9.715 13.7618 11.069 14.3738 12.517 14.3738C13.965 14.3738 15.307 13.7738 16.414 12.8318C16.508 12.7618 16.637 12.7718 16.696 12.8668Z" fill="white"/>
</g>
</g>
<defs>
<clipPath id="clip0_1_348">
<rect x="0.5" y="0.919922" width="24" height="24" rx="4" fill="white"/>
</clipPath>
<clipPath id="clip1_1_348">
<rect width="24" height="24" fill="white" transform="translate(0.5 0.919922)"/>
</clipPath>
</defs>
</svg>
