<svg width="201" height="30" viewBox="0 0 201 30" fill="none" xmlns="http://www.w3.org/2000/svg">
<path d="M52.7969 9.60938H44.4453V22.7188H41.6445V7.03516H55.5977V22.7188H52.7969V9.60938ZM66.4727 13.8242H62.8438L62.7773 15.2344C62.7031 16.9844 62.5469 18.3672 62.3086 19.3828C62.0859 20.3984 61.8008 21.168 61.457 21.6914C61.1133 22.1992 60.7344 22.5195 60.3164 22.6523C59.8984 22.7891 59.4727 22.8555 59.0391 22.8555C58.8281 22.8555 58.6211 22.8398 58.4102 22.8086C58.2188 22.7969 58.0586 22.7734 57.9414 22.7422V20.0312C58.1211 20.0898 58.3125 20.1211 58.5234 20.1211C58.7617 20.1211 58.9844 20.0742 59.1953 19.9883C59.418 19.8828 59.6133 19.6289 59.7773 19.2227C59.9414 18.8203 60.0742 18.207 60.1797 17.3867C60.3008 16.5664 60.3828 15.4219 60.4258 13.957L60.5156 11.5156H69.0703V22.7188H66.4727V13.8242ZM72.543 12.3008C72.9141 12.0156 73.4297 11.7773 74.0859 11.582C74.7578 11.3867 75.582 11.293 76.5508 11.293C78.1953 11.293 79.418 11.5977 80.2227 12.2109C81.0312 12.8242 81.4336 13.8594 81.4336 15.3242V22.7188H78.9688V20.7031C78.7031 21.3594 78.2383 21.8906 77.582 22.293C76.9414 22.6992 76.1719 22.8984 75.2734 22.8984C74.1406 22.8984 73.25 22.6016 72.6094 22.0039C71.9844 21.3906 71.668 20.5312 71.668 19.4258C71.668 18.7852 71.7812 18.2539 72.0039 17.8359C72.2305 17.418 72.543 17.0898 72.9453 16.8477C73.3477 16.5938 73.8359 16.4141 74.4023 16.3125C74.9688 16.207 75.5977 16.1523 76.2812 16.1523H78.8125V15.6602C78.8125 14.8711 78.6172 14.3242 78.2305 14.0234C77.8594 13.7266 77.2969 13.5781 76.5508 13.5781C75.5195 13.5781 74.6914 13.7656 74.0664 14.1367C73.4375 14.4961 72.9297 14.9727 72.543 15.5703V12.3008ZM76.1016 20.5469C76.5508 20.5469 76.9336 20.4961 77.2461 20.3906C77.5742 20.2695 77.8516 20.1289 78.0742 19.9648C78.2969 19.7852 78.4688 19.5898 78.5898 19.3828C78.707 19.1719 78.7812 18.9688 78.8125 18.7773V17.8555H76.5977C75.8203 17.8555 75.2461 17.9453 74.8711 18.125C74.5 18.3047 74.3125 18.6484 74.3125 19.1562C74.3125 19.5898 74.4609 19.9336 74.7578 20.1875C75.0742 20.4258 75.5195 20.5469 76.1016 20.5469ZM87.0078 13.8242H83.4258V11.5156H93.2344V13.8242H89.6055V22.7188H87.0078V13.8242ZM95.4141 11.5156H98.0117V19.1133L103.387 11.5156H105.871V22.7188H103.273V15.0352L97.8984 22.7188H95.4141V11.5156ZM120.207 18.7773C119.82 19 119.371 19.1641 118.863 19.2695C118.355 19.375 117.84 19.4258 117.32 19.4258C115.977 19.4258 114.922 19.1133 114.16 18.4844C113.398 17.8555 113.02 16.8711 113.02 15.5273V11.5156H115.641V15.125C115.641 15.7969 115.82 16.2969 116.176 16.625C116.551 16.9375 117.086 17.0938 117.789 17.0938C118.715 17.0938 119.52 16.9219 120.207 16.5781V11.5156H122.828V22.7188H120.207V18.7773ZM126.266 12.3008C126.641 12.0156 127.156 11.7773 127.812 11.582C128.484 11.3867 129.305 11.293 130.273 11.293C131.918 11.293 133.141 11.5977 133.949 12.2109C134.754 12.8242 135.156 13.8594 135.156 15.3242V22.7188H132.695V20.7031C132.426 21.3594 131.961 21.8906 131.305 22.293C130.664 22.6992 129.895 22.8984 129 22.8984C127.863 22.8984 126.977 22.6016 126.332 22.0039C125.707 21.3906 125.395 20.5312 125.395 19.4258C125.395 18.7852 125.504 18.2539 125.73 17.8359C125.953 17.418 126.266 17.0898 126.668 16.8477C127.074 16.5938 127.559 16.4141 128.125 16.3125C128.691 16.207 129.32 16.1523 130.008 16.1523H132.535V15.6602C132.535 14.8711 132.344 14.3242 131.953 14.0234C131.582 13.7266 131.02 13.5781 130.273 13.5781C129.246 13.5781 128.418 13.7656 127.789 14.1367C127.16 14.4961 126.656 14.9727 126.266 15.5703V12.3008ZM129.828 20.5469C130.273 20.5469 130.656 20.4961 130.969 20.3906C131.297 20.2695 131.574 20.1289 131.797 19.9648C132.023 19.7852 132.195 19.5898 132.312 19.3828C132.434 19.1719 132.508 18.9688 132.535 18.7773V17.8555H130.32C129.543 17.8555 128.969 17.9453 128.594 18.125C128.223 18.3047 128.035 18.6484 128.035 19.1562C128.035 19.5898 128.184 19.9336 128.484 20.1875C128.797 20.4258 129.246 20.5469 129.828 20.5469ZM147.094 21.6016C146.84 21.9141 146.383 22.2188 145.727 22.5195C145.07 22.8164 144.285 22.9688 143.375 22.9688C142.48 22.9688 141.664 22.8477 140.934 22.6094C140.203 22.3555 139.574 21.9805 139.051 21.4883C138.531 20.9961 138.125 20.3828 137.844 19.6484C137.559 18.918 137.418 18.0586 137.418 17.0742C137.418 16.1172 137.559 15.2812 137.844 14.5625C138.141 13.832 138.551 13.2266 139.074 12.7461C139.598 12.2539 140.227 11.8906 140.957 11.6484C141.688 11.3945 142.5 11.2695 143.398 11.2695C144.16 11.2852 144.852 11.3867 145.48 11.582C146.105 11.7773 146.605 12.0156 146.98 12.3008V15.5703C146.594 14.9727 146.098 14.4961 145.504 14.1367C144.922 13.7656 144.219 13.5703 143.398 13.5547C142.32 13.5547 141.5 13.8398 140.934 14.4063C140.367 14.9727 140.082 15.8242 140.082 16.9609V17.2969C140.082 18.4609 140.375 19.3203 140.957 19.875C141.555 20.4102 142.383 20.6797 143.441 20.6797C144.383 20.6797 145.152 20.5078 145.75 20.1641C146.359 19.8203 146.809 19.4023 147.094 18.9102V21.6016ZM152.281 13.8242H148.695V11.5156H158.504V13.8242H154.879V22.7188H152.281V13.8242ZM167.469 19.0234H164.871L162.609 22.7188H159.719L162.316 18.6641C161.645 18.3945 161.141 18 160.797 17.4766C160.453 16.9375 160.281 16.3047 160.281 15.5703C160.281 14.168 160.684 13.1445 161.488 12.5C162.297 11.8438 163.574 11.5156 165.32 11.5156H170.09V22.7188H167.469V19.0234ZM165.387 13.8242C164.508 13.8242 163.871 13.9492 163.484 14.2031C163.094 14.457 162.902 14.9141 162.902 15.5703C162.918 16.0352 163.078 16.3945 163.395 16.6484C163.707 16.8867 164.207 17.0039 164.895 17.0039H167.469V13.8242H165.387ZM183.203 15.1914L179.977 19.9414H179.148L175.898 15.168V22.7188H173.281V11.5156H175.988L179.641 16.7578L183.18 11.5156H185.824V22.7188H183.203V15.1914ZM189.027 11.5156H191.625V19.1133L197 11.5156H199.484V22.7188H196.887V15.0352L191.512 22.7188H189.027V11.5156Z" fill="#353F47"/>
<path fill-rule="evenodd" clip-rule="evenodd" d="M15.1914 6.89844C15.1914 10.6797 12.1289 13.7461 8.35156 13.7461C4.57422 13.7461 1.51562 10.6797 1.51562 6.89844C1.51562 3.11328 4.57422 0.046875 8.35156 0.046875C12.1289 0.046875 15.1914 3.11328 15.1914 6.89844ZM15.3047 23.0664C15.3047 26.8477 12.2422 29.9141 8.46484 29.9141C4.6875 29.9141 1.625 26.8477 1.625 23.0664C1.625 19.2812 4.6875 16.2148 8.46484 16.2148C12.2422 16.2148 15.3047 19.2812 15.3047 23.0664ZM24.5078 29.9531C28.2852 29.9531 31.3477 26.8867 31.3477 23.1016C31.3477 19.3203 28.2852 16.2539 24.5078 16.2539C20.7305 16.2539 17.668 19.3203 17.668 23.1016C17.668 26.8867 20.7305 29.9531 24.5078 29.9531Z" fill="url(#paint0_linear_1_334)"/>
<path d="M31.2344 7C31.2344 10.7812 28.1719 13.8477 24.3945 13.8477C20.6172 13.8477 17.5586 10.7812 17.5586 7C17.5586 3.21484 20.6172 0.148438 24.3945 0.148438C28.1719 0.148438 31.2344 3.21484 31.2344 7ZM20.1914 7C20.1914 9.32422 22.0742 11.207 24.3945 11.207C26.7188 11.207 28.6016 9.32422 28.6016 7C28.6016 4.67187 26.7188 2.78906 24.3945 2.78906C22.0742 2.78906 20.1914 4.67187 20.1914 7Z" fill="url(#paint1_linear_1_334)"/>
<defs>
<linearGradient id="paint0_linear_1_334" x1="1.51396" y1="26.7304" x2="31.2178" y2="17.8928" gradientUnits="userSpaceOnUse">
<stop stop-color="#F8EC4F"/>
<stop offset="0.567624" stop-color="#4DE544"/>
<stop offset="1" stop-color="#49C8FF"/>
</linearGradient>
<linearGradient id="paint1_linear_1_334" x1="28.3521" y1="0.150153" x2="20.0508" y2="13.7152" gradientUnits="userSpaceOnUse">
<stop stop-color="#CDEFFD"/>
<stop offset="1" stop-color="#91E5CB"/>
</linearGradient>
</defs>
</svg>
