<svg width="21" height="21" viewBox="0 0 21 21" fill="none" xmlns="http://www.w3.org/2000/svg">
<path d="M13.9309 4.04297C13.7747 3.96484 13.6119 3.95833 13.4427 4.02344C13.2734 4.08854 13.1627 4.19922 13.1106 4.35547C13.0325 4.51172 13.0195 4.66797 13.0716 4.82422C13.1237 4.98047 13.2278 5.09766 13.3841 5.17578C14.1914 5.54036 14.8945 6.02214 15.4934 6.62109C16.0924 7.22005 16.5742 7.88411 16.9388 8.61328C17.3033 9.36849 17.5442 10.1628 17.6614 10.9961C17.7786 11.8294 17.746 12.6758 17.5638 13.5352C17.3554 14.5508 16.9648 15.4688 16.3919 16.2891C15.819 17.1094 15.1289 17.7799 14.3216 18.3008C13.5143 18.8477 12.6223 19.2253 11.6458 19.4336C10.6692 19.6419 9.67313 19.6289 8.65751 19.3945C8.16271 19.3164 7.69396 19.1797 7.25126 18.9844C6.80855 18.7891 6.39188 18.5482 6.00126 18.2617C5.58459 18.0013 5.20699 17.6953 4.86844 17.3438C4.5299 16.9922 4.23042 16.6081 3.97001 16.1914C3.68355 15.7487 3.44917 15.2995 3.26688 14.8438C3.08459 14.388 2.94136 13.9258 2.83719 13.457C2.73303 12.9622 2.68745 12.4674 2.70048 11.9727C2.7135 11.4779 2.77209 10.9831 2.87626 10.4883C2.98042 9.91536 3.1562 9.36198 3.4036 8.82812C3.651 8.29427 3.95699 7.80599 4.32157 7.36328C4.68615 6.89453 5.09631 6.47786 5.55204 6.11328C6.00777 5.7487 6.49605 5.4362 7.01688 5.17578C7.17313 5.09766 7.28381 4.98047 7.34891 4.82422C7.41402 4.66797 7.40751 4.51172 7.32938 4.35547C7.25126 4.19922 7.13407 4.08854 6.97782 4.02344C6.82157 3.95833 6.66532 3.96484 6.50907 4.04297C5.88407 4.35547 5.30464 4.72005 4.77079 5.13672C4.23693 5.55339 3.76167 6.03516 3.34501 6.58203C2.92834 7.10286 2.57678 7.66927 2.29032 8.28125C2.00386 8.89323 1.78251 9.55078 1.62626 10.2539C1.52209 10.8268 1.4635 11.3997 1.45048 11.9727C1.43745 12.5456 1.49605 13.1185 1.62626 13.6914C1.73042 14.2383 1.88667 14.7786 2.09501 15.3125C2.30334 15.8464 2.57678 16.3607 2.91532 16.8555C3.22782 17.3503 3.58589 17.7995 3.98954 18.2031C4.39318 18.6068 4.82938 18.9779 5.29813 19.3164C5.74084 19.6289 6.22912 19.8958 6.76298 20.1172C7.29683 20.3385 7.85021 20.5143 8.42313 20.6445C8.55334 20.6706 8.69657 20.6966 8.85282 20.7227C9.00907 20.7487 9.1523 20.7617 9.28251 20.7617C9.43876 20.7878 9.5885 20.8008 9.73173 20.8008C9.87496 20.8008 10.0247 20.8008 10.1809 20.8008C11.1966 20.8008 12.1796 20.6315 13.1302 20.293C14.0807 19.9544 14.9335 19.4727 15.6888 18.8477C16.47 18.2487 17.1341 17.513 17.6809 16.6406C18.2278 15.7682 18.6054 14.8112 18.8138 13.7695C19.0221 12.7799 19.0546 11.7969 18.9114 10.8203C18.7682 9.84375 18.4882 8.92578 18.0716 8.06641C17.6289 7.20703 17.0559 6.43229 16.3528 5.74219C15.6497 5.05208 14.8424 4.48568 13.9309 4.04297ZM10.22 8.96484C10.4023 8.96484 10.552 8.90625 10.6692 8.78906C10.7864 8.67188 10.845 8.52214 10.845 8.33984V1.46484C10.845 1.28255 10.7864 1.13281 10.6692 1.01562C10.552 0.898438 10.4023 0.839844 10.22 0.839844C10.0377 0.839844 9.88798 0.898438 9.77079 1.01562C9.6536 1.13281 9.59501 1.28255 9.59501 1.46484V8.33984C9.59501 8.52214 9.6536 8.67188 9.77079 8.78906C9.88798 8.90625 10.0377 8.96484 10.22 8.96484Z" fill="#00C0FF"/>
</svg>
