<svg width="18" height="18" viewBox="0 0 18 18" fill="none" xmlns="http://www.w3.org/2000/svg">
<path d="M17.55 7.82617V2.21484C17.55 2.03776 17.5168 1.87174 17.4504 1.7168C17.384 1.56185 17.2954 1.41797 17.1848 1.28516C17.052 1.17448 16.9081 1.08594 16.7531 1.01953C16.5982 0.953125 16.4322 0.919922 16.2551 0.919922H10.5109C10.4224 0.919922 10.3228 0.919922 10.2121 0.919922C10.1014 0.919922 9.99076 0.93099 9.88008 0.953125C9.7694 0.97526 9.65873 1.014 9.54805 1.06934C9.43737 1.12467 9.33776 1.19662 9.24922 1.28516L0.848831 9.68555C0.76029 9.77409 0.688349 9.88477 0.633011 10.0176C0.577672 10.1504 0.550003 10.2832 0.550003 10.416C0.550003 10.571 0.577672 10.7148 0.633011 10.8477C0.688349 10.9805 0.76029 11.0911 0.848831 11.1797L7.29024 17.6211C7.37878 17.7096 7.48946 17.7816 7.62227 17.8369C7.75508 17.8923 7.89896 17.9199 8.05391 17.9199C8.18672 17.9199 8.31953 17.8923 8.45235 17.8369C8.58516 17.7816 8.69584 17.7096 8.78438 17.6211L17.1848 9.2207C17.2733 9.13216 17.3453 9.03255 17.4006 8.92188C17.4559 8.8112 17.4947 8.68945 17.5168 8.55664C17.5389 8.44596 17.55 8.32975 17.55 8.20801C17.55 8.08626 17.55 7.95898 17.55 7.82617ZM16.4543 8.45703L8.02071 16.8574L1.6125 10.416L10.0129 2.04883C10.0572 2.00456 10.1346 1.98242 10.2453 1.98242C10.356 1.98242 10.4445 1.98242 10.5109 1.98242H10.7434H16.2551C16.3215 1.98242 16.3768 2.00456 16.4211 2.04883C16.4654 2.0931 16.4875 2.14844 16.4875 2.21484V7.82617C16.4875 7.93685 16.4875 8.05859 16.4875 8.19141C16.4875 8.32422 16.4764 8.41276 16.4543 8.45703ZM13.3 3.04492C13.0122 3.04492 12.7355 3.10026 12.4699 3.21094C12.2043 3.32161 11.9829 3.47656 11.8059 3.67578C11.6066 3.85286 11.4517 4.07422 11.341 4.33984C11.2303 4.60547 11.175 4.88216 11.175 5.16992C11.175 5.45768 11.2303 5.73438 11.341 6C11.4517 6.26562 11.6066 6.48698 11.8059 6.66406C11.9829 6.86328 12.2043 7.01823 12.4699 7.12891C12.7355 7.23958 13.0122 7.29492 13.3 7.29492C13.5878 7.29492 13.8645 7.23958 14.1301 7.12891C14.3957 7.01823 14.6171 6.86328 14.7941 6.66406C14.9934 6.48698 15.1483 6.26562 15.259 6C15.3697 5.73438 15.425 5.45768 15.425 5.16992C15.425 4.88216 15.3697 4.60547 15.259 4.33984C15.1483 4.07422 14.9934 3.85286 14.7941 3.67578C14.6171 3.47656 14.3957 3.32161 14.1301 3.21094C13.8645 3.10026 13.5878 3.04492 13.3 3.04492ZM13.3 6.23242C13.1451 6.23242 13.0067 6.20475 12.885 6.14941C12.7632 6.09408 12.647 6.02214 12.5363 5.93359C12.4478 5.82292 12.3758 5.70671 12.3205 5.58496C12.2652 5.46322 12.2375 5.32487 12.2375 5.16992C12.2375 5.01497 12.2652 4.87663 12.3205 4.75488C12.3758 4.63314 12.4478 4.51693 12.5363 4.40625C12.647 4.31771 12.7632 4.24577 12.885 4.19043C13.0067 4.13509 13.1451 4.10742 13.3 4.10742C13.455 4.10742 13.5933 4.13509 13.715 4.19043C13.8368 4.24577 13.953 4.31771 14.0637 4.40625C14.1522 4.51693 14.2242 4.63314 14.2795 4.75488C14.3348 4.87663 14.3625 5.01497 14.3625 5.16992C14.3625 5.32487 14.3348 5.46322 14.2795 5.58496C14.2242 5.70671 14.1522 5.82292 14.0637 5.93359C13.953 6.02214 13.8368 6.09408 13.715 6.14941C13.5933 6.20475 13.455 6.23242 13.3 6.23242Z" fill="#333333"/>
</svg>
