<svg width="17" height="18" viewBox="0 0 17 18" fill="none" xmlns="http://www.w3.org/2000/svg">
<path d="M8.5 0.109863C7.32682 0.109863 6.22559 0.331217 5.19629 0.773926C4.16699 1.21663 3.26497 1.82536 2.49023 2.6001C1.71549 3.37484 1.10677 4.27686 0.664062 5.30615C0.221354 6.33545 0 7.43669 0 8.60986C0 9.78304 0.221354 10.8843 0.664062 11.9136C1.10677 12.9429 1.71549 13.8449 2.49023 14.6196C3.26497 15.3944 4.16699 16.0031 5.19629 16.4458C6.22559 16.8885 7.32682 17.1099 8.5 17.1099C9.67318 17.1099 10.7744 16.8885 11.8037 16.4458C12.833 16.0031 13.735 15.3944 14.5098 14.6196C15.2845 13.8449 15.8932 12.9429 16.3359 11.9136C16.7786 10.8843 17 9.78304 17 8.60986C17 7.43669 16.7786 6.33545 16.3359 5.30615C15.8932 4.27686 15.2845 3.37484 14.5098 2.6001C13.735 1.82536 12.833 1.21663 11.8037 0.773926C10.7744 0.331217 9.67318 0.109863 8.5 0.109863ZM8.5 16.0806C7.48177 16.0806 6.51888 15.8813 5.61133 15.4829C4.70378 15.0845 3.91797 14.5532 3.25391 13.8892C2.56771 13.203 2.03092 12.4061 1.64355 11.4985C1.25618 10.591 1.0625 9.62809 1.0625 8.60986C1.0625 7.59163 1.25618 6.62874 1.64355 5.72119C2.03092 4.81364 2.56771 4.02783 3.25391 3.36377C3.91797 2.67757 4.70378 2.14079 5.61133 1.75342C6.51888 1.36605 7.48177 1.17236 8.5 1.17236C9.51823 1.17236 10.4811 1.36605 11.3887 1.75342C12.2962 2.14079 13.082 2.67757 13.7461 3.36377C14.4323 4.02783 14.9691 4.81364 15.3564 5.72119C15.7438 6.62874 15.9375 7.59163 15.9375 8.60986C15.9375 9.62809 15.7438 10.591 15.3564 11.4985C14.9691 12.4061 14.4323 13.203 13.7461 13.8892C13.082 14.5532 12.2962 15.0845 11.3887 15.4829C10.4811 15.8813 9.51823 16.0806 8.5 16.0806ZM9.03125 8.41064V3.29736C9.03125 3.14242 8.98145 3.01514 8.88184 2.91553C8.78223 2.81592 8.65495 2.76611 8.5 2.76611C8.34505 2.76611 8.21777 2.81592 8.11816 2.91553C8.01855 3.01514 7.96875 3.14242 7.96875 3.29736V8.60986C7.96875 8.67627 7.98535 8.74268 8.01855 8.80908C8.05176 8.87549 8.0905 8.94189 8.13477 9.0083C8.13477 9.0083 8.14583 9.0083 8.16797 9.0083L10.791 11.6646C10.9017 11.7531 11.029 11.7974 11.1729 11.7974C11.3167 11.7974 11.444 11.7531 11.5547 11.6646C11.6432 11.5539 11.6875 11.4266 11.6875 11.2827C11.6875 11.1388 11.6432 11.0116 11.5547 10.9009L9.03125 8.41064Z" fill="#333333"/>
</svg>
