<svg width="26" height="25" viewBox="0 0 26 25" fill="none" xmlns="http://www.w3.org/2000/svg">
<path d="M25.77 4.73633C25.5421 4.83398 25.3061 4.93164 25.062 5.0293C24.8179 5.12695 24.5819 5.20833 24.354 5.27344C24.0936 5.33854 23.8413 5.39551 23.5972 5.44434C23.353 5.49316 23.1007 5.53385 22.8403 5.56641C23.1007 5.40365 23.3449 5.21647 23.5727 5.00488C23.8006 4.79329 24.0122 4.57357 24.2075 4.3457C24.4028 4.11784 24.5737 3.86556 24.7202 3.58887C24.8667 3.31217 24.9888 3.02734 25.0864 2.73438C24.826 2.86458 24.5656 2.99479 24.3052 3.125C24.0447 3.25521 23.7843 3.36914 23.5239 3.4668C23.2635 3.56445 22.9868 3.65397 22.6938 3.73535C22.4009 3.81673 22.1079 3.88997 21.8149 3.95508C21.5871 3.69466 21.3348 3.4668 21.0581 3.27148C20.7814 3.07617 20.4803 2.91341 20.1548 2.7832C19.8292 2.65299 19.4956 2.5472 19.1538 2.46582C18.812 2.38444 18.4458 2.34375 18.0552 2.34375C17.3716 2.34375 16.7124 2.47396 16.0776 2.73438C15.4429 2.99479 14.8976 3.36914 14.4419 3.85742C13.9861 4.31315 13.6199 4.85026 13.3432 5.46875C13.0666 6.08724 12.9282 6.75456 12.9282 7.4707C12.9282 7.66602 12.9445 7.86133 12.977 8.05664C13.0096 8.25195 13.0421 8.44727 13.0747 8.64258C12.0005 8.57747 10.9669 8.40658 9.97411 8.12988C8.98127 7.85319 8.04539 7.48698 7.16649 7.03125C6.25503 6.57552 5.40868 6.03027 4.62743 5.39551C3.84618 4.76074 3.14631 4.05273 2.52782 3.27148C2.39761 3.4668 2.29181 3.67025 2.21043 3.88184C2.12905 4.09342 2.05581 4.29688 1.99071 4.49219C1.9256 4.72005 1.87678 4.94792 1.84422 5.17578C1.81167 5.40365 1.79539 5.63151 1.79539 5.85938C1.79539 6.3151 1.85236 6.74642 1.96629 7.15332C2.08023 7.56022 2.23485 7.94271 2.43016 8.30078C2.62547 8.69141 2.86961 9.0332 3.16258 9.32617C3.45555 9.61914 3.7648 9.87956 4.09032 10.1074C3.895 10.1074 3.69155 10.0911 3.47997 10.0586C3.26838 10.026 3.06493 9.99349 2.86961 9.96094C2.6743 9.89583 2.48713 9.82259 2.30809 9.74121C2.12905 9.65983 1.95816 9.57031 1.79539 9.47266C1.79539 9.50521 1.79539 9.52148 1.79539 9.52148C1.79539 9.52148 1.79539 9.53776 1.79539 9.57031C1.79539 10.1888 1.89305 10.7747 2.08836 11.3281C2.28368 11.8815 2.57664 12.3861 2.96727 12.8418C3.32534 13.265 3.75666 13.6312 4.26122 13.9404C4.76577 14.2497 5.31102 14.4694 5.89696 14.5996C5.66909 14.6322 5.44123 14.6647 5.21336 14.6973C4.9855 14.7298 4.75763 14.7461 4.52977 14.7461C4.36701 14.7461 4.20425 14.738 4.04149 14.7217C3.87873 14.7054 3.71597 14.681 3.55321 14.6484C3.71597 15.1693 3.95197 15.6494 4.26122 16.0889C4.57046 16.5283 4.93667 16.8945 5.35985 17.1875C5.78303 17.513 6.24689 17.7653 6.75145 17.9443C7.25601 18.1234 7.80125 18.2129 8.38719 18.2129C7.93146 18.571 7.45946 18.8883 6.97118 19.165C6.48289 19.4417 5.96206 19.6615 5.40868 19.8242C4.88784 20.0195 4.3426 20.166 3.77293 20.2637C3.20327 20.3613 2.6092 20.4102 1.99071 20.4102C1.79539 20.4102 1.59194 20.4102 1.38036 20.4102C1.16877 20.4102 0.965317 20.3939 0.770004 20.3613C1.32339 20.7194 1.90933 21.0449 2.52782 21.3379C3.14631 21.6309 3.79735 21.875 4.48094 22.0703C5.13198 22.2656 5.80744 22.4121 6.50731 22.5098C7.20718 22.6074 7.91519 22.6562 8.63133 22.6562C10.9751 22.6562 13.0584 22.2168 14.8813 21.3379C16.7042 20.459 18.2342 19.3197 19.4712 17.9199C20.7082 16.5202 21.644 14.9495 22.2788 13.208C22.9136 11.4665 23.2309 9.74935 23.2309 8.05664C23.2309 7.95898 23.2309 7.85319 23.2309 7.73926C23.2309 7.62533 23.2309 7.51953 23.2309 7.42188C23.4588 7.22656 23.6948 7.03125 23.9389 6.83594C24.1831 6.64062 24.4028 6.42904 24.5981 6.20117C24.826 5.97331 25.0376 5.7373 25.2329 5.49316C25.4282 5.24902 25.6072 4.99674 25.77 4.73633Z" fill="#00ACED"/>
</svg>
