<svg width="25" height="25" viewBox="0 0 25 25" fill="none" xmlns="http://www.w3.org/2000/svg">
<g clip-path="url(#clip0_1_362)">
<rect x="0.5" y="0.919922" width="24" height="24" rx="4" fill="#7B519D"/>
<g clip-path="url(#clip1_1_362)">
<path fill-rule="evenodd" clip-rule="evenodd" d="M18.934 16.4937C18.45 16.1027 17.932 15.7507 17.423 15.3917C16.407 14.6737 15.478 14.6187 14.72 15.7717C14.294 16.4197 13.699 16.4487 13.076 16.1637C11.358 15.3817 10.032 14.1747 9.255 12.4207C8.911 11.6437 8.915 10.9477 9.72 10.3987C10.145 10.1087 10.574 9.76471 10.54 9.13071C10.495 8.30271 8.497 5.53771 7.708 5.24571C7.39035 5.12922 7.04166 5.12922 6.724 5.24571C4.873 5.86971 4.106 7.39971 4.84 9.21171C7.03 14.6167 10.883 18.3787 16.189 20.6747C16.491 20.8047 16.827 20.8577 16.997 20.9047C18.205 20.9167 19.62 19.7467 20.029 18.5867C20.422 17.4697 19.592 17.0267 18.934 16.4937ZM12.985 5.79971C16.864 6.39971 18.653 8.25371 19.147 12.1797C19.192 12.5427 19.057 13.0887 19.573 13.0987C20.111 13.1087 19.981 12.5707 19.986 12.2087C20.031 8.50971 16.823 5.08171 13.098 4.95571C12.817 4.99571 12.235 4.76071 12.198 5.39371C12.174 5.82071 12.664 5.75071 12.985 5.79971Z" fill="white"/>
<path fill-rule="evenodd" clip-rule="evenodd" d="M13.744 6.87689C13.371 6.83189 12.879 6.65489 12.791 7.17589C12.701 7.72189 13.249 7.66589 13.602 7.74589C15.997 8.28389 16.832 9.15989 17.226 11.5479C17.283 11.8969 17.169 12.4379 17.758 12.3479C18.194 12.2819 18.036 11.8179 18.073 11.5459C18.093 9.25289 16.137 7.16589 13.744 6.87689Z" fill="white"/>
<path fill-rule="evenodd" clip-rule="evenodd" d="M13.964 8.75185C13.715 8.75785 13.471 8.78486 13.379 9.05186C13.242 9.45186 13.531 9.54785 13.825 9.59585C14.808 9.75385 15.325 10.3359 15.423 11.3209C15.45 11.5889 15.618 11.8049 15.875 11.7749C16.231 11.7319 16.264 11.4139 16.253 11.1109C16.27 10.0049 15.026 8.72585 13.964 8.75185Z" fill="white"/>
</g>
</g>
<defs>
<clipPath id="clip0_1_362">
<rect x="0.5" y="0.919922" width="24" height="24" rx="4" fill="white"/>
</clipPath>
<clipPath id="clip1_1_362">
<rect width="24" height="24" fill="white" transform="translate(0.5 0.919922)"/>
</clipPath>
</defs>
</svg>
