<svg width="28" height="25" viewBox="0 0 28 25" fill="none" xmlns="http://www.w3.org/2000/svg">
<path d="M0.481682 7.66574C0.481682 7.56808 0.497964 7.4867 0.530528 7.4216L0.579374 7.37277C0.709631 7.17746 0.970145 7.09608 1.36092 7.12863L5.17093 7.03097C5.30119 7.09608 5.41516 7.12863 5.51285 7.12863C5.61055 7.19373 5.67568 7.24256 5.70824 7.27511L5.80593 7.32394C5.93619 7.4216 6.05016 7.58436 6.14786 7.81222C6.31068 8.2354 6.52235 8.7074 6.78286 9.22824C7.01081 9.68397 7.20619 10.0583 7.36902 10.3513L7.5644 10.7419C7.82491 11.3278 8.08543 11.7999 8.34594 12.1579C8.60646 12.6137 8.83441 12.9392 9.02979 13.1345C9.22518 13.3949 9.42056 13.5739 9.61595 13.6716C9.81133 13.8344 9.97415 13.8995 10.1044 13.8669C10.2347 13.8995 10.3486 13.8832 10.4463 13.8181C10.4789 13.8181 10.5115 13.7855 10.544 13.7204C10.5766 13.7204 10.6254 13.6228 10.6906 13.4275C10.7883 13.2972 10.8534 13.0694 10.886 12.7439C10.9185 12.516 10.9674 12.1416 11.0325 11.6208C11.0651 11.1651 11.0651 10.5954 11.0325 9.91183C10.9999 9.55376 10.9511 9.21196 10.886 8.88644C10.8208 8.59347 10.7557 8.38188 10.6906 8.25167L10.5929 8.10519C10.3649 7.74712 9.97415 7.5518 9.42056 7.51925C9.29031 7.45415 9.32287 7.34022 9.51825 7.17746C9.64851 6.98214 9.81133 6.83566 10.0067 6.738C10.5277 6.47759 11.6512 6.37993 13.3771 6.44503C14.1261 6.41248 14.7448 6.46131 15.2333 6.59152C15.4287 6.62407 15.5915 6.68917 15.7217 6.78683C15.852 6.85194 15.9497 6.96587 16.0148 7.12863C16.0799 7.22628 16.1288 7.37277 16.1614 7.56808C16.1939 7.69829 16.2102 7.90988 16.2102 8.20285C16.2102 8.43071 16.1939 8.69113 16.1614 8.9841C16.1614 9.17941 16.1614 9.50493 16.1614 9.96066C16.1288 10.3513 16.1125 10.7419 16.1125 11.1325C16.1125 11.1976 16.1125 11.393 16.1125 11.7185C16.1125 11.9463 16.1125 12.1579 16.1125 12.3532C16.1125 12.4834 16.1288 12.6788 16.1614 12.9392C16.1939 13.1345 16.2428 13.3135 16.3079 13.4763C16.4056 13.5739 16.5196 13.6879 16.6498 13.8181C16.7149 13.8181 16.7801 13.8344 16.8452 13.8669C16.9429 13.8669 17.0732 13.8181 17.236 13.7204C17.3988 13.5577 17.5779 13.3949 17.7733 13.2321C17.9687 13.0043 18.2129 12.695 18.506 12.3044C18.7665 11.8487 19.0759 11.3441 19.4341 10.7907C19.9877 9.81417 20.4924 8.77251 20.9483 7.66574C20.9809 7.53553 21.0134 7.45415 21.046 7.4216C21.1111 7.32394 21.1762 7.27511 21.2414 7.27511L21.2902 7.17746H21.3391V7.12863L21.5345 7.17746C21.6647 7.11235 21.7624 7.09608 21.8275 7.12863L25.8329 7.0798C26.1911 7.04725 26.4842 7.06352 26.7122 7.12863C26.9401 7.22628 27.0867 7.29139 27.1518 7.32394L27.2495 7.51925C27.4449 8.07264 26.7447 9.43983 25.1491 11.6208C24.9211 11.8812 24.6118 12.2719 24.221 12.7927C23.5046 13.7041 23.0975 14.3226 22.9998 14.6482C22.837 15.0062 22.9022 15.3806 23.1952 15.7712C23.3255 15.934 23.7 16.3083 24.3187 16.8943V16.8454L24.3675 16.9919C25.6701 18.1638 26.5656 19.1892 27.0541 20.0681C27.0867 20.0681 27.1192 20.1169 27.1518 20.2146C27.1843 20.2471 27.2169 20.3773 27.2495 20.6052C27.282 20.7354 27.2658 20.8982 27.2006 21.0935C27.1681 21.1911 27.0541 21.3051 26.8587 21.4353C26.6633 21.5329 26.3865 21.598 26.0283 21.6306H22.4625C22.2346 21.7282 21.9741 21.712 21.681 21.5818C21.3879 21.5166 21.1437 21.4027 20.9483 21.24L20.7041 21.1423C20.411 20.9144 20.0853 20.6215 19.7271 20.2634C19.3364 19.8077 19.0107 19.4496 18.7502 19.1892C18.4897 18.8311 18.2129 18.5544 17.9198 18.3591C17.5942 18.0987 17.3337 18.0336 17.1383 18.1638C17.1057 18.1312 17.0569 18.1475 16.9917 18.2126C16.9592 18.1801 16.8778 18.2452 16.7475 18.4079C16.6498 18.473 16.5521 18.6032 16.4544 18.7985C16.3893 18.9288 16.3079 19.1729 16.2102 19.531C16.1451 19.8239 16.1288 20.182 16.1614 20.6052C16.1614 20.7028 16.1451 20.8331 16.1125 20.9958C16.0799 21.0935 16.0311 21.1749 15.966 21.24L15.9171 21.2888C15.7543 21.4841 15.5101 21.5818 15.1844 21.5818L13.5725 21.6306C12.9212 21.6306 12.2536 21.5492 11.5698 21.3864C10.8534 21.1586 10.2347 20.9144 9.71364 20.654C9.19261 20.3285 8.72043 20.0193 8.2971 19.7263C7.8412 19.4008 7.49927 19.1403 7.27132 18.945L6.9294 18.5544C6.83171 18.4893 6.70145 18.3428 6.53863 18.115C6.37581 17.9847 6.05016 17.5616 5.5617 16.8454C5.07324 16.2269 4.58477 15.5271 4.09631 14.7458C3.60785 14.0297 3.03797 13.0531 2.38669 11.8161C1.7354 10.6443 1.11668 9.37472 0.530528 8.00753C0.497964 7.90988 0.481682 7.79595 0.481682 7.66574Z" fill="#333333"/>
</svg>
