<svg width="25" height="25" viewBox="0 0 25 25" fill="none" xmlns="http://www.w3.org/2000/svg">
<g clip-path="url(#clip0_1_372)">
<rect x="0.5" y="0.919922" width="24" height="24" rx="4" fill="#65BC54"/>
<g clip-path="url(#clip1_1_372)">
<path fill-rule="evenodd" clip-rule="evenodd" d="M20.5 12.7139C20.5 17.0179 16.983 20.5079 12.645 20.5079C11.3181 20.5098 10.0123 20.1761 8.849 19.5379L4.5 20.9199L5.918 16.7379C5.17925 15.5258 4.78928 14.1334 4.791 12.7139C4.79 8.40892 8.307 4.91992 12.645 4.91992C16.983 4.91992 20.5 8.40992 20.5 12.7139ZM12.645 6.16092C9.004 6.16092 6.042 9.10092 6.042 12.7139C6.04089 14.096 6.48169 15.4422 7.3 16.5559L6.475 18.9889L9.012 18.1829C10.0909 18.8918 11.354 19.2687 12.645 19.2669C16.287 19.2669 19.249 16.3269 19.249 12.7139C19.249 9.10092 16.287 6.16092 12.645 6.16092ZM16.612 14.5089C16.563 14.4289 16.435 14.3809 16.242 14.2859C16.05 14.1909 15.103 13.7279 14.927 13.6649C14.75 13.6009 14.622 13.5689 14.493 13.7599C14.3008 14.0185 14.0973 14.2684 13.883 14.5089C13.771 14.6369 13.659 14.6519 13.467 14.5569C13.274 14.4609 12.654 14.2599 11.918 13.6089C11.4978 13.2233 11.1372 12.7775 10.848 12.2859C10.735 12.0949 10.835 11.9909 10.932 11.8959C11.018 11.8099 11.124 11.6729 11.221 11.5619C11.317 11.4499 11.349 11.3709 11.413 11.2429C11.477 11.1149 11.445 11.0039 11.397 10.9079C11.349 10.8129 10.964 9.87292 10.803 9.48992C10.643 9.10792 10.483 9.17192 10.37 9.17192C10.258 9.17192 10.13 9.15592 10.001 9.15592C9.90367 9.15846 9.80791 9.18098 9.71966 9.2221C9.63141 9.26321 9.55255 9.32204 9.488 9.39492C9.311 9.58492 8.814 10.0479 8.814 10.9879C8.814 11.9279 9.504 12.8359 9.6 12.9639C9.696 13.0909 10.932 15.0829 12.889 15.8479C14.847 16.6119 14.847 16.3579 15.199 16.3249C15.552 16.2939 16.339 15.8639 16.499 15.4169C16.659 14.9709 16.659 14.5879 16.612 14.5089Z" fill="white"/>
</g>
</g>
<defs>
<clipPath id="clip0_1_372">
<rect x="0.5" y="0.919922" width="24" height="24" rx="4" fill="white"/>
</clipPath>
<clipPath id="clip1_1_372">
<rect width="24" height="24" fill="white" transform="translate(0.5 0.919922)"/>
</clipPath>
</defs>
</svg>
