<svg width="44" height="44" viewBox="0 0 44 44" fill="none" xmlns="http://www.w3.org/2000/svg">
<path d="M37.8888 9.33984C38.8593 10.6116 39.6808 11.9932 40.3368 13.4569L21.7279 27.3611L13.9507 22.4196V16.4748L21.7279 21.4163L37.8888 9.33984Z" fill="#21A038"/>
<path d="M6.01355 22C6.01355 21.7333 6.01997 21.4683 6.03281 21.2048L1.31961 20.9707C1.30357 21.3122 1.29395 21.6569 1.29395 22.0048C1.29195 24.7233 1.81949 27.4154 2.84633 29.9266C3.87316 32.438 5.37907 34.719 7.27768 36.639L10.6209 33.2521C9.15939 31.7767 7.99999 30.0231 7.20931 28.0921C6.41863 26.1611 6.01226 24.0907 6.01355 22Z" fill="url(#paint0_linear_67_126)"/>
<path d="M21.7234 6.07666C21.9864 6.07666 22.2478 6.08642 22.5077 6.09942L22.7436 1.32055C22.4057 1.30429 22.0656 1.29616 21.7234 1.29616C19.0401 1.29284 16.3827 1.82678 13.9036 2.86732C11.4246 3.90786 9.1727 5.43451 7.27734 7.3596L10.6205 10.7482C12.0762 9.2664 13.8065 8.09082 15.7119 7.28911C17.6173 6.4874 19.6602 6.07534 21.7234 6.07666Z" fill="url(#paint1_linear_67_126)"/>
<path d="M21.7235 37.9238C21.4604 37.9238 21.1989 37.9238 20.9375 37.9026L20.7017 42.6799C21.0407 42.6972 21.3813 42.706 21.7235 42.706C24.4057 42.7088 27.0618 42.1745 29.5395 41.1337C32.0173 40.0928 34.2677 38.5659 36.1616 36.6409L32.8248 33.2539C31.3689 34.735 29.6388 35.9099 27.7337 36.7113C25.8287 37.5127 23.7861 37.9248 21.7235 37.9238Z" fill="url(#paint2_linear_67_126)"/>
<path d="M30.5791 8.85523L34.5511 5.88773C30.9206 2.90798 26.3888 1.28592 21.7173 1.29422V6.07635C24.8806 6.07237 27.9706 7.04135 30.5791 8.85523Z" fill="url(#paint3_linear_67_126)"/>
<path d="M42.1516 22.0001C42.1541 20.7561 42.0467 19.5142 41.8306 18.2896L37.4335 21.5741C37.4335 21.7157 37.4335 21.8571 37.4335 22.0001C37.4347 24.225 36.9745 26.4253 36.0831 28.4583C35.1915 30.4914 33.8884 32.3119 32.2583 33.8018L35.4299 37.3547C37.5491 35.4155 39.2426 33.0466 40.4006 30.4015C41.5586 27.7563 42.1551 24.894 42.1516 22.0001Z" fill="#21A038"/>
<path d="M21.7236 37.9238C19.5284 37.9245 17.3575 37.458 15.3514 36.5544C13.3455 35.6508 11.5491 34.3302 10.0786 32.6782L6.57495 35.8912C8.48791 38.0396 10.825 39.7564 13.4347 40.9304C16.0444 42.1043 18.8684 42.7093 21.7236 42.7058V37.9238Z" fill="url(#paint4_linear_67_126)"/>
<path d="M11.1888 10.1984L8.01884 6.64551C5.89898 8.58434 4.20485 10.9531 3.04633 13.5983C1.88782 16.2435 1.29079 19.1059 1.29396 22H6.01357C6.01259 19.7753 6.47279 17.575 7.36429 15.5419C8.25582 13.5089 9.55878 11.6884 11.1888 10.1984Z" fill="url(#paint5_linear_67_126)"/>
<defs>
<linearGradient id="paint0_linear_67_126" x1="8.23219" y1="36.0423" x2="2.95056" y2="20.979" gradientUnits="userSpaceOnUse">
<stop offset="0.14" stop-color="#F1E813"/>
<stop offset="0.3" stop-color="#E6E418"/>
<stop offset="0.58" stop-color="#C9DA26"/>
<stop offset="0.89" stop-color="#A2CC39"/>
</linearGradient>
<linearGradient id="paint1_linear_67_126" x1="8.62488" y1="8.20513" x2="21.9512" y2="3.19477" gradientUnits="userSpaceOnUse">
<stop offset="0.06" stop-color="#0FA7DF"/>
<stop offset="0.54" stop-color="#0098F8"/>
<stop offset="0.92" stop-color="#0290EA"/>
</linearGradient>
<linearGradient id="paint2_linear_67_126" x1="20.3905" y1="39.8197" x2="35.4285" y2="36.468" gradientUnits="userSpaceOnUse">
<stop offset="0.12" stop-color="#A2CC39"/>
<stop offset="0.28" stop-color="#86C239"/>
<stop offset="0.87" stop-color="#219F38"/>
</linearGradient>
<linearGradient id="paint3_linear_67_126" x1="20.7356" y1="2.89585" x2="33.6055" y2="6.81421" gradientUnits="userSpaceOnUse">
<stop offset="0.06" stop-color="#0290EA"/>
<stop offset="0.79" stop-color="#0C89CA"/>
</linearGradient>
<linearGradient id="paint4_linear_67_126" x1="7.75886" y1="35.3091" x2="21.7806" y2="40.4793" gradientUnits="userSpaceOnUse">
<stop offset="0.13" stop-color="#F1E813"/>
<stop offset="0.3" stop-color="#EAE616"/>
<stop offset="0.53" stop-color="#D8DF1F"/>
<stop offset="0.8" stop-color="#BAD52D"/>
<stop offset="0.98" stop-color="#A2CC39"/>
</linearGradient>
<linearGradient id="paint5_linear_67_126" x1="3.05218" y1="22.5789" x2="8.79544" y2="7.83892" gradientUnits="userSpaceOnUse">
<stop offset="0.07" stop-color="#A2CC39"/>
<stop offset="0.26" stop-color="#81C45E"/>
<stop offset="0.92" stop-color="#0FA7DF"/>
</linearGradient>
</defs>
</svg>
