<svg width="40" height="41" viewBox="0 0 40 41" fill="none" xmlns="http://www.w3.org/2000/svg">
<path d="M35.8264 8.27138C36.7765 9.49974 37.5808 10.8342 38.223 12.2481L20.0049 25.6783L12.391 20.9053V15.1631L20.0049 19.9361L35.8264 8.27138Z" fill="white"/>
<path d="M4.62049 20.5C4.62049 20.2423 4.62678 19.9864 4.63934 19.7319L0.0251298 19.5058C0.00942453 19.8356 5.57606e-06 20.1686 5.57606e-06 20.5046C-0.00195764 23.1305 0.514506 25.7307 1.51978 28.1564C2.52505 30.5821 3.99934 32.7854 5.85807 34.64L9.13105 31.3684C7.70026 29.9434 6.56521 28.2495 5.79114 26.3844C5.01706 24.5192 4.61923 22.5194 4.62049 20.5Z" fill="white"/>
<path d="M20.0007 5.11949C20.2582 5.11949 20.5141 5.12892 20.7685 5.14148L20.9994 0.52552C20.6687 0.509814 20.3356 0.501962 20.0007 0.501962C17.3737 0.498759 14.7721 1.0145 12.3451 2.01956C9.91812 3.02463 7.71355 4.49924 5.858 6.3587L9.13098 9.6318C10.5561 8.20049 12.25 7.06499 14.1154 6.29061C15.9808 5.51623 17.9808 5.11822 20.0007 5.11949Z" fill="white"/>
<path d="M20.0007 35.8808C19.7431 35.8808 19.4871 35.8808 19.2312 35.8604L19.0003 40.4748C19.3322 40.4916 19.6657 40.5 20.0007 40.5C22.6265 40.5027 25.2268 39.9866 27.6525 38.9813C30.0783 37.9759 32.2814 36.5011 34.1355 34.6417L30.8688 31.3701C29.4435 32.8007 27.7497 33.9356 25.8847 34.7097C24.0196 35.4838 22.02 35.8818 20.0007 35.8808Z" fill="white"/>
<path d="M28.6701 7.80327L32.5587 4.93694C29.0045 2.05878 24.5679 0.492011 19.9945 0.500031V5.11913C23.0914 5.11529 26.1164 6.05123 28.6701 7.80327Z" fill="white"/>
<path d="M40 20.5C40.0024 19.2984 39.8973 18.0988 39.6858 16.9159L35.381 20.0885C35.381 20.2252 35.381 20.3618 35.381 20.5C35.3822 22.649 34.9317 24.7743 34.0589 26.738C33.1861 28.7018 31.9103 30.4602 30.3145 31.8993L33.4194 35.3311C35.4942 33.458 37.1521 31.1698 38.2857 28.6149C39.4195 26.0599 40.0034 23.2952 40 20.5Z" fill="white"/>
<path d="M20.0007 35.8808C17.8516 35.8816 15.7264 35.4309 13.7625 34.5581C11.7986 33.6854 10.0399 32.4097 8.60029 30.8141L5.17027 33.9176C7.04305 35.9927 9.33107 37.651 11.886 38.785C14.4409 39.9189 17.2054 40.5033 20.0007 40.5V35.8808Z" fill="white"/>
<path d="M9.68703 9.10057L6.58367 5.66883C4.50832 7.54156 2.84978 9.82962 1.71558 12.3846C0.581402 14.9396 -0.00309217 17.7044 1.23022e-05 20.4999L4.62049 20.5C4.61954 18.3511 5.07008 16.2257 5.94287 14.262C6.81567 12.2983 8.09127 10.5398 9.68703 9.10057Z" fill="white"/>
</svg>
