<svg width="252" height="42" viewBox="0 0 252 42" fill="none" xmlns="http://www.w3.org/2000/svg">
<g clip-path="url(#clip0_1_12)">
<path d="M112.766 12.4085L117.984 8.58228H100.516V31.5022H117.984V27.6759H105.507V21.824H116.169V17.9978H105.507V12.4085H112.766Z" fill="#21A038"/>
<path d="M87.3203 17.5101H81.2707V12.4085H90.9502L96.168 8.58228H76.2797V31.5022H86.6775C92.5004 31.5022 95.8654 28.8763 95.8654 24.2998C95.8654 19.9109 92.8406 17.5101 87.3203 17.5101ZM86.4885 27.6759H81.2707V21.3364H86.4885C89.6647 21.3364 91.1393 22.3867 91.1393 24.5249C91.1393 26.6631 89.5512 27.6759 86.4885 27.6759Z" fill="#21A038"/>
<path d="M132.122 8.58228H122.631V31.5022H127.622V25.0124H132.159C138.209 25.0124 141.99 21.8615 141.99 16.7974C141.99 11.7333 138.209 8.58228 132.122 8.58228ZM132.008 21.1863H127.584V12.4085H132.008C135.222 12.4085 136.961 13.984 136.961 16.7974C136.961 19.6108 135.222 21.1863 132.008 21.1863Z" fill="#21A038"/>
<path d="M67.7345 26.5451C66.4113 27.2579 64.9367 27.633 63.4241 27.633C58.9247 27.633 55.6729 24.4445 55.6729 20.0556C55.6729 15.6667 58.9247 12.4782 63.4241 12.4782C65.0499 12.4407 66.638 12.9658 67.9615 13.9037L71.5535 11.2778L71.3265 11.0527C69.247 9.21464 66.4489 8.27686 63.273 8.27686C59.8321 8.27686 56.6938 9.43972 54.4253 11.5404C52.1565 13.7161 50.871 16.7546 50.9468 19.9056C50.9089 23.0941 52.1565 26.1702 54.4253 28.4207C56.8073 30.6341 59.9833 31.8718 63.2351 31.7969C66.8271 31.7969 69.9654 30.559 72.0827 28.3082L68.8689 25.945L67.7345 26.5451Z" fill="#21A038"/>
<path d="M201.998 8.61979V31.5395H206.989V22.1616H217.613V31.5395H222.604V8.61979H217.613V18.0353H206.989V8.61979H201.998ZM193.415 31.5395H198.67L188.915 8.61979H183.849L173.905 31.5395H178.933L180.937 26.9256H191.524L193.415 31.5395ZM182.45 23.0994L186.307 13.909L189.936 23.0994H182.45ZM233.796 22.2741H236.897L244.534 31.5022H250.962L240.754 19.6483L249.676 8.58228H243.968L236.557 18.4104H233.796V8.58228H228.805V31.5022H233.796V22.2741ZM157.419 17.5476V12.446H170.464V8.61979H152.428V31.5395H162.826C168.649 31.5395 172.014 28.9138 172.014 24.3373C172.014 19.9484 168.989 17.5476 163.469 17.5476H157.419ZM157.419 27.7135V21.3738H162.637C165.813 21.3738 167.288 22.4242 167.288 24.5624C167.288 26.7007 165.738 27.7508 162.637 27.7508H157.419V27.7135Z" fill="#21A038"/>
<path d="M35.3265 8.42358C36.2339 9.58647 36.9902 10.8619 37.633 12.2123L20.1646 25.0038L12.8293 20.4274V14.9507L20.1268 19.4896L35.3265 8.42358Z" fill="#21A038"/>
<path d="M5.38574 20.0564C5.38574 19.7938 5.38574 19.5687 5.42355 19.3061L0.999724 19.0811C0.999724 19.3812 0.961914 19.7188 0.961914 20.0189C0.961914 25.2706 3.11711 30.0345 6.59566 33.4857L9.73393 30.3721C7.04939 27.7462 5.38574 24.1077 5.38574 20.0564Z" fill="url(#paint0_linear_1_12)"/>
<path d="M20.1262 5.4304C20.3909 5.4304 20.6178 5.4304 20.8824 5.46792L21.1093 1.07902C20.8068 1.07902 20.4665 1.0415 20.164 1.0415C14.8706 1.0415 10.0687 3.17969 6.59009 6.63078L9.72836 9.74428C12.3751 7.08093 16.0805 5.4304 20.1262 5.4304Z" fill="url(#paint1_linear_1_12)"/>
<path d="M20.1313 34.6879C19.8666 34.6879 19.6397 34.6879 19.375 34.6504L19.1482 39.0394C19.4507 39.0394 19.791 39.0767 20.0934 39.0767C25.3868 39.0767 30.1888 36.9387 33.6673 33.4875L30.529 30.374C27.8823 33.0748 24.2148 34.6879 20.1313 34.6879Z" fill="url(#paint2_linear_1_12)"/>
<path d="M28.4504 7.98212L32.1935 5.24374C28.9041 2.6179 24.7072 1.00488 20.1321 1.00488V5.39378C23.2325 5.43129 26.1063 6.36908 28.4504 7.98212Z" fill="url(#paint3_linear_1_12)"/>
<path d="M39.3394 20.0503C39.3394 18.8874 39.2259 17.7621 39.0368 16.6367L34.9155 19.6752C34.9155 19.7877 34.9155 19.9378 34.9155 20.0503C34.9155 24.3642 33.0249 28.228 30.038 30.8913L33.0249 34.1548C36.8815 30.7037 39.3394 25.6397 39.3394 20.0503Z" fill="#21A038"/>
<path d="M20.1286 34.6877C15.7804 34.6877 11.8859 32.8121 9.20139 29.8486L5.91187 32.8121C9.42824 36.6757 14.4948 39.0765 20.1286 39.0765V34.6877Z" fill="url(#paint4_linear_1_12)"/>
<path d="M10.2633 9.21815L7.27627 5.95459C3.38179 9.4432 0.961914 14.4698 0.961914 20.0591H5.38574C5.38574 15.7827 7.27627 11.8815 10.2633 9.21815Z" fill="url(#paint5_linear_1_12)"/>
</g>
<defs>
<linearGradient id="paint0_linear_1_12" x1="6.12361" y1="32.9516" x2="1.73089" y2="19.9562" gradientUnits="userSpaceOnUse">
<stop offset="0.1444" stop-color="#F2E913"/>
<stop offset="0.3037" stop-color="#E7E518"/>
<stop offset="0.5823" stop-color="#CADB26"/>
<stop offset="0.891" stop-color="#A3CD39"/>
</linearGradient>
<linearGradient id="paint1_linear_1_12" x1="7.85109" y1="6.13553" x2="19.272" y2="1.6811" gradientUnits="userSpaceOnUse">
<stop offset="0.0592" stop-color="#0FA8E0"/>
<stop offset="0.5385" stop-color="#0099F9"/>
<stop offset="0.9234" stop-color="#0291EB"/>
</linearGradient>
<linearGradient id="paint2_linear_1_12" x1="18.8884" y1="35.3442" x2="32.5379" y2="32.1871" gradientUnits="userSpaceOnUse">
<stop offset="0.1226" stop-color="#A3CD39"/>
<stop offset="0.2846" stop-color="#86C339"/>
<stop offset="0.8693" stop-color="#21A038"/>
</linearGradient>
<linearGradient id="paint3_linear_1_12" x1="19.2232" y1="3.80029" x2="30.5578" y2="7.37964" gradientUnits="userSpaceOnUse">
<stop offset="0.0566" stop-color="#0291EB"/>
<stop offset="0.79" stop-color="#0C8ACB"/>
</linearGradient>
<linearGradient id="paint4_linear_1_12" x1="7.03668" y1="33.5074" x2="19.1976" y2="38.1579" gradientUnits="userSpaceOnUse">
<stop offset="0.1324" stop-color="#F2E913"/>
<stop offset="0.2977" stop-color="#EBE716"/>
<stop offset="0.5306" stop-color="#D9E01F"/>
<stop offset="0.8023" stop-color="#BBD62D"/>
<stop offset="0.9829" stop-color="#A3CD39"/>
</linearGradient>
<linearGradient id="paint5_linear_1_12" x1="4.35154" y1="20.5892" x2="9.10364" y2="7.93717" gradientUnits="userSpaceOnUse">
<stop offset="0.0698" stop-color="#A3CD39"/>
<stop offset="0.2599" stop-color="#81C55F"/>
<stop offset="0.9216" stop-color="#0FA8E0"/>
</linearGradient>
<clipPath id="clip0_1_12">
<rect width="250.305" height="40.6746" fill="white" transform="translate(0.847412 0.662598)"/>
</clipPath>
</defs>
</svg>
