<svg width="20" height="21" viewBox="0 0 20 21" fill="none" xmlns="http://www.w3.org/2000/svg">
<g clip-path="url(#clip0_1_186)">
<path d="M3.93415 11.2342C3.42331 12.2383 4.00331 12.7183 5.32665 13.5383C6.45165 14.2333 8.00581 14.4875 9.00415 14.5892C8.59498 14.9825 10.47 13.1792 5.06998 18.3733C3.92498 19.4708 5.76831 21.2317 6.91248 20.1575L10.01 17.17C11.1958 18.3108 12.3325 19.4042 13.1075 20.1617C14.2525 21.24 16.095 19.4942 14.9625 18.3775C14.8775 18.2967 10.765 14.3517 11.0158 14.5933C12.0266 14.4917 13.5575 14.2225 14.6691 13.5425L14.6683 13.5417C15.9916 12.7175 16.5716 12.2383 16.0683 11.2342C15.7641 10.6642 14.9441 10.1875 13.8525 11.0117C13.8525 11.0117 12.3783 12.1408 10.0008 12.1408C7.62248 12.1408 6.14915 11.0117 6.14915 11.0117C5.05831 10.1833 4.23498 10.6642 3.93415 11.2342Z" fill="#EFF2F5"/>
<path d="M9.99911 10.6183C12.8974 10.6183 15.2641 8.35333 15.2641 5.565C15.2641 2.765 12.8974 0.5 9.99911 0.5C7.09994 0.5 4.73328 2.765 4.73328 5.565C4.73328 8.35333 7.09994 10.6183 9.99911 10.6183ZM9.99911 3.06583C11.4233 3.06583 12.5849 4.18333 12.5849 5.565C12.5849 6.935 11.4233 8.0525 9.99911 8.0525C8.57494 8.0525 7.41328 6.935 7.41328 5.565C7.41244 4.1825 8.57411 3.06583 9.99911 3.06583Z" fill="#EFF2F5"/>
</g>
<defs>
<clipPath id="clip0_1_186">
<rect width="20" height="20" fill="white" transform="translate(0 0.5)"/>
</clipPath>
</defs>
</svg>
