<svg width="20" height="21" viewBox="0 0 20 21" fill="none" xmlns="http://www.w3.org/2000/svg">
<g clip-path="url(#clip0_1_183)">
<path d="M19.894 15.0999C19.8698 15.0477 19.8472 15.0044 19.8262 14.9697C19.4792 14.3448 18.8161 13.5777 17.8373 12.6682L17.8166 12.6474L17.8063 12.6372L17.7958 12.6267H17.7853C17.341 12.2032 17.0597 11.9185 16.9419 11.7727C16.7264 11.495 16.6781 11.2139 16.7959 10.9291C16.8791 10.7139 17.1918 10.2595 17.7331 9.56514C18.0178 9.19717 18.2433 8.90225 18.4099 8.68006C19.6109 7.0833 20.1317 6.06294 19.9719 5.6186L19.9099 5.51476C19.8682 5.45225 19.7606 5.39506 19.5872 5.3429C19.4135 5.29085 19.1914 5.28225 18.9206 5.31693L15.9217 5.33765C15.8731 5.32043 15.8037 5.32204 15.7133 5.3429C15.6231 5.36376 15.5779 5.37423 15.5779 5.37423L15.5257 5.40031L15.4843 5.43164C15.4496 5.45235 15.4114 5.48879 15.3697 5.54087C15.3282 5.59277 15.2936 5.65368 15.2658 5.72309C14.9393 6.56309 14.5681 7.34407 14.1515 8.06601C13.8946 8.4965 13.6587 8.86957 13.4433 9.18546C13.2281 9.50124 13.0476 9.7339 12.9019 9.88304C12.756 10.0323 12.6244 10.1519 12.5061 10.2423C12.3881 10.3326 12.298 10.3708 12.2355 10.3569C12.173 10.3429 12.1141 10.329 12.0583 10.3152C11.9612 10.2526 11.8831 10.1676 11.8242 10.06C11.765 9.95244 11.7252 9.81702 11.7044 9.65388C11.6836 9.49063 11.6714 9.35021 11.6679 9.23215C11.6646 9.11423 11.6661 8.94744 11.6732 8.73226C11.6804 8.51696 11.6836 8.37129 11.6836 8.29491C11.6836 8.03107 11.6888 7.74473 11.6991 7.4358C11.7096 7.12688 11.7181 6.88211 11.7252 6.70179C11.7323 6.52129 11.7356 6.33032 11.7356 6.12899C11.7356 5.92766 11.7233 5.76977 11.6991 5.65518C11.6752 5.54073 11.6385 5.42963 11.5901 5.32193C11.5414 5.21433 11.4701 5.1311 11.3766 5.07202C11.2829 5.01301 11.1664 4.96618 11.0278 4.93138C10.6598 4.84811 10.1912 4.80307 9.62185 4.79607C8.33069 4.78221 7.50105 4.86558 7.13311 5.04609C6.98733 5.12235 6.85541 5.22655 6.73746 5.35836C6.61247 5.51115 6.59504 5.59452 6.68527 5.60824C7.10186 5.67064 7.39677 5.81992 7.57035 6.05594L7.6329 6.181C7.68155 6.27124 7.73013 6.43099 7.77875 6.66003C7.8273 6.88908 7.85863 7.14245 7.87241 7.42001C7.90706 7.92687 7.90706 8.36075 7.87241 8.72168C7.83765 9.08276 7.80483 9.36385 7.7735 9.56518C7.74217 9.76651 7.69534 9.92965 7.6329 10.0546C7.57035 10.1795 7.52873 10.2559 7.50787 10.2836C7.48704 10.3113 7.46968 10.3288 7.4559 10.3357C7.36566 10.3702 7.27182 10.3879 7.17469 10.3879C7.07742 10.3879 6.95947 10.3392 6.82065 10.242C6.68188 10.1447 6.53785 10.0112 6.38856 9.84106C6.23928 9.67091 6.07092 9.43315 5.88342 9.12773C5.69606 8.82231 5.50166 8.46134 5.30033 8.04482L5.13376 7.74276C5.02963 7.54843 4.88739 7.26548 4.70689 6.89415C4.52628 6.52268 4.36664 6.16335 4.22786 5.81624C4.17238 5.67046 4.08904 5.55947 3.97799 5.4831L3.92587 5.45177C3.89122 5.42405 3.8356 5.39462 3.7593 5.36325C3.68289 5.33192 3.60316 5.30945 3.51978 5.29563L0.666572 5.31635C0.37501 5.31635 0.177184 5.3824 0.073018 5.51432L0.0313299 5.57673C0.0105041 5.61148 0 5.667 0 5.74341C0 5.81978 0.0208258 5.91351 0.0625139 6.0245C0.47903 7.00342 0.931982 7.94751 1.42137 8.85692C1.91076 9.76632 2.33603 10.4989 2.69692 11.0539C3.05789 11.6094 3.42583 12.1336 3.80073 12.6263C4.17563 13.1192 4.42379 13.4351 4.54521 13.5739C4.66677 13.7129 4.76225 13.8169 4.83166 13.8863L5.09204 14.1362C5.25865 14.3028 5.5033 14.5024 5.82612 14.7349C6.14901 14.9676 6.50648 15.1966 6.89871 15.4224C7.291 15.6478 7.74738 15.8318 8.2681 15.9741C8.78875 16.1165 9.2955 16.1737 9.78842 16.1461H10.986C11.2288 16.1251 11.4128 16.0488 11.5379 15.9169L11.5793 15.8647C11.6072 15.8233 11.6333 15.7589 11.6573 15.6723C11.6817 15.5856 11.6938 15.49 11.6938 15.386C11.6867 15.0875 11.7094 14.8185 11.7614 14.5791C11.8133 14.3397 11.8724 14.1591 11.9386 14.0376C12.0047 13.9161 12.0793 13.8136 12.1624 13.7306C12.2456 13.6473 12.3049 13.5969 12.3397 13.5795C12.3743 13.562 12.4019 13.5502 12.4227 13.5431C12.5893 13.4875 12.7854 13.5413 13.0112 13.7046C13.2369 13.8677 13.4486 14.0692 13.6465 14.3086C13.8444 14.5482 14.0821 14.817 14.3597 15.1155C14.6376 15.4141 14.8805 15.636 15.0886 15.782L15.2968 15.9069C15.4359 15.9903 15.6164 16.0667 15.8386 16.1361C16.0603 16.2055 16.2547 16.2228 16.4215 16.1882L19.0872 16.1466C19.3509 16.1466 19.556 16.1029 19.7015 16.0163C19.8474 15.9295 19.934 15.8339 19.9619 15.7299C19.9898 15.6259 19.9913 15.5078 19.9672 15.3757C19.9425 15.244 19.9182 15.1519 19.894 15.0999Z" fill="#EFF2F5"/>
</g>
<defs>
<clipPath id="clip0_1_183">
<rect width="20" height="20" fill="white" transform="translate(0 0.5)"/>
</clipPath>
</defs>
</svg>
