<svg width="65" height="64" viewBox="0 0 65 64" fill="none" xmlns="http://www.w3.org/2000/svg">
<path fill-rule="evenodd" clip-rule="evenodd" d="M49.3341 62.1095C46.8451 62.4538 43.9871 62.2564 40.8055 61.5061C34.2422 59.9581 26.7302 56.1548 19.6511 50.7963C12.5721 45.4378 6.871 39.2396 3.59938 33.343C-0.178802 26.5325 -0.439187 20.6373 2.84777 16.295L8.66732 8.60679C9.47209 7.54327 10.6466 6.85657 11.9721 6.67321C11.9723 6.67288 11.9721 6.67321 11.9735 6.67301C13.2989 6.48964 14.6161 6.83179 15.6792 7.6369L21.1865 11.806C22.2511 12.6109 22.937 13.7849 23.1205 15.1117C23.3041 16.438 22.9625 17.7543 22.1565 18.8177L17.1185 25.4731C16.3629 26.4726 17.1186 28.5589 19.1945 31.1964C21.2445 33.8019 24.4179 36.7847 28.1302 39.5946C31.8414 42.4044 35.5737 44.6493 38.6385 45.915C41.7404 47.1958 43.9537 47.3574 44.7092 46.3579L49.7474 39.7021C50.5535 38.6387 51.7268 37.9521 53.0536 37.7686C54.3792 37.5849 55.6964 37.9272 56.7594 38.7323L62.2681 42.9013C63.3313 43.7061 64.0171 44.8804 64.2006 46.2071C64.3844 47.5332 64.0426 48.8496 63.2381 49.9129L57.4174 57.6013C55.5113 60.1212 52.7756 61.6336 49.3341 62.1095Z" fill="#2A2A2A"/>
<path fill-rule="evenodd" clip-rule="evenodd" d="M61.8837 28.4216C60.761 28.5769 59.5523 28.0898 59.0016 26.712C56.8051 21.2155 53.1365 16.413 48.3937 12.8231C43.6521 9.23295 38.0332 7.00687 32.1475 6.38505C30.3554 6.19575 29.5632 4.71423 29.7082 3.34819C29.8516 1.98972 30.9333 0.713453 32.7255 0.902874C39.608 1.62902 46.1767 4.23134 51.721 8.42845C57.2655 12.6254 61.5539 18.2404 64.1206 24.6665C64.789 26.3398 63.8544 27.7286 62.5866 28.2354C62.3605 28.3254 62.1246 28.3884 61.8837 28.4216Z" fill="#2A2A2A"/>
<path fill-rule="evenodd" clip-rule="evenodd" d="M52.3462 32.4349C51.221 32.5906 50.0058 32.0992 49.4643 30.714C47.9695 26.8929 45.4412 23.5576 42.1537 21.0681C38.8648 18.5785 34.968 17.0511 30.8845 16.65C29.0974 16.4744 28.2978 15.0033 28.4317 13.6406C28.5661 12.2784 29.636 10.9914 31.4218 11.1662C36.5184 11.6647 41.3795 13.5693 45.4796 16.6737C49.5798 19.7774 52.7329 23.939 54.596 28.7077C55.2496 30.3795 54.3021 31.759 53.0274 32.2572C52.8079 32.3427 52.5789 32.4027 52.3462 32.4349Z" fill="#2A2A2A"/>
</svg>
