<svg width="55" height="46" viewBox="0 0 55 46" fill="none" xmlns="http://www.w3.org/2000/svg">
<g clip-path="url(#clip0_1_797)">
<path d="M10.2737 7.50647C10.2737 7.35008 10.2737 7.27189 10.5083 7.27189C10.6647 7.27189 10.8993 7.27189 11.1339 7.42827C11.3684 7.50647 11.603 7.66285 11.9158 7.89743C12.1504 8.13201 12.3067 8.36658 12.3849 8.67935C12.4631 8.83574 12.4631 8.99212 12.3849 9.2267C12.3849 9.46128 12.3067 9.69585 12.2286 9.93043C12.1504 10.165 12.0722 10.3996 11.994 10.7124C11.9158 10.9469 11.7594 11.2597 11.6812 11.4943C11.4466 12.1198 11.1339 12.7454 10.8211 13.3709C11.994 12.9799 12.9323 12.5108 13.7924 11.8852C14.5743 11.2597 15.1999 10.6342 15.7472 10.0086C16.2164 9.30489 16.5291 8.67935 16.6855 7.97562C16.8419 7.27189 16.8419 6.72454 16.6855 6.1772C16.5291 5.62985 16.2946 5.23889 15.9036 4.84793C15.5126 4.53516 15.1217 4.30058 14.5743 4.066C14.1052 3.90962 13.5578 3.83143 13.0105 3.75324C12.4631 3.75324 11.994 3.75324 11.5248 3.83143C10.6647 3.98781 9.80459 4.22239 8.94448 4.53516C8.08436 4.92612 7.30244 5.31708 6.59871 5.86443C5.89498 6.41177 5.26944 6.95912 4.6439 7.58466C4.09655 8.2102 3.6274 8.83574 3.23644 9.53947C2.84548 10.165 2.6109 10.8687 2.45452 11.4943C2.29813 12.1198 2.29813 12.7454 2.45452 13.3709C2.53271 13.6837 2.6109 13.9182 2.76729 14.0746C2.92367 14.231 3.00186 14.3874 3.15825 14.5438C3.31463 14.7002 3.39282 14.7784 3.54921 14.7784C3.78379 14.8565 3.94017 14.9347 4.09656 15.0129C4.25294 15.0911 4.33113 15.1693 4.33113 15.1693C4.33113 15.2475 4.33113 15.2475 4.09656 15.3257C3.70559 15.4039 3.39282 15.3257 3.00186 15.2475C2.6109 15.1693 2.21994 14.9347 1.82898 14.7002C1.51621 14.4656 1.12525 14.1528 0.812477 13.6837C0.499708 13.2145 0.265131 12.6672 0.108746 11.9634C-0.0476383 11.2597 -0.0476384 10.556 0.186939 9.85224C0.421516 9.14851 0.812477 8.52297 1.35982 7.97562C1.90717 7.35008 2.53271 6.80274 3.31463 6.33358C4.09656 5.78624 4.87848 5.31708 5.73859 4.92612C6.59871 4.53516 7.45883 4.1442 8.39713 3.90962C9.33544 3.59685 10.1956 3.44047 11.0557 3.28408C11.8376 3.20589 12.6977 3.1277 13.5578 3.1277C14.4179 3.1277 15.2781 3.28408 16.1382 3.51866C16.9201 3.75324 17.702 4.1442 18.3276 4.61335C18.9531 5.08251 19.3441 5.78624 19.5786 6.64635C19.735 7.11551 19.735 7.50647 19.735 7.97562C19.735 8.36658 19.5786 8.75754 19.5004 9.14851C19.3441 9.53947 19.1877 9.85224 18.9531 10.2432C18.7185 10.556 18.5621 10.8687 18.2494 11.1815C17.702 11.807 16.9983 12.4326 16.2164 12.9799L15.1999 13.6837C14.6525 14.0746 14.027 14.3092 13.4014 14.5438C12.7759 14.7784 12.1504 14.9347 11.603 15.0911C10.9775 15.2475 10.3519 15.4039 9.7264 15.4821C9.17906 16.4986 8.63171 17.5151 8.16256 18.3752C8.00617 18.7662 7.77159 19.1571 7.61521 19.5481C7.45883 19.939 7.30244 20.33 7.14606 20.6428C6.98967 20.9555 6.91148 21.2683 6.83329 21.5811C6.75509 21.8157 6.75509 22.0502 6.75509 22.2066C6.83329 22.5194 6.83329 22.754 6.83329 22.9104C6.83329 23.0667 6.75509 23.1449 6.52052 23.2231C6.36413 23.2231 6.28594 23.2231 6.12956 23.1449C5.97317 23.0667 5.81679 22.9104 5.73859 22.754C5.58221 22.5976 5.42582 22.2848 5.34763 22.0502C5.19125 21.7375 5.11306 21.4247 5.03486 20.9555C4.95667 20.4864 5.03486 19.8609 5.26944 19.0789C5.50402 18.297 5.81679 17.4369 6.20775 16.5768C6.59871 15.7167 7.06786 14.7784 7.53702 13.84C8.00617 12.9017 8.47533 12.0416 8.86629 11.1815C9.25725 10.3996 9.57002 9.61766 9.88279 9.07031C10.1956 8.2102 10.2737 7.74104 10.2737 7.50647Z" fill="white"/>
<path d="M25.7557 24.2396C25.8339 24.0832 25.9121 24.005 26.0685 24.0832C26.1467 24.0832 26.1467 24.1614 26.2249 24.2396C26.1467 24.4742 25.9903 24.787 25.8339 25.0215C25.6775 25.2561 25.443 25.4125 25.1302 25.5689C24.8174 25.7253 24.4265 25.8817 23.8791 25.9598C23.3318 26.038 22.7844 26.038 22.1589 25.8817C21.5333 25.7253 20.986 25.4907 20.3605 25.0997C19.8131 24.7088 19.2658 24.2396 18.8748 23.5359C18.4057 22.9103 18.1711 22.1284 18.0147 21.1901C17.9365 20.4864 17.8583 19.8608 17.9365 19.1571C18.0147 18.4534 18.1711 17.7496 18.3275 17.1241C18.4838 16.4986 18.7184 15.873 18.953 15.3257C19.1876 14.7783 19.344 14.3092 19.5785 13.9182C19.344 14.0746 18.953 14.231 18.4838 14.4656C18.0147 14.7001 17.5455 14.7783 16.92 14.8565C16.7636 14.8565 16.6072 14.8565 16.4508 14.8565C16.2945 14.8565 16.0599 14.7783 15.9035 14.622C15.7471 14.4656 15.5125 14.231 15.3562 13.9182C15.1998 13.6055 15.0434 13.2145 14.9652 12.6671C14.8088 11.9634 14.8088 11.2597 14.9652 10.556C15.1216 9.93042 15.3562 9.30488 15.6689 8.83573C15.9817 8.36657 16.2945 7.89742 16.6854 7.58465C17.0764 7.27188 17.4673 7.11549 17.7801 7.0373C18.1711 6.95911 18.4838 7.0373 18.7966 7.19369C19.1094 7.35007 19.2658 7.66284 19.344 8.0538C19.344 8.21019 19.344 8.44476 19.344 8.75753C19.344 8.99211 19.2658 9.30488 19.1876 9.61765C19.1094 9.93042 19.0312 10.2432 18.8748 10.556C18.7966 10.8687 18.6402 11.1815 18.4838 11.4161C18.1711 12.1198 17.8583 12.8235 17.4673 13.6055C17.9365 13.2927 18.3275 12.9799 18.7184 12.7453C19.0312 12.5108 19.344 12.2762 19.6567 12.1198C19.9695 11.8852 20.1259 11.7288 20.2823 11.6506C20.4387 11.5725 20.5168 11.4943 20.6732 11.3379C20.8296 11.2597 20.986 11.2597 21.1424 11.3379C21.2206 11.4161 21.377 11.4943 21.6115 11.6506C21.8461 11.807 22.0807 11.9634 22.2371 12.1198C22.4717 12.2762 22.5498 12.5108 22.628 12.7453C22.7062 12.9799 22.7062 13.2145 22.4717 13.5273C22.3153 13.84 22.0807 14.231 21.7679 14.8565C21.4552 15.4821 21.1424 16.1076 20.9078 16.8895C20.6732 17.6715 20.4387 18.4534 20.2823 19.3135C20.1259 20.1736 20.1259 21.0337 20.2823 21.8157C20.4387 22.5976 20.6732 23.3013 20.986 23.7705C21.2988 24.2396 21.6115 24.6306 22.0025 24.8652C22.3935 25.0997 22.7062 25.2561 23.0972 25.3343C23.4882 25.4125 23.8009 25.4125 24.1137 25.3343C24.7392 25.2561 25.1302 25.0997 25.3648 24.8652C25.5212 24.6306 25.6775 24.4742 25.7557 24.2396ZM16.3727 12.4326C16.3727 12.589 16.4508 12.7453 16.529 12.9017C16.6072 12.9799 16.6072 13.1363 16.6854 13.2145C16.7636 13.2927 16.8418 13.3709 16.92 13.4491C17.1546 12.9017 17.311 12.3544 17.5455 11.8852C17.7801 11.4161 17.9365 10.9469 18.0147 10.556C18.0929 10.165 18.1711 9.85222 18.2493 9.69584C18.2493 9.46126 18.1711 9.38307 18.0147 9.38307C17.8583 9.38307 17.6237 9.53946 17.4673 9.77403C17.2328 10.0086 17.0764 10.3214 16.92 10.6341C16.7636 10.9469 16.6072 11.2597 16.529 11.6506C16.3727 11.8852 16.3727 12.198 16.3727 12.4326Z" fill="white"/>
<path d="M29.7437 17.2805C29.5873 17.2805 29.4309 17.2805 29.3527 17.2805C29.1963 17.2805 29.1181 17.2023 29.0399 17.1241C28.9617 17.2023 28.8835 17.3587 28.8835 17.4369L28.8053 17.5151L28.7272 17.5933C28.7272 17.6715 28.649 17.6715 28.649 17.7497C28.258 18.297 27.7888 18.7662 27.3197 19.2353C26.8505 19.7045 26.3032 20.0172 25.7558 20.1736C25.7558 20.1736 25.7558 20.1736 25.6777 20.1736C25.5995 20.1736 25.5995 20.1736 25.5995 20.1736H25.3649C25.1303 20.1736 24.9739 20.1736 24.6612 20.1736C24.4266 20.1736 24.192 20.0954 23.8792 19.939C23.6447 19.7827 23.4101 19.6263 23.1755 19.3135C22.9409 19.0007 22.8627 18.6098 22.7063 18.1406C22.6282 17.5933 22.6282 16.9677 22.7063 16.4204C22.7845 15.7948 22.9409 15.2475 23.1755 14.7002C23.4101 14.1528 23.7228 13.6055 24.0356 13.0581C24.3484 12.5108 24.7393 12.1198 25.1303 11.6507C25.5213 11.2597 25.9122 10.9469 26.3032 10.6342C26.6942 10.3996 27.0851 10.2432 27.4761 10.165C28.0234 10.0868 28.5708 10.165 28.9617 10.3996C29.4309 10.6342 29.8219 10.9469 30.1346 11.3379C30.2128 11.4161 30.1346 11.4943 30.0564 11.5725C29.9782 11.7288 29.6655 11.807 29.1963 11.8852C28.649 11.9634 28.1016 12.198 27.6325 12.589C27.1633 12.9799 26.6942 13.5273 26.3032 14.0746C25.9122 14.622 25.5995 15.2475 25.3649 15.873C25.1303 16.4986 24.9739 17.0459 24.8175 17.5933C24.7393 18.1406 24.7393 18.5316 24.8175 18.8443C24.8957 19.1571 25.0521 19.3135 25.3649 19.3135C25.6777 19.2353 25.9904 19.0789 26.3032 18.8443C26.616 18.5316 26.9287 18.2188 27.2415 17.906C27.6325 17.5151 27.9452 17.1241 28.258 16.5768C28.1798 16.4986 28.1798 16.4204 28.1016 16.264C28.3362 16.3422 28.258 16.1858 28.258 16.0294C28.258 15.873 28.1798 15.7167 28.1798 15.5603C28.1016 15.1693 28.1798 14.8565 28.3362 14.5438C28.4926 14.231 28.7272 14.0746 28.8835 13.9182C29.1181 13.7618 29.3527 13.7618 29.5873 13.9182C29.8218 13.9964 29.9782 14.231 30.0564 14.622C30.0564 14.7783 30.0564 15.0129 29.9 15.3257C29.7437 15.6385 29.5873 16.0294 29.3527 16.4986C29.3527 16.4986 29.4309 16.5768 29.5091 16.5768C29.5873 16.5768 29.6655 16.5768 29.7437 16.5768C29.9782 16.5768 30.2128 16.4204 30.4474 16.1858C30.682 15.9512 30.8383 15.7167 31.0729 15.3257C31.3075 14.9347 31.5421 14.5438 31.7767 13.9964C32.0112 13.5273 32.324 12.9017 32.5586 12.2762C32.6368 12.198 32.715 12.1198 32.7932 12.0416C32.8713 11.9634 32.9495 11.9634 33.0277 12.0416C33.1059 12.0416 33.1841 12.1198 33.1841 12.198C33.1841 12.2762 33.1841 12.4326 33.1059 12.589C33.0277 12.6672 32.9495 12.9017 32.8714 13.1363C32.7932 13.3709 32.6368 13.6837 32.4804 13.9964C32.324 14.3092 32.1676 14.622 31.933 15.0129C31.6985 15.4039 31.5421 15.7167 31.3075 16.0294C31.0729 16.3422 30.8383 16.5768 30.6038 16.8113C30.291 17.1241 30.0564 17.2805 29.7437 17.2805Z" fill="white"/>
<path d="M40.0652 11.1815C40.1434 11.1033 40.2216 11.0251 40.2998 10.9469C40.378 10.8687 40.4562 10.8687 40.5344 10.9469C40.6126 10.9469 40.6908 11.0251 40.6908 11.1033C40.6908 11.1815 40.6908 11.3379 40.6126 11.4943C40.5344 11.6507 40.4562 11.807 40.2998 12.1198C40.1434 12.4326 39.9088 12.7453 39.6743 13.0581C39.3615 13.3709 38.9705 13.7618 38.5014 14.0746C38.0322 14.3874 37.4067 14.7002 36.7029 14.9347V15.0911C36.7811 15.7948 36.7811 16.4204 36.7029 16.8895C36.5466 17.3587 36.3902 17.7497 36.0774 18.0624C35.8428 18.3752 35.5301 18.6098 35.2173 18.688C34.9045 18.8443 34.5918 18.9225 34.3572 19.0007C34.2008 19.0007 34.0444 19.0007 33.8098 19.0007C33.5753 19.0007 33.3407 18.9225 33.1061 18.8443C32.8715 18.7662 32.6369 18.6098 32.4806 18.4534C32.246 18.297 32.1678 17.9842 32.0896 17.7497C32.0896 17.5151 32.0896 17.3587 32.0896 17.2023C32.1678 17.0459 32.246 16.8895 32.3242 16.655C32.4806 16.4986 32.5588 16.3422 32.7933 16.1858C32.9497 16.0294 33.1061 15.9512 33.3407 15.7948C33.7316 15.5603 34.279 15.3257 34.8263 15.0911C34.8263 14.622 34.8263 14.231 34.7481 13.7618C34.6699 13.3709 34.6699 12.9017 34.5918 12.4326C34.5136 11.9634 34.3572 11.4943 34.2008 11.0251V10.9469V10.7905C34.0444 11.1033 33.888 11.4943 33.7316 11.8852C33.5753 12.2762 33.3407 12.6672 33.1061 13.0581C33.0279 13.2145 32.9497 13.2927 32.8715 13.2927C32.7933 13.2927 32.7151 13.2927 32.6369 13.2927C32.5588 13.2927 32.5588 13.2145 32.4806 13.1363C32.4806 13.0581 32.4806 12.9017 32.5588 12.8235C32.7151 12.589 32.8715 12.2762 33.0279 11.8852C33.1843 11.5725 33.3407 11.1815 33.4971 10.7905C33.6534 10.3996 33.8098 10.0868 33.888 9.69585C34.0444 9.30489 34.0444 8.99212 34.1226 8.67935C34.1226 8.60116 34.1226 8.44477 34.2008 8.28839C34.2008 8.132 34.279 7.97562 34.279 7.81923C34.279 7.66285 34.3572 7.58466 34.4354 7.50646C34.5136 7.42827 34.5918 7.42827 34.6699 7.50646C34.8263 7.58466 34.9827 7.66285 35.2173 7.81923C35.4519 7.89742 35.6864 8.05381 35.921 8.21019C36.1556 8.36658 36.312 8.60116 36.5466 8.75754C36.7029 8.99212 36.8593 9.22669 36.8593 9.46127C36.9375 9.69585 36.8593 9.93042 36.8593 10.165C36.7811 10.3996 36.7029 10.6342 36.7029 10.9469C36.6248 11.2597 36.6248 11.7288 36.6248 12.2762C36.6248 12.8235 36.7029 13.6055 36.8593 14.5438C37.7194 14.231 38.4232 13.84 38.9705 13.3709C39.2833 12.6672 39.7524 11.9634 40.0652 11.1815ZM32.7933 17.5933C32.7933 17.8278 32.9497 17.906 33.1843 17.9842C33.4189 18.0624 33.6534 17.9842 33.888 17.8278C34.1226 17.6715 34.3572 17.4369 34.5918 17.0459C34.8263 16.655 34.9827 16.1858 34.9827 15.5603C34.5136 15.7167 34.1226 15.9512 33.8098 16.1858C33.4971 16.3422 33.2625 16.5768 33.0279 16.8113C32.7933 17.1241 32.7151 17.3587 32.7933 17.5933Z" fill="white"/>
<path d="M50.4646 5.39527C50.5428 5.55166 50.5428 5.70804 50.5428 5.78624C50.5428 5.86443 50.4646 5.94262 50.3864 5.94262C50.3082 6.02081 50.23 6.02081 50.0736 6.02081C50.0736 5.86443 49.9172 5.70804 49.7608 5.55166C49.6045 5.39527 49.2917 5.23889 48.9789 5.0825C48.6662 4.92612 48.2752 4.92612 47.806 4.84793C47.3369 4.76974 46.8677 4.76974 46.3204 4.84793C46.0858 4.84793 45.9294 4.92612 45.6948 4.92612C45.4603 4.92612 45.3039 5.00431 45.0693 5.00431C44.7565 5.78624 44.4438 6.56816 44.131 7.50647C43.74 8.36658 43.4273 9.30489 43.0363 10.165C42.6453 11.0251 42.3326 11.8852 42.0198 12.7454C41.707 13.5273 41.4725 14.3092 41.2379 14.9347C41.0815 15.5603 40.9251 16.0294 40.9251 16.4204C40.9251 16.8114 41.0033 16.9677 41.2379 16.8895C41.3943 16.8895 41.6288 16.655 42.0198 16.264C42.4108 15.873 42.8017 15.3257 43.2709 14.7002C43.74 14.0746 44.2092 13.3709 44.6783 12.6672C45.1475 11.8852 45.5385 11.1815 45.8512 10.4778C45.9294 10.3996 46.0076 10.3214 46.0858 10.2432C46.164 10.165 46.2422 10.165 46.3204 10.2432C46.3986 10.2432 46.4768 10.3214 46.4768 10.3996C46.4768 10.4778 46.4768 10.6342 46.3986 10.7905C46.3204 10.8687 46.2422 11.1815 46.0076 11.5725C45.773 11.9634 45.5385 12.4326 45.2257 12.9017C44.9129 13.4491 44.522 13.9964 44.131 14.5438C43.74 15.0911 43.3491 15.6385 42.9581 16.1858C42.5671 16.655 42.1762 17.1241 41.7852 17.4369C41.3943 17.7497 41.0815 17.9842 40.7687 17.9842C40.3778 18.0624 40.065 17.9842 39.8304 17.906C39.5958 17.8279 39.3613 17.6715 39.2049 17.4369C39.0485 17.2805 38.8921 17.0459 38.8139 16.7332C38.7357 16.4986 38.6575 16.264 38.6575 16.0294C38.6575 15.7949 38.6575 15.4821 38.7357 15.0911C38.8139 14.7002 38.9703 14.231 39.1267 13.6837C39.2831 13.1363 39.5176 12.589 39.7522 11.8852C39.9868 11.2597 40.2214 10.556 40.456 9.85224C40.6905 9.14851 41.0033 8.44477 41.2379 7.74104C41.5506 7.03731 41.7852 6.33358 42.0198 5.62985C41.707 5.70804 41.3161 5.78624 40.9251 5.86443C40.5341 5.94262 40.1432 5.94262 39.7522 6.02081C39.2049 6.099 38.7357 6.09901 38.3448 6.09901C37.9538 6.09901 37.641 6.02081 37.3283 5.86443C37.0155 5.78624 36.7809 5.62985 36.6245 5.47347C36.4681 5.31708 36.3118 5.1607 36.1554 4.92612C35.999 4.61335 35.9208 4.37877 36.0772 4.30058C36.1554 4.22239 36.3118 4.22239 36.5463 4.30058C36.8591 4.45697 37.3283 4.61335 37.7974 4.76974C38.3448 4.84793 38.8921 4.84793 39.5958 4.76974C40.2214 4.69154 40.7687 4.61335 41.2379 4.45697C41.9416 4.45697 42.3326 4.37877 42.6453 4.30058C42.9581 3.36227 43.2709 2.50216 43.4273 1.79843C43.5837 1.0947 43.6618 0.54735 43.6618 0.234581C43.6618 0.0781961 43.74 3.8147e-06 43.8964 3.8147e-06C44.131 3.8147e-06 44.3656 0.0781961 44.6002 0.156388C44.9129 0.312773 45.1475 0.469158 45.3821 0.781927C45.6167 1.0947 45.773 1.48566 45.8512 1.95481C45.8512 2.1112 45.8512 2.34577 45.773 2.65854C45.6948 2.97131 45.6167 3.36227 45.4603 3.75324L46.0076 3.67504C46.6331 3.59685 47.1805 3.59685 47.6497 3.67504C48.1188 3.75324 48.588 3.90962 48.9007 4.066C49.2917 4.22239 49.5263 4.45697 49.7608 4.69154C50.1518 4.92612 50.3864 5.1607 50.4646 5.39527Z" fill="white"/>
<path d="M51.8718 13.9964C51.7154 13.9964 51.5591 13.9964 51.4809 13.9964C51.3245 13.9964 51.2463 13.9182 51.1681 13.8401C51.0899 13.9182 51.0117 14.0746 51.0117 14.1528L50.9335 14.231L50.8553 14.3092C50.8553 14.3874 50.7771 14.3874 50.7771 14.4656C50.3862 15.0129 49.917 15.4821 49.4479 15.9512C48.9787 16.4204 48.4314 16.7332 47.884 16.8896C47.884 16.8896 47.884 16.8896 47.8058 16.8896C47.7276 16.8896 47.7276 16.8896 47.7276 16.8896H47.4931C47.2585 16.8896 47.1021 16.8896 46.7893 16.8896C46.5548 16.8896 46.3202 16.8114 46.0074 16.655C45.7728 16.4986 45.5383 16.3422 45.3037 16.0294C45.0691 15.7167 44.9909 15.3257 44.8345 14.8566C44.7563 14.3092 44.7563 13.6837 44.8345 13.1363C44.9127 12.5108 45.0691 11.9634 45.3037 11.4161C45.5383 10.8687 45.851 10.3214 46.1638 9.77405C46.4766 9.22671 46.8675 8.83575 47.2585 8.36659C47.6494 7.97563 48.0404 7.66286 48.4314 7.35009C48.8223 7.11551 49.2133 6.95913 49.6043 6.88094C50.1516 6.80275 50.6989 6.88094 51.0899 7.11552C51.5591 7.35009 51.95 7.66286 52.2628 8.05382C52.341 8.13202 52.2628 8.21021 52.1846 8.2884C52.1064 8.44478 51.7936 8.52298 51.3245 8.60117C50.7771 8.67936 50.2298 8.91394 49.7606 9.3049C49.2915 9.69586 48.8223 10.2432 48.4314 10.7906C48.0404 11.3379 47.7276 11.9634 47.4931 12.589C47.2585 13.2145 47.1021 13.7619 46.9457 14.3092C46.8675 14.8566 46.8675 15.2475 46.9457 15.5603C47.0239 15.8731 47.1803 16.0294 47.4931 16.0294C47.8058 15.9512 48.1186 15.7949 48.4314 15.5603C48.7441 15.2475 49.0569 14.9347 49.3697 14.622C49.7606 14.231 50.0734 13.8401 50.3862 13.2927C50.308 13.2145 50.308 13.1363 50.2298 12.9799C50.1516 12.9017 50.1516 12.7454 50.0734 12.6672C50.0734 12.5108 49.9952 12.3544 49.9952 12.198C49.917 11.8071 49.9952 11.4943 50.1516 11.1815C50.308 10.8687 50.5426 10.7124 50.6989 10.556C50.9335 10.3996 51.1681 10.3996 51.4027 10.556C51.6373 10.6342 51.7936 10.8687 51.8718 11.2597C51.8718 11.4161 51.8718 11.6507 51.7154 11.9634C51.5591 12.2762 51.4027 12.6672 51.1681 13.1363C51.1681 13.1363 51.2463 13.2145 51.3245 13.2145C51.4027 13.2145 51.4809 13.2145 51.5591 13.2145C51.7936 13.2145 52.0282 13.0581 52.2628 12.8236C52.4974 12.589 52.6538 12.3544 52.8883 11.9634C53.1229 11.5725 53.3575 11.1815 53.5921 10.6342C53.8266 10.165 54.1394 9.53948 54.374 8.91394C54.4522 8.83575 54.5304 8.75755 54.6086 8.67936C54.6868 8.60117 54.7649 8.60117 54.8431 8.67936C54.9213 8.67936 54.9995 8.75755 54.9995 8.83575C54.9995 8.91394 54.9995 9.07032 54.9213 9.22671C54.8431 9.3049 54.7649 9.53948 54.6868 9.77405C54.6086 10.0086 54.4522 10.3214 54.2958 10.6342C54.1394 10.9469 53.983 11.2597 53.7484 11.6507C53.5139 12.0416 53.3575 12.3544 53.1229 12.6672C52.8883 12.9799 52.6538 13.2145 52.4192 13.4491C52.4192 13.8401 52.1846 13.9964 51.8718 13.9964Z" fill="white"/>
<path d="M24.8175 36.4376C24.8957 36.2812 24.9739 36.203 25.0521 36.203C25.1303 36.1249 25.2867 36.1249 25.3649 36.203C25.4431 36.203 25.5213 36.2812 25.5213 36.4376C25.5213 36.5158 25.5213 36.6722 25.4431 36.9068C25.0521 38.3142 24.3484 39.6435 23.4883 40.8946C23.0973 41.4419 22.6281 41.9111 22.159 42.4584C21.6116 43.0058 21.0643 43.4749 20.3606 43.8659C19.6568 44.2569 18.8749 44.5696 18.0148 44.9606C17.1547 45.2734 16.2164 45.5079 15.1217 45.6643C14.418 45.7425 13.636 45.7425 13.0105 45.5861C12.3068 45.4297 11.6812 45.117 11.2121 44.726C10.6647 44.2569 10.2738 43.7095 9.8828 43.0058C9.57003 42.302 9.33545 41.3637 9.33545 40.269C9.33545 39.1744 9.49183 38.0015 9.96099 36.594C10.0392 36.3594 10.1174 36.0467 10.2738 35.7339C10.4301 35.4211 10.5083 35.1084 10.5865 34.8738C10.7429 34.4046 10.9775 34.0137 11.2121 33.5445C11.4466 33.0754 11.7594 32.528 12.0722 32.0589C12.3849 31.5897 12.6977 31.0424 13.0887 30.5732C13.4796 30.104 13.7924 29.6349 14.1834 29.1657C14.5743 28.6966 14.9653 28.3056 15.3563 27.9929C16.2164 27.2109 16.9983 26.5854 17.7802 26.1944C18.5621 25.8035 19.3441 25.4907 20.0478 25.4125C20.6733 25.3343 21.2207 25.3343 21.6898 25.4907C22.159 25.6471 22.4718 25.8817 22.7845 26.1944C22.8627 25.8817 22.8627 25.6471 22.9409 25.2561C22.9409 24.9434 23.0191 24.6306 23.0191 24.3178C22.7845 24.0832 22.55 23.8487 22.4718 23.6141C22.3936 23.3795 22.3154 23.2231 22.3154 23.1449C22.3154 22.9885 22.3154 22.8322 22.3936 22.6758C22.4718 22.5194 22.6281 22.4412 22.7845 22.4412H22.8627C23.0191 22.4412 23.1755 22.4412 23.4101 22.5194C23.6446 22.5976 23.8792 22.754 24.1138 22.9104C24.3484 23.0667 24.583 23.3013 24.8175 23.6141C25.0521 23.8487 25.2085 24.1614 25.3649 24.4742C25.3649 24.5524 25.4431 24.6306 25.4431 24.7088C25.4431 24.787 25.4431 24.8652 25.5213 25.0215C25.5213 25.1779 25.5213 25.2561 25.5995 25.4125C25.5995 25.8035 25.5995 26.1162 25.5213 26.5072C25.4431 26.8982 25.3649 27.2109 25.2867 27.5237C25.2085 27.8365 25.0521 28.2274 24.9739 28.5402C24.8175 28.853 24.7393 29.2439 24.6611 29.5567C24.583 29.9477 24.583 30.2604 24.6611 30.495C24.7393 30.7296 24.8175 30.9642 24.8957 31.1987C24.9739 31.3551 25.0521 31.5115 25.0521 31.6679C25.0521 31.7461 24.8957 31.8243 24.6611 31.9025C24.5048 31.9025 24.3484 31.8243 24.1138 31.6679C23.9574 31.5115 23.7228 31.2769 23.5665 31.1205C23.4101 30.886 23.1755 30.5732 22.9409 30.2604C22.8627 30.104 22.7845 30.0259 22.7063 29.8695C22.6281 29.7131 22.55 29.6349 22.55 29.4785C22.4718 29.3221 22.4718 29.1657 22.3936 29.0094C22.3936 28.9312 22.3936 28.853 22.3936 28.7748C22.3936 28.6966 22.3936 28.6184 22.3936 28.5402C22.3154 28.3056 22.159 28.1492 21.9244 27.9929C21.6898 27.9147 21.4553 27.8365 21.2207 27.9147C20.7515 27.9929 20.2824 28.1492 19.735 28.5402C19.1877 28.853 18.484 29.4003 17.702 30.0259C17.4675 30.1822 17.2329 30.4168 16.9201 30.7296C16.6073 31.0424 16.2946 31.4333 15.9036 31.8243C15.2781 32.528 14.8089 33.2317 14.4179 33.9355C14.3398 34.0919 14.2616 34.2482 14.1834 34.3264C14.1052 34.4828 14.027 34.6392 13.9488 34.7174C13.9488 34.7956 13.8706 34.8738 13.8706 34.952C13.7924 35.0302 13.7924 35.1865 13.7142 35.2647C13.636 35.4211 13.636 35.4993 13.5578 35.5775C13.4796 35.6557 13.4796 35.8121 13.4015 35.8903C13.2451 36.2812 13.0105 36.7504 12.8541 37.2195C12.6977 37.6887 12.5413 38.1579 12.385 38.627C12.2286 39.0962 12.1504 39.5653 12.0722 40.0345C11.994 40.5036 11.9158 40.9728 11.9158 41.3637V41.7547C11.9158 42.3802 12.0722 42.8494 12.2286 43.3186C12.385 43.7095 12.6195 44.0223 12.9323 44.2569C13.2451 44.4914 13.5578 44.6478 13.8706 44.726C14.2616 44.8042 14.6525 44.8042 15.0435 44.726C16.06 44.5696 16.9201 44.335 17.702 44.0223C18.484 43.7095 19.1877 43.3186 19.8914 42.9276C20.517 42.5366 21.1425 42.0675 21.6116 41.5983C22.0808 41.1292 22.55 40.66 22.9409 40.1127C23.7228 39.0962 24.3484 37.8451 24.8175 36.4376Z" fill="white"/>
<path d="M28.4146 32.919C28.7273 32.8408 28.9619 32.919 29.2747 33.0754C29.5874 33.2317 29.7438 33.4663 29.9784 33.7009C30.1348 33.9355 30.2912 34.1701 30.3694 34.3264C30.4476 34.561 30.4476 34.6392 30.2912 34.6392C29.9002 34.7174 29.5093 34.952 29.0401 35.3429C28.5709 35.7339 28.1018 36.2031 27.6326 36.7504C27.1635 37.2977 26.7725 37.9233 26.3816 38.5488C25.9906 39.1744 25.6778 39.7217 25.4433 40.2691C25.2087 40.8164 25.0523 41.2074 24.9741 41.5201C24.8959 41.8329 25.0523 41.9893 25.2869 41.9893C25.3651 41.9893 25.5214 41.8329 25.756 41.5983C25.9906 41.3637 26.2252 41.051 26.5379 40.66C26.8507 40.2691 27.0853 39.8781 27.3981 39.4089C27.7108 38.9398 27.9454 38.5488 28.18 38.1579C28.4146 37.7669 28.5709 37.4541 28.7273 37.1414C28.8837 36.8286 28.8837 36.6722 28.8837 36.6722C28.8055 36.594 28.8837 36.5158 28.9619 36.5158C29.1183 36.5158 29.2747 36.5158 29.5093 36.594C29.7438 36.6722 29.9002 36.8286 30.1348 36.985C30.3694 37.1414 30.4476 37.4541 30.5258 37.7669C30.604 38.0797 30.5258 38.4706 30.4476 38.9398C30.3694 39.3307 30.213 39.7217 30.0566 40.1127C29.9002 40.5036 29.822 40.7382 29.7438 40.9728C29.6656 41.2074 29.7438 41.2856 29.9002 41.2856C30.0566 41.2856 30.2912 41.051 30.6821 40.66C30.9949 40.2691 31.3859 39.7217 31.855 39.0962C32.246 38.4706 32.7151 37.7669 33.1843 37.0632C33.6534 36.3594 34.0444 35.5775 34.3572 34.8738C34.4354 34.7956 34.5136 34.7174 34.5918 34.6392C34.6699 34.561 34.7481 34.561 34.8263 34.6392C34.9045 34.6392 34.9827 34.7174 34.9827 34.7956C34.9827 34.8738 34.9827 35.0302 34.9045 35.1866C34.8263 35.2647 34.7481 35.5775 34.5136 35.9685C34.279 36.3594 34.0444 36.8286 33.8098 37.2977C33.4971 37.8451 33.1843 38.3924 32.7933 38.9398C32.4024 39.4871 32.0896 40.0345 31.6986 40.5818C31.3077 41.051 30.9167 41.5201 30.6039 41.8329C30.213 42.1457 29.9002 42.3802 29.5874 42.3802C29.3529 42.3802 29.1965 42.3802 28.9619 42.3021C28.7273 42.2239 28.5709 42.0675 28.3364 41.9111C28.18 41.7547 28.0236 41.5983 27.8672 41.4419C27.5544 41.2856 27.4763 41.1292 27.4763 41.051C27.4763 40.9728 27.4763 40.8164 27.4763 40.66C27.4763 40.5036 27.4763 40.4254 27.5544 40.2691C27.5544 40.1127 27.6326 39.9563 27.6326 39.7999C27.2417 40.3472 26.8507 40.8946 26.5379 41.3637C26.2252 41.7547 25.9124 42.1457 25.5996 42.4584C25.2869 42.7712 25.0523 43.0058 24.8959 43.0058C24.7395 43.0058 24.5049 43.0058 24.2704 42.9276C24.0358 42.8494 23.8012 42.7712 23.5666 42.5366C23.3321 42.3802 23.1757 42.1457 22.9411 41.9111C22.7847 41.6765 22.6283 41.3637 22.6283 41.051C22.5501 40.66 22.6283 40.2691 22.7847 39.7217C22.9411 39.1744 23.1757 38.627 23.4884 38.0015C23.8012 37.3759 24.1922 36.8286 24.5831 36.2031C24.9741 35.5775 25.4433 35.0302 25.9124 34.561C26.3816 34.0919 26.7725 33.6227 27.2417 33.3099C27.6326 33.1536 28.0236 32.9972 28.4146 32.919Z" fill="white"/>
<path d="M41.7073 33.7009C41.7855 33.6227 41.8637 33.5445 41.9419 33.4663C42.0201 33.3881 42.0983 33.3881 42.1765 33.4663C42.2547 33.4663 42.3328 33.5445 42.3328 33.6227C42.3328 33.7009 42.3328 33.8573 42.2547 34.0137C42.1765 34.1701 42.0983 34.3264 41.9419 34.6392C41.7855 34.952 41.5509 35.1866 41.3163 35.5775C41.0036 35.8903 40.6126 36.2812 40.1435 36.594C39.6743 36.9068 39.0488 37.2196 38.345 37.4541V37.6105C38.4232 38.3142 38.4232 38.9398 38.345 39.4089C38.1887 39.8781 38.0323 40.2691 37.7195 40.5818C37.4849 40.8946 37.1722 41.1292 36.8594 41.2074C36.5466 41.3637 36.2338 41.4419 35.9993 41.5201C35.8429 41.5201 35.6865 41.5201 35.4519 41.5201C35.2173 41.5201 34.9828 41.4419 34.7482 41.3637C34.5136 41.2856 34.279 41.1292 34.1227 40.9728C33.8881 40.8164 33.8099 40.5036 33.7317 40.2691C33.7317 40.0345 33.7317 39.8781 33.7317 39.7217C33.8099 39.5653 33.8881 39.4089 33.9663 39.1744C34.1227 39.018 34.2008 38.8616 34.4354 38.7052C34.5918 38.5488 34.7482 38.4706 34.9828 38.3142C35.3737 38.0797 35.9211 37.8451 36.4684 37.6105C36.4684 37.1414 36.4684 36.7504 36.3902 36.2812C36.312 35.8903 36.312 35.4211 36.2338 34.952C36.1557 34.4828 35.9993 34.0137 35.8429 33.5445V33.4663V33.3099C35.6865 33.6227 35.5301 34.0137 35.3737 34.4046C35.2173 34.7956 34.9828 35.1866 34.7482 35.5775C34.67 35.7339 34.5918 35.8121 34.5136 35.8121C34.4354 35.8121 34.3572 35.8121 34.279 35.8121C34.2008 35.8121 34.2008 35.7339 34.1227 35.6557C34.1227 35.5775 34.1226 35.4211 34.2008 35.3429C34.3572 35.1084 34.5136 34.7956 34.67 34.4046C34.8264 34.0919 34.9828 33.7009 35.1392 33.3099C35.2955 32.919 35.4519 32.6062 35.5301 32.2152C35.6865 31.8243 35.6865 31.5115 35.7647 31.1987C35.7647 31.1206 35.7647 30.9642 35.8429 30.8078C35.8429 30.6514 35.9211 30.495 35.9211 30.3386C35.9211 30.1822 35.9993 30.1041 36.0775 30.0259C36.1557 29.9477 36.2338 29.9477 36.312 30.0259C36.4684 30.1041 36.6248 30.1822 36.8594 30.3386C37.094 30.4168 37.3285 30.5732 37.5631 30.7296C37.7977 30.886 37.9541 31.1206 38.1887 31.2769C38.345 31.5115 38.5014 31.7461 38.5014 31.9807C38.5796 32.2152 38.5014 32.4498 38.5014 32.6844C38.4232 32.919 38.345 33.1536 38.345 33.4663C38.2668 33.7791 38.2668 34.2482 38.2668 34.7956C38.2668 35.3429 38.345 36.1249 38.5014 37.0632C39.3615 36.7504 40.0653 36.3594 40.6126 35.8903C40.9254 35.1866 41.3945 34.561 41.7073 33.7009ZM34.4354 40.1127C34.4354 40.3472 34.5918 40.4254 34.8264 40.5036C35.061 40.5818 35.2955 40.5036 35.5301 40.3472C35.7647 40.1909 35.9993 39.9563 36.2338 39.5653C36.4684 39.1744 36.6248 38.7052 36.6248 38.0797C36.1557 38.2361 35.7647 38.4706 35.4519 38.7052C35.1392 38.8616 34.9046 39.0962 34.67 39.3307C34.4354 39.6435 34.3572 39.8781 34.4354 40.1127Z" fill="white"/>
<path d="M47.2588 39.7999C46.9461 39.8781 46.6333 39.7999 46.3987 39.6435C46.1641 39.4871 45.9296 39.3307 45.695 39.0962C45.5386 38.8616 45.3822 38.5488 45.2258 38.3142C45.0694 38.0015 44.9912 37.6887 44.9912 37.4541C44.9912 37.2977 44.9912 37.1414 44.9912 36.9068C45.0694 36.6722 45.0694 36.4376 45.2258 36.1249C45.304 35.8121 45.4604 35.5775 45.5386 35.2647C45.6168 34.952 45.7732 34.6392 45.9295 34.3264C46.2423 33.6227 46.5551 32.8408 47.0242 31.9807C46.0077 33.2317 45.0694 34.4046 44.2875 35.4993C43.9747 35.9685 43.5838 36.4376 43.271 36.9068C42.9582 37.3759 42.6455 37.8451 42.4109 38.3142C42.1763 38.7834 42.0199 39.1744 41.8635 39.4871C41.7072 39.8781 41.7072 40.1127 41.7072 40.3472C41.7072 40.5036 41.629 40.66 41.4726 40.66C41.3162 40.66 41.0816 40.66 40.847 40.5818C40.6125 40.5036 40.3779 40.3472 40.1433 40.1127C39.9087 39.8781 39.7524 39.6435 39.7524 39.3307C39.6742 39.0962 39.7524 38.7052 39.9087 38.2361C40.0651 37.7669 40.2215 37.1414 40.4561 36.5158C40.6907 35.8903 41.0034 35.1084 41.3162 34.4046C41.629 33.6227 42.0199 32.8408 42.3327 32.0589C42.7237 31.2769 43.0364 30.495 43.3492 29.7131C43.662 28.9312 43.9747 28.2274 44.2093 27.5237C44.4439 26.82 44.6785 26.2726 44.7567 25.7253C44.913 25.1779 44.913 24.8652 44.913 24.5524C44.913 24.4742 44.9912 24.396 45.1476 24.4742C45.304 24.4742 45.5386 24.5524 45.7732 24.7088C46.0077 24.8652 46.2423 25.0216 46.3987 25.3343C46.6333 25.5689 46.7115 25.9599 46.7897 26.3508C46.7897 26.5854 46.7897 26.82 46.7115 27.2109C46.6333 27.6019 46.4769 27.9929 46.3205 28.462C46.1641 28.9312 45.9295 29.4003 45.7732 29.9477C45.5386 30.495 45.304 30.9642 45.0694 31.5115C44.5221 32.6844 43.8965 34.0137 43.1928 35.4211C43.9747 34.4828 44.6785 33.6227 45.304 32.919C45.5386 32.6062 45.8514 32.2934 46.0859 31.9807C46.3205 31.6679 46.6333 31.4333 46.8679 31.1206C47.1024 30.886 47.337 30.6514 47.4934 30.495C47.6498 30.3386 47.8062 30.2604 47.9625 30.2604C48.1971 30.2604 48.3535 30.2604 48.5099 30.3386C48.6663 30.4168 48.8227 30.5732 48.9009 30.7296C49.0572 30.886 49.1354 31.1206 49.2136 31.3551C49.2918 31.5897 49.37 31.8243 49.37 32.0589C49.37 32.2152 49.2918 32.528 49.1354 32.919C48.979 33.3099 48.7445 33.7791 48.5099 34.3264C48.2753 34.8738 48.0407 35.4211 47.8062 35.9685C47.5716 36.5158 47.337 37.0632 47.2588 37.4541C47.1024 37.9233 47.0242 38.2361 47.1024 38.5488C47.1024 38.8616 47.2588 38.9398 47.6498 38.8616C47.8062 38.8616 48.0407 38.627 48.4317 38.2361C48.8227 37.8451 49.2136 37.2977 49.6046 36.6722C50.0737 36.0467 50.4647 35.3429 50.9339 34.6392C51.403 33.8573 51.794 33.1536 52.1067 32.4498C52.1849 32.3716 52.2631 32.2934 52.3413 32.2152C52.4195 32.1371 52.4977 32.1371 52.5759 32.2152C52.6541 32.2152 52.7323 32.2934 52.7323 32.3716C52.7323 32.4498 52.7323 32.6062 52.6541 32.7626C52.5759 32.8408 52.4977 33.1536 52.2631 33.5445C52.0285 33.9355 51.794 34.4046 51.4812 34.8738C51.1684 35.4211 50.8557 35.9685 50.4647 36.5158C50.0737 37.0632 49.6828 37.6105 49.2918 38.1579C48.9009 38.627 48.5099 39.0962 48.1189 39.4089C47.8844 39.5653 47.4934 39.7999 47.2588 39.7999Z" fill="white"/>
<path d="M31.3857 20.721C31.3857 20.6428 31.4639 20.5646 31.6985 20.4864C31.933 20.4082 32.1676 20.4864 32.4804 20.5646C32.7932 20.6428 33.1059 20.7992 33.3405 21.0337C33.6533 21.2683 33.8097 21.5811 33.8879 22.0502C33.966 22.363 33.8879 22.6758 33.7315 23.1449C33.5751 23.6141 33.4187 24.0832 33.1841 24.5524C32.9495 25.0216 32.715 25.5689 32.4804 26.0381C32.2458 26.5072 32.0112 26.9764 31.8549 27.3673C31.6985 27.7583 31.5421 28.0711 31.5421 28.3056C31.4639 28.5402 31.5421 28.6184 31.6985 28.6184C31.8549 28.6184 32.1676 28.3838 32.4804 27.9929C32.8714 27.6019 33.2623 27.1327 33.6533 26.5072C34.1224 25.8817 34.5134 25.2561 34.9825 24.4742C35.4517 23.6923 35.8427 22.9886 36.1554 22.2066C36.4682 21.4247 36.781 20.721 36.9374 20.0954C37.0937 19.3917 37.1719 18.8444 37.0937 18.3752C37.0155 17.9061 36.8592 17.4369 36.5464 17.2023C36.3118 16.8896 35.999 16.655 35.7645 16.4986C35.4517 16.3422 35.1389 16.1858 34.748 16.1076C34.748 16.1076 34.748 16.1858 34.6698 16.1858C34.5916 16.1858 34.5134 16.264 34.357 16.264C34.2006 16.264 34.0442 16.264 33.966 16.264C33.8879 16.1858 33.8097 16.1858 33.8097 16.1076C33.8097 16.0294 33.8097 15.9512 33.966 15.8731C34.0442 15.7949 34.2006 15.7167 34.4352 15.7167C34.6698 15.7167 34.9825 15.7167 35.5299 15.7949C35.999 15.8731 36.5464 16.0294 37.0937 16.3422C37.6411 16.5768 38.1102 16.9677 38.5794 17.4369C39.0485 17.9061 39.2831 18.5316 39.4395 19.2353C39.5177 19.7045 39.4395 20.33 39.1267 20.9556C38.814 21.5811 38.423 22.2848 37.9539 22.9886C37.4847 23.6923 36.9374 24.396 36.3118 25.0997C35.6863 25.8035 35.1389 26.429 34.5916 27.0546C34.0442 27.6019 33.5751 28.1492 33.1841 28.5402C32.7932 28.9312 32.5586 29.1657 32.4804 29.3221C32.4022 29.4785 32.2458 29.6349 32.0894 29.7913C31.933 29.9477 31.7767 30.0259 31.4639 30.1041C31.1511 30.1822 30.9165 30.1041 30.682 29.9477C30.4474 29.7913 30.2128 29.6349 30.0564 29.4003C29.9 29.1657 29.7437 28.9312 29.5873 28.6184C29.5091 28.3056 29.3527 28.0711 29.3527 27.8365C29.2745 27.6019 29.3527 27.2891 29.4309 26.9764C29.5091 26.6636 29.6655 26.2726 29.7437 25.8035C29.9 25.4125 30.0564 24.9434 30.2128 24.4742C30.3692 24.0051 30.5256 23.5359 30.682 23.1449C30.8384 22.6758 30.9165 22.2848 30.9947 21.8157C31.4639 21.5029 31.4639 21.1119 31.3857 20.721Z" fill="white"/>
</g>
<defs>
<clipPath id="clip0_1_797">
<rect width="55" height="45.7157" fill="white"/>
</clipPath>
</defs>
</svg>
