<svg width="300" height="301" viewBox="0 0 300 301" fill="none" xmlns="http://www.w3.org/2000/svg">
<g clip-path="url(#clip0_0_121)">
<g clip-path="url(#clip1_0_121)">
<mask id="mask0_0_121" style="mask-type:luminance" maskUnits="userSpaceOnUse" x="0" y="0" width="300" height="301">
<path d="M300 0.980003H0V300.98H300V0.980003Z" fill="white"/>
</mask>
<g mask="url(#mask0_0_121)">
<path d="M300 0.980003H0V300.98H300V0.980003Z" fill="#006E91"/>
<path d="M346.514 104.59C330.705 119.336 314.968 134.142 285.258 133.367C290.48 139.223 295.75 145.053 301.043 150.98C330.754 151.826 346.442 137.046 362.251 122.229C378.058 107.483 393.962 92.7107 423.673 93.4869C418.45 87.6307 413.18 81.8002 407.887 75.8734C407.111 75.8734 406.217 75.8734 405.44 75.8734C377.282 75.8734 361.898 90.1963 346.514 104.59Z" fill="url(#paint0_linear_0_121)"/>
<path d="M317.268 72.0213C301.461 86.7674 285.724 101.574 256.013 100.798C261.235 106.654 266.505 112.485 271.798 118.411C301.509 119.258 317.198 104.477 333.006 89.6602C348.814 74.914 364.717 60.1422 394.428 60.9183C389.205 55.0622 383.935 49.2317 378.642 43.3049C377.866 43.3049 376.971 43.3049 376.195 43.3049C348.038 43.3049 332.653 57.6278 317.268 72.0213Z" fill="url(#paint1_linear_0_121)"/>
<path d="M288.024 39.4531C272.216 54.1994 256.479 69.006 226.768 68.2298C231.991 74.086 237.261 79.9165 242.554 85.8433C272.265 86.6899 287.953 71.909 303.762 57.0922C319.569 42.346 335.473 27.5742 365.184 28.3503C359.961 22.4942 354.691 16.6636 349.398 10.7369C348.621 10.7369 347.727 10.7369 346.951 10.7369C318.793 10.7369 303.408 25.0598 288.024 39.4531Z" fill="url(#paint2_linear_0_121)"/>
<path d="M258.779 6.88468C242.971 21.6309 227.233 36.4374 197.524 35.6613C202.745 41.5174 208.016 47.348 213.309 53.2748C243.019 54.1214 258.708 39.3405 274.517 24.5237C290.324 9.77747 306.228 -4.99429 335.939 -4.21817C330.716 -10.0743 325.445 -15.9049 320.153 -21.8316C319.376 -21.8316 318.482 -21.8316 317.706 -21.8316C289.548 -21.8316 274.163 -7.50874 258.779 6.88468Z" fill="url(#paint3_linear_0_121)"/>
<path d="M229.534 -25.6834C213.726 -10.9372 197.988 3.86937 168.279 3.09326C173.5 8.9494 178.771 14.78 184.064 20.7067C213.774 21.5534 229.463 6.77237 245.271 -8.04439C261.079 -22.7906 276.983 -37.5623 306.693 -36.7862C301.471 -42.6423 296.2 -48.473 290.907 -54.3996C290.131 -54.3996 289.237 -54.3996 288.461 -54.3996C260.303 -54.3996 244.919 -40.0767 229.534 -25.6834Z" fill="url(#paint4_linear_0_121)"/>
<path d="M356.151 309.305C340.343 324.051 324.606 338.857 294.895 338.082C300.118 343.938 305.388 349.768 310.681 355.695C340.392 356.541 356.08 341.761 371.889 326.944C387.696 312.197 403.6 297.426 433.31 298.202C428.088 292.345 422.818 286.515 417.525 280.588C416.749 280.588 415.854 280.588 415.078 280.588C386.92 280.588 371.535 294.911 356.151 309.305Z" fill="url(#paint5_linear_0_121)"/>
<path d="M326.906 276.736C311.098 291.482 295.361 306.289 265.65 305.513C270.873 311.369 276.143 317.199 281.436 323.126C311.147 323.973 326.835 309.192 342.644 294.375C358.451 279.629 374.355 264.857 404.065 265.634C398.843 259.778 393.573 253.947 388.28 248.02C387.504 248.02 386.609 248.02 385.833 248.02C357.675 248.02 342.29 262.343 326.906 276.736Z" fill="url(#paint6_linear_0_121)"/>
<path d="M297.661 244.168C281.854 258.914 266.116 273.721 236.406 272.945C241.628 278.8 246.899 284.631 252.192 290.558C281.902 291.404 297.591 276.624 313.399 261.807C329.207 247.061 345.11 232.289 374.821 233.065C369.599 227.209 364.328 221.379 359.035 215.452C358.258 215.452 357.364 215.452 356.588 215.452C328.431 215.452 313.046 229.775 297.661 244.168Z" fill="url(#paint7_linear_0_121)"/>
<path d="M268.416 211.599C252.609 226.346 236.871 241.152 207.161 240.376C212.383 246.233 217.654 252.063 222.947 257.99C252.656 258.837 268.346 244.056 284.153 229.239C299.962 214.492 315.865 199.721 345.576 200.498C340.354 194.641 335.083 188.81 329.79 182.883C329.014 182.883 328.12 182.883 327.344 182.883C299.186 182.883 283.801 197.206 268.416 211.599Z" fill="url(#paint8_linear_0_121)"/>
<path d="M239.171 179.032C223.364 193.778 207.626 208.585 177.916 207.809C183.138 213.664 188.409 219.495 193.702 225.422C223.411 226.268 239.101 211.487 254.908 196.671C270.717 181.925 286.621 167.153 316.33 167.929C311.109 162.073 305.838 156.243 300.545 150.316C299.769 150.316 298.875 150.316 298.099 150.316C269.941 150.316 254.556 164.639 239.171 179.032Z" fill="url(#paint9_linear_0_121)"/>
<path d="M209.926 146.463C194.118 161.209 178.381 176.016 148.67 175.24C153.893 181.096 159.164 186.926 164.456 192.853C194.167 193.7 209.856 178.919 225.663 164.102C241.472 149.356 257.376 134.584 287.085 135.361C281.864 129.505 276.593 123.674 271.3 117.747C270.524 117.747 269.63 117.747 268.854 117.747C240.695 117.747 225.311 132.07 209.926 146.463Z" fill="url(#paint10_linear_0_121)"/>
<path d="M180.682 113.895C164.873 128.642 149.136 143.448 119.425 142.672C124.648 148.528 129.918 154.359 135.211 160.286C164.922 161.132 180.611 146.351 196.419 131.535C212.227 116.788 228.13 102.017 257.84 102.792C252.618 96.9364 247.348 91.1057 242.055 85.179C241.279 85.179 240.385 85.179 239.608 85.179C211.45 85.179 196.066 99.5017 180.682 113.895Z" fill="url(#paint11_linear_0_121)"/>
<path d="M151.437 81.3268C135.629 96.073 119.892 110.879 90.181 110.103C95.4034 115.96 100.674 121.79 105.967 127.717C135.677 128.564 151.367 113.783 167.174 98.966C182.982 84.2196 198.885 69.4478 228.596 70.224C223.373 64.3678 218.103 58.5372 212.81 52.6105C212.034 52.6105 211.14 52.6105 210.363 52.6105C182.206 52.6105 166.821 66.9333 151.437 81.3268Z" fill="url(#paint12_linear_0_121)"/>
<path d="M122.192 48.7588C106.384 63.505 90.6466 78.3115 60.936 77.5354C66.1584 83.3916 71.4288 89.2221 76.7217 95.1488C106.432 95.9955 122.121 81.2145 137.929 66.3977C153.737 51.6516 169.64 36.8798 199.351 37.6559C194.129 31.7997 188.859 25.9691 183.566 20.0425C182.79 20.0425 181.894 20.0425 181.119 20.0425C152.961 20.0425 137.576 34.3653 122.192 48.7588Z" fill="url(#paint13_linear_0_121)"/>
<path d="M92.9468 16.1902C77.1389 30.9365 61.4016 45.743 31.691 44.9668C36.9134 50.8231 42.1838 56.6536 47.4767 62.5803C77.1871 63.427 92.8762 48.646 108.684 33.8292C124.492 19.0831 140.395 4.31127 170.106 5.0874C164.884 -0.768749 159.614 -6.59935 154.321 -12.526C153.545 -12.526 152.65 -12.526 151.874 -12.526C123.716 -12.526 108.331 1.79683 92.9468 16.1902Z" fill="url(#paint14_linear_0_121)"/>
<path d="M63.7017 -16.3778C47.8939 -1.63161 32.1565 13.1749 2.44604 12.3988C7.6683 18.2549 12.9388 24.0856 18.2317 30.0122C47.9421 30.8589 63.6312 16.0779 79.4392 1.26118C95.247 -13.485 111.151 -28.2568 140.861 -27.4806C135.639 -33.3368 130.369 -39.1674 125.076 -45.0941C124.299 -45.0941 123.405 -45.0941 122.629 -45.0941C94.4708 -45.0941 79.0863 -30.7712 63.7017 -16.3778Z" fill="url(#paint15_linear_0_121)"/>
<path d="M190.319 318.61C174.511 333.356 158.774 348.163 129.063 347.387C134.285 353.242 139.556 359.073 144.848 365C174.559 365.846 190.249 351.065 206.056 336.249C221.865 321.503 237.768 306.731 267.478 307.507C262.256 301.65 256.985 295.82 251.692 289.894C250.916 289.894 250.022 289.894 249.245 289.894C221.088 289.894 205.704 304.216 190.319 318.61Z" fill="url(#paint16_linear_0_121)"/>
<path d="M161.075 286.041C145.266 300.788 129.529 315.594 99.8181 314.818C105.041 320.675 110.311 326.505 115.604 332.431C145.315 333.279 161.003 318.497 176.812 303.681C192.619 288.934 208.523 274.162 238.234 274.938C233.011 269.083 227.741 263.252 222.448 257.325C221.672 257.325 220.778 257.325 220.001 257.325C191.843 257.325 176.458 271.648 161.075 286.041Z" fill="url(#paint17_linear_0_121)"/>
<path d="M131.83 253.473C116.021 268.22 100.284 283.026 70.5736 282.249C75.7958 288.106 81.0664 293.937 86.3592 299.863C116.07 300.71 131.758 285.928 147.567 271.112C163.374 256.366 179.278 241.594 208.989 242.37C203.766 236.514 198.496 230.684 193.203 224.757C192.427 224.757 191.532 224.757 190.756 224.757C162.598 224.757 147.214 239.08 131.83 253.473Z" fill="url(#paint18_linear_0_121)"/>
<path d="M102.584 220.905C86.7764 235.651 71.039 250.457 41.3286 249.682C46.5509 255.538 51.8214 261.368 57.1142 267.295C86.8247 268.142 102.513 253.361 118.322 238.544C134.129 223.798 150.033 209.026 179.744 209.802C174.521 203.946 169.251 198.115 163.958 192.189C163.182 192.189 162.287 192.189 161.511 192.189C133.353 192.189 117.969 206.511 102.584 220.905Z" fill="url(#paint19_linear_0_121)"/>
<path d="M73.3392 188.337C57.5313 203.084 41.7939 217.89 12.0835 217.113C17.3057 222.969 22.5763 228.801 27.869 234.727C57.5796 235.574 73.2686 220.792 89.0766 205.976C104.884 191.23 120.788 176.458 150.499 177.234C145.276 171.378 140.005 165.548 134.713 159.621C133.936 159.621 133.042 159.621 132.266 159.621C104.108 159.621 88.7237 173.944 73.3392 188.337Z" fill="url(#paint20_linear_0_121)"/>
<path d="M44.0942 155.768C28.2863 170.515 12.5489 185.321 -17.1615 184.545C-11.9393 190.401 -6.66874 196.232 -1.37592 202.158C28.3346 203.006 44.0236 188.224 59.8316 173.407C75.6395 158.661 91.543 143.889 121.254 144.665C116.031 138.81 110.76 132.979 105.467 127.052C104.691 127.052 103.797 127.052 103.021 127.052C74.8632 127.052 59.4787 141.375 44.0942 155.768Z" fill="url(#paint21_linear_0_121)"/>
<path d="M14.8492 123.201C-0.958736 137.947 -16.6961 152.753 -46.4065 151.977C-41.1843 157.833 -35.9137 163.664 -30.6209 169.591C-0.910469 170.437 14.7786 155.656 30.5866 140.839C46.3945 126.094 62.298 111.322 92.0084 112.098C86.7862 106.241 81.5157 100.411 76.2229 94.4842C75.4466 94.4842 74.5523 94.4842 73.776 94.4842C45.6182 94.4842 30.2337 108.807 14.8492 123.201Z" fill="url(#paint22_linear_0_121)"/>
<path d="M-14.3958 90.6319C-30.2037 105.378 -45.9411 120.184 -75.6515 119.409C-70.4292 125.265 -65.1587 131.095 -59.8659 137.022C-30.1555 137.869 -14.4664 123.088 1.34155 108.271C17.1495 93.5246 33.053 78.753 62.7634 79.5291C57.5412 73.6729 52.2707 67.8423 46.9779 61.9156C46.2016 61.9156 45.3073 61.9156 44.531 61.9156C16.3732 61.9156 0.988693 76.2385 -14.3958 90.6319Z" fill="url(#paint23_linear_0_121)"/>
<path d="M-43.6403 58.0639C-59.4483 72.81 -75.1856 87.6166 -104.896 86.8405C-99.674 92.6966 -94.4033 98.5268 -89.1105 104.454C-59.4001 105.3 -43.7109 90.5196 -27.903 75.7028C-12.0951 60.9566 3.80846 46.1848 33.5189 46.961C28.2966 41.1048 23.0261 35.2743 17.7332 29.3475C16.957 29.3475 16.0628 29.3475 15.2865 29.3475C-12.8713 29.3475 -28.2559 43.6704 -43.6403 58.0639Z" fill="url(#paint24_linear_0_121)"/>
<path d="M-72.8854 25.4958C-88.6934 40.242 -104.431 55.0486 -134.141 54.2725C-128.919 60.1286 -123.649 65.9591 -118.356 71.8859C-88.6451 72.7325 -72.956 57.9516 -57.1481 43.1348C-41.3402 28.3886 -25.4366 13.6168 4.27383 14.3929C-0.948425 8.53681 -6.21896 2.70621 -11.5118 -3.22048C-12.288 -3.22048 -13.1823 -3.22048 -13.9586 -3.22048C-42.1164 -3.22048 -57.501 11.1024 -72.8854 25.4958Z" fill="url(#paint25_linear_0_121)"/>
<path d="M24.4867 327.915C8.67874 342.661 -7.05861 357.468 -36.769 356.691C-31.5468 362.547 -26.2762 368.378 -20.9834 374.305C8.72701 375.151 24.4161 360.37 40.224 345.553C56.032 330.808 71.9355 316.036 101.646 316.812C96.4237 310.956 91.1532 305.125 85.8604 299.199C85.0841 299.199 84.1899 299.199 83.4136 299.199C55.2557 299.199 39.8712 313.522 24.4867 327.915Z" fill="url(#paint26_linear_0_121)"/>
<path d="M-4.75784 295.346C-20.5658 310.093 -36.3031 324.899 -66.0135 324.123C-60.7913 329.98 -55.5208 335.81 -50.228 341.737C-20.5175 342.584 -4.82842 327.803 10.9795 312.986C26.7875 298.239 42.691 283.468 72.4015 284.244C67.1792 278.387 61.9087 272.557 56.6158 266.63C55.8395 266.63 54.9453 266.63 54.1691 266.63C26.0112 266.63 10.6266 280.953 -4.75784 295.346Z" fill="url(#paint27_linear_0_121)"/>
<path d="M-34.0028 262.778C-49.8108 277.524 -65.5481 292.331 -95.2585 291.554C-90.0363 297.411 -84.7658 303.242 -79.473 309.169C-49.7625 310.015 -34.0735 295.234 -18.2655 280.417C-2.45757 265.671 13.446 250.899 43.1565 251.675C37.9341 245.819 32.6637 239.988 27.3708 234.061C26.5945 234.061 25.7003 234.061 24.9241 234.061C-3.23384 234.061 -18.6184 248.385 -34.0028 262.778Z" fill="url(#paint28_linear_0_121)"/>
<path d="M-63.2479 230.21C-79.0559 244.956 -94.7932 259.763 -124.504 258.987C-119.281 264.843 -114.011 270.673 -108.718 276.6C-79.0075 277.447 -63.3185 262.666 -47.5106 247.849C-31.7026 233.103 -15.7991 218.331 13.9113 219.107C8.68909 213.251 3.41857 207.421 -1.87427 201.494C-2.65054 201.494 -3.54475 201.494 -4.32104 201.494C-32.4789 201.494 -47.8635 215.817 -63.2479 230.21Z" fill="url(#paint29_linear_0_121)"/>
</g>
</g>
</g>
<defs>
<linearGradient id="paint0_linear_0_121" x1="342.417" y1="124.531" x2="360.625" y2="71.2948" gradientUnits="userSpaceOnUse">
<stop stop-color="#01AAC9"/>
<stop offset="1" stop-color="#01AAC9"/>
</linearGradient>
<linearGradient id="paint1_linear_0_121" x1="313.172" y1="91.9625" x2="331.38" y2="38.7263" gradientUnits="userSpaceOnUse">
<stop stop-color="#01AAC9"/>
<stop offset="1" stop-color="#01AAC9"/>
</linearGradient>
<linearGradient id="paint2_linear_0_121" x1="283.928" y1="59.3945" x2="302.135" y2="6.15826" gradientUnits="userSpaceOnUse">
<stop stop-color="#01AAC9"/>
<stop offset="1" stop-color="#01AAC9"/>
</linearGradient>
<linearGradient id="paint3_linear_0_121" x1="254.682" y1="26.826" x2="272.89" y2="-26.4103" gradientUnits="userSpaceOnUse">
<stop stop-color="#01AAC9"/>
<stop offset="1" stop-color="#01AAC9"/>
</linearGradient>
<linearGradient id="paint4_linear_0_121" x1="225.437" y1="-5.74211" x2="243.645" y2="-58.9783" gradientUnits="userSpaceOnUse">
<stop stop-color="#01AAC9"/>
<stop offset="1" stop-color="#01AAC9"/>
</linearGradient>
<linearGradient id="paint5_linear_0_121" x1="352.054" y1="329.246" x2="370.262" y2="276.01" gradientUnits="userSpaceOnUse">
<stop stop-color="#01AAC9"/>
<stop offset="1" stop-color="#01AAC9"/>
</linearGradient>
<linearGradient id="paint6_linear_0_121" x1="322.81" y1="296.678" x2="341.017" y2="243.441" gradientUnits="userSpaceOnUse">
<stop stop-color="#01AAC9"/>
<stop offset="1" stop-color="#01AAC9"/>
</linearGradient>
<linearGradient id="paint7_linear_0_121" x1="293.565" y1="264.109" x2="311.773" y2="210.873" gradientUnits="userSpaceOnUse">
<stop stop-color="#01AAC9"/>
<stop offset="1" stop-color="#01AAC9"/>
</linearGradient>
<linearGradient id="paint8_linear_0_121" x1="264.319" y1="231.541" x2="282.528" y2="178.305" gradientUnits="userSpaceOnUse">
<stop stop-color="#01AAC9"/>
<stop offset="1" stop-color="#01AAC9"/>
</linearGradient>
<linearGradient id="paint9_linear_0_121" x1="235.074" y1="198.973" x2="253.283" y2="145.737" gradientUnits="userSpaceOnUse">
<stop stop-color="#01AAC9"/>
<stop offset="1" stop-color="#01AAC9"/>
</linearGradient>
<linearGradient id="paint10_linear_0_121" x1="205.829" y1="166.405" x2="224.038" y2="113.168" gradientUnits="userSpaceOnUse">
<stop stop-color="#01AAC9"/>
<stop offset="1" stop-color="#01AAC9"/>
</linearGradient>
<linearGradient id="paint11_linear_0_121" x1="176.585" y1="133.836" x2="194.793" y2="80.6004" gradientUnits="userSpaceOnUse">
<stop stop-color="#01AAC9"/>
<stop offset="1" stop-color="#01AAC9"/>
</linearGradient>
<linearGradient id="paint12_linear_0_121" x1="147.34" y1="101.268" x2="165.548" y2="48.0319" gradientUnits="userSpaceOnUse">
<stop stop-color="#01AAC9"/>
<stop offset="1" stop-color="#01AAC9"/>
</linearGradient>
<linearGradient id="paint13_linear_0_121" x1="118.095" y1="68.7" x2="136.303" y2="15.4639" gradientUnits="userSpaceOnUse">
<stop stop-color="#01AAC9"/>
<stop offset="1" stop-color="#01AAC9"/>
</linearGradient>
<linearGradient id="paint14_linear_0_121" x1="88.85" y1="36.1315" x2="107.058" y2="-17.1047" gradientUnits="userSpaceOnUse">
<stop stop-color="#01AAC9"/>
<stop offset="1" stop-color="#01AAC9"/>
</linearGradient>
<linearGradient id="paint15_linear_0_121" x1="59.605" y1="3.56345" x2="77.813" y2="-49.6728" gradientUnits="userSpaceOnUse">
<stop stop-color="#01AAC9"/>
<stop offset="1" stop-color="#01AAC9"/>
</linearGradient>
<linearGradient id="paint16_linear_0_121" x1="186.222" y1="338.551" x2="204.431" y2="285.315" gradientUnits="userSpaceOnUse">
<stop stop-color="#01AAC9"/>
<stop offset="1" stop-color="#01AAC9"/>
</linearGradient>
<linearGradient id="paint17_linear_0_121" x1="156.978" y1="305.983" x2="175.185" y2="252.746" gradientUnits="userSpaceOnUse">
<stop stop-color="#01AAC9"/>
<stop offset="1" stop-color="#01AAC9"/>
</linearGradient>
<linearGradient id="paint18_linear_0_121" x1="127.733" y1="273.414" x2="145.94" y2="220.178" gradientUnits="userSpaceOnUse">
<stop stop-color="#01AAC9"/>
<stop offset="1" stop-color="#01AAC9"/>
</linearGradient>
<linearGradient id="paint19_linear_0_121" x1="98.4877" y1="240.847" x2="116.695" y2="187.61" gradientUnits="userSpaceOnUse">
<stop stop-color="#01AAC9"/>
<stop offset="1" stop-color="#01AAC9"/>
</linearGradient>
<linearGradient id="paint20_linear_0_121" x1="69.2424" y1="208.278" x2="87.4504" y2="155.042" gradientUnits="userSpaceOnUse">
<stop stop-color="#01AAC9"/>
<stop offset="1" stop-color="#01AAC9"/>
</linearGradient>
<linearGradient id="paint21_linear_0_121" x1="39.9974" y1="175.71" x2="58.2054" y2="122.473" gradientUnits="userSpaceOnUse">
<stop stop-color="#01AAC9"/>
<stop offset="1" stop-color="#01AAC9"/>
</linearGradient>
<linearGradient id="paint22_linear_0_121" x1="10.7524" y1="143.142" x2="28.9604" y2="89.9055" gradientUnits="userSpaceOnUse">
<stop stop-color="#01AAC9"/>
<stop offset="1" stop-color="#01AAC9"/>
</linearGradient>
<linearGradient id="paint23_linear_0_121" x1="-18.4926" y1="110.574" x2="-0.284544" y2="57.337" gradientUnits="userSpaceOnUse">
<stop stop-color="#01AAC9"/>
<stop offset="1" stop-color="#01AAC9"/>
</linearGradient>
<linearGradient id="paint24_linear_0_121" x1="-47.7372" y1="78.0051" x2="-29.5291" y2="24.7689" gradientUnits="userSpaceOnUse">
<stop stop-color="#01AAC9"/>
<stop offset="1" stop-color="#01AAC9"/>
</linearGradient>
<linearGradient id="paint25_linear_0_121" x1="-76.9823" y1="45.4371" x2="-58.7742" y2="-7.79913" gradientUnits="userSpaceOnUse">
<stop stop-color="#01AAC9"/>
<stop offset="1" stop-color="#01AAC9"/>
</linearGradient>
<linearGradient id="paint26_linear_0_121" x1="20.3899" y1="347.856" x2="38.598" y2="294.62" gradientUnits="userSpaceOnUse">
<stop stop-color="#01AAC9"/>
<stop offset="1" stop-color="#01AAC9"/>
</linearGradient>
<linearGradient id="paint27_linear_0_121" x1="-8.85463" y1="315.287" x2="9.35341" y2="262.052" gradientUnits="userSpaceOnUse">
<stop stop-color="#01AAC9"/>
<stop offset="1" stop-color="#01AAC9"/>
</linearGradient>
<linearGradient id="paint28_linear_0_121" x1="-38.0996" y1="282.719" x2="-19.8916" y2="229.484" gradientUnits="userSpaceOnUse">
<stop stop-color="#01AAC9"/>
<stop offset="1" stop-color="#01AAC9"/>
</linearGradient>
<linearGradient id="paint29_linear_0_121" x1="-67.3447" y1="250.151" x2="-49.1367" y2="196.915" gradientUnits="userSpaceOnUse">
<stop stop-color="#01AAC9"/>
<stop offset="1" stop-color="#01AAC9"/>
</linearGradient>
<clipPath id="clip0_0_121">
<rect width="300" height="300" fill="white" transform="translate(0 0.980003)"/>
</clipPath>
<clipPath id="clip1_0_121">
<rect width="300" height="300" fill="white" transform="translate(0 0.980003)"/>
</clipPath>
</defs>
</svg>
