<svg width="21" height="20" viewBox="0 0 21 20" fill="none" xmlns="http://www.w3.org/2000/svg">
<g clip-path="url(#clip0_1_74)">
<rect x="0.47998" width="20" height="20" rx="10" fill="white" fill-opacity="0.15"/>
<path d="M9.4866 14.3152C9.36865 14.3157 9.25323 14.2811 9.15502 14.2157C9.05682 14.1504 8.98028 14.0574 8.93514 13.9484C8.89 13.8394 8.8783 13.7195 8.90154 13.6038C8.92479 13.4882 8.98191 13.3821 9.06565 13.299L12.2161 10.1486L9.06565 6.99808C8.954 6.88644 8.89128 6.73502 8.89128 6.57713C8.89128 6.41924 8.954 6.26782 9.06565 6.15618C9.17729 6.04453 9.32871 5.98181 9.4866 5.98181C9.64449 5.98181 9.79591 6.04453 9.90755 6.15618L13.479 9.7276C13.5343 9.78288 13.5781 9.84851 13.6081 9.92073C13.638 9.99296 13.6534 10.0704 13.6534 10.1486C13.6534 10.2267 13.638 10.3042 13.6081 10.3764C13.5781 10.4486 13.5343 10.5142 13.479 10.5695L9.90755 14.1409C9.85233 14.1963 9.78671 14.2402 9.71447 14.2701C9.64223 14.3 9.56479 14.3153 9.4866 14.3152Z" fill="white"/>
</g>
<defs>
<clipPath id="clip0_1_74">
<rect x="0.47998" width="20" height="20" rx="10" fill="white"/>
</clipPath>
</defs>
</svg>
