<svg width="64" height="64" viewBox="0 0 64 64" fill="none" xmlns="http://www.w3.org/2000/svg">
<g clip-path="url(#clip0_1_555)">
<rect width="64" height="64" rx="16" fill="white"/>
<path fill-rule="evenodd" clip-rule="evenodd" d="M56 19.2905V31.587C56 32.299 55.4434 32.8754 54.7586 32.8754C54.0736 32.8754 53.5192 32.299 53.5192 31.587V22.4028L38.0118 38.5236C36.5448 40.0528 34.1468 40.0528 32.68 38.5236L25.7238 31.2924C25.4798 31.0408 25.157 30.901 24.8134 30.901H24.8114C24.468 30.901 24.1452 31.0408 23.903 31.2924L10.1171 45.6214C9.87506 45.873 9.55848 46 9.23984 46C8.92328 46 8.60675 45.873 8.36467 45.6214C7.87844 45.1202 7.87844 44.3008 8.36467 43.7996L22.1486 29.4684C22.8562 28.7286 23.8016 28.3198 24.8114 28.3198H24.8134C25.819 28.3198 26.7666 28.7286 27.4784 29.4684L34.4344 36.7018C34.9392 37.2224 35.7524 37.2224 36.2572 36.7018L51.7646 20.581H42.932C42.2472 20.581 41.6906 20.0024 41.6906 19.2905C41.6906 18.5786 42.2472 18 42.932 18H54.7586C54.922 18 55.0814 18.0344 55.2324 18.1011C55.5344 18.2301 55.7786 18.4818 55.9048 18.798C55.9668 18.955 56 19.1228 56 19.2905Z" fill="#2A2A2A"/>
</g>
<defs>
<clipPath id="clip0_1_555">
<rect width="64" height="64" rx="16" fill="white"/>
</clipPath>
</defs>
</svg>
