<svg width="64" height="64" viewBox="0 0 64 64" fill="none" xmlns="http://www.w3.org/2000/svg">
<g clip-path="url(#clip0_1_540)">
<rect width="64" height="64" rx="16" fill="white"/>
<path fill-rule="evenodd" clip-rule="evenodd" d="M43.1676 36.0888C43.1676 36.9008 42.5604 37.5606 41.8132 37.5606H28.0736C27.3264 37.5606 26.7216 36.9008 26.7216 36.0888C26.7216 35.277 27.3264 34.6172 28.0736 34.6172H41.8132C42.5604 34.6172 43.1676 35.277 43.1676 36.0888ZM43.1676 26.6676C43.1676 27.4818 42.5604 28.1392 41.8132 28.1392H28.0736C27.3264 28.1392 26.7216 27.4818 26.7216 26.6676C26.7216 25.8556 27.3264 25.1958 28.0736 25.1958H41.8132C42.5604 25.1958 43.1676 25.8556 43.1676 26.6676ZM49.2936 43.7294C49.2936 46.4496 47.2576 48.6596 44.7588 48.6596H25.1302C22.6292 48.6596 20.5954 46.4496 20.5954 43.7294V13.8711C20.5954 11.1534 22.6292 8.9434 25.1302 8.9434H38.678C39.3618 8.9434 40.0098 9.23282 40.495 9.76264L48.542 18.5045C49.025 19.0294 49.2936 19.7334 49.2936 20.479V43.7294ZM38.872 55.0566H19.2411C16.7424 55.0566 14.7087 52.8466 14.7087 50.1314V20.2682C14.7087 18.0679 16.0517 16.2209 17.8891 15.593V43.7294C17.8891 48.071 21.135 51.6006 25.1302 51.6006H43.1766C42.5964 53.5972 40.8968 55.0566 38.872 55.0566ZM50.456 16.4221L42.4092 7.68018C41.4136 6.59604 40.0886 6 38.678 6H25.1302C21.557 6 18.6 8.83056 18.0109 12.5343C14.6048 13.1721 12 16.3877 12 20.2682V50.1314C12 54.4704 15.2481 58 19.2411 58H38.872C42.4452 58 45.4 55.1694 45.989 51.4656C49.3974 50.828 52 47.6122 52 43.7294V20.479C52 18.9461 51.4514 17.5038 50.456 16.4221Z" fill="#2A2A2A"/>
</g>
<defs>
<clipPath id="clip0_1_540">
<rect width="64" height="64" rx="16" fill="white"/>
</clipPath>
</defs>
</svg>
