<svg width="21" height="20" viewBox="0 0 21 20" fill="none" xmlns="http://www.w3.org/2000/svg">
<path d="M8.77046 6.53999C9.0243 6.28615 9.43586 6.28615 9.6897 6.53999L12.6897 9.53999C12.7214 9.57172 12.7492 9.60591 12.773 9.64196C12.9396 9.89426 12.9118 10.2371 12.6897 10.4592L9.6897 13.4592C9.43586 13.7131 9.0243 13.7131 8.77046 13.4592C8.51662 13.2054 8.51662 12.7938 8.77046 12.54L10.6609 10.6496H3.73008C3.37109 10.6496 3.08008 10.3586 3.08008 9.99961C3.08008 9.64062 3.37109 9.34961 3.73008 9.34961H10.6609L8.77046 7.45923C8.51662 7.20539 8.51662 6.79383 8.77046 6.53999Z" fill="#808080"/>
<path fill-rule="evenodd" clip-rule="evenodd" d="M13.23 3.64961H8.22998V2.34961H13.23C15.7981 2.34961 17.88 4.43149 17.88 6.99961V12.9996C17.88 15.5677 15.7981 17.6496 13.23 17.6496H8.22998V16.3496H13.23C15.0802 16.3496 16.58 14.8498 16.58 12.9996V6.99961C16.58 5.14946 15.0802 3.64961 13.23 3.64961Z" fill="#808080"/>
</svg>
