<svg width="64" height="64" viewBox="0 0 64 64" fill="none" xmlns="http://www.w3.org/2000/svg">
<g clip-path="url(#clip0_1_549)">
<rect width="64" height="64" rx="16" fill="white"/>
<path fill-rule="evenodd" clip-rule="evenodd" d="M33.3196 28.1972C33.3196 30.996 30.9552 33.2676 28.0362 33.2676C25.1198 33.2676 22.753 30.996 22.753 28.1972C22.753 25.3984 25.1198 23.1268 28.0362 23.1268C30.9552 23.1268 33.3196 25.3984 33.3196 28.1972ZM56.8326 45.9436C56.8326 46.4938 56.3466 46.9578 55.7734 46.9578H16.1489C15.5783 46.9578 15.0923 46.4938 15.0923 45.9436V42.3944H47.8484C50.1784 42.3944 52.075 40.5766 52.075 38.338V24.6478H55.7734C56.3466 24.6478 56.8326 25.1118 56.8326 25.662V45.9436ZM8.22398 39.3522C7.64282 39.3522 7.16736 38.8984 7.16736 38.338V18.0563C7.16736 17.4961 7.64282 17.0423 8.22398 17.0423H47.8484C48.4322 17.0423 48.9078 17.4961 48.9078 18.0563V38.338C48.9078 38.8984 48.4322 39.3522 47.8484 39.3522H8.22398ZM55.7734 21.6056H52.075V18.0563C52.075 15.8177 50.1784 14 47.8484 14H8.22398C5.89406 14 4 15.8177 4 18.0563V38.338C4 40.5766 5.89406 42.3944 8.22398 42.3944H11.9249V45.9436C11.9249 48.1822 13.819 50 16.1489 50H55.7734C58.1034 50 60 48.1822 60 45.9436V25.662C60 23.4234 58.1034 21.6056 55.7734 21.6056Z" fill="#2A2A2A"/>
</g>
<defs>
<clipPath id="clip0_1_549">
<rect width="64" height="64" rx="16" fill="white"/>
</clipPath>
</defs>
</svg>
