<svg width="20" height="20" viewBox="0 0 20 20" fill="none" xmlns="http://www.w3.org/2000/svg">
<path d="M10.5215 0.955257L13.1793 6.3461C13.214 6.42121 13.2892 6.47321 13.37 6.48477L19.3155 7.35146C19.7952 7.4208 19.9858 8.01016 19.6392 8.35106L15.4617 12.4188C15.3229 12.5516 15.2594 12.7481 15.294 12.9387L16.2822 18.6879C16.363 19.1674 15.8603 19.5314 15.4328 19.3061L10.1112 16.5095C10.0361 16.4691 9.94944 16.4691 9.87433 16.5095L4.55282 19.3061C4.12526 19.5314 3.62257 19.1674 3.70346 18.6879L4.72616 12.7654C4.73772 12.6845 4.71461 12.5979 4.65104 12.5401L0.352238 8.34527C0.0055603 8.00437 0.196233 7.41502 0.675804 7.34569L6.62133 6.479C6.70223 6.46744 6.77734 6.41544 6.81201 6.34032L9.46987 0.949478C9.68366 0.52191 10.3077 0.52191 10.5215 0.955257Z" fill="url(#paint0_radial_1_45)"/>
<path d="M3.47234 10.1768C2.35719 9.06168 0.779808 7.79052 1.10915 7.28785L0.675804 7.3514C0.196233 7.42074 0.00556032 8.01009 0.352238 8.35099L4.65682 12.5457C4.71461 12.6036 4.74349 12.6902 4.73194 12.7711C4.88217 11.7195 4.58749 11.2862 3.47234 10.1768Z" fill="url(#paint1_radial_1_45)"/>
<path d="M16.5194 10.1768C17.6346 9.06168 19.2119 7.79052 18.8826 7.28785L19.3159 7.3514C19.7954 7.42074 19.9862 8.01009 19.6394 8.35099L15.3349 12.5457C15.2771 12.6036 15.2482 12.6902 15.2598 12.7711C15.1096 11.7195 15.4042 11.2862 16.5194 10.1768Z" fill="url(#paint2_radial_1_45)"/>
<path d="M19.3155 7.35183L13.37 6.48514C13.2892 6.47357 13.214 6.42157 13.1793 6.34646L10.5215 0.95562C10.5215 0.95562 10.2788 1.25607 10.8277 2.40011C11.1859 3.14547 12.1277 5.20243 12.6419 6.26558C12.9309 6.86648 13.37 6.87804 14.0344 6.9647L18.4257 7.52516C18.4199 7.53095 18.9053 7.57139 19.3155 7.35183Z" fill="url(#paint3_radial_1_45)"/>
<path d="M10.5215 0.955257L13.1793 6.3461C13.214 6.42121 13.2892 6.47321 13.37 6.48477L19.3155 7.35146C19.7952 7.4208 19.9858 8.01016 19.6392 8.35106L15.4617 12.4188C15.3229 12.5516 15.2594 12.7481 15.294 12.9387L16.2822 18.6879C16.363 19.1674 15.8603 19.5314 15.4328 19.3061L10.1112 16.5095C10.0361 16.4691 9.94944 16.4691 9.87433 16.5095L4.55282 19.3061C4.12526 19.5314 3.62257 19.1674 3.70346 18.6879L4.72616 12.7654C4.73772 12.6845 4.71461 12.5979 4.65104 12.5401L0.352238 8.34527C0.0055603 8.00437 0.196233 7.41502 0.675804 7.34569L6.62133 6.479C6.70223 6.46744 6.77734 6.41544 6.81201 6.34032L9.46987 0.949478C9.68366 0.52191 10.3077 0.52191 10.5215 0.955257Z" fill="url(#paint4_radial_1_45)"/>
<path d="M10.5215 0.955257L13.1793 6.3461C13.214 6.42121 13.2892 6.47321 13.37 6.48477L19.3155 7.35146C19.7952 7.4208 19.9858 8.01016 19.6392 8.35106L15.4617 12.4188C15.3229 12.5516 15.2594 12.7481 15.294 12.9387L16.2822 18.6879C16.363 19.1674 15.8603 19.5314 15.4328 19.3061L10.1112 16.5095C10.0361 16.4691 9.94944 16.4691 9.87433 16.5095L4.55282 19.3061C4.12526 19.5314 3.62257 19.1674 3.70346 18.6879L4.72616 12.7654C4.73772 12.6845 4.71461 12.5979 4.65104 12.5401L0.352238 8.34527C0.0055603 8.00437 0.196233 7.41502 0.675804 7.34569L6.62133 6.479C6.70223 6.46744 6.77734 6.41544 6.81201 6.34032L9.46987 0.949478C9.68366 0.52191 10.3077 0.52191 10.5215 0.955257Z" fill="url(#paint5_radial_1_45)"/>
<path d="M9.46987 0.955257L6.81201 6.3461C6.77734 6.42121 6.70223 6.47321 6.62133 6.48477L0.675804 7.35146C0.196233 7.4208 0.0055603 8.01016 0.352238 8.35106L4.52971 12.4188C4.66838 12.5516 4.73194 12.7481 4.69727 12.9387L3.70924 18.6879C3.62834 19.1674 4.13103 19.5314 4.55859 19.3061L9.88011 16.5095C9.95522 16.4691 10.0419 16.4691 10.117 16.5095L15.4385 19.3061C15.866 19.5314 16.3688 19.1674 16.2879 18.6879L15.2652 12.7654C15.2537 12.6845 15.2768 12.5979 15.3403 12.5401L19.6449 8.34527C19.9915 8.00437 19.8009 7.41502 19.3213 7.34569L13.3758 6.479C13.2949 6.46744 13.2198 6.41544 13.1852 6.34032L10.5272 0.949478C10.3077 0.52191 9.68366 0.52191 9.46987 0.955257Z" fill="url(#paint6_radial_1_45)"/>
<path d="M9.46987 0.955257L6.81201 6.3461C6.77734 6.42121 6.70223 6.47321 6.62133 6.48477L0.675804 7.35146C0.196233 7.4208 0.0055603 8.01016 0.352238 8.35106L4.52971 12.4188C4.66838 12.5516 4.73194 12.7481 4.69727 12.9387L3.70924 18.6879C3.62834 19.1674 4.13103 19.5314 4.55859 19.3061L9.88011 16.5095C9.95522 16.4691 10.0419 16.4691 10.117 16.5095L15.4385 19.3061C15.866 19.5314 16.3688 19.1674 16.2879 18.6879L15.2652 12.7654C15.2537 12.6845 15.2768 12.5979 15.3403 12.5401L19.6449 8.34527C19.9915 8.00437 19.8009 7.41502 19.3213 7.34569L13.3758 6.479C13.2949 6.46744 13.2198 6.41544 13.1852 6.34032L10.5272 0.949478C10.3077 0.52191 9.68366 0.52191 9.46987 0.955257Z" fill="url(#paint7_radial_1_45)"/>
<path opacity="0.24" d="M9.46987 0.955257L6.81201 6.3461C6.77734 6.42121 6.70223 6.47321 6.62133 6.48477L0.675804 7.35146C0.196233 7.4208 0.0055603 8.01016 0.352238 8.35106L4.52971 12.4188C4.66838 12.5516 4.73194 12.7481 4.69727 12.9387L3.70924 18.6879C3.62834 19.1674 4.13103 19.5314 4.55859 19.3061L9.88011 16.5095C9.95522 16.4691 10.0419 16.4691 10.117 16.5095L15.4385 19.3061C15.866 19.5314 16.3688 19.1674 16.2879 18.6879L15.2652 12.7654C15.2537 12.6845 15.2768 12.5979 15.3403 12.5401L19.6449 8.34527C19.9915 8.00437 19.8009 7.41502 19.3213 7.34569L13.3758 6.479C13.2949 6.46744 13.2198 6.41544 13.1852 6.34032L10.5272 0.949478C10.3077 0.52191 9.68366 0.52191 9.46987 0.955257Z" fill="url(#paint8_radial_1_45)"/>
<path opacity="0.24" d="M9.46987 0.955257L6.81201 6.3461C6.77734 6.42121 6.70223 6.47321 6.62133 6.48477L0.675804 7.35146C0.196233 7.4208 0.0055603 8.01016 0.352238 8.35106L4.52971 12.4188C4.66838 12.5516 4.73194 12.7481 4.69727 12.9387L3.70924 18.6879C3.62834 19.1674 4.13103 19.5314 4.55859 19.3061L9.88011 16.5095C9.95522 16.4691 10.0419 16.4691 10.117 16.5095L15.4385 19.3061C15.866 19.5314 16.3688 19.1674 16.2879 18.6879L15.2652 12.7654C15.2537 12.6845 15.2768 12.5979 15.3403 12.5401L19.6449 8.34527C19.9915 8.00437 19.8009 7.41502 19.3213 7.34569L13.3758 6.479C13.2949 6.46744 13.2198 6.41544 13.1852 6.34032L10.5272 0.949478C10.3077 0.52191 9.68366 0.52191 9.46987 0.955257Z" fill="url(#paint9_radial_1_45)"/>
<path d="M0.67627 7.35183L6.6218 6.48514C6.70269 6.47357 6.7778 6.42157 6.81247 6.34646L9.47034 0.95562C9.47034 0.95562 9.71301 1.25607 9.16411 2.40011C8.80587 3.14547 7.86406 5.20243 7.34982 6.26558C7.06092 6.86648 6.6218 6.87804 5.95734 6.9647L1.56607 7.52516C1.57185 7.53095 1.0865 7.57139 0.67627 7.35183Z" fill="url(#paint10_radial_1_45)"/>
<path opacity="0.5" d="M10.5215 0.955257L13.1793 6.3461C13.214 6.42121 13.2892 6.47321 13.37 6.48477L19.3155 7.35146C19.7952 7.4208 19.9858 8.01016 19.6392 8.35106L15.4617 12.4188C15.3229 12.5516 15.2594 12.7481 15.294 12.9387L16.2822 18.6879C16.363 19.1674 15.8603 19.5314 15.4328 19.3061L10.1112 16.5095C10.0361 16.4691 9.94944 16.4691 9.87433 16.5095L4.55282 19.3061C4.12526 19.5314 3.62257 19.1674 3.70346 18.6879L4.72616 12.7654C4.73772 12.6845 4.71461 12.5979 4.65104 12.5401L0.352238 8.34527C0.0055603 8.00437 0.196233 7.41502 0.675804 7.34569L6.62133 6.479C6.70223 6.46744 6.77734 6.41544 6.81201 6.34032L9.46987 0.949478C9.68366 0.52191 10.3077 0.52191 10.5215 0.955257Z" fill="url(#paint11_radial_1_45)"/>
<path d="M16.2821 18.6884L15.294 12.9393C15.2594 12.7486 15.323 12.558 15.4616 12.4193L19.6391 8.34581C19.9858 8.00491 19.7951 7.41556 19.3155 7.34623L13.37 6.47953C13.2891 6.46798 13.214 6.41596 13.1794 6.34085L10.5215 0.950012C10.3077 0.516663 9.68944 0.516663 9.46988 0.950012L6.812 6.34085C6.77734 6.41596 6.70223 6.46798 6.62133 6.47953L0.675804 7.34623C0.196233 7.41556 0.00556034 8.00491 0.352238 8.34581L4.65683 12.5406C4.7146 12.5984 4.74349 12.6851 4.73194 12.766L3.70924 18.6884C3.62834 19.168 4.13103 19.532 4.5586 19.3066L9.8801 16.5101C9.95522 16.4696 10.0419 16.4696 10.117 16.5101L15.4385 19.3066C15.8603 19.532 16.363 19.168 16.2821 18.6884ZM15.8545 18.9889C15.8141 19.0178 15.7159 19.0755 15.5888 19.0061L10.273 16.2096C10.1863 16.1634 10.0939 16.1402 10.0014 16.1402C9.909 16.1402 9.81655 16.1634 9.72988 16.2096L4.41415 19.0061C4.28704 19.0697 4.1888 19.012 4.14837 18.9889C4.10792 18.96 4.02125 18.879 4.05014 18.7404L5.0555 12.8237C5.09018 12.633 5.02662 12.4424 4.88794 12.3037L0.583357 8.10891C0.479354 8.01069 0.502466 7.89513 0.519799 7.8489C0.537133 7.80268 0.583357 7.69868 0.722028 7.67556L6.66755 6.80888C6.85823 6.77998 7.02579 6.65864 7.10668 6.49109L9.76455 1.10024C9.8281 0.973123 9.94367 0.961567 9.98989 0.961567C10.0361 0.961567 10.1517 0.973123 10.2152 1.10024L12.8731 6.49109C12.9598 6.66443 13.1215 6.78576 13.3123 6.80888L19.2578 7.67556C19.3964 7.69868 19.4484 7.80268 19.46 7.8489C19.4773 7.89513 19.5004 8.01069 19.3964 8.10891L15.219 12.1824C15.0051 12.3904 14.9069 12.6966 14.9531 12.9912L15.9413 18.7404C15.9759 18.8849 15.8893 18.9658 15.8545 18.9889Z" fill="url(#paint12_radial_1_45)" fill-opacity="0.3"/>
<defs>
<radialGradient id="paint0_radial_1_45" cx="0" cy="0" r="1" gradientUnits="userSpaceOnUse" gradientTransform="translate(9.50719 8.04829) scale(9.59916)">
<stop stop-color="#FFE343"/>
<stop offset="0.5492" stop-color="#FFE241"/>
<stop offset="0.7469" stop-color="#FFDF3A"/>
<stop offset="0.8874" stop-color="#FEDA2F"/>
<stop offset="1" stop-color="#FED31E"/>
</radialGradient>
<radialGradient id="paint1_radial_1_45" cx="0" cy="0" r="1" gradientUnits="userSpaceOnUse" gradientTransform="translate(2.40806 11.8368) rotate(-39.4857) scale(1.77535 4.7805)">
<stop stop-color="#D86D00"/>
<stop offset="0.3292" stop-color="#DC6C0A" stop-opacity="0.6708"/>
<stop offset="0.8792" stop-color="#E86823" stop-opacity="0.1208"/>
<stop offset="1" stop-color="#EB672A" stop-opacity="0"/>
</radialGradient>
<radialGradient id="paint2_radial_1_45" cx="0" cy="0" r="1" gradientUnits="userSpaceOnUse" gradientTransform="translate(17.3584 12.0963) rotate(-140.514) scale(1.77535 4.7805)">
<stop stop-color="#D86D00"/>
<stop offset="0.3292" stop-color="#DC6C0A" stop-opacity="0.6708"/>
<stop offset="0.8792" stop-color="#E86823" stop-opacity="0.1208"/>
<stop offset="1" stop-color="#EB672A" stop-opacity="0"/>
</radialGradient>
<radialGradient id="paint3_radial_1_45" cx="0" cy="0" r="1" gradientUnits="userSpaceOnUse" gradientTransform="translate(16.0912 2.60442) rotate(46.8275) scale(6.95223 4.78516)">
<stop stop-color="#ED9900"/>
<stop offset="1" stop-color="#ED9900" stop-opacity="0"/>
</radialGradient>
<radialGradient id="paint4_radial_1_45" cx="0" cy="0" r="1" gradientUnits="userSpaceOnUse" gradientTransform="translate(8.30004 6.87525) rotate(-34.4857) scale(6.17745 4.4154)">
<stop stop-color="#FFEC5F"/>
<stop offset="1" stop-color="#FFEC5F" stop-opacity="0"/>
</radialGradient>
<radialGradient id="paint5_radial_1_45" cx="0" cy="0" r="1" gradientUnits="userSpaceOnUse" gradientTransform="translate(7.59331 19.365) rotate(-26.3216) scale(5.27806 2.50141)">
<stop stop-color="#D86D00"/>
<stop offset="0.3292" stop-color="#DC6C0A" stop-opacity="0.6708"/>
<stop offset="0.8792" stop-color="#E86823" stop-opacity="0.1208"/>
<stop offset="1" stop-color="#EB672A" stop-opacity="0"/>
</radialGradient>
<radialGradient id="paint6_radial_1_45" cx="0" cy="0" r="1" gradientUnits="userSpaceOnUse" gradientTransform="translate(12.3394 19.5137) rotate(-153.678) scale(5.27806 2.50141)">
<stop stop-color="#D86D00"/>
<stop offset="0.3292" stop-color="#DC6C0A" stop-opacity="0.6708"/>
<stop offset="0.8792" stop-color="#E86823" stop-opacity="0.1208"/>
<stop offset="1" stop-color="#EB672A" stop-opacity="0"/>
</radialGradient>
<radialGradient id="paint7_radial_1_45" cx="0" cy="0" r="1" gradientUnits="userSpaceOnUse" gradientTransform="translate(9.99048 22.3245) rotate(177.226) scale(6.9821 7.15825)">
<stop stop-color="#D86D00"/>
<stop offset="0.3292" stop-color="#DC6C0A" stop-opacity="0.6708"/>
<stop offset="0.8792" stop-color="#E86823" stop-opacity="0.1208"/>
<stop offset="1" stop-color="#EB672A" stop-opacity="0"/>
</radialGradient>
<radialGradient id="paint8_radial_1_45" cx="0" cy="0" r="1" gradientUnits="userSpaceOnUse" gradientTransform="translate(12.3469 14.5987) rotate(158.456) scale(7.37804 5.57741)">
<stop stop-color="#D86D00"/>
<stop offset="0.3292" stop-color="#DC6C0A" stop-opacity="0.6708"/>
<stop offset="0.8792" stop-color="#E86823" stop-opacity="0.1208"/>
<stop offset="1" stop-color="#EB672A" stop-opacity="0"/>
</radialGradient>
<radialGradient id="paint9_radial_1_45" cx="0" cy="0" r="1" gradientUnits="userSpaceOnUse" gradientTransform="translate(9.22598 7.81432) rotate(158.456) scale(4.44532 3.36044)">
<stop stop-color="white"/>
<stop offset="1" stop-color="white" stop-opacity="0"/>
</radialGradient>
<radialGradient id="paint10_radial_1_45" cx="0" cy="0" r="1" gradientUnits="userSpaceOnUse" gradientTransform="translate(3.90087 2.60367) rotate(133.173) scale(6.95222 4.78516)">
<stop stop-color="#ED9900"/>
<stop offset="1" stop-color="#ED9900" stop-opacity="0"/>
</radialGradient>
<radialGradient id="paint11_radial_1_45" cx="0" cy="0" r="1" gradientUnits="userSpaceOnUse" gradientTransform="translate(10.1042 10.4906) scale(11.4448)">
<stop stop-color="#FF8000" stop-opacity="0"/>
<stop offset="0.5434" stop-color="#FD7F00" stop-opacity="0.5434"/>
<stop offset="0.7391" stop-color="#F67C00" stop-opacity="0.7391"/>
<stop offset="0.8781" stop-color="#EB7600" stop-opacity="0.8781"/>
<stop offset="0.9903" stop-color="#DA6E00" stop-opacity="0.9903"/>
<stop offset="1" stop-color="#D86D00"/>
</radialGradient>
<radialGradient id="paint12_radial_1_45" cx="0" cy="0" r="1" gradientUnits="userSpaceOnUse" gradientTransform="translate(9.99567 10.8603) scale(9.88974)">
<stop stop-color="#A3541E" stop-opacity="0.5"/>
<stop offset="0.5109" stop-color="#A5551D" stop-opacity="0.7555"/>
<stop offset="0.695" stop-color="#AC5819" stop-opacity="0.8475"/>
<stop offset="0.8261" stop-color="#B75E12" stop-opacity="0.9131"/>
<stop offset="0.9315" stop-color="#C86609" stop-opacity="0.9657"/>
<stop offset="1" stop-color="#D86D00"/>
</radialGradient>
</defs>
</svg>
