<svg width="921" height="200" viewBox="0 0 921 200" fill="none" xmlns="http://www.w3.org/2000/svg">
<path d="M16.0824 86.9634C22.7182 86.9634 28.6933 82.8861 31.0482 76.6833C40.9474 50.6094 66.1618 32.0772 95.7076 32.0772C125.253 32.0772 150.468 50.6094 160.367 76.6833C162.722 82.887 168.697 86.9634 175.333 86.9634C186.516 86.9634 194.336 75.7816 190.37 65.3252C175.886 27.1413 138.969 0 95.7076 0C52.4462 0 15.5292 27.1421 1.04529 65.3252C-2.92098 75.7808 4.89896 86.9634 16.0824 86.9634Z" fill="url(#paint0_linear_87_1167)"/>
<path d="M165.019 27.4708C146.908 10.4407 122.531 0 95.7076 0C52.4462 0 15.5292 27.1421 1.04523 65.3252C-2.92105 75.7816 4.89972 86.9634 16.0823 86.9634C22.7181 86.9634 28.6932 82.8861 31.0482 76.6833C32.5419 72.7477 34.3909 68.9884 36.5446 65.4345L36.543 65.4287C36.543 65.4287 36.5728 65.379 36.6332 65.2838C42.9172 54.974 51.8218 46.4394 62.424 40.6043C82.7604 27.3433 115.955 15.9131 165.019 27.4708Z" fill="url(#paint1_linear_87_1167)"/>
<path d="M175.333 113.037C168.697 113.037 162.722 117.114 160.367 123.317C150.468 149.391 125.253 167.923 95.7076 167.923C66.1618 167.923 40.9474 149.391 31.0482 123.317C28.6933 117.113 22.7174 113.037 16.0824 113.037C4.89896 113.037 -2.92098 124.218 1.04529 134.675C15.5292 172.858 52.4462 200 95.7076 200C138.969 200 175.886 172.858 190.37 134.675C194.336 124.218 186.516 113.037 175.333 113.037Z" fill="url(#paint2_linear_87_1167)"/>
<path d="M26.3965 172.528C44.5064 189.559 68.8845 200 95.7078 200C138.969 200 175.886 172.858 190.37 134.675C194.336 124.218 186.516 113.037 175.333 113.037C168.697 113.037 162.722 117.114 160.367 123.317C158.873 127.253 157.024 131.012 154.871 134.566L154.872 134.572C154.872 134.572 154.843 134.622 154.782 134.717C148.498 145.026 139.593 153.561 128.991 159.397C108.655 172.657 75.4607 184.086 26.3965 172.528Z" fill="url(#paint3_linear_87_1167)"/>
<path d="M141.675 100.706L95.7088 146.673L49.7422 100.706L95.7088 54.7388L141.675 100.706Z" fill="url(#paint4_linear_87_1167)"/>
<path d="M141.675 100.707H49.7422L95.7088 146.673L141.675 100.707Z" fill="url(#paint5_linear_87_1167)"/>
<path d="M249.176 131.8C240.536 123.4 236.216 112.8 236.216 100C236.216 87.2 240.536 76.6 249.176 68.2C257.816 59.8 268.496 55.6 281.216 55.6C295.776 55.6 307.136 60.72 315.296 70.96C318.896 75.36 321.536 80.44 323.216 86.2H309.416C307.976 83 305.976 80.12 303.416 77.56C297.576 71.72 290.176 68.8 281.216 68.8C272.176 68.8 264.816 71.68 259.136 77.44C253.456 83.2 250.616 90.72 250.616 100C250.616 109.28 253.456 116.8 259.136 122.56C264.816 128.32 272.176 131.2 281.216 131.2C290.416 131.2 297.976 128 303.896 121.6C306.536 118.88 308.576 115.68 310.016 112H323.816C321.736 118.24 318.816 123.64 315.056 128.2C306.736 139 295.456 144.4 281.216 144.4C268.496 144.4 257.816 140.2 249.176 131.8ZM345.619 131.68C337.059 123.2 332.779 112.64 332.779 100C332.779 87.36 337.059 76.8 345.619 68.32C354.179 59.84 364.899 55.6 377.779 55.6C390.659 55.6 401.379 59.84 409.939 68.32C418.499 76.8 422.779 87.36 422.779 100C422.779 112.64 418.499 123.2 409.939 131.68C401.379 140.16 390.659 144.4 377.779 144.4C364.899 144.4 354.179 140.16 345.619 131.68ZM355.699 77.44C350.019 83.2 347.179 90.72 347.179 100C347.179 109.28 350.019 116.8 355.699 122.56C361.379 128.32 368.739 131.2 377.779 131.2C386.739 131.2 394.059 128.32 399.739 122.56C405.499 116.8 408.379 109.28 408.379 100C408.379 90.72 405.499 83.2 399.739 77.44C394.059 71.68 386.739 68.8 377.779 68.8C368.739 68.8 361.379 71.68 355.699 77.44ZM435.988 142V58H449.788V142H435.988ZM466.574 142V58H486.374L522.974 124.6H524.174L522.974 114.4V58H536.774V142H516.974L480.374 75.4H479.174L480.374 85.6V142H466.574ZM553.527 142V58H612.327V71.2H567.327V95.2H602.727V108.4H567.327V142H553.527ZM612.904 142L634.504 58H668.704L690.904 142H676.504L670.744 120.4H632.104L626.704 142H612.904ZM635.704 107.2H667.384L657.904 71.2H644.704L635.704 107.2ZM689.061 71.2V58H758.061V71.2H730.461V142H716.661V71.2H689.061ZM767.629 142V58H828.229V71.2H781.429V92.8H819.229V106H781.429V128.8H828.229V142H767.629ZM840.871 142V58H860.671L897.271 124.6H898.471L897.271 114.4V58H911.071V142H891.271L854.671 75.4H853.471L854.671 85.6V142H840.871Z" fill="black"/>
<defs>
<linearGradient id="paint0_linear_87_1167" x1="95.9694" y1="99.7525" x2="95.2564" y2="21.3429" gradientUnits="userSpaceOnUse">
<stop stop-color="#FF3E5E"/>
<stop offset="0.9948" stop-color="#B61C22"/>
</linearGradient>
<linearGradient id="paint1_linear_87_1167" x1="136.789" y1="-7.62519" x2="-7.91238" y2="115.692" gradientUnits="userSpaceOnUse">
<stop stop-color="#FF5A19"/>
<stop offset="1" stop-color="#FF13BD"/>
</linearGradient>
<linearGradient id="paint2_linear_87_1167" x1="95.4459" y1="100.247" x2="96.1587" y2="178.657" gradientUnits="userSpaceOnUse">
<stop stop-color="#00CFFF"/>
<stop offset="0.9649" stop-color="#1E079D"/>
</linearGradient>
<linearGradient id="paint3_linear_87_1167" x1="26.3967" y1="156.518" x2="191.416" y2="156.518" gradientUnits="userSpaceOnUse">
<stop stop-color="#00CFFF"/>
<stop offset="1" stop-color="#FF13BD"/>
</linearGradient>
<linearGradient id="paint4_linear_87_1167" x1="68.3843" y1="100.706" x2="143.21" y2="100.706" gradientUnits="userSpaceOnUse">
<stop stop-color="#FF5A19"/>
<stop offset="1" stop-color="#FF13BD"/>
</linearGradient>
<linearGradient id="paint5_linear_87_1167" x1="95.7088" y1="158.518" x2="95.7088" y2="84.2797" gradientUnits="userSpaceOnUse">
<stop stop-color="#00CFFF"/>
<stop offset="1" stop-color="#FF13BD"/>
</linearGradient>
</defs>
</svg>
