<?xml version="1.0" encoding="UTF-8"?> <svg xmlns="http://www.w3.org/2000/svg" width="290" height="76" viewBox="0 0 290 76" fill="none"> <path d="M4.40049 1.18622H284.042C284.042 1.18622 289.438 23.5467 289.438 38.5521C289.438 53.5575 284.042 75.918 284.042 75.918H4.40049C4.40049 75.918 0 53.6919 0 38.5521C0 23.4123 4.40049 1.18622 4.40049 1.18622Z" fill="#AC8B68"></path> <g filter="url(#filter0_i_0_23)"> <path d="M4.40049 0H284.042C284.042 0 289.438 22.3605 289.438 37.3659C289.438 52.3713 284.042 74.7318 284.042 74.7318H4.40049C4.40049 74.7318 0 52.5057 0 37.3659C0 22.2261 4.40049 0 4.40049 0Z" fill="url(#paint0_linear_0_23)"></path> </g> <path d="M48.1168 42.2831H46.1808L43.6208 38.3471L41.0768 42.2831H39.1248L42.6928 36.8911L39.3488 31.7231H41.3008L43.6368 35.4511L45.9408 31.7231H47.8768L44.5968 36.8911L48.1168 42.2831ZM48.7733 37.0031C48.752 35.4991 49.2906 34.2084 50.3893 33.1311C51.488 32.0537 52.7946 31.5257 54.3093 31.5471C55.8133 31.5257 57.12 32.0537 58.2293 33.1311C59.3493 34.2084 59.8933 35.4991 59.8613 37.0031C59.8933 38.5071 59.3493 39.7977 58.2293 40.8751C57.12 41.9524 55.8133 42.4804 54.3093 42.4591C52.7946 42.4804 51.4826 41.9524 50.3733 40.8751C49.2746 39.7977 48.7413 38.5071 48.7733 37.0031ZM58.1173 36.9871C58.1173 35.8777 57.7546 34.9551 57.0293 34.2191C56.304 33.4724 55.4026 33.0991 54.3253 33.0991C53.2373 33.0991 52.3306 33.4671 51.6053 34.2031C50.8906 34.9391 50.5333 35.8671 50.5333 36.9871C50.5333 38.1177 50.8906 39.0564 51.6053 39.8031C52.32 40.5391 53.2266 40.9071 54.3253 40.9071C55.4026 40.9071 56.304 40.5337 57.0293 39.7871C57.7546 39.0404 58.1173 38.1071 58.1173 36.9871ZM67.8218 31.7231H69.5178V42.2831H67.8218V38.2031C67.1178 38.4804 66.3285 38.6191 65.4538 38.6191C64.1205 38.6191 63.0858 38.2724 62.3498 37.5791C61.6245 36.8751 61.2618 35.8564 61.2618 34.5231V31.7231H62.9578V34.3791C62.9578 36.1817 63.8538 37.0831 65.6458 37.0831C66.5205 37.0831 67.2458 36.9497 67.8218 36.6831V31.7231ZM79.2029 31.7231H80.9789L77.2669 39.7071C76.7869 40.7311 76.3336 41.4404 75.9069 41.8351C75.4803 42.2297 74.8563 42.4377 74.0349 42.4591C73.7363 42.4591 73.3949 42.4004 73.0109 42.2831V40.8271C73.2349 40.8697 73.5123 40.8911 73.8429 40.8911C74.5149 40.8911 75.0323 40.5924 75.3949 39.9951L71.3149 31.7231H73.2189L76.3229 38.0911L79.2029 31.7231ZM93.3748 31.7231H95.1508L91.4388 39.7071C90.9588 40.7311 90.5055 41.4404 90.0788 41.8351C89.6521 42.2297 89.0281 42.4377 88.2068 42.4591C87.9081 42.4591 87.5668 42.4004 87.1828 42.2831V40.8271C87.4068 40.8697 87.6841 40.8911 88.0148 40.8911C88.6868 40.8911 89.2041 40.5924 89.5668 39.9951L85.4868 31.7231H87.3908L90.4948 38.0911L93.3748 31.7231ZM102.931 31.7231H104.627V42.2831H102.931V38.2031C102.227 38.4804 101.438 38.6191 100.563 38.6191C99.2298 38.6191 98.1952 38.2724 97.4592 37.5791C96.7338 36.8751 96.3712 35.8564 96.3712 34.5231V31.7231H98.0672V34.3791C98.0672 36.1817 98.9632 37.0831 100.755 37.0831C101.63 37.0831 102.355 36.9497 102.931 36.6831V31.7231ZM114.376 42.2831L113.624 40.5231H108.872L108.12 42.2831H106.312L110.968 31.5471H111.544L116.2 42.2831H114.376ZM113.016 39.0671L111.256 34.699L109.48 39.0671H113.016ZM116.992 37.0031C116.96 35.4991 117.499 34.2084 118.608 33.1311C119.717 32.0537 121.029 31.5257 122.544 31.5471C123.504 31.5471 124.384 31.7657 125.184 32.203C125.984 32.6404 126.613 33.2324 127.072 33.979L125.792 34.9231C125.013 33.7071 123.936 33.0991 122.56 33.0991C121.472 33.0991 120.565 33.4724 119.84 34.2191C119.115 34.9551 118.752 35.8831 118.752 37.0031C118.752 38.1231 119.115 39.0564 119.84 39.8031C120.565 40.5391 121.472 40.9071 122.56 40.9071C123.936 40.9071 125.013 40.2991 125.792 39.0831L127.072 40.0271C126.613 40.7844 125.984 41.3817 125.184 41.8191C124.395 42.2457 123.515 42.4591 122.544 42.4591C121.029 42.4804 119.717 41.9524 118.608 40.8751C117.499 39.7977 116.96 38.5071 116.992 37.0031ZM131.581 42.2831V33.2431H128.029V31.7231H136.845V33.2431H133.277V42.2831H131.581ZM146.381 39.2111C146.381 40.1071 146.066 40.8431 145.437 41.4191C144.808 41.9951 143.981 42.2831 142.957 42.2831H138.429V31.7231H142.125C143.074 31.7231 143.837 31.9897 144.413 32.5231C145 33.0457 145.293 33.7177 145.293 34.5391C145.293 35.3604 145 36.0217 144.413 36.5231C145.032 36.7257 145.512 37.0617 145.853 37.5311C146.205 38.0004 146.381 38.5604 146.381 39.2111ZM141.965 33.2111H140.093V36.0591H141.965C142.477 36.0591 142.877 35.9311 143.165 35.6751C143.453 35.4191 143.597 35.0671 143.597 34.6191C143.597 34.1817 143.453 33.8404 143.165 33.595C142.888 33.339 142.488 33.2111 141.965 33.2111ZM144.669 39.1631C144.669 38.6511 144.504 38.2511 144.173 37.9631C143.842 37.6644 143.389 37.5151 142.813 37.5151H140.093V40.7951H142.813C143.4 40.7951 143.853 40.6511 144.173 40.3631C144.504 40.0644 144.669 39.6644 144.669 39.1631ZM147.68 37.0031C147.658 35.4991 148.197 34.2084 149.296 33.1311C150.394 32.0537 151.701 31.5257 153.216 31.5471C154.72 31.5257 156.026 32.0537 157.136 33.1311C158.256 34.2084 158.8 35.4991 158.768 37.0031C158.8 38.5071 158.256 39.7977 157.136 40.8751C156.026 41.9524 154.72 42.4804 153.216 42.4591C151.701 42.4804 150.389 41.9524 149.28 40.8751C148.181 39.7977 147.648 38.5071 147.68 37.0031ZM157.024 36.9871C157.024 35.8777 156.661 34.9551 155.936 34.2191C155.21 33.4724 154.309 33.0991 153.232 33.0991C152.144 33.0991 151.237 33.4671 150.512 34.2031C149.797 34.9391 149.44 35.8671 149.44 36.9871C149.44 38.1177 149.797 39.0564 150.512 39.8031C151.226 40.5391 152.133 40.9071 153.232 40.9071C154.309 40.9071 155.21 40.5337 155.936 39.7871C156.661 39.0404 157.024 38.1071 157.024 36.9871ZM168.756 39.2111C168.756 40.1071 168.441 40.8431 167.812 41.4191C167.183 41.9951 166.356 42.2831 165.332 42.2831H160.804V31.7231H164.5C165.449 31.7231 166.212 31.9897 166.788 32.5231C167.375 33.0457 167.668 33.7177 167.668 34.5391C167.668 35.3604 167.375 36.0217 166.788 36.5231C167.407 36.7257 167.887 37.0617 168.228 37.5311C168.58 38.0004 168.756 38.5604 168.756 39.2111ZM164.34 33.2111H162.468V36.0591H164.34C164.852 36.0591 165.252 35.9311 165.54 35.6751C165.828 35.4191 165.972 35.0671 165.972 34.6191C165.972 34.1817 165.828 33.8404 165.54 33.595C165.263 33.339 164.863 33.2111 164.34 33.2111ZM167.044 39.1631C167.044 38.6511 166.879 38.2511 166.548 37.9631C166.217 37.6644 165.764 37.5151 165.188 37.5151H162.468V40.7951H165.188C165.775 40.7951 166.228 40.6511 166.548 40.3631C166.879 40.0644 167.044 39.6644 167.044 39.1631ZM177.626 42.2831L176.874 40.5231H172.122L171.37 42.2831H169.562L174.218 31.5471H174.794L179.45 42.2831H177.626ZM176.266 39.0671L174.506 34.699L172.73 39.0671H176.266ZM182.409 42.2831V33.2431H178.857V31.7231H187.673V33.2431H184.105V42.2831H182.409ZM189.257 42.2831V31.7231H190.953V35.6271H193.081C194.169 35.6271 195.054 35.9364 195.737 36.5551C196.43 37.1737 196.777 37.9737 196.777 38.9551C196.777 39.9364 196.436 40.7364 195.753 41.3551C195.07 41.9737 194.18 42.2831 193.081 42.2831H189.257ZM190.953 40.7791H193.065C193.673 40.7791 194.153 40.6137 194.505 40.2831C194.857 39.9524 195.033 39.5097 195.033 38.9551C195.033 38.4004 194.857 37.9577 194.505 37.6271C194.153 37.2964 193.673 37.1311 193.065 37.1311H190.953V40.7791Z" fill="#523B24"></path> <path fill-rule="evenodd" clip-rule="evenodd" d="M232.663 47.9048C230.938 46.7587 229.213 45.6127 227.488 44.4667V45.3206C227.488 45.8824 227.748 46.3543 228.22 46.6689C229.709 47.6576 231.174 48.6463 232.663 49.635C234.128 48.6463 235.616 47.68 237.081 46.6913C237.554 46.3767 237.814 45.9049 237.814 45.3431V44.4892L237.223 44.8712C235.711 45.8824 234.198 46.8936 232.663 47.9048ZM233.135 45.9049C233.135 40.8265 233.135 35.7705 233.135 30.6922C235.947 30.6922 238.759 30.6922 241.547 30.6922V34.4223L240.035 35.4335V32.1303H234.6C234.6 35.8155 234.6 39.5007 234.6 43.1859C236.42 41.9725 238.216 40.7815 240.035 39.5681V38.9389L241.547 37.9277V39.4333C241.547 39.995 241.287 40.4669 240.815 40.7815C238.239 42.4893 235.687 44.1971 233.135 45.9049ZM241.547 27.0968C235.616 27.0968 229.685 27.0968 223.754 27.0968V29.254H225.243V28.5125C230.181 28.5125 235.096 28.5125 240.035 28.5125V29.254H241.547V27.0968ZM232.19 45.9049C229.638 44.1971 227.062 42.4893 224.51 40.7815C224.038 40.4669 223.778 39.995 223.778 39.4333V37.9277L225.266 38.9165V39.5456L230.725 43.1859C230.725 42.2871 230.725 41.4107 230.725 40.5119L223.778 35.8829C223.778 34.1527 223.778 32.4224 223.778 30.6697C226.59 30.6697 229.402 30.6697 232.19 30.6697V35.411L230.701 34.4223V32.1078C228.882 32.1078 227.062 32.1078 225.243 32.1078V35.1414L232.19 39.7703C232.19 41.8152 232.19 43.86 232.19 45.9049Z" fill="#503A23"></path> <defs> <filter id="filter0_i_0_23" x="0" y="-1.10026" width="289.438" height="75.8321" filterUnits="userSpaceOnUse" color-interpolation-filters="sRGB"> <feFlood flood-opacity="0" result="BackgroundImageFix"></feFlood> <feBlend mode="normal" in="SourceGraphic" in2="BackgroundImageFix" result="shape"></feBlend> <feColorMatrix in="SourceAlpha" type="matrix" values="0 0 0 0 0 0 0 0 0 0 0 0 0 0 0 0 0 0 127 0" result="hardAlpha"></feColorMatrix> <feOffset dy="-1.10026"></feOffset> <feGaussianBlur stdDeviation="3.85091"></feGaussianBlur> <feComposite in2="hardAlpha" operator="arithmetic" k2="-1" k3="1"></feComposite> <feColorMatrix type="matrix" values="0 0 0 0 0.929167 0 0 0 0 0.84282 0 0 0 0 0.751076 0 0 0 1 0"></feColorMatrix> <feBlend mode="normal" in2="shape" result="effect1_innerShadow_0_23"></feBlend> </filter> <linearGradient id="paint0_linear_0_23" x1="134.782" y1="-4.8012e-07" x2="134.782" y2="74.8178" gradientUnits="userSpaceOnUse"> <stop stop-color="#DCBE9E"></stop> <stop offset="1" stop-color="#CDB194"></stop> </linearGradient> </defs> </svg> 