<?xml version="1.0" encoding="UTF-8"?> <svg xmlns="http://www.w3.org/2000/svg" width="140" height="59" viewBox="0 0 140 59" fill="none"> <path d="M0 0H140V51C140 51 97.5146 59 70 59C42.4854 59 0 51 0 51V0Z" fill="#D8BA9B"></path> <path d="M59.82 34V20.8H67.64V22.2H61.38V26.2H64.28C65.6133 26.2 66.68 26.5667 67.48 27.3C68.28 28.02 68.68 28.9467 68.68 30.08C68.68 31.24 68.28 32.1867 67.48 32.92C66.68 33.64 65.6133 34 64.28 34H59.82ZM61.38 32.6H64.26C65.1267 32.6 65.8067 32.3733 66.3 31.92C66.8067 31.4533 67.06 30.8467 67.06 30.1C67.06 29.3533 66.8067 28.7533 66.3 28.3C65.8067 27.8333 65.1267 27.6 64.26 27.6H61.38V32.6ZM70.5625 29.12C70.5358 27.7333 71.0292 26.5333 72.0425 25.52C73.0692 24.5067 74.2758 24.0133 75.6625 24.04C77.0625 24.0133 78.2692 24.5067 79.2825 25.52C80.2958 26.5333 80.7892 27.7333 80.7625 29.12C80.7892 30.4933 80.2892 31.6933 79.2625 32.72C78.2358 33.7333 77.0292 34.2267 75.6425 34.2C74.2558 34.2267 73.0558 33.7333 72.0425 32.72C71.0292 31.6933 70.5358 30.4933 70.5625 29.12ZM79.1825 29.14C79.1825 28.1 78.8425 27.2267 78.1625 26.52C77.4958 25.8133 76.6625 25.46 75.6625 25.46C74.6625 25.46 73.8225 25.8133 73.1425 26.52C72.4758 27.2133 72.1425 28.0867 72.1425 29.14C72.1425 30.1667 72.4758 31.0333 73.1425 31.74C73.8225 32.4333 74.6558 32.78 75.6425 32.78C76.6292 32.78 77.4625 32.4267 78.1425 31.72C78.8358 31.0133 79.1825 30.1533 79.1825 29.14ZM83.4695 34V24.26H85.0095V28.14H89.7895V24.26H91.3295V34H89.7895V29.5H85.0095V34H83.4695ZM101.62 24.26H103.26L98.46 35.36C97.74 37 96.64 37.82 95.16 37.82C94.64 37.82 94.14 37.7533 93.66 37.62V36.32C94.22 36.3867 94.6133 36.42 94.84 36.42C95.3733 36.42 95.8133 36.3 96.16 36.06C96.5067 35.8333 96.8 35.4333 97.04 34.86L97.56 33.7L93.52 24.26H95.18L98.4 32.02L101.62 24.26ZM104.391 29.12C104.364 27.7333 104.857 26.5333 105.871 25.52C106.884 24.5067 108.091 24.0133 109.491 24.04C110.331 24.04 111.097 24.2267 111.791 24.6C112.484 24.9733 113.057 25.4933 113.511 26.16L112.411 27.04C111.637 25.9867 110.671 25.46 109.511 25.46C108.511 25.46 107.671 25.82 106.991 26.54C106.311 27.2467 105.971 28.1067 105.971 29.12C105.971 30.1467 106.311 31.02 106.991 31.74C107.671 32.4467 108.511 32.8 109.511 32.8C110.657 32.8 111.617 32.28 112.391 31.24L113.491 32.1C112.531 33.5133 111.197 34.22 109.491 34.22C108.077 34.22 106.871 33.7267 105.871 32.74C104.884 31.74 104.391 30.5333 104.391 29.12Z" fill="#523B24"></path> <path d="M27.125 33.25C27.125 33.913 27.3884 34.5489 27.8572 35.0177C28.3261 35.4866 28.962 35.75 29.625 35.75H33.2188C33.2602 35.75 33.2999 35.7335 33.3292 35.7042C33.3585 35.6749 33.375 35.6351 33.375 35.5937V28.4062C33.375 28.3648 33.3585 28.325 33.3292 28.2957C33.2999 28.2664 33.2602 28.25 33.2188 28.25H27.4375C27.3546 28.25 27.2751 28.2829 27.2165 28.3415C27.1579 28.4001 27.125 28.4796 27.125 28.5625V33.25ZM33.375 26.8437V22.625H34.625V26.8437C34.625 26.8851 34.6415 26.9249 34.6708 26.9542C34.7001 26.9835 34.7398 27 34.7812 27H40.25C40.4629 26.9999 40.6743 26.9636 40.875 26.8925C41.2402 26.7629 41.5564 26.5234 41.7802 26.2069C42.004 25.8905 42.1244 25.5125 42.125 25.125V24.5C42.125 24.0027 41.9275 23.5258 41.5758 23.1741C41.2242 22.8225 40.7473 22.625 40.25 22.625H38.6664C38.6528 22.6247 38.6395 22.621 38.6278 22.614C38.6161 22.6071 38.6064 22.5972 38.5997 22.5854C38.593 22.5735 38.5895 22.5601 38.5895 22.5465C38.5896 22.5329 38.5932 22.5196 38.6 22.5078C38.9617 21.8972 39.0791 21.1724 38.9288 20.4789C38.7785 19.7853 38.3716 19.1742 37.7897 18.7681C37.2077 18.3619 36.4937 18.1908 35.7909 18.289C35.0881 18.3872 34.4483 18.7475 34 19.2976C33.5517 18.7475 32.9119 18.3872 32.2091 18.289C31.5063 18.1908 30.7923 18.3619 30.2103 18.7681C29.6284 19.1742 29.2215 19.7853 29.0712 20.4789C28.9209 21.1724 29.0383 21.8972 29.4 22.5078C29.4068 22.5196 29.4104 22.5329 29.4105 22.5465C29.4105 22.5601 29.407 22.5735 29.4003 22.5854C29.3936 22.5972 29.3839 22.6071 29.3722 22.614C29.3605 22.621 29.3472 22.6247 29.3336 22.625H27.75C27.2527 22.625 26.7758 22.8225 26.4242 23.1741C26.0725 23.5258 25.875 24.0027 25.875 24.5V25.125C25.8756 25.5125 25.996 25.8905 26.2198 26.2069C26.4436 26.5234 26.7598 26.7629 27.125 26.8925C27.3257 26.9636 27.5371 26.9999 27.75 27H33.2188C33.2602 27 33.2999 26.9835 33.3292 26.9542C33.3585 26.9249 33.375 26.8851 33.375 26.8437ZM34.625 21.0625C34.625 20.7534 34.7166 20.4513 34.8883 20.1944C35.06 19.9374 35.304 19.7372 35.5896 19.6189C35.8751 19.5006 36.1892 19.4697 36.4923 19.53C36.7954 19.5903 37.0738 19.7391 37.2924 19.9576C37.5109 20.1761 37.6597 20.4545 37.72 20.7576C37.7803 21.0607 37.7493 21.3749 37.6311 21.6604C37.5128 21.9459 37.3125 22.1899 37.0556 22.3616C36.7986 22.5333 36.4965 22.625 36.1875 22.625H34.625V21.0625ZM31.7008 19.5039C31.9148 19.4885 32.1298 19.5174 32.3322 19.5888C32.5346 19.6602 32.7201 19.7725 32.8772 19.9187C33.0342 20.065 33.1595 20.242 33.2452 20.4388C33.3308 20.6355 33.375 20.8478 33.375 21.0625V22.625H31.8125C31.4085 22.6239 31.0206 22.4664 30.7302 22.1855C30.4398 21.9046 30.2695 21.5221 30.255 21.1184C30.2406 20.7146 30.3831 20.3209 30.6526 20.02C30.9222 19.719 31.2979 19.5342 31.7008 19.5043V19.5039ZM34.7812 35.75H38.375C39.038 35.75 39.6739 35.4866 40.1428 35.0177C40.6116 34.5489 40.875 33.913 40.875 33.25V28.5625C40.875 28.4796 40.8421 28.4001 40.7835 28.3415C40.7249 28.2829 40.6454 28.25 40.5625 28.25H34.7812C34.7398 28.25 34.7001 28.2664 34.6708 28.2957C34.6415 28.325 34.625 28.3648 34.625 28.4062V35.5937C34.625 35.6351 34.6415 35.6749 34.6708 35.7042C34.7001 35.7335 34.7398 35.75 34.7812 35.75Z" fill="#523B24"></path> </svg> 