<svg width="42" height="43" viewBox="0 0 42 43" fill="none" xmlns="http://www.w3.org/2000/svg">
<g clip-path="url(#clip0_0_320)">
<path d="M39.6211 0.167847H2.37891C2.13281 0.167847 1.89355 0.277222 1.66113 0.495972C1.42871 0.714722 1.3125 0.960815 1.3125 1.23425V30.4784C1.3125 30.7518 1.42871 30.9979 1.66113 31.2167C1.89355 31.4354 2.13281 31.5448 2.37891 31.5448H18.457L9.7207 40.3221C9.50195 40.5135 9.39258 40.7528 9.39258 41.0399C9.39258 41.327 9.50195 41.5663 9.7207 41.7577C9.83008 41.8944 9.95312 41.9764 10.0898 42.0038C10.2266 42.0311 10.3633 42.0448 10.5 42.0448C10.6367 42.0448 10.7734 42.0175 10.9102 41.9628C11.0469 41.9081 11.1699 41.8397 11.2793 41.7577L20.0566 32.9803V41.1014C20.0566 41.3749 20.1729 41.621 20.4053 41.8397C20.6377 42.0585 20.877 42.1678 21.123 42.1678C21.3965 42.1678 21.6426 42.0585 21.8613 41.8397C22.0801 41.621 22.1895 41.3749 22.1895 41.1014V32.9803L30.9668 41.7577C31.1035 41.8944 31.2402 41.9764 31.377 42.0038C31.5137 42.0311 31.6367 42.0448 31.7461 42.0448C31.8828 42.0448 32.0195 42.0175 32.1562 41.9628C32.293 41.9081 32.4297 41.8397 32.5664 41.7577C32.7578 41.5663 32.8535 41.327 32.8535 41.0399C32.8535 40.7528 32.7578 40.5135 32.5664 40.3221L23.7891 31.5448H39.6211C39.8672 31.5448 40.1064 31.4354 40.3389 31.2167C40.5713 30.9979 40.6875 30.7518 40.6875 30.4784V1.23425C40.6875 0.960815 40.5713 0.714722 40.3389 0.495972C40.1064 0.277222 39.8672 0.167847 39.6211 0.167847ZM38.5547 2.30066V8.12488H3.44531V2.30066H38.5547ZM3.44531 29.412V10.2577H38.5547V29.412H3.44531Z" fill="#44CC62"/>
</g>
<defs>
<clipPath id="clip0_0_320">
<rect width="42" height="42" fill="white" transform="matrix(1 0 0 -1 0 42.1678)"/>
</clipPath>
</defs>
</svg>
