<svg width="42" height="43" viewBox="0 0 42 43" fill="none" xmlns="http://www.w3.org/2000/svg">
<g clip-path="url(#clip0_0_325)">
<path d="M41.0977 39.543H39.334V23.7109C39.334 23.1367 39.1152 22.6377 38.6777 22.2139C38.2402 21.79 37.707 21.5781 37.0781 21.5781H31.7051C31.1035 21.5781 30.584 21.79 30.1465 22.2139C29.709 22.6377 29.4902 23.1367 29.4902 23.7109V39.543H25.9219V18.625C25.9219 18.0508 25.7031 17.5518 25.2656 17.1279C24.8281 16.7041 24.2949 16.4922 23.666 16.4922H18.334C17.7051 16.4922 17.1719 16.7041 16.7344 17.1279C16.2969 17.5518 16.0781 18.0508 16.0781 18.625V39.625H12.5098V31.5039C12.5098 30.9023 12.291 30.3896 11.8535 29.9658C11.416 29.542 10.8965 29.3301 10.2949 29.3301H4.92188C4.29297 29.3301 3.75977 29.542 3.32227 29.9658C2.88477 30.3896 2.66602 30.9023 2.66602 31.5039V39.625H0.902344C0.628906 39.625 0.410156 39.707 0.246094 39.8711C0.0820312 40.0352 0 40.2539 0 40.5273C0 40.7734 0.0820312 40.9785 0.246094 41.1426C0.410156 41.3066 0.628906 41.3887 0.902344 41.3887H41.0977C41.3711 41.3887 41.5898 41.3066 41.7539 41.1426C41.918 40.9785 42 40.7734 42 40.5273C42 40.2539 41.918 40.0215 41.7539 39.8301C41.5898 39.6387 41.3711 39.543 41.0977 39.543ZM4.4707 39.543V31.3809C4.4707 31.2988 4.51172 31.2236 4.59375 31.1553C4.67578 31.0869 4.78516 31.0527 4.92188 31.0527H10.2949C10.4043 31.0527 10.5 31.0869 10.582 31.1553C10.6641 31.2236 10.7051 31.2988 10.7051 31.3809V39.543H4.4707ZM17.8828 39.543V18.625C17.8828 18.543 17.9238 18.4609 18.0059 18.3789C18.0879 18.2969 18.1973 18.2559 18.334 18.2559H23.666C23.8027 18.2559 23.9121 18.2969 23.9941 18.3789C24.0762 18.4609 24.1172 18.543 24.1172 18.625V39.625H17.8828V39.543ZM31.2949 39.543V23.7109C31.2949 23.6289 31.3359 23.5469 31.418 23.4648C31.5 23.3828 31.5957 23.3418 31.7051 23.3418H37.0781C37.2148 23.3418 37.3242 23.3828 37.4062 23.4648C37.4883 23.5469 37.5293 23.6289 37.5293 23.7109V39.543H31.2949ZM42 1.72656C42 1.67188 42 1.63086 42 1.60352C42 1.57617 42 1.5625 42 1.5625C42 1.50781 41.9863 1.47363 41.959 1.45996C41.9316 1.44629 41.918 1.41211 41.918 1.35742C41.918 1.35742 41.9111 1.34375 41.8975 1.31641C41.8838 1.28906 41.8633 1.27539 41.8359 1.27539C41.7812 1.24805 41.7334 1.22754 41.6924 1.21387C41.6514 1.2002 41.6309 1.16602 41.6309 1.11133C41.6309 1.11133 41.6309 1.10449 41.6309 1.09082C41.6309 1.07715 41.6035 1.05664 41.5488 1.0293C41.5488 1.0293 41.5352 1.0293 41.5078 1.0293C41.4805 1.0293 41.4668 1.0293 41.4668 1.0293C41.4121 1.0293 41.3643 1.01562 41.3232 0.988281C41.2822 0.960938 41.2344 0.947266 41.1797 0.947266H33.1406C32.8945 0.947266 32.6895 1.0293 32.5254 1.19336C32.3613 1.35742 32.2793 1.5625 32.2793 1.80859C32.2793 2.08203 32.3613 2.30078 32.5254 2.46484C32.6895 2.62891 32.8945 2.71094 33.1406 2.71094H38.8828L31.459 9.84766C31.0488 10.2578 30.5566 10.5244 29.9824 10.6475C29.4082 10.7705 28.8613 10.75 28.3418 10.5859L18.1289 8.00195C17.2812 7.75586 16.4404 7.74219 15.6064 7.96094C14.7725 8.17969 14.041 8.60352 13.4121 9.23242L2.95312 19.2402C2.76172 19.4316 2.66602 19.6436 2.66602 19.876C2.66602 20.1084 2.76172 20.3203 2.95312 20.5117C3.03516 20.5938 3.1377 20.6553 3.26074 20.6963C3.38379 20.7373 3.48633 20.7578 3.56836 20.7578C3.65039 20.7578 3.75293 20.7373 3.87598 20.6963C3.99902 20.6553 4.10156 20.5938 4.18359 20.5117L14.6426 10.5039C15.0527 10.1484 15.5312 9.88867 16.0781 9.72461C16.625 9.56055 17.1582 9.54688 17.6777 9.68359L27.8906 12.2676C28.7383 12.541 29.5996 12.5615 30.4746 12.3291C31.3496 12.0967 32.0879 11.6934 32.6895 11.1191L40.1953 3.85938V9.51953C40.1953 9.76562 40.2773 9.9707 40.4414 10.1348C40.6055 10.2988 40.8242 10.3809 41.0977 10.3809C41.3711 10.3809 41.5898 10.2988 41.7539 10.1348C41.918 9.9707 42 9.76562 42 9.51953V1.80859C42 1.80859 42 1.79492 42 1.76758C42 1.74023 42 1.72656 42 1.72656Z" fill="#FFAD00"/>
</g>
<defs>
<clipPath id="clip0_0_325">
<rect width="42" height="42" fill="white" transform="matrix(1 0 0 -1 0 42.168)"/>
</clipPath>
</defs>
</svg>
