<svg width="42" height="43" viewBox="0 0 42 43" fill="none" xmlns="http://www.w3.org/2000/svg">
<path d="M38.4316 18.9531C38.1582 18.9531 37.9395 19.0352 37.7754 19.1992C37.6113 19.3633 37.5293 19.5684 37.5293 19.8145V35.9336C37.5293 36.4258 37.3584 36.8428 37.0166 37.1846C36.6748 37.5264 36.2578 37.6973 35.7656 37.6973H3.56836C3.07617 37.6973 2.65918 37.5264 2.31738 37.1846C1.97559 36.8428 1.80469 36.4258 1.80469 35.9336V12.6777H23.707C23.9531 12.6777 24.1582 12.5957 24.3223 12.4316C24.4863 12.2676 24.5684 12.0488 24.5684 11.7754C24.5684 11.502 24.4863 11.2832 24.3223 11.1191C24.1582 10.9551 23.9531 10.873 23.707 10.873H1.80469V6.40234C1.80469 5.91016 1.97559 5.49316 2.31738 5.15137C2.65918 4.80957 3.07617 4.63867 3.56836 4.63867H33.0586C33.332 4.63867 33.5508 4.55664 33.7148 4.39258C33.8789 4.22852 33.9609 4.00977 33.9609 3.73633C33.9609 3.46289 33.8789 3.24414 33.7148 3.08008C33.5508 2.91602 33.332 2.83398 33.0586 2.83398H3.56836C2.58398 2.83398 1.74316 3.18262 1.0459 3.87988C0.348633 4.57715 0 5.41797 0 6.40234V35.9336C0 36.918 0.348633 37.7588 1.0459 38.4561C1.74316 39.1533 2.58398 39.502 3.56836 39.502H35.7656C36.75 39.502 37.5908 39.1533 38.2881 38.4561C38.9854 37.7588 39.334 36.918 39.334 35.9336V19.8145C39.334 19.5684 39.2383 19.3633 39.0469 19.1992C38.8555 19.0352 38.6504 18.9531 38.4316 18.9531ZM40.9336 6.60742C40.9336 6.60742 40.9199 6.60742 40.8926 6.60742C40.8652 6.60742 40.8789 6.60742 40.9336 6.60742C40.5781 6.25195 40.168 5.98535 39.7031 5.80762C39.2383 5.62988 38.7598 5.54102 38.2676 5.54102C37.7754 5.54102 37.29 5.62988 36.8115 5.80762C36.333 5.98535 35.916 6.25195 35.5605 6.60742L25.3887 16.8613C25.334 16.916 25.2861 16.9844 25.2451 17.0664C25.2041 17.1484 25.1562 17.2305 25.1016 17.3125L24.1172 22.3164C24.0898 22.4531 24.0967 22.6035 24.1377 22.7676C24.1787 22.9316 24.2676 23.0547 24.4043 23.1367C24.4863 23.2188 24.5752 23.2803 24.6709 23.3213C24.7666 23.3623 24.8828 23.3828 25.0195 23.3828C25.0742 23.3828 25.1084 23.3828 25.1221 23.3828C25.1357 23.3828 25.1699 23.3828 25.2246 23.3828L30.2285 22.4395C30.3105 22.4395 30.3926 22.4121 30.4746 22.3574C30.5566 22.3027 30.6113 22.2344 30.6387 22.1523L40.8516 11.9805C41.6172 11.2148 42 10.3193 42 9.29395C42 8.26855 41.6445 7.37305 40.9336 6.60742ZM39.7031 10.627L29.5723 20.7168L26.0859 21.4551L26.8242 17.9688L36.9141 7.83789C37.2695 7.48242 37.7344 7.30469 38.3086 7.30469C38.8828 7.30469 39.3477 7.48242 39.7031 7.83789C40.0586 8.24805 40.2363 8.72656 40.2363 9.27344C40.2363 9.82031 40.0586 10.2715 39.7031 10.627ZM8.94141 23.3828H16.9805C17.2539 23.3828 17.4727 23.3008 17.6367 23.1367C17.8008 22.9727 17.8828 22.7676 17.8828 22.5215C17.8828 22.248 17.8008 22.0293 17.6367 21.8652C17.4727 21.7012 17.2539 21.6191 16.9805 21.6191H8.94141C8.66797 21.6191 8.44922 21.7012 8.28516 21.8652C8.12109 22.0293 8.03906 22.248 8.03906 22.5215C8.03906 22.7676 8.12109 22.9727 8.28516 23.1367C8.44922 23.3008 8.66797 23.3828 8.94141 23.3828ZM8.94141 31.4629H26.373C26.6465 31.4629 26.8652 31.3809 27.0293 31.2168C27.1934 31.0527 27.2754 30.834 27.2754 30.5605C27.2754 30.2871 27.1934 30.0684 27.0293 29.9043C26.8652 29.7402 26.6465 29.6582 26.373 29.6582H8.94141C8.66797 29.6582 8.44922 29.7402 8.28516 29.9043C8.12109 30.0684 8.03906 30.2871 8.03906 30.5605C8.03906 30.834 8.12109 31.0527 8.28516 31.2168C8.44922 31.3809 8.66797 31.4629 8.94141 31.4629Z" fill="#F9423A"/>
</svg>
