<svg width="81" height="37" viewBox="0 0 81 37" fill="none" xmlns="http://www.w3.org/2000/svg">
<path d="M5.93407 35.4757V7.635C4.74725 8.59105 3.76648 9.27511 2.99176 9.6872C2.21703 10.0993 1.48352 10.4207 0.791209 10.6515L0 6.25039C0.89011 5.95368 1.7967 5.53335 2.71978 4.9894C3.65934 4.42896 4.52472 3.79434 5.31593 3.08555C6.12363 2.37676 6.77472 1.635 7.26923 0.860276H10.4835V35.4757H5.93407Z" fill="#0066FF"/>
<path d="M31.7063 36.168C28.6568 36.168 26.0442 35.385 23.8684 33.8191C21.6926 32.2531 20.0195 30.0938 18.8492 27.341C17.6953 24.5883 17.1184 21.4317 17.1184 17.8713C17.1184 14.3108 17.7365 11.2037 18.9728 8.54984C20.209 5.89599 21.9233 3.83555 24.1156 2.36852C26.3079 0.901485 28.8382 0.167969 31.7063 0.167969C34.6404 0.167969 37.1953 0.901485 39.3711 2.36852C41.5634 3.83555 43.2612 5.89599 44.4645 8.54984C45.6843 11.2037 46.2942 14.3108 46.2942 17.8713C46.2942 21.4317 45.7173 24.5883 44.5634 27.341C43.4096 30.0938 41.7448 32.2531 39.5689 33.8191C37.3931 35.385 34.7722 36.168 31.7063 36.168ZM31.7063 31.9152C33.7503 31.9152 35.481 31.3713 36.8986 30.2834C38.3327 29.1954 39.4206 27.6048 40.1623 25.5114C40.9206 23.418 41.2997 20.8713 41.2997 17.8713C41.2997 13.3713 40.4261 10.0086 38.6788 7.78335C36.9481 5.5416 34.6239 4.42072 31.7063 4.42072C28.9371 4.42072 26.6459 5.5416 24.8327 7.78335C23.0195 10.0086 22.1129 13.3713 22.1129 17.8713C22.1129 20.8713 22.4838 23.418 23.2255 25.5114C23.9838 27.6048 25.0717 29.1954 26.4893 30.2834C27.9233 31.3713 29.6623 31.9152 31.7063 31.9152Z" fill="#0066FF"/>
<path d="M66.2348 36.168C63.1853 36.168 60.5727 35.385 58.3968 33.8191C56.221 32.2531 54.5479 30.0938 53.3776 27.341C52.2238 24.5883 51.6468 21.4317 51.6468 17.8713C51.6468 14.3108 52.265 11.2037 53.5012 8.54984C54.7375 5.89599 56.4518 3.83555 58.6441 2.36852C60.8364 0.901485 63.3666 0.167969 66.2348 0.167969C69.1688 0.167969 71.7238 0.901485 73.8996 2.36852C76.0919 3.83555 77.7897 5.89599 78.993 8.54984C80.2128 11.2037 80.8227 14.3108 80.8227 17.8713C80.8227 21.4317 80.2457 24.5883 79.0919 27.341C77.938 30.0938 76.2732 32.2531 74.0974 33.8191C71.9216 35.385 69.3007 36.168 66.2348 36.168ZM66.2348 31.9152C68.2787 31.9152 70.0095 31.3713 71.4271 30.2834C72.8611 29.1954 73.949 27.6048 74.6908 25.5114C75.449 23.418 75.8282 20.8713 75.8282 17.8713C75.8282 13.3713 74.9545 10.0086 73.2073 7.78335C71.4765 5.5416 69.1523 4.42072 66.2348 4.42072C63.4655 4.42072 61.1743 5.5416 59.3611 7.78335C57.5479 10.0086 56.6413 13.3713 56.6413 17.8713C56.6413 20.8713 57.0122 23.418 57.754 25.5114C58.5122 27.6048 59.6001 29.1954 61.0177 30.2834C62.4518 31.3713 64.1908 31.9152 66.2348 31.9152Z" fill="#0066FF"/>
</svg>
