<svg width="9" height="10" viewBox="0 0 9 10" fill="none" xmlns="http://www.w3.org/2000/svg">
<g clip-path="url(#clip0_0_23)">
<path d="M8.49408 2.48688C8.26491 2.26292 7.99148 2.15094 7.67377 2.15094C7.35606 2.15094 7.08523 2.26292 6.86127 2.48688L4.83002 4.54938L2.79877 2.48688C2.57481 2.26292 2.30398 2.15094 1.98627 2.15094C1.66856 2.15094 1.39512 2.26292 1.16595 2.48688C0.941996 2.71604 0.830017 2.98948 0.830017 3.30719C0.830017 3.6249 0.941996 3.89573 1.16595 4.11969L3.87689 6.83063C4.00189 6.95563 4.14773 7.05328 4.31439 7.1236C4.48106 7.19391 4.65293 7.22906 4.83002 7.22906C5.0071 7.22906 5.17898 7.19391 5.34564 7.1236C5.51231 7.05328 5.65814 6.95563 5.78314 6.83063L8.49408 4.11969C8.71804 3.89573 8.83002 3.6249 8.83002 3.30719C8.83002 2.98948 8.71804 2.71604 8.49408 2.48688Z" fill="#F9423A"/>
</g>
<defs>
<clipPath id="clip0_0_23">
<rect width="8" height="9" fill="white" transform="matrix(1 0 0 -1 0.830017 9.19)"/>
</clipPath>
</defs>
</svg>
