<svg width="23" height="24" viewBox="0 0 23 24" fill="none" xmlns="http://www.w3.org/2000/svg">
<g clip-path="url(#clip0_0_49)">
<path d="M22.8203 22.314L16.2617 15.7779C16.6211 15.3736 16.9468 14.9393 17.2388 14.4752C17.5308 14.011 17.7816 13.5318 17.9912 13.0377C18.2308 12.4537 18.4105 11.8622 18.5303 11.2632C18.6351 10.6643 18.6875 10.0616 18.6875 9.45514C18.6875 8.84869 18.6201 8.24599 18.4854 7.64703C18.3656 7.04807 18.1784 6.46409 17.9238 5.89508C17.6693 5.31109 17.3698 4.77203 17.0254 4.27789C16.681 3.76877 16.2917 3.30458 15.8574 2.88531C15.4232 2.46604 14.9515 2.09169 14.4424 1.76226C13.9333 1.43284 13.3867 1.15582 12.8027 0.93121C12.2487 0.676653 11.6722 0.489477 11.0732 0.369686C10.4893 0.249895 9.89779 0.189999 9.29883 0.189999C8.69987 0.189999 8.10091 0.257381 7.50195 0.392147C6.90299 0.511938 6.31901 0.691626 5.75 0.93121C5.16602 1.17079 4.61947 1.47027 4.11035 1.82965C3.60124 2.17405 3.1333 2.56337 2.70654 2.99762C2.27979 3.43186 1.89421 3.90354 1.5498 4.41265C1.22038 4.92177 0.935872 5.46083 0.696289 6.02984C0.456706 6.61383 0.284505 7.2053 0.179688 7.80426C0.0598958 8.40321 0 9.00217 0 9.60113C0 10.2001 0.0673828 10.799 0.202148 11.398C0.32194 11.997 0.509115 12.5884 0.763672 13.1724C1.01823 13.7414 1.31771 14.2805 1.66211 14.7896C2.02148 15.2987 2.41455 15.7667 2.84131 16.1934C3.26807 16.6202 3.736 16.9983 4.24512 17.3277C4.76921 17.6571 5.31576 17.9267 5.88477 18.1363C6.46875 18.3908 7.04899 18.5743 7.62549 18.6866C8.20199 18.7989 8.77474 18.855 9.34375 18.855C9.95768 18.855 10.5716 18.7989 11.1855 18.6866C11.7995 18.5743 12.4134 18.3908 13.0273 18.1363C13.4915 17.9267 13.9408 17.6796 14.375 17.3951C14.8092 17.1106 15.221 16.8111 15.6104 16.4966L22.1689 23.0552C22.2139 23.0852 22.27 23.1151 22.3374 23.1451C22.4048 23.175 22.4684 23.19 22.5283 23.19C22.6032 23.19 22.6668 23.175 22.7192 23.1451C22.7716 23.1151 22.8278 23.0852 22.8877 23.0552C22.9626 22.9354 22.9963 22.8007 22.9888 22.6509C22.9813 22.5012 22.9251 22.3889 22.8203 22.314ZM12.668 17.2154C11.6198 17.6496 10.5492 17.8668 9.45605 17.8668C8.36296 17.8668 7.29232 17.6721 6.24414 17.2828C5.19596 16.8485 4.2863 16.2458 3.51514 15.4747C2.74398 14.7035 2.14128 13.8163 1.70703 12.813C1.27279 11.7649 1.05192 10.6942 1.04443 9.60113C1.03695 8.50803 1.23535 7.43739 1.63965 6.38922C2.07389 5.35601 2.67285 4.45009 3.43652 3.67144C4.2002 2.8928 5.09115 2.28635 6.10938 1.85211C6.64844 1.64247 7.1875 1.4815 7.72656 1.3692C8.26562 1.25689 8.80469 1.20074 9.34375 1.20074C9.88281 1.20074 10.4069 1.25689 10.916 1.3692C11.4251 1.4815 11.9342 1.64247 12.4434 1.85211C13.4915 2.28635 14.4012 2.88906 15.1724 3.66021C15.9435 4.43137 16.5462 5.31858 16.9805 6.32183C17.4147 7.37001 17.6356 8.44065 17.6431 9.53375C17.6506 10.6268 17.4521 11.6975 17.0479 12.7457C16.8382 13.2847 16.5762 13.7864 16.2617 14.2505C15.9473 14.7147 15.6104 15.149 15.251 15.5533C14.8916 15.8827 14.4948 16.1859 14.0605 16.4629C13.6263 16.74 13.1621 16.9908 12.668 17.2154Z" fill="#F9423A"/>
</g>
<defs>
<clipPath id="clip0_0_49">
<rect width="23" height="23" fill="white" transform="matrix(1 0 0 -1 0 23.19)"/>
</clipPath>
</defs>
</svg>
