<svg enable-background="new -0.817 -0.298 91 80" height="296.499727" viewBox="-.817 -.298 91 80" width="337.268439" xmlns="http://www.w3.org/2000/svg"><path d="m54.216 25.676c1.416-.155 1.971-.282 3.221-.715 1.186-.4 2.259-.907 3.188-1.505 2.298-1.474 4.008-3.633 4.896-6.191.434-1.269.66-2.592.66-3.919 0-2.757-.972-5.467-2.732-7.614-.83-1.01-1.773-1.865-2.816-2.536-2.715-1.75-6.207-2.788-10.188-3.037-1.69-.11-3.57-.159-5.653-.159h-20.086v52.623h18.296c5.382 0 9.104-.231 12.229-.777 4.076-.704 7.822-2.599 10.239-5.182 2.248-2.394 3.43-5.337 3.43-8.529 0-2.2-.571-4.2-1.703-5.989-1.267-1.996-3.193-3.629-5.552-4.713-1.913-.878-4.663-1.57-6.927-1.725-.112-.007-.28-.022-.502-.032z" fill="#f68b1f"/><path d="m7.348 71.907.288.082c1.388.523 2.053 1.716 2.053 2.965 0 1.791-1.13 4.183-5.525 4.183-.9 0-2.556-.04-4.016-.058l-.148-.15v-13.149l.146-.15c1.033-.02 2.787-.058 4.288-.058 3.208 0 4.787 1.207 4.787 3.344 0 1.227-.598 2.307-1.699 2.911zm-3.185 7.08c4.323 0 5.375-2.318 5.375-4.033 0-1.363-.817-2.649-2.57-2.999v-.039c1.363-.507 2.104-1.656 2.104-3 0-2.026-1.461-3.194-4.637-3.194-1.499 0-3.252.038-4.285.058v13.149c1.46.018 3.117.058 4.013.058zm.077-11.421-1.817.036v3.581l1.486.018c2.008 0 2.791-.734 2.791-1.954 0-.997-.478-1.681-2.46-1.681zm0-.15c2.025 0 2.61.741 2.61 1.831 0 1.325-.896 2.104-2.941 2.104-.604 0-1.285 0-1.637-.02v-3.876c.507-.02 1.404-.039 1.968-.039zm-.293 5.702-1.524.017v3.919l.67.044c.348.015.752.025 1.128.025 2.19 0 2.869-.877 2.869-2.091 0-1.383-1.199-1.914-3.143-1.914zm0-.15c1.948 0 3.292.545 3.292 2.064 0 1.306-.778 2.241-3.019 2.241-.759 0-1.617-.04-1.948-.079v-4.207c.292-.019 1.287-.019 1.675-.019z"/><path d="m17.739 79.273c-4.146 0-6.715-2.508-6.715-6.637 0-4.187 2.799-7.182 7.318-7.182 1.242 0 2.445.178 3.722.532l.109.163-.253 2.045-.204.121c-1.116-.442-2.285-.71-3.53-.71-2.535 0-4.583 1.644-4.583 4.817 0 2.969 1.665 4.661 4.408 4.661.372 0 .72-.028 1.048-.08l.828-.199v-3.628h-2.908l-.15-.15v-1.734l.15-.15h5.182l.149.15v7.032l-.096.14c-1.324.515-2.956.809-4.475.809zm0-.15c1.499 0 3.116-.292 4.422-.799v-7.032h-5.182v1.734h3.059v3.896c-.604.195-1.267.311-2.026.311-2.824 0-4.558-1.772-4.558-4.811 0-3.253 2.123-4.967 4.732-4.967 1.268 0 2.455.273 3.585.721l.253-2.045c-1.266-.351-2.454-.527-3.682-.527-4.441 0-7.168 2.922-7.168 7.032.001 4.052 2.494 6.487 6.565 6.487z"/><path d="m35.173 79.273c-4.146 0-6.714-2.508-6.714-6.637 0-4.187 2.799-7.182 7.317-7.182 1.241 0 2.444.178 3.721.532l.109.163-.253 2.045-.204.121c-1.116-.442-2.285-.71-3.529-.71-2.534 0-4.582 1.644-4.582 4.817 0 2.969 1.664 4.661 4.407 4.661.372 0 .72-.028 1.048-.08l.828-.199v-3.628h-2.908l-.15-.15v-1.734l.15-.15h5.182l.15.15v7.032l-.097.14c-1.325.515-2.957.809-4.475.809zm0-.15c1.5 0 3.117-.292 4.422-.799v-7.032h-5.182v1.734h3.059v3.896c-.604.195-1.268.311-2.026.311-2.825 0-4.558-1.772-4.558-4.811 0-3.253 2.123-4.967 4.732-4.967 1.267 0 2.454.273 3.584.721l.254-2.045c-1.267-.351-2.454-.527-3.682-.527-4.44 0-7.168 2.922-7.168 7.032 0 4.052 2.494 6.487 6.565 6.487z"/><path d="m49.46 79.009-3.482-5.541h-1.169v5.461l-.149.15h-2.123l-.15-.15v-13.149l.144-.15c.959-.039 2.789-.058 4.176-.058 2.89 0 4.862.954 4.862 3.792 0 1.719-.944 2.98-2.599 3.575l-.538.153.93 1.292.001.002 2.921 4.461-.125.232h-2.57zm.127-.08h2.57l-2.921-4.461c-.37-.546-.7-.994-1.052-1.462 2.065-.447 3.233-1.753 3.233-3.642 0-2.727-1.851-3.642-4.713-3.642-1.385 0-3.216.019-4.169.058v13.149h2.123v-5.611h1.401zm-3.137-11.344-1.642.037v3.835l1.623.036c1.787 0 2.596-.709 2.596-1.992 0-1.438-.735-1.916-2.577-1.916zm0-.15c1.87 0 2.728.526 2.728 2.066 0 1.382-.915 2.142-2.746 2.142-.526 0-1.5-.019-1.772-.039v-4.129c.35-.02 1.051-.04 1.79-.04z"/><path d="m59.073 79.273c-4.087 0-6.071-2.687-6.071-6.773 0-4.437 2.911-7.065 6.461-7.065 3.627 0 6.071 2.284 6.071 6.754 0 4.436-2.89 7.084-6.461 7.084zm0-.15c3.486 0 6.312-2.571 6.312-6.934 0-4.403-2.377-6.604-5.922-6.604-3.468 0-6.312 2.552-6.312 6.915 0 4.032 1.928 6.623 5.922 6.623zm.195-11.518c-1.931 0-3.706 1.548-3.706 4.642 0 2.945 1.189 4.836 3.667 4.836 1.858 0 3.746-1.474 3.746-4.68 0-3.131-1.355-4.798-3.707-4.798zm0-.15c2.455 0 3.857 1.773 3.857 4.948 0 3.272-1.947 4.83-3.896 4.83-2.59 0-3.817-2.006-3.817-4.986-.001-3.156 1.83-4.792 3.856-4.792z"/><path d="m72.65 79.273c-4.218 0-5.157-2.361-5.157-4.825v-8.668l.15-.15h2.124l.15.15v8.512c0 1.709.524 2.928 2.868 2.928 2.073 0 2.968-.808 2.968-3.201v-8.239l.149-.15h2.084l.15.15v8.084c.002 3.582-1.969 5.409-5.486 5.409zm0-.15c3.448 0 5.337-1.753 5.337-5.259v-8.084h-2.084v8.239c0 2.455-.974 3.351-3.117 3.351-2.435 0-3.019-1.325-3.019-3.078v-8.512h-2.124v8.668c.001 2.415.878 4.675 5.007 4.675z"/><path d="m84.669 74.247-1.369-.034v4.716l-.15.15h-2.123l-.149-.15v-13.149l.144-.15c1.016-.039 2.691-.078 3.979-.078 2.982 0 5.02 1.291 5.02 4.085-.001 3.166-2.542 4.61-5.352 4.61zm0-.15c2.766 0 5.201-1.402 5.201-4.46 0-2.689-1.929-3.935-4.87-3.935-1.285 0-2.96.039-3.974.078v13.149h2.123v-4.87c.43.018 1.15.038 1.52.038zm.155-6.472-1.524.017v4.498l1.408.035c1.742 0 2.792-.787 2.792-2.324 0-1.411-.821-2.226-2.676-2.226zm0-.15c1.909 0 2.825.876 2.825 2.376 0 1.636-1.149 2.474-2.941 2.474-.545 0-1.092-.02-1.559-.039v-4.792c.389-.019 1.169-.019 1.675-.019z"/><path d="m24.707 52.623h18.295c5.382 0 9.104-.231 12.229-.777 4.076-.704 7.822-2.599 10.239-5.182 2.248-2.394 3.43-5.337 3.43-8.529 0-2.2-.57-4.2-1.703-5.989-1.267-1.996-3.193-3.629-5.552-4.713-1.913-.878-4.663-1.57-6.927-1.725-.112-.007-.28-.022-.503-.032 1.416-.155 1.971-.282 3.221-.715 1.187-.4 2.259-.907 3.188-1.505 2.298-1.474 4.008-3.633 4.896-6.191.434-1.269.66-2.592.66-3.919 0-2.757-.972-5.467-2.732-7.614-.83-1.01-1.773-1.865-2.816-2.536-2.715-1.75-6.207-2.788-10.188-3.037-1.689-.11-3.569-.159-5.652-.159h-20.085z" fill="#f68b1f"/><path d="m54.216 7.817v3.507h-3.651c.39.276.538.397.831.725.241.259.464.528.657.812.701 1.051 1.028 2.148 1.028 3.484 0 1.389-.375 2.739-1.066 3.892-.691 1.141-1.664 2.038-2.941 2.712-.933.495-1.78.783-3.364 1.149-.473.112-.914.209-1.314.298-.518.106-.845.173-.975.197-.33.079-.632.171-.919.268-.282.1-.547.239-.785.41-.455.321-.719.825-.719 1.385 0 .494.232 1.024.575 1.337.572.52 1.354.76 3.181.992l1.864.242c2.07.26 3.173.472 4.402.837.625.194 1.199.426 1.726.703 1.313.697 2.329 1.919 2.8 3.366.199.622.306 1.301.306 2.005 0 1.931-.841 3.894-2.249 5.254-1.423 1.362-3.581 2.276-6.303 2.644-.956.133-1.93.197-2.927.197-2.84 0-5.318-.514-7.248-1.502-1.588-.827-2.994-2.272-3.601-3.733-.305-.727-.463-1.545-.463-2.401 0-2.296 1.122-4.191 3.159-5.342.705-.396 1.573-.734 2.453-.943.092-.024.233-.054.425-.094-.66-.243-.876-.347-1.267-.629-.776-.55-1.216-1.418-1.216-2.411 0-.872.359-1.683.999-2.249.245-.222.524-.409.831-.592.436-.248.825-.413 1.451-.635.082-.025.2-.074.366-.126-.718-.187-.985-.271-1.434-.462-.486-.215-.962-.482-1.42-.815-1.215-.882-2.051-2.007-2.562-3.437-.312-.881-.478-1.811-.478-2.741 0-1.796.614-3.669 1.655-5.065.612-.81 1.397-1.505 2.295-2.033 1.333-.784 2.829-1.17 4.923-1.281.69-.041 1.49-.058 2.392-.058.576 0 1.62.013 3.119.04zm-5.748 8.658c.011-.13.013-.263.013-.39 0-1.207-.468-2.362-1.309-3.192-.875-.875-2.088-1.323-3.529-1.323-1.354 0-2.511.4-3.411 1.175-.959.833-1.42 1.942-1.42 3.405 0 1.429.466 2.53 1.403 3.341.407.354.886.622 1.418.816.624.22 1.332.345 2.03.345 1.244 0 2.328-.333 3.123-.962 1-.784 1.556-1.856 1.682-3.215zm2.785 20.193.001-.142c0-1.05-.522-1.963-1.466-2.54-.502-.312-1.062-.539-1.647-.683-1.105-.258-2.335-.379-3.88-.379-2.063 0-3.453.212-4.604.709-.866.378-1.548 1.041-1.85 1.806-.123.321-.198.688-.198 1.074 0 .536.149 1.098.41 1.545.374.656 1.014 1.19 1.923 1.616 1.135.531 2.42.799 4.14.845.158 0 .318.007.475.007 1.702 0 2.977-.227 4.189-.723.5-.21.944-.473 1.322-.786.748-.611 1.133-1.381 1.185-2.349z" fill="#fff"/><path d="m4.163 78.987c-.896 0-2.553-.04-4.014-.058v-13.149c1.033-.02 2.786-.058 4.285-.058 3.176 0 4.637 1.168 4.637 3.194 0 1.344-.74 2.493-2.104 3v.039c1.753.35 2.57 1.636 2.57 2.999.001 1.715-1.051 4.033-5.374 4.033m.077-11.571c-.564 0-1.461.019-1.968.039v3.876c.352.02 1.033.02 1.637.02 2.045 0 2.941-.779 2.941-2.104.001-1.09-.584-1.831-2.61-1.831zm-.293 5.552c-.389 0-1.383 0-1.675.019v4.207c.331.039 1.189.079 1.948.079 2.24 0 3.019-.935 3.019-2.241 0-1.519-1.343-2.064-3.292-2.064z"/><path d="m17.739 79.123c-4.071 0-6.564-2.435-6.564-6.487 0-4.11 2.727-7.032 7.168-7.032 1.228 0 2.416.176 3.682.527l-.253 2.045c-1.13-.448-2.317-.721-3.585-.721-2.609 0-4.732 1.714-4.732 4.967 0 3.039 1.733 4.811 4.558 4.811.76 0 1.422-.116 2.026-.311v-3.896h-3.059v-1.734h5.182v7.032c-1.307.507-2.924.799-4.423.799"/><path d="m35.173 79.123c-4.071 0-6.564-2.435-6.564-6.487 0-4.11 2.728-7.032 7.168-7.032 1.228 0 2.415.176 3.682.527l-.254 2.045c-1.13-.448-2.317-.721-3.584-.721-2.609 0-4.732 1.714-4.732 4.967 0 3.039 1.732 4.811 4.558 4.811.759 0 1.422-.116 2.026-.311v-3.896h-3.059v-1.734h5.182v7.032c-1.306.507-2.923.799-4.423.799"/><path d="m49.587 78.929-3.526-5.611h-1.401v5.611h-2.123v-13.149c.953-.039 2.784-.058 4.169-.058 2.862 0 4.713.915 4.713 3.642 0 1.889-1.168 3.195-3.233 3.642.352.468.682.916 1.052 1.462l2.921 4.461zm-3.137-11.494c-.739 0-1.44.02-1.791.04v4.129c.272.02 1.246.039 1.772.039 1.831 0 2.746-.76 2.746-2.142.001-1.54-.857-2.066-2.727-2.066z"/><path d="m59.073 79.123c-3.994 0-5.922-2.591-5.922-6.623 0-4.363 2.844-6.915 6.312-6.915 3.545 0 5.922 2.201 5.922 6.604 0 4.363-2.825 6.934-6.312 6.934m.195-11.668c-2.025 0-3.856 1.636-3.856 4.792 0 2.98 1.228 4.986 3.817 4.986 1.949 0 3.896-1.558 3.896-4.83 0-3.175-1.402-4.948-3.857-4.948z"/><path d="m72.65 79.123c-4.13 0-5.007-2.26-5.007-4.675v-8.668h2.124v8.512c0 1.753.584 3.078 3.019 3.078 2.144 0 3.117-.896 3.117-3.351v-8.239h2.084v8.084c0 3.506-1.888 5.259-5.337 5.259"/><path d="m84.669 74.097c-.37 0-1.09-.02-1.52-.038v4.87h-2.123v-13.149c1.014-.039 2.688-.078 3.974-.078 2.941 0 4.87 1.246 4.87 3.935 0 3.058-2.435 4.46-5.201 4.46m.155-6.622c-.506 0-1.286 0-1.675.019v4.792c.467.019 1.014.039 1.559.039 1.792 0 2.941-.838 2.941-2.474 0-1.5-.916-2.376-2.825-2.376z"/></svg>