<?xml version="1.0" encoding="UTF-8"?>
<!-- Generator: Adobe Illustrator 13.0.1, SVG Export Plug-In  -->
<!DOCTYPE svg PUBLIC "-//W3C//DTD SVG 1.1//EN" "http://www.w3.org/Graphics/SVG/1.1/DTD/svg11.dtd" [
	<!ENTITY ns_flows "http://ns.adobe.com/Flows/1.0/">
]>
<svg version="1.1" xmlns="http://www.w3.org/2000/svg" xmlns:xlink="http://www.w3.org/1999/xlink" xmlns:a="http://ns.adobe.com/AdobeSVGViewerExtensions/3.0/" x="0px" y="0px" width="327px" height="79px" viewBox="-0.597 -0.288 327 79" enable-background="new -0.597 -0.288 327 79" xml:space="preserve">
<defs>
</defs>
<path fill-rule="evenodd" clip-rule="evenodd" fill="#0075BF" d="M169.933,46.563l11.725-30.951c0.529-1.342,1.276-2.53,2.696-2.604  h15.883l-7.317,52.068h-10.434l5.487-39.051l-16.087,39.051h-9.274l-4.592-39.217l-5.511,39.217h-10.6l6.925-49.276  c0.272-1.409,1.314-2.727,2.83-2.792h14.496L169.933,46.563z"/>
<path fill-rule="evenodd" clip-rule="evenodd" fill="#0075BF" d="M233.181,65.063l6.906-49.147c0.229-1.438,1.262-2.817,2.789-2.92  h8.386l-7.316,52.067H233.181z"/>
<path fill-rule="evenodd" clip-rule="evenodd" fill="#0075BF" d="M248.365,35.971l11.056-20.05c0.771-1.383,1.368-2.735,2.764-2.926  h10.276l-12.691,23.141l6.658,28.927H254.71L248.365,35.971z"/>
<path fill-rule="evenodd" clip-rule="evenodd" fill="#0075BF" d="M270.436,65.079l6.923-49.261c0.267-1.409,1.302-2.73,2.812-2.809  h8.349l-7.317,52.069H270.436z"/>
<path fill="#0075BF" d="M304.689,21.964l-2.17,15.455c1.739,0.013,7.461,0.042,9.07-0.782c5.493-2.851,6.792-14.59-2.347-14.673  H304.689z M287.875,65.062l6.909-49.216c0.264-1.465,1.36-2.846,2.959-2.846l6.963-0.003h1.242l4.631,0.041  c4.176,0.042,8.855,0.62,11.887,3.802c5.008,5.909,4.417,17.029-1.625,24.096c-5.328,6.182-14.331,5.823-19.644,5.902l-2.558,18.224  H287.875z"/>
<path fill-rule="evenodd" clip-rule="evenodd" fill="#0075BF" d="M231.332,50.853c0-16.183-17.622-15.317-17.622-25.083  c0-3.565,2.067-5.49,5.561-5.49c4.349,0,4.99,3.921,4.99,7.771h9.999c0.712-10.766-4.011-15.952-14.49-15.952  c-13.117,0-16.967,6.897-16.967,14.954c0,15.326,17.622,15.887,17.622,25.154c0,3.493-1.782,5.846-5.418,5.846  c-5.918,0-6.132-4.135-6.132-9.054h-10.283c-0.57,8.911,1.443,17.234,14.774,17.234C221.565,66.233,231.332,64.184,231.332,50.853z"/>
<path fill-rule="evenodd" clip-rule="evenodd" fill="#0075BF" d="M92.315,65.06l6.914-49.197c0.251-1.426,1.292-2.776,2.819-2.855  h23.369l-1.273,9.059h-15.027l-1.626,11.569h14.538l-1.289,9.177h-14.539l-1.852,13.175h15.447l-1.275,9.073H92.315z"/>
<path fill-rule="evenodd" clip-rule="evenodd" fill="#0075BF" d="M124.418,65.139l6.898-49.086c0.218-1.485,1.295-2.928,2.893-2.982  h8.291l-7.317,52.068H124.418z"/>
<path fill-rule="evenodd" clip-rule="evenodd" fill="#0075BF" d="M7.497,17.333C9.003,7.761,17.985,0,27.558,0h43.333l-2.044,12.995  h-32.5c-7.18,0-11.749,5.82-12.878,13h43.333c-1.129,7.18-5.699,13-12.878,13H32.257c-7.18,0-11.749,5.82-12.879,13h43.334  c-1.129,7.18-5.699,13-12.878,13h-32.5H0L7.497,17.333z"/>
<path fill-rule="evenodd" clip-rule="evenodd" fill="#BCBEC0" d="M78.682,60.662c-1.506,9.573-10.487,17.334-20.06,17.334H15.288  l2.045-13h32.5c7.18,0,11.749-5.82,12.878-13H19.378c1.13-7.18,5.699-13,12.879-13h21.667c7.18,0,11.749-5.821,12.878-13.001H23.468  c1.129-7.179,5.699-13,12.878-13H86.18L78.682,60.662z"/>
</svg>