<svg width="189" height="90" viewBox="0 0 189 90" fill="none" xmlns="http://www.w3.org/2000/svg">
<path d="M59.1746 27.7983H71.0556V31.6804H65.4037V58.9569H59.1746V27.7983Z" fill="white"/>
<path d="M78.0994 47.2597L79.167 31.6804H79.5246L80.5921 47.2597H78.0994ZM71.2012 58.9569H77.3L77.8773 50.682H80.8143L81.3941 58.9569H87.4904L84.2418 27.7983H74.4498L71.2012 58.9569Z" fill="white"/>
<path d="M96.4113 48.0514V53.9255C96.4113 54.7173 97.0242 54.9471 97.3818 54.9471C97.9692 54.9471 98.3778 54.4619 98.3778 53.9255V46.6722C98.3778 45.7017 98.199 44.6291 95.8749 44.6291H93.3465V41.2067H95.9771C97.7393 41.2067 98.3778 40.7981 98.3778 38.8826V32.702C98.3778 32.1657 97.9692 31.6804 97.3818 31.6804C97.0242 31.6804 96.4113 31.8847 96.4113 32.702V37.7844H90.1796V33.366C90.1796 31.1951 90.4349 27.7983 94.8023 27.7983H99.9613C104.329 27.7983 104.61 31.1951 104.61 33.366V38.3463C104.61 41.743 102.234 42.6625 100.37 42.5859V42.8923C104.558 42.7902 104.61 46.0082 104.61 47.1064V53.3892C104.61 55.5856 104.329 58.9569 99.9613 58.9569H94.8023C90.4349 58.9569 90.1796 55.5856 90.1796 53.3892V48.0514H96.4113Z" fill="white"/>
<path d="M108.697 27.7983H123.127V58.9569H116.895V31.6804H114.928V58.9569H108.697V27.7983Z" fill="white"/>
<path d="M133.445 44.9355V31.6804H134.262C134.926 31.6804 135.411 32.2423 135.411 33.2383V43.3776C135.411 44.3737 134.926 44.9355 134.262 44.9355H133.445ZM127.213 58.9569H133.445V48.3579H137.02C141.362 48.3579 141.643 44.9866 141.643 42.7902V33.366C141.643 31.1951 141.362 27.7983 137.02 27.7983H127.213V58.9569Z" fill="white"/>
<path d="M153.927 53.9255C153.927 54.4619 153.518 54.9471 152.931 54.9471C152.573 54.9471 151.96 54.7173 151.96 53.9255V32.702C151.96 31.8847 152.573 31.6804 152.931 31.6804C153.518 31.6804 153.927 32.1657 153.927 32.702V53.9255ZM145.729 53.3892C145.729 55.5856 146.01 58.9569 150.351 58.9569H155.536C159.878 58.9569 160.159 55.5856 160.159 53.3892V33.366C160.159 31.1951 159.878 27.7983 155.536 27.7983H150.351C146.01 27.7983 145.729 31.1951 145.729 33.366V53.3892Z" fill="white"/>
<path d="M180.437 27.7983H188.559V58.9569H182.327V39.4189H182.097L178.879 58.9569H173.899L170.707 39.4189H170.477V58.9569H164.245V27.7983H172.341L176.402 49.7115L180.437 27.7983Z" fill="white"/>
<path d="M49.7464 16.2433C47.8385 7.89178 43.0575 1.09821 42.3986 0C41.3565 1.55793 37.5435 7.55976 35.605 14.2001C33.4877 21.6322 33.1762 28.2214 33.9066 34.683C34.6319 41.1701 37.3723 47.836 37.3723 47.836C38.8281 51.3094 41.0092 55.0637 42.4292 56.9026C44.5107 54.1954 49.2943 46.1248 50.7858 35.6024C51.6159 29.7283 51.6516 24.5948 49.7464 16.2433ZM42.3986 54.8083C41.4613 53.0461 40.0055 49.7004 39.8676 44.4903C39.8318 39.4845 41.8418 35.1682 42.4292 34.2744C42.9528 35.1682 44.6844 38.9226 44.8913 44.0561C45.0317 49.0619 43.3665 53.0205 42.3986 54.8083ZM49.1921 30.4178C49.1206 33.6103 48.7401 36.9816 48.2548 38.9992C48.4285 35.5258 48.0122 30.6477 47.2154 26.8167C46.4185 23.0113 44.1633 16.6264 42.3628 13.6893C40.7002 16.4987 38.6519 22.0153 37.5792 26.7912C36.5014 31.5671 36.4708 37.3647 36.4708 39.1014C36.1847 37.6456 35.4696 32.41 35.6714 27.1743C35.84 22.8581 36.8513 18.3886 37.4055 16.3454C39.5202 9.52634 41.9133 5.15903 42.3628 4.46945C42.8123 5.15903 45.826 10.5479 47.389 16.1922C48.9444 21.8365 49.2586 27.2509 49.1921 30.4178Z" fill="white"/>
<path d="M31.1304 58.8436V68.5742C31.1432 68.5742 31.1534 68.5487 31.1662 68.5487C34.5834 65.1264 40.1255 65.1264 43.5453 68.5487C46.9625 71.9455 46.9625 77.4876 43.5453 80.91C43.53 80.9355 43.5147 80.9355 43.4993 80.961C43.4815 80.961 43.4636 80.9866 43.4483 81.0121C40.0387 84.3834 35.5846 86.069 31.1304 86.069C26.6559 86.069 22.1813 84.3834 18.7692 80.961C12.752 74.9592 12.0395 65.6372 16.6264 58.8436C17.2444 57.9242 17.957 57.0558 18.7692 56.2386C22.1813 52.8162 26.6559 51.1306 31.1304 51.1306V27.7362C13.9371 27.7362 0 41.6553 0 58.8436C0 76.0319 13.9371 89.9766 31.1304 89.9766C40.0949 89.9766 48.1706 86.1711 53.8506 80.1182V58.8436H31.1304Z" fill="white"/>
<path d="M186.675 61.6515C187.7 61.6515 188.532 62.4831 188.532 63.5089V88.1427C188.532 89.1685 187.7 90.0001 186.675 90.0001H61.032C60.0062 90.0001 59.1746 89.1685 59.1746 88.1427V63.5089C59.1746 62.4831 60.0062 61.6515 61.032 61.6515H186.675ZM157.349 68.2921C156.518 68.2921 155.78 68.4868 155.134 68.8761C154.497 69.2654 153.958 69.8131 153.517 70.5197C153.086 71.2263 152.758 72.0702 152.532 73.0509C152.306 74.0172 152.193 75.0849 152.193 76.2531C152.193 77.8393 152.368 79.2309 152.717 80.4279C153.065 81.6103 153.604 82.533 154.333 83.1964C155.071 83.8453 156.005 84.17 157.134 84.17C157.718 84.17 158.247 84.1055 158.719 83.9757C159.191 83.8459 159.668 83.6441 160.15 83.3702V80.6222C159.627 80.8818 159.14 81.0844 158.688 81.2286C158.247 81.3728 157.801 81.4445 157.349 81.4445C156.713 81.4445 156.189 81.2428 155.779 80.839C155.369 80.4353 155.067 79.8511 154.872 79.087C154.687 78.3083 154.594 77.3705 154.594 76.2745C154.594 75.4669 154.651 74.738 154.763 74.089C154.887 73.4402 155.067 72.8924 155.302 72.4454C155.538 71.984 155.825 71.6301 156.164 71.3849C156.513 71.1397 156.908 71.0177 157.349 71.0177C157.75 71.0177 158.155 71.1185 158.565 71.3204C158.986 71.5223 159.402 71.7603 159.812 72.0343L160.566 69.3732C160.064 69.0416 159.535 68.7823 158.981 68.5948C158.437 68.3929 157.893 68.2921 157.349 68.2921ZM67.4314 68.5079V83.9542H70.2322L75.3269 72.1212H75.3884C75.3782 72.2223 75.363 72.4385 75.3425 72.7697C75.3323 73.0869 75.3162 73.462 75.2957 73.8947C75.2854 74.3273 75.2756 74.782 75.2654 75.2579C75.2551 75.7193 75.2498 76.145 75.2498 76.5343V83.9542H77.3279V68.5079H74.5417L69.4626 80.2335H69.4167C69.427 80.1181 69.4368 79.9085 69.447 79.6056C69.4573 79.2884 69.468 78.9202 69.4783 78.5021C69.4885 78.0696 69.4993 77.6297 69.5095 77.1827C69.5198 76.7359 69.5242 76.3322 69.5242 75.9718V68.5079H67.4314ZM90.5671 68.5079V83.9542H92.8914V77.2911H97.2468V83.9542H99.571V68.5079H97.2468V74.5656H92.8914V68.5079H90.5671ZM112.802 68.5079V83.9542H116.911C117.742 83.9542 118.46 83.7807 119.065 83.4347C119.671 83.0741 120.133 82.562 120.451 81.8986C120.779 81.2208 120.943 80.413 120.943 79.4757C120.943 78.6684 120.856 78.0197 120.681 77.5294C120.507 77.0391 120.271 76.664 119.973 76.4044C119.676 76.1449 119.343 75.9644 118.973 75.8634V75.755C119.332 75.6685 119.635 75.4738 119.882 75.171C120.138 74.8682 120.333 74.4789 120.467 74.0031C120.6 73.5272 120.667 73.0007 120.667 72.424C120.667 71.4578 120.496 70.6934 120.158 70.131C119.83 69.5542 119.333 69.1428 118.666 68.8976C118.009 68.638 117.193 68.5079 116.219 68.5079H112.802ZM133.608 68.5079V83.9542H139.933V81.2501H135.932V77.2697H139.657V74.587H135.932V71.1906H139.933V68.5079H133.608ZM171.874 68.5079V71.2335H174.86V83.9542H177.183V71.2335H180.17V68.5079H171.874ZM116.572 77.2257C117.064 77.2257 117.455 77.3054 117.742 77.464C118.029 77.6226 118.23 77.8464 118.343 78.1349C118.466 78.4233 118.527 78.7622 118.527 79.1515C118.527 79.7861 118.388 80.2982 118.111 80.6876C117.834 81.0624 117.347 81.2501 116.649 81.2501H115.126V77.2257H116.572ZM116.357 71.1906C117.024 71.1906 117.511 71.3206 117.819 71.5802C118.127 71.8398 118.281 72.2654 118.281 72.8566C118.281 73.4333 118.147 73.8731 117.881 74.1759C117.624 74.4787 117.157 74.63 116.48 74.63H115.126V71.1906H116.357Z" fill="white"/>
</svg>
