<svg width="70" height="34" viewBox="0 0 70 34" fill="none" xmlns="http://www.w3.org/2000/svg">
<path d="M21.9164 10.2957H26.3168V11.7335H24.2235V21.8359H21.9164V10.2957Z" fill="white"/>
<path d="M28.9256 17.5035L29.321 11.7335H29.4535L29.8489 17.5035H28.9256ZM26.3707 21.8359H28.6296L28.8434 18.7711H29.9312L30.1459 21.8359H32.4038L31.2006 10.2957H27.5739L26.3707 21.8359Z" fill="white"/>
<path d="M35.7079 17.7968V19.9724C35.7079 20.2656 35.9349 20.3508 36.0673 20.3508C36.2849 20.3508 36.4363 20.171 36.4363 19.9724V17.286C36.4363 16.9265 36.37 16.5293 35.5093 16.5293H34.5728V15.2617H35.5471C36.1998 15.2617 36.4363 15.1104 36.4363 14.4009V12.1118C36.4363 11.9132 36.2849 11.7335 36.0673 11.7335C35.9349 11.7335 35.7079 11.8091 35.7079 12.1118V13.9942H33.3999V12.3578C33.3999 11.5537 33.4944 10.2957 35.112 10.2957H37.0227C38.6402 10.2957 38.7443 11.5537 38.7443 12.3578V14.2023C38.7443 15.4604 37.8646 15.8009 37.1741 15.7725V15.886C38.7254 15.8482 38.7443 17.04 38.7443 17.4468V19.7737C38.7443 20.5872 38.6402 21.8359 37.0227 21.8359H35.112C33.4944 21.8359 33.3999 20.5872 33.3999 19.7737V17.7968H35.7079Z" fill="white"/>
<path d="M40.2579 10.2957H45.6023V21.8359H43.2942V11.7335H42.5659V21.8359H40.2579V10.2957Z" fill="white"/>
<path d="M49.4238 16.6428V11.7335H49.7265C49.9724 11.7335 50.1522 11.9415 50.1522 12.3105V16.0658C50.1522 16.4347 49.9724 16.6428 49.7265 16.6428H49.4238ZM47.1158 21.8359H49.4238V17.9103H50.7481C52.3561 17.9103 52.4602 16.6617 52.4602 15.8482V12.3578C52.4602 11.5537 52.3561 10.2957 50.7481 10.2957H47.1158V21.8359Z" fill="white"/>
<path d="M57.01 19.9724C57.01 20.171 56.8586 20.3508 56.6411 20.3508C56.5086 20.3508 56.2816 20.2656 56.2816 19.9724V12.1118C56.2816 11.8091 56.5086 11.7335 56.6411 11.7335C56.8586 11.7335 57.01 11.9132 57.01 12.1118V19.9724ZM53.9736 19.7737C53.9736 20.5872 54.0776 21.8359 55.6857 21.8359H57.6059C59.214 21.8359 59.318 20.5872 59.318 19.7737V12.3578C59.318 11.5537 59.214 10.2957 57.6059 10.2957H55.6857C54.0776 10.2957 53.9736 11.5537 53.9736 12.3578V19.7737Z" fill="white"/>
<path d="M66.8286 10.2957H69.8366V21.8359H67.5286V14.5996H67.4435L66.2516 21.8359H64.4071L63.2247 14.5996H63.1395V21.8359H60.8315V10.2957H63.8301L65.3341 18.4116L66.8286 10.2957Z" fill="white"/>
<path d="M18.4246 6.01603C17.718 2.92288 15.9472 0.406745 15.7032 0C15.3173 0.577009 13.905 2.79991 13.187 5.2593C12.4029 8.01192 12.2875 10.4524 12.558 12.8456C12.8267 15.2482 13.8416 17.717 13.8416 17.717C14.3808 19.0035 15.1886 20.394 15.7145 21.075C16.4855 20.0724 18.2572 17.0833 18.8096 13.1861C19.117 11.0105 19.1303 9.10918 18.4246 6.01603ZM15.7032 20.2994C15.356 19.6467 14.8169 18.4076 14.7658 16.4779C14.7525 14.6239 15.497 13.0253 15.7145 12.6942C15.9085 13.0253 16.5498 14.4158 16.6264 16.3171C16.6784 18.1711 16.0617 19.6372 15.7032 20.2994ZM18.2193 11.2659C18.1929 12.4483 18.0519 13.6969 17.8722 14.4442C17.9365 13.1577 17.7823 11.351 17.4872 9.93213C17.1921 8.52271 16.3568 6.15792 15.6899 5.07011C15.0742 6.11062 14.3155 8.1538 13.9182 9.92267C13.5191 11.6915 13.5077 13.8388 13.5077 14.482C13.4018 13.9428 13.1369 12.0037 13.2116 10.0646C13.2741 8.46596 13.6487 6.81061 13.8539 6.05387C14.6371 3.52827 15.5235 1.91075 15.6899 1.65535C15.8564 1.91075 16.9726 3.90663 17.5515 5.99711C18.1276 8.08759 18.2439 10.0929 18.2193 11.2659Z" fill="white"/>
<path d="M11.5298 21.7939V25.3979C11.5345 25.3979 11.5383 25.3884 11.543 25.3884C12.8087 24.1209 14.8613 24.1209 16.1279 25.3884C17.3935 26.6465 17.3935 28.6991 16.1279 29.9667C16.1222 29.9761 16.1166 29.9761 16.1109 29.9856C16.1043 29.9856 16.0976 29.995 16.092 30.0045C14.8292 31.2531 13.1795 31.8774 11.5298 31.8774C9.87255 31.8774 8.21531 31.2531 6.95156 29.9856C4.72297 27.7627 4.45906 24.3101 6.15793 21.7939C6.38684 21.4534 6.65075 21.1318 6.95156 20.8291C8.21531 19.5616 9.87255 18.9373 11.5298 18.9373V10.2727C5.16188 10.2727 0 15.4279 0 21.7939C0 28.16 5.16188 33.3247 11.5298 33.3247C14.85 33.3247 17.841 31.9152 19.9447 29.6734V21.7939H11.5298Z" fill="white"/>
<path d="M67.9691 22.8339C68.9949 22.8339 69.8265 23.6655 69.8265 24.6913V31.4764C69.8263 32.502 68.9948 33.3329 67.9691 33.3329H23.7738C22.7482 33.3329 21.9166 32.502 21.9164 31.4764V24.6913C21.9164 23.6655 22.748 22.8339 23.7738 22.8339H67.9691ZM58.2777 25.2928C57.9699 25.2928 57.6958 25.3654 57.4564 25.5096C57.221 25.6538 57.0211 25.8565 56.8578 26.118C56.6982 26.3797 56.5771 26.6925 56.4935 27.0555C56.4099 27.4134 56.3676 27.8094 56.3676 28.2421C56.3676 28.8294 56.4327 29.3447 56.5619 29.788C56.6911 30.226 56.8907 30.5676 57.1605 30.8134C57.4341 31.0537 57.7797 31.1737 58.1976 31.1737C58.4141 31.1737 58.6098 31.1504 58.7845 31.1024C58.9593 31.0544 59.1363 30.9792 59.3148 30.8778V29.8602C59.1212 29.9563 58.9409 30.0314 58.7738 30.0848C58.6104 30.1382 58.4449 30.1649 58.2777 30.1649C58.0421 30.1649 57.8477 30.0899 57.6957 29.9403C57.5438 29.7908 57.4319 29.5739 57.3597 29.2909C57.2914 29.0026 57.2572 28.6556 57.2572 28.2499C57.2572 27.9508 57.2779 27.6807 57.3197 27.4403C57.3653 27.2 57.4325 26.9975 57.5199 26.8319C57.6072 26.6612 57.7131 26.5301 57.8383 26.4393C57.9675 26.3485 58.1143 26.3026 58.2777 26.3026C58.4259 26.3026 58.5759 26.3402 58.7279 26.4149C58.8837 26.4897 59.0378 26.5781 59.1898 26.6796L59.4691 25.6942C59.283 25.5714 59.0873 25.4746 58.8822 25.4052C58.6808 25.3304 58.4791 25.2929 58.2777 25.2928ZM24.975 25.3729V31.0936H26.0121L27.8988 26.7118H27.9213C27.9175 26.7494 27.9122 26.8297 27.9047 26.952C27.9009 27.0694 27.8947 27.2081 27.8871 27.368C27.8833 27.5282 27.8801 27.6967 27.8763 27.8729C27.8725 28.0438 27.8705 28.2014 27.8705 28.3456V31.0936H28.64V25.3729H27.6078L25.7269 29.7157H25.7103C25.7141 29.6729 25.7173 29.5952 25.7211 29.4833C25.7249 29.3659 25.729 29.2298 25.7328 29.0751C25.7366 28.9148 25.7407 28.7514 25.7445 28.5858C25.7483 28.4204 25.7494 28.271 25.7494 28.1376V25.3729H24.975ZM33.5433 25.3729V31.0936H34.4047V28.6259H36.017V31.0936H36.8783V25.3729H36.017V27.6171H34.4047V25.3729H33.5433ZM41.7787 25.3729V31.0936H43.3002C43.6078 31.0936 43.8739 31.0302 44.098 30.9022C44.3222 30.7687 44.4939 30.5786 44.6117 30.3329C44.7333 30.0819 44.7943 29.7826 44.7943 29.4354C44.7943 29.1364 44.7612 28.8963 44.6967 28.7147C44.6321 28.5332 44.5451 28.3939 44.4349 28.2977C44.3247 28.2016 44.2006 28.1349 44.0638 28.0975V28.0575C44.1968 28.0254 44.3096 27.9529 44.4008 27.8407C44.4956 27.7286 44.5682 27.5842 44.6176 27.4081C44.6669 27.2319 44.6908 27.0366 44.6908 26.8231C44.6908 26.4656 44.6285 26.1827 44.5033 25.9745C44.3817 25.7609 44.1974 25.6083 43.9506 25.5175C43.7074 25.4213 43.4051 25.373 43.0443 25.3729H41.7787ZM49.4847 25.3729V31.0936H51.8275V30.0927H50.3451V28.618H51.725V27.6249H50.3451V26.3671H51.8275V25.3729H49.4847ZM63.6566 25.3729V26.3827H64.7631V31.0936H65.6234V26.3827H66.7299V25.3729H63.6566ZM43.1752 28.6024C43.3573 28.6024 43.5015 28.6317 43.6078 28.6903C43.7141 28.749 43.7886 28.8317 43.8304 28.9384C43.876 29.0452 43.8988 29.1711 43.8988 29.3153C43.8988 29.5503 43.8481 29.7404 43.7455 29.8846C43.6429 30.0235 43.4619 30.0926 43.2035 30.0927H42.639V28.6024H43.1752ZM43.0951 26.3671C43.3421 26.3671 43.5231 26.4145 43.6371 26.5106C43.751 26.6067 43.8079 26.7645 43.808 26.9833C43.808 27.1969 43.7584 27.3604 43.6595 27.4725C43.5646 27.5847 43.3917 27.6405 43.141 27.6405H42.639V26.3671H43.0951Z" fill="white"/>
</svg>
