<svg width="421" height="46" viewBox="0 0 421 46" fill="none" xmlns="http://www.w3.org/2000/svg">
<g clip-path="url(#clip0_1_313)">
<path d="M99.9695 14.8685L104.628 11.3867H89.0266V32.2458H104.628V28.7611H93.483V23.4372H103.009V19.9554H93.483V14.8685H99.9695Z" fill="#21A038"/>
<path d="M77.2389 19.51H71.834V14.8685H80.4807L85.1424 11.3867H67.3776V32.2458H76.6634C81.8659 32.2458 84.8706 29.8543 84.8706 25.6899C84.8706 21.6963 82.1696 19.51 77.2389 19.51ZM76.4957 28.7611H71.834V22.9918H76.4957C79.3326 22.9918 80.6485 23.949 80.6485 25.8953C80.6485 27.8415 79.2314 28.7611 76.4957 28.7611Z" fill="#21A038"/>
<path d="M117.26 11.3867H108.784V32.2458H113.24V26.3377H117.294C122.696 26.3377 126.074 23.4719 126.074 18.8622C126.074 14.2526 122.696 11.3867 117.26 11.3867ZM117.158 22.8559H113.208V14.8685H117.158C120.03 14.8685 121.583 16.3029 121.583 18.8622C121.583 21.4215 120.03 22.8559 117.158 22.8559Z" fill="#21A038"/>
<path d="M59.743 27.7372C58.5631 28.3879 57.2444 28.7291 55.8939 28.7291C51.8742 28.7291 48.9708 25.8257 48.9708 21.832C48.9708 17.8383 51.8742 14.9349 55.8939 14.9349C57.3457 14.9031 58.7656 15.3802 59.9455 16.2333L63.1554 13.8446L62.953 13.6393C61.0964 11.9649 58.595 11.1118 55.758 11.1118C52.6869 11.1118 49.8817 12.1702 47.8574 14.0818C45.8302 16.0627 44.6821 18.8273 44.7486 21.6961C44.7139 24.5966 45.8302 27.396 47.8574 29.4434C49.9829 31.4591 52.8199 32.5869 55.7262 32.5175C58.9333 32.5175 61.7355 31.3897 63.6268 29.3422L60.7581 27.1907L59.743 27.7372Z" fill="#21A038"/>
<path d="M179.671 11.4214V32.2776H184.128V23.7437H193.619V32.2776H198.078V11.4214H193.619V19.9901H184.128V11.4214H179.671ZM172.005 32.2776H176.699L167.985 11.4214H163.46L154.579 32.2776H159.07L160.86 28.0786H170.316L172.005 32.2776ZM162.21 24.5968L165.655 16.2335L168.896 24.5968H162.21ZM208.075 23.8478H210.843L217.665 32.2458H223.405L214.287 21.4562L222.257 11.3867H217.159L210.539 20.3313H208.075V11.3867H203.616V32.2458H208.075V23.8478ZM139.853 19.5447V14.9032H151.505V11.4214H135.394V32.2776H144.683C149.882 32.2776 152.89 29.8889 152.89 25.7246C152.89 21.731 150.189 19.5447 145.255 19.5447H139.853ZM139.853 28.7958V23.0265H144.515C147.349 23.0265 148.668 23.9837 148.668 25.93C148.668 27.8762 147.282 28.8305 144.515 28.8305H139.853V28.7958Z" fill="#21A038"/>
<path d="M30.8014 11.2507C31.6111 12.3092 32.2878 13.4688 32.8604 14.6979L17.2587 26.3377L10.7057 22.1734V17.1906L17.224 21.3202L30.8014 11.2507Z" fill="#21A038"/>
<path d="M4.05089 21.8321C4.05089 21.5921 4.05089 21.3897 4.08559 21.1497L0.135288 20.9443C0.135288 21.2191 0.100586 21.5256 0.100586 21.7974C0.100586 26.5777 2.02658 30.9126 5.13245 34.0532L7.93468 31.2192C5.53732 28.8305 4.05089 25.5193 4.05089 21.8321Z" fill="url(#paint0_linear_1_313)"/>
<path d="M17.2237 8.5181C17.4608 8.5181 17.6633 8.5181 17.9004 8.5528L18.1028 4.55912C17.831 4.55912 17.5273 4.52441 17.2584 4.52441C12.5302 4.52441 8.24152 6.47065 5.13275 9.61123L7.93498 12.4453C10.3005 10.0219 13.6088 8.5181 17.2237 8.5181Z" fill="url(#paint1_linear_1_313)"/>
<path d="M17.2234 35.1462C16.9863 35.1462 16.7839 35.1462 16.5467 35.1115L16.3443 39.1051C16.6161 39.1051 16.9198 39.1398 17.1887 39.1398C21.9169 39.1398 26.2085 37.1936 29.3144 34.053L26.5121 31.219C24.1466 33.6771 20.8701 35.1462 17.2234 35.1462Z" fill="url(#paint2_linear_1_313)"/>
<path d="M24.6533 10.8401L27.9963 8.34727C25.0582 5.95858 21.3103 4.4895 17.2241 4.4895V8.48319C19.9945 8.51789 22.5596 9.37099 24.6533 10.8401Z" fill="url(#paint3_linear_1_313)"/>
<path d="M34.3811 21.8322C34.3811 20.7738 34.2798 19.75 34.1092 18.7263L30.4279 21.491C30.4279 21.5922 30.4279 21.731 30.4279 21.8322C30.4279 25.7594 28.739 29.2759 26.0727 31.6993L28.739 34.6692C32.1861 31.5287 34.3811 26.919 34.3811 21.8322Z" fill="#21A038"/>
<path d="M17.224 35.1463C13.3402 35.1463 9.86127 33.4401 7.4639 30.7419L4.52576 33.4401C7.66634 36.9566 12.1921 39.14 17.224 39.14V35.1463Z" fill="url(#paint4_linear_1_313)"/>
<path d="M8.40895 11.9651L5.73975 8.99512C2.26082 12.1704 0.100586 16.7453 0.100586 21.8322H4.05089C4.05089 17.9397 5.73975 14.3914 8.40895 11.9651Z" fill="url(#paint5_linear_1_313)"/>
</g>
<path d="M241.506 30.6202L257.429 14.6973M257.429 30.6846L241.506 14.7617" stroke="#6C6C6C" stroke-width="1.45162"/>
<g clip-path="url(#clip1_1_313)">
<rect x="275.423" y="0.333252" width="44.7154" height="44.7154" rx="8.94307" fill="url(#paint6_linear_1_313)"/>
<g filter="url(#filter0_f_1_313)">
<circle cx="297.758" cy="22.6686" r="18.2662" fill="#7CE884"/>
</g>
<g clip-path="url(#clip2_1_313)">
<path d="M294.083 36.9384C301.944 36.9384 308.317 30.5659 308.317 22.7049C308.317 14.844 301.944 8.47144 294.083 8.47144C286.222 8.47144 279.85 14.844 279.85 22.7049C279.85 30.5659 286.222 36.9384 294.083 36.9384Z" fill="#FDD835"/>
<path opacity="0.5" d="M294.083 8.47144C286.223 8.47144 279.85 14.8443 279.85 22.7049C279.85 30.5656 286.223 36.9384 294.083 36.9384C301.944 36.9384 308.317 30.5656 308.317 22.7049C308.317 14.8443 301.944 8.47144 294.083 8.47144ZM294.083 36.3268C286.56 36.3268 280.461 30.2281 280.461 22.7049C280.461 15.1817 286.56 9.08303 294.083 9.08303C301.606 9.08303 307.705 15.1817 307.705 22.7049C307.705 30.2281 301.606 36.3268 294.083 36.3268Z" fill="white"/>
<path opacity="0.5" d="M299.762 9.64962L281.028 28.3839C280.402 26.9461 280.005 25.3832 279.887 23.7447L295.123 8.50928C296.761 8.62715 298.324 9.02357 299.762 9.64962Z" fill="white"/>
<path opacity="0.5" d="M306.487 15.7188L287.097 35.1086C285.891 34.428 284.795 33.5768 283.839 32.5871L303.965 12.4612C304.955 13.4164 305.807 14.5128 306.487 15.7188Z" fill="white"/>
<path opacity="0.5" d="M303.384 11.9307L283.308 32.0055C282.994 31.6424 282.698 31.2627 282.423 30.8685L302.247 11.0444C302.64 11.3202 303.02 11.616 303.384 11.9307Z" fill="white"/>
<path opacity="0.5" d="M307.87 19.1531L290.531 36.4919C290.008 36.3573 289.496 36.1938 288.997 36.0031L307.381 17.6191C307.571 18.1179 307.735 18.6299 307.869 19.1537L307.87 19.1531Z" fill="white"/>
<path opacity="0.5" d="M305.646 23.3209C305.646 29.4796 300.652 34.473 294.494 34.473C291.034 34.473 287.941 32.8974 285.896 30.4237C287.933 32.6255 290.847 34.0038 294.083 34.0038C300.242 34.0038 305.235 29.0104 305.235 22.8516C305.235 20.1534 304.276 17.6781 302.681 15.7488C304.522 17.7381 305.646 20.398 305.646 23.3209Z" fill="white"/>
<path d="M294.083 34.004C300.242 34.004 305.235 29.011 305.235 22.8519C305.235 16.6927 300.242 11.6997 294.083 11.6997C287.924 11.6997 282.931 16.6927 282.931 22.8519C282.931 29.011 287.924 34.004 294.083 34.004Z" fill="#F39E09"/>
<path d="M302.534 15.575C300.581 13.8914 298.038 12.874 295.257 12.874C289.099 12.874 284.105 17.8674 284.105 24.0261C284.105 26.8067 285.123 29.3498 286.806 31.303C284.433 29.2575 282.931 26.2301 282.931 22.8519C282.931 16.6931 287.924 11.6997 294.083 11.6997C297.461 11.6997 300.489 13.2015 302.534 15.575Z" fill="#E88102"/>
<path opacity="0.25" d="M302.186 15.5199C294.964 18.0552 289.168 23.6235 286.328 30.6958C286.079 30.5151 285.838 30.3238 285.607 30.1231C283.924 28.1704 282.907 25.6279 282.907 22.8485C282.907 16.6897 287.901 11.6963 294.059 11.6963C296.839 11.6963 299.381 12.7132 301.334 14.3956C301.641 14.7515 301.926 15.1268 302.186 15.5199H302.186Z" fill="white"/>
</g>
<circle cx="312.014" cy="33.2411" r="3.69737" fill="#464646"/>
<path opacity="0.25" d="M314.655 30.8193C312.281 31.6651 310.375 33.5227 309.441 35.8821C309.36 35.8218 309.28 35.758 309.204 35.691C308.651 35.0396 308.317 34.1914 308.317 33.2641C308.317 31.2095 309.958 29.5437 311.983 29.5437C312.897 29.5437 313.846 29.9276 314.488 30.4889C314.589 30.6076 314.655 30.6279 314.766 30.7669L314.655 30.8193Z" fill="white"/>
</g>
<path d="M336.166 4.34368H336.711C337.828 4.34368 338.821 4.4904 339.687 4.78385C340.553 5.07729 341.28 5.50348 341.867 6.06243C342.468 6.62137 342.922 7.30607 343.229 8.11654C343.537 8.91303 343.69 9.81432 343.69 10.8204C343.69 11.8964 343.53 12.8396 343.208 13.6501C342.887 14.4605 342.419 15.1382 341.804 15.6832C341.189 16.2282 340.435 16.6404 339.54 16.9199C338.66 17.1993 337.654 17.3391 336.522 17.3391H336.166V18.7434H333.546V17.3391H333.001C330.751 17.3391 329.025 16.7662 327.823 15.6203C326.622 14.4745 326.021 12.8885 326.021 10.8623C326.021 9.78638 326.182 8.84316 326.503 8.0327C326.824 7.22223 327.292 6.54451 327.907 5.99955C328.522 5.45458 329.27 5.04236 330.15 4.76289C331.044 4.48341 332.057 4.34368 333.189 4.34368H333.546V3.23278H336.166V4.34368ZM328.788 10.7785C328.788 11.547 328.899 12.2038 329.123 12.7488C329.347 13.2937 329.647 13.7409 330.024 14.0902C330.416 14.4256 330.87 14.6701 331.387 14.8238C331.918 14.9776 332.491 15.0544 333.105 15.0544H333.546V6.62835H333.147C331.666 6.62835 330.569 6.97071 329.857 7.65541C329.144 8.32614 328.788 9.36717 328.788 10.7785ZM336.166 6.62835V15.0544H336.564C338.045 15.0544 339.142 14.719 339.855 14.0483C340.567 13.3636 340.924 12.3156 340.924 10.9043C340.924 10.1357 340.812 9.47896 340.588 8.93399C340.365 8.38902 340.057 7.94886 339.666 7.61349C339.289 7.26415 338.835 7.01263 338.304 6.85892C337.773 6.70521 337.207 6.62835 336.606 6.62835H336.166ZM346.015 7.84405H348.446V14.9496L353.477 7.84405H355.803V18.3242H353.372V11.1348L348.341 18.3242H346.015V7.84405ZM365.976 14.0902H361.239V18.3242H358.787V7.84405H361.239V11.9313H365.976V7.84405H368.429V18.3242H365.976V14.0902ZM371.648 8.57767C371.997 8.31217 372.479 8.08859 373.094 7.90694C373.723 7.72528 374.491 7.63445 375.399 7.63445C376.937 7.63445 378.082 7.92091 378.837 8.49382C379.591 9.06674 379.969 10.0379 379.969 11.4073V18.3242H377.663V16.4378C377.412 17.0526 376.978 17.5487 376.364 17.926C375.763 18.3033 375.043 18.4919 374.205 18.4919C373.143 18.4919 372.311 18.2124 371.71 17.6535C371.124 17.0806 370.83 16.2771 370.83 15.2431C370.83 14.6422 370.935 14.1461 371.144 13.7549C371.354 13.3636 371.648 13.0562 372.025 12.8326C372.402 12.5951 372.856 12.4274 373.387 12.3296C373.918 12.2317 374.505 12.1828 375.148 12.1828H377.516V11.7217C377.516 10.9811 377.335 10.4711 376.971 10.1916C376.622 9.91214 376.098 9.7724 375.399 9.7724C374.435 9.7724 373.66 9.94707 373.073 10.2964C372.486 10.6318 372.011 11.0789 371.648 11.6379V8.57767ZM374.98 16.2911C375.399 16.2911 375.756 16.2422 376.049 16.1443C376.357 16.0326 376.615 15.8998 376.825 15.7461C377.034 15.5784 377.195 15.3968 377.307 15.2011C377.419 15.0055 377.488 14.8169 377.516 14.6352V13.7758H375.441C374.715 13.7758 374.177 13.8597 373.827 14.0274C373.478 14.195 373.303 14.5164 373.303 14.9915C373.303 15.3968 373.443 15.7182 373.723 15.9557C374.016 16.1793 374.435 16.2911 374.98 16.2911ZM389.987 14.0902H385.25V18.3242H382.797V7.84405H385.25V11.9313H389.987V7.84405H392.439V18.3242H389.987V14.0902ZM403.748 17.2762C403.511 17.5696 403.085 17.8561 402.47 18.1356C401.855 18.415 401.121 18.5548 400.269 18.5548C399.431 18.5548 398.669 18.443 397.984 18.2194C397.3 17.9819 396.713 17.6325 396.224 17.1714C395.735 16.7103 395.357 16.1374 395.092 15.4527C394.826 14.7679 394.694 13.9645 394.694 13.0422C394.694 12.1479 394.826 11.3654 395.092 10.6947C395.371 10.01 395.756 9.44403 396.245 8.99687C396.734 8.53574 397.321 8.19339 398.005 7.96982C398.69 7.73227 399.452 7.61349 400.29 7.61349C401.003 7.62746 401.652 7.72528 402.239 7.90694C402.826 8.08859 403.294 8.31217 403.644 8.57767V11.6379C403.28 11.0789 402.819 10.6318 402.26 10.2964C401.715 9.94707 401.059 9.76542 400.29 9.75144C399.284 9.75144 398.515 10.0169 397.984 10.5479C397.453 11.0789 397.188 11.8754 397.188 12.9374V13.2518C397.188 14.3418 397.46 15.1452 398.005 15.6623C398.564 16.1653 399.34 16.4168 400.332 16.4168C401.212 16.4168 401.932 16.2561 402.491 15.9347C403.064 15.6133 403.483 15.2221 403.748 14.761V17.2762ZM405.989 7.84405H408.441V10.9462H410.244C410.956 10.9462 411.585 11.0021 412.13 11.1139C412.689 11.2257 413.15 11.4213 413.513 11.7008C413.891 11.9663 414.177 12.3296 414.373 12.7907C414.568 13.2518 414.666 13.8247 414.666 14.5094C414.652 15.8509 414.275 16.8221 413.534 17.4229C412.794 18.0238 411.606 18.3242 409.971 18.3242H405.989V7.84405ZM415.861 7.84405H418.313V18.3242H415.861V7.84405ZM409.887 16.1653C410.726 16.1653 411.32 16.0465 411.669 15.809C412.018 15.5714 412.2 15.1382 412.214 14.5094C412.2 13.9505 412.039 13.5802 411.732 13.3985C411.424 13.2029 410.866 13.1051 410.055 13.1051H408.441V16.1653H409.887Z" fill="url(#paint7_linear_1_313)"/>
<path d="M326.713 31.5775H329.144V38.683L334.174 31.5775H336.501V42.0576H334.07V34.8682L329.039 42.0576H326.713V31.5775ZM356.164 29.7958H351.218V42.0576H348.598V29.7958H343.735V27.3854H356.164V29.7958ZM361.087 42.2882C360.262 42.2882 359.522 42.1764 358.865 41.9528C358.208 41.7153 357.642 41.3659 357.167 40.9048C356.692 40.4437 356.329 39.8708 356.077 39.1861C355.826 38.5013 355.7 37.6979 355.7 36.7756C355.7 35.8673 355.833 35.0778 356.098 34.4071C356.364 33.7224 356.734 33.1565 357.209 32.7093C357.684 32.2482 358.257 31.9058 358.928 31.6823C359.599 31.4587 360.346 31.3469 361.171 31.3469C361.981 31.3469 362.715 31.4657 363.371 31.7032C364.042 31.9408 364.608 32.2901 365.069 32.7512C365.544 33.2124 365.908 33.7853 366.159 34.47C366.411 35.1547 366.536 35.9512 366.536 36.8595C366.536 37.7677 366.404 38.5642 366.138 39.2489C365.873 39.9197 365.502 40.4786 365.027 40.9258C364.552 41.3729 363.979 41.7153 363.309 41.9528C362.638 42.1764 361.897 42.2882 361.087 42.2882ZM358.194 36.8385C358.194 37.9983 358.453 38.8437 358.97 39.3747C359.487 39.8917 360.206 40.1502 361.129 40.1502C362.065 40.1502 362.785 39.8847 363.288 39.3537C363.791 38.8088 364.042 37.9773 364.042 36.8595V36.7966C364.042 35.6368 363.777 34.7984 363.246 34.2813C362.729 33.7503 362.009 33.4848 361.087 33.4848C360.151 33.4988 359.431 33.7783 358.928 34.3233C358.439 34.8543 358.194 35.6717 358.194 36.7756V36.8385ZM375.147 38.3686C374.784 38.5782 374.365 38.7319 373.89 38.8297C373.415 38.9275 372.933 38.9764 372.444 38.9764C371.186 38.9764 370.201 38.683 369.488 38.0961C368.775 37.5092 368.419 36.587 368.419 35.3294V31.5775H370.872V34.9521C370.872 35.5809 371.039 36.049 371.375 36.3564C371.724 36.6499 372.227 36.7966 372.884 36.7966C373.75 36.7966 374.505 36.6359 375.147 36.3145V31.5775H377.6V42.0576H375.147V38.3686ZM380.566 31.5775H383.019V35.6647H384.716L387.651 31.5775H390.376L386.708 36.5241L390.962 42.0576H387.986L384.695 37.7188H383.019V42.0576H380.566V31.5775ZM392.915 32.3111C393.264 32.0456 393.746 31.822 394.361 31.6403C394.99 31.4587 395.759 31.3678 396.667 31.3678C398.204 31.3678 399.35 31.6543 400.104 32.2272C400.859 32.8001 401.236 33.7713 401.236 35.1407V42.0576H398.931V40.1712C398.679 40.786 398.246 41.2821 397.631 41.6594C397.03 42.0367 396.31 42.2253 395.472 42.2253C394.41 42.2253 393.579 41.9458 392.978 41.3869C392.391 40.814 392.097 40.0105 392.097 38.9764C392.097 38.3756 392.202 37.8795 392.412 37.4883C392.621 37.097 392.915 36.7896 393.292 36.566C393.669 36.3285 394.124 36.1608 394.655 36.063C395.186 35.9651 395.772 35.9162 396.415 35.9162H398.784V35.4551C398.784 34.7145 398.602 34.2045 398.239 33.925C397.889 33.6455 397.365 33.5058 396.667 33.5058C395.703 33.5058 394.927 33.6805 394.34 34.0298C393.753 34.3652 393.278 34.8123 392.915 35.3713V32.3111ZM396.248 40.0245C396.667 40.0245 397.023 39.9756 397.317 39.8777C397.624 39.766 397.882 39.6332 398.092 39.4795C398.302 39.3118 398.462 39.1302 398.574 38.9345C398.686 38.7389 398.756 38.5503 398.784 38.3686V37.5092H396.709C395.982 37.5092 395.444 37.5931 395.095 37.7607C394.745 37.9284 394.571 38.2498 394.571 38.7249C394.571 39.1302 394.71 39.4515 394.99 39.6891C395.283 39.9127 395.703 40.0245 396.248 40.0245Z" fill="#222222"/>
<defs>
<filter id="filter0_f_1_313" x="270.549" y="-4.54073" width="54.4186" height="54.4186" filterUnits="userSpaceOnUse" color-interpolation-filters="sRGB">
<feFlood flood-opacity="0" result="BackgroundImageFix"/>
<feBlend mode="normal" in="SourceGraphic" in2="BackgroundImageFix" result="shape"/>
<feGaussianBlur stdDeviation="4.47154" result="effect1_foregroundBlur_1_313"/>
</filter>
<linearGradient id="paint0_linear_1_313" x1="4.7112" y1="33.5676" x2="0.654073" y2="21.7871" gradientUnits="userSpaceOnUse">
<stop offset="0.1444" stop-color="#F2E913"/>
<stop offset="0.3037" stop-color="#E7E518"/>
<stop offset="0.5823" stop-color="#CADB26"/>
<stop offset="0.891" stop-color="#A3CD39"/>
</linearGradient>
<linearGradient id="paint1_linear_1_313" x1="6.25952" y1="9.16039" x2="16.5105" y2="5.23623" gradientUnits="userSpaceOnUse">
<stop offset="0.0592" stop-color="#0FA8E0"/>
<stop offset="0.5385" stop-color="#0099F9"/>
<stop offset="0.9234" stop-color="#0291EB"/>
</linearGradient>
<linearGradient id="paint2_linear_1_313" x1="16.1135" y1="35.7431" x2="28.3282" y2="32.9701" gradientUnits="userSpaceOnUse">
<stop offset="0.1226" stop-color="#A3CD39"/>
<stop offset="0.2846" stop-color="#86C339"/>
<stop offset="0.8693" stop-color="#21A038"/>
</linearGradient>
<linearGradient id="paint3_linear_1_313" x1="16.4124" y1="7.03418" x2="26.5704" y2="10.1826" gradientUnits="userSpaceOnUse">
<stop offset="0.0566" stop-color="#0291EB"/>
<stop offset="0.79" stop-color="#0C8ACB"/>
</linearGradient>
<linearGradient id="paint4_linear_1_313" x1="5.53026" y1="34.0719" x2="16.4436" y2="38.168" gradientUnits="userSpaceOnUse">
<stop offset="0.1324" stop-color="#F2E913"/>
<stop offset="0.2977" stop-color="#EBE716"/>
<stop offset="0.5306" stop-color="#D9E01F"/>
<stop offset="0.8023" stop-color="#BBD62D"/>
<stop offset="0.9829" stop-color="#A3CD39"/>
</linearGradient>
<linearGradient id="paint5_linear_1_313" x1="3.12836" y1="22.3147" x2="7.5139" y2="10.8546" gradientUnits="userSpaceOnUse">
<stop offset="0.0698" stop-color="#A3CD39"/>
<stop offset="0.2599" stop-color="#81C55F"/>
<stop offset="0.9216" stop-color="#0FA8E0"/>
</linearGradient>
<linearGradient id="paint6_linear_1_313" x1="275.423" y1="0.333252" x2="327.991" y2="32.0196" gradientUnits="userSpaceOnUse">
<stop stop-color="#5EE4A6"/>
<stop offset="1" stop-color="#00722C"/>
</linearGradient>
<linearGradient id="paint7_linear_1_313" x1="325.203" y1="3.32422" x2="334.981" y2="40.6486" gradientUnits="userSpaceOnUse">
<stop stop-color="#5EE4A6"/>
<stop offset="1" stop-color="#00722C"/>
</linearGradient>
<clipPath id="clip0_1_313">
<rect width="223.577" height="37.2628" fill="white" transform="translate(-0.00012207 4.05957)"/>
</clipPath>
<clipPath id="clip1_1_313">
<rect x="275.423" y="0.333252" width="44.7154" height="44.7154" rx="8.94307" fill="white"/>
</clipPath>
<clipPath id="clip2_1_313">
<rect width="28.467" height="28.467" fill="white" transform="translate(279.85 8.47144)"/>
</clipPath>
</defs>
</svg>
