<svg width="201" height="103" viewBox="0 0 201 103" fill="none" xmlns="http://www.w3.org/2000/svg">
<g clip-path="url(#clip0_1_7)">
<path d="M89.9276 10.2929L94.0951 7.17822H80.1387V25.8377H94.0951V22.7204H84.1251V17.9579H92.6464V14.8433H84.1251V10.2929H89.9276Z" fill="#21A038"/>
<path d="M69.594 14.4449H64.7591V10.2929H72.494L76.6641 7.17822H60.7726V25.8377H69.0792C73.7331 25.8377 76.4209 23.6983 76.4209 19.9731C76.4209 16.4006 74.0047 14.4449 69.594 14.4449ZM68.9292 22.7204H64.7591V17.5595H68.9292C71.467 17.5595 72.644 18.4158 72.644 20.1568C72.644 21.8978 71.3764 22.7204 68.9292 22.7204Z" fill="#21A038"/>
<path d="M105.394 7.17822H97.812V25.8377H101.798V20.5526H105.425C110.258 20.5526 113.279 17.989 113.279 13.8654C113.279 9.74186 110.258 7.17822 105.394 7.17822ZM105.304 17.438H101.77V10.2929H105.304C107.873 10.2929 109.262 11.576 109.262 13.8654C109.262 16.1548 107.873 17.438 105.304 17.438Z" fill="#21A038"/>
<path d="M53.9433 21.8046C52.8878 22.3867 51.7082 22.692 50.5001 22.692C46.9043 22.692 44.307 20.0947 44.307 16.5222C44.307 12.9496 46.9043 10.3523 50.5001 10.3523C51.7987 10.3239 53.0689 10.7507 54.1244 11.5139L56.9959 9.37707L56.8148 9.1934C55.154 7.69558 52.9163 6.93243 50.3785 6.93243C47.6312 6.93243 45.1219 7.87925 43.3111 9.5892C41.4976 11.3612 40.4706 13.8343 40.5301 16.4006C40.4991 18.9952 41.4976 21.4994 43.3111 23.3309C45.2124 25.134 47.7502 26.1429 50.3501 26.0808C53.219 26.0808 55.7257 25.0719 57.4175 23.2404L54.8513 21.3157L53.9433 21.8046Z" fill="#21A038"/>
<path d="M161.225 7.20927V25.8661H165.211V18.2321H173.701V25.8661H177.69V7.20927H173.701V14.8743H165.211V7.20927H161.225ZM154.367 25.8661H158.565L150.771 7.20927H146.722L138.778 25.8661H142.796L144.397 22.1099H152.856L154.367 25.8661ZM145.605 18.9953L148.686 11.5139L151.586 18.9953H145.605ZM186.633 18.3253H189.109L195.212 25.8377H200.347L192.19 16.1859L199.32 7.17822H194.759L188.838 15.1796H186.633V7.17822H182.644V25.8377H186.633V18.3253ZM125.605 14.4759V10.3239H136.028V7.20927H121.616V25.8661H129.926C134.577 25.8661 137.267 23.7293 137.267 20.0042C137.267 16.4316 134.851 14.4759 130.438 14.4759H125.605ZM125.605 22.7515V17.5906H129.776C132.311 17.5906 133.49 18.4468 133.49 20.1878C133.49 21.9288 132.251 22.7825 129.776 22.7825H125.605V22.7515Z" fill="#21A038"/>
<path d="M28.0533 7.05664C28.7777 8.00345 29.383 9.04081 29.8952 10.1403L15.9388 20.5526L10.0768 16.8274V12.3702L15.9077 16.0643L28.0533 7.05664Z" fill="#21A038"/>
<path d="M4.12406 16.5222C4.12406 16.3075 4.12406 16.1264 4.15511 15.9117L0.621375 15.728C0.621375 15.9738 0.590332 16.248 0.590332 16.4912C0.590332 20.7673 2.31322 24.6451 5.09157 27.4545L7.5983 24.9194C5.45374 22.7826 4.12406 19.8205 4.12406 16.5222Z" fill="url(#paint0_linear_1_7)"/>
<path d="M15.9074 4.61209C16.1195 4.61209 16.3006 4.61209 16.5127 4.64313L16.6938 1.07059C16.4506 1.07059 16.179 1.03955 15.9384 1.03955C11.7088 1.03955 7.87242 2.78055 5.09148 5.58994L7.5982 8.12513C9.7143 5.95729 12.6737 4.61209 15.9074 4.61209Z" fill="url(#paint1_linear_1_7)"/>
<path d="M15.9072 28.4323C15.6951 28.4323 15.514 28.4323 15.3019 28.4012L15.1208 31.9738C15.3639 31.9738 15.6356 32.0048 15.8762 32.0048C20.1058 32.0048 23.9448 30.2638 26.7231 27.4544L24.2164 24.9193C22.1003 27.1181 19.1693 28.4323 15.9072 28.4323Z" fill="url(#paint2_linear_1_7)"/>
<path d="M22.5535 6.68936L25.544 4.45944C22.9157 2.32264 19.563 1.00848 15.9077 1.00848V4.58102C18.386 4.61207 20.6806 5.37521 22.5535 6.68936Z" fill="url(#paint3_linear_1_7)"/>
<path d="M31.2558 16.5222C31.2558 15.5754 31.1652 14.6596 31.0126 13.7438L27.7195 16.2169C27.7195 16.3075 27.7195 16.4316 27.7195 16.5222C27.7195 20.0352 26.2087 23.1809 23.8236 25.3488L26.2087 28.0055C29.2923 25.1961 31.2558 21.0726 31.2558 16.5222Z" fill="#21A038"/>
<path d="M15.9078 28.4324C12.4336 28.4324 9.32153 26.9061 7.17697 24.4925L4.54866 26.9061C7.35806 30.0518 11.4066 32.0049 15.9078 32.0049V28.4324Z" fill="url(#paint4_linear_1_7)"/>
<path d="M8.02255 7.69565L5.63483 5.03888C2.52276 7.87932 0.590332 11.9718 0.590332 16.5222H4.12406C4.12406 13.0402 5.63483 9.86607 8.02255 7.69565Z" fill="url(#paint5_linear_1_7)"/>
</g>
<path d="M93.3493 55.2941L107.593 41.0503M107.593 55.3517L93.3493 41.1079" stroke="#6C6C6C" stroke-width="1.29854"/>
<g clip-path="url(#clip1_1_7)">
<rect x="35.8344" y="62.4448" width="40" height="40" rx="8" fill="url(#paint6_linear_1_7)"/>
<g filter="url(#filter0_f_1_7)">
<circle cx="55.8143" cy="82.4248" r="16.34" fill="#7CE884"/>
</g>
<g clip-path="url(#clip2_1_7)">
<path d="M52.5268 95.1898C59.5588 95.1898 65.2593 89.4893 65.2593 82.4573C65.2593 75.4253 59.5588 69.7248 52.5268 69.7248C45.4948 69.7248 39.7943 75.4253 39.7943 82.4573C39.7943 89.4893 45.4948 95.1898 52.5268 95.1898Z" fill="#FDD835"/>
<path opacity="0.5" d="M52.5268 69.7248C45.495 69.7248 39.7943 75.4256 39.7943 82.4573C39.7943 89.4891 45.495 95.1898 52.5268 95.1898C59.5585 95.1898 65.2593 89.4891 65.2593 82.4573C65.2593 75.4256 59.5585 69.7248 52.5268 69.7248ZM52.5268 94.6427C45.7969 94.6427 40.3414 89.1872 40.3414 82.4573C40.3414 75.7275 45.7969 70.2719 52.5268 70.2719C59.2566 70.2719 64.7122 75.7275 64.7122 82.4573C64.7122 89.1872 59.2566 94.6427 52.5268 94.6427Z" fill="white"/>
<path opacity="0.5" d="M57.6067 70.7787L40.848 87.5374C40.288 86.2512 39.9334 84.8531 39.8279 83.3874L53.4567 69.7586C54.9225 69.864 56.3205 70.2187 57.6067 70.7787Z" fill="white"/>
<path opacity="0.5" d="M63.6224 76.2079L46.2774 93.553C45.1986 92.9442 44.2178 92.1827 43.3633 91.2974L61.3669 73.2938C62.2522 74.1483 63.0142 75.1291 63.6224 76.2079Z" fill="white"/>
<path opacity="0.5" d="M60.8467 72.8193L42.8884 90.7772C42.6074 90.4524 42.3428 90.1127 42.0961 89.7601L59.8296 72.0266C60.1818 72.2732 60.5215 72.5378 60.8467 72.8193Z" fill="white"/>
<path opacity="0.5" d="M64.8598 79.2801L49.3495 94.7904C48.881 94.6701 48.4234 94.5238 47.9768 94.3532L64.4221 77.9079C64.5927 78.354 64.7394 78.8121 64.8593 79.2806L64.8598 79.2801Z" fill="white"/>
<path opacity="0.5" d="M62.8704 83.0083C62.8704 88.5176 58.4036 92.9845 52.8943 92.9845C49.7992 92.9845 47.0323 91.5749 45.2035 89.3622C47.0254 91.3317 49.6326 92.5647 52.5267 92.5647C58.036 92.5647 62.5028 88.0979 62.5028 82.5886C62.5028 80.1749 61.6454 77.9606 60.218 76.2347C61.8647 78.0143 62.8704 80.3937 62.8704 83.0083Z" fill="white"/>
<path d="M52.5267 92.5648C58.0364 92.5648 62.5029 88.0984 62.5029 82.5887C62.5029 77.079 58.0364 72.6125 52.5267 72.6125C47.0171 72.6125 42.5506 77.079 42.5506 82.5887C42.5506 88.0984 47.0171 92.5648 52.5267 92.5648Z" fill="#F39E09"/>
<path d="M60.0867 76.0792C58.3394 74.5732 56.0645 73.663 53.5772 73.663C48.0679 73.663 43.601 78.1298 43.601 83.6391C43.601 86.1264 44.5117 88.4014 46.0172 90.1486C43.8945 88.3188 42.5506 85.6107 42.5506 82.5887C42.5506 77.0794 47.0174 72.6125 52.5267 72.6125C55.5482 72.6125 58.2569 73.9559 60.0867 76.0792Z" fill="#E88102"/>
<path opacity="0.25" d="M59.7753 76.0299C53.315 78.2979 48.1305 83.279 45.5895 89.6054C45.3672 89.4438 45.1518 89.2727 44.9444 89.0931C43.4394 87.3464 42.5297 85.072 42.5297 82.5856C42.5297 77.0763 46.9965 72.6095 52.5058 72.6095C54.9922 72.6095 57.2666 73.5192 59.0133 75.0242C59.2879 75.3425 59.5425 75.6782 59.7758 76.0299H59.7753Z" fill="white"/>
</g>
<circle cx="68.5667" cy="91.8824" r="3.30747" fill="#464646"/>
<path opacity="0.25" d="M70.929 89.716C68.8051 90.4726 67.1006 92.1344 66.2651 94.2449C66.1921 94.191 66.1212 94.1339 66.0531 94.074C65.5583 93.4913 65.2592 92.7325 65.2592 91.9031C65.2592 90.0651 66.7277 88.575 68.539 88.575C69.3564 88.575 70.2057 88.9184 70.7799 89.4205C70.8702 89.5267 70.9291 89.5448 71.0286 89.6692L70.929 89.716Z" fill="white"/>
</g>
<path d="M90.1719 66.0323H90.6594C91.6594 66.0323 92.5469 66.1635 93.3219 66.426C94.0969 66.6885 94.7469 67.0698 95.2719 67.5698C95.8094 68.0698 96.2156 68.6823 96.4906 69.4073C96.7656 70.1198 96.9031 70.926 96.9031 71.826C96.9031 72.7885 96.7594 73.6323 96.4719 74.3573C96.1844 75.0823 95.7656 75.6885 95.2156 76.176C94.6656 76.6635 93.9906 77.0323 93.1906 77.2823C92.4031 77.5323 91.5031 77.6573 90.4906 77.6573H90.1719V78.9135H87.8281V77.6573H87.3406C85.3281 77.6573 83.7844 77.1448 82.7094 76.1198C81.6344 75.0948 81.0969 73.676 81.0969 71.8635C81.0969 70.901 81.2406 70.0573 81.5281 69.3323C81.8156 68.6073 82.2344 68.001 82.7844 67.5135C83.3344 67.026 84.0031 66.6573 84.7906 66.4073C85.5906 66.1573 86.4969 66.0323 87.5094 66.0323H87.8281V65.0385H90.1719V66.0323ZM83.5719 71.7885C83.5719 72.476 83.6719 73.0635 83.8719 73.551C84.0719 74.0385 84.3406 74.4385 84.6781 74.751C85.0281 75.051 85.4344 75.2698 85.8969 75.4073C86.3719 75.5448 86.8844 75.6135 87.4344 75.6135H87.8281V68.076H87.4719C86.1469 68.076 85.1656 68.3823 84.5281 68.9948C83.8906 69.5948 83.5719 70.526 83.5719 71.7885ZM90.1719 68.076V75.6135H90.5281C91.8531 75.6135 92.8344 75.3135 93.4719 74.7135C94.1094 74.101 94.4281 73.1635 94.4281 71.901C94.4281 71.2135 94.3281 70.626 94.1281 70.1385C93.9281 69.651 93.6531 69.2573 93.3031 68.9573C92.9656 68.6448 92.5594 68.4198 92.0844 68.2823C91.6094 68.1448 91.1031 68.076 90.5656 68.076H90.1719ZM98.9825 69.1635H101.157V75.5198L105.657 69.1635H107.739V78.5385H105.564V72.1073L101.064 78.5385H98.9825V69.1635ZM116.839 74.751H112.602V78.5385H110.408V69.1635H112.602V72.8198H116.839V69.1635H119.033V78.5385H116.839V74.751ZM121.912 69.8198C122.225 69.5823 122.656 69.3823 123.206 69.2198C123.768 69.0573 124.456 68.976 125.268 68.976C126.643 68.976 127.668 69.2323 128.343 69.7448C129.018 70.2573 129.356 71.126 129.356 72.351V78.5385H127.293V76.851C127.068 77.401 126.681 77.8448 126.131 78.1823C125.593 78.5198 124.95 78.6885 124.2 78.6885C123.25 78.6885 122.506 78.4385 121.968 77.9385C121.443 77.426 121.181 76.7073 121.181 75.7823C121.181 75.2448 121.275 74.801 121.462 74.451C121.65 74.101 121.912 73.826 122.25 73.626C122.587 73.4135 122.993 73.2635 123.468 73.176C123.943 73.0885 124.468 73.0448 125.043 73.0448H127.162V72.6323C127.162 71.9698 127 71.5135 126.675 71.2635C126.362 71.0135 125.893 70.8885 125.268 70.8885C124.406 70.8885 123.712 71.0448 123.187 71.3573C122.662 71.6573 122.237 72.0573 121.912 72.5573V69.8198ZM124.893 76.7198C125.268 76.7198 125.587 76.676 125.85 76.5885C126.125 76.4885 126.356 76.3698 126.543 76.2323C126.731 76.0823 126.875 75.9198 126.975 75.7448C127.075 75.5698 127.137 75.401 127.162 75.2385V74.4698H125.306C124.656 74.4698 124.175 74.5448 123.862 74.6948C123.55 74.8448 123.393 75.1323 123.393 75.5573C123.393 75.9198 123.518 76.2073 123.768 76.4198C124.031 76.6198 124.406 76.7198 124.893 76.7198ZM138.317 74.751H134.08V78.5385H131.886V69.1635H134.08V72.8198H138.317V69.1635H140.511V78.5385H138.317V74.751ZM150.628 77.601C150.415 77.8635 150.034 78.1198 149.484 78.3698C148.934 78.6198 148.278 78.7448 147.515 78.7448C146.765 78.7448 146.084 78.6448 145.472 78.4448C144.859 78.2323 144.334 77.9198 143.897 77.5073C143.459 77.0948 143.122 76.5823 142.884 75.9698C142.647 75.3573 142.528 74.6385 142.528 73.8135C142.528 73.0135 142.647 72.3135 142.884 71.7135C143.134 71.101 143.478 70.5948 143.915 70.1948C144.353 69.7823 144.878 69.476 145.49 69.276C146.103 69.0635 146.784 68.9573 147.534 68.9573C148.172 68.9698 148.753 69.0573 149.278 69.2198C149.803 69.3823 150.222 69.5823 150.534 69.8198V72.5573C150.209 72.0573 149.797 71.6573 149.297 71.3573C148.809 71.0448 148.222 70.8823 147.534 70.8698C146.634 70.8698 145.947 71.1073 145.472 71.5823C144.997 72.0573 144.759 72.7698 144.759 73.7198V74.001C144.759 74.976 145.003 75.6948 145.49 76.1573C145.99 76.6073 146.684 76.8323 147.572 76.8323C148.359 76.8323 149.003 76.6885 149.503 76.401C150.015 76.1135 150.39 75.7635 150.628 75.351V77.601ZM152.632 69.1635H154.826V71.9385H156.438C157.076 71.9385 157.638 71.9885 158.126 72.0885C158.626 72.1885 159.038 72.3635 159.363 72.6135C159.701 72.851 159.957 73.176 160.132 73.5885C160.307 74.001 160.394 74.5135 160.394 75.126C160.382 76.326 160.044 77.1948 159.382 77.7323C158.719 78.2698 157.657 78.5385 156.194 78.5385H152.632V69.1635ZM161.463 69.1635H163.657V78.5385H161.463V69.1635ZM156.119 76.6073C156.869 76.6073 157.401 76.501 157.713 76.2885C158.026 76.076 158.188 75.6885 158.201 75.126C158.188 74.626 158.044 74.2948 157.769 74.1323C157.494 73.9573 156.994 73.8698 156.269 73.8698H154.826V76.6073H156.119Z" fill="url(#paint7_linear_1_7)"/>
<path d="M81.7156 89.976H83.8906V96.3323L88.3906 89.976H90.4719V99.351H88.2969V92.9198L83.7969 99.351H81.7156V89.976ZM108.062 88.3823H103.637V99.351H101.293V88.3823H96.9428V86.226H108.062V88.3823ZM112.465 99.5573C111.728 99.5573 111.065 99.4573 110.478 99.2573C109.89 99.0448 109.384 98.7323 108.959 98.3198C108.534 97.9073 108.209 97.3948 107.984 96.7823C107.759 96.1698 107.646 95.451 107.646 94.626C107.646 93.8135 107.765 93.1073 108.003 92.5073C108.24 91.8948 108.571 91.3885 108.996 90.9885C109.421 90.576 109.934 90.2698 110.534 90.0698C111.134 89.8698 111.803 89.7698 112.54 89.7698C113.265 89.7698 113.921 89.876 114.509 90.0885C115.109 90.301 115.615 90.6135 116.028 91.026C116.453 91.4385 116.778 91.951 117.003 92.5635C117.228 93.176 117.34 93.8885 117.34 94.701C117.34 95.5135 117.221 96.226 116.984 96.8385C116.746 97.4385 116.415 97.9385 115.99 98.3385C115.565 98.7385 115.053 99.0448 114.453 99.2573C113.853 99.4573 113.19 99.5573 112.465 99.5573ZM109.878 94.6823C109.878 95.7198 110.109 96.476 110.571 96.951C111.034 97.4135 111.678 97.6448 112.503 97.6448C113.34 97.6448 113.984 97.4073 114.434 96.9323C114.884 96.4448 115.109 95.701 115.109 94.701V94.6448C115.109 93.6073 114.871 92.8573 114.396 92.3948C113.934 91.9198 113.29 91.6823 112.465 91.6823C111.628 91.6948 110.984 91.9448 110.534 92.4323C110.096 92.9073 109.878 93.6385 109.878 94.626V94.6823ZM125.043 96.051C124.718 96.2385 124.343 96.376 123.918 96.4635C123.493 96.551 123.062 96.5948 122.624 96.5948C121.499 96.5948 120.618 96.3323 119.98 95.8073C119.343 95.2823 119.024 94.4573 119.024 93.3323V89.976H121.218V92.9948C121.218 93.5573 121.368 93.976 121.668 94.251C121.98 94.5135 122.43 94.6448 123.018 94.6448C123.793 94.6448 124.468 94.501 125.043 94.2135V89.976H127.237V99.351H125.043V96.051ZM129.89 89.976H132.084V93.6323H133.603L136.228 89.976H138.665L135.384 94.401L139.19 99.351H136.528L133.584 95.4698H132.084V99.351H129.89V89.976ZM140.937 90.6323C141.249 90.3948 141.681 90.1948 142.231 90.0323C142.793 89.8698 143.481 89.7885 144.293 89.7885C145.668 89.7885 146.693 90.0448 147.368 90.5573C148.043 91.0698 148.381 91.9385 148.381 93.1635V99.351H146.318V97.6635C146.093 98.2135 145.706 98.6573 145.156 98.9948C144.618 99.3323 143.974 99.501 143.224 99.501C142.274 99.501 141.531 99.251 140.993 98.751C140.468 98.2385 140.206 97.5198 140.206 96.5948C140.206 96.0573 140.299 95.6135 140.487 95.2635C140.674 94.9135 140.937 94.6385 141.274 94.4385C141.612 94.226 142.018 94.076 142.493 93.9885C142.968 93.901 143.493 93.8573 144.068 93.8573H146.187V93.4448C146.187 92.7823 146.024 92.326 145.699 92.076C145.387 91.826 144.918 91.701 144.293 91.701C143.431 91.701 142.737 91.8573 142.212 92.1698C141.687 92.4698 141.262 92.8698 140.937 93.3698V90.6323ZM143.918 97.5323C144.293 97.5323 144.612 97.4885 144.874 97.401C145.149 97.301 145.381 97.1823 145.568 97.0448C145.756 96.8948 145.899 96.7323 145.999 96.5573C146.099 96.3823 146.162 96.2135 146.187 96.051V95.2823H144.331C143.681 95.2823 143.199 95.3573 142.887 95.5073C142.574 95.6573 142.418 95.9448 142.418 96.3698C142.418 96.7323 142.543 97.0198 142.793 97.2323C143.056 97.4323 143.431 97.5323 143.918 97.5323Z" fill="#222222"/>
<defs>
<filter id="filter0_f_1_7" x="31.4743" y="58.0848" width="48.68" height="48.68" filterUnits="userSpaceOnUse" color-interpolation-filters="sRGB">
<feFlood flood-opacity="0" result="BackgroundImageFix"/>
<feBlend mode="normal" in="SourceGraphic" in2="BackgroundImageFix" result="shape"/>
<feGaussianBlur stdDeviation="4" result="effect1_foregroundBlur_1_7"/>
</filter>
<linearGradient id="paint0_linear_1_7" x1="4.71474" y1="27.0202" x2="1.08545" y2="16.4819" gradientUnits="userSpaceOnUse">
<stop offset="0.1444" stop-color="#F2E913"/>
<stop offset="0.3037" stop-color="#E7E518"/>
<stop offset="0.5823" stop-color="#CADB26"/>
<stop offset="0.891" stop-color="#A3CD39"/>
</linearGradient>
<linearGradient id="paint1_linear_1_7" x1="6.09942" y1="5.18665" x2="15.2694" y2="1.6763" gradientUnits="userSpaceOnUse">
<stop offset="0.0592" stop-color="#0FA8E0"/>
<stop offset="0.5385" stop-color="#0099F9"/>
<stop offset="0.9234" stop-color="#0291EB"/>
</linearGradient>
<linearGradient id="paint2_linear_1_7" x1="14.9143" y1="28.9663" x2="25.8409" y2="26.4857" gradientUnits="userSpaceOnUse">
<stop offset="0.1226" stop-color="#A3CD39"/>
<stop offset="0.2846" stop-color="#86C339"/>
<stop offset="0.8693" stop-color="#21A038"/>
</linearGradient>
<linearGradient id="paint3_linear_1_7" x1="15.1816" y1="3.28482" x2="24.2685" y2="6.10125" gradientUnits="userSpaceOnUse">
<stop offset="0.0566" stop-color="#0291EB"/>
<stop offset="0.79" stop-color="#0C8ACB"/>
</linearGradient>
<linearGradient id="paint4_linear_1_7" x1="5.44724" y1="27.4713" x2="15.2097" y2="31.1355" gradientUnits="userSpaceOnUse">
<stop offset="0.1324" stop-color="#F2E913"/>
<stop offset="0.2977" stop-color="#EBE716"/>
<stop offset="0.5306" stop-color="#D9E01F"/>
<stop offset="0.8023" stop-color="#BBD62D"/>
<stop offset="0.9829" stop-color="#A3CD39"/>
</linearGradient>
<linearGradient id="paint5_linear_1_7" x1="3.29882" y1="16.9539" x2="7.22189" y2="6.70231" gradientUnits="userSpaceOnUse">
<stop offset="0.0698" stop-color="#A3CD39"/>
<stop offset="0.2599" stop-color="#81C55F"/>
<stop offset="0.9216" stop-color="#0FA8E0"/>
</linearGradient>
<linearGradient id="paint6_linear_1_7" x1="35.8344" y1="62.4448" x2="82.8596" y2="90.7897" gradientUnits="userSpaceOnUse">
<stop stop-color="#5EE4A6"/>
<stop offset="1" stop-color="#00722C"/>
</linearGradient>
<linearGradient id="paint7_linear_1_7" x1="80.3656" y1="65.5385" x2="88.6061" y2="98.0151" gradientUnits="userSpaceOnUse">
<stop stop-color="#5EE4A6"/>
<stop offset="1" stop-color="#00722C"/>
</linearGradient>
<clipPath id="clip0_1_7">
<rect width="200" height="33.3333" fill="white" transform="translate(0.5 0.62384)"/>
</clipPath>
<clipPath id="clip1_1_7">
<rect x="35.8344" y="62.4448" width="40" height="40" rx="8" fill="white"/>
</clipPath>
<clipPath id="clip2_1_7">
<rect width="25.4651" height="25.4651" fill="white" transform="translate(39.7943 69.7248)"/>
</clipPath>
</defs>
</svg>
