<svg width="403" height="70" viewBox="0 0 403 70" fill="none" xmlns="http://www.w3.org/2000/svg">
<path d="M39.3844 40.5348C39.2257 38.083 35.9316 37.007 33.9251 38.2241V37.1482H33.0918V38.2241C31.0809 36.9936 27.8 38.083 27.6369 40.5348C27.3942 43.4848 30.781 44.4683 33.0918 43.3174C33.0918 43.3174 33.0918 45.7295 32.611 46.7261C33.1359 46.7261 33.9737 46.7261 34.3971 46.7261C33.8635 45.7429 33.9119 43.3174 33.9119 43.3174C36.2359 44.477 39.6183 43.4938 39.3844 40.5348ZM33.0918 42.5148C31.8525 43.8378 28.9509 43.4585 28.51 41.5888C27.8353 38.8634 30.8869 37.3244 33.0918 39.0133V42.5148ZM38.5025 41.5888C38.0616 43.4585 35.1556 43.8334 33.9163 42.5148V39.0133C36.1169 37.3244 39.1772 38.8634 38.5025 41.5888Z" fill="#002B50"/>
<path d="M33.4972 47.5418C31.8215 45.1253 31.7643 39.397 29.7886 36.5659H28.4656C30.0576 38.1314 29.8592 46.1969 27.6323 47.1494L29.643 47.1185C30.2825 44.9973 30.3222 39.4454 30.0357 37.9109C31.5262 41.2799 31.4291 45.5705 33.515 48.7545L33.4972 47.5418Z" fill="#002B50"/>
<path d="M33.4971 47.5418C35.1728 45.1253 35.2303 39.397 37.2057 36.5659H38.5287C36.9367 38.1314 37.1441 46.1969 39.3666 47.1494L37.3865 47.1009C36.7471 44.9797 36.703 39.4279 36.9941 37.8931C35.5036 41.2623 35.6005 45.553 33.5105 48.7368V47.5418H33.4971Z" fill="#002B50"/>
<path d="M33.687 2.5353C33.8332 2.53941 33.9788 2.51437 34.1151 2.46163C34.2517 2.4089 34.3763 2.32953 34.4817 2.22815C34.5871 2.12677 34.6715 2.00541 34.7294 1.87114C34.7876 1.73687 34.8185 1.59238 34.8201 1.44608C34.8023 1.16174 34.6769 0.894888 34.469 0.699849C34.2614 0.504809 33.9871 0.39624 33.7022 0.39624C33.4173 0.39624 33.1432 0.504809 32.9356 0.699849C32.7277 0.894888 32.6022 1.16174 32.5845 1.44608C32.5891 1.73581 32.707 2.01218 32.9132 2.21583C33.1192 2.41948 33.3972 2.53418 33.687 2.5353Z" fill="#002B50"/>
<path d="M25.8415 8.53262C25.9721 8.53087 26.0995 8.49066 26.2074 8.41702C26.3156 8.34336 26.3996 8.23955 26.449 8.11848C26.4983 7.99744 26.511 7.86452 26.4854 7.7363C26.4598 7.60808 26.397 7.49026 26.3048 7.3975C26.2127 7.30474 26.0953 7.24116 25.9673 7.2147C25.8392 7.18824 25.7061 7.20008 25.5848 7.24871C25.4634 7.29734 25.3592 7.38062 25.2847 7.48816C25.2104 7.59574 25.1693 7.7228 25.1668 7.85351C25.1661 7.94249 25.1831 8.03071 25.2168 8.11306C25.2505 8.19544 25.3001 8.27035 25.3629 8.33347C25.4254 8.39658 25.5001 8.44667 25.5822 8.48086C25.6644 8.51504 25.7525 8.53262 25.8415 8.53262Z" fill="#002B50"/>
<path d="M53.2614 10.3938C53.2879 9.8955 53.9228 8.65634 53.1202 8.42263C50.1173 7.56713 49.1514 7.20992 47.1538 5.16818C46.9907 5.00525 46.7932 4.88104 46.5757 4.80471C46.3582 4.72837 46.1263 4.70189 45.897 4.72722C45.1253 4.82422 44.5742 5.47247 44.7945 6.02368C44.9371 6.38289 45.1034 6.73205 45.2928 7.06881C45.3194 7.06881 47.9652 11.827 43.4584 12.7663V12.5281C43.4618 12.4009 43.5103 12.2791 43.5952 12.1842C43.8199 11.958 44.0196 11.7081 44.1906 11.4389C44.3431 11.197 44.4323 10.9207 44.4501 10.6353C44.4681 10.3499 44.4139 10.0646 44.2928 9.80551C44.1717 9.54649 43.9873 9.32207 43.7566 9.15286C43.5262 8.98365 43.2567 8.87508 42.9734 8.83713C42.8383 8.80758 42.7012 8.78841 42.5633 8.77981C42.5132 9.46346 42.3646 10.1363 42.1222 10.7775C42.0253 10.9715 41.915 10.9715 41.7607 10.9715H41.2799C41.1125 10.9715 41.0197 10.9715 40.9228 10.7775C40.6871 10.1343 40.5387 9.46243 40.4817 8.77981C40.3424 8.78811 40.2038 8.80728 40.0674 8.83713C39.7844 8.87573 39.5154 8.98475 39.2854 9.15422C39.0554 9.32369 38.8717 9.5482 38.7511 9.80713C38.6302 10.0661 38.5765 10.3511 38.5947 10.6362C38.6127 10.9213 38.7022 11.1973 38.8547 11.4389C39.0201 11.7107 39.2187 11.9611 39.4455 12.1842C39.4902 12.2295 39.5253 12.2833 39.5486 12.3423C39.5721 12.4014 39.5837 12.4646 39.5823 12.5281V12.7045C37.6947 12.5943 36.8834 10.4996 36.9099 9.87786V9.12377C36.9122 8.91255 36.996 8.71037 37.1436 8.55934C37.5118 8.18118 37.8399 7.76592 38.1227 7.32017C38.3771 6.91879 38.5264 6.45967 38.5566 5.98532C38.5866 5.51097 38.4966 5.03667 38.2948 4.60631C38.0932 4.17595 37.7861 3.80343 37.4022 3.52319C37.0181 3.24294 36.5699 3.06402 36.0986 3.00298C35.8896 2.95762 35.6771 2.92959 35.4635 2.91919C35.4635 2.91919 35.2298 5.0844 34.6609 6.22655C34.511 6.54406 34.3301 6.54405 34.0699 6.54405H33.2982C33.038 6.54405 32.8574 6.54406 32.7074 6.22655C32.1561 5.0844 31.9048 2.91919 31.9048 2.91919C31.6986 2.93079 31.4935 2.9588 31.2919 3.00298C30.825 3.0684 30.3816 3.2494 30.0023 3.52958C29.6231 3.80975 29.3199 4.1802 29.1202 4.6073C28.9204 5.03441 28.8304 5.50465 28.8585 5.97533C28.8867 6.44601 29.0318 6.9022 29.2809 7.30252C29.5629 7.74889 29.8909 8.16425 30.26 8.54169C30.4076 8.69272 30.4914 8.89492 30.4937 9.10614V9.83818C30.4937 10.4467 29.6955 12.5546 27.8214 12.6648V12.4973C27.8248 12.3701 27.8733 12.2482 27.9579 12.1533C28.181 11.9267 28.3792 11.6768 28.549 11.4081C28.6975 11.166 28.7833 10.8906 28.7986 10.607C28.814 10.3233 28.7582 10.0403 28.6364 9.78366C28.5146 9.52702 28.3307 9.30482 28.1014 9.13722C27.8721 8.96962 27.6045 8.86193 27.3231 8.82392C27.1865 8.79406 27.0478 8.77489 26.9085 8.76659C26.8584 9.45022 26.7099 10.1231 26.4674 10.7642C26.44 10.8332 26.3892 10.8904 26.3239 10.9259C26.2586 10.9613 26.1832 10.9728 26.1103 10.9583H25.6208C25.4533 10.9583 25.3562 10.9583 25.2593 10.7642C25.0235 10.1211 24.8752 9.44921 24.8182 8.76659C24.6803 8.77517 24.5432 8.79434 24.408 8.82392C24.1247 8.86186 23.8553 8.97043 23.6248 9.13962C23.3943 9.30883 23.2099 9.53327 23.0888 9.79229C22.9676 10.0513 22.9135 10.3366 22.9313 10.622C22.9492 10.9075 23.0385 11.1838 23.191 11.4257C23.3591 11.6994 23.5621 11.9499 23.7951 12.171C23.8398 12.2163 23.8749 12.27 23.8982 12.3291C23.9217 12.3882 23.9333 12.4514 23.9319 12.5149V12.753C19.3854 11.8226 22.0312 7.02913 22.0753 7.04235C22.2648 6.70561 22.4313 6.35643 22.5736 5.99725C22.7941 5.44601 22.2429 4.79776 21.4712 4.70076C21.242 4.67446 21.0098 4.70048 20.7921 4.77686C20.5745 4.85324 20.3769 4.978 20.2144 5.14172C18.2168 7.19671 17.251 7.54067 14.2612 8.39617C13.463 8.62988 14.0804 9.86904 14.1245 10.3673C14.1774 11.3199 14.2347 11.7167 11.3816 13.5115C14.7551 12.9868 15.7914 12.8192 16.2853 15.5092C16.8966 14.7021 17.2265 13.717 17.2246 12.7045C17.2436 11.6427 16.9085 10.6047 16.2721 9.75439C16.2721 9.75439 16.2721 9.75439 16.2721 9.72793C16.1775 9.58984 16.1135 9.43313 16.0845 9.2683C16.0555 9.10347 16.0621 8.93433 16.1039 8.77226C16.1457 8.61018 16.2216 8.45894 16.3267 8.32864C16.4318 8.19837 16.5635 8.09207 16.713 8.01693C18.3843 7.20552 21.3036 5.7591 20.9729 7.25844C20.7257 8.17099 20.6055 9.11327 20.6157 10.0587C20.673 10.8701 20.7524 11.4654 21.1934 11.9725C21.5464 12.3317 21.9776 12.6045 22.4534 12.7697C22.9291 12.9349 23.4366 12.988 23.9363 12.925H26.9304C27.1909 12.9632 27.4552 12.9632 27.7155 12.925H27.8126C28.7342 12.7751 30.2113 12.1269 31.6006 9.83818H35.8206C37.2142 12.1401 38.687 12.7883 39.6132 12.925H39.7101C39.9705 12.9626 40.2347 12.9626 40.4951 12.925H43.4849C43.9846 12.9874 44.4919 12.9339 44.9675 12.7687C45.443 12.6035 45.8744 12.3311 46.2278 11.9725C46.6687 11.4654 46.7526 10.8701 46.8055 10.0587C46.817 9.11754 46.6968 8.17948 46.4484 7.27166C46.1175 5.77234 49.0413 7.21874 50.7081 8.03015C50.8592 8.10363 50.9928 8.20908 51.0991 8.33921C51.2055 8.46932 51.2821 8.621 51.324 8.78373C51.366 8.94646 51.372 9.11636 51.3418 9.28168C51.3118 9.44699 51.2458 9.60377 51.1492 9.74115C51.1492 9.74115 51.1492 9.74115 51.1492 9.76761C50.5192 10.6159 50.186 11.648 50.201 12.7045C50.2036 13.7196 50.5311 14.7071 51.1358 15.5224C51.6343 12.8324 52.6662 13 56.044 13.5248C53.1336 11.7432 53.2042 11.3463 53.2614 10.3938Z" fill="#002B50"/>
<path d="M41.5142 8.53262C41.645 8.53087 41.7723 8.49066 41.8803 8.41702C41.9883 8.34336 42.0722 8.23955 42.1216 8.11848C42.1712 7.99744 42.1839 7.86452 42.1583 7.7363C42.1324 7.60808 42.0697 7.49026 41.9776 7.3975C41.8854 7.30474 41.7679 7.24116 41.6399 7.2147C41.5119 7.18824 41.379 7.20008 41.2577 7.24871C41.1361 7.29734 41.0318 7.38062 40.9575 7.48817C40.883 7.59574 40.8422 7.7228 40.8394 7.85351C40.8383 7.94265 40.8549 8.03112 40.8883 8.11376C40.9218 8.19639 40.9714 8.27153 41.0341 8.33478C41.0971 8.39801 41.1718 8.44807 41.2542 8.48206C41.3366 8.51604 41.4249 8.53322 41.5142 8.53262Z" fill="#002B50"/>
<path d="M18.548 19.482C20.6294 19.0939 24.3071 20.364 25.8682 21.6472C29.0875 24.2666 29.7533 29.5451 26.6223 33.8713H40.3808C37.2545 29.5451 37.9424 24.2666 41.1393 21.6472C42.7138 20.364 46.3781 19.0939 48.4597 19.482C48.5302 19.482 49.853 15.0149 41.2937 15.0149H36.0021C36.0021 15.0149 38.5817 17.2595 37.1308 19.5217C34.291 23.1598 33.6471 26.1805 33.5193 29.5188C33.3825 26.1805 32.7474 23.1598 29.9076 19.5217C28.4746 17.2771 31.041 15.0149 31.041 15.0149H25.7492C17.181 15.0149 18.4775 19.4952 18.548 19.482Z" fill="#002B50"/>
<path d="M11.2805 44.8209C13.2252 44.5341 16.4929 43.3876 19.7032 40.8521C19.7032 40.8521 17.9393 44.3401 10.4426 47.5107C13.4589 48.5161 15.7608 47.7578 17.1808 46.8184C18.9182 45.6191 19.7473 45.0546 22.6401 41.9677C21.2334 44.5738 20.4352 46.1305 16.215 49.4114C16.215 49.4114 18.2568 50.1434 20.96 48.7366C21.5932 48.4211 22.146 47.965 22.5763 47.4032C23.0065 46.8415 23.3029 46.1891 23.4427 45.4954C23.7293 43.7315 25.9474 43.6919 26.0577 45.6498C26.0577 45.6498 26.0577 37.2403 26.0577 34.9782C23.7293 37.7474 20.5719 36.2747 19.884 34.0962C19.884 34.0962 19.1123 31.3136 21.6479 29.9731C21.6479 29.9731 22.5872 29.532 21.4009 28.8706C21.4009 28.8706 10.4823 21.5503 5.72412 9.90845C5.72412 9.90845 2.58435 15.381 6.04162 20.2186C8.97856 23.9977 11.6553 26.8334 14.1777 28.6678C14.1777 28.6678 9.61357 28.7382 1.96257 19.6276C1.96257 19.6276 0.379453 24.6019 4.16746 27.6226C7.02557 30.103 10.5232 31.7303 14.2615 32.319C14.2615 32.319 7.17494 34.1931 0.423551 27.3845C0.423551 27.3845 -0.0174283 32.5924 4.69664 34.5636C6.58846 35.3662 10.0325 36.2481 15.1346 35.9835C15.1346 35.9835 8.96092 38.8808 0.727827 35.3793C1.16881 39.1013 4.47615 40.5741 7.17935 40.4772C10.5152 40.5355 13.8387 40.0562 17.022 39.0573C17.022 39.0573 12.8018 42.3248 4.23362 42.8099C6.55316 45.5395 9.87815 45.028 11.2805 44.8209Z" fill="#002B50"/>
<path d="M51.8506 35.9703C56.966 36.2305 60.3968 35.3486 62.2885 34.5504C67.0114 32.5794 66.5706 27.3669 66.5706 27.3669C59.8279 34.1624 52.7413 32.3014 52.7413 32.3014C56.4847 31.7138 59.9873 30.0849 62.8486 27.6006C66.6499 24.5843 65.0536 19.6057 65.0536 19.6057C57.4024 28.7162 52.8384 28.6502 52.8384 28.6502C55.3652 26.8158 58.0419 23.9757 60.9788 20.201C64.4362 15.3502 61.2963 9.89087 61.2963 9.89087C56.5382 21.5107 45.6196 28.853 45.6196 28.853C44.4334 29.5278 45.3725 29.9555 45.3725 29.9555C47.8949 31.2785 47.1366 34.0743 47.1366 34.0743C46.4618 36.2527 43.3574 37.7166 41.0291 35.0399V45.2045C41.4171 43.7008 43.3177 43.8551 43.5777 45.4824C43.7155 46.1761 44.011 46.8292 44.4414 47.3905C44.8722 47.9518 45.426 48.4065 46.0604 48.719C48.7637 50.1258 50.8012 49.3938 50.8012 49.3938C46.5853 46.0998 45.7871 44.5431 44.3803 41.9501C47.26 45.037 48.0892 45.6059 49.8396 46.8008C51.2598 47.7358 53.5616 48.4941 56.5779 47.4888C49.0814 44.3181 47.3173 40.8301 47.3173 40.8301C50.5322 43.3656 53.7822 44.5121 55.7401 44.7989C57.16 45.0192 60.4718 45.5309 62.7958 42.8011C54.2099 42.3206 50.0074 39.0528 50.0074 39.0528C53.181 40.0487 56.493 40.5325 59.8192 40.4861C62.509 40.583 65.8296 39.0925 66.2442 35.3707C58.0156 38.8766 51.8506 35.9703 51.8506 35.9703Z" fill="#002B50"/>
<path d="M51.2331 54.5267C51.4484 54.5267 51.659 54.4628 51.8382 54.3433C52.0172 54.2236 52.1568 54.0534 52.2394 53.8545C52.3218 53.6554 52.3434 53.4363 52.3012 53.2252C52.2592 53.0139 52.1554 52.8196 52.0032 52.6674C51.8509 52.5151 51.6569 52.4113 51.4456 52.3693C51.2343 52.3273 51.0151 52.3488 50.8163 52.4314C50.6172 52.5137 50.4472 52.6533 50.3274 52.8325C50.2077 53.0116 50.1438 53.2222 50.1438 53.4376C50.1438 53.7265 50.2585 54.0035 50.4628 54.2077C50.667 54.4121 50.9441 54.5267 51.2331 54.5267Z" fill="#002B50"/>
<path d="M53.2753 55.2102C53.0199 55.5002 52.7057 55.7323 52.3537 55.8912C52.0017 56.0504 51.6199 56.1327 51.2335 56.1327C50.8473 56.1327 50.4653 56.0504 50.1132 55.8912C49.7612 55.7323 49.4472 55.5002 49.1918 55.2102C48.6236 55.6409 48.204 56.2382 47.9913 56.9189C47.7786 57.5995 47.7837 58.3294 48.0056 59.0069C45.7213 58.3236 43.1549 57.5121 44.685 54.9544C46.89 50.9196 42.7403 48.2691 41.047 48.2825C41.7834 54.5973 34.0176 48.2825 33.5502 53.8256C33.0785 48.2825 25.3304 54.5751 26.0537 48.2957C24.7306 48.5469 21.1323 49.6494 21.9305 53.9359C22.4067 55.1793 23.6503 57.274 21.5556 58.0987C18.0278 59.9242 18.7995 57.7547 16.2639 58.2487L10.7075 52.7363C10.751 52.4428 10.6947 52.1434 10.5475 51.8859C10.4004 51.6285 10.171 51.4278 9.89612 51.3164C10.0888 50.8649 10.1417 50.3661 10.0482 49.8842C9.95463 49.4025 9.71891 48.9598 9.37137 48.6131L8.43649 49.5656C7.22379 48.5734 5.49955 50.2623 6.44767 51.4928L5.48633 52.4585C5.83659 52.8092 6.28473 53.0459 6.77193 53.137C7.2591 53.2283 7.76252 53.1702 8.21599 52.97C8.32211 53.2507 8.52046 53.4867 8.77847 53.6399C9.03647 53.7928 9.33884 53.8537 9.63595 53.8122L15.1879 59.3377C15.0552 59.6845 15.0258 60.0624 15.1032 60.4255C15.1806 60.7888 15.3615 61.1217 15.6241 61.3842C15.8867 61.6467 16.2196 61.8278 16.5828 61.9051C16.946 61.9826 17.3238 61.9531 17.6706 61.8205C18.019 62.0675 19.0376 63.4344 19.5315 63.3506C21.344 63.0067 19.3948 61.3443 18.7995 60.8017C20.0387 58.9188 24.3029 59.9685 24.5632 58.6367C23.8356 57.9354 22.8521 54.0946 26.7944 53.3979C27.8528 53.2742 31.1469 53.7153 30.4105 56.8022C30.3369 57.0428 30.2017 57.2601 30.0186 57.4327C29.8352 57.605 29.61 57.7266 29.3655 57.7854C24.5147 59.2937 20.8589 64.0651 25.4626 65.4762C26.4548 61.4103 27.8088 60.8195 31.1028 59.4789C29.4755 60.8723 24.616 66.3713 29.5992 67.5444C29.846 64.7618 30.4811 63.0641 32.4258 60.9298C32.0378 64.1269 30.0622 68.2058 33.4577 69.6038C36.7518 68.4485 34.9305 64.1179 34.5468 60.9298C36.4916 63.0816 37.1266 64.7795 37.3735 67.5444C42.3567 66.345 37.5103 60.8857 35.8698 59.4789C39.1639 60.8017 40.5178 61.4103 41.51 65.4762C46.1093 64.0563 42.5154 59.3025 37.6337 57.7854C37.3876 57.7287 37.161 57.6078 36.9767 57.435C36.7924 57.2624 36.657 57.044 36.5843 56.8022C35.8567 53.7153 39.142 53.2742 40.2045 53.4242C44.1734 54.1386 43.1549 57.9531 42.4404 58.663C42.4669 59.4612 43.5957 59.3112 43.5957 59.3112C45.223 59.3643 48.8347 60.4137 48.8347 60.4137C52.2125 63.7343 57.0589 57.9884 53.2753 55.2102Z" fill="#002B50"/>
<path d="M102.117 30.0996L102.1 18.1337H100.698L95.7753 26.5442L90.7838 18.1337H89.3821V30.0996H91.0232V21.4329L95.348 28.6467H96.1342L100.459 21.3816L100.476 30.0996H102.117ZM105.568 30.0996H107.073L112.611 23.5013V30.0996H114.252V21.0398H112.765L107.21 27.6381V21.0398H105.568V30.0996ZM117.437 30.0996H119.079V26.3047H124.241V30.0996H125.882V21.0398H124.241V24.886H119.079V21.0398H117.437V30.0996ZM140.509 25.5527C140.509 22.7492 138.526 21.1423 135.159 20.9543V17.4158H133.552V20.9543C130.15 21.1252 128.218 22.7492 128.218 25.5527C128.218 28.3902 130.167 30.0313 133.552 30.2193V33.416H135.159V30.2193C138.543 30.0313 140.509 28.3731 140.509 25.5527ZM129.842 25.5527C129.842 23.6723 131.056 22.5782 133.552 22.4073V28.7664C131.073 28.5955 129.842 27.4842 129.842 25.5527ZM135.159 28.7835V22.4073C137.637 22.5782 138.885 23.6552 138.885 25.5527C138.885 27.5013 137.637 28.5955 135.159 28.7835ZM142.828 30.0996H144.333L149.871 23.5013V30.0996H151.512V21.0398H150.025L144.47 27.6381V21.0398H142.828V30.0996ZM154.697 30.0996H156.339V26.3047H161.501V30.0996H163.142V21.0398H161.501V24.886H156.339V21.0398H154.697V30.0996ZM94.0488 41.203H89.3821V53.1688H91.0915V49.5449H94.0488C97.1599 49.5449 99.0402 47.9722 99.0402 45.3739C99.0402 42.7757 97.1599 41.203 94.0488 41.203ZM93.9975 48.0578H91.0915V42.6901H93.9975C96.1857 42.6901 97.3308 43.6645 97.3308 45.3739C97.3308 47.0834 96.1857 48.0578 93.9975 48.0578ZM104.992 53.2715C107.71 53.2715 109.692 51.3399 109.692 48.6389C109.692 45.938 107.71 44.0235 104.992 44.0235C102.274 44.0235 100.274 45.938 100.274 48.6389C100.274 51.3399 102.274 53.2715 104.992 53.2715ZM104.992 51.8356C103.248 51.8356 101.932 50.5705 101.932 48.6389C101.932 46.7073 103.248 45.4593 104.992 45.4593C106.735 45.4593 108.034 46.7073 108.034 48.6389C108.034 50.5705 106.735 51.8356 104.992 51.8356ZM116.011 53.2715C117.635 53.2715 118.985 52.5877 119.703 51.3228L118.456 50.5364C117.874 51.4252 116.985 51.8356 115.994 51.8356C114.216 51.8356 112.883 50.6047 112.883 48.6389C112.883 46.7073 114.216 45.4593 115.994 45.4593C116.985 45.4593 117.874 45.8697 118.456 46.7586L119.703 45.9551C118.985 44.6902 117.635 44.0235 116.011 44.0235C113.225 44.0235 111.225 45.938 111.225 48.6389C111.225 51.3399 113.225 53.2715 116.011 53.2715ZM125.643 53.2715C127.267 53.2715 128.617 52.5877 129.335 51.3228L128.088 50.5364C127.506 51.4252 126.618 51.8356 125.626 51.8356C123.848 51.8356 122.515 50.6047 122.515 48.6389C122.515 46.7073 123.848 45.4593 125.626 45.4593C126.618 45.4593 127.506 45.8697 128.088 46.7586L129.335 45.9551C128.617 44.6902 127.267 44.0235 125.643 44.0235C122.857 44.0235 120.857 45.938 120.857 48.6389C120.857 51.3399 122.857 53.2715 125.643 53.2715ZM131.46 53.1688H132.964L138.503 46.5705V53.1688H140.144V44.1091H138.657L133.101 50.7073V44.1091H131.46V53.1688ZM143.329 53.1688H144.834L150.372 46.5705V53.1688H152.013V44.1091H150.526L144.97 50.7073V44.1091H143.329V53.1688Z" fill="#002B50"/>
<path d="M182.96 44.8179L202.676 25.1024M202.676 44.8976L182.96 25.1821" stroke="#6C6C6C" stroke-width="1.79738"/>
<g clip-path="url(#clip0_1_389)">
<rect x="222.573" y="7.31689" width="55.3661" height="55.3661" rx="11.0732" fill="url(#paint0_linear_1_389)"/>
<g filter="url(#filter0_f_1_389)">
<circle cx="250.228" cy="34.9723" r="22.6171" fill="#7CE884"/>
</g>
<g clip-path="url(#clip1_1_389)">
<path d="M245.678 52.6411C255.411 52.6411 263.302 44.7506 263.302 35.0173C263.302 25.284 255.411 17.3936 245.678 17.3936C235.945 17.3936 228.054 25.284 228.054 35.0173C228.054 44.7506 235.945 52.6411 245.678 52.6411Z" fill="#FDD835"/>
<path opacity="0.5" d="M245.678 17.3936C235.945 17.3936 228.054 25.2843 228.054 35.0173C228.054 44.7503 235.945 52.6411 245.678 52.6411C255.411 52.6411 263.302 44.7503 263.302 35.0173C263.302 25.2843 255.411 17.3936 245.678 17.3936ZM245.678 51.8838C236.363 51.8838 228.811 44.3324 228.811 35.0173C228.811 25.7022 236.363 18.1508 245.678 18.1508C254.993 18.1508 262.544 25.7022 262.544 35.0173C262.544 44.3324 254.993 51.8838 245.678 51.8838Z" fill="white"/>
<path opacity="0.5" d="M252.709 18.8524L229.513 42.049C228.737 40.2687 228.247 38.3335 228.101 36.3047L246.965 17.4404C248.994 17.5864 250.929 18.0772 252.709 18.8524Z" fill="white"/>
<path opacity="0.5" d="M261.036 26.3672L237.028 50.3755C235.534 49.5328 234.177 48.4789 232.994 47.2535L257.914 22.3337C259.139 23.5165 260.194 24.874 261.036 26.3672Z" fill="white"/>
<path opacity="0.5" d="M257.194 21.6769L232.337 46.5333C231.948 46.0838 231.582 45.6136 231.24 45.1255L255.786 20.5796C256.274 20.9211 256.744 21.2873 257.194 21.6769Z" fill="white"/>
<path opacity="0.5" d="M262.749 30.6196L241.28 52.0882C240.631 51.9216 239.998 51.7192 239.38 51.4831L262.143 28.7202C262.379 29.3377 262.582 29.9718 262.748 30.6203L262.749 30.6196Z" fill="white"/>
<path opacity="0.5" d="M259.995 35.7802C259.995 43.406 253.812 49.5887 246.186 49.5887C241.902 49.5887 238.072 47.6377 235.541 44.5749C238.063 47.3011 241.671 49.0077 245.677 49.0077C253.303 49.0077 259.486 42.8249 259.486 35.1992C259.486 31.8583 258.299 28.7934 256.323 26.4045C258.603 28.8677 259.995 32.1612 259.995 35.7802Z" fill="white"/>
<path d="M245.678 49.0076C253.304 49.0076 259.487 42.8253 259.487 35.1991C259.487 27.5729 253.304 21.3906 245.678 21.3906C238.052 21.3906 231.87 27.5729 231.87 35.1991C231.87 42.8253 238.052 49.0076 245.678 49.0076Z" fill="#F39E09"/>
<path d="M256.142 26.189C253.724 24.1044 250.575 22.8446 247.132 22.8446C239.506 22.8446 233.324 29.0274 233.324 36.6531C233.324 40.0959 234.584 43.2448 236.668 45.6632C233.73 43.1305 231.87 39.382 231.87 35.1991C231.87 27.5734 238.052 21.3906 245.678 21.3906C249.86 21.3906 253.61 23.2501 256.142 26.189Z" fill="#E88102"/>
<path opacity="0.25" d="M255.711 26.1208C246.769 29.26 239.593 36.1546 236.076 44.9114C235.768 44.6877 235.47 44.4509 235.183 44.2024C233.099 41.7846 231.84 38.6364 231.84 35.195C231.84 27.5692 238.023 21.3865 245.649 21.3865C249.09 21.3865 252.238 22.6456 254.656 24.7288C255.036 25.1694 255.389 25.6341 255.712 26.1208H255.711Z" fill="white"/>
</g>
<circle cx="267.88" cy="48.0629" r="4.57805" fill="#464646"/>
<path opacity="0.25" d="M271.15 45.0643C268.21 46.1115 265.85 48.4116 264.694 51.3329C264.593 51.2583 264.495 51.1793 264.401 51.0964C263.716 50.2898 263.302 49.2396 263.302 48.0915C263.302 45.5475 265.334 43.4849 267.842 43.4849C268.973 43.4849 270.148 43.9602 270.943 44.6552C271.068 44.8022 271.15 44.8273 271.288 44.9994L271.15 45.0643Z" fill="white"/>
</g>
<path d="M297.785 12.2825H298.46C299.844 12.2825 301.072 12.4641 302.145 12.8275C303.218 13.1908 304.117 13.7185 304.844 14.4106C305.588 15.1027 306.15 15.9505 306.531 16.954C306.912 17.9402 307.102 19.0562 307.102 20.3019C307.102 21.6341 306.903 22.802 306.505 23.8055C306.107 24.809 305.527 25.6482 304.766 26.323C304.005 26.9977 303.071 27.5081 301.963 27.8542C300.873 28.2002 299.627 28.3732 298.226 28.3732H297.785V30.1121H294.541V28.3732H293.866C291.08 28.3732 288.943 27.6639 287.456 26.2451C285.968 24.8263 285.224 22.8626 285.224 20.3538C285.224 19.0216 285.423 17.8537 285.821 16.8502C286.218 15.8467 286.798 15.0075 287.559 14.3327C288.321 13.658 289.246 13.1476 290.336 12.8015C291.444 12.4555 292.698 12.2825 294.099 12.2825H294.541V10.907H297.785V12.2825ZM288.649 20.25C288.649 21.2016 288.788 22.0148 289.065 22.6896C289.341 23.3643 289.713 23.918 290.181 24.3505C290.665 24.7658 291.227 25.0686 291.868 25.2589C292.525 25.4492 293.234 25.5444 293.996 25.5444H294.541V15.1113H294.048C292.214 15.1113 290.855 15.5352 289.973 16.383C289.091 17.2135 288.649 18.5025 288.649 20.25ZM297.785 15.1113V25.5444H298.278C300.112 25.5444 301.47 25.1291 302.352 24.2986C303.235 23.4508 303.676 22.1532 303.676 20.4057C303.676 19.4541 303.538 18.6409 303.261 17.9661C302.984 17.2914 302.603 16.7464 302.119 16.3311C301.652 15.8986 301.089 15.5871 300.432 15.3968C299.774 15.2065 299.074 15.1113 298.33 15.1113H297.785ZM309.98 16.6166H312.991V25.4146L319.219 16.6166H322.1V29.593H319.089V20.6912L312.861 29.593H309.98V16.6166ZM334.696 24.3505H328.831V29.593H325.794V16.6166H328.831V21.6774H334.696V16.6166H337.733V29.593H334.696V24.3505ZM341.718 17.5249C342.151 17.1962 342.748 16.9194 343.509 16.6944C344.287 16.4695 345.239 16.3571 346.364 16.3571C348.267 16.3571 349.686 16.7117 350.62 17.4211C351.554 18.1305 352.021 19.333 352.021 21.0286V29.593H349.167V27.2573C348.855 28.0185 348.319 28.6328 347.557 29.0999C346.814 29.5671 345.922 29.8006 344.884 29.8006C343.569 29.8006 342.54 29.4546 341.796 28.7625C341.069 28.0531 340.706 27.0583 340.706 25.7779C340.706 25.034 340.836 24.4197 341.095 23.9353C341.355 23.4508 341.718 23.0702 342.185 22.7934C342.652 22.4992 343.215 22.2916 343.872 22.1705C344.53 22.0494 345.256 21.9888 346.052 21.9888H348.985V21.4179C348.985 20.5009 348.76 19.8693 348.31 19.5233C347.878 19.1773 347.229 19.0043 346.364 19.0043C345.17 19.0043 344.21 19.2205 343.483 19.6531C342.756 20.0683 342.168 20.622 341.718 21.3141V17.5249ZM345.845 27.0756C346.364 27.0756 346.805 27.015 347.168 26.8939C347.549 26.7555 347.869 26.5911 348.128 26.4008C348.388 26.1932 348.587 25.9683 348.725 25.726C348.864 25.4838 348.95 25.2502 348.985 25.0253V23.9612H346.416C345.516 23.9612 344.85 24.0651 344.417 24.2727C343.985 24.4803 343.768 24.8782 343.768 25.4665C343.768 25.9683 343.941 26.3662 344.287 26.6603C344.651 26.9372 345.17 27.0756 345.845 27.0756ZM364.425 24.3505H358.56V29.593H355.524V16.6166H358.56V21.6774H364.425V16.6166H367.462V29.593H364.425V24.3505ZM381.465 28.2954C381.171 28.6587 380.643 29.0134 379.882 29.3594C379.121 29.7055 378.212 29.8785 377.157 29.8785C376.119 29.8785 375.176 29.7401 374.328 29.4633C373.48 29.1691 372.754 28.7366 372.148 28.1656C371.542 27.5946 371.075 26.8853 370.747 26.0375C370.418 25.1897 370.253 24.1948 370.253 23.0529C370.253 21.9456 370.418 20.9767 370.747 20.1462C371.093 19.2984 371.568 18.5977 372.174 18.044C372.78 17.473 373.506 17.0491 374.354 16.7723C375.202 16.4782 376.145 16.3311 377.183 16.3311C378.065 16.3484 378.87 16.4695 379.596 16.6944C380.323 16.9194 380.903 17.1962 381.335 17.5249V21.3141C380.885 20.622 380.315 20.0683 379.622 19.6531C378.948 19.2205 378.134 18.9956 377.183 18.9783C375.937 18.9783 374.986 19.307 374.328 19.9645C373.671 20.622 373.342 21.6082 373.342 22.9231V23.3124C373.342 24.662 373.679 25.6568 374.354 26.297C375.046 26.9199 376.006 27.2313 377.235 27.2313C378.325 27.2313 379.216 27.0323 379.908 26.6344C380.617 26.2364 381.136 25.752 381.465 25.181V28.2954ZM384.239 16.6166H387.276V20.4576H389.507C390.39 20.4576 391.168 20.5268 391.843 20.6652C392.535 20.8036 393.106 21.0459 393.556 21.3919C394.023 21.7206 394.378 22.1705 394.62 22.7415C394.862 23.3124 394.984 24.0218 394.984 24.8696C394.966 26.5306 394.499 27.7331 393.582 28.477C392.665 29.221 391.194 29.593 389.17 29.593H384.239V16.6166ZM396.463 16.6166H399.499V29.593H396.463V16.6166ZM389.066 26.9199C390.104 26.9199 390.84 26.7728 391.272 26.4787C391.705 26.1845 391.93 25.6482 391.947 24.8696C391.93 24.1775 391.731 23.719 391.35 23.4941C390.969 23.2519 390.277 23.1308 389.274 23.1308H387.276V26.9199H389.066Z" fill="url(#paint1_linear_1_389)"/>
<path d="M286.08 45.4303H289.091V54.2283L295.319 45.4303H298.2V58.4067H295.189V49.5049L288.961 58.4067H286.08V45.4303ZM322.547 43.2243H316.422V58.4067H313.178V43.2243H307.157V40.2397H322.547V43.2243ZM328.642 58.6922C327.621 58.6922 326.704 58.5538 325.891 58.277C325.078 57.9828 324.377 57.5503 323.789 56.9793C323.2 56.4084 322.751 55.699 322.439 54.8512C322.128 54.0034 321.972 53.0085 321.972 51.8666C321.972 50.742 322.136 49.7644 322.465 48.9339C322.794 48.0862 323.252 47.3854 323.841 46.8318C324.429 46.2608 325.138 45.8369 325.969 45.5601C326.799 45.2832 327.725 45.1448 328.746 45.1448C329.749 45.1448 330.658 45.2919 331.471 45.586C332.301 45.8802 333.002 46.3127 333.573 46.8837C334.161 47.4546 334.611 48.164 334.923 49.0118C335.234 49.8596 335.39 50.8458 335.39 51.9704C335.39 53.0951 335.225 54.0813 334.897 54.9291C334.568 55.7595 334.109 56.4516 333.521 57.0053C332.933 57.5589 332.223 57.9828 331.393 58.277C330.562 58.5538 329.645 58.6922 328.642 58.6922ZM325.06 51.9445C325.06 53.3805 325.381 54.4273 326.021 55.0848C326.661 55.7249 327.552 56.045 328.694 56.045C329.853 56.045 330.744 55.7163 331.367 55.0588C331.99 54.384 332.301 53.3546 332.301 51.9704V51.8926C332.301 50.4565 331.973 49.4184 331.315 48.7782C330.675 48.1208 329.784 47.792 328.642 47.792C327.483 47.8093 326.592 48.1554 325.969 48.8301C325.363 49.4876 325.06 50.4998 325.06 51.8666V51.9445ZM346.052 53.839C345.602 54.0986 345.083 54.2889 344.494 54.41C343.906 54.5311 343.309 54.5917 342.704 54.5917C341.147 54.5917 339.927 54.2283 339.044 53.5016C338.162 52.775 337.721 51.633 337.721 50.0759V45.4303H340.757V49.6087C340.757 50.3873 340.965 50.9669 341.38 51.3476C341.813 51.7109 342.436 51.8926 343.249 51.8926C344.321 51.8926 345.256 51.6936 346.052 51.2957V45.4303H349.088V58.4067H346.052V53.839ZM352.761 45.4303H355.798V50.4911H357.9L361.533 45.4303H364.907L360.365 51.5552L365.634 58.4067H361.948L357.874 53.0345H355.798V58.4067H352.761V45.4303ZM368.051 46.3387C368.484 46.0099 369.081 45.7331 369.842 45.5082C370.62 45.2832 371.572 45.1708 372.697 45.1708C374.6 45.1708 376.019 45.5255 376.953 46.2348C377.887 46.9442 378.354 48.1467 378.354 49.8423V58.4067H375.5V56.071C375.188 56.8323 374.652 57.4465 373.891 57.9136C373.147 58.3808 372.255 58.6144 371.217 58.6144C369.902 58.6144 368.873 58.2683 368.129 57.5762C367.402 56.8669 367.039 55.872 367.039 54.5917C367.039 53.8477 367.169 53.2335 367.428 52.749C367.688 52.2646 368.051 51.8839 368.518 51.6071C368.985 51.313 369.548 51.1053 370.205 50.9842C370.863 50.8631 371.589 50.8026 372.385 50.8026H375.318V50.2316C375.318 49.3146 375.093 48.6831 374.643 48.337C374.211 47.991 373.562 47.818 372.697 47.818C371.503 47.818 370.543 48.0342 369.816 48.4668C369.089 48.882 368.501 49.4357 368.051 50.1278V46.3387ZM372.178 55.8893C372.697 55.8893 373.138 55.8288 373.501 55.7076C373.882 55.5692 374.202 55.4049 374.461 55.2145C374.721 55.0069 374.92 54.782 375.058 54.5398C375.197 54.2975 375.283 54.064 375.318 53.839V52.775H372.749C371.849 52.775 371.183 52.8788 370.75 53.0864C370.318 53.294 370.101 53.692 370.101 54.2802C370.101 54.782 370.274 55.1799 370.62 55.4741C370.984 55.7509 371.503 55.8893 372.178 55.8893Z" fill="#222222"/>
<defs>
<filter id="filter0_f_1_389" x="216.538" y="1.282" width="67.3803" height="67.3806" filterUnits="userSpaceOnUse" color-interpolation-filters="sRGB">
<feFlood flood-opacity="0" result="BackgroundImageFix"/>
<feBlend mode="normal" in="SourceGraphic" in2="BackgroundImageFix" result="shape"/>
<feGaussianBlur stdDeviation="5.53661" result="effect1_foregroundBlur_1_389"/>
</filter>
<linearGradient id="paint0_linear_1_389" x1="222.573" y1="7.31689" x2="287.663" y2="46.5506" gradientUnits="userSpaceOnUse">
<stop stop-color="#5EE4A6"/>
<stop offset="1" stop-color="#00722C"/>
</linearGradient>
<linearGradient id="paint1_linear_1_389" x1="284.211" y1="11.593" x2="295.595" y2="56.5748" gradientUnits="userSpaceOnUse">
<stop stop-color="#5EE4A6"/>
<stop offset="1" stop-color="#00722C"/>
</linearGradient>
<clipPath id="clip0_1_389">
<rect x="222.573" y="7.31689" width="55.3661" height="55.3661" rx="11.0732" fill="white"/>
</clipPath>
<clipPath id="clip1_1_389">
<rect width="35.2475" height="35.2475" fill="white" transform="translate(228.054 17.3936)"/>
</clipPath>
</defs>
</svg>
