<svg width="133" height="119" viewBox="0 0 133 119" fill="none" xmlns="http://www.w3.org/2000/svg">
<g clip-path="url(#clip0_1_83)">
<path d="M29.0723 29.2891C28.9576 27.5177 26.5778 26.7404 25.1281 27.6197V26.8424H24.5261V27.6197C23.0733 26.7307 20.7029 27.5177 20.5851 29.2891C20.4098 31.4204 22.8566 32.1309 24.5261 31.2994C24.5261 31.2994 24.5261 33.0421 24.1788 33.7621C24.5579 33.7621 25.1633 33.7621 25.4691 33.7621C25.0836 33.0517 25.1186 31.2994 25.1186 31.2994C26.7976 32.1372 29.2413 31.4269 29.0723 29.2891ZM24.5261 30.7196C23.6308 31.6754 21.5344 31.4014 21.2159 30.0506C20.7284 28.0816 22.9331 26.9697 24.5261 28.1899V30.7196ZM28.4351 30.0506C28.1166 31.4014 26.0171 31.6722 25.1218 30.7196V28.1899C26.7116 26.9697 28.9226 28.0816 28.4351 30.0506Z" fill="#002B50"/>
<path d="M24.819 34.3515C23.6083 32.6057 23.567 28.4672 22.1396 26.4219H21.1838C22.334 27.5529 22.1906 33.3799 20.5818 34.068L22.0345 34.0457C22.4965 32.5132 22.5251 28.5022 22.3181 27.3935C23.395 29.8275 23.3248 32.9274 24.8318 35.2277L24.819 34.3515Z" fill="#002B50"/>
<path d="M24.819 34.3515C26.0296 32.6057 26.0711 28.4672 27.4983 26.4219H28.4541C27.304 27.5529 27.4538 33.3799 29.0595 34.068L27.629 34.033C27.167 32.5005 27.1351 28.4895 27.3455 27.3807C26.2686 29.8149 26.3386 32.9147 24.8286 35.2149V34.3515H24.819Z" fill="#002B50"/>
<path d="M24.9562 1.83592C25.0618 1.83889 25.167 1.8208 25.2655 1.7827C25.3642 1.7446 25.4542 1.68726 25.5303 1.61401C25.6065 1.54077 25.6675 1.45309 25.7093 1.35609C25.7513 1.25908 25.7737 1.15469 25.7748 1.049C25.762 0.843571 25.6713 0.650782 25.5212 0.509874C25.3712 0.368964 25.173 0.290527 24.9672 0.290527C24.7613 0.290527 24.5633 0.368964 24.4133 0.509874C24.2632 0.650782 24.1725 0.843571 24.1597 1.049C24.163 1.25832 24.2482 1.45798 24.3972 1.60511C24.546 1.75225 24.7468 1.83511 24.9562 1.83592Z" fill="#002B50"/>
<path d="M19.2882 6.16877C19.3825 6.1675 19.4745 6.13845 19.5525 6.08525C19.6307 6.03203 19.6913 5.95703 19.727 5.86957C19.7627 5.78212 19.7718 5.68608 19.7533 5.59345C19.7348 5.50082 19.6895 5.4157 19.6228 5.34868C19.5563 5.28167 19.4715 5.23573 19.379 5.21662C19.2865 5.1975 19.1903 5.20605 19.1027 5.24118C19.015 5.27632 18.9397 5.33648 18.8858 5.41418C18.8322 5.4919 18.8025 5.5837 18.8007 5.67813C18.8002 5.74242 18.8125 5.80615 18.8368 5.86565C18.8612 5.92517 18.897 5.97928 18.9423 6.02488C18.9875 6.07048 19.0415 6.10667 19.1008 6.13137C19.1602 6.15607 19.2238 6.16877 19.2882 6.16877Z" fill="#002B50"/>
<path d="M39.0979 7.51335C39.1171 7.15335 39.5758 6.2581 38.9959 6.08925C36.8264 5.47119 36.1286 5.21312 34.6854 3.73804C34.5676 3.62032 34.4249 3.53059 34.2678 3.47544C34.1106 3.42029 33.9431 3.40115 33.7774 3.41945C33.2199 3.48954 32.8218 3.95787 32.9809 4.3561C33.0839 4.61562 33.2041 4.86787 33.3409 5.11117C33.3601 5.11117 35.2716 8.54877 32.0156 9.22739V9.05534C32.0181 8.96344 32.0531 8.87539 32.1144 8.80684C32.2768 8.64344 32.4211 8.46292 32.5446 8.26842C32.6548 8.09365 32.7193 7.89402 32.7321 7.68782C32.7451 7.48162 32.7059 7.27549 32.6184 7.08834C32.5309 6.9012 32.3978 6.73907 32.2311 6.61682C32.0646 6.49457 31.8699 6.41614 31.6653 6.38872C31.5676 6.36737 31.4686 6.35352 31.3689 6.3473C31.3328 6.84122 31.2254 7.3273 31.0503 7.79054C30.9803 7.9307 30.9006 7.9307 30.7891 7.9307H30.4418C30.3208 7.9307 30.2538 7.9307 30.1838 7.79054C30.0134 7.32587 29.9063 6.84047 29.8651 6.3473C29.7644 6.3533 29.6643 6.36715 29.5658 6.38872C29.3613 6.4166 29.1669 6.49537 29.0008 6.6178C28.8346 6.74024 28.7019 6.90244 28.6148 7.0895C28.5274 7.27657 28.4886 7.48254 28.5018 7.6885C28.5148 7.89449 28.5794 8.09389 28.6896 8.26842C28.8091 8.46479 28.9526 8.64564 29.1164 8.80684C29.1488 8.83957 29.1741 8.87842 29.1909 8.9211C29.2079 8.96379 29.2163 9.00942 29.2153 9.05534V9.18277C27.8516 9.10314 27.2654 7.58982 27.2846 7.1406V6.5958C27.2863 6.4432 27.3468 6.29714 27.4534 6.18802C27.7194 5.91482 27.9564 5.6148 28.1608 5.29277C28.3446 5.00279 28.4524 4.67109 28.4743 4.32839C28.4959 3.98569 28.4309 3.64302 28.2851 3.3321C28.1394 3.02119 27.9176 2.75205 27.6403 2.54959C27.3628 2.34712 27.0389 2.21785 26.6984 2.17375C26.5474 2.14099 26.3939 2.12074 26.2396 2.11322C26.2396 2.11322 26.0708 3.6775 25.6598 4.50267C25.5514 4.73205 25.4208 4.73205 25.2328 4.73205H24.6753C24.4873 4.73205 24.3568 4.73205 24.2484 4.50267C23.8501 3.6775 23.6686 2.11322 23.6686 2.11322C23.5196 2.1216 23.3714 2.14184 23.2258 2.17375C22.8884 2.22102 22.5681 2.35179 22.2941 2.5542C22.0201 2.75662 21.8011 3.02425 21.6568 3.33282C21.5124 3.64139 21.4474 3.98112 21.4678 4.32117C21.4881 4.66122 21.5929 4.9908 21.7729 5.28002C21.9766 5.6025 22.2136 5.90259 22.4803 6.17527C22.5869 6.28439 22.6474 6.43047 22.6491 6.58307V7.11194C22.6491 7.55159 22.0724 9.07445 20.7184 9.1541V9.03304C20.7209 8.94114 20.7559 8.85309 20.8171 8.78454C20.9783 8.6208 21.1214 8.4403 21.2441 8.24612C21.3514 8.07122 21.4134 7.87229 21.4244 7.66735C21.4356 7.46242 21.3953 7.25799 21.3073 7.07255C21.2193 6.88714 21.0864 6.7266 20.9208 6.60552C20.7551 6.48444 20.5618 6.40664 20.3584 6.37917C20.2598 6.3576 20.1596 6.34375 20.0589 6.33775C20.0228 6.83165 19.9154 7.31775 19.7403 7.78097C19.7204 7.83084 19.6838 7.87215 19.6366 7.89777C19.5894 7.92339 19.5349 7.93165 19.4823 7.92115H19.1286C19.0076 7.92115 18.9374 7.92115 18.8674 7.78097C18.6971 7.31632 18.5899 6.83092 18.5488 6.33775C18.4491 6.34395 18.3501 6.3578 18.2524 6.37917C18.0478 6.40659 17.8531 6.48502 17.6866 6.60725C17.52 6.7295 17.3869 6.89165 17.2993 7.07879C17.2118 7.26592 17.1727 7.47205 17.1856 7.67825C17.1985 7.88445 17.263 8.0841 17.3732 8.25885C17.4946 8.45659 17.6413 8.63759 17.8096 8.79729C17.8419 8.83002 17.8673 8.86887 17.8841 8.91154C17.9011 8.95422 17.9094 8.99987 17.9084 9.04579V9.21782C14.6237 8.54559 16.5353 5.0825 16.5672 5.09205C16.704 4.84877 16.8243 4.5965 16.9272 4.337C17.0865 3.93875 16.6882 3.47042 16.1307 3.40034C15.9651 3.38134 15.7974 3.40014 15.6401 3.45532C15.4828 3.5105 15.3401 3.60064 15.2227 3.71892C13.7795 5.20357 13.0818 5.45207 10.9217 6.07014C10.3451 6.23899 10.7911 7.13424 10.8229 7.49424C10.8612 8.1824 10.9026 8.46914 8.84131 9.7658C11.2785 9.38667 12.0272 9.2656 12.384 11.209C12.8257 10.626 13.064 9.91422 13.0626 9.18277C13.0764 8.4156 12.8343 7.66569 12.3745 7.0514C12.3745 7.0514 12.3745 7.0514 12.3745 7.03229C12.3061 6.93252 12.26 6.8193 12.239 6.70022C12.218 6.58114 12.2228 6.45894 12.253 6.34185C12.2832 6.22475 12.3381 6.11549 12.414 6.02135C12.4899 5.92724 12.585 5.85044 12.6931 5.79615C13.9005 5.20994 16.0096 4.16495 15.7707 5.24817C15.5921 5.90745 15.5052 6.58822 15.5126 7.27122C15.554 7.85744 15.6114 8.28754 15.93 8.65392C16.185 8.91339 16.4966 9.11047 16.8403 9.22984C17.184 9.3492 17.5506 9.3876 17.9116 9.34207H20.0748C20.2629 9.36967 20.4539 9.36967 20.6419 9.34207H20.7121C21.3779 9.23375 22.4451 8.76542 23.4488 7.11194H26.4976C27.5044 8.77499 28.5684 9.2433 29.2376 9.34207H29.3076C29.4958 9.36922 29.6866 9.36922 29.8748 9.34207H32.0348C32.3958 9.38712 32.7623 9.34847 33.1059 9.22914C33.4494 9.1098 33.7611 8.91299 34.0164 8.65392C34.3349 8.28754 34.3956 7.85744 34.4338 7.27122C34.4421 6.5913 34.3553 5.91359 34.1758 5.25772C33.9368 4.17452 36.0491 5.21949 37.2533 5.8057C37.3624 5.85879 37.4589 5.93497 37.5358 6.02899C37.6126 6.12299 37.6679 6.23257 37.6983 6.35014C37.7286 6.4677 37.7329 6.59045 37.7111 6.70989C37.6894 6.82932 37.6418 6.94259 37.5719 7.04184C37.5719 7.04184 37.5719 7.04184 37.5719 7.06095C37.1168 7.67382 36.8761 8.41947 36.8869 9.18277C36.8888 9.91612 37.1254 10.6296 37.5623 11.2186C37.9224 9.27517 38.6679 9.39624 41.1083 9.77535C39.0056 8.48825 39.0566 8.20152 39.0979 7.51335Z" fill="#002B50"/>
<path d="M30.611 6.16877C30.7055 6.1675 30.7975 6.13845 30.8755 6.08525C30.9535 6.03203 31.0141 5.95703 31.0498 5.86957C31.0856 5.78212 31.0948 5.68608 31.0763 5.59345C31.0576 5.50082 31.0123 5.4157 30.9458 5.34868C30.8791 5.28167 30.7943 5.23573 30.7018 5.21662C30.6093 5.1975 30.5133 5.20605 30.4256 5.24118C30.3378 5.27632 30.2625 5.33648 30.2088 5.41418C30.155 5.4919 30.1255 5.5837 30.1235 5.67813C30.1226 5.74253 30.1346 5.80645 30.1588 5.86615C30.183 5.92585 30.2188 5.98013 30.2641 6.02583C30.3096 6.07152 30.3636 6.10768 30.4231 6.13223C30.4826 6.15678 30.5465 6.1692 30.611 6.16877Z" fill="#002B50"/>
<path d="M14.0188 14.0793C15.5226 13.799 18.1796 14.7165 19.3074 15.6436C21.6332 17.536 22.1142 21.3495 19.8522 24.475H29.7922C27.5336 21.3495 28.0306 17.536 30.3402 15.6436C31.4777 14.7165 34.1251 13.799 35.6289 14.0793C35.6799 14.0793 36.6356 10.852 30.4517 10.852H26.6287C26.6287 10.852 28.4924 12.4736 27.4442 14.108C25.3926 16.7364 24.9274 18.9187 24.8351 21.3305C24.7362 18.9187 24.2774 16.7364 22.2257 14.108C21.1904 12.4864 23.0446 10.852 23.0446 10.852H19.2214C13.0312 10.852 13.9679 14.0889 14.0188 14.0793Z" fill="#002B50"/>
<path d="M8.76826 32.3857C10.1733 32.1786 12.534 31.3502 14.8534 29.5184C14.8534 29.5184 13.579 32.0384 8.16294 34.3291C10.3421 35.0554 12.0052 34.5076 13.031 33.8289C14.2863 32.9624 14.8852 32.5546 16.9752 30.3244C15.9589 32.2072 15.3822 33.3319 12.3333 35.7022C12.3333 35.7022 13.8084 36.2311 15.7614 35.2147C16.2188 34.9867 16.6182 34.6572 16.9291 34.2514C17.2399 33.8456 17.454 33.3742 17.555 32.8731C17.7621 31.5987 19.3646 31.5701 19.4443 32.9846C19.4443 32.9846 19.4443 26.9091 19.4443 25.2747C17.7621 27.2754 15.481 26.2114 14.984 24.6376C14.984 24.6376 14.4265 22.6272 16.2584 21.6587C16.2584 21.6587 16.937 21.3401 16.0799 20.8622C16.0799 20.8622 8.19161 15.5736 4.75401 7.16278C4.75401 7.16278 2.48564 11.1165 4.98339 14.6115C7.10523 17.3417 9.03908 19.3904 10.8614 20.7157C10.8614 20.7157 7.56399 20.7666 2.03642 14.1845C2.03642 14.1845 0.89268 17.7782 3.62938 19.9606C5.69426 21.7526 8.22118 22.9282 10.9219 23.3536C10.9219 23.3536 5.80218 24.7076 0.92454 19.7886C0.92454 19.7886 0.605948 23.5511 4.01169 24.9752C5.37846 25.5551 7.86666 26.1922 11.5528 26.0011C11.5528 26.0011 7.09248 28.0942 1.14437 25.5646C1.46296 28.2536 3.85239 29.3176 5.80536 29.2476C8.21541 29.2897 10.6165 28.9434 12.9163 28.2217C12.9163 28.2217 9.86741 30.5824 3.67718 30.9329C5.35296 32.9049 7.75514 32.5354 8.76826 32.3857Z" fill="#002B50"/>
<path d="M38.0787 25.9915C41.7743 26.1795 44.253 25.5424 45.6197 24.9657C49.0318 23.5417 48.7133 19.7759 48.7133 19.7759C43.842 24.6854 38.7222 23.3409 38.7222 23.3409C41.4267 22.9164 43.9572 21.7395 46.0243 19.9447C48.7707 17.7655 47.6173 14.1687 47.6173 14.1687C42.0897 20.7507 38.7923 20.703 38.7923 20.703C40.6178 19.3777 42.5517 17.3259 44.6735 14.5988C47.1713 11.0943 44.9028 7.15009 44.9028 7.15009C41.4653 15.545 33.577 20.8495 33.577 20.8495C32.72 21.337 33.3985 21.646 33.3985 21.646C35.2208 22.6019 34.673 24.6217 34.673 24.6217C34.1855 26.1955 31.9427 27.2532 30.2605 25.3194V32.6629C30.5408 31.5765 31.914 31.688 32.1018 32.8637C32.2013 33.3649 32.4148 33.8367 32.7258 34.2422C33.037 34.6477 33.4372 34.9762 33.8955 35.202C35.8485 36.2184 37.3205 35.6895 37.3205 35.6895C34.2747 33.3097 33.698 32.185 32.6817 30.3117C34.7622 32.5419 35.3612 32.9529 36.6258 33.8162C37.6518 34.4917 39.3148 35.0395 41.494 34.3132C36.078 32.0225 34.8035 29.5025 34.8035 29.5025C37.1262 31.3344 39.4742 32.1627 40.8887 32.3699C41.9145 32.529 44.3072 32.8987 45.9862 30.9265C39.7832 30.5794 36.747 28.2185 36.747 28.2185C39.0398 28.938 41.4327 29.2875 43.8357 29.254C45.779 29.324 48.178 28.2472 48.4775 25.5584C42.5327 28.0912 38.0787 25.9915 38.0787 25.9915Z" fill="#002B50"/>
<path d="M37.6327 39.3979C37.7882 39.3979 37.9404 39.3517 38.0699 39.2654C38.1992 39.1789 38.3 39.0559 38.3597 38.9122C38.4192 38.7684 38.4349 38.61 38.4044 38.4575C38.374 38.3049 38.299 38.1645 38.189 38.0545C38.079 37.9445 37.9389 37.8695 37.7862 37.8392C37.6335 37.8089 37.4752 37.8244 37.3315 37.884C37.1877 37.9435 37.0649 38.0444 36.9784 38.1739C36.8919 38.3032 36.8457 38.4554 36.8457 38.611C36.8457 38.8197 36.9285 39.0199 37.0762 39.1674C37.2237 39.315 37.4239 39.3979 37.6327 39.3979Z" fill="#002B50"/>
<path d="M39.108 39.8917C38.9235 40.1012 38.6965 40.2689 38.4421 40.3837C38.1878 40.4987 37.912 40.5582 37.6328 40.5582C37.3538 40.5582 37.0778 40.4987 36.8235 40.3837C36.5691 40.2689 36.3423 40.1012 36.1578 39.8917C35.7473 40.2029 35.4441 40.6344 35.2905 41.1262C35.1368 41.6179 35.1405 42.1452 35.3008 42.6347C33.6505 42.141 31.7963 41.5547 32.9018 39.7069C34.4948 36.7919 31.4968 34.877 30.2735 34.8867C30.8055 39.4489 25.195 34.8867 24.8573 38.8914C24.5165 34.8867 18.9188 39.4329 19.4413 34.8962C18.4855 35.0777 15.8858 35.8742 16.4624 38.971C16.8065 39.8694 17.705 41.3827 16.1916 41.9785C13.6429 43.2974 14.2004 41.73 12.3685 42.0869L8.35429 38.1044C8.3857 37.8924 8.34499 37.676 8.23869 37.49C8.13237 37.304 7.96664 37.159 7.76807 37.0785C7.90724 36.7524 7.9455 36.392 7.87792 36.0439C7.81034 35.6959 7.64004 35.376 7.38895 35.1255L6.71354 35.8137C5.8374 35.0969 4.5917 36.317 5.27669 37.206L4.58215 37.9037C4.8352 38.157 5.15897 38.328 5.51095 38.3939C5.86292 38.4599 6.22662 38.4179 6.55424 38.2732C6.6309 38.476 6.7742 38.6465 6.9606 38.7572C7.147 38.8677 7.36545 38.9117 7.5801 38.8817L11.5912 42.8737C11.4953 43.1242 11.4741 43.3972 11.53 43.6595C11.5859 43.922 11.7166 44.1625 11.9063 44.3522C12.096 44.5419 12.3366 44.6727 12.599 44.7285C12.8613 44.7845 13.1343 44.7632 13.3848 44.6674C13.6365 44.8459 14.3725 45.8334 14.7293 45.7729C16.0387 45.5244 14.6305 44.3234 14.2004 43.9314C15.0957 42.571 18.1765 43.3294 18.3645 42.3672C17.8388 41.8605 17.1283 39.0857 19.9765 38.5824C20.7411 38.493 23.121 38.8117 22.589 41.0419C22.5358 41.2157 22.4381 41.3727 22.3058 41.4974C22.1733 41.6219 22.0106 41.7097 21.834 41.7522C18.3295 42.8419 15.6883 46.289 19.0143 47.3085C19.7311 44.371 20.7093 43.9442 23.0891 42.9757C21.9135 43.9824 18.4026 47.9552 22.0028 48.8027C22.1811 46.7924 22.64 45.5659 24.045 44.0239C23.7646 46.3337 22.3373 49.2805 24.7905 50.2905C27.1703 49.4559 25.8545 46.3272 25.5773 44.0239C26.9823 45.5785 27.4411 46.8052 27.6195 48.8027C31.2196 47.9362 27.7183 43.992 26.5331 42.9757C28.913 43.9314 29.8911 44.371 30.608 47.3085C33.9308 46.2827 31.3343 42.8482 27.8075 41.7522C27.6296 41.7112 27.466 41.6239 27.3328 41.499C27.1996 41.3744 27.1018 41.2165 27.0493 41.0419C26.5236 38.8117 28.8971 38.493 29.6648 38.6014C32.5321 39.1175 31.7963 41.8734 31.2801 42.3862C31.2993 42.9629 32.1148 42.8545 32.1148 42.8545C33.2905 42.8929 35.8998 43.651 35.8998 43.651C38.3401 46.05 41.8415 41.8989 39.108 39.8917Z" fill="#002B50"/>
<path d="M74.3945 21.7502L74.3822 13.1053H73.3695L69.8127 19.1815L66.2065 13.1053H65.1938V21.7502H66.3795V15.4889L69.504 20.7005H70.072L73.1967 15.4518L73.209 21.7502H74.3945ZM76.8878 21.7502H77.9747L81.976 16.9832V21.7502H83.1617V15.2048H82.0872L78.0735 19.9719V15.2048H76.8878V21.7502ZM85.4628 21.7502H86.6485V19.0085H90.3782V21.7502H91.5638V15.2048H90.3782V17.9835H86.6485V15.2048H85.4628V21.7502ZM102.131 18.4652C102.131 16.4398 100.699 15.2789 98.2657 15.1431V12.5866H97.1047V15.1431C94.6472 15.2666 93.2515 16.4398 93.2515 18.4652C93.2515 20.5152 94.6595 21.7009 97.1047 21.8367V24.1462H98.2657V21.8367C100.711 21.7009 102.131 20.5029 102.131 18.4652ZM94.4248 18.4652C94.4248 17.1067 95.3017 16.3163 97.1047 16.1928V20.787C95.314 20.6635 94.4248 19.8607 94.4248 18.4652ZM98.2657 20.7994V16.1928C100.056 16.3163 100.958 17.0944 100.958 18.4652C100.958 19.873 100.056 20.6635 98.2657 20.7994ZM103.807 21.7502H104.894L108.895 16.9832V21.7502H110.081V15.2048H109.006L104.993 19.9719V15.2048H103.807V21.7502ZM112.382 21.7502H113.568V19.0085H117.297V21.7502H118.483V15.2048H117.297V17.9835H113.568V15.2048H112.382V21.7502ZM68.5653 29.772H65.1938V38.4169H66.4288V35.7987H68.5653C70.813 35.7987 72.1715 34.6625 72.1715 32.7854C72.1715 30.9082 70.813 29.772 68.5653 29.772ZM68.5284 34.7244H66.4288V30.8464H68.5284C70.1092 30.8464 70.9365 31.5504 70.9365 32.7854C70.9365 34.0204 70.1092 34.7244 68.5284 34.7244ZM76.4712 38.491C78.4348 38.491 79.8673 37.0955 79.8673 35.1442C79.8673 33.1929 78.4348 31.8097 76.4712 31.8097C74.5075 31.8097 73.0627 33.1929 73.0627 35.1442C73.0627 37.0955 74.5075 38.491 76.4712 38.491ZM76.4712 37.4537C75.2115 37.4537 74.2605 36.5397 74.2605 35.1442C74.2605 33.7487 75.2115 32.847 76.4712 32.847C77.7308 32.847 78.6695 33.7487 78.6695 35.1442C78.6695 36.5397 77.7308 37.4537 76.4712 37.4537ZM84.4323 38.491C85.6055 38.491 86.5812 37.997 87.0998 37.0832L86.1983 36.515C85.7783 37.1572 85.1362 37.4537 84.4198 37.4537C83.1355 37.4537 82.1722 36.5644 82.1722 35.1442C82.1722 33.7487 83.1355 32.847 84.4198 32.847C85.1362 32.847 85.7783 33.1435 86.1983 33.7857L87.0998 33.2052C86.5812 32.2914 85.6055 31.8097 84.4323 31.8097C82.4192 31.8097 80.9743 33.1929 80.9743 35.1442C80.9743 37.0955 82.4192 38.491 84.4323 38.491ZM91.3912 38.491C92.5643 38.491 93.54 37.997 94.0587 37.0832L93.1572 36.515C92.7373 37.1572 92.0952 37.4537 91.3788 37.4537C90.0943 37.4537 89.1312 36.5644 89.1312 35.1442C89.1312 33.7487 90.0943 32.847 91.3788 32.847C92.0952 32.847 92.7373 33.1435 93.1572 33.7857L94.0587 33.2052C93.54 32.2914 92.5643 31.8097 91.3912 31.8097C89.3782 31.8097 87.9332 33.1929 87.9332 35.1442C87.9332 37.0955 89.3782 38.491 91.3912 38.491ZM95.5937 38.4169H96.6805L100.682 33.6499V38.4169H101.868V31.8715H100.793L96.7794 36.6385V31.8715H95.5937V38.4169ZM104.169 38.4169H105.256L109.257 33.6499V38.4169H110.443V31.8715H109.368L105.354 36.6385V31.8715H104.169V38.4169Z" fill="#002B50"/>
</g>
<path d="M59.3492 71.6274L73.593 57.3836M73.593 71.685L59.3492 57.4412" stroke="#6C6C6C" stroke-width="1.29854"/>
<g clip-path="url(#clip1_1_83)">
<rect x="1.83435" y="78.7781" width="40" height="40" rx="8" fill="url(#paint0_linear_1_83)"/>
<g filter="url(#filter0_f_1_83)">
<circle cx="21.8142" cy="98.7581" r="16.34" fill="#7CE884"/>
</g>
<g clip-path="url(#clip2_1_83)">
<path d="M18.5267 111.523C25.5587 111.523 31.2592 105.823 31.2592 98.7906C31.2592 91.7587 25.5587 86.0581 18.5267 86.0581C11.4947 86.0581 5.79419 91.7587 5.79419 98.7906C5.79419 105.823 11.4947 111.523 18.5267 111.523Z" fill="#FDD835"/>
<path opacity="0.5" d="M18.5267 86.0581C11.495 86.0581 5.79419 91.7589 5.79419 98.7906C5.79419 105.822 11.495 111.523 18.5267 111.523C25.5585 111.523 31.2592 105.822 31.2592 98.7906C31.2592 91.7589 25.5585 86.0581 18.5267 86.0581ZM18.5267 110.976C11.7969 110.976 6.34129 105.52 6.34129 98.7906C6.34129 92.0608 11.7969 86.6052 18.5267 86.6052C25.2566 86.6052 30.7121 92.0608 30.7121 98.7906C30.7121 105.52 25.2566 110.976 18.5267 110.976Z" fill="white"/>
<path opacity="0.5" d="M23.6067 87.112L6.84798 103.871C6.28794 102.585 5.93332 101.186 5.82788 99.7207L19.4567 86.0919C20.9224 86.1974 22.3205 86.552 23.6067 87.112Z" fill="white"/>
<path opacity="0.5" d="M29.6224 92.5412L12.2773 109.886C11.1986 109.278 10.2178 108.516 9.36328 107.631L27.3669 89.6271C28.2522 90.4816 29.0141 91.4624 29.6224 92.5412Z" fill="white"/>
<path opacity="0.5" d="M26.8467 89.1527L8.88837 107.11C8.60736 106.786 8.34276 106.446 8.09607 106.093L25.8296 88.3599C26.1817 88.6066 26.5214 88.8712 26.8467 89.1527Z" fill="white"/>
<path opacity="0.5" d="M30.8597 95.6134L15.3494 111.124C14.8809 111.003 14.4233 110.857 13.9767 110.687L30.422 94.2412C30.5926 94.6873 30.7394 95.1454 30.8592 95.6139L30.8597 95.6134Z" fill="white"/>
<path opacity="0.5" d="M28.8704 99.3417C28.8704 104.851 24.4035 109.318 18.8942 109.318C15.7991 109.318 13.0323 107.908 11.2035 105.695C13.0253 107.665 15.6325 108.898 18.5267 108.898C24.036 108.898 28.5028 104.431 28.5028 98.9219C28.5028 96.5082 27.6454 94.2939 26.2179 92.5681C27.8647 94.3476 28.8704 96.727 28.8704 99.3417Z" fill="white"/>
<path d="M18.5267 108.898C24.0363 108.898 28.5028 104.432 28.5028 98.922C28.5028 93.4123 24.0363 88.9459 18.5267 88.9459C13.017 88.9459 8.55054 93.4123 8.55054 98.922C8.55054 104.432 13.017 108.898 18.5267 108.898Z" fill="#F39E09"/>
<path d="M26.0866 92.4125C24.3394 90.9065 22.0644 89.9963 19.5771 89.9963C14.0678 89.9963 9.60097 94.4631 9.60097 99.9724C9.60097 102.46 10.5116 104.735 12.0172 106.482C9.89442 104.652 8.55054 101.944 8.55054 98.922C8.55054 93.4127 13.0174 88.9459 18.5267 88.9459C21.5482 88.9459 24.2568 90.2892 26.0866 92.4125Z" fill="#E88102"/>
<path opacity="0.25" d="M25.7753 92.3632C19.315 94.6312 14.1305 99.6123 11.5894 105.939C11.3671 105.777 11.1518 105.606 10.9444 105.426C9.43934 103.68 8.52966 101.405 8.52966 98.9189C8.52966 93.4096 12.9965 88.9428 18.5058 88.9428C20.9921 88.9428 23.2666 89.8525 25.0133 91.3575C25.2879 91.6758 25.5425 92.0115 25.7758 92.3632H25.7753Z" fill="white"/>
</g>
<circle cx="34.5666" cy="108.216" r="3.30747" fill="#464646"/>
<path opacity="0.25" d="M36.9289 106.049C34.805 106.806 33.1005 108.468 32.2651 110.578C32.192 110.524 32.1212 110.467 32.053 110.407C31.5582 109.825 31.2592 109.066 31.2592 108.236C31.2592 106.398 32.7277 104.908 34.539 104.908C35.3564 104.908 36.2056 105.252 36.7799 105.754C36.8702 105.86 36.9291 105.878 37.0286 106.002L36.9289 106.049Z" fill="white"/>
</g>
<path d="M56.1719 82.3656H56.6594C57.6594 82.3656 58.5469 82.4968 59.3219 82.7593C60.0969 83.0218 60.7469 83.4031 61.2719 83.9031C61.8094 84.4031 62.2156 85.0156 62.4906 85.7406C62.7656 86.4531 62.9031 87.2593 62.9031 88.1593C62.9031 89.1218 62.7594 89.9656 62.4719 90.6906C62.1844 91.4156 61.7656 92.0218 61.2156 92.5093C60.6656 92.9968 59.9906 93.3656 59.1906 93.6156C58.4031 93.8656 57.5031 93.9906 56.4906 93.9906H56.1719V95.2468H53.8281V93.9906H53.3406C51.3281 93.9906 49.7844 93.4781 48.7094 92.4531C47.6344 91.4281 47.0969 90.0093 47.0969 88.1968C47.0969 87.2343 47.2406 86.3906 47.5281 85.6656C47.8156 84.9406 48.2344 84.3343 48.7844 83.8468C49.3344 83.3593 50.0031 82.9906 50.7906 82.7406C51.5906 82.4906 52.4969 82.3656 53.5094 82.3656H53.8281V81.3718H56.1719V82.3656ZM49.5719 88.1218C49.5719 88.8093 49.6719 89.3968 49.8719 89.8843C50.0719 90.3718 50.3406 90.7718 50.6781 91.0843C51.0281 91.3843 51.4344 91.6031 51.8969 91.7406C52.3719 91.8781 52.8844 91.9468 53.4344 91.9468H53.8281V84.4093H53.4719C52.1469 84.4093 51.1656 84.7156 50.5281 85.3281C49.8906 85.9281 49.5719 86.8593 49.5719 88.1218ZM56.1719 84.4093V91.9468H56.5281C57.8531 91.9468 58.8344 91.6468 59.4719 91.0468C60.1094 90.4343 60.4281 89.4968 60.4281 88.2343C60.4281 87.5468 60.3281 86.9593 60.1281 86.4718C59.9281 85.9843 59.6531 85.5906 59.3031 85.2906C58.9656 84.9781 58.5594 84.7531 58.0844 84.6156C57.6094 84.4781 57.1031 84.4093 56.5656 84.4093H56.1719ZM64.9824 85.4968H67.1574V91.8531L71.6574 85.4968H73.7387V94.8718H71.5637V88.4406L67.0637 94.8718H64.9824V85.4968ZM82.839 91.0843H78.6015V94.8718H76.4078V85.4968H78.6015V89.1531H82.839V85.4968H85.0328V94.8718H82.839V91.0843ZM87.9121 86.1531C88.2246 85.9156 88.6558 85.7156 89.2058 85.5531C89.7683 85.3906 90.4558 85.3093 91.2683 85.3093C92.6433 85.3093 93.6683 85.5656 94.3433 86.0781C95.0183 86.5906 95.3558 87.4593 95.3558 88.6843V94.8718H93.2933V93.1843C93.0683 93.7343 92.6808 94.1781 92.1308 94.5156C91.5933 94.8531 90.9496 95.0218 90.1996 95.0218C89.2496 95.0218 88.5058 94.7718 87.9683 94.2718C87.4433 93.7593 87.1808 93.0406 87.1808 92.1156C87.1808 91.5781 87.2746 91.1343 87.4621 90.7843C87.6496 90.4343 87.9121 90.1593 88.2496 89.9593C88.5871 89.7468 88.9933 89.5968 89.4683 89.5093C89.9433 89.4218 90.4683 89.3781 91.0433 89.3781H93.1621V88.9656C93.1621 88.3031 92.9996 87.8468 92.6746 87.5968C92.3621 87.3468 91.8933 87.2218 91.2683 87.2218C90.4058 87.2218 89.7121 87.3781 89.1871 87.6906C88.6621 87.9906 88.2371 88.3906 87.9121 88.8906V86.1531ZM90.8933 93.0531C91.2683 93.0531 91.5871 93.0093 91.8496 92.9218C92.1246 92.8218 92.3558 92.7031 92.5433 92.5656C92.7308 92.4156 92.8746 92.2531 92.9746 92.0781C93.0746 91.9031 93.1371 91.7343 93.1621 91.5718V90.8031H91.3058C90.6558 90.8031 90.1746 90.8781 89.8621 91.0281C89.5496 91.1781 89.3933 91.4656 89.3933 91.8906C89.3933 92.2531 89.5183 92.5406 89.7683 92.7531C90.0308 92.9531 90.4058 93.0531 90.8933 93.0531ZM104.317 91.0843H100.08V94.8718H97.8861V85.4968H100.08V89.1531H104.317V85.4968H106.511V94.8718H104.317V91.0843ZM116.628 93.9343C116.415 94.1968 116.034 94.4531 115.484 94.7031C114.934 94.9531 114.278 95.0781 113.515 95.0781C112.765 95.0781 112.084 94.9781 111.472 94.7781C110.859 94.5656 110.334 94.2531 109.897 93.8406C109.459 93.4281 109.122 92.9156 108.884 92.3031C108.647 91.6906 108.528 90.9718 108.528 90.1468C108.528 89.3468 108.647 88.6468 108.884 88.0468C109.134 87.4343 109.478 86.9281 109.915 86.5281C110.353 86.1156 110.878 85.8093 111.49 85.6093C112.103 85.3968 112.784 85.2906 113.534 85.2906C114.172 85.3031 114.753 85.3906 115.278 85.5531C115.803 85.7156 116.222 85.9156 116.534 86.1531V88.8906C116.209 88.3906 115.797 87.9906 115.297 87.6906C114.809 87.3781 114.222 87.2156 113.534 87.2031C112.634 87.2031 111.947 87.4406 111.472 87.9156C110.997 88.3906 110.759 89.1031 110.759 90.0531V90.3343C110.759 91.3093 111.003 92.0281 111.49 92.4906C111.99 92.9406 112.684 93.1656 113.572 93.1656C114.359 93.1656 115.003 93.0218 115.503 92.7343C116.015 92.4468 116.39 92.0968 116.628 91.6843V93.9343ZM118.632 85.4968H120.826V88.2718H122.438C123.076 88.2718 123.638 88.3218 124.126 88.4218C124.626 88.5218 125.038 88.6968 125.363 88.9468C125.701 89.1843 125.957 89.5093 126.132 89.9218C126.307 90.3343 126.394 90.8468 126.394 91.4593C126.382 92.6593 126.044 93.5281 125.382 94.0656C124.719 94.6031 123.657 94.8718 122.194 94.8718H118.632V85.4968ZM127.463 85.4968H129.657V94.8718H127.463V85.4968ZM122.119 92.9406C122.869 92.9406 123.401 92.8343 123.713 92.6218C124.026 92.4093 124.188 92.0218 124.201 91.4593C124.188 90.9593 124.044 90.6281 123.769 90.4656C123.494 90.2906 122.994 90.2031 122.269 90.2031H120.826V92.9406H122.119Z" fill="url(#paint1_linear_1_83)"/>
<path d="M47.7156 106.309H49.8906V112.666L54.3906 106.309H56.4719V115.684H54.2969V109.253L49.7969 115.684H47.7156V106.309ZM74.0615 104.716H69.6365V115.684H67.2928V104.716H62.9428V102.559H74.0615V104.716ZM78.465 115.891C77.7275 115.891 77.065 115.791 76.4775 115.591C75.89 115.378 75.3838 115.066 74.9588 114.653C74.5338 114.241 74.2088 113.728 73.9838 113.116C73.7588 112.503 73.6463 111.784 73.6463 110.959C73.6463 110.147 73.765 109.441 74.0025 108.841C74.24 108.228 74.5713 107.722 74.9963 107.322C75.4213 106.909 75.9338 106.603 76.5338 106.403C77.1338 106.203 77.8025 106.103 78.54 106.103C79.265 106.103 79.9213 106.209 80.5088 106.422C81.1088 106.634 81.615 106.947 82.0275 107.359C82.4525 107.772 82.7775 108.284 83.0025 108.897C83.2275 109.509 83.34 110.222 83.34 111.034C83.34 111.847 83.2213 112.559 82.9838 113.172C82.7463 113.772 82.415 114.272 81.99 114.672C81.565 115.072 81.0525 115.378 80.4525 115.591C79.8525 115.791 79.19 115.891 78.465 115.891ZM75.8775 111.016C75.8775 112.053 76.1088 112.809 76.5713 113.284C77.0338 113.747 77.6775 113.978 78.5025 113.978C79.34 113.978 79.9838 113.741 80.4338 113.266C80.8838 112.778 81.1088 112.034 81.1088 111.034V110.978C81.1088 109.941 80.8713 109.191 80.3963 108.728C79.9338 108.253 79.29 108.016 78.465 108.016C77.6275 108.028 76.9838 108.278 76.5338 108.766C76.0963 109.241 75.8775 109.972 75.8775 110.959V111.016ZM91.0429 112.384C90.7179 112.572 90.3429 112.709 89.9179 112.797C89.4929 112.884 89.0616 112.928 88.6241 112.928C87.4991 112.928 86.6179 112.666 85.9804 112.141C85.3429 111.616 85.0241 110.791 85.0241 109.666V106.309H87.2179V109.328C87.2179 109.891 87.3679 110.309 87.6679 110.584C87.9804 110.847 88.4304 110.978 89.0179 110.978C89.7929 110.978 90.4679 110.834 91.0429 110.547V106.309H93.2366V115.684H91.0429V112.384ZM95.8902 106.309H98.084V109.966H99.6027L102.228 106.309H104.665L101.384 110.734L105.19 115.684H102.528L99.584 111.803H98.084V115.684H95.8902V106.309ZM106.937 106.966C107.249 106.728 107.68 106.528 108.23 106.366C108.793 106.203 109.48 106.122 110.293 106.122C111.668 106.122 112.693 106.378 113.368 106.891C114.043 107.403 114.38 108.272 114.38 109.497V115.684H112.318V113.997C112.093 114.547 111.705 114.991 111.155 115.328C110.618 115.666 109.974 115.834 109.224 115.834C108.274 115.834 107.53 115.584 106.993 115.084C106.468 114.572 106.205 113.853 106.205 112.928C106.205 112.391 106.299 111.947 106.487 111.597C106.674 111.247 106.937 110.972 107.274 110.772C107.612 110.559 108.018 110.409 108.493 110.322C108.968 110.234 109.493 110.191 110.068 110.191H112.187V109.778C112.187 109.116 112.024 108.659 111.699 108.409C111.387 108.159 110.918 108.034 110.293 108.034C109.43 108.034 108.737 108.191 108.212 108.503C107.687 108.803 107.262 109.203 106.937 109.703V106.966ZM109.918 113.866C110.293 113.866 110.612 113.822 110.874 113.734C111.149 113.634 111.38 113.516 111.568 113.378C111.755 113.228 111.899 113.066 111.999 112.891C112.099 112.716 112.162 112.547 112.187 112.384V111.616H110.33C109.68 111.616 109.199 111.691 108.887 111.841C108.574 111.991 108.418 112.278 108.418 112.703C108.418 113.066 108.543 113.353 108.793 113.566C109.055 113.766 109.43 113.866 109.918 113.866Z" fill="#222222"/>
<defs>
<filter id="filter0_f_1_83" x="-2.52576" y="74.4181" width="48.6801" height="48.68" filterUnits="userSpaceOnUse" color-interpolation-filters="sRGB">
<feFlood flood-opacity="0" result="BackgroundImageFix"/>
<feBlend mode="normal" in="SourceGraphic" in2="BackgroundImageFix" result="shape"/>
<feGaussianBlur stdDeviation="4" result="effect1_foregroundBlur_1_83"/>
</filter>
<linearGradient id="paint0_linear_1_83" x1="1.83435" y1="78.7781" x2="48.8596" y2="107.123" gradientUnits="userSpaceOnUse">
<stop stop-color="#5EE4A6"/>
<stop offset="1" stop-color="#00722C"/>
</linearGradient>
<linearGradient id="paint1_linear_1_83" x1="46.3656" y1="81.8718" x2="54.606" y2="114.348" gradientUnits="userSpaceOnUse">
<stop stop-color="#5EE4A6"/>
<stop offset="1" stop-color="#00722C"/>
</linearGradient>
<clipPath id="clip0_1_83">
<rect width="131.167" height="50" fill="white" transform="translate(0.916626 0.290527)"/>
</clipPath>
<clipPath id="clip1_1_83">
<rect x="1.83435" y="78.7781" width="40" height="40" rx="8" fill="white"/>
</clipPath>
<clipPath id="clip2_1_83">
<rect width="25.4651" height="25.4651" fill="white" transform="translate(5.79419 86.0581)"/>
</clipPath>
</defs>
</svg>
