<svg width="201" height="51" viewBox="0 0 201 51" fill="none" xmlns="http://www.w3.org/2000/svg">
<g clip-path="url(#clip0_1_33)">
<path fill-rule="evenodd" clip-rule="evenodd" d="M25.864 0.532471C12.1213 0.532471 0.864014 11.6436 0.864014 25.5324C0.864014 39.2751 11.9751 50.5324 25.864 50.5324C39.6067 50.5324 50.864 39.4213 50.864 25.5324C50.864 11.6436 39.6067 0.532471 25.864 0.532471ZM25.864 48.4857C13.1447 48.4857 2.91079 38.2517 2.91079 25.5324C2.91079 12.8132 13.1447 2.57926 25.864 2.57926C38.5833 2.57926 48.8172 12.8132 48.8172 25.5324C48.9634 38.1055 38.5833 48.4857 25.864 48.4857Z" fill="#77787B"/>
<path fill-rule="evenodd" clip-rule="evenodd" d="M25.864 44.0998C26.7412 44.0998 27.1798 43.515 27.326 42.784C27.4722 43.0764 27.7646 43.3688 28.057 43.515C28.3494 43.515 28.788 43.515 29.0804 43.3688C29.3728 43.2226 29.6652 42.9302 29.8114 42.6378C29.9576 42.3454 29.9576 41.9068 29.8114 41.6144C30.25 42.1992 30.8348 42.3454 31.5658 42.053C32.443 41.6144 32.7354 41.0296 32.2968 40.1524C31.2734 37.667 30.25 35.3278 29.2266 32.8425C29.0804 32.5501 29.0804 32.4039 28.9342 32.1115C28.788 31.9653 28.788 31.8191 28.6418 31.6729C28.6418 31.5267 28.4956 31.5267 28.3494 31.3805C29.9576 31.5267 30.6886 32.1115 31.1272 32.4039C31.2734 32.5501 31.2734 32.5501 31.712 32.4039H32.2968C32.443 32.5501 32.7354 32.6963 32.8816 32.6963L34.636 34.0121C34.9284 34.3045 35.2207 34.5968 35.2207 35.0354C35.2207 35.3278 34.3436 36.0588 34.1974 36.3512C33.6126 36.936 34.4898 37.8132 35.6593 37.8132C35.3669 37.5208 35.2207 37.2284 35.3669 36.936C35.5131 36.936 35.6593 36.936 35.9517 36.7898C36.2441 36.6436 36.0979 35.9126 36.2441 35.7664C36.6827 35.3278 37.8523 35.3278 38.7295 35.3278C39.0219 35.3278 39.4605 35.1816 39.3143 34.743C39.7529 34.743 39.8991 35.1816 39.8991 35.474C40.3377 35.1816 40.6301 34.1583 39.1681 33.8659C39.4605 33.5735 39.8991 33.5735 40.1915 33.8659C40.4839 33.4273 39.7529 32.6963 38.5833 33.1349C38.5833 33.1349 37.9985 32.4039 36.5365 34.1582C36.3903 34.0121 36.0979 33.8659 35.9517 33.7197L33.905 31.6729C33.905 30.7957 33.7588 29.1875 32.7354 28.3103C32.2968 27.8717 31.8582 27.7255 30.8348 27.4331C30.8348 27.4331 31.2734 26.7021 31.4196 26.4097C32.2968 27.2869 34.0512 27.5793 34.0512 26.1173C35.5131 27.5793 36.8289 26.7021 36.8289 25.8249C36.8289 26.2635 36.9751 26.7021 37.1213 27.1407C37.2675 27.5793 37.9985 29.4799 39.6067 29.4799C39.6067 30.0647 39.6067 32.2577 41.6535 32.6963C41.7997 32.6963 41.7997 32.6963 41.9459 32.8425C42.8231 33.8659 46.1857 34.8892 46.4781 34.5968C46.1857 34.4506 45.7471 34.1583 45.7471 32.9887C45.7471 32.2577 45.6009 28.1641 45.6009 22.4623C45.6009 20.4156 45.4547 13.8366 38.8757 12.9594C37.8523 12.8132 36.9751 12.9594 36.0979 13.5442C34.9284 14.4214 34.3436 15.8834 35.0745 17.4916V17.6378C35.3669 18.0764 35.2207 18.3688 34.9284 18.6612C34.3436 19.246 33.7588 19.5384 33.0278 19.6846C32.5892 19.6846 32.1506 19.5384 31.8582 19.246C31.1272 18.515 30.6886 17.6378 30.3962 16.6144C30.1038 14.7138 30.5424 13.6904 30.5424 13.5442C31.1272 12.5209 32.1506 11.6437 33.4664 11.6437C34.0512 10.4741 35.8055 10.9127 35.8055 10.9127C36.2441 11.0589 36.3903 11.0589 36.5365 11.3513C36.5365 11.3513 37.2675 10.1817 36.5365 9.74307C35.8055 9.30448 34.1974 9.15828 34.1974 9.15828C34.1974 8.42728 33.0278 7.84249 30.6886 8.28108C28.057 8.71968 27.4722 7.69629 27.4722 7.69629C27.326 9.01208 28.3494 9.59687 28.6418 9.88927C27.6184 11.0589 26.1564 13.2518 25.864 16.322C25.5716 13.2518 24.1096 11.0589 23.0862 9.88927C23.3786 9.74307 24.402 9.01208 24.2558 7.69629C24.2558 7.69629 23.671 8.71968 21.0395 8.28108C18.8465 7.84249 17.5307 8.42728 17.5307 9.15828C17.5307 9.15828 15.9225 9.30448 15.1915 9.74307C14.4605 10.1817 15.1915 11.3513 15.1915 11.3513C15.3377 11.2051 15.4839 11.0589 15.9225 10.9127C15.9225 10.9127 17.6769 10.4741 18.2617 11.6437C19.5775 11.7899 20.6009 12.5209 21.1857 13.5442C21.1857 13.5442 21.7705 14.5676 21.3319 16.6144C21.1857 17.6378 20.6009 18.515 19.8699 19.246C19.5775 19.5384 19.1389 19.8308 18.7003 19.6846C17.9693 19.5384 17.3845 19.246 16.7997 18.6612C16.5073 18.3688 16.3611 18.0764 16.6535 17.6378V17.4916C17.3845 15.8834 16.7997 14.4214 15.6301 13.5442C14.7529 12.9594 13.8757 12.8132 12.8523 12.9594C6.41959 13.8366 6.12719 20.4156 6.12719 22.4623C6.12719 28.1641 5.98099 32.2577 5.98099 32.9887C5.98099 34.1583 5.5424 34.4506 5.25 34.5968C5.6886 34.8892 9.05117 33.8659 9.78216 32.8425C9.78216 32.8425 9.92836 32.6963 10.0746 32.6963C12.1213 32.2577 12.1213 30.0647 12.1213 29.4799C13.7295 29.4799 14.4605 27.5793 14.6067 27.1407C14.7529 26.7021 14.8991 26.2635 14.8991 25.8249C14.8991 26.7021 16.2149 27.4331 17.6769 26.1173C17.6769 27.5793 19.4313 27.2869 20.3085 26.4097C20.4547 26.7021 20.8933 27.4331 20.8933 27.4331C19.8699 27.5793 19.4313 27.8717 18.9927 28.3103C17.8231 29.3337 17.8231 30.9419 17.8231 31.6729L15.7763 33.7197C15.6301 33.8659 15.3377 34.0121 15.1915 34.1582C13.5833 32.4039 13.1447 33.1349 13.1447 33.1349C11.9751 32.6963 11.3904 33.4273 11.5365 33.8659C11.8289 33.5735 12.2675 33.7197 12.5599 33.8659C10.9518 34.1583 11.3904 35.3278 11.8289 35.474C11.8289 35.1816 11.9751 34.743 12.4137 34.743C12.4137 35.1816 12.7061 35.3278 12.9985 35.3278C13.7295 35.3278 15.0453 35.3278 15.4839 35.7664C15.7763 35.9126 15.6301 36.6436 15.7763 36.7898C15.9225 36.936 16.2149 36.936 16.3611 36.936C16.3611 37.2284 16.3611 37.3746 16.0687 37.8132C17.2383 37.9594 17.9693 36.936 17.5307 36.3512C17.2383 36.0588 16.5073 35.3278 16.5073 35.0354C16.5073 34.743 16.7997 34.3045 17.0921 34.0121L18.8465 32.6963C18.9927 32.5501 19.1389 32.4039 19.4313 32.4039C19.5775 32.2577 19.8699 32.2577 20.0161 32.4039C20.4547 32.5501 20.4547 32.5501 20.6009 32.4039C21.0395 32.1115 21.7705 31.5267 23.3786 31.3805C23.2324 31.3805 23.2324 31.5267 23.0862 31.6729C22.94 31.8191 22.94 31.9653 22.7938 32.1115C22.6476 32.2577 22.6476 32.5501 22.5014 32.8425C21.4781 35.3278 20.4547 37.667 19.4313 40.1524C19.1389 41.0296 19.4313 41.6144 20.1623 42.053C20.7471 42.3454 21.4781 42.1992 21.9167 41.6144C21.7705 42.053 21.7705 42.3454 21.9167 42.6378C22.0629 42.9302 22.3553 43.2226 22.6476 43.3688C22.94 43.515 23.3786 43.515 23.671 43.515C24.1096 43.3688 24.2558 43.2226 24.402 42.784C24.5482 43.515 24.9868 44.0998 25.864 44.0998Z" fill="#77787B"/>
<path fill-rule="evenodd" clip-rule="evenodd" d="M67.9693 16.7607C69.2851 16.7607 72.2091 16.6145 73.8173 16.4683V18.2227C72.3553 18.0765 70.0161 17.9303 69.2851 17.9303C68.7003 17.9303 66.7997 17.9303 65.6302 18.0765V24.2169H66.9459C69.5775 24.2169 74.8407 24.6555 74.8407 29.1876C74.8407 32.8426 71.7705 34.4508 67.8231 34.4508H63.1448C63.291 31.673 63.291 28.018 63.291 24.9479C63.291 22.1701 63.291 17.9303 63.1448 16.6145C64.753 16.6145 67.3845 16.7607 67.9693 16.7607ZM65.6302 32.9888H67.6769C70.6009 32.9888 72.2091 31.673 72.2091 29.0414C72.2091 26.2636 70.1623 25.3865 65.484 25.3865V32.9888H65.6302ZM77.6185 23.3397C78.6419 22.1701 80.3962 21.5853 81.8582 21.5853C84.4898 21.5853 86.2442 22.9011 86.2442 25.9712V32.1116C86.2442 33.4274 86.5366 33.7198 86.9752 33.7198C87.1214 33.7198 87.4138 33.7198 87.56 33.5736L87.7062 34.1584C86.9752 34.597 86.2442 34.597 85.8056 34.597C84.9284 34.597 84.4898 34.1584 84.3436 33.5736L84.1974 32.9888C82.8816 34.0122 81.4196 34.597 80.25 34.597C78.0571 34.597 76.5951 33.4274 76.5951 31.3806C76.5951 29.1876 78.2033 28.1642 80.5424 27.7256L83.0278 27.287C83.905 27.1408 84.3436 26.8484 84.3436 26.2636C84.3436 23.6321 83.174 22.9011 81.2734 22.9011C79.8114 22.9011 78.7881 23.3397 77.9109 24.9479H77.6185V23.3397ZM84.3436 28.018L82.7354 28.3104C80.981 28.6028 78.9342 29.1876 78.9342 31.0882C78.9342 32.5502 79.6652 33.2812 81.2734 33.2812C82.2968 33.2812 83.174 32.9888 84.1974 31.8192V28.018H84.3436ZM91.215 22.0239H92.3845C92.2383 23.9245 92.0921 26.9946 92.0921 27.1408C93.1155 27.1408 94.5775 27.287 95.4547 27.287C96.3319 27.287 97.7939 27.287 98.5249 27.1408C98.5249 26.9946 98.5249 23.9245 98.3787 22.0239H100.864C100.718 23.9245 100.572 26.9946 100.572 28.3104C100.572 29.3338 100.572 32.6964 100.864 34.597H98.3787C98.5249 32.6964 98.5249 29.3338 98.5249 28.6028C97.5015 28.4566 95.8933 28.4566 95.4547 28.4566C94.7237 28.4566 93.1155 28.4566 92.0921 28.6028C92.0921 29.48 92.0921 32.6964 92.3845 34.597H89.8992C90.0454 32.6964 90.1916 29.3338 90.1916 28.3104C90.1916 26.9946 90.1916 23.9245 89.8992 22.0239H91.215ZM105.396 22.0239H106.566C106.42 23.9245 106.42 26.9946 106.42 27.4332H106.858C107.735 27.4332 111.829 22.7549 112.268 22.0239H114.607L108.759 27.287C109.49 28.1642 113.437 32.5502 115.192 34.4508H112.121C111.244 32.9888 108.466 29.7724 106.858 28.018H106.42C106.42 28.8952 106.42 32.5502 106.566 34.4508H104.08C104.227 32.5502 104.373 29.1876 104.373 28.1642C104.373 26.8484 104.373 23.7783 104.08 21.8777C104.519 22.0239 104.958 22.0239 105.396 22.0239ZM125.864 16.6145C126.741 16.6145 127.765 16.4683 128.496 16.4683C133.028 16.4683 134.782 17.7841 134.782 21.0005C134.782 24.9479 131.42 26.2636 127.326 26.2636C127.034 26.2636 126.156 26.2636 125.718 26.1174V30.3572C125.718 31.5268 125.718 33.135 125.864 34.3046H123.232C123.379 31.5268 123.379 27.8718 123.379 24.8017C123.379 22.0239 123.379 17.7841 123.232 16.4683C124.256 16.4683 125.279 16.6145 125.864 16.6145ZM126.887 24.9479C130.396 24.9479 132.297 23.6321 132.297 21.0005C132.297 18.5151 130.396 17.9303 127.911 17.9303H125.718V24.8017C126.156 24.9479 126.595 24.9479 126.887 24.9479ZM147.648 28.1642C147.648 31.9654 145.162 34.7432 141.361 34.7432C137.56 34.7432 135.221 31.9654 135.221 28.4566C135.221 24.3631 137.852 21.7315 141.654 21.7315C145.309 21.7315 147.648 24.3631 147.648 28.1642ZM137.56 28.3104C137.56 31.0882 138.73 33.7198 141.361 33.7198C143.847 33.7198 145.309 31.2344 145.309 28.018C145.309 25.3865 144.285 22.6087 141.507 22.6087C138.876 22.6087 137.56 25.3865 137.56 28.3104ZM159.636 24.6555H159.344C158.466 23.1935 157.297 22.7549 155.981 22.7549C153.057 22.7549 151.741 25.5326 151.741 28.3104C151.741 31.3806 153.496 33.866 156.566 33.866C157.589 33.866 158.466 33.7198 159.928 32.1116L160.221 32.404L159.928 33.5736C158.759 34.3046 157.443 34.7432 155.835 34.7432C152.034 34.7432 149.548 32.1116 149.548 28.3104C149.548 24.3631 152.326 21.8777 156.273 21.8777C157.589 21.8777 158.905 22.1701 160.513 22.9011L159.636 24.6555ZM172.209 24.6555H171.917C171.04 23.1935 169.87 22.7549 168.554 22.7549C165.63 22.7549 164.314 25.5326 164.314 28.3104C164.314 31.3806 166.069 33.866 169.139 33.866C170.162 33.866 171.04 33.7198 172.502 32.1116L172.648 32.404L172.355 33.5736C171.186 34.3046 169.87 34.7432 168.262 34.7432C164.461 34.7432 161.975 32.1116 161.975 28.3104C161.975 24.3631 164.753 21.8777 168.7 21.8777C170.016 21.8777 171.332 22.1701 172.94 22.9011L172.209 24.6555ZM175.864 34.3046H175.133C175.279 32.404 175.425 29.0414 175.425 28.018C175.425 26.7022 175.425 23.6321 175.133 21.7315H177.618C177.472 23.6321 177.326 26.7022 177.326 28.018V31.2344C178.642 29.6262 183.466 23.4859 184.636 21.8777H186.244C186.098 23.7783 185.952 26.8484 185.952 28.1642C185.952 29.1876 185.952 32.5502 186.244 34.4508H183.759C183.905 32.5502 184.051 29.1876 184.051 28.1642V24.8017C182.443 26.556 177.911 32.2578 176.595 34.4508C176.303 34.3046 176.01 34.3046 175.864 34.3046ZM189.753 34.3046H189.022C189.168 32.404 189.168 29.0414 189.168 28.018C189.168 26.7022 189.168 23.6321 189.022 21.7315H191.507C191.215 23.7783 191.215 26.8484 191.215 28.1642V31.3806C192.531 29.7724 197.355 23.6321 198.525 22.0239H200.133C199.987 23.7783 199.987 26.8484 199.987 28.1642C199.987 29.1876 199.987 32.5502 200.133 34.4508H197.648C197.794 32.5502 197.794 29.1876 197.794 28.1642V24.8017C196.186 26.556 191.654 32.2578 190.338 34.4508C190.192 34.3046 190.045 34.3046 189.753 34.3046Z" fill="#77787B"/>
</g>
<defs>
<clipPath id="clip0_1_33">
<rect width="199.269" height="50" fill="white" transform="translate(0.865479 0.534302)"/>
</clipPath>
</defs>
</svg>
