<svg width="24" height="24" viewBox="0 0 24 24" fill="none" xmlns="http://www.w3.org/2000/svg">
<g id="SVG">
<path id="Vector" d="M20.3977 17.5349C20.3977 18.1618 20.0574 19.3692 19.2929 20.0325C19.14 20.1532 18.9871 20.0851 19.0543 19.9091C19.2769 19.3503 19.7861 18.0575 19.5475 17.7599C19.3786 17.534 18.6813 17.5512 18.0865 17.603C17.8151 17.6383 17.5766 17.6547 17.3917 17.6935C17.2203 17.7073 17.1859 17.553 17.3573 17.4322C17.5805 17.2705 17.8271 17.1459 18.0882 17.0631C19.0543 16.7664 20.1708 16.945 20.3313 17.1347C20.3615 17.1709 20.3977 17.2735 20.3977 17.5349ZM18.783 18.65C18.5614 18.8239 18.3287 18.9824 18.0865 19.1243C16.3038 20.2239 13.9943 20.8 11.989 20.8C8.76041 20.8 5.87294 19.578 3.68193 17.5331C3.49374 17.3762 3.64916 17.1485 3.86927 17.2718C6.22999 18.6862 9.1519 19.5417 12.1763 19.5417C14.08 19.5417 16.1316 19.1761 18.0865 18.3895C18.2234 18.3369 18.3763 18.2653 18.5099 18.2153C18.8182 18.073 19.0896 18.424 18.783 18.65Z" fill="#FF9900"/>
<path id="Vector_2" d="M13.5991 9.13773C13.5991 8.23994 13.6344 7.71127 13.3445 7.25763C13.0875 6.88419 12.6447 6.65996 12.0264 6.69532C11.356 6.73327 10.636 7.18432 10.4529 8.01139C10.4168 8.20113 10.3092 8.38741 10.0858 8.42795L8.04008 8.16059C7.8939 8.1261 7.67127 8.01139 7.74436 7.71127C8.18373 5.33872 10.1588 4.51164 12.0273 4.40039H12.4658C13.4907 4.40039 14.808 4.70138 15.6507 5.4905C16.6731 6.47023 16.5639 7.7863 16.5639 9.21621V12.603C16.5639 13.6189 16.9654 14.0691 17.3687 14.5986C17.4779 14.7875 17.5157 15.01 17.3317 15.1635C16.8025 15.6479 16.2656 16.1235 15.7212 16.59C15.5742 16.7047 15.3104 16.7168 15.2088 16.6288C14.5619 16.0725 14.4039 15.7638 14.0032 15.1989C13.3059 15.9501 12.7203 16.3649 12.0239 16.59C11.5341 16.7176 11.0304 16.7802 10.5251 16.7763C8.76929 16.7763 7.37891 15.6525 7.37891 13.43C7.37891 11.6629 8.29463 10.4616 9.64721 9.89322C10.9998 9.32401 12.9657 9.1429 13.5991 9.13945M13.1984 13.6172C13.6352 12.8652 13.5991 12.2494 13.5991 10.8704C13.0513 10.8704 12.5019 10.9092 12.0273 11.0239C11.1493 11.2852 10.452 11.8518 10.452 13.0549C10.452 13.9949 10.9292 14.6349 11.7341 14.6349C11.8449 14.6349 11.9424 14.6211 12.0264 14.5961C12.5893 14.4356 12.9405 14.1459 13.1984 13.6172Z" fill="black"/>
</g>
</svg>
