<svg width="25" height="26" viewBox="0 0 25 26" fill="none" xmlns="http://www.w3.org/2000/svg">
<g id="SVG">
<g id="Clip path group">
<mask id="mask0_19_275" style="mask-type:luminance" maskUnits="userSpaceOnUse" x="5" y="4" width="15" height="18">
<g id="clip0_4065_16084">
<path id="Vector" d="M19.0719 4.80396H5.53906V21.429H19.0719V4.80396Z" fill="white"/>
</g>
</mask>
<g mask="url(#mask0_19_275)">
<g id="Group">
<path id="Vector_2" d="M18.6412 10.4714C18.5448 10.5463 16.8424 11.5055 16.8424 13.6385C16.8424 16.1057 19.0086 16.9785 19.0735 17.0001C19.0635 17.0533 18.7293 18.1954 17.9313 19.3592C17.2198 20.3833 16.4767 21.4057 15.3462 21.4057C14.2157 21.4057 13.9247 20.749 12.6196 20.749C11.3478 20.749 10.8956 21.4273 9.86156 21.4273C8.82749 21.4273 8.10596 20.4797 7.27638 19.3159C6.31545 17.9494 5.53906 15.8264 5.53906 13.8114C5.53906 10.5795 7.64046 8.86544 9.70861 8.86544C10.8075 8.86544 11.7236 9.58697 12.4135 9.58697C13.0702 9.58697 14.0943 8.82222 15.3445 8.82222C15.8183 8.82222 17.5207 8.86544 18.6412 10.4714ZM14.751 7.45398C15.268 6.84052 15.6338 5.98932 15.6338 5.13812C15.6338 5.02008 15.6238 4.90038 15.6022 4.80396C14.761 4.83554 13.7601 5.36422 13.1566 6.06413C12.6828 6.60278 12.2406 7.45398 12.2406 8.31682C12.2406 8.44649 12.2622 8.57616 12.2722 8.61772C12.3254 8.6277 12.4118 8.63934 12.4983 8.63934C13.2531 8.63934 14.2023 8.13394 14.751 7.45398Z" fill="black"/>
</g>
</g>
</g>
</g>
</svg>
