<svg width="20" height="20" viewBox="0 0 20 20" fill="none" xmlns="http://www.w3.org/2000/svg">
<path id="Vector" d="M8.75063 2.1085C8.64384 2.2153 8.57934 2.35716 8.56905 2.50784C8.55876 2.65852 8.60338 2.80783 8.69465 2.92815L8.75063 2.99238L12.1035 6.34525L6.72124 6.3535C5.34196 6.3536 4.01619 6.88723 3.02144 7.84266C2.02668 8.7981 1.44005 10.1013 1.38435 11.4794L1.38081 11.6951C1.38114 13.1114 1.9439 14.4695 2.94535 15.471C3.9468 16.4724 5.30497 17.0352 6.72124 17.0355L17.1422 17.0326C17.308 17.0324 17.467 16.9664 17.5841 16.849C17.7013 16.7317 17.767 16.5726 17.7668 16.4068C17.7667 16.241 17.7007 16.082 17.5833 15.9649C17.4659 15.8477 17.3069 15.782 17.141 15.7822L6.72124 15.7863C5.65557 15.7835 4.63304 15.3651 3.87113 14.62C3.10923 13.8749 2.66808 12.862 2.64152 11.7966C2.61496 10.7313 3.00508 9.69762 3.72891 8.91549C4.45274 8.13336 5.45315 7.66449 6.51735 7.60861L6.72242 7.6039L12.1023 7.59565L8.75063 10.9473C8.64384 11.0541 8.57934 11.196 8.56905 11.3467C8.55876 11.4974 8.60337 11.6467 8.69465 11.767L8.75063 11.8312C8.97455 12.0551 9.32575 12.074 9.57029 11.8872L9.63452 11.8312L14.0539 7.4118C14.1607 7.305 14.2252 7.16314 14.2355 7.01246C14.2458 6.86178 14.2012 6.71247 14.1099 6.59215L14.0539 6.52792L9.63452 2.1085C9.51731 1.99129 9.35834 1.92544 9.19258 1.92544C9.02682 1.92544 8.86784 1.99129 8.75063 2.1085Z" fill="white"/>
<defs>
</defs>
</svg>
