<svg width="327" height="155" viewBox="0 0 327 155" fill="none" xmlns="http://www.w3.org/2000/svg">
<path fill-rule="evenodd" clip-rule="evenodd" d="M-20.1599 44.7283L-70.2936 54.7051L-71.1277 154.803H344.554L342.822 7.32377L286.243 23.1809L271.81 24.172L218.118 0.881836L173.663 1.87292L113.042 38.5425L88.217 48.2008L28.6359 67.5421L0.509155 53.5736L-20.1599 44.7283Z" fill="url(#paint0_linear_2012_186)" fill-opacity="0.15"/>
<path d="M342.476 8.25302L279.441 25.5022C276.093 26.4181 272.515 26.0751 269.415 24.5411L224.567 2.34603C222.623 1.38354 220.471 0.881836 218.29 0.881836H177.318C174.526 0.881836 171.798 1.7038 169.493 3.23979L115.686 39.0998C114.596 39.8259 113.406 40.3967 112.15 40.7948L33.7837 65.6435C30.3646 66.7276 26.6466 66.4748 23.4152 64.9383L-15.715 46.334C-18.5682 44.9774 -21.8133 44.6163 -24.9071 45.3111L-70.4348 55.5347" stroke="#6936F5" stroke-width="0.988643"/>
<defs>
<linearGradient id="paint0_linear_2012_186" x1="136.134" y1="54.7051" x2="136.138" y2="154.803" gradientUnits="userSpaceOnUse">
<stop stop-color="#6936F5"/>
<stop offset="1" stop-color="#6936F5" stop-opacity="0"/>
</linearGradient>
</defs>
</svg>
