<svg width="22" height="22" viewBox="0 0 22 22" fill="none" xmlns="http://www.w3.org/2000/svg">
<g id="SVG">
<g id="Clip path group">
<mask id="mask0_19_147" style="mask-type:luminance" maskUnits="userSpaceOnUse" x="2" y="2" width="18" height="18">
<g id="clip0_4344_42534">
<path id="Vector" d="M19.7914 2.19922H2.19141V19.7992H19.7914V2.19922Z" fill="white"/>
</g>
</mask>
<g mask="url(#mask0_19_147)">
<g id="Group">
<path id="Vector_2" d="M19.5869 11.164C19.5869 10.4429 19.5284 9.91676 19.4018 9.37109H11.168V12.6256H16.001C15.9036 13.4344 15.3775 14.6524 14.2081 15.4709L14.1917 15.5799L16.7951 17.5967L16.9755 17.6147C18.632 16.0848 19.5869 13.8339 19.5869 11.164Z" fill="#D4D8E8"/>
<path id="Vector_3" d="M11.1664 19.7384C13.5342 19.7384 15.522 18.9589 16.9739 17.6142L14.2065 15.4704C13.466 15.9869 12.4721 16.3474 11.1664 16.3474C8.84728 16.3474 6.87897 14.8176 6.17732 12.7031L6.07447 12.7119L3.36743 14.8069L3.33203 14.9053C4.77416 17.77 7.7364 19.7384 11.1664 19.7384Z" fill="#D4D8E8"/>
<path id="Vector_4" d="M6.17524 12.7041C5.9901 12.1584 5.88296 11.5737 5.88296 10.9696C5.88296 10.3654 5.9901 9.78078 6.1655 9.23511L6.1606 9.11889L3.41963 6.99023L3.32995 7.03289C2.73558 8.2217 2.39453 9.55668 2.39453 10.9696C2.39453 12.3825 2.73558 13.7174 3.32995 14.9062L6.17524 12.7041Z" fill="#D4D8E8"/>
<path id="Vector_5" d="M11.1664 5.59017C12.8131 5.59017 13.9239 6.3015 14.5573 6.89593L17.0324 4.47936C15.5123 3.06646 13.5342 2.19922 11.1664 2.19922C7.7364 2.19922 4.77416 4.16753 3.33203 7.0323L6.16758 9.23452C6.87897 7.12003 8.84728 5.59017 11.1664 5.59017Z" fill="#D4D8E8"/>
</g>
</g>
</g>
</g>
</svg>
