<svg width="22" height="22" viewBox="0 0 22 22" fill="none" xmlns="http://www.w3.org/2000/svg">
<mask id="mask0_19_110" style="mask-type:luminance" maskUnits="userSpaceOnUse" x="0" y="0" width="22" height="22">
<path id="Vector" d="M22 0H0V22H22V0Z" fill="white"/>
</mask>
<path id="Vector_2" d="M11.0103 22H10.6831L12.9372 15.8171H16.0355C16.5763 15.8171 17.1685 15.4009 17.3573 14.8848L19.8002 8.18583C20.2036 7.0895 19.5738 6.19575 18.4023 6.19575H14.0958L10.4933 16.0939L8.45374 21.7103C6.04622 21.1374 3.90237 19.769 2.36896 17.8266C0.835562 15.8841 0.0022824 13.4812 0.00390863 11.0064C0.00390863 5.9565 3.40474 1.70042 8.03849 0.403333L5.93474 6.19575L2.43308 15.8171H4.76324L7.74791 7.64408H9.49874L6.51408 15.8171H8.84332L11.6135 8.18583C12.0168 7.09042 11.3871 6.19667 10.2156 6.19667H8.25208L10.5071 0.0128333C10.6693 0 10.8334 0 10.9966 0C17.0796 0 22.0039 4.92433 22.0039 11.0064C22.0167 17.0766 17.0924 22 11.0103 22ZM17.6717 7.63125H15.9209L13.4661 14.3559H15.2169L17.6717 7.63125Z" fill="#D4D8E8"/>
</svg>
