<svg width="20" height="20" viewBox="0 0 20 20" fill="none" xmlns="http://www.w3.org/2000/svg">
<g id="SVG">
<path id="Vector" d="M0.619629 11.6029L8.39712 19.3804C4.42541 18.709 1.29098 15.5746 0.619629 11.6029Z" fill="#5E6AD2"/>
<path id="Vector_2" d="M0.5 9.49137L10.5086 19.5C11.1038 19.4682 11.6845 19.3816 12.2457 19.2453L0.754716 7.75427C0.618358 8.31548 0.531804 8.89614 0.5 9.49137Z" fill="#5E6AD2"/>
<path id="Vector_3" d="M1.25293 6.26066L13.7395 18.7472C14.1942 18.552 14.6307 18.3224 15.0456 18.0616L1.93856 4.95447C1.67775 5.36938 1.44811 5.80587 1.25293 6.26066Z" fill="#5E6AD2"/>
<path id="Vector_4" d="M2.78442 3.80858C4.52787 1.78278 7.11068 0.5 9.9931 0.5C15.2436 0.5 19.5 4.75636 19.5 10.0069C19.5 12.8893 18.2172 15.4721 16.1914 17.2155L2.78442 3.80858Z" fill="#5E6AD2"/>
</g>
</svg>
