<svg width="20" height="20" viewBox="0 0 20 20" fill="none" xmlns="http://www.w3.org/2000/svg">
<g id="SVG">
<g id="Clip path group">
<mask id="mask0_19_288" style="mask-type:luminance" maskUnits="userSpaceOnUse" x="1" y="4" width="18" height="12">
<g id="clip0_4065_16279">
<path id="Vector" d="M18.5971 4.21533H1.63281V15.4659H18.5971V4.21533Z" fill="white"/>
</g>
</mask>
<g mask="url(#mask0_19_288)">
<g id="Group">
<path id="Vector_2" d="M3.46236 11.6348C3.46236 12.2816 3.60432 12.7781 3.78987 13.0785C4.03314 13.472 4.39599 13.6387 4.7659 13.6387C5.24302 13.6387 5.6795 13.5203 6.52065 12.357C7.19451 11.4245 7.98853 10.1157 8.52279 9.2952L9.42755 7.90507C10.0561 6.93963 10.7835 5.86641 11.6176 5.13895C12.2985 4.5452 13.033 4.21533 13.7723 4.21533C15.0134 4.21533 16.1956 4.93455 17.1004 6.28345C18.0905 7.76075 18.5712 9.62152 18.5712 11.5417C18.5712 12.6833 18.3462 13.5221 17.9633 14.1848C17.5934 14.8256 16.8724 15.4659 15.6596 15.4659V13.6387C16.698 13.6387 16.9572 12.6845 16.9572 11.5924C16.9572 10.0362 16.5944 8.30915 15.795 7.07511C15.2278 6.1998 14.4927 5.66496 13.6839 5.66496C12.8092 5.66496 12.1053 6.32468 11.3142 7.50099C10.8937 8.12596 10.4619 8.88758 9.97712 9.74699L9.44345 10.6924C8.3714 12.5932 8.09986 13.0261 7.56383 13.7406C6.62432 14.9917 5.82205 15.4659 4.7659 15.4659C3.51302 15.4659 2.72077 14.9234 2.2301 14.1058C1.82955 13.4396 1.63281 12.5655 1.63281 11.5694L3.46236 11.6348Z" fill="#0081FB"/>
<path id="Vector_3" d="M3.07812 6.41245C3.91691 5.11951 5.12739 4.21533 6.51575 4.21533C7.3198 4.21533 8.11911 4.45331 8.95378 5.13482C9.86679 5.87996 10.8399 7.10692 12.0539 9.12909L12.4892 9.85478C13.54 11.6054 14.1379 12.506 14.4878 12.9307C14.9378 13.4761 15.2529 13.6387 15.6623 13.6387C16.7008 13.6387 16.96 12.6845 16.96 11.5924L18.5739 11.5417C18.5739 12.6833 18.3489 13.5221 17.9661 14.1848C17.5961 14.8256 16.8752 15.4659 15.6623 15.4659C14.9084 15.4659 14.2404 15.3022 13.5017 14.6053C12.9339 14.0705 12.2701 13.1204 11.7594 12.2663L10.2402 9.72873C9.47802 8.45523 8.77883 7.5057 8.37416 7.0757C7.93886 6.61331 7.37928 6.0549 6.4863 6.0549C5.76356 6.0549 5.14977 6.56206 4.63613 7.33782L3.07812 6.41245Z" fill="url(#paint0_linear_19_288)"/>
<path id="Vector_4" d="M6.48354 6.0549C5.76079 6.0549 5.14701 6.56206 4.63337 7.33782C3.90709 8.43402 3.46236 10.0668 3.46236 11.6348C3.46236 12.2816 3.60432 12.7781 3.78987 13.0785L2.2301 14.1058C1.82955 13.4396 1.63281 12.5655 1.63281 11.5694C1.63281 9.75818 2.12996 7.87031 3.07537 6.41245C3.91416 5.11951 5.12463 4.21533 6.51299 4.21533L6.48354 6.0549Z" fill="url(#paint1_linear_19_288)"/>
</g>
</g>
</g>
</g>
<defs>
<linearGradient id="paint0_linear_19_288" x1="5.22871" y1="11.107" x2="16.8916" y2="11.6961" gradientUnits="userSpaceOnUse">
<stop stop-color="#0064E1"/>
<stop offset="0.4" stop-color="#0064E1"/>
<stop offset="0.83" stop-color="#0073EE"/>
<stop offset="1" stop-color="#0082FB"/>
</linearGradient>
<linearGradient id="paint1_linear_19_288" x1="4.28348" y1="12.4029" x2="4.28348" y2="8.10298" gradientUnits="userSpaceOnUse">
<stop stop-color="#0082FB"/>
<stop offset="1" stop-color="#0064E0"/>
</linearGradient>
</defs>
</svg>
