<svg width="22" height="22" viewBox="0 0 22 22" fill="none" xmlns="http://www.w3.org/2000/svg">
<g id="SVG">
<path id="Vector" d="M9.10138 11.9075C9.19305 11.9075 11.3197 11.9992 12.5847 11.6875H12.5939C14.0514 11.33 16.0772 10.3033 16.5997 6.94833C16.5997 6.94833 17.7639 2.75 11.9889 2.75H7.02972C6.58055 2.75 6.19555 3.08 6.12221 3.52L4.01388 16.8667C3.96805 17.1417 4.18805 17.3983 4.46305 17.3983H7.60722L8.37722 12.5217C8.43222 12.1733 8.73472 11.9075 9.10138 11.9075Z" fill="#D4D8E8"/>
<path id="Vector_2" d="M17.4066 7.59961C16.6641 11.0188 14.3266 12.8246 10.6049 12.8246H9.25744L8.31328 18.8013C8.27661 19.0396 8.45994 19.2504 8.69828 19.2504H10.4399C10.7516 19.2504 11.0266 19.0213 11.0724 18.7096C11.1458 18.3429 11.5491 15.6663 11.6316 15.2079C11.6774 14.8963 11.9524 14.6671 12.2641 14.6671H12.6674C15.2524 14.6671 17.2783 13.6129 17.8741 10.5788C18.1124 9.35044 17.9841 8.34211 17.4066 7.59961Z" fill="#D4D8E8"/>
</g>
</svg>
