<svg width="48" height="48" viewBox="0 0 48 48" fill="none" xmlns="http://www.w3.org/2000/svg">
<g id="SVG">
<g id="Clip path group">
<mask id="mask0_19_190" style="mask-type:luminance" maskUnits="userSpaceOnUse" x="0" y="0" width="48" height="48">
<g id="clip0_2962_16814">
<path id="Vector" d="M48 0H0V48H48V0Z" fill="white"/>
</g>
</mask>
<g mask="url(#mask0_19_190)">
<g id="Group">
<path id="Vector_2" d="M6.96558 1.19995H37.2056C40.3868 1.19995 42.9656 3.77879 42.9656 6.95995V38.64C42.9656 41.8212 40.3868 44.4 37.2056 44.4H14.1656C10.9844 44.4 8.40558 41.8212 8.40558 38.64V22.8V12V6.59995V5.33995C8.40558 4.3945 8.17285 3.46358 7.72792 2.62937L6.96558 1.19995Z" fill="url(#paint0_linear_19_190)" fill-opacity="0.24" stroke="#141C53" stroke-width="0.8" stroke-linecap="round"/>
<path id="Vector_3" d="M2.63428 4.07995V18.8C2.63428 20.2138 3.78043 21.36 5.19429 21.36H8.39428V4.07995C8.39428 2.48938 7.10487 1.19995 5.51428 1.19995C3.9237 1.19995 2.63428 2.48938 2.63428 4.07995Z" fill="white" stroke="#141C53" stroke-width="0.8" stroke-linecap="round"/>
<path id="Vector_4" d="M35.7598 50.16C42.9174 50.16 48.7198 44.3576 48.7198 37.2C48.7198 30.0424 42.9174 24.24 35.7598 24.24C28.6022 24.24 22.7998 30.0424 22.7998 37.2C22.7998 44.3576 28.6022 50.16 35.7598 50.16Z" fill="white"/>
<path id="Vector_5" d="M40.8633 42.2844C42.1624 40.9819 42.9654 39.1848 42.9654 37.2C42.9654 33.2234 39.742 30 35.7654 30C31.7889 30 28.5654 33.2234 28.5654 37.2C28.5654 41.1766 31.7889 44.4 35.7654 44.4C37.7572 44.4 39.5598 43.5912 40.8633 42.2844Z" fill="url(#paint1_linear_19_190)" fill-opacity="0.24"/>
<path id="Vector_6" d="M40.8633 42.2844C42.1624 40.9819 42.9654 39.1848 42.9654 37.2C42.9654 33.2234 39.742 30 35.7654 30C31.7889 30 28.5654 33.2234 28.5654 37.2C28.5654 41.1766 31.7889 44.4 35.7654 44.4C37.7572 44.4 39.5598 43.5912 40.8633 42.2844ZM40.8633 42.2844L45.3654 46.8" stroke="#141C53" stroke-width="0.8" stroke-linecap="round" stroke-linejoin="round"/>
<path id="Vector_7" d="M32.8631 9.83984H24.2231C21.8372 9.83984 19.9031 11.774 19.9031 14.1599V16.3199" stroke="#141C53" stroke-width="0.8" stroke-linecap="round"/>
<path id="Vector_8" d="M30.7029 7.67993L32.8629 9.83993L30.7029 11.9999" stroke="#141C53" stroke-width="0.8" stroke-linecap="round"/>
<path id="Vector_9" d="M18.4744 24.24H27.1144C29.5002 24.24 31.4344 22.3059 31.4344 19.92V17.76" stroke="#141C53" stroke-width="0.8" stroke-linecap="round"/>
<path id="Vector_10" d="M20.6344 26.3998L18.4744 24.2398L20.6344 22.0798" stroke="#141C53" stroke-width="0.8" stroke-linecap="round"/>
<path id="Vector_11" d="M25.7702 13.3187C25.7642 13.0629 25.97 12.8523 26.2258 12.8523C26.4817 12.8523 26.6875 13.0629 26.6815 13.3187L26.6578 14.3297H25.7938L25.7702 13.3187ZM25.7938 19.4273H26.6578L26.6813 20.4211C26.6873 20.6769 26.4817 20.8875 26.2258 20.8875C25.97 20.8875 25.7643 20.6769 25.7703 20.4211L25.7938 19.4273ZM27.8195 15.3503C27.5691 15.4997 27.2497 15.4013 27.0639 15.1765C26.9602 15.044 26.8393 14.9403 26.701 14.8654C26.5685 14.7848 26.413 14.7445 26.2345 14.7445C26.0559 14.7445 25.909 14.7733 25.7938 14.8309C25.6786 14.8827 25.5922 14.9547 25.5346 15.0469C25.4828 15.139 25.4569 15.2513 25.4569 15.3838C25.4569 15.5681 25.5202 15.7179 25.6469 15.8331C25.7794 15.9483 25.9522 16.0491 26.1653 16.1355C26.3785 16.2161 26.606 16.3025 26.8479 16.3947C27.038 16.4638 27.2223 16.5502 27.4009 16.6539C27.5852 16.7576 27.7522 16.8814 27.902 17.0254C28.0517 17.1694 28.1698 17.3422 28.2562 17.5438C28.3426 17.7397 28.3858 17.9729 28.3858 18.2437C28.3858 18.6065 28.2965 18.9205 28.118 19.1854C27.9452 19.4504 27.6975 19.6549 27.3749 19.7989C27.0524 19.9371 26.6665 20.0062 26.2172 20.0062C25.8601 20.0062 25.526 19.9371 25.2149 19.7989C24.9039 19.6549 24.6303 19.4648 24.3941 19.2286C24.2727 19.1072 24.1658 18.9782 24.0733 18.8415C23.9218 18.6178 24.0118 18.3243 24.2355 18.173C24.5135 17.9849 24.8869 18.0865 25.0886 18.3547C25.1161 18.3911 25.1438 18.4262 25.1717 18.4597C25.3157 18.6325 25.477 18.7649 25.6556 18.8571C25.8341 18.9435 26.0357 18.9867 26.2604 18.9867C26.4447 18.9867 26.5973 18.9608 26.7183 18.9089C26.845 18.8513 26.9372 18.7707 26.9948 18.667C27.0581 18.5576 27.0898 18.4251 27.0898 18.2696C27.0898 18.0795 27.0293 17.924 26.9084 17.803C26.7874 17.6763 26.629 17.5669 26.4332 17.4747C26.2373 17.3825 26.0213 17.2933 25.7852 17.2069C25.6354 17.155 25.4684 17.083 25.2841 16.9909C25.0997 16.8987 24.9241 16.7806 24.757 16.6366C24.59 16.4926 24.4517 16.3169 24.3423 16.1096C24.2386 15.9022 24.1868 15.6545 24.1868 15.3665C24.1868 15.0785 24.2732 14.8165 24.446 14.5803C24.6188 14.3384 24.8578 14.1454 25.1631 14.0014C25.4684 13.8574 25.814 13.7854 26.1999 13.7854C26.5916 13.7854 26.9228 13.8488 27.1935 13.9755C27.4642 14.0965 27.6889 14.2549 27.8674 14.4507C27.9247 14.5115 27.9781 14.5732 28.0275 14.6357C28.2059 14.8612 28.1097 15.1773 27.8627 15.3245L27.8195 15.3503Z" fill="#141C53"/>
<g id="Clip path group_2">
<mask id="mask1_19_190" style="mask-type:luminance" maskUnits="userSpaceOnUse" x="31" y="32" width="10" height="10">
<g id="clip1_2962_16814">
<path id="Vector_12" d="M40.0743 32.88H31.4343V41.52H40.0743V32.88Z" fill="white"/>
</g>
</mask>
<g mask="url(#mask1_19_190)">
<g id="Group_2">
<path id="Vector_13" d="M32.5125 36.12C33.8083 33.24 37.6963 33.24 38.9923 36.12" stroke="#141C53" stroke-width="0.8" stroke-linecap="round" stroke-linejoin="round"/>
<path id="Vector_14" d="M35.7674 39C35.1709 39 34.6873 38.5165 34.6873 37.92C34.6873 37.3234 35.1709 36.84 35.7674 36.84C36.3638 36.84 36.8474 37.3234 36.8474 37.92C36.8474 38.5165 36.3638 39 35.7674 39Z" stroke="#141C53" stroke-width="0.8" stroke-linecap="round" stroke-linejoin="round"/>
</g>
</g>
</g>
</g>
</g>
</g>
</g>
<defs>
<linearGradient id="paint0_linear_19_190" x1="11.8533" y1="-11.1453" x2="11.8679" y2="41.7062" gradientUnits="userSpaceOnUse">
<stop offset="0.145202" stop-color="#141C53"/>
<stop offset="0.549042" stop-color="#F1F6FF"/>
</linearGradient>
<linearGradient id="paint1_linear_19_190" x1="30.8464" y1="25.199" x2="30.8511" y2="45.7524" gradientUnits="userSpaceOnUse">
<stop offset="0.145202" stop-color="#141C53"/>
<stop offset="0.549042" stop-color="#F1F6FF"/>
</linearGradient>
</defs>
</svg>
