<svg width="24" height="22" viewBox="0 0 24 22" fill="none" xmlns="http://www.w3.org/2000/svg">
<g id="SVG">
<g id="Clip path group">
<mask id="mask0_19_167" style="mask-type:luminance" maskUnits="userSpaceOnUse" x="3" y="2" width="19" height="18">
<g id="clip0_4344_42541">
<path id="Vector" d="M21.1 2.2002H3.5V19.8002H21.1V2.2002Z" fill="white"/>
</g>
</mask>
<g mask="url(#mask0_19_167)">
<g id="Group">
<path id="Vector_2" d="M18.0792 5.65623C18.0671 5.56823 17.99 5.51953 17.9263 5.51416C17.8627 5.50886 16.5169 5.4091 16.5169 5.4091C16.5169 5.4091 15.5822 4.48119 15.4797 4.37848C15.377 4.27583 15.1765 4.30705 15.0987 4.32996C15.0873 4.33333 14.8945 4.39282 14.5757 4.49149C14.2634 3.59305 13.7124 2.76742 12.743 2.76742C12.7163 2.76742 12.6887 2.7685 12.6612 2.77007C12.3855 2.40547 12.044 2.24707 11.749 2.24707C9.49083 2.24707 8.41199 5.07 8.07373 6.50452C7.19626 6.77642 6.57291 6.96972 6.49328 6.99473C6.0035 7.14837 5.98801 7.1638 5.9237 7.62532C5.8753 7.97473 4.59375 17.8855 4.59375 17.8855L14.5798 19.7565L19.9906 18.586C19.9906 18.586 18.0911 5.74423 18.0792 5.65623ZM14.0237 4.66219L13.1788 4.92372C13.1791 4.86417 13.1794 4.80558 13.1794 4.74151C13.1794 4.18313 13.1018 3.73355 12.9775 3.37715C13.477 3.43983 13.8096 4.00816 14.0237 4.66219ZM12.3579 3.48787C12.4968 3.83583 12.587 4.3352 12.587 5.00907C12.587 5.04354 12.5867 5.07507 12.5864 5.10695C12.0369 5.27716 11.4398 5.46196 10.8413 5.64737C11.1774 4.35051 11.8072 3.72414 12.3579 3.48787ZM11.687 2.85276C11.7844 2.85276 11.8826 2.88585 11.9766 2.95053C11.2529 3.29108 10.4771 4.14877 10.1496 5.86158L8.77013 6.2888C9.15384 4.98236 10.065 2.85276 11.687 2.85276Z" fill="#95BF46"/>
<path id="Vector_3" d="M17.9241 5.51442C17.8605 5.50912 16.5147 5.40937 16.5147 5.40937C16.5147 5.40937 15.5801 4.48145 15.4775 4.37874C15.4391 4.34053 15.3873 4.32094 15.3332 4.3125L14.5781 19.7567L19.9884 18.5863C19.9884 18.5863 18.089 5.74449 18.077 5.65649C18.0649 5.56849 17.9878 5.51979 17.9241 5.51442Z" fill="#5E8E3E"/>
<path id="Vector_4" d="M12.7329 8.50366L12.0657 10.4882C12.0657 10.4882 11.4812 10.1763 10.7646 10.1763C9.71418 10.1763 9.66132 10.8355 9.66132 11.0016C9.66132 11.908 12.0241 12.2553 12.0241 14.3784C12.0241 16.0488 10.9646 17.1243 9.53613 17.1243C7.82194 17.1243 6.94531 16.0575 6.94531 16.0575L7.4043 14.541C7.4043 14.541 8.30539 15.3146 9.06575 15.3146C9.56259 15.3146 9.76469 14.9234 9.76469 14.6376C9.76469 13.4553 7.82628 13.4025 7.82628 11.4597C7.82628 9.82456 8.99993 8.24219 11.3691 8.24219C12.2819 8.24219 12.7329 8.50366 12.7329 8.50366Z" fill="white"/>
</g>
</g>
</g>
</g>
</svg>
