<svg width="22" height="22" viewBox="0 0 22 22" fill="none" xmlns="http://www.w3.org/2000/svg">
<g id="SVG">
<path id="Vector" d="M10.6786 1.1377C5.08314 1.1377 0.546875 5.67384 0.546875 11.2693C0.546875 16.8651 5.08314 21.4009 10.6786 21.4009C16.2747 21.4009 20.8105 16.8651 20.8105 11.2693C20.8105 5.6742 16.2748 1.1377 10.6786 1.1377ZM15.325 15.7504C15.1435 16.0481 14.7539 16.1424 14.4563 15.9597C12.0775 14.5067 9.08283 14.1776 5.55608 14.9834C5.21622 15.0608 4.87746 14.8479 4.80003 14.5079C4.72224 14.1679 4.93433 13.8292 5.27502 13.7517C9.13449 12.87 12.445 13.2496 15.1157 14.8817C15.4133 15.0644 15.5077 15.4528 15.325 15.7504ZM16.5651 12.9917C16.3364 13.3634 15.8501 13.4807 15.4787 13.2521C12.7552 11.5781 8.60384 11.0933 5.38258 12.0711C4.96481 12.1973 4.52358 11.9619 4.39678 11.5448C4.27096 11.1271 4.50652 10.6867 4.92356 10.5596C8.60312 9.44316 13.1775 9.98396 16.305 11.9058C16.6764 12.1345 16.7938 12.6208 16.5651 12.9917ZM16.6716 10.119C13.4062 8.17946 8.01863 8.00113 4.90093 8.94736C4.40029 9.0992 3.87086 8.81658 3.71914 8.31594C3.56742 7.81505 3.8498 7.28598 4.35081 7.13378C7.92971 6.04732 13.8792 6.25723 17.6387 8.48907C18.09 8.75633 18.2376 9.3379 17.9702 9.78761C17.7041 10.2379 17.1204 10.3864 16.6716 10.119Z" fill="#1ED760"/>
</g>
</svg>
