<svg width="33" height="32" viewBox="0 0 33 32" fill="none" xmlns="http://www.w3.org/2000/svg">
<rect x="0.5" width="32" height="32" rx="10" fill="url(#paint0_linear_1_133)"/>
<path fill-rule="evenodd" clip-rule="evenodd" d="M20.9336 12.0592C20.5584 11.7318 20.0188 11.7393 19.7092 11.8343C19.9119 11.5865 20.3845 11.3832 20.5235 11.3586C20.6295 11.3981 20.9336 11.7091 20.9336 12.0592ZM22.1316 10.7033C21.8848 9.3893 18.8173 10.2601 17.2724 9.70193C17.2429 10.085 17.7481 10.6987 18.2313 10.9258C17.4054 11.6394 16.6638 13.0772 16.514 14.8337C16.3649 13.0772 15.6233 11.6394 14.7974 10.9258C15.2805 10.6988 15.7862 10.0851 15.7561 9.70209C14.2114 10.2602 11.1438 9.38954 10.8966 10.7035C10.8446 10.9817 10.979 11.4054 11.1241 11.5273C11.1501 11.4392 11.2858 11.1508 11.7134 11.0862C13.8745 10.7612 15.6789 14.0768 14.0502 15.4174C14.0253 15.438 14.0394 15.4754 14.0729 15.4754H18.9562C18.9893 15.4754 19.0033 15.4379 18.9788 15.4174C17.3497 14.077 19.154 10.7613 21.3153 11.0864C21.7431 11.151 21.8784 11.4392 21.9045 11.5274C22.0497 11.4055 22.184 10.9815 22.1316 10.7033ZM22.6573 7.68774C22.6184 7.56359 23.8857 7.56046 23.8857 8.35007C23.8857 8.87912 23.1276 9.12972 23.1276 9.67886C23.1276 9.93457 23.404 10.1221 23.4888 10.1221C23.2935 9.2406 24.1008 9.70193 24.3189 9.86669C23.8857 8.68124 24.8608 8.68866 24.7648 8.14511C24.698 7.76534 23.8503 7.88001 23.5436 7.68774C22.9992 7.34669 22.3552 6.0193 21.9308 7.34669C22.722 8.07781 22.2616 9.1541 21.2572 9.1541C21.2572 9.1541 21.2516 9.31186 21.2608 9.32438C22.4588 9.26606 22.8764 8.38953 22.6573 7.68774ZM8.68045 9.86669C8.89844 9.70193 9.70566 9.2406 9.51085 10.1221C9.59526 10.1221 9.87168 9.93457 9.87168 9.67886C9.87168 9.12972 9.11361 8.87912 9.11361 8.35007C9.11361 7.56046 10.3808 7.56359 10.342 7.68774C10.1232 8.38962 10.5408 9.26614 11.7388 9.32438C11.7476 9.31186 11.7421 9.15402 11.7421 9.15402C10.7381 9.15402 10.2777 8.07781 11.0684 7.3466C10.6441 6.0193 10 7.3466 9.45565 7.68766C9.14886 7.88001 8.30117 7.76526 8.23447 8.14511C8.13888 8.68882 9.11361 8.68124 8.68045 9.86669ZM12.0821 12.0592C12.4576 11.7318 12.9974 11.7393 13.3065 11.8343C13.1046 11.5865 12.6312 11.3832 12.4925 11.3586C12.3865 11.3981 12.0821 11.7091 12.0821 12.0592ZM17.084 4.70929L16.4997 4L15.9153 4.70929L16.4996 5.45565L17.084 4.70929ZM20.42 6.85389L20.0045 6.34989L19.5893 6.85389L20.0045 7.34652L20.42 6.85389ZM23.7908 21.4238L23.2641 20.8689L22.7372 21.4237L23.2641 21.9106L23.7908 21.4238ZM13.4103 6.85389L12.9949 6.34989L12.5797 6.85389L12.995 7.34652L13.4103 6.85389ZM12.22 9.32446H13.7701C15.0733 9.32446 15.6596 8.52818 15.8368 7.83767H17.1629C17.3401 8.52818 17.9262 9.32438 19.2298 9.32438H20.7798C20.7798 9.32438 21.0509 8.9582 21.119 8.77688C21.3638 8.12444 21.0509 7.82004 20.5945 7.82004L20.0045 8.35238L19.4146 7.82021C18.9581 7.82021 18.6453 8.12443 18.8901 8.77697C18.9214 8.86033 18.9962 8.98292 19.0671 9.09067C18.517 9.01546 17.8149 8.64063 17.661 7.83767C17.661 7.83767 18.0673 7.19511 18.1695 6.93503C18.5358 5.99977 18.0678 5.61753 17.3834 5.61753L16.4998 6.6514L15.6162 5.61753C14.9318 5.61753 14.4639 5.99977 14.8307 6.93503C14.9322 7.19511 15.339 7.83775 15.339 7.83775C15.1847 8.64063 14.4827 9.01546 13.9327 9.09075C14.0039 8.98283 14.0784 8.86034 14.1095 8.77688C14.3539 8.12444 14.0419 7.82012 13.5851 7.82012L12.9951 8.35246L12.405 7.82029C11.9483 7.82029 11.6363 8.12452 11.8807 8.77705C11.9488 8.95829 12.22 9.32446 12.22 9.32446ZM28.2452 14.1071C27.9461 14.2579 26.1908 15.0763 23.9424 14.7736C23.9657 14.6668 23.9855 14.5593 24.0017 14.4513C25.4981 14.2731 26.7145 14.0205 27.4897 13.5913C28.3733 13.1017 28.7597 11.9329 28.3138 11.0636C28.3022 11.0417 28.2701 11.0377 28.2542 11.0562C28.0097 11.3363 26.473 13.0003 24.0517 13.5177C24.0455 13.3928 24.0341 13.2683 24.0173 13.1443C25.1933 12.4805 26.3414 11.7156 26.8882 11.0162C27.7145 9.95879 27.6385 8.6099 26.8522 7.92219C26.8481 7.91873 26.8434 7.91617 26.8383 7.91468C26.8332 7.91319 26.8278 7.9128 26.8225 7.91354C26.8173 7.91429 26.8122 7.91614 26.8077 7.91898C26.8032 7.92182 26.7994 7.92558 26.7965 7.93002C26.5477 8.33862 24.2189 12.0853 21.6621 13.7029C21.6309 13.7227 21.5995 13.7422 21.5678 13.7612C21.4945 13.8055 21.4864 13.9004 21.5487 13.9567C21.8437 14.2226 22.0268 14.5927 22.0268 15.0036C22.0268 15.7181 21.4737 16.3122 20.7424 16.4411C20.3708 16.5128 19.8346 16.4919 19.3192 16.3223C19.2961 16.3149 19.2721 16.3301 19.2721 16.3533V18.6158C19.2721 18.6522 19.3277 18.6612 19.3407 18.6265C19.6541 17.8004 20.5916 17.6249 21.0017 17.6249C21.1493 18.5077 21.4128 19.2389 21.7552 19.6325C22.3128 20.272 23.2234 20.263 23.6181 19.8209C23.6213 19.8173 23.6236 19.813 23.625 19.8083C23.6263 19.8037 23.6265 19.7988 23.6256 19.7941C23.6248 19.7893 23.6229 19.7848 23.62 19.7809C23.6172 19.777 23.6135 19.7738 23.6093 19.7715C23.3773 19.6388 22.0501 18.8277 21.7844 17.4984C21.8887 17.4632 21.9906 17.4215 22.0896 17.3735C22.5181 18.0792 23.1417 18.7078 23.6437 18.9479C24.487 19.3505 25.259 19.1547 25.6013 18.5653C25.6138 18.5445 25.5985 18.5186 25.5734 18.5163C25.0517 18.4749 23.4509 18.0182 22.7693 16.9056C22.8482 16.8343 22.9235 16.7592 22.9949 16.6807C23.7083 17.2212 24.7167 17.699 25.4386 17.7966C26.2834 17.9109 27.2406 17.6425 27.2638 16.6647C27.2642 16.6452 27.2466 16.6291 27.2257 16.6302C26.9253 16.6484 24.937 16.7345 23.5202 15.9249C23.5694 15.8318 23.6153 15.7369 23.6578 15.6405C23.6578 15.6405 25.7986 16.1443 26.813 15.9775C27.821 15.8119 28.4114 15.0639 28.2975 14.1332C28.2941 14.1102 28.2669 14.0962 28.2452 14.1071ZM9.34169 15.6402C9.3843 15.7366 9.43031 15.8315 9.47965 15.9247C8.06324 16.7338 6.07579 16.6484 5.77405 16.63C5.75287 16.6288 5.73516 16.6457 5.73565 16.6648C5.75924 17.6424 6.7161 17.9107 7.56089 17.7963C8.28255 17.6988 9.29137 17.221 10.0045 16.6805C10.0761 16.759 10.1514 16.834 10.2301 16.9054C9.54817 18.0179 7.94762 18.4747 7.42608 18.5162C7.40084 18.5186 7.38611 18.5444 7.39811 18.5652C7.74048 19.1546 8.51245 19.3504 9.35617 18.9478C9.85769 18.7077 10.4813 18.0791 10.9096 17.3734C11.0087 17.4213 11.1107 17.463 11.2149 17.4984C10.9493 18.8276 9.62208 19.6386 9.39011 19.7715C9.38587 19.7738 9.38221 19.777 9.3794 19.781C9.37658 19.7849 9.37468 19.7893 9.37383 19.7941C9.37298 19.7988 9.37321 19.8037 9.37449 19.8083C9.37578 19.813 9.37808 19.8173 9.38125 19.8209C9.77601 20.263 10.6868 20.2719 11.2445 19.6324C11.5868 19.2388 11.8501 18.5076 11.9976 17.6248C12.4081 17.6248 13.3453 17.8003 13.6585 18.6263C13.672 18.6612 13.7276 18.6521 13.7276 18.6156V16.3532C13.7276 16.3301 13.7032 16.3148 13.6801 16.3222C13.1649 16.4919 12.6284 16.5125 12.2573 16.4409C11.5257 16.3121 10.9724 15.718 10.9724 15.0036C10.9724 14.5928 11.1562 14.2224 11.4505 13.9565C11.5134 13.9005 11.5048 13.8056 11.4321 13.7613C11.4001 13.7423 11.3684 13.7228 11.3369 13.703C8.78167 12.0863 6.45416 8.34225 6.20324 7.93101C6.2003 7.92646 6.19641 7.92259 6.19183 7.91967C6.18726 7.91674 6.18211 7.91482 6.17674 7.91404C6.17136 7.91326 6.16587 7.91364 6.16065 7.91514C6.15543 7.91665 6.15059 7.91925 6.14647 7.92277C5.36125 8.61089 5.28495 9.9592 6.1113 11.0164C6.65816 11.7158 7.80619 12.4807 8.98178 13.1445C8.96521 13.2684 8.95389 13.3929 8.94784 13.5177C6.52856 13.0008 4.99298 11.3396 4.74619 11.0575C4.72964 11.0382 4.69695 11.0421 4.68578 11.0641C4.24054 11.934 4.62702 13.1017 5.50972 13.5913C6.28501 14.0205 7.50147 14.2732 8.99783 14.4514C9.014 14.5594 9.03373 14.6669 9.057 14.7737C6.81094 15.076 5.05662 14.2594 4.75505 14.1075C4.7327 14.0962 4.70556 14.1102 4.70275 14.1337C4.58912 15.0643 5.1791 15.8116 6.1871 15.9772C7.20114 16.144 9.34169 15.6402 9.34169 15.6402ZM23.2642 22.6252L22.4841 22.0143C22.1727 22.1988 21.944 22.4917 21.8551 22.8352C21.3859 22.9005 20.1068 22.6177 20.2311 22.4301C21.6331 20.4673 20.5608 19.2985 19.272 19.3636V20.6817C19.272 21.1051 18.9008 21.4482 18.4436 21.4482H17.5536C16.9152 21.4482 16.4996 22.087 16.4996 22.087C16.4996 22.087 16.0839 21.4482 15.4455 21.4482H14.5556C14.098 21.4482 13.7276 21.105 13.7276 20.6817V19.3636C12.4388 19.2985 11.3657 20.4672 12.7681 22.43C12.8914 22.6157 11.5765 22.913 10.9598 22.8378C10.7972 22.6701 10.5629 22.5643 10.3004 22.5643C10.1889 22.5644 10.0782 22.5842 9.97355 22.6228C9.97355 22.6228 7.55005 20.3387 7.50569 20.3163L7.52556 20.2702C7.66376 20.0132 7.45248 19.7331 7.31891 19.7529C7.47408 19.5675 7.48128 18.7565 6.62043 18.5688C6.64567 18.7318 6.6585 19.0642 6.6585 19.0642C6.6585 19.0642 5.99411 18.7067 5.66043 19.0153C5.3673 19.3607 5.77405 19.9874 5.77405 19.9874C5.77405 19.9874 5.43408 19.9956 5.2665 19.9815C5.51287 20.811 6.3393 20.7523 6.51805 20.5886C6.50647 20.7204 6.80523 20.9085 7.05847 20.7577L7.16969 20.7042C7.18931 20.7303 9.54966 22.9502 9.54966 22.9502C9.44125 23.1103 9.38969 23.3069 9.42528 23.5165C9.48131 23.8439 9.75524 24.1154 10.1053 24.1859C10.3525 24.2353 10.5849 24.1875 10.7713 24.079L11.3961 24.6562C11.4515 24.7064 11.5268 24.7378 11.6108 24.7318C11.7636 24.7216 11.8781 24.5984 11.8665 24.4569C11.8615 24.3931 11.8288 24.3383 11.7836 24.2967C11.7736 24.2858 11.1472 23.7069 11.1472 23.7069C11.664 23.3463 12.6269 23.0921 13.426 23.0921C13.5663 23.0921 13.6324 22.9738 13.5841 22.8579C13.222 21.9913 14.0003 21.3634 14.8056 21.8745C15.1568 22.0973 15.5136 22.5363 15.7824 23.2688C14.4613 23.5872 12.8025 24.4644 12.4669 25.422C12.3376 25.7917 12.7645 26.2957 13.2829 26.3971C13.2874 26.3981 13.2921 26.3982 13.2967 26.3974C13.3013 26.3966 13.3056 26.3948 13.3095 26.3923C13.3134 26.3898 13.3168 26.3866 13.3194 26.3827C13.3221 26.3789 13.3239 26.3746 13.3249 26.3701C13.5956 24.9406 15.1401 23.8753 15.9437 23.6944C15.984 23.8021 15.9708 23.7672 16.0112 23.8745C15.1359 24.2866 14.2872 25.1555 14.0449 26.1887C13.9335 26.6618 14.4636 27.0883 14.9012 27.205C14.9232 27.2108 14.9448 27.1956 14.946 27.1746C15.0292 25.868 15.6087 24.7583 16.128 24.2536C16.1422 24.3523 16.1529 24.4515 16.16 24.551C16.16 24.551 15.6284 26.0254 15.6284 27.1012C15.6284 27.6018 16.3757 27.9511 16.486 28C16.6239 27.9511 17.3707 27.6018 17.3707 27.1012C17.3707 26.0254 16.8392 24.5509 16.8392 24.5509C16.8465 24.4514 16.8573 24.3522 16.8716 24.2535C17.3905 24.7585 17.9704 25.8676 18.0533 27.1741C18.0538 27.1793 18.0554 27.1842 18.058 27.1887C18.0606 27.1932 18.0641 27.197 18.0684 27.1999C18.0727 27.2029 18.0775 27.2048 18.0826 27.2057C18.0877 27.2066 18.093 27.2064 18.098 27.205C18.5361 27.0883 19.0657 26.6618 18.9548 26.1887C18.712 25.1557 17.8637 24.2866 16.9885 23.8745C17.0285 23.7672 17.0152 23.802 17.0557 23.6943C17.8597 23.8752 19.4036 24.9405 19.6744 26.37C19.6764 26.3791 19.6819 26.3871 19.6898 26.3921C19.6977 26.3972 19.7072 26.3989 19.7164 26.397C20.2345 26.2956 20.662 25.7915 20.532 25.4218C20.1972 24.4643 18.538 23.587 17.2167 23.2686C17.486 22.5362 17.8428 22.0971 18.194 21.8743C18.9988 21.3632 19.7772 21.991 19.4151 22.8578C19.3668 22.9737 19.4324 23.092 19.5732 23.092C20.4772 23.092 21.5909 23.417 22.0316 23.8529C22.3132 24.2735 22.8335 24.5426 23.4207 24.485C24.0879 24.4199 24.632 23.921 24.7071 23.3042C24.7728 22.7638 24.492 22.2785 24.0444 22.0141L23.2642 22.6252ZM17.5149 18.6881C17.7928 18.5855 18.2285 18.6685 18.2137 19.0679C18.2101 19.1585 18.3376 19.1585 18.3469 19.066C18.4301 18.4679 18.0241 18.2957 17.5993 18.3657C17.5465 18.1601 17.5033 17.9804 17.4541 17.8023C17.4149 17.6581 17.4005 17.3874 17.5681 17.3874C17.6584 17.3874 17.6221 17.6392 17.6136 17.7476C17.6061 17.8428 17.6405 17.9004 17.7181 17.9031C17.7664 17.9051 17.8268 17.8436 17.8629 17.8028C18.1061 17.5291 18.1625 17.1053 17.8777 16.9009C17.6393 16.7294 17.0425 16.857 16.8784 17.1015C16.8536 17.0094 16.7353 16.8574 16.6785 16.7912C16.6233 16.7265 16.609 16.6823 16.6853 16.6256C16.7213 16.5981 16.8301 16.4904 16.8301 16.3792C16.8301 16.3134 16.7788 16.192 16.6161 16.192C16.4876 16.192 16.3449 16.2805 16.3449 16.4778C16.3449 16.5218 16.3556 16.5687 16.384 16.6193C16.3029 16.6059 16.0825 16.6114 15.9692 16.6392L17.5345 20.9147C17.9825 20.6946 18.311 20.3461 18.311 19.972C18.311 19.6532 17.8393 19.759 17.6102 20.0077C17.5365 19.6034 17.471 19.2302 17.3993 18.8581C17.3798 18.7555 17.4322 18.719 17.5149 18.6881ZM15.3016 15.7836L15.6305 16.6931C15.349 16.7598 14.8961 16.9641 14.8961 17.2348C14.8961 17.5951 15.5367 17.8297 15.9069 17.8015C15.8886 17.8837 15.9097 17.957 15.9673 18.024C15.8329 18.024 15.5794 18.0862 15.4961 18.1755C15.2997 17.9935 14.9925 17.9272 14.8465 18.038C14.6997 18.1497 14.6953 18.3388 14.8485 18.5527C14.9553 18.7007 14.9953 18.8468 14.8753 19.0183C15.3217 19.0183 15.1573 18.4406 15.3322 18.4406C15.3092 18.5527 15.3232 18.6823 15.374 18.826C15.4076 18.9216 15.4076 18.9894 15.35 19.0814C15.206 19.3106 14.9821 19.8368 15.0124 20.3128C14.8661 20.312 14.7917 20.2764 14.8432 20.0774C14.8624 20.0034 14.8165 19.9505 14.7557 20.0418C14.6885 20.1424 14.656 20.3144 14.656 20.3879C14.656 20.8117 15.1633 20.897 15.3568 20.8074C15.9169 21.347 17.017 21.203 17.3852 21.022L15.4484 15.7321C15.4089 15.6322 15.2669 15.6798 15.3016 15.7836ZM15.2346 20.1411C15.1945 19.9234 15.4989 19.5341 15.8862 19.1585C15.8037 19.4033 15.855 19.8251 16.0166 19.9704C15.7357 19.9704 15.4022 20.0229 15.2346 20.1411Z" fill="white"/>
<defs>
<linearGradient id="paint0_linear_1_133" x1="26.3997" y1="0" x2="1.89137" y2="0" gradientUnits="userSpaceOnUse">
<stop stop-color="#FEDA3B"/>
<stop offset="0.47" stop-color="#EF5541"/>
<stop offset="0.815" stop-color="#821EE0"/>
<stop offset="0.98" stop-color="#7F2A8A"/>
</linearGradient>
</defs>
</svg>
