<svg width="17" height="16" viewBox="0 0 17 16" fill="none" xmlns="http://www.w3.org/2000/svg">
<g clip-path="url(#clip0_1_124)">
<path d="M15.5709 8C15.5709 8.64 14.7847 9.1675 14.6272 9.7575C14.4647 10.3675 14.8759 11.2175 14.5672 11.7513C14.2534 12.2938 13.3097 12.3587 12.8697 12.7987C12.4297 13.2387 12.3647 14.1825 11.8222 14.4963C11.2884 14.805 10.4384 14.3937 9.82842 14.5562C9.23842 14.7137 8.71092 15.5 8.07092 15.5C7.43092 15.5 6.90342 14.7137 6.31342 14.5562C5.70342 14.3937 4.85342 14.805 4.31967 14.4963C3.77717 14.1825 3.71217 13.2387 3.27217 12.7987C2.83217 12.3587 1.88842 12.2938 1.57467 11.7513C1.26592 11.2175 1.67717 10.3675 1.51467 9.7575C1.35717 9.1675 0.570923 8.64 0.570923 8C0.570923 7.36 1.35717 6.8325 1.51467 6.2425C1.67717 5.6325 1.26592 4.7825 1.57467 4.24875C1.88842 3.70625 2.83217 3.64125 3.27217 3.20125C3.71217 2.76125 3.77717 1.8175 4.31967 1.50375C4.85342 1.195 5.70342 1.60625 6.31342 1.44375C6.90342 1.28625 7.43092 0.5 8.07092 0.5C8.71092 0.5 9.23842 1.28625 9.82842 1.44375C10.4384 1.60625 11.2884 1.195 11.8222 1.50375C12.3647 1.8175 12.4297 2.76125 12.8697 3.20125C13.3097 3.64125 14.2534 3.70625 14.5672 4.24875C14.8759 4.7825 14.4647 5.6325 14.6272 6.2425C14.7847 6.8325 15.5709 7.36 15.5709 8Z" fill="url(#paint0_linear_1_124)"/>
<path d="M10.2384 5.765L7.38344 8.62L5.90344 7.14125C5.58219 6.82 5.06094 6.82 4.73969 7.14125C4.41844 7.4625 4.41844 7.98375 4.73969 8.305L6.81594 10.3813C7.12844 10.6938 7.63594 10.6938 7.94844 10.3813L11.4009 6.92875C11.7222 6.6075 11.7222 6.08625 11.4009 5.765C11.0797 5.44375 10.5597 5.44375 10.2384 5.765Z" fill="white"/>
</g>
<defs>
<linearGradient id="paint0_linear_1_124" x1="12.7114" y1="0.5" x2="1.22313" y2="0.5" gradientUnits="userSpaceOnUse">
<stop stop-color="#FEDA3B"/>
<stop offset="0.47" stop-color="#EF5541"/>
<stop offset="0.815" stop-color="#821EE0"/>
<stop offset="0.98" stop-color="#7F2A8A"/>
</linearGradient>
<clipPath id="clip0_1_124">
<rect width="16" height="16" fill="white" transform="translate(0.0709229)"/>
</clipPath>
</defs>
</svg>
