<svg width="56" height="55" viewBox="0 0 56 55" fill="none" xmlns="http://www.w3.org/2000/svg">
<path fill-rule="evenodd" clip-rule="evenodd" d="M38.0018 18.61C37.1553 17.8713 35.9381 17.8882 35.2396 18.1026C35.697 17.5436 36.7631 17.085 37.0767 17.0294C37.3157 17.1186 38.0018 17.8202 38.0018 18.61ZM40.7044 15.551C40.1477 12.5868 33.2276 14.5512 29.7426 13.2921C29.6759 14.1563 30.8155 15.5408 31.9056 16.053C30.0424 17.6629 28.3696 20.9064 28.0317 24.8689C27.6953 20.9064 26.0223 17.6629 24.159 16.0532C25.249 15.541 26.3897 14.1565 26.3219 13.2925C22.8371 14.5516 15.9168 12.5874 15.3591 15.5516C15.2419 16.1792 15.5451 17.135 15.8726 17.41C15.9312 17.2111 16.2372 16.5607 17.2018 16.415C22.0772 15.6817 26.1477 23.1614 22.4734 26.1856C22.4174 26.2321 22.4491 26.3167 22.5247 26.3167H33.5409C33.6156 26.3167 33.6473 26.2319 33.592 26.1858C29.9168 23.1618 33.9873 15.682 38.8628 16.4154C39.8281 16.5611 40.1333 17.2113 40.1921 17.4102C40.5196 17.1351 40.8226 16.1786 40.7044 15.551ZM41.8903 8.74828C41.8026 8.46822 44.6614 8.46116 44.6614 10.2425C44.6614 11.4359 42.9513 12.0013 42.9513 13.2401C42.9513 13.8169 43.5749 14.2399 43.7662 14.2399C43.3256 12.2514 45.1468 13.2921 45.6388 13.6638C44.6614 10.9895 46.8613 11.0063 46.6447 9.78008C46.494 8.92335 44.5817 9.18204 43.8898 8.74828C42.6617 7.9789 41.2089 4.98443 40.2515 7.9789C42.0363 9.62824 40.9977 12.0563 38.7318 12.0563C38.7318 12.0563 38.7193 12.4122 38.74 12.4404C41.4426 12.3088 42.3847 10.3315 41.8903 8.74828ZM10.3598 13.6638C10.8516 13.2921 12.6726 12.2514 12.2331 14.2399C12.4235 14.2399 13.0471 13.8169 13.0471 13.2401C13.0471 12.0013 11.337 11.4359 11.337 10.2425C11.337 8.46116 14.1957 8.46822 14.1081 8.74828C13.6145 10.3317 14.5565 12.309 17.2591 12.4404C17.2791 12.4122 17.2666 12.0561 17.2666 12.0561C15.0016 12.0561 13.963 9.62824 15.7469 7.97871C14.7895 4.98443 13.3367 7.97871 12.1086 8.7481C11.4165 9.18204 9.50417 8.92316 9.3537 9.78008C9.13806 11.0066 11.337 10.9895 10.3598 13.6638ZM18.0336 18.61C18.8808 17.8713 20.0984 17.8882 20.7957 18.1026C20.3402 17.5436 19.2723 17.085 18.9594 17.0294C18.7204 17.1186 18.0336 17.8202 18.0336 18.61ZM29.3175 2.02917L27.9994 0.429075L26.6809 2.02917L27.999 3.7129L29.3175 2.02917ZM36.8432 6.86719L35.9059 5.73021L34.9691 6.86719L35.9058 7.97853L36.8432 6.86719ZM44.4473 39.7355L43.2592 38.4837L42.0706 39.7354L43.2592 40.8337L44.4473 39.7355ZM21.03 6.86719L20.0928 5.73021L19.1562 6.86719L20.093 7.97853L21.03 6.86719ZM18.3448 12.4406H21.8416C24.7815 12.4406 26.1042 10.6442 26.5039 9.08652H29.4954C29.8953 10.6442 31.2173 12.4404 34.1581 12.4404H37.6549C37.6549 12.4404 38.2665 11.6143 38.42 11.2053C38.9722 9.73343 38.2665 9.04675 37.2369 9.04675L35.9058 10.2477L34.575 9.04712C33.5454 9.04712 32.8397 9.73343 33.3919 11.2055C33.4625 11.3936 33.6312 11.6701 33.7911 11.9132C32.5503 11.7435 30.9664 10.8979 30.6191 9.08652C30.6191 9.08652 31.5358 7.63695 31.7662 7.05025C32.5927 4.94038 31.5369 4.07808 29.9929 4.07808L27.9996 6.41039L26.0062 4.07808C24.4622 4.07808 23.4067 4.94038 24.2341 7.05025C24.4632 7.63695 25.381 9.0867 25.381 9.0867C25.0328 10.8979 23.4492 11.7435 22.2085 11.9134C22.369 11.6699 22.537 11.3936 22.6072 11.2053C23.1585 9.73343 22.4547 9.04693 21.4243 9.04693L20.0932 10.2478L18.762 9.0473C17.7319 9.0473 17.028 9.73362 17.5793 11.2057C17.7328 11.6145 18.3448 12.4406 18.3448 12.4406ZM54.4962 23.2298C53.8213 23.5699 49.8616 25.4162 44.7895 24.7333C44.8421 24.4925 44.8866 24.25 44.9232 24.0063C48.299 23.6043 51.0431 23.0343 52.7918 22.0661C54.7852 20.9616 55.6569 18.3251 54.6508 16.3639C54.6246 16.3145 54.5524 16.3055 54.5163 16.3472C53.9648 16.979 50.4981 20.733 45.0359 21.9001C45.022 21.6184 44.9962 21.3374 44.9585 21.0579C47.6114 19.5604 50.2013 17.8348 51.4349 16.257C53.2989 13.8716 53.1275 10.8286 51.3535 9.27719C51.3444 9.26939 51.3338 9.26361 51.3222 9.26025C51.3107 9.25689 51.2986 9.25601 51.2867 9.25768C51.2748 9.25935 51.2634 9.26353 51.2533 9.26994C51.2431 9.27635 51.2345 9.28484 51.2279 9.29484C50.6667 10.2166 45.4131 18.6687 39.6453 22.3179C39.5749 22.3627 39.504 22.4065 39.4324 22.4495C39.267 22.5495 39.2489 22.7635 39.3895 22.8905C40.0549 23.4904 40.468 24.3252 40.468 25.2521C40.468 26.864 39.2202 28.2042 37.5705 28.4951C36.7323 28.6568 35.5225 28.6098 34.3599 28.2271C34.3076 28.2104 34.2535 28.2448 34.2535 28.297V33.4009C34.2535 33.4831 34.379 33.5035 34.4085 33.4251C35.1153 31.5615 37.2304 31.1656 38.1554 31.1656C38.4883 33.1571 39.083 34.8066 39.8553 35.6946C41.1133 37.1373 43.1673 37.117 44.0578 36.1196C44.065 36.1114 44.0703 36.1018 44.0733 36.0913C44.0762 36.0808 44.0767 36.0698 44.0748 36.0591C44.0729 36.0484 44.0686 36.0382 44.0622 36.0294C44.0558 36.0206 44.0475 36.0133 44.0379 36.0081C43.5146 35.7089 40.5205 33.8789 39.9212 30.8804C40.1565 30.8009 40.3864 30.7067 40.6097 30.5984C41.5763 32.1906 42.983 33.6085 44.1155 34.1503C46.018 35.0585 47.7595 34.6167 48.5318 33.287C48.5598 33.2402 48.5255 33.1818 48.4687 33.1766C47.292 33.0832 43.6807 32.0528 42.1431 29.5429C42.3209 29.3821 42.4908 29.2128 42.652 29.0355C44.2613 30.255 46.536 31.3329 48.1648 31.5529C50.0706 31.8109 52.2299 31.2054 52.2822 28.9995C52.2831 28.9554 52.2433 28.9192 52.1963 28.9218C51.5186 28.9627 47.0332 29.1569 43.837 27.3306C43.948 27.1205 44.0516 26.9065 44.1475 26.6891C44.1475 26.6891 48.9769 27.8255 51.2652 27.4492C53.5392 27.0756 54.8711 25.3882 54.614 23.2887C54.6065 23.2367 54.5451 23.2051 54.4962 23.2298ZM11.8515 26.6883C11.9476 26.9058 12.0514 27.1199 12.1627 27.33C8.96742 29.1554 4.48392 28.9627 3.80323 28.9212C3.75544 28.9186 3.71548 28.9565 3.7166 28.9998C3.76981 31.205 5.92839 31.8103 7.83418 31.5524C9.46217 31.3323 11.738 30.2545 13.3467 29.0351C13.5082 29.2122 13.6781 29.3815 13.8557 29.5425C12.3173 32.0523 8.70661 33.0828 7.53005 33.1763C7.47311 33.1818 7.43988 33.24 7.46695 33.2868C8.23931 34.6165 9.98081 35.0583 11.8842 34.1501C13.0155 33.6083 14.4223 32.1904 15.3885 30.5983C15.612 30.7062 15.8421 30.8004 16.0774 30.8802C15.4781 33.8787 12.484 35.7084 11.9607 36.0081C11.9512 36.0134 11.9429 36.0207 11.9366 36.0295C11.9302 36.0383 11.9259 36.0484 11.924 36.0591C11.9221 36.0698 11.9226 36.0808 11.9255 36.0913C11.9284 36.1017 11.9336 36.1114 11.9407 36.1196C12.8313 37.1168 14.8861 37.1371 16.144 35.6944C16.9164 34.8065 17.5103 33.1569 17.8429 31.1655C18.769 31.1655 20.8833 31.5613 21.5899 33.4247C21.6204 33.5033 21.7458 33.4829 21.7458 33.4006V28.2968C21.7458 28.2448 21.6907 28.2102 21.6385 28.2269C20.4763 28.6098 19.2661 28.6562 18.4288 28.4945C16.7784 28.2041 15.5303 26.8638 15.5303 25.2521C15.5303 24.3255 15.9448 23.4898 16.6087 22.8901C16.7506 22.7637 16.7314 22.5496 16.5673 22.4497C16.4951 22.4068 16.4236 22.363 16.3526 22.3183C10.5881 18.6711 5.3375 10.2248 4.77144 9.29707C4.76479 9.28682 4.75602 9.27809 4.7457 9.27149C4.73539 9.26489 4.72378 9.26056 4.71164 9.2588C4.69951 9.25704 4.68714 9.25789 4.67536 9.26128C4.66358 9.26468 4.65267 9.27055 4.64336 9.27849C2.87199 10.8308 2.69986 13.8725 4.56402 16.2574C5.7977 17.8352 8.38755 19.5607 11.0396 21.0583C11.0022 21.3377 10.9766 21.6186 10.963 21.9001C5.50534 20.7342 2.0412 16.9865 1.48447 16.3501C1.44713 16.3067 1.37338 16.3154 1.34818 16.365C0.343757 18.3275 1.21563 20.9618 3.20692 22.0663C4.95589 23.0345 7.70013 23.6045 11.0758 24.0065C11.1123 24.2502 11.1568 24.4927 11.2093 24.7335C6.14234 25.4155 2.18476 23.5734 1.50444 23.2307C1.45404 23.2051 1.3928 23.2369 1.38645 23.2898C1.13012 25.3891 2.46107 27.0749 4.73503 27.4486C7.02261 27.8249 11.8515 26.6883 11.8515 26.6883ZM43.2593 42.4459L41.4995 41.0677C40.7972 41.4839 40.2812 42.1448 40.0807 42.9196C39.0221 43.0669 36.1365 42.429 36.4171 42.0058C39.5797 37.5777 37.1607 34.9412 34.2533 35.088V38.0615C34.2533 39.0167 33.416 39.7907 32.3845 39.7907H30.3768C28.9366 39.7907 27.999 41.2318 27.999 41.2318C27.999 41.2318 27.0614 39.7906 25.6213 39.7906H23.6137C22.5813 39.7906 21.7458 39.0165 21.7458 38.0615V35.088C18.8384 34.9412 16.4175 37.5775 19.5811 42.0056C19.8593 42.4245 16.893 43.095 15.5018 42.9255C15.1351 42.5471 14.6064 42.3085 14.0144 42.3085C13.7626 42.3087 13.5129 42.3533 13.2769 42.4405C13.2769 42.4405 7.80972 37.2876 7.70965 37.2373L7.75446 37.1332C8.06624 36.5534 7.58961 35.9215 7.28828 35.9661C7.63834 35.548 7.65458 33.7184 5.71257 33.295C5.76951 33.6626 5.79845 34.4127 5.79845 34.4127C5.79845 34.4127 4.29965 33.6061 3.5469 34.3023C2.88562 35.0815 3.80323 36.4952 3.80323 36.4952C3.80323 36.4952 3.03628 36.5138 2.65822 36.4818C3.21402 38.3533 5.07836 38.2207 5.48163 37.8515C5.45549 38.1488 6.12946 38.5731 6.70075 38.233L6.95167 38.1122C6.99592 38.1711 12.3207 43.179 12.3207 43.179C12.0761 43.5403 11.9598 43.9837 12.0401 44.4565C12.1665 45.1952 12.7844 45.8076 13.5741 45.9666C14.1318 46.0781 14.656 45.9704 15.0765 45.7254L16.486 47.0276C16.6111 47.141 16.781 47.2116 16.9703 47.1982C17.3152 47.1752 17.5734 46.8971 17.5472 46.5781C17.536 46.434 17.4621 46.3104 17.3601 46.2166C17.3377 46.1921 15.9245 44.886 15.9245 44.886C17.0904 44.0725 19.2626 43.4992 21.0653 43.4992C21.3819 43.4992 21.5309 43.2323 21.4219 42.9709C20.6051 41.0158 22.361 39.5993 24.1775 40.7523C24.9699 41.255 25.7747 42.2453 26.3811 43.8977C23.4009 44.6159 19.6587 46.595 18.9017 48.7552C18.6101 49.5892 19.5731 50.7262 20.7425 50.955C20.7528 50.9572 20.7633 50.9574 20.7737 50.9556C20.784 50.9537 20.7938 50.9498 20.8026 50.9442C20.8114 50.9385 20.819 50.9312 20.8249 50.9225C20.8309 50.9139 20.835 50.9043 20.8372 50.894C21.448 47.6691 24.9322 45.266 26.745 44.8579C26.8359 45.1008 26.8062 45.0222 26.8973 45.2642C24.9228 46.1937 23.0081 48.154 22.4614 50.4848C22.2103 51.5521 23.4061 52.5142 24.3932 52.7776C24.4428 52.7906 24.4916 52.7564 24.4944 52.7088C24.682 49.7613 25.9894 47.2581 27.1607 46.1194C27.1928 46.3421 27.2169 46.5659 27.233 46.7903C27.233 46.7903 26.0337 50.1165 26.0337 52.5434C26.0337 53.6726 27.7195 54.4607 27.9684 54.5709C28.2796 54.4607 29.9642 53.6726 29.9642 52.5434C29.9642 50.1163 28.7652 46.7901 28.7652 46.7901C28.7816 46.5657 28.806 46.3419 28.8384 46.1192C30.009 47.2584 31.3172 49.7604 31.504 52.7079C31.5051 52.7194 31.5088 52.7307 31.5146 52.7407C31.5205 52.7508 31.5286 52.7594 31.5382 52.766C31.5478 52.7727 31.5587 52.7771 31.5702 52.7791C31.5818 52.7811 31.5936 52.7806 31.6049 52.7776C32.5932 52.5142 33.7879 51.5521 33.5379 50.4848C32.9901 48.1544 31.0763 46.1937 29.102 45.2642C29.1922 45.0222 29.1623 45.1006 29.2536 44.8577C31.0674 45.2658 34.5502 47.6689 35.1612 50.8939C35.1657 50.9144 35.1782 50.9323 35.1959 50.9437C35.2137 50.9551 35.2352 50.959 35.2559 50.9546C36.4246 50.726 37.3891 49.5887 37.0958 48.7548C36.3406 46.5946 32.5975 44.6156 29.6167 43.8973C30.2242 42.2452 31.0293 41.2546 31.8216 40.7519C33.637 39.5989 35.3931 41.0152 34.5763 42.9705C34.4673 43.232 34.6151 43.4988 34.9329 43.4988C36.9722 43.4988 39.4845 44.232 40.4787 45.2155C41.114 46.1644 42.2878 46.7713 43.6126 46.6414C45.1177 46.4946 46.345 45.3692 46.5146 43.9776C46.6626 42.7584 46.0292 41.6638 45.0195 41.0673L43.2593 42.4459ZM30.2896 33.5641C30.9165 33.3326 31.8993 33.5199 31.8659 34.4208C31.8578 34.6253 32.1455 34.6253 32.1664 34.4166C32.3541 33.0674 31.4383 32.6789 30.4798 32.8369C30.3607 32.3731 30.2633 31.9675 30.1524 31.5658C30.0639 31.2405 30.0314 30.6299 30.4094 30.6299C30.6133 30.6299 30.5314 31.1978 30.5121 31.4425C30.4953 31.6572 30.5728 31.7871 30.7479 31.7932C30.8569 31.7977 30.9932 31.659 31.0746 31.5671C31.6231 30.9495 31.7505 29.9935 31.1079 29.5325C30.5702 29.1454 29.2237 29.4334 28.8537 29.9848C28.7977 29.777 28.5307 29.4341 28.4026 29.2849C28.2781 29.139 28.2458 29.0392 28.418 28.9114C28.4992 28.8493 28.7447 28.6062 28.7447 28.3553C28.7447 28.207 28.6289 27.9331 28.2619 27.9331C27.9721 27.9331 27.6501 28.1327 27.6501 28.578C27.6501 28.677 27.6743 28.783 27.7384 28.8971C27.5554 28.867 27.0581 28.8792 26.8027 28.942L30.3336 38.5872C31.3444 38.0907 32.0854 37.3044 32.0854 36.4605C32.0854 35.7413 31.0212 35.9799 30.5045 36.5409C30.3383 35.629 30.1904 34.7869 30.0288 33.9477C29.9847 33.7161 30.1029 33.6338 30.2896 33.5641ZM25.2966 27.0119L26.0385 29.0636C25.4034 29.2141 24.3818 29.675 24.3818 30.2855C24.3818 31.0984 25.8268 31.6276 26.6621 31.5641C26.6206 31.7496 26.6684 31.9148 26.7984 32.0659C26.4952 32.0659 25.9231 32.2064 25.7353 32.4078C25.2923 31.9971 24.5993 31.8475 24.2698 32.0974C23.9387 32.3494 23.9289 32.7761 24.2744 33.2586C24.5153 33.5925 24.6056 33.922 24.3349 34.309C25.3418 34.309 24.971 33.0058 25.3655 33.0058C25.3138 33.2586 25.3453 33.5509 25.4599 33.8752C25.5357 34.0908 25.5357 34.2439 25.4058 34.4513C25.081 34.9683 24.5758 36.1555 24.6441 37.2293C24.314 37.2274 24.1462 37.1471 24.2625 36.6981C24.3058 36.5313 24.2022 36.412 24.065 36.6179C23.9134 36.845 23.8402 37.233 23.8402 37.3988C23.8402 38.3547 24.9846 38.5473 25.4211 38.3451C26.6845 39.5623 29.1662 39.2375 29.997 38.8292L25.6278 26.8957C25.5385 26.6703 25.2182 26.7777 25.2966 27.0119ZM25.1454 36.842C25.055 36.3508 25.7417 35.4727 26.6152 34.6253C26.4293 35.1776 26.5448 36.1291 26.9095 36.4569C26.2758 36.4569 25.5234 36.5753 25.1454 36.842Z" fill="url(#paint0_linear_1_120)"/>
<defs>
<linearGradient id="paint0_linear_1_120" x1="44.7496" y1="0.429075" x2="3.28317" y2="0.429075" gradientUnits="userSpaceOnUse">
<stop stop-color="#FEDA3B"/>
<stop offset="0.47" stop-color="#EF5541"/>
<stop offset="0.815" stop-color="#821EE0"/>
<stop offset="0.98" stop-color="#7F2A8A"/>
</linearGradient>
</defs>
</svg>
