<svg width="33" height="33" viewBox="0 0 33 33" fill="none" xmlns="http://www.w3.org/2000/svg">
<g clip-path="url(#clip0_0_65)">
<path d="M28.5954 0.349976H5.1045C2.67193 0.349976 0.699951 2.32196 0.699951 4.75452V28.2454C0.699951 30.678 2.67193 32.65 5.1045 32.65H28.5954C31.028 32.65 33 30.678 33 28.2454V4.75452C33 2.32196 31.028 0.349976 28.5954 0.349976Z" fill="#F96600"/>
<path d="M15.8571 20.6256C14.2916 20.4623 12.8804 20.075 11.6728 19.1317C11.5223 19.0143 11.3681 18.9005 11.2305 18.7647C10.7019 18.2563 10.6487 17.6745 11.0672 17.0763C11.425 16.5624 12.0251 16.4248 12.651 16.7202C12.7711 16.7811 12.8865 16.851 12.996 16.9294C14.115 17.69 15.4341 18.1024 16.7871 18.1149C18.1401 18.1273 19.4665 17.7391 20.5993 16.9992C20.8158 16.8238 21.0655 16.6939 21.3334 16.6175C21.5825 16.5438 21.8492 16.5561 22.0905 16.6523C22.3318 16.7485 22.5338 16.923 22.664 17.1478C22.9943 17.6874 22.9906 18.2123 22.5832 18.6307C21.9587 19.2623 21.204 19.7502 20.3718 20.0603C19.5615 20.3515 18.7181 20.5407 17.8612 20.6238C17.9896 20.7651 18.0447 20.833 18.1328 20.9137C19.2945 22.0828 20.4617 23.2463 21.6197 24.4172C21.8042 24.5849 21.9293 24.8079 21.9763 25.0528C22.0233 25.2976 21.9896 25.5511 21.8803 25.7752C21.769 26.0209 21.5878 26.2283 21.3593 26.3716C21.1309 26.5148 20.8652 26.5876 20.5957 26.5809C20.2803 26.5498 19.9884 26.4003 19.779 26.1625C18.9017 25.2797 18.008 24.4135 17.1491 23.5142C16.8995 23.2536 16.7821 23.3032 16.5582 23.5289C15.6754 24.4465 14.778 25.3329 13.8769 26.2212C13.7096 26.4066 13.4854 26.5312 13.2396 26.5754C12.9938 26.6196 12.7402 26.5809 12.5188 26.4653C12.2789 26.3533 12.0765 26.1743 11.9359 25.95C11.7952 25.7257 11.7223 25.4655 11.726 25.2008C11.7525 24.8736 11.9052 24.5696 12.1518 24.3529C13.3043 23.2041 14.4531 22.0546 15.5983 20.9045C15.6754 20.8256 15.7488 20.743 15.8571 20.6256Z" fill="white"/>
<path d="M16.8096 16.6248C15.7975 16.6189 14.8101 16.3125 13.9724 15.7446C13.1346 15.1767 12.4845 14.3728 12.1043 13.4349C11.7241 12.4969 11.6311 11.4672 11.8369 10.4763C12.0428 9.48542 12.5383 8.57798 13.2606 7.86908C13.9829 7.16019 14.8995 6.68178 15.8941 6.49453C16.8886 6.30728 17.9164 6.41962 18.8471 6.81731C19.7777 7.21501 20.5693 7.88013 21.1214 8.72833C21.6735 9.57653 21.9613 10.5696 21.9482 11.5816C21.9298 12.9299 21.3795 14.2165 20.4171 15.161C19.4547 16.1056 18.1581 16.6317 16.8096 16.6248ZM19.3477 11.51C19.3462 11.0153 19.198 10.5322 18.9218 10.1218C18.6457 9.7114 18.2539 9.39218 17.7962 9.20456C17.3385 9.01694 16.8354 8.96935 16.3506 9.06782C15.8658 9.16629 15.4211 9.40639 15.0729 9.75772C14.7246 10.1091 14.4885 10.5558 14.3943 11.0414C14.3001 11.5271 14.3521 12.0297 14.5438 12.4858C14.7354 12.9418 15.0581 13.3308 15.4709 13.6033C15.8837 13.8759 16.3681 14.0198 16.8628 14.0169C17.1908 14.0162 17.5154 13.9507 17.818 13.8242C18.1206 13.6977 18.3952 13.5126 18.6261 13.2797C18.857 13.0468 19.0396 12.7705 19.1634 12.4668C19.2873 12.1631 19.3499 11.838 19.3477 11.51Z" fill="white"/>
</g>
<defs>
<clipPath id="clip0_0_65">
<rect width="32.3" height="32.3" fill="white" transform="translate(0.699951 0.349976)"/>
</clipPath>
</defs>
</svg>
