<svg width="15" height="15" viewBox="0 0 15 15" fill="none" xmlns="http://www.w3.org/2000/svg">
<path fill-rule="evenodd" clip-rule="evenodd" d="M10.4247 3.91647C10.6779 4.15104 10.6931 4.54648 10.4585 4.79971L4.8296 10.8768C4.36867 11.3744 3.60008 11.3744 3.13916 10.8768L0.791475 8.34219C0.556916 8.08894 0.572055 7.6935 0.825294 7.45894C1.07853 7.22437 1.47397 7.23956 1.70853 7.49275L3.98438 9.94981L9.5415 3.95029C9.77606 3.69706 10.1715 3.68192 10.4247 3.91647ZM13.55 3.91647C13.8032 4.15104 13.8184 4.54647 13.5838 4.79971L7.95488 10.8768C7.72031 11.13 7.32487 11.1452 7.07162 10.9106C6.81837 10.6761 6.80325 10.2806 7.03781 10.0274L12.6667 3.95029C12.9013 3.69706 13.2968 3.68192 13.55 3.91647Z" fill="#202023"/>
</svg>
