<svg width="34" height="35" viewBox="0 0 34 35" fill="none" xmlns="http://www.w3.org/2000/svg">
<path fill-rule="evenodd" clip-rule="evenodd" d="M33.1401 22.4647V12.5751C33.1401 3.54197 31.0073 1.39249 21.9715 1.39249C-0.125132 1.25071 0.745267 0.352092 0.893847 22.4477C0.893847 31.4808 3.02667 33.6299 12.0625 33.6299H19.5626C29.1628 33.7958 33.3815 33.1359 33.1401 22.4647ZM26.9263 24.3959H24.5748C23.6847 24.3959 23.4161 23.6737 21.8205 22.0788C20.4265 20.7354 19.8386 20.5675 19.4861 20.5675C18.9988 20.5675 18.8645 20.7018 18.8645 21.3733V23.4888C18.8645 24.0596 18.6799 24.3955 17.1849 24.3955C14.6992 24.3955 11.9619 22.8842 10.0133 20.0972C7.09103 16.0173 6.30155 12.9277 6.30155 12.3065C6.30155 11.9539 6.43585 11.635 7.10769 11.635H9.45913C10.0636 11.635 10.2819 11.9036 10.5172 12.5248C11.4811 15.6847 14.7832 20.9428 14.8335 17.9144V14.4556C14.7329 12.8773 13.8931 12.7431 13.8931 12.1722C13.8931 11.9203 14.1283 11.635 14.4976 11.635H18.1924C18.6962 11.635 18.8642 11.8869 18.8642 12.4911V17.159C18.9281 18.2782 19.6244 17.8376 20.3255 17.1086C22.0218 15.2281 23.2142 12.3065 23.2142 12.3065C23.3655 11.9539 23.6341 11.635 24.2386 11.635H26.59C27.2955 11.635 27.4465 11.9876 27.2955 12.4915C27.0099 13.8681 24.1379 17.8978 24.1379 17.9148C23.886 18.301 23.7854 18.5026 24.1379 18.9559C24.8149 19.7991 29.7476 24.2537 26.9263 24.3959Z" fill="white"/>
</svg>
