<svg width="19" height="15" viewBox="0 0 19 15" fill="none" xmlns="http://www.w3.org/2000/svg">
<path d="M3.31281 0.0913086H15.6286C16.3824 0.0913086 17.1053 0.390744 17.6383 0.923742C18.1713 1.45674 18.4707 2.17964 18.4707 2.93341V11.4597C18.4707 12.2135 18.1713 12.9364 17.6383 13.4694C17.1053 14.0024 16.3824 14.3018 15.6286 14.3018H3.31281C2.55904 14.3018 1.83613 14.0024 1.30314 13.4694C0.770138 12.9364 0.470703 12.2135 0.470703 11.4597V2.93341C0.470703 2.17964 0.770138 1.45674 1.30314 0.923742C1.83613 0.390744 2.55904 0.0913086 3.31281 0.0913086ZM3.31281 1.03868C2.83912 1.03868 2.42228 1.19973 2.10018 1.48394L9.4707 6.2492L16.8412 1.48394C16.5191 1.19973 16.1023 1.03868 15.6286 1.03868H3.31281ZM9.4707 7.39552L1.54123 2.25131C1.46544 2.45973 1.41807 2.69657 1.41807 2.93341V11.4597C1.41807 11.9622 1.61769 12.4442 1.97303 12.7995C2.32836 13.1548 2.81029 13.3545 3.31281 13.3545H15.6286C16.1311 13.3545 16.613 13.1548 16.9684 12.7995C17.3237 12.4442 17.5233 11.9622 17.5233 11.4597V2.93341C17.5233 2.69657 17.476 2.45973 17.4002 2.25131L9.4707 7.39552Z" fill="white"/>
</svg>
