<svg width="19" height="16" viewBox="0 0 19 16" fill="none" xmlns="http://www.w3.org/2000/svg">
<path d="M3.13898 0.894737H15.4548C16.2085 0.894737 16.9314 1.19417 17.4644 1.72717C17.9974 2.26017 18.2969 2.98307 18.2969 3.73684V12.2632C18.2969 13.0169 17.9974 13.7398 17.4644 14.2728C16.9314 14.8058 16.2085 15.1053 15.4548 15.1053H3.13898C2.38521 15.1053 1.66231 14.8058 1.12931 14.2728C0.59631 13.7398 0.296875 13.0169 0.296875 12.2632V3.73684C0.296875 2.98307 0.59631 2.26017 1.12931 1.72717C1.66231 1.19417 2.38521 0.894737 3.13898 0.894737ZM3.13898 1.84211C2.6653 1.84211 2.24845 2.00316 1.92635 2.28737L9.29688 7.05263L16.6674 2.28737C16.3453 2.00316 15.9285 1.84211 15.4548 1.84211H3.13898ZM9.29688 8.19895L1.3674 3.05474C1.29161 3.26316 1.24424 3.5 1.24424 3.73684V12.2632C1.24424 12.7657 1.44387 13.2476 1.7992 13.6029C2.15453 13.9583 2.63646 14.1579 3.13898 14.1579H15.4548C15.9573 14.1579 16.4392 13.9583 16.7946 13.6029C17.1499 13.2476 17.3495 12.7657 17.3495 12.2632V3.73684C17.3495 3.5 17.3021 3.26316 17.2263 3.05474L9.29688 8.19895Z" fill="black"/>
</svg>
