<svg width="93" height="94" viewBox="0 0 93 94" fill="none" xmlns="http://www.w3.org/2000/svg">
<g clip-path="url(#clip0_1_3458)">
<path d="M88.7847 65.2584H4.78467C3.6801 65.2584 2.78467 66.1539 2.78467 67.2584V81.2584C2.78467 82.363 3.6801 83.2584 4.78467 83.2584H88.7847C89.8892 83.2584 90.7847 82.363 90.7847 81.2584V67.2584C90.7847 66.1539 89.8892 65.2584 88.7847 65.2584Z" stroke="#17384B" stroke-width="3" stroke-miterlimit="10"/>
<path d="M84.7847 83.2584H8.78467C7.6801 83.2584 6.78467 84.1539 6.78467 85.2584V89.2584C6.78467 90.363 7.6801 91.2584 8.78467 91.2584H84.7847C85.8892 91.2584 86.7847 90.363 86.7847 89.2584V85.2584C86.7847 84.1539 85.8892 83.2584 84.7847 83.2584Z" stroke="#17384B" stroke-width="3" stroke-miterlimit="10"/>
<path d="M58.2144 65.2686H35.3145C34.9653 65.2647 34.623 65.1695 34.322 64.9924C34.021 64.8153 33.7718 64.5626 33.5989 64.2592C33.4259 63.9558 33.3355 63.6123 33.3364 63.2631C33.3374 62.9138 33.4296 62.571 33.6043 62.2686L34.2044 61.2686C34.378 60.9677 34.6269 60.7173 34.9268 60.542C35.2266 60.3666 35.567 60.2724 35.9143 60.2686H57.6543C58.0016 60.2724 58.342 60.3666 58.6419 60.542C58.9417 60.7173 59.1906 60.9677 59.3643 61.2686L59.9644 62.2686C60.1407 62.5739 60.2332 62.9205 60.2324 63.2731C60.2316 63.6257 60.1376 63.9718 59.96 64.2764C59.7823 64.5809 59.5273 64.8332 59.2207 65.0074C58.9142 65.1817 58.567 65.2717 58.2144 65.2686Z" stroke="#17384B" stroke-width="3" stroke-miterlimit="10"/>
<path d="M56.7652 37.6886C60.3422 35.5077 63.1083 32.2173 64.6419 28.3186C66.1754 24.4199 66.3924 20.1267 65.2598 16.0933C64.1272 12.0598 61.7071 8.50716 58.3682 5.97668C55.0293 3.44621 50.9546 2.07666 46.7652 2.07666C42.5757 2.07666 38.501 3.44621 35.1621 5.97668C31.8232 8.50716 29.4031 12.0598 28.2705 16.0933C27.1379 20.1267 27.3549 24.4199 28.8885 28.3186C30.422 32.2173 33.1881 35.5077 36.7652 37.6886C37.045 37.8705 37.2747 38.1194 37.4336 38.4128C37.5926 38.7063 37.6756 39.0349 37.6751 39.3687V58.2886C37.6751 58.819 37.8859 59.3277 38.261 59.7028C38.6361 60.0778 39.1446 60.2886 39.6751 60.2886H53.7952C54.3256 60.2886 54.8342 60.0778 55.2093 59.7028C55.5843 59.3277 55.7952 58.819 55.7952 58.2886V39.3885C55.7977 39.0458 55.888 38.7096 56.0579 38.4119C56.2277 38.1142 56.4714 37.8651 56.7652 37.6886Z" stroke="#17384B" stroke-width="3" stroke-miterlimit="10"/>
</g>
<defs>
<clipPath id="clip0_1_3458">
<rect width="92" height="93.17" fill="white" transform="translate(0.784668 0.0883789)"/>
</clipPath>
</defs>
</svg>
