<svg width="66" height="94" viewBox="0 0 66 94" fill="none" xmlns="http://www.w3.org/2000/svg">
<g clip-path="url(#clip0_1_3396)">
<path d="M42.9593 56.9087V88.9687C42.9598 89.3592 42.846 89.7414 42.6319 90.068C42.4178 90.3947 42.1127 90.6515 41.7543 90.8068C41.396 90.962 40.9999 91.009 40.6152 90.9418C40.2305 90.8746 39.8738 90.6962 39.5893 90.4286L34.2193 85.3587C33.8483 85.0099 33.3584 84.8157 32.8493 84.8157C32.3401 84.8157 31.8502 85.0099 31.4792 85.3587L25.9593 90.4987C25.6737 90.7635 25.317 90.9392 24.933 91.0042C24.549 91.0692 24.1544 91.0206 23.7976 90.8645C23.4408 90.7084 23.1373 90.4515 22.9245 90.1254C22.7116 89.7993 22.5986 89.4182 22.5993 89.0287V56.9186M34.5196 3.34863L38.8996 11.1187C39.1452 11.5549 39.5454 11.8832 40.0212 12.0387C40.497 12.1942 41.0139 12.1656 41.4697 11.9586L49.5796 8.24866C49.8981 8.10378 50.2491 8.04493 50.5974 8.07812C50.9458 8.11132 51.2793 8.23532 51.5647 8.43774C51.8501 8.64017 52.0774 8.91393 52.224 9.23169C52.3705 9.54945 52.431 9.90016 52.3996 10.2487L51.3996 19.0986C51.3421 19.5965 51.4735 20.0979 51.768 20.5034C52.0624 20.909 52.4984 21.1891 52.9896 21.2886L61.7396 23.0486C62.0878 23.119 62.4109 23.281 62.6757 23.5177C62.9406 23.7544 63.1376 24.0573 63.2465 24.3954C63.3555 24.7335 63.3725 25.0945 63.2957 25.4413C63.2189 25.7881 63.0511 26.1082 62.8097 26.3687L56.8097 32.9286C56.4695 33.2979 56.2807 33.7816 56.2807 34.2837C56.2807 34.7857 56.4695 35.2694 56.8097 35.6387L62.8097 42.1986C63.0511 42.4591 63.2189 42.7792 63.2957 43.126C63.3725 43.4728 63.3555 43.8338 63.2465 44.1719C63.1376 44.5099 62.9406 44.8129 62.6757 45.0496C62.4109 45.2863 62.0878 45.4482 61.7396 45.5187L52.9896 47.2787C52.4984 47.3781 52.0624 47.6583 51.768 48.0638C51.4735 48.4694 51.3421 48.9708 51.3996 49.4686L52.3996 58.3286C52.431 58.6771 52.3705 59.0278 52.224 59.3456C52.0774 59.6633 51.8501 59.9371 51.5647 60.1395C51.2793 60.3419 50.9458 60.466 50.5974 60.4991C50.2491 60.5323 49.8981 60.4735 49.5796 60.3286L41.4697 56.6187C41.0139 56.4116 40.497 56.3831 40.0212 56.5386C39.5454 56.6941 39.1452 57.0224 38.8996 57.4586L34.5196 65.2286C34.3452 65.5364 34.0923 65.7925 33.7866 65.9706C33.4809 66.1487 33.1334 66.2426 32.7797 66.2426C32.4259 66.2426 32.0784 66.1487 31.7727 65.9706C31.467 65.7925 31.2141 65.5364 31.0397 65.2286L26.6597 57.4586C26.4141 57.0224 26.0139 56.6941 25.5381 56.5386C25.0623 56.3831 24.5454 56.4116 24.0896 56.6187L15.9796 60.3286C15.6611 60.4735 15.3102 60.5323 14.9619 60.4991C14.6135 60.466 14.28 60.3419 13.9946 60.1395C13.7092 59.9371 13.4819 59.6633 13.3353 59.3456C13.1888 59.0278 13.1283 58.6771 13.1597 58.3286L14.1597 49.4686C14.2172 48.9708 14.0858 48.4694 13.7913 48.0638C13.4969 47.6583 13.0609 47.3781 12.5697 47.2787L3.81966 45.5187C3.47152 45.4482 3.14841 45.2863 2.88356 45.0496C2.61872 44.8129 2.42169 44.5099 2.31273 44.1719C2.20378 43.8338 2.18681 43.4728 2.2636 43.126C2.34039 42.7792 2.50817 42.4591 2.74965 42.1986L8.74965 35.6387C9.08979 35.2694 9.27861 34.7857 9.27861 34.2837C9.27861 33.7816 9.08979 33.2979 8.74965 32.9286L2.74965 26.3687C2.50817 26.1082 2.34039 25.7881 2.2636 25.4413C2.18681 25.0945 2.20378 24.7335 2.31273 24.3954C2.42169 24.0573 2.61872 23.7544 2.88356 23.5177C3.14841 23.281 3.47152 23.119 3.81966 23.0486L12.5697 21.2886C13.0609 21.1891 13.4969 20.909 13.7913 20.5034C14.0858 20.0979 14.2172 19.5965 14.1597 19.0986L13.1597 10.2487C13.1283 9.90016 13.1888 9.54945 13.3353 9.23169C13.4819 8.91393 13.7092 8.64017 13.9946 8.43774C14.28 8.23532 14.6135 8.11132 14.9619 8.07812C15.3102 8.04493 15.6611 8.10378 15.9796 8.24866L24.0896 11.9586C24.5454 12.1656 25.0623 12.1942 25.5381 12.0387C26.0139 11.8832 26.4141 11.5549 26.6597 11.1187L31.0397 3.34863C31.2141 3.04084 31.467 2.78481 31.7727 2.60669C32.0784 2.42857 32.4259 2.33472 32.7797 2.33472C33.1334 2.33472 33.4809 2.42857 33.7866 2.60669C34.0923 2.78481 34.3452 3.04084 34.5196 3.34863ZM46.0597 34.3286C46.0597 41.663 40.114 47.6086 32.7797 47.6086C25.4453 47.6086 19.4997 41.663 19.4997 34.3286C19.4997 26.9943 25.4453 21.0486 32.7797 21.0486C40.114 21.0486 46.0597 26.9943 46.0597 34.3286Z" stroke="#17384B" stroke-width="3" stroke-miterlimit="10"/>
</g>
<defs>
<clipPath id="clip0_1_3396">
<rect width="65.07" height="92.69" fill="white" transform="translate(0.249512 0.328613)"/>
</clipPath>
</defs>
</svg>
