<svg width="85" height="85" viewBox="0 0 85 85" fill="none" xmlns="http://www.w3.org/2000/svg">
<g clip-path="url(#clip0_1_3441)">
<path d="M42.7896 4.77332V80.5732C42.7894 81.0066 42.9302 81.4283 43.1904 81.7748C43.4507 82.1213 43.8163 82.3739 44.2325 82.4946C44.6488 82.6153 45.0929 82.5975 45.4982 82.444C45.9034 82.2904 46.2479 82.0095 46.4796 81.6433L82.6495 24.4633C82.8522 24.1432 82.9598 23.7722 82.9598 23.3933C82.9598 23.0145 82.8522 22.6433 82.6495 22.3232L70.8696 3.70325C70.6892 3.41831 70.4396 3.18372 70.1442 3.02112C69.8487 2.85852 69.5168 2.77327 69.1796 2.77332H44.7896C44.2591 2.77332 43.7504 2.98406 43.3754 3.35913C43.0003 3.7342 42.7896 4.24288 42.7896 4.77332Z" stroke="#17384B" stroke-width="3" stroke-miterlimit="10"/>
<path d="M43.8901 83.6234L61.5802 25.7434C61.7268 25.2634 61.6875 24.7459 61.4702 24.2935L51.4702 3.41345" stroke="#17384B" stroke-width="3" stroke-miterlimit="10"/>
<path d="M83.3296 23.3934H42.7896" stroke="#17384B" stroke-width="3" stroke-miterlimit="10"/>
<path d="M42.7902 4.77332V80.5732C42.7903 81.0066 42.6496 81.4283 42.3894 81.7748C42.1292 82.1213 41.7634 82.3739 41.3472 82.4946C40.931 82.6153 40.4868 82.5975 40.0815 82.444C39.6763 82.2904 39.332 82.0095 39.1002 81.6433L2.92017 24.4633C2.71748 24.1432 2.60986 23.7722 2.60986 23.3933C2.60986 23.0145 2.71748 22.6433 2.92017 22.3232L14.7002 3.70325C14.8806 3.41831 15.1302 3.18372 15.4257 3.02112C15.7211 2.85852 16.0529 2.77327 16.3901 2.77332H40.7902C41.3206 2.77332 41.8293 2.98406 42.2043 3.35913C42.5794 3.7342 42.7902 4.24288 42.7902 4.77332Z" stroke="#17384B" stroke-width="3" stroke-miterlimit="10"/>
<path d="M41.6801 83.6233L23.9902 25.7433C23.8503 25.2626 23.8893 24.7475 24.1002 24.2933L34.1002 3.41333" stroke="#17384B" stroke-width="3" stroke-miterlimit="10"/>
<path d="M2.23975 23.3933H42.7897" stroke="#17384B" stroke-width="3" stroke-miterlimit="10"/>
</g>
<defs>
<clipPath id="clip0_1_3441">
<rect width="84.35" height="83.8" fill="white" transform="translate(0.609863 0.773315)"/>
</clipPath>
</defs>
</svg>
