<svg width="19" height="18" viewBox="0 0 19 18" fill="none" xmlns="http://www.w3.org/2000/svg">
<path fill-rule="evenodd" clip-rule="evenodd" d="M5.88267 0H13.9493C15.2663 0.000882984 16.5291 0.524439 17.4603 1.45568C18.3916 2.38692 18.9151 3.6497 18.916 4.96667V13.0333C18.9142 14.35 18.3904 15.6123 17.4594 16.5433C16.5283 17.4744 15.266 17.9982 13.9493 18H5.88267C4.56597 17.9982 3.30371 17.4744 2.37266 16.5433C1.44161 15.6123 0.917779 14.35 0.916016 13.0333V4.96667C0.917779 3.64997 1.44161 2.3877 2.37266 1.45665C3.30371 0.525604 4.56597 0.00176383 5.88267 0ZM16.3313 15.4153C16.9631 14.7835 17.3184 13.9268 17.3193 13.0333V4.96667C17.3193 4.07289 16.9643 3.21571 16.3323 2.58372C15.7003 1.95172 14.8431 1.59667 13.9493 1.59667H5.88267C4.98916 1.59755 4.13252 1.95288 3.50071 2.58469C2.86891 3.2165 2.51356 4.07316 2.51267 4.96667V13.0333C2.51444 13.9266 2.87005 14.7827 3.50167 15.4143C4.13328 16.046 4.98943 16.4016 5.88267 16.4033H13.9493C14.8428 16.4024 15.6995 16.0471 16.3313 15.4153ZM14.7494 3.00667C14.4394 3.00755 14.1423 3.1311 13.9231 3.35033C13.7038 3.56956 13.5803 3.86664 13.5794 4.17667C13.5798 4.36883 13.6274 4.55795 13.7182 4.72732C13.809 4.89669 13.9401 5.04109 14.0999 5.14777C14.2597 5.25445 14.4434 5.32012 14.6346 5.33898C14.8258 5.35783 15.0188 5.3293 15.1963 5.2559C15.3739 5.1825 15.5307 5.06648 15.6528 4.91811C15.7749 4.76973 15.8586 4.59357 15.8965 4.40518C15.9343 4.21678 15.9252 4.02197 15.8699 3.83793C15.8146 3.6539 15.7149 3.48632 15.5794 3.35001C15.359 3.13031 15.0606 3.00686 14.7494 3.00667ZM9.91604 4.36003C8.99834 4.36003 8.10125 4.63216 7.3382 5.142C6.57516 5.65185 5.98043 6.37652 5.62924 7.22437C5.27805 8.07222 5.18617 9.00517 5.3652 9.90524C5.54424 10.8053 5.98614 11.6321 6.63506 12.281C7.28397 12.9299 8.11076 13.3718 9.01083 13.5509C9.9109 13.7299 10.8438 13.638 11.6917 13.2868C12.5395 12.9356 13.2642 12.3409 13.7741 11.5779C14.2839 10.8148 14.556 9.91773 14.556 9.00002C14.5552 7.76969 14.066 6.59 13.196 5.72003C12.3261 4.85005 11.1464 4.36091 9.91604 4.36003ZM9.91604 12.0267C9.31399 12.0267 8.72545 11.8481 8.2249 11.5136C7.72436 11.179 7.3343 10.7035 7.10405 10.1472C6.87381 9.59093 6.81373 8.97885 6.93142 8.38841C7.04912 7.79797 7.33931 7.2557 7.76526 6.83022C8.19122 6.40473 8.7338 6.11515 9.32437 5.9981C9.91494 5.88105 10.527 5.94179 11.083 6.17264C11.639 6.4035 12.1141 6.79409 12.4481 7.295C12.7821 7.79591 12.96 8.38463 12.9594 8.98669C12.9607 9.38719 12.8829 9.78401 12.7306 10.1544C12.5782 10.5248 12.3543 10.8615 12.0715 11.1451C11.7888 11.4288 11.4529 11.6538 11.083 11.8074C10.7131 11.961 10.3165 12.04 9.91604 12.04V12.0267Z" fill="white"/>
</svg>
