<svg width="99" height="40" viewBox="0 0 99 40" fill="none" xmlns="http://www.w3.org/2000/svg">
<g clip-path="url(#clip0_1_9254)">
<path d="M54.4229 9.95482H54.1244L50.4656 18.2993H47.5216L43.7999 9.95482H43.5014V18.2993H39.8892V4.46666H44.9309L48.806 13.1918H49.1648L53.0591 4.46666H58.0379V18.2993H54.4229V9.95482Z" fill="white"/>
<path d="M60.7217 12.9782C60.7217 9.57414 63.2138 7.40244 66.596 7.40244C69.9781 7.40244 72.4703 9.57414 72.4703 12.9782C72.4703 16.3823 69.9809 18.554 66.596 18.554C63.2111 18.554 60.7217 16.3823 60.7217 12.9782ZM64.3394 12.9782C64.3394 14.3612 65.2349 15.191 66.596 15.191C67.9571 15.191 68.8526 14.3694 68.8526 12.9782C68.8526 11.587 67.9571 10.7654 66.596 10.7654C65.2349 10.7654 64.3394 11.5952 64.3394 12.9782Z" fill="white"/>
<path d="M73.7683 8.33904V7.65713H77.4709L79.6618 13.8491H79.8754L82.2169 7.65713H85.6648V8.33904L81.6199 18.2993H77.5777L73.7683 8.33904Z" fill="white"/>
<path d="M98.6238 14.2982V14.9774C97.9638 17.0012 95.7292 18.554 92.8345 18.554C89.4523 18.554 86.9629 16.3823 86.9629 12.9782C86.9629 9.57414 89.4523 7.40244 92.8345 7.40244C96.0277 7.40244 98.3116 9.31946 98.6238 12.1265V13.452H90.5997C90.7723 14.6214 91.6213 15.3252 92.8345 15.3252C93.7081 15.3252 94.4776 15.0048 94.8774 14.3037L98.6238 14.2982ZM90.8134 11.5596H94.8583C94.4968 10.8147 93.8368 10.3902 92.8345 10.3902C92.421 10.3651 92.0092 10.4617 91.65 10.6681C91.2908 10.8745 90.9999 11.1815 90.8134 11.5514V11.5596Z" fill="white"/>
<path d="M39.8892 25.5621V24.9541H42.7784L44.5913 31.6911H44.783L46.8479 24.9541H49.9234L51.9883 31.6911H52.1773L53.9902 24.9541H56.7973V25.5758L53.8204 35.8592H50.5067L48.4391 29.4263H48.1871L46.1879 35.8592H42.9454L39.8892 25.5621Z" fill="white"/>
<path d="M59.9302 23.7135C60.2981 23.7297 60.6457 23.8872 60.9003 24.1532C61.155 24.4193 61.2972 24.7734 61.2972 25.1417C61.2972 25.51 61.155 25.8641 60.9003 26.1302C60.6457 26.3963 60.2981 26.5538 59.9302 26.5699C59.0566 26.5699 58.4842 26.0222 58.4842 25.1431C58.4719 24.9508 58.501 24.758 58.5695 24.5779C58.6381 24.3978 58.7445 24.2344 58.8816 24.0989C59.0186 23.9634 59.1831 23.8589 59.364 23.7924C59.5449 23.726 59.738 23.699 59.9302 23.7135ZM58.5198 27.4599H61.3405V35.8592H58.5198V27.4599Z" fill="white"/>
<path d="M71.7389 30.5847H68.8168C68.7155 30.0972 68.0774 29.6289 67.3708 29.6289C66.6643 29.6289 66.2124 29.8288 66.2124 30.267C66.2124 31.5761 71.8402 30.2506 71.8402 33.3918C71.8402 34.9363 70.2272 36.0619 67.6063 36.0619C65.473 36.0619 63.5423 35.0212 62.9863 33.3069V32.7865H65.9112C66.0946 33.3918 66.8176 33.7943 67.5242 33.7943C68.3458 33.7943 68.8004 33.4903 68.8004 33.1398C68.8004 32.1128 63.2383 33.222 63.2383 30.0315C63.2383 28.5198 64.9198 27.26 67.3462 27.26C69.6986 27.26 71.2432 28.4842 71.7471 30.0644L71.7389 30.5847Z" fill="white"/>
<path d="M82.3236 32.7016V33.2494C81.8033 34.846 80.0396 36.0728 77.7529 36.0728C75.0828 36.0728 73.1165 34.3585 73.1165 31.6719C73.1165 28.9853 75.0828 27.271 77.7529 27.271C80.2752 27.271 82.0881 28.7827 82.3236 30.9982V32.0416H76.0029C76.0493 32.4681 76.2588 32.86 76.5874 33.1356C76.9161 33.4113 77.3386 33.5491 77.7666 33.5205C78.4567 33.5205 79.062 33.2685 79.3796 32.7126L82.3236 32.7016ZM76.159 30.5354H79.3495C79.2085 30.2375 78.9803 29.9895 78.6952 29.8242C78.4101 29.6589 78.0815 29.5841 77.7529 29.6097C77.4257 29.5907 77.1002 29.6683 76.8168 29.8329C76.5334 29.9975 76.3046 30.2418 76.159 30.5354Z" fill="white"/>
<path d="M34.7132 24.757V22.3963L21.2941 15.4485C21.3105 13.8272 21.3105 12.5455 21.3105 11.8527C21.3105 8.21307 20.1575 5.2636 18.7307 5.2636C17.3039 5.2636 16.151 8.21307 16.151 11.8527C16.151 12.5428 16.151 13.819 16.1975 15.4348L2.7373 22.3963V24.757L16.4303 22.0184C16.5755 24.9788 16.7945 28.0433 17.1177 30.508L12.3498 32.8961V34.9281L17.6627 33.6245C17.9584 34.7474 18.3062 35.4211 18.7198 35.4211C19.1908 35.4211 19.5742 34.7556 19.8892 33.6519L25.0925 34.9281V32.8961L20.478 30.5874C20.8093 28.1227 21.0065 25.0418 21.1243 22.0594L34.7132 24.757Z" fill="white"/>
<path d="M1.38149 26.8383C1.35216 25.5291 1.44384 24.2199 1.65535 22.9276C1.68523 22.6501 1.77397 22.3823 1.91565 22.1419C2.05733 21.9015 2.24869 21.6941 2.47693 21.5336C3 21.1803 3.57237 20.8928 4.12009 20.5806L11.2596 16.5138C11.7716 16.2562 12.2553 15.946 12.7029 15.5881C13.1079 15.209 13.3869 14.7148 13.5025 14.1723C13.7764 13.0357 14.0174 11.8828 14.3049 10.7435C14.599 9.67239 14.8357 8.58638 15.0142 7.49007C15.1484 6.53156 15.1649 5.57305 15.4469 4.63644C15.7243 3.71536 16.2423 2.88492 16.9475 2.23072C17.6528 1.57651 18.5197 1.12223 19.459 0.914686C20.4723 0.698337 21.5157 0.958505 22.1127 1.84855C22.6604 2.65096 22.811 3.65329 22.9124 4.58715C23.2006 7.0358 23.6452 9.4635 24.2433 11.8554C24.3912 12.4652 24.5427 13.0759 24.6979 13.6875C24.7801 14.0107 24.8732 14.3338 24.9444 14.6625C25.0047 14.9363 24.928 15.191 25.0019 15.4539C25.1553 15.9879 25.7386 16.2372 26.1768 16.4918C26.6862 16.7858 27.1891 17.0907 27.6857 17.4065C29.6802 18.671 31.5614 20.1059 33.3081 21.6952C34.1644 22.4748 34.9859 23.2891 35.7728 24.138C36.1727 24.568 36.5725 25.0034 36.9477 25.4553C37.1613 25.7127 37.2216 25.8852 37.0709 26.1947C36.9203 26.5042 36.7396 26.7561 36.5752 27.0355L35.5483 28.758L36.1097 28.6129C32.3441 26.5425 28.1184 25.6004 23.9065 24.9295C22.7042 24.7405 21.4992 24.5762 20.2943 24.4119C20.0505 24.379 19.7465 24.5105 19.7739 24.8062C19.8528 25.9886 20.0454 27.1607 20.349 28.3062C20.5075 28.9011 20.6976 29.487 20.9187 30.0616C21.1021 30.5463 21.2829 31.0612 21.7731 31.3104C22.2633 31.5596 22.8685 31.6089 23.3861 31.7212C23.9941 31.8527 24.6003 31.9868 25.2046 32.1238C26.3 32.373 27.3955 32.5921 28.458 32.9454C29.4467 33.2685 30.4326 33.7669 30.9967 34.6707V34.2544C30.5599 35.1944 30.0698 36.1088 29.5288 36.993C29.3864 37.2258 29.2385 37.4586 29.0879 37.6886C28.9729 37.8639 28.9099 38.0693 28.6908 38.0364C28.4367 37.9673 28.1892 37.8756 27.9514 37.7626L27.1901 37.4887L20.9652 35.1938C20.9042 35.1774 20.8402 35.1753 20.7782 35.1876C20.7161 35.1998 20.6578 35.2262 20.6075 35.2645C20.5573 35.3029 20.5165 35.3522 20.4883 35.4088C20.4601 35.4654 20.4453 35.5276 20.4449 35.5908C20.3095 36.9204 19.9925 38.2252 19.5028 39.4687L20.1053 39.225L18.2595 38.0994L17.3366 37.5298C17.1668 37.4202 16.9997 37.3353 17.0463 37.119C17.1202 36.7712 17.4516 36.4727 17.6186 36.166C17.7294 35.9951 17.7932 35.7981 17.8038 35.5948C17.8144 35.3915 17.7713 35.1889 17.6789 35.0075C17.6232 34.9182 17.5358 34.8533 17.4341 34.8258C17.3325 34.7984 17.2243 34.8105 17.1312 34.8596C14.2659 36.5612 11.1758 37.8518 7.95139 38.6937L8.45529 39.1976C8.76477 38.017 9.17524 36.8653 9.68218 35.7552C9.8701 35.2643 10.2237 34.8545 10.6818 34.5967C11.2225 34.3613 11.78 34.1663 12.3496 34.0134C12.9493 33.8162 13.5518 33.6245 14.1516 33.4246C14.6108 33.2898 15.0507 33.0965 15.4606 32.8495C15.8701 32.5943 16.1913 32.2196 16.3808 31.776C16.5553 31.2501 16.6477 30.7005 16.6547 30.1465C16.7751 28.929 16.819 27.7052 16.7861 26.4823C16.7606 25.8917 16.6966 25.3035 16.5944 24.7213C16.5177 24.2914 16.4712 23.5766 16.0741 23.3027C15.6277 22.9933 14.9129 23.374 14.4583 23.5109L12.6262 24.0586L8.96194 25.154L0.587291 27.6599C0.0806499 27.8105 0.297 28.6047 0.80638 28.4513L14.8088 24.2613L15.2662 24.1243C15.3374 24.1024 15.5976 24.0696 15.6386 24.012C15.6797 23.9545 15.6058 23.9354 15.5839 23.9737C15.562 24.012 15.6195 24.1052 15.6249 24.1271C15.6633 24.2722 15.6989 24.4174 15.729 24.5625C15.8486 25.131 15.9246 25.7078 15.9563 26.2878C16.0033 27.4461 15.9722 28.6063 15.8632 29.7604C15.8577 30.2923 15.7897 30.8217 15.6606 31.3378C15.5793 31.5548 15.4549 31.7531 15.2948 31.9206C15.1348 32.0882 14.9425 32.2216 14.7294 32.3127C14.273 32.519 13.8015 32.6902 13.319 32.8249L11.6156 33.3726C11.0333 33.5173 10.4751 33.7461 9.95878 34.0518C9.51958 34.3816 9.17563 34.8219 8.96194 35.3279C8.42247 36.5006 7.98452 37.7173 7.65289 38.9648C7.63492 39.0348 7.6355 39.1084 7.65459 39.1781C7.67368 39.2479 7.71062 39.3114 7.76175 39.3626C7.81289 39.4137 7.87646 39.4506 7.94621 39.4697C8.01596 39.4888 8.08947 39.4894 8.15952 39.4714C11.4513 38.6151 14.6067 37.3014 17.5338 35.5689L16.9723 35.4238C17.1038 35.6648 16.6985 36.0865 16.5698 36.2755C16.3342 36.6315 16.1261 37.0505 16.2493 37.486C16.4246 38.0939 17.1859 38.3979 17.6762 38.7019L19.6945 39.948C19.7491 39.9785 19.8099 39.9963 19.8723 40C19.9347 40.0038 19.9972 39.9935 20.0551 39.9698C20.113 39.9461 20.1648 39.9097 20.2067 39.8633C20.2486 39.8168 20.2794 39.7615 20.297 39.7015C20.8104 38.379 21.1394 36.9921 21.2747 35.5799L20.7544 35.9742L27.1079 38.3158C27.5877 38.532 28.0818 38.715 28.5867 38.8635C28.7873 38.8998 28.9943 38.872 29.1781 38.784C29.362 38.696 29.5135 38.5523 29.611 38.3733C30.2084 37.5167 30.7429 36.6179 31.2103 35.684C31.3253 35.4594 31.4376 35.2321 31.5499 35.0048C31.6622 34.7775 31.8101 34.5748 31.7526 34.3448C31.6622 33.9806 31.235 33.5862 30.9611 33.3479C30.3453 32.8381 29.6367 32.4522 28.8743 32.2114C27.9751 31.9236 27.0609 31.6849 26.1357 31.4966C25.0969 31.2556 24.0562 31.0247 23.0137 30.8038C22.7467 30.7651 22.4837 30.7028 22.2277 30.6175C21.9539 30.508 21.8772 30.2725 21.7758 30.0233C21.1135 28.3561 20.7144 26.5961 20.5928 24.8062L20.0724 25.2033C24.2488 25.773 28.4799 26.3563 32.4482 27.8379C33.5679 28.2569 34.6553 28.7576 35.7016 29.3359C35.7962 29.3885 35.9075 29.4025 36.0121 29.3749C36.1168 29.3474 36.2067 29.2804 36.2631 29.188L37.3585 27.3504C37.6543 26.852 38.1198 26.2796 37.9829 25.6607C37.8624 25.113 37.3503 24.6666 36.9915 24.2667C36.588 23.8121 36.1745 23.3666 35.7509 22.9303C34.0434 21.1653 32.1861 19.5517 30.1998 18.1076C29.2011 17.3773 28.1696 16.6972 27.1052 16.0674C26.8532 15.9176 26.5985 15.7698 26.3411 15.6237C26.1111 15.4923 25.7934 15.38 25.7934 15.076C25.7944 14.7901 25.7613 14.5051 25.6948 14.227L25.4209 13.1316C24.7553 10.6354 24.2359 8.10241 23.8654 5.54566C23.6107 3.56839 23.4984 0.947547 21.2583 0.167045C19.2344 -0.534036 16.8162 0.876347 15.6249 2.46474C15.073 3.23158 14.6937 4.10887 14.5131 5.03628C14.2995 6.0523 14.294 7.09571 14.0941 8.11447C13.8613 9.29207 13.5463 10.4505 13.2533 11.6144C13.1027 12.2224 12.9603 12.8303 12.8343 13.4438C12.7083 14.0572 12.6015 14.5858 12.1414 14.9911C11.6287 15.3795 11.0783 15.7153 10.4983 15.9934L8.65247 17.0423L4.90607 19.2031L3.06299 20.2519C2.52414 20.5084 2.0229 20.8373 1.57319 21.2296C1.17356 21.676 0.923622 22.2362 0.858414 22.8317C0.74887 23.4835 0.680405 24.1462 0.63111 24.8035C0.581815 25.4608 0.557169 26.1728 0.559908 26.8465C0.559908 26.9554 0.603185 27.0599 0.680223 27.137C0.757261 27.214 0.861749 27.2573 0.970698 27.2573C1.07965 27.2573 1.18413 27.214 1.26117 27.137C1.33821 27.0599 1.38149 26.9554 1.38149 26.8465V26.8383Z" fill="#00B6B7"/>
</g>
<defs>
<clipPath id="clip0_1_9254">
<rect width="98.3267" height="40" fill="white" transform="translate(0.297119)"/>
</clipPath>
</defs>
</svg>
