<svg width="94" height="111" viewBox="0 0 94 111" fill="none" xmlns="http://www.w3.org/2000/svg">
<g clip-path="url(#clip0_172_1067)">
<path d="M41.9719 1.12857C41.9663 2.71401 42.0811 4.29758 42.3153 5.86563C42.3848 6.11629 42.549 6.33015 42.7731 6.46216C43.0061 6.59522 43.2822 6.63082 43.5414 6.5612C43.7922 6.49207 44.0063 6.32779 44.1379 6.10333C44.258 5.86621 44.2937 5.59524 44.2392 5.3351C44.2392 5.28667 44.1797 4.9323 44.2171 5.19645C44.2061 5.115 44.1973 5.03353 44.1863 4.95429C44.1621 4.76498 44.1423 4.57566 44.1225 4.38636C44.0851 4.03416 44.0543 3.682 44.0323 3.32981C43.9816 2.5968 43.9618 1.86379 43.9662 1.12857C43.9662 0.864111 43.8612 0.610441 43.6741 0.423437C43.4871 0.236434 43.2335 0.131409 42.969 0.131409C42.7046 0.131409 42.451 0.236434 42.264 0.423437C42.077 0.610441 41.9719 0.864111 41.9719 1.12857Z" fill="#00B6B7"/>
<path d="M67.7241 78.7961H30.0191C29.7547 78.7961 29.501 78.9012 29.314 79.0882C29.127 79.2752 29.022 79.5288 29.022 79.7933C29.022 80.0577 29.127 80.3114 29.314 80.4984C29.501 80.6854 29.7547 80.7904 30.0191 80.7904H67.7241C67.9885 80.7904 68.2421 80.6854 68.4291 80.4984C68.6161 80.3114 68.7212 80.0577 68.7212 79.7933C68.7212 79.5288 68.6161 79.2752 68.4291 79.0882C68.2421 78.9012 67.9885 78.7961 67.7241 78.7961Z" fill="#00B6B7"/>
<path d="M50.1318 79.4212C50.0077 79.1084 49.9019 78.7887 49.8148 78.4636C49.773 78.3007 49.7356 78.1379 49.7026 77.9728C49.6872 77.9023 49.674 77.8297 49.6629 77.7526C49.6629 77.724 49.6101 77.4335 49.6365 77.6008C49.6629 77.7681 49.6233 77.4775 49.6211 77.4467C49.6211 77.3763 49.6057 77.3036 49.6013 77.2266C49.5881 77.0571 49.5815 76.8898 49.5793 76.7225C49.5756 76.3858 49.5918 76.0491 49.6277 75.7143C49.6827 75.1948 49.128 74.6951 48.6306 74.7171C48.3682 74.7238 48.1184 74.8311 47.9329 75.0166C47.7473 75.2022 47.6401 75.4519 47.6334 75.7143C47.4841 77.1473 47.6811 78.5953 48.2079 79.9363C48.2848 80.1833 48.4471 80.3948 48.6658 80.5328C48.8985 80.6664 49.1746 80.7028 49.434 80.6341C49.9029 80.4822 50.3365 79.9253 50.1318 79.408V79.4212Z" fill="#00B6B7"/>
<path d="M43.2038 4.45255C35.0395 5.24719 27.7071 9.51538 22.072 15.3486C19.2978 18.2121 17.0418 21.5354 15.4045 25.1706C13.923 28.4724 12.7982 31.9437 12.3227 35.5383C12.157 36.6919 12.0702 37.8554 12.063 39.0207C12.0932 40.4009 12.2153 41.7775 12.4284 43.1414C12.8994 46.7792 13.8337 50.3418 15.2085 53.7426C17.4406 59.1642 20.8767 64.0443 25.3914 67.8018C27.87 69.8788 30.6326 71.5911 33.5954 72.8867C37.3882 74.531 41.3944 75.559 45.4623 76.248C46.4308 76.4131 47.4016 76.5562 48.3723 76.6882C48.905 76.7609 49.4443 76.5605 49.6006 75.9926C49.7283 75.5281 49.4399 74.8391 48.9028 74.7665C44.9406 74.2272 40.9784 73.4634 37.1989 72.1603C33.912 71.0478 30.8188 69.4295 28.0307 67.3638L27.6851 67.1018C27.4848 66.9522 27.8524 67.2339 27.6565 67.0798L27.4826 66.9456C27.2317 66.7445 26.9829 66.542 26.7364 66.338C26.2697 65.9462 25.8119 65.5434 25.3672 65.1296C24.4083 64.2396 23.5013 63.2952 22.6509 62.3009C22.4506 62.0676 22.2547 61.8321 22.0632 61.5922C21.9553 61.4623 21.8431 61.328 21.7462 61.1959L21.6934 61.1277C21.6229 61.0374 21.5547 60.9472 21.4865 60.8547C21.0668 60.2956 20.6632 59.724 20.2758 59.14C19.4447 57.8792 18.6947 56.5669 18.0305 55.2108C17.8588 54.863 17.6937 54.5108 17.533 54.1586C17.4648 54.0089 17.3988 53.8592 17.3327 53.7183C17.2931 53.6281 17.2557 53.5356 17.2161 53.4454C17.1764 53.3551 17.1632 53.3243 17.2007 53.408L17.1236 53.2231C16.8008 52.435 16.5029 51.6367 16.2299 50.8281C15.6735 49.17 15.2199 47.4792 14.8718 45.7653C14.3281 43.0996 13.9208 40.4097 14.0925 37.6538C14.1277 37.066 14.1894 36.4827 14.262 35.8928C14.229 36.1547 14.262 35.8796 14.262 35.8377C14.262 35.7541 14.284 35.6726 14.2972 35.5912C14.3236 35.4217 14.3501 35.2522 14.3787 35.0849C14.4381 34.7283 14.5041 34.3739 14.5746 34.0217C14.9253 32.3179 15.3976 30.6414 15.9878 29.0051C17.2865 25.3797 19.1312 21.8907 21.5327 18.9587C26.3754 13.0638 32.9791 8.43017 40.4963 6.8717C41.3876 6.68421 42.2885 6.54609 43.195 6.45789C43.7321 6.40506 44.1922 6.03745 44.1922 5.46073C44.1922 4.96105 43.7343 4.41073 43.195 4.46356L43.2038 4.45255Z" fill="#00B6B7"/>
<path d="M48.5508 73.109C66.5834 73.109 81.2017 58.4907 81.2017 40.4581C81.2017 22.4256 66.5834 7.80725 48.5508 7.80725C30.5182 7.80725 15.8999 22.4256 15.8999 40.4581C15.8999 58.4907 30.5182 73.109 48.5508 73.109Z" fill="#00B6B7"/>
<path d="M64.5518 41.8297V41.0593C64.5521 41.0098 64.5418 40.9609 64.5217 40.9157C64.5016 40.8706 64.4721 40.8302 64.4351 40.7973L60.9132 37.6231C60.8762 37.5903 60.8467 37.5499 60.8266 37.5047C60.8065 37.4596 60.7962 37.4106 60.7965 37.3612V35.0433C60.7997 34.8568 60.7342 34.6756 60.6124 34.5344C60.4906 34.3931 60.3211 34.3016 60.1361 34.2773C60.0338 34.2668 59.9303 34.2779 59.8325 34.3099C59.7347 34.3418 59.6446 34.3938 59.5681 34.4627C59.4916 34.5315 59.4303 34.6156 59.3883 34.7095C59.3462 34.8035 59.3243 34.9052 59.3239 35.0081V35.4021C59.3245 35.4702 59.3052 35.5369 59.2684 35.5942C59.2317 35.6515 59.179 35.6969 59.1168 35.7247C59.0547 35.7525 58.9858 35.7615 58.9186 35.7508C58.8513 35.74 58.7887 35.7099 58.7384 35.664L55.7073 32.9367C55.6706 32.9036 55.6413 32.8632 55.6212 32.8181C55.6012 32.773 55.5907 32.7241 55.5906 32.6747V30.7509C55.5943 30.5642 55.5289 30.3828 55.4071 30.2415C55.2852 30.1001 55.1154 30.0087 54.9302 29.9848C54.8279 29.9744 54.7244 29.9855 54.6266 30.0175C54.5287 30.0494 54.4387 30.1014 54.3622 30.1703C54.2857 30.2391 54.2244 30.3232 54.1824 30.4171C54.1403 30.5111 54.1184 30.6128 54.118 30.7157C54.118 30.7838 54.0983 30.8504 54.0612 30.9075C54.0242 30.9646 53.9713 31.0098 53.9092 31.0375C53.847 31.0652 53.7781 31.0743 53.7108 31.0636C53.6436 31.053 53.5809 31.0231 53.5302 30.9776L51.1595 28.8446C51.1245 28.8127 51.0964 28.7739 51.0767 28.7308C51.057 28.6877 51.0463 28.6411 51.0451 28.5937C50.88 22.8199 50.0039 17.6205 48.5555 17.6205C47.107 17.6205 46.2332 22.8199 46.0681 28.5937C46.067 28.6413 46.056 28.6882 46.0359 28.7313C46.0159 28.7745 45.9871 28.8131 45.9514 28.8446L43.5543 31.0018C43.5058 31.0452 43.4458 31.0736 43.3816 31.0836C43.3174 31.0936 43.2516 31.0848 43.1923 31.0583C43.1329 31.0317 43.0825 30.9886 43.0472 30.9341C43.0118 30.8795 42.993 30.8159 42.9929 30.7509C42.9966 30.5642 42.9313 30.3828 42.8094 30.2415C42.6875 30.1001 42.5177 30.0087 42.3326 29.9848C42.2302 29.9744 42.1268 29.9855 42.0289 30.0175C41.9311 30.0494 41.841 30.1014 41.7645 30.1703C41.688 30.2391 41.6268 30.3232 41.5847 30.4171C41.5426 30.5111 41.5207 30.6128 41.5203 30.7157V32.6747C41.5206 32.7242 41.5103 32.7732 41.4902 32.8183C41.4701 32.8635 41.4406 32.9039 41.4037 32.9367L38.3703 35.6662C38.3197 35.7118 38.257 35.7417 38.1898 35.7523C38.1225 35.7629 38.0536 35.7538 37.9914 35.7261C37.9293 35.6983 37.8764 35.6532 37.8394 35.5961C37.8023 35.539 37.7826 35.4724 37.7826 35.4043V35.0455C37.7858 34.859 37.7203 34.6778 37.5985 34.5366C37.4767 34.3953 37.3072 34.3038 37.1223 34.2795C37.0198 34.2687 36.9162 34.2795 36.8183 34.3113C36.7203 34.3431 36.6301 34.3952 36.5535 34.4641C36.4769 34.533 36.4156 34.6172 36.3737 34.7113C36.3318 34.8054 36.31 34.9073 36.31 35.0103V37.3634C36.3099 37.4128 36.2994 37.4616 36.2793 37.5067C36.2592 37.5518 36.2299 37.5922 36.1933 37.6253L32.6714 40.7995C32.6344 40.8324 32.6049 40.8728 32.5848 40.9179C32.5647 40.9631 32.5544 41.012 32.5547 41.0615V41.8319C32.5548 41.8905 32.5695 41.9482 32.5975 41.9997C32.6255 42.0512 32.666 42.095 32.7152 42.1269C32.7644 42.1588 32.8208 42.178 32.8792 42.1826C32.9377 42.1872 32.9964 42.1771 33.05 42.1533L45.8589 36.3905C45.8999 36.3718 45.9448 36.3634 45.9897 36.366C46.0346 36.3685 46.0783 36.3819 46.1168 36.4051C46.1554 36.4283 46.1877 36.4605 46.2111 36.499C46.2344 36.5375 46.248 36.5811 46.2508 36.626C46.5721 42.1049 47.1533 47.5551 47.2655 48.5985C47.2717 48.6539 47.2645 48.7099 47.2446 48.762C47.2247 48.8141 47.1926 48.8607 47.1511 48.8979L42.7486 52.8204C42.7058 52.8582 42.6729 52.9057 42.6526 52.959C42.6322 53.0123 42.6251 53.0698 42.6319 53.1264L42.6914 53.6063C42.6971 53.6544 42.7127 53.7009 42.7373 53.7426C42.7619 53.7844 42.7949 53.8206 42.8342 53.849C42.8736 53.8773 42.9183 53.8972 42.9657 53.9073C43.0131 53.9175 43.0621 53.9177 43.1096 53.9079L47.8423 52.9437L48.2473 53.6569C48.2781 53.7109 48.3226 53.7558 48.3763 53.787C48.4301 53.8182 48.4911 53.8347 48.5533 53.8347C48.6154 53.8347 48.6765 53.8182 48.7302 53.787C48.7839 53.7558 48.8284 53.7109 48.8592 53.6569L49.1388 53.1638C49.1755 53.0993 49.2317 53.0482 49.2993 53.0177C49.367 52.9873 49.4426 52.979 49.5152 52.9943L53.9969 53.9079C54.0444 53.9177 54.0934 53.9175 54.1408 53.9073C54.1882 53.8972 54.233 53.8773 54.2723 53.849C54.3116 53.8206 54.3446 53.7844 54.3692 53.7426C54.3938 53.7009 54.4094 53.6544 54.4151 53.6063L54.4746 53.1264C54.4813 53.07 54.4744 53.0128 54.4544 52.9596C54.4345 52.9063 54.4022 52.8586 54.3601 52.8204L49.9576 48.8979C49.9154 48.8612 49.8827 48.8147 49.8624 48.7626C49.8421 48.7104 49.8347 48.6541 49.841 48.5985C49.9554 47.5551 50.5344 42.1049 50.858 36.626C50.8603 36.5812 50.8736 36.5376 50.8967 36.4991C50.9198 36.4606 50.952 36.4283 50.9904 36.405C51.0288 36.3818 51.0723 36.3683 51.1172 36.3658C51.162 36.3633 51.2068 36.3717 51.2476 36.3905L64.0521 42.1599C64.1065 42.1857 64.1667 42.197 64.2268 42.1928C64.2868 42.1885 64.3448 42.1688 64.3951 42.1356C64.4453 42.1024 64.4861 42.0568 64.5136 42.0032C64.541 41.9496 64.5542 41.8899 64.5518 41.8297Z" fill="white"/>
<path d="M64.2241 65.5728C56.7751 65.5728 50.5214 61.2166 48.7648 55.3261C48.7499 55.2794 48.7205 55.2387 48.6809 55.2098C48.6414 55.181 48.5937 55.1654 48.5447 55.1654C48.4957 55.1654 48.448 55.181 48.4084 55.2098C48.3689 55.2387 48.3395 55.2794 48.3246 55.3261C46.5636 61.2166 40.3121 65.5728 32.8631 65.5728C30.6298 65.5782 28.4145 65.173 26.3276 64.3775C32.3537 69.9934 40.2854 73.1149 48.5227 73.1121C48.7626 73.1121 49.0025 73.1121 49.2425 73.1121C57.2534 72.9541 64.9241 69.8446 70.7837 64.3797C68.6891 65.1774 66.4654 65.5819 64.2241 65.5728Z" fill="white"/>
<path d="M11.2664 108.432C10.0357 109.56 8.41667 110.17 6.74726 110.133C2.85548 110.133 0.000488281 107.531 0.000488281 103.463C0.000488281 99.3956 3.08221 96.8136 7.23594 96.8136C10.4629 96.8334 13.1793 98.4755 14.0598 101.234V102.055H10.6192C10.1306 100.686 8.89786 99.9041 7.21612 99.9041C4.90923 99.9239 3.38378 101.253 3.38378 103.463C3.38378 105.713 4.88942 107.043 7.15889 107.043C8.44881 107.043 9.5054 106.602 10.1702 105.81H8.11643V103.091H14.3943V109.898H11.2664V108.432Z" fill="white"/>
<path d="M16.5669 105.007C16.5669 101.876 18.854 99.8821 21.9643 99.8821C25.0746 99.8821 27.3617 101.876 27.3617 105.007C27.3617 108.137 25.0746 110.131 21.9643 110.131C18.854 110.131 16.5669 108.137 16.5669 105.007ZM19.8908 105.007C19.8908 106.277 20.7118 107.041 21.9643 107.041C23.2168 107.041 24.0379 106.277 24.0379 105.007C24.0379 103.736 23.2168 102.973 21.9643 102.973C20.7118 102.973 19.8908 103.736 19.8908 105.007Z" fill="white"/>
<path d="M40.3099 108.432C39.0801 109.56 37.4617 110.17 35.7929 110.133C31.9011 110.133 29.0439 107.531 29.0439 103.463C29.0439 99.3956 32.1147 96.8136 36.2816 96.8136C39.5086 96.8334 42.2249 98.4755 43.1054 101.234V102.055H39.6627C39.174 100.686 37.9413 99.9041 36.2596 99.9041C33.9527 99.9239 32.4272 101.253 32.4272 103.463C32.4272 105.713 33.9329 107.043 36.2001 107.043C37.4923 107.043 38.5489 106.602 39.2136 105.81H37.1599V103.091H43.4378V109.898H40.3076L40.3099 108.432Z" fill="white"/>
<path d="M46.1587 96.2016H49.4451V109.891H46.1587V96.2016Z" fill="white"/>
<path d="M51.5957 105.007C51.5957 101.876 53.885 99.8821 56.9931 99.8821C60.1013 99.8821 62.3927 101.876 62.3927 105.007C62.3927 108.137 60.1035 110.131 56.9931 110.131C53.8828 110.131 51.5957 108.137 51.5957 105.007ZM54.9218 105.007C54.9218 106.277 55.7428 107.041 56.9931 107.041C58.2434 107.041 59.0667 106.277 59.0667 105.007C59.0667 103.736 58.2456 102.973 56.9931 102.973C55.7406 102.973 54.9218 103.736 54.9218 105.007Z" fill="white"/>
<path d="M64.5439 96.2016H67.8304V101.044C68.2139 100.665 68.6691 100.366 69.1695 100.164C69.6699 99.9629 70.2054 99.8631 70.7448 99.871C73.2674 99.871 75.1055 101.865 75.1055 104.996C75.1055 108.126 73.2674 110.12 70.7448 110.12C70.2066 110.131 69.6715 110.035 69.171 109.836C68.6706 109.638 68.2148 109.341 67.8304 108.964V109.884H64.5439V96.2016ZM67.7137 105.007C67.7137 106.277 68.515 107.04 69.7477 107.04C70.9804 107.04 71.7816 106.277 71.7816 105.007C71.7816 103.736 70.9782 102.973 69.7477 102.973C68.5172 102.973 67.7137 103.736 67.7137 105.007Z" fill="white"/>
<path d="M87.272 109.898H83.9855V108.969C83.6003 109.345 83.1443 109.64 82.6441 109.839C82.1438 110.037 81.6092 110.134 81.0711 110.124C78.5485 110.124 76.7104 108.128 76.7104 105C76.7104 101.872 78.5485 99.8755 81.0711 99.8755C81.6103 99.8691 82.1454 99.9694 82.6456 100.171C83.1458 100.372 83.6012 100.671 83.9855 101.049V100.109H87.272V109.898ZM84.1022 105.009C84.1022 103.736 83.3009 102.975 82.0682 102.975C80.8356 102.975 80.0343 103.736 80.0343 105.009C80.0343 106.281 80.8378 107.043 82.0682 107.043C83.2987 107.043 84.1022 106.279 84.1022 105.007V105.009Z" fill="white"/>
<path d="M89.9707 96.2016H93.2572V109.891H89.9707V96.2016Z" fill="white"/>
</g>
<defs>
<clipPath id="clip0_172_1067">
<rect width="93.2552" height="110" fill="white" transform="translate(0 0.129211)"/>
</clipPath>
</defs>
</svg>
