<svg width="43" height="50" viewBox="0 0 43 50" fill="none" xmlns="http://www.w3.org/2000/svg">
<g clip-path="url(#clip0_169_1033)">
<path d="M19.3751 0.454249C19.3725 1.1749 19.4247 1.89471 19.5312 2.60746C19.5628 2.72139 19.6374 2.8186 19.7393 2.8786C19.8452 2.93909 19.9707 2.95527 20.0885 2.92362C20.2025 2.8922 20.2998 2.81753 20.3596 2.7155C20.4142 2.60772 20.4305 2.48455 20.4057 2.36631C20.4057 2.34429 20.3787 2.18321 20.3957 2.30328C20.3907 2.26626 20.3867 2.22923 20.3817 2.19321C20.3707 2.10716 20.3616 2.02111 20.3526 1.93506C20.3356 1.77497 20.3216 1.6149 20.3116 1.45481C20.2886 1.12162 20.2796 0.788436 20.2816 0.454249C20.2816 0.334038 20.2339 0.218734 20.1488 0.133732C20.0638 0.0487306 19.9486 0.000991821 19.8283 0.000991821C19.7081 0.000991821 19.5929 0.0487306 19.5079 0.133732C19.4229 0.218734 19.3751 0.334038 19.3751 0.454249Z" fill="#00B6B7"/>
<path d="M31.0806 35.7577H13.942C13.8218 35.7577 13.7065 35.8054 13.6215 35.8904C13.5365 35.9754 13.4888 36.0907 13.4888 36.2109C13.4888 36.3311 13.5365 36.4464 13.6215 36.5314C13.7065 36.6164 13.8218 36.6642 13.942 36.6642H31.0806C31.2008 36.6642 31.3161 36.6164 31.4011 36.5314C31.4861 36.4464 31.5339 36.3311 31.5339 36.2109C31.5339 36.0907 31.4861 35.9754 31.4011 35.8904C31.3161 35.8054 31.2008 35.7577 31.0806 35.7577Z" fill="#00B6B7"/>
<path d="M23.0839 36.0418C23.0275 35.8996 22.9794 35.7543 22.9398 35.6066C22.9208 35.5325 22.9038 35.4585 22.8888 35.3834C22.8818 35.3514 22.8758 35.3184 22.8708 35.2834C22.8708 35.2704 22.8468 35.1383 22.8588 35.2144C22.8708 35.2904 22.8528 35.1583 22.8518 35.1443C22.8518 35.1123 22.8448 35.0793 22.8428 35.0443C22.8368 34.9672 22.8338 34.8912 22.8328 34.8151C22.8311 34.6621 22.8385 34.5091 22.8548 34.3569C22.8798 34.1207 22.6277 33.8936 22.4015 33.9036C22.2823 33.9066 22.1688 33.9554 22.0844 34.0397C22.0001 34.1241 21.9513 34.2376 21.9483 34.3569C21.8804 35.0082 21.97 35.6664 22.2094 36.276C22.2444 36.3882 22.3181 36.4843 22.4176 36.5471C22.5234 36.6078 22.6488 36.6244 22.7667 36.5931C22.9799 36.5241 23.177 36.2709 23.0839 36.0358V36.0418Z" fill="#00B6B7"/>
<path d="M19.9352 1.96515C16.2241 2.32635 12.8913 4.26644 10.3298 6.91792C9.06882 8.21948 8.04337 9.73008 7.29912 11.3824C6.62575 12.8833 6.11446 14.4611 5.89834 16.0951C5.82299 16.6194 5.78354 17.1482 5.78027 17.678C5.79402 18.3053 5.84951 18.931 5.94636 19.551C6.16046 21.2045 6.58514 22.8239 7.21007 24.3697C8.22464 26.8341 9.78652 29.0523 11.8387 30.7603C12.9653 31.7044 14.221 32.4827 15.5678 33.0716C17.2917 33.819 19.1127 34.2863 20.9618 34.5994C21.402 34.6745 21.8433 34.7395 22.2845 34.7995C22.5267 34.8326 22.7718 34.7415 22.8428 34.4834C22.9009 34.2722 22.7698 33.9591 22.5257 33.926C20.7246 33.6809 18.9236 33.3337 17.2057 32.7414C15.7117 32.2357 14.3057 31.5001 13.0383 30.5612L12.8812 30.4421C12.7902 30.3741 12.9573 30.5021 12.8682 30.4321L12.7892 30.3711C12.6751 30.2797 12.5621 30.1876 12.45 30.0949C12.2379 29.9168 12.0298 29.7337 11.8277 29.5456C11.3918 29.1411 10.9795 28.7118 10.593 28.2599C10.5019 28.1538 10.4129 28.0468 10.3258 27.9377C10.2768 27.8787 10.2258 27.8176 10.1817 27.7576L10.1577 27.7266C10.1257 27.6855 10.0947 27.6445 10.0637 27.6025C9.8729 27.3484 9.68946 27.0885 9.51336 26.8231C9.13559 26.25 8.79471 25.6535 8.49279 25.0371C8.41475 24.879 8.3397 24.7189 8.26666 24.5588C8.23565 24.4908 8.20563 24.4227 8.17561 24.3587C8.1576 24.3177 8.14059 24.2756 8.12258 24.2346C8.10457 24.1936 8.09857 24.1796 8.11558 24.2176L8.08056 24.1336C7.93381 23.7754 7.7984 23.4125 7.67433 23.0449C7.4214 22.2913 7.21522 21.5227 7.05699 20.7437C6.80985 19.532 6.62474 18.3093 6.70279 17.0566C6.7188 16.7895 6.74681 16.5243 6.77983 16.2562C6.76482 16.3752 6.77983 16.2502 6.77983 16.2311C6.77983 16.1931 6.78984 16.1561 6.79584 16.1191C6.80785 16.042 6.81986 15.965 6.83286 15.889C6.85988 15.7269 6.88989 15.5658 6.92191 15.4057C7.08132 14.6312 7.29599 13.8692 7.56427 13.1254C8.1546 11.4775 8.99307 9.8916 10.0847 8.55886C12.2859 5.87936 15.2876 3.77316 18.7045 3.06476C19.1096 2.97954 19.5192 2.91676 19.9312 2.87667C20.1753 2.85266 20.3845 2.68556 20.3845 2.42341C20.3845 2.19629 20.1763 1.94614 19.9312 1.97016L19.9352 1.96515Z" fill="#00B6B7"/>
<path d="M22.3652 33.1726C30.5619 33.1726 37.2065 26.5279 37.2065 18.3313C37.2065 10.1347 30.5619 3.49001 22.3652 3.49001C14.1686 3.49001 7.52393 10.1347 7.52393 18.3313C7.52393 26.5279 14.1686 33.1726 22.3652 33.1726Z" fill="#00B6B7"/>
<path d="M29.6389 18.9548V18.6046C29.639 18.5821 29.6343 18.5599 29.6252 18.5393C29.6161 18.5188 29.6026 18.5004 29.5858 18.4855L27.9849 17.0427C27.9682 17.0277 27.9547 17.0094 27.9456 16.9889C27.9365 16.9683 27.9318 16.9461 27.9319 16.9236V15.87C27.9334 15.7853 27.9036 15.7029 27.8482 15.6387C27.7929 15.5745 27.7158 15.5329 27.6317 15.5218C27.5852 15.5171 27.5382 15.5222 27.4937 15.5367C27.4493 15.5512 27.4083 15.5748 27.3735 15.6061C27.3388 15.6374 27.3109 15.6756 27.2918 15.7183C27.2727 15.761 27.2627 15.8073 27.2625 15.854V16.0331C27.2628 16.0641 27.2541 16.0944 27.2373 16.1205C27.2206 16.1465 27.1967 16.1671 27.1684 16.1798C27.1402 16.1924 27.1089 16.1965 27.0783 16.1916C27.0477 16.1867 27.0193 16.173 26.9964 16.1522L25.6186 14.9125C25.602 14.8975 25.5887 14.8791 25.5795 14.8586C25.5704 14.8381 25.5657 14.8159 25.5656 14.7934V13.9189C25.5673 13.8341 25.5376 13.7517 25.4822 13.6874C25.4268 13.6231 25.3496 13.5816 25.2654 13.5707C25.2189 13.566 25.1719 13.5711 25.1274 13.5856C25.0829 13.6001 25.042 13.6237 25.0072 13.655C24.9724 13.6863 24.9446 13.7245 24.9255 13.7672C24.9064 13.8099 24.8964 13.8562 24.8962 13.9029C24.8962 13.9339 24.8873 13.9642 24.8704 13.9901C24.8536 14.0161 24.8296 14.0366 24.8013 14.0492C24.773 14.0618 24.7417 14.0659 24.7112 14.0611C24.6806 14.0563 24.6521 14.0427 24.6291 14.022L23.5515 13.0525C23.5356 13.0379 23.5228 13.0203 23.5138 13.0007C23.5049 12.9811 23.5 12.9599 23.4994 12.9384C23.4244 10.3139 23.0262 7.95061 22.3678 7.95061C21.7094 7.95061 21.3122 10.3139 21.2372 12.9384C21.2367 12.9601 21.2317 12.9813 21.2226 13.001C21.2134 13.0206 21.2004 13.0381 21.1841 13.0525L20.0945 14.033C20.0725 14.0527 20.0453 14.0656 20.0161 14.0702C19.9869 14.0747 19.957 14.0707 19.93 14.0587C19.903 14.0466 19.8801 14.027 19.864 14.0022C19.848 13.9774 19.8394 13.9485 19.8394 13.9189C19.8411 13.8341 19.8114 13.7517 19.756 13.6874C19.7006 13.6231 19.6234 13.5816 19.5392 13.5707C19.4927 13.566 19.4457 13.5711 19.4012 13.5856C19.3567 13.6001 19.3158 13.6237 19.281 13.655C19.2462 13.6863 19.2184 13.7245 19.1993 13.7672C19.1802 13.8099 19.1702 13.8562 19.17 13.9029V14.7934C19.1701 14.8159 19.1655 14.8382 19.1563 14.8587C19.1472 14.8792 19.1338 14.8976 19.117 14.9125L17.7382 16.1532C17.7152 16.1739 17.6867 16.1875 17.6561 16.1923C17.6256 16.1971 17.5942 16.193 17.566 16.1804C17.5377 16.1678 17.5137 16.1473 17.4969 16.1213C17.48 16.0954 17.4711 16.0651 17.4711 16.0341V15.871C17.4725 15.7863 17.4427 15.7039 17.3874 15.6397C17.332 15.5755 17.255 15.5339 17.1709 15.5228C17.1243 15.5179 17.0772 15.5229 17.0327 15.5373C16.9882 15.5518 16.9472 15.5754 16.9124 15.6067C16.8775 15.6381 16.8497 15.6764 16.8306 15.7191C16.8116 15.7619 16.8017 15.8082 16.8017 15.855V16.9246C16.8016 16.9471 16.7969 16.9693 16.7877 16.9898C16.7786 17.0103 16.7653 17.0286 16.7487 17.0437L15.1478 18.4865C15.131 18.5014 15.1175 18.5198 15.1084 18.5403C15.0993 18.5609 15.0946 18.5831 15.0947 18.6056V18.9558C15.0948 18.9824 15.1015 19.0086 15.1142 19.0321C15.1269 19.0555 15.1453 19.0753 15.1677 19.0899C15.19 19.1044 15.2157 19.1131 15.2422 19.1152C15.2688 19.1173 15.2955 19.1127 15.3199 19.1018L21.1421 16.4824C21.1607 16.4739 21.1811 16.4701 21.2015 16.4712C21.222 16.4724 21.2418 16.4785 21.2593 16.4891C21.2769 16.4996 21.2916 16.5142 21.3022 16.5317C21.3128 16.5492 21.319 16.569 21.3202 16.5895C21.4663 19.0798 21.7304 21.5572 21.7815 22.0315C21.7843 22.0567 21.781 22.0822 21.7719 22.1058C21.7629 22.1295 21.7483 22.1507 21.7294 22.1676L19.7283 23.9506C19.7089 23.9677 19.6939 23.9893 19.6847 24.0136C19.6754 24.0378 19.6722 24.0639 19.6753 24.0896L19.7023 24.3078C19.7049 24.3296 19.712 24.3507 19.7232 24.3697C19.7344 24.3887 19.7494 24.4052 19.7672 24.4181C19.7851 24.431 19.8055 24.44 19.827 24.4446C19.8486 24.4492 19.8708 24.4493 19.8924 24.4449L22.0436 24.0066L22.2277 24.3308C22.2417 24.3553 22.262 24.3757 22.2864 24.3899C22.3108 24.4041 22.3386 24.4116 22.3668 24.4116C22.3951 24.4116 22.4228 24.4041 22.4472 24.3899C22.4717 24.3757 22.4919 24.3553 22.5059 24.3308L22.633 24.1067C22.6496 24.0773 22.6752 24.0541 22.7059 24.0402C22.7367 24.0264 22.771 24.0227 22.804 24.0296L24.8412 24.4449C24.8628 24.4493 24.885 24.4492 24.9066 24.4446C24.9281 24.44 24.9485 24.431 24.9664 24.4181C24.9842 24.4052 24.9992 24.3887 25.0104 24.3697C25.0216 24.3507 25.0287 24.3296 25.0313 24.3078L25.0583 24.0896C25.0613 24.064 25.0582 24.038 25.0492 24.0138C25.0401 23.9896 25.0254 23.9679 25.0063 23.9506L23.0052 22.1676C22.986 22.1509 22.9711 22.1298 22.9619 22.1061C22.9526 22.0824 22.9493 22.0568 22.9521 22.0315C23.0042 21.5572 23.2673 19.0798 23.4144 16.5895C23.4155 16.5691 23.4215 16.5493 23.432 16.5318C23.4425 16.5142 23.4571 16.4996 23.4746 16.489C23.4921 16.4784 23.5118 16.4723 23.5322 16.4712C23.5526 16.47 23.5729 16.4739 23.5915 16.4824L29.4117 19.1049C29.4365 19.1166 29.4638 19.1217 29.4911 19.1198C29.5184 19.1179 29.5448 19.1089 29.5676 19.0938C29.5905 19.0787 29.609 19.058 29.6215 19.0336C29.634 19.0093 29.64 18.9821 29.6389 18.9548Z" fill="#17384B"/>
<path d="M29.4898 29.7471C26.1039 29.7471 23.2613 27.767 22.4629 25.0895C22.4561 25.0683 22.4427 25.0498 22.4247 25.0367C22.4068 25.0235 22.3851 25.0164 22.3628 25.0164C22.3406 25.0164 22.3189 25.0235 22.3009 25.0367C22.2829 25.0498 22.2696 25.0683 22.2628 25.0895C21.4623 27.767 18.6207 29.7471 15.2348 29.7471C14.2197 29.7495 13.2127 29.5654 12.2642 29.2038C15.0033 31.7565 18.6086 33.1753 22.3528 33.174C22.4619 33.174 22.5709 33.174 22.68 33.174C26.3213 33.1022 29.808 31.6888 32.4715 29.2048C31.5194 29.5674 30.5086 29.7512 29.4898 29.7471Z" fill="#17384B"/>
<path d="M5.41774 49.2284C4.85834 49.7414 4.12241 50.0185 3.36359 50.0018C1.5946 50.0018 0.296875 48.8192 0.296875 46.9701C0.296875 45.1211 1.69766 43.9474 3.58572 43.9474C5.05254 43.9564 6.28723 44.7029 6.68745 45.9566V46.3298H5.12358C4.90145 45.7074 4.34114 45.3522 3.57671 45.3522C2.52812 45.3612 1.83474 45.9656 1.83474 46.9701C1.83474 47.9927 2.51911 48.597 3.55069 48.597C4.13702 48.597 4.61729 48.3969 4.91946 48.0367H3.98594V46.801H6.83953V49.8948H5.41774V49.2284Z" fill="#17384B"/>
<path d="M7.82715 47.6715C7.82715 46.2487 8.86673 45.3422 10.2805 45.3422C11.6943 45.3422 12.7339 46.2487 12.7339 47.6715C12.7339 49.0943 11.6943 50.0008 10.2805 50.0008C8.86673 50.0008 7.82715 49.0943 7.82715 47.6715ZM9.33799 47.6715C9.33799 48.2489 9.7112 48.596 10.2805 48.596C10.8498 48.596 11.223 48.2489 11.223 47.6715C11.223 47.0942 10.8498 46.747 10.2805 46.747C9.7112 46.747 9.33799 47.0942 9.33799 47.6715Z" fill="#17384B"/>
<path d="M18.6194 49.2284C18.0604 49.7414 17.3248 50.0185 16.5662 50.0018C14.7973 50.0018 13.4985 48.8192 13.4985 46.9701C13.4985 45.1211 14.8943 43.9474 16.7884 43.9474C18.2552 43.9564 19.4899 44.7029 19.8901 45.9566V46.3298H18.3252C18.1031 45.7074 17.5428 45.3522 16.7784 45.3522C15.7298 45.3612 15.0364 45.9656 15.0364 46.9701C15.0364 47.9927 15.7208 48.597 16.7514 48.597C17.3387 48.597 17.819 48.3969 18.1211 48.0367H17.1876V46.801H20.0412V49.8948H18.6184L18.6194 49.2284Z" fill="#17384B"/>
<path d="M21.2783 43.6693H22.7722V49.8917H21.2783V43.6693Z" fill="#17384B"/>
<path d="M23.7495 47.6715C23.7495 46.2487 24.7901 45.3422 26.2029 45.3422C27.6157 45.3422 28.6573 46.2487 28.6573 47.6715C28.6573 49.0943 27.6167 50.0008 26.2029 50.0008C24.7891 50.0008 23.7495 49.0943 23.7495 47.6715ZM25.2614 47.6715C25.2614 48.2489 25.6346 48.596 26.2029 48.596C26.7712 48.596 27.1454 48.2489 27.1454 47.6715C27.1454 47.0942 26.7722 46.747 26.2029 46.747C25.6336 46.747 25.2614 47.0942 25.2614 47.6715Z" fill="#17384B"/>
<path d="M29.6348 43.6693H31.1286V45.8705C31.3029 45.698 31.5098 45.5621 31.7373 45.4705C31.9647 45.3789 32.2082 45.3336 32.4533 45.3372C33.6 45.3372 34.4355 46.2437 34.4355 47.6665C34.4355 49.0893 33.6 49.9958 32.4533 49.9958C32.2087 50.0008 31.9655 49.957 31.738 49.8668C31.5105 49.7766 31.3033 49.6418 31.1286 49.4705V49.8887H29.6348V43.6693ZM31.0756 47.6715C31.0756 48.2488 31.4398 48.596 32.0001 48.596C32.5604 48.596 32.9246 48.2488 32.9246 47.6715C32.9246 47.0942 32.5594 46.747 32.0001 46.747C31.4408 46.747 31.0756 47.0942 31.0756 47.6715Z" fill="#17384B"/>
<path d="M39.9657 49.8948H38.4719V49.4725C38.2968 49.6433 38.0895 49.7777 37.8621 49.8679C37.6347 49.958 37.3917 50.0022 37.1472 49.9978C36.0005 49.9978 35.165 49.0903 35.165 47.6685C35.165 46.2467 36.0005 45.3392 37.1472 45.3392C37.3922 45.3363 37.6355 45.3819 37.8628 45.4735C38.0902 45.565 38.2972 45.7006 38.4719 45.8725V45.4453H39.9657V49.8948ZM38.5249 47.6725C38.5249 47.0942 38.1607 46.748 37.6004 46.748C37.0401 46.748 36.6759 47.0942 36.6759 47.6725C36.6759 48.2509 37.0411 48.5971 37.6004 48.5971C38.1597 48.5971 38.5249 48.2499 38.5249 47.6715V47.6725Z" fill="#17384B"/>
<path d="M41.1929 43.6693H42.6867V49.8917H41.1929V43.6693Z" fill="#17384B"/>
</g>
<defs>
<clipPath id="clip0_169_1033">
<rect width="42.3887" height="50" fill="white" transform="translate(0.296875)"/>
</clipPath>
</defs>
</svg>
