<svg width="19" height="18" viewBox="0 0 19 18" fill="none" xmlns="http://www.w3.org/2000/svg">
<path d="M16.8758 18C17.2527 18 17.6142 17.8503 17.8807 17.5838C18.1472 17.3173 18.2969 16.9558 18.2969 16.5789V13.2632C18.2969 12.8863 18.1472 12.5248 17.8807 12.2583C17.6142 11.9918 17.2527 11.8421 16.8758 11.8421C15.7674 11.8421 14.6779 11.6716 13.6358 11.3211C13.3867 11.2424 13.1207 11.2335 12.8669 11.2953C12.613 11.3571 12.381 11.4872 12.1958 11.6716L10.8316 13.0358C8.47479 11.7497 6.53774 9.81262 5.25161 7.45579L6.60635 6.10105C6.99477 5.73158 7.13688 5.18211 6.96635 4.65158C6.6253 3.61895 6.45477 2.52947 6.45477 1.42105C6.45477 1.04417 6.30505 0.682716 6.03855 0.416217C5.77205 0.149718 5.4106 0 5.03372 0H1.71793C1.34104 0 0.979591 0.149718 0.713092 0.416217C0.446593 0.682716 0.296875 1.04417 0.296875 1.42105C0.296875 10.5632 7.73372 18 16.8758 18ZM1.71793 0.947368H5.03372C5.15935 0.947368 5.27983 0.997274 5.36866 1.08611C5.4575 1.17494 5.5074 1.29542 5.5074 1.42105C5.5074 2.63368 5.69688 3.8179 6.06635 4.94526C6.11372 5.0779 6.10424 5.26737 5.95266 5.41895L4.08635 7.27579C5.64951 10.3358 7.94214 12.6284 11.0116 14.2105L12.859 12.3442C12.9916 12.2116 13.1716 12.1737 13.3421 12.2211C14.479 12.6 15.6632 12.7895 16.8758 12.7895C17.0015 12.7895 17.1219 12.8394 17.2108 12.9282C17.2996 13.017 17.3495 13.1375 17.3495 13.2632V16.5789C17.3495 16.7046 17.2996 16.8251 17.2108 16.9139C17.1219 17.0027 17.0015 17.0526 16.8758 17.0526C8.25477 17.0526 1.24424 10.0421 1.24424 1.42105C1.24424 1.29542 1.29415 1.17494 1.38298 1.08611C1.47182 0.997274 1.5923 0.947368 1.71793 0.947368Z" fill="black"/>
</svg>
