<svg width="19" height="19" viewBox="0 0 19 19" fill="none" xmlns="http://www.w3.org/2000/svg">
<path d="M17.0497 18.1968C17.4265 18.1968 17.788 18.0471 18.0545 17.7806C18.321 17.5141 18.4707 17.1526 18.4707 16.7757V13.4599C18.4707 13.083 18.321 12.7216 18.0545 12.4551C17.788 12.1886 17.4265 12.0389 17.0497 12.0389C15.9412 12.0389 14.8518 11.8684 13.8097 11.5178C13.5605 11.4392 13.2946 11.4303 13.0407 11.4921C12.7869 11.5539 12.5548 11.684 12.3697 11.8684L11.0054 13.2326C8.64861 11.9464 6.71157 10.0094 5.42544 7.65257L6.78018 6.29783C7.1686 5.92836 7.3107 5.37888 7.14018 4.84836C6.79912 3.81572 6.6286 2.72625 6.6286 1.61783C6.6286 1.24094 6.47888 0.879493 6.21238 0.612994C5.94588 0.346495 5.58443 0.196777 5.20755 0.196777H1.89176C1.51487 0.196777 1.15342 0.346495 0.88692 0.612994C0.620421 0.879493 0.470703 1.24094 0.470703 1.61783C0.470703 10.7599 7.90755 18.1968 17.0497 18.1968ZM1.89176 1.14415H5.20755C5.33317 1.14415 5.45366 1.19405 5.54249 1.28288C5.63132 1.37172 5.68123 1.4922 5.68123 1.61783C5.68123 2.83046 5.8707 4.01467 6.24018 5.14204C6.28755 5.27467 6.27807 5.46415 6.12649 5.61573L4.26018 7.47257C5.82333 10.5326 8.11597 12.8252 11.1854 14.4073L13.0328 12.541C13.1654 12.4084 13.3454 12.3705 13.516 12.4178C14.6528 12.7968 15.837 12.9863 17.0497 12.9863C17.1753 12.9863 17.2958 13.0362 17.3846 13.125C17.4734 13.2138 17.5233 13.3343 17.5233 13.4599V16.7757C17.5233 16.9014 17.4734 17.0218 17.3846 17.1107C17.2958 17.1995 17.1753 17.2494 17.0497 17.2494C8.4286 17.2494 1.41807 10.2389 1.41807 1.61783C1.41807 1.4922 1.46798 1.37172 1.55681 1.28288C1.64564 1.19405 1.76613 1.14415 1.89176 1.14415Z" fill="white"/>
</svg>
