<svg width="88" height="91" viewBox="0 0 88 91" fill="none" xmlns="http://www.w3.org/2000/svg">
<g clip-path="url(#clip0_1_3408)">
<path d="M83.1996 21.5333H4.36963C3.26506 21.5333 2.36963 22.4288 2.36963 23.5333V33.2833C2.36963 34.3879 3.26506 35.2833 4.36963 35.2833H83.1996C84.3042 35.2833 85.1996 34.3879 85.1996 33.2833V23.5333C85.1996 22.4288 84.3042 21.5333 83.1996 21.5333Z" stroke="#17384B" stroke-width="3" stroke-miterlimit="10"/>
<path d="M78.3092 35.2836H8.6792C7.57463 35.2836 6.6792 36.179 6.6792 37.2836V86.7636C6.6792 87.8681 7.57463 88.7636 8.6792 88.7636H78.3092C79.4138 88.7636 80.3092 87.8681 80.3092 86.7636V37.2836C80.3092 36.179 79.4138 35.2836 78.3092 35.2836Z" stroke="#17384B" stroke-width="3" stroke-miterlimit="10"/>
<path d="M27.45 41.6932C27.45 41.6932 44.11 37.1432 43.82 9.07324C40.73 -9.92676 4.03002 18.0733 42.82 25.9633" stroke="#17384B" stroke-width="3" stroke-miterlimit="10"/>
<path d="M59.8693 41.6932C59.8693 41.6932 43.2093 37.1432 43.4993 9.07324C46.5893 -9.92676 83.2793 18.0733 44.4993 25.9633" stroke="#17384B" stroke-width="3" stroke-miterlimit="10"/>
<path d="M43.7896 88.1833V21.5333" stroke="#17384B" stroke-width="3" stroke-miterlimit="10"/>
</g>
<defs>
<clipPath id="clip0_1_3408">
<rect width="86.83" height="90.18" fill="white" transform="translate(0.369629 0.583374)"/>
</clipPath>
</defs>
</svg>
