<svg width="45" height="45" viewBox="0 0 45 45" fill="none" xmlns="http://www.w3.org/2000/svg">
<path d="M10.7096 34.9701C12.2107 30.8959 14.0957 26.9015 16.3611 23.1935C16.7013 22.6367 20.5675 12.9006 21.4423 12.8159C22.6374 12.7002 20.6628 25.5305 20.8269 26.1301C21.3591 28.0737 20.8562 37.7088 21.3719 39.6568C21.7375 41.0383 21.4118 40.4456 20.4563 39.9473C15.8206 37.5296 11.7036 28.5689 6.60127 27.5972C4.04525 27.1104 6.79494 25.657 7.93225 25.2625C14.9986 22.8119 22.7835 22.4395 30.0521 20.7186C30.2079 20.6817 30.3681 20.5599 30.52 20.6104C31.0202 20.7766 29.5551 21.0389 29.0965 21.2987C25.8237 23.1524 22.8774 25.7659 19.9248 28.0687C15.2765 31.6942 10.9987 35.5585 7.04791 39.9131" stroke="#00B6B7" stroke-width="3" stroke-linecap="round"/>
<path d="M30.5868 13.2509C32.5456 10.5101 34.3397 7.72706 36.0537 4.82956C36.4876 4.09617 37.1039 2.73046 37.8908 2.23499C38.2768 1.99195 38.6033 3.44037 38.6168 3.48493C39.2409 5.55141 39.456 7.71773 39.5384 9.8672C39.5736 10.7839 40.3465 13.1161 40.3465 14.0333C40.3465 14.8569 40.1484 14.4056 39.5384 13.9954C36.2111 11.7575 31.6992 8.73405 28.6046 6.15526C27.5837 5.30452 28.754 5.2813 29.6399 5.33459C33.5505 5.56981 38.9238 6.20356 42.8474 5.33459C43.6792 5.15036 42.7492 5.82159 42.5065 6.09213C40.8434 7.94574 37.727 10.2626 35.6497 11.6474C33.9693 12.7677 32.209 13.8266 30.3533 14.6334C30.0603 14.7608 29.4505 14.9553 29.4505 14.9553" stroke="#00B6B7" stroke-width="3" stroke-linecap="round"/>
<path d="M4.12968 11.6025C5.04996 9.75495 5.65879 8.58373 6.49151 6.72355C7.0611 5.45117 7.51956 4.14702 8.04126 2.85727C8.12713 2.64497 8.20378 2.4536 8.33568 2.27166C8.48512 2.06554 8.53947 2.41239 8.5751 2.52402C8.91888 3.60121 9.22709 4.68732 9.6266 5.74646C10.0952 6.98871 10.6701 8.18965 11.2087 9.40245C11.4744 10.0008 11.8151 10.6125 11.859 11.279C11.8844 11.6645 11.8393 12.0646 11.817 12.4502C11.7977 12.782 11.389 11.9415 11.1796 11.6834C9.89177 10.0961 8.10011 9.05525 6.3168 8.11476C5.51562 7.69224 5.85434 6.85088 5.05778 6.41971C4.62153 6.18358 4.61499 6.0462 3.89024 5.48116C3.46697 5.15121 2.15252 4.74282 2.25685 4.2907C2.32217 4.00766 4.51784 4.50575 4.61499 4.52025C7.12886 4.89559 9.69121 4.64984 12.1534 4.0576C12.9475 3.86661 13.8516 3.57928 14.6253 3.2811C14.8415 3.19778 15.4425 2.8544 15.2594 2.99639C14.1652 3.84493 13.0866 4.69154 11.9464 5.48116C9.01099 7.51402 6.10177 9.55296 3.72203 12.2431" stroke="#00B6B7" stroke-width="3" stroke-linecap="round"/>
</svg>
