<svg width="19" height="16" viewBox="0 0 19 16" fill="none" xmlns="http://www.w3.org/2000/svg">
<path d="M18.1899 1.0701C18.1736 1.00578 18.141 0.946723 18.0953 0.898606C18.0496 0.850489 17.9923 0.814922 17.9289 0.795312C17.6924 0.748548 17.4476 0.765618 17.2199 0.844772C17.2199 0.844772 1.46062 6.51097 0.559308 7.13749C0.364207 7.27214 0.301022 7.35183 0.268047 7.44251C0.111416 7.89042 0.597783 8.08827 0.597783 8.08827L4.6592 9.41001C4.72691 9.42655 4.7976 9.42655 4.8653 9.41001C5.7886 8.82471 14.1615 3.53773 14.6451 3.36461C14.722 3.34262 14.777 3.36461 14.7633 3.42231C14.5682 4.0983 7.29719 10.5669 7.29719 10.5669C7.27884 10.5898 7.26319 10.6146 7.2505 10.6411L6.87129 14.6723C6.87129 14.6723 6.71189 15.9061 7.94845 14.6723C8.81679 13.8012 9.6604 13.073 10.0836 12.7185C11.4795 13.6803 12.9826 14.7492 13.6311 15.307C13.7403 15.4124 13.8695 15.4946 14.0112 15.5489C14.1528 15.6032 14.3039 15.6284 14.4555 15.623C15.071 15.6011 15.2442 14.9251 15.2442 14.9251C15.2442 14.9251 18.1157 3.36461 18.2119 1.81753C18.2119 1.66365 18.2339 1.56747 18.2366 1.46305C18.2395 1.33053 18.2237 1.19827 18.1899 1.0701Z" fill="white"/>
</svg>
