<svg width="19" height="16" viewBox="0 0 19 16" fill="none" xmlns="http://www.w3.org/2000/svg">
<path d="M18.656 0.873402C18.6396 0.809075 18.607 0.750022 18.5613 0.701905C18.5156 0.653788 18.4583 0.618221 18.3949 0.598611C18.1584 0.551847 17.9137 0.568917 17.6859 0.648071C17.6859 0.648071 1.92666 6.31427 1.02534 6.94079C0.830241 7.07544 0.767056 7.15513 0.734081 7.24581C0.57745 7.69372 1.06382 7.89156 1.06382 7.89156L5.12524 9.21331C5.19294 9.22985 5.26363 9.22985 5.33133 9.21331C6.25463 8.628 14.6275 3.34103 15.1111 3.16791C15.1881 3.14592 15.2431 3.16791 15.2293 3.22561C15.0342 3.9016 7.76323 10.3702 7.76323 10.3702C7.74488 10.3931 7.72923 10.4179 7.71653 10.4444L7.33732 14.4756C7.33732 14.4756 7.17792 15.7094 8.41448 14.4756C9.28282 13.6045 10.1264 12.8763 10.5496 12.5218C11.9456 13.4836 13.4487 14.5525 14.0972 15.1103C14.2063 15.2157 14.3356 15.2979 14.4772 15.3522C14.6188 15.4065 14.77 15.4317 14.9215 15.4263C15.5371 15.4044 15.7102 14.7284 15.7102 14.7284C15.7102 14.7284 18.5817 3.16791 18.6779 1.62083C18.6779 1.46695 18.6999 1.37077 18.7027 1.26635C18.7055 1.13383 18.6898 1.00156 18.656 0.873402Z" fill="#17384B"/>
</svg>
