<svg width="51" height="79" viewBox="0 0 51 79" fill="none" xmlns="http://www.w3.org/2000/svg">
<g clip-path="url(#clip0_1_3424)">
<path d="M43.7643 31.1184L26.6643 39.4684C26.3904 39.6026 26.0894 39.6724 25.7843 39.6724C25.4792 39.6724 25.1782 39.6026 24.9043 39.4684L7.80432 31.1184C7.46585 30.9549 7.18021 30.6992 6.98035 30.3809C6.78048 30.0625 6.67448 29.6943 6.67432 29.3184V6.00842C6.67432 5.47799 6.88494 4.96931 7.26001 4.59424C7.63508 4.21917 8.14388 4.00842 8.67432 4.00842H42.8943C43.4247 4.00842 43.9334 4.21917 44.3085 4.59424C44.6835 4.96931 44.8943 5.47799 44.8943 6.00842V29.3184C44.8941 29.6943 44.788 30.0625 44.5881 30.3809C44.3883 30.6992 44.1028 30.9549 43.7643 31.1184Z" stroke="#17384B" stroke-width="3" stroke-miterlimit="10"/>
<path d="M6.94482 23.2384H44.0348" stroke="#17384B" stroke-width="3" stroke-miterlimit="10"/>
<path d="M7.80432 48.2181L24.9043 39.8682C25.1782 39.7339 25.4792 39.6642 25.7843 39.6642C26.0894 39.6642 26.3904 39.7339 26.6643 39.8682L43.7643 48.2181C44.1012 48.3809 44.3857 48.635 44.5854 48.9514C44.7852 49.2678 44.8923 49.634 44.8943 50.0082V73.3281C44.8943 73.8586 44.6835 74.3672 44.3085 74.7423C43.9334 75.1174 43.4247 75.3281 42.8943 75.3281H8.63428C8.10384 75.3281 7.59517 75.1174 7.22009 74.7423C6.84502 74.3672 6.63428 73.8586 6.63428 73.3281V50.0082C6.63991 49.6297 6.75285 49.2605 6.95996 48.9436C7.16707 48.6267 7.45989 48.3752 7.80432 48.2181Z" stroke="#17384B" stroke-width="3" stroke-miterlimit="10"/>
<path d="M44.6245 67.6783L25.7845 60.8683L7.16455 67.8183" stroke="#17384B" stroke-width="3" stroke-miterlimit="10"/>
<path d="M48.7847 0.928345H2.78467C1.6801 0.928345 0.784668 1.82378 0.784668 2.92834C0.784668 4.03291 1.6801 4.92834 2.78467 4.92834H48.7847C49.8892 4.92834 50.7847 4.03291 50.7847 2.92834C50.7847 1.82378 49.8892 0.928345 48.7847 0.928345Z" fill="#17384B"/>
<path d="M48.7847 74.4183H2.78467C1.6801 74.4183 0.784668 75.3138 0.784668 76.4183C0.784668 77.5229 1.6801 78.4183 2.78467 78.4183H48.7847C49.8892 78.4183 50.7847 77.5229 50.7847 76.4183C50.7847 75.3138 49.8892 74.4183 48.7847 74.4183Z" fill="#17384B"/>
</g>
<defs>
<clipPath id="clip0_1_3424">
<rect width="50" height="77.49" fill="white" transform="translate(0.784668 0.928345)"/>
</clipPath>
</defs>
</svg>
