<svg width="19" height="18" viewBox="0 0 19 18" fill="none" xmlns="http://www.w3.org/2000/svg">
<path fill-rule="evenodd" clip-rule="evenodd" d="M13.1349 2.15784C12.1055 1.65172 10.9736 1.38901 9.82654 1.39H9.8232C8.49472 1.39014 7.19022 1.74393 6.0437 2.41503C4.89719 3.08613 3.94998 4.05035 3.2994 5.20863C2.64882 6.36691 2.31832 7.67751 2.34184 9.00578C2.36535 10.3341 2.74202 11.6321 3.43319 12.7667L3.76652 13.3333L3.54655 13.9567L2.87988 15.8833L5.02319 15.2433L5.59318 15.07L6.1132 15.3667C7.10851 15.9368 8.22159 16.2706 9.36641 16.3421C10.5112 16.4136 11.6572 16.221 12.7157 15.7791C13.7742 15.3373 14.717 14.658 15.4712 13.7937C16.2254 12.9295 16.7709 11.9034 17.0654 10.7948C17.36 9.68625 17.3957 8.52478 17.1699 7.40017C16.9441 6.27555 16.4628 5.2179 15.7631 4.30892C15.0635 3.39994 14.1642 2.66396 13.1349 2.15784ZM5.34013 1.21523C6.70008 0.419283 8.24745 -0.000165736 9.8232 5.40132e-07H9.82654C11.1864 -0.000473905 12.5282 0.311618 13.7483 0.912171C14.9684 1.51272 16.0341 2.38567 16.8632 3.4636C17.6922 4.54152 18.2625 5.79558 18.5298 7.12892C18.7972 8.46226 18.7545 9.83921 18.405 11.1534C18.0556 12.4676 17.4087 13.684 16.5145 14.7085C15.6202 15.7329 14.5025 16.5382 13.2475 17.062C11.9926 17.5858 10.634 17.8142 9.27677 17.7294C7.91953 17.6447 6.59994 17.2491 5.41988 16.5733L0.653198 18L2.24654 13.4933C1.42611 12.148 0.97871 10.6085 0.950358 9.03298C0.922007 7.45749 1.31371 5.90286 2.0852 4.52889C2.8567 3.15492 3.98018 2.01118 5.34013 1.21523ZM8.03296 11.0833C9.24629 12.1433 11.7063 13.2167 12.8829 13.1433C12.8829 13.1433 14.5863 11.8567 14.5496 11.27C14.5129 10.6833 12.6396 9.02335 12.0863 9.65001C11.8747 9.88967 11.7499 10.1235 11.6434 10.3229C11.4714 10.645 11.3473 10.8774 10.9829 10.9C10.3929 10.9367 9.75961 10.3867 9.14294 9.83335C9.13358 9.82494 9.12421 9.81654 9.11484 9.80814C8.50728 9.2631 7.89573 8.71449 7.85962 8.14001C7.83695 7.77934 8.05385 7.6251 8.35275 7.41257C8.53727 7.28136 8.75303 7.12794 8.96297 6.89001C9.51297 6.26668 7.65294 4.61335 7.05294 4.65001C6.45294 4.68668 5.38627 6.52335 5.38627 6.52335C5.4596 7.69668 6.81962 10.0233 8.03296 11.0833Z" fill="#17384B"/>
</svg>
