<?xml version="1.0" standalone="no"?>
<!DOCTYPE svg PUBLIC "-//W3C//DTD SVG 20010904//EN"
 "http://www.w3.org/TR/2001/REC-SVG-20010904/DTD/svg10.dtd">
<svg version="1.0" xmlns="../../../www.w3.org/2000/svg"
 width="512.000000pt" height="512.000000pt" viewBox="0 0 512.000000 512.000000"
 preserveAspectRatio="xMidYMid meet">
<metadata>
Created by potrace 1.14, written by Peter Selinger 2001-2017
</metadata>
<g transform="translate(0.000000,512.000000) scale(0.100000,-0.100000)"
fill="#000000" stroke="none">
<path d="M2249 4936 c-2 -2 -67 -7 -144 -11 -77 -3 -158 -8 -179 -10 -122 -10
-209 -18 -316 -30 -25 -2 -70 -7 -100 -10 -54 -6 -370 -51 -420 -59 -14 -3
-43 -7 -65 -11 -69 -10 -266 -46 -365 -67 -52 -11 -108 -22 -125 -25 -56 -8
-191 -59 -257 -96 -90 -50 -170 -133 -213 -221 -62 -126 -66 -164 -60 -581 3
-203 7 -395 9 -425 2 -30 7 -107 11 -170 4 -63 8 -131 10 -150 2 -19 6 -80 10
-135 4 -55 8 -107 10 -115 1 -8 6 -49 10 -90 4 -41 8 -88 10 -105 2 -16 6 -57
10 -90 3 -33 8 -74 10 -92 3 -17 9 -71 15 -120 6 -48 12 -101 15 -118 2 -16
11 -79 20 -140 19 -135 20 -138 39 -255 22 -127 25 -146 37 -210 6 -30 13 -68
15 -85 16 -93 69 -318 88 -370 44 -121 128 -217 241 -277 106 -56 301 -101
535 -123 30 -3 75 -7 100 -10 42 -4 154 -12 295 -20 404 -24 1660 -25 2115 0
154 8 288 16 310 20 14 2 57 6 95 10 516 47 724 170 804 475 19 73 65 286 74
345 5 29 33 193 42 245 8 43 24 143 30 185 3 22 10 69 15 105 16 109 25 175
35 270 4 36 8 67 10 70 2 3 6 43 10 90 4 47 9 93 11 103 1 10 6 50 9 90 3 39
8 83 10 97 2 14 7 68 10 120 4 52 8 111 10 130 3 31 7 96 21 308 2 31 6 228 9
437 6 427 3 453 -61 582 -65 133 -197 235 -369 287 -64 20 -186 48 -305 71
-14 3 -152 28 -215 40 -16 3 -61 10 -99 15 -38 6 -78 12 -90 15 -12 2 -37 7
-56 9 -140 19 -273 36 -320 41 -30 3 -62 8 -70 10 -8 2 -55 7 -104 10 -50 4
-97 8 -106 10 -9 2 -63 6 -120 10 -58 4 -134 9 -170 12 -79 6 -776 14 -781 9z"/>
<path d="M740 504 c0 -19 5 -24 24 -24 18 0 23 5 22 23 -2 33 -46 34 -46 1z"/>
<path d="M822 506 c2 -13 12 -22 26 -24 17 -3 22 1 22 20 0 19 -5 24 -25 24
-20 0 -25 -4 -23 -20z"/>
<path d="M1540 505 c0 -20 5 -25 25 -25 20 0 25 5 25 25 0 20 -5 25 -25 25
-20 0 -25 -5 -25 -25z"/>
<path d="M4640 505 c0 -20 5 -25 25 -25 20 0 25 5 25 25 0 20 -5 25 -25 25
-20 0 -25 -5 -25 -25z"/>
<path d="M434 447 c-8 -25 -1 -30 43 -31 l38 -1 1 -108 c0 -59 4 -110 8 -114
12 -13 46 -13 47 0 1 6 2 59 3 117 l1 105 38 2 c45 1 51 5 43 30 -5 17 -17 19
-111 18 -93 0 -106 -2 -111 -18z"/>
<path d="M704 462 c-15 -9 -16 -174 -3 -219 6 -17 21 -38 34 -47 51 -33 156
-11 171 36 10 32 12 218 2 224 -4 3 -17 7 -28 9 -19 4 -20 -1 -20 -96 0 -119
-8 -139 -55 -139 -47 0 -55 20 -55 133 0 77 -3 96 -16 101 -19 7 -16 7 -30 -2z"/>
<path d="M979 465 c-1 0 -2 -63 -3 -140 l-1 -140 27 -2 c28 -1 28 0 28 58 0
56 1 59 24 59 18 0 34 -14 62 -52 21 -29 39 -55 41 -57 5 -7 63 -8 63 -2 0 10
-41 75 -63 98 l-20 22 26 10 c55 21 49 123 -8 137 -18 4 -168 13 -176 9z m162
-67 c5 -7 9 -16 9 -19 0 -16 -33 -31 -72 -32 -40 -1 -43 0 -46 27 -2 16 2 33
10 37 18 12 89 3 99 -13z"/>
<path d="M1259 452 c-3 -85 -3 -262 1 -263 3 0 15 -2 28 -5 12 -2 22 -1 23 4
1 4 2 24 3 44 1 37 43 96 52 73 2 -5 19 -35 37 -65 27 -45 38 -54 62 -55 17
-1 33 0 37 2 4 2 -12 32 -36 66 -73 105 -72 97 -16 155 28 28 50 53 50 54 0 2
-16 3 -36 3 -31 0 -43 -8 -89 -57 -29 -32 -55 -58 -57 -58 -3 0 -4 25 -3 55 1
33 -3 55 -9 56 -6 0 -19 2 -28 4 -11 2 -18 -3 -19 -13z"/>
<path d="M1539 461 c-1 -9 -1 -243 0 -263 1 -22 48 -21 53 2 3 13 2 225 -1
256 -1 10 -50 15 -52 5z"/>
<path d="M1620 462 c0 -3 21 -37 47 -76 42 -62 48 -79 53 -136 5 -61 6 -65 30
-65 24 0 25 3 26 58 1 46 7 67 34 110 18 28 41 66 51 82 l19 31 -28 -2 c-15
-1 -30 -2 -34 -3 -4 0 -19 -23 -35 -51 -15 -27 -30 -50 -33 -50 -3 0 -18 23
-33 50 -16 28 -31 51 -35 51 -21 4 -62 4 -62 1z"/>
<path d="M1909 450 c-1 -20 -1 -208 0 -240 l1 -25 105 0 c102 0 105 0 105 22
0 22 -4 23 -67 24 -38 1 -73 1 -79 0 -6 -1 -10 15 -9 36 l1 38 68 2 c37 1 70
3 72 6 2 2 1 13 -3 23 -7 16 -18 19 -73 19 l-65 0 0 30 0 30 68 1 c69 1 79 4
83 29 3 17 6 17 -113 19 -78 2 -93 -1 -94 -14z"/>
<path d="M2279 466 c-4 -3 -3 -276 1 -277 3 0 15 -2 28 -5 21 -4 22 0 22 51
l0 55 45 0 c26 0 59 7 74 15 46 23 55 88 19 130 -21 23 -31 26 -105 29 -46 2
-84 2 -84 2z m141 -61 c14 -8 13 -38 -2 -53 -7 -7 -29 -12 -50 -12 l-39 0 3
40 2 40 38 -4 c21 -3 43 -8 48 -11z"/>
<path d="M2542 461 c-6 -5 -8 -175 -3 -256 1 -20 7 -21 104 -20 98 0 102 1
105 23 3 21 1 22 -76 22 l-79 0 1 38 1 37 68 3 c62 3 67 4 67 26 0 22 -3 23
-65 21 -61 -2 -66 -1 -71 22 -9 33 -1 37 68 40 78 2 92 8 79 30 -8 15 -25 18
-100 18 -50 1 -95 -1 -99 -4z"/>
<path d="M2775 443 c0 -13 6 -23 15 -24 8 -1 26 -2 40 -2 25 -2 25 -3 30 -117
5 -114 5 -115 30 -115 l25 0 0 113 c0 95 2 113 16 117 10 3 21 5 25 4 28 -5
44 3 44 21 0 11 -3 20 -7 21 -5 0 -55 2 -113 3 -103 2 -105 2 -105 -21z"/>
<path d="M3042 461 c-5 -3 -8 -66 -8 -140 l1 -134 28 -3 c27 -3 27 -2 27 57 0
60 0 60 27 57 21 -2 37 -17 64 -58 30 -46 41 -55 68 -56 17 -1 31 2 31 6 0 4
-18 32 -39 63 -37 53 -39 56 -19 62 24 8 47 58 40 91 -7 40 -42 55 -131 58
-43 2 -83 1 -89 -3z m155 -55 c12 -12 11 -35 -2 -46 -7 -6 -34 -12 -59 -13
l-46 -2 0 37 0 36 50 -2 c28 -2 53 -6 57 -10z"/>
<path d="M3384 460 c-31 -12 -74 -68 -75 -98 -3 -68 1 -93 17 -121 49 -84 190
-79 233 8 22 44 20 118 -5 161 -30 50 -110 74 -170 50z m105 -57 c27 -22 35
-96 15 -135 -26 -50 -97 -50 -125 -1 -14 25 -15 40 -11 96 5 49 79 74 121 40z"/>
<path d="M3632 461 c-7 -4 -10 -56 -9 -141 l2 -135 95 0 c91 0 95 1 98 23 3
21 0 22 -67 22 -61 0 -71 3 -72 18 -1 9 -1 60 0 113 0 86 -2 97 -18 102 -10 2
-24 2 -29 -2z"/>
<path d="M3887 463 l-28 -4 3 -137 3 -137 98 0 c94 0 97 0 97 22 0 22 -4 23
-70 23 -60 0 -70 3 -71 18 0 9 -1 63 -2 120 0 56 -1 101 -1 101 -1 -1 -13 -4
-29 -6z"/>
<path d="M4099 450 c-4 -67 0 -252 5 -258 4 -4 52 -7 107 -7 97 -1 99 0 99 22
0 22 -3 23 -80 23 l-79 0 2 38 2 37 59 2 c74 2 86 7 80 31 -5 16 -15 18 -72
18 l-67 -1 0 30 c0 29 1 30 55 32 30 0 64 2 76 2 15 1 20 7 19 23 -2 22 -5 23
-103 23 -85 0 -102 -2 -103 -15z"/>
<path d="M4357 461 c-1 -3 -2 -66 -2 -140 l1 -134 27 -3 c29 -3 29 -3 30 74 1
40 2 43 26 40 18 -2 37 -19 63 -57 36 -52 61 -66 95 -54 12 5 -32 78 -62 103
-14 11 -12 15 13 30 45 28 49 95 9 129 -16 12 -196 23 -200 12z m159 -55 c28
-21 9 -56 -32 -57 -19 -1 -42 -2 -51 -3 -13 -1 -18 7 -19 29 0 17 1 33 3 37 6
11 81 6 99 -6z"/>
<path d="M4642 453 c-9 -21 -9 -244 1 -260 4 -6 15 -10 25 -8 9 2 19 4 22 4 3
1 5 60 5 132 -1 103 -4 132 -15 139 -21 14 -28 12 -38 -7z"/>
</g>
</svg>
