<svg width="41" height="41" viewBox="0 0 41 41" fill="none" xmlns="http://www.w3.org/2000/svg">
<rect x="0.663086" y="0.136719" width="40" height="40" rx="20" fill="#00B6B7"/>
<path fill-rule="evenodd" clip-rule="evenodd" d="M28.6633 18.3167C28.3533 15.1367 26.4733 10.1367 20.6633 10.1367C14.8533 10.1367 12.9733 15.1367 12.6633 18.3167C11.5758 18.7295 10.8585 19.7736 10.8633 20.9367V22.3367C10.8633 23.8831 12.1169 25.1367 13.6633 25.1367C15.2097 25.1367 16.4633 23.8831 16.4633 22.3367V20.9367C16.4583 19.7986 15.7673 18.776 14.7133 18.3467C14.9133 16.5067 15.8933 12.1367 20.6633 12.1367C25.4333 12.1367 26.4033 16.5067 26.6033 18.3467C25.5514 18.7769 24.864 19.8003 24.8633 20.9367V22.3367C24.8655 22.8636 25.0157 23.3792 25.2968 23.8248C25.578 24.2704 25.9787 24.628 26.4533 24.8567C26.0333 25.6467 24.9633 26.7167 22.3333 27.0367C21.8076 26.2384 20.7904 25.9237 19.9057 26.2856C19.0211 26.6475 18.5161 27.5849 18.7006 28.5227C18.8851 29.4606 19.7074 30.1367 20.6633 30.1367C21.0337 30.1347 21.3962 30.0298 21.7105 29.8338C22.0248 29.6378 22.2785 29.3584 22.4433 29.0267C26.7333 28.5367 28.1033 26.3267 28.5333 25.0267C29.6966 24.6499 30.479 23.5595 30.4633 22.3367V20.9367C30.4681 19.7736 29.7508 18.7295 28.6633 18.3167ZM14.4633 22.3367C14.4633 22.7785 14.1051 23.1367 13.6633 23.1367C13.2214 23.1367 12.8633 22.7786 12.8633 22.3367V20.9367C12.8625 20.8311 12.8826 20.7265 12.9224 20.6287C12.9623 20.5309 13.0211 20.442 13.0955 20.3671C13.1698 20.2921 13.2583 20.2326 13.3557 20.1921C13.4532 20.1515 13.5577 20.1306 13.6633 20.1306C13.7689 20.1306 13.8734 20.1515 13.9709 20.1921C14.0683 20.2326 14.1568 20.2921 14.2312 20.3671C14.3055 20.442 14.3643 20.5309 14.4042 20.6287C14.444 20.7265 14.4641 20.8311 14.4633 20.9367V22.3367ZM26.8633 20.9367C26.8633 20.4949 27.2215 20.1367 27.6633 20.1367C28.1051 20.1367 28.4633 20.4949 28.4633 20.9367V22.3367C28.4633 22.7785 28.1051 23.1367 27.6633 23.1367C27.2215 23.1367 26.8633 22.7786 26.8633 22.3367V20.9367Z" fill="white"/>
</svg>
