<svg width="32" height="33" viewBox="0 0 32 33" fill="none" xmlns="http://www.w3.org/2000/svg">
<path fill-rule="evenodd" clip-rule="evenodd" d="M29.3332 16.8797C29.3332 20.4159 27.9284 23.8073 25.4279 26.3078C22.9274 28.8083 19.5361 30.2131 15.9998 30.2131C12.4636 30.2131 9.07223 28.8083 6.57175 26.3078C4.07126 23.8073 2.6665 20.4159 2.6665 16.8797C2.6665 13.3435 4.07126 9.95211 6.57175 7.45163C9.07223 4.95114 12.4636 3.54639 15.9998 3.54639C19.5361 3.54639 22.9274 4.95114 25.4279 7.45163C27.9284 9.95211 29.3332 13.3435 29.3332 16.8797ZM17.3332 11.5464C17.3332 11.9 17.1927 12.2391 16.9426 12.4892C16.6926 12.7392 16.3535 12.8797 15.9998 12.8797C15.6462 12.8797 15.3071 12.7392 15.057 12.4892C14.807 12.2391 14.6665 11.9 14.6665 11.5464C14.6665 11.1928 14.807 10.8536 15.057 10.6036C15.3071 10.3535 15.6462 10.2131 15.9998 10.2131C16.3535 10.2131 16.6926 10.3535 16.9426 10.6036C17.1927 10.8536 17.3332 11.1928 17.3332 11.5464ZM15.9998 14.2131C15.6462 14.2131 15.3071 14.3535 15.057 14.6036C14.807 14.8536 14.6665 15.1928 14.6665 15.5464V22.2131C14.6665 22.5667 14.807 22.9058 15.057 23.1559C15.3071 23.4059 15.6462 23.5464 15.9998 23.5464C16.3535 23.5464 16.6926 23.4059 16.9426 23.1559C17.1927 22.9058 17.3332 22.5667 17.3332 22.2131V15.5464C17.3332 15.1928 17.1927 14.8536 16.9426 14.6036C16.6926 14.3535 16.3535 14.2131 15.9998 14.2131Z" fill="#F5F5F5"/>
</svg>
