<svg width="84" height="20" viewBox="0 0 84 20" fill="none" xmlns="http://www.w3.org/2000/svg">
<g clip-path="url(#clip0_1_808)">
<path fill-rule="evenodd" clip-rule="evenodd" d="M83.9851 18.7453H81.6993L77.7993 14.0876L73.9191 18.7453H71.6482L76.6614 12.7276L71.9072 7.05138H74.1933L77.8001 11.3594L81.3898 7.05138H83.6609L78.9392 12.7195L83.9851 18.7453ZM49.4762 19.0377C45.8866 19.0377 44.8084 18.1606 44.8084 18.1606V1.20441H46.5589V7.36828C47.2065 7.04787 48.1401 6.75903 49.4762 6.75903C53.0214 6.75903 55.8944 9.34573 55.8944 12.8984C55.8944 16.4509 53.0214 19.0377 49.4762 19.0377ZM49.4762 8.51311C48.2614 8.51311 47.2648 8.97969 46.5589 9.46034V16.6989C46.5589 16.6989 47.4982 17.2835 49.4762 17.2835C52.054 17.2835 54.144 15.4815 54.144 12.8984C54.144 10.3151 52.054 8.51311 49.4762 8.51311ZM38.9736 1.20441H40.7241V18.7453H38.9736V1.20441ZM34.8894 1.20441V18.7453H33.1389V1.20441H34.8894ZM28.1432 3.83554C27.3369 3.83554 26.6846 3.18069 26.6846 2.37381C26.6846 1.56692 27.3369 0.912064 28.1432 0.912064C28.9484 0.912064 29.6019 1.56692 29.6019 2.37381C29.6019 3.18069 28.9484 3.83554 28.1432 3.83554ZM22.3447 18.7453L16.2182 12.606L21.7612 7.05138H24.2363L18.6933 12.606L24.8198 18.7453H22.3447ZM14.4678 18.7453V1.20441H16.2182V12.606V18.7453H14.4678ZM11.6951 13.9742C11.6951 16.9047 9.36473 19.0318 5.66433 19.0318C3.26975 19.0318 1.40614 17.8461 0.0151367 16.4896L1.25327 15.119C2.41088 16.2241 3.77388 17.2988 5.63982 17.2988C7.71348 17.2988 9.94933 16.1341 9.94933 14.0408C9.94933 12.3043 8.57005 11.1711 5.67483 10.2766C2.3747 9.26386 0.698968 7.89334 0.698968 5.316C0.698968 2.76438 2.85432 0.67 5.92456 0.67C8.21761 0.67 9.65412 1.64995 11.0498 2.90237L9.8338 4.25536C8.60853 3.16782 7.44158 2.43111 6.00974 2.43111C4.23365 2.43111 2.4844 3.57828 2.4844 5.23063C2.4844 6.72862 3.34211 7.68168 6.37149 8.61131C9.14649 9.4685 11.6951 10.7958 11.6951 13.9742ZM29.0546 18.7453H27.3042V7.05138H29.0546V18.7453ZM64.3547 19.33C60.8096 19.33 57.9366 16.4509 57.9366 12.8984C57.9366 9.34573 60.8096 6.46668 64.3547 6.46668C67.8999 6.46668 70.773 9.34573 70.773 12.8984C70.773 16.4509 67.8999 19.33 64.3547 19.33ZM64.3547 8.22077C61.7769 8.22077 59.6869 10.3151 59.6869 12.8984C59.6869 15.4815 61.7769 17.5759 64.3547 17.5759C66.9325 17.5759 69.0225 15.4815 69.0225 12.8984C69.0225 10.3151 66.9325 8.22077 64.3547 8.22077Z" fill="#E3E3E3"/>
</g>
<defs>
<clipPath id="clip0_1_808">
<rect width="83.97" height="18.66" fill="white" transform="translate(0.0151367 0.67)"/>
</clipPath>
</defs>
</svg>
