<svg width="24" height="25" viewBox="0 0 24 25" fill="none" xmlns="http://www.w3.org/2000/svg">
<path d="M11 4.87988C11 4.61467 11.1054 4.36031 11.2929 4.17278C11.4804 3.98524 11.7348 3.87988 12 3.87988C12.2652 3.87988 12.5196 3.98524 12.7071 4.17278C12.8946 4.36031 13 4.61467 13 4.87988V20.8799C13 21.1451 12.8946 21.3995 12.7071 21.587C12.5196 21.7745 12.2652 21.8799 12 21.8799C11.7348 21.8799 11.4804 21.7745 11.2929 21.587C11.1054 21.3995 11 21.1451 11 20.8799V4.87988Z" fill="#B8B8B8"/>
<path d="M20 11.8799C20.2652 11.8799 20.5196 11.9852 20.7071 12.1728C20.8946 12.3603 21 12.6147 21 12.8799C21 13.1451 20.8946 13.3995 20.7071 13.587C20.5196 13.7745 20.2652 13.8799 20 13.8799H4C3.73478 13.8799 3.48043 13.7745 3.29289 13.587C3.10536 13.3995 3 13.1451 3 12.8799C3 12.6147 3.10536 12.3603 3.29289 12.1728C3.48043 11.9852 3.73478 11.8799 4 11.8799H20Z" fill="#B8B8B8"/>
</svg>
