<svg width="24" height="25" viewBox="0 0 24 25" fill="none" xmlns="http://www.w3.org/2000/svg">
<g clip-path="url(#clip0_1_1440)">
<path fill-rule="evenodd" clip-rule="evenodd" d="M6.857 0.879883C5.03841 0.879883 3.29431 1.60231 2.00837 2.88825C0.722432 4.17419 0 5.91829 0 7.73688L0 18.0229C0 19.8415 0.722432 21.5856 2.00837 22.8715C3.29431 24.1574 5.03841 24.8799 6.857 24.8799H17.143C18.9616 24.8799 20.7057 24.1574 21.9916 22.8715C23.2776 21.5856 24 19.8415 24 18.0229V7.73688C24 5.91829 23.2776 4.17419 21.9916 2.88825C20.7057 1.60231 18.9616 0.879883 17.143 0.879883L6.857 0.879883ZM16.91 7.83588C16.91 7.83588 14.346 8.93788 13.59 9.28188C11.617 10.1439 5.931 12.5899 5.931 12.5899C4.583 13.1409 5.372 13.6579 5.372 13.6579C5.372 13.6579 6.522 14.0709 7.509 14.3809C8.495 14.6909 9.021 14.3469 9.021 14.3469C9.021 14.3469 11.321 12.7619 13.655 11.0739C15.299 9.90288 14.905 10.8669 14.51 11.2809C13.3816 12.451 12.2311 13.5995 11.059 14.7259C10.533 15.2079 10.796 15.6219 11.026 15.8279C11.695 16.4219 13.271 17.5009 13.986 17.9909C14.185 18.1269 14.317 18.2179 14.346 18.2399C14.51 18.3779 15.43 18.9979 15.989 18.8599C16.548 18.7219 16.614 17.9299 16.614 17.9299C16.614 17.9299 17.041 15.1049 17.435 12.5209L17.65 11.0539C17.827 9.84988 17.97 8.87288 17.994 8.52388C18.093 7.35388 16.91 7.83588 16.91 7.83588Z" fill="#F5F5F5"/>
</g>
<defs>
<clipPath id="clip0_1_1440">
<rect width="24" height="24" fill="white" transform="translate(0 0.879883)"/>
</clipPath>
</defs>
</svg>
