<svg width="201" height="43" viewBox="0 0 201 43" fill="none" xmlns="http://www.w3.org/2000/svg">
<path fill-rule="evenodd" clip-rule="evenodd" d="M0.5 21.7202C0.5 33.3887 9.95455 42.8571 21.606 42.8571C33.2575 42.8571 42.712 33.3887 42.712 21.7202C42.712 10.0516 33.2575 0.583191 21.606 0.583191C9.95455 0.583191 0.5 10.0516 0.5 21.7202ZM1.24538 21.7202C1.24538 10.4445 10.3861 1.29038 21.6453 1.29038C32.9044 1.29038 42.0451 10.4445 42.0451 21.7202C42.0451 32.9565 32.9044 42.1107 21.6453 42.1107C10.3861 42.1499 1.24538 32.9958 1.24538 21.7202Z" fill="#0079C4"/>
<path fill-rule="evenodd" clip-rule="evenodd" d="M7.0899 15.9447C12.5037 12.4088 18.4668 10.3265 28.5882 12.0945C29.1375 11.7802 29.4513 11.4659 29.6082 10.798C27.0975 9.89434 24.3513 9.58003 20.8206 9.61932C17.6429 9.6979 11.9153 10.8765 8.85528 12.6838L9.79681 11.5051C11.9545 10.2479 17.5252 8.59783 21.6837 8.47997C24.6259 8.44068 26.1559 8.59783 29.6475 9.54075C29.3336 8.95143 28.6275 8.63712 27.5682 8.16566C24.1944 6.63343 17.8391 6.51557 12.6606 8.79427C13.3276 8.3621 13.9552 7.96922 14.8183 7.57634C16.5445 6.79058 19.3298 6.04411 22.8213 6.0834C25.6067 6.12269 28.9413 7.10489 30.9813 9.10858C31.3344 9.50146 31.5305 9.93363 31.609 10.2872C33.2174 11.1123 34.159 11.8587 34.669 12.7624C34.8651 13.2338 34.9828 13.7446 34.8651 14.2946C35.532 14.6875 35.8459 15.0411 36.199 15.4732C36.4343 15.8268 36.6305 16.259 36.6697 16.6519C36.7482 17.1626 36.7874 17.7127 36.2774 18.3806C36.8266 18.6556 37.2582 19.402 37.3366 19.7556C37.572 20.9736 36.8266 22.1522 35.7674 23.0951C34.5905 24.1559 31.9621 25.3738 29.8436 25.9239C25.6067 26.9846 21.8798 27.4561 18.8983 28.0061C20.2321 28.3204 22.0367 28.7526 25.0183 28.7526C31.3344 28.7526 36.9051 25.7667 36.9051 25.7667C36.9051 25.7667 36.7874 26.1596 36.6697 26.5132C32.6682 28.949 26.2736 29.9705 23.5667 29.8527C20.7814 29.7348 18.4668 29.3026 16.1914 28.5955C15.4852 28.7919 14.8183 28.9883 14.1514 29.3026C17.6037 30.8742 20.2321 31.2277 23.2136 31.4635C26.2344 31.6992 31.2167 30.9527 35.4536 29.4205C35.2574 29.6169 35.179 29.9312 34.9828 30.0884C32.8251 31.2277 28.2352 32.3671 25.9598 32.4457C23.6844 32.5243 20.899 32.4457 18.4668 32.0135C16.3875 31.6206 14.6614 30.9527 12.896 30.167C12.5822 30.4027 12.4253 30.717 12.3468 31.0706C19.1337 34.6851 25.6459 34.7637 33.0605 32.4457L32.3936 33.1136C24.2336 36.4138 17.8783 35.1173 12.9353 32.76C12.7783 32.6814 12.5822 32.6028 12.4253 32.5243C12.896 33.31 16.6622 36.0602 20.8598 36.4138C23.7629 36.6495 27.2936 36.1388 29.4121 35.3137L28.1567 35.9423C27.1367 36.4531 24.4298 37.5924 20.6637 37.3174C15.6422 36.9638 12.8176 34.7637 11.523 33.585C10.9345 33.035 10.6599 32.4064 10.4637 31.6206C9.32604 31.0313 8.6199 30.4027 8.03144 29.4991C7.67836 28.949 7.75682 28.3597 7.83528 27.849L7.95298 27.3775C7.40375 26.9846 6.85452 26.5525 6.61914 26.1203C6.10914 25.2167 6.42299 24.4702 6.77606 23.8416C6.46222 23.488 6.1876 23.1737 6.06991 22.8201C5.95222 22.3879 5.91299 21.9951 5.95222 21.5629C6.03068 20.8164 6.46222 20.1092 6.97221 19.5199C8.07067 18.2627 9.79681 17.2805 12.7783 16.2983C15.6814 15.3554 16.8191 15.1982 19.016 14.6875C21.566 14.0982 24.6259 13.9017 27.1759 12.9981C20.0752 11.7409 12.6606 12.8802 6.65837 17.0448L7.0899 15.9447ZM31.2951 11.5444C31.2167 11.898 30.8244 12.2909 30.589 12.5659C31.3736 12.7624 32.1582 13.0374 32.9036 13.3517C32.7859 12.6445 32.0013 11.9766 31.2951 11.5444ZM9.40451 25.7667C8.93374 25.4917 8.61989 25.3345 8.26682 25.0595C8.07067 25.4917 8.46297 26.0024 8.85528 26.2382C9.0122 26.081 9.20835 25.9239 9.40451 25.7667ZM33.3744 16.4554C33.8844 16.6912 34.3551 16.8876 34.7867 17.2019C35.1005 16.5733 34.9043 16.1804 34.2374 15.6304C34.002 15.9447 33.6882 16.2197 33.3744 16.4554ZM31.8444 17.3984C30.8244 17.8698 29.2944 18.3806 27.1759 18.9306C25.4498 19.3628 21.1737 19.9914 16.5837 20.9736C15.1322 21.2879 11.2091 22.2308 9.28681 23.8416C9.83604 24.2738 10.1499 24.3916 10.7776 24.7059C11.5622 24.1952 12.6606 23.7237 14.2691 23.2916C17.0937 22.5451 19.1729 22.2308 21.7229 21.7986C24.2336 21.4057 28.9413 20.4235 31.5697 19.4806C32.4328 19.1663 33.2174 18.7734 33.8059 18.302C33.6097 18.1448 31.9228 17.3198 31.8444 17.3984ZM12.0722 28.3597C12.4645 28.124 12.9353 27.8883 13.4452 27.6918C12.6999 27.3775 11.9545 27.0632 11.2091 26.7096C10.856 26.9061 10.5422 27.1418 10.3068 27.3775C10.8953 27.6918 11.4445 28.0454 12.0722 28.3597ZM9.63989 28.5955C9.63989 29.0669 9.9145 29.4991 10.5422 30.0098C10.6207 29.7348 10.7383 29.5777 10.9345 29.3419C10.4637 29.1062 10.0714 28.8312 9.63989 28.5955ZM13.2099 19.8735C18.3491 18.3806 23.7629 17.9091 29.2552 16.4554C27.0975 15.8661 25.9598 15.6304 23.6844 15.9054C20.3891 16.2983 16.7798 17.0055 13.6806 17.9091C12.4645 18.2627 6.06991 20.0699 7.91375 22.6237C7.91375 22.663 9.0122 21.1307 13.2099 19.8735ZM32.5113 14.6089C31.6874 14.216 30.6282 13.8624 29.4905 13.5481C28.9805 13.941 28.4313 14.2946 27.5682 14.6089C28.9413 14.8446 30.0005 15.2375 31.1774 15.5911C31.4128 15.709 32.3544 14.8053 32.5113 14.6089ZM35.0613 19.5592C34.9043 19.6771 34.7474 19.8342 34.5513 19.9521C33.3744 20.8557 31.5305 21.5629 28.9805 22.2701C23.6844 23.6844 19.8398 23.9202 15.446 24.9809C14.5829 25.1774 13.7199 25.4917 12.896 25.806C13.7199 26.2382 14.5829 26.5918 15.4852 26.9454C17.2506 26.4346 18.1137 26.1989 20.7029 25.7667C21.6837 25.6096 24.7044 25.0595 26.9013 24.5881C30.8244 23.8023 36.5913 21.9558 35.0613 19.5592Z" fill="#0079C4"/>
<path fill-rule="evenodd" clip-rule="evenodd" d="M62.918 30.9139H67.2726L67.7826 27.7316H70.7642L71.2741 30.9139H75.6287L71.9411 12.4092H66.5273L62.918 30.9139ZM69.3126 17.9881L70.1365 23.6456H68.528L69.3126 17.9881Z" fill="#0079C4"/>
<path fill-rule="evenodd" clip-rule="evenodd" d="M79.7872 19.5985C80.4933 19.5985 81.7487 19.1664 81.7487 17.7913C81.7487 16.1805 80.2579 16.0626 79.8656 16.0626C79.3556 16.0626 78.4533 16.1412 77.5118 16.5734L77.4726 12.566C78.9241 12.2124 79.9833 12.0945 81.1995 12.0945C84.691 12.0945 86.2994 14.5697 86.2994 16.9662C86.2994 19.3235 84.9263 20.7379 83.6317 21.2879V21.4844C84.8871 21.8772 86.574 23.0952 86.574 25.9239C86.574 29.4205 84.1417 31.3457 81.0425 31.3457C79.3556 31.3457 78.2964 31.1099 77.0018 30.4027L77.0802 26.5525C78.2964 27.0633 79.1202 27.1026 79.9441 27.1026C81.3171 27.1026 81.8664 26.0811 81.8664 25.3346C81.8664 24.3131 81.1995 23.6059 79.7479 23.6059H77.9825V19.5985H79.7872Z" fill="#0079C4"/>
<path fill-rule="evenodd" clip-rule="evenodd" d="M100.306 30.9139H95.9906V16.8488H92.8914V30.9139H88.576V12.4092H100.306V30.9139Z" fill="#0079C4"/>
<path fill-rule="evenodd" clip-rule="evenodd" d="M102.738 30.9139H107.014V24.8243H108.466C112.703 24.8243 114.037 21.0133 114.037 18.5775C114.037 16.1809 112.546 12.4092 108.466 12.4092H102.738V30.9139ZM107.014 16.4952H108.034C109.015 16.4952 109.604 17.0845 109.604 18.6168C109.604 20.6204 108.584 20.7383 108.034 20.7383H107.014V16.4952Z" fill="#0079C4"/>
<path fill-rule="evenodd" clip-rule="evenodd" d="M121.961 31.1492C127.061 31.1492 128.747 26.3954 128.747 21.6415C128.747 16.8877 127.021 12.1338 121.961 12.1338C116.861 12.1338 115.174 16.8877 115.174 21.6415C115.174 26.3954 116.9 31.1492 121.961 31.1492ZM121.961 26.6704C120.47 26.6704 119.685 24.9024 119.685 21.6415C119.685 18.3806 120.47 16.6126 121.961 16.6126C123.491 16.6126 124.236 18.3806 124.236 21.6415C124.275 24.9024 123.491 26.6704 121.961 26.6704Z" fill="#0079C4"/>
<path fill-rule="evenodd" clip-rule="evenodd" d="M147.419 30.9139H152.559C153.657 30.9139 158.286 30.4425 158.326 24.8636C158.326 20.149 154.716 19.3239 152.402 19.3239H151.656V16.8881H157.345V12.4092H147.459V30.9139H147.419ZM151.656 27.2208V23.017H152.284C152.794 23.017 154.128 23.0563 154.128 24.9421C154.128 26.9065 152.755 27.2208 152.284 27.2208H151.656Z" fill="#0079C4"/>
<path fill-rule="evenodd" clip-rule="evenodd" d="M185.12 30.9139H180.962V23.5278H177.941V30.9139H173.743V12.4092H177.941V19.0882H180.962V12.4092H185.12V30.9139Z" fill="#0079C4"/>
<path fill-rule="evenodd" clip-rule="evenodd" d="M200.029 12.4092L196.734 21.2098L200.5 30.9139H195.557L193.164 23.4885H192.144V30.9139H187.946V12.4092H192.144V19.0882H193.046L195.478 12.4092H200.029Z" fill="#0079C4"/>
<path fill-rule="evenodd" clip-rule="evenodd" d="M54.6408 12.4092H63.4284V17.0452H58.9954V30.9139H54.6408V12.4092Z" fill="#0079C4"/>
<path fill-rule="evenodd" clip-rule="evenodd" d="M140.28 30.9139V19.6382L137.691 22.8599L135.102 19.6382V30.9139H130.826V12.4092H134.474L137.691 16.7702L140.908 12.4092H144.556V30.9139H140.28Z" fill="#0079C4"/>
<path fill-rule="evenodd" clip-rule="evenodd" d="M159.152 30.9527H163.506L164.016 27.7703H166.998L167.547 30.9527H171.902L168.214 12.448H162.8L159.152 30.9527ZM165.546 18.0269L166.37 23.6844H164.762L165.546 18.0269Z" fill="#0079C4"/>
</svg>
