<svg width="130" height="37" viewBox="0 0 130 37" fill="none" xmlns="http://www.w3.org/2000/svg">
<mask id="mask0_1_198" style="mask-type:luminance" maskUnits="userSpaceOnUse" x="0" y="0" width="130" height="37">
<path d="M0.5 0.75H129.5V36.75H0.5V0.75Z" fill="white"/>
</mask>
<g mask="url(#mask0_1_198)">
<path d="M46.696 29.55V35.216H49.486C50.647 35.216 51.461 34.626 51.461 33.681C51.461 32.737 50.88 32.324 50.241 32.265V32.205C50.821 32.088 51.228 31.615 51.228 30.907C51.228 30.317 50.938 29.55 49.368 29.55H46.696ZM48.149 30.553H49.02C49.31 30.553 49.892 30.553 49.892 31.143C49.892 31.733 49.311 31.733 49.02 31.733H48.149V30.553ZM58.609 29.55V31.91C58.609 33.15 58.782 34.212 57.911 34.212L57.678 34.153L57.562 35.216L55.354 32.265L57.33 29.609H55.76L54.018 32.147H53.959V29.668H52.507V35.334H53.96V32.619L55.877 35.334H57.62C57.795 35.452 57.969 35.452 58.201 35.452C59.712 35.452 59.945 34.862 59.945 31.97V30.67H61.63V35.274H63.082V29.608H58.608L58.609 29.55ZM64.593 31.025C65.174 30.612 65.755 30.553 66.336 30.553C66.511 30.553 67.499 30.553 67.615 31.497V31.734H66.743C64.419 31.734 64.013 32.796 64.013 33.622C64.013 34.507 64.593 35.392 65.93 35.392C67.092 35.392 67.499 34.684 67.673 34.448V35.275H69.126V31.734C69.126 30.848 68.893 29.491 66.627 29.491C65.93 29.491 65.29 29.609 64.651 29.904V31.025H64.593ZM67.615 32.678V32.796C67.615 34.036 66.918 34.33 66.337 34.33C65.697 34.33 65.465 33.976 65.465 33.563C65.465 32.678 66.627 32.619 67.382 32.619H67.615V32.678ZM70.985 29.55V31.38C70.985 32.5 70.927 33.327 70.23 34.153H69.649V36.75H70.985V35.275H74.878V36.75H76.215V34.212H75.285V29.61H70.985V29.55ZM71.625 34.212C72.205 33.327 72.205 32.442 72.205 31.557V30.671H73.832V34.212H71.625ZM76.505 32.442C76.505 34.33 77.668 35.392 79.295 35.392C80.98 35.392 82.2 34.33 82.2 32.442C82.2 30.494 80.98 29.491 79.295 29.491C77.725 29.491 76.505 30.495 76.505 32.442ZM78.016 32.441C78.016 31.083 78.713 30.611 79.353 30.611C80.166 30.611 80.631 31.379 80.631 32.441C80.631 33.621 80.166 34.271 79.295 34.271C78.713 34.271 78.016 33.739 78.016 32.441ZM83.072 29.549V35.215H85.861C87.081 35.215 87.895 34.625 87.895 33.68C87.895 32.736 87.314 32.323 86.616 32.264V32.204C87.197 32.087 87.662 31.614 87.662 30.906C87.662 30.316 87.313 29.549 85.745 29.549H83.072ZM84.466 30.552H85.396C85.686 30.552 86.21 30.552 86.21 31.142C86.21 31.732 85.745 31.732 85.396 31.732H84.466V30.552ZM84.466 32.795H85.396C85.745 32.795 86.384 32.795 86.384 33.503C86.384 34.27 85.686 34.27 85.396 34.27H84.466V32.795ZM123.108 18.572V16.27H121.597V21.995H123.108V19.635H123.922C124.038 21.11 125.142 22.113 126.711 22.113C128.338 22.113 129.5 21.051 129.5 19.163C129.5 17.273 128.338 16.211 126.711 16.211C125.258 16.211 124.038 17.097 123.922 18.572H123.108ZM125.432 19.162C125.432 17.864 126.072 17.274 126.711 17.274C127.582 17.274 128.047 18.041 128.047 19.162C128.047 20.342 127.466 21.051 126.711 21.051C126.13 21.051 125.432 20.461 125.432 19.162ZM114.973 16.27V21.995H116.542L118.982 17.982V21.995H120.377V16.27H118.808L116.426 20.283H116.368V16.33H114.973V16.27ZM108.581 16.27V21.995H110.034V19.635H112.358V21.995H113.811V16.27H112.358V18.454H110.034V16.27H108.581ZM102.945 17.746C103.526 17.392 104.107 17.215 104.688 17.215C104.92 17.215 105.85 17.274 105.966 18.218V18.454H104.978C102.654 18.454 102.247 19.575 102.247 20.284C102.247 21.228 102.828 22.054 104.223 22.054C105.385 22.054 105.792 21.404 105.908 21.11V21.995H107.361V18.335C107.361 17.451 107.186 16.152 104.92 16.152C104.223 16.152 103.584 16.212 102.945 16.506V17.746ZM105.966 19.398V19.575C105.966 20.755 105.211 21.051 104.63 21.051C103.991 21.051 103.7 20.756 103.7 20.283C103.7 19.339 104.862 19.339 105.676 19.339H105.966V19.398ZM96.786 16.27V21.995H99.574C100.736 21.995 101.608 21.405 101.608 20.402C101.608 19.457 100.969 19.044 100.388 19.044V18.985C100.969 18.867 101.376 18.395 101.376 17.687C101.376 17.097 101.085 16.27 99.516 16.27H96.786ZM98.296 17.274H99.168C99.458 17.274 99.981 17.274 99.981 17.864C99.981 18.513 99.458 18.513 99.168 18.513H98.296V17.274ZM98.296 19.515H99.168C99.574 19.515 100.155 19.515 100.155 20.282C100.155 21.05 99.516 21.05 99.225 21.05H98.296V19.515ZM90.277 19.161C90.277 21.05 91.497 22.111 93.182 22.111C94.752 22.111 95.972 21.05 95.972 19.161C95.972 17.214 94.81 16.211 93.182 16.211C91.497 16.211 90.277 17.214 90.277 19.161ZM91.787 19.161C91.787 17.863 92.485 17.273 93.124 17.273C93.88 17.273 94.461 18.04 94.461 19.161C94.461 20.341 93.88 21.05 93.124 21.05C92.485 21.05 91.787 20.46 91.787 19.161ZM84.351 16.269L86.036 19.102L84.176 22.052H85.746L86.617 20.519L86.966 19.81L87.315 20.518L88.245 21.994H89.988L88.07 19.044L89.813 16.269H88.186L87.431 17.627L87.141 18.276L86.791 17.686L85.978 16.269H84.351ZM79.121 17.745C79.761 17.391 80.283 17.214 80.923 17.214C81.097 17.214 82.085 17.273 82.143 18.217V18.453H81.271C78.947 18.453 78.541 19.574 78.541 20.283C78.541 21.227 79.063 22.053 80.458 22.053C81.62 22.053 82.027 21.403 82.201 21.109V21.994H83.654V18.334C83.654 17.45 83.421 16.151 81.155 16.151C80.458 16.151 79.819 16.211 79.179 16.505V17.745H79.121ZM82.085 19.397V19.574C82.085 20.754 81.387 21.05 80.806 21.05C80.167 21.05 79.935 20.755 79.935 20.282C79.935 19.338 81.097 19.338 81.91 19.338H82.085V19.397ZM73.95 24.414V21.286C74.12 21.562 74.362 21.786 74.649 21.931C74.936 22.076 75.257 22.14 75.577 22.111C76.739 22.111 77.901 21.286 77.901 19.161C77.901 17.036 76.855 16.211 75.577 16.211C75.2195 16.2231 74.8712 16.3272 74.5657 16.5133C74.2602 16.6993 74.0079 16.961 73.833 17.273V16.27H72.555V24.415H74.008L73.95 24.414ZM73.95 19.161C73.95 17.981 74.647 17.391 75.228 17.391C75.809 17.391 76.448 17.981 76.448 19.161C76.448 20.401 75.809 20.931 75.228 20.931C74.647 20.931 74.008 20.341 74.008 19.161H73.95ZM66.977 16.269V17.449H68.72V21.994H70.173V17.45H71.916V16.27L66.977 16.269ZM66.744 16.387C66.338 16.21 65.873 16.21 65.466 16.21C63.548 16.21 62.56 17.627 62.56 19.161C62.56 20.637 63.432 22.111 65.408 22.111C65.988 22.111 66.57 21.994 66.802 21.876V20.814C66.4351 20.9719 66.0395 21.0522 65.64 21.05C64.652 21.05 64.071 20.223 64.071 19.161C64.071 18.04 64.827 17.273 65.815 17.273C66.112 17.286 66.406 17.346 66.686 17.45V16.387H66.744ZM52.682 19.161C52.682 21.05 53.844 22.111 55.529 22.111C57.156 22.111 58.377 21.05 58.377 19.161C58.377 17.214 57.215 16.211 55.529 16.211C53.902 16.211 52.682 17.214 52.682 19.161ZM54.135 19.161C54.135 17.863 54.832 17.273 55.471 17.273C56.285 17.273 56.808 18.04 56.808 19.161C56.808 20.341 56.227 21.05 55.471 21.05C54.891 21.05 54.135 20.46 54.135 19.161ZM46.697 16.269V21.994H48.15V17.45H50.358V21.994H51.811V16.27L46.697 16.269ZM91.265 5.884C91.265 7.832 92.427 8.835 94.055 8.835C95.739 8.835 96.959 7.773 96.959 5.885C96.959 3.995 95.739 2.934 94.054 2.934C92.427 2.934 91.265 3.996 91.265 5.884ZM92.774 5.884C92.774 4.586 93.414 3.996 94.054 3.996C94.867 3.996 95.389 4.763 95.389 5.884C95.389 7.006 94.867 7.714 94.053 7.714C93.472 7.714 92.774 7.183 92.774 5.884ZM85.745 3.052V8.717H88.475C89.755 8.717 90.568 8.127 90.568 7.124C90.568 6.18 89.928 5.766 89.289 5.766C89.87 5.589 90.277 5.176 90.277 4.468C90.277 3.878 89.987 3.052 88.417 3.052H85.745ZM87.197 3.996H88.069C88.359 3.996 88.94 4.055 88.94 4.586C88.94 5.236 88.36 5.236 88.069 5.236H87.197V3.994M87.197 6.237H88.069C88.418 6.237 89.057 6.237 89.057 7.004C89.057 7.771 88.359 7.771 88.069 7.771H87.197V6.237ZM80.224 3.05V4.171H81.909V8.774H83.362V4.114H85.047V3.052H80.108L80.224 3.05ZM79.876 3.05L78.713 2.932C76.738 2.932 75.692 4.289 75.692 5.823C75.692 7.357 76.622 8.774 78.597 8.774C79.178 8.774 79.76 8.656 79.992 8.538V7.478C79.585 7.596 79.237 7.714 78.83 7.714C77.842 7.714 77.26 6.888 77.26 5.884C77.26 4.704 78.016 3.996 79.004 3.996C79.318 3.984 79.632 4.024 79.934 4.114L79.876 3.05ZM70.52 3.05V4.171H72.205V8.774H73.658V4.114H75.401V3.052L70.52 3.05ZM64.71 3.05V8.715H66.104V6.24H68.428V8.718H69.881V3.052H68.428V5.176H66.104V3.111H64.651L64.71 3.05ZM63.78 6.355V6C63.78 5.47 63.78 2.932 61.223 2.932C59.77 2.932 58.492 4.112 58.492 5.882C58.492 7.889 59.828 8.833 61.455 8.833C62.095 8.833 62.792 8.656 63.373 8.479V7.299C62.908 7.594 62.269 7.712 61.63 7.712C60.526 7.712 60.06 7.062 60.06 6.355H63.78ZM60.119 5.292C60.119 4.525 60.526 3.994 61.223 3.994C61.746 3.994 62.385 4.348 62.385 5.292H60.061H60.119ZM54.366 3.109V8.774H55.819V4.173H58.143V2.993H54.366V3.109ZM49.136 1.045L46.173 8.717H47.742L48.382 7.065H51.461L52.1 8.776H53.843L50.822 0.986H49.078L49.136 1.045ZM48.846 5.766L49.892 2.58L51.054 5.707H48.846V5.766ZM48.149 32.796H49.02C49.427 32.796 50.066 32.796 50.066 33.504C50.066 34.271 49.369 34.271 49.078 34.271H48.207V32.796H48.149ZM15.027 0.75C17.177 1.104 18.687 2.698 20.489 4.645L31.879 16.685L37.573 11.019L32.459 5.53C29.612 2.52 26.94 0.75 23.162 0.75H15.027ZM0.5 24.947L5.672 30.553C8.461 33.563 11.134 35.275 14.969 35.275H23.104C20.896 34.98 19.385 33.386 17.526 31.439L6.195 19.34L0.5 24.947Z" fill="#003595"/>
</g>
<mask id="mask1_1_198" style="mask-type:luminance" maskUnits="userSpaceOnUse" x="0" y="0" width="130" height="37">
<path d="M0.5 0.75H129.5V36.75H0.5V0.75Z" fill="white"/>
</mask>
<g mask="url(#mask1_1_198)">
<path fill-rule="evenodd" clip-rule="evenodd" d="M7.24 3.93709L0.5 11.0771L6.195 17.0391L14.272 8.42209C15.259 7.36009 16.305 7.65509 17.061 8.54009L25.138 16.8031L26.823 15.0321L16.422 4.11409C15.82 3.43452 15.0861 2.88438 14.265 2.49709C13.4477 2.11213 12.56 1.89906 11.657 1.87109C10.03 1.87109 8.519 2.58009 7.241 3.93709M23.861 27.6621C22.873 28.7241 21.827 28.4291 21.071 27.5441L12.994 19.2811L11.309 21.1111L21.71 31.9111C24.383 34.6841 28.277 34.9801 30.892 32.0881L37.632 25.0061L31.822 19.0461L23.861 27.6621Z" fill="#21A038"/>
</g>
</svg>
