<svg width="140" height="141" viewBox="0 0 140 141" fill="none" xmlns="http://www.w3.org/2000/svg">
<g clip-path="url(#clip0_1_154)">
<path d="M84.8485 17.7198L89.8831 11.2147C85.9136 4.92703 78.9045 0.75 70.9191 0.75H21.8485C12.1248 0.75 4.24243 8.63238 4.24243 18.3561V106.174C4.24243 113.355 8.54224 119.53 14.7072 122.269L21.2122 119.396L84.8485 17.7198Z" fill="#88CF71"/>
<path d="M37.8282 123.769L92.793 34.6424V18.26C92.227 15.7219 91.2292 13.3474 89.8828 11.2148H38.8181C25.5233 11.2148 14.7069 22.0312 14.7069 35.326V122.269C16.7101 123.159 18.9094 123.689 21.2232 123.769H37.8282Z" fill="#6DC34D"/>
<path d="M110.303 123.144C110.303 119.72 110.303 46.6699 110.303 43.1741C110.271 43.1423 84.8792 17.7501 84.8486 17.7195H68.436C18.9023 25.026 10.7946 131.181 68.436 140.75H92.697C102.421 140.75 110.303 132.868 110.303 123.144Z" fill="#F0F0F9"/>
<path d="M43.6212 79.2347C43.6212 53.4457 53.5027 30.7723 68.4357 17.7195H38.818C29.0943 17.7195 21.2119 25.6019 21.2119 35.3256V123.144C21.2119 132.871 29.0962 140.75 38.818 140.75H68.4359C53.503 127.697 43.6212 105.024 43.6212 79.2347Z" fill="#D7D7F9"/>
<path d="M110.303 40.1337V43.174H95.2424C89.501 43.174 84.8485 38.5215 84.8485 32.7801V17.7197H87.8889C89.5746 17.7197 91.215 17.9065 92.7932 18.26C102.814 20.4943 110.303 29.4401 110.303 40.1337Z" fill="#D7D7F9"/>
<path d="M97.5757 111.053H49.0031C45.0322 112.467 45.584 113.881 50.6541 115.295H97.576C98.7474 115.295 99.6973 114.346 99.6973 113.174C99.6973 112.002 98.7474 111.053 97.5757 111.053Z" fill="#5FD8FB"/>
<path d="M33.9393 111.053C32.7679 111.053 31.818 112.003 31.818 113.174C31.818 114.346 32.7676 115.296 33.9393 115.296H50.6537C50.0708 113.908 49.5192 112.495 49.0027 111.053L33.9393 111.053Z" fill="#02C6F9"/>
<path d="M50.9092 102.568C52.0806 102.568 53.0306 101.619 53.0306 100.447C53.0306 99.2753 52.0809 98.3257 50.9092 98.3257H45.4892C41.841 99.7394 42.1568 101.154 46.4385 102.568H50.9092V102.568Z" fill="#5FD8FB"/>
<path d="M31.818 100.447C31.818 101.619 32.7676 102.568 33.9393 102.568H46.4381C46.0906 101.173 45.7748 99.7576 45.4888 98.3259H33.9393C32.7679 98.3257 31.818 99.2753 31.818 100.447Z" fill="#02C6F9"/>
<path d="M76.3635 89.8408C77.5349 89.8408 78.4848 88.8912 78.4848 87.7195C78.4848 86.5478 77.5352 85.5981 76.3635 85.5981H43.8299C40.2498 87.0124 40.3717 88.4263 44.1936 89.8405H76.3635V89.8408Z" fill="#5FD8FB"/>
<path d="M31.818 87.7197C31.818 88.8914 32.7676 89.841 33.9393 89.841H44.1935C44.0428 88.4391 43.9209 87.0249 43.8298 85.5986H33.9393C32.7679 85.5984 31.818 86.548 31.818 87.7197Z" fill="#02C6F9"/>
<path d="M89.091 77.1138C90.2624 77.1138 91.2123 76.1641 91.2123 74.9924C91.2123 73.8207 90.2626 72.8711 89.091 72.8711H43.83C39.3565 74.2708 39.2474 75.6845 43.6467 77.1135H89.091V77.1138Z" fill="#5FD8FB"/>
<path d="M31.818 74.9924C31.818 76.1641 32.7676 77.1137 33.9393 77.1137H43.6466C43.6767 75.6886 43.7401 74.2749 43.8298 72.8713H33.9393C32.7679 72.8713 31.818 73.8207 31.818 74.9924Z" fill="#02C6F9"/>
<path d="M97.5756 64.3862C98.747 64.3862 99.6969 63.4366 99.6969 62.2649C99.6969 61.0932 98.7473 60.1436 97.5756 60.1436H45.4888C40.8021 61.5572 40.5543 62.9723 44.744 64.3859H97.5756V64.3862Z" fill="#5FD8FB"/>
<path d="M31.818 62.2653C31.818 63.4367 32.7676 64.3867 33.9393 64.3867H44.7439C44.9621 62.9571 45.2099 61.5421 45.4888 60.1443H33.9393C32.7679 60.144 31.818 61.0937 31.818 62.2653Z" fill="#02C6F9"/>
<path d="M67.8787 51.6592C69.0501 51.6592 70 50.7095 70 49.5378C70 48.3662 69.0504 47.4165 67.8787 47.4165H49.003C44.7842 48.3593 44.3171 49.7735 47.6044 51.6589H67.8787V51.6592Z" fill="#5FD8FB"/>
<path d="M31.818 49.5378C31.818 50.7092 32.7676 51.6591 33.9393 51.6591H47.6044C48.0378 50.2214 48.5051 48.8072 49.003 47.4167H33.9393C32.7679 47.4167 31.818 48.3664 31.818 49.5378Z" fill="#02C6F9"/>
<path d="M70 102.568H61.5152C60.3438 102.568 59.3939 101.619 59.3939 100.447C59.3939 99.2753 60.3436 98.3257 61.5152 98.3257H70C71.1714 98.3257 72.1213 99.2753 72.1213 100.447C72.1213 101.619 71.1714 102.568 70 102.568Z" fill="#5FD8FB"/>
<path d="M130.274 72.6761L124.272 78.6748C118.027 84.9195 106.029 72.9219 112.274 66.6772L118.276 60.6785C123.829 55.1255 135.826 67.1231 130.274 72.6761Z" fill="#FAE380"/>
<path d="M133.272 57.6778C136.586 60.9927 136.586 66.3606 133.272 69.6754L130.274 72.6761L118.276 60.6785L121.274 57.6778C124.586 54.3629 129.96 54.3629 133.272 57.6778Z" fill="#F97A6E"/>
<path d="M95.7739 107.176L94.934 108.013C92.5668 110.383 89.4584 111.876 86.1295 112.247L80.4098 112.882C79.059 113.032 77.9174 111.89 78.0675 110.54L78.7027 104.82C79.0732 101.491 80.5665 98.3856 82.9366 96.0154L83.7766 95.1782C90.9245 88.03 102.922 100.028 95.7739 107.176Z" fill="#D77953"/>
<path d="M124.272 78.6749C123.951 78.9959 95.9418 107.008 95.7742 107.176L83.7766 95.1779C86.8974 92.0569 108.708 70.2437 112.274 66.6772L124.272 78.6749Z" fill="#5DC871"/>
</g>
<defs>
<clipPath id="clip0_1_154">
<rect width="140" height="140" fill="white" transform="translate(0 0.75)"/>
</clipPath>
</defs>
</svg>
