<svg width="140" height="141" viewBox="0 0 140 141" fill="none" xmlns="http://www.w3.org/2000/svg">
<g clip-path="url(#clip0_1_182)">
<path fill-rule="evenodd" clip-rule="evenodd" d="M70 0.25C108.659 0.25 140 31.5898 140 70.25C140 108.91 108.659 140.25 70 140.25C31.3411 140.25 0 108.911 0 70.25C0 31.5889 31.3414 0.25 70 0.25Z" fill="#4CAF50"/>
<path fill-rule="evenodd" clip-rule="evenodd" d="M108.366 89.7669L95.4297 82.2983C94.2171 81.6016 92.7779 81.4136 91.427 81.7754C90.0762 82.1373 88.9236 83.0195 88.2216 84.229L87.7122 85.1125C87.0943 86.1828 86.2563 87.11 85.2537 87.8326C84.251 88.5552 83.1065 89.057 81.8956 89.3047C80.6848 89.5524 79.4351 89.5404 78.2292 89.2695C77.0233 88.9987 75.8886 88.4751 74.9 87.7334C70.6707 84.547 66.6718 81.0656 62.9333 77.3154C59.1828 73.5769 55.7014 69.5777 52.5153 65.3479C51.7737 64.3595 51.2502 63.2251 50.9792 62.0195C50.7083 60.8139 50.6962 59.5646 50.9436 58.354C51.1911 57.1434 51.6925 55.999 52.4148 54.9964C53.1371 53.9939 54.0638 53.1559 55.1338 52.5379L56.0164 52.0276C57.2261 51.3255 58.1086 50.1728 58.4708 48.8218C58.833 47.4708 58.6455 46.0313 57.9494 44.8182L50.4801 31.8821C49.8531 30.7821 48.8491 29.9461 47.6538 29.5286C46.4584 29.1111 45.1523 29.1402 43.9767 29.6107L43.8154 29.6736C41.323 30.6456 34.2062 33.2668 32.3835 35.0898C32.0876 35.3858 31.8098 35.6993 31.5517 36.0288C27.0829 41.7379 29.3243 51.017 31.6838 57.1048C36.0281 68.3138 44.2654 79.0958 52.7089 87.5384C61.1524 95.9811 71.9338 104.221 83.1425 108.564C87.0283 110.07 91.4042 111.262 95.5987 111.262C99.1107 111.262 102.613 110.409 105.16 107.864C106.957 106.067 109.606 98.8885 110.578 96.4216L110.64 96.2619C111.111 95.0872 111.14 93.7818 110.721 92.5875C110.303 91.3932 109.466 90.391 108.366 89.7664L108.366 89.7669ZM68.9749 35.6654C68.9749 34.9402 69.263 34.2447 69.7758 33.7319C70.2886 33.2191 70.9841 32.931 71.7093 32.931C81.1524 32.9315 90.2086 36.683 96.8858 43.3603C103.563 50.0376 107.315 59.0939 107.315 68.537C107.315 69.2622 107.027 69.9577 106.514 70.4705C106.001 70.9833 105.306 71.2713 104.581 71.2713C103.855 71.2713 103.16 70.9833 102.647 70.4705C102.134 69.9577 101.846 69.2622 101.846 68.537C101.845 60.5444 98.6699 52.8793 93.0182 47.2277C87.3666 41.5761 79.7016 38.4006 71.709 38.3998C70.9838 38.3998 70.2883 38.1117 69.7755 37.5989C69.2627 37.0861 68.9746 36.3906 68.9746 35.6654H68.9749ZM68.9749 50.9303C68.9749 50.2051 69.263 49.5096 69.7758 48.9968C70.2886 48.484 70.9841 48.196 71.7093 48.196C77.102 48.2022 82.2721 50.3472 86.0853 54.1605C89.8985 57.9738 92.0434 63.144 92.0495 68.5367C92.0495 69.2619 91.7614 69.9574 91.2486 70.4702C90.7358 70.983 90.0403 71.2711 89.3151 71.2711C88.5899 71.2711 87.8944 70.983 87.3816 70.4702C86.8688 69.9574 86.5807 69.2619 86.5807 68.5367C86.5763 64.5938 85.0081 60.8136 82.2201 58.0255C79.432 55.2374 75.6519 53.669 71.709 53.6644C70.9839 53.6644 70.2885 53.3763 69.7758 52.8635C69.2631 52.3508 68.975 51.6554 68.9749 50.9303Z" fill="white"/>
</g>
<defs>
<clipPath id="clip0_1_182">
<rect width="140" height="140" fill="white" transform="translate(0 0.25)"/>
</clipPath>
</defs>
</svg>
