<svg width="142" height="30" viewBox="0 0 142 30" fill="none" xmlns="http://www.w3.org/2000/svg">
<path fill-rule="evenodd" clip-rule="evenodd" d="M0 15C0 23.2807 6.70949 30 14.978 30C23.2466 30 29.9561 23.2807 29.9561 15C29.9561 6.71933 23.2466 0 14.978 0C6.70949 0 0 6.71933 0 15ZM0.528964 15C0.528964 6.99814 7.01574 0.501859 15.0059 0.501859C22.996 0.501859 29.4828 6.99814 29.4828 15C29.4828 22.974 22.996 29.4703 15.0059 29.4703C7.01574 29.4981 0.528964 23.0019 0.528964 15Z" fill="white"/>
<path fill-rule="evenodd" clip-rule="evenodd" d="M4.67657 10.9014C8.51852 8.39211 12.7502 6.91441 19.933 8.16906C20.3228 7.94601 20.5455 7.72296 20.6569 7.24899C18.8751 6.60772 16.9263 6.38467 14.4206 6.41255C12.1656 6.46832 8.10092 7.30475 5.92938 8.58728L6.59755 7.75084C8.12876 6.85865 12.0821 5.68765 15.0331 5.604C17.1212 5.57612 18.2069 5.68765 20.6847 6.35679C20.462 5.93858 19.9609 5.71553 19.2092 5.38096C16.8149 4.29359 12.3048 4.20995 8.62988 5.82705C9.10317 5.52036 9.54861 5.24155 10.1611 4.96274C11.3861 4.40512 13.3627 3.87538 15.8405 3.90326C17.8172 3.93114 20.1836 4.62817 21.6313 6.0501C21.8818 6.32891 22.021 6.6356 22.0767 6.88653C23.2182 7.47203 23.8863 8.00177 24.2482 8.64304C24.3874 8.97761 24.471 9.34006 24.3874 9.7304C24.8607 10.0092 25.0835 10.2601 25.334 10.5668C25.5011 10.8178 25.6403 11.1245 25.6681 11.4033C25.7238 11.7657 25.7516 12.156 25.3897 12.63C25.7795 12.8252 26.0857 13.3549 26.1414 13.6059C26.3084 14.4702 25.7795 15.3066 25.0278 15.9758C24.1926 16.7285 22.3273 17.5929 20.8239 17.9832C17.8172 18.736 15.1723 19.0705 13.0565 19.4609C14.003 19.6839 15.2837 19.9906 17.3996 19.9906C21.8818 19.9906 25.8351 17.8717 25.8351 17.8717C25.8351 17.8717 25.7516 18.1505 25.6681 18.4014C22.8284 20.13 18.2904 20.8549 16.3695 20.7713C14.3928 20.6876 12.7502 20.381 11.1355 19.8791C10.6344 20.0185 10.1611 20.1579 9.68781 20.381C12.1378 21.4962 14.003 21.7471 16.1189 21.9144C18.2626 22.0817 21.7983 21.552 24.805 20.4646C24.6658 20.604 24.6102 20.8271 24.471 20.9386C22.9398 21.7471 19.6825 22.5557 18.0677 22.6114C16.453 22.6672 14.4763 22.6114 12.7502 22.3047C11.2747 22.0259 10.0497 21.552 8.79692 20.9943C8.5742 21.1616 8.46284 21.3847 8.40716 21.6356C13.2235 24.2007 17.845 24.2564 23.1068 22.6114L22.6335 23.0854C16.8427 25.4274 12.3326 24.5074 8.82476 22.8345C8.7134 22.7787 8.5742 22.723 8.46284 22.6672C8.79692 23.2248 11.4696 25.1765 14.4485 25.4274C16.5087 25.5947 19.0143 25.2323 20.5177 24.6468L19.6268 25.0929C18.9029 25.4553 16.9819 26.2639 14.3093 26.0687C10.7457 25.8178 8.74124 24.2564 7.82252 23.42C7.40491 23.0297 7.21003 22.5836 7.07083 22.0259C6.26346 21.6077 5.76234 21.1616 5.34474 20.5204C5.09417 20.13 5.14986 19.7118 5.20554 19.3494L5.28906 19.0148C4.89929 18.736 4.50953 18.4293 4.34249 18.1226C3.98057 17.4813 4.20329 16.9516 4.45385 16.5055C4.23113 16.2546 4.03625 16.0315 3.95273 15.7806C3.8692 15.4739 3.84136 15.1951 3.8692 14.8884C3.92489 14.3587 4.23113 13.8568 4.59305 13.4386C5.37258 12.5464 6.59755 11.8494 8.7134 11.1523C10.7736 10.4832 11.5809 10.3717 13.14 10.0092C14.9496 9.59099 17.1212 9.45159 18.9308 8.81032C13.8917 7.91813 8.62988 8.72668 4.37033 11.6821L4.67657 10.9014ZM21.854 7.77873C21.7983 8.02965 21.5199 8.30847 21.3529 8.50363C21.9097 8.64304 22.4665 8.83821 22.9954 9.06125C22.9119 8.55939 22.3551 8.08542 21.854 7.77873ZM6.31914 17.8717C5.98506 17.6765 5.76234 17.565 5.51178 17.3698C5.37258 17.6765 5.65098 18.039 5.92938 18.2062C6.04074 18.0947 6.17994 17.9832 6.31914 17.8717ZM23.3295 11.2639C23.6914 11.4311 24.0255 11.5705 24.3318 11.7936C24.5545 11.3475 24.4153 11.0687 23.942 10.6784C23.775 10.9014 23.5522 11.0966 23.3295 11.2639ZM22.2438 11.933C21.5199 12.2676 20.4341 12.63 18.9308 13.0204C17.7058 13.3271 14.6712 13.7732 11.4139 14.4702C10.3838 14.6932 7.59979 15.3624 6.23562 16.5055C6.62539 16.8122 6.84811 16.8958 7.29355 17.1189C7.85036 16.7564 8.62988 16.4218 9.77133 16.1152C11.7758 15.5854 13.2514 15.3624 15.061 15.0557C16.8427 14.7769 20.1836 14.0798 22.0489 13.4107C22.6614 13.1876 23.2182 12.9088 23.6358 12.5743C23.4966 12.4627 22.2994 11.8772 22.2438 11.933ZM8.21228 19.7118C8.49068 19.5445 8.82476 19.3772 9.18669 19.2378C8.65772 19.0148 8.12876 18.7917 7.59979 18.5408C7.34923 18.6802 7.12651 18.8475 6.95947 19.0148C7.37707 19.2378 7.76684 19.4888 8.21228 19.7118ZM6.48619 19.8791C6.48619 20.2137 6.68107 20.5204 7.12651 20.8828C7.18219 20.6876 7.26571 20.5761 7.40491 20.4088C7.07083 20.2416 6.79243 20.0464 6.48619 19.8791ZM9.01965 13.6895C12.6667 12.63 16.5087 12.2955 20.4063 11.2639C18.8751 10.8456 18.0677 10.6784 16.453 10.8735C14.1144 11.1523 11.5531 11.6542 9.35373 12.2955C8.49068 12.5464 3.95273 13.8289 5.26122 15.6412C5.26122 15.6691 6.04074 14.5817 9.01965 13.6895ZM22.717 9.95345C22.1324 9.67464 21.3807 9.42371 20.5733 9.20066C20.2114 9.47947 19.8217 9.7304 19.2092 9.95345C20.1836 10.1207 20.9353 10.3995 21.7705 10.6505C21.9375 10.7341 22.6057 10.0929 22.717 9.95345ZM24.5266 13.4665C24.4153 13.5501 24.3039 13.6616 24.1647 13.7453C23.3295 14.3865 22.021 14.8884 20.2114 15.3903C16.453 16.394 13.7246 16.5613 10.6065 17.314C9.99405 17.4534 9.38157 17.6765 8.79692 17.8995C9.38157 18.2062 9.99405 18.4572 10.6344 18.7081C11.8872 18.3456 12.4997 18.1784 14.3371 17.8717C15.0331 17.7601 17.1768 17.3698 18.7359 17.0352C21.5199 16.4776 25.6124 15.1672 24.5266 13.4665Z" fill="white"/>
<path fill-rule="evenodd" clip-rule="evenodd" d="M44.2954 21.5244H47.3857L47.7476 19.266H49.8635L50.2254 21.5244H53.3156L50.6987 8.39244H46.8567L44.2954 21.5244ZM48.8334 12.3515L49.418 16.3664H48.2766L48.8334 12.3515Z" fill="white"/>
<path fill-rule="evenodd" clip-rule="evenodd" d="M56.2667 13.4944C56.7678 13.4944 57.6587 13.1877 57.6587 12.2118C57.6587 11.0687 56.6008 10.9851 56.3224 10.9851C55.9605 10.9851 55.3201 11.0408 54.652 11.3475L54.6241 8.50367C55.6542 8.25274 56.4059 8.1691 57.2689 8.1691C59.7467 8.1691 60.8882 9.9256 60.8882 11.6263C60.8882 13.2992 59.9138 14.3029 58.995 14.6933V14.8327C59.8859 15.1115 61.0831 15.9758 61.0831 17.9832C61.0831 20.4646 59.357 21.8308 57.1576 21.8308C55.9605 21.8308 55.2088 21.6635 54.29 21.1617L54.3457 18.4293C55.2088 18.7918 55.7934 18.8197 56.3781 18.8197C57.3525 18.8197 57.7422 18.0947 57.7422 17.565C57.7422 16.8401 57.2689 16.3382 56.2389 16.3382H54.986V13.4944H56.2667Z" fill="white"/>
<path fill-rule="evenodd" clip-rule="evenodd" d="M70.828 21.5244H67.7656V11.543H65.5662V21.5244H62.5038V8.39244H70.828V21.5244Z" fill="white"/>
<path fill-rule="evenodd" clip-rule="evenodd" d="M72.5541 21.5244H75.5887V17.2029H76.6188C79.6255 17.2029 80.5721 14.4984 80.5721 12.7698C80.5721 11.069 79.5141 8.39244 76.6188 8.39244H72.5541V21.5244ZM75.5887 11.2921H76.3125C77.0085 11.2921 77.4261 11.7103 77.4261 12.7976C77.4261 14.2196 76.7023 14.3032 76.3125 14.3032H75.5887V11.2921Z" fill="white"/>
<path fill-rule="evenodd" clip-rule="evenodd" d="M86.1954 21.6914C89.8146 21.6914 91.0117 18.3178 91.0117 14.9442C91.0117 11.5706 89.7868 8.19698 86.1954 8.19698C82.5762 8.19698 81.379 11.5706 81.379 14.9442C81.379 18.3178 82.604 21.6914 86.1954 21.6914ZM86.1954 18.513C85.1375 18.513 84.5807 17.2583 84.5807 14.9442C84.5807 12.6301 85.1375 11.3754 86.1954 11.3754C87.2812 11.3754 87.8101 12.6301 87.8101 14.9442C87.838 17.2583 87.2812 18.513 86.1954 18.513Z" fill="white"/>
<path fill-rule="evenodd" clip-rule="evenodd" d="M104.262 21.5244H107.91C108.689 21.5244 111.974 21.1898 112.002 17.2307C112.002 13.885 109.441 13.2995 107.798 13.2995H107.269V11.5709H111.306V8.39244H104.29V21.5244H104.262ZM107.269 18.9036V15.9203H107.715C108.077 15.9203 109.023 15.9482 109.023 17.2865C109.023 18.6805 108.049 18.9036 107.715 18.9036H107.269Z" fill="white"/>
<path fill-rule="evenodd" clip-rule="evenodd" d="M131.017 21.5244H128.066V16.2828H125.922V21.5244H122.943V8.39244H125.922V13.1322H128.066V8.39244H131.017V21.5244Z" fill="white"/>
<path fill-rule="evenodd" clip-rule="evenodd" d="M141.597 8.39244L139.259 14.6378L141.931 21.5244H138.423L136.725 16.2549H136.001V21.5244H133.022V8.39244H136.001V13.1322H136.642L138.368 8.39244H141.597Z" fill="white"/>
<path fill-rule="evenodd" clip-rule="evenodd" d="M38.4214 8.39244H44.6576V11.6824H41.5117V21.5244H38.4214V8.39244Z" fill="white"/>
<path fill-rule="evenodd" clip-rule="evenodd" d="M99.1961 21.5244V13.5226L97.3586 15.8088L95.5212 13.5226V21.5244H92.4866V8.39244H95.0757L97.3586 11.4872L99.6415 8.39244H102.231V21.5244H99.1961Z" fill="white"/>
<path fill-rule="evenodd" clip-rule="evenodd" d="M112.588 21.5519H115.679L116.04 19.2936H118.156L118.546 21.5519H121.636L119.019 8.41995H115.177L112.588 21.5519ZM117.126 12.3791L117.711 16.3939H116.569L117.126 12.3791Z" fill="white"/>
</svg>
