<svg width="40" height="40" viewBox="0 0 40 40" fill="none" xmlns="http://www.w3.org/2000/svg">
<g clip-path="url(#clip0_1_2037)">
<rect width="40" height="40" rx="20" fill="url(#paint0_linear_1_2037)"/>
<path d="M31.9819 31.186C32.0451 31.6933 32.0315 32.2102 31.937 32.7127C31.8464 33.1958 31.7313 33.6833 31.7465 34.1781C31.7729 35.0456 32.2538 36.0085 32.605 36.7899C32.6975 36.9957 32.7943 37.2014 32.8959 37.406C33.6357 38.8954 34.6286 40.3232 36.0281 41.2395C36.3809 41.4698 36.7716 41.6705 37.1925 41.6907C37.6373 41.712 38.0721 41.5266 38.4293 41.2608C38.5176 41.195 38.639 41.0557 38.7764 40.8994C38.3276 36.7047 35.6214 32.9228 32.2864 30.44C32.1986 30.3746 32.099 30.3017 31.9921 30.2281C32.0577 30.5328 32.041 30.8637 31.9819 31.186Z" fill="#EBF2E5"/>
<path d="M38.4694 43.0963C38.5239 43.0129 38.5711 42.9239 38.6115 42.83C38.8107 42.3672 38.8495 41.7959 38.8117 41.2828C38.8039 41.1758 38.7933 41.0691 38.7825 40.9626C38.7804 40.9415 38.779 40.9204 38.7766 40.8994C38.6392 41.0557 38.5178 41.195 38.4295 41.2609C38.0723 41.5267 37.6375 41.712 37.1927 41.6907C36.7719 41.6705 36.3811 41.4698 36.0283 41.2395C34.6288 40.3233 33.6359 38.8954 32.8961 37.406C32.7945 37.2014 32.6977 36.9957 32.6052 36.7899C32.2539 36.0085 31.7731 35.0456 31.7467 34.1781C31.7315 33.6833 31.8466 33.1958 31.9372 32.7128C32.0317 32.2103 32.0453 31.6933 31.9821 31.186C31.9797 31.1997 31.9774 31.2135 31.9747 31.2271C31.948 31.3643 31.914 31.4999 31.8753 31.6308C31.8573 31.6917 31.8377 31.7521 31.8181 31.8127C31.8297 31.9033 31.8316 31.9949 31.8233 32.0835C31.7883 32.4613 31.6163 32.8101 31.4891 33.1675C31.2771 33.7629 31.2143 34.3682 31.2345 34.9756C31.2627 35.8195 31.4508 36.6677 31.6207 37.4988C32.12 39.9405 33.4753 42.23 35.5509 43.6374C35.5765 43.6439 35.6022 43.6505 35.6279 43.6567C36.1261 43.7773 36.623 43.8372 37.0736 43.8024C37.1411 43.7972 37.2071 43.7893 37.2725 43.7797C37.525 43.7428 37.7602 43.6732 37.9684 43.563C38.1809 43.4506 38.3441 43.2886 38.4694 43.0963Z" fill="#C6CAD6"/>
<path d="M31.6205 37.4988C31.4506 36.6677 31.2625 35.8195 31.2343 34.9756C31.2142 34.3681 31.2769 33.7628 31.4889 33.1674C31.6161 32.8101 31.7881 32.4612 31.8231 32.0834C31.8314 31.9949 31.8295 31.9032 31.8179 31.8126C31.4735 32.8745 30.8872 33.8569 30.1169 34.665C30.0354 35.0377 29.9424 35.4083 29.8403 35.7768C30.2331 36.4467 30.5928 37.1359 30.9176 37.8411C30.9289 37.8659 30.9403 37.8906 30.9517 37.9154C31.3135 38.7084 31.6313 39.5215 31.9028 40.3495C32.1288 41.0386 32.1887 41.7537 32.7186 42.2543C32.7567 42.2903 32.7969 42.3253 32.8399 42.3589C33.2035 42.6423 33.7133 42.9416 34.2841 43.1946C34.6858 43.3727 35.1177 43.5271 35.5506 43.6374C33.4751 42.23 32.1198 39.9405 31.6205 37.4988Z" fill="#A1A8C3"/>
<path d="M30.5582 29.1316C30.7658 29.6574 30.8855 30.2179 30.9109 30.7827C30.9164 30.9056 30.9189 31.0344 30.9791 31.1419C31.0285 31.2304 31.1303 31.28 31.251 31.3038C31.4703 31.3471 31.7524 31.3057 31.8982 31.2595C31.9239 31.2514 31.9492 31.2399 31.9745 31.2271C31.9772 31.2135 31.9795 31.1997 31.9819 31.186C32.041 30.8637 32.0577 30.5329 31.9921 30.2282C31.947 30.0195 31.864 29.8228 31.7295 29.6501C31.4548 29.2978 31.0018 29.12 30.5522 29.1255C30.5526 29.1308 30.553 29.1361 30.5532 29.1413C30.555 29.1381 30.5566 29.1348 30.5582 29.1316Z" fill="#203A73"/>
<path d="M31.2511 31.3037C31.1304 31.2799 31.0286 31.2303 30.9792 31.1418C30.919 31.0343 30.9165 30.9055 30.911 30.7826C30.8856 30.2178 30.7659 29.6573 30.5583 29.1315C30.5567 29.1347 30.5551 29.138 30.5532 29.1412C30.5618 29.2854 30.57 29.4295 30.5753 29.5738C30.5963 30.1439 30.5925 30.7147 30.5649 31.2846C30.5417 31.762 30.5033 32.2386 30.4465 32.7136C30.3683 33.3678 30.2579 34.0192 30.1169 34.665C30.8872 33.8569 31.4736 32.8744 31.818 31.8126C31.8375 31.752 31.8572 31.6916 31.8751 31.6307C31.9139 31.4998 31.9478 31.3642 31.9746 31.227C31.9492 31.2398 31.9239 31.2512 31.8983 31.2594C31.7525 31.3056 31.4704 31.347 31.2511 31.3037Z" fill="#1F2A50"/>
<path d="M1.62465 41.2639C1.98172 41.5298 2.41665 41.7152 2.8614 41.6938C3.28226 41.6737 3.67313 41.473 4.02582 41.2426C5.42524 40.3263 6.41808 38.8987 7.15802 37.4093C7.25961 37.2046 7.35649 36.999 7.44892 36.7932C7.80017 36.0118 8.28091 35.0488 8.30743 34.1812C8.3226 33.6865 8.20756 33.199 8.11678 32.716C8.03635 32.2877 8.01572 31.8491 8.04989 31.4147C7.9542 31.0232 7.90977 30.6056 7.99092 30.2281C7.88394 30.3017 7.78444 30.3746 7.69666 30.44C4.37963 32.9093 1.68512 36.6637 1.21436 40.8312C1.37774 41.0154 1.52315 41.1883 1.62465 41.2639Z" fill="#EBF2E5"/>
<path d="M8.43315 37.5021C8.6031 36.6708 8.79122 35.8228 8.8193 34.9787C8.83947 34.3713 8.77677 33.766 8.56476 33.1706C8.43743 32.8133 8.2655 32.4642 8.23042 32.0866C8.22751 32.0548 8.22588 32.0228 8.22533 31.9906C8.18333 31.8716 8.14346 31.7518 8.10754 31.6307C8.08862 31.5667 8.07117 31.5012 8.05475 31.4353C8.05303 31.4285 8.05131 31.4217 8.04956 31.4147C8.01538 31.8491 8.03602 32.2877 8.11645 32.716C8.20723 33.199 8.32229 33.6865 8.3071 34.1812C8.28056 35.0488 7.79981 36.0117 7.44859 36.7931C7.35616 36.999 7.25928 37.2046 7.15769 37.4093C6.41775 38.8987 5.42493 40.3263 4.02549 41.2426C3.6728 41.473 3.28193 41.6737 2.86107 41.6938C2.41632 41.7152 1.98136 41.5298 1.62432 41.2639C1.52282 41.1883 1.37741 41.0154 1.214 40.8313C1.209 40.8749 1.20481 40.9187 1.20037 40.9626C1.18955 41.069 1.17901 41.1757 1.1711 41.2828C1.13339 41.7959 1.1721 42.3672 1.37129 42.83C1.41173 42.9239 1.459 43.0129 1.51342 43.0962C1.63884 43.2886 1.80195 43.4506 2.01452 43.563C2.22262 43.6732 2.45792 43.7427 2.71055 43.7797C2.77571 43.7892 2.84179 43.7971 2.9093 43.8024C3.35996 43.8372 3.85687 43.7773 4.35508 43.6566C4.42169 43.6404 4.48823 43.6231 4.55474 43.605C6.60096 42.1947 7.93815 39.9232 8.43315 37.5021Z" fill="#C6CAD6"/>
<path d="M8.22549 31.9906C8.22603 32.0228 8.22768 32.0548 8.23059 32.0866C8.26567 32.4642 8.4376 32.8132 8.56493 33.1706C8.77694 33.766 8.83966 34.3713 8.81947 34.9787C8.79138 35.8227 8.60327 36.6708 8.43332 37.502C7.93831 39.9232 6.60113 42.1947 4.55493 43.605C4.94652 43.4976 5.33502 43.3557 5.69881 43.1946C6.26952 42.9415 6.77934 42.6423 7.14285 42.3589C7.186 42.3253 7.22609 42.2903 7.26417 42.2543C7.79417 41.7538 7.85414 41.0386 8.07997 40.3495C8.35143 39.5215 8.66941 38.7084 9.0312 37.9154C9.04246 37.8906 9.05393 37.8659 9.06528 37.8411C9.36972 37.1799 9.70659 36.5338 10.0709 35.9036C9.9408 35.445 9.8281 34.9826 9.73016 34.5174C9.06875 33.785 8.55383 32.9209 8.22549 31.9906Z" fill="#A1A8C3"/>
<path d="M8.04975 31.4147C8.05147 31.4217 8.05319 31.4285 8.05494 31.4353C8.10075 31.4533 8.15144 31.4614 8.20078 31.4588C8.35 31.4506 8.55848 31.3721 8.71179 31.2608C8.7844 31.2081 8.84456 31.148 8.88028 31.0847C8.93071 30.9949 8.94263 30.8895 8.95642 30.7877C9.01686 30.3417 9.13481 29.9037 9.30439 29.4867C9.3093 29.3668 9.31774 29.2472 9.32493 29.1274C8.91117 29.149 8.50639 29.3253 8.25339 29.65C8.1188 29.8228 8.03574 30.0193 7.99075 30.2282C7.90963 30.6056 7.95406 31.0231 8.04975 31.4147Z" fill="#203A73"/>
<path d="M9.3002 29.6492C9.30192 29.5951 9.3021 29.5408 9.30438 29.4867C9.13481 29.9037 9.01686 30.3416 8.95641 30.7877C8.94259 30.8896 8.93068 30.9949 8.88027 31.0847C8.84456 31.148 8.78439 31.2081 8.71179 31.2608C8.55847 31.372 8.35 31.4506 8.20078 31.4588C8.15143 31.4614 8.10072 31.4533 8.05493 31.4353C8.07138 31.5012 8.08883 31.5667 8.10772 31.6307C8.14362 31.7518 8.18351 31.8715 8.22551 31.9906C8.55384 32.9209 9.06876 33.785 9.73018 34.5174C9.65703 34.1708 9.59287 33.8227 9.5378 33.4733C9.4979 33.2205 9.46128 32.9673 9.43092 32.7136C9.30929 31.6966 9.2663 30.6719 9.3002 29.6492Z" fill="#1F2A50"/>
<path d="M30.5754 29.5739C29.2367 30.176 27.8249 30.6282 26.3827 30.939C25.4537 31.1393 24.5114 31.2824 23.5635 31.371C21.3421 31.5785 19.071 31.4664 16.8571 31.2101C14.2295 30.9058 11.715 30.5441 9.30025 29.6491C9.26636 30.6718 9.30935 31.6965 9.43093 32.7136C9.46129 32.9673 9.49791 33.2205 9.53781 33.4733C10.5779 34.2904 11.6424 35.0766 12.8003 35.7126C15.8202 37.3713 19.9651 38.1355 23.3637 37.2598C23.4065 37.2487 23.4493 37.2375 23.4919 37.2258C25.0674 36.7983 26.7795 35.1621 27.9598 34.0901C28.9056 33.231 29.7772 32.2906 30.5649 31.2846C30.5925 30.7147 30.5963 30.1439 30.5754 29.5739Z" fill="#EBF2E5"/>
<path d="M30.4463 32.7137C30.5032 32.2387 30.5415 31.7621 30.5647 31.2847C29.777 32.2907 28.9054 33.2311 27.9596 34.0902C26.7793 35.1622 25.0671 36.7984 23.4917 37.2259C23.4491 37.2376 23.4063 37.2488 23.3635 37.2599C19.9649 38.1356 15.82 37.3713 12.8001 35.7126C11.6422 35.0767 10.5777 34.2904 9.5376 33.4734C9.59267 33.8228 9.65683 34.1709 9.72997 34.5175C9.82794 34.9827 9.94063 35.4451 10.0708 35.9036C10.5426 37.5664 11.2243 39.1794 12.1046 40.6967C12.7213 40.9304 13.3483 41.1374 13.9839 41.3151C16.8591 42.1188 19.888 42.347 22.8511 41.98C24.501 41.7756 26.1312 41.3896 27.6962 40.8253C28.6358 39.2324 29.3541 37.5315 29.8402 35.7769C29.9423 35.4083 30.0352 35.0378 30.1167 34.6651C30.2577 34.0194 30.3681 33.3679 30.4463 32.7137Z" fill="#C6CAD6"/>
<path d="M9.30029 29.6492C11.715 30.5441 14.2295 30.9058 16.8571 31.2101C19.0711 31.4664 21.3421 31.5785 23.5635 31.3711C24.5114 31.2824 25.4537 31.1393 26.3828 30.9391C27.8249 30.6282 29.2368 30.176 30.5754 29.5739C30.5701 29.4296 30.5619 29.2855 30.5533 29.1412C30.5531 29.1361 30.5528 29.1307 30.5524 29.1254C30.5446 28.9941 30.5368 28.8628 30.5264 28.7316C27.1142 29.0648 12.7632 29.0648 9.35129 28.7316C9.34075 28.8634 9.33284 28.9954 9.32502 29.1274C9.31784 29.2472 9.30939 29.3668 9.30448 29.4867C9.3022 29.5408 9.30201 29.5951 9.30029 29.6492Z" fill="#A1A8C3"/>
<path d="M4.82207 18.3636C4.94003 17.849 5.12233 16.9738 5.15797 16.8503C5.33436 16.2383 5.54456 15.6352 5.79065 15.0476C5.83364 14.9451 5.88753 14.7993 5.95332 14.6437C6.17543 13.8792 6.44269 13.1318 6.75176 12.4114C6.78638 12.3309 6.82137 12.2504 6.85673 12.17C6.27956 12.2953 5.78709 12.4515 5.58871 12.6172C5.27818 12.8767 5.07261 13.2174 4.8864 13.5573C4.09096 15.0101 3.65719 16.5183 3.54077 18.0361C3.81785 18.23 4.10722 18.4064 4.4091 18.5588C4.57705 18.6436 4.78008 18.5468 4.82207 18.3636Z" fill="#203A73"/>
<path d="M34.9907 13.5573C34.8046 13.2174 34.5992 12.8767 34.2884 12.6173C34.0899 12.4513 33.5968 12.295 33.019 12.1698C33.0551 12.2499 33.0907 12.3304 33.1254 12.4115C33.5876 13.4884 33.9575 14.6253 34.2194 15.7906C34.3321 15.9553 34.442 16.0723 34.5122 16.2696C34.6847 16.7543 34.8297 17.2432 35.0071 17.7243C35.0613 17.8714 35.1186 18.0177 35.1807 18.1629C35.6112 17.9828 35.9739 17.7328 36.2712 17.4163C36.095 16.1084 35.6779 14.8121 34.9907 13.5573Z" fill="#203A73"/>
<path d="M36.3701 18.8653C36.3696 18.3816 36.3363 17.8982 36.2714 17.4163C35.9742 17.7327 35.6115 17.9827 35.1809 18.1629C35.1188 18.0176 35.0615 17.8713 35.0073 17.7242C34.8299 17.2432 34.685 16.7542 34.5125 16.2695C34.4422 16.0723 34.3323 15.9552 34.2196 15.7905C34.4407 16.7736 34.5843 17.7769 34.6409 18.7814C34.735 20.4599 34.5859 22.1419 34.1452 23.7392C33.9617 24.4043 33.7089 25.1177 33.3804 25.8079C33.9955 25.636 34.5273 25.4331 34.7259 25.2422C35.0178 24.962 35.1994 24.6079 35.3615 24.2559C36.1806 22.478 36.4922 20.6574 36.3701 18.8653Z" fill="#1F2A50"/>
<path d="M5.21579 19.3069C5.25596 17.7331 5.51478 16.1546 5.95353 14.6438C5.88774 14.7994 5.83384 14.9451 5.79087 15.0477C5.54477 15.6352 5.33458 16.2384 5.15818 16.8504C5.12257 16.9739 4.94026 17.8491 4.82229 18.3637C4.7803 18.5469 4.57729 18.6437 4.40934 18.5589C4.10743 18.4064 3.81809 18.2301 3.54101 18.0362C3.51984 18.3125 3.50793 18.5889 3.50755 18.8654C3.38532 20.6575 3.69704 22.4781 4.51612 24.256C4.67826 24.608 4.85981 24.9621 5.15162 25.2424C5.35028 25.4332 5.88209 25.6362 6.49735 25.8081C6.16873 25.1178 5.91591 24.4045 5.73243 23.7393C5.33783 22.3087 5.17752 20.81 5.21579 19.3069Z" fill="#1F2A50"/>
<path d="M34.2198 15.7905C33.9579 14.6253 33.5879 13.4883 33.1257 12.4114C33.091 12.3303 33.0554 12.2498 33.0194 12.1697C32.5434 11.1105 31.9498 10.1361 30.9933 9.40533C29.3019 8.11328 10.7852 8.15541 8.88455 9.40533C7.87825 10.0671 7.327 11.1016 6.85698 12.17C6.82162 12.2504 6.78665 12.3308 6.75201 12.4114C6.44294 13.1317 6.17565 13.8792 5.95357 14.6437C5.51482 16.1545 5.256 17.733 5.21582 19.3068C5.51172 19.6496 5.83461 19.9693 6.17958 20.2625C6.67459 20.6832 7.28056 21.3438 7.94379 20.8861C8.46352 20.5275 8.36128 19.8791 8.41071 19.3249C8.46287 18.7399 8.52185 18.1476 8.6589 17.5754C8.74014 17.2358 8.83739 16.8995 8.94962 16.5684C9.21488 15.2008 9.76697 13.9021 10.7374 12.8797C10.9883 12.6153 15.5157 12.5201 19.9389 12.5426C24.3621 12.5201 28.8895 12.6153 29.1405 12.8797C29.9588 13.7419 30.4791 14.8009 30.7815 15.9316C30.855 16.0795 30.9244 16.2293 30.9882 16.3815C31.223 16.9425 31.3717 17.4947 31.4528 18.0946L31.7151 20.0407C31.7603 20.3748 32.114 20.575 32.4219 20.4373C33.0356 20.1629 33.6101 19.8202 34.1057 19.3648C34.3101 19.177 34.4864 18.9821 34.641 18.7814C34.5845 17.7769 34.4408 16.7736 34.2198 15.7905Z" fill="#EBF2E5"/>
<path d="M34.6407 18.7814C34.4861 18.9821 34.3097 19.177 34.1053 19.3648C33.6097 19.8202 33.0352 20.1629 32.4215 20.4373C32.1136 20.575 31.7599 20.3748 31.7147 20.0407L31.4524 18.0946C31.3713 17.4947 31.2227 16.9425 30.9878 16.3815C30.924 16.2293 30.8546 16.0795 30.7812 15.9316C30.9819 16.6828 31.087 17.4655 31.1176 18.2438C31.1958 18.664 31.244 19.0933 31.2607 19.5241C31.3264 21.2226 30.8438 25.2115 29.7883 25.716C28.6044 26.2818 12.2534 25.7404 11.0786 25.6441C10.1024 25.5641 9.77722 25.0468 9.48616 24.1158C9.23534 23.3132 9.08466 22.461 9.04232 21.6048C8.73397 20.0866 8.61827 18.2742 8.94926 16.5683C8.83703 16.8995 8.73978 17.2358 8.65854 17.5753C8.52149 18.1476 8.46251 18.7399 8.41035 19.3248C8.36092 19.8791 8.46316 20.5275 7.94343 20.8861C7.2802 21.3438 6.67423 20.6832 6.17922 20.2624C5.83425 19.9693 5.51136 19.6496 5.21546 19.3068C5.17719 20.8099 5.33751 22.3085 5.7321 23.7392C5.91559 24.4043 6.16841 25.1177 6.49702 25.8079C7.01156 26.8889 7.71351 27.9126 8.63728 28.6009C8.70188 28.6489 8.95172 28.6925 9.35104 28.7315C12.7629 29.0647 27.114 29.0647 30.5262 28.7315C30.9254 28.6925 31.1753 28.6489 31.2398 28.6009C32.1636 27.9126 32.8655 26.8889 33.3802 25.8079C33.7087 25.1177 33.9615 24.4043 34.145 23.7392C34.5857 22.1419 34.7348 20.4599 34.6407 18.7814Z" fill="#C6CAD6"/>
<path d="M29.3386 25.0986C29.0583 25.264 24.4463 25.3446 19.9387 25.3406C15.4311 25.3446 10.819 25.264 10.5388 25.0986C10.0538 24.8123 9.41088 23.4188 9.04248 21.6049C9.08482 22.4611 9.23551 23.3132 9.48632 24.1159C9.77741 25.0468 10.1026 25.5641 11.0788 25.6441C12.2535 25.7404 28.6045 26.2819 29.7885 25.7161C30.8439 25.2116 31.3266 21.2226 31.2609 19.5241C31.2442 19.0933 31.196 18.664 31.1178 18.2439C31.2461 21.487 30.0981 24.6503 29.3386 25.0986Z" fill="#A1A8C3"/>
<path d="M31.1178 18.244C31.0872 17.4656 30.9822 16.6829 30.7814 15.9318C30.479 14.801 29.9587 13.742 29.1403 12.8798C28.8894 12.6154 24.362 12.5202 19.9388 12.5427C15.5156 12.5202 10.9882 12.6154 10.7372 12.8798C9.76684 13.9022 9.21477 15.2009 8.94948 16.5685C8.61849 18.2743 8.73419 20.0867 9.04254 21.6049C9.41096 23.4189 10.0539 24.8124 10.5388 25.0987C10.8191 25.264 15.4311 25.3447 19.9388 25.3407C24.4464 25.3447 29.0583 25.264 29.3387 25.0987C30.0982 24.6504 31.2462 21.4871 31.1178 18.244Z" fill="#1F2A50"/>
<path d="M10.5397 17.9492C10.3968 18.6662 10.2805 19.4271 10.5311 20.114C10.9331 21.2157 12.1389 21.3084 13.1496 21.2665C13.1892 21.2649 13.2291 21.2626 13.2688 21.261C13.1076 20.952 13.0237 20.5961 13.0025 20.2561C12.9501 19.4175 13.0416 16.1809 13.4643 15.7218C14.0808 15.0523 15.4104 15.0452 16.0333 15.7218C16.4559 16.181 16.5474 19.4175 16.495 20.2561C16.478 20.5296 16.4201 20.813 16.3145 21.0743C17.8511 20.9498 19.39 20.7764 20.9074 20.5343C21.7337 20.4024 22.5562 20.2478 23.3745 20.0733C23.3428 19.0261 23.4478 16.1523 23.8442 15.7218C24.4607 15.0522 25.7903 15.0452 26.4132 15.7218C26.7153 16.05 26.8481 17.7963 26.8803 19.0725C27.2738 18.8811 27.6472 18.6395 27.9972 18.3159C28.7146 17.6525 29.3071 16.575 28.8348 15.6048C28.567 15.0544 28.0506 14.6563 27.4889 14.4124C26.9274 14.1685 26.3172 14.0622 25.713 13.9634C21.7186 13.31 17.6071 12.8922 13.6421 13.7054C13.1482 13.8067 12.6016 13.9182 12.1598 14.1726C11.7704 14.3968 11.5733 14.8199 11.377 15.2193C10.9554 16.0775 10.7256 17.016 10.5397 17.9492Z" fill="#203A73"/>
<path d="M16.0334 15.7217C15.4105 15.0451 14.0809 15.0522 13.4643 15.7217C13.0417 16.1808 12.9502 19.4174 13.0026 20.256C13.0238 20.5961 13.1077 20.952 13.2688 21.2609C13.3968 21.5065 13.5735 21.7226 13.8067 21.8774C14.3126 22.2132 15.1688 22.2241 15.691 21.8774C15.9816 21.6844 16.1845 21.3963 16.3146 21.0742C16.4202 20.8129 16.478 20.5295 16.4951 20.2561C16.5475 19.4174 16.456 16.181 16.0334 15.7217Z" fill="#3EC0F0"/>
<path d="M23.8442 15.7217C23.4478 16.1523 23.3427 19.026 23.3744 20.0732C23.3765 20.1425 23.3793 20.204 23.3825 20.256C23.4205 20.8664 23.6601 21.5279 24.1865 21.8774C24.6924 22.2132 25.5486 22.224 26.0708 21.8774C26.5974 21.5279 26.8369 20.8664 26.875 20.256C26.8899 20.0168 26.8931 19.5819 26.8803 19.0724C26.848 17.7962 26.7153 16.0499 26.4132 15.7217C25.7902 15.0451 24.4607 15.0522 23.8442 15.7217Z" fill="#3EC0F0"/>
</g>
<defs>
<linearGradient id="paint0_linear_1_2037" x1="0" y1="0" x2="44.2841" y2="5.49886" gradientUnits="userSpaceOnUse">
<stop stop-color="#1C7D55"/>
<stop offset="1" stop-color="#001D06"/>
</linearGradient>
<clipPath id="clip0_1_2037">
<rect width="40" height="40" rx="20" fill="white"/>
</clipPath>
</defs>
</svg>
