<svg width="100" height="26" viewBox="0 0 100 26" fill="none" xmlns="http://www.w3.org/2000/svg">
<g clip-path="url(#clip0_1_3312)">
<path fill-rule="evenodd" clip-rule="evenodd" d="M12.5454 0.499023C5.64881 0.499023 -0.000488281 6.05458 -0.000488281 12.999C-0.000488281 19.8704 5.57544 25.499 12.5454 25.499C19.4419 25.499 25.0912 19.9435 25.0912 12.999C25.0912 6.05458 19.4419 0.499023 12.5454 0.499023ZM12.5454 24.4756C6.16238 24.4756 1.02666 19.3587 1.02666 12.999C1.02666 6.63938 6.16238 1.52242 12.5454 1.52242C18.9283 1.52242 24.0641 6.63938 24.0641 12.999C24.1374 19.2856 18.9283 24.4756 12.5454 24.4756Z" fill="#77787B"/>
<path fill-rule="evenodd" clip-rule="evenodd" d="M12.5455 22.2828C12.9857 22.2828 13.2058 21.9904 13.2792 21.6249C13.3525 21.7711 13.4993 21.9173 13.646 21.9904C13.7928 21.9904 14.0129 21.9904 14.1596 21.9173C14.3063 21.8442 14.4531 21.698 14.5264 21.5518C14.5998 21.4056 14.5998 21.1863 14.5264 21.0401C14.7465 21.3325 15.04 21.4056 15.4068 21.2594C15.847 21.0401 15.9938 20.7477 15.7737 20.3091C15.2601 19.0664 14.7465 17.8968 14.233 16.6541C14.1596 16.5079 14.1596 16.4348 14.0862 16.2886C14.0129 16.2155 14.0129 16.1424 13.9395 16.0693C13.9395 15.9962 13.8661 15.9962 13.7928 15.9231C14.5998 15.9962 14.9666 16.2886 15.1867 16.4348C15.2601 16.5079 15.2601 16.5079 15.4802 16.4348H15.7737C15.847 16.5079 15.9938 16.581 16.0671 16.581L16.9476 17.2389C17.0943 17.3851 17.241 17.5313 17.241 17.7506C17.241 17.8968 16.8008 18.2623 16.7275 18.4085C16.434 18.7009 16.8742 19.1395 17.4611 19.1395C17.3144 18.9933 17.241 18.8471 17.3144 18.7009C17.3878 18.7009 17.4611 18.7009 17.6079 18.6278C17.7546 18.5547 17.6812 18.1892 17.7546 18.1161C17.9747 17.8968 18.5616 17.8968 19.0018 17.8968C19.1486 17.8968 19.3687 17.8237 19.2953 17.6044C19.5154 17.6044 19.5888 17.8237 19.5888 17.9699C19.8089 17.8237 19.9556 17.312 19.222 17.1658C19.3687 17.0196 19.5888 17.0196 19.7355 17.1658C19.8823 16.9465 19.5154 16.581 18.9285 16.8003C18.9285 16.8003 18.635 16.4348 17.9013 17.312C17.828 17.2389 17.6812 17.1658 17.6079 17.0927L16.5807 16.0693C16.5807 15.6307 16.5074 14.8267 15.9938 14.3881C15.7737 14.1688 15.5536 14.0957 15.04 13.9495C15.04 13.9495 15.2601 13.584 15.3335 13.4378C15.7737 13.8764 16.6541 14.0226 16.6541 13.2916C17.3878 14.0226 18.0481 13.584 18.0481 13.1454C18.0481 13.3647 18.1214 13.584 18.1948 13.8033C18.2682 14.0226 18.635 14.9729 19.4421 14.9729C19.4421 15.2653 19.4421 16.3617 20.4692 16.581C20.5426 16.581 20.5426 16.581 20.6159 16.6541C21.0561 17.1658 22.7436 17.6775 22.8903 17.5313C22.7436 17.4582 22.5235 17.312 22.5235 16.7272C22.5235 16.3617 22.4501 14.315 22.4501 11.4641C22.4501 10.4407 22.3768 7.15123 19.0752 6.71263C18.5616 6.63953 18.1214 6.71263 17.6812 7.00503C17.0943 7.44363 16.8008 8.17461 17.1677 8.9787V9.0518C17.3144 9.2711 17.241 9.4173 17.0943 9.5635C16.8008 9.85589 16.5074 10.0021 16.1405 10.0752C15.9204 10.0752 15.7003 10.0021 15.5536 9.85589C15.1867 9.4904 14.9666 9.0518 14.8199 8.54011C14.6732 7.58983 14.8933 7.07813 14.8933 7.00503C15.1867 6.49334 15.7003 6.05474 16.3606 6.05474C16.6541 5.46994 17.5345 5.68924 17.5345 5.68924C17.7546 5.76234 17.828 5.76234 17.9013 5.90854C17.9013 5.90854 18.2682 5.32374 17.9013 5.10445C17.5345 4.88515 16.7275 4.81205 16.7275 4.81205C16.7275 4.44655 16.1405 4.15415 14.9666 4.37345C13.646 4.59275 13.3525 4.08105 13.3525 4.08105C13.2792 4.73895 13.7928 5.03135 13.9395 5.17755C13.4259 5.76234 12.6922 6.85883 12.5455 8.39391C12.3988 6.85883 11.6651 5.76234 11.1515 5.17755C11.2983 5.10445 11.8118 4.73895 11.7385 4.08105C11.7385 4.08105 11.445 4.59275 10.1244 4.37345C9.02386 4.15415 8.36355 4.44655 8.36355 4.81205C8.36355 4.81205 7.55651 4.88515 7.18968 5.10445C6.82284 5.32374 7.18968 5.90854 7.18968 5.90854C7.26305 5.83544 7.33641 5.76234 7.55651 5.68924C7.55651 5.68924 8.43692 5.46994 8.73039 6.05474C9.3907 6.12784 9.90427 6.49334 10.1977 7.00503C10.1977 7.00503 10.4912 7.51673 10.2711 8.54011C10.1977 9.0518 9.90427 9.4904 9.53743 9.85589C9.3907 10.0021 9.1706 10.1483 8.95049 10.0752C8.58365 10.0021 8.29018 9.85589 7.99671 9.5635C7.84998 9.4173 7.77661 9.2711 7.92335 9.0518V8.9787C8.29018 8.17461 7.99671 7.44363 7.40977 7.00503C6.96958 6.71263 6.52937 6.63953 6.0158 6.71263C2.78762 7.15123 2.64089 10.4407 2.64089 11.4641C2.64089 14.315 2.56752 16.3617 2.56752 16.7272C2.56752 17.312 2.34742 17.4582 2.20068 17.5313C2.42079 17.6775 4.10824 17.1658 4.47508 16.6541C4.47508 16.6541 4.54845 16.581 4.62181 16.581C5.64896 16.3617 5.64896 15.2653 5.64896 14.9729C6.456 14.9729 6.82284 14.0226 6.89621 13.8033C6.96958 13.584 7.04294 13.3647 7.04294 13.1454C7.04294 13.584 7.70324 13.9495 8.43692 13.2916C8.43692 14.0226 9.31733 13.8764 9.75754 13.4378C9.8309 13.584 10.051 13.9495 10.051 13.9495C9.53743 14.0226 9.31733 14.1688 9.09723 14.3881C8.51029 14.8998 8.51029 15.7038 8.51029 16.0693L7.48314 17.0927C7.40977 17.1658 7.26305 17.2389 7.18968 17.312C6.38263 16.4348 6.16253 16.8003 6.16253 16.8003C5.57559 16.581 5.28212 16.9465 5.35549 17.1658C5.50222 17.0196 5.72233 17.0927 5.86906 17.1658C5.06202 17.312 5.28212 17.8968 5.50222 17.9699C5.50222 17.8237 5.57559 17.6044 5.79569 17.6044C5.79569 17.8237 5.94243 17.8968 6.08916 17.8968C6.456 17.8968 7.11631 17.8968 7.33641 18.1161C7.48314 18.1892 7.40977 18.5547 7.48314 18.6278C7.55651 18.7009 7.70324 18.7009 7.77661 18.7009C7.77661 18.8471 7.77661 18.9202 7.62988 19.1395C8.21682 19.2126 8.58365 18.7009 8.36355 18.4085C8.21682 18.2623 7.84998 17.8968 7.84998 17.7506C7.84998 17.6044 7.99671 17.3851 8.14345 17.2389L9.02386 16.581C9.09723 16.5079 9.1706 16.4348 9.31733 16.4348C9.3907 16.3617 9.53743 16.3617 9.6108 16.4348C9.8309 16.5079 9.8309 16.5079 9.90427 16.4348C10.1244 16.2886 10.4912 15.9962 11.2983 15.9231C11.2249 15.9231 11.2249 15.9962 11.1515 16.0693C11.0782 16.1424 11.0782 16.2155 11.0048 16.2886C10.9314 16.3617 10.9314 16.5079 10.858 16.6541C10.3445 17.8968 9.8309 19.0664 9.31733 20.3091C9.1706 20.7477 9.31733 21.0401 9.68417 21.2594C9.97764 21.4056 10.3445 21.3325 10.5646 21.0401C10.4912 21.2594 10.4912 21.4056 10.5646 21.5518C10.6379 21.698 10.7847 21.8442 10.9314 21.9173C11.0782 21.9904 11.2983 21.9904 11.445 21.9904C11.6651 21.9173 11.7385 21.8442 11.8118 21.6249C11.8852 21.9904 12.1053 22.2828 12.5455 22.2828Z" fill="#77787B"/>
<path fill-rule="evenodd" clip-rule="evenodd" d="M33.675 8.61324C34.3353 8.61324 35.8027 8.54014 36.6097 8.46704V9.34423C35.8761 9.27113 34.7022 9.19804 34.3353 9.19804C34.0419 9.19804 33.0881 9.19804 32.5012 9.27113V12.3413H33.1615C34.4821 12.3413 37.1233 12.5606 37.1233 14.8267C37.1233 16.6542 35.5826 17.4583 33.6017 17.4583H31.2539C31.3273 16.0694 31.3273 14.2419 31.3273 12.7068C31.3273 11.3179 31.3273 9.19804 31.2539 8.54014C32.0609 8.54014 33.3816 8.61324 33.675 8.61324ZM32.5012 16.7273H33.5283C34.9957 16.7273 35.8027 16.0694 35.8027 14.7536C35.8027 13.3647 34.7756 12.9261 32.4278 12.9261V16.7273H32.5012ZM38.5173 11.9027C39.0309 11.3179 39.9113 11.0255 40.645 11.0255C41.9656 11.0255 42.846 11.6834 42.846 13.2185V16.2887C42.846 16.9466 42.9927 17.0928 43.2128 17.0928C43.2862 17.0928 43.4329 17.0928 43.5063 17.0197L43.5797 17.3121C43.2128 17.5314 42.846 17.5314 42.6259 17.5314C42.1857 17.5314 41.9656 17.3121 41.8922 17.0197L41.8188 16.7273C41.1585 17.239 40.4249 17.5314 39.8379 17.5314C38.7374 17.5314 38.0037 16.9466 38.0037 15.9232C38.0037 14.8267 38.8108 14.315 39.9846 14.0957L41.2319 13.8764C41.6721 13.8033 41.8922 13.6571 41.8922 13.3647C41.8922 12.0489 41.3053 11.6834 40.3515 11.6834C39.6178 11.6834 39.1042 11.9027 38.664 12.7068H38.5173V11.9027ZM41.8922 14.2419L41.0852 14.3881C40.2047 14.5343 39.1776 14.8267 39.1776 15.777C39.1776 16.508 39.5444 16.8735 40.3515 16.8735C40.8651 16.8735 41.3053 16.7273 41.8188 16.1425V14.2419H41.8922ZM45.3405 11.2448H45.9274C45.8541 12.1951 45.7807 13.7302 45.7807 13.8033C46.2943 13.8033 47.0279 13.8764 47.4681 13.8764C47.9083 13.8764 48.642 13.8764 49.0089 13.8033C49.0089 13.7302 49.0089 12.1951 48.9355 11.2448H50.1827C50.1094 12.1951 50.036 13.7302 50.036 14.3881C50.036 14.8998 50.036 16.5811 50.1827 17.5314H48.9355C49.0089 16.5811 49.0089 14.8998 49.0089 14.5343C48.4953 14.4612 47.6882 14.4612 47.4681 14.4612C47.1013 14.4612 46.2943 14.4612 45.7807 14.5343C45.7807 14.9729 45.7807 16.5811 45.9274 17.5314H44.6802C44.7535 16.5811 44.8269 14.8998 44.8269 14.3881C44.8269 13.7302 44.8269 12.1951 44.6802 11.2448H45.3405ZM52.4571 11.2448H53.0441C52.9707 12.1951 52.9707 13.7302 52.9707 13.9495H53.1908C53.631 13.9495 55.6853 11.6103 55.9054 11.2448H57.0793L54.1446 13.8764C54.5114 14.315 56.4923 16.508 57.3728 17.4583H55.832C55.3918 16.7273 53.9979 15.1191 53.1908 14.2419H52.9707C52.9707 14.6805 52.9707 16.508 53.0441 17.4583H51.7968C51.8702 16.508 51.9436 14.8267 51.9436 14.315C51.9436 13.6571 51.9436 12.122 51.7968 11.1717C52.0169 11.2448 52.237 11.2448 52.4571 11.2448ZM62.7286 8.54014C63.1688 8.54014 63.6824 8.46704 64.0492 8.46704C66.3236 8.46704 67.204 9.12494 67.204 10.7331C67.204 12.7068 65.5166 13.3647 63.4623 13.3647C63.3155 13.3647 62.8753 13.3647 62.6552 13.2916V15.4115C62.6552 15.9963 62.6552 16.8004 62.7286 17.3852H61.408C61.4813 15.9963 61.4813 14.1688 61.4813 12.6337C61.4813 11.2448 61.4813 9.12494 61.408 8.46704C61.9215 8.46704 62.4351 8.54014 62.7286 8.54014ZM63.2422 12.7068C65.003 12.7068 65.9568 12.0489 65.9568 10.7331C65.9568 9.49043 65.003 9.19804 63.7557 9.19804H62.6552V12.6337C62.8753 12.7068 63.0954 12.7068 63.2422 12.7068ZM73.6604 14.315C73.6604 16.2156 72.4131 17.6045 70.5056 17.6045C68.598 17.6045 67.4241 16.2156 67.4241 14.4612C67.4241 12.4144 68.7447 11.0986 70.6523 11.0986C72.4865 11.0986 73.6604 12.4144 73.6604 14.315ZM68.598 14.3881C68.598 15.777 69.1849 17.0928 70.5056 17.0928C71.7528 17.0928 72.4865 15.8501 72.4865 14.2419C72.4865 12.9261 71.9729 11.5372 70.5789 11.5372C69.2583 11.5372 68.598 12.9261 68.598 14.3881ZM79.6765 12.5606H79.5298C79.0896 11.8296 78.5026 11.6103 77.8423 11.6103C76.375 11.6103 75.7146 12.9992 75.7146 14.3881C75.7146 15.9232 76.5951 17.1659 78.1358 17.1659C78.6494 17.1659 79.0896 17.0928 79.8232 16.2887L79.97 16.4349L79.8232 17.0197C79.2363 17.3852 78.576 17.6045 77.7689 17.6045C75.8614 17.6045 74.6141 16.2887 74.6141 14.3881C74.6141 12.4144 76.0081 11.1717 77.989 11.1717C78.6494 11.1717 79.3097 11.3179 80.1167 11.6834L79.6765 12.5606ZM85.9861 12.5606H85.8394C85.3992 11.8296 84.8122 11.6103 84.1519 11.6103C82.6846 11.6103 82.0243 12.9992 82.0243 14.3881C82.0243 15.9232 82.9047 17.1659 84.4454 17.1659C84.959 17.1659 85.3992 17.0928 86.1328 16.2887L86.2062 16.4349L86.0595 17.0197C85.4725 17.3852 84.8122 17.6045 84.0052 17.6045C82.0976 17.6045 80.8504 16.2887 80.8504 14.3881C80.8504 12.4144 82.2444 11.1717 84.2253 11.1717C84.8856 11.1717 85.5459 11.3179 86.3529 11.6834L85.9861 12.5606ZM87.8203 17.3852H87.4535C87.5268 16.4349 87.6002 14.7536 87.6002 14.2419C87.6002 13.584 87.6002 12.0489 87.4535 11.0986H88.7007C88.6273 12.0489 88.554 13.584 88.554 14.2419V15.8501C89.2143 15.046 91.6354 11.9758 92.2223 11.1717H93.0294C92.956 12.122 92.8827 13.6571 92.8827 14.315C92.8827 14.8267 92.8827 16.508 93.0294 17.4583H91.7821C91.8555 16.508 91.9289 14.8267 91.9289 14.315V12.6337C91.1218 13.5109 88.8474 16.3618 88.1871 17.4583C88.0404 17.3852 87.8937 17.3852 87.8203 17.3852ZM94.7902 17.3852H94.4234C94.4967 16.4349 94.4967 14.7536 94.4967 14.2419C94.4967 13.584 94.4967 12.0489 94.4234 11.0986H95.6706C95.5239 12.122 95.5239 13.6571 95.5239 14.315V15.9232C96.1842 15.1191 98.6053 12.0489 99.1923 11.2448H99.9993C99.9259 12.122 99.9259 13.6571 99.9259 14.315C99.9259 14.8267 99.9259 16.508 99.9993 17.4583H98.7521C98.8254 16.508 98.8254 14.8267 98.8254 14.315V12.6337C98.0184 13.5109 95.744 16.3618 95.0837 17.4583C95.0103 17.3852 94.937 17.3852 94.7902 17.3852Z" fill="#77787B"/>
</g>
<defs>
<clipPath id="clip0_1_3312">
<rect width="100" height="25" fill="white" transform="translate(0 0.5)"/>
</clipPath>
</defs>
</svg>
