<svg width="100" height="44" viewBox="0 0 100 44" fill="none" xmlns="http://www.w3.org/2000/svg">
<g clip-path="url(#clip0_1_3319)">
<path d="M23.9419 25.3345C23.8443 23.8232 21.8207 23.16 20.588 23.9103V23.2471H20.0761V23.9103C18.8407 23.1518 16.8251 23.8232 16.7249 25.3345C16.5758 27.1529 18.6564 27.7591 20.0761 27.0497C20.0761 27.0497 20.0761 28.5365 19.7807 29.1508C20.1031 29.1508 20.6179 29.1508 20.8779 29.1508C20.5501 28.5447 20.5799 27.0497 20.5799 27.0497C22.0076 27.7645 24.0856 27.1584 23.9419 25.3345ZM20.0761 26.555C19.3147 27.3705 17.5321 27.1367 17.2613 25.9842C16.8468 24.3043 18.7215 23.3557 20.0761 24.3967V26.555ZM23.4 25.9842C23.1292 27.1367 21.3439 27.3678 20.5826 26.555V24.3967C21.9345 23.3557 23.8146 24.3043 23.4 25.9842Z" fill="#002B50"/>
<path d="M20.3252 29.6538C19.2957 28.1643 19.2606 24.6335 18.0469 22.8884H17.2341C18.2121 23.8534 18.0902 28.8248 16.7222 29.4119L17.9574 29.3929C18.3503 28.0854 18.3747 24.6633 18.1986 23.7174C19.1143 25.7941 19.0547 28.4388 20.3361 30.4013L20.3252 29.6538Z" fill="#002B50"/>
<path d="M20.3252 29.6538C21.3547 28.1643 21.39 24.6335 22.6035 22.8884H23.4163C22.4383 23.8534 22.5657 28.8248 23.9311 29.4119L22.7147 29.3821C22.3218 28.0746 22.2947 24.6525 22.4736 23.7065C21.5579 25.7833 21.6174 28.428 20.3334 30.3904V29.6538H20.3252Z" fill="#002B50"/>
<path d="M20.4419 1.91224C20.5318 1.91477 20.6212 1.89934 20.705 1.86683C20.7889 1.83433 20.8654 1.7854 20.9302 1.72292C20.995 1.66043 21.0468 1.58562 21.0824 1.50286C21.1181 1.4201 21.1371 1.33103 21.1381 1.24086C21.1272 1.06559 21.0501 0.90111 20.9224 0.780891C20.7948 0.660671 20.6263 0.59375 20.4513 0.59375C20.2763 0.59375 20.1079 0.660671 19.9804 0.780891C19.8527 0.90111 19.7756 1.06559 19.7646 1.24086C19.7675 1.41944 19.8399 1.58979 19.9666 1.71532C20.0932 1.84085 20.2639 1.91155 20.4419 1.91224Z" fill="#002B50"/>
<path d="M15.6221 5.60893C15.7023 5.60785 15.7805 5.58306 15.8468 5.53767C15.9133 5.49227 15.9649 5.42828 15.9952 5.35366C16.0256 5.27905 16.0334 5.19711 16.0176 5.11808C16.0019 5.03905 15.9633 4.96643 15.9067 4.90925C15.8501 4.85208 15.778 4.81289 15.6993 4.79658C15.6207 4.78027 15.5389 4.78756 15.4643 4.81754C15.3898 4.84751 15.3257 4.89884 15.28 4.96514C15.2343 5.03144 15.2091 5.10976 15.2075 5.19033C15.2071 5.24518 15.2176 5.29955 15.2383 5.35032C15.259 5.40109 15.2894 5.44726 15.328 5.48617C15.3664 5.52507 15.4123 5.55594 15.4628 5.57702C15.5132 5.59809 15.5674 5.60893 15.6221 5.60893Z" fill="#002B50"/>
<path d="M32.4672 6.75618C32.4835 6.44904 32.8735 5.68524 32.3805 5.54118C30.5356 5.01386 29.9423 4.79368 28.7151 3.53518C28.6149 3.43475 28.4936 3.35819 28.3599 3.31113C28.2263 3.26408 28.0838 3.24776 27.943 3.26337C27.4689 3.32316 27.1303 3.72273 27.2657 4.0625C27.3533 4.28391 27.4554 4.49912 27.5718 4.7067C27.5881 4.7067 29.2135 7.63957 26.4448 8.21855V8.07176C26.4469 7.99336 26.4767 7.91824 26.5288 7.85975C26.6669 7.72034 26.7896 7.56633 26.8946 7.40039C26.9883 7.25128 27.0432 7.08096 27.0541 6.90503C27.0651 6.72911 27.0318 6.55324 26.9574 6.39357C26.883 6.23391 26.7698 6.09558 26.6281 5.99128C26.4865 5.88698 26.3209 5.82007 26.1469 5.79667C26.0639 5.77846 25.9797 5.76664 25.8949 5.76134C25.8642 6.18274 25.7729 6.59745 25.6239 6.99267C25.5644 7.11226 25.4967 7.11226 25.4019 7.11226H25.1065C25.0036 7.11226 24.9466 7.11226 24.8871 6.99267C24.7423 6.59623 24.6512 6.1821 24.6161 5.76134C24.5305 5.76646 24.4454 5.77827 24.3616 5.79667C24.1877 5.82046 24.0225 5.88767 23.8812 5.99212C23.7399 6.09658 23.6271 6.23496 23.5529 6.39456C23.4787 6.55417 23.4457 6.72989 23.4569 6.90562C23.4679 7.08136 23.5229 7.25148 23.6166 7.40039C23.7182 7.56792 23.8402 7.72222 23.9795 7.85975C24.007 7.88768 24.0286 7.92082 24.0429 7.95724C24.0573 7.99366 24.0644 8.03259 24.0636 8.07176V8.18049C22.904 8.11255 22.4055 6.82142 22.4218 6.43816V5.97335C22.4233 5.84316 22.4747 5.71854 22.5654 5.62544C22.7916 5.39235 22.9931 5.13639 23.1669 4.86164C23.3232 4.61423 23.4149 4.33123 23.4335 4.03885C23.4519 3.74647 23.3966 3.45411 23.2726 3.18885C23.1487 2.92358 22.9601 2.69396 22.7243 2.52122C22.4883 2.34848 22.2129 2.2382 21.9234 2.20057C21.795 2.17262 21.6645 2.15534 21.5332 2.14893C21.5332 2.14893 21.3897 3.48353 21.0402 4.18754C20.9481 4.38325 20.837 4.38325 20.6771 4.38325H20.203C20.0432 4.38325 19.9322 4.38325 19.8401 4.18754C19.5014 3.48353 19.347 2.14893 19.347 2.14893C19.2203 2.15608 19.0943 2.17334 18.9705 2.20057C18.6836 2.2409 18.4112 2.35246 18.1782 2.52516C17.9452 2.69786 17.759 2.9262 17.6363 3.18946C17.5135 3.45272 17.4583 3.74257 17.4756 4.03269C17.4929 4.32281 17.582 4.60401 17.7351 4.85076C17.9082 5.12589 18.1098 5.38192 18.3365 5.61456C18.4272 5.70766 18.4787 5.83229 18.4801 5.96249V6.4137C18.4801 6.7888 17.9897 8.08807 16.8384 8.15603V8.05274C16.8405 7.97433 16.8703 7.89921 16.9223 7.84072C17.0593 7.70103 17.1811 7.54703 17.2854 7.38136C17.3766 7.23214 17.4294 7.06242 17.4387 6.88757C17.4482 6.71273 17.4139 6.53831 17.3391 6.3801C17.2643 6.22191 17.1513 6.08495 17.0104 5.98164C16.8696 5.87834 16.7052 5.81196 16.5322 5.78853C16.4483 5.77013 16.3632 5.75831 16.2776 5.75319C16.2468 6.17457 16.1555 6.5893 16.0066 6.98451C15.9897 7.02705 15.9586 7.0623 15.9184 7.08416C15.8783 7.10601 15.832 7.11307 15.7872 7.10411H15.4865C15.3836 7.10411 15.3239 7.10411 15.2644 6.98451C15.1196 6.58808 15.0284 6.17395 14.9934 5.75319C14.9087 5.75848 14.8245 5.7703 14.7414 5.78853C14.5674 5.81192 14.4019 5.87883 14.2603 5.98312C14.1186 6.08742 14.0054 6.22576 13.9309 6.38542C13.8565 6.54508 13.8233 6.72095 13.8342 6.89687C13.8452 7.0728 13.9001 7.24313 13.9938 7.39222C14.097 7.56093 14.2217 7.71535 14.3649 7.8516C14.3924 7.87953 14.4139 7.91268 14.4282 7.94908C14.4427 7.98549 14.4498 8.02444 14.4489 8.06362V8.21039C11.6558 7.63686 13.2813 4.68224 13.3084 4.69039C13.4247 4.48283 13.527 4.2676 13.6145 4.0462C13.75 3.70642 13.4113 3.30685 12.9372 3.24706C12.7964 3.23085 12.6538 3.24689 12.52 3.29397C12.3863 3.34105 12.265 3.41795 12.1651 3.51887C10.9379 4.78553 10.3446 4.99755 8.50782 5.52487C8.01747 5.66893 8.39673 6.43273 8.42383 6.73987C8.45634 7.327 8.49156 7.57163 6.73877 8.67792C8.81123 8.35445 9.44788 8.25116 9.7513 9.90923C10.1268 9.41177 10.3295 8.80454 10.3283 8.18049C10.34 7.52596 10.1341 6.88615 9.74318 6.36206C9.74318 6.36206 9.74318 6.36206 9.74318 6.34575C9.68506 6.26063 9.64579 6.16404 9.62796 6.06244C9.61014 5.96084 9.6142 5.85658 9.63986 5.75669C9.66553 5.65678 9.7122 5.56356 9.77674 5.48325C9.84129 5.40295 9.92222 5.33742 10.0141 5.29111C11.0408 4.79097 12.8343 3.89941 12.6311 4.82359C12.4792 5.38607 12.4054 5.96688 12.4116 6.5496C12.4469 7.04975 12.4956 7.4167 12.7665 7.72929C12.9834 7.95066 13.2483 8.1188 13.5406 8.22064C13.8329 8.32248 14.1447 8.35525 14.4516 8.3164H16.291C16.451 8.33995 16.6135 8.33995 16.7733 8.3164H16.833C17.3992 8.22398 18.3066 7.82441 19.1601 6.4137H21.7526C22.6088 7.83258 23.5135 8.23213 24.0826 8.3164H24.1421C24.3021 8.33956 24.4644 8.33956 24.6244 8.3164H26.4611C26.7681 8.35483 27.0797 8.32186 27.372 8.22005C27.6641 8.11823 27.9291 7.95031 28.1462 7.72929C28.417 7.4167 28.4686 7.04975 28.5011 6.5496C28.5082 5.96951 28.4343 5.3913 28.2817 4.83173C28.0784 3.90757 29.8747 4.79911 30.8986 5.29926C30.9914 5.34455 31.0735 5.40955 31.1388 5.48976C31.2042 5.56996 31.2512 5.66345 31.277 5.76376C31.3028 5.86406 31.3065 5.96879 31.2879 6.07069C31.2695 6.17258 31.229 6.26922 31.1696 6.3539C31.1696 6.3539 31.1696 6.3539 31.1696 6.37021C30.7825 6.89309 30.5779 7.52926 30.5871 8.18049C30.5887 8.80616 30.7899 9.41487 31.1614 9.91738C31.4676 8.25932 32.1016 8.36261 34.1767 8.68606C32.3887 7.58794 32.432 7.34331 32.4672 6.75618Z" fill="#002B50"/>
<path d="M25.2505 5.60893C25.3309 5.60785 25.4091 5.58306 25.4754 5.53767C25.5418 5.49227 25.5933 5.42828 25.6237 5.35366C25.6541 5.27905 25.6619 5.19711 25.6462 5.11808C25.6303 5.03905 25.5918 4.96643 25.5352 4.90925C25.4785 4.85208 25.4064 4.81289 25.3278 4.79658C25.2491 4.78027 25.1675 4.78756 25.0929 4.81754C25.0182 4.84751 24.9542 4.89884 24.9085 4.96514C24.8628 5.03144 24.8377 5.10976 24.836 5.19033C24.8353 5.24528 24.8455 5.29981 24.866 5.35074C24.8866 5.40168 24.917 5.44799 24.9556 5.48698C24.9943 5.52596 25.0402 5.55681 25.0908 5.57776C25.1414 5.5987 25.1957 5.6093 25.2505 5.60893Z" fill="#002B50"/>
<path d="M11.1415 12.3582C12.4202 12.119 14.6796 12.9018 15.6386 13.6928C17.6163 15.3074 18.0254 18.561 16.1019 21.2276H24.5543C22.6336 18.561 23.0563 15.3074 25.0203 13.6928C25.9875 12.9018 28.2387 12.119 29.5174 12.3582C29.5608 12.3582 30.3734 9.60474 25.1151 9.60474H21.8642C21.8642 9.60474 23.449 10.9883 22.5577 12.3827C20.8131 14.6251 20.4175 16.4871 20.339 18.5448C20.255 16.4871 19.8648 14.6251 18.1202 12.3827C17.2398 10.9991 18.8165 9.60474 18.8165 9.60474H15.5655C10.3017 9.60474 11.0982 12.3664 11.1415 12.3582Z" fill="#002B50"/>
<path d="M6.67656 27.9766C7.87129 27.7999 9.87874 27.0932 11.851 25.5303C11.851 25.5303 10.7673 27.6803 6.16183 29.6346C8.01487 30.2543 9.42903 29.7869 10.3014 29.2079C11.3688 28.4686 11.8781 28.1207 13.6552 26.218C12.791 27.8243 12.3007 28.7839 9.70806 30.8062C9.70806 30.8062 10.9624 31.2574 12.6231 30.3903C13.0121 30.1957 13.3517 29.9146 13.616 29.5684C13.8803 29.2221 14.0624 28.82 14.1483 28.3924C14.3244 27.3052 15.6871 27.2807 15.7548 28.4875C15.7548 28.4875 15.7548 23.3041 15.7548 21.9097C14.3244 23.6166 12.3847 22.7088 11.962 21.3661C11.962 21.3661 11.488 19.6509 13.0457 18.8246C13.0457 18.8246 13.6227 18.5527 12.894 18.1451C12.894 18.1451 6.18621 13.6329 3.26308 6.45703C3.26308 6.45703 1.3342 9.83026 3.45814 12.8121C5.26242 15.1415 6.90685 16.8893 8.45645 18.0201C8.45645 18.0201 5.65252 18.0634 0.95221 12.4478C0.95221 12.4478 -0.0203618 15.5139 2.30676 17.3758C4.06261 18.9047 6.21135 19.9077 8.50792 20.2706C8.50792 20.2706 4.15438 21.4258 0.00672921 17.229C0.00672921 17.229 -0.264182 20.4391 2.63186 21.6542C3.79408 22.1489 5.90989 22.6925 9.04433 22.5294C9.04433 22.5294 5.25157 24.3152 0.193658 22.157C0.464569 24.4512 2.4964 25.3589 4.15709 25.2992C6.20645 25.3352 8.2482 25.0397 10.2038 24.424C10.2038 24.424 7.61121 26.4381 2.34741 26.7371C3.77239 28.4196 5.81507 28.1043 6.67656 27.9766Z" fill="#002B50"/>
<path d="M31.6002 22.5213C34.7428 22.6817 36.8505 22.1381 38.0127 21.6461C40.9142 20.4312 40.6433 17.2183 40.6433 17.2183C36.501 21.4069 32.1474 20.2599 32.1474 20.2599C34.4472 19.8977 36.599 18.8936 38.3568 17.3623C40.6921 15.5031 39.7114 12.4344 39.7114 12.4344C35.011 18.05 32.2071 18.0093 32.2071 18.0093C33.7594 16.8786 35.4038 15.128 37.2081 12.8013C39.3321 9.81135 37.4031 6.44629 37.4031 6.44629C34.4801 13.6086 27.7723 18.1343 27.7723 18.1343C27.0436 18.5502 27.6205 18.8139 27.6205 18.8139C29.1701 19.6294 28.7043 21.3526 28.7043 21.3526C28.2897 22.6954 26.3826 23.5978 24.9521 21.9479V28.2131C25.1905 27.2863 26.3582 27.3814 26.5179 28.3845C26.6025 28.8121 26.7841 29.2146 27.0485 29.5606C27.3131 29.9066 27.6534 30.1868 28.0431 30.3795C29.7038 31.2466 30.9555 30.7954 30.9555 30.7954C28.3656 28.765 27.8752 27.8055 27.011 26.2072C28.7801 28.1099 29.2895 28.4606 30.3648 29.1971C31.2373 29.7735 32.6514 30.2409 34.5044 29.6212C29.899 27.6668 28.8152 25.5168 28.8152 25.5168C30.7903 27.0797 32.7869 27.7864 33.9897 27.9632C34.862 28.099 36.8966 28.4144 38.3243 26.7318C33.0497 26.4356 30.4679 24.4214 30.4679 24.4214C32.4176 25.0352 34.4523 25.3334 36.4957 25.3048C38.1482 25.3645 40.1881 24.4458 40.4428 22.1518C35.3877 24.3127 31.6002 22.5213 31.6002 22.5213Z" fill="#002B50"/>
<path d="M31.221 33.9594C31.3532 33.9594 31.4826 33.92 31.5927 33.8464C31.7027 33.7726 31.7884 33.6676 31.8392 33.5451C31.8898 33.4223 31.9031 33.2873 31.8772 33.1571C31.8514 33.0269 31.7876 32.9072 31.694 32.8133C31.6005 32.7195 31.4813 32.6555 31.3515 32.6296C31.2217 32.6037 31.087 32.6169 30.9649 32.6678C30.8426 32.7186 30.7381 32.8046 30.6646 32.9151C30.591 33.0255 30.5518 33.1553 30.5518 33.2881C30.5518 33.4661 30.6222 33.6369 30.7478 33.7628C30.8732 33.8887 31.0434 33.9594 31.221 33.9594Z" fill="#002B50"/>
<path d="M32.4759 34.3805C32.319 34.5593 32.126 34.7023 31.9097 34.8003C31.6934 34.8984 31.4589 34.9492 31.2215 34.9492C30.9842 34.9492 30.7495 34.8984 30.5333 34.8003C30.317 34.7023 30.1241 34.5593 29.9672 34.3805C29.6182 34.646 29.3604 35.0141 29.2297 35.4338C29.099 35.8532 29.1021 36.3032 29.2385 36.7208C27.8351 36.2996 26.2585 35.7994 27.1985 34.2228C28.5531 31.7358 26.0038 30.1021 24.9635 30.1104C25.4159 34.0027 20.6451 30.1104 20.358 33.5271C20.0681 30.1104 15.3082 33.9891 15.7525 30.1185C14.9397 30.2733 12.7291 30.9529 13.2195 33.595C13.5121 34.3615 14.276 35.6526 12.9892 36.161C10.8219 37.2862 11.296 35.9489 9.73826 36.2534L6.32478 32.8556C6.3515 32.6747 6.31688 32.4902 6.22648 32.3315C6.13608 32.1728 5.99515 32.0491 5.8263 31.9804C5.94464 31.7021 5.97718 31.3947 5.91971 31.0976C5.86224 30.8007 5.71743 30.5279 5.50392 30.3141L4.92959 30.9013C4.18458 30.2897 3.12531 31.3307 3.70778 32.0892L3.11719 32.6844C3.33237 32.9005 3.60768 33.0464 3.90698 33.1026C4.20627 33.1589 4.51554 33.1231 4.79413 32.9997C4.85932 33.1727 4.98118 33.3182 5.13968 33.4126C5.29818 33.5069 5.48394 33.5444 5.66646 33.5188L9.07724 36.9247C8.99573 37.1384 8.97767 37.3713 9.02522 37.5951C9.07278 37.8191 9.18392 38.0243 9.34523 38.1861C9.50653 38.3479 9.71109 38.4595 9.93419 38.5072C10.1573 38.555 10.3894 38.5368 10.6025 38.455C10.8165 38.6073 11.4423 39.4498 11.7457 39.3982C12.8592 39.1862 11.6617 38.1615 11.296 37.8271C12.0573 36.6665 14.677 37.3135 14.8368 36.4926C14.3898 36.0603 13.7857 33.6929 16.2076 33.2634C16.8578 33.1872 18.8815 33.4591 18.4291 35.3618C18.3839 35.5101 18.3008 35.6441 18.1883 35.7504C18.0756 35.8567 17.9373 35.9316 17.7871 35.9679C14.8071 36.8975 12.5612 39.8386 15.3894 40.7084C15.999 38.2022 16.8307 37.838 18.8544 37.0117C17.8547 37.8706 14.8693 41.2601 17.9307 41.9832C18.0823 40.268 18.4725 39.2216 19.6672 37.906C19.4288 39.8767 18.2151 42.3908 20.3011 43.2525C22.3248 42.5404 21.2059 39.8711 20.9702 37.906C22.1649 39.2324 22.5551 40.2789 22.7067 41.9832C25.7681 41.2439 22.7908 37.8788 21.783 37.0117C23.8067 37.8271 24.6384 38.2022 25.248 40.7084C28.0735 39.8332 25.8656 36.9029 22.8666 35.9679C22.7154 35.9329 22.5762 35.8584 22.463 35.7519C22.3497 35.6455 22.2665 35.5108 22.2219 35.3618C21.7749 33.4591 23.7932 33.1872 24.446 33.2796C26.8842 33.72 26.2585 36.0712 25.8196 36.5088C25.8358 37.0008 26.5293 36.9083 26.5293 36.9083C27.529 36.941 29.7478 37.5879 29.7478 37.5879C31.823 39.6347 34.8003 36.093 32.4759 34.3805Z" fill="#002B50"/>
<path d="M62.4814 18.9029L62.4709 11.5273H61.6098L58.5853 16.7113L55.5188 11.5273H54.6577V18.9029H55.6659V13.5608L58.3228 18.0073H58.8058L61.4628 13.5292L61.4733 18.9029H62.4814ZM64.6016 18.9029H65.5258L68.9283 14.8358V18.9029H69.9365V13.3185H69.0228L65.6098 17.3856V13.3185H64.6016V18.9029ZM71.8933 18.9029H72.9015V16.5637H76.073V18.9029H77.0812V13.3185H76.073V15.6892H72.9015V13.3185H71.8933V18.9029ZM86.067 16.1002C86.067 14.3722 84.8488 13.3817 82.78 13.2658V11.0847H81.7928V13.2658C79.7031 13.3712 78.5163 14.3722 78.5163 16.1002C78.5163 17.8492 79.7135 18.8608 81.7928 18.9767V20.9471H82.78V18.9767C84.8594 18.8608 86.067 17.8387 86.067 16.1002ZM79.514 16.1002C79.514 14.9412 80.2596 14.2668 81.7928 14.1614V18.0811C80.2701 17.9758 79.514 17.2908 79.514 16.1002ZM82.78 18.0916V14.1614C84.3027 14.2668 85.0694 14.9306 85.0694 16.1002C85.0694 17.3013 84.3027 17.9758 82.78 18.0916ZM87.4919 18.9029H88.4161L91.8186 14.8358V18.9029H92.8268V13.3185H91.9131L88.5001 17.3856V13.3185H87.4919V18.9029ZM94.7836 18.9029H95.7918V16.5637H98.9633V18.9029H99.9715V13.3185H98.9633V15.6892H95.7918V13.3185H94.7836V18.9029ZM57.5246 25.7469H54.6577V33.1224H55.7079V30.8887H57.5246C59.4359 30.8887 60.5911 29.9193 60.5911 28.3178C60.5911 26.7162 59.4359 25.7469 57.5246 25.7469ZM57.4932 29.9721H55.7079V26.6635H57.4932C58.8374 26.6635 59.5409 27.2641 59.5409 28.3178C59.5409 29.3715 58.8374 29.9721 57.4932 29.9721ZM64.2473 33.1857C65.9171 33.1857 67.1352 31.9951 67.1352 30.3303C67.1352 28.6655 65.9171 27.4854 64.2473 27.4854C62.5775 27.4854 61.3489 28.6655 61.3489 30.3303C61.3489 31.9951 62.5775 33.1857 64.2473 33.1857ZM64.2473 32.3007C63.1761 32.3007 62.3675 31.5209 62.3675 30.3303C62.3675 29.1397 63.1761 28.3704 64.2473 28.3704C65.3184 28.3704 66.1166 29.1397 66.1166 30.3303C66.1166 31.5209 65.3184 32.3007 64.2473 32.3007ZM71.017 33.1857C72.0146 33.1857 72.8442 32.7643 73.2853 31.9846L72.5187 31.4998C72.1615 32.0477 71.6155 32.3007 71.0064 32.3007C69.9142 32.3007 69.0951 31.5419 69.0951 30.3303C69.0951 29.1397 69.9142 28.3704 71.0064 28.3704C71.6155 28.3704 72.1615 28.6234 72.5187 29.1712L73.2853 28.676C72.8442 27.8963 72.0146 27.4854 71.017 27.4854C69.3051 27.4854 68.0765 28.6655 68.0765 30.3303C68.0765 31.9951 69.3051 33.1857 71.017 33.1857ZM76.9344 33.1857C77.9319 33.1857 78.7616 32.7643 79.2026 31.9846L78.4361 31.4998C78.0791 32.0477 77.533 32.3007 76.9239 32.3007C75.8316 32.3007 75.0126 31.5419 75.0126 30.3303C75.0126 29.1397 75.8316 28.3704 76.9239 28.3704C77.533 28.3704 78.0791 28.6234 78.4361 29.1712L79.2026 28.676C78.7616 27.8963 77.9319 27.4854 76.9344 27.4854C75.2226 27.4854 73.9939 28.6655 73.9939 30.3303C73.9939 31.9951 75.2226 33.1857 76.9344 33.1857ZM80.5079 33.1224H81.4321L84.8346 29.0554V33.1224H85.8428V27.5381H84.9291L81.5161 31.6052V27.5381H80.5079V33.1224ZM87.7996 33.1224H88.7238L92.1262 29.0554V33.1224H93.1345V27.5381H92.2208L88.8078 31.6052V27.5381H87.7996V33.1224Z" fill="#002B50"/>
</g>
<defs>
<clipPath id="clip0_1_3319">
<rect width="100" height="43" fill="white" transform="translate(0 0.5)"/>
</clipPath>
</defs>
</svg>
