<svg width="103" height="101" viewBox="0 0 103 101" fill="none" xmlns="http://www.w3.org/2000/svg">
<path fill-rule="evenodd" clip-rule="evenodd" d="M78.1339 97.9991C74.1832 98.5456 69.6467 98.2324 64.5965 97.0414C54.1786 94.5842 42.2548 88.5473 31.0181 80.0417C19.7817 71.5362 10.7322 61.6978 5.5392 52.338C-0.457912 41.5278 -0.871222 32.1702 4.34617 25.2778L13.5836 13.0742C14.861 11.3861 16.7253 10.2961 18.8292 10.005C18.8296 10.0045 18.8292 10.005 18.8315 10.0047C20.9353 9.71368 23.0261 10.2568 24.7136 11.5347L33.4553 18.1523C35.145 19.4299 36.2338 21.2935 36.5251 23.3994C36.8166 25.5047 36.2743 27.5941 34.995 29.282L26.9982 39.8461C25.7987 41.4326 26.9983 44.7443 30.2933 48.9307C33.5474 53.0665 38.5845 57.8011 44.477 62.2612C50.3678 66.7212 56.292 70.2845 61.1568 72.2936C66.0806 74.3267 69.5937 74.5831 70.7929 72.9966L78.7901 62.4318C80.0696 60.7438 81.9319 59.6541 84.038 59.3628C86.1421 59.0712 88.2328 59.6145 89.9201 60.8925L98.6641 67.51C100.352 68.7875 101.44 70.6513 101.732 72.7573C102.023 74.8622 101.481 76.9517 100.204 78.6395L90.9646 90.8433C87.939 94.8432 83.5967 97.2438 78.1339 97.9991Z" fill="#FF9D00"/>
<path fill-rule="evenodd" clip-rule="evenodd" d="M98.0537 44.5264C96.2716 44.7729 94.353 43.9997 93.479 41.8128C89.9924 33.0881 84.1693 25.4652 76.6409 19.7669C69.1146 14.0683 60.1957 10.5348 50.8533 9.54779C48.0088 9.24732 46.7512 6.89569 46.9815 4.72737C47.2091 2.57108 48.926 0.545257 51.7708 0.845925C62.6955 1.99853 73.122 6.1292 81.9225 12.7913C90.7232 19.4531 97.5302 28.3658 101.604 38.566C102.665 41.2219 101.182 43.4265 99.1694 44.2309C98.8104 44.3737 98.4361 44.4737 98.0537 44.5264Z" fill="#FF9D00"/>
<path fill-rule="evenodd" clip-rule="evenodd" d="M82.9152 50.8967C81.1291 51.1438 79.2003 50.3638 78.3407 48.1651C75.9681 42.0998 71.9549 36.8057 66.7366 32.8541C61.5162 28.9024 55.3309 26.4779 48.849 25.8413C46.0124 25.5626 44.7431 23.2275 44.9558 21.0644C45.169 18.9022 46.8673 16.8594 49.7019 17.1368C57.7917 17.9282 65.5078 20.9513 72.0159 25.8788C78.5242 30.8054 83.529 37.411 86.4863 44.9805C87.5239 47.6341 86.0199 49.8237 83.9965 50.6146C83.6481 50.7503 83.2847 50.8456 82.9152 50.8967Z" fill="#FF9D00"/>
</svg>
