<svg width="20" height="21" viewBox="0 0 20 21" fill="none" xmlns="http://www.w3.org/2000/svg">
<path fill-rule="evenodd" clip-rule="evenodd" d="M10.4417 14.2867C10.3245 14.4037 10.1657 14.4694 10 14.4694C9.83441 14.4694 9.67556 14.4037 9.55837 14.2867L3.30837 8.03666C3.19797 7.91818 3.13787 7.76148 3.14072 7.59956C3.14358 7.43764 3.20917 7.28316 3.32368 7.16865C3.43819 7.05413 3.59268 6.98854 3.7546 6.98568C3.91652 6.98283 4.07322 7.04293 4.1917 7.15333L10 12.9617L15.8084 7.15333C15.8656 7.09192 15.9346 7.04267 16.0113 7.00851C16.0879 6.97435 16.1707 6.95598 16.2546 6.9545C16.3385 6.95302 16.4219 6.96846 16.4997 6.99989C16.5775 7.03133 16.6482 7.07812 16.7076 7.13746C16.7669 7.19681 16.8137 7.26751 16.8451 7.34533C16.8766 7.42316 16.892 7.50651 16.8905 7.59043C16.889 7.67435 16.8707 7.75711 16.8365 7.83378C16.8024 7.91044 16.7531 7.97944 16.6917 8.03666L10.4417 14.2867Z" fill="#9CA3AF"/>
</svg>
