<svg width="20" height="21" viewBox="0 0 20 21" fill="none" xmlns="http://www.w3.org/2000/svg">
<path d="M6.79814 2.63464C5.61776 2.63634 4.48626 3.10621 3.65191 3.94116C2.81756 4.77611 2.3485 5.90795 2.34766 7.08832V13.4474C2.34935 14.6278 2.81922 15.7593 3.65417 16.5936C4.48912 17.428 5.62096 17.897 6.80133 17.8979H13.1604C14.3408 17.8962 15.4723 17.4263 16.3066 16.5914C17.141 15.7564 17.6101 14.6246 17.6109 13.4442V7.08592C17.6092 5.90555 17.1393 4.77405 16.3044 3.9397C15.4694 3.10535 14.3376 2.63629 13.1572 2.63544H6.79894L6.79814 2.63464ZM14.431 5.17892C14.5171 5.1746 14.6033 5.18783 14.6841 5.21783C14.765 5.24782 14.839 5.29395 14.9015 5.3534C14.964 5.41285 15.0138 5.48439 15.0478 5.56367C15.0818 5.64295 15.0993 5.72832 15.0993 5.81459C15.0993 5.90085 15.0818 5.98622 15.0478 6.0655C15.0138 6.14478 14.964 6.21632 14.9015 6.27578C14.839 6.33523 14.765 6.38135 14.6841 6.41135C14.6033 6.44134 14.5171 6.45458 14.431 6.45026C14.2679 6.44207 14.1142 6.37153 14.0017 6.25322C13.8891 6.1349 13.8264 5.97787 13.8264 5.81459C13.8264 5.65131 13.8891 5.49427 14.0017 5.37596C14.1142 5.25764 14.2679 5.1871 14.431 5.17892ZM9.97888 6.45026C10.9908 6.4511 11.961 6.85346 12.6766 7.56899C13.3921 8.28452 13.7944 9.25475 13.7953 10.2667C13.7942 11.2783 13.3919 12.2482 12.6766 12.9635C11.9612 13.6789 10.9913 14.0812 9.97968 14.0823C8.9679 14.0814 7.9978 13.6792 7.28229 12.9638C6.56678 12.2485 6.16433 11.2784 6.16327 10.2667C6.16411 9.25489 6.56636 8.28478 7.28172 7.56927C7.99708 6.85377 8.9671 6.45131 9.97888 6.45026ZM9.97888 7.72239C9.64481 7.72239 9.31402 7.78819 9.00538 7.91603C8.69674 8.04388 8.41631 8.23126 8.18009 8.46748C7.94387 8.7037 7.75649 8.98413 7.62865 9.29277C7.5008 9.60141 7.43501 9.9322 7.43501 10.2663C7.43501 10.6003 7.5008 10.9311 7.62865 11.2398C7.75649 11.5484 7.94387 11.8288 8.18009 12.0651C8.41631 12.3013 8.69674 12.4887 9.00538 12.6165C9.31402 12.7443 9.64481 12.8101 9.97888 12.8101C10.6536 12.8101 11.3006 12.5421 11.7777 12.0651C12.2547 11.588 12.5228 10.9409 12.5228 10.2663C12.5228 9.59159 12.2547 8.94454 11.7777 8.46748C11.3006 7.99041 10.6536 7.72239 9.97888 7.72239Z" fill="#9CA3AF"/>
</svg>
