<svg width="236" height="89" viewBox="0 0 236 89" fill="none" xmlns="http://www.w3.org/2000/svg">
<rect x="2.5" y="2.11279" width="231" height="84" rx="42" stroke="#F62016" stroke-width="4"/>
<path d="M43.3019 62.7972C43.3019 64.4058 41.9978 65.7099 40.3892 65.7099C38.7806 65.7099 37.4767 64.4058 37.4767 62.7972C37.4767 61.1886 38.7806 59.8845 40.3892 59.8845C41.998 59.8845 43.3019 61.1885 43.3019 62.7972Z" fill="#D40000"/>
<path d="M40.3891 34.9648C39.5 34.9648 38.7791 34.244 38.7791 33.3548V32.0764C38.7791 31.1872 39.5 30.4663 40.3891 30.4663C41.2784 30.4663 41.9992 31.1872 41.9992 32.0764V33.3548C41.9992 34.244 41.2784 34.9648 40.3891 34.9648Z" fill="#D40000"/>
<path d="M57.72 60.0161H23.0587C23.2946 59.4511 23.6063 58.9035 23.9849 58.3791C27.6375 53.3168 29.6793 47.2672 30.2181 41.0484L30.3084 40.0057C30.5094 37.6697 31.7386 35.6192 33.5619 34.157C34.7124 33.2308 36.1018 32.5374 37.6194 32.153C38.5048 31.9288 39.4368 31.8093 40.3893 31.8093C45.5653 31.8093 50.0653 35.3337 50.4702 40.0057L50.5606 41.0484C50.9567 45.6243 52.1655 50.107 54.2305 54.1703C54.9733 55.6324 55.8266 57.0393 56.7938 58.3791C57.1754 58.9035 57.4841 59.4512 57.72 60.0161Z" fill="#F00000"/>
<path opacity="0.6" d="M30.7522 41.0484L30.8425 40.0057C31.0434 37.6697 32.2725 35.6192 34.096 34.157C35.2464 33.2308 36.6358 32.5374 38.1534 32.153C38.9715 31.9459 39.8302 31.8328 40.7072 31.8161C40.6013 31.8132 40.4958 31.8093 40.3893 31.8093C39.4368 31.8093 38.5048 31.9288 37.6194 32.153C36.1018 32.5374 34.7124 33.2308 33.5619 34.157C31.7386 35.6192 30.5094 37.6698 30.3084 40.0057L30.2181 41.0484C29.6792 47.2672 27.6373 53.3168 23.9849 58.3791C23.6063 58.9034 23.2946 59.4511 23.0587 60.0161H23.5928C23.8286 59.4511 24.1403 58.9035 24.519 58.3791C28.1715 53.3168 30.2134 47.2671 30.7522 41.0484Z" fill="#FFAF80"/>
<path opacity="0.3" d="M57.72 60.0161H23.0587C23.2946 59.4511 23.6063 58.9036 23.9849 58.3792C27.6375 53.3169 29.6793 47.2672 30.2181 41.0485L30.3084 40.0057C30.5094 37.6697 31.7386 35.6193 33.5619 34.157C34.7124 33.2308 36.1018 32.5374 37.6194 32.1531C31.0017 40.1309 32.8337 58.5218 46.8468 56.1305C49.7655 55.6325 52.2004 54.9538 54.2306 54.1704C54.9734 55.6325 55.8268 57.0393 56.7939 58.3792C57.1754 58.9036 57.4841 59.4512 57.72 60.0161Z" fill="#A60000"/>
<path d="M58.5778 60.8901C58.5778 61.2483 58.5075 61.5892 58.3795 61.892C58.2726 62.1453 58.1291 62.3726 57.9542 62.5677C57.5707 62.9987 57.0386 63.2639 56.4516 63.2639H24.3297C23.1531 63.2639 22.2009 62.2007 22.2009 60.89C22.2009 60.3104 22.3862 59.7802 22.694 59.3667C22.7358 59.3113 22.7775 59.2589 22.8245 59.2093C23.2081 58.7783 23.7403 58.5132 24.3298 58.5132H56.4519C57.1067 58.5132 57.6937 58.8452 58.085 59.3666C58.3928 59.7774 58.5778 60.3076 58.5778 60.8901Z" fill="#F00000"/>
<path opacity="0.2" d="M58.3797 61.892C58.2728 62.1453 58.1292 62.3726 57.9544 62.5677C57.5708 62.9987 57.0388 63.2639 56.4517 63.2639H24.3297C23.1531 63.2639 22.2009 62.2007 22.2009 60.89C22.2009 60.2316 22.4384 59.6375 22.8244 59.2093C23.2079 58.7783 23.7401 58.5132 24.3297 58.5132H26.701C26.234 60.421 30.3481 61.8918 34.3448 61.8918H58.3797V61.892Z" fill="#910000"/>
<path opacity="0.3" d="M58.0848 59.3667H22.6938C22.7356 59.3113 22.7773 59.2589 22.8243 59.2093C23.2079 58.7783 23.7401 58.5132 24.3296 58.5132H56.4517C57.1065 58.5132 57.6935 58.8452 58.0848 59.3667Z" fill="#FFF9CF"/>
<path opacity="0.4" d="M47.0642 34.9754C48.314 36.2532 48.8091 37.7957 48.1703 38.4206C47.5314 39.0455 46.0003 38.5162 44.7505 37.2383C43.5007 35.9605 43.0056 34.4181 43.6444 33.7932C44.2833 33.1683 45.8143 33.6976 47.0642 34.9754Z" fill="#FFF9CF"/>
<path opacity="0.3" d="M49.7354 39.6172C50.0156 40.2919 49.9118 40.9764 49.5032 41.1462C49.0947 41.3159 48.5363 40.9065 48.256 40.2319C47.9758 39.5572 48.0796 38.8727 48.4882 38.7029C48.8967 38.5331 49.4551 38.9425 49.7354 39.6172Z" fill="#FFF9CF"/>
<path d="M24.59 44.6574C24.2479 41.6427 24.8249 38.2646 26.215 35.1452C27.7042 31.8037 30.0032 28.9982 32.6884 27.2454L33.9622 29.1967C31.6476 30.7074 29.6523 33.1568 28.3433 36.0938C27.1197 38.839 26.6092 41.7869 26.9052 44.3946L24.59 44.6574Z" fill="#D40000"/>
<path d="M20.6283 45.7951C20.1712 41.7688 20.9441 37.2523 22.8045 33.0778C24.7976 28.6066 27.8691 24.8555 31.4538 22.5156L32.7276 24.467C29.5135 26.5647 26.7455 29.9597 24.9329 34.0264C23.2393 37.8267 22.5328 41.9129 22.9438 45.5324L20.6283 45.7951Z" fill="#D40000"/>
<path d="M56.4105 44.6574C56.7527 41.6427 56.1755 38.2646 54.7855 35.1452C53.2962 31.8037 50.9973 28.9982 48.3119 27.2454L47.0383 29.1967C49.3528 30.7074 51.348 33.1568 52.657 36.0938C53.8806 38.839 54.3913 41.7869 54.0952 44.3946L56.4105 44.6574Z" fill="#D40000"/>
<path d="M60.3716 45.7951C60.8287 41.7688 60.0558 37.2523 58.1955 33.0778C56.2025 28.6066 53.131 24.8555 49.5463 22.5156L48.2726 24.467C51.4865 26.5647 54.2546 29.9597 56.0671 34.0264C57.7608 37.8267 58.4674 41.9129 58.0564 45.5324L60.3716 45.7951Z" fill="#D40000"/>
<path d="M82.3922 54.1128V33.7492H90.5456C92.0437 33.7492 93.2932 33.9712 94.2941 34.4153C95.2951 34.8595 96.0475 35.476 96.5512 36.2648C97.055 37.047 97.3069 37.9485 97.3069 38.9693C97.3069 39.7648 97.1478 40.4641 96.8297 41.0673C96.5115 41.6639 96.074 42.1545 95.5172 42.5389C94.967 42.9168 94.3372 43.1852 93.628 43.3443V43.5432C94.4035 43.5763 95.1294 43.7951 95.8055 44.1994C96.4883 44.6038 97.0418 45.1706 97.466 45.8997C97.8903 46.6223 98.1024 47.484 98.1024 48.485C98.1024 49.5654 97.8339 50.5299 97.297 51.3784C96.7667 52.2203 95.9812 52.8865 94.9405 53.377C93.8997 53.8675 92.6171 54.1128 91.0924 54.1128H82.3922ZM86.6976 50.5929H90.2075C91.4073 50.5929 92.2823 50.3642 92.8325 49.9068C93.3827 49.4428 93.6578 48.8263 93.6578 48.0574C93.6578 47.4939 93.5219 46.9968 93.2501 46.5659C92.9783 46.135 92.5905 45.797 92.0868 45.5517C91.5896 45.3064 90.9963 45.1838 90.3069 45.1838H86.6976V50.5929ZM86.6976 42.2705H89.8893C90.4793 42.2705 91.003 42.1677 91.4603 41.9622C91.9244 41.7501 92.2889 41.4518 92.5541 41.0673C92.8259 40.6829 92.9618 40.2222 92.9618 39.6852C92.9618 38.9494 92.6999 38.3562 92.1762 37.9054C91.6592 37.4546 90.9234 37.2293 89.9689 37.2293H86.6976V42.2705ZM110.654 44.7861V48.1171H102.679V44.7861H110.654ZM104.071 38.8401V54.1128H100.024V38.8401H104.071ZM113.308 38.8401V54.1128H109.291V38.8401H113.308ZM119.842 48.5247L125.34 38.8401H129.516V54.1128H125.479V44.3983L120.001 54.1128H115.795V38.8401H119.842V48.5247ZM141.14 49.4296L145.277 38.8401H148.498L142.542 54.1128H139.728L133.912 38.8401H137.123L141.14 49.4296ZM136.159 38.8401V54.1128H132.112V38.8401H136.159ZM146.331 54.1128V38.8401H150.328V54.1128H146.331ZM157.159 54.4011C156.185 54.4011 155.316 54.2321 154.554 53.894C153.792 53.5493 153.188 53.0422 152.744 52.3727C152.307 51.6966 152.088 50.8547 152.088 49.8472C152.088 48.9987 152.244 48.2861 152.555 47.7094C152.867 47.1327 153.291 46.6687 153.828 46.3173C154.365 45.966 154.975 45.7009 155.658 45.5219C156.347 45.3429 157.07 45.217 157.825 45.144C158.714 45.0512 159.429 44.9651 159.973 44.8855C160.517 44.7993 160.911 44.6734 161.156 44.5077C161.402 44.342 161.524 44.0967 161.524 43.7719V43.7122C161.524 43.0825 161.325 42.5953 160.928 42.2506C160.537 41.9059 159.98 41.7335 159.257 41.7335C158.495 41.7335 157.888 41.9026 157.438 42.2406C156.987 42.5721 156.688 42.9897 156.543 43.4935L152.625 43.1753C152.824 42.2473 153.215 41.4452 153.798 40.769C154.382 40.0863 155.134 39.5626 156.055 39.198C156.983 38.8268 158.057 38.6412 159.277 38.6412C160.126 38.6412 160.938 38.7406 161.713 38.9395C162.495 39.1384 163.188 39.4466 163.791 39.8642C164.401 40.2818 164.882 40.8188 165.233 41.475C165.584 42.1246 165.76 42.9035 165.76 43.8117V54.1128H161.743V51.9949H161.624C161.378 52.4722 161.05 52.8931 160.639 53.2577C160.228 53.6156 159.734 53.8974 159.158 54.1028C158.581 54.3017 157.915 54.4011 157.159 54.4011ZM158.372 51.4778C158.995 51.4778 159.545 51.3552 160.023 51.11C160.5 50.8581 160.875 50.52 161.146 50.0957C161.418 49.6715 161.554 49.1909 161.554 48.654V47.0332C161.421 47.1194 161.239 47.199 161.007 47.2719C160.782 47.3382 160.527 47.4011 160.242 47.4608C159.956 47.5138 159.671 47.5636 159.386 47.61C159.101 47.6497 158.843 47.6862 158.611 47.7193C158.114 47.7922 157.679 47.9082 157.308 48.0673C156.937 48.2264 156.649 48.4419 156.443 48.7136C156.238 48.9788 156.135 49.3102 156.135 49.708C156.135 50.2847 156.344 50.7255 156.761 51.0304C157.186 51.3287 157.723 51.4778 158.372 51.4778ZM178.875 44.7861V48.1171H170.901V44.7861H178.875ZM172.293 38.8401V54.1128H168.246V38.8401H172.293ZM181.53 38.8401V54.1128H177.513V38.8401H181.53ZM188.063 48.5247L193.562 38.8401H197.738V54.1128H193.701V44.3983L188.222 54.1128H184.017V38.8401H188.063V48.5247ZM207.294 54.4111C205.723 54.4111 204.371 54.0929 203.237 53.4565C202.11 52.8136 201.242 51.9054 200.632 50.7321C200.022 49.5522 199.717 48.1568 199.717 46.546C199.717 44.975 200.022 43.5962 200.632 42.4097C201.242 41.2231 202.1 40.2984 203.207 39.6355C204.321 38.9726 205.627 38.6412 207.125 38.6412C208.132 38.6412 209.07 38.8036 209.939 39.1284C210.814 39.4466 211.576 39.9272 212.226 40.5702C212.882 41.2132 213.392 42.0219 213.757 42.9963C214.122 43.9641 214.304 45.0976 214.304 46.3969V47.5602H201.408V44.9352H210.317C210.317 44.3254 210.184 43.7851 209.919 43.3145C209.654 42.8439 209.286 42.476 208.815 42.2108C208.351 41.939 207.811 41.8031 207.195 41.8031C206.552 41.8031 205.981 41.9523 205.484 42.2506C204.994 42.5422 204.609 42.9367 204.331 43.4338C204.052 43.9243 203.91 44.4712 203.903 45.0744V47.5702C203.903 48.3259 204.043 48.9788 204.321 49.529C204.606 50.0792 205.007 50.5034 205.524 50.8017C206.041 51.1 206.654 51.2492 207.364 51.2492C207.834 51.2492 208.265 51.1829 208.656 51.0503C209.047 50.9177 209.382 50.7189 209.66 50.4537C209.939 50.1886 210.151 49.8637 210.297 49.4793L214.214 49.7378C214.016 50.6791 213.608 51.5011 212.991 52.2037C212.382 52.8997 211.593 53.4433 210.625 53.8344C209.664 54.2189 208.553 54.4111 207.294 54.4111Z" fill="#F62016"/>
</svg>
