<svg width="240" height="56" viewBox="0 0 240 56" fill="none" xmlns="http://www.w3.org/2000/svg">
<path d="M30.7663 18.9248C30.8123 18.1858 31.0633 17.4468 31.4733 16.7748C31.5873 16.5958 31.7013 16.4398 31.8153 16.2608C32.8348 16.4789 33.8226 16.8249 34.7553 17.2908C34.4363 17.7158 34.1853 18.2088 34.0953 18.7908C34.0035 19.3878 34.0739 19.9984 34.2993 20.5588C34.5493 21.1188 34.9153 21.6118 35.3483 21.9918C35.7813 22.3948 36.2593 22.6868 36.7843 22.9548C37.8 23.4425 38.8971 23.7385 40.0203 23.8278C40.2483 23.8508 40.4763 23.8508 40.7043 23.8508C40.7503 23.9848 40.8183 24.1408 40.8643 24.2988C40.4313 24.3428 40.0203 24.3888 39.5873 24.3888C37.9923 24.4328 36.3733 24.2318 34.8923 23.7168C33.4103 23.1788 32.0423 22.3058 31.3133 21.0298C30.9085 20.4056 30.7166 19.6671 30.7663 18.9248ZM38.9493 29.6048C36.3513 29.4708 33.7523 28.9328 31.3823 27.8358C30.1973 27.2988 29.0573 26.6048 28.0543 25.7318C27.0513 24.8578 26.1843 23.8058 25.6613 22.5748C25.1158 21.3453 24.9336 19.9855 25.1363 18.6558C25.2503 17.8958 25.5013 17.1558 25.8203 16.4848C24.3881 16.88 23.0429 17.5405 21.8543 18.4318C21.8313 18.6118 21.8093 18.8128 21.7863 18.9918C21.6732 20.454 21.9902 21.9174 22.6983 23.2018C23.3813 24.4778 24.4303 25.5968 25.6153 26.4918C26.8327 27.3865 28.1671 28.1099 29.5813 28.6418C32.4313 29.7398 35.5313 30.1868 38.6073 30.1648C39.4973 30.1648 40.3853 30.0978 41.2743 30.0078C41.2973 29.8738 41.3203 29.7398 41.3423 29.5828C40.5461 29.6461 39.7465 29.6534 38.9493 29.6048ZM29.1023 24.4778C30.0143 25.1718 31.0403 25.7088 32.1123 26.1348C34.2763 26.9628 36.6473 27.3208 38.9953 27.2758C39.8153 27.2758 40.6133 27.2088 41.4113 27.1198C41.4113 27.0528 41.4113 26.9848 41.3883 26.9398C41.3883 26.8728 41.3653 26.8058 41.3653 26.7398C40.7503 26.7618 40.1353 26.7618 39.5193 26.7398C37.6733 26.6268 35.8263 26.2238 34.1173 25.4398C33.2743 25.0378 32.4533 24.5448 31.7473 23.9398C31.0403 23.3128 30.4023 22.5518 29.9913 21.6788C29.5813 20.8058 29.4213 19.7988 29.5813 18.8358C29.7183 17.8958 30.1283 17.0218 30.6753 16.2828C30.7152 16.2257 30.7612 16.1731 30.8123 16.1258C29.9296 15.9945 29.0348 15.9643 28.1453 16.0358C27.7803 16.0588 27.4383 16.1258 27.0973 16.1708C26.6643 16.9998 26.3673 17.8948 26.2993 18.7908C26.1873 19.8908 26.4097 20.9991 26.9373 21.9708C27.4163 22.9548 28.1913 23.8058 29.1023 24.4778ZM38.5623 32.5158C35.2343 32.3818 31.9063 31.7098 28.8523 30.3658C27.3253 29.6948 25.8663 28.8438 24.5663 27.7458C23.2673 26.6718 22.1503 25.3728 21.4213 23.8278C20.7847 22.4956 20.4872 21.0267 20.5553 19.5518C19.3017 20.7788 18.3365 22.2691 17.7295 23.9148C17.1225 25.5606 16.8888 27.3207 17.0453 29.0678C17.6373 35.6728 23.5863 40.5538 30.3103 39.9488C35.0293 39.5458 38.8803 36.5458 40.5453 32.5158C39.8845 32.5382 39.2231 32.5382 38.5623 32.5158ZM35.5763 17.7378C35.3756 18.094 35.2657 18.4941 35.2563 18.9028C35.2563 19.2828 35.3703 19.6418 35.5763 19.9328C35.9863 20.5598 36.7163 20.9848 37.5133 21.2308C38.1513 21.4328 38.8353 21.4998 39.5193 21.4998C38.4903 19.9772 37.1455 18.6941 35.5763 17.7378Z" fill="#002981"/>
<path fill-rule="evenodd" clip-rule="evenodd" d="M127.492 35.1422C126.164 34.4242 125.124 33.4552 124.406 32.1992C123.652 30.9432 123.293 29.5432 123.293 28.0002C123.293 26.4572 123.652 25.0572 124.406 23.8012C125.159 22.5452 126.2 21.5762 127.492 20.8582C128.82 20.1412 130.291 19.7822 131.942 19.7822C133.593 19.7822 135.064 20.1412 136.356 20.8582C137.637 21.5361 138.705 22.5546 139.443 23.8012C140.206 25.0684 140.603 26.5215 140.591 28.0002C140.603 29.4789 140.206 30.9321 139.443 32.1992C138.689 33.4552 137.648 34.4242 136.356 35.1422C135.064 35.8592 133.557 36.2182 131.942 36.2182C130.291 36.1822 128.784 35.8232 127.492 35.1422ZM134.454 32.4142C135.208 31.9842 135.782 31.3742 136.213 30.6202C136.644 29.8662 136.859 28.9692 136.859 28.0002C136.859 27.0312 136.644 26.1342 136.213 25.3802C135.782 24.6272 135.208 24.0162 134.454 23.5862C133.701 23.1562 132.839 22.9402 131.906 22.9402C130.973 22.9402 130.112 23.1552 129.358 23.5862C128.605 24.0162 128.03 24.6262 127.6 25.3802C127.169 26.1342 126.954 27.0312 126.954 28.0002C126.954 28.9692 127.169 29.8662 127.6 30.6202C128.03 31.3732 128.605 31.9832 129.358 32.4142C130.112 32.8442 130.973 33.0602 131.906 33.0602C132.875 33.0602 133.701 32.8452 134.454 32.4142ZM61.4943 22.7602C60.9563 21.9002 60.1673 21.2532 59.1263 20.7872C58.0863 20.3202 56.8653 20.1052 55.4663 20.1052H48.6113V35.8952H52.2713V31.5172H55.4653C56.8653 31.5172 58.0853 31.3022 59.1253 30.8352C60.0924 30.4248 60.9168 29.7381 61.4953 28.8612C62.0333 28.0002 62.3203 26.9592 62.3203 25.8112C62.3203 24.6272 62.0333 23.6202 61.4943 22.7602ZM58.6593 25.8472C58.6593 26.7082 58.3723 27.3902 57.7983 27.8572C57.2243 28.3232 56.3633 28.5742 55.2863 28.5742H52.3073V23.0842H55.2863C56.3983 23.0842 57.2243 23.3342 57.7983 23.8012C58.3723 24.2682 58.6593 24.9502 58.6593 25.8472ZM67.9543 20.1052H64.3303V35.9302H67.7753L75.3113 25.6302V35.9302H78.9363V20.1052H75.4913L67.9543 30.4052V20.1052ZM92.9323 32.5222H85.5753L84.1753 35.9322H80.4073L87.4773 20.1052H91.1023L98.1723 35.9312H94.3323L92.9323 32.5222ZM91.7483 29.7592L89.2363 23.6932L86.7243 29.7592H91.7483ZM119.848 35.9312V20.1052H116.187V26.3492H109.01V20.1052H105.349V35.9302H109.01V29.4352H116.187V35.9302L119.848 35.9312ZM157.925 31.4812C157.925 30.5122 157.674 29.7232 157.171 29.0772C156.633 28.4312 155.915 27.9642 154.982 27.6772C155.659 27.3841 156.234 26.8969 156.633 26.2772C157.028 25.6672 157.207 24.9852 157.207 24.1962C157.207 22.9042 156.705 21.8992 155.664 21.1812C154.623 20.4642 153.188 20.1052 151.358 20.1052H144.001V35.9302H151.788C153.762 35.9302 155.269 35.5352 156.346 34.7462C157.387 33.9922 157.925 32.8802 157.925 31.4802V31.4812ZM151.035 26.6362H147.625V22.7602H151.035C151.824 22.7602 152.398 22.9402 152.829 23.2632C153.224 23.6222 153.439 24.0882 153.439 24.6982C153.439 25.3442 153.224 25.8112 152.829 26.1342C152.434 26.4572 151.824 26.6362 151.035 26.6362ZM151.645 29.1842C153.367 29.1842 154.229 29.8302 154.229 31.1582C154.229 32.5222 153.367 33.2042 151.645 33.2042H147.625V29.1842H151.645ZM164.493 35.1422C163.165 34.4242 162.124 33.4552 161.406 32.1992C160.653 30.9432 160.294 29.5432 160.294 28.0002C160.294 26.4572 160.653 25.0572 161.406 23.8012C162.16 22.5452 163.201 21.5762 164.493 20.8582C165.82 20.1412 167.292 19.7822 168.943 19.7822C170.593 19.7822 172.065 20.1412 173.357 20.8582C174.638 21.5359 175.706 22.5544 176.443 23.8012C177.206 25.0681 177.604 26.5214 177.592 28.0002C177.604 29.4791 177.206 30.9324 176.443 32.1992C175.69 33.4552 174.649 34.4242 173.357 35.1422C172.065 35.8592 170.558 36.2182 168.943 36.2182C167.292 36.1822 165.82 35.8232 164.493 35.1422ZM171.455 32.4142C172.208 31.9842 172.783 31.3742 173.213 30.6202C173.644 29.8662 173.859 28.9692 173.859 28.0002C173.859 27.0312 173.644 26.1342 173.213 25.3802C172.783 24.6272 172.208 24.0162 171.455 23.5862C170.701 23.1562 169.84 22.9402 168.907 22.9402C167.974 22.9402 167.112 23.1552 166.359 23.5862C165.605 24.0162 165.031 24.6262 164.6 25.3802C164.17 26.1342 163.954 27.0312 163.954 28.0002C163.954 28.9692 164.17 29.8662 164.6 30.6202C165.031 31.3732 165.605 31.9832 166.359 32.4142C167.112 32.8442 167.974 33.0602 168.907 33.0602C169.876 33.0602 170.701 32.8452 171.455 32.4142ZM181.001 32.2342C181.755 33.4542 182.795 34.4242 184.087 35.1422C185.415 35.8592 186.851 36.1822 188.501 36.1822C189.865 36.1822 191.121 35.9322 192.234 35.4652C193.346 34.9622 194.279 34.2802 195.033 33.3472L192.664 31.1942C191.588 32.4502 190.26 33.0602 188.681 33.0602C187.712 33.0602 186.815 32.8452 186.061 32.4142C185.313 31.9889 184.693 31.369 184.267 30.6202C183.836 29.8662 183.621 28.9692 183.621 28.0002C183.621 27.0312 183.836 26.1342 184.267 25.3802C184.693 24.6314 185.313 24.0116 186.061 23.5862C186.815 23.1562 187.712 22.9402 188.681 22.9402C190.26 22.9402 191.588 23.5862 192.664 24.8062L195.033 22.6532C194.281 21.7449 193.321 21.0308 192.234 20.5712C191.121 20.1052 189.865 19.8532 188.501 19.8532C186.851 19.8532 185.379 20.1762 184.087 20.8942C182.759 21.5762 181.755 22.5452 181.001 23.8012C180.247 25.0212 179.888 26.4212 179.888 28.0002C179.888 29.5792 180.247 31.0142 181.001 32.2342ZM209.891 23.0842H204.83V35.9302H201.206V23.0832H196.181V20.1052H209.891V23.0842ZM216.386 20.1042H212.762V35.9312H216.207L223.743 25.6312V35.9312H227.368V20.1052H223.923L216.386 30.4052V20.1042Z" fill="#003057"/>
</svg>
