<svg width="267" height="45" viewBox="0 0 267 45" fill="none" xmlns="http://www.w3.org/2000/svg">
<g clip-path="url(#clip0_0_428)">
<path d="M119.699 13.2782L125.241 9.13663H106.683V33.9482H125.241V29.8032H111.984V23.4705H123.315V19.3289H111.984V13.2782H119.699Z" fill="#21A038"/>
<path d="M92.6623 18.7992H86.2333V13.2782H96.5184L102.063 9.13663H80.9325V33.9482H91.9778C98.1661 33.9482 101.74 31.1035 101.74 26.1501C101.74 21.3997 98.5273 18.7992 92.6623 18.7992ZM91.7783 29.8032H86.2333V22.9407H91.7783C95.1528 22.9407 96.7179 24.0793 96.7179 26.3943C96.7179 28.7093 95.0324 29.8032 91.7783 29.8032Z" fill="#21A038"/>
<path d="M140.267 9.13663H130.184V33.9482H135.485V26.9206H140.308C146.733 26.9206 150.751 23.5117 150.751 18.0286C150.751 12.5455 146.733 9.13663 140.267 9.13663ZM140.146 22.7791H135.447V13.2782H140.146C143.562 13.2782 145.409 14.9844 145.409 18.0286C145.409 21.0729 143.562 22.7791 140.146 22.7791Z" fill="#21A038"/>
<path d="M71.8514 28.5854C70.4479 29.3594 68.8794 29.7653 67.273 29.7653C62.4916 29.7653 59.038 26.3117 59.038 21.5613C59.038 16.8109 62.4916 13.3573 67.273 13.3573C68.9998 13.3194 70.6887 13.887 72.0922 14.9018L75.9104 12.0604L75.6696 11.8162C73.4612 9.82455 70.4858 8.80979 67.1113 8.80979C63.4582 8.80979 60.1215 10.0688 57.7136 12.3425C55.3023 14.6988 53.9367 17.9873 54.0158 21.3996C53.9745 24.8498 55.3023 28.1795 57.7136 30.615C60.2419 33.0125 63.6164 34.3541 67.0734 34.2715C70.8882 34.2715 74.2214 32.93 76.4711 30.4946L73.0588 27.9353L71.8514 28.5854Z" fill="#21A038"/>
<path d="M214.505 9.17791V33.9861H219.806V23.8351H231.095V33.9861H236.4V9.17791H231.095V19.3702H219.806V9.17791H214.505ZM205.386 33.9861H210.969L200.605 9.17791H195.221L184.657 33.9861H190L192.129 28.9914H203.377L205.386 33.9861ZM193.735 24.8498L197.832 14.9018L201.688 24.8498H193.735ZM248.291 23.9589H251.583L259.698 33.9482H266.526L255.68 21.1142L265.16 9.13663H259.096L251.222 19.7761H248.291V9.13663H242.987V33.9482H248.291V23.9589ZM167.142 18.8404V13.3195H181.001V9.17791H161.838V33.9861H172.886C179.071 33.9861 182.649 31.1448 182.649 26.1914C182.649 21.441 179.436 18.8404 173.567 18.8404H167.142ZM167.142 29.8445V22.982H172.687C176.058 22.982 177.626 24.1206 177.626 26.4356C177.626 28.7506 175.979 29.8858 172.687 29.8858H167.142V29.8445Z" fill="#21A038"/>
<path d="M37.4253 8.97514C38.3884 10.2341 39.1933 11.6135 39.8744 13.0754L21.3165 26.9208L13.5218 21.9674V16.0406L21.2752 20.9527L37.4253 8.97514Z" fill="#21A038"/>
<path d="M5.60703 21.5613C5.60703 21.2758 5.60703 21.035 5.64831 20.7495L0.949481 20.5052C0.949481 20.832 0.908203 21.1966 0.908203 21.52C0.908203 27.206 3.19914 32.3624 6.89353 36.098L10.2267 32.727C7.37511 29.8857 5.60703 25.9471 5.60703 21.5613Z" fill="url(#paint0_linear_0_428)"/>
<path d="M21.2755 5.72441C21.5575 5.72441 21.7983 5.72441 22.0804 5.76569L22.3212 1.01527C21.9978 1.01527 21.6367 0.973991 21.3168 0.973991C15.6926 0.973991 10.5913 3.28901 6.89349 7.02467L10.2267 10.3957C13.0405 7.51313 16.9757 5.72441 21.2755 5.72441Z" fill="url(#paint1_linear_0_428)"/>
<path d="M21.2753 37.3983C20.9932 37.3983 20.7524 37.3983 20.4703 37.3571L20.2296 42.1075C20.5529 42.1075 20.9141 42.1488 21.234 42.1488C26.8581 42.1488 31.9629 39.8337 35.6572 36.0981L32.324 32.727C29.5103 35.6509 25.6129 37.3983 21.2753 37.3983Z" fill="url(#paint2_linear_0_428)"/>
<path d="M30.1122 8.48655L34.0887 5.52141C30.5938 2.6801 26.1357 0.932655 21.2752 0.932655V5.68308C24.5706 5.72436 27.6217 6.73911 30.1122 8.48655Z" fill="url(#paint3_linear_0_428)"/>
<path d="M41.6838 21.5614C41.6838 20.3024 41.5634 19.0847 41.3604 17.867L36.9815 21.1555C36.9815 21.2759 36.9815 21.441 36.9815 21.5614C36.9815 26.2327 34.9726 30.4155 31.8011 33.2981L34.9726 36.8308C39.0729 33.0952 41.6838 27.6121 41.6838 21.5614Z" fill="#21A038"/>
<path d="M21.2752 37.3984C16.6554 37.3984 12.5173 35.3689 9.66569 32.1595L6.17081 35.3689C9.90648 39.5518 15.2898 42.1488 21.2752 42.1488V37.3984Z" fill="url(#paint4_linear_0_428)"/>
<path d="M10.7909 9.82475L7.6159 6.29203C3.47777 10.069 0.908203 15.5108 0.908203 21.5615H5.60703C5.60703 16.9315 7.6159 12.7108 10.7909 9.82475Z" fill="url(#paint5_linear_0_428)"/>
</g>
<defs>
<linearGradient id="paint0_linear_0_428" x1="6.39245" y1="35.5205" x2="1.56657" y2="21.5077" gradientUnits="userSpaceOnUse">
<stop offset="0.1444" stop-color="#F2E913"/>
<stop offset="0.3037" stop-color="#E7E518"/>
<stop offset="0.5823" stop-color="#CADB26"/>
<stop offset="0.891" stop-color="#A3CD39"/>
</linearGradient>
<linearGradient id="paint1_linear_0_428" x1="8.23376" y1="6.48841" x2="20.4271" y2="1.82068" gradientUnits="userSpaceOnUse">
<stop offset="0.0592" stop-color="#0FA8E0"/>
<stop offset="0.5385" stop-color="#0099F9"/>
<stop offset="0.9234" stop-color="#0291EB"/>
</linearGradient>
<linearGradient id="paint2_linear_0_428" x1="19.955" y1="38.1084" x2="34.4842" y2="34.8099" gradientUnits="userSpaceOnUse">
<stop offset="0.1226" stop-color="#A3CD39"/>
<stop offset="0.2846" stop-color="#86C339"/>
<stop offset="0.8693" stop-color="#21A038"/>
</linearGradient>
<linearGradient id="paint3_linear_0_428" x1="20.3097" y1="3.95951" x2="32.3926" y2="7.70454" gradientUnits="userSpaceOnUse">
<stop offset="0.0566" stop-color="#0291EB"/>
<stop offset="0.79" stop-color="#0C8ACB"/>
</linearGradient>
<linearGradient id="paint4_linear_0_428" x1="7.36565" y1="36.1204" x2="20.3469" y2="40.9928" gradientUnits="userSpaceOnUse">
<stop offset="0.1324" stop-color="#F2E913"/>
<stop offset="0.2977" stop-color="#EBE716"/>
<stop offset="0.5306" stop-color="#D9E01F"/>
<stop offset="0.8023" stop-color="#BBD62D"/>
<stop offset="0.9829" stop-color="#A3CD39"/>
</linearGradient>
<linearGradient id="paint5_linear_0_428" x1="4.50969" y1="22.1355" x2="9.72622" y2="8.5039" gradientUnits="userSpaceOnUse">
<stop offset="0.0698" stop-color="#A3CD39"/>
<stop offset="0.2599" stop-color="#81C55F"/>
<stop offset="0.9216" stop-color="#0FA8E0"/>
</linearGradient>
<clipPath id="clip0_0_428">
<rect width="265.941" height="44.3235" fill="white" transform="translate(0.787598 0.421127)"/>
</clipPath>
</defs>
</svg>
