<svg width="50" height="51" viewBox="0 0 50 51" fill="none" xmlns="http://www.w3.org/2000/svg">
<g filter="url(#filter0_i_0_2733)">
<rect y="0.582886" width="50" height="50" rx="7.8125" fill="url(#paint0_linear_0_2733)"/>
<path d="M36.1621 24.6096H9.53125C9.22045 24.6096 8.92238 24.4862 8.70261 24.2664C8.48284 24.0466 8.35938 23.7486 8.35938 23.4378C8.35938 23.127 8.48284 22.8289 8.70261 22.6091C8.92238 22.3893 9.22045 22.2659 9.53125 22.2659H36.1621C36.4729 22.2659 36.771 22.3893 36.9908 22.6091C37.2105 22.8289 37.334 23.127 37.334 23.4378C37.334 23.7486 37.2105 24.0466 36.9908 24.2664C36.771 24.4862 36.4729 24.6096 36.1621 24.6096ZM15.8682 34.8671H12.8072C12.4964 34.8671 12.1984 34.7436 11.9786 34.5238C11.7588 34.3041 11.6354 34.006 11.6354 33.6952C11.6354 33.3844 11.7588 33.0863 11.9786 32.8665C12.1984 32.6468 12.4964 32.5233 12.8072 32.5233H15.8682C16.179 32.5233 16.477 32.6468 16.6968 32.8665C16.9166 33.0863 17.04 33.3844 17.04 33.6952C17.04 34.006 16.9166 34.3041 16.6968 34.5238C16.477 34.7436 16.179 34.8671 15.8682 34.8671ZM22.8455 34.8671H19.7852C19.4744 34.8671 19.1763 34.7436 18.9565 34.5238C18.7367 34.3041 18.6133 34.006 18.6133 33.6952C18.6133 33.3844 18.7367 33.0863 18.9565 32.8665C19.1763 32.6468 19.4744 32.5233 19.7852 32.5233H22.8455C23.1563 32.5233 23.4544 32.6468 23.6741 32.8665C23.8939 33.0863 24.0174 33.3844 24.0174 33.6952C24.0174 34.006 23.8939 34.3041 23.6741 34.5238C23.4544 34.7436 23.1563 34.8671 22.8455 34.8671Z" fill="#3E3F3E"/>
<path d="M33.7832 38.9686H11.9084C10.9673 38.9671 10.0652 38.5924 9.39995 37.9268C8.73467 37.2612 8.36046 36.3589 8.35938 35.4178V20.0387C8.36031 19.0973 8.7347 18.1947 9.4004 17.529C10.0661 16.8633 10.9687 16.4889 11.9102 16.488H33.7832C34.7246 16.489 35.6271 16.8635 36.2928 17.5292C36.9585 18.1948 37.3329 19.0973 37.334 20.0387V35.4178C37.3327 36.3592 36.9582 37.2616 36.2926 37.9272C35.627 38.5929 34.7246 38.9674 33.7832 38.9686ZM11.9084 18.8317C11.5884 18.832 11.2815 18.9593 11.0552 19.1856C10.8289 19.4119 10.7017 19.7187 10.7014 20.0387V35.4178C10.7017 35.7379 10.8289 36.0447 11.0552 36.271C11.2815 36.4973 11.5884 36.6246 11.9084 36.6249H33.7832C34.1032 36.6246 34.4101 36.4973 34.6364 36.271C34.8627 36.0447 34.9899 35.7379 34.9902 35.4178V20.0387C34.9899 19.7187 34.8627 19.4119 34.6364 19.1856C34.4101 18.9593 34.1032 18.832 33.7832 18.8317H11.9084Z" fill="#3E3F3E"/>
<path d="M38.0916 34.6778H36.7135C36.4027 34.6778 36.1046 34.5543 35.8848 34.3346C35.6651 34.1148 35.5416 33.8167 35.5416 33.5059C35.5416 33.1951 35.6651 32.8971 35.8848 32.6773C36.1046 32.4575 36.4027 32.334 36.7135 32.334H38.0916C38.4116 32.3337 38.7185 32.2065 38.9448 31.9802C39.1711 31.7539 39.2983 31.447 39.2986 31.127V15.7479C39.2983 15.4279 39.1711 15.1211 38.9448 14.8948C38.7185 14.6685 38.4116 14.5412 38.0916 14.5409H16.2168C15.8968 14.5412 15.5899 14.6685 15.3636 14.8948C15.1373 15.1211 15.0101 15.4279 15.0098 15.7479V17.1507C15.0098 17.4615 14.8863 17.7595 14.6665 17.9793C14.4468 18.1991 14.1487 18.3225 13.8379 18.3225C13.5271 18.3225 13.229 18.1991 13.0092 17.9793C12.7895 17.7595 12.666 17.4615 12.666 17.1507V15.7479C12.6673 14.8066 13.0418 13.9041 13.7074 13.2385C14.373 12.5729 15.2755 12.1984 16.2168 12.1971H38.0916C39.033 12.1982 39.9355 12.5727 40.6012 13.2383C41.2668 13.904 41.6413 14.8065 41.6424 15.7479V31.127C41.6415 32.0685 41.2671 32.9711 40.6014 33.6368C39.9357 34.3025 39.033 34.6769 38.0916 34.6778Z" fill="#3E3F3E"/>
</g>
<defs>
<filter id="filter0_i_0_2733" x="0" y="0.582886" width="50" height="50.3906" filterUnits="userSpaceOnUse" color-interpolation-filters="sRGB">
<feFlood flood-opacity="0" result="BackgroundImageFix"/>
<feBlend mode="normal" in="SourceGraphic" in2="BackgroundImageFix" result="shape"/>
<feColorMatrix in="SourceAlpha" type="matrix" values="0 0 0 0 0 0 0 0 0 0 0 0 0 0 0 0 0 0 127 0" result="hardAlpha"/>
<feOffset dy="0.390625"/>
<feGaussianBlur stdDeviation="4.88281"/>
<feComposite in2="hardAlpha" operator="arithmetic" k2="-1" k3="1"/>
<feColorMatrix type="matrix" values="0 0 0 0 1 0 0 0 0 0.990837 0 0 0 0 0.990837 0 0 0 0.15 0"/>
<feBlend mode="normal" in2="shape" result="effect1_innerShadow_0_2733"/>
</filter>
<linearGradient id="paint0_linear_0_2733" x1="0" y1="0.582886" x2="47.5" y2="48.8329" gradientUnits="userSpaceOnUse">
<stop stop-color="#FFD600"/>
<stop offset="0.49" stop-color="#FFDD2C"/>
<stop offset="1" stop-color="#FFE874"/>
</linearGradient>
</defs>
</svg>
