<svg width="55" height="55" viewBox="0 0 55 55" fill="none" xmlns="http://www.w3.org/2000/svg">
<path fill-rule="evenodd" clip-rule="evenodd" d="M37.5014 18.1809C36.655 17.4422 35.4377 17.4591 34.7393 17.6736C35.1967 17.1145 36.2627 16.6559 36.5764 16.6003C36.8153 16.6895 37.5014 17.3911 37.5014 18.1809ZM40.204 15.1219C39.6473 12.1578 32.7272 14.1221 29.2422 12.863C29.1755 13.7272 30.3151 15.1117 31.4053 15.6239C29.542 17.2339 27.8692 20.4774 27.5313 24.4399C27.1949 20.4774 25.5219 17.2339 23.6587 15.6241C24.7486 15.1119 25.8893 13.7274 25.8216 12.8634C22.3367 14.1225 15.4164 12.1583 14.8588 15.1225C14.7415 15.7501 15.0447 16.7059 15.3722 16.9809C15.4308 16.7821 15.7368 16.1316 16.7015 15.9859C21.5768 15.2526 25.6474 22.7324 21.973 25.7566C21.917 25.803 21.9487 25.8876 22.0243 25.8876H33.0405C33.1152 25.8876 33.1469 25.8028 33.0917 25.7567C29.4164 22.7327 33.4869 15.253 38.3625 15.9863C39.3277 16.132 39.6329 16.7823 39.6917 16.9811C40.0192 16.7061 40.3222 15.7495 40.204 15.1219ZM41.3899 8.31921C41.3022 8.03914 44.1611 8.03208 44.1611 9.81338C44.1611 11.0069 42.4509 11.5722 42.4509 12.811C42.4509 13.3879 43.0745 13.8108 43.2659 13.8108C42.8253 11.8223 44.6465 12.863 45.1384 13.2347C44.1611 10.5605 46.3609 10.5772 46.1443 9.351C45.9937 8.49427 44.0813 8.75296 43.3894 8.31921C42.1614 7.54982 40.7085 4.55535 39.7511 7.54982C41.5359 9.19917 40.4973 11.6272 38.2314 11.6272C38.2314 11.6272 38.2189 11.9831 38.2396 12.0113C40.9422 11.8798 41.8843 9.90239 41.3899 8.31921ZM9.85943 13.2347C10.3512 12.863 12.1722 11.8223 11.7327 13.8108C11.9232 13.8108 12.5467 13.3879 12.5467 12.811C12.5467 11.5722 10.8366 11.0069 10.8366 9.81338C10.8366 8.03208 13.6953 8.03914 13.6077 8.31921C13.1141 9.90258 14.0562 11.8799 16.7588 12.0113C16.7788 11.9831 16.7662 11.627 16.7662 11.627C14.5013 11.627 13.4627 9.19917 15.2465 7.54964C14.2892 4.55535 12.8363 7.54964 11.6082 8.31902C10.9161 8.75296 9.00381 8.49409 8.85333 9.351C8.6377 10.5776 10.8366 10.5605 9.85943 13.2347ZM17.5332 18.1809C18.3804 17.4422 19.598 17.4591 20.2954 17.6736C19.8398 17.1145 18.7719 16.6559 18.459 16.6003C18.22 16.6895 17.5332 17.3911 17.5332 18.1809ZM28.8171 1.6001L27.499 0L26.1806 1.6001L27.4986 3.28382L28.8171 1.6001ZM36.3428 6.43812L35.4056 5.30114L34.4687 6.43812L35.4054 7.54945L36.3428 6.43812ZM43.9469 39.3065L42.7588 38.0546L41.5703 39.3063L42.7588 40.4046L43.9469 39.3065ZM20.5297 6.43812L19.5924 5.30114L18.6558 6.43812L19.5926 7.54945L20.5297 6.43812ZM17.8444 12.0115H21.3412C24.2811 12.0115 25.6039 10.2152 26.0036 8.65744H28.995C29.3949 10.2152 30.7169 12.0113 33.6577 12.0113H37.1545C37.1545 12.0113 37.7662 11.1853 37.9196 10.7762C38.4719 9.30436 37.7662 8.61767 36.7365 8.61767L35.4054 9.81858L34.0746 8.61804C33.045 8.61804 32.3393 9.30435 32.8915 10.7764C32.9621 10.9645 33.1309 11.241 33.2907 11.4841C32.0499 11.3144 30.466 10.4688 30.1187 8.65744C30.1187 8.65744 31.0354 7.20787 31.2658 6.62117C32.0923 4.51131 31.0365 3.649 29.4926 3.649L27.4992 5.98132L25.5058 3.649C23.9619 3.649 22.9063 4.51131 23.7337 6.62117C23.9628 7.20787 24.8806 8.65763 24.8806 8.65763C24.5324 10.4688 22.9489 11.3144 21.7081 11.4843C21.8686 11.2408 22.0367 10.9645 22.1069 10.7762C22.6582 9.30436 21.9543 8.61786 20.924 8.61786L19.5928 9.81877L18.2617 8.61823C17.2315 8.61823 16.5276 9.30454 17.079 10.7766C17.2324 11.1854 17.8444 12.0115 17.8444 12.0115ZM53.9958 22.8007C53.3209 23.1408 49.3613 24.9872 44.2891 24.3042C44.3417 24.0634 44.3863 23.8209 44.4228 23.5772C47.7986 23.1752 50.5427 22.6052 52.2915 21.637C54.2848 20.5325 55.1565 17.896 54.1504 15.9348C54.1243 15.8854 54.052 15.8765 54.016 15.9181C53.4645 16.55 49.9977 20.304 44.5356 21.471C44.5216 21.1893 44.4958 20.9083 44.4581 20.6288C47.111 19.1313 49.7009 17.4058 50.9346 15.828C52.7985 13.4425 52.6272 10.3995 50.8532 8.84811C50.8441 8.84031 50.8334 8.83454 50.8219 8.83117C50.8103 8.82781 50.7982 8.82693 50.7863 8.82861C50.7744 8.83028 50.763 8.83446 50.7529 8.84087C50.7428 8.84727 50.7341 8.85577 50.7275 8.86577C50.1663 9.78754 44.9127 18.2396 39.1449 21.8888C39.0746 21.9336 39.0036 21.9775 38.9321 22.0204C38.7667 22.1204 38.7486 22.3345 38.8891 22.4614C39.5545 23.0613 39.9677 23.8961 39.9677 24.8231C39.9677 26.4349 38.7198 27.7752 37.0702 28.066C36.2319 28.2277 35.0221 28.1807 33.8596 27.798C33.8073 27.7813 33.7531 27.8157 33.7531 27.8679V32.9719C33.7531 33.054 33.8786 33.0745 33.9081 32.996C34.6149 31.1324 36.73 30.7366 37.6551 30.7366C37.988 32.728 38.5826 34.3776 39.3549 35.2655C40.6129 36.7082 42.6669 36.688 43.5575 35.6905C43.5647 35.6824 43.57 35.6727 43.5729 35.6622C43.5758 35.6517 43.5763 35.6407 43.5744 35.63C43.5725 35.6193 43.5682 35.6092 43.5618 35.6003C43.5554 35.5915 43.5471 35.5842 43.5375 35.579C43.0142 35.2798 40.0201 33.4499 39.4209 30.4513C39.6561 30.3718 39.8861 30.2777 40.1094 30.1694C41.0759 31.7615 42.4827 33.1795 43.6152 33.7212C45.5176 34.6294 47.2591 34.1876 48.0315 32.8579C48.0595 32.8111 48.0251 32.7528 47.9683 32.7476C46.7916 32.6541 43.1803 31.6238 41.6427 29.1138C41.8205 28.953 41.9904 28.7837 42.1517 28.6064C43.761 29.8259 46.0357 30.9038 47.6644 31.1239C49.5702 31.3818 51.7295 30.7763 51.7818 28.5704C51.7827 28.5263 51.743 28.4901 51.6959 28.4927C51.0182 28.5336 46.5328 28.7278 43.3366 26.9015C43.4477 26.6914 43.5512 26.4774 43.6471 26.26C43.6471 26.26 48.4765 27.3964 50.7649 27.0201C53.0388 26.6466 54.3707 24.9591 54.1136 22.8597C54.1062 22.8076 54.0447 22.776 53.9958 22.8007ZM11.3511 26.2593C11.4472 26.4767 11.5511 26.6908 11.6624 26.901C8.46706 28.7263 3.98356 28.5336 3.30286 28.4921C3.25507 28.4895 3.21512 28.5275 3.21624 28.5708C3.26945 30.776 5.42802 31.3812 7.33381 31.1233C8.9618 30.9033 11.2376 29.8254 12.8464 28.6061C13.0079 28.7831 13.1777 28.9524 13.3553 29.1134C11.8169 31.6232 8.20624 32.6537 7.02969 32.7472C6.97274 32.7528 6.93951 32.8109 6.96658 32.8578C7.73894 34.1875 9.48044 34.6292 11.3838 33.721C12.5152 33.1793 13.9219 31.7613 14.8881 30.1692C15.1117 30.2772 15.3418 30.3713 15.577 30.4511C14.9777 33.4497 11.9837 35.2793 11.4604 35.579C11.4508 35.5843 11.4425 35.5916 11.4362 35.6004C11.4298 35.6092 11.4256 35.6194 11.4236 35.63C11.4217 35.6407 11.4222 35.6517 11.4251 35.6622C11.428 35.6727 11.4332 35.6823 11.4404 35.6905C12.3309 36.6878 14.3857 36.708 15.6436 35.2653C16.416 34.3774 17.0099 32.7279 17.3426 30.7364C18.2686 30.7364 20.3829 31.1322 21.0896 32.9957C21.12 33.0743 21.2455 33.0538 21.2455 32.9715V27.8677C21.2455 27.8157 21.1904 27.7811 21.1381 27.7978C19.9759 28.1807 18.7658 28.2271 17.9284 28.0655C16.278 27.775 15.03 26.4347 15.03 24.8231C15.03 23.8965 15.4444 23.0607 16.1083 22.461C16.2502 22.3347 16.231 22.1206 16.0669 22.0206C15.9948 21.9777 15.9232 21.9339 15.8522 21.8892C10.0878 18.242 4.83713 9.79572 4.27107 8.868C4.26442 8.85774 4.25565 8.84902 4.24534 8.84241C4.23502 8.83581 4.22341 8.83149 4.21128 8.82973C4.19914 8.82796 4.18677 8.82881 4.17499 8.83221C4.16322 8.8356 4.1523 8.84147 4.14299 8.84941C2.37162 10.4018 2.19949 13.4434 4.06365 15.8283C5.29734 17.4061 7.88718 19.1317 10.5392 20.6292C10.5018 20.9086 10.4763 21.1895 10.4626 21.471C5.00497 20.3051 1.54083 16.5574 0.984102 15.9211C0.946763 15.8776 0.873018 15.8863 0.847814 15.9359C-0.15661 17.8984 0.71526 20.5327 2.70656 21.6372C4.45552 22.6054 7.19977 23.1754 10.5754 23.5774C10.6119 23.8211 10.6564 24.0636 10.7089 24.3044C5.64198 24.9864 1.6844 23.1444 1.00408 22.8017C0.95367 22.776 0.892434 22.8078 0.886087 22.8608C0.629753 24.96 1.96071 26.6458 4.23466 27.0195C6.52225 27.3959 11.3511 26.2593 11.3511 26.2593ZM42.759 42.0168L40.9992 40.6386C40.2968 41.0549 39.7808 41.7157 39.5803 42.4905C38.5217 42.6379 35.6362 41.9999 35.9168 41.5767C39.0794 37.1487 36.6604 34.5121 33.753 34.6589V37.6324C33.753 38.5876 32.9156 39.3617 31.8841 39.3617H29.8764C28.4362 39.3617 27.4986 40.8027 27.4986 40.8027C27.4986 40.8027 26.5611 39.3615 25.1209 39.3615H23.1133C22.0809 39.3615 21.2455 38.5875 21.2455 37.6324V34.6589C18.338 34.5121 15.9172 37.1485 19.0807 41.5765C19.3589 41.9954 16.3927 42.6659 15.0014 42.4964C14.6347 42.1181 14.106 41.8795 13.514 41.8795C13.2623 41.8796 13.0126 41.9243 12.7766 42.0114C12.7766 42.0114 7.30936 36.8586 7.20929 36.8082L7.25409 36.7041C7.56588 36.1243 7.08924 35.4924 6.78791 35.537C7.13797 35.1189 7.15421 33.2893 5.2122 32.8659C5.26915 33.2335 5.29808 33.9836 5.29808 33.9836C5.29808 33.9836 3.79929 33.177 3.04653 33.8732C2.38525 34.6524 3.30286 36.0661 3.30286 36.0661C3.30286 36.0661 2.53592 36.0847 2.15786 36.0528C2.71365 37.9242 4.578 37.7917 4.98126 37.4224C4.95512 37.7198 5.62909 38.144 6.20038 37.8039L6.4513 37.6831C6.49555 37.7421 11.8203 42.7499 11.8203 42.7499C11.5757 43.1112 11.4594 43.5546 11.5397 44.0274C11.6661 44.7661 12.2841 45.3785 13.0738 45.5376C13.6314 45.6491 14.1557 45.5413 14.5761 45.2963L15.9857 46.5985C16.1108 46.7119 16.2807 46.7825 16.47 46.7691C16.8148 46.7461 17.073 46.4681 17.0469 46.149C17.0356 46.005 16.9617 45.8814 16.8598 45.7875C16.8374 45.763 15.4241 44.4569 15.4241 44.4569C16.59 43.6435 18.7622 43.0701 20.5649 43.0701C20.8816 43.0701 21.0306 42.8033 20.9215 42.5418C20.1047 40.5867 21.8606 39.1702 23.6772 40.3232C24.4695 40.8259 25.2743 41.8163 25.8807 43.4686C22.9005 44.1869 19.1584 46.1659 18.4013 48.3261C18.1097 49.1602 19.0727 50.2972 20.2421 50.5259C20.2524 50.5282 20.263 50.5284 20.2733 50.5265C20.2836 50.5246 20.2934 50.5208 20.3022 50.5151C20.311 50.5094 20.3186 50.5021 20.3246 50.4935C20.3305 50.4849 20.3347 50.4752 20.3368 50.465C20.9477 47.2401 24.4318 44.8369 26.2446 44.4288C26.3355 44.6717 26.3058 44.5931 26.3969 44.8351C24.4225 45.7647 22.5077 47.7249 21.9611 50.0557C21.71 51.123 22.9057 52.0851 23.8928 52.3485C23.9425 52.3615 23.9912 52.3273 23.994 52.2797C24.1816 49.3323 25.489 46.829 26.6604 45.6903C26.6925 45.913 26.7166 46.1368 26.7326 46.3612C26.7326 46.3612 25.5333 49.6874 25.5333 52.1143C25.5333 53.2435 27.2192 54.0316 27.468 54.1418C27.7792 54.0316 29.4638 53.2435 29.4638 52.1143C29.4638 49.6872 28.2648 46.361 28.2648 46.361C28.2812 46.1366 28.3056 45.9128 28.338 45.6901C29.5086 46.8293 30.8168 49.3313 31.0037 52.2788C31.0048 52.2904 31.0084 52.3016 31.0143 52.3116C31.0202 52.3217 31.0282 52.3303 31.0378 52.337C31.0474 52.3436 31.0584 52.3481 31.0699 52.3501C31.0814 52.352 31.0932 52.3515 31.1045 52.3485C32.0929 52.0851 33.2875 51.123 33.0375 50.0557C32.4898 47.7253 30.5759 45.7647 28.6016 44.8351C28.6918 44.5931 28.6619 44.6715 28.7532 44.4286C30.567 44.8368 34.0498 47.2399 34.6609 50.4648C34.6653 50.4853 34.6778 50.5033 34.6956 50.5147C34.7133 50.5261 34.7349 50.53 34.7555 50.5256C35.9242 50.297 36.8887 49.1596 36.5954 48.3257C35.8402 46.1655 32.0971 44.1865 29.1164 43.4682C29.7239 41.8161 30.5289 40.8255 31.3212 40.3228C33.1367 39.1699 34.8927 40.5862 34.0759 42.5414C33.9669 42.8029 34.1148 43.0698 34.4325 43.0698C36.4718 43.0698 38.9842 43.8029 39.9783 44.7864C40.6137 45.7353 41.7874 46.3423 43.1122 46.2124C44.6173 46.0655 45.8447 44.9401 46.0142 43.5485C46.1623 42.3294 45.5288 41.2348 44.5191 40.6382L42.759 42.0168ZM29.7892 33.135C30.4161 32.9035 31.3989 33.0908 31.3655 33.9918C31.3575 34.1962 31.6452 34.1962 31.6661 33.9875C31.8537 32.6383 30.938 32.2499 29.9795 32.4078C29.8603 31.944 29.7629 31.5385 29.652 31.1367C29.5635 30.8115 29.531 30.2008 29.9091 30.2008C30.1129 30.2008 30.031 30.7687 30.0118 31.0135C29.995 31.2281 30.0724 31.358 30.2476 31.3642C30.3566 31.3686 30.4929 31.23 30.5743 31.138C31.1228 30.5204 31.2501 29.5645 30.6075 29.1034C30.0698 28.7163 28.7234 29.0043 28.3533 29.5557C28.2973 29.3479 28.0304 29.0051 27.9023 28.8558C27.7778 28.71 27.7455 28.6102 27.9176 28.4823C27.9988 28.4202 28.2443 28.1771 28.2443 27.9263C28.2443 27.778 28.1286 27.504 27.7615 27.504C27.4718 27.504 27.1497 27.7036 27.1497 28.1489C27.1497 28.248 27.174 28.3539 27.238 28.468C27.0551 28.4379 26.5577 28.4501 26.3023 28.513L29.8333 38.1582C30.844 37.6616 31.585 36.8753 31.585 36.0314C31.585 35.3122 30.5209 35.5508 30.0041 36.1118C29.8379 35.1999 29.6901 34.3579 29.5284 33.5186C29.4843 33.2871 29.6025 33.2047 29.7892 33.135ZM24.7962 26.5828L25.5382 28.6345C24.903 28.785 23.8814 29.2459 23.8814 29.8564C23.8814 30.6693 25.3264 31.1986 26.1617 31.135C26.1203 31.3205 26.1681 31.4857 26.298 31.6368C25.9948 31.6368 25.4228 31.7773 25.235 31.9787C24.7919 31.568 24.0989 31.4184 23.7694 31.6684C23.4384 31.9204 23.4285 32.3471 23.7741 32.8295C24.0149 33.1635 24.1053 33.493 23.8346 33.8799C24.8414 33.8799 24.4706 32.5768 24.8651 32.5768C24.8134 32.8295 24.8449 33.1218 24.9596 33.4461C25.0354 33.6617 25.0354 33.8148 24.9054 34.0222C24.5806 34.5393 24.0754 35.7264 24.1437 36.8002C23.8136 36.7983 23.6458 36.7181 23.7621 36.2691C23.8054 36.1022 23.7018 35.9829 23.5646 36.1888C23.413 36.4159 23.3398 36.8039 23.3398 36.9697C23.3398 37.9257 24.4843 38.1182 24.9207 37.916C26.1841 39.1333 28.6659 38.8084 29.4967 38.4001L25.1274 26.4667C25.0382 26.2412 24.7178 26.3486 24.7962 26.5828ZM24.645 36.4129C24.5546 35.9217 25.2413 35.0436 26.1149 34.1962C25.9289 34.7485 26.0445 35.7 26.4091 36.0278C25.7754 36.0278 25.0231 36.1462 24.645 36.4129Z" fill="url(#paint0_linear_0_227)"/>
<defs>
<linearGradient id="paint0_linear_0_227" x1="44.2492" y1="0" x2="2.78281" y2="0" gradientUnits="userSpaceOnUse">
<stop stop-color="#FEDA3B"/>
<stop offset="0.47" stop-color="#EF5541"/>
<stop offset="0.815" stop-color="#821EE0"/>
<stop offset="0.98" stop-color="#7F2A8A"/>
</linearGradient>
</defs>
</svg>
