<svg width="25" height="24" viewBox="0 0 25 24" fill="none" xmlns="http://www.w3.org/2000/svg">
<g clip-path="url(#clip0_0_21)">
<g clip-path="url(#clip1_0_21)">
<path fill-rule="evenodd" clip-rule="evenodd" d="M6.22396 3.74532C6.56288 3.39666 7.02843 3.19995 7.51466 3.19995H16.5446C17.0308 3.19995 17.4964 3.39666 17.8353 3.74532L21.4846 7.49955C22.12 8.15311 22.1665 9.1784 21.5929 9.88681L13.4286 19.9711C12.7082 20.8609 11.3511 20.8609 10.6307 19.9711L2.46634 9.88681C1.89281 9.17841 1.93932 8.15311 2.57463 7.49954L6.22396 3.74532ZM7.51466 4.79995C7.46063 4.79995 7.4089 4.82181 7.37124 4.86055L3.7219 8.61477C3.65131 8.68739 3.64616 8.80132 3.70988 8.88003L11.8742 18.9643C11.9543 19.0632 12.105 19.0632 12.1851 18.9643L20.3494 8.88003C20.4131 8.80132 20.408 8.68739 20.3374 8.61478L16.688 4.86055C16.6504 4.82181 16.5986 4.79995 16.5446 4.79995H7.51466Z" fill="#9946FC"/>
</g>
</g>
<defs>
<clipPath id="clip0_0_21">
<rect width="24" height="24" fill="white" transform="translate(0.0296631)"/>
</clipPath>
<clipPath id="clip1_0_21">
<rect width="24" height="24" fill="white" transform="translate(0.0296631)"/>
</clipPath>
</defs>
</svg>
