<svg width="60" height="83" viewBox="0 0 60 83" fill="none" xmlns="http://www.w3.org/2000/svg">
<g clip-path="url(#clip0_0_303)">
<path d="M21.1502 27.2961L21.001 27.3C18.7028 27.3706 16.3818 27.7864 14.082 27.9502C11.1505 28.1592 3.83914 28.2575 1.64592 26.2516C0.851062 25.5247 0.362195 24.5135 0.354168 23.4313C0.341669 21.7598 1.20043 19.9638 1.66487 18.3656C2.00283 17.2021 2.20453 15.9993 2.68056 14.8791C2.94099 14.2661 3.28308 13.6975 3.75606 13.2242C4.67389 12.3051 6.03768 11.7946 7.32802 11.7973C7.5041 11.7992 7.67968 11.8093 7.85479 11.8276C8.02997 11.8457 8.20388 11.872 8.37654 11.9065C8.5492 11.941 8.71992 11.9834 8.88865 12.0338C9.05739 12.0842 9.22346 12.1423 9.38677 12.2081C11.6473 13.0987 13.8084 14.6113 15.8353 15.9381C18.8751 17.9277 21.9363 19.9443 24.695 22.3145C24.4866 20.0875 24.3716 17.8557 24.3498 15.619C24.328 13.3825 24.3996 11.1489 24.5646 8.91828C24.6675 7.31419 24.7317 5.59531 25.1819 4.0457C25.3901 3.32937 25.6973 2.6763 26.1874 2.1066C26.9339 1.23911 28.0269 0.613916 29.185 0.568318C29.7047 0.547851 30.2254 0.63099 30.7281 0.757502C32.0951 1.10182 33.3884 1.70257 34.7199 2.15564C35.9148 2.56204 37.1938 2.85933 38.349 3.35917C38.7872 3.54868 39.2322 3.79144 39.5744 4.12918C40.3007 4.84625 40.6894 5.85821 40.6794 6.87307C40.635 11.3837 33.6191 19.1548 30.6041 22.654C34.018 21.2104 37.3536 19.4241 40.651 17.7311C44.3323 15.8704 47.9904 13.9649 51.6252 12.0147C52.2647 13.5468 53.0662 15.0187 53.8245 16.495C54.7906 18.3761 55.7454 20.2656 56.7341 22.135C53.5818 23.7482 50.409 25.3723 47.1915 27.0132L36.8287 32.3139L25.4723 38.0592C21.6719 39.9614 17.9282 41.9982 14.1458 43.9402C11.8686 45.1094 9.5491 46.1922 7.27255 47.363C7.27255 47.363 6.01772 47.993 5.40968 48.3572L0.260007 38.3255L12.9303 31.8521C15.311 30.6493 17.8388 29.5523 20.1145 28.1663C20.5128 27.9238 20.8391 27.6425 21.1502 27.2961Z" fill="#FE3261"/>
<path d="M10.7743 18.6073C13.1072 19.2258 15.1859 20.3678 17.3585 21.3806C19.5362 22.396 21.7311 23.3127 23.7968 24.551C23.0834 24.6864 22.4514 24.6803 21.7345 24.6182C20.145 24.4469 18.5575 24.0984 16.9841 23.8152L9.84698 22.5705C10.0492 21.249 10.4731 19.9148 10.7743 18.6073Z" fill="#FEFEFE"/>
<path d="M29.1447 9.09227C29.9456 9.18161 32.3434 10.2588 33.3876 10.5905C31.6971 13.9341 30.0861 17.3156 28.5548 20.735C28.2677 21.3203 27.9309 22.2501 27.374 22.6196L27.2172 22.5482C26.7895 21.3558 28.743 10.7635 29.1447 9.09227Z" fill="#FEFEFE"/>
<path fill-rule="evenodd" clip-rule="evenodd" d="M12.5226 48.5177C10.1758 48.5409 7.81002 48.5643 5.49215 48.4344L5.46682 71.2965L5.44353 77.0721C5.44138 77.3531 5.43249 77.6389 5.42353 77.9271C5.39628 78.8034 5.36836 79.7008 5.52731 80.5477C5.62225 81.0529 5.97849 81.5099 6.44407 81.8649C7.03164 82.3127 7.66756 82.5045 8.47301 82.6049C10.0545 82.8016 11.8136 82.7623 13.5067 82.7244C14.1598 82.7098 14.803 82.6954 15.4225 82.6949C17.6907 82.693 19.9607 82.6737 22.2309 82.6544C23.5182 82.6434 24.8055 82.6325 26.0926 82.6247C26.0945 82.6439 26.0965 82.663 26.0985 82.6822L44.865 82.6868C45.6977 82.6876 46.5793 82.7035 47.4816 82.7198C49.8909 82.7633 52.4476 82.8094 54.6156 82.5782C55.7666 82.4557 56.6769 82.1951 57.5248 81.688C58.1677 81.3034 58.7646 80.7481 58.9165 80.1928C59.1377 79.3839 59.1052 78.4973 59.0738 77.6429C59.0633 77.3551 59.0529 77.071 59.0523 76.7947L59.0431 70.7111L59.0672 48.5362C51.7973 48.5037 44.5274 48.4961 37.2576 48.5136C36.2547 48.5137 35.2442 48.5215 34.2303 48.5293C31.5334 48.55 28.8135 48.571 26.1559 48.4479C26.1557 48.4562 26.1556 48.4645 26.1554 48.4729C22.4678 48.5134 21.2206 48.5101 19.1707 48.5046C18.122 48.5017 16.8631 48.4983 14.96 48.5C14.1517 48.5016 13.3383 48.5096 12.5226 48.5177Z" fill="white"/>
</g>
<defs>
<clipPath id="clip0_0_303">
<rect width="59.096" height="83" fill="white"/>
</clipPath>
</defs>
</svg>
