<svg width="54" height="62" viewBox="0 0 54 62" fill="none" xmlns="http://www.w3.org/2000/svg">
<path d="M22.5034 19.7612L22.3805 19.7022C20.4826 18.8029 18.4224 18.1747 16.4843 17.3506C14.0139 16.3001 8.02853 13.3364 7.08035 10.7925C6.73672 9.87058 6.76018 8.84496 7.20418 7.9617C7.88984 6.59751 9.33569 5.4948 10.3786 4.38869C11.1378 3.58341 11.8025 2.68945 12.6558 1.97685C13.1227 1.58688 13.6376 1.26701 14.2192 1.07904C15.348 0.713914 16.6693 0.866572 17.7173 1.40588C17.8597 1.48073 17.9983 1.56203 18.133 1.64982C18.2679 1.73747 18.3983 1.83126 18.5244 1.93118C18.6504 2.0311 18.7715 2.13666 18.8877 2.24787C19.004 2.35907 19.1148 2.47542 19.2202 2.59692C20.6873 4.26204 21.8148 6.39149 22.9103 8.31402C24.5536 11.1971 26.203 14.111 27.4593 17.1865C28.2169 15.2891 29.0525 13.4267 29.9659 11.5991C30.8792 9.7716 31.8672 7.98538 32.93 6.24053C33.6814 4.97917 34.4491 3.60835 35.4602 2.53586C35.9277 2.04011 36.4493 1.63702 37.085 1.37786C38.0531 0.983326 39.202 0.930008 40.1626 1.37504C40.5936 1.57475 40.9824 1.85911 41.3384 2.17123C42.3065 3.02024 43.1079 4.04707 44.0019 4.96972C44.8042 5.79756 45.7204 6.57172 46.4515 7.45901C46.7288 7.79548 46.9896 8.17811 47.1272 8.59516C47.4192 9.48052 47.314 10.4651 46.8834 11.2861C44.9696 14.935 36.0303 18.3325 32.1223 19.9225C35.4989 20.1699 38.9545 20.1061 42.3403 20.1023C46.108 20.122 49.8753 20.0956 53.6424 20.023C53.5246 21.535 53.5636 23.0653 53.5655 24.5813C53.5679 26.5129 53.5576 28.4466 53.5833 30.3781L51.8318 30.3777L51.8181 50.6278L51.8234 56.1833C51.8246 57.1844 51.9139 58.2989 51.7464 59.2864C51.6604 59.7935 51.3221 60.3006 50.9579 60.6518C50.4776 61.1148 49.9618 61.3528 49.3098 61.4647C47.6215 61.7549 45.5173 61.5667 43.7856 61.5639L33.1535 61.5597L21.5285 61.5034C17.6467 61.4679 13.7551 61.5655 9.87133 61.5698C8.30152 61.5715 6.51517 61.7365 4.96931 61.4876C4.40116 61.396 3.9526 61.2209 3.53814 60.8123C3.20973 60.4882 2.95845 60.0711 2.89147 59.61C2.74249 58.5828 2.82625 57.4741 2.83238 56.4377L2.84881 51.1662L2.86663 30.2993C2.21943 30.2853 1.58414 30.2892 0.938144 30.3322L0.927307 20.0322L13.9237 20.0436C16.36 20.0567 18.8718 20.2171 21.2991 20.0375C21.7238 20.0062 22.1063 19.9133 22.5034 19.7612Z" fill="#FE3261"/>
<path d="M17.6847 8.37744C19.3239 9.85145 20.5386 11.6453 21.8833 13.3732C23.2312 15.1053 24.6342 16.7643 25.7982 18.6311C25.1618 18.4441 24.6505 18.1761 24.0935 17.8272C22.8724 17.0263 21.7268 16.082 20.5655 15.1968L15.2808 11.2137C15.9954 10.2234 16.8954 9.31514 17.6847 8.37744Z" fill="#FEFEFE"/>
<path d="M36.5814 8.2887C37.1954 8.69474 38.6965 10.5687 39.4073 11.2731C36.641 13.2878 33.9235 15.3665 31.255 17.5092C30.7779 17.8656 30.1171 18.4813 29.5104 18.5499L29.4127 18.4266C29.5613 17.279 35.5591 9.48027 36.5814 8.2887Z" fill="#FEFEFE"/>
<path d="M33.186 30.2975C35.2577 30.4521 37.3961 30.3578 39.4756 30.3575C43.5943 30.3415 47.713 30.3484 51.8318 30.3781L51.8181 50.6282L51.8234 56.1837C51.8246 57.1848 51.9139 58.2993 51.7464 59.2867C51.6604 59.7939 51.3221 60.301 50.9579 60.6521C50.4776 61.1152 49.9618 61.3532 49.3098 61.4651C47.6215 61.7552 45.5173 61.5671 43.7856 61.5643L33.1535 61.5601C33.0773 60.3949 33.1154 59.2077 33.1143 58.0399L33.1315 51.055C33.0971 44.1356 33.1152 37.2164 33.186 30.2975Z" fill="white"/>
<path d="M2.8664 30.2997C5.06962 30.4594 7.33422 30.3651 9.54478 30.3595C13.5284 30.3551 17.5118 30.3244 21.495 30.2673L21.5242 49.9511L21.5709 57.4962C21.5756 58.803 21.6788 60.209 21.5282 61.5037C17.6464 61.4682 13.7548 61.5658 9.87105 61.5702C8.30124 61.5719 6.51489 61.7368 4.96903 61.488C4.40089 61.3963 3.95232 61.2213 3.53786 60.8126C3.20945 60.4886 2.95817 60.0715 2.8912 59.6104C2.74221 58.5832 2.82597 57.4745 2.83211 56.438L2.84853 51.1665L2.8664 30.2997Z" fill="white"/>
</svg>
