<svg width="135" height="22" viewBox="0 0 135 22" fill="none" xmlns="http://www.w3.org/2000/svg">
<path d="M125.888 11.2187C125.888 10.3749 127.039 9.69432 128.547 9.69432C130.119 9.69432 131.724 10.4406 132.81 11.6568L134.772 9.25682C132.907 7.60182 131.01 6.74244 128.644 6.74244C125.693 6.74244 122.647 8.10494 122.647 11.2187C122.647 15.0468 125.953 15.3224 128.644 15.5499C130.152 15.6624 131.481 15.7768 131.481 16.7662C131.481 17.8362 129.957 18.3224 128.612 18.3224C127.055 18.3224 125.37 17.6581 124.138 16.1818L122.047 18.4043C123.716 20.4481 126.132 21.3399 128.498 21.3399C131.465 21.3399 134.723 19.9287 134.723 16.7012C134.723 13.0512 131.383 12.6949 128.822 12.4356C127.217 12.2731 125.888 12.1274 125.888 11.2187ZM110.975 12.1274C111.51 10.7812 112.661 10.0024 114.363 10.0024C116.081 10.0024 117.102 10.8293 117.54 12.1274H110.975ZM114.525 6.74244C110.473 6.74244 107.214 9.90494 107.214 14.0574C107.214 17.9662 110.1 21.3399 114.347 21.3399C116.908 21.3399 118.983 20.1068 120.458 17.9987L118.221 16.1012C117.427 17.3174 116 18.0312 114.298 18.0312C112.563 18.0312 110.764 16.7337 110.618 14.8193H121.203V13.6843C121.171 9.67807 118.448 6.74244 114.525 6.74244ZM73.0597 6.74244C69.0072 6.74244 65.7491 9.90494 65.7491 14.0574C65.7491 17.9662 68.6347 21.3399 72.8816 21.3399C75.4428 21.3399 77.5178 20.1068 78.9928 17.9987L76.756 16.1012C75.9616 17.3174 74.5353 18.0312 72.8328 18.0312C71.0985 18.0312 69.2991 16.7337 69.1535 14.8193H79.7385V13.6843C79.7222 9.67807 76.9828 6.74244 73.0597 6.74244ZM102.319 20.8368H105.561V7.24494H102.319V20.8374V20.8368ZM103.94 0.627441C102.627 0.627441 101.508 1.73057 101.508 3.10869C101.508 4.47119 102.595 5.47744 104.005 5.47744C105.383 5.47744 106.388 4.50432 106.388 3.15807C106.372 1.77932 105.269 0.627441 103.94 0.627441ZM56.9472 6.72619C55.4235 6.72619 54.046 7.18057 52.8785 7.97494V0.789941H49.6366V14.0574C49.6366 18.0956 52.9272 21.3399 56.931 21.3399C60.9672 21.3399 64.2741 18.1124 64.2741 14.0249C64.2578 9.95369 61.016 6.72619 56.9472 6.72619ZM40.0891 6.95307C36.4741 7.32619 33.5235 10.4406 33.5235 14.1549C33.5235 18.0799 36.8797 21.3724 40.8022 21.3724C44.7085 21.3724 48.0803 18.0799 48.0803 14.1549C48.0803 12.4843 47.4803 10.9431 46.5078 9.72682L39.311 0.806191H35.1122L40.0891 6.95307ZM14.9635 14.9818L11.9966 7.24494H9.72845L6.74533 14.9818L3.76283 7.24494H0.228455L5.44783 20.8699H7.71721L10.846 12.7599L14.0072 20.8693H16.276L21.4797 7.24494H17.9622L14.9635 14.9818ZM84.6822 10.3431V7.24494H81.4403V20.8374H84.6822V15.0962C84.6822 12.3062 87.6653 10.6031 90.6316 10.6031V7.24557H90.3072C87.7947 7.24557 85.9791 8.15432 84.6822 10.3437V10.3431ZM94.976 10.3431V7.24494H91.7341V20.8374H94.976V15.0962C94.976 12.3062 97.9585 10.6031 100.925 10.6031V7.24557H100.601C98.1041 7.24557 96.2891 8.15432 94.976 10.3437V10.3431ZM28.6122 20.8368H31.8535V0.806191H28.6116V20.8374L28.6122 20.8368ZM40.8185 18.0956C38.581 18.0956 36.766 16.2956 36.766 14.0574C36.766 11.8031 38.581 10.0024 40.8022 10.0024C43.0553 10.0024 44.8872 11.8024 44.8872 14.0574C44.8872 16.2956 43.0553 18.0956 40.8185 18.0956ZM56.931 18.0956C56.3983 18.0966 55.8707 17.9925 55.3784 17.7891C54.8862 17.5857 54.4389 17.2871 54.0623 16.9103C53.6858 16.5336 53.3874 16.0862 53.1842 15.5939C52.981 15.1015 52.8771 14.5738 52.8785 14.0412C52.8785 11.8193 54.6128 10.0024 56.9472 10.0024C59.2816 10.0024 61.016 11.8193 61.016 14.0249C61.016 16.3281 59.1678 18.0956 56.931 18.0956ZM22.9872 20.8368H26.2291V7.24494H22.9872V20.8374V20.8368ZM24.576 0.627441C23.2628 0.627441 22.1603 1.73057 22.1603 3.12557C22.1603 4.53682 23.3116 5.49369 24.576 5.49369C25.986 5.49369 27.056 4.32557 27.056 3.06057C27.0397 1.77932 25.921 0.627441 24.576 0.627441ZM69.5097 12.1274C70.061 10.7812 71.196 10.0024 72.8816 10.0024C74.616 10.0024 75.6697 10.8293 76.1072 12.1274H69.5097Z" fill="white"/>
</svg>
