<svg width="162" height="50" viewBox="0 0 162 50" fill="none" xmlns="http://www.w3.org/2000/svg">
<path d="M0.0303955 0H49.9203V25.1438C49.9203 31.5915 46.4493 37.5358 40.8058 40.7718L24.9754 50L9.16161 40.7718C3.51818 37.56 0.0546159 31.5915 0.0546159 25.1438V0H0.0303955Z" fill="#FFDD2D"/>
<path fill-rule="evenodd" clip-rule="evenodd" d="M13.4624 13.231V21.0448C14.5523 19.8464 16.5142 19.0314 18.7425 19.0314H21.1888V28.1159C21.1888 30.5366 20.5349 32.6459 19.5419 33.8204H30.4058C29.4128 32.6459 28.8131 30.5366 28.8131 28.1159V19.0314H31.1925C33.445 19.0314 35.4228 19.8464 36.4885 21.0448V13.231H13.4624Z" fill="#333333"/>
<path d="M62.7408 19.6151V16.0254H78.1254V19.6151H72.3562V33.9741H68.51V19.6151H62.7408Z" fill="#333333"/>
<path d="M78.518 28.5895V25.5126H88.1334V28.5895H78.518Z" fill="#333333"/>
<path d="M91.2193 33.9741V16.0254H105.194V19.6151H95.0655V22.4356H99.8091C101.877 22.4356 103.501 22.9741 104.681 24.051C105.877 25.1109 106.476 26.4955 106.476 28.2049C106.476 29.9143 105.877 31.3074 104.681 32.3844C103.501 33.4442 101.877 33.9741 99.8091 33.9741H91.2193ZM95.0655 30.3844H99.6809C100.621 30.3844 101.322 30.1963 101.783 29.8203C102.262 29.4271 102.501 28.8886 102.501 28.2049C102.501 27.5211 102.262 26.9912 101.783 26.6151C101.322 26.222 100.621 26.0254 99.6809 26.0254H95.0655V30.3844Z" fill="#333333"/>
<path d="M107.384 33.9741L112.128 16.0254H120.205L124.948 33.9741H120.974L119.948 29.9998H112.384L111.359 33.9741H107.384ZM113.282 26.41H119.051L117.256 19.6151H115.077L113.282 26.41Z" fill="#333333"/>
<path d="M126.751 33.9741V16.0254H130.597V23.0767H138.546V16.0254H142.392V33.9741H138.546V26.6664H130.597V33.9741H126.751Z" fill="#333333"/>
<path d="M145.732 33.9741V16.0254H149.578V23.0767H152.142L157.014 16.0254H161.373L155.475 24.6151L161.757 33.9741H157.27L152.27 26.6664H149.578V33.9741H145.732Z" fill="#333333"/>
</svg>
