<svg width="34" height="35" viewBox="0 0 34 35" fill="none" xmlns="http://www.w3.org/2000/svg">
<path fill-rule="evenodd" clip-rule="evenodd" d="M33.1403 22.4646V12.575C33.1403 3.54191 31.0074 1.39243 21.9716 1.39243C-0.125009 1.25065 0.745389 0.352031 0.893969 22.4476C0.893969 31.4807 3.02679 33.6299 12.0626 33.6299H19.5627C29.1629 33.7958 33.3817 33.1358 33.1403 22.4646ZM26.9264 24.3958H24.575C23.6849 24.3958 23.4163 23.6736 21.8206 22.0787C20.4266 20.7354 19.8388 20.5674 19.4862 20.5674C18.999 20.5674 18.8647 20.7017 18.8647 21.3732V23.4887C18.8647 24.0595 18.68 24.3955 17.1851 24.3955C14.6993 24.3955 11.962 22.8842 10.0134 20.0972C7.09115 16.0172 6.30167 12.9276 6.30167 12.3064C6.30167 11.9538 6.43597 11.6349 7.10781 11.6349H9.45925C10.0638 11.6349 10.2821 11.9035 10.5173 12.5247C11.4812 15.6847 14.7833 20.9428 14.8336 17.9144V14.4556C14.733 12.8773 13.8932 12.743 13.8932 12.1721C13.8932 11.9202 14.1285 11.6349 14.4977 11.6349H18.1925C18.6964 11.6349 18.8643 11.8869 18.8643 12.491V17.1589C18.9283 18.2782 19.6246 17.8375 20.3257 17.1086C22.0219 15.228 23.2143 12.3064 23.2143 12.3064C23.3656 11.9538 23.6342 11.6349 24.2387 11.6349H26.5902C27.2957 11.6349 27.4466 11.9875 27.2957 12.4914C27.01 13.868 24.1381 17.8977 24.1381 17.9147C23.8861 18.301 23.7855 18.5026 24.1381 18.9558C24.815 19.799 29.7477 24.2537 26.9264 24.3958Z" fill="black"/>
</svg>
