<?xml version="1.0" encoding="UTF-8"?>
<svg width="316px" height="552px" viewBox="0 0 316 552" version="1.1" xmlns="http://www.w3.org/2000/svg" xmlns:xlink="http://www.w3.org/1999/xlink">
    <title>Fill 1</title>
    <g id="all-pages" stroke="none" stroke-width="1" fill="none" fill-rule="evenodd" opacity="0.100000001">
        <g id="3--powership-copy-2" transform="translate(-772.000000, -3966.000000)" fill="#BDDFFF">
            <path d="M976.716126,4285.45032 C976.716126,4285.45032 971.982743,4287.14953 971.982743,4289.92191 L971.982743,4328.10928 C971.982743,4354.5632 950.566417,4376 924.15771,4376 C897.740073,4376 876.332678,4354.5632 876.332678,4328.10928 L876.332678,4289.92191 C876.761362,4246.47595 904.831217,4208.14549 946.074168,4194.67706 C974.572708,4185.16152 993.425862,4158.01898 992.434531,4127.96096 C990.505454,4091.24027 960.479729,4062.30014 923.755819,4061.78144 C897.757935,4061.8977 874.117812,4076.91329 862.93631,4100.41597 C851.469019,4124.24954 822.87224,4134.25695 799.080291,4122.77391 C775.279411,4111.29087 765.285721,4082.66376 776.753011,4058.83019 C803.661849,4002.36296 860.462448,3966.28618 922.952037,3966 L923.934438,3966 C1012.31474,3966.50976 1084.60154,4036.66005 1087.90598,4125.09914 C1090.34412,4197.24376 1045.1537,4262.42164 976.805435,4285.36089 L976.716126,4285.45032 Z M923.5,4518 C896.707807,4518 875,4496.51599 875,4470 C875,4443.49294 896.707807,4422 923.5,4422 C950.283178,4422 972,4443.49294 972,4470 C971.945911,4496.48922 950.265149,4517.94647 923.5,4518 L923.5,4518 Z" id="Fill-1"></path>
        </g>
    </g>
</svg>