<?xml version="1.0" encoding="UTF-8"?>
<svg width="32px" height="28px" viewBox="0 0 32 28" version="1.1" xmlns="http://www.w3.org/2000/svg" xmlns:xlink="http://www.w3.org/1999/xlink">
    <title>Group 4</title>
    <g id="all-pages" stroke="none" stroke-width="1" fill="none" fill-rule="evenodd">
        <g id="5-responsibility-v1" transform="translate(-672.000000, -2367.000000)" fill="#0056A5" fill-rule="nonzero">
            <g id="Group-4" transform="translate(672.000000, 2367.000000)">
                <path d="M0,18.1812426 C0,7.96606134 9.50811468,1.74206621 10.9848431,0.966238634 C12.0544077,0.388268369 13.0446129,0 13.7231,0 C14.3140059,0 14.7050833,0.28508472 14.7050833,0.776182154 C14.7050833,1.26692501 14.2099807,1.84524985 13.7231,2.23316364 C12.3579038,3.2072031 8.52577393,8.2671023 8.52577393,13.0341159 C8.52577393,14.2932401 9.21248302,15.4573361 9.99463788,15.8530507 C10.8808179,16.3359927 15,17.2150039 15,22.3621305 C15,25.3792772 12.5491528,28 9.1163223,28 C4.60642025,28.0003546 0,24.6034496 0,18.1812426 Z" id="Path"></path>
                <path d="M17,18.1810123 C17,7.96596046 26.5106702,1.74204415 27.9786596,0.966226398 C29.0561616,0.388263452 30.0372029,0 30.7231458,0 C31.3133425,0 31.6966846,0.28508111 31.6966846,0.776172325 C31.6966846,1.26690896 31.2104511,1.84522649 30.7231458,2.23313536 C29.3512599,3.20716249 25.5296289,8.26699761 25.5296289,13.0339509 C25.5296289,14.2930591 26.2155719,15.4571403 26.9976183,15.8528499 C27.8832706,16.3361404 32,17.2147859 32,22.3622019 C32,25.3793103 29.5423951,28 26.1116086,28 C21.6115372,28 17,24.603138 17,18.1810123 Z" id="Path"></path>
            </g>
        </g>
    </g>
</svg>