<svg width="33" height="33" viewBox="0 0 33 33" fill="none" xmlns="http://www.w3.org/2000/svg">
<g clip-path="url(#clip0_1_369)">
<path d="M28.5954 0.350098H5.1045C2.67193 0.350098 0.699951 2.32208 0.699951 4.75464V28.2456C0.699951 30.6781 2.67193 32.6501 5.1045 32.6501H28.5954C31.028 32.6501 33 30.6781 33 28.2456V4.75464C33 2.32208 31.028 0.350098 28.5954 0.350098Z" fill="#F96600"/>
<path d="M15.8571 20.6258C14.2916 20.4624 12.8804 20.0752 11.6728 19.1319C11.5223 19.0144 11.3681 18.9007 11.2305 18.7649C10.7019 18.2565 10.6487 17.6747 11.0672 17.0764C11.425 16.5626 12.0251 16.4249 12.651 16.7204C12.7711 16.7812 12.8865 16.8512 12.996 16.9296C14.115 17.6902 15.4341 18.1026 16.7871 18.115C18.1401 18.1274 19.4665 17.7393 20.5993 16.9994C20.8158 16.8239 21.0655 16.6941 21.3334 16.6176C21.5825 16.544 21.8492 16.5562 22.0905 16.6524C22.3318 16.7486 22.5338 16.9232 22.664 17.148C22.9943 17.6876 22.9906 18.2125 22.5832 18.6309C21.9587 19.2625 21.204 19.7503 20.3718 20.0605C19.5615 20.3516 18.7181 20.5409 17.8612 20.6239C17.9896 20.7653 18.0447 20.8332 18.1328 20.9139C19.2945 22.0829 20.4617 23.2465 21.6197 24.4174C21.8042 24.5851 21.9293 24.8081 21.9763 25.053C22.0233 25.2978 21.9896 25.5513 21.8803 25.7754C21.769 26.0211 21.5878 26.2285 21.3593 26.3717C21.1309 26.515 20.8652 26.5878 20.5957 26.5811C20.2803 26.55 19.9884 26.4005 19.779 26.1627C18.9017 25.2799 18.008 24.4137 17.1491 23.5144C16.8995 23.2538 16.7821 23.3034 16.5582 23.5291C15.6754 24.4467 14.778 25.3331 13.8769 26.2214C13.7096 26.4068 13.4854 26.5314 13.2396 26.5756C12.9938 26.6198 12.7402 26.581 12.5188 26.4655C12.2789 26.3534 12.0765 26.1745 11.9359 25.9502C11.7952 25.7259 11.7223 25.4657 11.726 25.201C11.7525 24.8738 11.9052 24.5698 12.1518 24.3531C13.3043 23.2043 14.4531 22.0548 15.5983 20.9047C15.6754 20.8258 15.7488 20.7432 15.8571 20.6258Z" fill="white"/>
<path d="M16.81 16.625C15.7979 16.6191 14.8104 16.3127 13.9727 15.7448C13.135 15.1769 12.4848 14.373 12.1047 13.4351C11.7245 12.4971 11.6314 11.4674 11.8373 10.4765C12.0431 9.48561 12.5387 8.57816 13.261 7.86927C13.9833 7.16037 14.8998 6.68196 15.8944 6.49471C16.889 6.30746 17.9168 6.4198 18.8475 6.8175C19.7781 7.21519 20.5697 7.88032 21.1218 8.72852C21.6739 9.57672 21.9617 10.5698 21.9486 11.5818C21.9302 12.9301 21.3799 14.2166 20.4175 15.1612C19.455 16.1058 18.1584 16.6319 16.81 16.625ZM19.3481 11.5102C19.3466 11.0155 19.1984 10.5324 18.9222 10.122C18.646 9.71158 18.2543 9.39237 17.7965 9.20474C17.3388 9.01712 16.8357 8.96953 16.3509 9.068C15.8662 9.16647 15.4215 9.40657 15.0733 9.75791C14.725 10.1092 14.4888 10.556 14.3947 11.0416C14.3005 11.5273 14.3525 12.0299 14.5441 12.486C14.7358 12.942 15.0585 13.3309 15.4713 13.6035C15.8841 13.8761 16.3685 14.02 16.8632 14.0171C17.1912 14.0164 17.5158 13.9509 17.8183 13.8244C18.1209 13.6979 18.3956 13.5128 18.6265 13.2799C18.8573 13.047 19.04 12.7707 19.1638 12.467C19.2876 12.1633 19.3502 11.8381 19.3481 11.5102Z" fill="white"/>
</g>
<defs>
<clipPath id="clip0_1_369">
<rect width="32.3" height="32.3" fill="white" transform="translate(0.699951 0.350098)"/>
</clipPath>
</defs>
</svg>
