<svg width="309" height="343" viewBox="0 0 309 343" fill="none" xmlns="http://www.w3.org/2000/svg">
<path d="M237.217 82.5537L207.969 96.7561L199.389 128.568L161.092 143.535L148.878 195.004L37.387 183.782L49.6089 132.306L87.913 117.346L96.4859 85.5267L125.733 71.3243L237.217 82.5537Z" stroke="black" stroke-width="2" stroke-linecap="round" stroke-linejoin="round"/>
<path d="M87.9121 117.346L199.388 128.568" stroke="black" stroke-width="2" stroke-linecap="round" stroke-linejoin="round"/>
<path d="M43.1604 159.474C43.1604 159.474 50.8651 159.474 57.3323 166.988C63.7995 174.502 79.5828 165.455 84.2512 150.969C88.9195 136.483 104.968 135.467 112.993 133.662C121.019 131.856 136.03 121.016 128.569 105.197C121.108 89.3772 116.953 77.5082 125.758 71.3005" stroke="black" stroke-width="2" stroke-linecap="round" stroke-linejoin="round"/>
<path d="M154.319 74.2082C154.319 74.2082 137.073 88.3852 150.382 101.205C163.69 114.025 175.578 106.044 180.536 120.024C185.493 134.004 146.119 126.979 135.229 138.362C124.34 149.744 133.149 160.593 117.868 161.374C102.586 162.156 83.1543 176.087 95.8245 189.681" stroke="black" stroke-width="2" stroke-linecap="round" stroke-linejoin="round"/>
<path d="M49.6084 132.306L161.092 143.535" stroke="black" stroke-width="2" stroke-linecap="round" stroke-linejoin="round"/>
<path d="M96.4863 85.527L207.97 96.7564" stroke="black" stroke-width="2" stroke-linecap="round" stroke-linejoin="round"/>
<path d="M195.727 129.385C187.819 132.433 178.337 139.405 174.072 155.311C166.102 185.038 191.808 205.234 206.641 210.722C221.474 216.21 228.42 202.034 225.477 193.321C222.534 184.607 195.308 175.097 185.363 212.442C182.764 222.2 167.636 235.571 203.265 250.303" stroke="black" stroke-width="2" stroke-linecap="round" stroke-linejoin="round" stroke-dasharray="7.95 7.95"/>
<rect x="243.515" y="215.028" width="54.4951" height="79.604" rx="4" transform="rotate(17.0163 243.515 215.028)" fill="white" stroke="black" stroke-width="2"/>
<rect x="232.089" y="218.541" width="54.4951" height="79.604" rx="4" transform="rotate(10.7428 232.089 218.541)" fill="white" stroke="black" stroke-width="2"/>
<path d="M234.324 275.222C234.715 275.296 235.047 275.448 235.32 275.676C235.598 275.905 235.795 276.191 235.911 276.535C236.027 276.878 236.047 277.253 235.97 277.658C235.893 278.063 235.737 278.407 235.502 278.689C235.268 278.966 234.98 279.161 234.637 279.272C234.3 279.384 233.936 279.403 233.545 279.329C233.005 279.227 232.611 278.965 232.364 278.545L231.995 280.489L231.057 280.311L232.094 274.846L232.987 275.015L232.887 275.541C233.079 275.38 233.296 275.274 233.539 275.221C233.787 275.17 234.049 275.17 234.324 275.222ZM233.593 278.506C233.938 278.571 234.243 278.51 234.507 278.321C234.775 278.134 234.945 277.852 235.017 277.477C235.088 277.102 235.033 276.778 234.851 276.505C234.675 276.233 234.414 276.064 234.068 275.998C233.843 275.956 233.63 275.97 233.43 276.041C233.231 276.106 233.061 276.225 232.92 276.395C232.779 276.565 232.684 276.775 232.637 277.026C232.589 277.276 232.6 277.506 232.669 277.716C232.738 277.926 232.853 278.101 233.013 278.24C233.174 278.375 233.367 278.463 233.593 278.506Z" fill="black"/>
<path d="M238.729 276.058C239.32 276.17 239.743 276.398 240 276.742C240.262 277.083 240.339 277.538 240.23 278.108L239.785 280.458L238.899 280.29L238.991 279.802C238.843 279.956 238.652 280.059 238.419 280.114C238.191 280.164 237.928 280.161 237.627 280.104C237.327 280.047 237.074 279.947 236.868 279.804C236.662 279.656 236.514 279.48 236.423 279.276C236.338 279.068 236.318 278.849 236.361 278.619C236.43 278.258 236.617 277.996 236.923 277.831C237.235 277.662 237.679 277.632 238.254 277.741L239.29 277.938L239.302 277.878C239.355 277.598 239.311 277.366 239.169 277.184C239.032 277.002 238.799 276.88 238.469 276.818C238.243 276.775 238.014 276.768 237.78 276.796C237.552 276.825 237.351 276.888 237.177 276.985L236.939 276.232C237.179 276.111 237.455 276.037 237.767 276.008C238.078 275.979 238.399 275.995 238.729 276.058ZM237.952 279.457C238.187 279.502 238.405 279.489 238.605 279.418C238.811 279.343 238.971 279.213 239.084 279.027L239.172 278.561L238.204 278.377C237.663 278.275 237.359 278.401 237.292 278.757C237.259 278.927 237.301 279.075 237.418 279.2C237.534 279.326 237.712 279.412 237.952 279.457Z" fill="black"/>
<path d="M242.218 280.974C241.892 280.913 241.583 280.81 241.288 280.666C240.994 280.522 240.767 280.367 240.606 280.202L241.102 279.557C241.26 279.712 241.456 279.85 241.692 279.973C241.934 280.091 242.178 280.174 242.423 280.22C242.984 280.326 243.292 280.232 243.348 279.937C243.375 279.797 243.32 279.685 243.186 279.603C243.056 279.521 242.838 279.425 242.533 279.315C242.212 279.203 241.952 279.094 241.754 278.989C241.562 278.885 241.403 278.738 241.278 278.548C241.159 278.355 241.127 278.113 241.182 277.822C241.255 277.442 241.47 277.169 241.828 277.004C242.192 276.834 242.644 276.801 243.185 276.903C243.46 276.956 243.729 277.04 243.992 277.158C244.256 277.27 244.465 277.395 244.621 277.534L244.125 278.178C243.823 277.914 243.459 277.741 243.033 277.66C242.758 277.608 242.54 277.611 242.378 277.668C242.223 277.722 242.132 277.816 242.107 277.951C242.078 278.101 242.133 278.223 242.271 278.317C242.415 278.406 242.641 278.509 242.951 278.625C243.262 278.736 243.514 278.843 243.707 278.947C243.9 279.051 244.054 279.194 244.17 279.377C244.29 279.561 244.324 279.795 244.27 280.08C244.198 280.456 243.979 280.725 243.611 280.889C243.243 281.052 242.778 281.081 242.218 280.974Z" fill="black"/>
<path d="M246.082 281.708C245.756 281.646 245.446 281.543 245.152 281.399C244.858 281.255 244.631 281.1 244.47 280.935L244.966 280.29C245.123 280.445 245.32 280.583 245.556 280.706C245.798 280.824 246.042 280.907 246.287 280.953C246.847 281.059 247.156 280.965 247.212 280.67C247.238 280.53 247.184 280.418 247.05 280.336C246.92 280.254 246.702 280.158 246.396 280.048C246.075 279.936 245.816 279.827 245.618 279.722C245.425 279.618 245.267 279.471 245.142 279.281C245.023 279.088 244.991 278.846 245.046 278.555C245.118 278.175 245.333 277.902 245.692 277.737C246.056 277.567 246.508 277.534 247.048 277.636C247.324 277.689 247.593 277.773 247.856 277.891C248.12 278.003 248.329 278.128 248.484 278.267L247.989 278.912C247.686 278.647 247.322 278.474 246.897 278.393C246.622 278.341 246.403 278.344 246.242 278.401C246.087 278.455 245.996 278.549 245.971 278.684C245.942 278.834 245.997 278.956 246.135 279.05C246.278 279.139 246.505 279.242 246.815 279.358C247.126 279.469 247.378 279.576 247.571 279.68C247.764 279.784 247.918 279.927 248.034 280.11C248.154 280.294 248.188 280.528 248.133 280.813C248.062 281.189 247.843 281.458 247.474 281.622C247.106 281.785 246.642 281.814 246.082 281.708Z" fill="black"/>
<path d="M251.708 278.52C252.098 278.595 252.43 278.746 252.703 278.974C252.981 279.203 253.178 279.489 253.295 279.833C253.411 280.176 253.431 280.551 253.354 280.956C253.277 281.362 253.121 281.705 252.886 281.987C252.652 282.264 252.363 282.459 252.021 282.57C251.683 282.682 251.319 282.701 250.929 282.627C250.388 282.525 249.995 282.263 249.748 281.843L249.379 283.788L248.44 283.61L249.477 278.144L250.371 278.313L250.271 278.839C250.462 278.678 250.679 278.572 250.923 278.519C251.171 278.468 251.433 278.468 251.708 278.52ZM250.976 281.804C251.322 281.869 251.626 281.808 251.89 281.62C252.159 281.432 252.329 281.151 252.4 280.775C252.471 280.4 252.416 280.076 252.235 279.803C252.058 279.531 251.797 279.362 251.452 279.296C251.227 279.254 251.014 279.268 250.814 279.339C250.615 279.405 250.445 279.523 250.303 279.693C250.162 279.863 250.068 280.073 250.02 280.324C249.973 280.574 249.984 280.804 250.053 281.014C250.122 281.224 250.236 281.399 250.397 281.538C250.558 281.673 250.751 281.761 250.976 281.804Z" fill="black"/>
<path d="M255.655 283.524C255.25 283.447 254.901 283.29 254.609 283.053C254.317 282.816 254.108 282.525 253.981 282.18C253.861 281.83 253.838 281.458 253.913 281.062C253.988 280.667 254.145 280.331 254.385 280.055C254.629 279.78 254.93 279.585 255.288 279.472C255.647 279.359 256.029 279.34 256.434 279.417C256.845 279.495 257.196 279.652 257.488 279.889C257.78 280.126 257.987 280.417 258.108 280.761C258.235 281.107 258.26 281.477 258.185 281.873C258.11 282.268 257.95 282.606 257.705 282.886C257.466 283.162 257.167 283.357 256.809 283.471C256.45 283.584 256.066 283.602 255.655 283.524ZM255.808 282.721C256.153 282.786 256.46 282.725 256.729 282.538C256.998 282.35 257.168 282.069 257.239 281.693C257.311 281.318 257.255 280.994 257.074 280.721C256.892 280.448 256.629 280.279 256.283 280.213C255.938 280.147 255.631 280.208 255.362 280.396C255.098 280.584 254.931 280.866 254.859 281.242C254.788 281.617 254.841 281.941 255.017 282.213C255.199 282.486 255.462 282.655 255.808 282.721Z" fill="black"/>
<path d="M260.245 280.794C260.595 280.424 261.111 280.304 261.791 280.434L261.622 281.327C261.545 281.297 261.474 281.275 261.408 281.263C261.043 281.194 260.737 281.247 260.491 281.424C260.246 281.595 260.086 281.881 260.01 282.281L259.641 284.226L258.702 284.048L259.463 280.038L260.356 280.208L260.245 280.794Z" fill="black"/>
<path d="M264.416 284.906C264.289 284.975 264.141 285.017 263.972 285.032C263.809 285.047 263.639 285.039 263.464 285.005C263.024 284.922 262.705 284.742 262.509 284.466C262.312 284.191 262.255 283.832 262.339 283.392L262.705 281.462L262.044 281.337L262.187 280.586L262.848 280.712L263.021 279.796L263.96 279.974L263.786 280.89L264.86 281.093L264.717 281.844L263.644 281.641L263.282 283.547C263.245 283.743 263.264 283.902 263.339 284.025C263.415 284.143 263.543 284.219 263.723 284.254C263.934 284.293 264.119 284.272 264.28 284.188L264.416 284.906Z" fill="black"/>
<path fill-rule="evenodd" clip-rule="evenodd" d="M250.735 266.433C252.356 266.741 254.022 266.726 255.637 266.39C257.252 266.054 258.785 265.403 260.149 264.474C261.513 263.545 262.68 262.357 263.584 260.977C264.489 259.598 265.112 258.053 265.42 256.432C265.727 254.811 265.713 253.146 265.377 251.531C265.04 249.915 264.389 248.382 263.461 247.019C262.532 245.655 261.344 244.488 259.964 243.583C258.584 242.679 257.04 242.055 255.419 241.748C252.145 241.127 248.759 241.831 246.005 243.707C243.252 245.583 241.356 248.475 240.734 251.749C240.113 255.022 240.818 258.408 242.694 261.162C244.569 263.916 247.462 265.812 250.735 266.433ZM259.033 244.514C259.416 245.122 259.736 245.808 259.991 246.544C260.46 247.886 260.73 249.439 260.779 251.109C261.308 251.354 261.798 251.607 262.249 251.87C263.081 252.356 263.795 252.879 264.334 253.429C264.226 251.627 263.689 249.878 262.767 248.327C261.844 246.776 260.564 245.469 259.033 244.514ZM263.612 258.113C262.875 258.47 261.955 258.723 260.918 258.883C260.445 258.955 259.943 259.009 259.412 259.043C258.718 260.849 257.803 262.419 256.748 263.645C256.262 264.217 255.713 264.733 255.112 265.183C257.016 264.832 258.798 263.998 260.286 262.76C261.775 261.522 262.92 259.921 263.612 258.113ZM247.123 263.667C246.728 263.028 246.406 262.347 246.162 261.637C245.631 260.11 245.353 258.313 245.369 256.378C244.911 256.164 244.463 255.93 244.026 255.678C243.119 255.15 242.356 254.577 241.802 253.975C241.783 255.911 242.262 257.82 243.194 259.517C244.125 261.214 245.479 262.643 247.123 263.667ZM242.844 249.35C243.547 249.037 244.402 248.812 245.355 248.665C245.871 248.586 246.42 248.53 247.001 248.495C247.658 246.959 248.478 245.612 249.405 244.536C249.892 243.964 250.44 243.448 251.041 242.998C249.267 243.326 247.598 244.074 246.172 245.179C244.747 246.284 243.606 247.714 242.847 249.35M258.776 246.967C259.142 248.019 259.378 249.232 259.464 250.553C257.907 249.956 256.304 249.488 254.67 249.153L255.788 243.26C257.047 243.762 258.105 245.043 258.776 246.967ZM259.496 251.954C257.859 251.286 256.163 250.772 254.43 250.418L253.111 257.37C255.052 257.699 256.888 257.833 258.492 257.795C258.762 256.986 258.983 256.136 259.153 255.243C259.367 254.114 259.479 253.01 259.496 251.954ZM254.522 243.019L253.404 248.911C251.761 248.626 250.098 248.474 248.431 248.459C248.993 247.262 249.659 246.219 250.384 245.375C251.712 243.831 253.166 243.026 254.522 243.019ZM253.163 250.178C251.422 249.873 249.655 249.73 247.887 249.752C247.502 250.787 247.206 251.852 247.001 252.938C246.832 253.829 246.727 254.705 246.682 255.553C248.16 256.177 249.918 256.725 251.845 257.128L253.163 250.178ZM245.552 249.938C245.851 249.894 246.164 249.856 246.491 249.826C245.924 251.491 245.567 253.221 245.429 254.975C245.164 254.839 244.912 254.702 244.674 254.564C243.727 254.012 243.03 253.454 242.601 252.931C242.167 252.404 242.066 251.992 242.124 251.684C242.182 251.377 242.428 251.03 243.024 250.699C243.615 250.37 244.468 250.105 245.552 249.94M247.379 261.216C246.949 259.982 246.698 258.526 246.661 256.937C248.126 257.519 249.803 258.02 251.604 258.396L250.366 264.923C249.107 264.42 248.049 263.14 247.379 261.216ZM251.633 265.162L252.871 258.634C254.567 258.93 256.285 259.081 258.006 259.087C257.39 260.553 256.622 261.815 255.771 262.805C254.442 264.349 252.988 265.155 251.633 265.162ZM260.418 255.483C260.272 256.253 260.09 256.997 259.871 257.715C260.167 257.686 260.451 257.651 260.723 257.609C261.806 257.442 262.659 257.178 263.251 256.848C263.846 256.517 264.092 256.171 264.151 255.863C264.209 255.556 264.107 255.144 263.674 254.617C263.244 254.094 262.548 253.535 261.6 252.984C261.338 252.832 261.061 252.682 260.768 252.534C260.724 253.495 260.61 254.483 260.42 255.484" fill="black"/>
<path d="M157.288 121.03C156.545 123.194 157.367 123.801 157.666 126.037C157.353 125.264 157.238 124.536 156.982 123.745C156.79 123.149 156.302 122.84 156.001 122.335C155.363 121.265 153.855 120.147 152.693 119.717C150.675 118.971 148.876 117.792 147.235 116.356C145.444 114.788 143.241 113.133 142.411 110.79C141.788 109.031 140.766 106.772 141.332 104.917C141.569 104.139 141.053 103.277 141.255 102.479C141.43 101.789 141.07 100.792 141.134 100.047C141.219 99.0595 141.186 98.0759 141.205 97.1028C141.219 96.4247 141.049 95.342 141.498 94.7972C141.791 94.4421 141.68 94.1999 141.823 93.8359C141.94 93.5371 142.375 93.2554 142.597 93.0184C143.342 92.2225 144.215 91.736 145.077 91.0551C146.81 89.6861 148.854 88.6222 151.14 88.7603C152.589 88.8479 153.999 89.702 155.386 89.7566C156.649 89.8063 157.663 90.1369 158.892 90.4666C161.283 91.1076 163.889 93.1427 164.884 95.4455C165.493 96.8538 165.781 97.9171 165.988 99.4683C166.159 100.747 165.955 101.866 165.908 103.105C165.731 107.773 162.964 111.585 160.468 115.312C159.227 117.165 158.036 118.853 157.288 121.03Z" fill="#00B6B7"/>
<path d="M157.666 126.037C157.367 123.801 156.545 123.194 157.288 121.03C158.036 118.853 159.227 117.165 160.468 115.312C162.964 111.585 165.731 107.773 165.908 103.105C165.955 101.866 166.159 100.747 165.988 99.4683C165.781 97.9171 165.493 96.8538 164.884 95.4455C163.889 93.1427 161.283 91.1076 158.892 90.4666C157.663 90.1369 156.649 89.8063 155.386 89.7566C153.999 89.702 152.589 88.8479 151.14 88.7603C148.854 88.6222 146.81 89.6861 145.077 91.0551C144.215 91.736 143.342 92.2225 142.597 93.0184C142.375 93.2554 141.94 93.5371 141.823 93.8359C141.68 94.1999 141.791 94.4421 141.498 94.7972C141.049 95.342 141.219 96.4247 141.205 97.1028C141.186 98.0759 141.219 99.0595 141.134 100.047C141.07 100.792 141.43 101.789 141.255 102.479C141.053 103.277 141.569 104.139 141.332 104.917C140.766 106.772 141.788 109.031 142.411 110.79C143.241 113.133 145.444 114.788 147.235 116.356C148.876 117.792 150.675 118.971 152.693 119.717C153.855 120.147 155.363 121.265 156.001 122.335C156.302 122.84 156.79 123.149 156.982 123.745C157.254 124.586 157.367 125.356 157.728 126.184" stroke="#17384B" stroke-width="2" stroke-linecap="round"/>
<path d="M149.729 99.7595C150.173 99.3278 150.648 98.9346 151.185 98.6723C152.501 98.7719 153.768 99.2796 154.946 100.128C156.322 101.118 156.961 102.114 156.874 103.87C156.778 105.817 156.192 106.842 154.289 107.253C151.142 107.933 148.498 105.391 148.43 102.336C148.399 100.919 148.81 100.654 149.729 99.7595Z" fill="white"/>
<path d="M152.173 98.3678C151.203 98.4974 150.427 99.0808 149.729 99.7595C148.81 100.654 148.399 100.919 148.43 102.336C148.498 105.391 151.142 107.933 154.289 107.253C156.192 106.842 156.778 105.817 156.874 103.87C156.961 102.114 156.322 101.118 154.946 100.128C152.951 98.6912 150.698 98.2311 148.392 99.0771" stroke="#17384B" stroke-width="2" stroke-linecap="round"/>
</svg>
