<svg width="19" height="20" viewBox="0 0 19 20" fill="none" xmlns="http://www.w3.org/2000/svg">
<g clip-path="url(#clip0_1_183)">
<path d="M17.1389 3.7858C17.5815 4.35306 17.9505 4.97521 18.264 5.63395L9.74283 11.8737L6.16467 9.64133V6.96975L9.72439 9.18386L17.1389 3.7858Z" fill="#21A038"/>
<path d="M2.5337 9.46036C2.5337 9.33227 2.5337 9.22248 2.55214 9.09438L0.394177 8.98459C0.394177 9.13099 0.375732 9.29567 0.375732 9.44206C0.375732 12.0039 1.42705 14.3278 3.1239 16.0112L4.65476 14.4924C3.34523 13.2115 2.5337 11.4366 2.5337 9.46036Z" fill="url(#paint0_linear_1_183)"/>
<path d="M9.72421 2.32573C9.85332 2.32573 9.96399 2.32572 10.0931 2.34403L10.2038 0.203097C10.0562 0.203097 9.89021 0.184798 9.74266 0.184798C7.16048 0.184798 4.81808 1.22781 3.12122 2.91128L4.65208 4.43006C5.94316 3.13086 7.7507 2.32573 9.72421 2.32573Z" fill="url(#paint1_linear_1_183)"/>
<path d="M9.72662 16.5978C9.59751 16.5978 9.48684 16.5978 9.35773 16.5794L9.24707 18.7204C9.39462 18.7204 9.56062 18.7386 9.70817 18.7386C12.2903 18.7386 14.6327 17.6957 16.3296 16.0122L14.7987 14.4934C13.5076 15.8109 11.7186 16.5978 9.72662 16.5978Z" fill="url(#paint2_linear_1_183)"/>
<path d="M13.7846 3.57047L15.6106 2.23467C14.006 0.953774 11.9587 0.166938 9.72693 0.166938V2.30786C11.2393 2.32616 12.6412 2.78362 13.7846 3.57047Z" fill="url(#paint3_linear_1_183)"/>
<path d="M19.0963 9.45738C19.0963 8.89013 19.041 8.34118 18.9488 7.79222L16.9384 9.2744C16.9384 9.3293 16.9384 9.40249 16.9384 9.45738C16.9384 11.5617 16.0161 13.4465 14.5591 14.7457L16.0161 16.3376C17.8974 14.6541 19.0963 12.1839 19.0963 9.45738Z" fill="#21A038"/>
<path d="M9.72527 16.5976C7.60421 16.5976 5.70446 15.6827 4.39493 14.2371L2.79028 15.6827C4.50559 17.5674 6.9771 18.7385 9.72527 18.7385V16.5976Z" fill="url(#paint4_linear_1_183)"/>
<path d="M4.91299 4.17347L3.45591 2.58148C1.55616 4.28325 0.375732 6.73525 0.375732 9.46174H2.5337C2.5337 7.3757 3.45591 5.47266 4.91299 4.17347Z" fill="url(#paint5_linear_1_183)"/>
</g>
<defs>
<linearGradient id="paint0_linear_1_183" x1="2.89363" y1="15.7507" x2="0.75084" y2="9.41148" gradientUnits="userSpaceOnUse">
<stop offset="0.1444" stop-color="#F2E913"/>
<stop offset="0.3037" stop-color="#E7E518"/>
<stop offset="0.5823" stop-color="#CADB26"/>
<stop offset="0.891" stop-color="#A3CD39"/>
</linearGradient>
<linearGradient id="paint1_linear_1_183" x1="3.73634" y1="2.66969" x2="9.3075" y2="0.496796" gradientUnits="userSpaceOnUse">
<stop offset="0.0592" stop-color="#0FA8E0"/>
<stop offset="0.5385" stop-color="#0099F9"/>
<stop offset="0.9234" stop-color="#0291EB"/>
</linearGradient>
<linearGradient id="paint2_linear_1_183" x1="9.12036" y1="16.9179" x2="15.7786" y2="15.3778" gradientUnits="userSpaceOnUse">
<stop offset="0.1226" stop-color="#A3CD39"/>
<stop offset="0.2846" stop-color="#86C339"/>
<stop offset="0.8693" stop-color="#21A038"/>
</linearGradient>
<linearGradient id="paint3_linear_1_183" x1="9.28355" y1="1.53055" x2="14.8127" y2="3.27657" gradientUnits="userSpaceOnUse">
<stop offset="0.0566" stop-color="#0291EB"/>
<stop offset="0.79" stop-color="#0C8ACB"/>
</linearGradient>
<linearGradient id="paint4_linear_1_183" x1="3.33898" y1="16.0219" x2="9.27111" y2="18.2904" gradientUnits="userSpaceOnUse">
<stop offset="0.1324" stop-color="#F2E913"/>
<stop offset="0.2977" stop-color="#EBE716"/>
<stop offset="0.5306" stop-color="#D9E01F"/>
<stop offset="0.8023" stop-color="#BBD62D"/>
<stop offset="0.9829" stop-color="#A3CD39"/>
</linearGradient>
<linearGradient id="paint5_linear_1_183" x1="2.02921" y1="9.72033" x2="4.34731" y2="3.5486" gradientUnits="userSpaceOnUse">
<stop offset="0.0698" stop-color="#A3CD39"/>
<stop offset="0.2599" stop-color="#81C55F"/>
<stop offset="0.9216" stop-color="#0FA8E0"/>
</linearGradient>
<clipPath id="clip0_1_183">
<rect width="18.5366" height="20" fill="white" transform="translate(0.319824)"/>
</clipPath>
</defs>
</svg>
