<svg width="152" height="149" viewBox="0 0 152 149" fill="none" xmlns="http://www.w3.org/2000/svg">
<path d="M135.396 29.0339C138.947 33.585 141.907 38.5765 144.422 43.8616L76.0571 93.923L47.3496 76.0127V54.5787L75.9091 72.3424L135.396 29.0339Z" fill="#21A038"/>
<path d="M18.2155 74.5612C18.2155 73.5336 18.2155 72.6527 18.3635 71.625L1.0502 70.7441C1.0502 71.9187 0.902222 73.2399 0.902222 74.4144C0.902222 94.9678 9.33691 113.612 22.9507 127.119L35.2328 114.933C24.7265 104.657 18.2155 90.4166 18.2155 74.5612Z" fill="url(#paint0_linear_1_1224)"/>
<path d="M75.907 17.3197C76.9428 17.3197 77.8307 17.3197 78.8665 17.4665L79.7544 0.289919C78.5706 0.289919 77.2388 0.143112 76.055 0.143112C55.3382 0.143112 36.5451 8.51121 22.9313 22.0176L35.2134 34.2027C45.5717 23.7793 60.0735 17.3197 75.907 17.3197Z" fill="url(#paint1_linear_1_1224)"/>
<path d="M75.926 131.824C74.8902 131.824 74.0023 131.824 72.9664 131.677L72.0786 148.854C73.2624 148.854 74.5942 149 75.778 149C96.4944 149 115.288 140.632 128.901 127.126L116.619 114.941C106.261 125.511 91.9075 131.824 75.926 131.824Z" fill="url(#paint2_linear_1_1224)"/>
<path d="M108.486 27.3064L123.135 16.5894C110.262 6.31277 93.8363 0 75.9311 0V17.1766C88.0652 17.3234 99.3119 20.9936 108.486 27.3064Z" fill="url(#paint3_linear_1_1224)"/>
<path d="M151.098 74.5362C151.098 69.9852 150.654 65.581 149.914 61.1767L133.784 73.0682C133.784 73.5086 133.784 74.0958 133.784 74.5362C133.784 91.4192 126.385 106.541 114.695 116.964L126.385 129.736C141.479 116.23 151.098 96.4111 151.098 74.5362Z" fill="#21A038"/>
<path d="M75.9163 131.823C58.899 131.823 43.6574 124.482 33.1511 112.884L20.277 124.482C34.0389 139.603 53.8678 148.999 75.9163 148.999V131.823Z" fill="url(#paint4_linear_1_1224)"/>
<path d="M37.3045 32.1441L25.6144 19.3717C10.3728 33.0249 0.902222 52.6973 0.902222 74.5718H18.2155C18.2155 57.8355 25.6144 42.5675 37.3045 32.1441Z" fill="url(#paint5_linear_1_1224)"/>
<defs>
<linearGradient id="paint0_linear_1_1224" x1="21.1033" y1="125.029" x2="3.91171" y2="74.1691" gradientUnits="userSpaceOnUse">
<stop offset="0.1444" stop-color="#F2E913"/>
<stop offset="0.3037" stop-color="#E7E518"/>
<stop offset="0.5823" stop-color="#CADB26"/>
<stop offset="0.891" stop-color="#A3CD39"/>
</linearGradient>
<linearGradient id="paint1_linear_1_1224" x1="27.8664" y1="20.0794" x2="72.5637" y2="2.64627" gradientUnits="userSpaceOnUse">
<stop offset="0.0592" stop-color="#0FA8E0"/>
<stop offset="0.5385" stop-color="#0099F9"/>
<stop offset="0.9234" stop-color="#0291EB"/>
</linearGradient>
<linearGradient id="paint2_linear_1_1224" x1="71.062" y1="134.392" x2="124.481" y2="122.036" gradientUnits="userSpaceOnUse">
<stop offset="0.1226" stop-color="#A3CD39"/>
<stop offset="0.2846" stop-color="#86C339"/>
<stop offset="0.8693" stop-color="#21A038"/>
</linearGradient>
<linearGradient id="paint3_linear_1_1224" x1="72.3739" y1="10.9402" x2="116.734" y2="24.9485" gradientUnits="userSpaceOnUse">
<stop offset="0.0566" stop-color="#0291EB"/>
<stop offset="0.79" stop-color="#0C8ACB"/>
</linearGradient>
<linearGradient id="paint4_linear_1_1224" x1="24.6792" y1="127.203" x2="72.2726" y2="145.404" gradientUnits="userSpaceOnUse">
<stop offset="0.1324" stop-color="#F2E913"/>
<stop offset="0.2977" stop-color="#EBE716"/>
<stop offset="0.5306" stop-color="#D9E01F"/>
<stop offset="0.8023" stop-color="#BBD62D"/>
<stop offset="0.9829" stop-color="#A3CD39"/>
</linearGradient>
<linearGradient id="paint5_linear_1_1224" x1="14.168" y1="76.6464" x2="32.7661" y2="27.1308" gradientUnits="userSpaceOnUse">
<stop offset="0.0698" stop-color="#A3CD39"/>
<stop offset="0.2599" stop-color="#81C55F"/>
<stop offset="0.9216" stop-color="#0FA8E0"/>
</linearGradient>
</defs>
</svg>
