<svg width="201" height="34" viewBox="0 0 201 34" fill="none" xmlns="http://www.w3.org/2000/svg">
<path d="M89.9257 10.1354L94.0949 7.07812H80.1372V25.3917H94.0949V22.3344H84.1252V17.6586H92.6448V14.6013H84.1252V10.1354H89.9257Z" fill="white"/>
<path d="M69.594 14.2117H64.7602V10.1354H72.4944L76.6635 7.07812H60.7722V25.3917H69.0804C73.733 25.3917 76.4217 23.2935 76.4217 19.6368C76.4217 16.1299 74.0048 14.2117 69.594 14.2117ZM68.9293 22.3344H64.7602V17.2689H68.9293C71.4672 17.2689 72.6454 18.1082 72.6454 19.8166C72.6454 21.5251 71.3765 22.3344 68.9293 22.3344Z" fill="white"/>
<path d="M105.391 7.07812H97.8083V25.3917H101.796V20.2062H105.422C110.255 20.2062 113.277 17.6885 113.277 13.6422C113.277 9.59584 110.255 7.07812 105.391 7.07812ZM105.301 17.149H101.766V10.1354H105.301C107.869 10.1354 109.258 11.3942 109.258 13.6422C109.258 15.8902 107.869 17.149 105.301 17.149Z" fill="white"/>
<path d="M53.9442 21.4308C52.8869 22.0003 51.7086 22.3001 50.5001 22.3001C46.9049 22.3001 44.3067 19.7524 44.3067 16.2456C44.3067 12.7387 46.9049 10.191 50.5001 10.191C51.7991 10.161 53.068 10.5806 54.1255 11.33L56.9956 9.23186L56.8143 9.05202C55.1527 7.58335 52.917 6.83403 50.3793 6.83403C47.63 6.83403 45.1224 7.76319 43.3098 9.44168C41.497 11.1801 40.4698 13.6079 40.5304 16.1256C40.5001 18.6734 41.497 21.1312 43.3098 22.9294C45.2131 24.698 47.7508 25.687 50.349 25.6271C53.2191 25.6271 55.7267 24.638 57.4185 22.8396L54.8506 20.9513L53.9442 21.4308Z" fill="white"/>
<path d="M161.224 7.10809V25.4215H165.212V17.9283H173.701V25.4215H177.689V7.10809H173.701V14.6313H165.212V7.10809H161.224ZM154.366 25.4215H158.565L150.771 7.10809H146.722L138.777 25.4215H142.795L144.396 21.7349H152.855L154.366 25.4215ZM145.605 18.6777L148.686 11.3343L151.586 18.6777H145.605ZM186.632 18.0183H189.109L195.211 25.3917H200.347L192.191 15.9201L199.32 7.07812H194.759L188.837 14.931H186.632V7.07812H182.644V25.3917H186.632V18.0183ZM125.605 14.2417V10.1653H136.028V7.10809H121.617V25.4215H129.925C134.577 25.4215 137.266 23.3235 137.266 19.6668C137.266 16.1599 134.849 14.2417 130.438 14.2417H125.605ZM125.605 22.3644V17.2989H129.774C132.311 17.2989 133.49 18.1381 133.49 19.8466C133.49 21.5552 132.251 22.3942 129.774 22.3942H125.605V22.3644Z" fill="white"/>
<path d="M28.0495 6.95116C28.7746 7.88034 29.3788 8.89942 29.8924 9.97844L15.9348 20.1992L10.0737 16.5425V12.1665L15.9045 15.7932L28.0495 6.95116Z" fill="white"/>
<path d="M4.12556 16.2462C4.12556 16.0364 4.12556 15.8565 4.15578 15.6467L0.621032 15.4669C0.621032 15.7067 0.59082 15.9764 0.59082 16.2162C0.59082 20.4125 2.31288 24.219 5.09232 26.9765L7.59988 24.4887C5.45487 22.3906 4.12556 19.4833 4.12556 16.2462Z" fill="white"/>
<path d="M15.9041 4.55954C16.1156 4.55954 16.2968 4.55954 16.5083 4.58952L16.6896 1.08268C16.4479 1.08268 16.176 1.0527 15.9343 1.0527C11.7047 1.0527 7.86783 2.76116 5.08838 5.51867L7.59593 8.00644C9.71073 5.87835 12.6715 4.55954 15.9041 4.55954Z" fill="white"/>
<path d="M15.9081 27.9371C15.6966 27.9371 15.5153 27.9371 15.3038 27.9071L15.1226 31.4141C15.3642 31.4141 15.6362 31.4439 15.8778 31.4439C20.1074 31.4439 23.9443 29.7355 26.7237 26.978L24.2161 24.4902C22.1014 26.6482 19.1709 27.9371 15.9081 27.9371Z" fill="white"/>
<path d="M22.5557 6.59837L25.5466 4.41033C22.9182 2.31222 19.5648 1.02339 15.9092 1.02339V4.53022C18.3865 4.5602 20.6827 5.30951 22.5557 6.59837Z" fill="white"/>
<path d="M31.2553 16.2412C31.2553 15.312 31.1646 14.4129 31.0135 13.5137L27.7205 15.9415C27.7205 16.0314 27.7205 16.1513 27.7205 16.2412C27.7205 19.6881 26.2098 22.7754 23.8232 24.9034L26.2098 27.511C29.2914 24.7535 31.2553 20.7073 31.2553 16.2412Z" fill="white"/>
<path d="M15.9061 27.9368C12.4318 27.9368 9.32005 26.4382 7.17504 24.0703L4.54663 26.4382C7.3563 29.5253 11.4046 31.4436 15.9061 31.4436V27.9368Z" fill="white"/>
<path d="M8.02285 7.58616L5.63615 4.97849C2.52436 7.76598 0.59082 11.7824 0.59082 16.2483H4.12556C4.12556 12.8314 5.63615 9.71424 8.02285 7.58616Z" fill="white"/>
</svg>
