<svg width="186" height="31" viewBox="0 0 186 31" fill="none" xmlns="http://www.w3.org/2000/svg">
<path d="M83.4562 9.16765L87.3056 6.34483H74.4182V23.2541H87.3056V20.4313H78.1004V16.114H85.9667V13.2912H78.1004V9.16765H83.4562Z" fill="#21A038"/>
<path d="M64.6831 12.9314H60.22V9.16765H67.3611L71.2106 6.34483H56.5378V23.2541H64.2089C68.5048 23.2541 70.9874 21.3169 70.9874 17.9405C70.9874 14.7026 68.7558 12.9314 64.6831 12.9314ZM64.0695 20.4313H60.22V15.7542H64.0695C66.4127 15.7542 67.5006 16.5291 67.5006 18.1066C67.5006 19.6841 66.329 20.4313 64.0695 20.4313Z" fill="#21A038"/>
<path d="M97.7358 6.34483H90.7344V23.2541H94.4164V18.4663H97.7638C102.227 18.4663 105.016 16.1417 105.016 12.4056C105.016 8.6695 102.227 6.34483 97.7358 6.34483ZM97.6523 15.6435H94.3886V9.16765H97.6523C100.023 9.16765 101.307 10.33 101.307 12.4056C101.307 14.4812 100.023 15.6435 97.6523 15.6435Z" fill="#21A038"/>
<path d="M50.2335 19.597C49.2573 20.1228 48.1694 20.3996 47.0535 20.3996C43.7341 20.3996 41.335 18.0473 41.335 14.8093C41.335 11.5714 43.7341 9.21904 47.0535 9.21904C48.253 9.19136 49.4246 9.5788 50.401 10.2707L53.051 8.33344L52.8836 8.16739C51.3494 6.81133 49.2851 6.11947 46.942 6.11947C44.4035 6.11947 42.0882 6.97738 40.4146 8.52716C38.7408 10.1323 37.7924 12.374 37.8483 14.6986C37.8203 17.051 38.7408 19.3204 40.4146 20.9807C42.1719 22.6137 44.515 23.5268 46.9141 23.4715C49.5641 23.4715 51.8794 22.5582 53.4415 20.8977L51.0704 19.1543L50.2335 19.597Z" fill="#21A038"/>
<path d="M149.287 6.37251V23.2817H152.969V16.3631H160.808V23.2817H164.49V6.37251H160.808V13.3189H152.969V6.37251H149.287ZM142.955 23.2817H146.832L139.635 6.37251H135.897L128.561 23.2817H132.271L133.75 19.8777H141.56L142.955 23.2817ZM134.865 17.0549L137.711 10.2746L140.388 17.0549H134.865ZM172.747 16.4461H175.034L180.668 23.2541H185.411L177.879 14.5089L184.462 6.34483H180.251L174.783 13.5956H172.747V6.34483H169.065V23.2541H172.747V16.4461ZM116.399 12.9591V9.19532H126.023V6.37251H112.717V23.2817H120.388C124.684 23.2817 127.166 21.3446 127.166 17.9682C127.166 14.7303 124.935 12.9591 120.862 12.9591H116.399ZM116.399 20.459V15.7819H120.248C122.591 15.7819 123.679 16.5568 123.679 18.1343C123.679 19.7118 122.536 20.4865 120.248 20.4865H116.399V20.459Z" fill="#21A038"/>
<path d="M26.3245 6.22762C26.9939 7.08555 27.5519 8.02649 28.0261 9.02278L15.1387 18.4598L9.72705 15.0835V11.043L15.1108 14.3917L26.3245 6.22762Z" fill="#21A038"/>
<path d="M4.2349 14.81C4.2349 14.6162 4.2349 14.4502 4.26279 14.2565L0.999086 14.0904C0.999086 14.3118 0.971191 14.5609 0.971191 14.7823C0.971191 18.6568 2.5612 22.1714 5.12753 24.7175L7.4428 22.4205C5.46227 20.4832 4.2349 17.7988 4.2349 14.81Z" fill="url(#paint0_linear_1_1250)"/>
<path d="M15.1104 4.01938C15.3057 4.01938 15.473 4.01938 15.6683 4.04706L15.8357 0.809117C15.6125 0.809117 15.3615 0.781443 15.1383 0.781443C11.233 0.781443 7.69036 2.3589 5.12402 4.90497L7.4393 7.20197C9.39194 5.23707 12.1257 4.01938 15.1104 4.01938Z" fill="url(#paint1_linear_1_1250)"/>
<path d="M15.1139 25.6044C14.9187 25.6044 14.7513 25.6044 14.556 25.5767L14.3887 28.8147C14.6118 28.8147 14.8629 28.8423 15.086 28.8423C18.9913 28.8423 22.5339 27.2649 25.1002 24.7188L22.7849 22.4218C20.8323 24.4143 18.1266 25.6044 15.1139 25.6044Z" fill="url(#paint2_linear_1_1250)"/>
<path d="M21.2516 5.90202L24.0132 3.88176C21.5864 1.94453 18.49 0.754519 15.1147 0.754519V3.99245C17.4021 4.02013 19.5222 4.71199 21.2516 5.90202Z" fill="url(#paint3_linear_1_1250)"/>
<path d="M29.2845 14.8052C29.2845 13.9473 29.2008 13.1171 29.0613 12.2868L26.0208 14.5285C26.0208 14.6115 26.0208 14.7222 26.0208 14.8052C26.0208 17.9878 24.626 20.8384 22.4224 22.8032L24.626 25.2109C27.4712 22.6648 29.2845 18.9288 29.2845 14.8052Z" fill="#21A038"/>
<path d="M15.112 25.6041C11.9041 25.6041 9.03094 24.2204 7.0504 22.0341L4.62354 24.2204C7.21776 27.0708 10.9557 28.842 15.112 28.842V25.6041Z" fill="url(#paint4_linear_1_1250)"/>
<path d="M7.83334 6.81396L5.62965 4.40624C2.75647 6.97999 0.971191 10.6884 0.971191 14.8119H4.2349C4.2349 11.657 5.62965 8.77886 7.83334 6.81396Z" fill="url(#paint5_linear_1_1250)"/>
<defs>
<linearGradient id="paint0_linear_1_1250" x1="4.77926" y1="24.3235" x2="1.53851" y2="14.736" gradientUnits="userSpaceOnUse">
<stop offset="0.1444" stop-color="#F2E913"/>
<stop offset="0.3037" stop-color="#E7E518"/>
<stop offset="0.5823" stop-color="#CADB26"/>
<stop offset="0.891" stop-color="#A3CD39"/>
</linearGradient>
<linearGradient id="paint1_linear_1_1250" x1="6.05434" y1="4.5396" x2="14.4802" y2="1.25331" gradientUnits="userSpaceOnUse">
<stop offset="0.0592" stop-color="#0FA8E0"/>
<stop offset="0.5385" stop-color="#0099F9"/>
<stop offset="0.9234" stop-color="#0291EB"/>
</linearGradient>
<linearGradient id="paint2_linear_1_1250" x1="14.197" y1="26.0886" x2="24.267" y2="23.7594" gradientUnits="userSpaceOnUse">
<stop offset="0.1226" stop-color="#A3CD39"/>
<stop offset="0.2846" stop-color="#86C339"/>
<stop offset="0.8693" stop-color="#21A038"/>
</linearGradient>
<linearGradient id="paint3_linear_1_1250" x1="14.4442" y1="2.81685" x2="22.8064" y2="5.45754" gradientUnits="userSpaceOnUse">
<stop offset="0.0566" stop-color="#0291EB"/>
<stop offset="0.79" stop-color="#0C8ACB"/>
</linearGradient>
<linearGradient id="paint4_linear_1_1250" x1="5.45338" y1="24.7334" x2="14.4251" y2="28.1643" gradientUnits="userSpaceOnUse">
<stop offset="0.1324" stop-color="#F2E913"/>
<stop offset="0.2977" stop-color="#EBE716"/>
<stop offset="0.5306" stop-color="#D9E01F"/>
<stop offset="0.8023" stop-color="#BBD62D"/>
<stop offset="0.9829" stop-color="#A3CD39"/>
</linearGradient>
<linearGradient id="paint5_linear_1_1250" x1="3.47191" y1="15.203" x2="6.9778" y2="5.86891" gradientUnits="userSpaceOnUse">
<stop offset="0.0698" stop-color="#A3CD39"/>
<stop offset="0.2599" stop-color="#81C55F"/>
<stop offset="0.9216" stop-color="#0FA8E0"/>
</linearGradient>
</defs>
</svg>
