<svg width="32" height="32" viewBox="0 0 32 32" fill="none" xmlns="http://www.w3.org/2000/svg">
<rect width="32" height="32" rx="10" fill="#E20000"/>
<path d="M9.30671 27.6294H12.3578V18.524H17.9329C20.5101 18.5133 22.4963 17.8956 23.8914 16.6709C25.2971 15.4356 26 13.6837 26 11.4153C26 9.25346 25.2705 7.53887 23.8115 6.27156C22.3525 5.00426 20.377 4.37061 17.885 4.37061H9.30671V20.7125H6V23.2364H9.30671V27.6294Z" stroke="white"/>
<path d="M12.7994 23.2364V23.7364H13.2994H18.6508H19.1508V23.2364V20.7125V20.2125H18.6508H13.2994H12.7994V20.7125V23.2364Z" stroke="white"/>
<path d="M15.0377 24.1428V24.2172H15.1121H20.4635H20.538V24.1428V21.6188V21.5444H20.4635H15.1121H15.0377V21.6188V24.1428Z" fill="white" stroke="white" stroke-width="0.148887"/>
<path d="M6 18.508H9.30671V16H6V18.508Z" fill="white"/>
</svg>
