<svg width="222" height="66" viewBox="0 0 222 66" fill="none" xmlns="http://www.w3.org/2000/svg">
<g clip-path="url(#clip0_0_1948)">
<path fill-rule="evenodd" clip-rule="evenodd" d="M207.187 22.6902H211.751L211.723 29.8866H212.714L215.319 22.6902H220.257L216.713 32.1976L220.768 42.7218H215.425L212.798 34.6664H211.723L211.751 42.7218H207.187V22.6902ZM191.812 22.6902H196.348V29.9133H199.596V22.689H204.128V42.7206H199.596V34.692H196.348V42.7206H191.812V22.6902ZM176.004 42.7473H180.727L181.292 39.2837H184.537L185.102 42.7473H189.825L185.853 22.7192H180.002L176.004 42.7473ZM182.927 28.7839L183.786 34.88H182.04L182.927 28.7839ZM163.334 42.7218H168.862C170.069 42.7218 175.089 42.2099 175.116 36.1405C175.116 31.045 171.227 30.157 168.702 30.157H167.871V27.4978H174.016V22.6913H163.334V42.7218ZM167.871 38.6929V34.1569H168.542C169.105 34.1569 170.556 34.1824 170.556 36.2496C170.556 38.347 169.105 38.6929 168.542 38.6929H167.871ZM145.328 22.6902H149.273L152.758 27.4154L156.278 22.6902H160.196V42.7218H155.549V30.5041L152.758 33.9944L149.97 30.5029V42.7218H145.328V22.6902ZM135.745 42.9644C141.247 42.9644 143.097 37.8062 143.097 32.6804C143.097 27.5536 141.247 22.3965 135.745 22.3965C130.244 22.3965 128.393 27.5536 128.393 32.6804C128.393 37.8062 130.244 42.9644 135.745 42.9644ZM135.745 38.1021C134.105 38.1021 133.277 36.1986 133.277 32.6793C133.277 29.1612 134.105 27.2553 135.745 27.2553C137.385 27.2553 138.212 29.1612 138.212 32.6804C138.212 36.1986 137.385 38.1021 135.745 38.1021ZM114.945 42.7218H119.588V36.1173H121.146C125.734 36.1173 127.158 31.9805 127.158 29.3457C127.158 26.7701 125.518 22.6902 121.146 22.6902H114.945V42.7218ZM119.588 27.0939H120.689C121.736 27.0939 122.408 27.7381 122.408 29.4037C122.408 31.5511 121.279 31.7101 120.689 31.7101H119.588V27.0939ZM99.621 22.6902H112.288V42.7218H107.645V27.5222H104.264V42.7206H99.621V22.6902ZM90.0927 30.4519C90.8425 30.4519 92.2145 29.9678 92.2145 28.4914C92.2145 26.7469 90.6313 26.6366 90.1716 26.6366C89.6377 26.6366 88.6186 26.7202 87.6238 27.203L87.5704 22.8503C89.1537 22.4487 90.2819 22.3408 91.6213 22.3408C95.4354 22.3408 97.1255 25.0012 97.1255 27.6023C97.1255 30.1292 95.6746 31.6555 94.2538 32.2487V32.4355C95.6235 32.8696 97.447 34.1812 97.447 37.2432C97.447 41.0318 94.8179 43.1234 91.4345 43.1234C89.6365 43.099 88.4561 42.8564 87.033 42.0787L87.1143 37.9141C88.4294 38.4805 89.315 38.5328 90.2018 38.5328C91.7049 38.5328 92.2934 37.4301 92.2934 36.628C92.2934 35.4987 91.5691 34.7477 89.9871 34.7477H88.1067V30.453H90.0927V30.4519ZM71.8463 42.7218H76.5413L77.1333 39.2559H80.3798L80.9428 42.7218H85.6379L81.6659 22.6902H75.8159L71.8463 42.7218ZM78.7409 28.7328L79.6277 34.8545H77.8553L78.7409 28.7328ZM62.8554 22.6902H72.379V27.6836H67.5771V42.7218H62.8554V22.6902ZM24.0167 9.36865C11.2024 9.36865 0.787323 19.7803 0.787323 32.5945C0.787323 45.3845 11.2036 55.7972 24.0167 55.7972C36.802 55.7972 47.2159 45.3845 47.2159 32.5945C47.2159 19.7803 36.802 9.36865 24.0167 9.36865ZM24.0167 54.6365C11.8478 54.6365 1.94804 44.7461 1.94804 32.5945C1.94804 20.4245 11.8431 10.5294 24.0167 10.5294C36.1659 10.5294 46.0552 20.4268 46.0552 32.5945C46.0552 44.7437 36.1624 54.6365 24.0167 54.6365Z" fill="#476BF0"/>
<path fill-rule="evenodd" clip-rule="evenodd" d="M14.4775 18.6974C20.0849 16.2019 26.9308 16.3644 30.6044 18.001C31.7593 18.5384 32.5358 18.8634 32.8875 19.5041C29.0746 18.4827 27.438 18.2981 24.246 18.3759C19.7076 18.4571 13.6696 20.2539 11.3621 21.627L10.3465 22.8911C13.6696 20.9248 19.8701 19.6411 23.3082 19.532C27.1455 19.4797 30.1216 19.8291 32.8608 20.8215C32.6983 21.5179 32.3501 21.8685 31.7605 22.219C20.8103 20.3108 14.3417 22.5649 8.49049 26.3779L8.06335 27.6384C14.5854 23.158 22.5804 21.9242 30.2852 23.2648C27.5204 24.2317 24.2193 24.4464 21.4557 25.086C19.0948 25.6245 17.8331 25.787 14.6887 26.8363C11.5002 27.8833 9.61638 28.957 8.43826 30.3266C7.87415 30.9731 7.44469 31.7229 7.33558 32.5262C7.28567 33.0079 7.31237 33.4408 7.47487 33.8726C7.60254 34.2475 7.89969 34.6224 8.22353 34.9985C7.84978 35.6415 7.52245 36.4772 8.06335 37.4441C8.30362 37.8968 8.92112 38.3529 9.51424 38.787L9.34826 39.2664C9.26701 39.834 9.18924 40.5026 9.56531 41.0655C10.2072 42.0858 10.986 42.759 12.2199 43.4032C12.4102 44.2366 12.7027 44.9052 13.3469 45.4995C14.7154 46.7588 17.7774 49.1754 23.2234 49.5527C27.3057 49.8231 30.2295 48.5858 31.331 48.0484L32.6716 47.352C30.392 48.262 26.5547 48.8005 23.4115 48.5312C18.8499 48.1552 14.7734 45.1768 14.2627 44.3155C14.4217 44.42 14.6376 44.5024 14.8222 44.5848C20.165 47.1616 27.0619 48.5591 35.8926 44.9609L36.6204 44.2621C28.5917 46.7577 21.5636 46.6799 14.019 42.7323C14.1014 42.3574 14.2627 42.0301 14.6086 41.7678C16.54 42.6209 18.3937 43.3231 20.649 43.7781C23.2792 44.2621 26.2842 44.3712 28.7554 44.2621C31.2509 44.1553 36.1875 42.9203 38.524 41.6853C38.7375 41.4985 38.8443 41.1781 39.0579 40.9611C34.4986 42.6209 29.0758 43.4032 25.8025 43.1595C22.6083 42.9203 19.7668 42.542 16.0061 40.8253C16.7292 40.5316 17.4814 40.289 18.2335 40.0708C20.7024 40.8253 23.2234 41.2779 26.203 41.4149C29.1582 41.5495 36.054 40.4515 40.4008 37.8202C40.5367 37.4441 40.6701 37.0379 40.6701 37.0379C40.6701 37.0379 34.6309 40.2646 27.7897 40.2646C24.5942 40.2646 22.6361 39.805 21.1875 39.4568C24.4062 38.8648 28.4606 38.3808 33.0199 37.2282C35.3274 36.6362 38.1734 35.2921 39.4618 34.1662C40.5622 33.1704 41.4223 31.8808 41.1286 30.5704C41.0706 30.2175 40.5889 29.3899 39.9981 29.0916C40.5622 28.3673 40.5088 27.7487 40.4299 27.2147C40.3741 26.8062 40.1861 26.3535 39.9482 25.9519C39.5618 25.4217 39.0658 24.9811 38.4938 24.66C38.6054 24.0963 38.5304 23.5116 38.2802 22.9944C37.7173 22.0275 36.6993 21.1976 34.9536 20.3108C34.8735 19.9603 34.6565 19.5041 34.2839 19.0491C32.0843 16.8739 28.4861 15.827 25.452 15.7724C25.2837 15.7686 25.1154 15.7667 24.9471 15.7666C21.3988 15.7666 18.5504 16.564 16.7873 17.387C15.8703 17.7839 15.1727 18.2157 14.4775 18.6974ZM34.7366 21.627C35.491 22.1111 36.35 22.8365 36.4544 23.5887C35.6512 23.2892 34.7923 22.9735 33.9612 22.7564C34.2305 22.4604 34.6298 22.0043 34.7366 21.627ZM30.7112 24.9838C31.627 24.6321 32.241 24.2595 32.7808 23.8278C33.9844 24.1481 35.1126 24.5532 36.0296 24.9537C35.8717 25.1893 34.9525 26.0389 34.6716 26.0389C34.6572 26.0399 34.6428 26.0371 34.6298 26.0308C33.3449 25.6791 32.2178 25.2496 30.7112 24.9838ZM37.9332 26.0563C38.6563 26.6738 38.8699 27.1033 38.5228 27.7754C38.0423 27.4271 37.5281 27.2379 36.9675 26.9698C37.3133 26.7005 37.6372 26.408 37.9332 26.0563ZM15.6312 28.5287C18.9857 27.5304 22.9042 26.7841 26.4491 26.3535C28.8866 26.0563 30.1784 26.3279 32.4871 26.9443C26.5558 28.5275 20.7024 29.0347 15.1193 30.6748C10.6192 31.9829 9.42487 33.63 9.40629 33.63C7.41683 30.8907 14.3138 28.9337 15.6312 28.5287ZM18.8 31.8286C23.762 30.7549 28.3793 30.0852 30.2841 29.6023C32.5939 29.0347 34.2038 28.5008 35.3274 27.9657C35.3819 27.8845 37.2066 28.7689 37.3934 28.9802C36.7783 29.4932 35.9216 29.925 34.9792 30.243C32.1621 31.2645 27.0375 32.337 24.3273 32.7467C21.5892 33.2005 19.3037 33.5476 16.2754 34.3496C14.5285 34.8104 13.3469 35.3467 12.488 35.912C11.8438 35.5347 11.4689 35.4291 10.8792 34.9439C12.972 33.1704 17.2411 32.1779 18.7988 31.8286H18.8ZM17.5592 36.1812C22.2833 35.0217 26.4467 34.8093 32.19 33.2539C34.9525 32.5262 36.9663 31.745 38.2291 30.7839C38.4149 30.6191 38.6017 30.4868 38.7921 30.3266C40.4554 32.9034 34.2026 34.8905 29.9324 35.8075C27.5703 36.2857 24.2959 36.8754 23.2223 37.0669C20.4366 37.523 19.5184 37.7656 17.587 38.3286C16.6213 37.9513 15.6544 37.5486 14.7723 37.0912C15.6544 36.7163 16.6213 36.4204 17.558 36.1824L17.5592 36.1812ZM11.0127 37.0379C10.8247 37.2004 10.5821 37.3629 10.3952 37.5486C9.96808 37.3048 9.53629 36.7732 9.74987 36.2857C10.1793 36.5573 10.5008 36.7732 11.0127 37.0379ZM12.9708 38.0361C13.7764 38.4121 14.6075 38.7557 15.3851 39.1074C14.8621 39.2986 14.3597 39.542 13.8855 39.834C13.2449 39.4845 12.6095 39.1254 11.9796 38.7569C12.2477 38.5154 12.5948 38.2752 12.9708 38.0349V38.0361ZM12.6517 40.852C12.4625 41.1212 12.3267 41.3337 12.2489 41.6053C11.5757 41.04 11.2518 40.5838 11.2808 40.072C11.737 40.3679 12.1932 40.6082 12.6505 40.852H12.6517Z" fill="#476BF0"/>
</g>
<defs>
<clipPath id="clip0_0_1948">
<rect width="220.536" height="65" fill="white" transform="translate(0.787598 0.0830078)"/>
</clipPath>
</defs>
</svg>
