<svg width="24" height="25" viewBox="0 0 24 25" fill="none" xmlns="http://www.w3.org/2000/svg">
<path fill-rule="evenodd" clip-rule="evenodd" d="M8.08813 6.93465C8.39687 6.34262 8.57143 5.66951 8.57143 4.95564C8.57143 2.5887 6.65263 0.669922 4.28571 0.669922C1.91878 0.669922 0 2.5887 0 4.95564C0 7.25308 1.80777 9.12829 4.07844 9.23642L4.97409 17.9689C3.5817 18.405 2.57143 19.7052 2.57143 21.2414C2.57143 23.1349 4.10645 24.6699 6 24.6699C7.89356 24.6699 9.42857 23.1349 9.42857 21.2414C9.42857 21.1967 9.42771 21.1523 9.42604 21.1081L16.7877 18.4311C17.451 19.5975 18.7051 20.3842 20.1429 20.3842C22.2731 20.3842 24 18.6573 24 16.5271C24 14.3968 22.2731 12.6699 20.1429 12.6699C19.095 12.6699 18.1447 13.0878 17.4496 13.766L8.08813 6.93465ZM5.35753 9.10622C6.1167 8.91075 6.7944 8.51252 7.32951 7.97269L16.691 14.804C16.4316 15.3226 16.2857 15.9078 16.2857 16.5271C16.2857 16.7646 16.3072 16.9972 16.3483 17.2229L9.13299 19.8466C8.631 18.7207 7.53994 17.9153 6.25144 17.8219L5.35753 9.10622Z" fill="white"/>
</svg>
