<svg width="145" height="24" viewBox="0 0 145 24" fill="none" xmlns="http://www.w3.org/2000/svg">
<g clip-path="url(#clip0_0_1504)">
<path d="M132.194 19.069C129.103 19.069 126.356 16.829 125.648 13.737H144.001C144.001 13.737 144.1 12.617 144.1 12.22C144.1 5.65701 138.76 0.31601 132.197 0.31601C125.634 0.31601 120.294 5.65601 120.294 12.22C120.294 18.785 125.604 24 132.197 24C138.79 24 142.64 19.143 143.601 15.627H138.006C138.006 15.627 136.227 19.069 132.194 19.069ZM132.197 5.24501C135.161 5.24501 137.734 7.20301 138.615 10.12H125.779C126.657 7.20301 129.231 5.24501 132.197 5.24501ZM62.16 24C55.597 24 50.449 18.716 50.449 12.22C50.449 5.72501 55.789 0.31601 62.352 0.31601C68.915 0.31601 74.254 5.86601 74.254 12.157V23.41H69.634V19.655L69.297 19.566C68.483 21.561 65.536 24 62.16 24ZM62.352 5.24501C58.645 5.24501 55.628 8.35701 55.628 12.184C55.628 16.01 58.644 19.07 62.352 19.07C66.06 19.07 69.075 15.981 69.075 12.184C69.075 8.38601 66.059 5.24501 62.352 5.24501ZM87.441 24C80.878 24 75.73 18.716 75.73 12.22C75.73 5.72501 81.07 0.31601 87.633 0.31601C94.196 0.31601 99.536 5.86601 99.536 12.157V23.41H94.914V19.655L94.578 19.566C93.764 21.561 90.817 24 87.441 24ZM87.633 5.24501C83.926 5.24501 80.909 8.35701 80.909 12.184C80.909 16.01 83.925 19.07 87.633 19.07C91.341 19.07 94.356 15.981 94.356 12.184C94.356 8.38601 91.341 5.24501 87.633 5.24501ZM107.293 23.407L97.808 0.90801H102.998L109.949 17.482L116.902 0.90801H122.09L112.606 23.408H107.293V23.407ZM16.874 23.965C18.1135 23.965 19.3022 23.4726 20.1787 22.5962C21.0551 21.7197 21.5475 20.531 21.5475 19.2915C21.5475 18.052 21.0551 16.8633 20.1787 15.9868C19.3022 15.1104 18.1135 14.618 16.874 14.618C15.6345 14.618 14.4458 15.1104 13.5693 15.9868C12.6929 16.8633 12.2005 18.052 12.2005 19.2915C12.2005 20.531 12.6929 21.7197 13.5693 22.5962C14.4458 23.4726 15.6345 23.965 16.874 23.965ZM29.088 23.965C30.3275 23.965 31.5162 23.4726 32.3927 22.5962C33.2691 21.7197 33.7615 20.531 33.7615 19.2915C33.7615 18.052 33.2691 16.8633 32.3927 15.9868C31.5162 15.1104 30.3275 14.618 29.088 14.618C27.8485 14.618 26.6598 15.1104 25.7833 15.9868C24.9069 16.8633 24.4145 18.052 24.4145 19.2915C24.4145 20.531 24.9069 21.7197 25.7833 22.5962C26.6598 23.4726 27.8485 23.965 29.088 23.965Z" fill="white"/>
<path d="M22.973 0C10.284 0 -0.00299934 10.483 6.56001e-07 23.411H5.869C5.869 13.723 13.466 5.868 22.973 5.868C32.48 5.868 40.077 13.723 40.077 23.411H45.946C45.948 10.483 35.66 0 22.973 0Z" fill="white"/>
</g>
<defs>
<clipPath id="clip0_0_1504">
<rect width="145" height="24" fill="white"/>
</clipPath>
</defs>
</svg>
