<svg width="22" height="23" viewBox="0 0 22 23" fill="none" xmlns="http://www.w3.org/2000/svg">
<path d="M17.1875 6H4.8125C4.6263 6 4.46517 6.06803 4.3291 6.2041C4.19303 6.34017 4.125 6.5013 4.125 6.6875V7.375C4.125 7.5612 4.19303 7.72233 4.3291 7.8584C4.46517 7.99447 4.6263 8.0625 4.8125 8.0625H17.1875C17.3737 8.0625 17.5348 7.99447 17.6709 7.8584C17.807 7.72233 17.875 7.5612 17.875 7.375V6.6875C17.875 6.5013 17.807 6.34017 17.6709 6.2041C17.5348 6.06803 17.3737 6 17.1875 6ZM17.1875 10.125H4.8125C4.6263 10.125 4.46517 10.193 4.3291 10.3291C4.19303 10.4652 4.125 10.6263 4.125 10.8125V11.5C4.125 11.6862 4.19303 11.8473 4.3291 11.9834C4.46517 12.1195 4.6263 12.1875 4.8125 12.1875H17.1875C17.3737 12.1875 17.5348 12.1195 17.6709 11.9834C17.807 11.8473 17.875 11.6862 17.875 11.5V10.8125C17.875 10.6263 17.807 10.4652 17.6709 10.3291C17.5348 10.193 17.3737 10.125 17.1875 10.125ZM17.1875 14.25H4.8125C4.6263 14.25 4.46517 14.318 4.3291 14.4541C4.19303 14.5902 4.125 14.7513 4.125 14.9375V15.625C4.125 15.8112 4.19303 15.9723 4.3291 16.1084C4.46517 16.2445 4.6263 16.3125 4.8125 16.3125H17.1875C17.3737 16.3125 17.5348 16.2445 17.6709 16.1084C17.807 15.9723 17.875 15.8112 17.875 15.625V14.9375C17.875 14.7513 17.807 14.5902 17.6709 14.4541C17.5348 14.318 17.3737 14.25 17.1875 14.25Z" fill="#F6F9FE"/>
</svg>
