<svg width="24" height="24" viewBox="0 0 24 24" fill="none" xmlns="http://www.w3.org/2000/svg">
<path fill-rule="evenodd" clip-rule="evenodd" d="M1.5 3.075V12.405C1.5 21.945 12 24 12 24C12 24 22.5 21.945 22.5 12.405V3.075L12 0L1.5 3.075ZM16.4107 6.7794C16.6957 6.5094 17.1457 6.5244 17.4157 6.8094C17.6557 7.0794 17.6557 7.4844 17.4457 7.7544L11.1157 15.4194L11.0707 15.4794C10.6507 15.9894 9.8857 16.0644 9.3757 15.6444C9.3304 15.6218 9.29365 15.582 9.25899 15.5445C9.24775 15.5324 9.23672 15.5204 9.2257 15.5094L6.5107 12.3894C6.2107 12.0294 6.2407 11.4894 6.6007 11.1894C6.9007 10.9194 7.3357 10.9194 7.6507 11.1294L10.0057 12.7794L16.4107 6.7794Z" fill="#656D77"/>
</svg>
