<svg width="24" height="24" viewBox="0 0 24 24" fill="none" xmlns="http://www.w3.org/2000/svg">
<path fill-rule="evenodd" clip-rule="evenodd" d="M23 12C23 18.0751 18.0751 23 12 23C5.92487 23 1 18.0751 1 12C1 5.92487 5.92487 1 12 1C18.0751 1 23 5.92487 23 12ZM11.0835 9.47917C11.0835 11.1245 9.85224 12.4583 8.33346 12.4583C6.81468 12.4583 5.58346 11.1245 5.58346 9.47917C5.58346 7.83382 6.81468 6.5 8.33346 6.5C9.85224 6.5 11.0835 7.83382 11.0835 9.47917ZM19.2277 10.9433C19.2277 12.3848 18.1491 13.5533 16.8185 13.5533C15.488 13.5533 14.4093 12.3848 14.4093 10.9433C14.4093 9.50188 15.488 8.33337 16.8185 8.33337C18.1491 8.33337 19.2277 9.50188 19.2277 10.9433ZM12.9167 18.3207C12.9167 16.1735 11.4086 14.3786 9.3938 13.9373C9.05067 13.8691 8.69612 13.8334 8.33336 13.8334C6.48108 13.8334 4.84266 14.7648 3.84604 16.1924C5.36795 19.1464 8.44805 21.1667 12 21.1667C12.3094 21.1667 12.6152 21.1513 12.9167 21.1214V18.3207ZM20.1779 16.1456C19.0706 18.3255 17.1173 20.0034 14.7502 20.747V18.3207C14.7502 17.3428 14.5281 16.4167 14.1316 15.5902C14.8992 15.0646 15.8237 14.7579 16.8186 14.7579C18.125 14.7579 19.31 15.2868 20.1779 16.1456Z" fill="#656D77"/>
</svg>
